<svg xmlns="http://www.w3.org/2000/svg" width="148.7" height="265.298"><path style="stroke:#2d8661;stroke-width:3px;fill:none;" d="M68 217 L68 217 L68 210 L68 202 L68 194 L67 187 L68 179 L62 174 L60 167 L62 160 L67 155 L68 147 L68 139 L68 132 L68 124 L62 130 L55 130 L50 124 L50 117 L55 111 L62 111 L68 117 L67 109 L68 102 L60 100 L55 94 L53 87 L55 79 L61 74 L67 72 L68 64 L68 57 L70 50 L78 50 L80 57 L80 64 L80 72 L86 76 L90 83 L90 91 L86 97 L80 102 L80 109 L80 117 L80 124 L80 132 L80 139 L80 147 L80 155 L87 154 L94 157 L98 163 L98 171 L94 177 L87 180 L80 179 L80 187 L80 194 L80 202 L80 210 L85 215 L93 215 L100 215"/></svg>