<svg xmlns="http://www.w3.org/2000/svg" width="230.4" height="242.328"><path style="stroke:#797fd2;stroke-width:3px;fill:none;" d="M112 194 L112 194 L112 186 L112 179 L112 171 L112 164 L112 156 L112 149 L112 141 L105 138 L99 132 L97 125 L89 125 L81 125 L77 131 L70 134 L62 134 L56 131 L51 125 L50 118 L52 110 L57 105 L63 102 L71 102 L78 106 L82 113 L89 113 L97 113 L100 106 L106 101 L104 94 L102 87 L100 80 L98 72 L91 68 L89 61 L91 54 L97 50 L105 50 L111 55 L113 62 L109 69 L111 76 L114 83 L116 91 L118 98 L125 99 L132 103 L138 99 L144 95 L151 90 L157 86 L163 82 L168 76 L176 76 L180 82 L177 90 L170 92 L164 96 L157 100 L151 105 L145 109 L139 113 L140 121 L138 128 L144 133 L150 137 L156 142 L162 147 L170 146 L176 151 L178 158 L176 165 L170 169 L162 169 L156 164 L155 156 L149 152 L143 147 L137 142 L131 138 L124 141 L124 149 L124 156 L124 164 L124 171 L124 179 L124 186 L129 192 L124 197"/></svg>