<svg xmlns="http://www.w3.org/2000/svg" width="246.06" height="283.39"><path style="stroke:#3a786b;stroke-width:3px;fill:none;" d="M110 233 L110 233 L117 233 L117 225 L116 218 L116 210 L116 203 L117 195 L109 194 L102 192 L94 190 L87 186 L81 183 L75 178 L69 173 L64 167 L60 161 L57 154 L54 147 L52 140 L50 133 L50 125 L50 117 L51 110 L52 103 L55 95 L58 89 L62 82 L66 76 L71 70 L77 65 L83 61 L90 57 L97 54 L104 52 L111 50 L119 50 L126 50 L134 50 L141 52 L148 54 L155 57 L162 61 L168 65 L174 70 L179 76 L183 82 L187 89 L190 95 L193 103 L194 110 L195 117 L196 125 L195 133 L193 140 L191 147 L188 154 L184 161 L180 167 L175 173 L170 178 L164 183 L157 186 L151 190 L143 192 L136 194 L129 195 L129 203 L129 210 L129 218 L129 225 L129 233 L136 233"/></svg>