<svg xmlns="http://www.w3.org/2000/svg" width="223.94" height="233.26"><path style="stroke:#5372ac;stroke-width:3px;fill:none;" d="M97 188 L97 188 L102 183 L107 177 L104 170 L107 163 L107 156 L107 148 L107 141 L100 137 L95 132 L92 125 L84 125 L77 125 L72 131 L65 133 L57 132 L52 126 L50 119 L52 112 L57 107 L65 105 L72 107 L77 113 L84 113 L92 113 L95 106 L100 101 L98 94 L95 87 L93 80 L90 72 L84 69 L81 62 L83 54 L89 50 L96 50 L102 54 L105 61 L102 68 L104 75 L107 83 L110 90 L112 97 L120 98 L126 101 L131 106 L135 113 L136 121 L134 128 L140 133 L146 137 L152 142 L157 147 L165 147 L171 151 L173 158 L171 165 L165 170 L157 169 L151 164 L150 156 L144 152 L138 147 L132 142 L126 137 L120 141 L120 148 L120 156 L119 163 L123 170 L120 177 L125 183 L132 183 L140 183"/></svg>