<svg xmlns="http://www.w3.org/2000/svg" width="231.5" height="241.841"><path style="stroke:#99ac53;stroke-width:3px;fill:none;" d="M115 194 L115 194 L115 186 L115 179 L115 171 L115 163 L115 156 L115 148 L115 141 L108 137 L103 132 L99 125 L92 125 L84 125 L77 125 L72 131 L65 133 L57 132 L52 126 L50 119 L52 112 L57 107 L65 105 L72 107 L77 113 L84 113 L92 113 L99 113 L103 106 L108 101 L105 94 L103 87 L100 80 L98 72 L91 69 L89 62 L91 54 L96 50 L104 50 L110 54 L112 61 L109 68 L112 75 L115 83 L117 90 L119 97 L127 98 L134 101 L139 106 L142 113 L143 121 L141 128 L147 133 L153 137 L159 142 L165 147 L173 147 L179 151 L181 158 L178 165 L172 170 L165 169 L159 164 L157 156 L152 152 L146 147 L140 142 L134 137 L127 141 L127 148 L127 156 L127 163 L127 171 L127 179 L127 186 L133 191 L127 197"/></svg>