<svg xmlns="http://www.w3.org/2000/svg" width="271.365" height="287.687"><path style="stroke:#865b2d;stroke-width:3px;fill:none;" d="M48 243 L48 243 L54 237 L59 232 L59 224 L59 217 L59 209 L59 202 L59 194 L59 186 L53 182 L50 175 L50 168 L53 161 L59 157 L59 149 L59 141 L59 134 L59 126 L59 119 L59 111 L59 104 L59 96 L59 89 L59 81 L59 73 L54 68 L52 61 L56 54 L62 50 L69 50 L76 54 L79 61 L77 68 L71 73 L71 81 L72 89 L78 92 L71 96 L72 104 L72 111 L72 119 L72 126 L71 134 L72 141 L71 149 L72 157 L78 161 L81 168 L81 175 L78 182 L72 186 L72 194 L72 202 L72 209 L72 217 L72 224 L72 232 L77 237 L85 237 L92 237 L100 237 L107 237 L115 237 L122 237 L130 237 L137 237 L145 237 L152 237 L160 237 L165 232 L165 224 L165 217 L165 209 L161 203 L161 196 L165 190 L165 182 L165 175 L158 172 L158 164 L165 161 L166 153 L162 146 L165 140 L165 132 L165 124 L162 117 L165 111 L165 103 L165 95 L160 90 L158 83 L161 76 L168 72 L175 72 L182 76 L184 83 L183 90 L178 95 L178 103 L177 111 L181 117 L178 124 L178 132 L178 140 L185 137 L192 139 L194 146 L192 153 L184 156 L178 153 L177 161 L181 168 L178 175 L178 182 L178 190 L185 193 L188 199 L185 206 L177 209 L178 217 L178 224 L178 232 L183 237 L191 237 L198 237 L206 237 L213 237 L221 237 L228 237"/></svg>