<svg xmlns="http://www.w3.org/2000/svg" width="292.578" height="228.3"><path style="stroke:#404abf;stroke-width:3px;fill:none;" d="M98 170 L98 170 L106 170 L113 170 L121 170 L128 170 L136 170 L141 164 L141 157 L142 149 L141 142 L141 134 L135 130 L128 134 L122 138 L115 142 L111 148 L103 149 L97 153 L90 157 L84 160 L77 164 L71 168 L67 175 L61 178 L54 175 L50 169 L51 161 L57 157 L65 157 L71 154 L77 150 L84 146 L91 142 L83 140 L79 134 L82 126 L88 123 L95 124 L99 131 L97 138 L97 131 L103 127 L109 131 L116 128 L122 124 L129 120 L129 112 L131 105 L136 100 L144 97 L151 97 L158 100 L164 95 L170 91 L176 86 L178 79 L184 74 L192 74 L198 70 L203 65 L209 61 L212 53 L218 50 L226 51 L230 57 L230 64 L225 70 L217 70 L211 75 L205 79 L199 84 L197 91 L191 96 L184 96 L178 100 L171 105 L165 110 L166 117 L165 124 L160 130 L154 134 L153 142 L154 149 L153 157 L154 164 L159 170 L166 170 L174 170 L182 170 L189 170 L197 170 L204 170 L212 170 L219 170 L227 170 L235 170 L242 170 L250 170"/></svg>