<svg xmlns="http://www.w3.org/2000/svg" width="227.997" height="295.68"><path style="stroke:#c587b7;stroke-width:3px;fill:none;" d="M62 247 L62 247 L61 240 L61 232 L61 225 L61 217 L61 210 L61 202 L61 194 L61 187 L61 179 L54 177 L50 171 L50 163 L54 157 L61 155 L61 147 L61 140 L61 132 L61 124 L61 117 L61 109 L61 102 L55 98 L61 94 L61 87 L61 79 L61 71 L56 66 L56 58 L60 52 L67 50 L75 52 L79 58 L78 66 L73 71 L74 79 L74 87 L74 94 L74 102 L73 109 L73 117 L74 124 L74 132 L74 140 L74 147 L74 155 L79 160 L81 167 L79 174 L74 179 L73 187 L74 194 L73 202 L74 210 L74 217 L73 225 L73 232 L73 240 L79 245 L86 245 L94 245 L101 245 L109 245 L117 245 L124 245 L132 245 L139 245 L144 240 L138 236 L145 232 L144 225 L145 217 L145 210 L145 202 L144 194 L145 187 L137 188 L130 187 L123 184 L118 178 L116 171 L116 163 L118 156 L123 150 L130 147 L137 145 L144 147 L145 139 L145 132 L145 124 L144 117 L144 109 L145 102 L144 94 L144 86 L144 79 L139 74 L136 67 L136 60 L140 54 L147 50 L155 50 L161 54 L165 60 L166 67 L163 74 L157 79 L157 86 L157 94 L157 102 L157 109 L163 113 L157 117 L157 124 L157 132 L157 139 L157 147 L164 150 L169 156 L171 163 L171 171 L169 178 L164 183 L157 187 L157 194 L157 202 L157 210 L157 217 L157 225 L157 232 L157 240 L162 245 L170 245 L177 245 L185 245"/></svg>