<svg xmlns="http://www.w3.org/2000/svg" width="228.99" height="240.127"><path style="stroke:#878dc5;stroke-width:3px;fill:none;" d="M112 192 L112 192 L113 184 L113 177 L113 169 L113 162 L113 154 L110 147 L113 140 L106 137 L100 132 L97 125 L89 126 L82 126 L78 133 L72 136 L64 137 L57 134 L52 129 L50 122 L51 114 L56 108 L63 105 L70 105 L77 108 L81 114 L89 113 L96 113 L99 106 L104 100 L101 93 L98 87 L94 80 L92 73 L85 70 L81 63 L82 56 L88 50 L95 50 L102 53 L105 60 L103 68 L106 75 L109 81 L112 88 L115 95 L123 95 L130 98 L135 92 L140 87 L147 83 L153 88 L149 95 L144 101 L139 106 L141 113 L142 121 L140 128 L146 133 L151 138 L157 143 L163 148 L171 148 L177 152 L178 159 L175 167 L169 170 L162 170 L156 164 L155 157 L149 152 L143 147 L138 142 L132 137 L125 140 L128 147 L125 154 L125 162 L125 169 L125 177 L125 184 L131 190 L131 197"/></svg>