<svg xmlns="http://www.w3.org/2000/svg" width="258.27" height="285.768"><path style="stroke:#9e87c5;stroke-width:3px;fill:none;" d="M112 241 L112 241 L117 235 L123 230 L122 222 L123 215 L123 207 L115 206 L108 205 L100 202 L93 199 L87 196 L81 191 L75 186 L70 181 L65 175 L61 169 L57 162 L54 155 L52 148 L51 141 L50 133 L50 125 L50 118 L52 110 L54 103 L57 96 L60 89 L64 83 L69 77 L74 72 L80 67 L86 62 L92 58 L99 55 L106 53 L113 51 L121 50 L129 50 L136 50 L144 51 L151 53 L158 55 L165 58 L171 62 L177 67 L183 72 L189 77 L193 83 L197 89 L201 96 L203 103 L206 110 L207 118 L208 125 L208 133 L207 141 L205 148 L203 155 L200 162 L196 169 L193 175 L187 181 L182 186 L177 191 L170 196 L164 199 L157 202 L149 205 L142 206 L135 207 L135 215 L135 222 L135 230 L142 228"/></svg>