<svg xmlns="http://www.w3.org/2000/svg" width="228.44" height="241.94"><path style="stroke:#bf4048;stroke-width:3px;fill:none;" d="M111 194 L111 194 L112 186 L112 179 L112 171 L112 163 L112 156 L112 148 L112 141 L105 137 L99 132 L96 125 L89 125 L81 125 L74 125 L69 131 L61 132 L54 129 L50 123 L50 115 L54 109 L61 106 L69 108 L73 113 L81 113 L89 113 L96 113 L99 106 L105 101 L102 94 L100 87 L97 80 L95 72 L88 69 L85 62 L87 54 L93 50 L101 50 L107 54 L109 61 L106 68 L109 75 L111 83 L114 90 L116 97 L124 98 L131 101 L136 106 L139 113 L140 121 L139 128 L144 133 L150 137 L156 142 L162 147 L170 147 L176 151 L178 158 L175 165 L169 170 L161 169 L156 164 L154 156 L148 152 L143 147 L137 142 L131 137 L124 141 L124 148 L124 156 L124 163 L124 171 L124 179 L124 186 L129 191 L124 197"/></svg>