<svg xmlns="http://www.w3.org/2000/svg" width="260.849" height="210.497"><path style="stroke:#d24e2d;stroke-width:3px;fill:none;" d="M42 160 L42 160 L50 160 L57 160 L65 160 L72 160 L80 160 L87 160 L95 160 L102 160 L110 160 L118 160 L125 160 L133 160 L138 155 L138 147 L138 140 L138 132 L138 124 L138 117 L138 109 L138 102 L138 94 L138 87 L138 79 L138 71 L133 66 L133 58 L137 52 L144 50 L151 52 L155 58 L155 66 L150 71 L150 79 L150 87 L152 79 L156 73 L161 67 L167 63 L174 61 L182 60 L190 62 L196 65 L202 70 L207 76 L209 83 L210 90 L210 98 L207 105 L202 111 L196 116 L190 119 L182 120 L174 120 L167 118 L161 114 L156 108 L152 101 L150 94 L150 102 L150 109 L150 117 L150 124 L150 132 L150 140 L150 147 L150 155 L158 152"/></svg>