<svg xmlns="http://www.w3.org/2000/svg" width="257.32" height="272.63"><path style="stroke:#40bf59;stroke-width:3px;fill:none;" d="M113 222 L113 222 L120 222 L120 215 L120 207 L120 199 L120 192 L121 184 L120 177 L120 169 L114 166 L109 160 L105 153 L106 146 L108 138 L103 133 L97 128 L92 122 L87 117 L79 117 L73 113 L70 106 L70 99 L65 93 L59 88 L53 85 L50 78 L52 72 L59 69 L66 72 L68 79 L74 85 L79 90 L84 84 L91 82 L98 84 L103 89 L105 97 L102 104 L96 108 L101 114 L106 119 L112 125 L117 130 L124 128 L125 120 L127 113 L128 106 L123 101 L129 98 L131 91 L129 83 L133 77 L135 70 L136 62 L135 55 L141 50 L148 51 L152 58 L148 64 L146 72 L145 79 L152 84 L150 91 L143 93 L141 100 L140 108 L139 115 L137 123 L136 130 L142 135 L146 141 L148 148 L146 156 L151 150 L159 149 L165 153 L166 161 L162 167 L169 172 L175 176 L180 181 L187 185 L193 189 L200 190 L206 195 L207 202 L202 208 L195 210 L188 206 L186 199 L180 195 L173 190 L167 186 L161 182 L155 177 L148 177 L141 173 L140 166 L132 169 L133 177 L133 184 L133 192 L133 199 L132 207 L133 215 L133 222 L140 222"/></svg>