<svg xmlns="http://www.w3.org/2000/svg" width="294.641" height="199.49"><path style="stroke:#2d8667;stroke-width:3px;fill:none;" d="M101 147 L101 147 L108 147 L116 147 L123 147 L131 147 L138 147 L144 141 L143 134 L143 126 L143 119 L143 111 L137 107 L130 110 L123 114 L117 117 L112 123 L104 123 L97 127 L91 130 L84 133 L77 137 L71 140 L67 147 L60 149 L52 146 L50 139 L51 132 L58 128 L65 129 L72 126 L78 122 L85 119 L92 116 L85 113 L81 106 L84 99 L91 96 L98 98 L101 105 L99 112 L99 105 L106 101 L111 106 L118 103 L125 99 L132 96 L132 89 L136 82 L142 77 L150 76 L157 77 L163 82 L170 79 L177 76 L184 73 L188 67 L195 64 L202 66 L209 63 L216 61 L223 58 L227 51 L235 50 L242 53 L244 60 L242 67 L235 71 L228 69 L221 72 L214 75 L206 78 L203 84 L196 87 L189 85 L182 88 L174 90 L167 93 L166 101 L162 107 L156 111 L156 119 L156 126 L156 134 L156 141 L161 147 L169 147 L176 147 L184 147 L191 147 L199 147 L206 147 L214 147 L221 147 L229 147 L237 147 L244 147 L252 147"/></svg>