<svg xmlns="http://www.w3.org/2000/svg" width="215.6" height="276.75"><path style="stroke:#562dd2;stroke-width:3px;fill:none;" d="M115 226 L115 226 L122 226 L122 219 L122 211 L122 204 L122 196 L122 188 L122 181 L122 173 L116 170 L110 164 L107 157 L108 150 L110 143 L105 137 L99 132 L94 126 L89 121 L81 121 L75 117 L72 110 L72 103 L67 97 L61 92 L54 90 L50 84 L50 77 L56 72 L63 71 L69 76 L70 84 L75 89 L81 94 L85 89 L93 86 L100 88 L105 93 L107 101 L104 108 L98 112 L103 118 L108 123 L113 129 L119 134 L126 132 L127 125 L129 117 L130 110 L124 105 L131 102 L133 95 L134 87 L135 80 L137 72 L138 65 L136 58 L140 51 L147 50 L154 54 L155 61 L150 67 L149 75 L147 82 L146 90 L154 91 L152 98 L145 97 L143 104 L142 112 L141 119 L139 127 L138 134 L144 139 L148 145 L150 153 L148 160 L156 159 L162 164 L165 171 L162 178 L156 182 L149 182 L143 177 L141 170 L134 173 L135 181 L135 188 L134 196 L134 204 L135 211 L134 219 L134 226 L141 226"/></svg>