<svg xmlns="http://www.w3.org/2000/svg" width="251.742" height="187.282"><path style="stroke:#3e783a;stroke-width:3px;fill:none;" d="M42 137 L42 137 L50 137 L57 137 L65 137 L72 137 L80 137 L87 137 L95 137 L100 131 L100 124 L100 116 L100 109 L100 101 L100 94 L100 86 L100 79 L97 72 L99 65 L106 62 L113 65 L116 72 L112 79 L113 86 L113 94 L112 101 L112 109 L112 116 L112 124 L113 131 L118 137 L125 137 L133 137 L138 131 L138 124 L138 116 L138 109 L138 101 L138 94 L138 86 L138 79 L132 74 L129 67 L130 59 L134 53 L141 50 L148 50 L155 53 L159 59 L159 67 L157 74 L151 79 L151 86 L150 94 L151 101 L150 109 L150 116 L150 124 L151 131 L156 137 L163 137 L171 137 L179 137 L186 137 L194 137 L201 137 L209 137"/></svg>