<svg xmlns="http://www.w3.org/2000/svg" width="217.45" height="246.195"><path style="stroke:#d2cb79;stroke-width:3px;fill:none;" d="M102 198 L102 198 L102 190 L102 183 L102 175 L102 168 L99 161 L102 154 L102 146 L95 143 L89 138 L86 131 L84 124 L77 122 L71 127 L64 128 L56 126 L52 120 L50 113 L51 106 L56 100 L64 98 L71 99 L77 103 L80 110 L87 112 L92 106 L99 102 L106 100 L107 93 L108 85 L109 78 L110 70 L107 64 L107 56 L112 51 L120 50 L127 53 L130 60 L128 67 L122 72 L121 80 L120 87 L119 95 L118 102 L124 106 L128 112 L131 119 L131 127 L129 134 L135 139 L140 144 L146 149 L152 154 L159 154 L165 159 L167 166 L164 173 L158 177 L150 176 L145 171 L144 163 L138 158 L132 153 L127 148 L121 143 L114 146 L114 154 L117 161 L114 168 L114 175 L114 183 L114 190 L120 196 L120 203"/></svg>