<svg xmlns="http://www.w3.org/2000/svg" width="228.19" height="242.496"><path style="stroke:#6c8de0;stroke-width:3px;fill:none;" d="M110 194 L110 194 L110 187 L111 179 L111 171 L111 164 L111 156 L111 149 L110 141 L104 138 L99 132 L96 125 L88 124 L81 124 L73 123 L68 128 L60 129 L53 125 L50 119 L50 111 L55 105 L62 103 L70 105 L74 111 L82 112 L90 112 L97 113 L101 107 L107 102 L106 95 L104 87 L103 80 L102 72 L96 67 L94 60 L97 53 L104 50 L111 51 L117 56 L118 64 L114 70 L115 77 L116 85 L118 92 L119 100 L127 102 L132 107 L136 113 L138 120 L137 128 L143 132 L149 137 L156 134 L155 141 L161 146 L169 145 L175 149 L178 156 L175 163 L169 168 L162 168 L156 163 L154 155 L148 151 L142 147 L135 142 L129 138 L123 141 L123 149 L123 156 L123 164 L123 171 L123 179 L123 187 L128 192 L123 197"/></svg>