<svg xmlns="http://www.w3.org/2000/svg" width="228.19" height="237.427"><path style="stroke:#87c597;stroke-width:3px;fill:none;" d="M111 189 L111 189 L111 181 L111 174 L111 166 L111 159 L111 151 L111 144 L110 136 L104 133 L99 127 L96 120 L88 119 L81 119 L73 118 L68 123 L60 124 L53 120 L50 114 L50 106 L55 100 L62 98 L70 100 L74 106 L82 107 L90 107 L97 108 L101 102 L107 97 L106 89 L104 82 L98 79 L93 73 L91 66 L93 58 L98 53 L104 50 L112 50 L119 54 L123 60 L124 67 L122 75 L116 80 L118 87 L119 95 L127 97 L132 102 L136 108 L138 115 L137 123 L143 127 L149 132 L156 129 L155 136 L161 141 L169 140 L175 144 L178 151 L175 158 L169 163 L162 163 L156 158 L154 150 L148 146 L142 142 L135 137 L129 133 L123 136 L123 144 L123 151 L123 159 L123 166 L123 174 L123 181 L128 187 L123 192"/></svg>