<svg xmlns="http://www.w3.org/2000/svg" width="256.123" height="255.73"><path style="stroke:#93bf40;stroke-width:3px;fill:none;" d="M62 205 L62 205 L69 205 L77 205 L82 200 L82 192 L82 185 L82 177 L82 170 L82 162 L82 155 L82 147 L82 139 L82 132 L77 126 L77 118 L82 112 L82 105 L76 110 L70 113 L62 112 L55 109 L51 103 L50 95 L51 88 L55 82 L62 78 L70 78 L77 80 L82 85 L82 78 L82 70 L82 63 L80 56 L84 50 L92 50 L97 56 L94 63 L94 70 L95 78 L94 85 L99 91 L99 99 L94 105 L94 112 L99 118 L99 126 L94 132 L94 139 L94 147 L94 155 L94 162 L94 170 L94 177 L94 185 L94 192 L94 200 L99 205 L107 205 L115 205 L122 205 L130 205 L137 205 L145 205 L153 205 L158 200 L158 192 L158 185 L158 177 L158 170 L152 165 L150 157 L152 150 L157 145 L164 143 L171 145 L177 150 L178 157 L176 165 L170 170 L170 177 L170 185 L170 192 L170 200 L175 205 L183 205 L191 205 L198 205 L206 205 L213 205"/></svg>