<svg xmlns="http://www.w3.org/2000/svg" width="264.36" height="254.67"><path style="stroke:#3a785e;stroke-width:3px;fill:none;" d="M106 193 L106 193 L106 185 L106 178 L106 170 L106 163 L106 155 L103 148 L106 141 L99 138 L94 132 L91 125 L84 124 L76 124 L71 129 L63 131 L56 128 L51 123 L50 115 L52 108 L58 104 L66 103 L73 105 L77 112 L84 112 L92 113 L96 107 L102 102 L101 95 L99 87 L98 80 L97 72 L91 67 L89 60 L92 53 L99 50 L106 51 L112 56 L113 64 L109 70 L110 77 L112 85 L113 92 L115 100 L122 102 L128 107 L132 113 L133 120 L132 128 L138 132 L145 134 L149 140 L155 145 L161 140 L168 137 L176 135 L183 135 L191 137 L197 140 L203 145 L208 151 L212 158 L213 165 L214 172 L212 180 L209 187 L205 193 L199 198 L192 202 L185 204 L178 204 L170 203 L163 200 L157 196 L152 191 L148 184 L146 177 L145 169 L146 162 L148 155 L142 150 L135 149 L131 142 L125 138 L118 141 L121 148 L118 155 L118 163 L118 170 L118 178 L118 185 L123 191 L124 198"/></svg>