<svg xmlns="http://www.w3.org/2000/svg" width="250.69" height="298.502"><path style="stroke:#783a59;stroke-width:3px;fill:none;" d="M107 248 L107 248 L115 248 L122 248 L130 248 L137 248 L143 243 L142 235 L143 227 L142 220 L143 212 L143 205 L143 197 L142 190 L135 187 L130 182 L125 176 L123 169 L122 161 L124 154 L128 147 L123 142 L118 136 L114 130 L107 133 L100 135 L92 135 L85 135 L77 133 L71 129 L65 125 L59 119 L55 113 L52 106 L50 99 L50 91 L51 84 L53 77 L56 70 L60 64 L66 59 L72 54 L79 52 L87 50 L94 50 L102 50 L109 53 L116 56 L122 61 L127 66 L131 73 L134 80 L135 87 L135 95 L134 102 L132 110 L128 116 L123 122 L128 128 L133 134 L138 140 L145 138 L152 138 L155 131 L158 124 L161 117 L164 110 L157 107 L159 100 L166 103 L169 96 L172 89 L169 82 L170 74 L174 68 L181 66 L183 58 L191 57 L196 63 L192 70 L198 75 L200 82 L197 89 L191 93 L183 93 L181 100 L178 107 L175 114 L172 121 L177 127 L169 128 L166 135 L164 142 L170 147 L173 154 L175 161 L175 169 L172 176 L168 182 L162 187 L155 190 L155 197 L155 205 L155 212 L155 220 L161 224 L155 227 L155 235 L155 243 L160 248 L168 248 L175 248 L183 248 L190 248"/></svg>