<svg xmlns="http://www.w3.org/2000/svg" width="241.74" height="234.23"><path style="stroke:#53ac96;stroke-width:3px;fill:none;" d="M110 184 L110 184 L117 184 L118 176 L118 169 L118 161 L118 153 L118 146 L118 138 L118 131 L111 127 L106 122 L103 115 L96 114 L88 113 L80 113 L73 112 L67 117 L60 118 L53 114 L50 108 L50 100 L55 94 L62 92 L69 94 L74 100 L82 101 L89 101 L97 102 L104 103 L108 96 L114 92 L113 84 L111 77 L110 69 L109 62 L107 54 L113 50 L120 52 L121 60 L122 67 L123 75 L125 82 L130 76 L138 77 L142 83 L140 90 L133 93 L126 89 L134 92 L140 96 L144 103 L145 110 L144 117 L150 122 L156 126 L162 131 L168 135 L176 133 L183 135 L189 140 L191 147 L190 154 L186 160 L179 164 L172 163 L165 159 L162 153 L161 145 L155 141 L149 136 L143 132 L137 127 L130 131 L130 138 L130 146 L130 153 L130 161 L130 169 L130 176 L130 184 L137 184"/></svg>