<svg xmlns="http://www.w3.org/2000/svg" width="153.92" height="274.968"><path style="stroke:#e06c87;stroke-width:3px;fill:none;" d="M72 227 L72 227 L73 219 L73 212 L73 204 L73 197 L73 189 L67 184 L65 177 L67 169 L73 164 L73 157 L73 149 L73 142 L73 134 L69 140 L61 142 L54 140 L50 134 L50 126 L54 120 L61 118 L69 120 L73 126 L73 119 L73 111 L65 109 L60 104 L58 96 L60 89 L66 84 L73 81 L73 74 L73 66 L70 60 L72 53 L79 50 L86 53 L88 60 L85 66 L85 74 L85 81 L91 86 L95 93 L95 100 L91 107 L85 111 L85 119 L85 126 L85 134 L85 142 L85 149 L85 157 L85 164 L92 163 L99 166 L103 173 L103 180 L100 187 L93 190 L85 189 L85 197 L85 204 L85 212 L85 219 L90 224 L98 224 L106 224"/></svg>