<svg xmlns="http://www.w3.org/2000/svg" width="208.06" height="248.35"><path style="stroke:#e0776c;stroke-width:3px;fill:none;" d="M123 198 L123 198 L130 198 L130 190 L130 183 L130 175 L124 170 L122 163 L124 156 L130 150 L130 143 L130 135 L130 128 L123 124 L119 118 L118 110 L111 107 L104 104 L97 102 L90 99 L83 96 L77 101 L69 102 L62 101 L56 97 L51 91 L50 84 L51 76 L55 70 L61 66 L69 65 L76 66 L82 71 L86 77 L87 85 L94 87 L102 90 L108 93 L115 96 L122 99 L129 94 L128 87 L127 79 L121 75 L117 68 L118 61 L121 54 L128 50 L135 50 L142 53 L146 59 L148 66 L145 73 L140 78 L140 86 L141 93 L147 97 L152 103 L154 110 L153 118 L149 124 L142 128 L142 135 L142 143 L142 150 L149 151 L156 156 L158 163 L155 170 L149 175 L142 175 L142 183 L142 190 L142 198 L149 198"/></svg>