<svg xmlns="http://www.w3.org/2000/svg" width="225.5" height="241.05"><path style="stroke:#9340bf;stroke-width:3px;fill:none;" d="M108 193 L108 193 L108 185 L108 178 L108 170 L108 163 L105 156 L108 149 L108 141 L101 138 L96 132 L93 125 L86 124 L78 124 L73 129 L66 132 L58 130 L53 126 L50 119 L50 111 L54 105 L61 102 L69 102 L75 105 L79 112 L87 112 L94 113 L98 107 L104 102 L103 95 L102 87 L100 80 L99 72 L93 67 L91 60 L94 53 L101 50 L109 51 L114 56 L115 64 L111 70 L112 77 L114 85 L115 92 L116 100 L124 102 L129 107 L134 113 L135 120 L134 128 L140 132 L146 137 L152 141 L158 146 L166 145 L172 149 L175 156 L173 163 L167 168 L159 168 L153 163 L151 155 L145 151 L139 147 L133 142 L127 138 L120 141 L120 149 L123 156 L120 163 L120 170 L120 178 L120 185 L126 191 L126 198"/></svg>