<svg xmlns="http://www.w3.org/2000/svg" width="203.49" height="248.35"><path style="stroke:#403a78;stroke-width:3px;fill:none;" d="M118 198 L118 198 L125 198 L125 190 L125 183 L125 175 L120 170 L118 163 L120 156 L125 150 L125 143 L125 135 L125 128 L119 124 L115 118 L113 110 L106 107 L99 104 L92 102 L85 99 L78 96 L72 100 L64 101 L57 98 L52 93 L50 86 L51 78 L55 72 L62 69 L69 68 L77 71 L81 77 L83 85 L90 87 L97 90 L104 93 L111 96 L118 99 L124 94 L123 87 L123 79 L116 75 L113 68 L113 61 L117 54 L123 50 L131 50 L138 53 L142 59 L143 66 L141 73 L135 78 L135 86 L136 93 L143 97 L148 103 L150 110 L148 118 L144 124 L137 128 L137 135 L138 143 L137 150 L145 151 L151 156 L153 163 L151 170 L145 175 L137 175 L137 183 L137 190 L137 198 L144 198"/></svg>