<svg xmlns="http://www.w3.org/2000/svg" width="293.22" height="238.6"><path style="stroke:#d2692d;stroke-width:3px;fill:none;" d="M99 163 L99 163 L106 163 L114 163 L121 163 L129 163 L136 163 L142 157 L142 150 L142 142 L142 135 L142 127 L135 123 L129 127 L122 131 L115 135 L116 142 L114 150 L109 156 L113 162 L116 169 L120 176 L123 183 L112 188 L109 181 L105 175 L102 168 L99 161 L91 161 L84 159 L78 154 L74 147 L73 140 L74 133 L78 126 L74 120 L70 113 L66 107 L61 101 L54 99 L50 93 L50 85 L54 79 L62 77 L69 80 L72 87 L71 94 L76 100 L80 107 L84 113 L89 119 L96 118 L103 120 L109 124 L116 120 L123 117 L129 113 L129 105 L132 98 L137 93 L144 90 L152 90 L159 93 L165 88 L171 84 L176 79 L183 74 L189 70 L195 65 L200 61 L203 53 L210 50 L217 51 L222 57 L221 64 L216 70 L208 70 L202 75 L196 79 L190 84 L195 90 L189 95 L184 89 L178 93 L172 98 L166 102 L167 110 L165 117 L161 123 L154 127 L154 135 L154 142 L154 150 L154 157 L159 163 L167 163 L175 163 L182 163 L190 163 L197 163 L205 163 L212 163 L220 163 L228 163 L235 163 L243 163 L250 163"/></svg>