<svg xmlns="http://www.w3.org/2000/svg" width="231.24" height="240.11"><path style="stroke:#3a6b78;stroke-width:3px;fill:none;" d="M116 192 L116 192 L116 184 L116 177 L116 169 L116 162 L116 154 L116 147 L116 139 L109 136 L104 131 L100 125 L92 126 L85 127 L77 128 L74 135 L67 138 L59 137 L53 133 L50 126 L50 119 L55 113 L62 110 L70 111 L75 116 L83 115 L90 114 L98 113 L100 105 L104 99 L110 94 L107 87 L105 80 L103 72 L96 68 L94 61 L96 54 L102 50 L109 50 L116 54 L117 62 L114 69 L116 76 L119 83 L121 90 L129 91 L136 94 L141 99 L145 105 L147 113 L147 120 L144 127 L150 132 L155 138 L160 143 L166 148 L173 149 L179 154 L181 161 L177 168 L171 171 L163 170 L158 165 L157 157 L152 152 L147 147 L141 141 L136 136 L129 139 L129 147 L128 154 L128 162 L128 169 L128 177 L129 184 L134 190 L129 195"/></svg>