<svg xmlns="http://www.w3.org/2000/svg" width="239.85" height="236.582"><path style="stroke:#783a67;stroke-width:3px;fill:none;" d="M117 188 L117 188 L115 181 L112 174 L115 167 L115 159 L115 152 L115 144 L107 142 L102 137 L97 131 L94 124 L87 124 L79 124 L72 124 L66 129 L58 129 L52 125 L50 118 L52 111 L58 106 L66 107 L71 112 L79 112 L87 112 L94 112 L97 105 L102 99 L107 94 L106 87 L103 80 L101 72 L95 68 L93 61 L95 54 L101 50 L109 50 L115 55 L116 62 L113 69 L115 76 L118 83 L119 91 L127 91 L134 94 L140 99 L144 105 L147 112 L148 119 L147 127 L153 131 L159 135 L166 139 L172 143 L180 142 L186 145 L189 152 L188 160 L182 164 L174 165 L168 160 L166 153 L159 149 L153 145 L147 141 L140 137 L134 142 L127 144 L127 152 L127 159 L127 167 L130 174 L127 181 L132 186 L134 194"/></svg>