<svg xmlns="http://www.w3.org/2000/svg" width="252.94" height="273.392"><path style="stroke:#862d52;stroke-width:3px;fill:none;" d="M109 228 L109 228 L115 223 L120 218 L120 210 L120 202 L112 201 L105 200 L98 197 L91 194 L85 190 L78 186 L72 181 L68 175 L63 169 L59 163 L56 156 L53 149 L51 142 L50 134 L50 127 L50 119 L51 112 L52 104 L55 97 L59 90 L62 84 L67 78 L72 72 L77 67 L84 63 L90 59 L97 55 L104 53 L111 51 L119 50 L126 50 L134 50 L141 51 L148 53 L156 55 L162 59 L169 63 L175 67 L180 72 L186 78 L190 84 L194 90 L197 97 L200 104 L202 112 L202 119 L202 127 L202 134 L201 142 L199 149 L196 156 L193 163 L189 169 L185 175 L179 181 L174 186 L167 190 L161 194 L154 197 L147 200 L140 201 L132 202 L132 210 L132 218 L139 215"/></svg>