<svg xmlns="http://www.w3.org/2000/svg" width="225.91" height="234.962"><path style="stroke:#7a2dd2;stroke-width:3px;fill:none;" d="M108 187 L108 187 L108 179 L108 171 L108 164 L108 156 L108 149 L109 141 L108 134 L102 130 L97 125 L93 118 L86 117 L79 116 L71 116 L65 120 L58 120 L51 115 L50 108 L53 101 L59 97 L67 98 L72 103 L80 104 L87 105 L95 105 L99 99 L105 94 L97 92 L91 88 L87 82 L85 75 L85 67 L88 60 L93 55 L99 51 L107 50 L114 51 L121 54 L126 60 L129 67 L129 74 L127 82 L123 88 L117 92 L124 94 L130 99 L134 105 L136 113 L134 120 L141 125 L146 129 L153 134 L159 138 L166 137 L173 142 L175 149 L173 156 L167 160 L159 160 L154 155 L152 148 L146 144 L140 139 L133 135 L127 130 L121 134 L121 141 L120 149 L120 156 L120 164 L121 171 L121 179 L126 184 L121 190"/></svg>