<svg xmlns="http://www.w3.org/2000/svg" width="289.397" height="201.558"><path style="stroke:#51783a;stroke-width:3px;fill:none;" d="M42 151 L42 151 L50 151 L57 151 L65 151 L72 151 L80 151 L87 151 L95 151 L102 151 L110 151 L118 151 L125 151 L133 151 L140 151 L148 151 L155 151 L161 146 L161 138 L161 130 L161 123 L161 115 L161 108 L157 114 L151 119 L145 123 L138 126 L130 127 L123 126 L116 123 L109 119 L104 114 L100 108 L97 100 L97 93 L97 85 L100 78 L104 72 L109 66 L116 62 L123 60 L130 59 L138 60 L145 62 L151 66 L157 72 L161 78 L161 70 L161 63 L159 56 L163 50 L171 50 L175 56 L173 63 L173 70 L173 78 L179 82 L182 89 L183 97 L179 103 L173 108 L173 115 L173 123 L173 130 L173 138 L173 146 L178 151 L186 151 L194 151 L201 151 L209 151 L216 151 L224 151 L231 151 L239 151 L246 151"/></svg>