<svg xmlns="http://www.w3.org/2000/svg" width="179.23" height="248.35"><path style="stroke:#1f9388;stroke-width:3px;fill:none;" d="M94 198 L94 198 L101 198 L101 190 L101 183 L101 175 L95 170 L94 163 L96 156 L101 150 L101 143 L101 135 L101 128 L94 124 L90 118 L89 110 L82 107 L75 104 L68 102 L61 99 L54 98 L50 92 L52 85 L60 83 L66 87 L73 90 L80 93 L87 96 L94 99 L100 94 L99 87 L99 79 L92 75 L89 68 L89 61 L92 54 L99 50 L106 50 L113 53 L118 59 L119 66 L116 73 L111 78 L111 86 L112 93 L119 97 L123 103 L125 110 L124 118 L120 124 L113 128 L113 135 L113 143 L113 150 L121 151 L127 156 L129 163 L126 170 L121 175 L113 175 L113 183 L113 190 L113 198 L120 198"/></svg>