<svg xmlns="http://www.w3.org/2000/svg" width="266.729" height="286.92"><path style="stroke:#c59787;stroke-width:3px;fill:none;" d="M69 239 L69 239 L70 231 L70 224 L70 216 L70 208 L70 201 L62 200 L56 197 L51 191 L50 183 L51 176 L55 170 L62 166 L70 166 L70 158 L70 151 L70 143 L70 136 L70 128 L70 121 L67 114 L70 107 L70 99 L63 96 L58 90 L55 83 L55 76 L57 68 L62 63 L69 59 L76 57 L84 59 L90 63 L94 68 L97 76 L97 83 L94 90 L89 96 L82 99 L82 107 L85 114 L82 121 L82 128 L90 128 L89 136 L82 136 L82 143 L82 151 L82 158 L82 166 L89 170 L93 176 L94 183 L93 191 L89 197 L82 201 L82 208 L82 216 L82 224 L82 231 L87 236 L95 236 L103 236 L110 236 L117 236 L125 236 L133 236 L141 236 L148 236 L153 231 L153 224 L153 216 L153 208 L153 201 L153 193 L146 191 L140 187 L136 181 L134 173 L136 166 L140 160 L146 155 L153 153 L153 146 L153 138 L153 131 L153 123 L153 116 L153 108 L153 100 L146 97 L146 90 L153 87 L153 79 L153 71 L148 66 L148 58 L152 52 L159 50 L167 52 L171 58 L170 66 L166 71 L165 79 L165 87 L169 94 L165 100 L166 108 L166 116 L166 123 L165 131 L166 138 L166 146 L166 153 L172 157 L177 162 L180 170 L180 177 L177 184 L172 190 L166 193 L166 201 L166 208 L166 216 L165 224 L165 231 L171 236 L178 236 L186 236 L194 236 L201 236 L209 236 L216 236 L224 236"/></svg>