<svg xmlns="http://www.w3.org/2000/svg" width="285.491" height="276.122"><path style="stroke:#d27989;stroke-width:3px;fill:none;" d="M53 226 L53 226 L60 226 L68 226 L73 220 L74 213 L74 205 L74 198 L73 190 L66 188 L60 183 L55 178 L51 171 L50 164 L50 156 L51 149 L55 142 L60 137 L66 133 L74 130 L74 123 L74 115 L74 108 L74 100 L67 96 L63 90 L61 83 L62 75 L66 69 L72 65 L80 63 L87 65 L93 69 L97 75 L99 83 L97 90 L92 96 L86 100 L86 108 L86 115 L86 123 L86 130 L94 131 L100 133 L107 137 L112 142 L116 149 L118 156 L118 164 L116 171 L112 178 L107 183 L100 187 L94 190 L86 190 L86 198 L86 205 L86 213 L86 220 L91 226 L99 226 L106 226 L114 226 L121 226 L129 226 L137 226 L144 226 L152 226 L159 226 L167 226 L172 220 L172 213 L172 205 L172 198 L172 190 L172 182 L165 181 L159 176 L155 170 L153 163 L155 155 L159 149 L165 144 L172 143 L172 135 L172 127 L172 120 L172 112 L172 105 L172 97 L169 90 L172 83 L172 76 L172 68 L168 62 L169 55 L175 50 L182 50 L188 55 L188 62 L184 68 L184 76 L184 83 L187 90 L184 97 L191 101 L184 105 L184 112 L184 120 L184 127 L184 135 L184 143 L191 146 L196 152 L199 159 L199 166 L196 173 L191 179 L184 182 L184 190 L184 198 L184 205 L184 213 L184 220 L190 226 L197 226 L205 226 L212 226 L220 226 L227 226 L235 226 L243 226"/></svg>