<svg xmlns="http://www.w3.org/2000/svg" width="289.387" height="207.003"><path style="stroke:#c59687;stroke-width:3px;fill:none;" d="M42 157 L42 157 L50 157 L57 157 L65 157 L72 157 L80 157 L87 157 L95 157 L102 157 L110 157 L118 157 L125 157 L133 157 L140 157 L148 157 L155 157 L161 151 L161 143 L161 136 L161 128 L161 121 L161 113 L154 117 L146 117 L139 114 L134 109 L131 102 L131 95 L134 88 L140 82 L146 80 L154 80 L161 83 L161 76 L161 68 L156 62 L157 55 L163 50 L171 50 L177 55 L178 62 L173 68 L173 76 L173 83 L179 88 L182 95 L183 102 L179 109 L173 113 L173 121 L173 128 L173 136 L173 143 L173 151 L178 156 L186 156 L194 156 L201 156 L209 156 L216 156 L224 156 L231 156 L239 156 L246 156"/></svg>