<svg xmlns="http://www.w3.org/2000/svg" width="260.552" height="271.023"><path style="stroke:#65ac53;stroke-width:3px;fill:none;" d="M51 221 L51 221 L58 221 L66 221 L71 215 L71 208 L71 200 L71 192 L71 185 L64 182 L58 178 L53 172 L50 165 L50 157 L50 150 L53 143 L58 137 L64 133 L71 130 L71 122 L71 115 L71 107 L71 100 L64 97 L59 92 L55 86 L53 78 L53 71 L56 64 L60 58 L66 53 L74 51 L81 51 L89 53 L95 58 L99 64 L102 71 L102 78 L100 86 L96 92 L90 97 L83 100 L83 107 L84 115 L83 122 L84 130 L90 127 L97 125 L105 124 L112 126 L120 129 L125 134 L130 140 L133 146 L135 154 L135 161 L134 169 L130 175 L126 181 L119 186 L112 189 L105 190 L97 190 L90 188 L83 185 L83 192 L83 200 L83 208 L83 215 L89 220 L97 220 L104 220 L111 220 L119 220 L127 220 L134 220 L142 220 L147 215 L147 208 L147 200 L147 192 L140 190 L134 185 L130 178 L128 171 L128 164 L130 156 L134 150 L140 145 L147 143 L147 135 L147 127 L147 120 L147 112 L147 105 L147 97 L144 90 L147 83 L147 76 L147 68 L143 62 L144 55 L149 50 L157 50 L163 55 L164 62 L159 68 L159 76 L159 83 L162 90 L159 97 L159 105 L159 112 L160 120 L159 127 L159 135 L159 143 L167 144 L173 148 L179 153 L182 160 L183 167 L182 175 L179 182 L173 187 L167 191 L159 192 L159 200 L159 208 L159 215 L165 220 L172 220 L180 220 L187 220 L195 220 L202 220 L210 220 L218 220"/></svg>