<svg xmlns="http://www.w3.org/2000/svg" width="232.59" height="242.327"><path style="stroke:#53a9ac;stroke-width:3px;fill:none;" d="M114 194 L114 194 L114 186 L114 179 L114 171 L114 164 L114 156 L114 149 L114 141 L108 138 L102 132 L99 125 L92 125 L84 125 L77 125 L72 130 L64 132 L57 130 L51 125 L50 118 L52 110 L58 105 L65 104 L72 107 L77 112 L84 113 L92 113 L100 113 L103 106 L108 101 L107 94 L104 87 L102 80 L100 72 L94 68 L91 61 L94 54 L100 50 L108 50 L114 55 L115 62 L112 69 L114 76 L116 83 L118 91 L120 98 L128 99 L134 103 L141 99 L147 95 L153 90 L159 86 L166 82 L170 76 L178 76 L182 82 L180 90 L173 92 L166 96 L160 100 L154 105 L148 109 L141 113 L142 121 L141 128 L147 133 L153 137 L159 142 L165 147 L172 146 L179 151 L181 158 L178 165 L172 169 L165 169 L159 164 L157 156 L151 152 L145 147 L140 142 L133 138 L127 141 L127 149 L127 156 L127 164 L126 171 L127 179 L127 186 L132 192 L127 197"/></svg>