<svg xmlns="http://www.w3.org/2000/svg" width="277.015" height="239.38"><path style="stroke:#c5c387;stroke-width:3px;fill:none;" d="M82 156 L82 156 L90 156 L97 156 L105 156 L113 156 L120 156 L125 151 L125 143 L125 136 L125 128 L125 121 L119 116 L112 119 L105 122 L98 125 L97 132 L94 139 L89 144 L91 152 L94 159 L96 166 L99 173 L103 179 L101 186 L94 189 L87 185 L87 177 L84 170 L82 163 L79 156 L77 148 L70 147 L63 144 L58 138 L55 131 L55 124 L58 116 L62 110 L59 104 L56 97 L52 90 L50 83 L51 76 L60 78 L64 85 L67 92 L70 98 L73 105 L81 106 L88 108 L94 113 L101 111 L108 108 L115 105 L116 98 L121 92 L128 88 L136 88 L142 92 L149 88 L155 84 L162 80 L165 73 L171 69 L179 71 L185 67 L191 63 L198 59 L201 52 L208 50 L216 52 L220 58 L218 66 L212 70 L204 70 L198 74 L191 77 L184 81 L182 88 L175 92 L168 91 L162 95 L155 98 L148 102 L148 110 L144 116 L138 121 L137 128 L137 136 L138 143 L138 151 L143 156 L151 156 L158 156 L166 156 L173 156 L181 156 L189 156 L196 156 L204 156 L211 156 L219 156 L227 156 L234 156"/></svg>