<svg xmlns="http://www.w3.org/2000/svg" width="228.44" height="238.031"><path style="stroke:#78523a;stroke-width:3px;fill:none;" d="M114 189 L114 189 L112 182 L109 175 L112 168 L112 161 L109 154 L112 147 L112 139 L105 136 L100 131 L96 124 L89 124 L81 124 L74 124 L69 129 L61 131 L54 128 L50 122 L50 114 L54 108 L61 105 L69 106 L73 112 L81 112 L89 112 L96 112 L99 105 L105 100 L103 93 L100 85 L95 80 L95 72 L89 69 L86 62 L88 54 L94 50 L101 50 L108 54 L110 61 L107 68 L112 74 L111 81 L114 88 L116 96 L124 96 L131 100 L136 105 L139 112 L140 119 L139 127 L144 131 L150 136 L156 141 L162 146 L170 145 L176 150 L178 157 L176 164 L169 168 L161 168 L156 163 L154 155 L148 150 L143 146 L137 141 L131 136 L124 139 L124 147 L127 154 L124 161 L124 168 L127 175 L124 182 L129 188 L131 195"/></svg>