<svg xmlns="http://www.w3.org/2000/svg" width="273.08" height="297.97"><path style="stroke:#53783a;stroke-width:3px;fill:none;" d="M113 246 L113 246 L120 246 L120 238 L120 231 L120 223 L120 216 L121 208 L120 201 L120 193 L114 190 L109 184 L105 177 L106 169 L108 162 L103 157 L97 151 L92 146 L87 140 L80 141 L73 137 L70 130 L70 123 L65 117 L59 112 L53 109 L50 102 L52 95 L59 93 L66 96 L68 103 L74 109 L79 114 L84 108 L90 106 L98 108 L103 113 L105 120 L102 128 L96 132 L101 137 L106 143 L112 148 L117 154 L124 152 L125 144 L127 137 L128 129 L123 124 L129 122 L131 114 L132 107 L133 100 L135 92 L136 85 L131 80 L127 73 L126 65 L129 58 L135 53 L141 50 L149 50 L156 52 L161 58 L164 65 L164 72 L161 79 L155 84 L148 87 L147 94 L145 102 L144 109 L150 114 L143 117 L141 124 L140 132 L139 139 L137 146 L136 154 L142 158 L146 165 L148 172 L146 180 L151 174 L159 173 L165 177 L166 185 L162 191 L168 196 L174 200 L180 204 L186 209 L193 213 L200 210 L207 210 L214 213 L220 218 L223 225 L222 233 L219 240 L214 245 L206 247 L199 247 L192 244 L187 238 L185 231 L186 223 L180 219 L173 214 L167 210 L161 205 L155 201 L148 201 L142 197 L140 190 L132 193 L133 201 L133 208 L132 216 L133 223 L132 231 L132 238 L133 246 L140 246"/></svg>