<svg xmlns="http://www.w3.org/2000/svg" width="261.39" height="234.49"><path style="stroke:#783a42;stroke-width:3px;fill:none;" d="M163 186 L163 186 L163 179 L163 171 L162 164 L163 156 L163 148 L163 141 L160 134 L163 127 L162 119 L162 112 L156 107 L149 108 L142 110 L134 111 L128 115 L121 114 L114 115 L110 122 L104 126 L97 128 L89 125 L84 120 L76 121 L69 123 L62 124 L54 126 L50 120 L52 113 L59 112 L67 111 L74 109 L82 108 L81 101 L84 94 L90 89 L97 87 L104 90 L109 95 L111 103 L118 101 L125 97 L132 99 L140 98 L147 96 L155 95 L158 88 L165 85 L172 85 L177 79 L171 75 L168 68 L171 61 L177 57 L185 58 L190 64 L195 58 L197 51 L205 50 L211 54 L210 62 L204 66 L199 72 L199 79 L194 85 L186 87 L182 93 L183 100 L181 107 L175 112 L175 119 L175 127 L178 134 L175 141 L175 148 L175 156 L175 164 L175 171 L175 179 L180 184 L185 179 L185 171 L185 164 L185 156 L185 148 L185 141 L185 133 L185 126 L185 118 L178 116 L173 111 L171 103 L173 96 L178 90 L185 88 L185 81 L183 73 L188 67 L195 67 L200 73 L198 81 L197 88 L204 93 L207 99 L207 107 L204 114 L197 118 L198 126 L198 133 L197 141 L198 148 L198 156 L197 164 L197 171 L197 179 L203 184 L203 191"/></svg>