<svg xmlns="http://www.w3.org/2000/svg" width="225.12" height="242.382"><path style="stroke:#79b9d2;stroke-width:3px;fill:none;" d="M110 194 L110 194 L110 187 L110 179 L110 171 L110 164 L110 156 L110 149 L110 141 L103 138 L98 132 L95 125 L88 124 L80 124 L73 123 L67 128 L59 129 L53 125 L50 119 L50 111 L55 105 L62 103 L69 105 L74 111 L82 112 L89 112 L97 113 L101 107 L107 102 L105 95 L104 87 L102 80 L101 72 L95 67 L94 60 L97 53 L103 50 L111 51 L116 56 L117 64 L113 70 L115 77 L116 85 L117 92 L118 100 L126 102 L132 107 L136 113 L138 120 L136 128 L142 132 L148 137 L154 141 L161 146 L168 146 L174 151 L175 158 L170 165 L163 166 L156 163 L154 155 L148 151 L141 147 L135 142 L129 138 L122 141 L122 149 L122 156 L122 164 L122 171 L122 179 L123 187 L128 192 L123 197"/></svg>