<svg xmlns="http://www.w3.org/2000/svg" width="279.6" height="197.078"><path style="stroke:#51d22d;stroke-width:3px;fill:none;" d="M85 147 L85 147 L93 147 L100 147 L108 147 L115 147 L123 147 L128 141 L128 134 L128 126 L128 119 L128 111 L122 107 L115 110 L108 114 L101 117 L96 123 L89 123 L82 127 L75 130 L69 133 L62 137 L55 140 L50 129 L57 126 L63 122 L70 119 L77 116 L69 114 L65 108 L66 100 L71 95 L78 94 L85 98 L87 105 L84 112 L83 105 L90 101 L96 106 L103 103 L110 99 L117 96 L117 89 L121 82 L127 77 L134 76 L142 77 L148 82 L155 79 L162 76 L169 73 L173 67 L180 64 L187 66 L194 63 L201 61 L208 58 L212 51 L219 50 L226 53 L229 60 L226 67 L220 71 L212 69 L205 72 L198 75 L192 78 L188 84 L180 87 L173 85 L167 88 L159 90 L152 93 L151 101 L147 107 L141 111 L141 119 L141 126 L140 134 L140 141 L146 147 L153 147 L161 147 L168 147 L176 147 L183 147 L191 147 L199 147 L206 147 L214 147 L221 147 L229 147 L236 147"/></svg>