<svg xmlns="http://www.w3.org/2000/svg" width="299.27" height="233.311"><path style="stroke:#86612d;stroke-width:3px;fill:none;" d="M42 183 L42 183 L50 183 L57 183 L65 183 L72 183 L80 183 L87 183 L95 183 L102 183 L110 183 L118 183 L125 183 L133 183 L138 177 L138 170 L138 162 L138 155 L138 147 L138 140 L138 132 L138 125 L138 117 L131 114 L126 120 L121 125 L120 133 L115 139 L108 140 L101 137 L98 130 L99 123 L104 118 L112 117 L117 111 L122 106 L119 99 L118 92 L119 84 L122 77 L127 71 L133 67 L140 65 L148 65 L155 67 L162 71 L167 77 L174 75 L181 72 L188 70 L195 67 L202 65 L209 62 L216 60 L223 57 L231 55 L236 50 L244 50 L249 55 L248 63 L243 68 L235 66 L228 69 L221 71 L213 74 L206 76 L199 79 L192 81 L185 84 L178 86 L171 89 L170 96 L168 103 L164 110 L158 114 L150 117 L151 125 L150 132 L150 140 L151 147 L151 155 L151 162 L150 170 L150 177 L157 175"/></svg>