<svg xmlns="http://www.w3.org/2000/svg" width="273.57" height="234.51"><path style="stroke:#5c2d86;stroke-width:3px;fill:none;" d="M79 146 L79 146 L86 146 L94 146 L102 146 L109 146 L117 146 L122 141 L122 134 L122 126 L122 119 L122 111 L115 107 L109 110 L102 114 L95 117 L90 123 L83 123 L82 131 L88 136 L93 141 L99 146 L104 151 L112 149 L119 150 L125 154 L130 161 L131 168 L128 175 L123 181 L116 184 L108 184 L102 181 L97 175 L95 167 L96 160 L91 155 L85 150 L79 145 L74 140 L66 142 L59 140 L53 135 L50 129 L50 121 L53 114 L59 109 L58 102 L58 94 L57 87 L57 79 L69 78 L69 86 L70 93 L70 101 L71 108 L78 112 L77 105 L84 101 L90 106 L97 103 L103 99 L110 96 L111 89 L115 82 L121 77 L128 76 L136 77 L142 82 L149 79 L156 76 L163 73 L167 67 L173 64 L181 66 L188 63 L195 61 L202 58 L206 51 L213 50 L220 53 L223 60 L220 67 L214 71 L206 69 L199 72 L192 75 L185 78 L182 84 L174 87 L167 85 L161 88 L153 90 L146 93 L145 101 L141 107 L134 111 L134 119 L135 126 L134 134 L135 141 L140 147 L147 147 L155 147 L162 147 L170 147 L178 147 L185 147 L193 147 L200 147 L208 147 L215 147 L223 147 L230 147"/></svg>