<svg xmlns="http://www.w3.org/2000/svg" width="213.66" height="287.93"><path style="stroke:#9ee06c;stroke-width:3px;fill:none;" d="M114 237 L114 237 L121 237 L121 230 L121 222 L121 215 L121 207 L121 200 L121 192 L121 185 L114 181 L109 176 L106 168 L106 161 L108 154 L103 148 L98 143 L92 137 L87 132 L80 132 L73 128 L70 122 L70 114 L65 109 L59 103 L53 101 L50 94 L53 87 L59 84 L66 88 L69 95 L74 100 L79 106 L84 100 L91 97 L98 99 L103 105 L105 112 L102 119 L96 123 L101 129 L106 134 L112 140 L117 145 L124 143 L125 136 L127 128 L129 121 L123 116 L130 113 L131 106 L129 99 L133 92 L135 85 L136 77 L137 70 L134 64 L135 56 L140 51 L147 50 L154 53 L157 60 L155 67 L150 72 L148 80 L147 87 L146 95 L152 99 L150 106 L143 108 L141 116 L140 123 L139 130 L138 138 L136 145 L143 150 L147 156 L148 164 L147 171 L154 171 L161 175 L163 182 L161 189 L155 193 L147 193 L141 188 L140 181 L133 185 L133 192 L133 200 L133 207 L133 215 L133 222 L133 230 L133 237 L140 237"/></svg>