<svg xmlns="http://www.w3.org/2000/svg" width="223.52" height="241.926"><path style="stroke:#862d30;stroke-width:3px;fill:none;" d="M107 194 L107 194 L107 186 L107 179 L107 171 L107 163 L107 156 L107 148 L107 141 L100 137 L95 132 L91 125 L84 125 L76 125 L72 131 L64 133 L57 132 L51 126 L50 119 L51 112 L57 107 L64 105 L72 107 L76 113 L84 113 L91 113 L95 106 L100 101 L98 94 L95 87 L92 80 L90 72 L83 69 L81 62 L82 54 L88 50 L96 50 L102 54 L104 61 L102 68 L104 75 L107 83 L109 90 L112 97 L119 98 L126 101 L131 106 L134 113 L135 121 L134 128 L139 133 L145 137 L151 142 L157 147 L165 147 L171 151 L173 158 L171 165 L164 170 L157 169 L151 164 L149 156 L144 152 L138 147 L132 142 L126 137 L119 141 L119 148 L119 156 L119 163 L119 171 L119 179 L119 186 L124 191 L119 197"/></svg>