<svg xmlns="http://www.w3.org/2000/svg" width="285.92" height="202.28"><path style="stroke:#a9ac53;stroke-width:3px;fill:none;" d="M82 127 L82 127 L89 127 L97 127 L104 127 L112 127 L119 127 L125 122 L125 114 L125 107 L125 99 L125 92 L118 88 L112 93 L106 97 L100 102 L96 109 L89 110 L89 118 L96 122 L102 126 L108 130 L115 133 L123 134 L127 140 L126 147 L120 152 L113 150 L109 144 L102 140 L96 136 L89 132 L83 128 L76 131 L68 131 L62 128 L57 122 L56 114 L57 107 L63 101 L61 94 L58 87 L56 79 L55 72 L50 66 L50 59 L56 54 L64 55 L68 61 L66 69 L68 76 L70 83 L72 91 L74 98 L82 100 L80 93 L86 88 L93 92 L99 88 L105 83 L111 78 L109 71 L111 64 L114 57 L120 52 L127 50 L135 50 L142 52 L148 57 L151 64 L159 63 L166 63 L174 62 L180 57 L187 57 L193 61 L201 61 L209 60 L216 60 L222 55 L229 56 L235 61 L235 69 L231 75 L223 76 L217 72 L209 73 L202 73 L194 73 L188 78 L181 79 L175 75 L167 75 L159 75 L152 76 L149 83 L144 88 L137 92 L137 99 L137 107 L137 114 L137 122 L142 127 L150 127 L158 127 L165 127 L173 127 L180 127 L188 127 L195 127 L203 127 L211 127 L218 127 L226 127 L233 127"/></svg>