<svg xmlns="http://www.w3.org/2000/svg" width="226.33" height="241.111"><path style="stroke:#c587c0;stroke-width:3px;fill:none;" d="M108 193 L108 193 L108 185 L108 178 L108 170 L108 163 L108 155 L108 147 L108 140 L101 137 L96 132 L92 125 L85 126 L77 126 L72 132 L66 135 L58 134 L52 129 L50 122 L51 115 L56 109 L64 107 L71 109 L76 114 L83 113 L91 113 L94 106 L98 100 L95 93 L91 86 L88 80 L85 73 L77 70 L74 64 L74 56 L80 51 L87 50 L94 53 L97 60 L95 67 L99 74 L102 81 L106 87 L109 94 L117 94 L124 96 L130 100 L135 106 L138 113 L138 120 L145 123 L152 123 L157 129 L165 127 L172 129 L176 135 L175 143 L170 149 L163 150 L156 147 L153 140 L145 140 L140 135 L133 132 L127 137 L121 140 L120 147 L121 155 L121 163 L120 170 L121 178 L121 185 L126 191 L126 198"/></svg>