<svg xmlns="http://www.w3.org/2000/svg" width="253.82" height="286.74"><path style="stroke:#40783a;stroke-width:3px;fill:none;" d="M110 236 L110 236 L117 236 L117 229 L117 221 L117 214 L117 206 L117 198 L117 191 L117 183 L110 180 L105 174 L102 167 L102 160 L104 153 L97 154 L99 147 L94 142 L89 136 L81 136 L75 133 L72 126 L72 118 L66 113 L61 107 L54 106 L50 100 L50 92 L56 87 L63 87 L69 92 L70 99 L75 104 L81 110 L85 104 L93 102 L100 103 L105 109 L107 116 L104 123 L98 128 L103 133 L108 139 L114 144 L121 142 L122 134 L123 127 L125 120 L119 115 L126 112 L127 105 L129 97 L130 90 L132 82 L133 75 L128 69 L127 62 L130 55 L136 50 L144 50 L151 53 L154 59 L155 67 L151 73 L145 77 L143 85 L142 92 L141 99 L149 101 L147 108 L139 107 L138 114 L137 122 L135 129 L134 137 L133 144 L139 149 L143 155 L144 163 L143 170 L148 164 L155 163 L162 168 L163 175 L159 181 L165 186 L171 190 L177 195 L183 199 L190 204 L197 204 L203 209 L203 216 L199 223 L192 224 L185 221 L182 213 L176 209 L170 205 L164 200 L158 196 L152 191 L144 192 L138 187 L136 180 L129 183 L129 191 L129 198 L129 206 L129 214 L129 221 L129 229 L129 236 L136 236"/></svg>