<svg xmlns="http://www.w3.org/2000/svg" width="283.96" height="192.004"><path style="stroke:#d29b2d;stroke-width:3px;fill:none;" d="M111 142 L111 142 L118 142 L126 142 L133 142 L141 142 L148 142 L156 142 L163 142 L171 142 L179 142 L186 142 L191 136 L192 129 L192 121 L188 114 L192 107 L192 100 L185 95 L182 88 L175 87 L167 85 L160 89 L153 87 L148 81 L141 80 L134 78 L126 77 L119 75 L112 74 L104 72 L97 71 L92 77 L89 69 L82 68 L74 66 L69 72 L67 65 L59 63 L52 62 L50 55 L55 50 L62 51 L69 53 L77 54 L84 56 L92 57 L99 59 L106 60 L114 62 L121 63 L129 65 L136 66 L143 68 L151 69 L158 66 L165 67 L170 73 L177 75 L185 76 L190 71 L198 69 L205 71 L211 66 L217 62 L221 55 L229 55 L233 61 L232 68 L224 71 L219 76 L213 81 L213 88 L210 95 L204 100 L204 107 L211 104 L218 107 L221 114 L218 121 L211 124 L204 121 L204 129 L204 136 L211 134"/></svg>