<svg xmlns="http://www.w3.org/2000/svg" width="224.245" height="247.42"><path style="stroke:#81d279;stroke-width:3px;fill:none;" d="M42 197 L42 197 L50 197 L57 197 L65 197 L72 197 L77 191 L71 188 L78 184 L78 176 L77 169 L77 161 L73 155 L72 148 L76 142 L83 139 L91 142 L95 148 L95 155 L90 161 L90 169 L90 176 L90 184 L90 191 L95 197 L103 197 L108 191 L108 184 L108 176 L108 169 L114 165 L121 169 L120 176 L120 184 L120 191 L126 197 L131 191 L131 184 L131 176 L125 171 L123 164 L125 157 L131 152 L128 145 L131 138 L131 130 L131 123 L124 121 L117 117 L111 112 L106 107 L103 100 L100 93 L100 85 L101 78 L104 70 L108 64 L113 58 L119 54 L126 51 L133 50 L141 50 L148 51 L155 54 L162 58 L167 64 L170 70 L173 78 L174 85 L173 93 L171 100 L168 107 L163 112 L157 117 L150 121 L143 123 L143 130 L143 138 L146 145 L143 152 L151 154 L155 160 L155 168 L150 174 L143 176 L143 184 L143 191 L149 197 L156 197 L164 197"/></svg>