<svg xmlns="http://www.w3.org/2000/svg" width="226.49" height="241.826"><path style="stroke:#bf409d;stroke-width:3px;fill:none;" d="M110 194 L110 194 L110 186 L110 179 L110 171 L110 163 L110 156 L110 148 L110 141 L103 137 L98 132 L94 125 L87 125 L79 125 L72 125 L66 130 L59 131 L52 126 L50 119 L52 112 L58 108 L66 108 L71 113 L79 113 L87 113 L94 113 L98 106 L103 101 L100 94 L98 87 L95 80 L93 72 L86 69 L84 62 L85 54 L92 50 L99 50 L105 54 L107 61 L104 68 L107 75 L109 83 L112 90 L115 97 L122 98 L129 101 L134 106 L138 113 L138 121 L137 128 L142 133 L148 137 L154 142 L160 147 L168 147 L174 151 L176 158 L174 165 L167 170 L160 169 L154 164 L152 156 L147 152 L140 147 L135 142 L129 137 L122 141 L122 148 L122 156 L122 163 L122 171 L122 179 L122 186 L127 191 L122 197"/></svg>