<svg xmlns="http://www.w3.org/2000/svg" width="242.809" height="289.01"><path style="stroke:#ac539f;stroke-width:3px;fill:none;" d="M79 238 L79 238 L86 238 L94 238 L101 238 L109 238 L114 233 L114 226 L114 218 L114 210 L114 203 L114 195 L114 188 L114 180 L114 173 L109 167 L110 159 L114 153 L114 146 L114 138 L114 131 L107 127 L102 122 L99 115 L91 115 L84 115 L76 115 L68 115 L61 115 L54 115 L50 109 L54 102 L61 103 L69 103 L76 103 L84 103 L91 103 L99 103 L102 96 L97 90 L90 92 L83 89 L81 82 L85 75 L78 74 L72 69 L70 62 L72 55 L78 50 L85 50 L92 53 L95 60 L95 67 L102 69 L107 75 L107 82 L112 88 L119 87 L126 87 L133 91 L139 96 L142 103 L149 103 L157 103 L165 103 L172 103 L179 99 L186 102 L189 109 L186 116 L179 118 L172 115 L164 115 L157 115 L150 115 L142 115 L139 122 L133 127 L126 131 L126 138 L126 146 L126 153 L133 156 L137 163 L133 170 L126 173 L126 180 L133 184 L127 188 L126 195 L127 203 L126 210 L126 218 L127 226 L127 233 L132 239 L139 239 L147 239 L155 239 L162 239 L170 239 L177 239 L185 239 L192 239 L200 239"/></svg>