<svg xmlns="http://www.w3.org/2000/svg" width="207.733" height="205.699"><path style="stroke:#862d55;stroke-width:3px;fill:none;" d="M42 155 L42 155 L50 155 L57 155 L65 155 L72 155 L77 150 L78 142 L78 135 L77 127 L77 119 L73 114 L72 106 L77 100 L84 97 L91 100 L95 106 L95 114 L90 119 L90 127 L90 135 L90 142 L90 150 L95 155 L103 155 L108 150 L108 142 L108 135 L108 127 L114 123 L121 127 L120 135 L120 142 L120 150 L126 155 L131 150 L131 142 L131 135 L125 129 L123 122 L126 115 L131 110 L128 103 L131 96 L131 88 L124 85 L120 79 L117 72 L117 64 L121 57 L126 52 L133 50 L141 50 L148 52 L153 57 L157 64 L157 72 L154 79 L150 85 L143 88 L143 96 L146 103 L143 110 L151 112 L155 118 L155 126 L150 132 L143 135 L143 142 L143 150 L149 155 L156 155 L164 155"/></svg>