<svg xmlns="http://www.w3.org/2000/svg" width="290.64" height="236.91"><path style="stroke:#93231f;stroke-width:3px;fill:none;" d="M96 146 L96 146 L104 146 L111 146 L119 146 L126 146 L134 146 L139 141 L139 134 L139 126 L139 119 L139 111 L133 107 L126 110 L119 114 L112 117 L112 125 L110 132 L105 137 L108 144 L111 151 L114 158 L117 165 L123 169 L125 177 L122 183 L115 186 L108 184 L104 178 L106 170 L102 163 L99 156 L97 149 L94 142 L86 142 L79 139 L74 134 L70 127 L70 119 L71 112 L75 106 L72 99 L68 93 L64 86 L60 79 L54 77 L50 70 L50 63 L55 57 L62 56 L70 59 L73 66 L71 73 L75 80 L79 87 L82 93 L86 100 L94 99 L101 102 L107 106 L114 103 L120 99 L127 96 L128 89 L132 82 L138 77 L146 76 L153 77 L159 82 L166 79 L173 76 L180 73 L184 67 L191 64 L198 66 L205 63 L212 61 L219 58 L223 51 L230 50 L237 53 L240 60 L237 67 L231 71 L223 69 L216 72 L210 75 L202 78 L199 84 L191 87 L184 85 L178 88 L170 90 L163 93 L162 101 L158 107 L151 111 L152 119 L151 126 L152 134 L151 141 L157 146 L164 146 L172 146 L179 146 L187 146 L195 146 L202 146 L210 146 L217 146 L225 146 L232 146 L240 146 L247 146"/></svg>