<svg xmlns="http://www.w3.org/2000/svg" width="226.25" height="241.457"><path style="stroke:#40bf7d;stroke-width:3px;fill:none;" d="M110 193 L110 193 L110 186 L110 178 L110 171 L110 163 L110 155 L110 148 L110 140 L103 137 L98 132 L94 125 L87 126 L79 126 L75 132 L68 136 L61 135 L54 132 L50 125 L50 118 L53 111 L59 106 L66 105 L74 108 L79 114 L86 113 L94 113 L97 106 L102 100 L98 93 L95 87 L92 80 L89 73 L82 70 L78 63 L80 56 L85 50 L93 50 L99 53 L102 60 L100 68 L103 75 L106 81 L109 88 L112 95 L120 95 L127 98 L132 92 L137 87 L140 79 L147 76 L154 79 L156 86 L153 93 L147 95 L141 101 L136 106 L139 113 L139 121 L137 128 L143 133 L149 138 L154 143 L160 148 L168 148 L174 152 L176 159 L173 167 L167 170 L159 170 L153 164 L152 157 L147 152 L141 147 L135 142 L129 137 L122 140 L122 148 L122 155 L122 163 L122 171 L122 178 L122 186 L128 191 L123 196"/></svg>