<svg xmlns="http://www.w3.org/2000/svg" width="153.918" height="284.662"><path style="stroke:#85d279;stroke-width:3px;fill:none;" d="M63 236 L63 236 L63 229 L63 221 L63 214 L63 206 L63 199 L63 191 L63 183 L63 176 L57 172 L63 168 L63 161 L59 155 L58 147 L63 141 L63 134 L63 126 L63 119 L63 111 L63 104 L63 96 L63 88 L57 85 L52 79 L50 72 L50 64 L53 57 L58 52 L65 50 L73 50 L80 52 L86 57 L89 64 L89 72 L87 79 L82 85 L75 88 L75 96 L75 104 L76 111 L75 119 L75 126 L83 124 L87 130 L83 136 L75 134 L75 141 L80 147 L80 155 L75 161 L75 168 L75 176 L76 183 L75 191 L75 199 L76 206 L75 214 L75 221 L75 229 L81 234 L88 234 L96 234 L103 234 L111 234"/></svg>