<svg xmlns="http://www.w3.org/2000/svg" width="235.48" height="238.635"><path style="stroke:#d22d72;stroke-width:3px;fill:none;" d="M109 190 L109 190 L109 183 L109 175 L109 168 L109 160 L106 153 L109 146 L102 143 L97 138 L93 131 L92 124 L84 122 L77 120 L71 125 L64 126 L57 124 L52 119 L50 111 L51 104 L56 98 L64 96 L71 97 L77 102 L80 109 L87 110 L95 112 L100 106 L106 102 L104 95 L103 87 L102 80 L101 72 L95 67 L93 60 L96 53 L103 50 L111 51 L116 56 L117 64 L113 70 L114 78 L116 85 L116 93 L118 100 L125 102 L131 106 L136 112 L139 119 L139 127 L146 130 L153 133 L159 136 L166 139 L174 136 L181 139 L185 145 L184 153 L180 159 L172 160 L165 157 L162 150 L155 147 L148 144 L141 141 L134 138 L128 143 L122 146 L125 153 L121 160 L121 168 L121 175 L122 183 L127 188 L128 196"/></svg>