<svg xmlns="http://www.w3.org/2000/svg" width="292.25" height="214.081"><path style="stroke:#3a7847;stroke-width:3px;fill:none;" d="M72 164 L72 164 L80 164 L87 164 L95 164 L102 164 L110 164 L118 164 L125 164 L133 164 L140 164 L146 158 L145 151 L145 143 L145 136 L139 132 L139 125 L145 122 L139 118 L134 112 L126 114 L119 115 L112 117 L104 118 L97 119 L90 121 L82 122 L75 124 L67 125 L61 130 L54 129 L50 122 L51 115 L57 111 L65 113 L72 112 L80 110 L87 109 L95 107 L102 106 L100 99 L108 97 L109 105 L117 103 L124 102 L132 100 L134 93 L139 87 L145 84 L145 76 L145 69 L145 61 L145 53 L152 50 L158 53 L158 61 L158 69 L158 76 L158 84 L165 87 L169 93 L177 92 L184 90 L191 89 L199 87 L206 86 L209 79 L215 74 L221 71 L229 72 L236 76 L240 82 L242 89 L240 97 L235 103 L229 106 L221 106 L214 103 L209 98 L201 99 L194 101 L186 102 L179 104 L171 105 L169 112 L164 118 L158 122 L161 129 L158 136 L158 143 L158 151 L158 158 L163 163 L164 171"/></svg>