<svg xmlns="http://www.w3.org/2000/svg" width="229.72" height="296.778"><path style="stroke:#2d6886;stroke-width:3px;fill:none;" d="M113 249 L113 249 L113 241 L113 234 L113 226 L113 218 L113 211 L113 203 L113 196 L106 193 L101 187 L97 180 L90 180 L82 180 L75 180 L70 186 L62 187 L55 184 L51 178 L51 170 L55 164 L62 161 L70 163 L75 168 L83 168 L90 168 L98 168 L101 161 L106 156 L104 149 L101 142 L98 135 L96 127 L89 128 L81 127 L74 125 L67 121 L62 117 L56 111 L53 104 L50 97 L50 90 L50 82 L53 75 L56 68 L60 62 L66 57 L72 53 L80 51 L87 50 L95 50 L102 52 L109 55 L115 59 L120 65 L124 71 L127 78 L128 86 L128 93 L126 101 L123 108 L119 114 L114 119 L108 123 L110 130 L113 138 L115 145 L118 152 L125 153 L132 156 L137 161 L141 168 L142 176 L140 183 L146 188 L152 192 L157 197 L163 202 L171 202 L177 206 L179 213 L176 221 L170 225 L163 224 L157 219 L156 211 L150 207 L144 202 L138 197 L132 193 L125 196 L125 203 L125 211 L125 218 L125 226 L125 234 L125 241 L131 246 L125 252"/></svg>