<svg xmlns="http://www.w3.org/2000/svg" width="233.82" height="251.29"><path style="stroke:#3b2d86;stroke-width:3px;fill:none;" d="M149 201 L149 201 L156 201 L155 193 L156 186 L155 178 L150 173 L148 166 L150 158 L156 153 L156 146 L156 138 L156 131 L149 127 L145 120 L144 113 L137 110 L129 107 L123 105 L115 102 L109 99 L104 105 L97 109 L91 112 L83 113 L76 113 L69 111 L62 107 L57 102 L52 95 L50 88 L50 80 L51 73 L53 66 L58 60 L64 55 L70 51 L78 50 L85 50 L93 51 L99 55 L105 59 L110 66 L112 73 L114 80 L113 88 L120 90 L127 93 L134 96 L141 99 L148 102 L154 97 L154 90 L153 82 L147 78 L143 71 L143 64 L147 57 L153 53 L161 52 L168 56 L172 62 L173 69 L171 76 L165 81 L166 89 L166 96 L173 100 L178 106 L180 113 L179 120 L174 127 L168 131 L168 138 L168 146 L168 153 L175 154 L181 159 L183 166 L181 173 L175 178 L168 178 L168 186 L168 193 L168 201 L175 201"/></svg>