<svg xmlns="http://www.w3.org/2000/svg" width="233.438" height="287.95"><path style="stroke:#2d864d;stroke-width:3px;fill:none;" d="M54 237 L54 237 L62 237 L69 237 L75 232 L74 225 L74 217 L74 209 L74 202 L74 194 L74 187 L74 179 L74 172 L74 164 L70 158 L70 151 L74 145 L74 137 L67 135 L61 131 L56 125 L52 119 L50 111 L50 104 L51 97 L54 90 L59 84 L65 79 L72 76 L72 69 L71 61 L70 54 L76 50 L83 53 L83 60 L84 68 L84 76 L92 77 L98 81 L104 86 L109 92 L111 99 L112 107 L111 114 L118 118 L124 121 L131 124 L139 123 L145 127 L147 134 L144 141 L137 144 L130 142 L126 135 L119 132 L113 129 L106 125 L100 131 L94 135 L87 137 L87 145 L92 151 L92 158 L87 164 L87 172 L87 179 L87 187 L87 194 L87 202 L87 209 L87 217 L87 225 L87 232 L92 237 L100 237 L107 237 L115 237 L122 237 L130 237 L135 232 L135 225 L135 217 L135 209 L135 202 L129 197 L127 190 L129 182 L134 177 L141 175 L149 177 L154 182 L156 190 L153 197 L147 202 L147 209 L147 217 L148 225 L147 232 L153 237 L160 237 L168 237 L175 237 L183 237 L190 237"/></svg>