<svg xmlns="http://www.w3.org/2000/svg" width="259.361" height="292.021"><path style="stroke:#ac9d53;stroke-width:3px;fill:none;" d="M42 241 L42 241 L50 241 L57 241 L62 236 L63 228 L63 221 L63 213 L63 206 L62 198 L57 193 L55 186 L57 179 L62 173 L59 167 L63 160 L63 152 L63 145 L63 137 L63 129 L63 122 L63 114 L63 107 L62 99 L63 92 L63 84 L63 77 L57 72 L54 64 L56 57 L61 52 L69 50 L76 52 L81 57 L83 64 L80 72 L75 77 L75 84 L75 92 L75 99 L75 107 L75 114 L75 122 L75 129 L75 137 L75 145 L75 152 L75 160 L78 167 L75 173 L82 176 L86 182 L86 190 L82 196 L75 198 L75 206 L75 213 L75 221 L75 228 L75 236 L80 241 L88 241 L95 241 L103 241 L110 241 L118 241 L126 241 L133 241 L141 241 L146 236 L146 228 L146 221 L146 213 L139 213 L138 206 L146 206 L146 198 L146 191 L141 185 L141 177 L146 171 L146 164 L146 156 L146 149 L146 141 L139 138 L134 132 L131 125 L131 117 L134 110 L138 104 L145 101 L152 99 L159 101 L166 104 L171 110 L173 117 L173 125 L170 132 L165 138 L158 141 L158 149 L158 156 L158 164 L158 171 L166 172 L171 177 L171 185 L166 190 L158 191 L158 198 L158 206 L158 213 L158 221 L158 228 L158 236 L163 242 L171 242 L179 242 L186 242 L194 242 L201 242 L209 242 L216 242"/></svg>