<svg xmlns="http://www.w3.org/2000/svg" width="239.17" height="296.929"><path style="stroke:#786d3a;stroke-width:3px;fill:none;" d="M66 246 L66 246 L73 246 L81 246 L88 246 L96 246 L104 246 L109 241 L109 234 L109 226 L109 218 L109 211 L109 203 L109 196 L109 188 L102 185 L96 180 L92 174 L90 167 L90 159 L93 152 L97 146 L93 139 L89 133 L85 127 L78 128 L70 127 L63 124 L57 120 L53 114 L50 107 L50 99 L51 92 L55 85 L60 79 L66 76 L73 74 L81 74 L88 76 L94 80 L99 85 L103 92 L104 100 L103 107 L100 114 L96 120 L100 127 L103 133 L107 140 L115 138 L122 140 L126 133 L130 127 L134 120 L138 114 L132 110 L136 103 L142 107 L146 101 L150 94 L148 87 L150 80 L156 75 L163 73 L167 67 L166 59 L169 53 L176 50 L183 51 L188 57 L189 64 L184 71 L177 73 L173 80 L178 85 L179 93 L175 99 L168 102 L160 101 L157 107 L153 114 L149 120 L145 127 L149 133 L141 133 L137 139 L133 146 L137 152 L140 159 L140 167 L138 174 L134 180 L128 185 L121 188 L121 196 L121 203 L121 211 L121 218 L121 226 L121 234 L121 241 L127 246 L134 246 L142 246 L149 246 L157 246 L164 246"/></svg>