<svg xmlns="http://www.w3.org/2000/svg" width="299.82" height="202.71"><path style="stroke:#bf5340;stroke-width:3px;fill:none;" d="M105 146 L105 146 L113 146 L120 146 L128 146 L136 146 L143 146 L149 141 L148 134 L148 126 L148 119 L148 111 L142 107 L135 110 L128 114 L121 117 L117 123 L109 123 L102 127 L96 130 L89 133 L82 137 L75 140 L73 147 L67 152 L60 152 L53 148 L50 142 L51 134 L56 128 L63 127 L70 129 L77 126 L83 122 L90 119 L97 116 L90 114 L85 108 L86 100 L91 95 L99 94 L105 98 L107 105 L104 112 L104 105 L111 101 L116 106 L123 103 L130 99 L137 96 L137 89 L141 82 L147 77 L155 76 L162 77 L168 82 L175 79 L182 76 L189 73 L193 67 L200 64 L207 66 L214 63 L221 61 L228 58 L232 51 L240 50 L246 53 L249 60 L247 67 L240 71 L233 69 L226 72 L219 75 L211 78 L208 84 L201 87 L194 85 L187 88 L179 90 L172 93 L171 101 L167 107 L161 111 L161 119 L161 126 L160 134 L161 141 L166 147 L173 147 L181 147 L189 147 L196 147 L204 147 L211 147 L219 147 L226 147 L234 147 L242 147 L249 147 L257 147"/></svg>