<svg xmlns="http://www.w3.org/2000/svg" width="247.16" height="242.28"><path style="stroke:#931f48;stroke-width:3px;fill:none;" d="M110 192 L110 192 L117 192 L117 184 L117 177 L117 169 L117 162 L118 154 L117 146 L111 143 L105 138 L101 132 L99 125 L92 123 L84 122 L77 120 L70 119 L62 118 L55 118 L50 113 L51 105 L58 102 L64 106 L72 107 L79 108 L87 110 L94 111 L102 113 L106 106 L112 102 L110 94 L108 87 L106 80 L104 72 L98 68 L96 61 L98 54 L105 50 L113 50 L118 55 L120 62 L116 69 L118 77 L120 84 L122 91 L124 99 L131 100 L138 103 L144 98 L142 91 L150 93 L155 89 L161 84 L167 79 L173 74 L174 67 L180 62 L188 61 L194 65 L197 72 L195 79 L188 84 L181 84 L175 88 L169 93 L163 98 L157 103 L152 108 L146 113 L148 120 L148 127 L155 131 L161 134 L168 137 L175 140 L182 138 L189 141 L193 148 L192 155 L187 161 L180 162 L173 158 L170 151 L163 148 L156 145 L150 142 L143 138 L137 143 L130 146 L130 154 L130 162 L130 169 L130 177 L130 184 L130 192 L137 192"/></svg>