<svg xmlns="http://www.w3.org/2000/svg" width="215.83" height="235.64"><path style="stroke:#d279c8;stroke-width:3px;fill:none;" d="M102 182 L102 182 L102 174 L102 167 L102 159 L102 151 L95 149 L89 144 L85 138 L82 130 L82 123 L75 120 L68 117 L61 120 L54 118 L50 111 L50 104 L54 98 L62 96 L69 99 L72 106 L80 109 L86 111 L92 106 L98 102 L106 100 L107 93 L108 85 L109 78 L110 70 L106 64 L107 56 L112 51 L119 50 L126 53 L130 60 L128 67 L122 72 L121 80 L120 87 L119 95 L118 102 L125 106 L129 111 L133 118 L134 126 L133 133 L130 140 L135 146 L140 151 L146 156 L151 162 L159 163 L164 168 L165 175 L162 182 L155 185 L148 184 L143 178 L142 170 L137 165 L132 159 L127 154 L121 149 L114 151 L114 159 L114 167 L114 174 L120 179 L127 179 L135 179 L142 179 L150 179"/></svg>