<svg xmlns="http://www.w3.org/2000/svg" width="225.91" height="242.606"><path style="stroke:#93231f;stroke-width:3px;fill:none;" d="M109 194 L109 194 L108 187 L108 179 L108 171 L108 164 L108 156 L108 149 L109 141 L102 138 L96 132 L93 125 L86 124 L79 124 L71 123 L65 127 L57 127 L51 122 L50 115 L53 108 L59 104 L67 106 L72 111 L79 112 L87 112 L95 113 L99 107 L105 102 L103 95 L102 87 L101 80 L99 72 L94 67 L92 60 L95 53 L102 50 L109 51 L114 56 L115 64 L111 70 L113 77 L114 85 L115 92 L117 100 L124 102 L130 107 L134 113 L136 120 L134 128 L141 132 L147 137 L153 141 L159 146 L166 145 L173 149 L175 156 L173 163 L167 168 L160 168 L154 163 L152 155 L146 151 L140 147 L133 142 L127 138 L121 141 L121 149 L121 156 L121 164 L121 171 L121 179 L121 187 L126 192 L121 198"/></svg>