<svg xmlns="http://www.w3.org/2000/svg" width="289.374" height="217.798"><path style="stroke:#e06caf;stroke-width:3px;fill:none;" d="M42 167 L42 167 L50 167 L57 167 L65 167 L72 167 L80 167 L87 167 L95 167 L102 167 L110 167 L118 167 L125 167 L133 167 L140 167 L148 167 L155 167 L161 162 L161 154 L161 147 L161 139 L161 132 L161 124 L155 129 L148 133 L141 134 L134 132 L127 129 L122 123 L118 117 L117 109 L118 102 L122 95 L127 89 L134 86 L141 85 L148 86 L155 89 L161 94 L161 87 L161 79 L161 71 L156 66 L156 58 L160 52 L167 50 L174 52 L179 58 L178 66 L173 71 L173 79 L173 87 L173 94 L179 99 L182 105 L183 113 L179 120 L173 124 L173 132 L173 139 L173 147 L173 154 L173 162 L178 167 L186 167 L194 167 L201 167 L209 167 L216 167 L224 167 L231 167 L239 167 L246 167"/></svg>