<svg xmlns="http://www.w3.org/2000/svg" width="297.134" height="206.765"><path style="stroke:#e08d6c;stroke-width:3px;fill:none;" d="M102 156 L102 156 L110 156 L118 156 L125 156 L133 156 L140 156 L146 151 L146 143 L146 136 L146 128 L146 121 L140 116 L132 119 L125 122 L118 125 L113 130 L106 130 L98 133 L91 135 L84 138 L77 141 L70 144 L66 150 L59 152 L52 149 L50 142 L52 134 L59 131 L66 132 L73 130 L80 127 L87 124 L94 121 L87 119 L83 112 L84 105 L89 100 L97 100 L103 104 L105 112 L101 118 L101 111 L109 108 L114 113 L121 111 L128 108 L135 105 L136 98 L141 92 L148 88 L156 88 L162 92 L169 88 L175 84 L182 80 L185 73 L191 69 L199 71 L205 67 L212 63 L218 59 L222 52 L229 50 L236 52 L240 58 L238 66 L232 70 L225 70 L218 74 L212 77 L205 81 L202 88 L195 92 L188 91 L182 95 L175 98 L168 102 L168 110 L164 116 L158 121 L158 128 L158 136 L158 143 L158 151 L163 156 L171 156 L178 156 L186 156 L194 156 L201 156 L209 156 L216 156 L224 156 L231 156 L239 156 L247 156 L254 156"/></svg>