<svg xmlns="http://www.w3.org/2000/svg" width="256.79" height="230.68"><path style="stroke:#6ce0c5;stroke-width:3px;fill:none;" d="M124 180 L124 180 L131 180 L130 173 L130 165 L131 158 L130 150 L130 142 L130 135 L130 127 L124 124 L118 118 L116 111 L108 111 L101 110 L93 109 L86 109 L81 115 L75 119 L68 120 L60 118 L54 113 L50 107 L50 99 L51 92 L56 86 L63 83 L71 82 L78 84 L83 89 L87 96 L94 97 L102 98 L110 98 L117 99 L121 93 L127 88 L125 81 L124 73 L123 66 L121 58 L125 52 L134 56 L135 64 L136 71 L138 78 L139 71 L141 64 L146 58 L151 53 L159 50 L166 50 L174 51 L181 54 L186 59 L190 65 L192 72 L193 80 L191 87 L188 94 L183 99 L176 103 L168 105 L161 105 L154 102 L147 98 L142 93 L139 86 L146 88 L152 93 L156 99 L158 106 L156 114 L163 118 L169 123 L175 127 L181 132 L188 129 L196 130 L202 134 L206 141 L206 148 L203 155 L198 160 L190 162 L183 161 L177 156 L174 149 L174 142 L168 137 L162 133 L155 128 L149 124 L143 127 L143 135 L143 142 L143 150 L143 158 L143 165 L143 173 L143 180 L150 180"/></svg>