<svg xmlns="http://www.w3.org/2000/svg" width="226.59" height="241.664"><path style="stroke:#9cac53;stroke-width:3px;fill:none;" d="M110 193 L110 193 L110 186 L110 178 L110 171 L110 163 L110 155 L110 148 L110 140 L104 137 L98 132 L94 125 L87 126 L80 126 L72 126 L67 132 L59 132 L52 129 L50 122 L52 114 L58 110 L66 110 L71 114 L79 114 L86 113 L94 113 L97 106 L102 100 L99 93 L96 87 L92 80 L89 73 L82 70 L79 63 L80 56 L85 50 L93 50 L100 53 L102 60 L100 68 L103 75 L107 81 L110 88 L113 95 L120 95 L127 98 L133 92 L138 87 L143 81 L146 74 L154 73 L160 78 L159 86 L152 90 L147 95 L142 101 L136 106 L139 113 L140 121 L137 128 L143 133 L149 138 L155 143 L160 148 L168 148 L174 152 L176 159 L173 167 L167 170 L159 170 L154 164 L153 157 L147 152 L141 147 L135 142 L130 137 L123 140 L123 148 L123 155 L123 163 L123 171 L123 178 L123 186 L128 191 L123 197"/></svg>