<svg xmlns="http://www.w3.org/2000/svg" width="278.485" height="259.983"><path style="stroke:#68783a;stroke-width:3px;fill:none;" d="M42 209 L42 209 L50 209 L57 209 L65 209 L72 209 L80 209 L87 209 L95 209 L102 209 L110 209 L118 209 L125 209 L133 209 L140 209 L145 204 L145 196 L146 189 L145 181 L145 174 L145 166 L145 159 L145 151 L139 148 L133 143 L130 136 L129 129 L130 121 L133 115 L139 109 L145 106 L145 99 L145 91 L145 84 L139 79 L135 73 L134 66 L136 58 L141 53 L148 50 L155 50 L162 53 L167 58 L170 66 L168 73 L164 79 L158 84 L158 91 L158 99 L158 106 L165 108 L172 112 L176 118 L179 125 L179 132 L176 140 L172 145 L165 149 L158 151 L158 159 L158 166 L158 174 L158 181 L158 189 L164 193 L158 196 L158 204 L163 209 L168 204 L168 196 L169 189 L168 181 L168 174 L161 172 L154 170 L147 167 L141 162 L135 157 L131 151 L127 145 L124 138 L122 131 L121 123 L121 115 L122 108 L125 101 L128 94 L132 88 L137 82 L143 77 L149 73 L156 70 L163 68 L171 67 L178 67 L186 68 L193 70 L200 73 L207 77 L212 82 L217 88 L221 94 L225 101 L227 108 L228 115 L228 123 L227 131 L225 138 L222 145 L219 151 L214 157 L208 162 L202 167 L195 170 L188 172 L181 174 L180 181 L181 189 L181 196 L180 204 L188 202"/></svg>