<svg xmlns="http://www.w3.org/2000/svg" width="215.59" height="267.923"><path style="stroke:#79d287;stroke-width:3px;fill:none;" d="M42 217 L42 217 L50 217 L57 217 L65 217 L72 217 L80 217 L87 217 L95 217 L102 217 L110 217 L118 217 L123 212 L123 205 L123 197 L123 189 L123 182 L123 174 L123 167 L123 159 L123 152 L116 149 L111 155 L107 162 L108 169 L104 176 L97 178 L90 176 L85 170 L85 162 L90 157 L97 155 L101 148 L106 142 L101 136 L98 129 L97 122 L97 114 L99 107 L103 101 L108 95 L114 91 L121 88 L129 87 L137 88 L140 81 L143 74 L146 68 L149 61 L150 53 L157 50 L163 53 L165 60 L160 66 L157 73 L154 79 L151 86 L148 93 L153 98 L158 105 L160 112 L161 119 L161 127 L158 134 L154 140 L149 145 L143 149 L135 152 L135 159 L135 167 L135 174 L135 182 L135 189 L135 197 L135 205 L135 212 L142 210"/></svg>