<svg xmlns="http://www.w3.org/2000/svg" width="273.41" height="298.559"><path style="stroke:#40acbf;stroke-width:3px;fill:none;" d="M116 248 L116 248 L124 248 L131 248 L137 243 L137 235 L137 228 L137 220 L137 212 L137 205 L137 197 L137 190 L129 188 L123 184 L117 179 L113 172 L111 165 L110 158 L110 150 L103 147 L96 144 L91 150 L84 153 L77 155 L69 154 L62 151 L57 147 L52 141 L50 133 L50 126 L51 119 L55 112 L61 107 L68 104 L75 103 L83 104 L90 107 L96 112 L99 118 L101 125 L101 133 L108 136 L115 139 L120 133 L126 129 L133 126 L140 124 L141 117 L135 113 L129 117 L122 121 L116 125 L118 132 L118 140 L116 147 L113 154 L108 160 L102 164 L95 167 L88 168 L80 168 L73 166 L66 162 L61 157 L57 150 L54 143 L54 136 L55 128 L58 121 L62 115 L67 110 L74 106 L81 105 L89 104 L96 106 L103 110 L109 114 L116 110 L122 106 L128 102 L127 95 L129 87 L133 81 L129 75 L125 68 L119 64 L117 57 L121 51 L129 50 L135 54 L135 62 L139 68 L143 74 L151 74 L158 75 L165 79 L170 85 L172 92 L179 93 L187 94 L194 95 L202 96 L208 92 L216 92 L222 97 L223 104 L220 111 L213 115 L206 113 L201 108 L193 107 L186 106 L178 105 L171 104 L167 111 L161 116 L153 118 L152 126 L160 129 L166 133 L171 129 L178 124 L180 117 L187 113 L194 115 L199 121 L198 129 L193 134 L185 134 L179 139 L173 143 L175 150 L176 158 L175 165 L172 172 L168 179 L163 184 L156 188 L149 190 L149 197 L149 205 L149 212 L149 220 L149 228 L149 235 L149 243 L154 248 L162 248 L169 248"/></svg>