<svg xmlns="http://www.w3.org/2000/svg" width="294.444" height="255.731"><path style="stroke:#87abc5;stroke-width:3px;fill:none;" d="M62 205 L62 205 L69 205 L77 205 L82 200 L82 192 L82 185 L82 177 L82 170 L82 162 L82 155 L82 147 L82 139 L82 132 L78 126 L78 118 L82 112 L82 105 L77 110 L70 113 L62 112 L56 109 L51 103 L50 95 L51 88 L56 82 L62 78 L70 78 L77 80 L83 85 L82 78 L82 70 L82 63 L81 56 L85 50 L93 50 L97 56 L95 63 L95 70 L95 78 L95 85 L99 91 L100 99 L95 105 L95 112 L99 118 L100 126 L95 132 L95 139 L95 147 L95 155 L95 162 L95 170 L95 177 L95 185 L95 192 L95 200 L100 205 L108 205 L115 205 L123 205 L131 205 L138 205 L145 205 L153 205 L161 205 L168 205 L176 205 L183 205 L191 205 L196 200 L196 192 L196 185 L196 177 L196 170 L190 165 L188 157 L190 150 L195 145 L202 143 L210 145 L215 150 L216 157 L214 165 L208 170 L208 177 L208 185 L208 192 L208 200 L214 205 L221 205 L229 205 L236 205 L244 205 L252 205"/></svg>