<svg xmlns="http://www.w3.org/2000/svg" width="220.6" height="240.503"><path style="stroke:#87c5a2;stroke-width:3px;fill:none;" d="M112 192 L112 192 L110 185 L107 178 L110 171 L110 163 L110 156 L110 148 L110 141 L103 137 L98 132 L94 125 L87 125 L79 125 L72 125 L66 130 L58 131 L52 126 L50 119 L52 112 L58 108 L66 108 L71 113 L79 113 L87 113 L94 113 L98 106 L103 101 L100 94 L98 87 L95 80 L93 72 L86 69 L84 62 L86 54 L91 50 L99 50 L105 54 L107 61 L104 68 L107 75 L110 83 L112 90 L114 97 L122 98 L129 101 L134 106 L137 113 L138 121 L137 128 L142 133 L148 137 L154 142 L162 142 L168 146 L170 154 L167 161 L161 165 L154 164 L148 159 L147 152 L142 158 L136 153 L141 147 L135 142 L129 137 L122 141 L122 148 L122 156 L122 163 L122 171 L125 178 L122 185 L127 190 L129 197"/></svg>