<svg xmlns="http://www.w3.org/2000/svg" width="289.417" height="207.004"><path style="stroke:#785b3a;stroke-width:3px;fill:none;" d="M42 157 L42 157 L50 157 L57 157 L65 157 L72 157 L80 157 L87 157 L95 157 L102 157 L110 157 L118 157 L125 157 L133 157 L140 157 L148 157 L155 157 L161 151 L161 143 L161 136 L161 128 L161 121 L161 113 L156 119 L151 124 L144 128 L137 130 L129 130 L122 128 L115 124 L109 119 L105 113 L102 106 L102 98 L103 91 L105 84 L109 78 L115 72 L122 69 L129 67 L137 67 L144 69 L151 72 L156 77 L161 83 L161 76 L161 68 L157 62 L158 55 L163 50 L171 50 L177 55 L178 62 L173 68 L173 76 L173 83 L179 88 L183 95 L183 102 L179 109 L173 113 L173 121 L173 128 L173 136 L173 143 L173 151 L178 156 L186 156 L194 156 L201 156 L209 156 L216 156 L224 156 L231 156 L239 156 L246 156"/></svg>