<svg xmlns="http://www.w3.org/2000/svg" width="205.86" height="225.94"><path style="stroke:#3a7853;stroke-width:3px;fill:none;" d="M90 175 L90 175 L90 167 L90 160 L90 152 L90 145 L83 142 L78 137 L74 130 L73 122 L74 115 L77 108 L72 102 L67 97 L63 91 L55 89 L50 84 L50 76 L53 70 L60 67 L68 69 L73 75 L72 83 L77 89 L82 95 L87 100 L94 99 L101 99 L105 92 L108 86 L112 79 L115 72 L113 65 L114 58 L119 52 L126 50 L133 51 L139 56 L141 64 L139 71 L134 76 L126 78 L123 85 L119 91 L116 98 L112 105 L117 111 L119 118 L120 125 L117 132 L123 138 L128 143 L134 148 L140 153 L148 153 L153 157 L155 165 L152 172 L146 175 L138 174 L133 169 L132 162 L126 157 L121 152 L115 147 L109 142 L102 145 L102 152 L102 160 L102 167 L108 173 L100 174"/></svg>