<svg xmlns="http://www.w3.org/2000/svg" width="226.49" height="239.382"><path style="stroke:#d23d2d;stroke-width:3px;fill:none;" d="M112 190 L112 190 L110 183 L107 177 L110 170 L110 162 L110 155 L107 148 L110 141 L103 137 L98 132 L94 125 L87 125 L79 125 L72 125 L66 130 L58 131 L52 126 L50 119 L52 112 L58 108 L66 108 L71 113 L79 113 L87 113 L94 113 L97 106 L103 101 L101 94 L98 87 L95 80 L93 72 L86 69 L84 62 L86 54 L91 50 L99 50 L105 54 L107 61 L104 68 L107 75 L110 83 L112 90 L114 97 L122 98 L129 101 L134 106 L137 113 L138 121 L137 128 L142 133 L148 137 L154 142 L160 147 L168 147 L174 151 L176 158 L173 165 L167 170 L159 169 L154 164 L152 156 L147 152 L141 147 L135 142 L129 137 L122 141 L125 148 L122 155 L122 162 L122 170 L125 177 L122 183 L127 189 L129 196"/></svg>