<svg xmlns="http://www.w3.org/2000/svg" width="242.13" height="276.369"><path style="stroke:#d2a32d;stroke-width:3px;fill:none;" d="M74 226 L74 226 L82 226 L90 226 L95 221 L95 213 L95 206 L95 198 L87 196 L81 192 L75 187 L70 181 L67 175 L66 167 L65 160 L67 152 L60 154 L53 151 L50 144 L51 137 L56 131 L63 131 L70 134 L73 141 L78 136 L84 132 L91 129 L99 127 L106 128 L108 121 L103 115 L96 117 L89 120 L81 122 L75 126 L68 124 L66 117 L70 111 L78 110 L85 108 L93 106 L100 104 L101 96 L105 90 L111 85 L109 77 L107 70 L102 65 L101 57 L105 51 L113 50 L119 53 L122 60 L119 67 L121 75 L122 82 L130 84 L136 88 L140 95 L142 102 L149 104 L157 105 L164 107 L171 109 L178 105 L185 107 L191 112 L192 120 L188 126 L180 129 L173 127 L169 121 L161 119 L154 117 L147 116 L139 114 L135 120 L128 123 L120 124 L118 132 L124 136 L129 141 L136 138 L143 134 L146 128 L154 125 L160 128 L164 135 L162 142 L156 146 L148 145 L142 149 L135 152 L136 160 L137 167 L135 175 L131 181 L127 187 L121 192 L115 196 L107 198 L107 206 L114 202 L120 206 L120 213 L114 217 L107 213 L107 221 L113 226 L120 226 L128 226"/></svg>