<svg xmlns="http://www.w3.org/2000/svg" width="228.99" height="241.462"><path style="stroke:#d279a3;stroke-width:3px;fill:none;" d="M112 193 L112 193 L113 186 L113 178 L113 171 L113 163 L113 155 L113 148 L113 140 L106 137 L100 132 L97 125 L89 126 L82 126 L78 133 L72 136 L64 137 L57 134 L52 129 L50 122 L51 114 L56 108 L63 105 L70 105 L77 108 L81 114 L89 113 L96 113 L99 106 L104 100 L101 93 L98 87 L94 80 L91 73 L85 70 L81 63 L82 56 L88 50 L95 50 L102 53 L105 60 L103 68 L106 75 L109 81 L112 88 L115 95 L123 95 L130 98 L135 92 L140 87 L144 80 L151 79 L157 84 L156 91 L149 95 L144 101 L139 106 L141 113 L142 121 L140 128 L146 133 L152 138 L157 143 L163 148 L171 148 L177 152 L178 159 L175 167 L169 170 L161 170 L156 164 L155 157 L149 152 L143 147 L138 142 L132 137 L125 140 L125 148 L125 155 L125 163 L125 171 L125 178 L125 186 L131 191 L125 196"/></svg>