<svg xmlns="http://www.w3.org/2000/svg" width="225.13" height="240.138"><path style="stroke:#a26ce0;stroke-width:3px;fill:none;" d="M109 192 L109 192 L109 184 L109 177 L106 170 L109 163 L109 155 L109 148 L109 140 L102 137 L96 132 L93 125 L86 129 L79 126 L75 132 L68 136 L61 135 L54 132 L50 125 L50 118 L53 111 L59 106 L67 105 L74 108 L78 114 L85 110 L92 113 L95 106 L100 100 L97 93 L94 87 L90 80 L88 73 L81 70 L77 63 L78 56 L84 50 L91 50 L98 53 L100 60 L99 68 L102 75 L105 81 L108 88 L111 95 L119 95 L126 98 L131 92 L131 85 L135 78 L142 75 L149 76 L155 82 L156 89 L153 96 L148 100 L140 101 L135 106 L138 113 L138 121 L136 128 L142 133 L148 138 L153 143 L159 148 L166 148 L172 152 L175 159 L171 167 L165 170 L158 170 L152 164 L151 157 L145 152 L139 147 L134 142 L128 137 L121 140 L121 148 L121 155 L121 163 L124 170 L121 177 L121 184 L127 190 L127 197"/></svg>