<svg xmlns="http://www.w3.org/2000/svg" width="203.07" height="248.35"><path style="stroke:#c58798;stroke-width:3px;fill:none;" d="M118 198 L118 198 L125 198 L125 190 L125 183 L125 175 L119 170 L117 163 L119 156 L125 150 L125 143 L125 135 L125 128 L118 124 L114 118 L113 110 L106 107 L99 104 L92 102 L85 99 L78 96 L71 100 L64 101 L57 98 L52 93 L50 86 L51 78 L55 72 L62 69 L69 68 L76 71 L80 77 L82 85 L89 87 L97 90 L103 93 L110 96 L117 99 L124 94 L123 87 L122 79 L116 75 L112 68 L113 61 L116 54 L123 50 L130 50 L137 53 L141 59 L143 66 L140 73 L135 78 L135 86 L136 93 L143 97 L147 103 L149 110 L148 118 L144 124 L137 128 L137 135 L137 143 L137 150 L144 151 L151 156 L153 163 L150 170 L144 175 L137 175 L137 183 L137 190 L137 198 L144 198"/></svg>