<svg xmlns="http://www.w3.org/2000/svg" width="266.891" height="251.492"><path style="stroke:#2dacd2;stroke-width:3px;fill:none;" d="M145 203 L145 203 L146 196 L146 188 L146 181 L146 173 L146 166 L146 158 L146 150 L146 143 L146 135 L139 132 L134 126 L131 119 L124 118 L117 117 L118 124 L117 131 L113 138 L107 143 L100 145 L92 146 L85 143 L79 139 L75 132 L73 125 L74 117 L77 111 L70 109 L62 108 L55 109 L50 104 L51 96 L58 93 L64 96 L71 97 L79 98 L83 92 L90 88 L98 87 L105 88 L112 91 L116 97 L118 104 L126 106 L134 107 L138 101 L144 97 L144 89 L143 82 L143 74 L137 69 L135 62 L138 55 L144 50 L151 50 L158 53 L161 60 L160 68 L155 73 L155 81 L156 88 L157 96 L164 99 L169 104 L172 111 L172 119 L170 126 L164 132 L158 135 L158 143 L158 150 L158 158 L158 166 L158 173 L158 181 L158 188 L158 196 L163 201 L171 201 L179 201 L186 201 L194 201 L201 201 L209 201 L216 201 L224 201"/></svg>