<svg xmlns="http://www.w3.org/2000/svg" width="206.73" height="243.23"><path style="stroke:#6cd8e0;stroke-width:3px;fill:none;" d="M121 193 L121 193 L128 193 L128 185 L128 178 L129 170 L123 165 L121 158 L123 150 L128 145 L128 138 L128 130 L129 123 L122 119 L117 113 L115 106 L108 104 L101 102 L94 100 L86 98 L79 96 L73 101 L66 103 L58 101 L52 96 L50 89 L50 82 L53 75 L59 71 L67 69 L74 72 L79 77 L82 84 L89 86 L97 88 L104 90 L111 92 L118 94 L124 88 L131 85 L132 78 L126 73 L124 65 L126 58 L131 52 L138 50 L145 50 L152 55 L154 62 L154 69 L150 76 L144 80 L143 87 L149 92 L153 98 L154 106 L152 113 L147 119 L141 123 L140 130 L141 138 L141 145 L148 146 L154 150 L156 158 L154 165 L148 170 L141 170 L141 178 L141 185 L141 193 L148 193"/></svg>