<svg xmlns="http://www.w3.org/2000/svg" width="168.336" height="259.95"><path style="stroke:#21931f;stroke-width:3px;fill:none;" d="M42 209 L42 209 L50 209 L57 209 L65 209 L70 204 L70 197 L70 189 L70 181 L70 174 L70 166 L70 159 L70 151 L63 149 L58 144 L56 136 L58 129 L63 123 L70 121 L70 114 L70 106 L70 99 L70 91 L70 84 L64 79 L60 73 L58 66 L61 58 L66 53 L72 50 L80 50 L87 53 L92 58 L94 66 L93 73 L89 79 L82 84 L82 91 L82 99 L82 106 L90 106 L90 114 L82 114 L82 121 L88 126 L92 132 L92 140 L88 147 L82 151 L83 159 L82 166 L82 174 L82 181 L82 189 L89 193 L83 197 L82 204 L87 209 L93 204 L93 197 L93 189 L93 181 L93 174 L86 172 L80 167 L77 160 L77 153 L80 146 L86 141 L93 139 L93 131 L90 124 L93 118 L93 110 L87 106 L93 102 L93 95 L93 87 L91 80 L96 74 L103 74 L108 80 L105 87 L105 95 L105 102 L105 110 L105 118 L108 124 L105 131 L105 139 L112 143 L116 149 L118 156 L116 164 L112 170 L105 174 L105 181 L105 189 L105 197 L105 204 L110 209 L110 217"/></svg>