<svg xmlns="http://www.w3.org/2000/svg" width="297.081" height="294.447"><path style="stroke:#c5d279;stroke-width:3px;fill:none;" d="M42 244 L42 244 L50 244 L57 244 L65 244 L72 244 L78 239 L78 231 L77 223 L72 218 L70 211 L72 204 L77 199 L77 191 L74 184 L77 177 L77 170 L77 162 L77 155 L71 151 L66 145 L65 138 L66 130 L70 124 L76 119 L83 118 L91 119 L97 124 L101 130 L102 138 L101 145 L96 151 L90 155 L90 162 L89 170 L89 177 L93 184 L90 191 L90 199 L97 196 L104 197 L110 201 L114 207 L114 215 L111 222 L104 226 L96 226 L90 223 L90 231 L90 239 L95 244 L103 244 L110 244 L117 244 L125 244 L133 244 L140 244 L148 244 L155 244 L163 244 L171 244 L178 244 L185 244 L191 239 L191 231 L191 223 L191 216 L191 208 L191 201 L191 193 L191 186 L191 178 L184 179 L177 176 L173 170 L172 162 L176 156 L183 152 L191 153 L191 146 L191 138 L191 131 L191 123 L191 116 L191 108 L184 106 L178 101 L172 96 L169 89 L168 82 L168 74 L170 67 L174 60 L179 55 L186 51 L193 50 L201 50 L208 51 L215 55 L220 60 L224 67 L226 74 L227 82 L225 89 L222 96 L217 101 L211 106 L203 108 L203 116 L203 123 L203 131 L203 138 L203 146 L203 153 L209 158 L211 166 L209 173 L203 178 L203 186 L203 193 L203 201 L203 208 L203 216 L203 223 L203 231 L203 239 L209 244 L216 244 L224 244 L231 244 L239 244 L247 244 L254 244"/></svg>