<svg xmlns="http://www.w3.org/2000/svg" width="289.368" height="205.107"><path style="stroke:#78553a;stroke-width:3px;fill:none;" d="M42 155 L42 155 L50 155 L57 155 L65 155 L72 155 L80 155 L87 155 L95 155 L102 155 L110 155 L118 155 L125 155 L133 155 L140 155 L148 155 L155 155 L161 149 L161 142 L161 134 L161 126 L161 119 L161 111 L154 115 L147 116 L139 115 L133 110 L129 104 L128 96 L129 89 L133 83 L140 78 L147 77 L154 78 L161 81 L161 74 L161 66 L157 60 L160 53 L167 50 L174 53 L177 60 L173 66 L173 74 L173 81 L179 86 L182 93 L183 100 L179 107 L173 111 L173 119 L173 126 L173 134 L173 142 L173 149 L178 154 L186 154 L194 154 L201 154 L209 154 L216 154 L224 154 L231 154 L239 154 L246 154"/></svg>