<svg xmlns="http://www.w3.org/2000/svg" width="225.95" height="240.601"><path style="stroke:#40bf44;stroke-width:3px;fill:none;" d="M112 192 L112 192 L109 185 L106 178 L109 171 L109 163 L109 156 L109 148 L109 141 L102 137 L97 132 L94 125 L86 125 L79 125 L74 131 L67 134 L60 134 L53 130 L50 123 L50 115 L53 109 L60 105 L67 104 L74 107 L79 113 L86 113 L94 113 L97 106 L102 101 L100 94 L97 87 L95 80 L92 72 L86 69 L83 62 L85 54 L91 50 L98 50 L105 54 L107 61 L104 68 L106 75 L109 83 L111 90 L114 97 L122 98 L128 101 L133 106 L137 113 L138 121 L136 128 L142 133 L148 137 L153 142 L159 147 L167 147 L173 151 L175 158 L173 165 L167 170 L159 169 L153 164 L152 156 L146 152 L140 147 L134 142 L128 137 L122 141 L122 148 L122 156 L122 163 L122 171 L125 178 L122 185 L127 190 L128 198"/></svg>