<svg xmlns="http://www.w3.org/2000/svg" width="267.07" height="262.607"><path style="stroke:#8a1f93;stroke-width:3px;fill:none;" d="M77 212 L77 212 L85 212 L92 212 L98 207 L98 199 L91 198 L83 195 L76 192 L70 188 L65 183 L60 177 L55 171 L53 164 L51 156 L50 149 L50 141 L51 134 L53 127 L56 120 L60 113 L65 107 L70 102 L76 98 L83 95 L90 92 L98 91 L98 83 L98 76 L98 68 L93 62 L94 55 L100 50 L107 50 L113 55 L114 62 L110 68 L110 76 L110 83 L110 91 L117 87 L123 83 L130 81 L138 79 L145 78 L152 78 L160 79 L168 81 L174 83 L182 86 L188 90 L194 95 L199 100 L204 106 L208 112 L211 119 L214 126 L216 134 L217 141 L216 149 L216 156 L214 164 L212 171 L208 178 L204 184 L199 190 L194 195 L188 200 L182 204 L175 207 L168 210 L160 211 L153 212 L145 212 L138 211 L130 209 L123 207 L116 203 L110 199 L110 207 L117 205"/></svg>