<svg xmlns="http://www.w3.org/2000/svg" width="273.02" height="276.4"><path style="stroke:#78493a;stroke-width:3px;fill:none;" d="M114 225 L114 225 L121 225 L121 217 L121 210 L121 202 L121 195 L121 187 L121 180 L121 172 L114 169 L109 163 L106 156 L106 148 L108 141 L103 136 L98 130 L92 125 L87 119 L80 120 L73 116 L70 109 L70 102 L65 96 L59 91 L53 88 L50 81 L52 74 L59 72 L66 75 L69 82 L74 88 L79 93 L84 87 L91 85 L98 87 L103 92 L105 99 L102 107 L96 111 L101 116 L107 122 L112 127 L117 133 L124 131 L125 123 L127 116 L129 108 L123 103 L130 101 L131 93 L129 86 L133 80 L135 72 L136 65 L134 58 L138 51 L145 50 L151 54 L153 61 L148 67 L147 75 L146 82 L152 86 L151 94 L143 96 L141 103 L140 111 L139 118 L138 125 L136 133 L143 137 L146 144 L148 151 L147 159 L153 154 L160 154 L167 159 L169 166 L167 173 L173 178 L179 182 L185 186 L191 191 L197 195 L204 193 L212 194 L218 198 L222 205 L223 212 L219 219 L214 224 L207 226 L199 224 L193 220 L190 213 L190 205 L184 201 L178 196 L172 192 L166 188 L159 183 L152 185 L145 182 L141 176 L140 169 L133 172 L133 180 L133 187 L133 195 L133 202 L133 210 L133 217 L133 225 L140 225"/></svg>