<svg xmlns="http://www.w3.org/2000/svg" width="265.638" height="271.126"><path style="stroke:#2d863e;stroke-width:3px;fill:none;" d="M48 221 L48 221 L56 221 L63 221 L69 215 L69 208 L69 200 L69 192 L69 185 L62 182 L56 177 L52 171 L50 164 L50 156 L51 149 L56 143 L62 138 L69 135 L69 127 L69 120 L69 112 L69 105 L62 102 L56 97 L53 90 L51 83 L52 75 L55 68 L61 63 L68 59 L75 58 L82 59 L89 63 L94 68 L97 75 L99 83 L97 90 L93 97 L88 102 L81 105 L81 112 L81 120 L81 127 L81 135 L89 133 L96 133 L103 136 L109 140 L114 146 L118 152 L118 160 L118 167 L114 174 L110 180 L103 184 L96 187 L88 187 L81 185 L81 192 L81 200 L81 208 L81 215 L87 220 L94 220 L101 220 L109 220 L116 220 L124 220 L132 220 L139 220 L147 220 L152 215 L152 208 L152 200 L152 192 L145 190 L139 185 L135 178 L133 171 L133 164 L135 156 L139 150 L145 145 L152 143 L152 135 L152 127 L152 120 L152 112 L152 105 L152 97 L149 90 L152 83 L152 76 L152 68 L148 62 L149 55 L155 50 L162 50 L168 55 L169 62 L165 68 L164 76 L164 83 L168 90 L164 97 L164 105 L165 112 L165 120 L164 127 L164 135 L164 143 L172 144 L178 148 L184 153 L187 160 L188 167 L187 175 L184 182 L178 187 L172 191 L164 192 L164 200 L164 208 L164 215 L170 220 L177 220 L185 220 L192 220 L200 220 L208 220 L215 220 L223 220"/></svg>