<svg xmlns="http://www.w3.org/2000/svg" width="249.73" height="236.242"><path style="stroke:#d2a62d;stroke-width:3px;fill:none;" d="M112 188 L112 188 L112 181 L112 173 L112 165 L109 159 L112 152 L112 144 L112 136 L105 134 L99 129 L95 123 L88 124 L80 125 L77 132 L71 137 L63 137 L56 135 L51 129 L50 121 L52 114 L57 109 L65 107 L72 108 L78 113 L85 112 L93 111 L94 103 L98 96 L93 91 L88 85 L83 79 L79 73 L71 72 L66 66 L65 59 L69 52 L76 50 L83 52 L88 58 L88 65 L93 71 L97 77 L102 83 L107 89 L114 86 L122 86 L125 79 L126 72 L132 68 L139 71 L141 78 L136 84 L133 91 L138 96 L142 103 L144 111 L143 118 L149 122 L156 125 L163 129 L169 124 L176 123 L184 123 L191 127 L196 132 L199 139 L199 147 L197 154 L192 160 L186 164 L178 165 L171 164 L164 160 L159 154 L157 147 L157 140 L150 136 L144 132 L137 129 L131 134 L124 136 L124 144 L124 152 L127 159 L124 165 L124 173 L124 181 L130 186 L130 193"/></svg>