<svg xmlns="http://www.w3.org/2000/svg" width="265.49" height="276.262"><path style="stroke:#9f53ac;stroke-width:3px;fill:none;" d="M72 228 L72 228 L72 220 L72 213 L72 205 L72 198 L72 190 L72 183 L72 175 L72 167 L72 160 L66 156 L62 149 L62 142 L65 135 L70 129 L69 122 L68 115 L66 107 L66 100 L65 92 L63 85 L56 81 L52 76 L50 69 L50 61 L54 55 L61 51 L68 50 L75 52 L81 57 L84 63 L84 71 L81 78 L75 83 L77 90 L78 98 L79 105 L80 113 L87 116 L81 120 L82 128 L89 131 L94 137 L101 136 L109 136 L116 135 L118 128 L121 121 L127 117 L135 115 L142 116 L149 119 L154 125 L156 132 L164 132 L171 131 L178 131 L186 130 L186 123 L193 122 L193 130 L201 129 L208 126 L215 130 L215 138 L210 143 L202 141 L195 142 L187 142 L179 143 L172 144 L164 144 L157 145 L154 152 L149 157 L142 160 L134 161 L127 159 L121 154 L117 147 L109 148 L102 149 L94 149 L91 156 L84 160 L84 167 L84 175 L84 183 L84 190 L85 198 L84 205 L84 213 L84 220 L90 226 L90 233"/></svg>