<svg xmlns="http://www.w3.org/2000/svg" width="227.98" height="239.887"><path style="stroke:#93441f;stroke-width:3px;fill:none;" d="M111 192 L111 192 L110 184 L110 176 L110 169 L110 161 L110 154 L111 146 L110 139 L104 135 L99 130 L96 123 L88 122 L81 121 L73 121 L68 125 L60 126 L53 123 L50 116 L50 109 L55 103 L62 100 L70 103 L74 108 L82 109 L89 110 L97 110 L101 104 L107 99 L106 92 L104 85 L103 77 L101 70 L96 64 L96 57 L101 51 L108 50 L114 53 L116 61 L114 68 L115 75 L116 82 L118 90 L119 97 L126 99 L132 104 L136 110 L138 118 L136 125 L143 130 L149 134 L155 139 L161 143 L169 143 L175 147 L177 154 L175 161 L169 165 L162 165 L156 160 L154 153 L148 149 L142 144 L136 140 L129 135 L123 139 L123 146 L123 154 L122 161 L122 169 L123 176 L123 184 L128 189 L123 195"/></svg>