<svg xmlns="http://www.w3.org/2000/svg" width="205.44" height="248.35"><path style="stroke:#6ce0c5;stroke-width:3px;fill:none;" d="M120 198 L120 198 L127 198 L127 190 L127 183 L127 175 L122 170 L120 163 L122 156 L127 150 L127 143 L127 135 L127 128 L121 124 L117 118 L115 110 L108 107 L101 104 L94 102 L87 99 L80 96 L74 100 L66 102 L59 100 L53 95 L50 89 L50 81 L52 74 L58 69 L65 66 L72 67 L79 71 L83 77 L85 85 L92 87 L99 90 L106 93 L113 96 L120 99 L126 94 L125 87 L125 79 L118 75 L115 68 L115 61 L119 54 L125 50 L133 50 L140 53 L144 59 L145 66 L143 73 L137 78 L137 86 L138 93 L145 97 L150 103 L152 110 L150 118 L146 124 L139 128 L139 135 L140 143 L140 150 L147 151 L153 156 L155 163 L153 170 L147 175 L139 175 L139 183 L139 190 L139 198 L146 198"/></svg>