<svg xmlns="http://www.w3.org/2000/svg" width="268.701" height="298.49"><path style="stroke:#e0c16c;stroke-width:3px;fill:none;" d="M42 157 L42 157 L50 157 L57 157 L65 157 L72 157 L80 157 L87 157 L93 152 L92 144 L93 136 L93 129 L92 121 L93 114 L93 106 L93 99 L87 93 L86 86 L89 79 L95 75 L103 75 L109 79 L112 86 L110 93 L105 99 L105 106 L105 114 L112 118 L105 121 L105 129 L105 136 L105 144 L112 142 L117 148 L112 154 L105 152 L110 157 L118 157 L123 152 L123 144 L123 136 L123 129 L123 121 L123 114 L116 113 L112 107 L116 100 L123 100 L123 92 L123 85 L117 80 L110 82 L103 85 L96 89 L89 86 L87 79 L92 73 L99 73 L106 71 L114 69 L116 62 L122 56 L129 55 L136 56 L142 62 L149 60 L157 59 L164 57 L172 56 L177 50 L185 50 L191 54 L192 61 L189 68 L181 70 L175 67 L167 69 L159 70 L152 72 L145 74 L141 80 L135 85 L136 92 L135 100 L139 107 L135 114 L136 121 L135 129 L136 136 L135 144 L136 152 L146 162 L154 162 L161 162 L169 162 L176 162 L184 162 L191 162 L199 162 L207 162 L214 162 L218 168 L214 175 L206 175 L199 175 L192 175 L184 175 L176 175 L169 175 L161 175 L153 175 L146 175 L141 180 L141 188 L141 195 L141 203 L141 210 L141 218 L141 225 L140 233 L141 240 L141 248 L141 256"/></svg>