<svg xmlns="http://www.w3.org/2000/svg" width="201.94" height="251.302"><path style="stroke:#5387ac;stroke-width:3px;fill:none;" d="M125 203 L125 203 L125 195 L125 188 L125 180 L119 176 L115 169 L116 162 L119 155 L125 150 L125 143 L125 135 L125 128 L118 124 L114 118 L113 110 L106 107 L99 104 L92 102 L85 99 L78 96 L72 100 L64 101 L57 98 L52 93 L50 86 L51 78 L55 72 L62 69 L69 68 L76 71 L81 77 L83 85 L90 87 L97 90 L104 93 L111 96 L117 99 L124 94 L123 87 L122 79 L116 75 L113 68 L113 61 L116 54 L123 50 L130 50 L137 53 L142 59 L143 66 L140 73 L135 78 L135 86 L136 93 L143 97 L147 103 L149 110 L148 118 L144 124 L137 128 L137 135 L137 143 L137 150 L144 153 L150 158 L151 165 L150 173 L144 178 L137 180 L137 188 L137 195 L142 201 L142 208"/></svg>