<svg xmlns="http://www.w3.org/2000/svg" width="276.87" height="222.16"><path style="stroke:#91931f;stroke-width:3px;fill:none;" d="M82 147 L82 147 L90 147 L97 147 L105 147 L113 147 L120 147 L125 141 L126 134 L126 126 L125 119 L125 111 L119 107 L112 110 L105 114 L98 117 L94 123 L86 123 L85 131 L91 136 L96 141 L102 146 L108 151 L115 152 L120 158 L120 165 L115 171 L107 172 L101 167 L100 160 L94 155 L88 150 L82 145 L77 140 L70 142 L62 140 L57 135 L53 129 L53 121 L56 114 L62 109 L61 102 L61 94 L60 87 L60 79 L53 75 L50 69 L50 61 L53 54 L60 50 L67 50 L74 53 L79 59 L80 66 L77 73 L72 78 L72 86 L73 93 L74 101 L74 108 L81 112 L80 105 L88 101 L93 106 L100 103 L107 99 L114 96 L114 89 L118 82 L124 77 L131 76 L139 77 L145 82 L152 79 L159 76 L166 73 L170 67 L177 64 L184 66 L191 63 L198 61 L205 58 L209 51 L217 50 L223 53 L226 60 L224 67 L217 71 L210 69 L203 72 L196 75 L188 78 L185 84 L178 87 L171 85 L164 88 L156 90 L149 93 L148 101 L144 107 L138 111 L137 119 L138 126 L138 134 L138 141 L143 147 L151 147 L158 147 L166 147 L173 147 L181 147 L188 147 L196 147 L204 147 L211 147 L219 147 L226 147 L234 147"/></svg>