<svg xmlns="http://www.w3.org/2000/svg" width="228.19" height="234.835"><path style="stroke:#a6ac53;stroke-width:3px;fill:none;" d="M110 187 L110 187 L110 179 L110 172 L111 164 L111 156 L110 149 L111 141 L110 134 L104 130 L99 125 L96 118 L88 117 L81 116 L73 116 L68 121 L60 121 L53 118 L50 111 L50 104 L55 98 L63 96 L70 98 L74 103 L82 104 L89 105 L97 105 L101 99 L97 93 L93 86 L90 80 L85 73 L78 71 L74 64 L75 57 L79 51 L87 50 L94 53 L98 59 L96 67 L100 73 L104 80 L108 86 L111 93 L119 92 L126 95 L132 99 L136 105 L138 113 L137 120 L143 125 L149 129 L155 134 L161 138 L169 138 L175 142 L178 149 L175 156 L169 160 L162 160 L156 155 L154 148 L148 144 L142 139 L135 135 L129 130 L123 134 L123 141 L123 149 L123 156 L123 164 L123 172 L123 179 L128 184 L123 190"/></svg>