<svg xmlns="http://www.w3.org/2000/svg" width="278.81" height="199.8"><path style="stroke:#ae2dd2;stroke-width:3px;fill:none;" d="M77 129 L77 129 L84 129 L92 129 L99 129 L107 129 L114 129 L120 123 L120 116 L120 108 L120 101 L120 93 L113 90 L106 94 L100 98 L94 102 L90 109 L83 110 L82 118 L89 122 L95 126 L101 130 L108 135 L114 139 L114 146 L106 149 L100 145 L94 140 L88 136 L82 132 L76 128 L69 130 L61 130 L55 126 L50 120 L50 112 L51 105 L57 100 L55 92 L53 85 L52 77 L50 70 L51 63 L58 61 L62 67 L64 75 L66 82 L67 90 L69 97 L76 100 L75 92 L81 88 L87 92 L94 88 L100 84 L106 79 L105 72 L108 65 L112 59 L118 55 L125 53 L133 55 L140 59 L144 65 L152 64 L159 62 L166 61 L172 56 L179 55 L186 58 L193 57 L200 56 L208 55 L214 50 L221 50 L227 54 L228 62 L224 68 L217 70 L210 67 L202 68 L195 69 L187 70 L182 76 L175 77 L168 73 L161 74 L153 76 L146 77 L143 84 L139 90 L132 93 L132 101 L132 108 L132 116 L132 123 L137 129 L145 129 L152 129 L160 129 L167 129 L175 129 L182 129 L190 129 L198 129 L205 129 L213 129 L220 129 L228 129"/></svg>