<svg xmlns="http://www.w3.org/2000/svg" width="276.02" height="287.131"><path style="stroke:#652d86;stroke-width:3px;fill:none;" d="M53 242 L53 242 L59 237 L64 231 L64 224 L64 216 L64 208 L64 201 L64 193 L57 190 L52 184 L50 177 L50 170 L52 162 L57 157 L64 153 L64 146 L64 138 L64 131 L64 123 L64 116 L64 108 L64 100 L58 97 L64 93 L59 87 L59 79 L64 73 L59 68 L57 61 L60 54 L66 50 L74 50 L80 54 L83 61 L82 68 L76 73 L81 79 L81 87 L76 93 L76 100 L76 108 L76 116 L76 123 L76 131 L76 138 L76 146 L76 153 L83 157 L88 162 L91 170 L90 177 L88 184 L83 190 L76 193 L76 201 L76 208 L76 216 L76 224 L76 231 L82 236 L89 236 L97 236 L104 236 L112 236 L119 236 L127 236 L134 236 L142 236 L149 236 L157 236 L162 231 L162 224 L162 216 L162 208 L162 201 L158 195 L158 187 L162 181 L162 174 L162 166 L162 159 L156 154 L153 148 L153 140 L157 133 L163 129 L162 121 L163 114 L162 106 L156 102 L162 99 L163 91 L162 84 L162 76 L160 69 L165 63 L173 63 L177 69 L175 76 L174 84 L175 91 L174 99 L175 106 L175 114 L175 121 L175 129 L181 133 L184 140 L184 148 L181 154 L175 159 L175 166 L175 174 L175 181 L182 184 L185 191 L182 198 L174 201 L174 208 L175 216 L174 224 L175 231 L180 237 L188 237 L195 237 L203 237 L210 237 L218 237 L226 237 L233 237"/></svg>