<svg xmlns="http://www.w3.org/2000/svg" width="275.417" height="216.25"><path style="stroke:#c5af87;stroke-width:3px;fill:none;" d="M81 144 L81 144 L89 144 L96 144 L104 144 L112 144 L119 144 L124 139 L124 132 L124 124 L124 116 L124 109 L118 105 L111 108 L104 112 L97 115 L93 121 L86 121 L84 129 L91 133 L97 138 L103 142 L109 147 L116 148 L120 155 L119 162 L112 166 L104 163 L101 157 L95 152 L89 148 L83 143 L77 138 L70 141 L62 141 L56 137 L51 131 L50 124 L51 116 L55 110 L61 106 L61 99 L61 91 L61 83 L56 78 L56 70 L60 64 L67 61 L75 64 L79 70 L78 78 L73 83 L73 91 L73 99 L74 106 L80 110 L79 103 L87 99 L92 104 L99 101 L106 97 L113 94 L113 86 L117 80 L123 75 L131 74 L138 75 L144 80 L151 77 L158 74 L165 71 L170 66 L178 66 L185 63 L192 61 L199 58 L203 51 L210 50 L217 53 L220 60 L217 67 L211 71 L204 69 L196 72 L190 75 L183 78 L182 85 L175 88 L169 83 L163 86 L155 88 L148 91 L147 99 L143 105 L137 109 L136 116 L137 124 L136 132 L136 139 L142 144 L149 144 L157 144 L165 144 L172 144 L180 144 L187 144 L195 144 L202 144 L210 144 L217 144 L225 144 L232 144"/></svg>