<svg xmlns="http://www.w3.org/2000/svg" width="240.51" height="267.92"><path style="stroke:#67931f;stroke-width:3px;fill:none;" d="M112 217 L112 217 L119 217 L119 210 L119 202 L119 195 L119 187 L119 180 L119 172 L119 165 L113 161 L108 155 L104 148 L105 141 L107 134 L100 136 L101 128 L96 123 L91 117 L83 118 L77 114 L74 107 L74 100 L69 94 L64 89 L56 88 L51 83 L50 75 L53 69 L60 65 L67 67 L72 73 L73 80 L78 86 L83 91 L88 85 L95 83 L102 85 L107 90 L109 97 L106 104 L100 109 L105 114 L110 120 L116 125 L123 123 L124 116 L126 108 L127 101 L121 96 L128 93 L130 86 L131 78 L132 71 L134 64 L135 56 L139 50 L146 51 L147 58 L146 66 L144 73 L143 81 L151 82 L149 89 L142 88 L140 96 L139 103 L137 110 L136 118 L135 125 L141 130 L145 136 L147 144 L145 151 L150 145 L157 144 L164 149 L165 156 L161 163 L167 167 L174 171 L179 176 L186 180 L190 186 L186 193 L179 190 L172 186 L166 181 L160 177 L154 172 L147 173 L140 168 L138 161 L132 165 L132 172 L131 180 L132 187 L132 195 L131 202 L132 210 L131 217 L138 217"/></svg>