<svg xmlns="http://www.w3.org/2000/svg" width="273.21" height="186.08"><path style="stroke:#404abf;stroke-width:3px;fill:none;" d="M111 136 L111 136 L118 136 L118 128 L111 125 L106 120 L102 114 L100 106 L93 105 L85 104 L77 103 L70 102 L64 106 L56 105 L51 100 L50 92 L53 86 L60 82 L67 84 L72 90 L79 91 L87 92 L94 93 L102 94 L106 88 L112 83 L119 80 L118 72 L119 65 L116 58 L121 52 L128 52 L133 58 L131 65 L131 72 L131 80 L138 83 L143 88 L150 85 L157 81 L159 74 L164 69 L172 67 L179 70 L186 67 L193 64 L199 60 L202 53 L209 50 L217 51 L222 56 L223 63 L219 70 L212 73 L205 71 L198 74 L191 78 L185 81 L185 89 L182 95 L175 99 L168 97 L162 92 L155 95 L149 99 L150 106 L148 114 L143 120 L138 125 L131 128 L131 136 L138 136"/></svg>