<svg xmlns="http://www.w3.org/2000/svg" width="244.37" height="298.818"><path style="stroke:#87bac5;stroke-width:3px;fill:none;" d="M88 248 L88 248 L95 248 L103 248 L108 243 L108 235 L108 228 L108 220 L108 213 L108 205 L108 198 L108 190 L101 188 L94 184 L89 179 L85 172 L82 165 L81 158 L82 150 L75 147 L68 144 L61 147 L53 144 L50 138 L50 130 L55 125 L62 123 L69 126 L73 133 L80 136 L87 139 L92 133 L98 129 L104 126 L112 124 L113 117 L106 113 L100 116 L93 120 L86 124 L83 131 L77 133 L69 131 L66 124 L67 117 L73 112 L81 113 L87 109 L94 106 L100 102 L100 94 L103 87 L107 81 L104 74 L101 68 L95 63 L95 55 L100 50 L107 50 L112 55 L112 62 L115 69 L119 76 L126 77 L133 80 L139 85 L142 92 L149 92 L157 92 L164 92 L172 92 L178 88 L185 87 L191 92 L194 99 L191 106 L185 110 L177 110 L172 105 L164 104 L157 104 L149 104 L142 104 L138 111 L132 116 L125 118 L124 126 L131 129 L137 133 L143 129 L149 124 L152 117 L159 114 L166 115 L170 121 L169 129 L164 134 L156 134 L150 139 L144 143 L146 150 L148 158 L146 165 L144 172 L140 179 L134 184 L128 188 L120 190 L121 198 L121 205 L120 213 L120 220 L121 228 L121 235 L121 243 L126 248 L134 248 L141 248"/></svg>