<svg xmlns="http://www.w3.org/2000/svg" width="273.57" height="220.37"><path style="stroke:#3a7862;stroke-width:3px;fill:none;" d="M79 147 L79 147 L87 147 L94 147 L102 147 L109 147 L117 147 L122 141 L122 134 L122 126 L122 119 L122 111 L116 107 L109 110 L102 114 L95 117 L90 123 L83 123 L82 131 L88 136 L93 141 L99 146 L104 151 L112 153 L115 160 L113 167 L106 170 L99 167 L96 160 L91 155 L85 150 L79 145 L74 140 L66 142 L59 140 L53 135 L50 129 L50 121 L53 114 L59 109 L58 102 L57 94 L57 87 L56 79 L51 74 L50 66 L54 60 L61 57 L68 59 L73 65 L73 72 L69 78 L69 86 L70 93 L70 101 L71 108 L78 112 L77 105 L84 101 L90 106 L97 103 L103 99 L110 96 L111 89 L115 82 L121 77 L128 76 L136 77 L142 82 L149 79 L156 76 L163 73 L167 67 L173 64 L181 66 L188 63 L195 61 L202 58 L206 51 L213 50 L220 53 L223 60 L220 67 L214 71 L206 69 L199 72 L192 75 L185 78 L182 84 L174 87 L168 85 L161 88 L153 90 L146 93 L145 101 L141 107 L135 111 L134 119 L134 126 L134 134 L134 141 L140 147 L147 147 L155 147 L162 147 L170 147 L177 147 L185 147 L193 147 L200 147 L208 147 L215 147 L223 147 L231 147"/></svg>