<svg xmlns="http://www.w3.org/2000/svg" width="215.935" height="261.273"><path style="stroke:#3a6578;stroke-width:3px;fill:none;" d="M59 211 L59 211 L67 211 L74 211 L80 205 L80 198 L79 190 L79 183 L79 175 L79 168 L80 160 L79 152 L80 145 L79 137 L75 131 L75 124 L79 118 L79 110 L74 115 L67 117 L59 116 L53 111 L50 104 L50 97 L53 90 L59 85 L67 84 L74 86 L79 91 L79 83 L79 76 L79 68 L75 62 L76 55 L82 50 L89 50 L95 55 L96 62 L92 68 L92 76 L92 83 L92 91 L97 97 L96 104 L91 110 L91 118 L97 124 L97 131 L91 137 L92 145 L92 152 L92 160 L91 168 L92 175 L92 183 L92 190 L92 198 L92 205 L97 211 L105 211 L112 211 L118 205 L118 198 L117 190 L118 183 L118 175 L112 170 L110 163 L111 156 L116 150 L123 148 L131 150 L136 156 L138 163 L135 170 L130 175 L130 183 L130 190 L130 198 L130 205 L135 211 L143 211 L150 211 L158 211 L165 211 L173 211"/></svg>