<svg xmlns="http://www.w3.org/2000/svg" width="231.29" height="234.485"><path style="stroke:#2d5f86;stroke-width:3px;fill:none;" d="M104 189 L104 189 L109 184 L114 179 L115 171 L114 163 L114 156 L114 148 L114 141 L108 137 L102 132 L99 125 L92 125 L84 125 L77 125 L72 131 L64 133 L57 132 L52 126 L50 119 L51 112 L57 107 L64 105 L72 107 L76 113 L84 113 L92 113 L99 113 L102 106 L108 101 L105 94 L103 87 L100 80 L98 72 L91 69 L88 62 L90 54 L96 50 L104 50 L110 54 L112 61 L109 68 L112 75 L114 83 L117 90 L120 97 L127 98 L133 101 L139 106 L142 113 L143 121 L141 128 L147 133 L153 137 L159 142 L165 147 L172 147 L179 151 L181 158 L178 165 L172 170 L164 169 L159 164 L157 156 L151 152 L145 147 L139 142 L134 137 L127 141 L127 148 L127 156 L127 163 L127 171 L127 179 L132 184 L140 184 L147 184"/></svg>