<svg xmlns="http://www.w3.org/2000/svg" width="226.57" height="240.072"><path style="stroke:#40bf4c;stroke-width:3px;fill:none;" d="M110 192 L110 192 L111 184 L111 177 L111 169 L111 162 L111 154 L111 146 L111 139 L104 136 L99 131 L95 124 L87 125 L80 125 L72 126 L67 131 L59 132 L53 128 L50 122 L51 114 L57 109 L65 109 L71 114 L79 113 L86 112 L94 112 L96 105 L101 99 L107 95 L106 87 L105 80 L104 72 L98 67 L96 60 L99 53 L106 50 L114 51 L119 56 L120 64 L115 70 L117 78 L118 85 L119 93 L127 95 L133 99 L137 105 L140 112 L140 119 L138 127 L144 132 L149 137 L155 142 L161 147 L168 147 L174 151 L176 159 L173 166 L167 170 L159 169 L154 163 L153 156 L147 151 L141 146 L136 141 L130 136 L123 139 L123 146 L123 154 L123 162 L123 169 L123 177 L123 184 L128 190 L123 195"/></svg>