<svg xmlns="http://www.w3.org/2000/svg" width="226.49" height="220.04"><path style="stroke:#2d4986;stroke-width:3px;fill:none;" d="M110 156 L110 156 L110 148 L110 141 L103 137 L97 132 L94 125 L87 125 L79 125 L72 125 L66 130 L58 131 L52 126 L50 119 L52 112 L58 108 L66 108 L71 113 L79 113 L87 113 L94 113 L97 106 L103 101 L100 94 L98 87 L95 80 L93 72 L86 69 L84 62 L85 54 L91 50 L99 50 L105 54 L107 61 L104 68 L107 75 L110 83 L112 90 L114 97 L122 98 L129 101 L134 106 L137 113 L138 121 L137 128 L142 133 L149 137 L154 142 L160 147 L168 147 L174 151 L176 158 L174 165 L167 170 L159 169 L154 164 L152 156 L147 152 L141 147 L135 142 L128 145 L129 137 L122 141 L122 148 L127 154 L135 154 L143 154 L150 154"/></svg>