<svg xmlns="http://www.w3.org/2000/svg" width="225.71" height="239.998"><path style="stroke:#783a57;stroke-width:3px;fill:none;" d="M108 192 L108 192 L108 184 L108 176 L108 169 L108 161 L108 154 L108 146 L108 139 L101 135 L96 130 L93 123 L86 122 L78 121 L73 127 L66 129 L58 128 L53 123 L50 116 L50 109 L55 103 L61 99 L69 99 L75 103 L79 109 L87 110 L95 110 L98 104 L105 99 L103 92 L102 85 L100 77 L94 73 L90 67 L91 59 L95 53 L102 50 L109 50 L116 55 L118 62 L117 69 L113 75 L114 82 L115 90 L116 97 L124 99 L130 104 L134 110 L135 118 L134 125 L140 130 L146 134 L153 131 L152 139 L159 143 L166 143 L173 147 L175 154 L173 161 L167 165 L159 165 L153 160 L152 153 L145 149 L139 144 L133 140 L127 135 L120 139 L120 146 L121 154 L121 161 L120 169 L120 176 L120 184 L126 189 L120 195"/></svg>