<svg xmlns="http://www.w3.org/2000/svg" width="225.45" height="240.503"><path style="stroke:#61783a;stroke-width:3px;fill:none;" d="M110 192 L110 192 L110 185 L110 177 L110 170 L110 162 L110 155 L107 148 L110 141 L103 137 L98 132 L94 125 L87 125 L79 125 L72 125 L66 130 L58 131 L52 126 L50 119 L52 112 L58 108 L66 108 L71 113 L79 113 L87 113 L94 113 L97 106 L103 101 L100 94 L98 87 L95 80 L93 72 L87 69 L84 62 L86 54 L91 50 L99 50 L105 54 L107 61 L104 68 L107 75 L110 83 L112 90 L114 97 L122 98 L129 101 L134 106 L137 113 L138 121 L137 128 L144 130 L147 137 L153 141 L159 146 L167 146 L173 150 L175 158 L173 165 L166 169 L158 168 L153 163 L151 156 L145 151 L140 146 L132 144 L129 137 L122 141 L125 148 L122 155 L122 162 L122 170 L122 177 L122 185 L127 190 L128 198"/></svg>