<svg xmlns="http://www.w3.org/2000/svg" width="287.984" height="282.15"><path style="stroke:#6ce0de;stroke-width:3px;fill:none;" d="M68 234 L68 234 L68 226 L69 219 L69 211 L69 204 L68 196 L68 189 L68 181 L69 173 L62 177 L55 176 L50 170 L50 163 L55 157 L62 156 L69 160 L62 156 L69 152 L69 144 L68 137 L68 129 L65 122 L69 116 L68 108 L68 100 L69 93 L69 85 L63 80 L60 73 L62 66 L67 60 L75 58 L82 60 L87 66 L89 73 L87 80 L81 85 L81 93 L87 97 L81 100 L81 108 L81 116 L84 122 L81 129 L81 137 L81 144 L81 152 L81 160 L84 166 L81 173 L81 181 L81 189 L81 196 L87 200 L81 204 L81 211 L81 219 L81 226 L86 232 L94 232 L101 232 L109 232 L116 232 L124 232 L132 232 L139 232 L146 232 L154 232 L162 232 L169 232 L175 226 L175 219 L174 211 L175 204 L175 196 L175 189 L167 186 L162 181 L160 174 L162 166 L167 161 L175 159 L175 151 L169 146 L167 139 L169 131 L175 126 L175 119 L175 111 L174 104 L174 96 L175 89 L175 81 L175 73 L169 68 L168 61 L170 54 L177 50 L185 50 L191 54 L194 61 L192 68 L187 73 L187 81 L187 89 L187 96 L187 104 L187 111 L194 111 L195 119 L187 119 L187 126 L193 131 L195 139 L192 146 L187 151 L187 159 L193 163 L197 170 L196 177 L193 184 L187 189 L187 196 L187 204 L187 211 L187 219 L187 226 L192 232 L200 232 L207 232 L215 232 L222 232 L230 232 L237 232 L245 232"/></svg>