<svg xmlns="http://www.w3.org/2000/svg" width="268.211" height="296.703"><path style="stroke:#682d86;stroke-width:3px;fill:none;" d="M46 252 L46 252 L51 246 L56 241 L56 233 L56 226 L57 218 L56 211 L56 203 L56 195 L56 188 L51 182 L51 174 L57 168 L56 161 L50 157 L56 153 L57 146 L56 138 L57 131 L56 123 L56 116 L52 110 L51 102 L56 96 L56 89 L56 81 L57 73 L51 68 L50 61 L53 54 L58 50 L66 50 L73 54 L76 61 L74 68 L69 73 L68 81 L69 89 L69 96 L73 102 L73 110 L69 116 L68 123 L69 131 L68 138 L69 146 L68 153 L69 161 L68 168 L73 174 L73 182 L69 188 L68 195 L69 203 L75 207 L69 211 L69 218 L69 226 L68 233 L69 241 L74 246 L81 246 L89 246 L96 246 L104 246 L112 246 L119 246 L127 246 L134 246 L142 246 L147 241 L147 233 L148 226 L148 218 L147 211 L147 203 L147 195 L140 193 L136 187 L136 179 L140 173 L147 171 L148 163 L147 156 L147 148 L147 140 L147 133 L144 126 L147 119 L147 112 L147 104 L147 96 L147 89 L147 81 L143 75 L144 68 L150 63 L157 63 L163 68 L164 75 L159 81 L159 89 L160 96 L160 104 L160 112 L160 119 L162 126 L160 133 L160 140 L160 148 L159 156 L160 163 L160 171 L165 176 L167 183 L165 190 L160 195 L159 203 L159 211 L160 218 L160 226 L160 233 L159 241 L165 246 L172 246 L180 246 L187 246 L195 246 L203 246 L210 246 L218 246 L225 246"/></svg>