<svg xmlns="http://www.w3.org/2000/svg" width="180.93" height="248.35"><path style="stroke:#c5b287;stroke-width:3px;fill:none;" d="M96 198 L96 198 L103 198 L103 190 L103 183 L103 175 L97 170 L95 163 L97 156 L103 150 L102 143 L103 135 L103 128 L96 124 L92 118 L91 110 L84 107 L77 104 L70 102 L63 99 L55 99 L50 94 L50 87 L54 81 L62 82 L67 87 L74 90 L81 93 L88 96 L95 99 L101 94 L101 87 L100 79 L94 75 L90 68 L90 61 L94 54 L100 50 L108 50 L115 53 L119 59 L121 66 L118 73 L112 78 L113 86 L113 93 L121 97 L125 103 L127 110 L126 118 L122 124 L115 128 L115 135 L115 143 L115 150 L122 151 L129 156 L130 163 L128 170 L122 175 L115 175 L115 183 L115 190 L115 198 L122 198"/></svg>