<svg xmlns="http://www.w3.org/2000/svg" width="270.877" height="276.628"><path style="stroke:#d22dac;stroke-width:3px;fill:none;" d="M46 226 L46 226 L53 226 L61 226 L66 221 L66 213 L66 206 L66 198 L66 190 L66 183 L60 180 L54 175 L51 168 L50 160 L51 153 L54 146 L60 141 L66 138 L66 130 L66 123 L66 115 L66 108 L66 100 L66 93 L66 85 L60 81 L57 74 L57 67 L59 60 L65 55 L73 53 L80 55 L86 60 L89 67 L89 74 L85 81 L79 85 L78 93 L78 100 L79 108 L79 115 L79 123 L78 130 L78 138 L86 136 L94 136 L101 139 L107 143 L111 149 L114 157 L113 164 L111 171 L107 178 L100 182 L94 185 L86 185 L79 183 L79 190 L79 198 L79 206 L79 213 L79 221 L84 226 L92 226 L99 226 L107 226 L114 226 L122 226 L129 226 L137 226 L145 226 L152 226 L158 221 L157 213 L158 206 L158 198 L151 195 L145 190 L141 184 L138 177 L138 169 L141 162 L144 156 L150 151 L157 148 L157 141 L153 135 L153 127 L157 121 L157 114 L158 106 L158 98 L157 91 L157 83 L157 76 L157 68 L153 62 L154 55 L160 50 L168 50 L173 55 L174 62 L170 68 L170 76 L169 83 L169 91 L170 98 L170 106 L170 114 L176 117 L170 121 L174 127 L175 135 L169 141 L170 148 L177 150 L183 153 L189 159 L192 166 L193 173 L192 181 L189 187 L183 193 L177 196 L170 198 L170 206 L170 213 L170 221 L175 226 L183 226 L190 226 L198 226 L205 226 L213 226 L220 226 L228 226"/></svg>