<svg xmlns="http://www.w3.org/2000/svg" width="223.94" height="261.696"><path style="stroke:#c5b487;stroke-width:3px;fill:none;" d="M107 213 L107 213 L107 206 L107 198 L107 191 L107 183 L107 176 L107 168 L107 160 L100 157 L95 152 L92 145 L84 145 L77 145 L72 151 L65 153 L57 151 L52 146 L50 139 L52 132 L57 126 L65 125 L72 127 L77 133 L84 133 L92 133 L95 126 L100 121 L98 114 L95 106 L93 99 L90 92 L83 91 L76 88 L71 82 L68 75 L68 67 L71 60 L76 54 L82 51 L90 50 L97 51 L104 55 L108 61 L111 68 L110 76 L107 83 L102 88 L104 95 L107 102 L109 109 L112 117 L120 117 L126 121 L131 126 L135 133 L136 140 L134 148 L140 152 L146 157 L151 162 L157 167 L165 166 L171 171 L173 178 L171 185 L165 189 L157 189 L151 184 L150 176 L144 171 L138 167 L132 162 L126 157 L120 160 L120 168 L120 176 L120 183 L119 191 L120 198 L120 206 L125 211 L120 217"/></svg>