<svg
	xmlns="http://www.w3.org/2000/svg"
	width="242.13"
	height="276.369">
<g><style type="text/css" >
<!-- create color definitions -->
<![CDATA[
circle.red {stroke: rgb(255, 0, 255); fill: none; }
circle.green {stroke: rgb(0, 255, 0); fill: none; }
circle.blue {stroke: rgb(0, 0, 255); fill: none; }
circle.black {stroke: rgb(0, 0, 0); fill: none; }
circle.gray {stroke: rgb(204, 204, 204); fill: none; }
circle.brown {stroke: rgb(211.65, 104.55, 30.6); fill: none; }
line.red {stroke: rgb(255, 0, 255); stroke-width: 0.380985; }
line.green {stroke: rgb(0, 255, 0); stroke-width: 0.380985; }
line.blue {stroke: rgb(0, 0, 255); stroke-width: 0.380985; }
line.black {stroke: rgb(0, 0, 0); stroke-width: 0.380985; }
line.gray {stroke: rgb(204, 204, 204); stroke-width: 0.380985; }
line.brown {stroke: rgb(211.65, 104.55, 30.6); stroke-width: 0.380985; }
line {stroke: rgb(0, 0, 0); }
text.red {fill: rgb(255, 0, 255); font-size: 3.047876px; font-weight: bold; font-family: Helvetica; }
text.green {fill: rgb(0, 255, 0); font-size: 3.047876px; font-weight: bold; font-family: Helvetica; }
text.blue {fill: rgb(0, 0, 255); font-size: 3.047876px; font-weight: bold; font-family: Helvetica; }
text.black {fill: rgb(0, 0, 0); font-size: 3.047876px; font-weight: bold; font-family: Helvetica; }
text.gray {fill: rgb(204, 204, 204); font-size: 3.047876px; font-weight: bold; font-family: Helvetica; }
text.brown {fill: rgb(211.65, 104.55, 30.6); font-size: 3.047876px; font-weight: bold; font-family: Helvetica; }
text {fill: rgb(0, 0, 0); font-size: 3.047876px; font-weight: bold; font-family: Helvetica; text-anchor: middle; alignment-baseline: middle; }

.pseudoknot_connection{stroke-linecap: round; stroke-opacity: 0.2; stroke-width: 1.5; }
.pseudoknot_segment1{stroke-linecap: round; stroke-opacity: 0.4; stroke-width: 3.04788; }
.pseudoknot_segment2{stroke-linecap: round; stroke-opacity: 0.4; stroke-width: 3.04788; }
line.numbering-line{stroke: rgb(204, 204, 204); stroke-width: 0.190492; }
line.predicted{stroke: rgb(0, 0, 0); stroke-dasharray: 2; }
polyline{fill: none; stroke-linejoin: round; }
template{visibility: hidden; }
text.numbering-label{fill: rgb(204, 204, 204); }
]]>
</style></g>
<g><title>0 (position.label in template: 0.5')</title><text x="74.996" y="226.272" class="green" >5'</text></g>
<g><title>1 (position.label in template: 1.C)</title><text x="82.545" y="226.272" class="black" >C</text></g>
<g><title>2 (position.label in template: 2.G)</title><text x="90.094" y="226.272" class="black" >G</text></g>
<g><title>3 (position.label in template: 3.A)</title><text x="95.63" y="221.14" class="green" >A</text></g>
<g><line x1="97.6619" y1="220.835" x2="105.628" y2="220.835" class="black" /></g>
<g><title>4 (position.label in template: 4.A)</title><text x="95.63" y="213.58" class="green" >A</text></g>
<g><line x1="97.6619" y1="213.275" x2="105.628" y2="213.275" class="black" /></g>
<g><title>5 (position.label in template: 5.U)</title><text x="95.42" y="206.02" class="green" >T</text></g>
<g><line x1="97.4519" y1="205.715" x2="105.838" y2="205.715" class="black" /></g>
<g><title>6 (position.label in template: 6.C)</title><text x="95.42" y="198.46" class="black" >C</text></g>
<g><line x1="97.4519" y1="198.155" x2="105.418" y2="198.155" class="black" /></g>
<g><title>7 (position.label in template: 7.G)</title><text x="87.95" y="196.37" class="black" >G</text></g>
<g><title>8 (position.label in template: 8.A)</title><text x="81.7" y="192.8" class="black" >A</text></g>
<g><title>9 (position.label in template: 9.G)</title><text x="75.53" y="187.9" class="black" >G</text></g>
<g><title>10 (position.label in template: 10.G)</title><text x="70.94" y="181.89" class="black" >G</text></g>
<g><text x="65.0354" y="185.378" class="numbering-label sequential" >10</text></g>
<g><line x1="69.3654" y1="182.82" x2="66.8641" y2="184.297" class="numbering-line sequential" /></g>
<g><title>11 (position.label in template: 11.C)</title><text x="67.94" y="175.05" class="black" >C</text></g>
<g><title>12 (position.label in template: 12.A)</title><text x="66.45" y="167.68" class="black" >A</text></g>
<g><title>13 (position.label in template: 13.G)</title><text x="65.93" y="160.12" class="black" >G</text></g>
<g><title>14 (position.label in template: 14.G)</title><text x="67.43" y="152.71" class="black" >G</text></g>
<g><line x1="68.3949" y1="150.617" x2="72.3251" y2="143.333" class="black" /></g>
<g><title>15 (position.label in template: 15.U)</title><text x="60.27" y="154.39" class="green" >T</text></g>
<g><title>16 (position.label in template: 16.G)</title><text x="53.18" y="151.26" class="black" >G</text></g>
<g><title>17 (position.label in template: 17.A)</title><text x="50" y="144.61" class="black" >A</text></g>
<g><title>18 (position.label in template: 18.A)</title><text x="51.16" y="137.14" class="black" >A</text></g>
<g><title>19 (position.label in template: 19.A)</title><text x="56.61" y="131.9" class="black" >A</text></g>
<g><title>20 (position.label in template: 20.U)</title><text x="63.91" y="131.01" class="green" >T</text></g>
<g><text x="65.3426" y="124.304" class="numbering-label sequential" >20</text></g>
<g><line x1="64.292" y1="129.222" x2="65.017" y2="125.828" class="numbering-line sequential" /></g>
<g><title>21 (position.label in template: 21.C)</title><text x="70.42" y="134.85" class="black" >C</text></g>
<g><title>22 (position.label in template: 22.C)</title><text x="73.29" y="141.85" class="black" >C</text></g>
<g><title>23 (position.label in template: 23.C)</title><text x="78.49" y="136.36" class="black" >C</text></g>
<g><title>24 (position.label in template: 24.G)</title><text x="84.52" y="132.1" class="black" >G</text></g>
<g><title>25 (position.label in template: 25.A)</title><text x="91.94" y="129.25" class="black" >A</text></g>
<g><title>26 (position.label in template: 26.C)</title><text x="99.18" y="127.95" class="black" >C</text></g>
<g><title>27 (position.label in template: 27.C)</title><text x="106.74" y="128.25" class="black" >C</text></g>
<g><line x1="108.665" y1="128.595" x2="116.225" y2="131.146" class="black" /></g>
<g><title>28 (position.label in template: 28.G)</title><text x="108.9" y="121.08" class="black" >G</text></g>
<g><line x1="110.833" y1="121.403" x2="118.797" y2="123.988" class="black" /></g>
<g><title>29 (position.label in template: 29.G)</title><text x="103.59" y="115.7" class="black" >G</text></g>
<g><line x1="103.006" y1="113.449" x2="100.674" y2="105.671" class="black" /></g>
<g><title>30 (position.label in template: 30.U)</title><text x="96.59" y="117.99" class="green" >T</text></g>
<g><line x1="96.0063" y1="115.739" x2="93.6737" y2="107.961" class="black" /></g>
<g><text x="98.6672" y="124.526" class="numbering-label sequential" >30</text></g>
<g><line x1="97.1439" y1="119.733" x2="98.1829" y2="123.002" class="numbering-line sequential" /></g>
<g><title>31 (position.label in template: 31.G)</title><text x="89.18" y="120.28" class="black" >G</text></g>
<g><line x1="88.5963" y1="118.029" x2="86.2637" y2="110.251" class="black" /></g>
<g><title>32 (position.label in template: 32.G)</title><text x="81.97" y="122.57" class="black" >G</text></g>
<g><line x1="81.3878" y1="120.318" x2="79.0622" y2="112.542" class="black" /></g>
<g><title>33 (position.label in template: 33.U)</title><text x="75.94" y="126.83" class="green" >T</text></g>
<g><title>34 (position.label in template: 34.C)</title><text x="68.79" y="124.36" class="black" >C</text></g>
<g><title>35 (position.label in template: 35.A)</title><text x="66.71" y="117.16" class="black" >A</text></g>
<g><title>36 (position.label in template: 36.G)</title><text x="70.71" y="111.02" class="black" >G</text></g>
<g><title>37 (position.label in template: 37.C)</title><text x="78.48" y="110.9" class="black" >C</text></g>
<g><title>38 (position.label in template: 38.C)</title><text x="85.68" y="108.61" class="black" >C</text></g>
<g><title>39 (position.label in template: 39.A)</title><text x="93.09" y="106.32" class="green" >A</text></g>
<g><title>40 (position.label in template: 40.C)</title><text x="100.09" y="104.03" class="black" >C</text></g>
<g><title>41 (position.label in template: 41.G)</title><text x="101.12" y="96.58" class="black" >G</text></g>
<g><title>42 (position.label in template: 42.A)</title><text x="105.31" y="90.02" class="black" >A</text></g>
<g><title>43 (position.label in template: 43.A)</title><text x="111.14" y="85.21" class="green" >A</text></g>
<g><line x1="113.122" y1="84.4594" x2="120.898" y2="82.711" class="black" /></g>
<g><title>44 (position.label in template: 44.A)</title><text x="109.51" y="77.83" class="green" >A</text></g>
<g><line x1="111.492" y1="77.0794" x2="119.268" y2="75.331" class="black" /></g>
<g><title>45 (position.label in template: 45.G)</title><text x="107.45" y="70.45" class="black" >G</text></g>
<g><line x1="109.435" y1="69.7126" x2="117.625" y2="67.9279" class="black" /></g>
<g><title>46 (position.label in template: 46.C)</title><text x="102.15" y="65.28" class="black" >C</text></g>
<g><title>47 (position.label in template: 47.A)</title><text x="101.65" y="57.75" class="black" >A</text></g>
<g><title>48 (position.label in template: 48.U)</title><text x="105.89" y="51.64" class="green" >T</text></g>
<g><title>49 (position.label in template: 49.U)</title><text x="113.28" y="50" class="green" >T</text></g>
<g><title>50 (position.label in template: 50.U)</title><text x="119.89" y="53.66" class="green" >T</text></g>
<g><text x="125.171" y="49.2847" class="numbering-label sequential" >50</text></g>
<g><line x1="121.298" y1="52.4933" x2="123.331" y2="50.8087" class="numbering-line sequential" /></g>
<g><title>51 (position.label in template: 51.G)</title><text x="122.22" y="60.79" class="black" >G</text></g>
<g><title>52 (position.label in template: 52.C)</title><text x="119.61" y="67.8" class="black" >C</text></g>
<g><title>53 (position.label in template: 53.U)</title><text x="121.25" y="75.19" class="green" >T</text></g>
<g><title>54 (position.label in template: 54.U)</title><text x="122.88" y="82.57" class="green" >T</text></g>
<g><title>55 (position.label in template: 55.U)</title><text x="130.2" y="84.47" class="green" >T</text></g>
<g><title>56 (position.label in template: 56.G)</title><text x="136.18" y="88.81" class="black" >G</text></g>
<g><title>57 (position.label in template: 57.A)</title><text x="140.87" y="95.05" class="black" >A</text></g>
<g><title>58 (position.label in template: 58.U)</title><text x="142.47" y="102.39" class="green" >T</text></g>
<g><line x1="142.04" y1="104.071" x2="140.32" y2="112.019" class="black" /></g>
<g><title>59 (position.label in template: 59.U)</title><text x="149.83" y="104.11" class="green" >T</text></g>
<g><line x1="149.4" y1="105.791" x2="147.68" y2="113.739" class="black" /></g>
<g><title>60 (position.label in template: 60.U)</title><text x="157.19" y="105.83" class="green" >T</text></g>
<g><line x1="156.76" y1="107.511" x2="155.04" y2="115.459" class="black" /></g>
<g><title>61 (position.label in template: 61.G)</title><text x="164.34" y="107.56" class="black" >G</text></g>
<g><line x1="163.91" y1="109.241" x2="162.19" y2="117.189" class="black" /></g>
<g><title>62 (position.label in template: 62.G)</title><text x="171.71" y="109.28" class="black" >G</text></g>
<g><line x1="171.279" y1="110.961" x2="169.551" y2="118.91" class="black" /></g>
<g><title>63 (position.label in template: 63.U)</title><text x="178.64" y="105.84" class="green" >T</text></g>
<g><title>64 (position.label in template: 64.G)</title><text x="185.88" y="107.16" class="black" >G</text></g>
<g><title>65 (position.label in template: 65.A)</title><text x="191.42" y="112.72" class="black" >A</text></g>
<g><title>66 (position.label in template: 66.A)</title><text x="192.13" y="120.25" class="black" >A</text></g>
<g><title>67 (position.label in template: 67.A)</title><text x="188.15" y="126.68" class="black" >A</text></g>
<g><title>68 (position.label in template: 68.U)</title><text x="180.88" y="129.38" class="green" >T</text></g>
<g><title>69 (position.label in template: 69.U)</title><text x="173.63" y="127.27" class="green" >T</text></g>
<g><title>70 (position.label in template: 70.C)</title><text x="169.12" y="121.2" class="black" >C</text></g>
<g><title>71 (position.label in template: 71.C)</title><text x="161.76" y="119.48" class="black" >C</text></g>
<g><title>72 (position.label in template: 72.A)</title><text x="154.61" y="117.75" class="green" >A</text></g>
<g><title>73 (position.label in template: 73.A)</title><text x="147.25" y="116.03" class="green" >A</text></g>
<g><title>74 (position.label in template: 74.A)</title><text x="139.89" y="114.31" class="green" >A</text></g>
<g><title>75 (position.label in template: 75.A)</title><text x="135.01" y="120.08" class="black" >A</text></g>
<g><title>76 (position.label in template: 76.C)</title><text x="128.2" y="123.77" class="black" >C</text></g>
<g><title>77 (position.label in template: 77.C)</title><text x="120.73" y="124.92" class="black" >C</text></g>
<g><title>78 (position.label in template: 78.G)</title><text x="118.15" y="132.1" class="black" >G</text></g>
<g><title>79 (position.label in template: 79.A)</title><text x="124.81" y="136.36" class="black" >A</text></g>
<g><title>80 (position.label in template: 80.C)</title><text x="129.8" y="141.85" class="black" >C</text></g>
<g><line x1="130.71" y1="143.362" x2="134.33" y2="150.588" class="black" /></g>
<g><title>81 (position.label in template: 81.A)</title><text x="136.72" y="138.36" class="green" >A</text></g>
<g><line x1="137.63" y1="139.872" x2="141.25" y2="147.098" class="black" /></g>
<g><title>82 (position.label in template: 82.G)</title><text x="143.01" y="134.88" class="black" >G</text></g>
<g><line x1="143.974" y1="136.364" x2="147.896" y2="143.646" class="black" /></g>
<g><title>83 (position.label in template: 83.U)</title><text x="146.79" y="128.21" class="green" >T</text></g>
<g><title>84 (position.label in template: 84.A)</title><text x="154.09" y="125.58" class="black" >A</text></g>
<g><title>85 (position.label in template: 85.G)</title><text x="160.72" y="128.3" class="black" >G</text></g>
<g><title>86 (position.label in template: 86.A)</title><text x="164.63" y="135.01" class="black" >A</text></g>
<g><title>87 (position.label in template: 87.G)</title><text x="162.38" y="142.35" class="black" >G</text></g>
<g><title>88 (position.label in template: 88.U)</title><text x="156.37" y="146.64" class="green" >T</text></g>
<g><title>89 (position.label in template: 89.C)</title><text x="148.86" y="145.74" class="black" >C</text></g>
<g><title>90 (position.label in template: 90.U)</title><text x="142.16" y="149.22" class="green" >T</text></g>
<g><title>91 (position.label in template: 91.G)</title><text x="135.24" y="152.71" class="black" >G</text></g>
<g><title>92 (position.label in template: 92.G)</title><text x="136.74" y="160.12" class="black" >G</text></g>
<g><title>93 (position.label in template: 93.A)</title><text x="137.05" y="167.68" class="black" >A</text></g>
<g><title>94 (position.label in template: 94.U)</title><text x="135.15" y="175.05" class="green" >T</text></g>
<g><title>95 (position.label in template: 95.G)</title><text x="131.73" y="181.89" class="black" >G</text></g>
<g><title>96 (position.label in template: 96.G)</title><text x="127.14" y="187.9" class="black" >G</text></g>
<g><title>97 (position.label in template: 97.G)</title><text x="121.38" y="192.8" class="black" >G</text></g>
<g><title>98 (position.label in template: 98.A)</title><text x="115.14" y="196.37" class="black" >A</text></g>
<g><title>99 (position.label in template: 99.G)</title><text x="107.45" y="198.46" class="black" >G</text></g>
<g><title>100 (position.label in template: 100.A)</title><text x="107.87" y="206.02" class="green" >A</text></g>
<g><text x="111.139" y="199.992" class="numbering-label sequential" >100</text></g>
<g><line x1="108.742" y1="204.412" x2="110.313" y2="201.516" class="numbering-line sequential" /></g>
<g><title>101 (position.label in template: 101.A)</title><text x="114.42" y="202.24" class="black" >A</text></g>
<g><title>102 (position.label in template: 102.G)</title><text x="120.55" y="206.02" class="black" >G</text></g>
<g><title>103 (position.label in template: 103.A)</title><text x="120.97" y="213.58" class="black" >A</text></g>
<g><title>104 (position.label in template: 104.A)</title><text x="114.42" y="217.36" class="black" >A</text></g>
<g><title>105 (position.label in template: 105.U)</title><text x="107.66" y="213.58" class="green" >T</text></g>
<g><title>106 (position.label in template: 106.U)</title><text x="107.66" y="221.14" class="green" >T</text></g>
<g><title>107 (position.label in template: 107.A)</title><text x="113.105" y="226.369" class="black" >A</text></g>
<g><title>108 (position.label in template: 108.G)</title><text x="120.654" y="226.369" class="black" >G</text></g>
<g><title>109 (position.label in template: 109.3')</title><text x="128.203" y="226.369" class="green" >3'</text></g>
<g><line x1="77.0279" y1="225.968" x2="80.5131" y2="225.968" class="gray" /></g>
<g><line x1="84.5769" y1="225.968" x2="88.0621" y2="225.968" class="gray" /></g>
<g><line x1="91.5841" y1="224.586" x2="94.1399" y2="222.217" class="gray" /></g>
<g><line x1="95.63" y1="218.803" x2="95.63" y2="215.307" class="gray" /></g>
<g><line x1="95.5736" y1="211.244" x2="95.4764" y2="207.746" class="gray" /></g>
<g><line x1="95.42" y1="203.683" x2="95.42" y2="200.187" class="gray" /></g>
<g><line x1="93.4632" y1="197.608" x2="89.9068" y2="196.613" class="gray" /></g>
<g><line x1="86.1856" y1="195.057" x2="83.4644" y2="193.503" class="gray" /></g>
<g><line x1="80.1088" y1="191.232" x2="77.1212" y2="188.859" class="gray" /></g>
<g><line x1="74.2967" y1="185.98" x2="72.1733" y2="183.2" class="gray" /></g>
<g><line x1="70.1239" y1="179.724" x2="68.7561" y2="176.606" class="gray" /></g>
<g><line x1="67.5374" y1="172.754" x2="66.8526" y2="169.367" class="gray" /></g>
<g><line x1="66.3106" y1="165.348" x2="66.0694" y2="161.842" class="gray" /></g>
<g><line x1="66.3331" y1="157.824" x2="67.0269" y2="154.397" class="gray" /></g>
<g><line x1="65.4518" y1="152.869" x2="62.2482" y2="153.621" class="gray" /></g>
<g><line x1="58.4112" y1="153.265" x2="55.0388" y2="151.776" class="gray" /></g>
<g><line x1="52.3034" y1="149.122" x2="50.8766" y2="146.138" class="gray" /></g>
<g><line x1="50.3118" y1="142.297" x2="50.8482" y2="138.843" class="gray" /></g>
<g><line x1="52.6247" y1="135.427" x2="55.1453" y2="133.003" class="gray" /></g>
<g><line x1="58.627" y1="131.349" x2="61.893" y2="130.951" class="gray" /></g>
<g><line x1="65.6601" y1="131.738" x2="68.6699" y2="133.513" class="gray" /></g>
<g><line x1="71.1908" y1="136.425" x2="72.5192" y2="139.665" class="gray" /></g>
<g><line x1="74.6873" y1="140.07" x2="77.0927" y2="137.53" class="gray" /></g>
<g><line x1="80.1496" y1="134.883" x2="82.8604" y2="132.968" class="gray" /></g>
<g><line x1="86.4168" y1="131.067" x2="90.0432" y2="129.674" class="gray" /></g>
<g><line x1="93.9399" y1="128.586" x2="97.1801" y2="128.004" class="gray" /></g>
<g><line x1="101.21" y1="127.726" x2="104.71" y2="127.865" class="gray" /></g>
<g><line x1="107.326" y1="126" x2="108.314" y2="122.721" class="gray" /></g>
<g><line x1="107.473" y1="119.329" x2="105.017" y2="116.841" class="gray" /></g>
<g><line x1="101.659" y1="116.027" x2="98.5212" y2="117.053" class="gray" /></g>
<g><line x1="94.6487" y1="118.285" x2="91.1213" y2="119.375" class="gray" /></g>
<g><line x1="87.2434" y1="120.59" x2="83.9066" y2="121.65" class="gray" /></g>
<g><line x1="80.3104" y1="123.438" x2="77.5996" y2="125.353" class="gray" /></g>
<g><line x1="74.0195" y1="125.862" x2="70.7105" y2="124.719" class="gray" /></g>
<g><line x1="68.2261" y1="122.103" x2="67.2739" y2="118.807" class="gray" /></g>
<g><line x1="67.8191" y1="115.153" x2="69.6009" y2="112.418" class="gray" /></g>
<g><line x1="72.7417" y1="110.684" x2="76.4483" y2="110.627" class="gray" /></g>
<g><line x1="80.4163" y1="109.979" x2="83.7437" y2="108.921" class="gray" /></g>
<g><line x1="87.6213" y1="107.705" x2="91.1487" y2="106.615" class="gray" /></g>
<g><line x1="95.0212" y1="105.383" x2="98.1588" y2="104.357" class="gray" /></g>
<g><line x1="100.368" y1="101.712" x2="100.842" y2="98.288" class="gray" /></g>
<g><line x1="102.214" y1="94.5628" x2="104.216" y2="91.4276" class="gray" /></g>
<g><line x1="106.877" y1="88.4221" x2="109.573" y2="86.1983" class="gray" /></g>
<g><line x1="110.702" y1="82.9211" x2="109.948" y2="79.5093" class="gray" /></g>
<g><line x1="108.964" y1="75.5681" x2="107.996" y2="72.1023" class="gray" /></g>
<g><line x1="105.995" y1="68.7264" x2="103.605" y2="66.394" class="gray" /></g>
<g><line x1="102.015" y1="62.9478" x2="101.785" y2="59.4727" class="gray" /></g>
<g><line x1="102.808" y1="55.7759" x2="104.732" y2="53.0046" class="gray" /></g>
<g><line x1="107.874" y1="50.895" x2="111.296" y2="50.1354" class="gray" /></g>
<g><line x1="115.058" y1="50.6795" x2="118.112" y2="52.3709" class="gray" /></g>
<g><line x1="120.521" y1="55.2866" x2="121.589" y2="58.5538" class="gray" /></g>
<g><line x1="121.511" y1="62.3894" x2="120.319" y2="65.591" class="gray" /></g>
<g><line x1="120.05" y1="69.4789" x2="120.81" y2="72.9016" class="gray" /></g>
<g><line x1="121.688" y1="76.8693" x2="122.442" y2="80.2811" class="gray" /></g>
<g><line x1="124.847" y1="82.7757" x2="128.233" y2="83.6547" class="gray" /></g>
<g><line x1="131.844" y1="85.3587" x2="134.536" y2="87.3117" class="gray" /></g>
<g><line x1="137.401" y1="90.1295" x2="139.649" y2="93.1209" class="gray" /></g>
<g><line x1="141.303" y1="96.7305" x2="142.037" y2="100.1" class="gray" /></g>
<g><line x1="144.449" y1="102.548" x2="147.851" y2="103.343" class="gray" /></g>
<g><line x1="151.809" y1="104.268" x2="155.211" y2="105.063" class="gray" /></g>
<g><line x1="159.165" y1="106.003" x2="162.365" y2="106.777" class="gray" /></g>
<g><line x1="166.319" y1="107.717" x2="169.731" y2="108.513" class="gray" /></g>
<g><line x1="173.53" y1="108.072" x2="176.82" y2="106.439" class="gray" /></g>
<g><line x1="180.639" y1="105.9" x2="183.881" y2="106.491" class="gray" /></g>
<g><line x1="187.314" y1="108.295" x2="189.986" y2="110.976" class="gray" /></g>
<g><line x1="191.611" y1="114.438" x2="191.939" y2="117.922" class="gray" /></g>
<g><line x1="191.061" y1="121.673" x2="189.219" y2="124.647" class="gray" /></g>
<g><line x1="186.245" y1="127.083" x2="182.785" y2="128.368" class="gray" /></g>
<g><line x1="178.929" y1="128.507" x2="175.581" y2="127.533" class="gray" /></g>
<g><line x1="172.418" y1="125.334" x2="170.332" y2="122.526" class="gray" /></g>
<g><line x1="167.141" y1="120.433" x2="163.739" y2="119.638" class="gray" /></g>
<g><line x1="159.785" y1="118.697" x2="156.585" y2="117.923" class="gray" /></g>
<g><line x1="152.631" y1="116.983" x2="149.229" y2="116.188" class="gray" /></g>
<g><line x1="145.271" y1="115.263" x2="141.869" y2="114.468" class="gray" /></g>
<g><line x1="138.578" y1="115.557" x2="136.322" y2="118.224" class="gray" /></g>
<g><line x1="133.223" y1="120.743" x2="129.987" y2="122.497" class="gray" /></g>
<g><line x1="126.192" y1="123.774" x2="122.738" y2="124.306" class="gray" /></g>
<g><line x1="120.043" y1="126.527" x2="118.837" y2="129.883" class="gray" /></g>
<g><line x1="119.862" y1="132.89" x2="123.098" y2="134.96" class="gray" /></g>
<g><line x1="126.177" y1="137.559" x2="128.433" y2="140.042" class="gray" /></g>
<g><line x1="131.614" y1="140.63" x2="134.906" y2="138.97" class="gray" /></g>
<g><line x1="138.498" y1="137.072" x2="141.232" y2="135.559" class="gray" /></g>
<g><line x1="144.012" y1="132.807" x2="145.788" y2="129.673" class="gray" /></g>
<g><line x1="148.702" y1="127.216" x2="152.178" y2="125.964" class="gray" /></g>
<g><line x1="155.97" y1="126.046" x2="158.84" y2="127.224" class="gray" /></g>
<g><line x1="161.743" y1="129.751" x2="163.607" y2="132.95" class="gray" /></g>
<g><line x1="164.034" y1="136.648" x2="162.976" y2="140.103" class="gray" /></g>
<g><line x1="160.726" y1="143.226" x2="158.024" y2="145.155" class="gray" /></g>
<g><line x1="154.353" y1="146.093" x2="150.877" y2="145.677" class="gray" /></g>
<g><line x1="147.057" y1="146.372" x2="143.963" y2="147.979" class="gray" /></g>
<g><line x1="140.346" y1="149.83" x2="137.054" y2="151.49" class="gray" /></g>
<g><line x1="135.643" y1="154.397" x2="136.337" y2="157.824" class="gray" /></g>
<g><line x1="136.823" y1="161.845" x2="136.967" y2="165.345" class="gray" /></g>
<g><line x1="136.543" y1="169.343" x2="135.657" y2="172.778" class="gray" /></g>
<g><line x1="134.241" y1="176.563" x2="132.639" y2="179.768" class="gray" /></g>
<g><line x1="130.497" y1="183.2" x2="128.373" y2="185.98" class="gray" /></g>
<g><line x1="125.592" y1="188.912" x2="122.928" y2="191.179" class="gray" /></g>
<g><line x1="119.616" y1="193.504" x2="116.904" y2="195.056" class="gray" /></g>
<g><line x1="113.179" y1="196.598" x2="109.411" y2="197.622" class="gray" /></g>
<g><line x1="107.563" y1="200.184" x2="107.757" y2="203.686" class="gray" /></g>
<g><line x1="109.63" y1="204.7" x2="112.66" y2="202.951" class="gray" /></g>
<g><line x1="116.15" y1="203.002" x2="118.82" y2="204.649" class="gray" /></g>
<g><line x1="120.663" y1="207.744" x2="120.857" y2="211.246" class="gray" /></g>
<g><line x1="119.21" y1="214.291" x2="116.18" y2="216.04" class="gray" /></g>
<g><line x1="112.647" y1="216.064" x2="109.433" y2="214.267" class="gray" /></g>
<g><line x1="107.66" y1="215.307" x2="107.66" y2="218.803" class="gray" /></g>
<g><line x1="109.125" y1="222.243" x2="111.639" y2="224.657" class="gray" /></g>
<g><line x1="115.137" y1="226.064" x2="118.622" y2="226.064" class="gray" /></g>
<g><line x1="122.686" y1="226.064" x2="126.171" y2="226.064" class="gray" /></g>
</svg>
