<svg
	xmlns="http://www.w3.org/2000/svg"
	width="239.17"
	height="296.929">
<g><style type="text/css" >
<!-- create color definitions -->
<![CDATA[
circle.red {stroke: rgb(255, 0, 255); fill: none; }
circle.green {stroke: rgb(0, 255, 0); fill: none; }
circle.blue {stroke: rgb(0, 0, 255); fill: none; }
circle.black {stroke: rgb(0, 0, 0); fill: none; }
circle.gray {stroke: rgb(204, 204, 204); fill: none; }
circle.brown {stroke: rgb(211.65, 104.55, 30.6); fill: none; }
line.red {stroke: rgb(255, 0, 255); stroke-width: 0.382267; }
line.green {stroke: rgb(0, 255, 0); stroke-width: 0.382267; }
line.blue {stroke: rgb(0, 0, 255); stroke-width: 0.382267; }
line.black {stroke: rgb(0, 0, 0); stroke-width: 0.382267; }
line.gray {stroke: rgb(204, 204, 204); stroke-width: 0.382267; }
line.brown {stroke: rgb(211.65, 104.55, 30.6); stroke-width: 0.382267; }
line {stroke: rgb(0, 0, 0); }
text.red {fill: rgb(255, 0, 255); font-size: 3.058135px; font-weight: bold; font-family: Helvetica; }
text.green {fill: rgb(0, 255, 0); font-size: 3.058135px; font-weight: bold; font-family: Helvetica; }
text.blue {fill: rgb(0, 0, 255); font-size: 3.058135px; font-weight: bold; font-family: Helvetica; }
text.black {fill: rgb(0, 0, 0); font-size: 3.058135px; font-weight: bold; font-family: Helvetica; }
text.gray {fill: rgb(204, 204, 204); font-size: 3.058135px; font-weight: bold; font-family: Helvetica; }
text.brown {fill: rgb(211.65, 104.55, 30.6); font-size: 3.058135px; font-weight: bold; font-family: Helvetica; }
text {fill: rgb(0, 0, 0); font-size: 3.058135px; font-weight: bold; font-family: Helvetica; text-anchor: middle; alignment-baseline: middle; }

.pseudoknot_connection{stroke-linecap: round; stroke-opacity: 0.2; stroke-width: 1.5; }
.pseudoknot_segment1{stroke-linecap: round; stroke-opacity: 0.4; stroke-width: 3.05814; }
.pseudoknot_segment2{stroke-linecap: round; stroke-opacity: 0.4; stroke-width: 3.05814; }
line.numbering-line{stroke: rgb(204, 204, 204); stroke-width: 0.191133; }
line.predicted{stroke: rgb(0, 0, 0); stroke-dasharray: 2; }
polyline{fill: none; stroke-linejoin: round; }
template{visibility: hidden; }
text.numbering-label{fill: rgb(204, 204, 204); }
]]>
</style></g>
<g><title>0 (position.label in template: 0.5')</title><text x="66.2465" y="246.929" class="green" >5'</text></g>
<g><title>1 (position.label in template: 1.U)</title><text x="73.8175" y="246.929" class="green" >T</text></g>
<g><title>2 (position.label in template: 2.G)</title><text x="81.3885" y="246.929" class="black" >G</text></g>
<g><title>3 (position.label in template: 3.A)</title><text x="88.9595" y="246.929" class="black" >A</text></g>
<g><title>4 (position.label in template: 4.A)</title><text x="96.5305" y="246.929" class="black" >A</text></g>
<g><title>5 (position.label in template: 5.U)</title><text x="104.102" y="246.929" class="green" >T</text></g>
<g><title>6 (position.label in template: 6.C)</title><text x="109.45" y="241.57" class="black" >C</text></g>
<g><line x1="111.489" y1="241.264" x2="119.441" y2="241.264" class="black" /></g>
<g><title>7 (position.label in template: 7.C)</title><text x="109.45" y="234.01" class="black" >C</text></g>
<g><line x1="111.489" y1="233.704" x2="119.441" y2="233.704" class="black" /></g>
<g><title>8 (position.label in template: 8.G)</title><text x="109.24" y="226.45" class="green" >G</text></g>
<g><line x1="111.279" y1="226.144" x2="119.651" y2="226.144" class="black" /></g>
<g><title>9 (position.label in template: 9.C)</title><text x="109.45" y="218.89" class="black" >C</text></g>
<g><line x1="111.489" y1="218.584" x2="119.441" y2="218.584" class="black" /></g>
<g><title>10 (position.label in template: 10.G)</title><text x="109.24" y="211.33" class="black" >G</text></g>
<g><line x1="111.279" y1="211.024" x2="119.651" y2="211.024" class="black" /></g>
<g><text x="102.359" y="211.33" class="numbering-label sequential" >10</text></g>
<g><line x1="107.405" y1="211.33" x2="104.194" y2="211.33" class="numbering-line sequential" /></g>
<g><title>11 (position.label in template: 11.C)</title><text x="109.45" y="203.77" class="black" >C</text></g>
<g><line x1="111.489" y1="203.464" x2="119.441" y2="203.464" class="black" /></g>
<g><title>12 (position.label in template: 12.G)</title><text x="109.24" y="196.21" class="black" >G</text></g>
<g><line x1="111.279" y1="195.904" x2="119.651" y2="195.904" class="black" /></g>
<g><title>13 (position.label in template: 13.G)</title><text x="109.24" y="188.65" class="black" >G</text></g>
<g><line x1="111.279" y1="188.344" x2="119.651" y2="188.344" class="black" /></g>
<g><title>14 (position.label in template: 14.G)</title><text x="102.27" y="185.74" class="black" >G</text></g>
<g><title>15 (position.label in template: 15.A)</title><text x="96.88" y="180.89" class="black" >A</text></g>
<g><title>16 (position.label in template: 16.G)</title><text x="92.36" y="174.54" class="black" >G</text></g>
<g><title>17 (position.label in template: 17.A)</title><text x="90.74" y="167.26" class="black" >A</text></g>
<g><title>18 (position.label in template: 18.G)</title><text x="90.54" y="159.71" class="black" >G</text></g>
<g><title>19 (position.label in template: 19.U)</title><text x="93.19" y="152.55" class="green" >T</text></g>
<g><title>20 (position.label in template: 20.C)</title><text x="97.64" y="146.44" class="black" >C</text></g>
<g><line x1="99.3731" y1="145.06" x2="106.157" y2="140.858" class="black" /></g>
<g><text x="90.7651" y="146.156" class="numbering-label sequential" >20</text></g>
<g><line x1="95.8067" y1="146.364" x2="92.6" y2="146.232" class="numbering-line sequential" /></g>
<g><title>21 (position.label in template: 21.C)</title><text x="93.71" y="139.98" class="black" >C</text></g>
<g><line x1="95.4424" y1="138.599" x2="102.228" y2="134.389" class="black" /></g>
<g><title>22 (position.label in template: 22.C)</title><text x="89.79" y="133.52" class="black" >C</text></g>
<g><line x1="91.5224" y1="132.139" x2="98.3076" y2="127.929" class="black" /></g>
<g><title>23 (position.label in template: 23.G)</title><text x="85.65" y="127.06" class="black" >G</text></g>
<g><line x1="87.4013" y1="125.71" x2="94.5687" y2="121.438" class="black" /></g>
<g><title>24 (position.label in template: 24.G)</title><text x="78.22" y="128.42" class="black" >G</text></g>
<g><title>25 (position.label in template: 25.C)</title><text x="70.9" y="127.69" class="black" >C</text></g>
<g><title>26 (position.label in template: 26.C)</title><text x="63.87" y="124.92" class="black" >C</text></g>
<g><title>27 (position.label in template: 27.G)</title><text x="57.65" y="120.34" class="black" >G</text></g>
<g><title>28 (position.label in template: 28.G)</title><text x="53.13" y="114.28" class="black" >G</text></g>
<g><title>29 (position.label in template: 29.C)</title><text x="50.65" y="107.21" class="black" >C</text></g>
<g><title>30 (position.label in template: 30.C)</title><text x="50" y="99.68" class="black" >C</text></g>
<g><text x="43.1244" y="99.4133" class="numbering-label sequential" >30</text></g>
<g><line x1="48.1665" y1="99.6089" x2="44.9592" y2="99.4844" class="numbering-line sequential" /></g>
<g><title>31 (position.label in template: 31.G)</title><text x="51.23" y="92.26" class="black" >G</text></g>
<g><title>32 (position.label in template: 32.A)</title><text x="55.07" y="85.52" class="black" >A</text></g>
<g><title>33 (position.label in template: 33.A)</title><text x="60.21" y="79.97" class="black" >A</text></g>
<g><title>34 (position.label in template: 34.A)</title><text x="66.67" y="76.05" class="black" >A</text></g>
<g><title>35 (position.label in template: 35.G)</title><text x="73.54" y="74.04" class="black" >G</text></g>
<g><title>36 (position.label in template: 36.G)</title><text x="81.1" y="74.11" class="black" >G</text></g>
<g><title>37 (position.label in template: 37.C)</title><text x="88.56" y="76.26" class="black" >C</text></g>
<g><title>38 (position.label in template: 38.C)</title><text x="94.95" y="80.3" class="black" >C</text></g>
<g><title>39 (position.label in template: 39.G)</title><text x="99.77" y="85.94" class="black" >G</text></g>
<g><title>40 (position.label in template: 40.C)</title><text x="103.27" y="92.75" class="black" >C</text></g>
<g><title>41 (position.label in template: 41.G)</title><text x="104.36" y="100.2" class="black" >G</text></g>
<g><title>42 (position.label in template: 42.C)</title><text x="103.78" y="107.72" class="black" >C</text></g>
<g><title>43 (position.label in template: 43.C)</title><text x="100.96" y="114.73" class="black" >C</text></g>
<g><title>44 (position.label in template: 44.C)</title><text x="96.32" y="120.7" class="black" >C</text></g>
<g><title>45 (position.label in template: 45.G)</title><text x="100.04" y="127.16" class="black" >G</text></g>
<g><title>46 (position.label in template: 46.G)</title><text x="103.96" y="133.62" class="black" >G</text></g>
<g><title>47 (position.label in template: 47.G)</title><text x="107.89" y="140.09" class="black" >G</text></g>
<g><title>48 (position.label in template: 48.C)</title><text x="115.57" y="138.95" class="black" >C</text></g>
<g><title>49 (position.label in template: 49.G)</title><text x="122.84" y="140.09" class="black" >G</text></g>
<g><line x1="124.592" y1="140.827" x2="131.758" y2="145.092" class="black" /></g>
<g><title>50 (position.label in template: 50.C)</title><text x="126.97" y="133.62" class="black" >C</text></g>
<g><line x1="128.702" y1="134.389" x2="135.488" y2="138.599" class="black" /></g>
<g><text x="121.131" y="129.98" class="numbering-label sequential" >50</text></g>
<g><line x1="125.413" y1="132.649" x2="122.966" y2="131.124" class="numbering-line sequential" /></g>
<g><title>51 (position.label in template: 51.C)</title><text x="130.9" y="127.16" class="black" >C</text></g>
<g><line x1="132.632" y1="127.929" x2="139.418" y2="132.139" class="black" /></g>
<g><title>52 (position.label in template: 52.G)</title><text x="134.61" y="120.7" class="black" >G</text></g>
<g><line x1="136.361" y1="121.438" x2="143.529" y2="125.71" class="black" /></g>
<g><title>53 (position.label in template: 53.A)</title><text x="138.95" y="114.24" class="green" >A</text></g>
<g><line x1="140.684" y1="115.007" x2="147.476" y2="119.211" class="black" /></g>
<g><title>54 (position.label in template: 54.A)</title><text x="132.49" y="110.32" class="black" >A</text></g>
<g><title>55 (position.label in template: 55.G)</title><text x="136" y="103.85" class="black" >G</text></g>
<g><title>56 (position.label in template: 56.G)</title><text x="142.46" y="107.78" class="black" >G</text></g>
<g><line x1="144.212" y1="108.517" x2="151.378" y2="112.782" class="black" /></g>
<g><title>57 (position.label in template: 57.A)</title><text x="146.8" y="101.32" class="green" >A</text></g>
<g><line x1="148.534" y1="102.087" x2="155.326" y2="106.291" class="black" /></g>
<g><title>58 (position.label in template: 58.G)</title><text x="150.31" y="94.86" class="black" >G</text></g>
<g><line x1="152.062" y1="95.5968" x2="159.228" y2="99.8615" class="black" /></g>
<g><title>59 (position.label in template: 59.C)</title><text x="148.38" y="87.61" class="black" >C</text></g>
<g><title>60 (position.label in template: 60.A)</title><text x="150.59" y="80.32" class="black" >A</text></g>
<g><title>61 (position.label in template: 61.A)</title><text x="156.13" y="75.18" class="black" >A</text></g>
<g><title>62 (position.label in template: 62.G)</title><text x="163.14" y="73.74" class="green" >G</text></g>
<g><line x1="164.892" y1="74.4768" x2="172.058" y2="78.7415" class="black" /></g>
<g><title>63 (position.label in template: 63.U)</title><text x="167.27" y="67.28" class="green" >T</text></g>
<g><line x1="169.013" y1="68.0314" x2="175.997" y2="72.2669" class="black" /></g>
<g><title>64 (position.label in template: 64.C)</title><text x="166.09" y="59.81" class="black" >C</text></g>
<g><title>65 (position.label in template: 65.C)</title><text x="169.67" y="53.15" class="black" >C</text></g>
<g><title>66 (position.label in template: 66.C)</title><text x="176.54" y="50" class="black" >C</text></g>
<g><title>67 (position.label in template: 67.U)</title><text x="183.92" y="51.66" class="green" >T</text></g>
<g><title>68 (position.label in template: 68.C)</title><text x="188.79" y="57.44" class="black" >C</text></g>
<g><title>69 (position.label in template: 69.C)</title><text x="189.17" y="64.99" class="black" >C</text></g>
<g><title>70 (position.label in template: 70.C)</title><text x="184.91" y="71.24" class="black" >C</text></g>
<g><title>71 (position.label in template: 71.U)</title><text x="177.74" y="73.63" class="green" >T</text></g>
<g><title>72 (position.label in template: 72.U)</title><text x="173.81" y="80.09" class="green" >T</text></g>
<g><title>73 (position.label in template: 73.G)</title><text x="178.46" y="85.88" class="black" >G</text></g>
<g><title>74 (position.label in template: 74.A)</title><text x="179.45" y="93.42" class="black" >A</text></g>
<g><title>75 (position.label in template: 75.A)</title><text x="175.52" y="99.88" class="black" >A</text></g>
<g><title>76 (position.label in template: 76.U)</title><text x="168.36" y="102.85" class="green" >T</text></g>
<g><title>77 (position.label in template: 77.C)</title><text x="160.98" y="101.21" class="black" >C</text></g>
<g><title>78 (position.label in template: 78.U)</title><text x="157.06" y="107.67" class="green" >T</text></g>
<g><title>79 (position.label in template: 79.C)</title><text x="153.13" y="114.13" class="black" >C</text></g>
<g><title>80 (position.label in template: 80.U)</title><text x="149.21" y="120.59" class="green" >T</text></g>
<g><title>81 (position.label in template: 81.C)</title><text x="145.28" y="127.06" class="black" >C</text></g>
<g><title>82 (position.label in template: 82.A)</title><text x="149.12" y="133.69" class="black" >A</text></g>
<g><title>83 (position.label in template: 83.G)</title><text x="141.15" y="133.52" class="black" >G</text></g>
<g><title>84 (position.label in template: 84.G)</title><text x="137.22" y="139.98" class="black" >G</text></g>
<g><title>85 (position.label in template: 85.C)</title><text x="133.51" y="146.44" class="black" >C</text></g>
<g><title>86 (position.label in template: 86.C)</title><text x="137.96" y="152.55" class="black" >C</text></g>
<g><title>87 (position.label in template: 87.C)</title><text x="140.4" y="159.71" class="black" >C</text></g>
<g><title>88 (position.label in template: 88.C)</title><text x="140.61" y="167.26" class="black" >C</text></g>
<g><title>89 (position.label in template: 89.G)</title><text x="138.36" y="174.54" class="black" >G</text></g>
<g><title>90 (position.label in template: 90.U)</title><text x="134.47" y="180.89" class="green" >T</text></g>
<g><title>91 (position.label in template: 91.A)</title><text x="128.88" y="185.74" class="black" >A</text></g>
<g><title>92 (position.label in template: 92.C)</title><text x="121.69" y="188.65" class="black" >C</text></g>
<g><title>93 (position.label in template: 93.C)</title><text x="121.69" y="196.21" class="black" >C</text></g>
<g><title>94 (position.label in template: 94.G)</title><text x="121.48" y="203.77" class="black" >G</text></g>
<g><title>95 (position.label in template: 95.C)</title><text x="121.69" y="211.33" class="black" >C</text></g>
<g><title>96 (position.label in template: 96.G)</title><text x="121.48" y="218.89" class="black" >G</text></g>
<g><title>97 (position.label in template: 97.U)</title><text x="121.69" y="226.45" class="green" >T</text></g>
<g><title>98 (position.label in template: 98.G)</title><text x="121.48" y="234.01" class="black" >G</text></g>
<g><title>99 (position.label in template: 99.G)</title><text x="121.48" y="241.57" class="black" >G</text></g>
<g><title>100 (position.label in template: 100.A)</title><text x="127.032" y="246.718" class="black" >A</text></g>
<g><text x="129.544" y="240.312" class="numbering-label sequential" >100</text></g>
<g><line x1="127.702" y1="245.009" x2="128.945" y2="241.841" class="numbering-line sequential" /></g>
<g><title>101 (position.label in template: 101.U)</title><text x="134.603" y="246.718" class="green" >T</text></g>
<g><title>102 (position.label in template: 102.G)</title><text x="142.174" y="246.718" class="black" >G</text></g>
<g><title>103 (position.label in template: 103.A)</title><text x="149.745" y="246.718" class="black" >A</text></g>
<g><title>104 (position.label in template: 104.G)</title><text x="157.316" y="246.718" class="black" >G</text></g>
<g><title>105 (position.label in template: 105.3')</title><text x="164.887" y="246.718" class="green" >3'</text></g>
<g><line x1="68.2852" y1="246.623" x2="71.7787" y2="246.623" class="gray" /></g>
<g><line x1="75.8562" y1="246.623" x2="79.3497" y2="246.623" class="gray" /></g>
<g><line x1="83.4272" y1="246.623" x2="86.9207" y2="246.623" class="gray" /></g>
<g><line x1="90.9983" y1="246.623" x2="94.4917" y2="246.623" class="gray" /></g>
<g><line x1="98.5693" y1="246.623" x2="102.063" y2="246.623" class="gray" /></g>
<g><line x1="105.542" y1="245.18" x2="108.01" y2="242.707" class="gray" /></g>
<g><line x1="109.45" y1="239.225" x2="109.45" y2="235.743" class="gray" /></g>
<g><line x1="109.393" y1="231.666" x2="109.297" y2="228.182" class="gray" /></g>
<g><line x1="109.297" y1="224.106" x2="109.393" y2="220.622" class="gray" /></g>
<g><line x1="109.393" y1="216.546" x2="109.297" y2="213.062" class="gray" /></g>
<g><line x1="109.297" y1="208.986" x2="109.393" y2="205.502" class="gray" /></g>
<g><line x1="109.393" y1="201.426" x2="109.297" y2="197.942" class="gray" /></g>
<g><line x1="109.24" y1="193.865" x2="109.24" y2="190.383" class="gray" /></g>
<g><line x1="107.359" y1="187.559" x2="104.151" y2="186.22" class="gray" /></g>
<g><line x1="100.754" y1="184.07" x2="98.3955" y2="181.948" class="gray" /></g>
<g><line x1="95.6977" y1="178.923" x2="93.5423" y2="175.895" class="gray" /></g>
<g><line x1="91.9172" y1="172.244" x2="91.1828" y2="168.944" class="gray" /></g>
<g><line x1="90.686" y1="164.916" x2="90.594" y2="161.442" class="gray" /></g>
<g><line x1="91.2477" y1="157.492" x2="92.4823" y2="154.156" class="gray" /></g>
<g><line x1="94.3903" y1="150.596" x2="96.4397" y2="147.782" class="gray" /></g>
<g><line x1="96.5804" y1="144.392" x2="94.7696" y2="141.416" class="gray" /></g>
<g><line x1="92.6524" y1="137.931" x2="90.8476" y2="134.957" class="gray" /></g>
<g><line x1="88.6899" y1="131.498" x2="86.7501" y2="128.471" class="gray" /></g>
<g><line x1="83.6446" y1="127.121" x2="80.2254" y2="127.747" class="gray" /></g>
<g><line x1="76.1913" y1="127.912" x2="72.9287" y2="127.587" class="gray" /></g>
<g><line x1="69.0032" y1="126.637" x2="65.7668" y2="125.362" class="gray" /></g>
<g><line x1="62.2283" y1="123.405" x2="59.2917" y2="121.243" class="gray" /></g>
<g><line x1="56.4311" y1="118.4" x2="54.3489" y2="115.608" class="gray" /></g>
<g><line x1="52.4552" y1="112.05" x2="51.3248" y2="108.828" class="gray" /></g>
<g><line x1="50.4747" y1="104.873" x2="50.1753" y2="101.405" class="gray" /></g>
<g><line x1="50.3334" y1="97.3629" x2="50.8966" y2="93.9655" class="gray" /></g>
<g><line x1="52.2392" y1="90.1828" x2="54.0608" y2="86.9856" class="gray" /></g>
<g><line x1="56.4553" y1="83.7184" x2="58.8247" y2="81.16" class="gray" /></g>
<g><line x1="61.953" y1="78.6065" x2="64.927" y2="76.8018" class="gray" /></g>
<g><line x1="68.6267" y1="75.1717" x2="71.5833" y2="74.3067" class="gray" /></g>
<g><line x1="75.5787" y1="73.7531" x2="79.0613" y2="73.7853" class="gray" /></g>
<g><line x1="83.059" y1="74.3688" x2="86.601" y2="75.3896" class="gray" /></g>
<g><line x1="90.2832" y1="77.0437" x2="93.2268" y2="78.9047" class="gray" /></g>
<g><line x1="96.2745" y1="81.5441" x2="98.4455" y2="84.0843" class="gray" /></g>
<g><line x1="100.702" y1="87.4475" x2="102.338" y2="90.6309" class="gray" /></g>
<g><line x1="103.565" y1="94.4615" x2="104.065" y2="97.8769" class="gray" /></g>
<g><line x1="104.203" y1="101.927" x2="103.937" y2="105.381" class="gray" /></g>
<g><line x1="103.019" y1="109.306" x2="101.721" y2="112.533" class="gray" /></g>
<g><line x1="99.7089" y1="116.034" x2="97.5711" y2="118.784" class="gray" /></g>
<g><line x1="97.3374" y1="122.161" x2="99.0226" y2="125.087" class="gray" /></g>
<g><line x1="101.098" y1="128.597" x2="102.902" y2="131.571" class="gray" /></g>
<g><line x1="105.018" y1="135.057" x2="106.832" y2="138.042" class="gray" /></g>
<g><line x1="109.907" y1="139.485" x2="113.553" y2="138.944" class="gray" /></g>
<g><line x1="117.584" y1="138.96" x2="120.826" y2="139.468" class="gray" /></g>
<g><line x1="123.937" y1="138.066" x2="125.873" y2="135.033" class="gray" /></g>
<g><line x1="128.03" y1="131.572" x2="129.84" y2="128.596" class="gray" /></g>
<g><line x1="131.915" y1="125.086" x2="133.595" y2="122.162" class="gray" /></g>
<g><line x1="135.747" y1="118.702" x2="137.813" y2="115.626" class="gray" /></g>
<g><line x1="137.207" y1="112.877" x2="134.233" y2="111.072" class="gray" /></g>
<g><line x1="133.462" y1="108.222" x2="135.028" y2="105.336" class="gray" /></g>
<g><line x1="137.742" y1="104.604" x2="140.718" y2="106.415" class="gray" /></g>
<g><line x1="143.597" y1="105.782" x2="145.663" y2="102.706" class="gray" /></g>
<g><line x1="147.773" y1="99.2228" x2="149.337" y2="96.3456" class="gray" /></g>
<g><line x1="149.786" y1="92.584" x2="148.904" y2="89.2743" class="gray" /></g>
<g><line x1="148.971" y1="85.3531" x2="149.999" y2="81.9653" class="gray" /></g>
<g><line x1="152.085" y1="78.6275" x2="154.635" y2="76.2608" class="gray" /></g>
<g><line x1="158.127" y1="74.4639" x2="161.143" y2="73.8444" class="gray" /></g>
<g><line x1="164.238" y1="71.7165" x2="166.172" y2="68.6919" class="gray" /></g>
<g><line x1="166.952" y1="64.9604" x2="166.408" y2="61.518" class="gray" /></g>
<g><line x1="167.055" y1="57.7084" x2="168.705" y2="54.6399" class="gray" /></g>
<g><line x1="171.523" y1="51.9945" x2="174.687" y2="50.5439" class="gray" /></g>
<g><line x1="178.529" y1="50.1416" x2="181.931" y2="50.9068" class="gray" /></g>
<g><line x1="185.234" y1="52.9133" x2="187.476" y2="55.5751" class="gray" /></g>
<g><line x1="188.892" y1="59.1704" x2="189.068" y2="62.648" class="gray" /></g>
<g><line x1="188.022" y1="66.3688" x2="186.058" y2="69.2495" class="gray" /></g>
<g><line x1="182.976" y1="71.5789" x2="179.674" y2="72.6795" class="gray" /></g>
<g><line x1="176.68" y1="75.0659" x2="174.87" y2="78.0424" class="gray" /></g>
<g><line x1="175.087" y1="81.3738" x2="177.183" y2="83.9846" class="gray" /></g>
<g><line x1="178.725" y1="87.5956" x2="179.185" y2="91.0928" class="gray" /></g>
<g><line x1="178.39" y1="94.8559" x2="176.58" y2="97.8324" class="gray" /></g>
<g><line x1="173.637" y1="100.355" x2="170.243" y2="101.763" class="gray" /></g>
<g><line x1="166.37" y1="102.102" x2="162.97" y2="101.346" class="gray" /></g>
<g><line x1="159.922" y1="102.647" x2="158.118" y2="105.621" class="gray" /></g>
<g><line x1="156" y1="109.106" x2="154.19" y2="112.082" class="gray" /></g>
<g><line x1="152.072" y1="115.567" x2="150.268" y2="118.541" class="gray" /></g>
<g><line x1="148.152" y1="122.027" x2="146.338" y2="125.012" class="gray" /></g>
<g><line x1="146.302" y1="128.518" x2="148.098" y2="131.62" class="gray" /></g>
<g><line x1="147.082" y1="133.341" x2="143.188" y2="133.258" class="gray" /></g>
<g><line x1="140.09" y1="134.956" x2="138.28" y2="137.932" class="gray" /></g>
<g><line x1="136.205" y1="141.442" x2="134.525" y2="144.366" class="gray" /></g>
<g><line x1="134.71" y1="147.782" x2="136.76" y2="150.596" class="gray" /></g>
<g><line x1="138.618" y1="154.174" x2="139.742" y2="157.474" class="gray" /></g>
<g><line x1="140.457" y1="161.442" x2="140.553" y2="164.916" class="gray" /></g>
<g><line x1="140.008" y1="168.902" x2="138.962" y2="172.286" class="gray" /></g>
<g><line x1="137.295" y1="175.973" x2="135.535" y2="178.846" class="gray" /></g>
<g><line x1="132.93" y1="181.92" x2="130.42" y2="184.098" class="gray" /></g>
<g><line x1="126.99" y1="186.199" x2="123.58" y2="187.579" class="gray" /></g>
<g><line x1="121.69" y1="190.383" x2="121.69" y2="193.865" class="gray" /></g>
<g><line x1="121.633" y1="197.942" x2="121.537" y2="201.426" class="gray" /></g>
<g><line x1="121.537" y1="205.502" x2="121.633" y2="208.986" class="gray" /></g>
<g><line x1="121.633" y1="213.062" x2="121.537" y2="216.546" class="gray" /></g>
<g><line x1="121.537" y1="220.622" x2="121.633" y2="224.106" class="gray" /></g>
<g><line x1="121.633" y1="228.182" x2="121.537" y2="231.666" class="gray" /></g>
<g><line x1="121.48" y1="235.743" x2="121.48" y2="239.225" class="gray" /></g>
<g><line x1="122.975" y1="242.65" x2="125.537" y2="245.026" class="gray" /></g>
<g><line x1="129.071" y1="246.412" x2="132.564" y2="246.412" class="gray" /></g>
<g><line x1="136.642" y1="246.412" x2="140.135" y2="246.412" class="gray" /></g>
<g><line x1="144.213" y1="246.412" x2="147.706" y2="246.412" class="gray" /></g>
<g><line x1="151.784" y1="246.412" x2="155.277" y2="246.412" class="gray" /></g>
<g><line x1="159.355" y1="246.412" x2="162.848" y2="246.412" class="gray" /></g>
</svg>
