<svg
	xmlns="http://www.w3.org/2000/svg"
	width="244.86"
	height="234.23">
<g><style type="text/css" >
<!-- create color definitions -->
<![CDATA[
circle.red {stroke: rgb(255, 0, 255); fill: none; }
circle.green {stroke: rgb(0, 255, 0); fill: none; }
circle.blue {stroke: rgb(0, 0, 255); fill: none; }
circle.black {stroke: rgb(0, 0, 0); fill: none; }
circle.gray {stroke: rgb(204, 204, 204); fill: none; }
circle.brown {stroke: rgb(211.65, 104.55, 30.6); fill: none; }
line.red {stroke: rgb(255, 0, 255); stroke-width: 0.381673; }
line.green {stroke: rgb(0, 255, 0); stroke-width: 0.381673; }
line.blue {stroke: rgb(0, 0, 255); stroke-width: 0.381673; }
line.black {stroke: rgb(0, 0, 0); stroke-width: 0.381673; }
line.gray {stroke: rgb(204, 204, 204); stroke-width: 0.381673; }
line.brown {stroke: rgb(211.65, 104.55, 30.6); stroke-width: 0.381673; }
line {stroke: rgb(0, 0, 0); }
text.red {fill: rgb(255, 0, 255); font-size: 3.053384px; font-weight: bold; font-family: Helvetica; }
text.green {fill: rgb(0, 255, 0); font-size: 3.053384px; font-weight: bold; font-family: Helvetica; }
text.blue {fill: rgb(0, 0, 255); font-size: 3.053384px; font-weight: bold; font-family: Helvetica; }
text.black {fill: rgb(0, 0, 0); font-size: 3.053384px; font-weight: bold; font-family: Helvetica; }
text.gray {fill: rgb(204, 204, 204); font-size: 3.053384px; font-weight: bold; font-family: Helvetica; }
text.brown {fill: rgb(211.65, 104.55, 30.6); font-size: 3.053384px; font-weight: bold; font-family: Helvetica; }
text {fill: rgb(0, 0, 0); font-size: 3.053384px; font-weight: bold; font-family: Helvetica; text-anchor: middle; alignment-baseline: middle; }

.pseudoknot_connection{stroke-linecap: round; stroke-opacity: 0.2; stroke-width: 1.5; }
.pseudoknot_segment1{stroke-linecap: round; stroke-opacity: 0.4; stroke-width: 3.05338; }
.pseudoknot_segment2{stroke-linecap: round; stroke-opacity: 0.4; stroke-width: 3.05338; }
line.numbering-line{stroke: rgb(204, 204, 204); stroke-width: 0.190836; }
line.predicted{stroke: rgb(0, 0, 0); stroke-dasharray: 2; }
polyline{fill: none; stroke-linejoin: round; }
template{visibility: hidden; }
text.numbering-label{fill: rgb(204, 204, 204); }
]]>
</style></g>
<g><title>0 (position.label in template: 0.5')</title><text x="114.33" y="184.23" class="green" >5'</text></g>
<g><title>1 (position.label in template: 1.U)</title><text x="121.33" y="184.23" class="green" >T</text></g>
<g><line x1="123.366" y1="183.925" x2="131.534" y2="183.925" class="black" /></g>
<g><title>2 (position.label in template: 2.G)</title><text x="121.12" y="176.67" class="black" >G</text></g>
<g><line x1="123.156" y1="176.365" x2="131.534" y2="176.365" class="black" /></g>
<g><title>3 (position.label in template: 3.C)</title><text x="121.33" y="169.11" class="black" >C</text></g>
<g><line x1="123.366" y1="168.805" x2="131.324" y2="168.805" class="black" /></g>
<g><title>4 (position.label in template: 4.A)</title><text x="121.53" y="161.55" class="green" >A</text></g>
<g><line x1="123.566" y1="161.245" x2="131.534" y2="161.245" class="black" /></g>
<g><title>5 (position.label in template: 5.U)</title><text x="121.33" y="153.99" class="green" >T</text></g>
<g><line x1="123.366" y1="153.685" x2="131.734" y2="153.685" class="black" /></g>
<g><title>6 (position.label in template: 6.U)</title><text x="121.33" y="146.43" class="green" >T</text></g>
<g><line x1="123.366" y1="146.125" x2="131.734" y2="146.125" class="black" /></g>
<g><title>7 (position.label in template: 7.U)</title><text x="121.33" y="138.87" class="green" >T</text></g>
<g><line x1="123.366" y1="138.565" x2="131.734" y2="138.565" class="black" /></g>
<g><title>8 (position.label in template: 8.G)</title><text x="121.12" y="131.31" class="black" >G</text></g>
<g><line x1="123.156" y1="131.005" x2="131.534" y2="131.005" class="black" /></g>
<g><title>9 (position.label in template: 9.A)</title><text x="114.8" y="127.87" class="black" >A</text></g>
<g><title>10 (position.label in template: 10.A)</title><text x="109.7" y="122.29" class="black" >A</text></g>
<g><text x="103.973" y="126.084" class="numbering-label sequential" >10</text></g>
<g><line x1="108.173" y1="123.302" x2="105.805" y2="124.87" class="numbering-line sequential" /></g>
<g><title>11 (position.label in template: 11.G)</title><text x="106.46" y="115.28" class="black" >G</text></g>
<g><line x1="106.678" y1="112.951" x2="107.552" y2="104.809" class="black" /></g>
<g><title>12 (position.label in template: 12.U)</title><text x="99.14" y="114.6" class="green" >T</text></g>
<g><line x1="99.3559" y1="112.271" x2="100.224" y2="104.129" class="black" /></g>
<g><title>13 (position.label in template: 13.A)</title><text x="91.82" y="113.92" class="green" >A</text></g>
<g><line x1="91.9682" y1="111.584" x2="92.5618" y2="103.455" class="black" /></g>
<g><title>14 (position.label in template: 14.G)</title><text x="83.87" y="113.25" class="black" >G</text></g>
<g><line x1="84.0875" y1="110.921" x2="84.9625" y2="102.779" class="black" /></g>
<g><title>15 (position.label in template: 15.A)</title><text x="76.76" y="112.57" class="black" >A</text></g>
<g><line x1="76.8734" y1="110.232" x2="77.3266" y2="102.107" class="black" /></g>
<g><title>16 (position.label in template: 16.G)</title><text x="70.89" y="117.81" class="black" >G</text></g>
<g><title>17 (position.label in template: 17.A)</title><text x="63.94" y="119.51" class="black" >A</text></g>
<g><title>18 (position.label in template: 18.A)</title><text x="56.75" y="117.19" class="black" >A</text></g>
<g><title>19 (position.label in template: 19.U)</title><text x="51.56" y="111.5" class="green" >T</text></g>
<g><title>20 (position.label in template: 20.G)</title><text x="50" y="104.06" class="black" >G</text></g>
<g><text x="43.1577" y="103.443" class="numbering-label sequential" >20</text></g>
<g><line x1="48.1754" y1="103.895" x2="44.9897" y2="103.608" class="numbering-line sequential" /></g>
<g><title>21 (position.label in template: 21.U)</title><text x="52.87" y="96.98" class="green" >T</text></g>
<g><title>22 (position.label in template: 22.G)</title><text x="58.57" y="92.27" class="black" >G</text></g>
<g><title>23 (position.label in template: 23.C)</title><text x="66.27" y="91.27" class="black" >C</text></g>
<g><title>24 (position.label in template: 24.U)</title><text x="73.22" y="94.25" class="green" >T</text></g>
<g><title>25 (position.label in template: 25.G)</title><text x="77.44" y="100.38" class="black" >G</text></g>
<g><title>26 (position.label in template: 26.C)</title><text x="85.18" y="101.06" class="black" >C</text></g>
<g><title>27 (position.label in template: 27.U)</title><text x="92.71" y="101.73" class="green" >T</text></g>
<g><title>28 (position.label in template: 28.A)</title><text x="100.44" y="102.41" class="green" >A</text></g>
<g><title>29 (position.label in template: 29.C)</title><text x="107.77" y="103.09" class="black" >C</text></g>
<g><title>30 (position.label in template: 30.A)</title><text x="112" y="96.69" class="black" >A</text></g>
<g><text x="106.928" y="92.0563" class="numbering-label sequential" >30</text></g>
<g><line x1="110.647" y1="95.4543" x2="108.76" y2="93.7299" class="numbering-line sequential" /></g>
<g><title>31 (position.label in template: 31.C)</title><text x="117.81" y="92.1" class="black" >C</text></g>
<g><line x1="119.812" y1="91.4258" x2="127.638" y2="89.9836" class="black" /></g>
<g><title>32 (position.label in template: 32.G)</title><text x="116.25" y="84.67" class="black" >G</text></g>
<g><line x1="118.254" y1="84.0064" x2="126.496" y2="82.5329" class="black" /></g>
<g><title>33 (position.label in template: 33.C)</title><text x="115.11" y="77.23" class="black" >C</text></g>
<g><line x1="117.112" y1="76.5561" x2="124.948" y2="75.1133" class="black" /></g>
<g><title>34 (position.label in template: 34.C)</title><text x="113.76" y="69.79" class="black" >C</text></g>
<g><line x1="115.762" y1="69.1161" x2="123.598" y2="67.6733" class="black" /></g>
<g><title>35 (position.label in template: 35.U)</title><text x="112.42" y="62.35" class="green" >T</text></g>
<g><line x1="114.422" y1="61.6758" x2="122.248" y2="60.2336" class="black" /></g>
<g><title>36 (position.label in template: 36.A)</title><text x="110.92" y="54.98" class="black" >A</text></g>
<g><title>37 (position.label in template: 37.U)</title><text x="116.4" y="50" class="green" >T</text></g>
<g><title>38 (position.label in template: 38.C)</title><text x="123.47" y="52.67" class="black" >C</text></g>
<g><title>39 (position.label in template: 39.G)</title><text x="124.25" y="60.17" class="green" >G</text></g>
<g><title>40 (position.label in template: 40.G)</title><text x="125.6" y="67.61" class="black" >G</text></g>
<g><title>41 (position.label in template: 41.G)</title><text x="126.95" y="75.05" class="black" >G</text></g>
<g><title>42 (position.label in template: 42.C)</title><text x="128.5" y="82.48" class="black" >C</text></g>
<g><title>43 (position.label in template: 43.C)</title><text x="133.48" y="76.79" class="black" >C</text></g>
<g><title>44 (position.label in template: 44.A)</title><text x="141.24" y="77.13" class="black" >A</text></g>
<g><title>45 (position.label in template: 45.A)</title><text x="145.68" y="83.25" class="black" >A</text></g>
<g><title>46 (position.label in template: 46.A)</title><text x="143.67" y="90.54" class="black" >A</text></g>
<g><title>47 (position.label in template: 47.A)</title><text x="136.71" y="93.51" class="black" >A</text></g>
<g><title>48 (position.label in template: 48.G)</title><text x="129.64" y="89.92" class="black" >G</text></g>
<g><title>49 (position.label in template: 49.A)</title><text x="137.29" y="92.1" class="black" >A</text></g>
<g><title>50 (position.label in template: 50.A)</title><text x="143.31" y="96.69" class="black" >A</text></g>
<g><text x="148.382" y="92.0563" class="numbering-label sequential" >50</text></g>
<g><line x1="144.663" y1="95.4543" x2="146.711" y2="93.583" class="numbering-line sequential" /></g>
<g><title>51 (position.label in template: 51.A)</title><text x="147.33" y="103.09" class="black" >A</text></g>
<g><title>52 (position.label in template: 52.U)</title><text x="148.65" y="110.49" class="green" >T</text></g>
<g><title>53 (position.label in template: 53.G)</title><text x="147.27" y="117.96" class="black" >G</text></g>
<g><line x1="146.099" y1="119.32" x2="141.471" y2="125.9" class="black" /></g>
<g><title>54 (position.label in template: 54.U)</title><text x="153.61" y="122.4" class="green" >T</text></g>
<g><line x1="152.438" y1="123.759" x2="147.802" y2="130.34" class="black" /></g>
<g><title>55 (position.label in template: 55.G)</title><text x="159.52" y="126.83" class="black" >G</text></g>
<g><line x1="158.348" y1="128.189" x2="153.712" y2="134.77" class="black" /></g>
<g><title>56 (position.label in template: 56.G)</title><text x="165.64" y="131.27" class="black" >G</text></g>
<g><line x1="164.469" y1="132.63" x2="159.841" y2="139.21" class="black" /></g>
<g><title>57 (position.label in template: 57.G)</title><text x="171.76" y="135.7" class="black" >G</text></g>
<g><line x1="170.589" y1="137.06" x2="165.961" y2="143.64" class="black" /></g>
<g><title>58 (position.label in template: 58.A)</title><text x="179.43" y="133.57" class="black" >A</text></g>
<g><title>59 (position.label in template: 59.A)</title><text x="186.82" y="135.15" class="black" >A</text></g>
<g><title>60 (position.label in template: 60.G)</title><text x="192.15" y="140.07" class="black" >G</text></g>
<g><title>61 (position.label in template: 61.G)</title><text x="194.86" y="147.13" class="black" >G</text></g>
<g><title>62 (position.label in template: 62.G)</title><text x="193.88" y="154.62" class="black" >G</text></g>
<g><title>63 (position.label in template: 63.G)</title><text x="189.44" y="160.74" class="black" >G</text></g>
<g><title>64 (position.label in template: 64.C)</title><text x="182.83" y="164.01" class="black" >C</text></g>
<g><title>65 (position.label in template: 65.A)</title><text x="175.49" y="163.63" class="black" >A</text></g>
<g><title>66 (position.label in template: 66.C)</title><text x="168.82" y="159.7" class="black" >C</text></g>
<g><title>67 (position.label in template: 67.A)</title><text x="165.23" y="153.17" class="black" >A</text></g>
<g><title>68 (position.label in template: 68.C)</title><text x="164.79" y="145.61" class="black" >C</text></g>
<g><title>69 (position.label in template: 69.C)</title><text x="158.67" y="141.18" class="black" >C</text></g>
<g><title>70 (position.label in template: 70.C)</title><text x="152.54" y="136.74" class="black" >C</text></g>
<g><title>71 (position.label in template: 71.A)</title><text x="146.63" y="132.31" class="green" >A</text></g>
<g><title>72 (position.label in template: 72.C)</title><text x="140.3" y="127.87" class="black" >C</text></g>
<g><title>73 (position.label in template: 73.C)</title><text x="133.57" y="131.31" class="black" >C</text></g>
<g><title>74 (position.label in template: 74.A)</title><text x="133.77" y="138.87" class="green" >A</text></g>
<g><title>75 (position.label in template: 75.A)</title><text x="133.77" y="146.43" class="green" >A</text></g>
<g><title>76 (position.label in template: 76.A)</title><text x="133.77" y="153.99" class="green" >A</text></g>
<g><title>77 (position.label in template: 77.U)</title><text x="133.57" y="161.55" class="green" >T</text></g>
<g><title>78 (position.label in template: 78.G)</title><text x="133.36" y="169.11" class="black" >G</text></g>
<g><title>79 (position.label in template: 79.C)</title><text x="133.57" y="176.67" class="black" >C</text></g>
<g><title>80 (position.label in template: 80.C)</title><text x="133.57" y="184.23" class="green" >C</text></g>
<g><title>81 (position.label in template: 81.3')</title><text x="140.57" y="184.23" class="green" >3'</text></g>
<g><line x1="116.366" y1="183.925" x2="119.294" y2="183.925" class="gray" /></g>
<g><line x1="121.273" y1="181.89" x2="121.177" y2="178.399" class="gray" /></g>
<g><line x1="121.177" y1="174.33" x2="121.273" y2="170.839" class="gray" /></g>
<g><line x1="121.384" y1="166.77" x2="121.476" y2="163.28" class="gray" /></g>
<g><line x1="121.476" y1="159.21" x2="121.384" y2="155.72" class="gray" /></g>
<g><line x1="121.33" y1="151.649" x2="121.33" y2="148.16" class="gray" /></g>
<g><line x1="121.33" y1="144.089" x2="121.33" y2="140.6" class="gray" /></g>
<g><line x1="121.273" y1="136.53" x2="121.177" y2="133.039" class="gray" /></g>
<g><line x1="119.332" y1="130.032" x2="116.588" y2="128.538" class="gray" /></g>
<g><line x1="113.427" y1="126.062" x2="111.073" y2="123.487" class="gray" /></g>
<g><line x1="108.846" y1="120.137" x2="107.314" y2="116.822" class="gray" /></g>
<g><line x1="104.433" y1="114.786" x2="101.167" y2="114.483" class="gray" /></g>
<g><line x1="97.1131" y1="114.106" x2="93.8469" y2="113.803" class="gray" /></g>
<g><line x1="89.7916" y1="113.444" x2="85.8984" y2="113.116" class="gray" /></g>
<g><line x1="81.8437" y1="112.751" x2="78.7863" y2="112.458" class="gray" /></g>
<g><line x1="75.2414" y1="113.62" x2="72.4086" y2="116.149" class="gray" /></g>
<g><line x1="68.9127" y1="117.988" x2="65.9173" y2="118.721" class="gray" /></g>
<g><line x1="62.0028" y1="118.58" x2="58.6872" y2="117.51" class="gray" /></g>
<g><line x1="55.3782" y1="115.381" x2="52.9318" y2="112.699" class="gray" /></g>
<g><line x1="51.1423" y1="109.202" x2="50.4177" y2="105.747" class="gray" /></g>
<g><line x1="50.7647" y1="101.868" x2="52.1053" y2="98.5611" class="gray" /></g>
<g><line x1="54.4392" y1="95.378" x2="57.0008" y2="93.2613" class="gray" /></g>
<g><line x1="60.5886" y1="91.7025" x2="64.2514" y2="91.2268" class="gray" /></g>
<g><line x1="68.1409" y1="91.7668" x2="71.3491" y2="93.1425" class="gray" /></g>
<g><line x1="74.3743" y1="95.6214" x2="76.2857" y2="98.398" class="gray" /></g>
<g><line x1="79.4678" y1="100.253" x2="83.1522" y2="100.577" class="gray" /></g>
<g><line x1="87.2076" y1="100.935" x2="90.6824" y2="101.244" class="gray" /></g>
<g><line x1="94.7378" y1="101.603" x2="98.4122" y2="101.926" class="gray" /></g>
<g><line x1="102.467" y1="102.293" x2="105.743" y2="102.597" class="gray" /></g>
<g><line x1="108.892" y1="101.086" x2="110.878" y2="98.0829" class="gray" /></g>
<g><line x1="113.597" y1="95.1228" x2="116.213" y2="93.0565" class="gray" /></g>
<g><line x1="117.392" y1="89.8025" x2="116.668" y2="86.3568" class="gray" /></g>
<g><line x1="115.942" y1="82.3526" x2="115.418" y2="78.9368" class="gray" /></g>
<g><line x1="114.747" y1="74.9218" x2="114.123" y2="71.4875" class="gray" /></g>
<g><line x1="113.399" y1="67.4813" x2="112.781" y2="64.048" class="gray" /></g>
<g><line x1="112.014" y1="60.05" x2="111.326" y2="56.6694" class="gray" /></g>
<g><line x1="112.426" y1="53.3056" x2="114.894" y2="51.0637" class="gray" /></g>
<g><line x1="118.304" y1="50.4138" x2="121.566" y2="51.6455" class="gray" /></g>
<g><line x1="123.681" y1="54.3893" x2="124.039" y2="57.84" class="gray" /></g>
<g><line x1="124.613" y1="61.8675" x2="125.237" y2="65.3018" class="gray" /></g>
<g><line x1="125.963" y1="69.3075" x2="126.587" y2="72.7418" class="gray" /></g>
<g><line x1="127.366" y1="76.7374" x2="128.084" y2="80.182" class="gray" /></g>
<g><line x1="129.841" y1="80.6429" x2="132.139" y2="78.0164" class="gray" /></g>
<g><line x1="135.514" y1="76.5738" x2="139.206" y2="76.7356" class="gray" /></g>
<g><line x1="142.435" y1="78.4723" x2="144.485" y2="81.297" class="gray" /></g>
<g><line x1="145.139" y1="84.907" x2="144.211" y2="88.2723" class="gray" /></g>
<g><line x1="141.798" y1="91.0336" x2="138.582" y2="92.4057" class="gray" /></g>
<g><line x1="134.895" y1="92.283" x2="131.455" y2="90.5363" class="gray" /></g>
<g><line x1="131.598" y1="90.1725" x2="135.332" y2="91.2368" class="gray" /></g>
<g><line x1="138.909" y1="93.0289" x2="141.691" y2="95.1504" class="gray" /></g>
<g><line x1="144.393" y1="98.1084" x2="146.247" y2="101.061" class="gray" /></g>
<g><line x1="147.687" y1="104.789" x2="148.293" y2="108.181" class="gray" /></g>
<g><line x1="148.28" y1="112.186" x2="147.64" y2="115.653" class="gray" /></g>
<g><line x1="148.937" y1="118.822" x2="151.943" y2="120.927" class="gray" /></g>
<g><line x1="155.239" y1="123.316" x2="157.891" y2="125.304" class="gray" /></g>
<g><line x1="161.168" y1="127.72" x2="163.992" y2="129.769" class="gray" /></g>
<g><line x1="167.289" y1="132.158" x2="170.111" y2="134.201" class="gray" /></g>
<g><line x1="173.721" y1="134.85" x2="177.469" y2="133.809" class="gray" /></g>
<g><line x1="181.421" y1="133.69" x2="184.829" y2="134.419" class="gray" /></g>
<g><line x1="188.316" y1="136.225" x2="190.654" y2="138.384" class="gray" /></g>
<g><line x1="192.879" y1="141.665" x2="194.131" y2="144.924" class="gray" /></g>
<g><line x1="194.596" y1="148.843" x2="194.144" y2="152.296" class="gray" /></g>
<g><line x1="192.685" y1="155.962" x2="190.635" y2="158.787" class="gray" /></g>
<g><line x1="187.615" y1="161.337" x2="184.655" y2="162.802" class="gray" /></g>
<g><line x1="180.797" y1="163.599" x2="177.523" y2="163.43" class="gray" /></g>
<g><line x1="173.736" y1="162.291" x2="170.574" y2="160.428" class="gray" /></g>
<g><line x1="167.839" y1="157.611" x2="166.211" y2="154.648" class="gray" /></g>
<g><line x1="165.112" y1="150.833" x2="164.908" y2="147.337" class="gray" /></g>
<g><line x1="163.141" y1="144.111" x2="160.319" y2="142.068" class="gray" /></g>
<g><line x1="157.021" y1="139.681" x2="154.189" y2="137.629" class="gray" /></g>
<g><line x1="150.911" y1="135.214" x2="148.259" y2="133.226" class="gray" /></g>
<g><line x1="144.963" y1="130.836" x2="141.967" y2="128.734" class="gray" /></g>
<g><line x1="138.487" y1="128.491" x2="135.383" y2="130.078" class="gray" /></g>
<g><line x1="133.624" y1="133.04" x2="133.716" y2="136.53" class="gray" /></g>
<g><line x1="133.77" y1="140.6" x2="133.77" y2="144.089" class="gray" /></g>
<g><line x1="133.77" y1="148.16" x2="133.77" y2="151.649" class="gray" /></g>
<g><line x1="133.716" y1="155.72" x2="133.624" y2="159.21" class="gray" /></g>
<g><line x1="133.513" y1="163.279" x2="133.417" y2="166.77" class="gray" /></g>
<g><line x1="133.417" y1="170.839" x2="133.513" y2="174.33" class="gray" /></g>
<g><line x1="133.57" y1="178.4" x2="133.57" y2="181.889" class="gray" /></g>
<g><line x1="135.606" y1="183.925" x2="138.534" y2="183.925" class="gray" /></g>
</svg>
