<svg
	xmlns="http://www.w3.org/2000/svg"
	width="228.99"
	height="241.462">
<g><style type="text/css" >
<!-- create color definitions -->
<![CDATA[
circle.red {stroke: rgb(255, 0, 255); fill: none; }
circle.green {stroke: rgb(0, 255, 0); fill: none; }
circle.blue {stroke: rgb(0, 0, 255); fill: none; }
circle.black {stroke: rgb(0, 0, 0); fill: none; }
circle.gray {stroke: rgb(204, 204, 204); fill: none; }
circle.brown {stroke: rgb(211.65, 104.55, 30.6); fill: none; }
line.red {stroke: rgb(255, 0, 255); stroke-width: 0.380671; }
line.green {stroke: rgb(0, 255, 0); stroke-width: 0.380671; }
line.blue {stroke: rgb(0, 0, 255); stroke-width: 0.380671; }
line.black {stroke: rgb(0, 0, 0); stroke-width: 0.380671; }
line.gray {stroke: rgb(204, 204, 204); stroke-width: 0.380671; }
line.brown {stroke: rgb(211.65, 104.55, 30.6); stroke-width: 0.380671; }
line {stroke: rgb(0, 0, 0); }
text.red {fill: rgb(255, 0, 255); font-size: 3.045368px; font-weight: bold; font-family: Helvetica; }
text.green {fill: rgb(0, 255, 0); font-size: 3.045368px; font-weight: bold; font-family: Helvetica; }
text.blue {fill: rgb(0, 0, 255); font-size: 3.045368px; font-weight: bold; font-family: Helvetica; }
text.black {fill: rgb(0, 0, 0); font-size: 3.045368px; font-weight: bold; font-family: Helvetica; }
text.gray {fill: rgb(204, 204, 204); font-size: 3.045368px; font-weight: bold; font-family: Helvetica; }
text.brown {fill: rgb(211.65, 104.55, 30.6); font-size: 3.045368px; font-weight: bold; font-family: Helvetica; }
text {fill: rgb(0, 0, 0); font-size: 3.045368px; font-weight: bold; font-family: Helvetica; text-anchor: middle; alignment-baseline: middle; }

.pseudoknot_connection{stroke-linecap: round; stroke-opacity: 0.2; stroke-width: 1.5; }
.pseudoknot_segment1{stroke-linecap: round; stroke-opacity: 0.4; stroke-width: 3.04537; }
.pseudoknot_segment2{stroke-linecap: round; stroke-opacity: 0.4; stroke-width: 3.04537; }
line.numbering-line{stroke: rgb(204, 204, 204); stroke-width: 0.190336; }
line.predicted{stroke: rgb(0, 0, 0); stroke-dasharray: 2; }
polyline{fill: none; stroke-linejoin: round; }
template{visibility: hidden; }
text.numbering-label{fill: rgb(204, 204, 204); }
]]>
</style></g>
<g><title>0 (position.label in template: 0.5')</title><text x="112.98" y="193.778" class="green" >5'</text></g>
<g><title>1 (position.label in template: 1.G)</title><text x="113.19" y="186.22" class="black" >G</text></g>
<g><line x1="115.22" y1="185.915" x2="123.61" y2="185.915" class="black" /></g>
<g><title>2 (position.label in template: 2.C)</title><text x="113.4" y="178.66" class="black" >C</text></g>
<g><line x1="115.43" y1="178.355" x2="123.4" y2="178.355" class="black" /></g>
<g><title>3 (position.label in template: 3.C)</title><text x="113.4" y="171.1" class="black" >C</text></g>
<g><line x1="115.43" y1="170.795" x2="123.4" y2="170.795" class="black" /></g>
<g><title>4 (position.label in template: 4.C)</title><text x="113.4" y="163.54" class="black" >C</text></g>
<g><line x1="115.43" y1="163.235" x2="123.4" y2="163.235" class="black" /></g>
<g><title>5 (position.label in template: 5.A)</title><text x="113.6" y="155.98" class="green" >A</text></g>
<g><line x1="115.63" y1="155.675" x2="123.61" y2="155.675" class="black" /></g>
<g><title>6 (position.label in template: 6.G)</title><text x="113.19" y="148.42" class="black" >G</text></g>
<g><line x1="115.22" y1="148.115" x2="123.61" y2="148.115" class="black" /></g>
<g><title>7 (position.label in template: 7.A)</title><text x="113.6" y="140.86" class="green" >A</text></g>
<g><line x1="115.63" y1="140.555" x2="123.61" y2="140.555" class="black" /></g>
<g><title>8 (position.label in template: 8.U)</title><text x="106.53" y="137.7" class="green" >T</text></g>
<g><title>9 (position.label in template: 9.G)</title><text x="100.84" y="132.49" class="black" >G</text></g>
<g><title>10 (position.label in template: 10.G)</title><text x="97.33" y="125.8" class="black" >G</text></g>
<g><line x1="97.2587" y1="123.466" x2="96.9713" y2="115.294" class="black" /></g>
<g><text x="93.8893" y="131.726" class="numbering-label sequential" >10</text></g>
<g><line x1="96.4125" y1="127.38" x2="94.7735" y2="130.203" class="numbering-line sequential" /></g>
<g><title>11 (position.label in template: 11.C)</title><text x="89.99" y="126.19" class="black" >C</text></g>
<g><line x1="89.8492" y1="123.86" x2="89.2808" y2="115.681" class="black" /></g>
<g><title>12 (position.label in template: 12.G)</title><text x="82.23" y="126.58" class="black" >G</text></g>
<g><line x1="82.1586" y1="124.246" x2="81.8714" y2="116.084" class="black" /></g>
<g><title>13 (position.label in template: 13.G)</title><text x="78.23" y="133" class="black" >G</text></g>
<g><title>14 (position.label in template: 14.A)</title><text x="72.21" y="136.97" class="black" >A</text></g>
<g><title>15 (position.label in template: 15.A)</title><text x="64.69" y="137.67" class="black" >A</text></g>
<g><title>16 (position.label in template: 16.U)</title><text x="57.43" y="134.95" class="green" >T</text></g>
<g><title>17 (position.label in template: 17.U)</title><text x="52.31" y="129.38" class="green" >T</text></g>
<g><title>18 (position.label in template: 18.G)</title><text x="50" y="122.12" class="black" >G</text></g>
<g><title>19 (position.label in template: 19.G)</title><text x="51.34" y="114.68" class="black" >G</text></g>
<g><title>20 (position.label in template: 20.U)</title><text x="56.06" y="108.61" class="green" >T</text></g>
<g><text x="51.7319" y="103.298" class="numbering-label sequential" >20</text></g>
<g><line x1="54.9058" y1="107.193" x2="52.9725" y2="104.821" class="numbering-line sequential" /></g>
<g><title>21 (position.label in template: 21.A)</title><text x="63" y="105.18" class="black" >A</text></g>
<g><title>22 (position.label in template: 22.G)</title><text x="70.15" y="105.1" class="black" >G</text></g>
<g><title>23 (position.label in template: 23.A)</title><text x="77.37" y="108.39" class="black" >A</text></g>
<g><title>24 (position.label in template: 24.C)</title><text x="81.8" y="114.36" class="black" >C</text></g>
<g><title>25 (position.label in template: 25.G)</title><text x="89.14" y="113.96" class="black" >G</text></g>
<g><title>26 (position.label in template: 26.C)</title><text x="96.9" y="113.57" class="black" >C</text></g>
<g><title>27 (position.label in template: 27.G)</title><text x="99.5" y="106.55" class="black" >G</text></g>
<g><title>28 (position.label in template: 28.C)</title><text x="104.62" y="100.81" class="black" >C</text></g>
<g><line x1="106.458" y1="99.6429" x2="113.692" y2="96.248" class="black" /></g>
<g><title>29 (position.label in template: 29.A)</title><text x="101.66" y="93.94" class="green" >A</text></g>
<g><line x1="103.498" y1="92.7736" x2="110.742" y2="89.3773" class="black" /></g>
<g><title>30 (position.label in template: 30.C)</title><text x="98.3" y="87.07" class="black" >C</text></g>
<g><line x1="100.138" y1="85.9023" x2="107.362" y2="82.5086" class="black" /></g>
<g><text x="92.1491" y="90.0895" class="numbering-label sequential" >30</text></g>
<g><line x1="96.6598" y1="87.8752" x2="93.9763" y2="89.1925" class="numbering-line sequential" /></g>
<g><title>31 (position.label in template: 31.G)</title><text x="94.92" y="80.21" class="black" >G</text></g>
<g><line x1="96.7701" y1="79.0694" x2="104.4" y2="75.6215" class="black" /></g>
<g><title>32 (position.label in template: 32.G)</title><text x="91.76" y="73.34" class="black" >G</text></g>
<g><line x1="93.6101" y1="72.1994" x2="101.24" y2="68.7515" class="black" /></g>
<g><title>33 (position.label in template: 33.U)</title><text x="85.12" y="70.14" class="green" >T</text></g>
<g><title>34 (position.label in template: 34.U)</title><text x="81.6" y="63.46" class="green" >T</text></g>
<g><title>35 (position.label in template: 35.C)</title><text x="82.84" y="56" class="black" >C</text></g>
<g><title>36 (position.label in template: 36.A)</title><text x="88.54" y="50.81" class="black" >A</text></g>
<g><title>37 (position.label in template: 37.G)</title><text x="95.64" y="50" class="black" >G</text></g>
<g><title>38 (position.label in template: 38.G)</title><text x="102.12" y="53.91" class="black" >G</text></g>
<g><title>39 (position.label in template: 39.U)</title><text x="105.12" y="60.94" class="green" >T</text></g>
<g><title>40 (position.label in template: 40.C)</title><text x="103.09" y="68.22" class="black" >C</text></g>
<g><title>41 (position.label in template: 41.C)</title><text x="106.25" y="75.09" class="black" >C</text></g>
<g><title>42 (position.label in template: 42.G)</title><text x="109.2" y="81.95" class="black" >G</text></g>
<g><title>43 (position.label in template: 43.U)</title><text x="112.58" y="88.82" class="green" >T</text></g>
<g><title>44 (position.label in template: 44.G)</title><text x="115.53" y="95.69" class="black" >G</text></g>
<g><title>45 (position.label in template: 45.U)</title><text x="123.3" y="95.69" class="green" >T</text></g>
<g><title>46 (position.label in template: 46.G)</title><text x="130.25" y="98.12" class="green" >G</text></g>
<g><line x1="131.738" y1="99.1968" x2="137.842" y2="104.864" class="black" /></g>
<g><title>47 (position.label in template: 47.C)</title><text x="135.66" y="92.64" class="black" >C</text></g>
<g><line x1="137.116" y1="93.7508" x2="142.874" y2="99.3502" class="black" /></g>
<g><title>48 (position.label in template: 48.C)</title><text x="140.87" y="87.16" class="black" >C</text></g>
<g><line x1="142.325" y1="88.2716" x2="148.075" y2="93.8693" class="black" /></g>
<g><title>49 (position.label in template: 49.G)</title><text x="144.07" y="80.41" class="black" >G</text></g>
<g><title>50 (position.label in template: 50.C)</title><text x="151.73" y="79.12" class="black" >C</text></g>
<g><text x="153.662" y="72.5459" class="numbering-label sequential" >50</text></g>
<g><line x1="152.245" y1="77.3669" x2="153.214" y2="74.0686" class="numbering-line sequential" /></g>
<g><title>51 (position.label in template: 51.A)</title><text x="157.41" y="84.33" class="black" >A</text></g>
<g><title>52 (position.label in template: 52.A)</title><text x="156.51" y="91.83" class="black" >A</text></g>
<g><title>53 (position.label in template: 53.G)</title><text x="149.53" y="95.59" class="black" >G</text></g>
<g><title>54 (position.label in template: 54.G)</title><text x="144.33" y="101.07" class="black" >G</text></g>
<g><title>55 (position.label in template: 55.U)</title><text x="139.33" y="106.55" class="green" >T</text></g>
<g><title>56 (position.label in template: 56.G)</title><text x="141.92" y="113.57" class="black" >G</text></g>
<g><title>57 (position.label in template: 57.U)</title><text x="142.53" y="121.12" class="green" >T</text></g>
<g><title>58 (position.label in template: 58.G)</title><text x="140.25" y="128.4" class="green" >G</text></g>
<g><line x1="138.951" y1="129.656" x2="133.809" y2="135.835" class="black" /></g>
<g><title>59 (position.label in template: 59.G)</title><text x="146" y="133.31" class="black" >G</text></g>
<g><line x1="144.7" y1="134.565" x2="139.55" y2="140.746" class="black" /></g>
<g><title>60 (position.label in template: 60.A)</title><text x="152.16" y="138.23" class="green" >A</text></g>
<g><line x1="150.82" y1="139.451" x2="145.33" y2="145.7" class="black" /></g>
<g><title>61 (position.label in template: 61.G)</title><text x="157.48" y="143.14" class="black" >G</text></g>
<g><line x1="156.181" y1="144.396" x2="151.039" y2="150.575" class="black" /></g>
<g><title>62 (position.label in template: 62.G)</title><text x="163.23" y="148.06" class="black" >G</text></g>
<g><line x1="161.93" y1="149.315" x2="156.78" y2="155.496" class="black" /></g>
<g><title>63 (position.label in template: 63.U)</title><text x="171" y="148.09" class="green" >T</text></g>
<g><title>64 (position.label in template: 64.U)</title><text x="177" y="152.69" class="green" >T</text></g>
<g><title>65 (position.label in template: 65.C)</title><text x="178.99" y="159.99" class="black" >C</text></g>
<g><title>66 (position.label in template: 66.G)</title><text x="175.96" y="167" class="black" >G</text></g>
<g><title>67 (position.label in template: 67.A)</title><text x="169.88" y="170.87" class="black" >A</text></g>
<g><title>68 (position.label in template: 68.G)</title><text x="161.95" y="170.03" class="black" >G</text></g>
<g><title>69 (position.label in template: 69.U)</title><text x="156.69" y="164.82" class="green" >T</text></g>
<g><title>70 (position.label in template: 70.C)</title><text x="155.48" y="157.36" class="black" >C</text></g>
<g><title>71 (position.label in template: 71.C)</title><text x="149.74" y="152.44" class="black" >C</text></g>
<g><title>72 (position.label in template: 72.U)</title><text x="143.99" y="147.53" class="green" >T</text></g>
<g><title>73 (position.label in template: 73.C)</title><text x="138.25" y="142.61" class="black" >C</text></g>
<g><title>74 (position.label in template: 74.U)</title><text x="132.51" y="137.7" class="green" >T</text></g>
<g><title>75 (position.label in template: 75.U)</title><text x="125.64" y="140.86" class="green" >T</text></g>
<g><title>76 (position.label in template: 76.C)</title><text x="125.64" y="148.42" class="black" >C</text></g>
<g><title>77 (position.label in template: 77.U)</title><text x="125.64" y="155.98" class="green" >T</text></g>
<g><title>78 (position.label in template: 78.G)</title><text x="125.43" y="163.54" class="black" >G</text></g>
<g><title>79 (position.label in template: 79.G)</title><text x="125.43" y="171.1" class="black" >G</text></g>
<g><title>80 (position.label in template: 80.G)</title><text x="125.43" y="178.66" class="black" >G</text></g>
<g><title>81 (position.label in template: 81.C)</title><text x="125.64" y="186.22" class="black" >C</text></g>
<g><title>82 (position.label in template: 82.A)</title><text x="131.088" y="191.462" class="black" >A</text></g>
<g><title>83 (position.label in template: 83.3')</title><text x="125.85" y="196.914" class="green" >3'</text></g>
<g><line x1="113.036" y1="191.444" x2="113.134" y2="187.945" class="gray" /></g>
<g><line x1="113.246" y1="183.886" x2="113.344" y2="180.385" class="gray" /></g>
<g><line x1="113.4" y1="176.325" x2="113.4" y2="172.826" class="gray" /></g>
<g><line x1="113.4" y1="168.765" x2="113.4" y2="165.266" class="gray" /></g>
<g><line x1="113.454" y1="161.206" x2="113.546" y2="157.705" class="gray" /></g>
<g><line x1="113.49" y1="153.648" x2="113.3" y2="150.143" class="gray" /></g>
<g><line x1="113.3" y1="146.088" x2="113.49" y2="142.583" class="gray" /></g>
<g><line x1="111.746" y1="139.727" x2="108.384" y2="138.224" class="gray" /></g>
<g><line x1="105.033" y1="136.024" x2="102.337" y2="133.557" class="gray" /></g>
<g><line x1="99.8967" y1="130.388" x2="98.2733" y2="127.293" class="gray" /></g>
<g><line x1="95.3026" y1="125.603" x2="92.0174" y2="125.778" class="gray" /></g>
<g><line x1="87.9623" y1="125.987" x2="84.2577" y2="126.174" class="gray" /></g>
<g><line x1="81.1564" y1="127.999" x2="79.3036" y2="130.972" class="gray" /></g>
<g><line x1="76.5351" y1="133.813" x2="73.9049" y2="135.548" class="gray" /></g>
<g><line x1="70.1885" y1="136.854" x2="66.7115" y2="137.177" class="gray" /></g>
<g><line x1="62.7888" y1="136.653" x2="59.3312" y2="135.358" class="gray" /></g>
<g><line x1="56.056" y1="133.151" x2="53.684" y2="130.57" class="gray" /></g>
<g><line x1="51.6944" y1="127.141" x2="50.6156" y2="123.75" class="gray" /></g>
<g><line x1="50.3599" y1="119.817" x2="50.9801" y2="116.374" class="gray" /></g>
<g><line x1="52.5863" y1="112.773" x2="54.8137" y2="109.908" class="gray" /></g>
<g><line x1="57.8801" y1="107.406" x2="61.1799" y2="105.775" class="gray" /></g>
<g><line x1="65.0301" y1="104.853" x2="68.1199" y2="104.818" class="gray" /></g>
<g><line x1="71.9975" y1="105.637" x2="75.5225" y2="107.244" class="gray" /></g>
<g><line x1="78.5798" y1="109.716" x2="80.5902" y2="112.425" class="gray" /></g>
<g><line x1="83.8272" y1="113.945" x2="87.1128" y2="113.766" class="gray" /></g>
<g><line x1="91.1677" y1="113.554" x2="94.8723" y2="113.367" class="gray" /></g>
<g><line x1="97.6051" y1="111.362" x2="98.7949" y2="108.149" class="gray" /></g>
<g><line x1="100.851" y1="104.73" x2="103.269" y2="102.021" class="gray" /></g>
<g><line x1="103.817" y1="98.6409" x2="102.463" y2="95.5" class="gray" /></g>
<g><line x1="100.768" y1="91.8117" x2="99.192" y2="88.5893" class="gray" /></g>
<g><line x1="97.4027" y1="84.9443" x2="95.8173" y2="81.7266" class="gray" /></g>
<g><line x1="94.0716" y1="78.061" x2="92.6084" y2="74.8799" class="gray" /></g>
<g><line x1="89.9311" y1="72.154" x2="86.9489" y2="70.7169" class="gray" /></g>
<g><line x1="84.1735" y1="68.0393" x2="82.5465" y2="64.9516" class="gray" /></g>
<g><line x1="81.9329" y1="61.1527" x2="82.5071" y2="57.6982" class="gray" /></g>
<g><line x1="84.3412" y1="54.3286" x2="87.0388" y2="51.8723" class="gray" /></g>
<g><line x1="90.5572" y1="50.2753" x2="93.6228" y2="49.9256" class="gray" /></g>
<g><line x1="97.3783" y1="50.7444" x2="100.382" y2="52.5566" class="gray" /></g>
<g><line x1="102.917" y1="55.4728" x2="104.323" y2="58.7681" class="gray" /></g>
<g><line x1="104.575" y1="62.5911" x2="103.635" y2="65.9598" class="gray" /></g>
<g><line x1="103.938" y1="69.7599" x2="105.402" y2="72.941" class="gray" /></g>
<g><line x1="107.052" y1="76.6506" x2="108.398" y2="79.7804" class="gray" /></g>
<g><line x1="110.096" y1="83.4672" x2="111.684" y2="86.6938" class="gray" /></g>
<g><line x1="113.381" y1="90.381" x2="114.729" y2="93.5199" class="gray" /></g>
<g><line x1="117.56" y1="95.3855" x2="121.27" y2="95.3855" class="gray" /></g>
<g><line x1="125.216" y1="96.0555" x2="128.334" y2="97.1454" class="gray" /></g>
<g><line x1="131.676" y1="96.3707" x2="134.234" y2="93.7803" class="gray" /></g>
<g><line x1="137.059" y1="90.8641" x2="139.471" y2="88.3269" class="gray" /></g>
<g><line x1="141.74" y1="85.0209" x2="143.2" y2="81.94" class="gray" /></g>
<g><line x1="146.072" y1="79.7683" x2="149.728" y2="79.1526" class="gray" /></g>
<g><line x1="153.226" y1="80.1878" x2="155.914" y2="82.6531" class="gray" /></g>
<g><line x1="157.168" y1="86.0412" x2="156.752" y2="89.5097" class="gray" /></g>
<g><line x1="154.723" y1="92.4883" x2="151.317" y2="94.3226" class="gray" /></g>
<g><line x1="148.133" y1="96.7582" x2="145.727" y2="99.2927" class="gray" /></g>
<g><line x1="142.962" y1="102.265" x2="140.698" y2="104.746" class="gray" /></g>
<g><line x1="140.033" y1="108.15" x2="141.217" y2="111.361" class="gray" /></g>
<g><line x1="142.084" y1="115.289" x2="142.366" y2="118.792" class="gray" /></g>
<g><line x1="141.923" y1="122.753" x2="140.857" y2="126.158" class="gray" /></g>
<g><line x1="141.794" y1="129.414" x2="144.456" y2="131.687" class="gray" /></g>
<g><line x1="147.586" y1="134.272" x2="150.574" y2="136.658" class="gray" /></g>
<g><line x1="153.652" y1="139.302" x2="155.988" y2="141.459" class="gray" /></g>
<g><line x1="159.023" y1="144.155" x2="161.687" y2="146.436" class="gray" /></g>
<g><line x1="165.26" y1="147.763" x2="168.97" y2="147.778" class="gray" /></g>
<g><line x1="172.611" y1="149.021" x2="175.389" y2="151.15" class="gray" /></g>
<g><line x1="177.534" y1="154.344" x2="178.456" y2="157.727" class="gray" /></g>
<g><line x1="178.184" y1="161.549" x2="176.766" y2="164.832" class="gray" /></g>
<g><line x1="174.247" y1="167.786" x2="171.593" y2="169.475" class="gray" /></g>
<g><line x1="167.861" y1="170.352" x2="163.969" y2="169.939" class="gray" /></g>
<g><line x1="160.508" y1="168.297" x2="158.132" y2="165.944" class="gray" /></g>
<g><line x1="156.365" y1="162.511" x2="155.805" y2="159.06" class="gray" /></g>
<g><line x1="153.939" y1="155.734" x2="151.281" y2="153.457" class="gray" /></g>
<g><line x1="148.196" y1="150.817" x2="145.534" y2="148.544" class="gray" /></g>
<g><line x1="142.449" y1="145.904" x2="139.791" y2="143.627" class="gray" /></g>
<g><line x1="136.707" y1="140.986" x2="134.053" y2="138.715" class="gray" /></g>
<g><line x1="130.666" y1="138.244" x2="127.484" y2="139.707" class="gray" /></g>
<g><line x1="125.64" y1="142.586" x2="125.64" y2="146.085" class="gray" /></g>
<g><line x1="125.64" y1="150.146" x2="125.64" y2="153.645" class="gray" /></g>
<g><line x1="125.584" y1="157.705" x2="125.486" y2="161.206" class="gray" /></g>
<g><line x1="125.43" y1="165.266" x2="125.43" y2="168.765" class="gray" /></g>
<g><line x1="125.43" y1="172.826" x2="125.43" y2="176.325" class="gray" /></g>
<g><line x1="125.486" y1="180.385" x2="125.584" y2="183.886" class="gray" /></g>
<g><line x1="127.103" y1="187.323" x2="129.625" y2="189.75" class="gray" /></g>
<g><line x1="129.682" y1="192.622" x2="127.256" y2="195.145" class="gray" /></g>
</svg>
