<svg
	xmlns="http://www.w3.org/2000/svg"
	width="266.789"
	height="251.596">
<g><style type="text/css" >
<!-- create color definitions -->
<![CDATA[
circle.red {stroke: rgb(255, 0, 255); fill: none; }
circle.green {stroke: rgb(0, 255, 0); fill: none; }
circle.blue {stroke: rgb(0, 0, 255); fill: none; }
circle.black {stroke: rgb(0, 0, 0); fill: none; }
circle.gray {stroke: rgb(204, 204, 204); fill: none; }
circle.brown {stroke: rgb(211.65, 104.55, 30.6); fill: none; }
line.red {stroke: rgb(255, 0, 255); stroke-width: 0.384136; }
line.green {stroke: rgb(0, 255, 0); stroke-width: 0.384136; }
line.blue {stroke: rgb(0, 0, 255); stroke-width: 0.384136; }
line.black {stroke: rgb(0, 0, 0); stroke-width: 0.384136; }
line.gray {stroke: rgb(204, 204, 204); stroke-width: 0.384136; }
line.brown {stroke: rgb(211.65, 104.55, 30.6); stroke-width: 0.384136; }
line {stroke: rgb(0, 0, 0); }
text.red {fill: rgb(255, 0, 255); font-size: 3.073091px; font-weight: bold; font-family: Helvetica; }
text.green {fill: rgb(0, 255, 0); font-size: 3.073091px; font-weight: bold; font-family: Helvetica; }
text.blue {fill: rgb(0, 0, 255); font-size: 3.073091px; font-weight: bold; font-family: Helvetica; }
text.black {fill: rgb(0, 0, 0); font-size: 3.073091px; font-weight: bold; font-family: Helvetica; }
text.gray {fill: rgb(204, 204, 204); font-size: 3.073091px; font-weight: bold; font-family: Helvetica; }
text.brown {fill: rgb(211.65, 104.55, 30.6); font-size: 3.073091px; font-weight: bold; font-family: Helvetica; }
text {fill: rgb(0, 0, 0); font-size: 3.073091px; font-weight: bold; font-family: Helvetica; text-anchor: middle; alignment-baseline: middle; }

.pseudoknot_connection{stroke-linecap: round; stroke-opacity: 0.2; stroke-width: 1.5; }
.pseudoknot_segment1{stroke-linecap: round; stroke-opacity: 0.4; stroke-width: 3.07309; }
.pseudoknot_segment2{stroke-linecap: round; stroke-opacity: 0.4; stroke-width: 3.07309; }
line.numbering-line{stroke: rgb(204, 204, 204); stroke-width: 0.192068; }
line.predicted{stroke: rgb(0, 0, 0); stroke-dasharray: 2; }
polyline{fill: none; stroke-linejoin: round; }
template{visibility: hidden; }
text.numbering-label{fill: rgb(204, 204, 204); }
]]>
</style></g>
<g><title>0 (position.label in template: 0.5')</title><text x="145.86" y="203.808" class="green" >5'</text></g>
<g><title>1 (position.label in template: 1.G)</title><text x="146.07" y="196.25" class="black" >G</text></g>
<g><line x1="148.119" y1="195.943" x2="156.471" y2="195.943" class="black" /></g>
<g><title>2 (position.label in template: 2.U)</title><text x="146.28" y="188.69" class="green" >T</text></g>
<g><line x1="148.329" y1="188.383" x2="156.681" y2="188.383" class="black" /></g>
<g><title>3 (position.label in template: 3.C)</title><text x="146.28" y="181.13" class="black" >C</text></g>
<g><line x1="148.329" y1="180.823" x2="156.261" y2="180.823" class="black" /></g>
<g><title>4 (position.label in template: 4.G)</title><text x="146.07" y="173.57" class="black" >G</text></g>
<g><line x1="148.119" y1="173.263" x2="156.471" y2="173.263" class="black" /></g>
<g><title>5 (position.label in template: 5.G)</title><text x="146.07" y="166.01" class="black" >G</text></g>
<g><line x1="148.119" y1="165.703" x2="156.471" y2="165.703" class="black" /></g>
<g><title>6 (position.label in template: 6.G)</title><text x="146.07" y="158.45" class="black" >G</text></g>
<g><line x1="148.119" y1="158.143" x2="156.471" y2="158.143" class="black" /></g>
<g><title>7 (position.label in template: 7.A)</title><text x="146.49" y="150.89" class="green" >A</text></g>
<g><line x1="148.539" y1="150.583" x2="156.471" y2="150.583" class="black" /></g>
<g><title>8 (position.label in template: 8.G)</title><text x="146.07" y="143.33" class="black" >G</text></g>
<g><line x1="148.119" y1="143.023" x2="156.471" y2="143.023" class="black" /></g>
<g><title>9 (position.label in template: 9.G)</title><text x="146.07" y="135.77" class="black" >G</text></g>
<g><line x1="148.119" y1="135.463" x2="156.471" y2="135.463" class="black" /></g>
<g><title>10 (position.label in template: 10.G)</title><text x="139.4" y="132.21" class="black" >G</text></g>
<g><text x="135.027" y="137.566" class="numbering-label sequential" >10</text></g>
<g><line x1="138.234" y1="133.638" x2="136.282" y2="136.03" class="numbering-line sequential" /></g>
<g><title>11 (position.label in template: 11.C)</title><text x="134.69" y="126.48" class="black" >C</text></g>
<g><title>12 (position.label in template: 12.G)</title><text x="131.97" y="119.35" class="black" >G</text></g>
<g><line x1="132.314" y1="117.023" x2="133.686" y2="108.962" class="black" /></g>
<g><title>13 (position.label in template: 13.G)</title><text x="124.5" y="118.2" class="black" >G</text></g>
<g><line x1="124.844" y1="115.873" x2="126.216" y2="107.812" class="black" /></g>
<g><title>14 (position.label in template: 14.C)</title><text x="117.24" y="117.06" class="black" >C</text></g>
<g><line x1="117.515" y1="114.723" x2="118.605" y2="106.683" class="black" /></g>
<g><title>15 (position.label in template: 15.U)</title><text x="117.59" y="124.61" class="green" >T</text></g>
<g><title>16 (position.label in template: 16.A)</title><text x="115.51" y="131.82" class="black" >A</text></g>
<g><title>17 (position.label in template: 17.A)</title><text x="110.87" y="137.78" class="black" >A</text></g>
<g><title>18 (position.label in template: 18.U)</title><text x="104.24" y="141.77" class="green" >T</text></g>
<g><title>19 (position.label in template: 19.A)</title><text x="97.04" y="143.29" class="black" >A</text></g>
<g><title>20 (position.label in template: 20.C)</title><text x="89.36" y="142.15" class="black" >C</text></g>
<g><text x="87.1247" y="148.693" class="numbering-label sequential" >20</text></g>
<g><line x1="88.7639" y1="143.895" x2="87.6496" y2="147.157" class="numbering-line sequential" /></g>
<g><title>21 (position.label in template: 21.A)</title><text x="82.96" y="138.48" class="black" >A</text></g>
<g><title>22 (position.label in template: 22.A)</title><text x="78.02" y="132.75" class="black" >A</text></g>
<g><title>23 (position.label in template: 23.C)</title><text x="75.17" y="125.67" class="black" >C</text></g>
<g><title>24 (position.label in template: 24.C)</title><text x="75.15" y="118.11" class="black" >C</text></g>
<g><title>25 (position.label in template: 25.C)</title><text x="77.74" y="111.01" class="black" >C</text></g>
<g><line x1="78.0168" y1="108.673" x2="79.1132" y2="100.633" class="black" /></g>
<g><title>26 (position.label in template: 26.C)</title><text x="70.27" y="109.87" class="black" >C</text></g>
<g><line x1="70.5452" y1="107.533" x2="71.6348" y2="99.4929" class="black" /></g>
<g><title>27 (position.label in template: 27.C)</title><text x="62.8" y="108.72" class="black" >C</text></g>
<g><line x1="63.0754" y1="106.383" x2="64.1646" y2="98.3528" class="black" /></g>
<g><title>28 (position.label in template: 28.U)</title><text x="55.31" y="109.78" class="green" >T</text></g>
<g><title>29 (position.label in template: 29.U)</title><text x="50" y="104.4" class="green" >T</text></g>
<g><title>30 (position.label in template: 30.C)</title><text x="51.14" y="96.92" class="black" >C</text></g>
<g><text x="45.4503" y="92.9909" class="numbering-label sequential" >30</text></g>
<g><line x1="49.6228" y1="95.8723" x2="47.2942" y2="94.2642" class="numbering-line sequential" /></g>
<g><title>31 (position.label in template: 31.G)</title><text x="57.61" y="93.38" class="black" >G</text></g>
<g><title>32 (position.label in template: 32.G)</title><text x="64.44" y="96.63" class="black" >G</text></g>
<g><title>33 (position.label in template: 33.G)</title><text x="71.91" y="97.77" class="black" >G</text></g>
<g><title>34 (position.label in template: 34.G)</title><text x="79.39" y="98.91" class="black" >G</text></g>
<g><title>35 (position.label in template: 35.A)</title><text x="84.26" y="92.81" class="black" >A</text></g>
<g><title>36 (position.label in template: 36.A)</title><text x="90.61" y="88.69" class="black" >A</text></g>
<g><title>37 (position.label in template: 37.A)</title><text x="98" y="87.1" class="black" >A</text></g>
<g><title>38 (position.label in template: 38.U)</title><text x="105.26" y="88.25" class="green" >T</text></g>
<g><title>39 (position.label in template: 39.A)</title><text x="112.05" y="91.98" class="black" >A</text></g>
<g><title>40 (position.label in template: 40.C)</title><text x="116.66" y="97.8" class="black" >C</text></g>
<g><title>41 (position.label in template: 41.G)</title><text x="118.88" y="104.96" class="black" >G</text></g>
<g><title>42 (position.label in template: 42.C)</title><text x="126.56" y="106.1" class="black" >C</text></g>
<g><title>43 (position.label in template: 43.C)</title><text x="134.03" y="107.25" class="black" >C</text></g>
<g><title>44 (position.label in template: 44.C)</title><text x="138.56" y="101.19" class="black" >C</text></g>
<g><title>45 (position.label in template: 45.G)</title><text x="144.76" y="97.19" class="green" >G</text></g>
<g><line x1="146.804" y1="96.7462" x2="155.146" y2="96.1892" class="black" /></g>
<g><title>46 (position.label in template: 46.C)</title><text x="144.46" y="89.65" class="black" >C</text></g>
<g><line x1="146.504" y1="89.2013" x2="154.416" y2="88.6541" class="black" /></g>
<g><title>47 (position.label in template: 47.C)</title><text x="143.95" y="82.1" class="black" >C</text></g>
<g><line x1="145.994" y1="81.6513" x2="153.906" y2="81.1041" class="black" /></g>
<g><title>48 (position.label in template: 48.G)</title><text x="143.23" y="74.56" class="black" >G</text></g>
<g><line x1="145.274" y1="74.1161" x2="153.606" y2="73.5593" class="black" /></g>
<g><title>49 (position.label in template: 49.U)</title><text x="137.73" y="69.6" class="green" >T</text></g>
<g><title>50 (position.label in template: 50.C)</title><text x="135.75" y="62.3" class="black" >C</text></g>
<g><text x="128.839" y="62.0945" class="numbering-label sequential" >50</text></g>
<g><line x1="133.907" y1="62.2452" x2="130.682" y2="62.1493" class="numbering-line sequential" /></g>
<g><title>51 (position.label in template: 51.U)</title><text x="138.16" y="55.14" class="green" >T</text></g>
<g><title>52 (position.label in template: 52.A)</title><text x="144.35" y="50.52" class="black" >A</text></g>
<g><title>53 (position.label in template: 53.C)</title><text x="151.69" y="50" class="black" >C</text></g>
<g><title>54 (position.label in template: 54.U)</title><text x="158.25" y="53.77" class="green" >T</text></g>
<g><title>55 (position.label in template: 55.A)</title><text x="161.81" y="60.55" class="black" >A</text></g>
<g><title>56 (position.label in template: 56.G)</title><text x="160.42" y="68.04" class="black" >G</text></g>
<g><title>57 (position.label in template: 57.C)</title><text x="155.65" y="73.73" class="black" >C</text></g>
<g><title>58 (position.label in template: 58.G)</title><text x="155.95" y="81.27" class="black" >G</text></g>
<g><title>59 (position.label in template: 59.G)</title><text x="156.46" y="88.82" class="black" >G</text></g>
<g><title>60 (position.label in template: 60.U)</title><text x="157.19" y="96.36" class="green" >T</text></g>
<g><title>61 (position.label in template: 61.U)</title><text x="164.08" y="99.46" class="green" >T</text></g>
<g><title>62 (position.label in template: 62.U)</title><text x="169.39" y="104.84" class="green" >T</text></g>
<g><title>63 (position.label in template: 63.C)</title><text x="172.37" y="111.79" class="black" >C</text></g>
<g><title>64 (position.label in template: 64.U)</title><text x="172.63" y="119.35" class="green" >T</text></g>
<g><title>65 (position.label in template: 65.A)</title><text x="170.33" y="126.48" class="black" >A</text></g>
<g><title>66 (position.label in template: 66.G)</title><text x="164.99" y="132.21" class="black" >G</text></g>
<g><title>67 (position.label in template: 67.C)</title><text x="158.52" y="135.77" class="black" >C</text></g>
<g><title>68 (position.label in template: 68.C)</title><text x="158.52" y="143.33" class="black" >C</text></g>
<g><title>69 (position.label in template: 69.U)</title><text x="158.52" y="150.89" class="green" >T</text></g>
<g><title>70 (position.label in template: 70.C)</title><text x="158.52" y="158.45" class="black" >C</text></g>
<g><title>71 (position.label in template: 71.C)</title><text x="158.52" y="166.01" class="black" >C</text></g>
<g><title>72 (position.label in template: 72.C)</title><text x="158.52" y="173.57" class="black" >C</text></g>
<g><title>73 (position.label in template: 73.G)</title><text x="158.31" y="181.13" class="black" >G</text></g>
<g><title>74 (position.label in template: 74.A)</title><text x="158.73" y="188.69" class="green" >A</text></g>
<g><title>75 (position.label in template: 75.C)</title><text x="158.52" y="196.25" class="black" >C</text></g>
<g><title>76 (position.label in template: 76.U)</title><text x="163.866" y="201.596" class="green" >T</text></g>
<g><title>77 (position.label in template: 77.U)</title><text x="171.427" y="201.596" class="green" >T</text></g>
<g><title>78 (position.label in template: 78.C)</title><text x="178.987" y="201.596" class="black" >C</text></g>
<g><title>79 (position.label in template: 79.C)</title><text x="186.547" y="201.596" class="black" >C</text></g>
<g><title>80 (position.label in template: 80.C)</title><text x="194.108" y="201.596" class="black" >C</text></g>
<g><title>81 (position.label in template: 81.G)</title><text x="201.668" y="201.596" class="black" >G</text></g>
<g><title>82 (position.label in template: 82.U)</title><text x="209.229" y="201.596" class="green" >T</text></g>
<g><title>83 (position.label in template: 83.C)</title><text x="216.789" y="201.596" class="black" >C</text></g>
<g><title>84 (position.label in template: 84.3')</title><text x="224.35" y="201.596" class="green" >3'</text></g>
<g><line x1="145.917" y1="201.452" x2="146.013" y2="197.991" class="gray" /></g>
<g><line x1="146.127" y1="193.895" x2="146.223" y2="190.431" class="gray" /></g>
<g><line x1="146.28" y1="186.334" x2="146.28" y2="182.871" class="gray" /></g>
<g><line x1="146.223" y1="178.775" x2="146.127" y2="175.311" class="gray" /></g>
<g><line x1="146.07" y1="171.214" x2="146.07" y2="167.751" class="gray" /></g>
<g><line x1="146.07" y1="163.654" x2="146.07" y2="160.191" class="gray" /></g>
<g><line x1="146.184" y1="156.097" x2="146.376" y2="152.628" class="gray" /></g>
<g><line x1="146.376" y1="148.537" x2="146.184" y2="145.068" class="gray" /></g>
<g><line x1="146.07" y1="140.974" x2="146.07" y2="137.511" class="gray" /></g>
<g><line x1="144.263" y1="134.498" x2="141.207" y2="132.867" class="gray" /></g>
<g><line x1="138.099" y1="130.32" x2="135.991" y2="127.755" class="gray" /></g>
<g><line x1="133.96" y1="124.259" x2="132.7" y2="120.957" class="gray" /></g>
<g><line x1="129.945" y1="118.731" x2="126.525" y2="118.204" class="gray" /></g>
<g><line x1="122.476" y1="117.575" x2="119.264" y2="117.07" class="gray" /></g>
<g><line x1="117.335" y1="118.799" x2="117.495" y2="122.256" class="gray" /></g>
<g><line x1="117.022" y1="126.271" x2="116.078" y2="129.544" class="gray" /></g>
<g><line x1="114.251" y1="133.129" x2="112.129" y2="135.856" class="gray" /></g>
<g><line x1="109.115" y1="138.529" x2="105.995" y2="140.406" class="gray" /></g>
<g><line x1="102.235" y1="141.886" x2="99.0445" y2="142.56" class="gray" /></g>
<g><line x1="95.0135" y1="142.682" x2="91.3865" y2="142.144" class="gray" /></g>
<g><line x1="87.5827" y1="140.824" x2="84.7373" y2="139.192" class="gray" /></g>
<g><line x1="81.6223" y1="136.621" x2="79.3577" y2="133.994" class="gray" /></g>
<g><line x1="77.255" y1="130.542" x2="75.935" y2="127.263" class="gray" /></g>
<g><line x1="75.1646" y1="123.314" x2="75.1554" y2="119.851" class="gray" /></g>
<g><line x1="75.8521" y1="115.878" x2="77.0379" y2="112.627" class="gray" /></g>
<g><line x1="75.7147" y1="110.394" x2="72.2953" y2="109.872" class="gray" /></g>
<g><line x1="68.2451" y1="109.251" x2="64.8249" y2="108.724" class="gray" /></g>
<g><line x1="60.7715" y1="108.7" x2="57.3385" y2="109.186" class="gray" /></g>
<g><line x1="53.8708" y1="108.015" x2="51.4392" y2="105.551" class="gray" /></g>
<g><line x1="50.3087" y1="102.067" x2="50.8313" y2="98.638" class="gray" /></g>
<g><line x1="52.9373" y1="95.6293" x2="55.8127" y2="94.0561" class="gray" /></g>
<g><line x1="59.46" y1="93.953" x2="62.59" y2="95.4424" class="gray" /></g>
<g><line x1="66.4653" y1="96.6318" x2="69.8847" y2="97.1536" class="gray" /></g>
<g><line x1="73.9353" y1="97.7714" x2="77.3647" y2="98.294" class="gray" /></g>
<g><line x1="80.6682" y1="97.0016" x2="82.9818" y2="94.1038" class="gray" /></g>
<g><line x1="85.9787" y1="91.3876" x2="88.8913" y2="89.4978" class="gray" /></g>
<g><line x1="92.6129" y1="87.9518" x2="95.9971" y2="87.2236" class="gray" /></g>
<g><line x1="100.023" y1="87.1132" x2="103.237" y2="87.6222" class="gray" /></g>
<g><line x1="107.056" y1="88.9291" x2="110.254" y2="90.6863" class="gray" /></g>
<g><line x1="113.322" y1="93.2787" x2="115.388" y2="95.8867" class="gray" /></g>
<g><line x1="117.267" y1="99.4495" x2="118.273" y2="102.696" class="gray" /></g>
<g><line x1="120.907" y1="104.954" x2="124.533" y2="105.492" class="gray" /></g>
<g><line x1="128.585" y1="106.104" x2="132.005" y2="106.631" class="gray" /></g>
<g><line x1="135.257" y1="105.302" x2="137.333" y2="102.524" class="gray" /></g>
<g><line x1="140.282" y1="99.772" x2="143.038" y2="97.9934" class="gray" /></g>
<g><line x1="144.679" y1="94.8356" x2="144.541" y2="91.3898" class="gray" /></g>
<g><line x1="144.322" y1="87.2986" x2="144.088" y2="83.8368" class="gray" /></g>
<g><line x1="143.755" y1="79.7532" x2="143.425" y2="76.2921" class="gray" /></g>
<g><line x1="141.709" y1="72.8806" x2="139.251" y2="70.6647" class="gray" /></g>
<g><line x1="137.194" y1="67.3154" x2="136.286" y2="63.97" class="gray" /></g>
<g><line x1="136.404" y1="60.051" x2="137.506" y2="56.7744" class="gray" /></g>
<g><line x1="139.802" y1="53.6073" x2="142.708" y2="51.4381" class="gray" /></g>
<g><line x1="146.394" y1="50.0679" x2="149.646" y2="49.8375" class="gray" /></g>
<g><line x1="153.466" y1="50.7135" x2="156.474" y2="52.4419" class="gray" /></g>
<g><line x1="159.202" y1="55.2766" x2="160.858" y2="58.4288" class="gray" /></g>
<g><line x1="161.436" y1="62.257" x2="160.794" y2="65.7184" class="gray" /></g>
<g><line x1="159.104" y1="69.3027" x2="156.966" y2="71.8527" class="gray" /></g>
<g><line x1="155.731" y1="75.4698" x2="155.869" y2="78.9156" class="gray" /></g>
<g><line x1="156.088" y1="83.0068" x2="156.322" y2="86.4686" class="gray" /></g>
<g><line x1="156.657" y1="90.5519" x2="156.993" y2="94.0135" class="gray" /></g>
<g><line x1="159.058" y1="96.8933" x2="162.212" y2="98.3121" class="gray" /></g>
<g><line x1="165.519" y1="100.611" x2="167.951" y2="103.075" class="gray" /></g>
<g><line x1="170.197" y1="106.416" x2="171.563" y2="109.6" class="gray" /></g>
<g><line x1="172.44" y1="113.53" x2="172.56" y2="116.995" class="gray" /></g>
<g><line x1="172.001" y1="120.992" x2="170.959" y2="124.223" class="gray" /></g>
<g><line x1="168.933" y1="127.671" x2="166.387" y2="130.404" class="gray" /></g>
<g><line x1="163.195" y1="132.89" x2="160.315" y2="134.475" class="gray" /></g>
<g><line x1="158.52" y1="137.511" x2="158.52" y2="140.974" class="gray" /></g>
<g><line x1="158.52" y1="145.071" x2="158.52" y2="148.534" class="gray" /></g>
<g><line x1="158.52" y1="152.631" x2="158.52" y2="156.094" class="gray" /></g>
<g><line x1="158.52" y1="160.191" x2="158.52" y2="163.654" class="gray" /></g>
<g><line x1="158.52" y1="167.751" x2="158.52" y2="171.214" class="gray" /></g>
<g><line x1="158.463" y1="175.311" x2="158.367" y2="178.775" class="gray" /></g>
<g><line x1="158.424" y1="182.868" x2="158.616" y2="186.337" class="gray" /></g>
<g><line x1="158.673" y1="190.431" x2="158.577" y2="193.895" class="gray" /></g>
<g><line x1="159.969" y1="197.391" x2="162.417" y2="199.84" class="gray" /></g>
<g><line x1="165.915" y1="201.289" x2="169.378" y2="201.289" class="gray" /></g>
<g><line x1="173.475" y1="201.289" x2="176.938" y2="201.289" class="gray" /></g>
<g><line x1="181.036" y1="201.289" x2="184.499" y2="201.289" class="gray" /></g>
<g><line x1="188.596" y1="201.289" x2="192.059" y2="201.289" class="gray" /></g>
<g><line x1="196.157" y1="201.289" x2="199.62" y2="201.289" class="gray" /></g>
<g><line x1="203.717" y1="201.289" x2="207.18" y2="201.289" class="gray" /></g>
<g><line x1="211.278" y1="201.289" x2="214.741" y2="201.289" class="gray" /></g>
<g><line x1="218.838" y1="201.289" x2="222.301" y2="201.289" class="gray" /></g>
</svg>
