<svg
	xmlns="http://www.w3.org/2000/svg"
	width="273.57"
	height="220.37">
<g><style type="text/css" >
<!-- create color definitions -->
<![CDATA[
circle.red {stroke: rgb(255, 0, 255); fill: none; }
circle.green {stroke: rgb(0, 255, 0); fill: none; }
circle.blue {stroke: rgb(0, 0, 255); fill: none; }
circle.black {stroke: rgb(0, 0, 0); fill: none; }
circle.gray {stroke: rgb(204, 204, 204); fill: none; }
circle.brown {stroke: rgb(211.65, 104.55, 30.6); fill: none; }
line.red {stroke: rgb(255, 0, 255); stroke-width: 0.381382; }
line.green {stroke: rgb(0, 255, 0); stroke-width: 0.381382; }
line.blue {stroke: rgb(0, 0, 255); stroke-width: 0.381382; }
line.black {stroke: rgb(0, 0, 0); stroke-width: 0.381382; }
line.gray {stroke: rgb(204, 204, 204); stroke-width: 0.381382; }
line.brown {stroke: rgb(211.65, 104.55, 30.6); stroke-width: 0.381382; }
line {stroke: rgb(0, 0, 0); }
text.red {fill: rgb(255, 0, 255); font-size: 3.051058px; font-weight: bold; font-family: Helvetica; }
text.green {fill: rgb(0, 255, 0); font-size: 3.051058px; font-weight: bold; font-family: Helvetica; }
text.blue {fill: rgb(0, 0, 255); font-size: 3.051058px; font-weight: bold; font-family: Helvetica; }
text.black {fill: rgb(0, 0, 0); font-size: 3.051058px; font-weight: bold; font-family: Helvetica; }
text.gray {fill: rgb(204, 204, 204); font-size: 3.051058px; font-weight: bold; font-family: Helvetica; }
text.brown {fill: rgb(211.65, 104.55, 30.6); font-size: 3.051058px; font-weight: bold; font-family: Helvetica; }
text {fill: rgb(0, 0, 0); font-size: 3.051058px; font-weight: bold; font-family: Helvetica; text-anchor: middle; alignment-baseline: middle; }

.pseudoknot_connection{stroke-linecap: round; stroke-opacity: 0.2; stroke-width: 1.5; }
.pseudoknot_segment1{stroke-linecap: round; stroke-opacity: 0.4; stroke-width: 3.05106; }
.pseudoknot_segment2{stroke-linecap: round; stroke-opacity: 0.4; stroke-width: 3.05106; }
line.numbering-line{stroke: rgb(204, 204, 204); stroke-width: 0.190691; }
line.predicted{stroke: rgb(0, 0, 0); stroke-dasharray: 2; }
polyline{fill: none; stroke-linejoin: round; }
template{visibility: hidden; }
text.numbering-label{fill: rgb(204, 204, 204); }
]]>
</style></g>
<g><title>0 (position.label in template: 0.5')</title><text x="79.4605" y="147.199" class="green" >5'</text></g>
<g><title>1 (position.label in template: 1.A)</title><text x="87.0375" y="147.199" class="black" >A</text></g>
<g><title>2 (position.label in template: 2.U)</title><text x="94.6145" y="147.199" class="green" >T</text></g>
<g><title>3 (position.label in template: 3.A)</title><text x="102.191" y="147.199" class="black" >A</text></g>
<g><title>4 (position.label in template: 4.A)</title><text x="109.768" y="147.199" class="black" >A</text></g>
<g><title>5 (position.label in template: 5.A)</title><text x="117.345" y="147.199" class="black" >A</text></g>
<g><title>6 (position.label in template: 6.U)</title><text x="122.6" y="141.74" class="green" >T</text></g>
<g><line x1="124.634" y1="141.435" x2="132.806" y2="141.435" class="black" /></g>
<g><title>7 (position.label in template: 7.C)</title><text x="122.6" y="134.18" class="black" >C</text></g>
<g><line x1="124.634" y1="133.875" x2="132.596" y2="133.875" class="black" /></g>
<g><title>8 (position.label in template: 8.A)</title><text x="122.81" y="126.62" class="green" >A</text></g>
<g><line x1="124.844" y1="126.315" x2="132.806" y2="126.315" class="black" /></g>
<g><title>9 (position.label in template: 9.C)</title><text x="122.6" y="119.06" class="black" >C</text></g>
<g><line x1="124.634" y1="118.755" x2="132.596" y2="118.755" class="black" /></g>
<g><title>10 (position.label in template: 10.U)</title><text x="122.6" y="111.5" class="green" >T</text></g>
<g><line x1="124.634" y1="111.195" x2="133.016" y2="111.195" class="black" /></g>
<g><text x="116.554" y="114.751" class="numbering-label sequential" >10</text></g>
<g><line x1="120.988" y1="112.367" x2="118.384" y2="113.767" class="numbering-line sequential" /></g>
<g><title>11 (position.label in template: 11.A)</title><text x="116.39" y="107.51" class="green" >A</text></g>
<g><line x1="115.462" y1="105.395" x2="111.688" y2="98.0349" class="black" /></g>
<g><title>12 (position.label in template: 12.G)</title><text x="109.19" y="110.86" class="black" >G</text></g>
<g><line x1="108.318" y1="108.717" x2="104.852" y2="101.413" class="black" /></g>
<g><title>13 (position.label in template: 13.G)</title><text x="102.42" y="114.21" class="black" >G</text></g>
<g><line x1="101.546" y1="112.068" x2="98.074" y2="104.772" class="black" /></g>
<g><title>14 (position.label in template: 14.G)</title><text x="95.64" y="117.56" class="black" >G</text></g>
<g><line x1="94.7674" y1="115.418" x2="91.3026" y2="108.122" class="black" /></g>
<g><title>15 (position.label in template: 15.G)</title><text x="90.83" y="123.39" class="black" >G</text></g>
<g><title>16 (position.label in template: 16.U)</title><text x="83.49" y="123.67" class="green" >T</text></g>
<g><line x1="82.616" y1="121.528" x2="79.144" y2="114.232" class="black" /></g>
<g><title>17 (position.label in template: 17.G)</title><text x="82.25" y="131.16" class="black" >G</text></g>
<g><line x1="80.9081" y1="132.383" x2="75.6119" y2="138.416" class="black" /></g>
<g><title>18 (position.label in template: 18.C)</title><text x="88.07" y="136.22" class="black" >C</text></g>
<g><line x1="86.6895" y1="137.409" x2="81.0505" y2="143.511" class="black" /></g>
<g><title>19 (position.label in template: 19.C)</title><text x="93.69" y="141.28" class="black" >C</text></g>
<g><line x1="92.3095" y1="142.469" x2="86.6705" y2="148.571" class="black" /></g>
<g><title>20 (position.label in template: 20.U)</title><text x="99.31" y="146.33" class="green" >T</text></g>
<g><line x1="97.9689" y1="147.554" x2="92.6711" y2="153.596" class="black" /></g>
<g><text x="103.901" y="141.226" class="numbering-label sequential" >20</text></g>
<g><line x1="100.534" y1="144.969" x2="102.529" y2="142.752" class="numbering-line sequential" /></g>
<g><title>21 (position.label in template: 21.U)</title><text x="104.93" y="151.39" class="green" >T</text></g>
<g><line x1="103.588" y1="152.613" x2="98.282" y2="158.656" class="black" /></g>
<g><title>22 (position.label in template: 22.U)</title><text x="112.22" y="153.38" class="green" >T</text></g>
<g><title>23 (position.label in template: 23.U)</title><text x="115.78" y="160.06" class="green" >T</text></g>
<g><title>24 (position.label in template: 24.C)</title><text x="113.36" y="167.22" class="black" >C</text></g>
<g><title>25 (position.label in template: 25.A)</title><text x="106.69" y="170.37" class="black" >A</text></g>
<g><title>26 (position.label in template: 26.A)</title><text x="99.69" y="167.53" class="black" >A</text></g>
<g><title>27 (position.label in template: 27.A)</title><text x="96.94" y="160.49" class="green" >A</text></g>
<g><title>28 (position.label in template: 28.A)</title><text x="91.33" y="155.43" class="green" >A</text></g>
<g><title>29 (position.label in template: 29.G)</title><text x="85.29" y="150.37" class="black" >G</text></g>
<g><title>30 (position.label in template: 30.G)</title><text x="79.67" y="145.31" class="black" >G</text></g>
<g><text x="75.0267" y="150.366" class="numbering-label sequential" >30</text></g>
<g><line x1="78.4318" y1="146.658" x2="76.4276" y2="148.841" class="numbering-line sequential" /></g>
<g><title>31 (position.label in template: 31.C)</title><text x="74.27" y="140.25" class="black" >C</text></g>
<g><title>32 (position.label in template: 32.U)</title><text x="66.92" y="142.06" class="green" >T</text></g>
<g><title>33 (position.label in template: 33.G)</title><text x="59.32" y="140.49" class="black" >G</text></g>
<g><title>34 (position.label in template: 34.A)</title><text x="53.77" y="135.85" class="black" >A</text></g>
<g><title>35 (position.label in template: 35.G)</title><text x="50" y="129.08" class="black" >G</text></g>
<g><title>36 (position.label in template: 36.A)</title><text x="50.36" y="121.52" class="black" >A</text></g>
<g><title>37 (position.label in template: 37.U)</title><text x="53.39" y="114.69" class="green" >T</text></g>
<g><title>38 (position.label in template: 38.C)</title><text x="59.29" y="109.95" class="black" >C</text></g>
<g><line x1="61.3173" y1="109.479" x2="69.2527" y2="108.831" class="black" /></g>
<g><title>39 (position.label in template: 39.A)</title><text x="58.88" y="102.42" class="green" >A</text></g>
<g><line x1="60.9072" y1="101.948" x2="68.8528" y2="101.292" class="black" /></g>
<g><title>40 (position.label in template: 40.G)</title><text x="57.86" y="94.88" class="green" >G</text></g>
<g><line x1="59.8877" y1="94.4148" x2="68.2423" y2="93.755" class="black" /></g>
<g><title>41 (position.label in template: 41.A)</title><text x="57.67" y="87.35" class="green" >A</text></g>
<g><line x1="59.6971" y1="86.8775" x2="67.6329" y2="86.2223" class="black" /></g>
<g><title>42 (position.label in template: 42.G)</title><text x="56.64" y="79.81" class="black" >G</text></g>
<g><line x1="58.6677" y1="79.3448" x2="67.0223" y2="78.685" class="black" /></g>
<g><title>43 (position.label in template: 43.U)</title><text x="51.52" y="74.46" class="green" >T</text></g>
<g><title>44 (position.label in template: 44.A)</title><text x="50.72" y="66.96" class="black" >A</text></g>
<g><title>45 (position.label in template: 45.A)</title><text x="54.45" y="60.39" class="black" >A</text></g>
<g><title>46 (position.label in template: 46.U)</title><text x="61.19" y="57.41" class="green" >T</text></g>
<g><title>47 (position.label in template: 47.C)</title><text x="68.52" y="59.24" class="black" >C</text></g>
<g><title>48 (position.label in template: 48.G)</title><text x="73.05" y="65.13" class="black" >G</text></g>
<g><title>49 (position.label in template: 49.A)</title><text x="73.67" y="72.69" class="black" >A</text></g>
<g><title>50 (position.label in template: 50.C)</title><text x="69.05" y="78.83" class="black" >C</text></g>
<g><text x="75.6373" y="80.7623" class="numbering-label sequential" >50</text></g>
<g><line x1="70.8066" y1="79.3453" x2="73.8067" y2="80.2253" class="numbering-line sequential" /></g>
<g><title>51 (position.label in template: 51.U)</title><text x="69.66" y="86.36" class="green" >T</text></g>
<g><title>52 (position.label in template: 52.U)</title><text x="70.27" y="93.9" class="green" >T</text></g>
<g><title>53 (position.label in template: 53.U)</title><text x="70.88" y="101.43" class="green" >T</text></g>
<g><title>54 (position.label in template: 54.G)</title><text x="71.28" y="108.97" class="black" >G</text></g>
<g><title>55 (position.label in template: 55.A)</title><text x="78.27" y="112.7" class="green" >A</text></g>
<g><title>56 (position.label in template: 56.G)</title><text x="77.59" y="105.14" class="black" >G</text></g>
<g><title>57 (position.label in template: 57.A)</title><text x="84.79" y="101.79" class="black" >A</text></g>
<g><title>58 (position.label in template: 58.C)</title><text x="90.43" y="106.59" class="black" >C</text></g>
<g><title>59 (position.label in template: 59.C)</title><text x="97.2" y="103.24" class="black" >C</text></g>
<g><title>60 (position.label in template: 60.C)</title><text x="103.98" y="99.88" class="black" >C</text></g>
<g><title>61 (position.label in template: 61.U)</title><text x="110.76" y="96.53" class="green" >T</text></g>
<g><title>62 (position.label in template: 62.C)</title><text x="111.49" y="89.01" class="black" >C</text></g>
<g><title>63 (position.label in template: 63.G)</title><text x="115.02" y="82.44" class="black" >G</text></g>
<g><title>64 (position.label in template: 64.G)</title><text x="121.12" y="77.98" class="black" >G</text></g>
<g><title>65 (position.label in template: 65.A)</title><text x="128.93" y="76.4" class="black" >A</text></g>
<g><title>66 (position.label in template: 66.A)</title><text x="136.32" y="77.98" class="black" >A</text></g>
<g><title>67 (position.label in template: 67.C)</title><text x="142.22" y="82.44" class="black" >C</text></g>
<g><line x1="142.949" y1="84.0337" x2="145.851" y2="91.5861" class="black" /></g>
<g><title>68 (position.label in template: 68.C)</title><text x="149.23" y="79.61" class="black" >C</text></g>
<g><line x1="149.959" y1="81.2039" x2="152.861" y2="88.7659" class="black" /></g>
<g><title>69 (position.label in template: 69.U)</title><text x="156.24" y="76.79" class="green" >T</text></g>
<g><line x1="157.029" y1="78.3595" x2="160.231" y2="85.9603" class="black" /></g>
<g><title>70 (position.label in template: 70.G)</title><text x="163.04" y="73.96" class="black" >G</text></g>
<g><line x1="163.859" y1="75.5169" x2="167.211" y2="83.1429" class="black" /></g>
<g><title>71 (position.label in template: 71.A)</title><text x="167.19" y="67.38" class="black" >A</text></g>
<g><title>72 (position.label in template: 72.U)</title><text x="173.99" y="64.56" class="green" >T</text></g>
<g><title>73 (position.label in template: 73.A)</title><text x="181.44" y="66.71" class="black" >A</text></g>
<g><line x1="182.141" y1="68.3142" x2="184.909" y2="75.8456" class="black" /></g>
<g><title>74 (position.label in template: 74.C)</title><text x="188.25" y="63.88" class="black" >C</text></g>
<g><line x1="188.98" y1="65.4733" x2="191.89" y2="73.0365" class="black" /></g>
<g><title>75 (position.label in template: 75.G)</title><text x="195.05" y="61.06" class="black" >G</text></g>
<g><line x1="195.841" y1="62.6289" x2="199.049" y2="70.2309" class="black" /></g>
<g><title>76 (position.label in template: 76.G)</title><text x="202.06" y="58.23" class="black" >G</text></g>
<g><line x1="202.851" y1="59.7989" x2="206.059" y2="67.4009" class="black" /></g>
<g><title>77 (position.label in template: 77.U)</title><text x="206.47" y="51.94" class="green" >T</text></g>
<g><title>78 (position.label in template: 78.U)</title><text x="213.78" y="50" class="green" >T</text></g>
<g><title>79 (position.label in template: 79.G)</title><text x="220.33" y="53.39" class="black" >G</text></g>
<g><title>80 (position.label in template: 80.A)</title><text x="223.57" y="60.4" class="black" >A</text></g>
<g><title>81 (position.label in template: 81.U)</title><text x="220.84" y="67.53" class="green" >T</text></g>
<g><title>82 (position.label in template: 82.A)</title><text x="214.44" y="71.2" class="black" >A</text></g>
<g><title>83 (position.label in template: 83.C)</title><text x="206.85" y="69.58" class="black" >C</text></g>
<g><title>84 (position.label in template: 84.C)</title><text x="199.84" y="72.41" class="black" >C</text></g>
<g><title>85 (position.label in template: 85.G)</title><text x="192.62" y="75.24" class="black" >G</text></g>
<g><title>86 (position.label in template: 86.G)</title><text x="185.61" y="78.06" class="black" >G</text></g>
<g><title>87 (position.label in template: 87.C)</title><text x="182.09" y="84.64" class="black" >C</text></g>
<g><title>88 (position.label in template: 88.G)</title><text x="174.87" y="87.47" class="black" >G</text></g>
<g><title>89 (position.label in template: 89.A)</title><text x="168.03" y="85.31" class="black" >A</text></g>
<g><title>90 (position.label in template: 90.A)</title><text x="161.02" y="88.14" class="green" >A</text></g>
<g><title>91 (position.label in template: 91.G)</title><text x="153.59" y="90.97" class="black" >G</text></g>
<g><title>92 (position.label in template: 92.G)</title><text x="146.58" y="93.79" class="black" >G</text></g>
<g><title>93 (position.label in template: 93.G)</title><text x="145.28" y="101.24" class="black" >G</text></g>
<g><title>94 (position.label in template: 94.A)</title><text x="141.47" y="107.51" class="black" >A</text></g>
<g><title>95 (position.label in template: 95.A)</title><text x="135.05" y="111.5" class="green" >A</text></g>
<g><title>96 (position.label in template: 96.G)</title><text x="134.63" y="119.06" class="black" >G</text></g>
<g><title>97 (position.label in template: 97.U)</title><text x="134.84" y="126.62" class="green" >T</text></g>
<g><title>98 (position.label in template: 98.G)</title><text x="134.63" y="134.18" class="black" >G</text></g>
<g><title>99 (position.label in template: 99.U)</title><text x="134.84" y="141.74" class="green" >T</text></g>
<g><title>100 (position.label in template: 100.G)</title><text x="140.095" y="147.199" class="black" >G</text></g>
<g><text x="137.407" y="153.516" class="numbering-label sequential" >100</text></g>
<g><line x1="139.378" y1="148.884" x2="138.056" y2="151.99" class="numbering-line sequential" /></g>
<g><title>101 (position.label in template: 101.C)</title><text x="147.672" y="147.199" class="black" >C</text></g>
<g><title>102 (position.label in template: 102.G)</title><text x="155.249" y="147.199" class="black" >G</text></g>
<g><title>103 (position.label in template: 103.G)</title><text x="162.826" y="147.199" class="black" >G</text></g>
<g><title>104 (position.label in template: 104.A)</title><text x="170.403" y="147.199" class="black" >A</text></g>
<g><title>105 (position.label in template: 105.C)</title><text x="177.98" y="147.199" class="black" >C</text></g>
<g><title>106 (position.label in template: 106.G)</title><text x="185.556" y="147.199" class="black" >G</text></g>
<g><title>107 (position.label in template: 107.A)</title><text x="193.133" y="147.199" class="black" >A</text></g>
<g><title>108 (position.label in template: 108.U)</title><text x="200.71" y="147.199" class="green" >T</text></g>
<g><title>109 (position.label in template: 109.A)</title><text x="208.287" y="147.199" class="black" >A</text></g>
<g><title>110 (position.label in template: 110.U)</title><text x="215.864" y="147.199" class="green" >T</text></g>
<g><title>111 (position.label in template: 111.U)</title><text x="223.441" y="147.199" class="green" >T</text></g>
<g><title>112 (position.label in template: 112.3')</title><text x="231.018" y="147.199" class="green" >3'</text></g>
<g><line x1="81.4945" y1="146.894" x2="85.0034" y2="146.894" class="gray" /></g>
<g><line x1="89.0715" y1="146.894" x2="92.5804" y2="146.894" class="gray" /></g>
<g><line x1="96.6485" y1="146.894" x2="100.157" y2="146.894" class="gray" /></g>
<g><line x1="104.226" y1="146.894" x2="107.734" y2="146.894" class="gray" /></g>
<g><line x1="111.803" y1="146.894" x2="115.311" y2="146.894" class="gray" /></g>
<g><line x1="118.756" y1="145.428" x2="121.189" y2="142.9" class="gray" /></g>
<g><line x1="122.6" y1="139.401" x2="122.6" y2="135.909" class="gray" /></g>
<g><line x1="122.656" y1="131.842" x2="122.754" y2="128.348" class="gray" /></g>
<g><line x1="122.754" y1="124.282" x2="122.656" y2="120.788" class="gray" /></g>
<g><line x1="122.6" y1="116.721" x2="122.6" y2="113.229" class="gray" /></g>
<g><line x1="120.889" y1="110.095" x2="118.101" y2="108.304" class="gray" /></g>
<g><line x1="114.546" y1="108.063" x2="111.034" y2="109.697" class="gray" /></g>
<g><line x1="107.367" y1="111.457" x2="104.243" y2="113.003" class="gray" /></g>
<g><line x1="100.596" y1="114.806" x2="97.4636" y2="116.354" class="gray" /></g>
<g><line x1="94.3455" y1="118.824" x2="92.1245" y2="121.516" class="gray" /></g>
<g><line x1="88.7974" y1="123.162" x2="85.5226" y2="123.287" class="gray" /></g>
<g><line x1="83.1578" y1="125.372" x2="82.5822" y2="128.848" class="gray" /></g>
<g><line x1="83.785" y1="132.189" x2="86.535" y2="134.58" class="gray" /></g>
<g><line x1="89.5816" y1="137.276" x2="92.1784" y2="139.614" class="gray" /></g>
<g><line x1="95.203" y1="142.334" x2="97.797" y2="144.665" class="gray" /></g>
<g><line x1="100.822" y1="147.386" x2="103.418" y2="149.724" class="gray" /></g>
<g><line x1="106.892" y1="151.621" x2="110.258" y2="152.539" class="gray" /></g>
<g><line x1="113.177" y1="154.87" x2="114.823" y2="157.96" class="gray" /></g>
<g><line x1="115.129" y1="161.682" x2="114.011" y2="164.988" class="gray" /></g>
<g><line x1="111.521" y1="167.784" x2="108.529" y2="169.196" class="gray" /></g>
<g><line x1="104.805" y1="169.3" x2="101.575" y2="167.99" class="gray" /></g>
<g><line x1="98.9499" y1="165.33" x2="97.6801" y2="162.08" class="gray" /></g>
<g><line x1="95.4296" y1="158.823" x2="92.8404" y2="156.487" class="gray" /></g>
<g><line x1="89.7708" y1="153.819" x2="86.8492" y2="151.371" class="gray" /></g>
<g><line x1="83.7784" y1="148.704" x2="81.1816" y2="146.366" class="gray" /></g>
<g><line x1="78.1858" y1="143.614" x2="75.7542" y2="141.336" class="gray" /></g>
<g><line x1="72.295" y1="140.431" x2="68.895" y2="141.269" class="gray" /></g>
<g><line x1="64.928" y1="141.343" x2="61.312" y2="140.596" class="gray" /></g>
<g><line x1="57.7595" y1="138.88" x2="55.3305" y2="136.85" class="gray" /></g>
<g><line x1="52.7804" y1="133.768" x2="50.9896" y2="130.552" class="gray" /></g>
<g><line x1="50.0967" y1="126.743" x2="50.2633" y2="123.247" class="gray" /></g>
<g><line x1="51.1848" y1="119.356" x2="52.5652" y2="116.244" class="gray" /></g>
<g><line x1="54.9757" y1="113.111" x2="57.7043" y2="110.919" class="gray" /></g>
<g><line x1="59.1794" y1="107.614" x2="58.9906" y2="104.146" class="gray" /></g>
<g><line x1="58.6073" y1="100.099" x2="58.1327" y2="96.5906" class="gray" /></g>
<g><line x1="57.8087" y1="92.5415" x2="57.7213" y2="89.0783" class="gray" /></g>
<g><line x1="57.3947" y1="85.0296" x2="56.9153" y2="81.5202" class="gray" /></g>
<g><line x1="55.2337" y1="78.0354" x2="52.9263" y2="75.6244" class="gray" /></g>
<g><line x1="51.3043" y1="72.1323" x2="50.9357" y2="68.6775" class="gray" /></g>
<g><line x1="51.7242" y1="64.886" x2="53.4458" y2="61.8537" class="gray" /></g>
<g><line x1="56.3103" y1="59.2624" x2="59.3297" y2="57.9274" class="gray" /></g>
<g><line x1="63.1635" y1="57.5976" x2="66.5465" y2="58.4422" class="gray" /></g>
<g><line x1="69.76" y1="60.5472" x2="71.81" y2="63.2126" class="gray" /></g>
<g><line x1="73.2163" y1="66.8521" x2="73.5037" y2="70.3577" class="gray" /></g>
<g><line x1="72.447" y1="74.0102" x2="70.273" y2="76.8996" class="gray" /></g>
<g><line x1="69.2142" y1="80.5523" x2="69.4958" y2="84.0275" class="gray" /></g>
<g><line x1="69.824" y1="88.0823" x2="70.106" y2="91.5675" class="gray" /></g>
<g><line x1="70.4342" y1="95.6223" x2="70.7158" y2="99.0975" class="gray" /></g>
<g><line x1="70.9878" y1="103.156" x2="71.1722" y2="106.634" class="gray" /></g>
<g><line x1="73.0745" y1="109.622" x2="76.4755" y2="111.437" class="gray" /></g>
<g><line x1="78.0878" y1="110.369" x2="77.7722" y2="106.861" class="gray" /></g>
<g><line x1="79.4342" y1="103.977" x2="82.9458" y2="102.343" class="gray" /></g>
<g><line x1="86.339" y1="102.803" x2="88.881" y2="104.967" class="gray" /></g>
<g><line x1="92.2531" y1="105.383" x2="95.3769" y2="103.837" class="gray" /></g>
<g><line x1="99.0225" y1="102.032" x2="102.157" y2="100.478" class="gray" /></g>
<g><line x1="105.804" y1="98.6739" x2="108.936" y2="97.1259" class="gray" /></g>
<g><line x1="110.957" y1="94.2004" x2="111.293" y2="90.7294" class="gray" /></g>
<g><line x1="112.453" y1="86.9131" x2="114.057" y2="83.9267" class="gray" /></g>
<g><line x1="116.662" y1="80.9344" x2="119.478" y2="78.8754" class="gray" /></g>
<g><line x1="123.114" y1="77.2716" x2="126.936" y2="76.4982" class="gray" /></g>
<g><line x1="130.919" y1="76.5202" x2="134.331" y2="77.2496" class="gray" /></g>
<g><line x1="137.943" y1="78.9015" x2="140.597" y2="80.9083" class="gray" /></g>
<g><line x1="144.106" y1="81.3734" x2="147.344" y2="80.0663" class="gray" /></g>
<g><line x1="151.117" y1="78.5458" x2="154.353" y2="77.244" class="gray" /></g>
<g><line x1="158.118" y1="75.7034" x2="161.162" y2="74.4364" class="gray" /></g>
<g><line x1="164.125" y1="71.9345" x2="166.105" y2="68.7953" class="gray" /></g>
<g><line x1="169.069" y1="66.2957" x2="172.111" y2="65.0341" class="gray" /></g>
<g><line x1="175.944" y1="64.8189" x2="179.486" y2="65.8409" class="gray" /></g>
<g><line x1="183.318" y1="65.6243" x2="186.372" y2="64.3555" class="gray" /></g>
<g><line x1="190.129" y1="62.7957" x2="193.171" y2="61.5341" class="gray" /></g>
<g><line x1="196.936" y1="59.9934" x2="200.174" y2="58.6863" class="gray" /></g>
<g><line x1="203.228" y1="56.2594" x2="205.302" y2="53.3004" class="gray" /></g>
<g><line x1="208.436" y1="51.1131" x2="211.814" y2="50.2166" class="gray" /></g>
<g><line x1="215.586" y1="50.6298" x2="218.524" y2="52.15" class="gray" /></g>
<g><line x1="221.183" y1="54.9313" x2="222.717" y2="58.2485" class="gray" /></g>
<g><line x1="222.843" y1="61.9945" x2="221.567" y2="65.3253" class="gray" /></g>
<g><line x1="219.075" y1="68.2367" x2="216.205" y2="69.8831" class="gray" /></g>
<g><line x1="212.451" y1="70.4703" x2="208.839" y2="69.6995" class="gray" /></g>
<g><line x1="204.964" y1="70.0363" x2="201.726" y2="71.3434" class="gray" /></g>
<g><line x1="197.946" y1="72.8472" x2="194.514" y2="74.1926" class="gray" /></g>
<g><line x1="190.733" y1="75.694" x2="187.497" y2="76.9958" class="gray" /></g>
<g><line x1="184.651" y1="79.5484" x2="183.049" y2="82.5414" class="gray" /></g>
<g><line x1="180.196" y1="85.0772" x2="176.764" y2="86.4226" class="gray" /></g>
<g><line x1="172.93" y1="86.5524" x2="169.97" y2="85.6174" class="gray" /></g>
<g><line x1="166.144" y1="85.7663" x2="162.906" y2="87.0734" class="gray" /></g>
<g><line x1="159.119" y1="88.5589" x2="155.491" y2="89.9409" class="gray" /></g>
<g><line x1="151.703" y1="91.424" x2="148.467" y2="92.7258" class="gray" /></g>
<g><line x1="146.23" y1="95.4887" x2="145.63" y2="98.9311" class="gray" /></g>
<g><line x1="144.224" y1="102.673" x2="142.526" y2="105.467" class="gray" /></g>
<g><line x1="139.742" y1="108.279" x2="136.778" y2="110.121" class="gray" /></g>
<g><line x1="134.937" y1="113.226" x2="134.743" y2="116.724" class="gray" /></g>
<g><line x1="134.686" y1="120.788" x2="134.784" y2="124.282" class="gray" /></g>
<g><line x1="134.784" y1="128.348" x2="134.686" y2="131.842" class="gray" /></g>
<g><line x1="134.686" y1="135.908" x2="134.784" y2="139.402" class="gray" /></g>
<g><line x1="136.251" y1="142.9" x2="138.684" y2="145.428" class="gray" /></g>
<g><line x1="142.129" y1="146.894" x2="145.637" y2="146.894" class="gray" /></g>
<g><line x1="149.706" y1="146.894" x2="153.214" y2="146.894" class="gray" /></g>
<g><line x1="157.283" y1="146.894" x2="160.791" y2="146.894" class="gray" /></g>
<g><line x1="164.86" y1="146.894" x2="168.368" y2="146.894" class="gray" /></g>
<g><line x1="172.437" y1="146.894" x2="175.945" y2="146.894" class="gray" /></g>
<g><line x1="180.014" y1="146.894" x2="183.522" y2="146.894" class="gray" /></g>
<g><line x1="187.591" y1="146.894" x2="191.099" y2="146.894" class="gray" /></g>
<g><line x1="195.168" y1="146.894" x2="198.676" y2="146.894" class="gray" /></g>
<g><line x1="202.745" y1="146.894" x2="206.253" y2="146.894" class="gray" /></g>
<g><line x1="210.322" y1="146.894" x2="213.83" y2="146.894" class="gray" /></g>
<g><line x1="217.899" y1="146.894" x2="221.407" y2="146.894" class="gray" /></g>
<g><line x1="225.476" y1="146.894" x2="228.984" y2="146.894" class="gray" /></g>
</svg>
