<svg
	xmlns="http://www.w3.org/2000/svg"
	width="279.997"
	height="201.067">
<g><style type="text/css" >
<!-- create color definitions -->
<![CDATA[
circle.red {stroke: rgb(255, 0, 255); fill: none; }
circle.green {stroke: rgb(0, 255, 0); fill: none; }
circle.blue {stroke: rgb(0, 0, 255); fill: none; }
circle.black {stroke: rgb(0, 0, 0); fill: none; }
circle.gray {stroke: rgb(204, 204, 204); fill: none; }
circle.brown {stroke: rgb(211.65, 104.55, 30.6); fill: none; }
line.red {stroke: rgb(255, 0, 255); stroke-width: 0.382567; }
line.green {stroke: rgb(0, 255, 0); stroke-width: 0.382567; }
line.blue {stroke: rgb(0, 0, 255); stroke-width: 0.382567; }
line.black {stroke: rgb(0, 0, 0); stroke-width: 0.382567; }
line.gray {stroke: rgb(204, 204, 204); stroke-width: 0.382567; }
line.brown {stroke: rgb(211.65, 104.55, 30.6); stroke-width: 0.382567; }
line {stroke: rgb(0, 0, 0); }
text.red {fill: rgb(255, 0, 255); font-size: 3.060533px; font-weight: bold; font-family: Helvetica; }
text.green {fill: rgb(0, 255, 0); font-size: 3.060533px; font-weight: bold; font-family: Helvetica; }
text.blue {fill: rgb(0, 0, 255); font-size: 3.060533px; font-weight: bold; font-family: Helvetica; }
text.black {fill: rgb(0, 0, 0); font-size: 3.060533px; font-weight: bold; font-family: Helvetica; }
text.gray {fill: rgb(204, 204, 204); font-size: 3.060533px; font-weight: bold; font-family: Helvetica; }
text.brown {fill: rgb(211.65, 104.55, 30.6); font-size: 3.060533px; font-weight: bold; font-family: Helvetica; }
text {fill: rgb(0, 0, 0); font-size: 3.060533px; font-weight: bold; font-family: Helvetica; text-anchor: middle; alignment-baseline: middle; }

.pseudoknot_connection{stroke-linecap: round; stroke-opacity: 0.2; stroke-width: 1.5; }
.pseudoknot_segment1{stroke-linecap: round; stroke-opacity: 0.4; stroke-width: 3.06053; }
.pseudoknot_segment2{stroke-linecap: round; stroke-opacity: 0.4; stroke-width: 3.06053; }
line.numbering-line{stroke: rgb(204, 204, 204); stroke-width: 0.191283; }
line.predicted{stroke: rgb(0, 0, 0); stroke-dasharray: 2; }
polyline{fill: none; stroke-linejoin: round; }
template{visibility: hidden; }
text.numbering-label{fill: rgb(204, 204, 204); }
]]>
</style></g>
<g><title>0 (position.label in template: 0.5')</title><text x="99.3199" y="153.387" class="green" >5'</text></g>
<g><title>1 (position.label in template: 1.C)</title><text x="99.11" y="145.83" class="black" >C</text></g>
<g><line x1="101.15" y1="145.524" x2="109.1" y2="145.524" class="black" /></g>
<g><title>2 (position.label in template: 2.G)</title><text x="98.9" y="138.27" class="black" >G</text></g>
<g><line x1="100.94" y1="137.964" x2="109.31" y2="137.964" class="black" /></g>
<g><title>3 (position.label in template: 3.U)</title><text x="99.11" y="130.71" class="green" >T</text></g>
<g><line x1="101.15" y1="130.404" x2="109.1" y2="130.404" class="black" /></g>
<g><title>4 (position.label in template: 4.C)</title><text x="99.11" y="123.15" class="black" >C</text></g>
<g><line x1="101.15" y1="122.844" x2="109.1" y2="122.844" class="black" /></g>
<g><title>5 (position.label in template: 5.G)</title><text x="98.9" y="115.59" class="green" >G</text></g>
<g><line x1="100.94" y1="115.284" x2="109.31" y2="115.284" class="black" /></g>
<g><title>6 (position.label in template: 6.G)</title><text x="98.9" y="108.03" class="black" >G</text></g>
<g><line x1="100.94" y1="107.724" x2="109.31" y2="107.724" class="black" /></g>
<g><title>7 (position.label in template: 7.U)</title><text x="99.11" y="100.47" class="green" >T</text></g>
<g><line x1="101.15" y1="100.164" x2="109.52" y2="100.164" class="black" /></g>
<g><title>8 (position.label in template: 8.C)</title><text x="99.11" y="92.91" class="black" >C</text></g>
<g><line x1="101.15" y1="92.6039" x2="109.1" y2="92.6039" class="black" /></g>
<g><title>9 (position.label in template: 9.U)</title><text x="92.44" y="89.35" class="green" >T</text></g>
<g><title>10 (position.label in template: 10.A)</title><text x="87.72" y="83.62" class="black" >A</text></g>
<g><text x="81.7986" y="87.1351" class="numbering-label sequential" >10</text></g>
<g><line x1="86.1409" y1="84.5574" x2="83.6349" y2="86.045" class="numbering-line sequential" /></g>
<g><title>11 (position.label in template: 11.G)</title><text x="84.8" y="76.48" class="black" >G</text></g>
<g><line x1="85.1424" y1="74.1625" x2="86.5176" y2="66.0854" class="black" /></g>
<g><title>12 (position.label in template: 12.U)</title><text x="77.54" y="75.34" class="green" >T</text></g>
<g><line x1="77.8824" y1="73.0225" x2="79.2576" y2="64.9454" class="black" /></g>
<g><title>13 (position.label in template: 13.U)</title><text x="70.07" y="74.19" class="green" >T</text></g>
<g><line x1="70.3443" y1="71.8621" x2="71.4357" y2="63.8158" class="black" /></g>
<g><title>14 (position.label in template: 14.U)</title><text x="62.59" y="73.05" class="green" >T</text></g>
<g><line x1="62.8657" y1="70.7223" x2="63.9643" y2="62.6656" class="black" /></g>
<g><title>15 (position.label in template: 15.U)</title><text x="55.11" y="74.1" class="green" >T</text></g>
<g><title>16 (position.label in template: 16.A)</title><text x="50" y="68.72" class="black" >A</text></g>
<g><title>17 (position.label in template: 17.G)</title><text x="50.73" y="61.25" class="black" >G</text></g>
<g><title>18 (position.label in template: 18.C)</title><text x="57.62" y="57.71" class="black" >C</text></g>
<g><title>19 (position.label in template: 19.G)</title><text x="64.24" y="60.95" class="green" >G</text></g>
<g><title>20 (position.label in template: 20.G)</title><text x="71.71" y="62.1" class="green" >G</text></g>
<g><text x="72.7254" y="55.2891" class="numbering-label sequential" >20</text></g>
<g><line x1="71.9808" y1="60.2838" x2="72.4973" y2="56.8193" class="numbering-line sequential" /></g>
<g><title>21 (position.label in template: 21.A)</title><text x="79.6" y="63.24" class="green" >A</text></g>
<g><title>22 (position.label in template: 22.C)</title><text x="86.86" y="64.38" class="black" >C</text></g>
<g><title>23 (position.label in template: 23.G)</title><text x="91.18" y="58.33" class="black" >G</text></g>
<g><title>24 (position.label in template: 24.A)</title><text x="98.01" y="54.33" class="black" >A</text></g>
<g><title>25 (position.label in template: 25.A)</title><text x="105.44" y="52.93" class="black" >A</text></g>
<g><title>26 (position.label in template: 26.A)</title><text x="112.87" y="54.33" class="black" >A</text></g>
<g><title>27 (position.label in template: 27.A)</title><text x="119.28" y="58.33" class="black" >A</text></g>
<g><title>28 (position.label in template: 28.G)</title><text x="123.39" y="64.38" class="black" >G</text></g>
<g><line x1="123.732" y1="66.0854" x2="125.108" y2="74.1625" class="black" /></g>
<g><title>29 (position.label in template: 29.C)</title><text x="131.08" y="63.24" class="black" >C</text></g>
<g><line x1="131.354" y1="64.9558" x2="132.446" y2="73.0121" class="black" /></g>
<g><title>30 (position.label in template: 30.C)</title><text x="138.55" y="62.1" class="black" >C</text></g>
<g><line x1="138.824" y1="63.8158" x2="139.916" y2="71.8621" class="black" /></g>
<g><text x="137.492" y="55.2955" class="numbering-label sequential" >30</text></g>
<g><line x1="138.268" y1="60.2855" x2="137.73" y2="56.8258" class="numbering-line sequential" /></g>
<g><title>31 (position.label in template: 31.G)</title><text x="145.81" y="60.95" class="black" >G</text></g>
<g><line x1="146.152" y1="62.6554" x2="147.528" y2="70.7325" class="black" /></g>
<g><title>32 (position.label in template: 32.G)</title><text x="153.28" y="59.81" class="black" >G</text></g>
<g><line x1="153.624" y1="61.5151" x2="155.006" y2="69.5928" class="black" /></g>
<g><title>33 (position.label in template: 33.A)</title><text x="157.74" y="53.42" class="black" >A</text></g>
<g><title>34 (position.label in template: 34.U)</title><text x="164.28" y="50" class="green" >T</text></g>
<g><title>35 (position.label in template: 35.U)</title><text x="171.82" y="50.54" class="green" >T</text></g>
<g><title>36 (position.label in template: 36.C)</title><text x="178.02" y="54.87" class="black" >C</text></g>
<g><title>37 (position.label in template: 37.C)</title><text x="181.11" y="61.77" class="black" >C</text></g>
<g><title>38 (position.label in template: 38.U)</title><text x="180.22" y="69.28" class="green" >T</text></g>
<g><title>39 (position.label in template: 39.U)</title><text x="175.6" y="75.27" class="green" >T</text></g>
<g><title>40 (position.label in template: 40.C)</title><text x="168.57" y="78.03" class="black" >C</text></g>
<g><title>41 (position.label in template: 41.A)</title><text x="161.32" y="76.8" class="black" >A</text></g>
<g><title>42 (position.label in template: 42.C)</title><text x="155.35" y="71.91" class="black" >C</text></g>
<g><title>43 (position.label in template: 43.C)</title><text x="147.87" y="73.05" class="black" >C</text></g>
<g><title>44 (position.label in template: 44.G)</title><text x="140.19" y="74.19" class="black" >G</text></g>
<g><title>45 (position.label in template: 45.G)</title><text x="132.72" y="75.34" class="black" >G</text></g>
<g><title>46 (position.label in template: 46.C)</title><text x="125.45" y="76.48" class="black" >C</text></g>
<g><title>47 (position.label in template: 47.C)</title><text x="122.95" y="83.62" class="black" >C</text></g>
<g><title>48 (position.label in template: 48.U)</title><text x="118.02" y="89.35" class="green" >T</text></g>
<g><title>49 (position.label in template: 49.G)</title><text x="111.14" y="92.91" class="black" >G</text></g>
<g><title>50 (position.label in template: 50.A)</title><text x="111.56" y="100.47" class="green" >A</text></g>
<g><text x="118.446" y="100.374" class="numbering-label sequential" >50</text></g>
<g><line x1="113.396" y1="100.444" x2="116.609" y2="100.4" class="numbering-line sequential" /></g>
<g><title>51 (position.label in template: 51.C)</title><text x="111.35" y="108.03" class="black" >C</text></g>
<g><title>52 (position.label in template: 52.U)</title><text x="111.35" y="115.59" class="green" >T</text></g>
<g><title>53 (position.label in template: 53.G)</title><text x="111.14" y="123.15" class="black" >G</text></g>
<g><title>54 (position.label in template: 54.G)</title><text x="111.14" y="130.71" class="green" >G</text></g>
<g><title>55 (position.label in template: 55.C)</title><text x="111.35" y="138.27" class="black" >C</text></g>
<g><title>56 (position.label in template: 56.G)</title><text x="111.14" y="145.83" class="black" >G</text></g>
<g><title>57 (position.label in template: 57.C)</title><text x="116.593" y="151.067" class="black" >C</text></g>
<g><title>58 (position.label in template: 58.C)</title><text x="124.153" y="151.067" class="black" >C</text></g>
<g><title>59 (position.label in template: 59.C)</title><text x="131.713" y="151.067" class="black" >C</text></g>
<g><title>60 (position.label in template: 60.C)</title><text x="139.274" y="151.067" class="black" >C</text></g>
<g><title>61 (position.label in template: 61.A)</title><text x="146.834" y="151.067" class="black" >A</text></g>
<g><title>62 (position.label in template: 62.A)</title><text x="154.394" y="151.067" class="black" >A</text></g>
<g><title>63 (position.label in template: 63.U)</title><text x="161.955" y="151.067" class="green" >T</text></g>
<g><title>64 (position.label in template: 64.U)</title><text x="169.515" y="151.067" class="green" >T</text></g>
<g><title>65 (position.label in template: 65.G)</title><text x="177.075" y="151.067" class="black" >G</text></g>
<g><title>66 (position.label in template: 66.A)</title><text x="184.635" y="151.067" class="black" >A</text></g>
<g><title>67 (position.label in template: 67.U)</title><text x="192.196" y="151.067" class="green" >T</text></g>
<g><title>68 (position.label in template: 68.G)</title><text x="199.756" y="151.067" class="black" >G</text></g>
<g><title>69 (position.label in template: 69.A)</title><text x="207.316" y="151.067" class="black" >A</text></g>
<g><title>70 (position.label in template: 70.G)</title><text x="214.877" y="151.067" class="black" >G</text></g>
<g><title>71 (position.label in template: 71.G)</title><text x="222.437" y="151.067" class="black" >G</text></g>
<g><title>72 (position.label in template: 72.G)</title><text x="229.997" y="151.067" class="black" >G</text></g>
<g><title>73 (position.label in template: 73.3')</title><text x="237.557" y="151.067" class="green" >3'</text></g>
<g><line x1="99.2633" y1="151.042" x2="99.1667" y2="147.564" class="gray" /></g>
<g><line x1="99.0533" y1="143.484" x2="98.9567" y2="140.004" class="gray" /></g>
<g><line x1="98.9567" y1="135.924" x2="99.0533" y2="132.444" class="gray" /></g>
<g><line x1="99.11" y1="128.364" x2="99.11" y2="124.884" class="gray" /></g>
<g><line x1="99.0533" y1="120.804" x2="98.9567" y2="117.324" class="gray" /></g>
<g><line x1="98.9" y1="113.244" x2="98.9" y2="109.764" class="gray" /></g>
<g><line x1="98.9567" y1="105.684" x2="99.0533" y2="102.204" class="gray" /></g>
<g><line x1="99.11" y1="98.1236" x2="99.11" y2="94.6443" class="gray" /></g>
<g><line x1="97.31" y1="91.6432" x2="94.24" y2="90.0047" class="gray" /></g>
<g><line x1="91.1427" y1="87.4691" x2="89.0173" y2="84.8888" class="gray" /></g>
<g><line x1="86.9477" y1="81.4254" x2="85.5723" y2="78.0625" class="gray" /></g>
<g><line x1="82.7843" y1="75.8574" x2="79.5557" y2="75.3505" class="gray" /></g>
<g><line x1="75.5234" y1="74.7235" x2="72.0866" y2="74.1944" class="gray" /></g>
<g><line x1="68.0529" y1="73.5765" x2="64.6071" y2="73.0514" class="gray" /></g>
<g><line x1="60.5695" y1="73.0276" x2="57.1305" y2="73.5103" class="gray" /></g>
<g><line x1="53.7049" y1="72.3146" x2="51.4051" y2="69.8933" class="gray" /></g>
<g><line x1="50.1984" y1="66.3833" x2="50.5316" y2="62.9746" class="gray" /></g>
<g><line x1="52.5448" y1="60.0115" x2="55.8052" y2="58.3364" class="gray" /></g>
<g><line x1="59.4526" y1="58.3009" x2="62.4074" y2="59.747" class="gray" /></g>
<g><line x1="66.2566" y1="60.9544" x2="69.6934" y2="61.4835" class="gray" /></g>
<g><line x1="73.7294" y1="62.0857" x2="77.5806" y2="62.6422" class="gray" /></g>
<g><line x1="81.6157" y1="63.2505" x2="84.8443" y2="63.7574" class="gray" /></g>
<g><line x1="88.0457" y1="62.4135" x2="89.9943" y2="59.6844" class="gray" /></g>
<g><line x1="92.9406" y1="56.9928" x2="96.2494" y2="55.0551" class="gray" /></g>
<g><line x1="100.015" y1="53.6461" x2="103.435" y2="53.0018" class="gray" /></g>
<g><line x1="107.445" y1="53.0018" x2="110.865" y2="53.6461" class="gray" /></g>
<g><line x1="114.601" y1="55.1041" x2="117.549" y2="56.9438" class="gray" /></g>
<g><line x1="120.427" y1="59.7117" x2="122.243" y2="62.3862" class="gray" /></g>
<g><line x1="125.408" y1="63.7747" x2="129.062" y2="63.2331" class="gray" /></g>
<g><line x1="133.097" y1="62.6261" x2="136.533" y2="62.1018" class="gray" /></g>
<g><line x1="140.565" y1="61.4747" x2="143.795" y2="60.9632" class="gray" /></g>
<g><line x1="147.827" y1="60.3361" x2="151.263" y2="59.8118" class="gray" /></g>
<g><line x1="154.448" y1="57.8308" x2="156.572" y2="54.7871" class="gray" /></g>
<g><line x1="159.548" y1="52.1684" x2="162.472" y2="50.6394" class="gray" /></g>
<g><line x1="166.315" y1="49.8397" x2="169.785" y2="50.0882" class="gray" /></g>
<g><line x1="173.493" y1="51.4022" x2="176.347" y2="53.3957" class="gray" /></g>
<g><line x1="178.854" y1="56.4261" x2="180.276" y2="59.6018" class="gray" /></g>
<g><line x1="180.87" y1="63.4901" x2="180.46" y2="66.9478" class="gray" /></g>
<g><line x1="178.974" y1="70.5896" x2="176.846" y2="73.3483" class="gray" /></g>
<g><line x1="173.701" y1="75.7096" x2="170.469" y2="76.9783" class="gray" /></g>
<g><line x1="166.558" y1="77.3827" x2="163.332" y2="76.8352" class="gray" /></g>
<g><line x1="159.742" y1="75.2011" x2="156.928" y2="72.8968" class="gray" /></g>
<g><line x1="153.333" y1="71.9114" x2="149.887" y2="72.4365" class="gray" /></g>
<g><line x1="145.852" y1="73.0435" x2="142.208" y2="73.5844" class="gray" /></g>
<g><line x1="138.173" y1="74.1944" x2="134.737" y2="74.7235" class="gray" /></g>
<g><line x1="130.704" y1="75.35" x2="127.466" y2="75.8579" class="gray" /></g>
<g><line x1="124.776" y1="78.0997" x2="123.624" y2="81.3882" class="gray" /></g>
<g><line x1="121.619" y1="84.8606" x2="119.351" y2="87.4973" class="gray" /></g>
<g><line x1="116.208" y1="89.9816" x2="112.952" y2="91.6663" class="gray" /></g>
<g><line x1="111.253" y1="94.6412" x2="111.447" y2="98.1267" class="gray" /></g>
<g><line x1="111.503" y1="102.204" x2="111.407" y2="105.684" class="gray" /></g>
<g><line x1="111.35" y1="109.764" x2="111.35" y2="113.244" class="gray" /></g>
<g><line x1="111.293" y1="117.324" x2="111.197" y2="120.804" class="gray" /></g>
<g><line x1="111.14" y1="124.884" x2="111.14" y2="128.364" class="gray" /></g>
<g><line x1="111.197" y1="132.444" x2="111.293" y2="135.924" class="gray" /></g>
<g><line x1="111.293" y1="140.004" x2="111.197" y2="143.484" class="gray" /></g>
<g><line x1="112.612" y1="146.937" x2="115.121" y2="149.348" class="gray" /></g>
<g><line x1="118.633" y1="150.761" x2="122.113" y2="150.761" class="gray" /></g>
<g><line x1="126.193" y1="150.761" x2="129.673" y2="150.761" class="gray" /></g>
<g><line x1="133.754" y1="150.761" x2="137.233" y2="150.761" class="gray" /></g>
<g><line x1="141.314" y1="150.761" x2="144.794" y2="150.761" class="gray" /></g>
<g><line x1="148.874" y1="150.761" x2="152.354" y2="150.761" class="gray" /></g>
<g><line x1="156.435" y1="150.761" x2="159.914" y2="150.761" class="gray" /></g>
<g><line x1="163.995" y1="150.761" x2="167.474" y2="150.761" class="gray" /></g>
<g><line x1="171.555" y1="150.761" x2="175.035" y2="150.761" class="gray" /></g>
<g><line x1="179.115" y1="150.761" x2="182.595" y2="150.761" class="gray" /></g>
<g><line x1="186.676" y1="150.761" x2="190.155" y2="150.761" class="gray" /></g>
<g><line x1="194.236" y1="150.761" x2="197.716" y2="150.761" class="gray" /></g>
<g><line x1="201.796" y1="150.761" x2="205.276" y2="150.761" class="gray" /></g>
<g><line x1="209.357" y1="150.761" x2="212.836" y2="150.761" class="gray" /></g>
<g><line x1="216.917" y1="150.761" x2="220.397" y2="150.761" class="gray" /></g>
<g><line x1="224.477" y1="150.761" x2="227.957" y2="150.761" class="gray" /></g>
<g><line x1="232.038" y1="150.761" x2="235.517" y2="150.761" class="gray" /></g>
</svg>
