<svg
	xmlns="http://www.w3.org/2000/svg"
	width="154.13"
	height="298.111">
<g><style type="text/css" >
<!-- create color definitions -->
<![CDATA[
circle.red {stroke: rgb(255, 0, 255); fill: none; }
circle.green {stroke: rgb(0, 255, 0); fill: none; }
circle.blue {stroke: rgb(0, 0, 255); fill: none; }
circle.black {stroke: rgb(0, 0, 0); fill: none; }
circle.gray {stroke: rgb(204, 204, 204); fill: none; }
circle.brown {stroke: rgb(211.65, 104.55, 30.6); fill: none; }
line.red {stroke: rgb(255, 0, 255); stroke-width: 0.3825; }
line.green {stroke: rgb(0, 255, 0); stroke-width: 0.3825; }
line.blue {stroke: rgb(0, 0, 255); stroke-width: 0.3825; }
line.black {stroke: rgb(0, 0, 0); stroke-width: 0.3825; }
line.gray {stroke: rgb(204, 204, 204); stroke-width: 0.3825; }
line.brown {stroke: rgb(211.65, 104.55, 30.6); stroke-width: 0.3825; }
line {stroke: rgb(0, 0, 0); }
text.red {fill: rgb(255, 0, 255); font-size: 3.060000px; font-weight: bold; font-family: Helvetica; }
text.green {fill: rgb(0, 255, 0); font-size: 3.060000px; font-weight: bold; font-family: Helvetica; }
text.blue {fill: rgb(0, 0, 255); font-size: 3.060000px; font-weight: bold; font-family: Helvetica; }
text.black {fill: rgb(0, 0, 0); font-size: 3.060000px; font-weight: bold; font-family: Helvetica; }
text.gray {fill: rgb(204, 204, 204); font-size: 3.060000px; font-weight: bold; font-family: Helvetica; }
text.brown {fill: rgb(211.65, 104.55, 30.6); font-size: 3.060000px; font-weight: bold; font-family: Helvetica; }
text {fill: rgb(0, 0, 0); font-size: 3.060000px; font-weight: bold; font-family: Helvetica; text-anchor: middle; alignment-baseline: middle; }

.pseudoknot_connection{stroke-linecap: round; stroke-opacity: 0.2; stroke-width: 1.5; }
.pseudoknot_segment1{stroke-linecap: round; stroke-opacity: 0.4; stroke-width: 3.06; }
.pseudoknot_segment2{stroke-linecap: round; stroke-opacity: 0.4; stroke-width: 3.06; }
line.numbering-line{stroke: rgb(204, 204, 204); stroke-width: 0.19125; }
line.predicted{stroke: rgb(0, 0, 0); stroke-dasharray: 2; }
polyline{fill: none; stroke-linejoin: round; }
template{visibility: hidden; }
text.numbering-label{fill: rgb(204, 204, 204); }
]]>
</style></g>
<g><title>0 (position.label in template: 0.5')</title><text x="73.48" y="250.531" class="green" >5'</text></g>
<g><title>1 (position.label in template: 1.C)</title><text x="73.48" y="242.97" class="black" >C</text></g>
<g><line x1="75.52" y1="242.664" x2="83.47" y2="242.664" class="black" /></g>
<g><title>2 (position.label in template: 2.C)</title><text x="73.48" y="235.41" class="black" >C</text></g>
<g><line x1="75.52" y1="235.104" x2="83.47" y2="235.104" class="black" /></g>
<g><title>3 (position.label in template: 3.U)</title><text x="73.48" y="227.85" class="green" >T</text></g>
<g><line x1="75.52" y1="227.544" x2="83.88" y2="227.544" class="black" /></g>
<g><title>4 (position.label in template: 4.A)</title><text x="73.68" y="220.29" class="green" >A</text></g>
<g><line x1="75.72" y1="219.984" x2="83.68" y2="219.984" class="black" /></g>
<g><title>5 (position.label in template: 5.U)</title><text x="73.48" y="212.73" class="green" >T</text></g>
<g><line x1="75.52" y1="212.424" x2="83.47" y2="212.424" class="black" /></g>
<g><title>6 (position.label in template: 6.G)</title><text x="67.67" y="207.64" class="black" >G</text></g>
<g><title>7 (position.label in template: 7.G)</title><text x="65.6" y="200.37" class="black" >G</text></g>
<g><title>8 (position.label in template: 8.A)</title><text x="68.09" y="193.1" class="black" >A</text></g>
<g><title>9 (position.label in template: 9.G)</title><text x="73.27" y="188.02" class="black" >G</text></g>
<g><line x1="75.31" y1="187.714" x2="83.68" y2="187.714" class="black" /></g>
<g><title>10 (position.label in template: 10.A)</title><text x="73.68" y="180.46" class="green" >A</text></g>
<g><line x1="75.72" y1="180.154" x2="83.68" y2="180.154" class="black" /></g>
<g><text x="66.795" y="180.46" class="numbering-label sequential" >10</text></g>
<g><line x1="71.844" y1="180.46" x2="68.631" y2="180.46" class="numbering-line sequential" /></g>
<g><title>11 (position.label in template: 11.G)</title><text x="73.27" y="172.9" class="black" >G</text></g>
<g><line x1="75.31" y1="172.594" x2="83.68" y2="172.594" class="black" /></g>
<g><title>12 (position.label in template: 12.U)</title><text x="73.48" y="165.34" class="green" >T</text></g>
<g><line x1="75.52" y1="165.034" x2="83.88" y2="165.034" class="black" /></g>
<g><title>13 (position.label in template: 13.A)</title><text x="73.68" y="157.78" class="green" >A</text></g>
<g><line x1="75.72" y1="157.474" x2="83.68" y2="157.474" class="black" /></g>
<g><title>14 (position.label in template: 14.C)</title><text x="69.03" y="163.89" class="black" >C</text></g>
<g><title>15 (position.label in template: 15.A)</title><text x="62.05" y="166.23" class="black" >A</text></g>
<g><title>16 (position.label in template: 16.G)</title><text x="54.44" y="163.89" class="black" >G</text></g>
<g><title>17 (position.label in template: 17.G)</title><text x="50" y="157.78" class="black" >G</text></g>
<g><title>18 (position.label in template: 18.A)</title><text x="50.42" y="150.22" class="black" >A</text></g>
<g><title>19 (position.label in template: 19.A)</title><text x="54.86" y="144.1" class="black" >A</text></g>
<g><title>20 (position.label in template: 20.C)</title><text x="61.84" y="141.76" class="black" >C</text></g>
<g><text x="61.84" y="134.875" class="numbering-label sequential" >20</text></g>
<g><line x1="61.84" y1="139.924" x2="61.84" y2="136.405" class="numbering-line sequential" /></g>
<g><title>21 (position.label in template: 21.U)</title><text x="69.03" y="144.1" class="green" >T</text></g>
<g><title>22 (position.label in template: 22.U)</title><text x="73.48" y="150.22" class="green" >T</text></g>
<g><line x1="75.52" y1="149.914" x2="83.88" y2="149.914" class="black" /></g>
<g><title>23 (position.label in template: 23.G)</title><text x="73.27" y="142.66" class="black" >G</text></g>
<g><line x1="75.31" y1="142.354" x2="83.68" y2="142.354" class="black" /></g>
<g><title>24 (position.label in template: 24.U)</title><text x="73.48" y="135.1" class="green" >T</text></g>
<g><line x1="75.52" y1="134.794" x2="83.47" y2="134.794" class="black" /></g>
<g><title>25 (position.label in template: 25.G)</title><text x="66.03" y="132.92" class="black" >G</text></g>
<g><title>26 (position.label in template: 26.A)</title><text x="61.2" y="127.47" class="black" >A</text></g>
<g><title>27 (position.label in template: 27.G)</title><text x="58.87" y="120.16" class="black" >G</text></g>
<g><title>28 (position.label in template: 28.U)</title><text x="60.99" y="112.85" class="green" >T</text></g>
<g><title>29 (position.label in template: 29.A)</title><text x="66.44" y="107.4" class="black" >A</text></g>
<g><title>30 (position.label in template: 30.G)</title><text x="73.27" y="105.22" class="black" >G</text></g>
<g><line x1="75.31" y1="104.914" x2="83.68" y2="104.914" class="black" /></g>
<g><text x="67.7444" y="101.113" class="numbering-label sequential" >30</text></g>
<g><line x1="71.7965" y1="104.125" x2="69.5804" y2="102.477" class="numbering-line sequential" /></g>
<g><title>31 (position.label in template: 31.A)</title><text x="73.68" y="97.66" class="green" >A</text></g>
<g><line x1="75.72" y1="97.354" x2="83.68" y2="97.354" class="black" /></g>
<g><title>32 (position.label in template: 32.U)</title><text x="73.48" y="90.1" class="green" >T</text></g>
<g><line x1="75.52" y1="89.794" x2="83.88" y2="89.794" class="black" /></g>
<g><title>33 (position.label in template: 33.A)</title><text x="66.8" y="86.99" class="black" >A</text></g>
<g><title>34 (position.label in template: 34.G)</title><text x="66.38" y="79.43" class="black" >G</text></g>
<g><title>35 (position.label in template: 35.A)</title><text x="73.68" y="76.31" class="green" >A</text></g>
<g><line x1="75.72" y1="76.004" x2="83.68" y2="76.004" class="black" /></g>
<g><title>36 (position.label in template: 36.U)</title><text x="73.48" y="68.75" class="green" >T</text></g>
<g><line x1="75.52" y1="68.444" x2="83.88" y2="68.444" class="black" /></g>
<g><title>37 (position.label in template: 37.A)</title><text x="69.42" y="62.51" class="black" >A</text></g>
<g><title>38 (position.label in template: 38.U)</title><text x="70.15" y="55.01" class="green" >T</text></g>
<g><title>39 (position.label in template: 39.U)</title><text x="75.82" y="50" class="green" >T</text></g>
<g><title>40 (position.label in template: 40.U)</title><text x="83.38" y="50" class="green" >T</text></g>
<g><title>41 (position.label in template: 41.A)</title><text x="89.25" y="55.01" class="black" >A</text></g>
<g><title>42 (position.label in template: 42.U)</title><text x="89.98" y="62.51" class="green" >T</text></g>
<g><title>43 (position.label in template: 43.A)</title><text x="85.92" y="68.75" class="green" >A</text></g>
<g><title>44 (position.label in template: 44.U)</title><text x="85.72" y="76.31" class="green" >T</text></g>
<g><title>45 (position.label in template: 45.C)</title><text x="88.82" y="83.21" class="black" >C</text></g>
<g><title>46 (position.label in template: 46.A)</title><text x="85.92" y="90.1" class="green" >A</text></g>
<g><title>47 (position.label in template: 47.U)</title><text x="85.72" y="97.66" class="green" >T</text></g>
<g><title>48 (position.label in template: 48.C)</title><text x="85.72" y="105.22" class="black" >C</text></g>
<g><title>49 (position.label in template: 49.A)</title><text x="92.05" y="109.65" class="black" >A</text></g>
<g><title>50 (position.label in template: 50.A)</title><text x="95.5" y="116.38" class="black" >A</text></g>
<g><text x="102.193" y="114.764" class="numbering-label sequential" >50</text></g>
<g><line x1="97.2847" y1="115.949" x2="100.357" y2="115.207" class="numbering-line sequential" /></g>
<g><title>51 (position.label in template: 51.A)</title><text x="95.5" y="123.94" class="black" >A</text></g>
<g><title>52 (position.label in template: 52.A)</title><text x="92.05" y="130.67" class="black" >A</text></g>
<g><title>53 (position.label in template: 53.G)</title><text x="85.51" y="135.1" class="green" >G</text></g>
<g><title>54 (position.label in template: 54.C)</title><text x="85.72" y="142.66" class="black" >C</text></g>
<g><title>55 (position.label in template: 55.A)</title><text x="85.92" y="150.22" class="green" >A</text></g>
<g><title>56 (position.label in template: 56.U)</title><text x="85.72" y="157.78" class="green" >T</text></g>
<g><title>57 (position.label in template: 57.A)</title><text x="85.92" y="165.34" class="green" >A</text></g>
<g><title>58 (position.label in template: 58.C)</title><text x="85.72" y="172.9" class="black" >C</text></g>
<g><title>59 (position.label in template: 59.U)</title><text x="85.72" y="180.46" class="green" >T</text></g>
<g><title>60 (position.label in template: 60.C)</title><text x="85.72" y="188.02" class="black" >C</text></g>
<g><title>61 (position.label in template: 61.G)</title><text x="93" y="187.02" class="black" >G</text></g>
<g><title>62 (position.label in template: 62.U)</title><text x="100.07" y="190.22" class="green" >T</text></g>
<g><title>63 (position.label in template: 63.U)</title><text x="104.13" y="196.59" class="green" >T</text></g>
<g><title>64 (position.label in template: 64.G)</title><text x="103.92" y="204.15" class="black" >G</text></g>
<g><title>65 (position.label in template: 65.A)</title><text x="100.27" y="210.53" class="black" >A</text></g>
<g><title>66 (position.label in template: 66.A)</title><text x="93.42" y="213.72" class="black" >A</text></g>
<g><title>67 (position.label in template: 67.G)</title><text x="85.51" y="212.73" class="green" >G</text></g>
<g><title>68 (position.label in template: 68.U)</title><text x="85.72" y="220.29" class="green" >T</text></g>
<g><title>69 (position.label in template: 69.A)</title><text x="85.92" y="227.85" class="green" >A</text></g>
<g><title>70 (position.label in template: 70.G)</title><text x="85.51" y="235.41" class="black" >G</text></g>
<g><title>71 (position.label in template: 71.G)</title><text x="85.51" y="242.97" class="black" >G</text></g>
<g><title>72 (position.label in template: 72.A)</title><text x="91.0551" y="248.111" class="black" >A</text></g>
<g><title>73 (position.label in template: 73.A)</title><text x="98.6166" y="248.111" class="black" >A</text></g>
<g><title>74 (position.label in template: 74.3')</title><text x="106.178" y="248.111" class="green" >3'</text></g>
<g><line x1="73.48" y1="248.185" x2="73.48" y2="244.704" class="gray" /></g>
<g><line x1="73.48" y1="240.624" x2="73.48" y2="237.144" class="gray" /></g>
<g><line x1="73.48" y1="233.064" x2="73.48" y2="229.584" class="gray" /></g>
<g><line x1="73.5339" y1="225.505" x2="73.6261" y2="222.023" class="gray" /></g>
<g><line x1="73.6261" y1="217.945" x2="73.5339" y2="214.463" class="gray" /></g>
<g><line x1="71.9456" y1="211.08" x2="69.2044" y2="208.678" class="gray" /></g>
<g><line x1="67.1114" y1="205.372" x2="66.1586" y2="202.026" class="gray" /></g>
<g><line x1="66.261" y1="198.134" x2="67.429" y2="194.724" class="gray" /></g>
<g><line x1="69.5465" y1="191.366" x2="71.8135" y2="189.142" class="gray" /></g>
<g><line x1="73.3805" y1="185.677" x2="73.5695" y2="182.191" class="gray" /></g>
<g><line x1="73.5695" y1="178.117" x2="73.3805" y2="174.631" class="gray" /></g>
<g><line x1="73.3266" y1="170.555" x2="73.4234" y2="167.073" class="gray" /></g>
<g><line x1="73.5339" y1="162.995" x2="73.6261" y2="159.513" class="gray" /></g>
<g><line x1="72.4446" y1="159.097" x2="70.2654" y2="161.961" class="gray" /></g>
<g><line x1="67.0958" y1="164.232" x2="63.9842" y2="165.276" class="gray" /></g>
<g><line x1="60.1001" y1="165.324" x2="56.3899" y2="164.184" class="gray" /></g>
<g><line x1="53.2408" y1="161.934" x2="51.1992" y2="159.124" class="gray" /></g>
<g><line x1="50.1132" y1="155.437" x2="50.3068" y2="151.951" class="gray" /></g>
<g><line x1="51.6179" y1="148.263" x2="53.6621" y2="145.445" class="gray" /></g>
<g><line x1="56.7942" y1="143.146" x2="59.9058" y2="142.102" class="gray" /></g>
<g><line x1="63.7799" y1="142.085" x2="67.0901" y2="143.163" class="gray" /></g>
<g><line x1="70.2297" y1="145.444" x2="72.2803" y2="148.264" class="gray" /></g>
<g><line x1="73.4234" y1="147.875" x2="73.3266" y2="144.393" class="gray" /></g>
<g><line x1="73.3266" y1="140.315" x2="73.4234" y2="136.833" class="gray" /></g>
<g><line x1="71.5221" y1="134.221" x2="67.9879" y2="133.187" class="gray" /></g>
<g><line x1="64.677" y1="131.087" x2="62.553" y2="128.691" class="gray" /></g>
<g><line x1="60.5805" y1="125.22" x2="59.4895" y2="121.798" class="gray" /></g>
<g><line x1="59.4382" y1="117.895" x2="60.4218" y2="114.503" class="gray" /></g>
<g><line x1="62.4325" y1="111.102" x2="64.9975" y2="108.536" class="gray" /></g>
<g><line x1="68.3834" y1="106.474" x2="71.3266" y2="105.534" class="gray" /></g>
<g><line x1="73.3805" y1="102.877" x2="73.5695" y2="99.391" class="gray" /></g>
<g><line x1="73.6261" y1="95.3147" x2="73.5339" y2="91.8333" class="gray" /></g>
<g><line x1="71.6306" y1="88.933" x2="68.6494" y2="87.545" class="gray" /></g>
<g><line x1="66.6868" y1="84.6471" x2="66.4932" y2="81.1609" class="gray" /></g>
<g><line x1="68.2559" y1="78.3223" x2="71.8041" y2="76.8057" class="gray" /></g>
<g><line x1="73.6261" y1="73.9647" x2="73.5339" y2="70.4833" class="gray" /></g>
<g><line x1="72.3675" y1="66.7341" x2="70.5325" y2="63.9139" class="gray" /></g>
<g><line x1="69.6176" y1="60.1736" x2="69.9524" y2="56.7344" class="gray" /></g>
<g><line x1="71.6787" y1="53.3532" x2="74.2913" y2="51.0448" class="gray" /></g>
<g><line x1="77.86" y1="49.694" x2="81.34" y2="49.694" class="gray" /></g>
<g><line x1="84.9317" y1="51.0183" x2="87.6983" y2="53.3797" class="gray" /></g>
<g><line x1="89.4476" y1="56.7344" x2="89.7824" y2="60.1736" class="gray" /></g>
<g><line x1="88.8675" y1="63.9139" x2="87.0325" y2="66.7341" class="gray" /></g>
<g><line x1="85.8661" y1="70.4833" x2="85.7739" y2="73.9647" class="gray" /></g>
<g><line x1="86.556" y1="77.8648" x2="87.984" y2="81.0432" class="gray" /></g>
<g><line x1="88.0286" y1="84.7842" x2="86.7114" y2="87.9138" class="gray" /></g>
<g><line x1="85.8661" y1="91.8333" x2="85.7739" y2="95.3147" class="gray" /></g>
<g><line x1="85.72" y1="99.394" x2="85.72" y2="102.874" class="gray" /></g>
<g><line x1="87.3914" y1="106.084" x2="90.3786" y2="108.174" class="gray" /></g>
<g><line x1="92.9806" y1="111.159" x2="94.5694" y2="114.259" class="gray" /></g>
<g><line x1="95.5" y1="118.114" x2="95.5" y2="121.594" class="gray" /></g>
<g><line x1="94.5694" y1="125.449" x2="92.9806" y2="128.549" class="gray" /></g>
<g><line x1="90.361" y1="131.508" x2="87.199" y2="133.65" class="gray" /></g>
<g><line x1="85.5666" y1="136.833" x2="85.6634" y2="140.315" class="gray" /></g>
<g><line x1="85.7739" y1="144.393" x2="85.8661" y2="147.875" class="gray" /></g>
<g><line x1="85.8661" y1="151.953" x2="85.7739" y2="155.435" class="gray" /></g>
<g><line x1="85.7739" y1="159.513" x2="85.8661" y2="162.995" class="gray" /></g>
<g><line x1="85.8661" y1="167.073" x2="85.7739" y2="170.555" class="gray" /></g>
<g><line x1="85.72" y1="174.634" x2="85.72" y2="178.114" class="gray" /></g>
<g><line x1="85.72" y1="182.194" x2="85.72" y2="185.674" class="gray" /></g>
<g><line x1="87.741" y1="187.436" x2="90.979" y2="186.992" class="gray" /></g>
<g><line x1="94.8585" y1="187.555" x2="98.2115" y2="189.073" class="gray" /></g>
<g><line x1="101.166" y1="191.634" x2="103.034" y2="194.564" class="gray" /></g>
<g><line x1="104.073" y1="198.323" x2="103.977" y2="201.805" class="gray" /></g>
<g><line x1="102.907" y1="205.615" x2="101.283" y2="208.453" class="gray" /></g>
<g><line x1="98.4207" y1="211.085" x2="95.2693" y2="212.553" class="gray" /></g>
<g><line x1="91.3958" y1="213.161" x2="87.5342" y2="212.677" class="gray" /></g>
<g><line x1="85.5666" y1="214.463" x2="85.6634" y2="217.945" class="gray" /></g>
<g><line x1="85.7739" y1="222.023" x2="85.8661" y2="225.505" class="gray" /></g>
<g><line x1="85.8095" y1="229.581" x2="85.6205" y2="233.067" class="gray" /></g>
<g><line x1="85.51" y1="237.144" x2="85.51" y2="240.624" class="gray" /></g>
<g><line x1="87.006" y1="244.051" x2="89.5591" y2="246.418" class="gray" /></g>
<g><line x1="93.0951" y1="247.805" x2="96.5766" y2="247.805" class="gray" /></g>
<g><line x1="100.657" y1="247.805" x2="104.138" y2="247.805" class="gray" /></g>
</svg>
