<svg
	xmlns="http://www.w3.org/2000/svg"
	width="276.795"
	height="194.238">
<g><style type="text/css" >
<!-- create color definitions -->
<![CDATA[
circle.red {stroke: rgb(255, 0, 255); fill: none; }
circle.green {stroke: rgb(0, 255, 0); fill: none; }
circle.blue {stroke: rgb(0, 0, 255); fill: none; }
circle.black {stroke: rgb(0, 0, 0); fill: none; }
circle.gray {stroke: rgb(204, 204, 204); fill: none; }
circle.brown {stroke: rgb(211.65, 104.55, 30.6); fill: none; }
line.red {stroke: rgb(255, 0, 255); stroke-width: 0.378966; }
line.green {stroke: rgb(0, 255, 0); stroke-width: 0.378966; }
line.blue {stroke: rgb(0, 0, 255); stroke-width: 0.378966; }
line.black {stroke: rgb(0, 0, 0); stroke-width: 0.378966; }
line.gray {stroke: rgb(204, 204, 204); stroke-width: 0.378966; }
line.brown {stroke: rgb(211.65, 104.55, 30.6); stroke-width: 0.378966; }
line {stroke: rgb(0, 0, 0); }
text.red {fill: rgb(255, 0, 255); font-size: 3.031731px; font-weight: bold; font-family: Helvetica; }
text.green {fill: rgb(0, 255, 0); font-size: 3.031731px; font-weight: bold; font-family: Helvetica; }
text.blue {fill: rgb(0, 0, 255); font-size: 3.031731px; font-weight: bold; font-family: Helvetica; }
text.black {fill: rgb(0, 0, 0); font-size: 3.031731px; font-weight: bold; font-family: Helvetica; }
text.gray {fill: rgb(204, 204, 204); font-size: 3.031731px; font-weight: bold; font-family: Helvetica; }
text.brown {fill: rgb(211.65, 104.55, 30.6); font-size: 3.031731px; font-weight: bold; font-family: Helvetica; }
text {fill: rgb(0, 0, 0); font-size: 3.031731px; font-weight: bold; font-family: Helvetica; text-anchor: middle; alignment-baseline: middle; }

.pseudoknot_connection{stroke-linecap: round; stroke-opacity: 0.2; stroke-width: 1.5; }
.pseudoknot_segment1{stroke-linecap: round; stroke-opacity: 0.4; stroke-width: 3.03173; }
.pseudoknot_segment2{stroke-linecap: round; stroke-opacity: 0.4; stroke-width: 3.03173; }
line.numbering-line{stroke: rgb(204, 204, 204); stroke-width: 0.189483; }
line.predicted{stroke: rgb(0, 0, 0); stroke-dasharray: 2; }
polyline{fill: none; stroke-linejoin: round; }
template{visibility: hidden; }
text.numbering-label{fill: rgb(204, 204, 204); }
]]>
</style></g>
<g><title>0 (position.label in template: 0.5')</title><text x="42.4385" y="144.238" class="green" >5'</text></g>
<g><title>1 (position.label in template: 1.U)</title><text x="50" y="144.238" class="green" >T</text></g>
<g><title>2 (position.label in template: 2.U)</title><text x="57.5615" y="144.238" class="green" >T</text></g>
<g><title>3 (position.label in template: 3.A)</title><text x="65.1229" y="144.238" class="black" >A</text></g>
<g><title>4 (position.label in template: 4.C)</title><text x="72.6844" y="144.238" class="black" >C</text></g>
<g><title>5 (position.label in template: 5.G)</title><text x="80.2458" y="144.238" class="black" >G</text></g>
<g><title>6 (position.label in template: 6.U)</title><text x="87.8073" y="144.238" class="green" >T</text></g>
<g><title>7 (position.label in template: 7.U)</title><text x="95.3687" y="144.238" class="green" >T</text></g>
<g><title>8 (position.label in template: 8.C)</title><text x="102.93" y="144.238" class="black" >C</text></g>
<g><title>9 (position.label in template: 9.A)</title><text x="110.492" y="144.238" class="black" >A</text></g>
<g><title>10 (position.label in template: 10.U)</title><text x="115.735" y="138.79" class="green" >T</text></g>
<g><line x1="117.757" y1="138.487" x2="126.164" y2="138.487" class="black" /></g>
<g><text x="109.409" y="136.24" class="numbering-label sequential" >10</text></g>
<g><line x1="114.048" y1="138.11" x2="111.228" y2="136.973" class="numbering-line sequential" /></g>
<g><title>11 (position.label in template: 11.C)</title><text x="115.735" y="131.23" class="black" >C</text></g>
<g><line x1="117.757" y1="130.927" x2="125.744" y2="130.927" class="black" /></g>
<g><title>12 (position.label in template: 12.C)</title><text x="115.735" y="123.67" class="black" >C</text></g>
<g><line x1="117.757" y1="123.367" x2="125.744" y2="123.367" class="black" /></g>
<g><title>13 (position.label in template: 13.A)</title><text x="115.945" y="116.11" class="green" >A</text></g>
<g><line x1="117.967" y1="115.807" x2="125.954" y2="115.807" class="black" /></g>
<g><title>14 (position.label in template: 14.U)</title><text x="115.735" y="108.55" class="green" >T</text></g>
<g><line x1="117.757" y1="108.247" x2="126.164" y2="108.247" class="black" /></g>
<g><title>15 (position.label in template: 15.A)</title><text x="108.805" y="106.06" class="black" >A</text></g>
<g><title>16 (position.label in template: 16.C)</title><text x="102.315" y="101.86" class="black" >C</text></g>
<g><title>17 (position.label in template: 17.A)</title><text x="97.5054" y="96.2" class="black" >A</text></g>
<g><title>18 (position.label in template: 18.U)</title><text x="93.8754" y="89.46" class="green" >T</text></g>
<g><title>19 (position.label in template: 19.A)</title><text x="92.4654" y="82.07" class="black" >A</text></g>
<g><title>20 (position.label in template: 20.A)</title><text x="92.7654" y="74.52" class="black" >A</text></g>
<g><text x="86.0245" y="73.4756" class="numbering-label sequential" >20</text></g>
<g><line x1="90.9678" y1="74.2415" x2="87.8435" y2="73.7574" class="numbering-line sequential" /></g>
<g><title>21 (position.label in template: 21.C)</title><text x="94.7554" y="67.29" class="black" >C</text></g>
<g><title>22 (position.label in template: 22.C)</title><text x="98.7154" y="60.84" class="black" >C</text></g>
<g><title>23 (position.label in template: 23.U)</title><text x="104.165" y="55.61" class="green" >T</text></g>
<g><title>24 (position.label in template: 24.A)</title><text x="110.965" y="51.91" class="black" >A</text></g>
<g><title>25 (position.label in template: 25.A)</title><text x="118.285" y="50" class="black" >A</text></g>
<g><title>26 (position.label in template: 26.U)</title><text x="125.635" y="50" class="green" >T</text></g>
<g><title>27 (position.label in template: 27.A)</title><text x="133.155" y="51.91" class="black" >A</text></g>
<g><title>28 (position.label in template: 28.A)</title><text x="139.755" y="55.61" class="black" >A</text></g>
<g><title>29 (position.label in template: 29.C)</title><text x="144.995" y="60.84" class="black" >C</text></g>
<g><title>30 (position.label in template: 30.A)</title><text x="149.155" y="67.29" class="black" >A</text></g>
<g><text x="155.411" y="64.5693" class="numbering-label sequential" >30</text></g>
<g><line x1="150.824" y1="66.5645" x2="153.592" y2="65.3605" class="numbering-line sequential" /></g>
<g><title>31 (position.label in template: 31.G)</title><text x="150.945" y="74.52" class="black" >G</text></g>
<g><title>32 (position.label in template: 32.G)</title><text x="151.245" y="82.07" class="black" >G</text></g>
<g><title>33 (position.label in template: 33.U)</title><text x="149.835" y="89.46" class="green" >T</text></g>
<g><title>34 (position.label in template: 34.U)</title><text x="146.415" y="96.2" class="green" >T</text></g>
<g><title>35 (position.label in template: 35.G)</title><text x="141.185" y="101.86" class="black" >G</text></g>
<g><title>36 (position.label in template: 36.U)</title><text x="135.115" y="106.06" class="green" >T</text></g>
<g><title>37 (position.label in template: 37.A)</title><text x="128.185" y="108.55" class="green" >A</text></g>
<g><title>38 (position.label in template: 38.U)</title><text x="127.975" y="116.11" class="green" >T</text></g>
<g><title>39 (position.label in template: 39.G)</title><text x="127.765" y="123.67" class="black" >G</text></g>
<g><title>40 (position.label in template: 40.G)</title><text x="127.765" y="131.23" class="black" >G</text></g>
<g><title>41 (position.label in template: 41.A)</title><text x="128.185" y="138.79" class="green" >A</text></g>
<g><title>42 (position.label in template: 42.C)</title><text x="133.325" y="144.13" class="black" >C</text></g>
<g><title>43 (position.label in template: 43.G)</title><text x="140.675" y="144.13" class="black" >G</text></g>
<g><title>44 (position.label in template: 44.C)</title><text x="148.445" y="144.13" class="black" >C</text></g>
<g><title>45 (position.label in template: 45.A)</title><text x="156.205" y="144.13" class="black" >A</text></g>
<g><title>46 (position.label in template: 46.U)</title><text x="163.565" y="144.13" class="green" >T</text></g>
<g><title>47 (position.label in template: 47.C)</title><text x="171.125" y="144.13" class="black" >C</text></g>
<g><title>48 (position.label in template: 48.A)</title><text x="178.885" y="144.13" class="black" >A</text></g>
<g><title>49 (position.label in template: 49.A)</title><text x="186.445" y="144.13" class="black" >A</text></g>
<g><title>50 (position.label in template: 50.U)</title><text x="193.805" y="144.13" class="green" >T</text></g>
<g><text x="193.805" y="150.951" class="numbering-label sequential" >50</text></g>
<g><line x1="193.805" y1="145.949" x2="193.805" y2="149.436" class="numbering-line sequential" /></g>
<g><title>51 (position.label in template: 51.A)</title><text x="201.565" y="144.13" class="black" >A</text></g>
<g><title>52 (position.label in template: 52.C)</title><text x="206.705" y="138.79" class="black" >C</text></g>
<g><line x1="208.727" y1="138.487" x2="216.714" y2="138.487" class="black" /></g>
<g><title>53 (position.label in template: 53.A)</title><text x="206.915" y="131.23" class="green" >A</text></g>
<g><line x1="208.937" y1="130.927" x2="216.924" y2="130.927" class="black" /></g>
<g><title>54 (position.label in template: 54.U)</title><text x="206.705" y="123.67" class="green" >T</text></g>
<g><line x1="208.727" y1="123.367" x2="216.714" y2="123.367" class="black" /></g>
<g><title>55 (position.label in template: 55.U)</title><text x="206.705" y="116.11" class="green" >T</text></g>
<g><line x1="208.727" y1="115.807" x2="216.714" y2="115.807" class="black" /></g>
<g><title>56 (position.label in template: 56.A)</title><text x="206.915" y="108.55" class="green" >A</text></g>
<g><line x1="208.937" y1="108.247" x2="216.924" y2="108.247" class="black" /></g>
<g><title>57 (position.label in template: 57.U)</title><text x="206.705" y="100.99" class="green" >T</text></g>
<g><line x1="208.727" y1="100.687" x2="217.134" y2="100.687" class="black" /></g>
<g><title>58 (position.label in template: 58.U)</title><text x="206.705" y="93.43" class="green" >T</text></g>
<g><line x1="208.727" y1="93.1268" x2="216.714" y2="93.1268" class="black" /></g>
<g><title>59 (position.label in template: 59.C)</title><text x="206.705" y="85.87" class="black" >C</text></g>
<g><line x1="208.727" y1="85.5668" x2="216.714" y2="85.5668" class="black" /></g>
<g><title>60 (position.label in template: 60.A)</title><text x="201.205" y="80.91" class="black" >A</text></g>
<g><title>61 (position.label in template: 61.G)</title><text x="198.435" y="73.72" class="black" >G</text></g>
<g><title>62 (position.label in template: 62.G)</title><text x="200.115" y="66.35" class="black" >G</text></g>
<g><title>63 (position.label in template: 63.G)</title><text x="205.335" y="60.88" class="black" >G</text></g>
<g><title>64 (position.label in template: 64.A)</title><text x="213.035" y="58.87" class="black" >A</text></g>
<g><title>65 (position.label in template: 65.A)</title><text x="220.325" y="60.88" class="black" >A</text></g>
<g><title>66 (position.label in template: 66.C)</title><text x="225.335" y="66.35" class="black" >C</text></g>
<g><title>67 (position.label in template: 67.G)</title><text x="226.795" y="73.72" class="black" >G</text></g>
<g><title>68 (position.label in template: 68.G)</title><text x="224.445" y="80.91" class="black" >G</text></g>
<g><title>69 (position.label in template: 69.G)</title><text x="218.735" y="85.87" class="black" >G</text></g>
<g><title>70 (position.label in template: 70.G)</title><text x="218.735" y="93.43" class="green" >G</text></g>
<g><title>71 (position.label in template: 71.G)</title><text x="225.285" y="97.21" class="black" >G</text></g>
<g><title>72 (position.label in template: 72.A)</title><text x="219.155" y="100.99" class="green" >A</text></g>
<g><title>73 (position.label in template: 73.U)</title><text x="218.945" y="108.55" class="green" >T</text></g>
<g><title>74 (position.label in template: 74.G)</title><text x="218.735" y="116.11" class="green" >G</text></g>
<g><title>75 (position.label in template: 75.G)</title><text x="218.735" y="123.67" class="green" >G</text></g>
<g><title>76 (position.label in template: 76.U)</title><text x="218.945" y="131.23" class="green" >T</text></g>
<g><title>77 (position.label in template: 77.G)</title><text x="218.735" y="138.79" class="black" >G</text></g>
<g><title>78 (position.label in template: 78.3')</title><text x="225.956" y="136.544" class="green" >3'</text></g>
<g><line x1="44.4597" y1="143.935" x2="47.9788" y2="143.935" class="gray" /></g>
<g><line x1="52.0212" y1="143.935" x2="55.5403" y2="143.935" class="gray" /></g>
<g><line x1="59.5826" y1="143.935" x2="63.1018" y2="143.935" class="gray" /></g>
<g><line x1="67.1441" y1="143.935" x2="70.6632" y2="143.935" class="gray" /></g>
<g><line x1="74.7055" y1="143.935" x2="78.2247" y2="143.935" class="gray" /></g>
<g><line x1="82.267" y1="143.935" x2="85.7861" y2="143.935" class="gray" /></g>
<g><line x1="89.8284" y1="143.935" x2="93.3476" y2="143.935" class="gray" /></g>
<g><line x1="97.3899" y1="143.935" x2="100.909" y2="143.935" class="gray" /></g>
<g><line x1="104.951" y1="143.935" x2="108.471" y2="143.935" class="gray" /></g>
<g><line x1="111.893" y1="142.478" x2="114.334" y2="139.943" class="gray" /></g>
<g><line x1="115.735" y1="136.466" x2="115.735" y2="132.948" class="gray" /></g>
<g><line x1="115.735" y1="128.906" x2="115.735" y2="125.388" class="gray" /></g>
<g><line x1="115.792" y1="121.346" x2="115.889" y2="117.827" class="gray" /></g>
<g><line x1="115.889" y1="113.786" x2="115.792" y2="110.267" class="gray" /></g>
<g><line x1="113.833" y1="107.563" x2="110.708" y2="106.44" class="gray" /></g>
<g><line x1="107.109" y1="104.659" x2="104.012" y2="102.655" class="gray" /></g>
<g><line x1="101.007" y1="100.017" x2="98.8143" y2="97.437" class="gray" /></g>
<g><line x1="96.547" y1="94.1173" x2="94.8338" y2="90.9363" class="gray" /></g>
<g><line x1="93.4966" y1="87.1715" x2="92.8442" y2="83.7522" class="gray" /></g>
<g><line x1="92.5457" y1="79.7473" x2="92.6852" y2="76.2364" class="gray" /></g>
<g><line x1="93.3018" y1="72.2681" x2="94.2191" y2="68.9355" class="gray" /></g>
<g><line x1="95.8129" y1="65.2644" x2="97.6579" y2="62.2593" class="gray" /></g>
<g><line x1="100.174" y1="59.1374" x2="102.707" y2="56.7063" class="gray" /></g>
<g><line x1="105.941" y1="54.3408" x2="109.19" y2="52.5728" class="gray" /></g>
<g><line x1="112.921" y1="51.0965" x2="116.33" y2="50.2071" class="gray" /></g>
<g><line x1="120.307" y1="49.6968" x2="123.614" y2="49.6968" class="gray" /></g>
<g><line x1="127.594" y1="50.1944" x2="131.196" y2="51.1093" class="gray" /></g>
<g><line x1="134.918" y1="52.5952" x2="137.992" y2="54.3185" class="gray" /></g>
<g><line x1="141.186" y1="56.7346" x2="143.565" y2="59.109" class="gray" /></g>
<g><line x1="146.091" y1="62.2354" x2="148.06" y2="65.2883" class="gray" /></g>
<g><line x1="149.641" y1="68.9487" x2="150.46" y2="72.2549" class="gray" /></g>
<g><line x1="151.026" y1="76.2364" x2="151.165" y2="79.7473" class="gray" /></g>
<g><line x1="150.867" y1="83.7522" x2="150.214" y2="87.1715" class="gray" /></g>
<g><line x1="148.921" y1="90.9592" x2="147.33" y2="94.0944" class="gray" /></g>
<g><line x1="145.044" y1="97.3813" x2="142.557" y2="100.072" class="gray" /></g>
<g><line x1="139.523" y1="102.707" x2="136.778" y2="104.607" class="gray" /></g>
<g><line x1="133.213" y1="106.44" x2="130.088" y2="107.563" class="gray" /></g>
<g><line x1="128.129" y1="110.267" x2="128.032" y2="113.786" class="gray" /></g>
<g><line x1="127.919" y1="117.827" x2="127.822" y2="121.346" class="gray" /></g>
<g><line x1="127.765" y1="125.388" x2="127.765" y2="128.906" class="gray" /></g>
<g><line x1="127.878" y1="132.945" x2="128.073" y2="136.469" class="gray" /></g>
<g><line x1="129.587" y1="139.943" x2="131.924" y2="142.371" class="gray" /></g>
<g><line x1="135.347" y1="143.827" x2="138.654" y2="143.827" class="gray" /></g>
<g><line x1="142.697" y1="143.827" x2="146.424" y2="143.827" class="gray" /></g>
<g><line x1="150.467" y1="143.827" x2="154.184" y2="143.827" class="gray" /></g>
<g><line x1="158.227" y1="143.827" x2="161.544" y2="143.827" class="gray" /></g>
<g><line x1="165.587" y1="143.827" x2="169.104" y2="143.827" class="gray" /></g>
<g><line x1="173.147" y1="143.827" x2="176.864" y2="143.827" class="gray" /></g>
<g><line x1="180.907" y1="143.827" x2="184.424" y2="143.827" class="gray" /></g>
<g><line x1="188.467" y1="143.827" x2="191.784" y2="143.827" class="gray" /></g>
<g><line x1="195.827" y1="143.827" x2="199.544" y2="143.827" class="gray" /></g>
<g><line x1="202.967" y1="142.371" x2="205.304" y2="139.943" class="gray" /></g>
<g><line x1="206.762" y1="136.466" x2="206.859" y2="132.947" class="gray" /></g>
<g><line x1="206.859" y1="128.906" x2="206.762" y2="125.387" class="gray" /></g>
<g><line x1="206.705" y1="121.346" x2="206.705" y2="117.828" class="gray" /></g>
<g><line x1="206.762" y1="113.786" x2="206.859" y2="110.267" class="gray" /></g>
<g><line x1="206.859" y1="106.226" x2="206.762" y2="102.707" class="gray" /></g>
<g><line x1="206.705" y1="98.6657" x2="206.705" y2="95.148" class="gray" /></g>
<g><line x1="206.705" y1="91.1057" x2="206.705" y2="87.588" class="gray" /></g>
<g><line x1="205.204" y1="84.2132" x2="202.706" y2="81.9604" class="gray" /></g>
<g><line x1="200.479" y1="78.7208" x2="199.162" y2="75.3029" class="gray" /></g>
<g><line x1="198.885" y1="71.4462" x2="199.666" y2="68.0174" class="gray" /></g>
<g><line x1="201.511" y1="64.5846" x2="203.94" y2="62.039" class="gray" /></g>
<g><line x1="207.291" y1="60.0663" x2="211.08" y2="59.0773" class="gray" /></g>
<g><line x1="214.984" y1="59.1041" x2="218.377" y2="60.0396" class="gray" /></g>
<g><line x1="221.691" y1="62.0673" x2="223.97" y2="64.5564" class="gray" /></g>
<g><line x1="225.728" y1="68.0295" x2="226.403" y2="71.4342" class="gray" /></g>
<g><line x1="226.168" y1="75.338" x2="225.073" y2="78.6857" class="gray" /></g>
<g><line x1="222.92" y1="81.9323" x2="220.261" y2="84.2414" class="gray" /></g>
<g><line x1="218.735" y1="87.588" x2="218.735" y2="91.1057" class="gray" /></g>
<g><line x1="220.486" y1="94.1371" x2="223.535" y2="95.8966" class="gray" /></g>
<g><line x1="223.565" y1="97.9677" x2="220.876" y2="99.626" class="gray" /></g>
<g><line x1="219.099" y1="102.707" x2="219.002" y2="106.226" class="gray" /></g>
<g><line x1="218.889" y1="110.267" x2="218.792" y2="113.786" class="gray" /></g>
<g><line x1="218.735" y1="117.828" x2="218.735" y2="121.346" class="gray" /></g>
<g><line x1="218.792" y1="125.387" x2="218.889" y2="128.906" class="gray" /></g>
<g><line x1="218.889" y1="132.947" x2="218.792" y2="136.466" class="gray" /></g>
<g><line x1="220.665" y1="137.887" x2="224.026" y2="136.841" class="gray" /></g>
</svg>
