<svg
	xmlns="http://www.w3.org/2000/svg"
	width="289.374"
	height="217.798">
<g><style type="text/css" >
<!-- create color definitions -->
<![CDATA[
circle.red {stroke: rgb(255, 0, 255); fill: none; }
circle.green {stroke: rgb(0, 255, 0); fill: none; }
circle.blue {stroke: rgb(0, 0, 255); fill: none; }
circle.black {stroke: rgb(0, 0, 0); fill: none; }
circle.gray {stroke: rgb(204, 204, 204); fill: none; }
circle.brown {stroke: rgb(211.65, 104.55, 30.6); fill: none; }
line.red {stroke: rgb(255, 0, 255); stroke-width: 0.385125; }
line.green {stroke: rgb(0, 255, 0); stroke-width: 0.385125; }
line.blue {stroke: rgb(0, 0, 255); stroke-width: 0.385125; }
line.black {stroke: rgb(0, 0, 0); stroke-width: 0.385125; }
line.gray {stroke: rgb(204, 204, 204); stroke-width: 0.385125; }
line.brown {stroke: rgb(211.65, 104.55, 30.6); stroke-width: 0.385125; }
line {stroke: rgb(0, 0, 0); }
text.red {fill: rgb(255, 0, 255); font-size: 3.081000px; font-weight: bold; font-family: Helvetica; }
text.green {fill: rgb(0, 255, 0); font-size: 3.081000px; font-weight: bold; font-family: Helvetica; }
text.blue {fill: rgb(0, 0, 255); font-size: 3.081000px; font-weight: bold; font-family: Helvetica; }
text.black {fill: rgb(0, 0, 0); font-size: 3.081000px; font-weight: bold; font-family: Helvetica; }
text.gray {fill: rgb(204, 204, 204); font-size: 3.081000px; font-weight: bold; font-family: Helvetica; }
text.brown {fill: rgb(211.65, 104.55, 30.6); font-size: 3.081000px; font-weight: bold; font-family: Helvetica; }
text {fill: rgb(0, 0, 0); font-size: 3.081000px; font-weight: bold; font-family: Helvetica; text-anchor: middle; alignment-baseline: middle; }

.pseudoknot_connection{stroke-linecap: round; stroke-opacity: 0.2; stroke-width: 1.5; }
.pseudoknot_segment1{stroke-linecap: round; stroke-opacity: 0.4; stroke-width: 3.081; }
.pseudoknot_segment2{stroke-linecap: round; stroke-opacity: 0.4; stroke-width: 3.081; }
line.numbering-line{stroke: rgb(204, 204, 204); stroke-width: 0.192563; }
line.predicted{stroke: rgb(0, 0, 0); stroke-dasharray: 2; }
polyline{fill: none; stroke-linejoin: round; }
template{visibility: hidden; }
text.numbering-label{fill: rgb(204, 204, 204); }
]]>
</style></g>
<g><title>0 (position.label in template: 0.5')</title><text x="42.4389" y="167.798" class="green" >5'</text></g>
<g><title>1 (position.label in template: 1.U)</title><text x="50" y="167.798" class="green" >T</text></g>
<g><title>2 (position.label in template: 2.A)</title><text x="57.5611" y="167.798" class="black" >A</text></g>
<g><title>3 (position.label in template: 3.A)</title><text x="65.1222" y="167.798" class="black" >A</text></g>
<g><title>4 (position.label in template: 4.U)</title><text x="72.6833" y="167.798" class="green" >T</text></g>
<g><title>5 (position.label in template: 5.U)</title><text x="80.2444" y="167.798" class="green" >T</text></g>
<g><title>6 (position.label in template: 6.A)</title><text x="87.8055" y="167.798" class="black" >A</text></g>
<g><title>7 (position.label in template: 7.A)</title><text x="95.3666" y="167.798" class="black" >A</text></g>
<g><title>8 (position.label in template: 8.A)</title><text x="102.928" y="167.798" class="black" >A</text></g>
<g><title>9 (position.label in template: 9.A)</title><text x="110.489" y="167.798" class="black" >A</text></g>
<g><title>10 (position.label in template: 10.G)</title><text x="118.05" y="167.798" class="black" >G</text></g>
<g><text x="118.05" y="174.73" class="numbering-label sequential" >10</text></g>
<g><line x1="118.05" y1="169.646" x2="118.05" y2="173.189" class="numbering-line sequential" /></g>
<g><title>11 (position.label in template: 11.G)</title><text x="125.611" y="167.798" class="black" >G</text></g>
<g><title>12 (position.label in template: 12.A)</title><text x="133.172" y="167.798" class="black" >A</text></g>
<g><title>13 (position.label in template: 13.A)</title><text x="140.733" y="167.798" class="black" >A</text></g>
<g><title>14 (position.label in template: 14.A)</title><text x="148.294" y="167.798" class="black" >A</text></g>
<g><title>15 (position.label in template: 15.U)</title><text x="155.855" y="167.798" class="green" >T</text></g>
<g><title>16 (position.label in template: 16.G)</title><text x="161.088" y="162.34" class="black" >G</text></g>
<g><line x1="163.142" y1="162.032" x2="171.484" y2="162.032" class="black" /></g>
<g><title>17 (position.label in template: 17.G)</title><text x="161.088" y="154.78" class="black" >G</text></g>
<g><line x1="163.142" y1="154.472" x2="171.484" y2="154.472" class="black" /></g>
<g><title>18 (position.label in template: 18.U)</title><text x="161.298" y="147.22" class="green" >T</text></g>
<g><line x1="163.352" y1="146.912" x2="171.274" y2="146.912" class="black" /></g>
<g><title>19 (position.label in template: 19.G)</title><text x="161.088" y="139.66" class="black" >G</text></g>
<g><line x1="163.142" y1="139.352" x2="171.484" y2="139.352" class="black" /></g>
<g><title>20 (position.label in template: 20.U)</title><text x="161.298" y="132.1" class="green" >T</text></g>
<g><line x1="163.352" y1="131.792" x2="171.694" y2="131.792" class="black" /></g>
<g><text x="154.367" y="132.004" class="numbering-label sequential" >20</text></g>
<g><line x1="159.45" y1="132.074" x2="156.215" y2="132.029" class="numbering-line sequential" /></g>
<g><title>21 (position.label in template: 21.U)</title><text x="161.298" y="124.54" class="green" >T</text></g>
<g><line x1="163.352" y1="124.232" x2="171.274" y2="124.232" class="black" /></g>
<g><title>22 (position.label in template: 22.C)</title><text x="155.808" y="129.74" class="black" >C</text></g>
<g><title>23 (position.label in template: 23.U)</title><text x="148.998" y="133.01" class="green" >T</text></g>
<g><title>24 (position.label in template: 24.U)</title><text x="141.508" y="134.05" class="green" >T</text></g>
<g><title>25 (position.label in template: 25.C)</title><text x="134.058" y="132.74" class="black" >C</text></g>
<g><title>26 (position.label in template: 26.C)</title><text x="127.368" y="129.22" class="black" >C</text></g>
<g><title>27 (position.label in template: 27.U)</title><text x="122.068" y="123.83" class="green" >T</text></g>
<g><title>28 (position.label in template: 28.U)</title><text x="118.678" y="117.07" class="green" >T</text></g>
<g><title>29 (position.label in template: 29.G)</title><text x="117.298" y="109.61" class="black" >G</text></g>
<g><title>30 (position.label in template: 30.C)</title><text x="118.678" y="102.14" class="black" >C</text></g>
<g><text x="112.106" y="99.9367" class="numbering-label sequential" >30</text></g>
<g><line x1="116.926" y1="101.552" x2="113.954" y2="100.556" class="numbering-line sequential" /></g>
<g><title>31 (position.label in template: 31.C)</title><text x="122.068" y="95.38" class="black" >C</text></g>
<g><title>32 (position.label in template: 32.C)</title><text x="127.368" y="89.99" class="black" >C</text></g>
<g><title>33 (position.label in template: 33.A)</title><text x="134.268" y="86.47" class="black" >A</text></g>
<g><title>34 (position.label in template: 34.A)</title><text x="141.708" y="85.17" class="black" >A</text></g>
<g><title>35 (position.label in template: 35.C)</title><text x="148.998" y="86.2" class="black" >C</text></g>
<g><title>36 (position.label in template: 36.C)</title><text x="155.808" y="89.47" class="black" >C</text></g>
<g><title>37 (position.label in template: 37.G)</title><text x="161.088" y="94.67" class="black" >G</text></g>
<g><line x1="163.142" y1="94.3619" x2="171.484" y2="94.3619" class="black" /></g>
<g><title>38 (position.label in template: 38.C)</title><text x="161.298" y="87.11" class="black" >C</text></g>
<g><line x1="163.352" y1="86.8019" x2="171.274" y2="86.8019" class="black" /></g>
<g><title>39 (position.label in template: 39.U)</title><text x="161.298" y="79.55" class="green" >T</text></g>
<g><line x1="163.352" y1="79.2419" x2="171.694" y2="79.2419" class="black" /></g>
<g><title>40 (position.label in template: 40.U)</title><text x="161.298" y="71.99" class="green" >T</text></g>
<g><line x1="163.352" y1="71.6819" x2="171.694" y2="71.6819" class="black" /></g>
<g><title>41 (position.label in template: 41.U)</title><text x="156.408" y="66.22" class="green" >T</text></g>
<g><title>42 (position.label in template: 42.U)</title><text x="156.008" y="58.67" class="green" >T</text></g>
<g><title>43 (position.label in template: 43.A)</title><text x="160.458" y="52.42" class="black" >A</text></g>
<g><title>44 (position.label in template: 44.A)</title><text x="167.628" y="50" class="black" >A</text></g>
<g><title>45 (position.label in template: 45.A)</title><text x="174.788" y="52.42" class="black" >A</text></g>
<g><title>46 (position.label in template: 46.A)</title><text x="179.038" y="58.67" class="black" >A</text></g>
<g><title>47 (position.label in template: 47.A)</title><text x="178.628" y="66.22" class="black" >A</text></g>
<g><title>48 (position.label in template: 48.A)</title><text x="173.748" y="71.99" class="green" >A</text></g>
<g><title>49 (position.label in template: 49.A)</title><text x="173.748" y="79.55" class="green" >A</text></g>
<g><title>50 (position.label in template: 50.G)</title><text x="173.328" y="87.11" class="black" >G</text></g>
<g><text x="180.26" y="87.2063" class="numbering-label sequential" >50</text></g>
<g><line x1="175.177" y1="87.1357" x2="178.411" y2="87.1806" class="numbering-line sequential" /></g>
<g><title>51 (position.label in template: 51.C)</title><text x="173.538" y="94.67" class="black" >C</text></g>
<g><title>52 (position.label in template: 52.U)</title><text x="179.668" y="99.09" class="green" >T</text></g>
<g><title>53 (position.label in template: 53.G)</title><text x="182.898" y="105.83" class="black" >G</text></g>
<g><title>54 (position.label in template: 54.A)</title><text x="183.318" y="113.39" class="black" >A</text></g>
<g><title>55 (position.label in template: 55.U)</title><text x="179.668" y="120.12" class="green" >T</text></g>
<g><title>56 (position.label in template: 56.G)</title><text x="173.328" y="124.54" class="green" >G</text></g>
<g><title>57 (position.label in template: 57.A)</title><text x="173.748" y="132.1" class="green" >A</text></g>
<g><title>58 (position.label in template: 58.C)</title><text x="173.538" y="139.66" class="black" >C</text></g>
<g><title>59 (position.label in template: 59.G)</title><text x="173.328" y="147.22" class="green" >G</text></g>
<g><title>60 (position.label in template: 60.C)</title><text x="173.538" y="154.78" class="black" >C</text></g>
<g><title>61 (position.label in template: 61.C)</title><text x="173.538" y="162.34" class="black" >C</text></g>
<g><title>62 (position.label in template: 62.U)</title><text x="178.885" y="167.687" class="green" >T</text></g>
<g><title>63 (position.label in template: 63.G)</title><text x="186.446" y="167.687" class="black" >G</text></g>
<g><title>64 (position.label in template: 64.A)</title><text x="194.007" y="167.687" class="black" >A</text></g>
<g><title>65 (position.label in template: 65.U)</title><text x="201.568" y="167.687" class="green" >T</text></g>
<g><title>66 (position.label in template: 66.U)</title><text x="209.129" y="167.687" class="green" >T</text></g>
<g><title>67 (position.label in template: 67.A)</title><text x="216.69" y="167.687" class="black" >A</text></g>
<g><title>68 (position.label in template: 68.A)</title><text x="224.251" y="167.687" class="black" >A</text></g>
<g><title>69 (position.label in template: 69.A)</title><text x="231.813" y="167.687" class="black" >A</text></g>
<g><title>70 (position.label in template: 70.U)</title><text x="239.374" y="167.687" class="green" >T</text></g>
<g><title>71 (position.label in template: 71.3')</title><text x="246.935" y="167.687" class="green" >3'</text></g>
<g><line x1="44.4929" y1="167.489" x2="47.946" y2="167.489" class="gray" /></g>
<g><line x1="52.054" y1="167.489" x2="55.5071" y2="167.489" class="gray" /></g>
<g><line x1="59.6151" y1="167.489" x2="63.0682" y2="167.489" class="gray" /></g>
<g><line x1="67.1762" y1="167.489" x2="70.6293" y2="167.489" class="gray" /></g>
<g><line x1="74.7373" y1="167.489" x2="78.1904" y2="167.489" class="gray" /></g>
<g><line x1="82.2984" y1="167.489" x2="85.7515" y2="167.489" class="gray" /></g>
<g><line x1="89.8595" y1="167.489" x2="93.3126" y2="167.489" class="gray" /></g>
<g><line x1="97.4206" y1="167.489" x2="100.874" y2="167.489" class="gray" /></g>
<g><line x1="104.982" y1="167.489" x2="108.435" y2="167.489" class="gray" /></g>
<g><line x1="112.543" y1="167.489" x2="115.996" y2="167.489" class="gray" /></g>
<g><line x1="120.104" y1="167.489" x2="123.557" y2="167.489" class="gray" /></g>
<g><line x1="127.665" y1="167.489" x2="131.118" y2="167.489" class="gray" /></g>
<g><line x1="135.226" y1="167.489" x2="138.679" y2="167.489" class="gray" /></g>
<g><line x1="142.787" y1="167.489" x2="146.24" y2="167.489" class="gray" /></g>
<g><line x1="150.348" y1="167.489" x2="153.801" y2="167.489" class="gray" /></g>
<g><line x1="157.277" y1="166.007" x2="159.667" y2="163.514" class="gray" /></g>
<g><line x1="161.088" y1="159.978" x2="161.088" y2="156.526" class="gray" /></g>
<g><line x1="161.145" y1="152.419" x2="161.241" y2="148.965" class="gray" /></g>
<g><line x1="161.241" y1="144.859" x2="161.145" y2="141.405" class="gray" /></g>
<g><line x1="161.145" y1="137.299" x2="161.241" y2="133.845" class="gray" /></g>
<g><line x1="161.298" y1="129.738" x2="161.298" y2="126.286" class="gray" /></g>
<g><line x1="159.807" y1="125.644" x2="157.3" y2="128.019" class="gray" /></g>
<g><line x1="153.957" y1="130.321" x2="150.85" y2="131.813" class="gray" /></g>
<g><line x1="146.964" y1="132.984" x2="143.543" y2="133.459" class="gray" /></g>
<g><line x1="139.485" y1="133.386" x2="136.081" y2="132.788" class="gray" /></g>
<g><line x1="132.241" y1="131.475" x2="129.186" y2="129.868" class="gray" /></g>
<g><line x1="125.928" y1="127.447" x2="123.509" y2="124.986" class="gray" /></g>
<g><line x1="121.148" y1="121.686" x2="119.599" y2="118.598" class="gray" /></g>
<g><line x1="118.305" y1="114.742" x2="117.672" y2="111.322" class="gray" /></g>
<g><line x1="117.672" y1="107.282" x2="118.305" y2="103.852" class="gray" /></g>
<g><line x1="119.599" y1="99.9958" x2="121.148" y2="96.908" class="gray" /></g>
<g><line x1="123.509" y1="93.6073" x2="125.928" y2="91.1465" class="gray" /></g>
<g><line x1="129.198" y1="88.7485" x2="132.439" y2="87.0953" class="gray" /></g>
<g><line x1="136.292" y1="85.8084" x2="139.685" y2="85.2154" class="gray" /></g>
<g><line x1="143.742" y1="85.1493" x2="146.965" y2="85.6045" class="gray" /></g>
<g><line x1="150.85" y1="86.781" x2="153.957" y2="88.2728" class="gray" /></g>
<g><line x1="157.272" y1="90.6032" x2="159.625" y2="92.9206" class="gray" /></g>
<g><line x1="161.145" y1="92.3087" x2="161.241" y2="88.8551" class="gray" /></g>
<g><line x1="161.298" y1="84.7479" x2="161.298" y2="81.2959" class="gray" /></g>
<g><line x1="161.298" y1="77.1879" x2="161.298" y2="73.7359" class="gray" /></g>
<g><line x1="159.97" y1="70.1149" x2="157.736" y2="67.4789" class="gray" /></g>
<g><line x1="156.3" y1="63.8608" x2="156.117" y2="60.413" class="gray" /></g>
<g><line x1="157.2" y1="56.6887" x2="159.267" y2="53.7851" class="gray" /></g>
<g><line x1="162.405" y1="51.455" x2="165.682" y2="50.3488" class="gray" /></g>
<g><line x1="169.574" y1="50.3496" x2="172.843" y2="51.4542" class="gray" /></g>
<g><line x1="175.943" y1="53.8104" x2="177.883" y2="56.6634" class="gray" /></g>
<g><line x1="178.927" y1="60.4129" x2="178.74" y2="63.8609" class="gray" /></g>
<g><line x1="177.302" y1="67.4802" x2="175.075" y2="70.1136" class="gray" /></g>
<g><line x1="173.748" y1="73.7359" x2="173.748" y2="77.1879" class="gray" /></g>
<g><line x1="173.634" y1="81.2927" x2="173.442" y2="84.7511" class="gray" /></g>
<g><line x1="173.385" y1="88.8551" x2="173.481" y2="92.3087" class="gray" /></g>
<g><line x1="175.204" y1="95.5632" x2="178.002" y2="97.5806" class="gray" /></g>
<g><line x1="180.556" y1="100.634" x2="182.011" y2="103.67" class="gray" /></g>
<g><line x1="183.012" y1="107.573" x2="183.204" y2="111.031" class="gray" /></g>
<g><line x1="182.339" y1="114.887" x2="180.648" y2="118.006" class="gray" /></g>
<g><line x1="177.983" y1="120.987" x2="175.013" y2="123.057" class="gray" /></g>
<g><line x1="173.442" y1="126.283" x2="173.634" y2="129.741" class="gray" /></g>
<g><line x1="173.691" y1="133.845" x2="173.595" y2="137.299" class="gray" /></g>
<g><line x1="173.481" y1="141.405" x2="173.385" y2="144.859" class="gray" /></g>
<g><line x1="173.385" y1="148.965" x2="173.481" y2="152.419" class="gray" /></g>
<g><line x1="173.538" y1="156.526" x2="173.538" y2="159.978" class="gray" /></g>
<g><line x1="174.991" y1="163.484" x2="177.433" y2="165.926" class="gray" /></g>
<g><line x1="180.939" y1="167.378" x2="184.392" y2="167.378" class="gray" /></g>
<g><line x1="188.5" y1="167.378" x2="191.953" y2="167.378" class="gray" /></g>
<g><line x1="196.061" y1="167.378" x2="199.514" y2="167.378" class="gray" /></g>
<g><line x1="203.622" y1="167.378" x2="207.075" y2="167.378" class="gray" /></g>
<g><line x1="211.183" y1="167.378" x2="214.636" y2="167.378" class="gray" /></g>
<g><line x1="218.744" y1="167.378" x2="222.197" y2="167.378" class="gray" /></g>
<g><line x1="226.305" y1="167.378" x2="229.759" y2="167.378" class="gray" /></g>
<g><line x1="233.867" y1="167.378" x2="237.32" y2="167.378" class="gray" /></g>
<g><line x1="241.428" y1="167.378" x2="244.881" y2="167.378" class="gray" /></g>
</svg>
