<svg
	xmlns="http://www.w3.org/2000/svg"
	width="153.92"
	height="274.968">
<g><style type="text/css" >
<!-- create color definitions -->
<![CDATA[
circle.red {stroke: rgb(255, 0, 255); fill: none; }
circle.green {stroke: rgb(0, 255, 0); fill: none; }
circle.blue {stroke: rgb(0, 0, 255); fill: none; }
circle.black {stroke: rgb(0, 0, 0); fill: none; }
circle.gray {stroke: rgb(204, 204, 204); fill: none; }
circle.brown {stroke: rgb(211.65, 104.55, 30.6); fill: none; }
line.red {stroke: rgb(255, 0, 255); stroke-width: 0.38252; }
line.green {stroke: rgb(0, 255, 0); stroke-width: 0.38252; }
line.blue {stroke: rgb(0, 0, 255); stroke-width: 0.38252; }
line.black {stroke: rgb(0, 0, 0); stroke-width: 0.38252; }
line.gray {stroke: rgb(204, 204, 204); stroke-width: 0.38252; }
line.brown {stroke: rgb(211.65, 104.55, 30.6); stroke-width: 0.38252; }
line {stroke: rgb(0, 0, 0); }
text.red {fill: rgb(255, 0, 255); font-size: 3.060156px; font-weight: bold; font-family: Helvetica; }
text.green {fill: rgb(0, 255, 0); font-size: 3.060156px; font-weight: bold; font-family: Helvetica; }
text.blue {fill: rgb(0, 0, 255); font-size: 3.060156px; font-weight: bold; font-family: Helvetica; }
text.black {fill: rgb(0, 0, 0); font-size: 3.060156px; font-weight: bold; font-family: Helvetica; }
text.gray {fill: rgb(204, 204, 204); font-size: 3.060156px; font-weight: bold; font-family: Helvetica; }
text.brown {fill: rgb(211.65, 104.55, 30.6); font-size: 3.060156px; font-weight: bold; font-family: Helvetica; }
text {fill: rgb(0, 0, 0); font-size: 3.060156px; font-weight: bold; font-family: Helvetica; text-anchor: middle; alignment-baseline: middle; }

.pseudoknot_connection{stroke-linecap: round; stroke-opacity: 0.2; stroke-width: 1.5; }
.pseudoknot_segment1{stroke-linecap: round; stroke-opacity: 0.4; stroke-width: 3.06016; }
.pseudoknot_segment2{stroke-linecap: round; stroke-opacity: 0.4; stroke-width: 3.06016; }
line.numbering-line{stroke: rgb(204, 204, 204); stroke-width: 0.19126; }
line.predicted{stroke: rgb(0, 0, 0); stroke-dasharray: 2; }
polyline{fill: none; stroke-linejoin: round; }
template{visibility: hidden; }
text.numbering-label{fill: rgb(204, 204, 204); }
]]>
</style></g>
<g><title>0 (position.label in template: 0.5')</title><text x="72.85" y="227.279" class="green" >5'</text></g>
<g><title>1 (position.label in template: 1.G)</title><text x="73.06" y="219.72" class="black" >G</text></g>
<g><line x1="75.1001" y1="219.414" x2="83.4699" y2="219.414" class="black" /></g>
<g><title>2 (position.label in template: 2.C)</title><text x="73.27" y="212.16" class="black" >C</text></g>
<g><line x1="75.3101" y1="211.854" x2="83.2599" y2="211.854" class="black" /></g>
<g><title>3 (position.label in template: 3.U)</title><text x="73.27" y="204.6" class="green" >T</text></g>
<g><line x1="75.3101" y1="204.294" x2="83.6699" y2="204.294" class="black" /></g>
<g><title>4 (position.label in template: 4.G)</title><text x="73.06" y="197.04" class="black" >G</text></g>
<g><line x1="75.1001" y1="196.734" x2="83.4699" y2="196.734" class="black" /></g>
<g><title>5 (position.label in template: 5.U)</title><text x="73.27" y="189.48" class="green" >T</text></g>
<g><line x1="75.3101" y1="189.174" x2="83.2599" y2="189.174" class="black" /></g>
<g><title>6 (position.label in template: 6.G)</title><text x="67.46" y="184.4" class="black" >G</text></g>
<g><title>7 (position.label in template: 7.G)</title><text x="65.39" y="177.12" class="black" >G</text></g>
<g><title>8 (position.label in template: 8.A)</title><text x="67.88" y="169.86" class="black" >A</text></g>
<g><title>9 (position.label in template: 9.G)</title><text x="73.06" y="164.77" class="black" >G</text></g>
<g><line x1="75.1001" y1="164.464" x2="83.4699" y2="164.464" class="black" /></g>
<g><title>10 (position.label in template: 10.A)</title><text x="73.47" y="157.21" class="green" >A</text></g>
<g><line x1="75.5101" y1="156.904" x2="83.4699" y2="156.904" class="black" /></g>
<g><text x="66.5846" y="157.21" class="numbering-label sequential" >10</text></g>
<g><line x1="71.6339" y1="157.21" x2="68.4207" y2="157.21" class="numbering-line sequential" /></g>
<g><title>11 (position.label in template: 11.G)</title><text x="73.06" y="149.65" class="green" >G</text></g>
<g><line x1="75.1001" y1="149.344" x2="83.4699" y2="149.344" class="black" /></g>
<g><title>12 (position.label in template: 12.C)</title><text x="73.27" y="142.09" class="black" >C</text></g>
<g><line x1="75.3101" y1="141.784" x2="83.2599" y2="141.784" class="black" /></g>
<g><title>13 (position.label in template: 13.A)</title><text x="73.47" y="134.53" class="green" >A</text></g>
<g><line x1="75.5101" y1="134.224" x2="83.4699" y2="134.224" class="black" /></g>
<g><title>14 (position.label in template: 14.A)</title><text x="69.03" y="140.65" class="black" >A</text></g>
<g><title>15 (position.label in template: 15.A)</title><text x="61.84" y="142.98" class="black" >A</text></g>
<g><title>16 (position.label in template: 16.A)</title><text x="54.65" y="140.65" class="black" >A</text></g>
<g><title>17 (position.label in template: 17.A)</title><text x="50.21" y="134.53" class="black" >A</text></g>
<g><title>18 (position.label in template: 18.C)</title><text x="50" y="126.97" class="black" >C</text></g>
<g><title>19 (position.label in template: 19.A)</title><text x="54.65" y="120.85" class="black" >A</text></g>
<g><title>20 (position.label in template: 20.A)</title><text x="61.84" y="118.52" class="black" >A</text></g>
<g><text x="61.84" y="111.635" class="numbering-label sequential" >20</text></g>
<g><line x1="61.84" y1="116.684" x2="61.84" y2="113.165" class="numbering-line sequential" /></g>
<g><title>21 (position.label in template: 21.A)</title><text x="69.03" y="120.85" class="black" >A</text></g>
<g><title>22 (position.label in template: 22.U)</title><text x="73.27" y="126.97" class="green" >T</text></g>
<g><line x1="75.3101" y1="126.664" x2="83.6699" y2="126.664" class="black" /></g>
<g><title>23 (position.label in template: 23.A)</title><text x="73.47" y="119.41" class="green" >A</text></g>
<g><line x1="75.5101" y1="119.104" x2="83.4699" y2="119.104" class="black" /></g>
<g><title>24 (position.label in template: 24.C)</title><text x="73.27" y="111.85" class="black" >C</text></g>
<g><line x1="75.3101" y1="111.544" x2="83.2599" y2="111.544" class="black" /></g>
<g><title>25 (position.label in template: 25.G)</title><text x="65.82" y="109.67" class="black" >G</text></g>
<g><title>26 (position.label in template: 26.A)</title><text x="60.99" y="104.23" class="black" >A</text></g>
<g><title>27 (position.label in template: 27.G)</title><text x="58.66" y="96.91" class="black" >G</text></g>
<g><title>28 (position.label in template: 28.U)</title><text x="60.78" y="89.6" class="green" >T</text></g>
<g><title>29 (position.label in template: 29.A)</title><text x="66.23" y="84.16" class="black" >A</text></g>
<g><title>30 (position.label in template: 30.G)</title><text x="73.06" y="81.98" class="black" >G</text></g>
<g><line x1="75.1001" y1="81.674" x2="83.4699" y2="81.674" class="black" /></g>
<g><text x="67.5341" y="77.8724" class="numbering-label sequential" >30</text></g>
<g><line x1="71.5864" y1="80.8846" x2="69.3702" y2="79.2372" class="numbering-line sequential" /></g>
<g><title>31 (position.label in template: 31.A)</title><text x="73.47" y="74.42" class="green" >A</text></g>
<g><line x1="75.5101" y1="74.114" x2="83.4699" y2="74.114" class="black" /></g>
<g><title>32 (position.label in template: 32.U)</title><text x="73.27" y="66.86" class="green" >T</text></g>
<g><line x1="75.3101" y1="66.554" x2="83.6699" y2="66.554" class="black" /></g>
<g><title>33 (position.label in template: 33.A)</title><text x="70.07" y="60.11" class="black" >A</text></g>
<g><title>34 (position.label in template: 34.U)</title><text x="72.45" y="53" class="green" >T</text></g>
<g><title>35 (position.label in template: 35.U)</title><text x="79.39" y="50" class="green" >T</text></g>
<g><title>36 (position.label in template: 36.U)</title><text x="86.33" y="53" class="green" >T</text></g>
<g><title>37 (position.label in template: 37.U)</title><text x="88.91" y="60.11" class="green" >T</text></g>
<g><title>38 (position.label in template: 38.A)</title><text x="85.71" y="66.86" class="green" >A</text></g>
<g><title>39 (position.label in template: 39.U)</title><text x="85.51" y="74.42" class="green" >T</text></g>
<g><title>40 (position.label in template: 40.C)</title><text x="85.51" y="81.98" class="black" >C</text></g>
<g><title>41 (position.label in template: 41.A)</title><text x="91.84" y="86.4" class="black" >A</text></g>
<g><title>42 (position.label in template: 42.A)</title><text x="95.29" y="93.13" class="black" >A</text></g>
<g><title>43 (position.label in template: 43.A)</title><text x="95.29" y="100.69" class="black" >A</text></g>
<g><title>44 (position.label in template: 44.A)</title><text x="91.84" y="107.43" class="black" >A</text></g>
<g><title>45 (position.label in template: 45.G)</title><text x="85.3" y="111.85" class="black" >G</text></g>
<g><title>46 (position.label in template: 46.U)</title><text x="85.51" y="119.41" class="green" >T</text></g>
<g><title>47 (position.label in template: 47.A)</title><text x="85.71" y="126.97" class="green" >A</text></g>
<g><title>48 (position.label in template: 48.U)</title><text x="85.51" y="134.53" class="green" >T</text></g>
<g><title>49 (position.label in template: 49.G)</title><text x="85.3" y="142.09" class="black" >G</text></g>
<g><title>50 (position.label in template: 50.U)</title><text x="85.51" y="149.65" class="green" >T</text></g>
<g><text x="92.3947" y="149.554" class="numbering-label sequential" >50</text></g>
<g><line x1="87.3459" y1="149.625" x2="90.5586" y2="149.58" class="numbering-line sequential" /></g>
<g><title>51 (position.label in template: 51.U)</title><text x="85.51" y="157.21" class="green" >T</text></g>
<g><title>52 (position.label in template: 52.C)</title><text x="85.51" y="164.77" class="black" >C</text></g>
<g><title>53 (position.label in template: 53.G)</title><text x="92.79" y="163.78" class="black" >G</text></g>
<g><title>54 (position.label in template: 54.U)</title><text x="99.86" y="166.97" class="green" >T</text></g>
<g><title>55 (position.label in template: 55.U)</title><text x="103.92" y="173.34" class="green" >T</text></g>
<g><title>56 (position.label in template: 56.G)</title><text x="103.71" y="180.9" class="black" >G</text></g>
<g><title>57 (position.label in template: 57.A)</title><text x="100.06" y="187.28" class="black" >A</text></g>
<g><title>58 (position.label in template: 58.A)</title><text x="93.21" y="190.47" class="black" >A</text></g>
<g><title>59 (position.label in template: 59.G)</title><text x="85.3" y="189.48" class="green" >G</text></g>
<g><title>60 (position.label in template: 60.C)</title><text x="85.51" y="197.04" class="black" >C</text></g>
<g><title>61 (position.label in template: 61.A)</title><text x="85.71" y="204.6" class="green" >A</text></g>
<g><title>62 (position.label in template: 62.G)</title><text x="85.3" y="212.16" class="black" >G</text></g>
<g><title>63 (position.label in template: 63.C)</title><text x="85.51" y="219.72" class="black" >C</text></g>
<g><title>64 (position.label in template: 64.A)</title><text x="90.9541" y="224.968" class="black" >A</text></g>
<g><title>65 (position.label in template: 65.A)</title><text x="98.5157" y="224.968" class="black" >A</text></g>
<g><title>66 (position.label in template: 66.3')</title><text x="106.077" y="224.968" class="green" >3'</text></g>
<g><line x1="72.9067" y1="224.933" x2="73.0034" y2="221.453" class="gray" /></g>
<g><line x1="73.1166" y1="217.375" x2="73.2134" y2="213.893" class="gray" /></g>
<g><line x1="73.27" y1="209.814" x2="73.27" y2="206.334" class="gray" /></g>
<g><line x1="73.2134" y1="202.255" x2="73.1166" y2="198.773" class="gray" /></g>
<g><line x1="73.1166" y1="194.695" x2="73.2134" y2="191.213" class="gray" /></g>
<g><line x1="71.7342" y1="187.831" x2="68.9958" y2="185.437" class="gray" /></g>
<g><line x1="66.902" y1="182.132" x2="65.948" y2="178.776" class="gray" /></g>
<g><line x1="66.0519" y1="174.884" x2="67.2181" y2="171.484" class="gray" /></g>
<g><line x1="69.3352" y1="168.124" x2="71.6048" y2="165.894" class="gray" /></g>
<g><line x1="73.1705" y1="162.427" x2="73.3595" y2="158.941" class="gray" /></g>
<g><line x1="73.3595" y1="154.867" x2="73.1705" y2="151.381" class="gray" /></g>
<g><line x1="73.1166" y1="147.305" x2="73.2134" y2="143.823" class="gray" /></g>
<g><line x1="73.324" y1="139.745" x2="73.416" y2="136.263" class="gray" /></g>
<g><line x1="72.272" y1="135.875" x2="70.228" y2="138.693" class="gray" /></g>
<g><line x1="67.0893" y1="140.973" x2="63.7807" y2="142.045" class="gray" /></g>
<g><line x1="59.8993" y1="142.045" x2="56.5907" y2="140.973" class="gray" /></g>
<g><line x1="53.452" y1="138.693" x2="51.408" y2="135.875" class="gray" /></g>
<g><line x1="50.1534" y1="132.185" x2="50.0566" y2="128.703" class="gray" /></g>
<g><line x1="51.2342" y1="125.04" x2="53.4158" y2="122.168" class="gray" /></g>
<g><line x1="56.5907" y1="119.915" x2="59.8993" y2="118.843" class="gray" /></g>
<g><line x1="63.7807" y1="118.843" x2="67.0893" y2="119.915" class="gray" /></g>
<g><line x1="70.1918" y1="122.221" x2="72.1082" y2="124.987" class="gray" /></g>
<g><line x1="73.324" y1="124.625" x2="73.416" y2="121.143" class="gray" /></g>
<g><line x1="73.416" y1="117.065" x2="73.324" y2="113.583" class="gray" /></g>
<g><line x1="71.312" y1="110.971" x2="67.778" y2="109.937" class="gray" /></g>
<g><line x1="64.4655" y1="107.838" x2="62.3445" y2="105.45" class="gray" /></g>
<g><line x1="60.3712" y1="101.98" x2="59.2788" y2="98.548" class="gray" /></g>
<g><line x1="59.2282" y1="94.6446" x2="60.2118" y2="91.2534" class="gray" /></g>
<g><line x1="62.2239" y1="87.8527" x2="64.7861" y2="85.2952" class="gray" /></g>
<g><line x1="68.1735" y1="83.2337" x2="71.1165" y2="82.2943" class="gray" /></g>
<g><line x1="73.1705" y1="79.6369" x2="73.3595" y2="76.1511" class="gray" /></g>
<g><line x1="73.416" y1="72.0746" x2="73.324" y2="68.5934" class="gray" /></g>
<g><line x1="72.3961" y1="64.7105" x2="70.9439" y2="61.6474" class="gray" /></g>
<g><line x1="70.7176" y1="57.8694" x2="71.8024" y2="54.6286" class="gray" /></g>
<g><line x1="74.3226" y1="51.8845" x2="77.5174" y2="50.5035" class="gray" /></g>
<g><line x1="81.2626" y1="50.5035" x2="84.4574" y2="51.8845" class="gray" /></g>
<g><line x1="87.0259" y1="54.6117" x2="88.2141" y2="57.8862" class="gray" /></g>
<g><line x1="88.0361" y1="61.6474" x2="86.5839" y2="64.7105" class="gray" /></g>
<g><line x1="85.656" y1="68.5934" x2="85.564" y2="72.0746" class="gray" /></g>
<g><line x1="85.51" y1="76.1541" x2="85.51" y2="79.6339" class="gray" /></g>
<g><line x1="87.1827" y1="82.842" x2="90.1673" y2="84.926" class="gray" /></g>
<g><line x1="92.7707" y1="87.9094" x2="94.3593" y2="91.0085" class="gray" /></g>
<g><line x1="95.29" y1="94.8641" x2="95.29" y2="98.3439" class="gray" /></g>
<g><line x1="94.3604" y1="102.2" x2="92.7696" y2="105.308" class="gray" /></g>
<g><line x1="90.1497" y1="108.266" x2="86.9903" y2="110.402" class="gray" /></g>
<g><line x1="85.3566" y1="113.583" x2="85.4534" y2="117.065" class="gray" /></g>
<g><line x1="85.564" y1="121.143" x2="85.656" y2="124.625" class="gray" /></g>
<g><line x1="85.656" y1="128.703" x2="85.564" y2="132.185" class="gray" /></g>
<g><line x1="85.4534" y1="136.263" x2="85.3566" y2="139.745" class="gray" /></g>
<g><line x1="85.3566" y1="143.823" x2="85.4534" y2="147.305" class="gray" /></g>
<g><line x1="85.51" y1="151.384" x2="85.51" y2="154.864" class="gray" /></g>
<g><line x1="85.51" y1="158.944" x2="85.51" y2="162.424" class="gray" /></g>
<g><line x1="87.5315" y1="164.189" x2="90.7685" y2="163.749" class="gray" /></g>
<g><line x1="94.6496" y1="164.313" x2="98.0004" y2="165.825" class="gray" /></g>
<g><line x1="100.957" y1="168.384" x2="102.823" y2="171.314" class="gray" /></g>
<g><line x1="103.863" y1="175.073" x2="103.767" y2="178.555" class="gray" /></g>
<g><line x1="102.697" y1="182.365" x2="101.073" y2="185.203" class="gray" /></g>
<g><line x1="98.2106" y1="187.835" x2="95.0594" y2="189.303" class="gray" /></g>
<g><line x1="91.1857" y1="189.911" x2="87.3243" y2="189.427" class="gray" /></g>
<g><line x1="85.3566" y1="191.213" x2="85.4534" y2="194.695" class="gray" /></g>
<g><line x1="85.564" y1="198.773" x2="85.656" y2="202.255" class="gray" /></g>
<g><line x1="85.5995" y1="206.331" x2="85.4105" y2="209.817" class="gray" /></g>
<g><line x1="85.3566" y1="213.893" x2="85.4534" y2="217.375" class="gray" /></g>
<g><line x1="86.9788" y1="220.83" x2="89.4853" y2="223.246" class="gray" /></g>
<g><line x1="92.9942" y1="224.662" x2="96.4756" y2="224.662" class="gray" /></g>
<g><line x1="100.556" y1="224.662" x2="104.037" y2="224.662" class="gray" /></g>
</svg>
