<svg
	xmlns="http://www.w3.org/2000/svg"
	width="228.44"
	height="241.838">
<g><style type="text/css" >
<!-- create color definitions -->
<![CDATA[
circle.red {stroke: rgb(255, 0, 255); fill: none; }
circle.green {stroke: rgb(0, 255, 0); fill: none; }
circle.blue {stroke: rgb(0, 0, 255); fill: none; }
circle.black {stroke: rgb(0, 0, 0); fill: none; }
circle.gray {stroke: rgb(204, 204, 204); fill: none; }
circle.brown {stroke: rgb(211.65, 104.55, 30.6); fill: none; }
line.red {stroke: rgb(255, 0, 255); stroke-width: 0.38248; }
line.green {stroke: rgb(0, 255, 0); stroke-width: 0.38248; }
line.blue {stroke: rgb(0, 0, 255); stroke-width: 0.38248; }
line.black {stroke: rgb(0, 0, 0); stroke-width: 0.38248; }
line.gray {stroke: rgb(204, 204, 204); stroke-width: 0.38248; }
line.brown {stroke: rgb(211.65, 104.55, 30.6); stroke-width: 0.38248; }
line {stroke: rgb(0, 0, 0); }
text.red {fill: rgb(255, 0, 255); font-size: 3.059839px; font-weight: bold; font-family: Helvetica; }
text.green {fill: rgb(0, 255, 0); font-size: 3.059839px; font-weight: bold; font-family: Helvetica; }
text.blue {fill: rgb(0, 0, 255); font-size: 3.059839px; font-weight: bold; font-family: Helvetica; }
text.black {fill: rgb(0, 0, 0); font-size: 3.059839px; font-weight: bold; font-family: Helvetica; }
text.gray {fill: rgb(204, 204, 204); font-size: 3.059839px; font-weight: bold; font-family: Helvetica; }
text.brown {fill: rgb(211.65, 104.55, 30.6); font-size: 3.059839px; font-weight: bold; font-family: Helvetica; }
text {fill: rgb(0, 0, 0); font-size: 3.059839px; font-weight: bold; font-family: Helvetica; text-anchor: middle; alignment-baseline: middle; }

.pseudoknot_connection{stroke-linecap: round; stroke-opacity: 0.2; stroke-width: 1.5; }
.pseudoknot_segment1{stroke-linecap: round; stroke-opacity: 0.4; stroke-width: 3.05984; }
.pseudoknot_segment2{stroke-linecap: round; stroke-opacity: 0.4; stroke-width: 3.05984; }
line.numbering-line{stroke: rgb(204, 204, 204); stroke-width: 0.19124; }
line.predicted{stroke: rgb(0, 0, 0); stroke-dasharray: 2; }
polyline{fill: none; stroke-linejoin: round; }
template{visibility: hidden; }
text.numbering-label{fill: rgb(204, 204, 204); }
]]>
</style></g>
<g><title>0 (position.label in template: 0.5')</title><text x="112.05" y="194.151" class="green" >5'</text></g>
<g><title>1 (position.label in template: 1.G)</title><text x="112.05" y="186.59" class="black" >G</text></g>
<g><line x1="114.09" y1="186.284" x2="122.46" y2="186.284" class="black" /></g>
<g><title>2 (position.label in template: 2.G)</title><text x="112.05" y="179.03" class="black" >G</text></g>
<g><line x1="114.09" y1="178.724" x2="122.46" y2="178.724" class="black" /></g>
<g><title>3 (position.label in template: 3.A)</title><text x="112.47" y="171.47" class="green" >A</text></g>
<g><line x1="114.51" y1="171.164" x2="122.46" y2="171.164" class="black" /></g>
<g><title>4 (position.label in template: 4.G)</title><text x="112.05" y="163.91" class="black" >G</text></g>
<g><line x1="114.09" y1="163.604" x2="122.46" y2="163.604" class="black" /></g>
<g><title>5 (position.label in template: 5.A)</title><text x="112.47" y="156.35" class="black" >A</text></g>
<g><line x1="114.51" y1="156.044" x2="122.46" y2="156.044" class="black" /></g>
<g><title>6 (position.label in template: 6.U)</title><text x="112.26" y="148.79" class="green" >T</text></g>
<g><line x1="114.3" y1="148.484" x2="122.25" y2="148.484" class="black" /></g>
<g><title>7 (position.label in template: 7.A)</title><text x="112.47" y="141.23" class="black" >A</text></g>
<g><line x1="114.51" y1="140.924" x2="122.25" y2="140.924" class="black" /></g>
<g><title>8 (position.label in template: 8.U)</title><text x="105.44" y="137.97" class="green" >T</text></g>
<g><title>9 (position.label in template: 9.A)</title><text x="100.3" y="132.62" class="black" >A</text></g>
<g><title>10 (position.label in template: 10.G)</title><text x="96.62" y="125.8" class="green" >G</text></g>
<g><line x1="96.655" y1="123.454" x2="96.795" y2="115.294" class="black" /></g>
<g><text x="92.9993" y="131.656" class="numbering-label sequential" >10</text></g>
<g><line x1="95.6545" y1="127.362" x2="93.9453" y2="130.126" class="numbering-line sequential" /></g>
<g><title>11 (position.label in template: 11.C)</title><text x="89.27" y="125.8" class="black" >C</text></g>
<g><line x1="89.235" y1="123.454" x2="89.095" y2="115.294" class="black" /></g>
<g><title>12 (position.label in template: 12.U)</title><text x="81.71" y="125.8" class="green" >T</text></g>
<g><line x1="81.745" y1="123.454" x2="81.885" y2="115.294" class="black" /></g>
<g><title>13 (position.label in template: 13.C)</title><text x="74.15" y="125.8" class="black" >C</text></g>
<g><line x1="74.115" y1="123.454" x2="73.975" y2="115.294" class="black" /></g>
<g><title>14 (position.label in template: 14.A)</title><text x="69.02" y="131.16" class="black" >A</text></g>
<g><title>15 (position.label in template: 15.A)</title><text x="61.6" y="132.64" class="black" >A</text></g>
<g><title>16 (position.label in template: 16.G)</title><text x="54.2" y="129.75" class="black" >G</text></g>
<g><title>17 (position.label in template: 17.U)</title><text x="50.21" y="123.46" class="green" >T</text></g>
<g><title>18 (position.label in template: 18.G)</title><text x="50" y="115.9" class="black" >G</text></g>
<g><title>19 (position.label in template: 19.U)</title><text x="54.41" y="109.62" class="green" >T</text></g>
<g><title>20 (position.label in template: 20.U)</title><text x="61.4" y="106.73" class="green" >T</text></g>
<g><text x="60.7386" y="99.8772" class="numbering-label sequential" >20</text></g>
<g><line x1="61.2236" y1="104.903" x2="60.8863" y2="101.407" class="numbering-line sequential" /></g>
<g><title>21 (position.label in template: 21.A)</title><text x="69.02" y="108.21" class="black" >A</text></g>
<g><title>22 (position.label in template: 22.G)</title><text x="73.94" y="113.56" class="black" >G</text></g>
<g><title>23 (position.label in template: 23.A)</title><text x="81.92" y="113.56" class="green" >A</text></g>
<g><title>24 (position.label in template: 24.G)</title><text x="89.06" y="113.56" class="black" >G</text></g>
<g><title>25 (position.label in template: 25.U)</title><text x="96.83" y="113.56" class="green" >T</text></g>
<g><title>26 (position.label in template: 26.G)</title><text x="99.88" y="106.75" class="black" >G</text></g>
<g><title>27 (position.label in template: 27.C)</title><text x="105.44" y="101.4" class="black" >C</text></g>
<g><line x1="107.368" y1="100.426" x2="115.262" y2="97.6917" class="black" /></g>
<g><title>28 (position.label in template: 28.C)</title><text x="102.92" y="94.27" class="black" >C</text></g>
<g><line x1="104.844" y1="93.2861" x2="112.546" y2="90.572" class="black" /></g>
<g><title>29 (position.label in template: 29.U)</title><text x="100.41" y="87.14" class="green" >T</text></g>
<g><line x1="102.338" y1="86.1664" x2="110.232" y2="83.4317" class="black" /></g>
<g><title>30 (position.label in template: 30.G)</title><text x="97.69" y="80.01" class="black" >G</text></g>
<g><line x1="99.6175" y1="79.0364" x2="107.512" y2="76.3017" class="black" /></g>
<g><text x="91.1974" y="82.3002" class="numbering-label sequential" >30</text></g>
<g><line x1="95.9586" y1="80.6207" x2="93.0333" y2="81.6526" class="numbering-line sequential" /></g>
<g><title>31 (position.label in template: 31.C)</title><text x="95.38" y="72.88" class="black" >C</text></g>
<g><line x1="97.3075" y1="71.9064" x2="105.202" y2="69.1717" class="black" /></g>
<g><title>32 (position.label in template: 32.U)</title><text x="88.85" y="69.07" class="green" >T</text></g>
<g><title>33 (position.label in template: 33.U)</title><text x="85.96" y="62.08" class="green" >T</text></g>
<g><title>34 (position.label in template: 34.A)</title><text x="88.09" y="54.77" class="black" >A</text></g>
<g><title>35 (position.label in template: 35.G)</title><text x="93.63" y="50.11" class="black" >G</text></g>
<g><title>36 (position.label in template: 36.C)</title><text x="101.4" y="50" class="black" >C</text></g>
<g><title>37 (position.label in template: 37.A)</title><text x="107.69" y="54.49" class="black" >A</text></g>
<g><title>38 (position.label in template: 38.U)</title><text x="109.61" y="61.75" class="green" >T</text></g>
<g><title>39 (position.label in template: 39.A)</title><text x="107.13" y="68.81" class="black" >A</text></g>
<g><title>40 (position.label in template: 40.C)</title><text x="109.44" y="75.94" class="black" >C</text></g>
<g><title>41 (position.label in template: 41.A)</title><text x="112.16" y="83.07" class="green" >A</text></g>
<g><title>42 (position.label in template: 42.C)</title><text x="114.47" y="90.2" class="black" >C</text></g>
<g><title>43 (position.label in template: 43.A)</title><text x="117.19" y="97.33" class="black" >A</text></g>
<g><title>44 (position.label in template: 44.A)</title><text x="124.71" y="98.14" class="black" >A</text></g>
<g><title>45 (position.label in template: 45.G)</title><text x="131.11" y="101.4" class="black" >G</text></g>
<g><title>46 (position.label in template: 46.G)</title><text x="136.45" y="106.75" class="black" >G</text></g>
<g><title>47 (position.label in template: 47.U)</title><text x="139.93" y="113.56" class="green" >T</text></g>
<g><title>48 (position.label in template: 48.C)</title><text x="140.74" y="121.08" class="black" >C</text></g>
<g><title>49 (position.label in template: 49.C)</title><text x="139" y="128.44" class="black" >C</text></g>
<g><line x1="137.699" y1="129.705" x2="132.411" y2="136.093" class="black" /></g>
<g><title>50 (position.label in template: 50.U)</title><text x="144.89" y="133.18" class="green" >T</text></g>
<g><line x1="143.631" y1="134.479" x2="138.669" y2="140.799" class="black" /></g>
<g><text x="149.258" y="127.859" class="numbering-label sequential" >50</text></g>
<g><line x1="146.055" y1="131.761" x2="148.002" y2="129.389" class="numbering-line sequential" /></g>
<g><title>51 (position.label in template: 51.G)</title><text x="150.56" y="137.93" class="black" >G</text></g>
<g><line x1="149.302" y1="139.229" x2="144.348" y2="145.549" class="black" /></g>
<g><title>52 (position.label in template: 52.G)</title><text x="156.45" y="142.67" class="black" >G</text></g>
<g><line x1="155.192" y1="143.969" x2="150.238" y2="150.289" class="black" /></g>
<g><title>53 (position.label in template: 53.G)</title><text x="162.34" y="147.41" class="black" >G</text></g>
<g><line x1="161.082" y1="148.709" x2="156.128" y2="155.029" class="black" /></g>
<g><title>54 (position.label in template: 54.U)</title><text x="170.1" y="147.22" class="green" >T</text></g>
<g><title>55 (position.label in template: 55.U)</title><text x="176.24" y="151.65" class="green" >T</text></g>
<g><title>56 (position.label in template: 56.C)</title><text x="178.44" y="158.88" class="black" >C</text></g>
<g><title>57 (position.label in template: 57.A)</title><text x="176.03" y="165.97" class="black" >A</text></g>
<g><title>58 (position.label in template: 58.A)</title><text x="169.66" y="170.04" class="black" >A</text></g>
<g><title>59 (position.label in template: 59.U)</title><text x="161.92" y="169.42" class="green" >T</text></g>
<g><title>60 (position.label in template: 60.C)</title><text x="156.29" y="164.37" class="black" >C</text></g>
<g><title>61 (position.label in template: 61.C)</title><text x="154.87" y="156.94" class="black" >C</text></g>
<g><title>62 (position.label in template: 62.C)</title><text x="148.98" y="152.2" class="black" >C</text></g>
<g><title>63 (position.label in template: 63.C)</title><text x="143.09" y="147.46" class="black" >C</text></g>
<g><title>64 (position.label in template: 64.A)</title><text x="137.41" y="142.71" class="green" >A</text></g>
<g><title>65 (position.label in template: 65.G)</title><text x="131.11" y="137.97" class="black" >G</text></g>
<g><title>66 (position.label in template: 66.G)</title><text x="124.29" y="141.23" class="black" >G</text></g>
<g><title>67 (position.label in template: 67.G)</title><text x="124.29" y="148.79" class="green" >G</text></g>
<g><title>68 (position.label in template: 68.C)</title><text x="124.5" y="156.35" class="black" >C</text></g>
<g><title>69 (position.label in template: 69.C)</title><text x="124.5" y="163.91" class="black" >C</text></g>
<g><title>70 (position.label in template: 70.U)</title><text x="124.5" y="171.47" class="green" >T</text></g>
<g><title>71 (position.label in template: 71.C)</title><text x="124.5" y="179.03" class="black" >C</text></g>
<g><title>72 (position.label in template: 72.C)</title><text x="124.5" y="186.59" class="black" >C</text></g>
<g><title>73 (position.label in template: 73.A)</title><text x="129.944" y="191.838" class="black" >A</text></g>
<g><title>74 (position.label in template: 74.3')</title><text x="124.71" y="197.295" class="green" >3'</text></g>
<g><line x1="112.05" y1="191.806" x2="112.05" y2="188.324" class="gray" /></g>
<g><line x1="112.05" y1="184.244" x2="112.05" y2="180.764" class="gray" /></g>
<g><line x1="112.163" y1="176.687" x2="112.357" y2="173.201" class="gray" /></g>
<g><line x1="112.357" y1="169.127" x2="112.163" y2="165.641" class="gray" /></g>
<g><line x1="112.163" y1="161.567" x2="112.357" y2="158.081" class="gray" /></g>
<g><line x1="112.413" y1="154.005" x2="112.317" y2="150.523" class="gray" /></g>
<g><line x1="112.317" y1="146.445" x2="112.413" y2="142.963" class="gray" /></g>
<g><line x1="110.619" y1="140.066" x2="107.291" y2="138.522" class="gray" /></g>
<g><line x1="104.027" y1="136.193" x2="101.713" y2="133.785" class="gray" /></g>
<g><line x1="99.3313" y1="130.519" x2="97.5887" y2="127.289" class="gray" /></g>
<g><line x1="94.5801" y1="125.494" x2="91.3099" y2="125.494" class="gray" /></g>
<g><line x1="87.2301" y1="125.494" x2="83.7499" y2="125.494" class="gray" /></g>
<g><line x1="79.6701" y1="125.494" x2="76.1899" y2="125.494" class="gray" /></g>
<g><line x1="72.7395" y1="126.968" x2="70.4305" y2="129.38" class="gray" /></g>
<g><line x1="67.0195" y1="131.253" x2="63.6005" y2="131.935" class="gray" /></g>
<g><line x1="59.6999" y1="131.592" x2="56.1001" y2="130.186" class="gray" /></g>
<g><line x1="53.1073" y1="127.721" x2="51.3027" y2="124.877" class="gray" /></g>
<g><line x1="50.1534" y1="121.115" x2="50.0566" y2="117.633" class="gray" /></g>
<g><line x1="51.1723" y1="113.925" x2="53.2377" y2="110.983" class="gray" /></g>
<g><line x1="56.2951" y1="108.535" x2="59.5149" y2="107.203" class="gray" /></g>
<g><line x1="63.4025" y1="106.813" x2="67.0175" y2="107.515" class="gray" /></g>
<g><line x1="70.4008" y1="109.406" x2="72.5592" y2="111.753" class="gray" /></g>
<g><line x1="75.9799" y1="113.254" x2="79.8801" y2="113.254" class="gray" /></g>
<g><line x1="83.9599" y1="113.254" x2="87.0201" y2="113.254" class="gray" /></g>
<g><line x1="91.0999" y1="113.254" x2="94.7901" y2="113.254" class="gray" /></g>
<g><line x1="97.6638" y1="111.392" x2="99.0462" y2="108.306" class="gray" /></g>
<g><line x1="101.35" y1="105.03" x2="103.97" y2="102.508" class="gray" /></g>
<g><line x1="104.76" y1="99.1707" x2="103.6" y2="95.8873" class="gray" /></g>
<g><line x1="102.243" y1="92.0399" x2="101.087" y2="88.7582" class="gray" /></g>
<g><line x1="99.6829" y1="84.9281" x2="98.4171" y2="81.6099" class="gray" /></g>
<g><line x1="97.0613" y1="77.7634" x2="96.0087" y2="74.5146" class="gray" /></g>
<g><line x1="93.6181" y1="71.546" x2="90.6119" y2="69.792" class="gray" /></g>
<g><line x1="88.0706" y1="66.8789" x2="86.7394" y2="63.6591" class="gray" /></g>
<g><line x1="86.5307" y1="59.8156" x2="87.5193" y2="56.4225" class="gray" /></g>
<g><line x1="89.6511" y1="53.1509" x2="92.0689" y2="51.1171" class="gray" /></g>
<g><line x1="95.6697" y1="49.7751" x2="99.3603" y2="49.7229" class="gray" /></g>
<g><line x1="103.06" y1="50.8792" x2="106.03" y2="52.9989" class="gray" /></g>
<g><line x1="108.212" y1="56.1561" x2="109.088" y2="59.4719" class="gray" /></g>
<g><line x1="108.934" y1="63.3686" x2="107.806" y2="66.5794" class="gray" /></g>
<g><line x1="107.759" y1="70.4446" x2="108.811" y2="73.6934" class="gray" /></g>
<g><line x1="110.167" y1="77.5399" x2="111.433" y2="80.8581" class="gray" /></g>
<g><line x1="112.789" y1="84.7046" x2="113.841" y2="87.9534" class="gray" /></g>
<g><line x1="115.197" y1="91.7999" x2="116.463" y2="95.1181" class="gray" /></g>
<g><line x1="119.218" y1="97.2425" x2="122.682" y2="97.6156" class="gray" /></g>
<g><line x1="126.528" y1="98.7599" x2="129.292" y2="100.168" class="gray" /></g>
<g><line x1="132.551" y1="102.538" x2="135.009" y2="105" class="gray" /></g>
<g><line x1="137.378" y1="108.26" x2="139.002" y2="111.438" class="gray" /></g>
<g><line x1="140.148" y1="115.282" x2="140.522" y2="118.746" class="gray" /></g>
<g><line x1="140.271" y1="122.759" x2="139.469" y2="126.149" class="gray" /></g>
<g><line x1="140.589" y1="129.413" x2="143.301" y2="131.595" class="gray" /></g>
<g><line x1="146.454" y1="134.184" x2="148.996" y2="136.314" class="gray" /></g>
<g><line x1="152.149" y1="138.903" x2="154.861" y2="141.085" class="gray" /></g>
<g><line x1="158.039" y1="143.643" x2="160.751" y2="145.825" class="gray" /></g>
<g><line x1="164.379" y1="147.054" x2="168.061" y2="146.964" class="gray" /></g>
<g><line x1="171.754" y1="148.108" x2="174.586" y2="150.15" class="gray" /></g>
<g><line x1="176.834" y1="153.296" x2="177.846" y2="156.622" class="gray" /></g>
<g><line x1="177.783" y1="160.505" x2="176.687" y2="163.733" class="gray" /></g>
<g><line x1="174.311" y1="166.762" x2="171.379" y2="168.636" class="gray" /></g>
<g><line x1="167.627" y1="169.571" x2="163.953" y2="169.277" class="gray" /></g>
<g><line x1="160.401" y1="167.752" x2="157.809" y2="165.426" class="gray" /></g>
<g><line x1="155.907" y1="162.06" x2="155.253" y2="158.638" class="gray" /></g>
<g><line x1="153.281" y1="155.355" x2="150.569" y2="153.173" class="gray" /></g>
<g><line x1="147.391" y1="150.615" x2="144.679" y2="148.433" class="gray" /></g>
<g><line x1="141.525" y1="145.845" x2="138.975" y2="143.713" class="gray" /></g>
<g><line x1="135.78" y1="141.178" x2="132.74" y2="138.89" class="gray" /></g>
<g><line x1="129.27" y1="138.544" x2="126.13" y2="140.044" class="gray" /></g>
<g><line x1="124.29" y1="142.964" x2="124.29" y2="146.444" class="gray" /></g>
<g><line x1="124.347" y1="150.523" x2="124.443" y2="154.005" class="gray" /></g>
<g><line x1="124.5" y1="158.084" x2="124.5" y2="161.564" class="gray" /></g>
<g><line x1="124.5" y1="165.644" x2="124.5" y2="169.124" class="gray" /></g>
<g><line x1="124.5" y1="173.204" x2="124.5" y2="176.684" class="gray" /></g>
<g><line x1="124.5" y1="180.764" x2="124.5" y2="184.244" class="gray" /></g>
<g><line x1="125.969" y1="187.7" x2="128.475" y2="190.116" class="gray" /></g>
<g><line x1="128.532" y1="193.004" x2="126.122" y2="195.517" class="gray" /></g>
</svg>
