<svg
	xmlns="http://www.w3.org/2000/svg"
	width="228.44"
	height="241.834">
<g><style type="text/css" >
<!-- create color definitions -->
<![CDATA[
circle.red {stroke: rgb(255, 0, 255); fill: none; }
circle.green {stroke: rgb(0, 255, 0); fill: none; }
circle.blue {stroke: rgb(0, 0, 255); fill: none; }
circle.black {stroke: rgb(0, 0, 0); fill: none; }
circle.gray {stroke: rgb(204, 204, 204); fill: none; }
circle.brown {stroke: rgb(211.65, 104.55, 30.6); fill: none; }
line.red {stroke: rgb(255, 0, 255); stroke-width: 0.38189; }
line.green {stroke: rgb(0, 255, 0); stroke-width: 0.38189; }
line.blue {stroke: rgb(0, 0, 255); stroke-width: 0.38189; }
line.black {stroke: rgb(0, 0, 0); stroke-width: 0.38189; }
line.gray {stroke: rgb(204, 204, 204); stroke-width: 0.38189; }
line.brown {stroke: rgb(211.65, 104.55, 30.6); stroke-width: 0.38189; }
line {stroke: rgb(0, 0, 0); }
text.red {fill: rgb(255, 0, 255); font-size: 3.055121px; font-weight: bold; font-family: Helvetica; }
text.green {fill: rgb(0, 255, 0); font-size: 3.055121px; font-weight: bold; font-family: Helvetica; }
text.blue {fill: rgb(0, 0, 255); font-size: 3.055121px; font-weight: bold; font-family: Helvetica; }
text.black {fill: rgb(0, 0, 0); font-size: 3.055121px; font-weight: bold; font-family: Helvetica; }
text.gray {fill: rgb(204, 204, 204); font-size: 3.055121px; font-weight: bold; font-family: Helvetica; }
text.brown {fill: rgb(211.65, 104.55, 30.6); font-size: 3.055121px; font-weight: bold; font-family: Helvetica; }
text {fill: rgb(0, 0, 0); font-size: 3.055121px; font-weight: bold; font-family: Helvetica; text-anchor: middle; alignment-baseline: middle; }

.pseudoknot_connection{stroke-linecap: round; stroke-opacity: 0.2; stroke-width: 1.5; }
.pseudoknot_segment1{stroke-linecap: round; stroke-opacity: 0.4; stroke-width: 3.05512; }
.pseudoknot_segment2{stroke-linecap: round; stroke-opacity: 0.4; stroke-width: 3.05512; }
line.numbering-line{stroke: rgb(204, 204, 204); stroke-width: 0.190945; }
line.predicted{stroke: rgb(0, 0, 0); stroke-dasharray: 2; }
polyline{fill: none; stroke-linejoin: round; }
template{visibility: hidden; }
text.numbering-label{fill: rgb(204, 204, 204); }
]]>
</style></g>
<g><title>0 (position.label in template: 0.5')</title><text x="112.05" y="194.147" class="green" >5'</text></g>
<g><title>1 (position.label in template: 1.G)</title><text x="112.05" y="186.59" class="green" >G</text></g>
<g><line x1="114.087" y1="186.284" x2="122.463" y2="186.284" class="black" /></g>
<g><title>2 (position.label in template: 2.G)</title><text x="112.05" y="179.03" class="black" >G</text></g>
<g><line x1="114.087" y1="178.724" x2="122.463" y2="178.724" class="black" /></g>
<g><title>3 (position.label in template: 3.G)</title><text x="112.05" y="171.47" class="black" >G</text></g>
<g><line x1="114.087" y1="171.164" x2="122.463" y2="171.164" class="black" /></g>
<g><title>4 (position.label in template: 4.U)</title><text x="112.26" y="163.91" class="green" >T</text></g>
<g><line x1="114.297" y1="163.604" x2="122.253" y2="163.604" class="black" /></g>
<g><title>5 (position.label in template: 5.C)</title><text x="112.26" y="156.35" class="black" >C</text></g>
<g><line x1="114.297" y1="156.044" x2="122.253" y2="156.044" class="black" /></g>
<g><title>6 (position.label in template: 6.A)</title><text x="112.47" y="148.79" class="green" >A</text></g>
<g><line x1="114.507" y1="148.484" x2="122.463" y2="148.484" class="black" /></g>
<g><title>7 (position.label in template: 7.C)</title><text x="112.26" y="141.23" class="black" >C</text></g>
<g><line x1="114.297" y1="140.924" x2="122.253" y2="140.924" class="black" /></g>
<g><title>8 (position.label in template: 8.U)</title><text x="105.44" y="137.97" class="green" >T</text></g>
<g><title>9 (position.label in template: 9.A)</title><text x="100.3" y="132.62" class="black" >A</text></g>
<g><title>10 (position.label in template: 10.G)</title><text x="96.62" y="125.8" class="black" >G</text></g>
<g><line x1="96.6549" y1="123.458" x2="96.7951" y2="115.291" class="black" /></g>
<g><text x="93.0049" y="131.647" class="numbering-label sequential" >10</text></g>
<g><line x1="95.656" y1="127.359" x2="93.9494" y2="130.119" class="numbering-line sequential" /></g>
<g><title>11 (position.label in template: 11.C)</title><text x="89.27" y="125.8" class="black" >C</text></g>
<g><line x1="89.2351" y1="123.458" x2="89.0949" y2="115.291" class="black" /></g>
<g><title>12 (position.label in template: 12.U)</title><text x="81.71" y="125.8" class="green" >T</text></g>
<g><line x1="81.7449" y1="123.458" x2="81.8851" y2="115.291" class="black" /></g>
<g><title>13 (position.label in template: 13.C)</title><text x="74.15" y="125.8" class="black" >C</text></g>
<g><line x1="74.1151" y1="123.458" x2="73.9749" y2="115.291" class="black" /></g>
<g><title>14 (position.label in template: 14.A)</title><text x="69.02" y="131.16" class="black" >A</text></g>
<g><title>15 (position.label in template: 15.A)</title><text x="61.6" y="132.64" class="black" >A</text></g>
<g><title>16 (position.label in template: 16.C)</title><text x="54.41" y="129.75" class="black" >C</text></g>
<g><title>17 (position.label in template: 17.U)</title><text x="50.21" y="123.46" class="green" >T</text></g>
<g><title>18 (position.label in template: 18.G)</title><text x="50" y="115.9" class="black" >G</text></g>
<g><title>19 (position.label in template: 19.G)</title><text x="54.2" y="109.62" class="black" >G</text></g>
<g><title>20 (position.label in template: 20.U)</title><text x="61.4" y="106.73" class="green" >T</text></g>
<g><text x="60.7489" y="99.8869" class="numbering-label sequential" >20</text></g>
<g><line x1="61.2264" y1="104.905" x2="60.8943" y2="101.414" class="numbering-line sequential" /></g>
<g><title>21 (position.label in template: 21.A)</title><text x="69.02" y="108.21" class="black" >A</text></g>
<g><title>22 (position.label in template: 22.G)</title><text x="73.94" y="113.56" class="black" >G</text></g>
<g><title>23 (position.label in template: 23.A)</title><text x="81.92" y="113.56" class="green" >A</text></g>
<g><title>24 (position.label in template: 24.G)</title><text x="89.06" y="113.56" class="black" >G</text></g>
<g><title>25 (position.label in template: 25.C)</title><text x="96.83" y="113.56" class="black" >C</text></g>
<g><title>26 (position.label in template: 26.A)</title><text x="100.3" y="106.75" class="black" >A</text></g>
<g><title>27 (position.label in template: 27.G)</title><text x="105.23" y="101.4" class="green" >G</text></g>
<g><line x1="107.155" y1="100.428" x2="115.055" y2="97.6911" class="black" /></g>
<g><title>28 (position.label in template: 28.C)</title><text x="102.92" y="94.27" class="black" >C</text></g>
<g><line x1="104.837" y1="93.2765" x2="112.343" y2="90.5825" class="black" /></g>
<g><title>29 (position.label in template: 29.G)</title><text x="100.2" y="87.14" class="black" >G</text></g>
<g><line x1="102.125" y1="86.1679" x2="110.025" y2="83.4311" class="black" /></g>
<g><title>30 (position.label in template: 30.G)</title><text x="97.69" y="80.01" class="black" >G</text></g>
<g><line x1="99.6146" y1="79.0379" x2="107.515" y2="76.3011" class="black" /></g>
<g><text x="91.1493" y="82.1245" class="numbering-label sequential" >30</text></g>
<g><line x1="95.9458" y1="80.5739" x2="92.9823" y2="81.5319" class="numbering-line sequential" /></g>
<g><title>31 (position.label in template: 31.A)</title><text x="95.59" y="72.88" class="green" >A</text></g>
<g><line x1="97.5068" y1="71.8859" x2="105.003" y2="69.1931" class="black" /></g>
<g><title>32 (position.label in template: 32.C)</title><text x="88.85" y="69.07" class="black" >C</text></g>
<g><title>33 (position.label in template: 33.U)</title><text x="85.96" y="62.08" class="green" >T</text></g>
<g><title>34 (position.label in template: 34.C)</title><text x="87.88" y="54.77" class="black" >C</text></g>
<g><title>35 (position.label in template: 35.U)</title><text x="93.84" y="50.11" class="green" >T</text></g>
<g><title>36 (position.label in template: 36.U)</title><text x="101.4" y="50" class="green" >T</text></g>
<g><title>37 (position.label in template: 37.A)</title><text x="107.69" y="54.49" class="black" >A</text></g>
<g><title>38 (position.label in template: 38.A)</title><text x="109.82" y="61.75" class="black" >A</text></g>
<g><title>39 (position.label in template: 39.U)</title><text x="106.92" y="68.81" class="green" >T</text></g>
<g><title>40 (position.label in template: 40.C)</title><text x="109.44" y="75.94" class="black" >C</text></g>
<g><title>41 (position.label in template: 41.C)</title><text x="111.95" y="83.07" class="black" >C</text></g>
<g><title>42 (position.label in template: 42.G)</title><text x="114.26" y="90.2" class="black" >G</text></g>
<g><title>43 (position.label in template: 43.U)</title><text x="116.98" y="97.33" class="green" >T</text></g>
<g><title>44 (position.label in template: 44.A)</title><text x="124.71" y="98.14" class="black" >A</text></g>
<g><title>45 (position.label in template: 45.G)</title><text x="131.11" y="101.4" class="black" >G</text></g>
<g><title>46 (position.label in template: 46.G)</title><text x="136.45" y="106.75" class="black" >G</text></g>
<g><title>47 (position.label in template: 47.U)</title><text x="139.93" y="113.56" class="green" >T</text></g>
<g><title>48 (position.label in template: 48.U)</title><text x="140.74" y="121.08" class="green" >T</text></g>
<g><title>49 (position.label in template: 49.C)</title><text x="139" y="128.44" class="black" >C</text></g>
<g><line x1="137.701" y1="129.703" x2="132.409" y2="136.096" class="black" /></g>
<g><title>50 (position.label in template: 50.G)</title><text x="144.67" y="133.18" class="black" >G</text></g>
<g><line x1="143.415" y1="134.478" x2="138.465" y2="140.801" class="black" /></g>
<g><text x="149.032" y="127.867" class="numbering-label sequential" >50</text></g>
<g><line x1="145.833" y1="131.763" x2="147.778" y2="129.395" class="numbering-line sequential" /></g>
<g><title>51 (position.label in template: 51.G)</title><text x="150.56" y="137.93" class="black" >G</text></g>
<g><line x1="149.304" y1="139.227" x2="144.346" y2="145.551" class="black" /></g>
<g><title>52 (position.label in template: 52.G)</title><text x="156.45" y="142.67" class="black" >G</text></g>
<g><line x1="155.194" y1="143.967" x2="150.236" y2="150.291" class="black" /></g>
<g><title>53 (position.label in template: 53.G)</title><text x="162.34" y="147.41" class="black" >G</text></g>
<g><line x1="161.084" y1="148.707" x2="156.126" y2="155.031" class="black" /></g>
<g><title>54 (position.label in template: 54.U)</title><text x="170.1" y="147.22" class="green" >T</text></g>
<g><title>55 (position.label in template: 55.U)</title><text x="176.24" y="151.65" class="green" >T</text></g>
<g><title>56 (position.label in template: 56.C)</title><text x="178.44" y="158.88" class="black" >C</text></g>
<g><title>57 (position.label in template: 57.G)</title><text x="175.62" y="165.97" class="black" >G</text></g>
<g><title>58 (position.label in template: 58.A)</title><text x="169.66" y="170.04" class="black" >A</text></g>
<g><title>59 (position.label in template: 59.G)</title><text x="161.71" y="169.42" class="black" >G</text></g>
<g><title>60 (position.label in template: 60.U)</title><text x="156.29" y="164.37" class="green" >T</text></g>
<g><title>61 (position.label in template: 61.C)</title><text x="154.87" y="156.94" class="black" >C</text></g>
<g><title>62 (position.label in template: 62.C)</title><text x="148.98" y="152.2" class="black" >C</text></g>
<g><title>63 (position.label in template: 63.C)</title><text x="143.09" y="147.46" class="black" >C</text></g>
<g><title>64 (position.label in template: 64.C)</title><text x="137.21" y="142.71" class="black" >C</text></g>
<g><title>65 (position.label in template: 65.G)</title><text x="131.11" y="137.97" class="black" >G</text></g>
<g><title>66 (position.label in template: 66.G)</title><text x="124.29" y="141.23" class="black" >G</text></g>
<g><title>67 (position.label in template: 67.U)</title><text x="124.5" y="148.79" class="green" >T</text></g>
<g><title>68 (position.label in template: 68.G)</title><text x="124.29" y="156.35" class="black" >G</text></g>
<g><title>69 (position.label in template: 69.G)</title><text x="124.29" y="163.91" class="green" >G</text></g>
<g><title>70 (position.label in template: 70.C)</title><text x="124.5" y="171.47" class="black" >C</text></g>
<g><title>71 (position.label in template: 71.C)</title><text x="124.5" y="179.03" class="black" >C</text></g>
<g><title>72 (position.label in template: 72.U)</title><text x="124.5" y="186.59" class="green" >T</text></g>
<g><title>73 (position.label in template: 73.A)</title><text x="129.94" y="191.834" class="black" >A</text></g>
<g><title>74 (position.label in template: 74.3')</title><text x="124.709" y="197.287" class="green" >3'</text></g>
<g><line x1="112.05" y1="191.804" x2="112.05" y2="188.321" class="gray" /></g>
<g><line x1="112.05" y1="184.248" x2="112.05" y2="180.761" class="gray" /></g>
<g><line x1="112.05" y1="176.688" x2="112.05" y2="173.201" class="gray" /></g>
<g><line x1="112.107" y1="169.129" x2="112.203" y2="165.64" class="gray" /></g>
<g><line x1="112.26" y1="161.568" x2="112.26" y2="158.081" class="gray" /></g>
<g><line x1="112.317" y1="154.009" x2="112.413" y2="150.52" class="gray" /></g>
<g><line x1="112.413" y1="146.449" x2="112.317" y2="142.96" class="gray" /></g>
<g><line x1="110.422" y1="140.046" x2="107.278" y2="138.543" class="gray" /></g>
<g><line x1="104.029" y1="136.196" x2="101.711" y2="133.783" class="gray" /></g>
<g><line x1="99.3328" y1="130.522" x2="97.5872" y2="127.287" class="gray" /></g>
<g><line x1="94.5833" y1="125.494" x2="91.3067" y2="125.494" class="gray" /></g>
<g><line x1="87.2333" y1="125.494" x2="83.7467" y2="125.494" class="gray" /></g>
<g><line x1="79.6733" y1="125.494" x2="76.1867" y2="125.494" class="gray" /></g>
<g><line x1="72.7417" y1="126.966" x2="70.4283" y2="129.383" class="gray" /></g>
<g><line x1="67.0226" y1="131.253" x2="63.5974" y2="131.936" class="gray" /></g>
<g><line x1="59.7102" y1="131.575" x2="56.2998" y2="130.204" class="gray" /></g>
<g><line x1="53.279" y1="127.751" x2="51.341" y2="124.848" class="gray" /></g>
<g><line x1="50.1534" y1="121.119" x2="50.0566" y2="117.63" class="gray" /></g>
<g><line x1="51.1323" y1="113.901" x2="53.0677" y2="111.008" class="gray" /></g>
<g><line x1="56.0902" y1="108.556" x2="59.5098" y2="107.183" class="gray" /></g>
<g><line x1="63.3994" y1="106.813" x2="67.0206" y2="107.516" class="gray" /></g>
<g><line x1="70.3987" y1="109.404" x2="72.5613" y2="111.755" class="gray" /></g>
<g><line x1="75.9767" y1="113.254" x2="79.8833" y2="113.254" class="gray" /></g>
<g><line x1="83.9567" y1="113.254" x2="87.0233" y2="113.254" class="gray" /></g>
<g><line x1="91.0967" y1="113.254" x2="94.7933" y2="113.254" class="gray" /></g>
<g><line x1="97.7547" y1="111.44" x2="99.3753" y2="108.259" class="gray" /></g>
<g><line x1="101.68" y1="104.947" x2="103.85" y2="102.592" class="gray" /></g>
<g><line x1="104.602" y1="99.1569" x2="103.548" y2="95.9021" class="gray" /></g>
<g><line x1="102.194" y1="92.0615" x2="100.926" y2="88.7375" class="gray" /></g>
<g><line x1="99.5237" y1="84.9133" x2="98.3663" y2="81.6257" class="gray" /></g>
<g><line x1="97.1146" y1="77.7507" x2="96.1654" y2="74.5283" class="gray" /></g>
<g><line x1="93.8169" y1="71.5722" x2="90.6231" y2="69.7668" class="gray" /></g>
<g><line x1="88.0718" y1="66.8823" x2="86.7382" y2="63.6567" class="gray" /></g>
<g><line x1="86.4774" y1="59.8046" x2="87.3626" y2="56.4344" class="gray" /></g>
<g><line x1="89.4845" y1="53.2099" x2="92.2355" y2="51.059" class="gray" /></g>
<g><line x1="95.8765" y1="49.7749" x2="99.3635" y2="49.7241" class="gray" /></g>
<g><line x1="103.058" y1="50.8778" x2="106.032" y2="53.0012" class="gray" /></g>
<g><line x1="108.263" y1="56.1389" x2="109.247" y2="59.4901" class="gray" /></g>
<g><line x1="109.046" y1="63.3285" x2="107.694" y2="66.6205" class="gray" /></g>
<g><line x1="107.599" y1="70.4248" x2="108.761" y2="73.7142" class="gray" /></g>
<g><line x1="110.116" y1="77.5557" x2="111.274" y2="80.8433" class="gray" /></g>
<g><line x1="112.578" y1="84.7021" x2="113.632" y2="87.9569" class="gray" /></g>
<g><line x1="114.986" y1="91.7975" x2="116.254" y2="95.1215" class="gray" /></g>
<g><line x1="119.006" y1="97.2367" x2="122.684" y2="97.6222" class="gray" /></g>
<g><line x1="126.525" y1="98.7589" x2="129.295" y2="100.17" class="gray" /></g>
<g><line x1="132.549" y1="102.536" x2="135.011" y2="105.003" class="gray" /></g>
<g><line x1="137.377" y1="108.258" x2="139.003" y2="111.441" class="gray" /></g>
<g><line x1="140.148" y1="115.28" x2="140.522" y2="118.749" class="gray" /></g>
<g><line x1="140.271" y1="122.757" x2="139.469" y2="126.152" class="gray" /></g>
<g><line x1="140.563" y1="129.441" x2="143.107" y2="131.568" class="gray" /></g>
<g><line x1="146.255" y1="134.153" x2="148.975" y2="136.346" class="gray" /></g>
<g><line x1="152.147" y1="138.901" x2="154.863" y2="141.088" class="gray" /></g>
<g><line x1="158.037" y1="143.641" x2="160.753" y2="145.828" class="gray" /></g>
<g><line x1="164.376" y1="147.055" x2="168.064" y2="146.964" class="gray" /></g>
<g><line x1="171.752" y1="148.106" x2="174.588" y2="150.153" class="gray" /></g>
<g><line x1="176.833" y1="153.293" x2="177.847" y2="156.626" class="gray" /></g>
<g><line x1="177.687" y1="160.467" x2="176.373" y2="163.772" class="gray" /></g>
<g><line x1="173.938" y1="166.813" x2="171.342" y2="168.586" class="gray" /></g>
<g><line x1="167.629" y1="169.576" x2="163.741" y2="169.273" class="gray" /></g>
<g><line x1="160.22" y1="167.726" x2="157.78" y2="165.453" class="gray" /></g>
<g><line x1="155.908" y1="162.064" x2="155.252" y2="158.635" class="gray" /></g>
<g><line x1="153.283" y1="155.358" x2="150.567" y2="153.171" class="gray" /></g>
<g><line x1="147.393" y1="150.618" x2="144.677" y2="148.431" class="gray" /></g>
<g><line x1="141.506" y1="145.875" x2="138.794" y2="143.684" class="gray" /></g>
<g><line x1="135.602" y1="141.155" x2="132.718" y2="138.914" class="gray" /></g>
<g><line x1="129.272" y1="138.543" x2="126.128" y2="140.046" class="gray" /></g>
<g><line x1="124.347" y1="142.96" x2="124.443" y2="146.449" class="gray" /></g>
<g><line x1="124.443" y1="150.52" x2="124.347" y2="154.009" class="gray" /></g>
<g><line x1="124.29" y1="158.081" x2="124.29" y2="161.568" class="gray" /></g>
<g><line x1="124.347" y1="165.64" x2="124.443" y2="169.129" class="gray" /></g>
<g><line x1="124.5" y1="173.201" x2="124.5" y2="176.688" class="gray" /></g>
<g><line x1="124.5" y1="180.761" x2="124.5" y2="184.248" class="gray" /></g>
<g><line x1="125.966" y1="187.698" x2="128.474" y2="190.115" class="gray" /></g>
<g><line x1="128.53" y1="192.999" x2="126.119" y2="195.512" class="gray" /></g>
</svg>
