<svg
	xmlns="http://www.w3.org/2000/svg"
	width="223.94"
	height="261.696">
<g><style type="text/css" >
<!-- create color definitions -->
<![CDATA[
circle.red {stroke: rgb(255, 0, 255); fill: none; }
circle.green {stroke: rgb(0, 255, 0); fill: none; }
circle.blue {stroke: rgb(0, 0, 255); fill: none; }
circle.black {stroke: rgb(0, 0, 0); fill: none; }
circle.gray {stroke: rgb(204, 204, 204); fill: none; }
circle.brown {stroke: rgb(211.65, 104.55, 30.6); fill: none; }
line.red {stroke: rgb(255, 0, 255); stroke-width: 0.382987; }
line.green {stroke: rgb(0, 255, 0); stroke-width: 0.382987; }
line.blue {stroke: rgb(0, 0, 255); stroke-width: 0.382987; }
line.black {stroke: rgb(0, 0, 0); stroke-width: 0.382987; }
line.gray {stroke: rgb(204, 204, 204); stroke-width: 0.382987; }
line.brown {stroke: rgb(211.65, 104.55, 30.6); stroke-width: 0.382987; }
line {stroke: rgb(0, 0, 0); }
text.red {fill: rgb(255, 0, 255); font-size: 3.063892px; font-weight: bold; font-family: Helvetica; }
text.green {fill: rgb(0, 255, 0); font-size: 3.063892px; font-weight: bold; font-family: Helvetica; }
text.blue {fill: rgb(0, 0, 255); font-size: 3.063892px; font-weight: bold; font-family: Helvetica; }
text.black {fill: rgb(0, 0, 0); font-size: 3.063892px; font-weight: bold; font-family: Helvetica; }
text.gray {fill: rgb(204, 204, 204); font-size: 3.063892px; font-weight: bold; font-family: Helvetica; }
text.brown {fill: rgb(211.65, 104.55, 30.6); font-size: 3.063892px; font-weight: bold; font-family: Helvetica; }
text {fill: rgb(0, 0, 0); font-size: 3.063892px; font-weight: bold; font-family: Helvetica; text-anchor: middle; alignment-baseline: middle; }

.pseudoknot_connection{stroke-linecap: round; stroke-opacity: 0.2; stroke-width: 1.5; }
.pseudoknot_segment1{stroke-linecap: round; stroke-opacity: 0.4; stroke-width: 3.06389; }
.pseudoknot_segment2{stroke-linecap: round; stroke-opacity: 0.4; stroke-width: 3.06389; }
line.numbering-line{stroke: rgb(204, 204, 204); stroke-width: 0.191493; }
line.predicted{stroke: rgb(0, 0, 0); stroke-dasharray: 2; }
polyline{fill: none; stroke-linejoin: round; }
template{visibility: hidden; }
text.numbering-label{fill: rgb(204, 204, 204); }
]]>
</style></g>
<g><title>0 (position.label in template: 0.5')</title><text x="107.55" y="213.911" class="green" >5'</text></g>
<g><title>1 (position.label in template: 1.G)</title><text x="107.55" y="206.35" class="black" >G</text></g>
<g><line x1="109.593" y1="206.044" x2="117.957" y2="206.044" class="black" /></g>
<g><title>2 (position.label in template: 2.G)</title><text x="107.55" y="198.79" class="black" >G</text></g>
<g><line x1="109.593" y1="198.484" x2="117.957" y2="198.484" class="black" /></g>
<g><title>3 (position.label in template: 3.C)</title><text x="107.76" y="191.23" class="black" >C</text></g>
<g><line x1="109.803" y1="190.924" x2="117.747" y2="190.924" class="black" /></g>
<g><title>4 (position.label in template: 4.U)</title><text x="107.76" y="183.67" class="green" >T</text></g>
<g><line x1="109.803" y1="183.364" x2="118.157" y2="183.364" class="black" /></g>
<g><title>5 (position.label in template: 5.U)</title><text x="107.76" y="176.11" class="green" >T</text></g>
<g><line x1="109.803" y1="175.804" x2="118.157" y2="175.804" class="black" /></g>
<g><title>6 (position.label in template: 6.G)</title><text x="107.55" y="168.55" class="black" >G</text></g>
<g><line x1="109.593" y1="168.244" x2="117.957" y2="168.244" class="black" /></g>
<g><title>7 (position.label in template: 7.A)</title><text x="107.96" y="160.99" class="green" >A</text></g>
<g><line x1="110.003" y1="160.684" x2="117.957" y2="160.684" class="black" /></g>
<g><title>8 (position.label in template: 8.U)</title><text x="100.94" y="157.72" class="green" >T</text></g>
<g><title>9 (position.label in template: 9.G)</title><text x="95.38" y="152.38" class="black" >G</text></g>
<g><title>10 (position.label in template: 10.G)</title><text x="92.12" y="145.56" class="green" >G</text></g>
<g><line x1="92.155" y1="143.211" x2="92.295" y2="135.056" class="black" /></g>
<g><text x="88.3924" y="151.359" class="numbering-label sequential" >10</text></g>
<g><line x1="91.126" y1="147.106" x2="89.3771" y2="149.827" class="numbering-line sequential" /></g>
<g><title>11 (position.label in template: 11.U)</title><text x="84.77" y="145.56" class="green" >T</text></g>
<g><line x1="84.805" y1="143.211" x2="84.945" y2="135.056" class="black" /></g>
<g><title>12 (position.label in template: 12.C)</title><text x="77.21" y="145.56" class="black" >C</text></g>
<g><line x1="77.175" y1="143.211" x2="77.035" y2="135.056" class="black" /></g>
<g><title>13 (position.label in template: 13.U)</title><text x="72.25" y="151.27" class="green" >T</text></g>
<g><title>14 (position.label in template: 14.A)</title><text x="65.27" y="153.62" class="black" >A</text></g>
<g><title>15 (position.label in template: 15.G)</title><text x="57.48" y="151.95" class="black" >G</text></g>
<g><title>16 (position.label in template: 16.U)</title><text x="52.22" y="146.73" class="green" >T</text></g>
<g><title>17 (position.label in template: 17.G)</title><text x="50" y="139.44" class="black" >G</text></g>
<g><title>18 (position.label in template: 18.G)</title><text x="52.01" y="132.15" class="black" >G</text></g>
<g><title>19 (position.label in template: 19.U)</title><text x="57.69" y="126.93" class="green" >T</text></g>
<g><title>20 (position.label in template: 20.A)</title><text x="65.27" y="125.26" class="black" >A</text></g>
<g><text x="65.5916" y="118.374" class="numbering-label sequential" >20</text></g>
<g><line x1="65.3558" y1="123.424" x2="65.5201" y2="119.906" class="numbering-line sequential" /></g>
<g><title>21 (position.label in template: 21.U)</title><text x="72.25" y="127.61" class="green" >T</text></g>
<g><title>22 (position.label in template: 22.G)</title><text x="77" y="133.32" class="black" >G</text></g>
<g><title>23 (position.label in template: 23.A)</title><text x="84.98" y="133.32" class="green" >A</text></g>
<g><title>24 (position.label in template: 24.U)</title><text x="92.33" y="133.32" class="green" >T</text></g>
<g><title>25 (position.label in template: 25.U)</title><text x="95.59" y="126.5" class="green" >T</text></g>
<g><title>26 (position.label in template: 26.C)</title><text x="100.94" y="121.15" class="black" >C</text></g>
<g><line x1="102.862" y1="120.153" x2="110.348" y2="117.464" class="black" /></g>
<g><title>27 (position.label in template: 27.C)</title><text x="98.42" y="114.02" class="black" >C</text></g>
<g><line x1="100.343" y1="113.024" x2="107.837" y2="110.334" class="black" /></g>
<g><title>28 (position.label in template: 28.U)</title><text x="95.91" y="106.9" class="green" >T</text></g>
<g><line x1="97.8396" y1="105.924" x2="105.73" y2="103.184" class="black" /></g>
<g><title>29 (position.label in template: 29.G)</title><text x="93.18" y="99.77" class="black" >G</text></g>
<g><line x1="95.1098" y1="98.7941" x2="103.01" y2="96.0531" class="black" /></g>
<g><title>30 (position.label in template: 30.C)</title><text x="90.88" y="92.64" class="black" >C</text></g>
<g><line x1="92.8018" y1="91.6416" x2="100.288" y2="88.9457" class="black" /></g>
<g><text x="86.4849" y="97.951" class="numbering-label sequential" >30</text></g>
<g><line x1="89.708" y1="94.0563" x2="87.7526" y2="96.4191" class="numbering-line sequential" /></g>
<g><title>31 (position.label in template: 31.U)</title><text x="83.38" y="91.66" class="green" >T</text></g>
<g><title>32 (position.label in template: 32.U)</title><text x="76.7" y="88.12" class="green" >T</text></g>
<g><title>33 (position.label in template: 33.C)</title><text x="71.67" y="82.48" class="black" >C</text></g>
<g><title>34 (position.label in template: 34.G)</title><text x="68.71" y="75.43" class="black" >G</text></g>
<g><title>35 (position.label in template: 35.G)</title><text x="68.6" y="67.88" class="black" >G</text></g>
<g><title>36 (position.label in template: 36.G)</title><text x="71.12" y="60.75" class="black" >G</text></g>
<g><title>37 (position.label in template: 37.U)</title><text x="76.19" y="54.96" class="green" >T</text></g>
<g><title>38 (position.label in template: 38.U)</title><text x="82.76" y="51.22" class="green" >T</text></g>
<g><title>39 (position.label in template: 39.A)</title><text x="90.43" y="50" class="black" >A</text></g>
<g><title>40 (position.label in template: 40.G)</title><text x="97.43" y="51.47" class="black" >G</text></g>
<g><title>41 (position.label in template: 41.U)</title><text x="104.07" y="55.43" class="green" >T</text></g>
<g><title>42 (position.label in template: 42.G)</title><text x="108.52" y="61.39" class="black" >G</text></g>
<g><title>43 (position.label in template: 43.A)</title><text x="111.21" y="68.6" class="black" >A</text></g>
<g><title>44 (position.label in template: 44.U)</title><text x="110.63" y="76.15" class="green" >T</text></g>
<g><title>45 (position.label in template: 45.U)</title><text x="107.64" y="83.1" class="green" >T</text></g>
<g><title>46 (position.label in template: 46.G)</title><text x="102.21" y="88.56" class="black" >G</text></g>
<g><title>47 (position.label in template: 47.C)</title><text x="104.94" y="95.69" class="black" >C</text></g>
<g><title>48 (position.label in template: 48.A)</title><text x="107.66" y="102.82" class="green" >A</text></g>
<g><title>49 (position.label in template: 49.G)</title><text x="109.76" y="109.95" class="black" >G</text></g>
<g><title>50 (position.label in template: 50.G)</title><text x="112.27" y="117.08" class="black" >G</text></g>
<g><text x="116.443" y="111.593" class="numbering-label sequential" >50</text></g>
<g><line x1="113.383" y1="115.617" x2="115.278" y2="113.125" class="numbering-line sequential" /></g>
<g><title>51 (position.label in template: 51.A)</title><text x="120.2" y="117.89" class="black" >A</text></g>
<g><title>52 (position.label in template: 52.G)</title><text x="126.61" y="121.15" class="black" >G</text></g>
<g><title>53 (position.label in template: 53.G)</title><text x="131.95" y="126.5" class="black" >G</text></g>
<g><title>54 (position.label in template: 54.C)</title><text x="135.43" y="133.32" class="black" >C</text></g>
<g><title>55 (position.label in template: 55.C)</title><text x="136.23" y="140.84" class="black" >C</text></g>
<g><title>56 (position.label in template: 56.C)</title><text x="134.5" y="148.19" class="black" >C</text></g>
<g><line x1="133.197" y1="149.457" x2="127.913" y2="155.84" class="black" /></g>
<g><title>57 (position.label in template: 57.C)</title><text x="140.38" y="152.94" class="black" >C</text></g>
<g><line x1="139.077" y1="154.207" x2="133.793" y2="160.59" class="black" /></g>
<g><title>58 (position.label in template: 58.G)</title><text x="146.06" y="157.68" class="black" >G</text></g>
<g><line x1="144.8" y1="158.981" x2="139.85" y2="165.296" class="black" /></g>
<g><title>59 (position.label in template: 59.G)</title><text x="151.95" y="162.42" class="black" >G</text></g>
<g><line x1="150.69" y1="163.721" x2="145.74" y2="170.036" class="black" /></g>
<g><title>60 (position.label in template: 60.G)</title><text x="157.83" y="167.17" class="black" >G</text></g>
<g><line x1="156.57" y1="168.471" x2="151.62" y2="174.786" class="black" /></g>
<g><title>61 (position.label in template: 61.U)</title><text x="165.6" y="166.98" class="green" >T</text></g>
<g><title>62 (position.label in template: 62.U)</title><text x="171.73" y="171.4" class="green" >T</text></g>
<g><title>63 (position.label in template: 63.C)</title><text x="173.94" y="178.63" class="black" >C</text></g>
<g><title>64 (position.label in template: 64.G)</title><text x="171.11" y="185.73" class="black" >G</text></g>
<g><title>65 (position.label in template: 65.A)</title><text x="165.16" y="189.79" class="black" >A</text></g>
<g><title>66 (position.label in template: 66.C)</title><text x="157.42" y="189.17" class="black" >C</text></g>
<g><title>67 (position.label in template: 67.U)</title><text x="151.79" y="184.12" class="green" >T</text></g>
<g><title>68 (position.label in template: 68.C)</title><text x="150.36" y="176.7" class="black" >C</text></g>
<g><title>69 (position.label in template: 69.C)</title><text x="144.48" y="171.95" class="black" >C</text></g>
<g><title>70 (position.label in template: 70.C)</title><text x="138.59" y="167.21" class="black" >C</text></g>
<g><title>71 (position.label in template: 71.G)</title><text x="132.49" y="162.47" class="black" >G</text></g>
<g><title>72 (position.label in template: 72.G)</title><text x="126.61" y="157.72" class="black" >G</text></g>
<g><title>73 (position.label in template: 73.U)</title><text x="120" y="160.99" class="green" >T</text></g>
<g><title>74 (position.label in template: 74.C)</title><text x="120" y="168.55" class="black" >C</text></g>
<g><title>75 (position.label in template: 75.A)</title><text x="120.2" y="176.11" class="green" >A</text></g>
<g><title>76 (position.label in template: 76.A)</title><text x="120.2" y="183.67" class="green" >A</text></g>
<g><title>77 (position.label in template: 77.G)</title><text x="119.79" y="191.23" class="black" >G</text></g>
<g><title>78 (position.label in template: 78.C)</title><text x="120" y="198.79" class="black" >C</text></g>
<g><title>79 (position.label in template: 79.C)</title><text x="120" y="206.35" class="black" >C</text></g>
<g><title>80 (position.label in template: 80.C)</title><text x="125.346" y="211.696" class="black" >C</text></g>
<g><title>81 (position.label in template: 81.3')</title><text x="120.113" y="217.153" class="green" >3'</text></g>
<g><line x1="107.55" y1="211.562" x2="107.55" y2="208.086" class="gray" /></g>
<g><line x1="107.55" y1="204.001" x2="107.55" y2="200.526" class="gray" /></g>
<g><line x1="107.607" y1="196.442" x2="107.703" y2="192.965" class="gray" /></g>
<g><line x1="107.76" y1="188.881" x2="107.76" y2="185.406" class="gray" /></g>
<g><line x1="107.76" y1="181.321" x2="107.76" y2="177.846" class="gray" /></g>
<g><line x1="107.703" y1="173.762" x2="107.607" y2="170.285" class="gray" /></g>
<g><line x1="107.661" y1="166.204" x2="107.849" y2="162.723" class="gray" /></g>
<g><line x1="106.108" y1="159.821" x2="102.792" y2="158.276" class="gray" /></g>
<g><line x1="99.4668" y1="155.999" x2="96.8532" y2="153.489" class="gray" /></g>
<g><line x1="94.4991" y1="150.231" x2="93.0009" y2="147.096" class="gray" /></g>
<g><line x1="90.0774" y1="145.254" x2="86.8126" y2="145.254" class="gray" /></g>
<g><line x1="82.7274" y1="145.254" x2="79.2526" y2="145.254" class="gray" /></g>
<g><line x1="75.8705" y1="146.796" x2="73.5895" y2="149.422" class="gray" /></g>
<g><line x1="70.3142" y1="151.615" x2="67.2058" y2="152.662" class="gray" /></g>
<g><line x1="63.2728" y1="152.885" x2="59.4772" y2="152.072" class="gray" /></g>
<g><line x1="56.0302" y1="150.205" x2="53.6698" y2="147.862" class="gray" /></g>
<g><line x1="51.625" y1="144.47" x2="50.595" y2="141.088" class="gray" /></g>
<g><line x1="50.5429" y1="137.164" x2="51.4671" y2="133.813" class="gray" /></g>
<g><line x1="53.5139" y1="130.461" x2="56.1861" y2="128.006" class="gray" /></g>
<g><line x1="59.6848" y1="126.184" x2="63.2752" y2="125.393" class="gray" /></g>
<g><line x1="67.2058" y1="125.605" x2="70.3142" y2="126.652" class="gray" /></g>
<g><line x1="73.5563" y1="128.874" x2="75.6937" y2="131.443" class="gray" /></g>
<g><line x1="79.0426" y1="133.014" x2="82.9374" y2="133.014" class="gray" /></g>
<g><line x1="87.0226" y1="133.014" x2="90.2874" y2="133.014" class="gray" /></g>
<g><line x1="93.2109" y1="131.171" x2="94.7091" y2="128.036" class="gray" /></g>
<g><line x1="97.0343" y1="124.749" x2="99.4957" y2="122.288" class="gray" /></g>
<g><line x1="100.259" y1="118.918" x2="99.1007" y2="115.639" class="gray" /></g>
<g><line x1="97.7409" y1="111.787" x2="96.5891" y2="108.52" class="gray" /></g>
<g><line x1="95.1796" y1="104.686" x2="93.9104" y2="101.371" class="gray" /></g>
<g><line x1="92.5529" y1="97.5197" x2="91.5071" y2="94.2776" class="gray" /></g>
<g><line x1="88.8546" y1="92.069" x2="85.4054" y2="91.6183" class="gray" /></g>
<g><line x1="81.5752" y1="90.3972" x2="78.5048" y2="88.7701" class="gray" /></g>
<g><line x1="75.3405" y1="86.2892" x2="73.0295" y2="83.698" class="gray" /></g>
<g><line x1="70.8793" y1="80.2903" x2="69.5007" y2="77.0069" class="gray" /></g>
<g><line x1="68.6802" y1="73.0812" x2="68.6298" y2="69.616" class="gray" /></g>
<g><line x1="69.2807" y1="65.6478" x2="70.4393" y2="62.3695" class="gray" /></g>
<g><line x1="72.4656" y1="58.9069" x2="74.8444" y2="56.1903" class="gray" /></g>
<g><line x1="77.9651" y1="53.6431" x2="80.9849" y2="51.9241" class="gray" /></g>
<g><line x1="84.7772" y1="50.5927" x2="88.4128" y2="50.0145" class="gray" /></g>
<g><line x1="92.429" y1="50.1134" x2="95.431" y2="50.7438" class="gray" /></g>
<g><line x1="99.1843" y1="52.2099" x2="102.316" y2="54.0774" class="gray" /></g>
<g><line x1="105.292" y1="56.7603" x2="107.298" y2="59.4469" class="gray" /></g>
<g><line x1="109.234" y1="62.9973" x2="110.496" y2="66.3799" class="gray" /></g>
<g><line x1="111.054" y1="70.3302" x2="110.786" y2="73.807" class="gray" /></g>
<g><line x1="109.823" y1="77.7199" x2="108.447" y2="80.9173" class="gray" /></g>
<g><line x1="106.2" y1="84.2419" x2="103.65" y2="86.8053" class="gray" /></g>
<g><line x1="102.94" y1="90.1612" x2="104.21" y2="93.4761" class="gray" /></g>
<g><line x1="105.668" y1="97.2921" x2="106.932" y2="100.605" class="gray" /></g>
<g><line x1="108.237" y1="104.473" x2="109.183" y2="107.684" class="gray" /></g>
<g><line x1="110.438" y1="111.57" x2="111.592" y2="114.847" class="gray" /></g>
<g><line x1="114.302" y1="116.981" x2="118.168" y2="117.376" class="gray" /></g>
<g><line x1="122.021" y1="118.51" x2="124.789" y2="119.918" class="gray" /></g>
<g><line x1="128.053" y1="122.289" x2="130.507" y2="124.748" class="gray" /></g>
<g><line x1="132.878" y1="128.013" x2="134.502" y2="131.194" class="gray" /></g>
<g><line x1="135.646" y1="135.045" x2="136.014" y2="138.502" class="gray" /></g>
<g><line x1="135.762" y1="142.522" x2="134.968" y2="145.895" class="gray" /></g>
<g><line x1="136.089" y1="149.167" x2="138.791" y2="151.35" class="gray" /></g>
<g><line x1="141.948" y1="153.942" x2="144.492" y2="156.065" class="gray" /></g>
<g><line x1="147.651" y1="158.654" x2="150.359" y2="160.833" class="gray" /></g>
<g><line x1="153.539" y1="163.397" x2="156.241" y2="165.58" class="gray" /></g>
<g><line x1="159.872" y1="166.814" x2="163.558" y2="166.724" class="gray" /></g>
<g><line x1="167.257" y1="167.868" x2="170.073" y2="169.899" class="gray" /></g>
<g><line x1="172.327" y1="173.047" x2="173.343" y2="176.37" class="gray" /></g>
<g><line x1="173.184" y1="180.221" x2="171.866" y2="183.526" class="gray" /></g>
<g><line x1="169.423" y1="186.575" x2="166.847" y2="188.332" class="gray" /></g>
<g><line x1="163.124" y1="189.321" x2="159.456" y2="189.027" class="gray" /></g>
<g><line x1="155.899" y1="187.5" x2="153.311" y2="185.177" class="gray" /></g>
<g><line x1="151.403" y1="181.808" x2="150.747" y2="178.399" class="gray" /></g>
<g><line x1="148.771" y1="175.11" x2="146.069" y2="172.927" class="gray" /></g>
<g><line x1="142.889" y1="170.363" x2="140.181" y2="168.184" class="gray" /></g>
<g><line x1="136.977" y1="165.65" x2="134.103" y2="163.417" class="gray" /></g>
<g><line x1="130.901" y1="160.88" x2="128.199" y2="158.697" class="gray" /></g>
<g><line x1="124.779" y1="158.319" x2="121.831" y2="159.778" class="gray" /></g>
<g><line x1="120" y1="162.726" x2="120" y2="166.201" class="gray" /></g>
<g><line x1="120.054" y1="170.285" x2="120.146" y2="173.762" class="gray" /></g>
<g><line x1="120.2" y1="177.846" x2="120.2" y2="181.321" class="gray" /></g>
<g><line x1="120.089" y1="185.403" x2="119.901" y2="188.884" class="gray" /></g>
<g><line x1="119.847" y1="192.965" x2="119.943" y2="196.442" class="gray" /></g>
<g><line x1="120" y1="200.526" x2="120" y2="204.001" class="gray" /></g>
<g><line x1="121.444" y1="207.488" x2="123.902" y2="209.945" class="gray" /></g>
<g><line x1="123.932" y1="212.864" x2="121.527" y2="215.372" class="gray" /></g>
</svg>
