<svg
	xmlns="http://www.w3.org/2000/svg"
	width="290.64"
	height="236.91">
<g><style type="text/css" >
<!-- create color definitions -->
<![CDATA[
circle.red {stroke: rgb(255, 0, 255); fill: none; }
circle.green {stroke: rgb(0, 255, 0); fill: none; }
circle.blue {stroke: rgb(0, 0, 255); fill: none; }
circle.black {stroke: rgb(0, 0, 0); fill: none; }
circle.gray {stroke: rgb(204, 204, 204); fill: none; }
circle.brown {stroke: rgb(211.65, 104.55, 30.6); fill: none; }
line.red {stroke: rgb(255, 0, 255); stroke-width: 0.382629; }
line.green {stroke: rgb(0, 255, 0); stroke-width: 0.382629; }
line.blue {stroke: rgb(0, 0, 255); stroke-width: 0.382629; }
line.black {stroke: rgb(0, 0, 0); stroke-width: 0.382629; }
line.gray {stroke: rgb(204, 204, 204); stroke-width: 0.382629; }
line.brown {stroke: rgb(211.65, 104.55, 30.6); stroke-width: 0.382629; }
line {stroke: rgb(0, 0, 0); }
text.red {fill: rgb(255, 0, 255); font-size: 3.061035px; font-weight: bold; font-family: Helvetica; }
text.green {fill: rgb(0, 255, 0); font-size: 3.061035px; font-weight: bold; font-family: Helvetica; }
text.blue {fill: rgb(0, 0, 255); font-size: 3.061035px; font-weight: bold; font-family: Helvetica; }
text.black {fill: rgb(0, 0, 0); font-size: 3.061035px; font-weight: bold; font-family: Helvetica; }
text.gray {fill: rgb(204, 204, 204); font-size: 3.061035px; font-weight: bold; font-family: Helvetica; }
text.brown {fill: rgb(211.65, 104.55, 30.6); font-size: 3.061035px; font-weight: bold; font-family: Helvetica; }
text {fill: rgb(0, 0, 0); font-size: 3.061035px; font-weight: bold; font-family: Helvetica; text-anchor: middle; alignment-baseline: middle; }

.pseudoknot_connection{stroke-linecap: round; stroke-opacity: 0.2; stroke-width: 1.5; }
.pseudoknot_segment1{stroke-linecap: round; stroke-opacity: 0.4; stroke-width: 3.06104; }
.pseudoknot_segment2{stroke-linecap: round; stroke-opacity: 0.4; stroke-width: 3.06104; }
line.numbering-line{stroke: rgb(204, 204, 204); stroke-width: 0.191315; }
line.predicted{stroke: rgb(0, 0, 0); stroke-dasharray: 2; }
polyline{fill: none; stroke-linejoin: round; }
template{visibility: hidden; }
text.numbering-label{fill: rgb(204, 204, 204); }
]]>
</style></g>
<g><title>0 (position.label in template: 0.5')</title><text x="96.4806" y="146.886" class="green" >5'</text></g>
<g><title>1 (position.label in template: 1.U)</title><text x="104.05" y="146.886" class="green" >T</text></g>
<g><title>2 (position.label in template: 2.C)</title><text x="111.62" y="146.886" class="black" >C</text></g>
<g><title>3 (position.label in template: 3.G)</title><text x="119.19" y="146.886" class="black" >G</text></g>
<g><title>4 (position.label in template: 4.U)</title><text x="126.759" y="146.886" class="green" >T</text></g>
<g><title>5 (position.label in template: 5.G)</title><text x="134.329" y="146.886" class="black" >G</text></g>
<g><title>6 (position.label in template: 6.A)</title><text x="139.88" y="141.74" class="black" >A</text></g>
<g><line x1="141.921" y1="141.434" x2="149.659" y2="141.434" class="black" /></g>
<g><title>7 (position.label in template: 7.C)</title><text x="139.67" y="134.18" class="black" >C</text></g>
<g><line x1="141.711" y1="133.874" x2="150.079" y2="133.874" class="black" /></g>
<g><title>8 (position.label in template: 8.A)</title><text x="139.88" y="126.62" class="black" >A</text></g>
<g><line x1="141.921" y1="126.314" x2="149.869" y2="126.314" class="black" /></g>
<g><title>9 (position.label in template: 9.U)</title><text x="139.67" y="119.06" class="green" >T</text></g>
<g><line x1="141.711" y1="118.754" x2="150.079" y2="118.754" class="black" /></g>
<g><title>10 (position.label in template: 10.C)</title><text x="139.67" y="111.5" class="black" >C</text></g>
<g><line x1="141.711" y1="111.194" x2="149.659" y2="111.194" class="black" /></g>
<g><text x="133.604" y="114.762" class="numbering-label sequential" >10</text></g>
<g><line x1="138.052" y1="112.37" x2="135.441" y2="113.774" class="numbering-line sequential" /></g>
<g><title>11 (position.label in template: 11.A)</title><text x="133.46" y="107.51" class="green" >A</text></g>
<g><line x1="132.529" y1="105.388" x2="128.761" y2="98.0398" class="black" /></g>
<g><title>12 (position.label in template: 12.C)</title><text x="126.47" y="110.86" class="black" >C</text></g>
<g><line x1="125.539" y1="108.738" x2="121.771" y2="101.39" class="black" /></g>
<g><title>13 (position.label in template: 13.G)</title><text x="119.49" y="114.21" class="black" >G</text></g>
<g><line x1="118.613" y1="112.061" x2="115.147" y2="104.777" class="black" /></g>
<g><title>14 (position.label in template: 14.G)</title><text x="112.71" y="117.56" class="black" >G</text></g>
<g><line x1="111.835" y1="115.411" x2="108.375" y2="108.127" class="black" /></g>
<g><title>15 (position.label in template: 15.G)</title><text x="112.69" y="125.12" class="black" >G</text></g>
<g><title>16 (position.label in template: 16.A)</title><text x="110.48" y="132.21" class="black" >A</text></g>
<g><title>17 (position.label in template: 17.G)</title><text x="105.17" y="137.97" class="black" >G</text></g>
<g><line x1="103.298" y1="138.477" x2="95.9917" y2="141.651" class="black" /></g>
<g><title>18 (position.label in template: 18.U)</title><text x="108.35" y="144.92" class="green" >T</text></g>
<g><line x1="106.479" y1="145.428" x2="99.1711" y2="148.609" class="black" /></g>
<g><title>19 (position.label in template: 19.C)</title><text x="111.32" y="151.87" class="black" >C</text></g>
<g><line x1="109.438" y1="152.353" x2="101.732" y2="155.585" class="black" /></g>
<g><title>20 (position.label in template: 20.C)</title><text x="114.28" y="158.83" class="black" >C</text></g>
<g><line x1="112.398" y1="159.312" x2="104.702" y2="162.536" class="black" /></g>
<g><text x="120.65" y="156.211" class="numbering-label sequential" >20</text></g>
<g><line x1="115.979" y1="158.132" x2="118.813" y2="156.966" class="numbering-line sequential" /></g>
<g><title>21 (position.label in template: 21.G)</title><text x="117.04" y="165.78" class="black" >G</text></g>
<g><line x1="115.169" y1="166.288" x2="107.871" y2="169.46" class="black" /></g>
<g><title>22 (position.label in template: 22.G)</title><text x="123.42" y="169.84" class="black" >G</text></g>
<g><title>23 (position.label in template: 23.U)</title><text x="125.71" y="177.11" class="green" >T</text></g>
<g><title>24 (position.label in template: 24.G)</title><text x="122.25" y="183.94" class="black" >G</text></g>
<g><title>25 (position.label in template: 25.A)</title><text x="115.72" y="186.91" class="black" >A</text></g>
<g><title>26 (position.label in template: 26.A)</title><text x="108.54" y="184.53" class="black" >A</text></g>
<g><title>27 (position.label in template: 27.C)</title><text x="104.53" y="178" class="black" >C</text></g>
<g><title>28 (position.label in template: 28.C)</title><text x="106" y="170.58" class="black" >C</text></g>
<g><title>29 (position.label in template: 29.G)</title><text x="102.82" y="163.63" class="black" >G</text></g>
<g><title>30 (position.label in template: 30.G)</title><text x="99.85" y="156.68" class="black" >G</text></g>
<g><text x="93.4489" y="159.222" class="numbering-label sequential" >30</text></g>
<g><line x1="98.1431" y1="157.358" x2="95.2856" y2="158.493" class="numbering-line sequential" /></g>
<g><title>31 (position.label in template: 31.A)</title><text x="97.3" y="149.73" class="green" >A</text></g>
<g><title>32 (position.label in template: 32.C)</title><text x="94.12" y="142.77" class="black" >C</text></g>
<g><title>33 (position.label in template: 33.U)</title><text x="86.57" y="142.33" class="green" >T</text></g>
<g><title>34 (position.label in template: 34.G)</title><text x="79.43" y="139.32" class="black" >G</text></g>
<g><title>35 (position.label in template: 35.A)</title><text x="74.37" y="134.11" class="black" >A</text></g>
<g><title>36 (position.label in template: 36.G)</title><text x="70.6" y="127.33" class="black" >G</text></g>
<g><title>37 (position.label in template: 37.A)</title><text x="70.2" y="119.82" class="black" >A</text></g>
<g><title>38 (position.label in template: 38.G)</title><text x="71.61" y="112.48" class="black" >G</text></g>
<g><title>39 (position.label in template: 39.G)</title><text x="75.84" y="106.21" class="black" >G</text></g>
<g><line x1="77.6248" y1="104.915" x2="84.9152" y2="100.873" class="black" /></g>
<g><title>40 (position.label in template: 40.A)</title><text x="72.53" y="99.63" class="green" >A</text></g>
<g><line x1="74.2983" y1="98.3052" x2="81.2117" y2="94.3226" class="black" /></g>
<g><title>41 (position.label in template: 41.G)</title><text x="68.39" y="93.05" class="black" >G</text></g>
<g><line x1="70.1752" y1="91.7552" x2="77.4748" y2="87.7126" class="black" /></g>
<g><title>42 (position.label in template: 42.G)</title><text x="64.67" y="86.47" class="black" >G</text></g>
<g><line x1="66.4552" y1="85.1752" x2="73.7548" y2="81.1326" class="black" /></g>
<g><title>43 (position.label in template: 43.G)</title><text x="60.95" y="79.89" class="black" >G</text></g>
<g><line x1="62.7341" y1="78.5933" x2="70.0259" y2="74.5445" class="black" /></g>
<g><title>44 (position.label in template: 44.C)</title><text x="54.07" y="77.28" class="black" >C</text></g>
<g><title>45 (position.label in template: 45.U)</title><text x="50" y="70.9" class="green" >T</text></g>
<g><title>46 (position.label in template: 46.U)</title><text x="50.62" y="63.37" class="green" >T</text></g>
<g><title>47 (position.label in template: 47.C)</title><text x="55.67" y="57.74" class="black" >C</text></g>
<g><title>48 (position.label in template: 48.G)</title><text x="62.88" y="56.31" class="black" >G</text></g>
<g><title>49 (position.label in template: 49.A)</title><text x="70.07" y="59.67" class="black" >A</text></g>
<g><title>50 (position.label in template: 50.G)</title><text x="73.02" y="66.44" class="black" >G</text></g>
<g><text x="79.8561" y="65.6017" class="numbering-label sequential" >50</text></g>
<g><line x1="74.843" y1="66.2165" x2="78.0195" y2="65.827" class="numbering-line sequential" /></g>
<g><title>51 (position.label in template: 51.C)</title><text x="71.81" y="73.86" class="black" >C</text></g>
<g><title>52 (position.label in template: 52.C)</title><text x="75.54" y="80.45" class="black" >C</text></g>
<g><title>53 (position.label in template: 53.C)</title><text x="79.26" y="87.03" class="black" >C</text></g>
<g><title>54 (position.label in template: 54.U)</title><text x="82.98" y="93.61" class="green" >T</text></g>
<g><title>55 (position.label in template: 55.C)</title><text x="86.7" y="100.19" class="black" >C</text></g>
<g><title>56 (position.label in template: 56.G)</title><text x="94.04" y="99.79" class="black" >G</text></g>
<g><title>57 (position.label in template: 57.A)</title><text x="101.68" y="102.01" class="black" >A</text></g>
<g><title>58 (position.label in template: 58.C)</title><text x="107.5" y="106.59" class="black" >C</text></g>
<g><title>59 (position.label in template: 59.C)</title><text x="114.27" y="103.24" class="black" >C</text></g>
<g><title>60 (position.label in template: 60.G)</title><text x="120.84" y="99.88" class="black" >G</text></g>
<g><title>61 (position.label in template: 61.U)</title><text x="127.83" y="96.53" class="green" >T</text></g>
<g><title>62 (position.label in template: 62.C)</title><text x="128.56" y="89.01" class="black" >C</text></g>
<g><title>63 (position.label in template: 63.U)</title><text x="132.3" y="82.44" class="green" >T</text></g>
<g><title>64 (position.label in template: 64.G)</title><text x="138.19" y="77.98" class="black" >G</text></g>
<g><title>65 (position.label in template: 65.A)</title><text x="146" y="76.4" class="black" >A</text></g>
<g><title>66 (position.label in template: 66.A)</title><text x="153.39" y="77.98" class="black" >A</text></g>
<g><title>67 (position.label in template: 67.C)</title><text x="159.29" y="82.44" class="black" >C</text></g>
<g><line x1="160.022" y1="84.0389" x2="162.918" y2="91.5789" class="black" /></g>
<g><title>68 (position.label in template: 68.C)</title><text x="166.3" y="79.61" class="black" >C</text></g>
<g><line x1="167.033" y1="81.2085" x2="169.937" y2="88.7593" class="black" /></g>
<g><title>69 (position.label in template: 69.U)</title><text x="173.31" y="76.79" class="green" >T</text></g>
<g><line x1="174.102" y1="78.3646" x2="177.298" y2="85.9532" class="black" /></g>
<g><title>70 (position.label in template: 70.G)</title><text x="180.11" y="73.96" class="black" >G</text></g>
<g><line x1="180.903" y1="75.534" x2="184.107" y2="83.1238" class="black" /></g>
<g><title>71 (position.label in template: 71.A)</title><text x="184.26" y="67.38" class="black" >A</text></g>
<g><title>72 (position.label in template: 72.U)</title><text x="191.06" y="64.56" class="green" >T</text></g>
<g><title>73 (position.label in template: 73.C)</title><text x="198.31" y="66.71" class="black" >C</text></g>
<g><line x1="199.043" y1="68.3083" x2="201.947" y2="75.8495" class="black" /></g>
<g><title>74 (position.label in template: 74.U)</title><text x="205.32" y="63.88" class="green" >T</text></g>
<g><line x1="206.111" y1="65.4549" x2="209.309" y2="73.0529" class="black" /></g>
<g><title>75 (position.label in template: 75.G)</title><text x="212.12" y="61.06" class="black" >G</text></g>
<g><line x1="212.913" y1="62.634" x2="216.117" y2="70.2238" class="black" /></g>
<g><title>76 (position.label in template: 76.G)</title><text x="219.13" y="58.23" class="black" >G</text></g>
<g><line x1="219.923" y1="59.804" x2="223.127" y2="67.3938" class="black" /></g>
<g><title>77 (position.label in template: 77.G)</title><text x="223.33" y="51.94" class="black" >G</text></g>
<g><title>78 (position.label in template: 78.U)</title><text x="230.85" y="50" class="green" >T</text></g>
<g><title>79 (position.label in template: 79.C)</title><text x="237.61" y="53.39" class="black" >C</text></g>
<g><title>80 (position.label in template: 80.A)</title><text x="240.64" y="60.4" class="black" >A</text></g>
<g><title>81 (position.label in template: 81.U)</title><text x="237.91" y="67.53" class="green" >T</text></g>
<g><title>82 (position.label in template: 82.G)</title><text x="231.1" y="71.2" class="black" >G</text></g>
<g><title>83 (position.label in template: 83.C)</title><text x="223.92" y="69.58" class="black" >C</text></g>
<g><title>84 (position.label in template: 84.C)</title><text x="216.91" y="72.41" class="black" >C</text></g>
<g><title>85 (position.label in template: 85.A)</title><text x="210.1" y="75.24" class="green" >A</text></g>
<g><title>86 (position.label in template: 86.G)</title><text x="202.68" y="78.06" class="black" >G</text></g>
<g><title>87 (position.label in template: 87.C)</title><text x="199.16" y="84.64" class="black" >C</text></g>
<g><title>88 (position.label in template: 88.G)</title><text x="191.94" y="87.47" class="black" >G</text></g>
<g><title>89 (position.label in template: 89.C)</title><text x="184.9" y="85.31" class="black" >C</text></g>
<g><title>90 (position.label in template: 90.A)</title><text x="178.09" y="88.14" class="green" >A</text></g>
<g><title>91 (position.label in template: 91.G)</title><text x="170.67" y="90.97" class="black" >G</text></g>
<g><title>92 (position.label in template: 92.G)</title><text x="163.65" y="93.79" class="black" >G</text></g>
<g><title>93 (position.label in template: 93.G)</title><text x="162.36" y="101.24" class="black" >G</text></g>
<g><title>94 (position.label in template: 94.A)</title><text x="158.54" y="107.51" class="black" >A</text></g>
<g><title>95 (position.label in template: 95.G)</title><text x="151.7" y="111.5" class="black" >G</text></g>
<g><title>96 (position.label in template: 96.A)</title><text x="152.12" y="119.06" class="green" >A</text></g>
<g><title>97 (position.label in template: 97.C)</title><text x="151.91" y="126.62" class="black" >C</text></g>
<g><title>98 (position.label in template: 98.A)</title><text x="152.12" y="134.18" class="black" >A</text></g>
<g><title>99 (position.label in template: 99.G)</title><text x="151.7" y="141.74" class="black" >G</text></g>
<g><title>100 (position.label in template: 100.C)</title><text x="157.159" y="146.983" class="black" >C</text></g>
<g><text x="154.588" y="153.373" class="numbering-label sequential" >100</text></g>
<g><line x1="156.474" y1="148.687" x2="155.204" y2="151.842" class="numbering-line sequential" /></g>
<g><title>101 (position.label in template: 101.A)</title><text x="164.729" y="146.983" class="black" >A</text></g>
<g><title>102 (position.label in template: 102.U)</title><text x="172.299" y="146.983" class="green" >T</text></g>
<g><title>103 (position.label in template: 103.C)</title><text x="179.868" y="146.983" class="black" >C</text></g>
<g><title>104 (position.label in template: 104.A)</title><text x="187.438" y="146.983" class="black" >A</text></g>
<g><title>105 (position.label in template: 105.U)</title><text x="195.008" y="146.983" class="green" >T</text></g>
<g><title>106 (position.label in template: 106.C)</title><text x="202.577" y="146.983" class="black" >C</text></g>
<g><title>107 (position.label in template: 107.U)</title><text x="210.147" y="146.983" class="green" >T</text></g>
<g><title>108 (position.label in template: 108.C)</title><text x="217.717" y="146.983" class="black" >C</text></g>
<g><title>109 (position.label in template: 109.A)</title><text x="225.286" y="146.983" class="black" >A</text></g>
<g><title>110 (position.label in template: 110.A)</title><text x="232.856" y="146.983" class="black" >A</text></g>
<g><title>111 (position.label in template: 111.U)</title><text x="240.426" y="146.983" class="green" >T</text></g>
<g><title>112 (position.label in template: 112.3')</title><text x="247.995" y="146.983" class="green" >3'</text></g>
<g><line x1="98.5213" y1="146.58" x2="102.01" y2="146.58" class="gray" /></g>
<g><line x1="106.091" y1="146.58" x2="109.579" y2="146.58" class="gray" /></g>
<g><line x1="113.661" y1="146.58" x2="117.149" y2="146.58" class="gray" /></g>
<g><line x1="121.23" y1="146.58" x2="124.719" y2="146.58" class="gray" /></g>
<g><line x1="128.8" y1="146.58" x2="132.288" y2="146.58" class="gray" /></g>
<g><line x1="135.825" y1="145.193" x2="138.383" y2="142.821" class="gray" /></g>
<g><line x1="139.823" y1="139.394" x2="139.727" y2="135.914" class="gray" /></g>
<g><line x1="139.727" y1="131.834" x2="139.823" y2="128.354" class="gray" /></g>
<g><line x1="139.823" y1="124.274" x2="139.727" y2="120.794" class="gray" /></g>
<g><line x1="139.67" y1="116.713" x2="139.67" y2="113.235" class="gray" /></g>
<g><line x1="137.953" y1="110.091" x2="135.177" y2="108.307" class="gray" /></g>
<g><line x1="131.62" y1="108.086" x2="128.31" y2="109.672" class="gray" /></g>
<g><line x1="124.63" y1="111.437" x2="121.33" y2="113.021" class="gray" /></g>
<g><line x1="117.66" y1="114.808" x2="114.54" y2="116.35" class="gray" /></g>
<g><line x1="112.705" y1="119.295" x2="112.695" y2="122.773" class="gray" /></g>
<g><line x1="112.083" y1="126.762" x2="111.087" y2="129.956" class="gray" /></g>
<g><line x1="109.097" y1="133.404" x2="106.553" y2="136.163" class="gray" /></g>
<g><line x1="106.019" y1="139.52" x2="107.501" y2="142.758" class="gray" /></g>
<g><line x1="109.152" y1="146.49" x2="110.518" y2="149.687" class="gray" /></g>
<g><line x1="112.119" y1="153.442" x2="113.481" y2="156.646" class="gray" /></g>
<g><line x1="115.033" y1="160.421" x2="116.287" y2="163.577" class="gray" /></g>
<g><line x1="118.762" y1="166.569" x2="121.698" y2="168.438" class="gray" /></g>
<g><line x1="124.033" y1="171.48" x2="125.097" y2="174.857" class="gray" /></g>
<g><line x1="124.788" y1="178.624" x2="123.172" y2="181.813" class="gray" /></g>
<g><line x1="120.392" y1="184.479" x2="117.578" y2="185.759" class="gray" /></g>
<g><line x1="113.783" y1="185.962" x2="110.477" y2="184.866" class="gray" /></g>
<g><line x1="107.472" y1="182.485" x2="105.598" y2="179.433" class="gray" /></g>
<g><line x1="104.927" y1="175.692" x2="105.603" y2="172.276" class="gray" /></g>
<g><line x1="105.151" y1="168.418" x2="103.669" y2="165.18" class="gray" /></g>
<g><line x1="102.018" y1="161.447" x2="100.652" y2="158.25" class="gray" /></g>
<g><line x1="99.1471" y1="154.458" x2="98.0029" y2="151.34" class="gray" /></g>
<g><line x1="96.4519" y1="147.568" x2="94.9681" y2="144.32" class="gray" /></g>
<g><line x1="92.0828" y1="142.345" x2="88.6072" y2="142.143" class="gray" /></g>
<g><line x1="84.6896" y1="141.231" x2="81.3104" y2="139.807" class="gray" /></g>
<g><line x1="78.0082" y1="137.55" x2="75.7918" y2="135.268" class="gray" /></g>
<g><line x1="73.3783" y1="132.02" x2="71.5917" y2="128.807" class="gray" /></g>
<g><line x1="70.4915" y1="124.986" x2="70.3085" y2="121.552" class="gray" /></g>
<g><line x1="70.585" y1="117.51" x2="71.225" y2="114.178" class="gray" /></g>
<g><line x1="72.7513" y1="110.482" x2="74.6987" y2="107.596" class="gray" /></g>
<g><line x1="74.9229" y1="104.081" x2="73.4471" y2="101.147" class="gray" /></g>
<g><line x1="71.4433" y1="97.5966" x2="69.4767" y2="94.4711" class="gray" /></g>
<g><line x1="67.3857" y1="90.9674" x2="65.6743" y2="87.9403" class="gray" /></g>
<g><line x1="63.6657" y1="84.3874" x2="61.9543" y2="81.3603" class="gray" /></g>
<g><line x1="59.042" y1="78.8601" x2="55.978" y2="77.6977" class="gray" /></g>
<g><line x1="52.9725" y1="75.2535" x2="51.0975" y2="72.3143" class="gray" /></g>
<g><line x1="50.1675" y1="68.5601" x2="50.4525" y2="65.0977" class="gray" /></g>
<g><line x1="51.9826" y1="61.5448" x2="54.3074" y2="58.953" class="gray" /></g>
<g><line x1="57.6717" y1="57.0369" x2="60.8783" y2="56.4009" class="gray" /></g>
<g><line x1="64.7288" y1="56.8679" x2="68.2212" y2="58.4999" class="gray" /></g>
<g><line x1="70.8852" y1="61.2347" x2="72.2048" y2="64.2631" class="gray" /></g>
<g><line x1="72.6916" y1="68.148" x2="72.1384" y2="71.5398" class="gray" /></g>
<g><line x1="72.8152" y1="75.3298" x2="74.5348" y2="78.3679" class="gray" /></g>
<g><line x1="76.5443" y1="81.9203" x2="78.2557" y2="84.9474" class="gray" /></g>
<g><line x1="80.2643" y1="88.5003" x2="81.9757" y2="91.5274" class="gray" /></g>
<g><line x1="83.9843" y1="95.0803" x2="85.6957" y2="98.1074" class="gray" /></g>
<g><line x1="88.7377" y1="99.7729" x2="92.0023" y2="99.5949" class="gray" /></g>
<g><line x1="95.9996" y1="100.053" x2="99.7204" y2="101.134" class="gray" /></g>
<g><line x1="103.284" y1="102.966" x2="105.896" y2="105.022" class="gray" /></g>
<g><line x1="109.329" y1="105.379" x2="112.441" y2="103.839" class="gray" /></g>
<g><line x1="116.087" y1="102.005" x2="119.023" y2="100.503" class="gray" /></g>
<g><line x1="122.68" y1="98.6919" x2="125.99" y2="97.1059" class="gray" /></g>
<g><line x1="128.027" y1="94.1928" x2="128.363" y2="90.735" class="gray" /></g>
<g><line x1="129.57" y1="86.9304" x2="131.29" y2="83.9074" class="gray" /></g>
<g><line x1="133.927" y1="80.902" x2="136.563" y2="78.9058" class="gray" /></g>
<g><line x1="140.19" y1="77.2693" x2="144" y2="76.4985" class="gray" /></g>
<g><line x1="147.996" y1="76.5206" x2="151.394" y2="77.2472" class="gray" /></g>
<g><line x1="155.018" y1="78.9045" x2="157.662" y2="80.9033" class="gray" /></g>
<g><line x1="161.182" y1="81.37" x2="164.408" y2="80.0678" class="gray" /></g>
<g><line x1="168.193" y1="78.5423" x2="171.417" y2="77.2455" class="gray" /></g>
<g><line x1="175.194" y1="75.6998" x2="178.226" y2="74.438" class="gray" /></g>
<g><line x1="181.199" y1="71.9278" x2="183.171" y2="68.8" class="gray" /></g>
<g><line x1="186.145" y1="66.2922" x2="189.175" y2="65.0356" class="gray" /></g>
<g><line x1="193.016" y1="64.8341" x2="196.354" y2="65.8237" class="gray" /></g>
<g><line x1="200.202" y1="65.64" x2="203.428" y2="64.3378" class="gray" /></g>
<g><line x1="207.205" y1="62.7922" x2="210.235" y2="61.5356" class="gray" /></g>
<g><line x1="214.012" y1="59.99" x2="217.238" y2="58.6878" class="gray" /></g>
<g><line x1="220.263" y1="56.2268" x2="222.197" y2="53.331" class="gray" /></g>
<g><line x1="225.306" y1="51.1241" x2="228.874" y2="50.2037" class="gray" /></g>
<g><line x1="232.674" y1="50.6087" x2="235.786" y2="52.1691" class="gray" /></g>
<g><line x1="238.42" y1="54.9571" x2="239.83" y2="58.2207" class="gray" /></g>
<g><line x1="239.91" y1="61.9997" x2="238.64" y2="65.3181" class="gray" /></g>
<g><line x1="236.114" y1="68.192" x2="232.896" y2="69.9258" class="gray" /></g>
<g><line x1="229.109" y1="70.4448" x2="225.911" y2="69.723" class="gray" /></g>
<g><line x1="222.028" y1="70.0378" x2="218.802" y2="71.34" class="gray" /></g>
<g><line x1="215.026" y1="72.887" x2="211.984" y2="74.1508" class="gray" /></g>
<g><line x1="208.192" y1="75.6589" x2="204.588" y2="77.0289" class="gray" /></g>
<g><line x1="201.717" y1="79.5533" x2="200.123" y2="82.5345" class="gray" /></g>
<g><line x1="197.26" y1="85.0786" x2="193.84" y2="86.4192" class="gray" /></g>
<g><line x1="189.989" y1="86.5653" x2="186.851" y2="85.6025" class="gray" /></g>
<g><line x1="183.016" y1="85.787" x2="179.974" y2="87.0508" class="gray" /></g>
<g><line x1="176.183" y1="88.5611" x2="172.577" y2="89.9367" class="gray" /></g>
<g><line x1="168.776" y1="91.4246" x2="165.544" y2="92.7232" class="gray" /></g>
<g><line x1="163.302" y1="95.4947" x2="162.708" y2="98.9231" class="gray" /></g>
<g><line x1="161.298" y1="102.677" x2="159.602" y2="105.461" class="gray" /></g>
<g><line x1="156.777" y1="108.232" x2="153.463" y2="110.166" class="gray" /></g>
<g><line x1="151.813" y1="113.231" x2="152.007" y2="116.716" class="gray" /></g>
<g><line x1="152.063" y1="120.794" x2="151.967" y2="124.274" class="gray" /></g>
<g><line x1="151.967" y1="128.354" x2="152.063" y2="131.834" class="gray" /></g>
<g><line x1="152.007" y1="135.911" x2="151.813" y2="139.396" class="gray" /></g>
<g><line x1="153.172" y1="142.847" x2="155.688" y2="145.264" class="gray" /></g>
<g><line x1="159.2" y1="146.677" x2="162.688" y2="146.677" class="gray" /></g>
<g><line x1="166.77" y1="146.677" x2="170.258" y2="146.677" class="gray" /></g>
<g><line x1="174.339" y1="146.677" x2="177.828" y2="146.677" class="gray" /></g>
<g><line x1="181.909" y1="146.677" x2="185.397" y2="146.677" class="gray" /></g>
<g><line x1="189.479" y1="146.677" x2="192.967" y2="146.677" class="gray" /></g>
<g><line x1="197.048" y1="146.677" x2="200.537" y2="146.677" class="gray" /></g>
<g><line x1="204.618" y1="146.677" x2="208.106" y2="146.677" class="gray" /></g>
<g><line x1="212.188" y1="146.677" x2="215.676" y2="146.677" class="gray" /></g>
<g><line x1="219.757" y1="146.677" x2="223.246" y2="146.677" class="gray" /></g>
<g><line x1="227.327" y1="146.677" x2="230.815" y2="146.677" class="gray" /></g>
<g><line x1="234.897" y1="146.677" x2="238.385" y2="146.677" class="gray" /></g>
<g><line x1="242.466" y1="146.677" x2="245.955" y2="146.677" class="gray" /></g>
</svg>
