<svg
	xmlns="http://www.w3.org/2000/svg"
	width="289.397"
	height="201.558">
<g><style type="text/css" >
<!-- create color definitions -->
<![CDATA[
circle.red {stroke: rgb(255, 0, 255); fill: none; }
circle.green {stroke: rgb(0, 255, 0); fill: none; }
circle.blue {stroke: rgb(0, 0, 255); fill: none; }
circle.black {stroke: rgb(0, 0, 0); fill: none; }
circle.gray {stroke: rgb(204, 204, 204); fill: none; }
circle.brown {stroke: rgb(211.65, 104.55, 30.6); fill: none; }
line.red {stroke: rgb(255, 0, 255); stroke-width: 0.383229; }
line.green {stroke: rgb(0, 255, 0); stroke-width: 0.383229; }
line.blue {stroke: rgb(0, 0, 255); stroke-width: 0.383229; }
line.black {stroke: rgb(0, 0, 0); stroke-width: 0.383229; }
line.gray {stroke: rgb(204, 204, 204); stroke-width: 0.383229; }
line.brown {stroke: rgb(211.65, 104.55, 30.6); stroke-width: 0.383229; }
line {stroke: rgb(0, 0, 0); }
text.red {fill: rgb(255, 0, 255); font-size: 3.065833px; font-weight: bold; font-family: Helvetica; }
text.green {fill: rgb(0, 255, 0); font-size: 3.065833px; font-weight: bold; font-family: Helvetica; }
text.blue {fill: rgb(0, 0, 255); font-size: 3.065833px; font-weight: bold; font-family: Helvetica; }
text.black {fill: rgb(0, 0, 0); font-size: 3.065833px; font-weight: bold; font-family: Helvetica; }
text.gray {fill: rgb(204, 204, 204); font-size: 3.065833px; font-weight: bold; font-family: Helvetica; }
text.brown {fill: rgb(211.65, 104.55, 30.6); font-size: 3.065833px; font-weight: bold; font-family: Helvetica; }
text {fill: rgb(0, 0, 0); font-size: 3.065833px; font-weight: bold; font-family: Helvetica; text-anchor: middle; alignment-baseline: middle; }

.pseudoknot_connection{stroke-linecap: round; stroke-opacity: 0.2; stroke-width: 1.5; }
.pseudoknot_segment1{stroke-linecap: round; stroke-opacity: 0.4; stroke-width: 3.06583; }
.pseudoknot_segment2{stroke-linecap: round; stroke-opacity: 0.4; stroke-width: 3.06583; }
line.numbering-line{stroke: rgb(204, 204, 204); stroke-width: 0.191615; }
line.predicted{stroke: rgb(0, 0, 0); stroke-dasharray: 2; }
polyline{fill: none; stroke-linejoin: round; }
template{visibility: hidden; }
text.numbering-label{fill: rgb(204, 204, 204); }
]]>
</style></g>
<g><title>0 (position.label in template: 0.5')</title><text x="42.4379" y="151.558" class="green" >5'</text></g>
<g><title>1 (position.label in template: 1.A)</title><text x="50" y="151.558" class="black" >A</text></g>
<g><title>2 (position.label in template: 2.G)</title><text x="57.5621" y="151.558" class="black" >G</text></g>
<g><title>3 (position.label in template: 3.G)</title><text x="65.1242" y="151.558" class="black" >G</text></g>
<g><title>4 (position.label in template: 4.C)</title><text x="72.6862" y="151.558" class="black" >C</text></g>
<g><title>5 (position.label in template: 5.A)</title><text x="80.2483" y="151.558" class="black" >A</text></g>
<g><title>6 (position.label in template: 6.G)</title><text x="87.8104" y="151.558" class="black" >G</text></g>
<g><title>7 (position.label in template: 7.A)</title><text x="95.3725" y="151.558" class="black" >A</text></g>
<g><title>8 (position.label in template: 8.A)</title><text x="102.935" y="151.558" class="black" >A</text></g>
<g><title>9 (position.label in template: 9.A)</title><text x="110.497" y="151.558" class="black" >A</text></g>
<g><title>10 (position.label in template: 10.G)</title><text x="118.059" y="151.558" class="black" >G</text></g>
<g><text x="118.059" y="158.456" class="numbering-label sequential" >10</text></g>
<g><line x1="118.059" y1="153.398" x2="118.059" y2="156.923" class="numbering-line sequential" /></g>
<g><title>11 (position.label in template: 11.G)</title><text x="125.621" y="151.558" class="black" >G</text></g>
<g><title>12 (position.label in template: 12.G)</title><text x="133.183" y="151.558" class="black" >G</text></g>
<g><title>13 (position.label in template: 13.A)</title><text x="140.745" y="151.558" class="black" >A</text></g>
<g><title>14 (position.label in template: 14.A)</title><text x="148.307" y="151.558" class="black" >A</text></g>
<g><title>15 (position.label in template: 15.U)</title><text x="155.869" y="151.558" class="green" >T</text></g>
<g><title>16 (position.label in template: 16.G)</title><text x="161.103" y="146.1" class="black" >G</text></g>
<g><line x1="163.147" y1="145.793" x2="171.509" y2="145.793" class="black" /></g>
<g><title>17 (position.label in template: 17.A)</title><text x="161.523" y="138.54" class="green" >A</text></g>
<g><line x1="163.567" y1="138.233" x2="171.509" y2="138.233" class="black" /></g>
<g><title>18 (position.label in template: 18.A)</title><text x="161.523" y="130.98" class="green" >A</text></g>
<g><line x1="163.567" y1="130.673" x2="171.509" y2="130.673" class="black" /></g>
<g><title>19 (position.label in template: 19.G)</title><text x="161.103" y="123.42" class="black" >G</text></g>
<g><line x1="163.147" y1="123.113" x2="171.509" y2="123.113" class="black" /></g>
<g><title>20 (position.label in template: 20.U)</title><text x="161.313" y="115.86" class="green" >T</text></g>
<g><line x1="163.357" y1="115.553" x2="171.719" y2="115.553" class="black" /></g>
<g><text x="154.415" y="115.764" class="numbering-label sequential" >20</text></g>
<g><line x1="159.474" y1="115.834" x2="156.255" y2="115.79" class="numbering-line sequential" /></g>
<g><title>21 (position.label in template: 21.U)</title><text x="161.313" y="108.3" class="green" >T</text></g>
<g><line x1="163.357" y1="107.993" x2="171.299" y2="107.993" class="black" /></g>
<g><title>22 (position.label in template: 22.C)</title><text x="157.243" y="114.67" class="black" >C</text></g>
<g><title>23 (position.label in template: 23.U)</title><text x="151.863" y="119.98" class="green" >T</text></g>
<g><title>24 (position.label in template: 24.C)</title><text x="145.433" y="123.96" class="black" >C</text></g>
<g><title>25 (position.label in template: 25.C)</title><text x="138.283" y="126.42" class="black" >C</text></g>
<g><title>26 (position.label in template: 26.C)</title><text x="130.763" y="127.23" class="black" >C</text></g>
<g><title>27 (position.label in template: 27.C)</title><text x="123.253" y="126.35" class="black" >C</text></g>
<g><title>28 (position.label in template: 28.C)</title><text x="116.133" y="123.83" class="black" >C</text></g>
<g><title>29 (position.label in template: 29.G)</title><text x="109.533" y="119.78" class="black" >G</text></g>
<g><title>30 (position.label in template: 30.A)</title><text x="104.613" y="114.43" class="black" >A</text></g>
<g><text x="99.1664" y="118.663" class="numbering-label sequential" >30</text></g>
<g><line x1="103.161" y1="115.559" x2="101.139" y2="117.13" class="numbering-line sequential" /></g>
<g><title>31 (position.label in template: 31.U)</title><text x="100.393" y="108.02" class="green" >T</text></g>
<g><title>32 (position.label in template: 32.C)</title><text x="97.903" y="100.88" class="black" >C</text></g>
<g><title>33 (position.label in template: 33.U)</title><text x="97.063" y="93.37" class="green" >T</text></g>
<g><title>34 (position.label in template: 34.U)</title><text x="97.903" y="85.85" class="green" >T</text></g>
<g><title>35 (position.label in template: 35.U)</title><text x="100.393" y="78.72" class="green" >T</text></g>
<g><title>36 (position.label in template: 36.A)</title><text x="104.613" y="72.31" class="black" >A</text></g>
<g><title>37 (position.label in template: 37.U)</title><text x="109.743" y="66.95" class="green" >T</text></g>
<g><title>38 (position.label in template: 38.C)</title><text x="116.133" y="62.91" class="black" >C</text></g>
<g><title>39 (position.label in template: 39.G)</title><text x="123.043" y="60.39" class="black" >G</text></g>
<g><title>40 (position.label in template: 40.A)</title><text x="130.973" y="59.51" class="black" >A</text></g>
<g><title>41 (position.label in template: 41.A)</title><text x="138.493" y="60.32" class="black" >A</text></g>
<g><title>42 (position.label in template: 42.A)</title><text x="145.643" y="62.77" class="black" >A</text></g>
<g><title>43 (position.label in template: 43.C)</title><text x="151.863" y="66.75" class="black" >C</text></g>
<g><title>44 (position.label in template: 44.C)</title><text x="157.243" y="72.06" class="black" >C</text></g>
<g><title>45 (position.label in template: 45.G)</title><text x="161.103" y="78.43" class="black" >G</text></g>
<g><line x1="163.147" y1="78.1234" x2="171.509" y2="78.1234" class="black" /></g>
<g><title>46 (position.label in template: 46.C)</title><text x="161.313" y="70.87" class="black" >C</text></g>
<g><line x1="163.357" y1="70.5634" x2="171.299" y2="70.5634" class="black" /></g>
<g><title>47 (position.label in template: 47.C)</title><text x="161.313" y="63.31" class="black" >C</text></g>
<g><line x1="163.357" y1="63.0034" x2="171.719" y2="63.0034" class="black" /></g>
<g><title>48 (position.label in template: 48.A)</title><text x="159.343" y="56.07" class="black" >A</text></g>
<g><title>49 (position.label in template: 49.C)</title><text x="163.653" y="50" class="black" >C</text></g>
<g><title>50 (position.label in template: 50.U)</title><text x="171.213" y="50" class="green" >T</text></g>
<g><text x="174.356" y="43.8594" class="numbering-label sequential" >50</text></g>
<g><line x1="172.051" y1="48.3625" x2="173.571" y2="45.3923" class="numbering-line sequential" /></g>
<g><title>51 (position.label in template: 51.G)</title><text x="175.513" y="56.07" class="black" >G</text></g>
<g><title>52 (position.label in template: 52.A)</title><text x="173.763" y="63.31" class="black" >A</text></g>
<g><title>53 (position.label in template: 53.G)</title><text x="173.343" y="70.87" class="black" >G</text></g>
<g><title>54 (position.label in template: 54.C)</title><text x="173.553" y="78.43" class="black" >C</text></g>
<g><title>55 (position.label in template: 55.U)</title><text x="179.683" y="82.86" class="green" >T</text></g>
<g><title>56 (position.label in template: 56.G)</title><text x="182.913" y="89.59" class="black" >G</text></g>
<g><title>57 (position.label in template: 57.A)</title><text x="183.333" y="97.15" class="black" >A</text></g>
<g><title>58 (position.label in template: 58.U)</title><text x="179.683" y="103.88" class="green" >T</text></g>
<g><title>59 (position.label in template: 59.G)</title><text x="173.343" y="108.3" class="green" >G</text></g>
<g><title>60 (position.label in template: 60.A)</title><text x="173.763" y="115.86" class="green" >A</text></g>
<g><title>61 (position.label in template: 61.C)</title><text x="173.553" y="123.42" class="black" >C</text></g>
<g><title>62 (position.label in template: 62.U)</title><text x="173.553" y="130.98" class="green" >T</text></g>
<g><title>63 (position.label in template: 63.U)</title><text x="173.553" y="138.54" class="green" >T</text></g>
<g><title>64 (position.label in template: 64.C)</title><text x="173.553" y="146.1" class="black" >C</text></g>
<g><title>65 (position.label in template: 65.U)</title><text x="178.9" y="151.447" class="green" >T</text></g>
<g><title>66 (position.label in template: 66.G)</title><text x="186.462" y="151.447" class="black" >G</text></g>
<g><title>67 (position.label in template: 67.U)</title><text x="194.024" y="151.447" class="green" >T</text></g>
<g><title>68 (position.label in template: 68.G)</title><text x="201.586" y="151.447" class="black" >G</text></g>
<g><title>69 (position.label in template: 69.C)</title><text x="209.148" y="151.447" class="black" >C</text></g>
<g><title>70 (position.label in template: 70.A)</title><text x="216.711" y="151.447" class="black" >A</text></g>
<g><title>71 (position.label in template: 71.A)</title><text x="224.273" y="151.447" class="black" >A</text></g>
<g><title>72 (position.label in template: 72.U)</title><text x="231.835" y="151.447" class="green" >T</text></g>
<g><title>73 (position.label in template: 73.G)</title><text x="239.397" y="151.447" class="black" >G</text></g>
<g><title>74 (position.label in template: 74.3')</title><text x="246.959" y="151.447" class="green" >3'</text></g>
<g><line x1="44.4818" y1="151.252" x2="47.9561" y2="151.252" class="gray" /></g>
<g><line x1="52.0439" y1="151.252" x2="55.5182" y2="151.252" class="gray" /></g>
<g><line x1="59.606" y1="151.252" x2="63.0803" y2="151.252" class="gray" /></g>
<g><line x1="67.1681" y1="151.252" x2="70.6424" y2="151.252" class="gray" /></g>
<g><line x1="74.7301" y1="151.252" x2="78.2044" y2="151.252" class="gray" /></g>
<g><line x1="82.2922" y1="151.252" x2="85.7665" y2="151.252" class="gray" /></g>
<g><line x1="89.8543" y1="151.252" x2="93.3286" y2="151.252" class="gray" /></g>
<g><line x1="97.4164" y1="151.252" x2="100.891" y2="151.252" class="gray" /></g>
<g><line x1="104.978" y1="151.252" x2="108.453" y2="151.252" class="gray" /></g>
<g><line x1="112.541" y1="151.252" x2="116.015" y2="151.252" class="gray" /></g>
<g><line x1="120.103" y1="151.252" x2="123.577" y2="151.252" class="gray" /></g>
<g><line x1="127.665" y1="151.252" x2="131.139" y2="151.252" class="gray" /></g>
<g><line x1="135.227" y1="151.252" x2="138.701" y2="151.252" class="gray" /></g>
<g><line x1="142.789" y1="151.252" x2="146.263" y2="151.252" class="gray" /></g>
<g><line x1="150.351" y1="151.252" x2="153.825" y2="151.252" class="gray" /></g>
<g><line x1="157.284" y1="149.776" x2="159.688" y2="147.269" class="gray" /></g>
<g><line x1="161.216" y1="143.753" x2="161.41" y2="140.274" class="gray" /></g>
<g><line x1="161.523" y1="136.19" x2="161.523" y2="132.717" class="gray" /></g>
<g><line x1="161.41" y1="128.633" x2="161.216" y2="125.154" class="gray" /></g>
<g><line x1="161.16" y1="121.07" x2="161.256" y2="117.597" class="gray" /></g>
<g><line x1="161.313" y1="113.51" x2="161.313" y2="110.037" class="gray" /></g>
<g><line x1="160.212" y1="109.716" x2="158.343" y2="112.641" class="gray" /></g>
<g><line x1="155.788" y1="115.799" x2="153.318" y2="118.238" class="gray" /></g>
<g><line x1="150.125" y1="120.749" x2="147.171" y2="122.578" class="gray" /></g>
<g><line x1="143.5" y1="124.318" x2="140.216" y2="125.448" class="gray" /></g>
<g><line x1="136.251" y1="126.332" x2="132.795" y2="126.705" class="gray" /></g>
<g><line x1="128.733" y1="126.686" x2="125.283" y2="126.281" class="gray" /></g>
<g><line x1="121.326" y1="125.361" x2="118.06" y2="124.205" class="gray" /></g>
<g><line x1="114.391" y1="122.454" x2="111.275" y2="120.542" class="gray" /></g>
<g><line x1="108.149" y1="117.969" x2="105.996" y2="115.628" class="gray" /></g>
<g><line x1="103.489" y1="112.416" x2="101.517" y2="109.421" class="gray" /></g>
<g><line x1="99.7199" y1="105.784" x2="98.576" y2="102.503" class="gray" /></g>
<g><line x1="97.6758" y1="98.5422" x2="97.2902" y2="95.0946" class="gray" /></g>
<g><line x1="97.2899" y1="91.0322" x2="97.6761" y2="87.5747" class="gray" /></g>
<g><line x1="98.5768" y1="83.6138" x2="99.7191" y2="80.343" class="gray" /></g>
<g><line x1="101.517" y1="76.7063" x2="103.489" y2="73.7106" class="gray" /></g>
<g><line x1="106.026" y1="70.5268" x2="108.33" y2="68.12" class="gray" /></g>
<g><line x1="111.471" y1="65.5512" x2="114.405" y2="63.6957" class="gray" /></g>
<g><line x1="118.053" y1="61.9031" x2="121.123" y2="60.7837" class="gray" /></g>
<g><line x1="125.074" y1="59.858" x2="128.942" y2="59.4288" class="gray" /></g>
<g><line x1="133.005" y1="59.4223" x2="136.461" y2="59.7945" class="gray" /></g>
<g><line x1="140.426" y1="60.676" x2="143.709" y2="61.8009" class="gray" /></g>
<g><line x1="147.365" y1="63.565" x2="150.141" y2="65.3418" class="gray" /></g>
<g><line x1="153.318" y1="67.8792" x2="155.788" y2="70.3177" class="gray" /></g>
<g><line x1="158.302" y1="73.5014" x2="160.044" y2="76.3754" class="gray" /></g>
<g><line x1="161.16" y1="76.0803" x2="161.256" y2="72.6065" class="gray" /></g>
<g><line x1="161.313" y1="68.5195" x2="161.313" y2="65.0473" class="gray" /></g>
<g><line x1="160.776" y1="61.0312" x2="159.88" y2="57.7356" class="gray" /></g>
<g><line x1="160.526" y1="54.0969" x2="162.47" y2="51.3599" class="gray" /></g>
<g><line x1="165.697" y1="49.6934" x2="169.169" y2="49.6934" class="gray" /></g>
<g><line x1="172.394" y1="51.3612" x2="174.331" y2="54.0956" class="gray" /></g>
<g><line x1="175.033" y1="57.7501" x2="174.243" y2="61.0167" class="gray" /></g>
<g><line x1="173.65" y1="65.0442" x2="173.456" y2="68.5227" class="gray" /></g>
<g><line x1="173.4" y1="72.6065" x2="173.496" y2="76.0803" class="gray" /></g>
<g><line x1="175.21" y1="79.3206" x2="178.026" y2="81.3562" class="gray" /></g>
<g><line x1="180.567" y1="84.3961" x2="182.029" y2="87.4408" class="gray" /></g>
<g><line x1="183.026" y1="91.3242" x2="183.22" y2="94.8027" class="gray" /></g>
<g><line x1="182.359" y1="98.6401" x2="180.657" y2="101.777" class="gray" /></g>
<g><line x1="178.006" y1="104.742" x2="175.02" y2="106.825" class="gray" /></g>
<g><line x1="173.456" y1="110.034" x2="173.65" y2="113.513" class="gray" /></g>
<g><line x1="173.706" y1="117.597" x2="173.61" y2="121.07" class="gray" /></g>
<g><line x1="173.553" y1="125.157" x2="173.553" y2="128.63" class="gray" /></g>
<g><line x1="173.553" y1="132.717" x2="173.553" y2="136.19" class="gray" /></g>
<g><line x1="173.553" y1="140.277" x2="173.553" y2="143.75" class="gray" /></g>
<g><line x1="174.998" y1="147.239" x2="177.455" y2="149.695" class="gray" /></g>
<g><line x1="180.944" y1="151.141" x2="184.418" y2="151.141" class="gray" /></g>
<g><line x1="188.506" y1="151.141" x2="191.98" y2="151.141" class="gray" /></g>
<g><line x1="196.068" y1="151.141" x2="199.543" y2="151.141" class="gray" /></g>
<g><line x1="203.63" y1="151.141" x2="207.105" y2="151.141" class="gray" /></g>
<g><line x1="211.192" y1="151.141" x2="214.667" y2="151.141" class="gray" /></g>
<g><line x1="218.754" y1="151.141" x2="222.229" y2="151.141" class="gray" /></g>
<g><line x1="226.317" y1="151.141" x2="229.791" y2="151.141" class="gray" /></g>
<g><line x1="233.879" y1="151.141" x2="237.353" y2="151.141" class="gray" /></g>
<g><line x1="241.441" y1="151.141" x2="244.915" y2="151.141" class="gray" /></g>
</svg>
