<svg
	xmlns="http://www.w3.org/2000/svg"
	width="205.44"
	height="248.35">
<g><style type="text/css" >
<!-- create color definitions -->
<![CDATA[
circle.red {stroke: rgb(255, 0, 255); fill: none; }
circle.green {stroke: rgb(0, 255, 0); fill: none; }
circle.blue {stroke: rgb(0, 0, 255); fill: none; }
circle.black {stroke: rgb(0, 0, 0); fill: none; }
circle.gray {stroke: rgb(204, 204, 204); fill: none; }
circle.brown {stroke: rgb(211.65, 104.55, 30.6); fill: none; }
line.red {stroke: rgb(255, 0, 255); stroke-width: 0.380752; }
line.green {stroke: rgb(0, 255, 0); stroke-width: 0.380752; }
line.blue {stroke: rgb(0, 0, 255); stroke-width: 0.380752; }
line.black {stroke: rgb(0, 0, 0); stroke-width: 0.380752; }
line.gray {stroke: rgb(204, 204, 204); stroke-width: 0.380752; }
line.brown {stroke: rgb(211.65, 104.55, 30.6); stroke-width: 0.380752; }
line {stroke: rgb(0, 0, 0); }
text.red {fill: rgb(255, 0, 255); font-size: 3.046019px; font-weight: bold; font-family: Helvetica; }
text.green {fill: rgb(0, 255, 0); font-size: 3.046019px; font-weight: bold; font-family: Helvetica; }
text.blue {fill: rgb(0, 0, 255); font-size: 3.046019px; font-weight: bold; font-family: Helvetica; }
text.black {fill: rgb(0, 0, 0); font-size: 3.046019px; font-weight: bold; font-family: Helvetica; }
text.gray {fill: rgb(204, 204, 204); font-size: 3.046019px; font-weight: bold; font-family: Helvetica; }
text.brown {fill: rgb(211.65, 104.55, 30.6); font-size: 3.046019px; font-weight: bold; font-family: Helvetica; }
text {fill: rgb(0, 0, 0); font-size: 3.046019px; font-weight: bold; font-family: Helvetica; text-anchor: middle; alignment-baseline: middle; }

.pseudoknot_connection{stroke-linecap: round; stroke-opacity: 0.2; stroke-width: 1.5; }
.pseudoknot_segment1{stroke-linecap: round; stroke-opacity: 0.4; stroke-width: 3.04602; }
.pseudoknot_segment2{stroke-linecap: round; stroke-opacity: 0.4; stroke-width: 3.04602; }
line.numbering-line{stroke: rgb(204, 204, 204); stroke-width: 0.190376; }
line.predicted{stroke: rgb(0, 0, 0); stroke-dasharray: 2; }
polyline{fill: none; stroke-linejoin: round; }
template{visibility: hidden; }
text.numbering-label{fill: rgb(204, 204, 204); }
]]>
</style></g>
<g><title>0 (position.label in template: 0.5')</title><text x="120.67" y="198.35" class="green" >5'</text></g>
<g><title>1 (position.label in template: 1.U)</title><text x="127.67" y="198.35" class="green" >T</text></g>
<g><line x1="129.701" y1="198.045" x2="137.669" y2="198.045" class="black" /></g>
<g><title>2 (position.label in template: 2.U)</title><text x="127.67" y="190.79" class="green" >T</text></g>
<g><line x1="129.701" y1="190.485" x2="137.669" y2="190.485" class="black" /></g>
<g><title>3 (position.label in template: 3.U)</title><text x="127.67" y="183.23" class="green" >T</text></g>
<g><line x1="129.701" y1="182.925" x2="137.879" y2="182.925" class="black" /></g>
<g><title>4 (position.label in template: 4.C)</title><text x="127.67" y="175.67" class="green" >C</text></g>
<g><line x1="129.701" y1="175.365" x2="137.879" y2="175.365" class="black" /></g>
<g><title>5 (position.label in template: 5.C)</title><text x="122.08" y="170.58" class="black" >C</text></g>
<g><title>6 (position.label in template: 6.A)</title><text x="120.21" y="163.31" class="black" >A</text></g>
<g><title>7 (position.label in template: 7.A)</title><text x="122.29" y="156.04" class="black" >A</text></g>
<g><title>8 (position.label in template: 8.C)</title><text x="127.67" y="150.96" class="black" >C</text></g>
<g><line x1="129.701" y1="150.655" x2="137.669" y2="150.655" class="black" /></g>
<g><title>9 (position.label in template: 9.U)</title><text x="127.67" y="143.4" class="green" >T</text></g>
<g><line x1="129.701" y1="143.095" x2="138.089" y2="143.095" class="black" /></g>
<g><title>10 (position.label in template: 10.C)</title><text x="127.67" y="135.84" class="black" >C</text></g>
<g><line x1="129.701" y1="135.535" x2="137.669" y2="135.535" class="black" /></g>
<g><text x="120.816" y="135.84" class="numbering-label sequential" >10</text></g>
<g><line x1="125.842" y1="135.84" x2="122.644" y2="135.84" class="numbering-line sequential" /></g>
<g><title>11 (position.label in template: 11.C)</title><text x="127.67" y="128.28" class="black" >C</text></g>
<g><line x1="129.701" y1="127.975" x2="137.669" y2="127.975" class="black" /></g>
<g><title>12 (position.label in template: 12.G)</title><text x="121.04" y="124.29" class="black" >G</text></g>
<g><title>13 (position.label in template: 13.C)</title><text x="117.02" y="118.02" class="black" >C</text></g>
<g><title>14 (position.label in template: 14.C)</title><text x="115.72" y="110.58" class="black" >C</text></g>
<g><line x1="116.449" y1="108.38" x2="119.361" y2="100.811" class="black" /></g>
<g><title>15 (position.label in template: 15.U)</title><text x="108.71" y="107.75" class="green" >T</text></g>
<g><line x1="109.47" y1="105.562" x2="112.53" y2="97.9785" class="black" /></g>
<g><title>16 (position.label in template: 16.G)</title><text x="101.49" y="104.92" class="black" >G</text></g>
<g><line x1="102.28" y1="102.745" x2="105.49" y2="95.1363" class="black" /></g>
<g><title>17 (position.label in template: 17.U)</title><text x="94.69" y="102.1" class="green" >T</text></g>
<g><line x1="95.4776" y1="99.9237" x2="98.6824" y2="92.3071" class="black" /></g>
<g><title>18 (position.label in template: 18.A)</title><text x="87.88" y="99.27" class="green" >A</text></g>
<g><line x1="88.6096" y1="97.0703" x2="91.5204" y2="89.5105" class="black" /></g>
<g><title>19 (position.label in template: 19.G)</title><text x="80.46" y="96.44" class="black" >G</text></g>
<g><line x1="81.2482" y1="94.2639" x2="84.4518" y2="86.6569" class="black" /></g>
<g><title>20 (position.label in template: 20.C)</title><text x="74.52" y="100.84" class="black" >C</text></g>
<g><text x="77.2651" y="107.12" class="numbering-label sequential" >20</text></g>
<g><line x1="75.252" y1="102.515" x2="76.5993" y2="105.597" class="numbering-line sequential" /></g>
<g><title>21 (position.label in template: 21.U)</title><text x="67.1" y="102.28" class="green" >T</text></g>
<g><title>22 (position.label in template: 22.C)</title><text x="59.75" y="100.5" class="black" >C</text></g>
<g><title>23 (position.label in template: 23.C)</title><text x="53.81" y="95.83" class="black" >C</text></g>
<g><title>24 (position.label in template: 24.U)</title><text x="50.35" y="89.11" class="green" >T</text></g>
<g><title>25 (position.label in template: 25.C)</title><text x="50" y="81.56" class="black" >C</text></g>
<g><title>26 (position.label in template: 26.C)</title><text x="52.83" y="74.54" class="black" >C</text></g>
<g><title>27 (position.label in template: 27.A)</title><text x="58.52" y="69.35" class="black" >A</text></g>
<g><title>28 (position.label in template: 28.G)</title><text x="65.26" y="66.9" class="black" >G</text></g>
<g><title>29 (position.label in template: 29.G)</title><text x="72.78" y="67.65" class="black" >G</text></g>
<g><title>30 (position.label in template: 30.G)</title><text x="79.31" y="71.47" class="black" >G</text></g>
<g><text x="83.9526" y="66.4285" class="numbering-label sequential" >30</text></g>
<g><line x1="80.548" y1="70.1256" x2="82.5501" y2="67.9515" class="numbering-line sequential" /></g>
<g><title>31 (position.label in template: 31.G)</title><text x="83.65" y="77.66" class="black" >G</text></g>
<g><title>32 (position.label in template: 32.C)</title><text x="85.24" y="85.09" class="black" >C</text></g>
<g><title>33 (position.label in template: 33.U)</title><text x="92.25" y="87.92" class="green" >T</text></g>
<g><title>34 (position.label in template: 34.A)</title><text x="99.47" y="90.74" class="green" >A</text></g>
<g><title>35 (position.label in template: 35.C)</title><text x="106.28" y="93.57" class="black" >C</text></g>
<g><title>36 (position.label in template: 36.U)</title><text x="113.29" y="96.4" class="green" >T</text></g>
<g><title>37 (position.label in template: 37.G)</title><text x="120.09" y="99.22" class="black" >G</text></g>
<g><title>38 (position.label in template: 38.C)</title><text x="126.4" y="94.76" class="black" >C</text></g>
<g><line x1="128.425" y1="94.2985" x2="136.375" y2="93.6823" class="black" /></g>
<g><title>39 (position.label in template: 39.C)</title><text x="125.83" y="87.22" class="black" >C</text></g>
<g><line x1="127.855" y1="86.7584" x2="135.795" y2="86.1424" class="black" /></g>
<g><title>40 (position.label in template: 40.G)</title><text x="125.04" y="79.68" class="black" >G</text></g>
<g><line x1="127.065" y1="79.2238" x2="135.435" y2="78.597" class="black" /></g>
<g><title>41 (position.label in template: 41.G)</title><text x="118.73" y="75.53" class="black" >G</text></g>
<g><title>42 (position.label in template: 42.U)</title><text x="115.37" y="68.86" class="green" >T</text></g>
<g><title>43 (position.label in template: 43.C)</title><text x="115.4" y="61.3" class="black" >C</text></g>
<g><title>44 (position.label in template: 44.C)</title><text x="119.03" y="54.68" class="black" >C</text></g>
<g><title>45 (position.label in template: 45.C)</title><text x="125.39" y="50.58" class="black" >C</text></g>
<g><title>46 (position.label in template: 46.A)</title><text x="133.13" y="50" class="black" >A</text></g>
<g><title>47 (position.label in template: 47.A)</title><text x="140.03" y="53.09" class="black" >A</text></g>
<g><title>48 (position.label in template: 48.G)</title><text x="144.21" y="59.1" class="black" >G</text></g>
<g><title>49 (position.label in template: 49.C)</title><text x="145.6" y="66.57" class="black" >C</text></g>
<g><title>50 (position.label in template: 50.C)</title><text x="143.07" y="73.69" class="black" >C</text></g>
<g><text x="148.768" y="77.4981" class="numbering-label sequential" >50</text></g>
<g><line x1="144.59" y1="74.7055" x2="146.941" y2="76.2767" class="numbering-line sequential" /></g>
<g><title>51 (position.label in template: 51.C)</title><text x="137.46" y="78.75" class="black" >C</text></g>
<g><title>52 (position.label in template: 52.G)</title><text x="137.82" y="86.29" class="black" >G</text></g>
<g><title>53 (position.label in template: 53.G)</title><text x="138.4" y="93.83" class="black" >G</text></g>
<g><title>54 (position.label in template: 54.G)</title><text x="145.1" y="97.32" class="black" >G</text></g>
<g><title>55 (position.label in template: 55.U)</title><text x="150" y="103.25" class="green" >T</text></g>
<g><title>56 (position.label in template: 56.A)</title><text x="152.07" y="110.58" class="black" >A</text></g>
<g><title>57 (position.label in template: 57.A)</title><text x="150.77" y="118.02" class="black" >A</text></g>
<g><title>58 (position.label in template: 58.A)</title><text x="146.54" y="124.29" class="black" >A</text></g>
<g><title>59 (position.label in template: 59.G)</title><text x="139.7" y="128.28" class="black" >G</text></g>
<g><title>60 (position.label in template: 60.G)</title><text x="139.7" y="135.84" class="black" >G</text></g>
<g><title>61 (position.label in template: 61.A)</title><text x="140.12" y="143.4" class="green" >A</text></g>
<g><title>62 (position.label in template: 62.G)</title><text x="139.7" y="150.96" class="black" >G</text></g>
<g><title>63 (position.label in template: 63.G)</title><text x="147.25" y="151.43" class="black" >G</text></g>
<g><title>64 (position.label in template: 64.A)</title><text x="153.61" y="156.09" class="black" >A</text></g>
<g><title>65 (position.label in template: 65.G)</title><text x="155.44" y="163.31" class="black" >G</text></g>
<g><title>66 (position.label in template: 66.G)</title><text x="153.2" y="170.53" class="black" >G</text></g>
<g><title>67 (position.label in template: 67.G)</title><text x="147.25" y="175.2" class="black" >G</text></g>
<g><title>68 (position.label in template: 68.U)</title><text x="139.91" y="175.67" class="green" >T</text></g>
<g><title>69 (position.label in template: 69.U)</title><text x="139.91" y="183.23" class="green" >T</text></g>
<g><title>70 (position.label in template: 70.G)</title><text x="139.7" y="190.79" class="green" >G</text></g>
<g><title>71 (position.label in template: 71.G)</title><text x="139.7" y="198.35" class="green" >G</text></g>
<g><title>72 (position.label in template: 72.3')</title><text x="146.7" y="198.35" class="green" >3'</text></g>
<g><line x1="122.701" y1="198.045" x2="125.639" y2="198.045" class="gray" /></g>
<g><line x1="127.67" y1="196.015" x2="127.67" y2="192.516" class="gray" /></g>
<g><line x1="127.67" y1="188.455" x2="127.67" y2="184.956" class="gray" /></g>
<g><line x1="127.67" y1="180.895" x2="127.67" y2="177.396" class="gray" /></g>
<g><line x1="126.169" y1="173.998" x2="123.581" y2="171.643" class="gray" /></g>
<g><line x1="121.574" y1="168.309" x2="120.716" y2="164.972" class="gray" /></g>
<g><line x1="120.769" y1="161.053" x2="121.731" y2="157.688" class="gray" /></g>
<g><line x1="123.766" y1="154.341" x2="126.194" y2="152.05" class="gray" /></g>
<g><line x1="127.67" y1="148.625" x2="127.67" y2="145.126" class="gray" /></g>
<g><line x1="127.67" y1="141.065" x2="127.67" y2="137.566" class="gray" /></g>
<g><line x1="127.67" y1="133.505" x2="127.67" y2="130.006" class="gray" /></g>
<g><line x1="125.93" y1="126.928" x2="122.78" y2="125.032" class="gray" /></g>
<g><line x1="119.944" y1="122.276" x2="118.116" y2="119.425" class="gray" /></g>
<g><line x1="116.67" y1="115.715" x2="116.07" y2="112.276" class="gray" /></g>
<g><line x1="113.837" y1="109.515" x2="110.593" y2="108.206" class="gray" /></g>
<g><line x1="106.819" y1="106.704" x2="103.381" y2="105.356" class="gray" /></g>
<g><line x1="99.6142" y1="103.838" x2="96.5658" y2="102.573" class="gray" /></g>
<g><line x1="92.8148" y1="101.016" x2="89.7552" y2="99.7447" class="gray" /></g>
<g><line x1="85.9826" y1="98.2417" x2="82.3574" y2="96.8591" class="gray" /></g>
<g><line x1="78.8282" y1="97.3441" x2="76.1518" y2="99.3267" class="gray" /></g>
<g><line x1="72.5265" y1="100.922" x2="69.0935" y2="101.589" class="gray" /></g>
<g><line x1="65.1264" y1="101.497" x2="61.7236" y2="100.673" class="gray" /></g>
<g><line x1="58.1536" y1="98.9403" x2="55.4064" y2="96.7805" class="gray" /></g>
<g><line x1="52.8804" y1="93.72" x2="51.2796" y2="90.6108" class="gray" /></g>
<g><line x1="50.256" y1="86.7769" x2="50.094" y2="83.2839" class="gray" /></g>
<g><line x1="50.7593" y1="79.372" x2="52.0707" y2="76.1188" class="gray" /></g>
<g><line x1="54.3303" y1="72.8669" x2="57.0197" y2="70.4139" class="gray" /></g>
<g><line x1="60.4285" y1="68.3517" x2="63.3515" y2="67.2891" class="gray" /></g>
<g><line x1="67.2807" y1="66.7969" x2="70.7593" y2="67.1439" class="gray" /></g>
<g><line x1="74.5328" y1="68.3708" x2="77.5572" y2="70.14" class="gray" /></g>
<g><line x1="80.4758" y1="72.8281" x2="82.4842" y2="75.6927" class="gray" /></g>
<g><line x1="84.0749" y1="79.3411" x2="84.8151" y2="82.7997" class="gray" /></g>
<g><line x1="87.123" y1="85.5456" x2="90.367" y2="86.8552" class="gray" /></g>
<g><line x1="94.1415" y1="88.3542" x2="97.5785" y2="89.6966" class="gray" /></g>
<g><line x1="101.345" y1="91.2147" x2="104.405" y2="92.4861" class="gray" /></g>
<g><line x1="108.163" y1="94.0256" x2="111.407" y2="95.3352" class="gray" /></g>
<g><line x1="115.166" y1="96.8733" x2="118.214" y2="98.1375" class="gray" /></g>
<g><line x1="121.748" y1="97.7433" x2="124.742" y2="95.6275" class="gray" /></g>
<g><line x1="126.247" y1="92.4305" x2="125.983" y2="88.9403" class="gray" /></g>
<g><line x1="125.618" y1="84.8958" x2="125.252" y2="81.395" class="gray" /></g>
<g><line x1="123.343" y1="78.2596" x2="120.427" y2="76.3412" class="gray" /></g>
<g><line x1="117.816" y1="73.4118" x2="116.284" y2="70.369" class="gray" /></g>
<g><line x1="115.378" y1="66.5247" x2="115.392" y2="63.0261" class="gray" /></g>
<g><line x1="116.376" y1="59.2148" x2="118.054" y2="56.156" class="gray" /></g>
<g><line x1="120.737" y1="53.2751" x2="123.683" y2="51.3757" class="gray" /></g>
<g><line x1="127.415" y1="50.1237" x2="131.105" y2="49.8471" class="gray" /></g>
<g><line x1="134.983" y1="50.5254" x2="138.177" y2="51.9554" class="gray" /></g>
<g><line x1="141.189" y1="54.4525" x2="143.051" y2="57.1283" class="gray" /></g>
<g><line x1="144.581" y1="60.7918" x2="145.229" y2="64.269" class="gray" /></g>
<g><line x1="144.92" y1="68.1789" x2="143.75" y2="71.4719" class="gray" /></g>
<g><line x1="141.562" y1="74.7455" x2="138.968" y2="77.0853" class="gray" /></g>
<g><line x1="137.557" y1="80.4738" x2="137.723" y2="83.957" class="gray" /></g>
<g><line x1="137.976" y1="88.0101" x2="138.244" y2="91.5007" class="gray" /></g>
<g><line x1="140.201" y1="94.4635" x2="143.299" y2="96.0773" class="gray" /></g>
<g><line x1="146.394" y1="98.5808" x2="148.706" y2="101.38" class="gray" /></g>
<g><line x1="150.552" y1="104.9" x2="151.518" y2="108.321" class="gray" /></g>
<g><line x1="151.72" y1="112.276" x2="151.12" y2="115.715" class="gray" /></g>
<g><line x1="149.634" y1="119.399" x2="147.676" y2="122.302" class="gray" /></g>
<g><line x1="144.786" y1="125.009" x2="141.454" y2="126.952" class="gray" /></g>
<g><line x1="139.7" y1="130.006" x2="139.7" y2="133.505" class="gray" /></g>
<g><line x1="139.813" y1="137.563" x2="140.007" y2="141.068" class="gray" /></g>
<g><line x1="140.007" y1="145.123" x2="139.813" y2="148.628" class="gray" /></g>
<g><line x1="141.727" y1="150.782" x2="145.223" y2="150.999" class="gray" /></g>
<g><line x1="148.888" y1="152.326" x2="151.972" y2="154.585" class="gray" /></g>
<g><line x1="154.109" y1="157.754" x2="154.941" y2="161.037" class="gray" /></g>
<g><line x1="154.838" y1="164.945" x2="153.802" y2="168.286" class="gray" /></g>
<g><line x1="151.603" y1="171.479" x2="148.847" y2="173.642" class="gray" /></g>
<g><line x1="145.223" y1="175.025" x2="141.937" y2="175.236" class="gray" /></g>
<g><line x1="139.91" y1="177.396" x2="139.91" y2="180.895" class="gray" /></g>
<g><line x1="139.854" y1="184.955" x2="139.756" y2="188.456" class="gray" /></g>
<g><line x1="139.7" y1="192.516" x2="139.7" y2="196.015" class="gray" /></g>
<g><line x1="141.731" y1="198.045" x2="144.669" y2="198.045" class="gray" /></g>
</svg>
