<svg
	xmlns="http://www.w3.org/2000/svg"
	width="268.701"
	height="298.49">
<g><style type="text/css" >
<!-- create color definitions -->
<![CDATA[
circle.red {stroke: rgb(255, 0, 255); fill: none; }
circle.green {stroke: rgb(0, 255, 0); fill: none; }
circle.blue {stroke: rgb(0, 0, 255); fill: none; }
circle.black {stroke: rgb(0, 0, 0); fill: none; }
circle.gray {stroke: rgb(204, 204, 204); fill: none; }
circle.brown {stroke: rgb(211.65, 104.55, 30.6); fill: none; }
line.red {stroke: rgb(255, 0, 255); stroke-width: 0.383193; }
line.green {stroke: rgb(0, 255, 0); stroke-width: 0.383193; }
line.blue {stroke: rgb(0, 0, 255); stroke-width: 0.383193; }
line.black {stroke: rgb(0, 0, 0); stroke-width: 0.383193; }
line.gray {stroke: rgb(204, 204, 204); stroke-width: 0.383193; }
line.brown {stroke: rgb(211.65, 104.55, 30.6); stroke-width: 0.383193; }
line {stroke: rgb(0, 0, 0); }
text.red {fill: rgb(255, 0, 255); font-size: 3.065547px; font-weight: bold; font-family: Helvetica; }
text.green {fill: rgb(0, 255, 0); font-size: 3.065547px; font-weight: bold; font-family: Helvetica; }
text.blue {fill: rgb(0, 0, 255); font-size: 3.065547px; font-weight: bold; font-family: Helvetica; }
text.black {fill: rgb(0, 0, 0); font-size: 3.065547px; font-weight: bold; font-family: Helvetica; }
text.gray {fill: rgb(204, 204, 204); font-size: 3.065547px; font-weight: bold; font-family: Helvetica; }
text.brown {fill: rgb(211.65, 104.55, 30.6); font-size: 3.065547px; font-weight: bold; font-family: Helvetica; }
text {fill: rgb(0, 0, 0); font-size: 3.065547px; font-weight: bold; font-family: Helvetica; text-anchor: middle; alignment-baseline: middle; }

.pseudoknot_connection{stroke-linecap: round; stroke-opacity: 0.2; stroke-width: 1.5; }
.pseudoknot_segment1{stroke-linecap: round; stroke-opacity: 0.4; stroke-width: 3.06555; }
.pseudoknot_segment2{stroke-linecap: round; stroke-opacity: 0.4; stroke-width: 3.06555; }
line.numbering-line{stroke: rgb(204, 204, 204); stroke-width: 0.191597; }
line.predicted{stroke: rgb(0, 0, 0); stroke-dasharray: 2; }
polyline{fill: none; stroke-linejoin: round; }
template{visibility: hidden; }
text.numbering-label{fill: rgb(204, 204, 204); }
]]>
</style></g>
<g><title>0 (position.label in template: 0.5')</title><text x="42.439" y="157.416" class="green" >5'</text></g>
<g><title>1 (position.label in template: 1.U)</title><text x="50" y="157.416" class="green" >T</text></g>
<g><title>2 (position.label in template: 2.A)</title><text x="57.561" y="157.416" class="black" >A</text></g>
<g><title>3 (position.label in template: 3.U)</title><text x="65.122" y="157.416" class="green" >T</text></g>
<g><title>4 (position.label in template: 4.U)</title><text x="72.6829" y="157.416" class="green" >T</text></g>
<g><title>5 (position.label in template: 5.A)</title><text x="80.2439" y="157.416" class="black" >A</text></g>
<g><title>6 (position.label in template: 6.U)</title><text x="87.8049" y="157.416" class="green" >T</text></g>
<g><title>7 (position.label in template: 7.U)</title><text x="93.1513" y="152.07" class="green" >T</text></g>
<g><line x1="95.195" y1="151.763" x2="103.558" y2="151.763" class="black" /></g>
<g><title>8 (position.label in template: 8.G)</title><text x="92.9413" y="144.51" class="green" >G</text></g>
<g><line x1="94.985" y1="144.203" x2="103.348" y2="144.203" class="black" /></g>
<g><title>9 (position.label in template: 9.C)</title><text x="93.1513" y="136.95" class="black" >C</text></g>
<g><line x1="95.195" y1="136.643" x2="103.138" y2="136.643" class="black" /></g>
<g><title>10 (position.label in template: 10.A)</title><text x="93.3613" y="129.39" class="green" >A</text></g>
<g><line x1="95.405" y1="129.083" x2="103.348" y2="129.083" class="black" /></g>
<g><text x="86.4645" y="129.486" class="numbering-label sequential" >10</text></g>
<g><line x1="91.5222" y1="129.416" x2="88.3038" y2="129.46" class="numbering-line sequential" /></g>
<g><title>11 (position.label in template: 11.G)</title><text x="92.9413" y="121.83" class="black" >G</text></g>
<g><line x1="94.985" y1="121.523" x2="103.348" y2="121.523" class="black" /></g>
<g><title>12 (position.label in template: 12.A)</title><text x="93.3613" y="114.27" class="green" >A</text></g>
<g><line x1="95.405" y1="113.963" x2="103.348" y2="113.963" class="black" /></g>
<g><title>13 (position.label in template: 13.U)</title><text x="93.1513" y="106.71" class="green" >T</text></g>
<g><line x1="95.195" y1="106.403" x2="103.558" y2="106.403" class="black" /></g>
<g><title>14 (position.label in template: 14.A)</title><text x="93.3613" y="99.15" class="green" >A</text></g>
<g><line x1="95.405" y1="98.8434" x2="103.348" y2="98.8434" class="black" /></g>
<g><title>15 (position.label in template: 15.G)</title><text x="87.5913" y="93.81" class="black" >G</text></g>
<g><title>16 (position.label in template: 16.A)</title><text x="86.5213" y="86.4" class="black" >A</text></g>
<g><title>17 (position.label in template: 17.G)</title><text x="89.0013" y="79.41" class="black" >G</text></g>
<g><title>18 (position.label in template: 18.A)</title><text x="95.7013" y="75.21" class="black" >A</text></g>
<g><title>19 (position.label in template: 19.A)</title><text x="103.261" y="75.21" class="black" >A</text></g>
<g><title>20 (position.label in template: 20.A)</title><text x="109.541" y="79.41" class="black" >A</text></g>
<g><text x="114.925" y="75.0988" class="numbering-label sequential" >20</text></g>
<g><line x1="110.977" y1="78.2604" x2="113.011" y2="76.6316" class="numbering-line sequential" /></g>
<g><title>21 (position.label in template: 21.U)</title><text x="112.221" y="86.4" class="green" >T</text></g>
<g><title>22 (position.label in template: 22.C)</title><text x="110.741" y="93.81" class="black" >C</text></g>
<g><title>23 (position.label in template: 23.U)</title><text x="105.391" y="99.15" class="green" >T</text></g>
<g><title>24 (position.label in template: 24.A)</title><text x="105.601" y="106.71" class="green" >A</text></g>
<g><title>25 (position.label in template: 25.U)</title><text x="105.391" y="114.27" class="green" >T</text></g>
<g><title>26 (position.label in template: 26.A)</title><text x="112.141" y="118.05" class="black" >A</text></g>
<g><title>27 (position.label in template: 27.C)</title><text x="105.391" y="121.83" class="black" >C</text></g>
<g><title>28 (position.label in template: 28.U)</title><text x="105.391" y="129.39" class="green" >T</text></g>
<g><title>29 (position.label in template: 29.G)</title><text x="105.181" y="136.95" class="black" >G</text></g>
<g><title>30 (position.label in template: 30.U)</title><text x="105.391" y="144.51" class="green" >T</text></g>
<g><text x="109.367" y="138.874" class="numbering-label sequential" >30</text></g>
<g><line x1="106.452" y1="143.007" x2="108.286" y2="140.406" class="numbering-line sequential" /></g>
<g><title>31 (position.label in template: 31.C)</title><text x="112.581" y="142.17" class="black" >C</text></g>
<g><title>32 (position.label in template: 32.U)</title><text x="117.021" y="148.29" class="green" >T</text></g>
<g><title>33 (position.label in template: 33.A)</title><text x="112.791" y="154.4" class="black" >A</text></g>
<g><title>34 (position.label in template: 34.A)</title><text x="105.601" y="152.07" class="green" >A</text></g>
<g><title>35 (position.label in template: 35.U)</title><text x="110.741" y="157.41" class="green" >T</text></g>
<g><title>36 (position.label in template: 36.U)</title><text x="118.301" y="157.41" class="green" >T</text></g>
<g><title>37 (position.label in template: 37.U)</title><text x="123.641" y="152.07" class="green" >T</text></g>
<g><line x1="125.685" y1="151.763" x2="134.048" y2="151.763" class="black" /></g>
<g><title>38 (position.label in template: 38.C)</title><text x="123.641" y="144.51" class="black" >C</text></g>
<g><line x1="125.685" y1="144.203" x2="133.628" y2="144.203" class="black" /></g>
<g><title>39 (position.label in template: 39.U)</title><text x="123.641" y="136.95" class="green" >T</text></g>
<g><line x1="125.685" y1="136.643" x2="134.048" y2="136.643" class="black" /></g>
<g><title>40 (position.label in template: 40.A)</title><text x="123.851" y="129.39" class="green" >A</text></g>
<g><line x1="125.895" y1="129.083" x2="133.838" y2="129.083" class="black" /></g>
<g><title>41 (position.label in template: 41.U)</title><text x="123.641" y="121.83" class="green" >T</text></g>
<g><line x1="125.685" y1="121.523" x2="134.048" y2="121.523" class="black" /></g>
<g><title>42 (position.label in template: 42.G)</title><text x="123.431" y="114.27" class="black" >G</text></g>
<g><line x1="125.475" y1="113.963" x2="133.838" y2="113.963" class="black" /></g>
<g><title>43 (position.label in template: 43.A)</title><text x="116.291" y="113.97" class="black" >A</text></g>
<g><title>44 (position.label in template: 44.A)</title><text x="112.601" y="107.37" class="black" >A</text></g>
<g><title>45 (position.label in template: 45.A)</title><text x="116.291" y="100.78" class="black" >A</text></g>
<g><title>46 (position.label in template: 46.C)</title><text x="123.641" y="100.48" class="black" >C</text></g>
<g><line x1="125.685" y1="100.173" x2="133.628" y2="100.173" class="black" /></g>
<g><title>47 (position.label in template: 47.U)</title><text x="123.641" y="92.92" class="green" >T</text></g>
<g><line x1="125.685" y1="92.6134" x2="134.048" y2="92.6134" class="black" /></g>
<g><title>48 (position.label in template: 48.G)</title><text x="123.431" y="85.36" class="black" >G</text></g>
<g><line x1="125.475" y1="85.0534" x2="133.838" y2="85.0534" class="black" /></g>
<g><title>49 (position.label in template: 49.A)</title><text x="117.801" y="80.83" class="green" >A</text></g>
<g><line x1="117.194" y1="78.5722" x2="114.749" y2="70.7247" class="black" /></g>
<g><title>50 (position.label in template: 50.A)</title><text x="110.541" y="82.96" class="green" >A</text></g>
<g><line x1="109.935" y1="80.7017" x2="107.498" y2="72.8551" class="black" /></g>
<g><text x="112.459" y="89.5856" class="numbering-label sequential" >50</text></g>
<g><line x1="111.053" y1="84.7268" x2="112.015" y2="88.0528" class="numbering-line sequential" /></g>
<g><title>51 (position.label in template: 51.U)</title><text x="103.081" y="85.09" class="green" >T</text></g>
<g><line x1="102.538" y1="82.8133" x2="100.385" y2="75.0036" class="black" /></g>
<g><title>52 (position.label in template: 52.G)</title><text x="96.5413" y="89.21" class="black" >G</text></g>
<g><title>53 (position.label in template: 53.C)</title><text x="89.6613" y="86.59" class="black" >C</text></g>
<g><title>54 (position.label in template: 54.A)</title><text x="87.7313" y="79.34" class="black" >A</text></g>
<g><title>55 (position.label in template: 55.A)</title><text x="92.2813" y="73.3" class="black" >A</text></g>
<g><title>56 (position.label in template: 56.A)</title><text x="99.8413" y="73.34" class="green" >A</text></g>
<g><title>57 (position.label in template: 57.U)</title><text x="106.891" y="71.21" class="green" >T</text></g>
<g><title>58 (position.label in template: 58.U)</title><text x="114.141" y="69.08" class="green" >T</text></g>
<g><title>59 (position.label in template: 59.U)</title><text x="116.781" y="62" class="green" >T</text></g>
<g><title>60 (position.label in template: 60.A)</title><text x="122.631" y="56.97" class="black" >A</text></g>
<g><title>61 (position.label in template: 61.A)</title><text x="129.971" y="55.15" class="black" >A</text></g>
<g><title>62 (position.label in template: 62.G)</title><text x="136.891" y="56.97" class="black" >G</text></g>
<g><title>63 (position.label in template: 63.C)</title><text x="142.741" y="62" class="black" >C</text></g>
<g><line x1="143.18" y1="63.6894" x2="144.942" y2="71.6975" class="black" /></g>
<g><title>64 (position.label in template: 64.G)</title><text x="149.941" y="60.5" class="black" >G</text></g>
<g><line x1="150.381" y1="62.1893" x2="152.142" y2="70.1876" class="black" /></g>
<g><title>65 (position.label in template: 65.A)</title><text x="157.771" y="59" class="green" >A</text></g>
<g><line x1="158.143" y1="60.703" x2="159.619" y2="68.6739" class="black" /></g>
<g><title>66 (position.label in template: 66.C)</title><text x="164.971" y="57.5" class="black" >C</text></g>
<g><line x1="165.343" y1="59.203" x2="166.819" y2="67.1739" class="black" /></g>
<g><title>67 (position.label in template: 67.U)</title><text x="172.381" y="56" class="green" >T</text></g>
<g><line x1="172.821" y1="57.6893" x2="174.582" y2="65.6876" class="black" /></g>
<g><title>68 (position.label in template: 68.U)</title><text x="177.651" y="50.58" class="green" >T</text></g>
<g><title>69 (position.label in template: 69.U)</title><text x="185.191" y="50" class="green" >T</text></g>
<g><title>70 (position.label in template: 70.A)</title><text x="191.431" y="54.57" class="black" >A</text></g>
<g><title>71 (position.label in template: 71.U)</title><text x="192.721" y="61.98" class="green" >T</text></g>
<g><title>72 (position.label in template: 72.A)</title><text x="189.151" y="68.52" class="black" >A</text></g>
<g><title>73 (position.label in template: 73.A)</title><text x="181.981" y="70.93" class="black" >A</text></g>
<g><title>74 (position.label in template: 74.A)</title><text x="175.021" y="67.99" class="green" >A</text></g>
<g><title>75 (position.label in template: 75.G)</title><text x="167.191" y="69.49" class="black" >G</text></g>
<g><title>76 (position.label in template: 76.U)</title><text x="159.991" y="70.99" class="green" >T</text></g>
<g><title>77 (position.label in template: 77.C)</title><text x="152.581" y="72.49" class="black" >C</text></g>
<g><title>78 (position.label in template: 78.A)</title><text x="145.381" y="74" class="black" >A</text></g>
<g><title>79 (position.label in template: 79.U)</title><text x="141.931" y="80.83" class="green" >T</text></g>
<g><title>80 (position.label in template: 80.C)</title><text x="135.881" y="85.36" class="black" >C</text></g>
<g><title>81 (position.label in template: 81.A)</title><text x="136.091" y="92.92" class="green" >A</text></g>
<g><title>82 (position.label in template: 82.G)</title><text x="135.671" y="100.48" class="black" >G</text></g>
<g><title>83 (position.label in template: 83.A)</title><text x="139.191" y="107.37" class="black" >A</text></g>
<g><title>84 (position.label in template: 84.C)</title><text x="135.881" y="114.27" class="black" >C</text></g>
<g><title>85 (position.label in template: 85.A)</title><text x="136.091" y="121.83" class="green" >A</text></g>
<g><title>86 (position.label in template: 86.U)</title><text x="135.881" y="129.39" class="green" >T</text></g>
<g><title>87 (position.label in template: 87.A)</title><text x="136.091" y="136.95" class="green" >A</text></g>
<g><title>88 (position.label in template: 88.G)</title><text x="135.671" y="144.51" class="black" >G</text></g>
<g><title>89 (position.label in template: 89.A)</title><text x="136.091" y="152.07" class="green" >A</text></g>
<g><title>90 (position.label in template: 90.G)</title><text x="146.361" y="162.76" class="green" >G</text></g>
<g><line x1="146.396" y1="164.497" x2="146.536" y2="172.65" class="black" /></g>
<g><title>91 (position.label in template: 91.C)</title><text x="154.131" y="162.76" class="black" >C</text></g>
<g><line x1="154.096" y1="164.497" x2="153.956" y2="172.65" class="black" /></g>
<g><title>92 (position.label in template: 92.C)</title><text x="161.691" y="162.76" class="black" >C</text></g>
<g><line x1="161.656" y1="164.497" x2="161.516" y2="172.65" class="black" /></g>
<g><title>93 (position.label in template: 93.A)</title><text x="169.461" y="162.76" class="green" >A</text></g>
<g><line x1="169.426" y1="164.497" x2="169.286" y2="172.65" class="black" /></g>
<g><title>94 (position.label in template: 94.C)</title><text x="176.811" y="162.76" class="black" >C</text></g>
<g><line x1="176.776" y1="164.497" x2="176.636" y2="172.65" class="black" /></g>
<g><title>95 (position.label in template: 95.U)</title><text x="184.371" y="162.76" class="green" >T</text></g>
<g><line x1="184.336" y1="164.497" x2="184.196" y2="172.65" class="black" /></g>
<g><title>96 (position.label in template: 96.U)</title><text x="191.931" y="162.76" class="green" >T</text></g>
<g><line x1="191.966" y1="164.497" x2="192.106" y2="172.65" class="black" /></g>
<g><title>97 (position.label in template: 97.A)</title><text x="199.701" y="162.76" class="green" >A</text></g>
<g><line x1="199.666" y1="164.497" x2="199.526" y2="172.65" class="black" /></g>
<g><title>98 (position.label in template: 98.C)</title><text x="207.051" y="162.76" class="black" >C</text></g>
<g><line x1="207.016" y1="164.497" x2="206.876" y2="172.65" class="black" /></g>
<g><title>99 (position.label in template: 99.A)</title><text x="214.811" y="162.39" class="black" >A</text></g>
<g><title>100 (position.label in template: 100.A)</title><text x="218.701" y="168.88" class="black" >A</text></g>
<g><text x="225.598" y="168.986" class="numbering-label sequential" >100</text></g>
<g><line x1="220.54" y1="168.908" x2="222.839" y2="168.944" class="numbering-line sequential" /></g>
<g><title>101 (position.label in template: 101.U)</title><text x="214.611" y="175.36" class="green" >T</text></g>
<g><title>102 (position.label in template: 102.G)</title><text x="206.841" y="175" class="black" >G</text></g>
<g><title>103 (position.label in template: 103.U)</title><text x="199.491" y="175" class="green" >T</text></g>
<g><title>104 (position.label in template: 104.A)</title><text x="192.141" y="175" class="green" >A</text></g>
<g><title>105 (position.label in template: 105.G)</title><text x="184.161" y="175" class="green" >G</text></g>
<g><title>106 (position.label in template: 106.G)</title><text x="176.601" y="175" class="black" >G</text></g>
<g><title>107 (position.label in template: 107.U)</title><text x="169.251" y="175" class="green" >T</text></g>
<g><title>108 (position.label in template: 108.G)</title><text x="161.481" y="175" class="black" >G</text></g>
<g><title>109 (position.label in template: 109.G)</title><text x="153.921" y="175" class="black" >G</text></g>
<g><title>110 (position.label in template: 110.U)</title><text x="146.571" y="175" class="green" >T</text></g>
<g><title>111 (position.label in template: 111.A)</title><text x="141.333" y="180.452" class="black" >A</text></g>
<g><title>112 (position.label in template: 112.U)</title><text x="141.133" y="188.011" class="green" >T</text></g>
<g><title>113 (position.label in template: 113.U)</title><text x="141.133" y="195.572" class="green" >T</text></g>
<g><title>114 (position.label in template: 114.U)</title><text x="141.133" y="203.133" class="green" >T</text></g>
<g><title>115 (position.label in template: 115.U)</title><text x="141.133" y="210.694" class="green" >T</text></g>
<g><title>116 (position.label in template: 116.U)</title><text x="141.133" y="218.255" class="green" >T</text></g>
<g><title>117 (position.label in template: 117.U)</title><text x="141.133" y="225.816" class="green" >T</text></g>
<g><title>118 (position.label in template: 118.G)</title><text x="140.923" y="233.374" class="black" >G</text></g>
<g><title>119 (position.label in template: 119.U)</title><text x="141.133" y="240.932" class="green" >T</text></g>
<g><title>120 (position.label in template: 120.A)</title><text x="141.333" y="248.49" class="black" >A</text></g>
<g><title>121 (position.label in template: 121.3')</title><text x="141.533" y="256.048" class="green" >3'</text></g>
<g><line x1="44.4827" y1="157.11" x2="47.9563" y2="157.11" class="gray" /></g>
<g><line x1="52.0437" y1="157.11" x2="55.5173" y2="157.11" class="gray" /></g>
<g><line x1="59.6047" y1="157.11" x2="63.0783" y2="157.11" class="gray" /></g>
<g><line x1="67.1657" y1="157.11" x2="70.6392" y2="157.11" class="gray" /></g>
<g><line x1="74.7266" y1="157.11" x2="78.2002" y2="157.11" class="gray" /></g>
<g><line x1="82.2876" y1="157.11" x2="85.7612" y2="157.11" class="gray" /></g>
<g><line x1="89.25" y1="155.665" x2="91.7062" y2="153.209" class="gray" /></g>
<g><line x1="93.0946" y1="149.721" x2="92.9981" y2="146.246" class="gray" /></g>
<g><line x1="92.9981" y1="142.161" x2="93.0946" y2="138.686" class="gray" /></g>
<g><line x1="93.2081" y1="134.601" x2="93.3046" y2="131.126" class="gray" /></g>
<g><line x1="93.248" y1="127.043" x2="93.0547" y2="123.564" class="gray" /></g>
<g><line x1="93.0547" y1="119.483" x2="93.248" y2="116.004" class="gray" /></g>
<g><line x1="93.3046" y1="111.921" x2="93.2081" y2="108.446" class="gray" /></g>
<g><line x1="93.2081" y1="104.361" x2="93.3046" y2="100.886" class="gray" /></g>
<g><line x1="91.8614" y1="97.4553" x2="89.0912" y2="94.8916" class="gray" /></g>
<g><line x1="87.2992" y1="91.4807" x2="86.8134" y2="88.1162" class="gray" /></g>
<g><line x1="87.2047" y1="84.1674" x2="88.318" y2="81.0295" class="gray" /></g>
<g><line x1="90.7329" y1="78.018" x2="93.9697" y2="75.9889" class="gray" /></g>
<g><line x1="97.745" y1="74.9034" x2="101.218" y2="74.9034" class="gray" /></g>
<g><line x1="104.96" y1="76.0396" x2="107.843" y2="77.9673" class="gray" /></g>
<g><line x1="110.273" y1="81.0117" x2="111.49" y2="84.1852" class="gray" /></g>
<g><line x1="111.821" y1="88.0976" x2="111.142" y2="91.4993" class="gray" /></g>
<g><line x1="109.295" y1="94.9472" x2="106.838" y2="97.3997" class="gray" /></g>
<g><line x1="105.448" y1="100.886" x2="105.545" y2="104.361" class="gray" /></g>
<g><line x1="105.545" y1="108.446" x2="105.448" y2="111.921" class="gray" /></g>
<g><line x1="107.174" y1="114.962" x2="110.358" y2="116.745" class="gray" /></g>
<g><line x1="110.358" y1="118.742" x2="107.174" y2="120.525" class="gray" /></g>
<g><line x1="105.391" y1="123.567" x2="105.391" y2="127.04" class="gray" /></g>
<g><line x1="105.335" y1="131.126" x2="105.238" y2="134.601" class="gray" /></g>
<g><line x1="105.238" y1="138.686" x2="105.335" y2="142.161" class="gray" /></g>
<g><line x1="107.335" y1="143.571" x2="110.638" y2="142.496" class="gray" /></g>
<g><line x1="113.781" y1="143.518" x2="115.821" y2="146.329" class="gray" /></g>
<g><line x1="115.858" y1="149.664" x2="113.955" y2="152.413" class="gray" /></g>
<g><line x1="110.847" y1="153.463" x2="107.545" y2="152.393" class="gray" /></g>
<g><line x1="107.019" y1="153.236" x2="109.324" y2="155.631" class="gray" /></g>
<g><line x1="112.785" y1="157.103" x2="116.258" y2="157.103" class="gray" /></g>
<g><line x1="119.746" y1="155.658" x2="122.196" y2="153.209" class="gray" /></g>
<g><line x1="123.641" y1="149.72" x2="123.641" y2="146.247" class="gray" /></g>
<g><line x1="123.641" y1="142.16" x2="123.641" y2="138.687" class="gray" /></g>
<g><line x1="123.698" y1="134.601" x2="123.795" y2="131.126" class="gray" /></g>
<g><line x1="123.795" y1="127.041" x2="123.698" y2="123.566" class="gray" /></g>
<g><line x1="123.585" y1="119.481" x2="123.488" y2="116.006" class="gray" /></g>
<g><line x1="121.389" y1="113.878" x2="118.333" y2="113.749" class="gray" /></g>
<g><line x1="115.294" y1="111.88" x2="113.599" y2="108.847" class="gray" /></g>
<g><line x1="113.6" y1="105.28" x2="115.293" y2="102.257" class="gray" /></g>
<g><line x1="118.333" y1="100.39" x2="121.599" y2="100.257" class="gray" /></g>
<g><line x1="123.641" y1="98.1297" x2="123.641" y2="94.6571" class="gray" /></g>
<g><line x1="123.585" y1="90.5705" x2="123.488" y2="87.0964" class="gray" /></g>
<g><line x1="121.839" y1="83.7723" x2="119.394" y2="81.8046" class="gray" /></g>
<g><line x1="115.84" y1="81.0988" x2="112.502" y2="82.0781" class="gray" /></g>
<g><line x1="108.576" y1="83.2145" x2="105.046" y2="84.2223" class="gray" /></g>
<g><line x1="101.352" y1="85.8728" x2="98.2705" y2="87.8141" class="gray" /></g>
<g><line x1="94.6314" y1="88.1761" x2="91.5712" y2="87.0108" class="gray" /></g>
<g><line x1="89.1356" y1="84.3085" x2="88.2571" y2="81.0084" class="gray" /></g>
<g><line x1="88.961" y1="77.4011" x2="91.0517" y2="74.6258" class="gray" /></g>
<g><line x1="94.325" y1="73.0043" x2="97.7977" y2="73.0226" class="gray" /></g>
<g><line x1="101.798" y1="72.4424" x2="104.935" y2="71.4945" class="gray" /></g>
<g><line x1="108.852" y1="70.3274" x2="112.181" y2="69.3495" class="gray" /></g>
<g><line x1="114.855" y1="66.8585" x2="116.067" y2="63.6083" class="gray" /></g>
<g><line x1="118.331" y1="60.361" x2="121.082" y2="57.9959" class="gray" /></g>
<g><line x1="124.615" y1="56.1716" x2="127.988" y2="55.3353" class="gray" /></g>
<g><line x1="131.948" y1="55.3633" x2="134.915" y2="56.1436" class="gray" /></g>
<g><line x1="138.441" y1="57.9959" x2="141.192" y2="60.361" class="gray" /></g>
<g><line x1="144.742" y1="61.2766" x2="147.941" y2="60.6103" class="gray" /></g>
<g><line x1="151.949" y1="59.8089" x2="155.764" y2="59.078" class="gray" /></g>
<g><line x1="159.772" y1="58.2766" x2="162.971" y2="57.6103" class="gray" /></g>
<g><line x1="166.974" y1="56.788" x2="170.378" y2="56.0989" class="gray" /></g>
<g><line x1="173.806" y1="54.2282" x2="176.227" y2="51.7387" class="gray" /></g>
<g><line x1="179.689" y1="50.1167" x2="183.154" y2="49.8502" class="gray" /></g>
<g><line x1="186.84" y1="50.901" x2="189.783" y2="53.0559" class="gray" /></g>
<g><line x1="191.782" y1="56.2769" x2="192.371" y2="59.66" class="gray" /></g>
<g><line x1="191.742" y1="63.4673" x2="190.131" y2="66.4196" class="gray" /></g>
<g><line x1="187.214" y1="68.8646" x2="183.919" y2="69.9723" class="gray" /></g>
<g><line x1="180.099" y1="69.8282" x2="176.904" y2="68.4787" class="gray" /></g>
<g><line x1="173.014" y1="68.068" x2="169.199" y2="68.7989" class="gray" /></g>
<g><line x1="165.191" y1="69.6003" x2="161.992" y2="70.2666" class="gray" /></g>
<g><line x1="157.988" y1="71.0889" x2="154.584" y2="71.778" class="gray" /></g>
<g><line x1="150.581" y1="72.6029" x2="147.382" y2="73.274" class="gray" /></g>
<g><line x1="144.46" y1="75.5176" x2="142.853" y2="78.6993" class="gray" /></g>
<g><line x1="140.295" y1="81.7484" x2="137.517" y2="83.8285" class="gray" /></g>
<g><line x1="135.938" y1="87.0964" x2="136.035" y2="90.5705" class="gray" /></g>
<g><line x1="135.978" y1="94.654" x2="135.785" y2="98.1329" class="gray" /></g>
<g><line x1="136.601" y1="101.993" x2="138.262" y2="105.243" class="gray" /></g>
<g><line x1="138.307" y1="108.906" x2="136.765" y2="112.121" class="gray" /></g>
<g><line x1="135.938" y1="116.006" x2="136.035" y2="119.481" class="gray" /></g>
<g><line x1="136.035" y1="123.566" x2="135.938" y2="127.041" class="gray" /></g>
<g><line x1="135.938" y1="131.126" x2="136.035" y2="134.601" class="gray" /></g>
<g><line x1="135.978" y1="138.684" x2="135.785" y2="142.163" class="gray" /></g>
<g><line x1="135.785" y1="146.244" x2="135.978" y2="149.723" class="gray" /></g>
<g><line x1="137.507" y1="153.237" x2="144.945" y2="160.98" class="gray" /></g>
<g><line x1="148.405" y1="162.453" x2="152.088" y2="162.453" class="gray" /></g>
<g><line x1="156.175" y1="162.453" x2="159.648" y2="162.453" class="gray" /></g>
<g><line x1="163.735" y1="162.453" x2="167.418" y2="162.453" class="gray" /></g>
<g><line x1="171.505" y1="162.453" x2="174.768" y2="162.453" class="gray" /></g>
<g><line x1="178.855" y1="162.453" x2="182.328" y2="162.453" class="gray" /></g>
<g><line x1="186.415" y1="162.453" x2="189.888" y2="162.453" class="gray" /></g>
<g><line x1="193.975" y1="162.453" x2="197.658" y2="162.453" class="gray" /></g>
<g><line x1="201.745" y1="162.453" x2="205.008" y2="162.453" class="gray" /></g>
<g><line x1="209.093" y1="162.356" x2="212.77" y2="162.181" class="gray" /></g>
<g><line x1="215.862" y1="163.836" x2="217.651" y2="166.821" class="gray" /></g>
<g><line x1="217.611" y1="170.302" x2="215.702" y2="173.325" class="gray" /></g>
<g><line x1="212.57" y1="174.959" x2="208.883" y2="174.788" class="gray" /></g>
<g><line x1="204.798" y1="174.693" x2="201.535" y2="174.693" class="gray" /></g>
<g><line x1="197.448" y1="174.693" x2="194.185" y2="174.693" class="gray" /></g>
<g><line x1="190.098" y1="174.693" x2="186.205" y2="174.693" class="gray" /></g>
<g><line x1="182.118" y1="174.693" x2="178.645" y2="174.693" class="gray" /></g>
<g><line x1="174.558" y1="174.693" x2="171.295" y2="174.693" class="gray" /></g>
<g><line x1="167.208" y1="174.693" x2="163.525" y2="174.693" class="gray" /></g>
<g><line x1="159.438" y1="174.693" x2="155.965" y2="174.693" class="gray" /></g>
<g><line x1="151.878" y1="174.693" x2="148.615" y2="174.693" class="gray" /></g>
<g><line x1="145.155" y1="176.167" x2="142.749" y2="178.672" class="gray" /></g>
<g><line x1="141.279" y1="182.189" x2="141.187" y2="185.661" class="gray" /></g>
<g><line x1="141.133" y1="189.748" x2="141.133" y2="193.221" class="gray" /></g>
<g><line x1="141.133" y1="197.309" x2="141.133" y2="200.782" class="gray" /></g>
<g><line x1="141.133" y1="204.87" x2="141.133" y2="208.343" class="gray" /></g>
<g><line x1="141.133" y1="212.431" x2="141.133" y2="215.904" class="gray" /></g>
<g><line x1="141.133" y1="219.992" x2="141.133" y2="223.465" class="gray" /></g>
<g><line x1="141.076" y1="227.552" x2="140.98" y2="231.024" class="gray" /></g>
<g><line x1="140.98" y1="235.11" x2="141.076" y2="238.582" class="gray" /></g>
<g><line x1="141.187" y1="242.668" x2="141.279" y2="246.141" class="gray" /></g>
<g><line x1="141.387" y1="250.226" x2="141.479" y2="253.699" class="gray" /></g>
</svg>
