<svg
	xmlns="http://www.w3.org/2000/svg"
	width="273.41"
	height="298.559">
<g><style type="text/css" >
<!-- create color definitions -->
<![CDATA[
circle.red {stroke: rgb(255, 0, 255); fill: none; }
circle.green {stroke: rgb(0, 255, 0); fill: none; }
circle.blue {stroke: rgb(0, 0, 255); fill: none; }
circle.black {stroke: rgb(0, 0, 0); fill: none; }
circle.gray {stroke: rgb(204, 204, 204); fill: none; }
circle.brown {stroke: rgb(211.65, 104.55, 30.6); fill: none; }
line.red {stroke: rgb(255, 0, 255); stroke-width: 0.38201; }
line.green {stroke: rgb(0, 255, 0); stroke-width: 0.38201; }
line.blue {stroke: rgb(0, 0, 255); stroke-width: 0.38201; }
line.black {stroke: rgb(0, 0, 0); stroke-width: 0.38201; }
line.gray {stroke: rgb(204, 204, 204); stroke-width: 0.38201; }
line.brown {stroke: rgb(211.65, 104.55, 30.6); stroke-width: 0.38201; }
line {stroke: rgb(0, 0, 0); }
text.red {fill: rgb(255, 0, 255); font-size: 3.056079px; font-weight: bold; font-family: Helvetica; }
text.green {fill: rgb(0, 255, 0); font-size: 3.056079px; font-weight: bold; font-family: Helvetica; }
text.blue {fill: rgb(0, 0, 255); font-size: 3.056079px; font-weight: bold; font-family: Helvetica; }
text.black {fill: rgb(0, 0, 0); font-size: 3.056079px; font-weight: bold; font-family: Helvetica; }
text.gray {fill: rgb(204, 204, 204); font-size: 3.056079px; font-weight: bold; font-family: Helvetica; }
text.brown {fill: rgb(211.65, 104.55, 30.6); font-size: 3.056079px; font-weight: bold; font-family: Helvetica; }
text {fill: rgb(0, 0, 0); font-size: 3.056079px; font-weight: bold; font-family: Helvetica; text-anchor: middle; alignment-baseline: middle; }

.pseudoknot_connection{stroke-linecap: round; stroke-opacity: 0.2; stroke-width: 1.5; }
.pseudoknot_segment1{stroke-linecap: round; stroke-opacity: 0.4; stroke-width: 3.05608; }
.pseudoknot_segment2{stroke-linecap: round; stroke-opacity: 0.4; stroke-width: 3.05608; }
line.numbering-line{stroke: rgb(204, 204, 204); stroke-width: 0.191005; }
line.predicted{stroke: rgb(0, 0, 0); stroke-dasharray: 2; }
polyline{fill: none; stroke-linejoin: round; }
template{visibility: hidden; }
text.numbering-label{fill: rgb(204, 204, 204); }
]]>
</style></g>
<g><title>0 (position.label in template: 0.5')</title><text x="116.843" y="248.46" class="green" >5'</text></g>
<g><title>1 (position.label in template: 1.U)</title><text x="124.393" y="248.46" class="green" >T</text></g>
<g><title>2 (position.label in template: 2.C)</title><text x="131.944" y="248.46" class="black" >C</text></g>
<g><title>3 (position.label in template: 3.A)</title><text x="137.38" y="243.22" class="green" >A</text></g>
<g><line x1="139.417" y1="242.914" x2="147.373" y2="242.914" class="black" /></g>
<g><title>4 (position.label in template: 4.A)</title><text x="137.38" y="235.66" class="black" >A</text></g>
<g><line x1="139.417" y1="235.354" x2="147.583" y2="235.354" class="black" /></g>
<g><title>5 (position.label in template: 5.U)</title><text x="137.17" y="228.1" class="green" >T</text></g>
<g><line x1="139.207" y1="227.794" x2="147.583" y2="227.794" class="black" /></g>
<g><title>6 (position.label in template: 6.C)</title><text x="137.17" y="220.54" class="black" >C</text></g>
<g><line x1="139.207" y1="220.234" x2="147.163" y2="220.234" class="black" /></g>
<g><title>7 (position.label in template: 7.C)</title><text x="137.17" y="212.98" class="black" >C</text></g>
<g><line x1="139.207" y1="212.674" x2="147.163" y2="212.674" class="black" /></g>
<g><title>8 (position.label in template: 8.U)</title><text x="137.17" y="205.42" class="green" >T</text></g>
<g><line x1="139.207" y1="205.114" x2="147.583" y2="205.114" class="black" /></g>
<g><title>9 (position.label in template: 9.U)</title><text x="137.17" y="197.86" class="green" >T</text></g>
<g><line x1="139.207" y1="197.554" x2="147.583" y2="197.554" class="black" /></g>
<g><title>10 (position.label in template: 10.C)</title><text x="137.17" y="190.3" class="black" >C</text></g>
<g><line x1="139.207" y1="189.994" x2="147.163" y2="189.994" class="black" /></g>
<g><text x="131.693" y="194.457" class="numbering-label sequential" >10</text></g>
<g><line x1="135.709" y1="191.409" x2="133.706" y2="192.929" class="numbering-line sequential" /></g>
<g><title>11 (position.label in template: 11.G)</title><text x="129.74" y="188.07" class="black" >G</text></g>
<g><title>12 (position.label in template: 12.G)</title><text x="123.21" y="184.26" class="black" >G</text></g>
<g><title>13 (position.label in template: 13.G)</title><text x="117.71" y="179.07" class="black" >G</text></g>
<g><title>14 (position.label in template: 14.G)</title><text x="113.54" y="172.77" class="black" >G</text></g>
<g><title>15 (position.label in template: 15.C)</title><text x="111.1" y="165.68" class="black" >C</text></g>
<g><title>16 (position.label in template: 16.A)</title><text x="110.34" y="158.18" class="black" >A</text></g>
<g><title>17 (position.label in template: 17.G)</title><text x="110.68" y="150.66" class="black" >G</text></g>
<g><line x1="111.502" y1="148.49" x2="114.828" y2="140.949" class="black" /></g>
<g><title>18 (position.label in template: 18.G)</title><text x="103.72" y="147.72" class="black" >G</text></g>
<g><line x1="104.542" y1="145.55" x2="107.868" y2="138.009" class="black" /></g>
<g><title>19 (position.label in template: 19.G)</title><text x="96.75" y="144.78" class="black" >G</text></g>
<g><line x1="97.5729" y1="142.611" x2="100.907" y2="135.058" class="black" /></g>
<g><title>20 (position.label in template: 20.U)</title><text x="91.64" y="150.14" class="green" >T</text></g>
<g><text x="95.7686" y="155.639" class="numbering-label sequential" >20</text></g>
<g><line x1="92.741" y1="151.606" x2="94.6213" y2="154.111" class="numbering-line sequential" /></g>
<g><title>21 (position.label in template: 21.G)</title><text x="84.79" y="153.76" class="black" >G</text></g>
<g><title>22 (position.label in template: 22.A)</title><text x="77.81" y="155.32" class="black" >A</text></g>
<g><title>23 (position.label in template: 23.G)</title><text x="69.86" y="154.7" class="black" >G</text></g>
<g><title>24 (position.label in template: 24.G)</title><text x="62.82" y="151.94" class="black" >G</text></g>
<g><title>25 (position.label in template: 25.C)</title><text x="57.07" y="147.29" class="black" >C</text></g>
<g><title>26 (position.label in template: 26.C)</title><text x="52.7" y="141.12" class="black" >C</text></g>
<g><title>27 (position.label in template: 27.A)</title><text x="50.48" y="133.96" class="black" >A</text></g>
<g><title>28 (position.label in template: 28.C)</title><text x="50" y="126.41" class="black" >C</text></g>
<g><title>29 (position.label in template: 29.G)</title><text x="51.69" y="119.09" class="black" >G</text></g>
<g><title>30 (position.label in template: 30.C)</title><text x="55.82" y="112.63" class="black" >C</text></g>
<g><text x="50.5199" y="108.249" class="numbering-label sequential" >30</text></g>
<g><line x1="54.4066" y1="111.462" x2="52.3536" y2="109.765" class="numbering-line sequential" /></g>
<g><title>31 (position.label in template: 31.G)</title><text x="61.22" y="107.56" class="black" >G</text></g>
<g><title>32 (position.label in template: 32.G)</title><text x="68.05" y="104.3" class="black" >G</text></g>
<g><title>33 (position.label in template: 33.C)</title><text x="75.73" y="103.14" class="black" >C</text></g>
<g><title>34 (position.label in template: 34.C)</title><text x="83.22" y="104.17" class="black" >C</text></g>
<g><title>35 (position.label in template: 35.A)</title><text x="90.3" y="107.3" class="black" >A</text></g>
<g><title>36 (position.label in template: 36.A)</title><text x="96" y="112.27" class="black" >A</text></g>
<g><title>37 (position.label in template: 37.U)</title><text x="99.83" y="118.66" class="green" >T</text></g>
<g><title>38 (position.label in template: 38.U)</title><text x="101.86" y="125.94" class="green" >T</text></g>
<g><title>39 (position.label in template: 39.C)</title><text x="101.73" y="133.5" class="black" >C</text></g>
<g><title>40 (position.label in template: 40.C)</title><text x="108.69" y="136.45" class="black" >C</text></g>
<g><title>41 (position.label in template: 41.C)</title><text x="115.65" y="139.39" class="black" >C</text></g>
<g><title>42 (position.label in template: 42.G)</title><text x="120.31" y="133.6" class="black" >G</text></g>
<g><title>43 (position.label in template: 43.A)</title><text x="126.78" y="129.08" class="black" >A</text></g>
<g><title>44 (position.label in template: 44.U)</title><text x="133.5" y="126.03" class="green" >T</text></g>
<g><title>45 (position.label in template: 45.C)</title><text x="140.93" y="124.64" class="black" >C</text></g>
<g><line x1="142.954" y1="124.57" x2="150.856" y2="125.489" class="black" /></g>
<g><title>46 (position.label in template: 46.G)</title><text x="141.58" y="117.13" class="black" >G</text></g>
<g><line x1="143.605" y1="117.052" x2="151.925" y2="117.987" class="black" /></g>
<g><title>47 (position.label in template: 47.G)</title><text x="135.18" y="113.11" class="black" >G</text></g>
<g><line x1="134.116" y1="111.067" x2="129.904" y2="104.192" class="black" /></g>
<g><title>48 (position.label in template: 48.U)</title><text x="129" y="117.15" class="green" >T</text></g>
<g><line x1="127.936" y1="115.107" x2="123.724" y2="108.232" class="black" /></g>
<g><title>49 (position.label in template: 49.G)</title><text x="122.4" y="121.19" class="black" >G</text></g>
<g><line x1="121.335" y1="119.148" x2="117.125" y2="112.281" class="black" /></g>
<g><title>50 (position.label in template: 50.G)</title><text x="116.01" y="125.23" class="black" >G</text></g>
<g><line x1="114.945" y1="123.188" x2="110.735" y2="116.321" class="black" /></g>
<g><text x="122.445" y="127.654" class="numbering-label sequential" >50</text></g>
<g><line x1="117.726" y1="125.876" x2="120.611" y2="126.963" class="numbering-line sequential" /></g>
<g><title>51 (position.label in template: 51.U)</title><text x="118.12" y="132.55" class="green" >T</text></g>
<g><title>52 (position.label in template: 52.G)</title><text x="118.05" y="140.11" class="black" >G</text></g>
<g><title>53 (position.label in template: 53.A)</title><text x="116.83" y="147.49" class="black" >A</text></g>
<g><title>54 (position.label in template: 54.U)</title><text x="113.31" y="154.28" class="green" >T</text></g>
<g><title>55 (position.label in template: 55.C)</title><text x="108.5" y="160.12" class="black" >C</text></g>
<g><title>56 (position.label in template: 56.C)</title><text x="102.46" y="164.66" class="black" >C</text></g>
<g><title>57 (position.label in template: 57.G)</title><text x="95.31" y="167.67" class="black" >G</text></g>
<g><title>58 (position.label in template: 58.A)</title><text x="88.28" y="168.97" class="black" >A</text></g>
<g><title>59 (position.label in template: 59.C)</title><text x="80.53" y="168.5" class="black" >C</text></g>
<g><title>60 (position.label in template: 60.A)</title><text x="73.51" y="166.27" class="black" >A</text></g>
<g><title>61 (position.label in template: 61.C)</title><text x="66.8" y="162.42" class="black" >C</text></g>
<g><title>62 (position.label in template: 62.A)</title><text x="61.58" y="157.15" class="black" >A</text></g>
<g><title>63 (position.label in template: 63.G)</title><text x="57.13" y="150.76" class="black" >G</text></g>
<g><title>64 (position.label in template: 64.G)</title><text x="54.69" y="143.6" class="black" >G</text></g>
<g><title>65 (position.label in template: 65.U)</title><text x="54.21" y="136.08" class="green" >T</text></g>
<g><title>66 (position.label in template: 66.U)</title><text x="55.29" y="128.59" class="green" >T</text></g>
<g><title>67 (position.label in template: 67.C)</title><text x="58.1" y="121.57" class="black" >C</text></g>
<g><title>68 (position.label in template: 68.G)</title><text x="62.25" y="115.4" class="black" >G</text></g>
<g><title>69 (position.label in template: 69.G)</title><text x="67.94" y="110.42" class="black" >G</text></g>
<g><title>70 (position.label in template: 70.C)</title><text x="74.85" y="106.91" class="black" >C</text></g>
<g><title>71 (position.label in template: 71.G)</title><text x="81.97" y="105.07" class="black" >G</text></g>
<g><title>72 (position.label in template: 72.A)</title><text x="89.94" y="104.98" class="black" >A</text></g>
<g><title>73 (position.label in template: 73.G)</title><text x="96.9" y="106.67" class="black" >G</text></g>
<g><title>74 (position.label in template: 74.U)</title><text x="103.88" y="110.03" class="green" >T</text></g>
<g><title>75 (position.label in template: 75.C)</title><text x="109.67" y="114.89" class="black" >C</text></g>
<g><title>76 (position.label in template: 76.C)</title><text x="116.06" y="110.85" class="black" >C</text></g>
<g><title>77 (position.label in template: 77.A)</title><text x="122.66" y="106.8" class="green" >A</text></g>
<g><title>78 (position.label in template: 78.C)</title><text x="128.84" y="102.76" class="black" >C</text></g>
<g><title>79 (position.label in template: 79.G)</title><text x="127.74" y="95.26" class="black" >G</text></g>
<g><title>80 (position.label in template: 80.A)</title><text x="129.82" y="87.88" class="black" >A</text></g>
<g><title>81 (position.label in template: 81.G)</title><text x="133.42" y="81.48" class="black" >G</text></g>
<g><line x1="135.151" y1="80.1005" x2="142.249" y2="75.6983" class="black" /></g>
<g><title>82 (position.label in template: 82.C)</title><text x="129.59" y="75.09" class="black" >C</text></g>
<g><line x1="131.301" y1="73.6789" x2="138.019" y2="69.3399" class="black" /></g>
<g><title>83 (position.label in template: 83.C)</title><text x="125.55" y="68.7" class="black" >C</text></g>
<g><line x1="127.262" y1="67.2901" x2="133.978" y2="62.9587" class="black" /></g>
<g><title>84 (position.label in template: 84.A)</title><text x="119.27" y="64.81" class="black" >A</text></g>
<g><title>85 (position.label in template: 85.G)</title><text x="117.24" y="57.43" class="black" >G</text></g>
<g><title>86 (position.label in template: 86.A)</title><text x="121.92" y="51.18" class="black" >A</text></g>
<g><title>87 (position.label in template: 87.U)</title><text x="129.18" y="50" class="green" >T</text></g>
<g><title>88 (position.label in template: 88.A)</title><text x="135.37" y="54.63" class="black" >A</text></g>
<g><title>89 (position.label in template: 89.G)</title><text x="135.69" y="62.16" class="black" >G</text></g>
<g><title>90 (position.label in template: 90.G)</title><text x="139.73" y="68.54" class="black" >G</text></g>
<g><title>91 (position.label in template: 91.C)</title><text x="143.98" y="74.93" class="black" >C</text></g>
<g><title>92 (position.label in template: 92.A)</title><text x="151.69" y="74.05" class="black" >A</text></g>
<g><title>93 (position.label in template: 93.G)</title><text x="158.65" y="75.71" class="black" >G</text></g>
<g><title>94 (position.label in template: 94.G)</title><text x="165.05" y="79.73" class="black" >G</text></g>
<g><title>95 (position.label in template: 95.A)</title><text x="170.17" y="85.65" class="black" >A</text></g>
<g><title>96 (position.label in template: 96.A)</title><text x="172.64" y="92.79" class="green" >A</text></g>
<g><line x1="172.373" y1="94.5042" x2="171.297" y2="102.625" class="black" /></g>
<g><title>97 (position.label in template: 97.C)</title><text x="179.94" y="93.65" class="black" >C</text></g>
<g><line x1="179.674" y1="95.3644" x2="178.606" y2="103.484" class="black" /></g>
<g><title>98 (position.label in template: 98.U)</title><text x="187.45" y="94.52" class="green" >T</text></g>
<g><line x1="187.252" y1="96.2421" x2="186.458" y2="104.347" class="black" /></g>
<g><title>99 (position.label in template: 99.G)</title><text x="194.75" y="95.38" class="black" >G</text></g>
<g><line x1="194.553" y1="97.1023" x2="193.767" y2="105.207" class="black" /></g>
<g><title>100 (position.label in template: 100.G)</title><text x="202.26" y="96.24" class="black" >G</text></g>
<g><line x1="202.063" y1="97.9623" x2="201.277" y2="106.067" class="black" /></g>
<g><text x="200.665" y="89.5513" class="numbering-label sequential" >100</text></g>
<g><line x1="201.835" y1="94.4563" x2="201.03" y2="91.0793" class="numbering-line sequential" /></g>
<g><title>101 (position.label in template: 101.U)</title><text x="208.76" y="92.04" class="green" >T</text></g>
<g><title>102 (position.label in template: 102.G)</title><text x="216.1" y="92.5" class="black" >G</text></g>
<g><title>103 (position.label in template: 103.A)</title><text x="222.24" y="97.43" class="black" >A</text></g>
<g><title>104 (position.label in template: 104.G)</title><text x="223.41" y="104.83" class="black" >G</text></g>
<g><title>105 (position.label in template: 105.A)</title><text x="220.61" y="111.67" class="black" >A</text></g>
<g><title>106 (position.label in template: 106.A)</title><text x="213.91" y="115.17" class="black" >A</text></g>
<g><title>107 (position.label in template: 107.U)</title><text x="206.25" y="113.91" class="green" >T</text></g>
<g><title>108 (position.label in template: 108.C)</title><text x="201.08" y="108.4" class="black" >C</text></g>
<g><title>109 (position.label in template: 109.C)</title><text x="193.57" y="107.54" class="black" >C</text></g>
<g><title>110 (position.label in template: 110.A)</title><text x="186.26" y="106.68" class="green" >A</text></g>
<g><title>111 (position.label in template: 111.G)</title><text x="178.34" y="105.81" class="black" >G</text></g>
<g><title>112 (position.label in template: 112.U)</title><text x="171.03" y="104.95" class="green" >T</text></g>
<g><title>113 (position.label in template: 113.A)</title><text x="167.22" y="111.36" class="black" >A</text></g>
<g><title>114 (position.label in template: 114.C)</title><text x="161.1" y="116.06" class="black" >C</text></g>
<g><title>115 (position.label in template: 115.C)</title><text x="153.95" y="118.52" class="black" >C</text></g>
<g><title>116 (position.label in template: 116.G)</title><text x="152.88" y="126.03" class="black" >G</text></g>
<g><title>117 (position.label in template: 117.A)</title><text x="160.21" y="129.08" class="black" >A</text></g>
<g><title>118 (position.label in template: 118.C)</title><text x="166.06" y="133.6" class="black" >C</text></g>
<g><line x1="167.233" y1="134.96" x2="171.867" y2="141.539" class="black" /></g>
<g><title>119 (position.label in template: 119.G)</title><text x="171.97" y="129.16" class="black" >G</text></g>
<g><line x1="173.19" y1="130.486" x2="178.15" y2="137.123" class="black" /></g>
<g><title>120 (position.label in template: 120.G)</title><text x="178.08" y="124.72" class="black" >G</text></g>
<g><line x1="179.301" y1="126.045" x2="184.269" y2="132.683" class="black" /></g>
<g><title>121 (position.label in template: 121.U)</title><text x="180.84" y="117.6" class="green" >T</text></g>
<g><title>122 (position.label in template: 122.A)</title><text x="187.66" y="113.95" class="black" >A</text></g>
<g><title>123 (position.label in template: 123.C)</title><text x="194.84" y="115.59" class="black" >C</text></g>
<g><title>124 (position.label in template: 124.A)</title><text x="199.49" y="121.71" class="black" >A</text></g>
<g><title>125 (position.label in template: 125.G)</title><text x="198.35" y="129.23" class="black" >G</text></g>
<g><title>126 (position.label in template: 126.U)</title><text x="193.04" y="134.4" class="green" >T</text></g>
<g><title>127 (position.label in template: 127.C)</title><text x="185.49" y="134.62" class="black" >C</text></g>
<g><title>128 (position.label in template: 128.C)</title><text x="179.37" y="139.06" class="black" >C</text></g>
<g><title>129 (position.label in template: 129.G)</title><text x="173.04" y="143.51" class="black" >G</text></g>
<g><title>130 (position.label in template: 130.G)</title><text x="175.48" y="150.66" class="black" >G</text></g>
<g><title>131 (position.label in template: 131.A)</title><text x="176.65" y="158.18" class="black" >A</text></g>
<g><title>132 (position.label in template: 132.U)</title><text x="175.48" y="165.68" class="green" >T</text></g>
<g><title>133 (position.label in template: 133.G)</title><text x="172.63" y="172.77" class="black" >G</text></g>
<g><title>134 (position.label in template: 134.A)</title><text x="168.87" y="179.07" class="black" >A</text></g>
<g><title>135 (position.label in template: 135.A)</title><text x="163.37" y="184.26" class="black" >A</text></g>
<g><title>136 (position.label in template: 136.A)</title><text x="156.84" y="188.07" class="black" >A</text></g>
<g><title>137 (position.label in template: 137.G)</title><text x="149.2" y="190.3" class="black" >G</text></g>
<g><title>138 (position.label in template: 138.A)</title><text x="149.62" y="197.86" class="green" >A</text></g>
<g><title>139 (position.label in template: 139.A)</title><text x="149.62" y="205.42" class="green" >A</text></g>
<g><title>140 (position.label in template: 140.G)</title><text x="149.2" y="212.98" class="black" >G</text></g>
<g><title>141 (position.label in template: 141.G)</title><text x="149.2" y="220.54" class="black" >G</text></g>
<g><title>142 (position.label in template: 142.A)</title><text x="149.62" y="228.1" class="green" >A</text></g>
<g><title>143 (position.label in template: 143.A)</title><text x="149.62" y="235.66" class="black" >A</text></g>
<g><title>144 (position.label in template: 144.U)</title><text x="149.41" y="243.22" class="green" >T</text></g>
<g><title>145 (position.label in template: 145.C)</title><text x="154.749" y="248.559" class="black" >C</text></g>
<g><title>146 (position.label in template: 146.G)</title><text x="162.3" y="248.559" class="black" >G</text></g>
<g><title>147 (position.label in template: 147.3')</title><text x="169.85" y="248.559" class="green" >3'</text></g>
<g><line x1="118.88" y1="248.155" x2="122.356" y2="248.155" class="gray" /></g>
<g><line x1="126.431" y1="248.155" x2="129.907" y2="248.155" class="gray" /></g>
<g><line x1="133.411" y1="246.741" x2="135.913" y2="244.328" class="gray" /></g>
<g><line x1="137.38" y1="240.877" x2="137.38" y2="237.392" class="gray" /></g>
<g><line x1="137.323" y1="233.318" x2="137.227" y2="229.831" class="gray" /></g>
<g><line x1="137.17" y1="225.757" x2="137.17" y2="222.272" class="gray" /></g>
<g><line x1="137.17" y1="218.197" x2="137.17" y2="214.712" class="gray" /></g>
<g><line x1="137.17" y1="210.637" x2="137.17" y2="207.152" class="gray" /></g>
<g><line x1="137.17" y1="203.077" x2="137.17" y2="199.592" class="gray" /></g>
<g><line x1="137.17" y1="195.517" x2="137.17" y2="192.032" class="gray" /></g>
<g><line x1="135.219" y1="189.409" x2="131.691" y2="188.35" class="gray" /></g>
<g><line x1="127.98" y1="186.738" x2="124.97" y2="184.981" class="gray" /></g>
<g><line x1="121.728" y1="182.556" x2="119.192" y2="180.163" class="gray" /></g>
<g><line x1="116.585" y1="177.065" x2="114.665" y2="174.163" class="gray" /></g>
<g><line x1="112.877" y1="170.538" x2="111.763" y2="167.301" class="gray" /></g>
<g><line x1="110.895" y1="163.347" x2="110.545" y2="159.901" class="gray" /></g>
<g><line x1="110.432" y1="155.839" x2="110.588" y2="152.39" class="gray" /></g>
<g><line x1="108.803" y1="149.562" x2="105.597" y2="148.207" class="gray" /></g>
<g><line x1="101.843" y1="146.623" x2="98.6272" y2="145.266" class="gray" /></g>
<g><line x1="95.3442" y1="145.949" x2="93.0458" y2="148.36" class="gray" /></g>
<g><line x1="89.8387" y1="150.786" x2="86.5913" y2="152.502" class="gray" /></g>
<g><line x1="82.8017" y1="153.899" x2="79.7983" y2="154.57" class="gray" /></g>
<g><line x1="75.7788" y1="154.856" x2="71.8912" y2="154.553" class="gray" /></g>
<g><line x1="67.9632" y1="153.651" x2="64.7168" y2="152.378" class="gray" /></g>
<g><line x1="61.2358" y1="150.353" x2="58.6542" y2="148.266" class="gray" /></g>
<g><line x1="55.8924" y1="145.322" x2="53.8776" y2="142.477" class="gray" /></g>
<g><line x1="52.0966" y1="138.868" x2="51.0834" y2="135.6" class="gray" /></g>
<g><line x1="50.3507" y1="131.621" x2="50.1293" y2="128.138" class="gray" /></g>
<g><line x1="50.4583" y1="124.119" x2="51.2317" y2="120.77" class="gray" /></g>
<g><line x1="52.7874" y1="117.068" x2="54.7226" y2="114.041" class="gray" /></g>
<g><line x1="57.3053" y1="110.93" x2="59.7347" y2="108.649" class="gray" /></g>
<g><line x1="63.0587" y1="106.377" x2="66.2113" y2="104.872" class="gray" /></g>
<g><line x1="70.0645" y1="103.69" x2="73.7155" y2="103.139" class="gray" /></g>
<g><line x1="77.7484" y1="103.112" x2="81.2016" y2="103.587" class="gray" /></g>
<g><line x1="85.0834" y1="104.688" x2="88.4366" y2="106.171" class="gray" /></g>
<g><line x1="91.8356" y1="108.333" x2="94.4644" y2="110.625" class="gray" /></g>
<g><line x1="97.0474" y1="113.712" x2="98.7826" y2="116.607" class="gray" /></g>
<g><line x1="100.377" y1="120.317" x2="101.313" y2="123.672" class="gray" /></g>
<g><line x1="101.825" y1="127.671" x2="101.765" y2="131.157" class="gray" /></g>
<g><line x1="103.606" y1="133.989" x2="106.814" y2="135.349" class="gray" /></g>
<g><line x1="110.567" y1="136.937" x2="113.773" y2="138.292" class="gray" /></g>
<g><line x1="116.927" y1="137.497" x2="119.033" y2="134.882" class="gray" /></g>
<g><line x1="121.98" y1="132.128" x2="125.11" y2="129.941" class="gray" /></g>
<g><line x1="128.635" y1="127.932" x2="131.645" y2="126.566" class="gray" /></g>
<g><line x1="135.503" y1="125.35" x2="138.927" y2="124.709" class="gray" /></g>
<g><line x1="141.106" y1="122.305" x2="141.404" y2="118.854" class="gray" /></g>
<g><line x1="139.855" y1="115.741" x2="136.905" y2="113.888" class="gray" /></g>
<g><line x1="133.475" y1="113.919" x2="130.705" y2="115.73" class="gray" /></g>
<g><line x1="127.262" y1="117.908" x2="124.138" y2="119.821" class="gray" /></g>
<g><line x1="120.678" y1="121.973" x2="117.732" y2="123.836" class="gray" /></g>
<g><line x1="116.574" y1="126.882" x2="117.556" y2="130.287" class="gray" /></g>
<g><line x1="118.101" y1="134.282" x2="118.069" y2="137.767" class="gray" /></g>
<g><line x1="117.718" y1="141.814" x2="117.162" y2="145.174" class="gray" /></g>
<g><line x1="115.892" y1="148.993" x2="114.248" y2="152.166" class="gray" /></g>
<g><line x1="112.015" y1="155.547" x2="109.795" y2="158.242" class="gray" /></g>
<g><line x1="106.871" y1="161.039" x2="104.089" y2="163.13" class="gray" /></g>
<g><line x1="100.582" y1="165.145" x2="97.1878" y2="166.574" class="gray" /></g>
<g><line x1="93.3066" y1="167.735" x2="90.2834" y2="168.294" class="gray" /></g>
<g><line x1="86.2464" y1="168.541" x2="82.5636" y2="168.318" class="gray" /></g>
<g><line x1="78.5882" y1="167.578" x2="75.4518" y2="166.581" class="gray" /></g>
<g><line x1="71.7428" y1="164.95" x2="68.5672" y2="163.128" class="gray" /></g>
<g><line x1="65.3662" y1="160.667" x2="63.0138" y2="158.292" class="gray" /></g>
<g><line x1="60.4157" y1="155.172" x2="58.2943" y2="152.126" class="gray" /></g>
<g><line x1="56.4728" y1="148.526" x2="55.3472" y2="145.223" class="gray" /></g>
<g><line x1="54.5602" y1="141.261" x2="54.3398" y2="137.808" class="gray" /></g>
<g><line x1="54.5008" y1="133.758" x2="54.9992" y2="130.301" class="gray" /></g>
<g><line x1="56.0471" y1="126.393" x2="57.3429" y2="123.156" class="gray" /></g>
<g><line x1="59.2371" y1="119.574" x2="61.1129" y2="116.785" class="gray" /></g>
<g><line x1="63.7831" y1="113.753" x2="66.4069" y2="111.456" class="gray" /></g>
<g><line x1="69.7565" y1="109.192" x2="73.0335" y2="107.527" class="gray" /></g>
<g><line x1="76.8226" y1="106.095" x2="79.9974" y2="105.274" class="gray" /></g>
<g><line x1="84.0073" y1="104.741" x2="87.9027" y2="104.697" class="gray" /></g>
<g><line x1="91.9199" y1="105.155" x2="94.9201" y2="105.884" class="gray" /></g>
<g><line x1="98.7358" y1="107.248" x2="102.044" y2="108.841" class="gray" /></g>
<g><line x1="105.441" y1="111.034" x2="108.109" y2="113.275" class="gray" /></g>
<g><line x1="111.392" y1="113.496" x2="114.338" y2="111.633" class="gray" /></g>
<g><line x1="117.797" y1="109.479" x2="120.923" y2="107.56" class="gray" /></g>
<g><line x1="124.365" y1="105.38" x2="127.135" y2="103.569" class="gray" /></g>
<g><line x1="128.544" y1="100.439" x2="128.036" y2="96.9702" class="gray" /></g>
<g><line x1="128.293" y1="92.9934" x2="129.267" y2="89.5354" class="gray" /></g>
<g><line x1="130.819" y1="85.7987" x2="132.421" y2="82.9501" class="gray" /></g>
<g><line x1="132.373" y1="79.4269" x2="130.637" y2="76.5319" class="gray" /></g>
<g><line x1="128.501" y1="73.0623" x2="126.639" y2="70.1165" class="gray" /></g>
<g><line x1="123.818" y1="67.3215" x2="121.002" y2="65.5773" class="gray" /></g>
<g><line x1="118.73" y1="62.54" x2="117.78" y2="59.0888" class="gray" /></g>
<g><line x1="118.461" y1="55.4935" x2="120.699" y2="52.5052" class="gray" /></g>
<g><line x1="123.931" y1="50.5475" x2="127.169" y2="50.0212" class="gray" /></g>
<g><line x1="130.811" y1="50.9147" x2="133.739" y2="53.1041" class="gray" /></g>
<g><line x1="135.457" y1="56.3599" x2="135.603" y2="59.8188" class="gray" /></g>
<g><line x1="136.78" y1="63.5757" x2="138.64" y2="66.5131" class="gray" /></g>
<g><line x1="140.858" y1="69.9308" x2="142.852" y2="72.928" class="gray" /></g>
<g><line x1="146.004" y1="74.3934" x2="149.666" y2="73.9754" class="gray" /></g>
<g><line x1="153.672" y1="74.2171" x2="156.668" y2="74.9317" class="gray" /></g>
<g><line x1="160.375" y1="76.4881" x2="163.325" y2="78.3407" class="gray" /></g>
<g><line x1="166.383" y1="80.9654" x2="168.837" y2="83.8034" class="gray" /></g>
<g><line x1="170.836" y1="87.2698" x2="171.974" y2="90.559" class="gray" /></g>
<g><line x1="174.663" y1="92.7228" x2="177.917" y2="93.106" class="gray" /></g>
<g><line x1="181.964" y1="93.5788" x2="185.426" y2="93.9799" class="gray" /></g>
<g><line x1="189.473" y1="94.4528" x2="192.727" y2="94.836" class="gray" /></g>
<g><line x1="196.774" y1="95.3062" x2="200.236" y2="95.7026" class="gray" /></g>
<g><line x1="203.971" y1="94.8287" x2="207.049" y2="92.8401" class="gray" /></g>
<g><line x1="210.793" y1="91.8618" x2="214.067" y2="92.067" class="gray" /></g>
<g><line x1="217.689" y1="93.47" x2="220.651" y2="95.8488" class="gray" /></g>
<g><line x1="222.558" y1="99.1368" x2="223.092" y2="102.512" class="gray" /></g>
<g><line x1="222.638" y1="106.41" x2="221.382" y2="109.479" class="gray" /></g>
<g><line x1="218.804" y1="112.308" x2="215.716" y2="113.921" class="gray" /></g>
<g><line x1="211.9" y1="114.534" x2="208.26" y2="113.935" class="gray" /></g>
<g><line x1="204.856" y1="112.119" x2="202.474" y2="109.58" class="gray" /></g>
<g><line x1="199.056" y1="107.863" x2="195.594" y2="107.466" class="gray" /></g>
<g><line x1="191.547" y1="106.996" x2="188.283" y2="106.612" class="gray" /></g>
<g><line x1="184.235" y1="106.152" x2="180.365" y2="105.727" class="gray" /></g>
<g><line x1="176.317" y1="105.266" x2="173.053" y2="104.882" class="gray" /></g>
<g><line x1="169.989" y1="106.396" x2="168.261" y2="109.303" class="gray" /></g>
<g><line x1="165.604" y1="112.295" x2="162.716" y2="114.513" class="gray" /></g>
<g><line x1="159.173" y1="116.417" x2="155.877" y2="117.552" class="gray" /></g>
<g><line x1="153.663" y1="120.231" x2="153.167" y2="123.707" class="gray" /></g>
<g><line x1="154.761" y1="126.507" x2="158.329" y2="127.992" class="gray" /></g>
<g><line x1="161.822" y1="130.02" x2="164.448" y2="132.049" class="gray" /></g>
<g><line x1="167.689" y1="132.071" x2="170.341" y2="130.078" class="gray" /></g>
<g><line x1="173.618" y1="127.657" x2="176.432" y2="125.612" class="gray" /></g>
<g><line x1="178.816" y1="122.515" x2="180.104" y2="119.194" class="gray" /></g>
<g><line x1="182.636" y1="116.333" x2="185.864" y2="114.606" class="gray" /></g>
<g><line x1="189.646" y1="114.098" x2="192.854" y2="114.831" class="gray" /></g>
<g><line x1="196.073" y1="116.907" x2="198.257" y2="119.782" class="gray" /></g>
<g><line x1="199.185" y1="123.419" x2="198.655" y2="126.91" class="gray" /></g>
<g><line x1="196.89" y1="130.346" x2="194.5" y2="132.673" class="gray" /></g>
<g><line x1="191.003" y1="134.154" x2="187.527" y2="134.255" class="gray" /></g>
<g><line x1="183.841" y1="135.511" x2="181.019" y2="137.558" class="gray" /></g>
<g><line x1="177.703" y1="139.926" x2="174.707" y2="142.033" class="gray" /></g>
<g><line x1="173.698" y1="145.133" x2="174.822" y2="148.426" class="gray" /></g>
<g><line x1="175.793" y1="152.368" x2="176.337" y2="155.861" class="gray" /></g>
<g><line x1="176.336" y1="159.887" x2="175.794" y2="163.361" class="gray" /></g>
<g><line x1="174.72" y1="167.265" x2="173.39" y2="170.574" class="gray" /></g>
<g><line x1="171.586" y1="174.214" x2="169.914" y2="177.015" class="gray" /></g>
<g><line x1="167.388" y1="180.163" x2="164.852" y2="182.556" class="gray" /></g>
<g><line x1="161.61" y1="184.981" x2="158.6" y2="186.738" class="gray" /></g>
<g><line x1="154.884" y1="188.335" x2="151.156" y2="189.424" class="gray" /></g>
<g><line x1="149.313" y1="192.029" x2="149.507" y2="195.52" class="gray" /></g>
<g><line x1="149.62" y1="199.592" x2="149.62" y2="203.077" class="gray" /></g>
<g><line x1="149.507" y1="207.149" x2="149.313" y2="210.64" class="gray" /></g>
<g><line x1="149.2" y1="214.712" x2="149.2" y2="218.197" class="gray" /></g>
<g><line x1="149.313" y1="222.269" x2="149.507" y2="225.76" class="gray" /></g>
<g><line x1="149.62" y1="229.832" x2="149.62" y2="233.317" class="gray" /></g>
<g><line x1="149.563" y1="237.391" x2="149.467" y2="240.878" class="gray" /></g>
<g><line x1="150.851" y1="244.355" x2="153.308" y2="246.813" class="gray" /></g>
<g><line x1="156.786" y1="248.253" x2="160.262" y2="248.253" class="gray" /></g>
<g><line x1="164.337" y1="248.253" x2="167.813" y2="248.253" class="gray" /></g>
</svg>
