<svg
	xmlns="http://www.w3.org/2000/svg"
	width="203.28"
	height="248.35">
<g><style type="text/css" >
<!-- create color definitions -->
<![CDATA[
circle.red {stroke: rgb(255, 0, 255); fill: none; }
circle.green {stroke: rgb(0, 255, 0); fill: none; }
circle.blue {stroke: rgb(0, 0, 255); fill: none; }
circle.black {stroke: rgb(0, 0, 0); fill: none; }
circle.gray {stroke: rgb(204, 204, 204); fill: none; }
circle.brown {stroke: rgb(211.65, 104.55, 30.6); fill: none; }
line.red {stroke: rgb(255, 0, 255); stroke-width: 0.381597; }
line.green {stroke: rgb(0, 255, 0); stroke-width: 0.381597; }
line.blue {stroke: rgb(0, 0, 255); stroke-width: 0.381597; }
line.black {stroke: rgb(0, 0, 0); stroke-width: 0.381597; }
line.gray {stroke: rgb(204, 204, 204); stroke-width: 0.381597; }
line.brown {stroke: rgb(211.65, 104.55, 30.6); stroke-width: 0.381597; }
line {stroke: rgb(0, 0, 0); }
text.red {fill: rgb(255, 0, 255); font-size: 3.052775px; font-weight: bold; font-family: Helvetica; }
text.green {fill: rgb(0, 255, 0); font-size: 3.052775px; font-weight: bold; font-family: Helvetica; }
text.blue {fill: rgb(0, 0, 255); font-size: 3.052775px; font-weight: bold; font-family: Helvetica; }
text.black {fill: rgb(0, 0, 0); font-size: 3.052775px; font-weight: bold; font-family: Helvetica; }
text.gray {fill: rgb(204, 204, 204); font-size: 3.052775px; font-weight: bold; font-family: Helvetica; }
text.brown {fill: rgb(211.65, 104.55, 30.6); font-size: 3.052775px; font-weight: bold; font-family: Helvetica; }
text {fill: rgb(0, 0, 0); font-size: 3.052775px; font-weight: bold; font-family: Helvetica; text-anchor: middle; alignment-baseline: middle; }

.pseudoknot_connection{stroke-linecap: round; stroke-opacity: 0.2; stroke-width: 1.5; }
.pseudoknot_segment1{stroke-linecap: round; stroke-opacity: 0.4; stroke-width: 3.05277; }
.pseudoknot_segment2{stroke-linecap: round; stroke-opacity: 0.4; stroke-width: 3.05277; }
line.numbering-line{stroke: rgb(204, 204, 204); stroke-width: 0.190798; }
line.predicted{stroke: rgb(0, 0, 0); stroke-dasharray: 2; }
polyline{fill: none; stroke-linejoin: round; }
template{visibility: hidden; }
text.numbering-label{fill: rgb(204, 204, 204); }
]]>
</style></g>
<g><title>0 (position.label in template: 0.5')</title><text x="118.51" y="198.35" class="green" >5'</text></g>
<g><title>1 (position.label in template: 1.U)</title><text x="125.51" y="198.35" class="green" >T</text></g>
<g><line x1="127.545" y1="198.045" x2="135.915" y2="198.045" class="black" /></g>
<g><title>2 (position.label in template: 2.G)</title><text x="125.3" y="190.79" class="black" >G</text></g>
<g><line x1="127.335" y1="190.485" x2="135.505" y2="190.485" class="black" /></g>
<g><title>3 (position.label in template: 3.G)</title><text x="125.3" y="183.23" class="green" >G</text></g>
<g><line x1="127.335" y1="182.925" x2="135.715" y2="182.925" class="black" /></g>
<g><title>4 (position.label in template: 4.A)</title><text x="125.71" y="175.67" class="green" >A</text></g>
<g><line x1="127.745" y1="175.365" x2="135.715" y2="175.365" class="black" /></g>
<g><title>5 (position.label in template: 5.C)</title><text x="119.91" y="170.58" class="black" >C</text></g>
<g><title>6 (position.label in template: 6.A)</title><text x="118.05" y="163.31" class="black" >A</text></g>
<g><title>7 (position.label in template: 7.A)</title><text x="120.12" y="156.04" class="black" >A</text></g>
<g><title>8 (position.label in template: 8.C)</title><text x="125.51" y="150.96" class="black" >C</text></g>
<g><line x1="127.545" y1="150.655" x2="135.505" y2="150.655" class="black" /></g>
<g><title>9 (position.label in template: 9.U)</title><text x="125.51" y="143.4" class="green" >T</text></g>
<g><line x1="127.545" y1="143.095" x2="135.915" y2="143.095" class="black" /></g>
<g><title>10 (position.label in template: 10.C)</title><text x="125.51" y="135.84" class="black" >C</text></g>
<g><line x1="127.545" y1="135.535" x2="135.505" y2="135.535" class="black" /></g>
<g><text x="118.641" y="135.84" class="numbering-label sequential" >10</text></g>
<g><line x1="123.678" y1="135.84" x2="120.473" y2="135.84" class="numbering-line sequential" /></g>
<g><title>11 (position.label in template: 11.C)</title><text x="125.51" y="128.28" class="black" >C</text></g>
<g><line x1="127.545" y1="127.975" x2="135.505" y2="127.975" class="black" /></g>
<g><title>12 (position.label in template: 12.G)</title><text x="118.88" y="124.29" class="black" >G</text></g>
<g><title>13 (position.label in template: 13.C)</title><text x="114.86" y="118.02" class="black" >C</text></g>
<g><title>14 (position.label in template: 14.C)</title><text x="113.56" y="110.58" class="black" >C</text></g>
<g><line x1="114.289" y1="108.375" x2="117.191" y2="100.815" class="black" /></g>
<g><title>15 (position.label in template: 15.U)</title><text x="106.55" y="107.75" class="green" >T</text></g>
<g><line x1="107.31" y1="105.557" x2="110.36" y2="97.9826" class="black" /></g>
<g><title>16 (position.label in template: 16.G)</title><text x="99.32" y="104.92" class="green" >G</text></g>
<g><line x1="100.111" y1="102.74" x2="103.319" y2="95.1398" class="black" /></g>
<g><title>17 (position.label in template: 17.U)</title><text x="92.52" y="102.1" class="green" >T</text></g>
<g><line x1="93.3093" y1="99.9188" x2="96.5107" y2="92.3106" class="black" /></g>
<g><title>18 (position.label in template: 18.A)</title><text x="85.72" y="99.27" class="green" >A</text></g>
<g><line x1="86.4513" y1="97.0655" x2="89.3587" y2="89.514" class="black" /></g>
<g><title>19 (position.label in template: 19.A)</title><text x="78.7" y="96.44" class="green" >A</text></g>
<g><line x1="79.4313" y1="94.2355" x2="82.3387" y2="86.684" class="black" /></g>
<g><title>20 (position.label in template: 20.C)</title><text x="72.17" y="100.58" class="black" >C</text></g>
<g><text x="74.4866" y="107.046" class="numbering-label sequential" >20</text></g>
<g><line x1="72.7878" y1="102.304" x2="73.9398" y2="105.52" class="numbering-line sequential" /></g>
<g><title>21 (position.label in template: 21.U)</title><text x="64.66" y="101.47" class="green" >T</text></g>
<g><title>22 (position.label in template: 22.C)</title><text x="57.54" y="98.93" class="black" >C</text></g>
<g><title>23 (position.label in template: 23.U)</title><text x="52.29" y="93.5" class="green" >T</text></g>
<g><title>24 (position.label in template: 24.U)</title><text x="50" y="86.29" class="green" >T</text></g>
<g><title>25 (position.label in template: 25.C)</title><text x="51.15" y="78.82" class="black" >C</text></g>
<g><title>26 (position.label in template: 26.U)</title><text x="55.5" y="72.64" class="green" >T</text></g>
<g><title>27 (position.label in template: 27.A)</title><text x="62.36" y="69.03" class="black" >A</text></g>
<g><title>28 (position.label in template: 28.G)</title><text x="69.5" y="68.76" class="black" >G</text></g>
<g><title>29 (position.label in template: 29.A)</title><text x="76.8" y="71.87" class="black" >A</text></g>
<g><title>30 (position.label in template: 30.G)</title><text x="81.17" y="77.72" class="black" >G</text></g>
<g><text x="87.3761" y="74.7766" class="numbering-label sequential" >30</text></g>
<g><line x1="82.825" y1="76.9351" x2="85.5444" y2="75.6453" class="numbering-line sequential" /></g>
<g><title>31 (position.label in template: 31.U)</title><text x="83.07" y="85.09" class="green" >T</text></g>
<g><title>32 (position.label in template: 32.U)</title><text x="90.09" y="87.92" class="green" >T</text></g>
<g><title>33 (position.label in template: 33.A)</title><text x="97.3" y="90.74" class="green" >A</text></g>
<g><title>34 (position.label in template: 34.U)</title><text x="104.11" y="93.57" class="green" >T</text></g>
<g><title>35 (position.label in template: 35.U)</title><text x="111.12" y="96.4" class="green" >T</text></g>
<g><title>36 (position.label in template: 36.G)</title><text x="117.92" y="99.22" class="black" >G</text></g>
<g><title>37 (position.label in template: 37.C)</title><text x="124.23" y="94.76" class="black" >C</text></g>
<g><line x1="126.259" y1="94.2975" x2="134.201" y2="93.682" class="black" /></g>
<g><title>38 (position.label in template: 38.C)</title><text x="123.66" y="87.22" class="black" >C</text></g>
<g><line x1="125.689" y1="86.7575" x2="133.631" y2="86.142" class="black" /></g>
<g><title>39 (position.label in template: 39.G)</title><text x="122.88" y="79.68" class="black" >G</text></g>
<g><line x1="124.909" y1="79.2226" x2="133.261" y2="78.5968" class="black" /></g>
<g><title>40 (position.label in template: 40.G)</title><text x="116.56" y="75.53" class="black" >G</text></g>
<g><title>41 (position.label in template: 41.U)</title><text x="113.2" y="68.86" class="green" >T</text></g>
<g><title>42 (position.label in template: 42.C)</title><text x="113.23" y="61.3" class="black" >C</text></g>
<g><title>43 (position.label in template: 43.U)</title><text x="116.87" y="54.68" class="green" >T</text></g>
<g><title>44 (position.label in template: 44.C)</title><text x="123.22" y="50.58" class="black" >C</text></g>
<g><title>45 (position.label in template: 45.A)</title><text x="130.96" y="50" class="black" >A</text></g>
<g><title>46 (position.label in template: 46.A)</title><text x="137.87" y="53.09" class="black" >A</text></g>
<g><title>47 (position.label in template: 47.G)</title><text x="142.04" y="59.1" class="black" >G</text></g>
<g><title>48 (position.label in template: 48.C)</title><text x="143.43" y="66.57" class="black" >C</text></g>
<g><title>49 (position.label in template: 49.C)</title><text x="140.91" y="73.69" class="black" >C</text></g>
<g><title>50 (position.label in template: 50.C)</title><text x="135.29" y="78.75" class="black" >C</text></g>
<g><text x="141.63" y="81.3918" class="numbering-label sequential" >50</text></g>
<g><line x1="136.981" y1="79.4545" x2="139.799" y2="80.6286" class="numbering-line sequential" /></g>
<g><title>51 (position.label in template: 51.G)</title><text x="135.66" y="86.29" class="black" >G</text></g>
<g><title>52 (position.label in template: 52.G)</title><text x="136.23" y="93.83" class="black" >G</text></g>
<g><title>53 (position.label in template: 53.G)</title><text x="142.94" y="97.32" class="black" >G</text></g>
<g><title>54 (position.label in template: 54.U)</title><text x="147.84" y="103.25" class="green" >T</text></g>
<g><title>55 (position.label in template: 55.A)</title><text x="149.9" y="110.58" class="black" >A</text></g>
<g><title>56 (position.label in template: 56.A)</title><text x="148.61" y="118.02" class="black" >A</text></g>
<g><title>57 (position.label in template: 57.A)</title><text x="144.38" y="124.29" class="black" >A</text></g>
<g><title>58 (position.label in template: 58.G)</title><text x="137.54" y="128.28" class="black" >G</text></g>
<g><title>59 (position.label in template: 59.G)</title><text x="137.54" y="135.84" class="black" >G</text></g>
<g><title>60 (position.label in template: 60.A)</title><text x="137.95" y="143.4" class="green" >A</text></g>
<g><title>61 (position.label in template: 61.G)</title><text x="137.54" y="150.96" class="black" >G</text></g>
<g><title>62 (position.label in template: 62.G)</title><text x="145.08" y="151.43" class="black" >G</text></g>
<g><title>63 (position.label in template: 63.A)</title><text x="151.45" y="156.09" class="black" >A</text></g>
<g><title>64 (position.label in template: 64.G)</title><text x="153.28" y="163.31" class="black" >G</text></g>
<g><title>65 (position.label in template: 65.G)</title><text x="151.03" y="170.53" class="black" >G</text></g>
<g><title>66 (position.label in template: 66.G)</title><text x="145.08" y="175.2" class="black" >G</text></g>
<g><title>67 (position.label in template: 67.U)</title><text x="137.75" y="175.67" class="green" >T</text></g>
<g><title>68 (position.label in template: 68.U)</title><text x="137.75" y="183.23" class="green" >T</text></g>
<g><title>69 (position.label in template: 69.G)</title><text x="137.54" y="190.79" class="black" >G</text></g>
<g><title>70 (position.label in template: 70.A)</title><text x="137.95" y="198.35" class="green" >A</text></g>
<g><title>71 (position.label in template: 71.3')</title><text x="144.95" y="198.35" class="green" >3'</text></g>
<g><line x1="120.545" y1="198.045" x2="123.475" y2="198.045" class="gray" /></g>
<g><line x1="125.453" y1="196.01" x2="125.357" y2="192.519" class="gray" /></g>
<g><line x1="125.3" y1="188.45" x2="125.3" y2="184.96" class="gray" /></g>
<g><line x1="125.41" y1="180.893" x2="125.6" y2="177.397" class="gray" /></g>
<g><line x1="124.18" y1="174.022" x2="121.44" y2="171.617" class="gray" /></g>
<g><line x1="119.406" y1="168.303" x2="118.554" y2="164.976" class="gray" /></g>
<g><line x1="118.607" y1="161.047" x2="119.563" y2="157.692" class="gray" /></g>
<g><line x1="121.601" y1="154.339" x2="124.029" y2="152.051" class="gray" /></g>
<g><line x1="125.51" y1="148.62" x2="125.51" y2="145.13" class="gray" /></g>
<g><line x1="125.51" y1="141.06" x2="125.51" y2="137.57" class="gray" /></g>
<g><line x1="125.51" y1="133.5" x2="125.51" y2="130.01" class="gray" /></g>
<g><line x1="123.766" y1="126.925" x2="120.624" y2="125.034" class="gray" /></g>
<g><line x1="117.782" y1="122.271" x2="115.958" y2="119.428" class="gray" /></g>
<g><line x1="114.51" y1="115.71" x2="113.91" y2="112.28" class="gray" /></g>
<g><line x1="111.673" y1="109.513" x2="108.437" y2="108.207" class="gray" /></g>
<g><line x1="104.655" y1="106.703" x2="101.215" y2="105.357" class="gray" /></g>
<g><line x1="97.4401" y1="103.835" x2="94.3999" y2="102.574" class="gray" /></g>
<g><line x1="90.641" y1="101.013" x2="87.599" y2="99.7467" class="gray" /></g>
<g><line x1="83.8324" y1="98.2038" x2="80.5876" y2="96.8957" class="gray" /></g>
<g><line x1="76.9812" y1="97.2245" x2="73.8888" y2="99.185" class="gray" /></g>
<g><line x1="70.149" y1="100.514" x2="66.681" y2="100.925" class="gray" /></g>
<g><line x1="62.7431" y1="100.481" x2="59.4569" y2="99.3085" class="gray" /></g>
<g><line x1="56.1254" y1="97.1616" x2="53.7046" y2="94.6579" class="gray" /></g>
<g><line x1="51.6739" y1="91.255" x2="50.6161" y2="87.9244" class="gray" /></g>
<g><line x1="50.3097" y1="83.9732" x2="50.8403" y2="80.5262" class="gray" /></g>
<g><line x1="52.3214" y1="76.8505" x2="54.3286" y2="73.999" class="gray" /></g>
<g><line x1="57.301" y1="71.387" x2="60.559" y2="69.6725" class="gray" /></g>
<g><line x1="64.3937" y1="68.6478" x2="67.4663" y2="68.5316" class="gray" /></g>
<g><line x1="71.3723" y1="69.2524" x2="74.9277" y2="70.7671" class="gray" /></g>
<g><line x1="78.018" y1="73.1952" x2="79.952" y2="75.7842" class="gray" /></g>
<g><line x1="81.6781" y1="79.3855" x2="82.5619" y2="82.814" class="gray" /></g>
<g><line x1="84.9576" y1="85.5457" x2="88.2024" y2="86.8538" class="gray" /></g>
<g><line x1="91.9854" y1="88.356" x2="95.4046" y2="89.6934" class="gray" /></g>
<g><line x1="99.1794" y1="91.2157" x2="102.231" y2="92.4837" class="gray" /></g>
<g><line x1="105.997" y1="94.0266" x2="109.233" y2="95.3328" class="gray" /></g>
<g><line x1="113" y1="96.8743" x2="116.04" y2="98.1351" class="gray" /></g>
<g><line x1="119.582" y1="97.74" x2="122.568" y2="95.6294" class="gray" /></g>
<g><line x1="124.077" y1="92.4253" x2="123.813" y2="88.9441" class="gray" /></g>
<g><line x1="123.451" y1="84.8903" x2="123.089" y2="81.3991" class="gray" /></g>
<g><line x1="121.179" y1="78.2576" x2="118.261" y2="76.3418" class="gray" /></g>
<g><line x1="115.644" y1="73.4071" x2="114.116" y2="70.3723" class="gray" /></g>
<g><line x1="113.208" y1="66.5196" x2="113.222" y2="63.0299" class="gray" /></g>
<g><line x1="114.211" y1="59.2113" x2="115.889" y2="56.1581" class="gray" /></g>
<g><line x1="118.58" y1="53.2708" x2="121.51" y2="51.3787" class="gray" /></g>
<g><line x1="125.249" y1="50.1226" x2="128.931" y2="49.8468" class="gray" /></g>
<g><line x1="132.818" y1="50.5255" x2="136.012" y2="51.9539" class="gray" /></g>
<g><line x1="139.03" y1="54.4568" x2="140.88" y2="57.1226" class="gray" /></g>
<g><line x1="142.412" y1="60.7956" x2="143.058" y2="64.2639" class="gray" /></g>
<g><line x1="142.751" y1="68.1833" x2="141.589" y2="71.4662" class="gray" /></g>
<g><line x1="139.398" y1="74.7465" x2="136.802" y2="77.083" class="gray" /></g>
<g><line x1="135.39" y1="80.4775" x2="135.56" y2="83.952" class="gray" /></g>
<g><line x1="135.813" y1="88.0141" x2="136.077" y2="91.4953" class="gray" /></g>
<g><line x1="138.036" y1="94.4638" x2="141.134" y2="96.0756" class="gray" /></g>
<g><line x1="144.236" y1="98.5836" x2="146.544" y2="101.376" class="gray" /></g>
<g><line x1="148.391" y1="104.904" x2="149.349" y2="108.315" class="gray" /></g>
<g><line x1="149.552" y1="112.28" x2="148.958" y2="115.709" class="gray" /></g>
<g><line x1="147.472" y1="119.402" x2="145.518" y2="122.298" class="gray" /></g>
<g><line x1="142.622" y1="125.01" x2="139.298" y2="126.949" class="gray" /></g>
<g><line x1="137.54" y1="130.01" x2="137.54" y2="133.5" class="gray" /></g>
<g><line x1="137.65" y1="137.567" x2="137.84" y2="141.063" class="gray" /></g>
<g><line x1="137.84" y1="145.127" x2="137.65" y2="148.623" class="gray" /></g>
<g><line x1="139.571" y1="150.781" x2="143.049" y2="150.998" class="gray" /></g>
<g><line x1="146.723" y1="152.326" x2="149.807" y2="154.583" class="gray" /></g>
<g><line x1="151.95" y1="157.758" x2="152.78" y2="161.032" class="gray" /></g>
<g><line x1="152.674" y1="164.948" x2="151.636" y2="168.282" class="gray" /></g>
<g><line x1="149.429" y1="171.481" x2="146.681" y2="173.638" class="gray" /></g>
<g><line x1="143.049" y1="175.025" x2="139.781" y2="175.234" class="gray" /></g>
<g><line x1="137.75" y1="177.4" x2="137.75" y2="180.89" class="gray" /></g>
<g><line x1="137.693" y1="184.959" x2="137.597" y2="188.45" class="gray" /></g>
<g><line x1="137.65" y1="192.517" x2="137.84" y2="196.013" class="gray" /></g>
<g><line x1="139.985" y1="198.045" x2="142.915" y2="198.045" class="gray" /></g>
</svg>
