<svg
	xmlns="http://www.w3.org/2000/svg"
	width="227.997"
	height="295.68">
<g><style type="text/css" >
<!-- create color definitions -->
<![CDATA[
circle.red {stroke: rgb(255, 0, 255); fill: none; }
circle.green {stroke: rgb(0, 255, 0); fill: none; }
circle.blue {stroke: rgb(0, 0, 255); fill: none; }
circle.black {stroke: rgb(0, 0, 0); fill: none; }
circle.gray {stroke: rgb(204, 204, 204); fill: none; }
circle.brown {stroke: rgb(211.65, 104.55, 30.6); fill: none; }
line.red {stroke: rgb(255, 0, 255); stroke-width: 0.382668; }
line.green {stroke: rgb(0, 255, 0); stroke-width: 0.382668; }
line.blue {stroke: rgb(0, 0, 255); stroke-width: 0.382668; }
line.black {stroke: rgb(0, 0, 0); stroke-width: 0.382668; }
line.gray {stroke: rgb(204, 204, 204); stroke-width: 0.382668; }
line.brown {stroke: rgb(211.65, 104.55, 30.6); stroke-width: 0.382668; }
line {stroke: rgb(0, 0, 0); }
text.red {fill: rgb(255, 0, 255); font-size: 3.061346px; font-weight: bold; font-family: Helvetica; }
text.green {fill: rgb(0, 255, 0); font-size: 3.061346px; font-weight: bold; font-family: Helvetica; }
text.blue {fill: rgb(0, 0, 255); font-size: 3.061346px; font-weight: bold; font-family: Helvetica; }
text.black {fill: rgb(0, 0, 0); font-size: 3.061346px; font-weight: bold; font-family: Helvetica; }
text.gray {fill: rgb(204, 204, 204); font-size: 3.061346px; font-weight: bold; font-family: Helvetica; }
text.brown {fill: rgb(211.65, 104.55, 30.6); font-size: 3.061346px; font-weight: bold; font-family: Helvetica; }
text {fill: rgb(0, 0, 0); font-size: 3.061346px; font-weight: bold; font-family: Helvetica; text-anchor: middle; alignment-baseline: middle; }

.pseudoknot_connection{stroke-linecap: round; stroke-opacity: 0.2; stroke-width: 1.5; }
.pseudoknot_segment1{stroke-linecap: round; stroke-opacity: 0.4; stroke-width: 3.06135; }
.pseudoknot_segment2{stroke-linecap: round; stroke-opacity: 0.4; stroke-width: 3.06135; }
line.numbering-line{stroke: rgb(204, 204, 204); stroke-width: 0.191334; }
line.predicted{stroke: rgb(0, 0, 0); stroke-dasharray: 2; }
polyline{fill: none; stroke-linejoin: round; }
template{visibility: hidden; }
text.numbering-label{fill: rgb(204, 204, 204); }
]]>
</style></g>
<g><title>0 (position.label in template: 0.5')</title><text x="62.19" y="247.899" class="green" >5'</text></g>
<g><title>1 (position.label in template: 1.A)</title><text x="61.98" y="240.34" class="black" >A</text></g>
<g><line x1="64.0209" y1="240.034" x2="71.7591" y2="240.034" class="black" /></g>
<g><title>2 (position.label in template: 2.C)</title><text x="61.77" y="232.78" class="black" >C</text></g>
<g><line x1="63.8109" y1="232.474" x2="71.7591" y2="232.474" class="black" /></g>
<g><title>3 (position.label in template: 3.C)</title><text x="61.77" y="225.22" class="black" >C</text></g>
<g><line x1="63.8109" y1="224.914" x2="71.7591" y2="224.914" class="black" /></g>
<g><title>4 (position.label in template: 4.U)</title><text x="61.77" y="217.66" class="green" >T</text></g>
<g><line x1="63.8109" y1="217.354" x2="72.1791" y2="217.354" class="black" /></g>
<g><title>5 (position.label in template: 5.G)</title><text x="61.56" y="210.1" class="black" >G</text></g>
<g><line x1="63.6009" y1="209.794" x2="71.9691" y2="209.794" class="black" /></g>
<g><title>6 (position.label in template: 6.C)</title><text x="61.77" y="202.54" class="black" >C</text></g>
<g><line x1="63.8109" y1="202.234" x2="71.7591" y2="202.234" class="black" /></g>
<g><title>7 (position.label in template: 7.A)</title><text x="61.98" y="194.98" class="green" >A</text></g>
<g><line x1="64.0209" y1="194.674" x2="71.9691" y2="194.674" class="black" /></g>
<g><title>8 (position.label in template: 8.U)</title><text x="61.77" y="187.42" class="green" >T</text></g>
<g><line x1="63.8109" y1="187.114" x2="71.7591" y2="187.114" class="black" /></g>
<g><title>9 (position.label in template: 9.U)</title><text x="61.77" y="179.86" class="green" >T</text></g>
<g><line x1="63.8109" y1="179.554" x2="72.1791" y2="179.554" class="black" /></g>
<g><title>10 (position.label in template: 10.C)</title><text x="54.61" y="177.43" class="black" >C</text></g>
<g><text x="50.5525" y="182.996" class="numbering-label sequential" >10</text></g>
<g><line x1="53.528" y1="178.914" x2="51.6683" y2="181.465" class="numbering-line sequential" /></g>
<g><title>11 (position.label in template: 11.G)</title><text x="50" y="171.28" class="black" >G</text></g>
<g><title>12 (position.label in template: 12.A)</title><text x="50.42" y="163.73" class="black" >A</text></g>
<g><title>13 (position.label in template: 13.A)</title><text x="54.82" y="157.58" class="black" >A</text></g>
<g><title>14 (position.label in template: 14.A)</title><text x="61.98" y="155.15" class="green" >A</text></g>
<g><line x1="64.0209" y1="154.844" x2="71.9691" y2="154.844" class="black" /></g>
<g><title>15 (position.label in template: 15.G)</title><text x="61.56" y="147.59" class="green" >G</text></g>
<g><line x1="63.6009" y1="147.284" x2="71.9691" y2="147.284" class="black" /></g>
<g><title>16 (position.label in template: 16.U)</title><text x="61.77" y="140.03" class="green" >T</text></g>
<g><line x1="63.8109" y1="139.724" x2="72.1791" y2="139.724" class="black" /></g>
<g><title>17 (position.label in template: 17.G)</title><text x="61.56" y="132.47" class="black" >G</text></g>
<g><line x1="63.6009" y1="132.164" x2="71.9691" y2="132.164" class="black" /></g>
<g><title>18 (position.label in template: 18.A)</title><text x="61.98" y="124.91" class="green" >A</text></g>
<g><line x1="64.0209" y1="124.604" x2="71.9691" y2="124.604" class="black" /></g>
<g><title>19 (position.label in template: 19.U)</title><text x="61.77" y="117.35" class="green" >T</text></g>
<g><line x1="63.8109" y1="117.044" x2="71.7591" y2="117.044" class="black" /></g>
<g><title>20 (position.label in template: 20.C)</title><text x="61.77" y="109.79" class="black" >C</text></g>
<g><line x1="63.8109" y1="109.484" x2="71.7591" y2="109.484" class="black" /></g>
<g><text x="54.8826" y="109.694" class="numbering-label sequential" >20</text></g>
<g><line x1="59.9334" y1="109.764" x2="56.7194" y2="109.72" class="numbering-line sequential" /></g>
<g><title>21 (position.label in template: 21.A)</title><text x="61.98" y="102.23" class="green" >A</text></g>
<g><line x1="64.0209" y1="101.924" x2="71.9691" y2="101.924" class="black" /></g>
<g><title>22 (position.label in template: 22.C)</title><text x="55.23" y="98.45" class="black" >C</text></g>
<g><title>23 (position.label in template: 23.G)</title><text x="61.56" y="94.67" class="black" >G</text></g>
<g><line x1="63.6009" y1="94.3639" x2="71.9691" y2="94.3639" class="black" /></g>
<g><title>24 (position.label in template: 24.G)</title><text x="61.56" y="87.11" class="black" >G</text></g>
<g><line x1="63.6009" y1="86.8039" x2="71.9691" y2="86.8039" class="black" /></g>
<g><title>25 (position.label in template: 25.G)</title><text x="61.56" y="79.55" class="black" >G</text></g>
<g><line x1="63.6009" y1="79.2439" x2="71.9691" y2="79.2439" class="black" /></g>
<g><title>26 (position.label in template: 26.C)</title><text x="61.77" y="71.99" class="black" >C</text></g>
<g><line x1="63.8109" y1="71.6839" x2="71.7591" y2="71.6839" class="black" /></g>
<g><title>27 (position.label in template: 27.U)</title><text x="56.89" y="66.22" class="green" >T</text></g>
<g><title>28 (position.label in template: 28.G)</title><text x="56.27" y="58.67" class="black" >G</text></g>
<g><title>29 (position.label in template: 29.C)</title><text x="60.73" y="52.42" class="black" >C</text></g>
<g><title>30 (position.label in template: 30.C)</title><text x="67.89" y="50" class="black" >C</text></g>
<g><text x="67.89" y="43.112" class="numbering-label sequential" >30</text></g>
<g><line x1="67.89" y1="48.1632" x2="67.89" y2="44.6426" class="numbering-line sequential" /></g>
<g><title>31 (position.label in template: 31.U)</title><text x="75.06" y="52.42" class="green" >T</text></g>
<g><title>32 (position.label in template: 32.G)</title><text x="79.09" y="58.67" class="black" >G</text></g>
<g><title>33 (position.label in template: 33.U)</title><text x="78.9" y="66.22" class="green" >T</text></g>
<g><title>34 (position.label in template: 34.G)</title><text x="73.8" y="71.99" class="black" >G</text></g>
<g><title>35 (position.label in template: 35.C)</title><text x="74.01" y="79.55" class="black" >C</text></g>
<g><title>36 (position.label in template: 36.C)</title><text x="74.01" y="87.11" class="black" >C</text></g>
<g><title>37 (position.label in template: 37.C)</title><text x="74.01" y="94.67" class="black" >C</text></g>
<g><title>38 (position.label in template: 38.U)</title><text x="74.01" y="102.23" class="green" >T</text></g>
<g><title>39 (position.label in template: 39.G)</title><text x="73.8" y="109.79" class="black" >G</text></g>
<g><title>40 (position.label in template: 40.G)</title><text x="73.8" y="117.35" class="green" >G</text></g>
<g><title>41 (position.label in template: 41.U)</title><text x="74.01" y="124.91" class="green" >T</text></g>
<g><title>42 (position.label in template: 42.C)</title><text x="74.01" y="132.47" class="black" >C</text></g>
<g><title>43 (position.label in template: 43.A)</title><text x="74.22" y="140.03" class="green" >A</text></g>
<g><title>44 (position.label in template: 44.U)</title><text x="74.01" y="147.59" class="green" >T</text></g>
<g><title>45 (position.label in template: 45.U)</title><text x="74.01" y="155.15" class="green" >T</text></g>
<g><title>46 (position.label in template: 46.G)</title><text x="79.4" y="160.23" class="black" >G</text></g>
<g><title>47 (position.label in template: 47.A)</title><text x="81.89" y="167.51" class="black" >A</text></g>
<g><title>48 (position.label in template: 48.U)</title><text x="79.61" y="174.77" class="green" >T</text></g>
<g><title>49 (position.label in template: 49.A)</title><text x="74.22" y="179.86" class="green" >A</text></g>
<g><title>50 (position.label in template: 50.G)</title><text x="73.8" y="187.42" class="green" >G</text></g>
<g><text x="80.6874" y="187.516" class="numbering-label sequential" >50</text></g>
<g><line x1="75.6366" y1="187.446" x2="78.8506" y2="187.49" class="numbering-line sequential" /></g>
<g><title>51 (position.label in template: 51.U)</title><text x="74.01" y="194.98" class="green" >T</text></g>
<g><title>52 (position.label in template: 52.G)</title><text x="73.8" y="202.54" class="black" >G</text></g>
<g><title>53 (position.label in template: 53.C)</title><text x="74.01" y="210.1" class="black" >C</text></g>
<g><title>54 (position.label in template: 54.A)</title><text x="74.22" y="217.66" class="green" >A</text></g>
<g><title>55 (position.label in template: 55.G)</title><text x="73.8" y="225.22" class="black" >G</text></g>
<g><title>56 (position.label in template: 56.G)</title><text x="73.8" y="232.78" class="black" >G</text></g>
<g><title>57 (position.label in template: 57.G)</title><text x="73.8" y="240.34" class="black" >G</text></g>
<g><title>58 (position.label in template: 58.A)</title><text x="79.56" y="245.68" class="black" >A</text></g>
<g><title>59 (position.label in template: 59.G)</title><text x="86.71" y="245.68" class="black" >G</text></g>
<g><title>60 (position.label in template: 60.A)</title><text x="94.68" y="245.68" class="black" >A</text></g>
<g><title>61 (position.label in template: 61.G)</title><text x="101.83" y="245.68" class="black" >G</text></g>
<g><title>62 (position.label in template: 62.C)</title><text x="109.6" y="245.68" class="black" >C</text></g>
<g><title>63 (position.label in template: 63.A)</title><text x="117.36" y="245.68" class="black" >A</text></g>
<g><title>64 (position.label in template: 64.A)</title><text x="124.92" y="245.68" class="black" >A</text></g>
<g><title>65 (position.label in template: 65.C)</title><text x="132.28" y="245.68" class="black" >C</text></g>
<g><title>66 (position.label in template: 66.U)</title><text x="139.84" y="245.68" class="green" >T</text></g>
<g><title>67 (position.label in template: 67.G)</title><text x="144.97" y="240.34" class="black" >G</text></g>
<g><line x1="147.011" y1="240.034" x2="155.379" y2="240.034" class="black" /></g>
<g><title>68 (position.label in template: 68.C)</title><text x="138.64" y="236.56" class="black" >C</text></g>
<g><title>69 (position.label in template: 69.C)</title><text x="145.18" y="232.78" class="green" >C</text></g>
<g><line x1="147.221" y1="232.474" x2="155.379" y2="232.474" class="black" /></g>
<g><title>70 (position.label in template: 70.G)</title><text x="144.97" y="225.22" class="black" >G</text></g>
<g><line x1="147.011" y1="224.914" x2="155.379" y2="224.914" class="black" /></g>
<g><title>71 (position.label in template: 71.A)</title><text x="145.39" y="217.66" class="green" >A</text></g>
<g><line x1="147.431" y1="217.354" x2="155.379" y2="217.354" class="black" /></g>
<g><title>72 (position.label in template: 72.A)</title><text x="145.39" y="210.1" class="green" >A</text></g>
<g><line x1="147.431" y1="209.794" x2="155.379" y2="209.794" class="black" /></g>
<g><title>73 (position.label in template: 73.A)</title><text x="145.39" y="202.54" class="green" >A</text></g>
<g><line x1="147.431" y1="202.234" x2="155.379" y2="202.234" class="black" /></g>
<g><title>74 (position.label in template: 74.G)</title><text x="144.97" y="194.98" class="black" >G</text></g>
<g><line x1="147.011" y1="194.674" x2="155.379" y2="194.674" class="black" /></g>
<g><title>75 (position.label in template: 75.C)</title><text x="145.18" y="187.42" class="black" >C</text></g>
<g><line x1="147.221" y1="187.114" x2="155.169" y2="187.114" class="black" /></g>
<g><title>76 (position.label in template: 76.G)</title><text x="137.56" y="188.91" class="black" >G</text></g>
<g><title>77 (position.label in template: 77.U)</title><text x="130.3" y="187.74" class="green" >T</text></g>
<g><title>78 (position.label in template: 78.U)</title><text x="123.7" y="184.06" class="green" >T</text></g>
<g><title>79 (position.label in template: 79.U)</title><text x="118.79" y="178.31" class="green" >T</text></g>
<g><title>80 (position.label in template: 80.C)</title><text x="116.17" y="171.22" class="black" >C</text></g>
<g><title>81 (position.label in template: 81.C)</title><text x="116.17" y="163.66" class="black" >C</text></g>
<g><title>82 (position.label in template: 82.C)</title><text x="118.79" y="156.57" class="black" >C</text></g>
<g><title>83 (position.label in template: 83.C)</title><text x="123.7" y="150.83" class="black" >C</text></g>
<g><title>84 (position.label in template: 84.G)</title><text x="130.09" y="147.14" class="black" >G</text></g>
<g><title>85 (position.label in template: 85.U)</title><text x="137.77" y="145.97" class="green" >T</text></g>
<g><title>86 (position.label in template: 86.G)</title><text x="144.97" y="147.47" class="black" >G</text></g>
<g><line x1="147.011" y1="147.164" x2="155.379" y2="147.164" class="black" /></g>
<g><title>87 (position.label in template: 87.U)</title><text x="145.18" y="139.91" class="green" >T</text></g>
<g><line x1="147.221" y1="139.604" x2="155.589" y2="139.604" class="black" /></g>
<g><title>88 (position.label in template: 88.U)</title><text x="145.18" y="132.35" class="green" >T</text></g>
<g><line x1="147.221" y1="132.044" x2="155.589" y2="132.044" class="black" /></g>
<g><title>89 (position.label in template: 89.U)</title><text x="145.18" y="124.79" class="green" >T</text></g>
<g><line x1="147.221" y1="124.484" x2="155.169" y2="124.484" class="black" /></g>
<g><title>90 (position.label in template: 90.G)</title><text x="144.97" y="117.23" class="green" >G</text></g>
<g><line x1="147.011" y1="116.924" x2="155.379" y2="116.924" class="black" /></g>
<g><title>91 (position.label in template: 91.G)</title><text x="144.97" y="109.67" class="green" >G</text></g>
<g><line x1="147.011" y1="109.364" x2="155.379" y2="109.364" class="black" /></g>
<g><title>92 (position.label in template: 92.A)</title><text x="145.39" y="102.11" class="green" >A</text></g>
<g><line x1="147.431" y1="101.804" x2="155.379" y2="101.804" class="black" /></g>
<g><title>93 (position.label in template: 93.G)</title><text x="144.97" y="94.55" class="black" >G</text></g>
<g><line x1="147.011" y1="94.2439" x2="155.379" y2="94.2439" class="black" /></g>
<g><title>94 (position.label in template: 94.G)</title><text x="144.97" y="86.99" class="black" >G</text></g>
<g><line x1="147.011" y1="86.6839" x2="155.379" y2="86.6839" class="black" /></g>
<g><title>95 (position.label in template: 95.G)</title><text x="144.97" y="79.43" class="black" >G</text></g>
<g><line x1="147.011" y1="79.1239" x2="155.379" y2="79.1239" class="black" /></g>
<g><title>96 (position.label in template: 96.U)</title><text x="139.2" y="74.81" class="green" >T</text></g>
<g><title>97 (position.label in template: 97.C)</title><text x="136.14" y="67.89" class="black" >C</text></g>
<g><title>98 (position.label in template: 98.U)</title><text x="136.75" y="60.36" class="green" >T</text></g>
<g><title>99 (position.label in template: 99.C)</title><text x="140.88" y="54.02" class="black" >C</text></g>
<g><title>100 (position.label in template: 100.C)</title><text x="147.52" y="50.42" class="black" >C</text></g>
<g><text x="145.827" y="43.7432" class="numbering-label sequential" >100</text></g>
<g><line x1="147.069" y1="48.6395" x2="146.215" y2="45.2739" class="numbering-line sequential" /></g>
<g><title>101 (position.label in template: 101.C)</title><text x="155.08" y="50.42" class="black" >C</text></g>
<g><title>102 (position.label in template: 102.C)</title><text x="161.73" y="54.02" class="black" >C</text></g>
<g><title>103 (position.label in template: 103.U)</title><text x="165.86" y="60.36" class="green" >T</text></g>
<g><title>104 (position.label in template: 104.G)</title><text x="166.25" y="67.89" class="black" >G</text></g>
<g><title>105 (position.label in template: 105.U)</title><text x="163.41" y="74.81" class="green" >T</text></g>
<g><title>106 (position.label in template: 106.C)</title><text x="157.42" y="79.43" class="black" >C</text></g>
<g><title>107 (position.label in template: 107.C)</title><text x="157.42" y="86.99" class="black" >C</text></g>
<g><title>108 (position.label in template: 108.C)</title><text x="157.42" y="94.55" class="black" >C</text></g>
<g><title>109 (position.label in template: 109.U)</title><text x="157.42" y="102.11" class="green" >T</text></g>
<g><title>110 (position.label in template: 110.U)</title><text x="157.42" y="109.67" class="green" >T</text></g>
<g><title>111 (position.label in template: 111.C)</title><text x="163.97" y="113.45" class="black" >C</text></g>
<g><title>112 (position.label in template: 112.U)</title><text x="157.42" y="117.23" class="green" >T</text></g>
<g><title>113 (position.label in template: 113.G)</title><text x="157.21" y="124.79" class="green" >G</text></g>
<g><title>114 (position.label in template: 114.A)</title><text x="157.63" y="132.35" class="green" >A</text></g>
<g><title>115 (position.label in template: 115.A)</title><text x="157.63" y="139.91" class="green" >A</text></g>
<g><title>116 (position.label in template: 116.C)</title><text x="157.42" y="147.47" class="black" >C</text></g>
<g><title>117 (position.label in template: 117.C)</title><text x="164.13" y="150.95" class="black" >C</text></g>
<g><title>118 (position.label in template: 118.C)</title><text x="169.16" y="156.6" class="black" >C</text></g>
<g><title>119 (position.label in template: 119.U)</title><text x="171.85" y="163.66" class="green" >T</text></g>
<g><title>120 (position.label in template: 120.G)</title><text x="171.64" y="171.22" class="black" >G</text></g>
<g><title>121 (position.label in template: 121.A)</title><text x="169.37" y="178.29" class="black" >A</text></g>
<g><title>122 (position.label in template: 122.A)</title><text x="164.34" y="183.93" class="black" >A</text></g>
<g><title>123 (position.label in template: 123.G)</title><text x="157.21" y="187.42" class="black" >G</text></g>
<g><title>124 (position.label in template: 124.C)</title><text x="157.42" y="194.98" class="black" >C</text></g>
<g><title>125 (position.label in template: 125.U)</title><text x="157.42" y="202.54" class="green" >T</text></g>
<g><title>126 (position.label in template: 126.U)</title><text x="157.42" y="210.1" class="green" >T</text></g>
<g><title>127 (position.label in template: 127.U)</title><text x="157.42" y="217.66" class="green" >T</text></g>
<g><title>128 (position.label in template: 128.C)</title><text x="157.42" y="225.22" class="black" >C</text></g>
<g><title>129 (position.label in template: 129.U)</title><text x="157.42" y="232.78" class="green" >T</text></g>
<g><title>130 (position.label in template: 130.C)</title><text x="157.42" y="240.34" class="black" >C</text></g>
<g><title>131 (position.label in template: 131.A)</title><text x="162.874" y="245.578" class="black" >A</text></g>
<g><title>132 (position.label in template: 132.C)</title><text x="170.435" y="245.578" class="black" >C</text></g>
<g><title>133 (position.label in template: 133.A)</title><text x="177.997" y="245.578" class="black" >A</text></g>
<g><title>134 (position.label in template: 134.3')</title><text x="185.558" y="245.578" class="green" >3'</text></g>
<g><line x1="62.1333" y1="245.552" x2="62.0367" y2="242.074" class="gray" /></g>
<g><line x1="61.9233" y1="237.994" x2="61.8267" y2="234.514" class="gray" /></g>
<g><line x1="61.77" y1="230.433" x2="61.77" y2="226.955" class="gray" /></g>
<g><line x1="61.77" y1="222.873" x2="61.77" y2="219.395" class="gray" /></g>
<g><line x1="61.7133" y1="215.314" x2="61.6167" y2="211.834" class="gray" /></g>
<g><line x1="61.6167" y1="207.754" x2="61.7133" y2="204.274" class="gray" /></g>
<g><line x1="61.8267" y1="200.194" x2="61.9233" y2="196.714" class="gray" /></g>
<g><line x1="61.9233" y1="192.634" x2="61.8267" y2="189.154" class="gray" /></g>
<g><line x1="61.77" y1="185.073" x2="61.77" y2="181.595" class="gray" /></g>
<g><line x1="59.8374" y1="178.898" x2="56.5426" y2="177.78" class="gray" /></g>
<g><line x1="53.3859" y1="175.491" x2="51.2241" y2="172.607" class="gray" /></g>
<g><line x1="50.1134" y1="168.936" x2="50.3066" y2="165.462" class="gray" /></g>
<g><line x1="51.6075" y1="161.764" x2="53.6325" y2="158.934" class="gray" /></g>
<g><line x1="56.7526" y1="156.618" x2="60.0474" y2="155.5" class="gray" /></g>
<g><line x1="61.8668" y1="152.806" x2="61.6732" y2="149.322" class="gray" /></g>
<g><line x1="61.6167" y1="145.244" x2="61.7133" y2="141.764" class="gray" /></g>
<g><line x1="61.7133" y1="137.684" x2="61.6167" y2="134.204" class="gray" /></g>
<g><line x1="61.6732" y1="130.126" x2="61.8668" y2="126.642" class="gray" /></g>
<g><line x1="61.9233" y1="122.564" x2="61.8267" y2="119.084" class="gray" /></g>
<g><line x1="61.77" y1="115.003" x2="61.77" y2="111.525" class="gray" /></g>
<g><line x1="61.8267" y1="107.444" x2="61.9233" y2="103.964" class="gray" /></g>
<g><line x1="60.1993" y1="100.927" x2="57.0107" y2="99.1411" class="gray" /></g>
<g><line x1="56.9822" y1="97.0975" x2="59.8078" y2="95.4102" class="gray" /></g>
<g><line x1="61.56" y1="92.323" x2="61.56" y2="88.8448" class="gray" /></g>
<g><line x1="61.56" y1="84.763" x2="61.56" y2="81.2848" class="gray" /></g>
<g><line x1="61.6167" y1="77.2038" x2="61.7133" y2="73.724" class="gray" /></g>
<g><line x1="60.4521" y1="70.1256" x2="58.2079" y2="67.4722" class="gray" /></g>
<g><line x1="56.723" y1="63.8798" x2="56.437" y2="60.3979" class="gray" /></g>
<g><line x1="57.4555" y1="56.7026" x2="59.5445" y2="53.7752" class="gray" /></g>
<g><line x1="62.6634" y1="51.4604" x2="65.9566" y2="50.3473" class="gray" /></g>
<g><line x1="69.8237" y1="50.3465" x2="73.1263" y2="51.4612" class="gray" /></g>
<g><line x1="76.166" y1="53.8291" x2="77.984" y2="56.6486" class="gray" /></g>
<g><line x1="79.0387" y1="60.4041" x2="78.9513" y2="63.8736" class="gray" /></g>
<g><line x1="77.5484" y1="67.443" x2="75.1516" y2="70.1547" class="gray" /></g>
<g><line x1="73.8567" y1="73.724" x2="73.9533" y2="77.2038" class="gray" /></g>
<g><line x1="74.01" y1="81.2848" x2="74.01" y2="84.763" class="gray" /></g>
<g><line x1="74.01" y1="88.8448" x2="74.01" y2="92.323" class="gray" /></g>
<g><line x1="74.01" y1="96.4048" x2="74.01" y2="99.883" class="gray" /></g>
<g><line x1="73.9533" y1="103.964" x2="73.8567" y2="107.444" class="gray" /></g>
<g><line x1="73.8" y1="111.525" x2="73.8" y2="115.003" class="gray" /></g>
<g><line x1="73.8567" y1="119.084" x2="73.9533" y2="122.564" class="gray" /></g>
<g><line x1="74.01" y1="126.645" x2="74.01" y2="130.123" class="gray" /></g>
<g><line x1="74.0667" y1="134.204" x2="74.1633" y2="137.684" class="gray" /></g>
<g><line x1="74.1633" y1="141.764" x2="74.0667" y2="145.244" class="gray" /></g>
<g><line x1="74.01" y1="149.325" x2="74.01" y2="152.803" class="gray" /></g>
<g><line x1="75.4952" y1="156.244" x2="77.9148" y2="158.524" class="gray" /></g>
<g><line x1="80.0605" y1="161.855" x2="81.2295" y2="165.273" class="gray" /></g>
<g><line x1="81.2785" y1="169.151" x2="80.2215" y2="172.517" class="gray" /></g>
<g><line x1="78.1262" y1="175.865" x2="75.7038" y2="178.153" class="gray" /></g>
<g><line x1="74.1068" y1="181.592" x2="73.9132" y2="185.076" class="gray" /></g>
<g><line x1="73.8567" y1="189.154" x2="73.9533" y2="192.634" class="gray" /></g>
<g><line x1="73.9533" y1="196.714" x2="73.8567" y2="200.194" class="gray" /></g>
<g><line x1="73.8567" y1="204.274" x2="73.9533" y2="207.754" class="gray" /></g>
<g><line x1="74.0667" y1="211.834" x2="74.1633" y2="215.314" class="gray" /></g>
<g><line x1="74.1068" y1="219.392" x2="73.9132" y2="222.876" class="gray" /></g>
<g><line x1="73.8" y1="226.955" x2="73.8" y2="230.433" class="gray" /></g>
<g><line x1="73.8" y1="234.515" x2="73.8" y2="237.993" class="gray" /></g>
<g><line x1="75.2967" y1="241.421" x2="78.0633" y2="243.986" class="gray" /></g>
<g><line x1="81.6009" y1="245.374" x2="84.6691" y2="245.374" class="gray" /></g>
<g><line x1="88.7509" y1="245.374" x2="92.6391" y2="245.374" class="gray" /></g>
<g><line x1="96.7209" y1="245.374" x2="99.7891" y2="245.374" class="gray" /></g>
<g><line x1="103.871" y1="245.374" x2="107.559" y2="245.374" class="gray" /></g>
<g><line x1="111.641" y1="245.374" x2="115.319" y2="245.374" class="gray" /></g>
<g><line x1="119.401" y1="245.374" x2="122.879" y2="245.374" class="gray" /></g>
<g><line x1="126.961" y1="245.374" x2="130.239" y2="245.374" class="gray" /></g>
<g><line x1="134.321" y1="245.374" x2="137.799" y2="245.374" class="gray" /></g>
<g><line x1="141.254" y1="243.902" x2="143.556" y2="241.506" class="gray" /></g>
<g><line x1="143.218" y1="238.987" x2="140.392" y2="237.3" class="gray" /></g>
<g><line x1="140.407" y1="235.233" x2="143.413" y2="233.495" class="gray" /></g>
<g><line x1="145.123" y1="230.434" x2="145.027" y2="226.954" class="gray" /></g>
<g><line x1="145.083" y1="222.876" x2="145.277" y2="219.392" class="gray" /></g>
<g><line x1="145.39" y1="215.313" x2="145.39" y2="211.835" class="gray" /></g>
<g><line x1="145.39" y1="207.753" x2="145.39" y2="204.275" class="gray" /></g>
<g><line x1="145.277" y1="200.196" x2="145.083" y2="196.712" class="gray" /></g>
<g><line x1="145.027" y1="192.634" x2="145.123" y2="189.154" class="gray" /></g>
<g><line x1="143.177" y1="187.506" x2="139.563" y2="188.212" class="gray" /></g>
<g><line x1="135.545" y1="188.279" x2="132.315" y2="187.759" class="gray" /></g>
<g><line x1="128.517" y1="186.44" x2="125.483" y2="184.748" class="gray" /></g>
<g><line x1="122.375" y1="182.202" x2="120.115" y2="179.556" class="gray" /></g>
<g><line x1="118.083" y1="176.089" x2="116.877" y2="172.828" class="gray" /></g>
<g><line x1="116.17" y1="168.873" x2="116.17" y2="165.395" class="gray" /></g>
<g><line x1="116.877" y1="161.439" x2="118.083" y2="158.178" class="gray" /></g>
<g><line x1="120.117" y1="154.713" x2="122.373" y2="152.075" class="gray" /></g>
<g><line x1="125.467" y1="149.503" x2="128.323" y2="147.854" class="gray" /></g>
<g><line x1="132.108" y1="146.526" x2="135.752" y2="145.971" class="gray" /></g>
<g><line x1="139.768" y1="146.08" x2="142.972" y2="146.748" class="gray" /></g>
<g><line x1="145.027" y1="145.124" x2="145.123" y2="141.644" class="gray" /></g>
<g><line x1="145.18" y1="137.563" x2="145.18" y2="134.085" class="gray" /></g>
<g><line x1="145.18" y1="130.003" x2="145.18" y2="126.525" class="gray" /></g>
<g><line x1="145.123" y1="122.444" x2="145.027" y2="118.964" class="gray" /></g>
<g><line x1="144.97" y1="114.883" x2="144.97" y2="111.405" class="gray" /></g>
<g><line x1="145.083" y1="107.326" x2="145.277" y2="103.842" class="gray" /></g>
<g><line x1="145.277" y1="99.7661" x2="145.083" y2="96.2816" class="gray" /></g>
<g><line x1="144.97" y1="92.203" x2="144.97" y2="88.7248" class="gray" /></g>
<g><line x1="144.97" y1="84.643" x2="144.97" y2="81.1648" class="gray" /></g>
<g><line x1="143.377" y1="77.8483" x2="140.793" y2="75.7795" class="gray" /></g>
<g><line x1="138.375" y1="72.6373" x2="136.965" y2="69.4504" class="gray" /></g>
<g><line x1="136.305" y1="65.5496" x2="136.585" y2="62.0881" class="gray" /></g>
<g><line x1="137.864" y1="58.3438" x2="139.766" y2="55.4239" class="gray" /></g>
<g><line x1="142.674" y1="52.7411" x2="145.726" y2="51.0866" class="gray" /></g>
<g><line x1="149.561" y1="50.1139" x2="153.039" y2="50.1139" class="gray" /></g>
<g><line x1="156.875" y1="51.0855" x2="159.935" y2="52.7423" class="gray" /></g>
<g><line x1="162.844" y1="55.4239" x2="164.746" y2="58.3438" class="gray" /></g>
<g><line x1="165.966" y1="62.092" x2="166.144" y2="65.5457" class="gray" /></g>
<g><line x1="165.475" y1="69.4719" x2="164.185" y2="72.6158" class="gray" /></g>
<g><line x1="161.794" y1="75.7503" x2="159.036" y2="77.8774" class="gray" /></g>
<g><line x1="157.42" y1="81.1648" x2="157.42" y2="84.643" class="gray" /></g>
<g><line x1="157.42" y1="88.7248" x2="157.42" y2="92.203" class="gray" /></g>
<g><line x1="157.42" y1="96.2848" x2="157.42" y2="99.763" class="gray" /></g>
<g><line x1="157.42" y1="103.845" x2="157.42" y2="107.323" class="gray" /></g>
<g><line x1="159.188" y1="110.384" x2="162.202" y2="112.124" class="gray" /></g>
<g><line x1="162.202" y1="114.164" x2="159.188" y2="115.904" class="gray" /></g>
<g><line x1="157.363" y1="118.964" x2="157.267" y2="122.444" class="gray" /></g>
<g><line x1="157.323" y1="126.522" x2="157.517" y2="130.006" class="gray" /></g>
<g><line x1="157.63" y1="134.085" x2="157.63" y2="137.563" class="gray" /></g>
<g><line x1="157.573" y1="141.644" x2="157.477" y2="145.124" class="gray" /></g>
<g><line x1="159.232" y1="148.103" x2="162.318" y2="149.704" class="gray" /></g>
<g><line x1="165.487" y1="152.168" x2="167.803" y2="154.77" class="gray" /></g>
<g><line x1="169.887" y1="158.201" x2="171.123" y2="161.447" class="gray" /></g>
<g><line x1="171.793" y1="165.394" x2="171.697" y2="168.874" class="gray" /></g>
<g><line x1="171.016" y1="172.857" x2="169.994" y2="176.041" class="gray" /></g>
<g><line x1="168.012" y1="179.507" x2="165.698" y2="182.101" class="gray" /></g>
<g><line x1="162.507" y1="184.521" x2="159.043" y2="186.217" class="gray" /></g>
<g><line x1="157.267" y1="189.154" x2="157.363" y2="192.634" class="gray" /></g>
<g><line x1="157.42" y1="196.715" x2="157.42" y2="200.193" class="gray" /></g>
<g><line x1="157.42" y1="204.275" x2="157.42" y2="207.753" class="gray" /></g>
<g><line x1="157.42" y1="211.835" x2="157.42" y2="215.313" class="gray" /></g>
<g><line x1="157.42" y1="219.395" x2="157.42" y2="222.873" class="gray" /></g>
<g><line x1="157.42" y1="226.955" x2="157.42" y2="230.433" class="gray" /></g>
<g><line x1="157.42" y1="234.515" x2="157.42" y2="237.993" class="gray" /></g>
<g><line x1="158.892" y1="241.448" x2="161.402" y2="243.858" class="gray" /></g>
<g><line x1="164.915" y1="245.272" x2="168.394" y2="245.272" class="gray" /></g>
<g><line x1="172.476" y1="245.272" x2="175.956" y2="245.272" class="gray" /></g>
<g><line x1="180.038" y1="245.272" x2="183.518" y2="245.272" class="gray" /></g>
</svg>
