<svg
	xmlns="http://www.w3.org/2000/svg"
	width="228.99"
	height="240.127">
<g><style type="text/css" >
<!-- create color definitions -->
<![CDATA[
circle.red {stroke: rgb(255, 0, 255); fill: none; }
circle.green {stroke: rgb(0, 255, 0); fill: none; }
circle.blue {stroke: rgb(0, 0, 255); fill: none; }
circle.black {stroke: rgb(0, 0, 0); fill: none; }
circle.gray {stroke: rgb(204, 204, 204); fill: none; }
circle.brown {stroke: rgb(211.65, 104.55, 30.6); fill: none; }
line.red {stroke: rgb(255, 0, 255); stroke-width: 0.380713; }
line.green {stroke: rgb(0, 255, 0); stroke-width: 0.380713; }
line.blue {stroke: rgb(0, 0, 255); stroke-width: 0.380713; }
line.black {stroke: rgb(0, 0, 0); stroke-width: 0.380713; }
line.gray {stroke: rgb(204, 204, 204); stroke-width: 0.380713; }
line.brown {stroke: rgb(211.65, 104.55, 30.6); stroke-width: 0.380713; }
line {stroke: rgb(0, 0, 0); }
text.red {fill: rgb(255, 0, 255); font-size: 3.045705px; font-weight: bold; font-family: Helvetica; }
text.green {fill: rgb(0, 255, 0); font-size: 3.045705px; font-weight: bold; font-family: Helvetica; }
text.blue {fill: rgb(0, 0, 255); font-size: 3.045705px; font-weight: bold; font-family: Helvetica; }
text.black {fill: rgb(0, 0, 0); font-size: 3.045705px; font-weight: bold; font-family: Helvetica; }
text.gray {fill: rgb(204, 204, 204); font-size: 3.045705px; font-weight: bold; font-family: Helvetica; }
text.brown {fill: rgb(211.65, 104.55, 30.6); font-size: 3.045705px; font-weight: bold; font-family: Helvetica; }
text {fill: rgb(0, 0, 0); font-size: 3.045705px; font-weight: bold; font-family: Helvetica; text-anchor: middle; alignment-baseline: middle; }

.pseudoknot_connection{stroke-linecap: round; stroke-opacity: 0.2; stroke-width: 1.5; }
.pseudoknot_segment1{stroke-linecap: round; stroke-opacity: 0.4; stroke-width: 3.0457; }
.pseudoknot_segment2{stroke-linecap: round; stroke-opacity: 0.4; stroke-width: 3.0457; }
line.numbering-line{stroke: rgb(204, 204, 204); stroke-width: 0.190357; }
line.predicted{stroke: rgb(0, 0, 0); stroke-dasharray: 2; }
polyline{fill: none; stroke-linejoin: round; }
template{visibility: hidden; }
text.numbering-label{fill: rgb(204, 204, 204); }
]]>
</style></g>
<g><title>0 (position.label in template: 0.5')</title><text x="112.98" y="192.434" class="green" >5'</text></g>
<g><title>1 (position.label in template: 1.G)</title><text x="113.19" y="184.89" class="black" >G</text></g>
<g><line x1="115.22" y1="184.585" x2="123.61" y2="184.585" class="black" /></g>
<g><title>2 (position.label in template: 2.C)</title><text x="113.4" y="177.33" class="black" >C</text></g>
<g><line x1="115.43" y1="177.025" x2="123.4" y2="177.025" class="black" /></g>
<g><title>3 (position.label in template: 3.G)</title><text x="113.19" y="169.77" class="black" >G</text></g>
<g><line x1="115.22" y1="169.465" x2="123.61" y2="169.465" class="black" /></g>
<g><title>4 (position.label in template: 4.A)</title><text x="113.6" y="162.21" class="green" >A</text></g>
<g><line x1="115.63" y1="161.905" x2="123.61" y2="161.905" class="black" /></g>
<g><title>5 (position.label in template: 5.G)</title><text x="113.19" y="154.65" class="black" >G</text></g>
<g><line x1="115.22" y1="154.345" x2="123.61" y2="154.345" class="black" /></g>
<g><title>6 (position.label in template: 6.A)</title><text x="110.5" y="147.75" class="black" >A</text></g>
<g><title>7 (position.label in template: 7.G)</title><text x="113.19" y="140.86" class="black" >G</text></g>
<g><line x1="115.22" y1="140.555" x2="123.61" y2="140.555" class="black" /></g>
<g><title>8 (position.label in template: 8.U)</title><text x="106.53" y="137.7" class="green" >T</text></g>
<g><title>9 (position.label in template: 9.G)</title><text x="100.84" y="132.49" class="black" >G</text></g>
<g><title>10 (position.label in template: 10.G)</title><text x="97.33" y="125.8" class="black" >G</text></g>
<g><line x1="97.2587" y1="123.466" x2="96.9713" y2="115.295" class="black" /></g>
<g><text x="93.8889" y="131.726" class="numbering-label sequential" >10</text></g>
<g><line x1="96.4124" y1="127.38" x2="94.7732" y2="130.203" class="numbering-line sequential" /></g>
<g><title>11 (position.label in template: 11.C)</title><text x="89.99" y="126.19" class="black" >C</text></g>
<g><line x1="89.8492" y1="123.86" x2="89.2808" y2="115.681" class="black" /></g>
<g><title>12 (position.label in template: 12.G)</title><text x="82.23" y="126.58" class="black" >G</text></g>
<g><line x1="82.1586" y1="124.246" x2="81.8714" y2="116.085" class="black" /></g>
<g><title>13 (position.label in template: 13.G)</title><text x="78.23" y="133" class="black" >G</text></g>
<g><title>14 (position.label in template: 14.A)</title><text x="72.21" y="136.97" class="black" >A</text></g>
<g><title>15 (position.label in template: 15.A)</title><text x="64.69" y="137.67" class="black" >A</text></g>
<g><title>16 (position.label in template: 16.U)</title><text x="57.43" y="134.95" class="green" >T</text></g>
<g><title>17 (position.label in template: 17.U)</title><text x="52.31" y="129.38" class="green" >T</text></g>
<g><title>18 (position.label in template: 18.G)</title><text x="50" y="122.12" class="black" >G</text></g>
<g><title>19 (position.label in template: 19.G)</title><text x="51.34" y="114.68" class="black" >G</text></g>
<g><title>20 (position.label in template: 20.C)</title><text x="56.06" y="108.61" class="black" >C</text></g>
<g><text x="51.7315" y="103.297" class="numbering-label sequential" >20</text></g>
<g><line x1="54.9057" y1="107.193" x2="52.9722" y2="104.82" class="numbering-line sequential" /></g>
<g><title>21 (position.label in template: 21.A)</title><text x="63" y="105.18" class="black" >A</text></g>
<g><title>22 (position.label in template: 22.G)</title><text x="70.15" y="105.1" class="black" >G</text></g>
<g><title>23 (position.label in template: 23.A)</title><text x="77.37" y="108.39" class="black" >A</text></g>
<g><title>24 (position.label in template: 24.C)</title><text x="81.8" y="114.36" class="black" >C</text></g>
<g><title>25 (position.label in template: 25.G)</title><text x="89.14" y="113.96" class="black" >G</text></g>
<g><title>26 (position.label in template: 26.C)</title><text x="96.9" y="113.57" class="black" >C</text></g>
<g><title>27 (position.label in template: 27.G)</title><text x="99.5" y="106.55" class="black" >G</text></g>
<g><title>28 (position.label in template: 28.C)</title><text x="104.62" y="100.81" class="black" >C</text></g>
<g><line x1="106.458" y1="99.6428" x2="113.692" y2="96.248" class="black" /></g>
<g><title>29 (position.label in template: 29.C)</title><text x="101.46" y="93.94" class="black" >C</text></g>
<g><line x1="103.298" y1="92.7728" x2="110.532" y2="89.378" class="black" /></g>
<g><title>30 (position.label in template: 30.A)</title><text x="98.5" y="87.07" class="green" >A</text></g>
<g><line x1="100.338" y1="85.9028" x2="107.572" y2="82.508" class="black" /></g>
<g><text x="92.3132" y="90.017" class="numbering-label sequential" >30</text></g>
<g><line x1="96.8502" y1="87.8559" x2="94.1406" y2="89.1465" class="numbering-line sequential" /></g>
<g><title>31 (position.label in template: 31.G)</title><text x="94.92" y="80.21" class="black" >G</text></g>
<g><line x1="96.7703" y1="79.0693" x2="104.4" y2="75.6216" class="black" /></g>
<g><title>32 (position.label in template: 32.A)</title><text x="92.18" y="73.34" class="green" >A</text></g>
<g><line x1="94.0181" y1="72.1728" x2="101.252" y2="68.778" class="black" /></g>
<g><title>33 (position.label in template: 33.C)</title><text x="85.12" y="70.14" class="black" >C</text></g>
<g><title>34 (position.label in template: 34.U)</title><text x="81.6" y="63.46" class="green" >T</text></g>
<g><title>35 (position.label in template: 35.U)</title><text x="82.84" y="56" class="green" >T</text></g>
<g><title>36 (position.label in template: 36.A)</title><text x="88.54" y="50.81" class="black" >A</text></g>
<g><title>37 (position.label in template: 37.G)</title><text x="95.64" y="50" class="black" >G</text></g>
<g><title>38 (position.label in template: 38.G)</title><text x="102.12" y="53.91" class="black" >G</text></g>
<g><title>39 (position.label in template: 39.A)</title><text x="105.32" y="60.94" class="black" >A</text></g>
<g><title>40 (position.label in template: 40.U)</title><text x="103.09" y="68.22" class="green" >T</text></g>
<g><title>41 (position.label in template: 41.C)</title><text x="106.25" y="75.09" class="black" >C</text></g>
<g><title>42 (position.label in template: 42.U)</title><text x="109.41" y="81.95" class="green" >T</text></g>
<g><title>43 (position.label in template: 43.G)</title><text x="112.37" y="88.82" class="black" >G</text></g>
<g><title>44 (position.label in template: 44.G)</title><text x="115.53" y="95.69" class="black" >G</text></g>
<g><title>45 (position.label in template: 45.U)</title><text x="123.3" y="95.69" class="green" >T</text></g>
<g><title>46 (position.label in template: 46.A)</title><text x="130.66" y="98.12" class="green" >A</text></g>
<g><line x1="132.116" y1="99.2309" x2="137.874" y2="104.83" class="black" /></g>
<g><title>47 (position.label in template: 47.C)</title><text x="135.66" y="92.64" class="black" >C</text></g>
<g><line x1="137.116" y1="93.7509" x2="142.874" y2="99.35" class="black" /></g>
<g><title>48 (position.label in template: 48.C)</title><text x="140.87" y="87.16" class="black" >C</text></g>
<g><line x1="142.325" y1="88.2717" x2="148.075" y2="93.8691" class="black" /></g>
<g><title>49 (position.label in template: 49.U)</title><text x="147.51" y="83.56" class="green" >T</text></g>
<g><title>50 (position.label in template: 50.C)</title><text x="153" y="88.76" class="black" >C</text></g>
<g><text x="159.758" y="87.6252" class="numbering-label sequential" >50</text></g>
<g><line x1="154.802" y1="88.4574" x2="157.931" y2="87.9321" class="numbering-line sequential" /></g>
<g><title>51 (position.label in template: 51.G)</title><text x="149.53" y="95.59" class="black" >G</text></g>
<g><title>52 (position.label in template: 52.G)</title><text x="144.33" y="101.07" class="black" >G</text></g>
<g><title>53 (position.label in template: 53.U)</title><text x="139.33" y="106.55" class="green" >T</text></g>
<g><title>54 (position.label in template: 54.G)</title><text x="141.92" y="113.57" class="black" >G</text></g>
<g><title>55 (position.label in template: 55.U)</title><text x="142.53" y="121.12" class="green" >T</text></g>
<g><title>56 (position.label in template: 56.G)</title><text x="140.25" y="128.4" class="black" >G</text></g>
<g><line x1="138.951" y1="129.656" x2="133.809" y2="135.835" class="black" /></g>
<g><title>57 (position.label in template: 57.U)</title><text x="146.21" y="133.31" class="green" >T</text></g>
<g><line x1="144.91" y1="134.565" x2="139.76" y2="140.746" class="black" /></g>
<g><title>58 (position.label in template: 58.G)</title><text x="151.74" y="138.23" class="black" >G</text></g>
<g><line x1="150.44" y1="139.485" x2="145.29" y2="145.666" class="black" /></g>
<g><title>59 (position.label in template: 59.G)</title><text x="157.48" y="143.14" class="black" >G</text></g>
<g><line x1="156.181" y1="144.396" x2="151.039" y2="150.575" class="black" /></g>
<g><title>60 (position.label in template: 60.G)</title><text x="163.23" y="148.06" class="black" >G</text></g>
<g><line x1="161.93" y1="149.315" x2="156.78" y2="155.496" class="black" /></g>
<g><title>61 (position.label in template: 61.U)</title><text x="171" y="148.09" class="green" >T</text></g>
<g><title>62 (position.label in template: 62.U)</title><text x="177" y="152.69" class="green" >T</text></g>
<g><title>63 (position.label in template: 63.C)</title><text x="178.99" y="159.99" class="black" >C</text></g>
<g><title>64 (position.label in template: 64.G)</title><text x="175.96" y="167" class="black" >G</text></g>
<g><title>65 (position.label in template: 65.A)</title><text x="169.88" y="170.87" class="black" >A</text></g>
<g><title>66 (position.label in template: 66.C)</title><text x="162.16" y="170.03" class="black" >C</text></g>
<g><title>67 (position.label in template: 67.U)</title><text x="156.69" y="164.82" class="green" >T</text></g>
<g><title>68 (position.label in template: 68.C)</title><text x="155.48" y="157.36" class="black" >C</text></g>
<g><title>69 (position.label in template: 69.C)</title><text x="149.74" y="152.44" class="black" >C</text></g>
<g><title>70 (position.label in template: 70.C)</title><text x="143.99" y="147.53" class="black" >C</text></g>
<g><title>71 (position.label in template: 71.A)</title><text x="138.46" y="142.61" class="green" >A</text></g>
<g><title>72 (position.label in template: 72.C)</title><text x="132.51" y="137.7" class="black" >C</text></g>
<g><title>73 (position.label in template: 73.C)</title><text x="125.64" y="140.86" class="black" >C</text></g>
<g><title>74 (position.label in template: 74.C)</title><text x="128.74" y="147.75" class="black" >C</text></g>
<g><title>75 (position.label in template: 75.C)</title><text x="125.64" y="154.65" class="black" >C</text></g>
<g><title>76 (position.label in template: 76.U)</title><text x="125.64" y="162.21" class="green" >T</text></g>
<g><title>77 (position.label in template: 77.C)</title><text x="125.64" y="169.77" class="black" >C</text></g>
<g><title>78 (position.label in template: 78.G)</title><text x="125.43" y="177.33" class="black" >G</text></g>
<g><title>79 (position.label in template: 79.C)</title><text x="125.64" y="184.89" class="black" >C</text></g>
<g><title>80 (position.label in template: 80.A)</title><text x="131.073" y="190.127" class="black" >A</text></g>
<g><title>81 (position.label in template: 81.3')</title><text x="131.488" y="197.663" class="green" >3'</text></g>
<g><line x1="113.037" y1="190.099" x2="113.134" y2="186.615" class="gray" /></g>
<g><line x1="113.246" y1="182.556" x2="113.344" y2="179.055" class="gray" /></g>
<g><line x1="113.344" y1="174.996" x2="113.246" y2="171.495" class="gray" /></g>
<g><line x1="113.3" y1="167.438" x2="113.49" y2="163.933" class="gray" /></g>
<g><line x1="113.49" y1="159.878" x2="113.3" y2="156.373" class="gray" /></g>
<g><line x1="112.452" y1="152.454" x2="111.238" y2="149.337" class="gray" /></g>
<g><line x1="111.238" y1="145.554" x2="112.452" y2="142.447" class="gray" /></g>
<g><line x1="111.356" y1="139.685" x2="108.364" y2="138.266" class="gray" /></g>
<g><line x1="105.032" y1="136.024" x2="102.338" y2="133.557" class="gray" /></g>
<g><line x1="99.8966" y1="130.387" x2="98.2734" y2="127.293" class="gray" /></g>
<g><line x1="95.3024" y1="125.603" x2="92.0176" y2="125.778" class="gray" /></g>
<g><line x1="87.9621" y1="125.987" x2="84.2579" y2="126.174" class="gray" /></g>
<g><line x1="81.1563" y1="127.999" x2="79.3037" y2="130.972" class="gray" /></g>
<g><line x1="76.5349" y1="133.813" x2="73.9051" y2="135.548" class="gray" /></g>
<g><line x1="70.1883" y1="136.854" x2="66.7117" y2="137.177" class="gray" /></g>
<g><line x1="62.7886" y1="136.653" x2="59.3314" y2="135.358" class="gray" /></g>
<g><line x1="56.0559" y1="133.151" x2="53.6841" y2="130.57" class="gray" /></g>
<g><line x1="51.6944" y1="127.141" x2="50.6156" y2="123.75" class="gray" /></g>
<g><line x1="50.3599" y1="119.817" x2="50.9801" y2="116.374" class="gray" /></g>
<g><line x1="52.5864" y1="112.773" x2="54.8136" y2="109.908" class="gray" /></g>
<g><line x1="57.8803" y1="107.406" x2="61.1797" y2="105.775" class="gray" /></g>
<g><line x1="65.0303" y1="104.853" x2="68.1197" y2="104.818" class="gray" /></g>
<g><line x1="71.9977" y1="105.637" x2="75.5223" y2="107.243" class="gray" /></g>
<g><line x1="78.58" y1="109.716" x2="80.59" y2="112.425" class="gray" /></g>
<g><line x1="83.8275" y1="113.945" x2="87.1125" y2="113.766" class="gray" /></g>
<g><line x1="91.1679" y1="113.554" x2="94.8721" y2="113.367" class="gray" /></g>
<g><line x1="97.6052" y1="111.361" x2="98.7948" y2="108.15" class="gray" /></g>
<g><line x1="100.852" y1="104.73" x2="103.268" y2="102.021" class="gray" /></g>
<g><line x1="103.771" y1="98.6607" x2="102.309" y2="95.4801" class="gray" /></g>
<g><line x1="100.657" y1="91.7707" x2="99.3034" y2="88.6302" class="gray" /></g>
<g><line x1="97.5606" y1="84.9653" x2="95.8594" y2="81.7055" class="gray" /></g>
<g><line x1="94.1678" y1="78.0194" x2="92.9322" y2="74.9214" class="gray" /></g>
<g><line x1="90.3306" y1="72.1972" x2="86.9694" y2="70.6737" class="gray" /></g>
<g><line x1="84.1734" y1="68.0391" x2="82.5466" y2="64.9518" class="gray" /></g>
<g><line x1="81.9329" y1="61.1524" x2="82.5071" y2="57.6984" class="gray" /></g>
<g><line x1="84.3414" y1="54.3284" x2="87.0386" y2="51.8725" class="gray" /></g>
<g><line x1="90.5574" y1="50.2753" x2="93.6226" y2="49.9256" class="gray" /></g>
<g><line x1="97.3785" y1="50.7444" x2="100.381" y2="52.5564" class="gray" /></g>
<g><line x1="102.961" y1="55.4535" x2="104.479" y2="58.7874" class="gray" /></g>
<g><line x1="104.725" y1="62.5769" x2="103.685" y2="65.974" class="gray" /></g>
<g><line x1="103.939" y1="69.7601" x2="105.401" y2="72.9407" class="gray" /></g>
<g><line x1="107.1" y1="76.6296" x2="108.56" y2="79.8012" class="gray" /></g>
<g><line x1="110.213" y1="83.5102" x2="111.567" y2="86.6507" class="gray" /></g>
<g><line x1="113.219" y1="90.3601" x2="114.681" y2="93.5407" class="gray" /></g>
<g><line x1="117.56" y1="95.3854" x2="121.27" y2="95.3854" class="gray" /></g>
<g><line x1="125.228" y1="96.022" x2="128.732" y2="97.1788" class="gray" /></g>
<g><line x1="132.029" y1="96.3155" x2="134.291" y2="93.8354" class="gray" /></g>
<g><line x1="137.059" y1="90.8639" x2="139.471" y2="88.327" class="gray" /></g>
<g><line x1="142.655" y1="85.8877" x2="145.725" y2="84.2232" class="gray" /></g>
<g><line x1="148.984" y1="84.6517" x2="151.526" y2="87.0591" class="gray" /></g>
<g><line x1="152.08" y1="90.2657" x2="150.45" y2="93.4752" class="gray" /></g>
<g><line x1="148.132" y1="96.7583" x2="145.728" y2="99.2925" class="gray" /></g>
<g><line x1="142.961" y1="102.265" x2="140.699" y2="104.745" class="gray" /></g>
<g><line x1="140.033" y1="108.15" x2="141.217" y2="111.36" class="gray" /></g>
<g><line x1="142.084" y1="115.289" x2="142.366" y2="118.792" class="gray" /></g>
<g><line x1="141.923" y1="122.753" x2="140.857" y2="126.158" class="gray" /></g>
<g><line x1="141.817" y1="129.386" x2="144.643" y2="131.714" class="gray" /></g>
<g><line x1="147.727" y1="134.355" x2="150.223" y2="136.576" class="gray" /></g>
<g><line x1="153.283" y1="139.245" x2="155.937" y2="141.516" class="gray" /></g>
<g><line x1="159.023" y1="144.156" x2="161.687" y2="146.435" class="gray" /></g>
<g><line x1="165.26" y1="147.763" x2="168.97" y2="147.778" class="gray" /></g>
<g><line x1="172.611" y1="149.021" x2="175.389" y2="151.15" class="gray" /></g>
<g><line x1="177.534" y1="154.344" x2="178.456" y2="157.726" class="gray" /></g>
<g><line x1="178.184" y1="161.549" x2="176.766" y2="164.832" class="gray" /></g>
<g><line x1="174.247" y1="167.786" x2="171.593" y2="169.475" class="gray" /></g>
<g><line x1="167.861" y1="170.346" x2="164.179" y2="169.945" class="gray" /></g>
<g><line x1="160.69" y1="168.325" x2="158.16" y2="165.916" class="gray" /></g>
<g><line x1="156.365" y1="162.511" x2="155.805" y2="159.06" class="gray" /></g>
<g><line x1="153.938" y1="155.734" x2="151.282" y2="153.457" class="gray" /></g>
<g><line x1="148.196" y1="150.817" x2="145.534" y2="148.544" class="gray" /></g>
<g><line x1="142.473" y1="145.876" x2="139.977" y2="143.655" class="gray" /></g>
<g><line x1="136.894" y1="141.013" x2="134.076" y2="138.688" class="gray" /></g>
<g><line x1="130.665" y1="138.244" x2="127.485" y2="139.707" class="gray" /></g>
<g><line x1="126.473" y1="142.407" x2="127.907" y2="145.594" class="gray" /></g>
<g><line x1="127.908" y1="149.298" x2="126.472" y2="152.493" class="gray" /></g>
<g><line x1="125.64" y1="156.376" x2="125.64" y2="159.875" class="gray" /></g>
<g><line x1="125.64" y1="163.936" x2="125.64" y2="167.435" class="gray" /></g>
<g><line x1="125.584" y1="171.495" x2="125.486" y2="174.996" class="gray" /></g>
<g><line x1="125.486" y1="179.055" x2="125.584" y2="182.556" class="gray" /></g>
<g><line x1="127.102" y1="185.995" x2="129.611" y2="188.414" class="gray" /></g>
<g><line x1="131.185" y1="191.85" x2="131.376" y2="195.331" class="gray" /></g>
</svg>
