<svg
	xmlns="http://www.w3.org/2000/svg"
	width="298.352"
	height="282.913">
<g><style type="text/css" >
<!-- create color definitions -->
<![CDATA[
circle.red {stroke: rgb(255, 0, 255); fill: none; }
circle.green {stroke: rgb(0, 255, 0); fill: none; }
circle.blue {stroke: rgb(0, 0, 255); fill: none; }
circle.black {stroke: rgb(0, 0, 0); fill: none; }
circle.gray {stroke: rgb(204, 204, 204); fill: none; }
circle.brown {stroke: rgb(211.65, 104.55, 30.6); fill: none; }
line.red {stroke: rgb(255, 0, 255); stroke-width: 0.381562; }
line.green {stroke: rgb(0, 255, 0); stroke-width: 0.381562; }
line.blue {stroke: rgb(0, 0, 255); stroke-width: 0.381562; }
line.black {stroke: rgb(0, 0, 0); stroke-width: 0.381562; }
line.gray {stroke: rgb(204, 204, 204); stroke-width: 0.381562; }
line.brown {stroke: rgb(211.65, 104.55, 30.6); stroke-width: 0.381562; }
line {stroke: rgb(0, 0, 0); }
text.red {fill: rgb(255, 0, 255); font-size: 3.052500px; font-weight: bold; font-family: Helvetica; }
text.green {fill: rgb(0, 255, 0); font-size: 3.052500px; font-weight: bold; font-family: Helvetica; }
text.blue {fill: rgb(0, 0, 255); font-size: 3.052500px; font-weight: bold; font-family: Helvetica; }
text.black {fill: rgb(0, 0, 0); font-size: 3.052500px; font-weight: bold; font-family: Helvetica; }
text.gray {fill: rgb(204, 204, 204); font-size: 3.052500px; font-weight: bold; font-family: Helvetica; }
text.brown {fill: rgb(211.65, 104.55, 30.6); font-size: 3.052500px; font-weight: bold; font-family: Helvetica; }
text {fill: rgb(0, 0, 0); font-size: 3.052500px; font-weight: bold; font-family: Helvetica; text-anchor: middle; alignment-baseline: middle; }

.pseudoknot_connection{stroke-linecap: round; stroke-opacity: 0.2; stroke-width: 1.5; }
.pseudoknot_segment1{stroke-linecap: round; stroke-opacity: 0.4; stroke-width: 3.0525; }
.pseudoknot_segment2{stroke-linecap: round; stroke-opacity: 0.4; stroke-width: 3.0525; }
line.numbering-line{stroke: rgb(204, 204, 204); stroke-width: 0.190781; }
line.predicted{stroke: rgb(0, 0, 0); stroke-dasharray: 2; }
polyline{fill: none; stroke-linejoin: round; }
template{visibility: hidden; }
text.numbering-label{fill: rgb(204, 204, 204); }
]]>
</style></g>
<g><title>0 (position.label in template: 0.5')</title><text x="51.1679" y="232.913" class="green" >5'</text></g>
<g><title>1 (position.label in template: 1.U)</title><text x="58.7296" y="232.913" class="green" >T</text></g>
<g><title>2 (position.label in template: 2.C)</title><text x="66.2914" y="232.913" class="black" >C</text></g>
<g><title>3 (position.label in template: 3.G)</title><text x="71.53" y="227.46" class="black" >G</text></g>
<g><line x1="73.565" y1="227.155" x2="81.945" y2="227.155" class="black" /></g>
<g><title>4 (position.label in template: 4.C)</title><text x="71.74" y="219.9" class="black" >C</text></g>
<g><line x1="73.775" y1="219.595" x2="81.735" y2="219.595" class="black" /></g>
<g><title>5 (position.label in template: 5.A)</title><text x="71.95" y="212.34" class="green" >A</text></g>
<g><line x1="73.985" y1="212.035" x2="81.945" y2="212.035" class="black" /></g>
<g><title>6 (position.label in template: 6.U)</title><text x="71.74" y="204.78" class="green" >T</text></g>
<g><line x1="73.775" y1="204.475" x2="82.155" y2="204.475" class="black" /></g>
<g><title>7 (position.label in template: 7.G)</title><text x="71.53" y="197.22" class="black" >G</text></g>
<g><line x1="73.565" y1="196.915" x2="81.945" y2="196.915" class="black" /></g>
<g><title>8 (position.label in template: 8.U)</title><text x="71.74" y="189.66" class="green" >T</text></g>
<g><line x1="73.775" y1="189.355" x2="82.155" y2="189.355" class="black" /></g>
<g><title>9 (position.label in template: 9.G)</title><text x="64.44" y="187.03" class="black" >G</text></g>
<g><title>10 (position.label in template: 10.G)</title><text x="58.31" y="182.61" class="black" >G</text></g>
<g><text x="53.4817" y="187.494" class="numbering-label sequential" >10</text></g>
<g><line x1="57.0224" y1="183.913" x2="54.9904" y2="185.968" class="numbering-line sequential" /></g>
<g><title>11 (position.label in template: 11.A)</title><text x="54" y="176.71" class="black" >A</text></g>
<g><title>12 (position.label in template: 12.A)</title><text x="51.02" y="169.76" class="black" >A</text></g>
<g><title>13 (position.label in template: 13.A)</title><text x="50" y="162.27" class="black" >A</text></g>
<g><title>14 (position.label in template: 14.U)</title><text x="50.81" y="154.78" class="green" >T</text></g>
<g><title>15 (position.label in template: 15.A)</title><text x="54" y="147.83" class="black" >A</text></g>
<g><title>16 (position.label in template: 16.A)</title><text x="58.73" y="141.93" class="black" >A</text></g>
<g><title>17 (position.label in template: 17.U)</title><text x="64.65" y="137.5" class="green" >T</text></g>
<g><title>18 (position.label in template: 18.U)</title><text x="71.74" y="134.88" class="green" >T</text></g>
<g><line x1="73.775" y1="134.575" x2="81.735" y2="134.575" class="black" /></g>
<g><title>19 (position.label in template: 19.C)</title><text x="71.74" y="127.32" class="black" >C</text></g>
<g><line x1="73.775" y1="127.015" x2="81.735" y2="127.015" class="black" /></g>
<g><title>20 (position.label in template: 20.U)</title><text x="71.74" y="119.76" class="green" >T</text></g>
<g><line x1="73.775" y1="119.455" x2="82.155" y2="119.455" class="black" /></g>
<g><text x="64.8725" y="119.855" class="numbering-label sequential" >20</text></g>
<g><line x1="69.9087" y1="119.785" x2="66.704" y2="119.83" class="numbering-line sequential" /></g>
<g><title>21 (position.label in template: 21.G)</title><text x="71.53" y="112.2" class="black" >G</text></g>
<g><line x1="73.565" y1="111.895" x2="81.945" y2="111.895" class="black" /></g>
<g><title>22 (position.label in template: 22.C)</title><text x="71.74" y="104.64" class="black" >C</text></g>
<g><line x1="73.775" y1="104.335" x2="81.735" y2="104.335" class="black" /></g>
<g><title>23 (position.label in template: 23.U)</title><text x="71.74" y="97.08" class="green" >T</text></g>
<g><line x1="73.775" y1="96.7748" x2="82.155" y2="96.7748" class="black" /></g>
<g><title>24 (position.label in template: 24.C)</title><text x="71.74" y="89.52" class="black" >C</text></g>
<g><line x1="73.775" y1="89.2148" x2="81.735" y2="89.2148" class="black" /></g>
<g><title>25 (position.label in template: 25.C)</title><text x="71.74" y="81.96" class="black" >C</text></g>
<g><line x1="73.775" y1="81.6548" x2="81.735" y2="81.6548" class="black" /></g>
<g><title>26 (position.label in template: 26.U)</title><text x="65.54" y="77.63" class="green" >T</text></g>
<g><title>27 (position.label in template: 27.C)</title><text x="61.9" y="71.01" class="black" >C</text></g>
<g><title>28 (position.label in template: 28.A)</title><text x="61.8" y="63.45" class="black" >A</text></g>
<g><title>29 (position.label in template: 29.U)</title><text x="64.67" y="56.55" class="green" >T</text></g>
<g><title>30 (position.label in template: 30.U)</title><text x="70.5" y="51.73" class="green" >T</text></g>
<g><text x="67.4453" y="45.5786" class="numbering-label sequential" >30</text></g>
<g><line x1="69.6854" y1="50.0896" x2="68.2032" y2="47.1048" class="numbering-line sequential" /></g>
<g><title>31 (position.label in template: 31.U)</title><text x="77.86" y="50" class="green" >T</text></g>
<g><title>32 (position.label in template: 32.C)</title><text x="85.22" y="51.73" class="black" >C</text></g>
<g><title>33 (position.label in template: 33.U)</title><text x="91.05" y="56.55" class="green" >T</text></g>
<g><title>34 (position.label in template: 34.U)</title><text x="94.13" y="63.45" class="green" >T</text></g>
<g><title>35 (position.label in template: 35.U)</title><text x="93.82" y="71.01" class="green" >T</text></g>
<g><title>36 (position.label in template: 36.G)</title><text x="89.97" y="77.63" class="black" >G</text></g>
<g><title>37 (position.label in template: 37.G)</title><text x="83.77" y="81.96" class="black" >G</text></g>
<g><title>38 (position.label in template: 38.G)</title><text x="83.77" y="89.52" class="black" >G</text></g>
<g><title>39 (position.label in template: 39.A)</title><text x="84.19" y="97.08" class="green" >A</text></g>
<g><title>40 (position.label in template: 40.G)</title><text x="83.77" y="104.64" class="black" >G</text></g>
<g><title>41 (position.label in template: 41.C)</title><text x="83.98" y="112.2" class="black" >C</text></g>
<g><title>42 (position.label in template: 42.A)</title><text x="84.19" y="119.76" class="green" >A</text></g>
<g><title>43 (position.label in template: 43.G)</title><text x="83.77" y="127.32" class="black" >G</text></g>
<g><title>44 (position.label in template: 44.G)</title><text x="83.77" y="134.88" class="green" >G</text></g>
<g><title>45 (position.label in template: 45.A)</title><text x="91.73" y="134.43" class="black" >A</text></g>
<g><title>46 (position.label in template: 46.A)</title><text x="99.12" y="136.03" class="black" >A</text></g>
<g><title>47 (position.label in template: 47.U)</title><text x="105.61" y="139.55" class="green" >T</text></g>
<g><title>48 (position.label in template: 48.A)</title><text x="111.32" y="144.73" class="black" >A</text></g>
<g><title>49 (position.label in template: 49.C)</title><text x="115.02" y="151.2" class="black" >C</text></g>
<g><title>50 (position.label in template: 50.A)</title><text x="117.25" y="158.49" class="black" >A</text></g>
<g><text x="124.055" y="157.56" class="numbering-label sequential" >50</text></g>
<g><line x1="119.065" y1="158.242" x2="122.223" y2="157.81" class="numbering-line sequential" /></g>
<g><title>51 (position.label in template: 51.U)</title><text x="117.05" y="166.05" class="green" >T</text></g>
<g><title>52 (position.label in template: 52.C)</title><text x="115.02" y="173.33" class="black" >C</text></g>
<g><title>53 (position.label in template: 53.C)</title><text x="111.11" y="179.8" class="black" >C</text></g>
<g><title>54 (position.label in template: 54.A)</title><text x="105.81" y="184.99" class="black" >A</text></g>
<g><title>55 (position.label in template: 55.U)</title><text x="98.92" y="188.51" class="green" >T</text></g>
<g><title>56 (position.label in template: 56.A)</title><text x="91.73" y="190.1" class="black" >A</text></g>
<g><title>57 (position.label in template: 57.A)</title><text x="84.19" y="189.66" class="green" >A</text></g>
<g><title>58 (position.label in template: 58.C)</title><text x="83.98" y="197.22" class="black" >C</text></g>
<g><title>59 (position.label in template: 59.A)</title><text x="84.19" y="204.78" class="green" >A</text></g>
<g><title>60 (position.label in template: 60.U)</title><text x="83.98" y="212.34" class="green" >T</text></g>
<g><title>61 (position.label in template: 61.G)</title><text x="83.77" y="219.9" class="black" >G</text></g>
<g><title>62 (position.label in template: 62.C)</title><text x="83.98" y="227.46" class="black" >C</text></g>
<g><title>63 (position.label in template: 63.U)</title><text x="89.33" y="232.8" class="green" >T</text></g>
<g><title>64 (position.label in template: 64.A)</title><text x="97.09" y="232.8" class="black" >A</text></g>
<g><title>65 (position.label in template: 65.C)</title><text x="104.45" y="232.8" class="black" >C</text></g>
<g><title>66 (position.label in template: 66.A)</title><text x="112.21" y="232.8" class="black" >A</text></g>
<g><title>67 (position.label in template: 67.U)</title><text x="119.57" y="232.8" class="green" >T</text></g>
<g><title>68 (position.label in template: 68.U)</title><text x="127.13" y="232.8" class="green" >T</text></g>
<g><title>69 (position.label in template: 69.A)</title><text x="134.89" y="232.8" class="black" >A</text></g>
<g><title>70 (position.label in template: 70.A)</title><text x="142.45" y="232.8" class="black" >A</text></g>
<g><title>71 (position.label in template: 71.A)</title><text x="150.01" y="232.8" class="black" >A</text></g>
<g><title>72 (position.label in template: 72.A)</title><text x="157.57" y="232.8" class="black" >A</text></g>
<g><title>73 (position.label in template: 73.A)</title><text x="165.13" y="232.8" class="black" >A</text></g>
<g><title>74 (position.label in template: 74.A)</title><text x="172.69" y="232.8" class="black" >A</text></g>
<g><title>75 (position.label in template: 75.A)</title><text x="180.25" y="232.8" class="black" >A</text></g>
<g><title>76 (position.label in template: 76.G)</title><text x="185.18" y="227.46" class="black" >G</text></g>
<g><line x1="187.215" y1="227.155" x2="195.595" y2="227.155" class="black" /></g>
<g><title>77 (position.label in template: 77.G)</title><text x="185.18" y="219.9" class="black" >G</text></g>
<g><line x1="187.215" y1="219.595" x2="195.595" y2="219.595" class="black" /></g>
<g><title>78 (position.label in template: 78.A)</title><text x="185.6" y="212.34" class="green" >A</text></g>
<g><line x1="187.635" y1="212.035" x2="195.595" y2="212.035" class="black" /></g>
<g><title>79 (position.label in template: 79.G)</title><text x="185.18" y="204.78" class="black" >G</text></g>
<g><line x1="187.215" y1="204.475" x2="195.595" y2="204.475" class="black" /></g>
<g><title>80 (position.label in template: 80.U)</title><text x="178.4" y="201.91" class="green" >T</text></g>
<g><title>81 (position.label in template: 81.U)</title><text x="172.54" y="197.14" class="green" >T</text></g>
<g><title>82 (position.label in template: 82.C)</title><text x="168.32" y="190.86" class="black" >C</text></g>
<g><title>83 (position.label in template: 83.U)</title><text x="166.12" y="183.63" class="green" >T</text></g>
<g><title>84 (position.label in template: 84.C)</title><text x="166.12" y="176.07" class="black" >C</text></g>
<g><title>85 (position.label in template: 85.A)</title><text x="168.53" y="168.83" class="black" >A</text></g>
<g><title>86 (position.label in template: 86.G)</title><text x="172.33" y="162.56" class="black" >G</text></g>
<g><title>87 (position.label in template: 87.G)</title><text x="178.19" y="157.78" class="black" >G</text></g>
<g><title>88 (position.label in template: 88.G)</title><text x="185.18" y="154.92" class="green" >G</text></g>
<g><line x1="187.215" y1="154.615" x2="195.595" y2="154.615" class="black" /></g>
<g><title>89 (position.label in template: 89.C)</title><text x="185.39" y="147.36" class="black" >C</text></g>
<g><line x1="187.425" y1="147.055" x2="195.385" y2="147.055" class="black" /></g>
<g><title>90 (position.label in template: 90.U)</title><text x="180.69" y="141.44" class="green" >T</text></g>
<g><title>91 (position.label in template: 91.G)</title><text x="180.48" y="133.88" class="black" >G</text></g>
<g><title>92 (position.label in template: 92.C)</title><text x="185.39" y="127.96" class="black" >C</text></g>
<g><line x1="187.425" y1="127.655" x2="195.385" y2="127.655" class="black" /></g>
<g><title>93 (position.label in template: 93.C)</title><text x="185.39" y="120.4" class="black" >C</text></g>
<g><line x1="187.425" y1="120.095" x2="195.385" y2="120.095" class="black" /></g>
<g><title>94 (position.label in template: 94.A)</title><text x="185.6" y="112.84" class="green" >A</text></g>
<g><line x1="187.635" y1="112.535" x2="195.595" y2="112.535" class="black" /></g>
<g><title>95 (position.label in template: 95.A)</title><text x="185.6" y="105.28" class="green" >A</text></g>
<g><line x1="187.635" y1="104.975" x2="195.595" y2="104.975" class="black" /></g>
<g><title>96 (position.label in template: 96.C)</title><text x="185.39" y="97.72" class="black" >C</text></g>
<g><line x1="187.425" y1="97.4147" x2="195.385" y2="97.4147" class="black" /></g>
<g><title>97 (position.label in template: 97.C)</title><text x="185.39" y="90.16" class="black" >C</text></g>
<g><line x1="187.425" y1="89.8547" x2="195.385" y2="89.8547" class="black" /></g>
<g><title>98 (position.label in template: 98.U)</title><text x="185.39" y="82.6" class="green" >T</text></g>
<g><line x1="187.425" y1="82.2947" x2="195.805" y2="82.2947" class="black" /></g>
<g><title>99 (position.label in template: 99.U)</title><text x="185.39" y="75.04" class="green" >T</text></g>
<g><line x1="187.425" y1="74.7348" x2="195.385" y2="74.7348" class="black" /></g>
<g><title>100 (position.label in template: 100.A)</title><text x="181.34" y="68.8" class="black" >A</text></g>
<g><text x="174.664" y="70.4131" class="numbering-label sequential" >100</text></g>
<g><line x1="179.56" y1="69.2302" x2="177.411" y2="69.7493" class="numbering-line sequential" /></g>
<g><title>101 (position.label in template: 101.C)</title><text x="182.07" y="61.3" class="black" >C</text></g>
<g><title>102 (position.label in template: 102.A)</title><text x="187.94" y="56.29" class="black" >A</text></g>
<g><title>103 (position.label in template: 103.G)</title><text x="195.08" y="56.29" class="black" >G</text></g>
<g><title>104 (position.label in template: 104.U)</title><text x="200.96" y="61.3" class="green" >T</text></g>
<g><title>105 (position.label in template: 105.A)</title><text x="202.1" y="68.8" class="black" >A</text></g>
<g><title>106 (position.label in template: 106.G)</title><text x="197.42" y="75.04" class="green" >G</text></g>
<g><title>107 (position.label in template: 107.A)</title><text x="197.84" y="82.6" class="green" >A</text></g>
<g><title>108 (position.label in template: 108.G)</title><text x="197.42" y="90.16" class="black" >G</text></g>
<g><title>109 (position.label in template: 109.G)</title><text x="197.42" y="97.72" class="black" >G</text></g>
<g><title>110 (position.label in template: 110.U)</title><text x="197.63" y="105.28" class="green" >T</text></g>
<g><title>111 (position.label in template: 111.U)</title><text x="197.63" y="112.84" class="green" >T</text></g>
<g><title>112 (position.label in template: 112.G)</title><text x="197.42" y="120.4" class="black" >G</text></g>
<g><title>113 (position.label in template: 113.A)</title><text x="204.39" y="124.18" class="black" >A</text></g>
<g><title>114 (position.label in template: 114.G)</title><text x="197.42" y="127.96" class="black" >G</text></g>
<g><title>115 (position.label in template: 115.U)</title><text x="202.34" y="133.88" class="green" >T</text></g>
<g><title>116 (position.label in template: 116.A)</title><text x="202.54" y="141.44" class="black" >A</text></g>
<g><title>117 (position.label in template: 117.G)</title><text x="197.42" y="147.36" class="black" >G</text></g>
<g><title>118 (position.label in template: 118.U)</title><text x="197.63" y="154.92" class="green" >T</text></g>
<g><title>119 (position.label in template: 119.A)</title><text x="205.24" y="156.44" class="black" >A</text></g>
<g><title>120 (position.label in template: 120.G)</title><text x="211.44" y="160.11" class="black" >G</text></g>
<g><title>121 (position.label in template: 121.U)</title><text x="216.86" y="165.59" class="green" >T</text></g>
<g><title>122 (position.label in template: 122.A)</title><text x="220.39" y="172.37" class="black" >A</text></g>
<g><title>123 (position.label in template: 123.U)</title><text x="221.33" y="179.85" class="green" >T</text></g>
<g><title>124 (position.label in template: 124.A)</title><text x="220.39" y="187.32" class="black" >A</text></g>
<g><title>125 (position.label in template: 125.U)</title><text x="216.86" y="194.11" class="green" >T</text></g>
<g><title>126 (position.label in template: 126.U)</title><text x="211.65" y="199.59" class="green" >T</text></g>
<g><title>127 (position.label in template: 127.U)</title><text x="205.04" y="203.26" class="green" >T</text></g>
<g><title>128 (position.label in template: 128.C)</title><text x="197.63" y="204.78" class="black" >C</text></g>
<g><title>129 (position.label in template: 129.U)</title><text x="197.63" y="212.34" class="green" >T</text></g>
<g><title>130 (position.label in template: 130.C)</title><text x="197.63" y="219.9" class="black" >C</text></g>
<g><title>131 (position.label in template: 131.C)</title><text x="197.63" y="227.46" class="black" >C</text></g>
<g><title>132 (position.label in template: 132.U)</title><text x="202.982" y="232.802" class="green" >T</text></g>
<g><title>133 (position.label in template: 133.A)</title><text x="210.544" y="232.802" class="black" >A</text></g>
<g><title>134 (position.label in template: 134.C)</title><text x="218.105" y="232.802" class="black" >C</text></g>
<g><title>135 (position.label in template: 135.A)</title><text x="225.667" y="232.802" class="black" >A</text></g>
<g><title>136 (position.label in template: 136.U)</title><text x="233.229" y="232.802" class="green" >T</text></g>
<g><title>137 (position.label in template: 137.A)</title><text x="240.791" y="232.802" class="black" >A</text></g>
<g><title>138 (position.label in template: 138.A)</title><text x="248.352" y="232.802" class="black" >A</text></g>
<g><title>139 (position.label in template: 139.3')</title><text x="255.914" y="232.802" class="green" >3'</text></g>
<g><line x1="53.2029" y1="232.608" x2="56.6946" y2="232.608" class="gray" /></g>
<g><line x1="60.7646" y1="232.608" x2="64.2564" y2="232.608" class="gray" /></g>
<g><line x1="67.7012" y1="231.14" x2="70.1202" y2="228.622" class="gray" /></g>
<g><line x1="71.5865" y1="225.121" x2="71.6835" y2="221.629" class="gray" /></g>
<g><line x1="71.7965" y1="217.561" x2="71.8935" y2="214.069" class="gray" /></g>
<g><line x1="71.8935" y1="210.001" x2="71.7965" y2="206.509" class="gray" /></g>
<g><line x1="71.6835" y1="202.441" x2="71.5865" y2="198.949" class="gray" /></g>
<g><line x1="71.5865" y1="194.881" x2="71.6835" y2="191.389" class="gray" /></g>
<g><line x1="69.8255" y1="188.665" x2="66.3545" y2="187.415" class="gray" /></g>
<g><line x1="62.7893" y1="185.535" x2="59.9607" y2="183.495" class="gray" /></g>
<g><line x1="57.1096" y1="180.662" x2="55.2004" y2="178.048" class="gray" /></g>
<g><line x1="53.198" y1="174.534" x2="51.822" y2="171.325" class="gray" /></g>
<g><line x1="50.7454" y1="167.438" x2="50.2746" y2="163.981" class="gray" /></g>
<g><line x1="50.2188" y1="159.942" x2="50.5912" y2="156.498" class="gray" /></g>
<g><line x1="51.6589" y1="152.625" x2="53.1511" y2="149.374" class="gray" /></g>
<g><line x1="55.2729" y1="145.937" x2="57.4571" y2="143.213" class="gray" /></g>
<g><line x1="60.3593" y1="140.406" x2="63.0207" y2="138.414" class="gray" /></g>
<g><line x1="66.5588" y1="136.489" x2="69.8312" y2="135.28" class="gray" /></g>
<g><line x1="71.74" y1="132.54" x2="71.74" y2="129.05" class="gray" /></g>
<g><line x1="71.74" y1="124.98" x2="71.74" y2="121.49" class="gray" /></g>
<g><line x1="71.6835" y1="117.421" x2="71.5865" y2="113.929" class="gray" /></g>
<g><line x1="71.5865" y1="109.861" x2="71.6835" y2="106.369" class="gray" /></g>
<g><line x1="71.74" y1="102.3" x2="71.74" y2="98.8098" class="gray" /></g>
<g><line x1="71.74" y1="94.7398" x2="71.74" y2="91.2498" class="gray" /></g>
<g><line x1="71.74" y1="87.1798" x2="71.74" y2="83.6898" class="gray" /></g>
<g><line x1="70.0716" y1="80.4896" x2="67.2084" y2="78.4899" class="gray" /></g>
<g><line x1="64.5595" y1="75.5415" x2="62.8805" y2="72.488" class="gray" /></g>
<g><line x1="61.8731" y1="68.6699" x2="61.8269" y2="65.1796" class="gray" /></g>
<g><line x1="62.5815" y1="61.2658" x2="63.8885" y2="58.1237" class="gray" /></g>
<g><line x1="66.2384" y1="54.9481" x2="68.9316" y2="52.7214" class="gray" /></g>
<g><line x1="72.481" y1="50.9591" x2="75.879" y2="50.1604" class="gray" /></g>
<g><line x1="79.841" y1="50.1604" x2="83.239" y2="50.9591" class="gray" /></g>
<g><line x1="86.7884" y1="52.7214" x2="89.4816" y2="54.9481" class="gray" /></g>
<g><line x1="91.8795" y1="58.103" x2="93.3005" y2="61.2865" class="gray" /></g>
<g><line x1="94.0466" y1="65.178" x2="93.9034" y2="68.6715" class="gray" /></g>
<g><line x1="92.7969" y1="72.4639" x2="90.9931" y2="75.5656" class="gray" /></g>
<g><line x1="88.3016" y1="78.4899" x2="85.4384" y2="80.4896" class="gray" /></g>
<g><line x1="83.77" y1="83.6898" x2="83.77" y2="87.1798" class="gray" /></g>
<g><line x1="83.8829" y1="91.2466" x2="84.0771" y2="94.7429" class="gray" /></g>
<g><line x1="84.0771" y1="98.8066" x2="83.8829" y2="102.303" class="gray" /></g>
<g><line x1="83.8265" y1="106.369" x2="83.9235" y2="109.861" class="gray" /></g>
<g><line x1="84.0365" y1="113.929" x2="84.1335" y2="117.421" class="gray" /></g>
<g><line x1="84.0771" y1="121.487" x2="83.8829" y2="124.983" class="gray" /></g>
<g><line x1="83.77" y1="129.05" x2="83.77" y2="132.54" class="gray" /></g>
<g><line x1="85.8018" y1="134.46" x2="89.6982" y2="134.24" class="gray" /></g>
<g><line x1="93.7189" y1="134.555" x2="97.1311" y2="135.294" class="gray" /></g>
<g><line x1="100.909" y1="136.695" x2="103.821" y2="138.275" class="gray" /></g>
<g><line x1="107.117" y1="140.612" x2="109.813" y2="143.057" class="gray" /></g>
<g><line x1="112.33" y1="146.191" x2="114.01" y2="149.128" class="gray" /></g>
<g><line x1="115.615" y1="152.841" x2="116.655" y2="156.239" class="gray" /></g>
<g><line x1="117.196" y1="160.219" x2="117.104" y2="163.71" class="gray" /></g>
<g><line x1="116.503" y1="167.705" x2="115.567" y2="171.065" class="gray" /></g>
<g><line x1="113.967" y1="174.766" x2="112.163" y2="177.753" class="gray" /></g>
<g><line x1="109.656" y1="180.919" x2="107.264" y2="183.261" class="gray" /></g>
<g><line x1="103.998" y1="185.611" x2="100.732" y2="187.279" class="gray" /></g>
<g><line x1="96.933" y1="188.644" x2="93.717" y2="189.355" class="gray" /></g>
<g><line x1="89.6985" y1="189.676" x2="86.2215" y2="189.473" class="gray" /></g>
<g><line x1="84.1335" y1="191.389" x2="84.0365" y2="194.881" class="gray" /></g>
<g><line x1="84.0365" y1="198.949" x2="84.1335" y2="202.441" class="gray" /></g>
<g><line x1="84.1335" y1="206.509" x2="84.0365" y2="210.001" class="gray" /></g>
<g><line x1="83.9235" y1="214.069" x2="83.8265" y2="217.561" class="gray" /></g>
<g><line x1="83.8265" y1="221.629" x2="83.9235" y2="225.121" class="gray" /></g>
<g><line x1="85.4203" y1="228.592" x2="87.8897" y2="231.057" class="gray" /></g>
<g><line x1="91.365" y1="232.495" x2="95.055" y2="232.495" class="gray" /></g>
<g><line x1="99.125" y1="232.495" x2="102.415" y2="232.495" class="gray" /></g>
<g><line x1="106.485" y1="232.495" x2="110.175" y2="232.495" class="gray" /></g>
<g><line x1="114.245" y1="232.495" x2="117.535" y2="232.495" class="gray" /></g>
<g><line x1="121.605" y1="232.495" x2="125.095" y2="232.495" class="gray" /></g>
<g><line x1="129.165" y1="232.495" x2="132.855" y2="232.495" class="gray" /></g>
<g><line x1="136.925" y1="232.495" x2="140.415" y2="232.495" class="gray" /></g>
<g><line x1="144.485" y1="232.495" x2="147.975" y2="232.495" class="gray" /></g>
<g><line x1="152.045" y1="232.495" x2="155.535" y2="232.495" class="gray" /></g>
<g><line x1="159.605" y1="232.495" x2="163.095" y2="232.495" class="gray" /></g>
<g><line x1="167.165" y1="232.495" x2="170.655" y2="232.495" class="gray" /></g>
<g><line x1="174.725" y1="232.495" x2="178.215" y2="232.495" class="gray" /></g>
<g><line x1="181.63" y1="231" x2="183.8" y2="228.65" class="gray" /></g>
<g><line x1="185.18" y1="225.12" x2="185.18" y2="221.63" class="gray" /></g>
<g><line x1="185.293" y1="217.563" x2="185.487" y2="214.067" class="gray" /></g>
<g><line x1="185.487" y1="210.003" x2="185.293" y2="206.507" class="gray" /></g>
<g><line x1="183.306" y1="203.681" x2="180.274" y2="202.398" class="gray" /></g>
<g><line x1="176.822" y1="200.32" x2="174.118" y2="198.119" class="gray" /></g>
<g><line x1="171.405" y1="195.146" x2="169.455" y2="192.244" class="gray" /></g>
<g><line x1="167.728" y1="188.608" x2="166.712" y2="185.272" class="gray" /></g>
<g><line x1="166.12" y1="181.29" x2="166.12" y2="177.8" class="gray" /></g>
<g><line x1="166.763" y1="173.834" x2="167.887" y2="170.456" class="gray" /></g>
<g><line x1="169.585" y1="166.784" x2="171.275" y2="163.995" class="gray" /></g>
<g><line x1="173.907" y1="160.968" x2="176.613" y2="158.761" class="gray" /></g>
<g><line x1="180.073" y1="156.704" x2="183.297" y2="155.385" class="gray" /></g>
<g><line x1="185.237" y1="152.581" x2="185.333" y2="149.089" class="gray" /></g>
<g><line x1="184.125" y1="145.461" x2="181.955" y2="142.729" class="gray" /></g>
<g><line x1="180.633" y1="139.101" x2="180.537" y2="135.609" class="gray" /></g>
<g><line x1="181.779" y1="132.008" x2="184.091" y2="129.221" class="gray" /></g>
<g><line x1="185.39" y1="125.62" x2="185.39" y2="122.13" class="gray" /></g>
<g><line x1="185.447" y1="118.061" x2="185.543" y2="114.569" class="gray" /></g>
<g><line x1="185.6" y1="110.5" x2="185.6" y2="107.01" class="gray" /></g>
<g><line x1="185.543" y1="102.941" x2="185.447" y2="99.449" class="gray" /></g>
<g><line x1="185.39" y1="95.3798" x2="185.39" y2="91.8897" class="gray" /></g>
<g><line x1="185.39" y1="87.8197" x2="185.39" y2="84.3297" class="gray" /></g>
<g><line x1="185.39" y1="80.2597" x2="185.39" y2="76.7698" class="gray" /></g>
<g><line x1="184.282" y1="73.0278" x2="182.448" y2="70.2017" class="gray" /></g>
<g><line x1="181.537" y1="66.4693" x2="181.873" y2="63.0202" class="gray" /></g>
<g><line x1="183.618" y1="59.6736" x2="186.392" y2="57.3059" class="gray" /></g>
<g><line x1="189.975" y1="55.9848" x2="193.045" y2="55.9848" class="gray" /></g>
<g><line x1="196.629" y1="57.3045" x2="199.411" y2="59.675" class="gray" /></g>
<g><line x1="201.266" y1="63.0066" x2="201.794" y2="66.4829" class="gray" /></g>
<g><line x1="200.879" y1="70.1227" x2="198.641" y2="73.1068" class="gray" /></g>
<g><line x1="197.533" y1="76.7666" x2="197.727" y2="80.2629" class="gray" /></g>
<g><line x1="197.727" y1="84.3266" x2="197.533" y2="87.8229" class="gray" /></g>
<g><line x1="197.42" y1="91.8897" x2="197.42" y2="95.3798" class="gray" /></g>
<g><line x1="197.477" y1="99.449" x2="197.573" y2="102.941" class="gray" /></g>
<g><line x1="197.63" y1="107.01" x2="197.63" y2="110.5" class="gray" /></g>
<g><line x1="197.573" y1="114.569" x2="197.477" y2="118.061" class="gray" /></g>
<g><line x1="199.209" y1="121.065" x2="202.601" y2="122.905" class="gray" /></g>
<g><line x1="202.601" y1="124.845" x2="199.209" y2="126.685" class="gray" /></g>
<g><line x1="198.721" y1="129.22" x2="201.039" y2="132.01" class="gray" /></g>
<g><line x1="202.394" y1="135.609" x2="202.486" y2="139.1" class="gray" /></g>
<g><line x1="201.209" y1="142.674" x2="198.751" y2="145.516" class="gray" /></g>
<g><line x1="197.477" y1="149.089" x2="197.573" y2="152.581" class="gray" /></g>
<g><line x1="199.626" y1="155.013" x2="203.244" y2="155.736" class="gray" /></g>
<g><line x1="206.991" y1="157.171" x2="209.689" y2="158.768" class="gray" /></g>
<g><line x1="212.871" y1="161.252" x2="215.429" y2="163.838" class="gray" /></g>
<g><line x1="217.8" y1="167.09" x2="219.45" y2="170.26" class="gray" /></g>
<g><line x1="220.644" y1="174.084" x2="221.076" y2="177.526" class="gray" /></g>
<g><line x1="221.076" y1="181.564" x2="220.644" y2="184.996" class="gray" /></g>
<g><line x1="219.451" y1="188.82" x2="217.799" y2="191.999" class="gray" /></g>
<g><line x1="215.458" y1="195.28" x2="213.052" y2="197.81" class="gray" /></g>
<g><line x1="209.871" y1="200.273" x2="206.819" y2="201.967" class="gray" /></g>
<g><line x1="203.047" y1="203.364" x2="199.623" y2="204.066" class="gray" /></g>
<g><line x1="197.63" y1="206.51" x2="197.63" y2="210" class="gray" /></g>
<g><line x1="197.63" y1="214.07" x2="197.63" y2="217.56" class="gray" /></g>
<g><line x1="197.63" y1="221.63" x2="197.63" y2="225.12" class="gray" /></g>
<g><line x1="199.07" y1="228.592" x2="201.542" y2="231.059" class="gray" /></g>
<g><line x1="205.017" y1="232.497" x2="208.509" y2="232.497" class="gray" /></g>
<g><line x1="212.579" y1="232.497" x2="216.07" y2="232.497" class="gray" /></g>
<g><line x1="220.14" y1="232.497" x2="223.632" y2="232.497" class="gray" /></g>
<g><line x1="227.702" y1="232.497" x2="231.194" y2="232.497" class="gray" /></g>
<g><line x1="235.264" y1="232.497" x2="238.756" y2="232.497" class="gray" /></g>
<g><line x1="242.826" y1="232.497" x2="246.317" y2="232.497" class="gray" /></g>
<g><line x1="250.387" y1="232.497" x2="253.879" y2="232.497" class="gray" /></g>
</svg>
