<svg
	xmlns="http://www.w3.org/2000/svg"
	width="228.44"
	height="242.034">
<g><style type="text/css" >
<!-- create color definitions -->
<![CDATA[
circle.red {stroke: rgb(255, 0, 255); fill: none; }
circle.green {stroke: rgb(0, 255, 0); fill: none; }
circle.blue {stroke: rgb(0, 0, 255); fill: none; }
circle.black {stroke: rgb(0, 0, 0); fill: none; }
circle.gray {stroke: rgb(204, 204, 204); fill: none; }
circle.brown {stroke: rgb(211.65, 104.55, 30.6); fill: none; }
line.red {stroke: rgb(255, 0, 255); stroke-width: 0.380806; }
line.green {stroke: rgb(0, 255, 0); stroke-width: 0.380806; }
line.blue {stroke: rgb(0, 0, 255); stroke-width: 0.380806; }
line.black {stroke: rgb(0, 0, 0); stroke-width: 0.380806; }
line.gray {stroke: rgb(204, 204, 204); stroke-width: 0.380806; }
line.brown {stroke: rgb(211.65, 104.55, 30.6); stroke-width: 0.380806; }
line {stroke: rgb(0, 0, 0); }
text.red {fill: rgb(255, 0, 255); font-size: 3.046450px; font-weight: bold; font-family: Helvetica; }
text.green {fill: rgb(0, 255, 0); font-size: 3.046450px; font-weight: bold; font-family: Helvetica; }
text.blue {fill: rgb(0, 0, 255); font-size: 3.046450px; font-weight: bold; font-family: Helvetica; }
text.black {fill: rgb(0, 0, 0); font-size: 3.046450px; font-weight: bold; font-family: Helvetica; }
text.gray {fill: rgb(204, 204, 204); font-size: 3.046450px; font-weight: bold; font-family: Helvetica; }
text.brown {fill: rgb(211.65, 104.55, 30.6); font-size: 3.046450px; font-weight: bold; font-family: Helvetica; }
text {fill: rgb(0, 0, 0); font-size: 3.046450px; font-weight: bold; font-family: Helvetica; text-anchor: middle; alignment-baseline: middle; }

.pseudoknot_connection{stroke-linecap: round; stroke-opacity: 0.2; stroke-width: 1.5; }
.pseudoknot_segment1{stroke-linecap: round; stroke-opacity: 0.4; stroke-width: 3.04645; }
.pseudoknot_segment2{stroke-linecap: round; stroke-opacity: 0.4; stroke-width: 3.04645; }
line.numbering-line{stroke: rgb(204, 204, 204); stroke-width: 0.190403; }
line.predicted{stroke: rgb(0, 0, 0); stroke-dasharray: 2; }
polyline{fill: none; stroke-linejoin: round; }
template{visibility: hidden; }
text.numbering-label{fill: rgb(204, 204, 204); }
]]>
</style></g>
<g><title>0 (position.label in template: 0.5')</title><text x="112.05" y="194.14" class="green" >5'</text></g>
<g><title>1 (position.label in template: 1.G)</title><text x="112.05" y="186.59" class="black" >G</text></g>
<g><line x1="114.081" y1="186.285" x2="122.469" y2="186.285" class="black" /></g>
<g><title>2 (position.label in template: 2.G)</title><text x="112.05" y="179.03" class="black" >G</text></g>
<g><line x1="114.081" y1="178.725" x2="122.259" y2="178.725" class="black" /></g>
<g><title>3 (position.label in template: 3.C)</title><text x="112.26" y="171.47" class="black" >C</text></g>
<g><line x1="114.291" y1="171.165" x2="122.259" y2="171.165" class="black" /></g>
<g><title>4 (position.label in template: 4.C)</title><text x="112.26" y="163.91" class="black" >C</text></g>
<g><line x1="114.291" y1="163.605" x2="122.259" y2="163.605" class="black" /></g>
<g><title>5 (position.label in template: 5.G)</title><text x="112.05" y="156.35" class="green" >G</text></g>
<g><line x1="114.081" y1="156.045" x2="122.469" y2="156.045" class="black" /></g>
<g><title>6 (position.label in template: 6.U)</title><text x="112.26" y="148.79" class="green" >T</text></g>
<g><line x1="114.291" y1="148.485" x2="122.259" y2="148.485" class="black" /></g>
<g><title>7 (position.label in template: 7.C)</title><text x="112.26" y="141.23" class="black" >C</text></g>
<g><line x1="114.291" y1="140.925" x2="122.259" y2="140.925" class="black" /></g>
<g><title>8 (position.label in template: 8.U)</title><text x="105.44" y="137.97" class="green" >T</text></g>
<g><title>9 (position.label in template: 9.A)</title><text x="100.3" y="132.62" class="black" >A</text></g>
<g><title>10 (position.label in template: 10.G)</title><text x="96.62" y="125.8" class="black" >G</text></g>
<g><line x1="96.6548" y1="123.465" x2="96.7952" y2="115.286" class="black" /></g>
<g><text x="93.0152" y="131.63" class="numbering-label sequential" >10</text></g>
<g><line x1="95.6587" y1="127.355" x2="93.957" y2="130.107" class="numbering-line sequential" /></g>
<g><title>11 (position.label in template: 11.C)</title><text x="89.27" y="125.8" class="black" >C</text></g>
<g><line x1="89.2352" y1="123.465" x2="89.0948" y2="115.286" class="black" /></g>
<g><title>12 (position.label in template: 12.U)</title><text x="81.71" y="125.8" class="green" >T</text></g>
<g><line x1="81.7448" y1="123.465" x2="81.8852" y2="115.286" class="black" /></g>
<g><title>13 (position.label in template: 13.C)</title><text x="74.15" y="125.8" class="green" >C</text></g>
<g><line x1="74.15" y1="123.464" x2="74.15" y2="115.286" class="black" /></g>
<g><title>14 (position.label in template: 14.G)</title><text x="68.6" y="131.16" class="black" >G</text></g>
<g><title>15 (position.label in template: 15.G)</title><text x="61.19" y="132.64" class="black" >G</text></g>
<g><title>16 (position.label in template: 16.U)</title><text x="54.41" y="129.75" class="green" >T</text></g>
<g><title>17 (position.label in template: 17.C)</title><text x="50.21" y="123.46" class="black" >C</text></g>
<g><title>18 (position.label in template: 18.G)</title><text x="50" y="115.9" class="black" >G</text></g>
<g><title>19 (position.label in template: 19.G)</title><text x="54.2" y="109.62" class="black" >G</text></g>
<g><title>20 (position.label in template: 20.U)</title><text x="61.4" y="106.73" class="green" >T</text></g>
<g><text x="60.7508" y="99.9063" class="numbering-label sequential" >20</text></g>
<g><line x1="61.2269" y1="104.91" x2="60.8957" y2="101.43" class="numbering-line sequential" /></g>
<g><title>21 (position.label in template: 21.A)</title><text x="69.02" y="108.21" class="black" >A</text></g>
<g><title>22 (position.label in template: 22.U)</title><text x="74.15" y="113.56" class="green" >T</text></g>
<g><title>23 (position.label in template: 23.A)</title><text x="81.92" y="113.56" class="green" >A</text></g>
<g><title>24 (position.label in template: 24.G)</title><text x="89.06" y="113.56" class="black" >G</text></g>
<g><title>25 (position.label in template: 25.C)</title><text x="96.83" y="113.56" class="black" >C</text></g>
<g><title>26 (position.label in template: 26.A)</title><text x="100.3" y="106.75" class="black" >A</text></g>
<g><title>27 (position.label in template: 27.C)</title><text x="105.44" y="101.4" class="black" >C</text></g>
<g><line x1="107.351" y1="100.409" x2="114.859" y2="97.712" class="black" /></g>
<g><title>28 (position.label in template: 28.A)</title><text x="103.13" y="94.27" class="green" >A</text></g>
<g><line x1="105.042" y1="93.2793" x2="112.558" y2="90.5814" class="black" /></g>
<g><title>29 (position.label in template: 29.A)</title><text x="100.62" y="87.14" class="green" >A</text></g>
<g><line x1="102.531" y1="86.1487" x2="110.039" y2="83.452" class="black" /></g>
<g><title>30 (position.label in template: 30.G)</title><text x="97.69" y="80.01" class="black" >G</text></g>
<g><line x1="99.6091" y1="79.0406" x2="107.521" y2="76.3001" class="black" /></g>
<g><text x="91.2872" y="82.4571" class="numbering-label sequential" >30</text></g>
<g><line x1="95.9826" y1="80.6626" x2="93.115" y2="81.7585" class="numbering-line sequential" /></g>
<g><title>31 (position.label in template: 31.G)</title><text x="95.17" y="72.88" class="black" >G</text></g>
<g><line x1="97.0891" y1="71.9106" x2="105.001" y2="69.1701" class="black" /></g>
<g><title>32 (position.label in template: 32.A)</title><text x="89.06" y="69.07" class="black" >A</text></g>
<g><title>33 (position.label in template: 33.U)</title><text x="85.96" y="62.08" class="green" >T</text></g>
<g><title>34 (position.label in template: 34.C)</title><text x="87.88" y="54.77" class="black" >C</text></g>
<g><title>35 (position.label in template: 35.U)</title><text x="93.84" y="50.11" class="green" >T</text></g>
<g><title>36 (position.label in template: 36.U)</title><text x="101.4" y="50" class="green" >T</text></g>
<g><title>37 (position.label in template: 37.A)</title><text x="107.69" y="54.49" class="black" >A</text></g>
<g><title>38 (position.label in template: 38.A)</title><text x="109.82" y="61.75" class="black" >A</text></g>
<g><title>39 (position.label in template: 39.C)</title><text x="106.92" y="68.81" class="black" >C</text></g>
<g><title>40 (position.label in template: 40.C)</title><text x="109.44" y="75.94" class="black" >C</text></g>
<g><title>41 (position.label in template: 41.U)</title><text x="111.95" y="83.07" class="green" >T</text></g>
<g><title>42 (position.label in template: 42.U)</title><text x="114.47" y="90.2" class="green" >T</text></g>
<g><title>43 (position.label in template: 43.G)</title><text x="116.77" y="97.33" class="black" >G</text></g>
<g><title>44 (position.label in template: 44.U)</title><text x="124.5" y="98.14" class="green" >T</text></g>
<g><title>45 (position.label in template: 45.G)</title><text x="131.11" y="101.4" class="black" >G</text></g>
<g><title>46 (position.label in template: 46.G)</title><text x="136.45" y="106.75" class="black" >G</text></g>
<g><title>47 (position.label in template: 47.U)</title><text x="139.93" y="113.56" class="green" >T</text></g>
<g><title>48 (position.label in template: 48.C)</title><text x="140.74" y="121.08" class="black" >C</text></g>
<g><title>49 (position.label in template: 49.U)</title><text x="139" y="128.44" class="green" >T</text></g>
<g><line x1="137.726" y1="129.717" x2="132.594" y2="136.084" class="black" /></g>
<g><title>50 (position.label in template: 50.U)</title><text x="144.89" y="133.18" class="green" >T</text></g>
<g><line x1="143.636" y1="134.473" x2="138.664" y2="140.808" class="black" /></g>
<g><text x="149.239" y="127.882" class="numbering-label sequential" >50</text></g>
<g><line x1="146.05" y1="131.767" x2="147.989" y2="129.405" class="numbering-line sequential" /></g>
<g><title>51 (position.label in template: 51.G)</title><text x="150.56" y="137.93" class="black" >G</text></g>
<g><line x1="149.307" y1="139.224" x2="144.343" y2="145.557" class="black" /></g>
<g><title>52 (position.label in template: 52.G)</title><text x="156.45" y="142.67" class="black" >G</text></g>
<g><line x1="155.197" y1="143.964" x2="150.233" y2="150.297" class="black" /></g>
<g><title>53 (position.label in template: 53.G)</title><text x="162.34" y="147.41" class="black" >G</text></g>
<g><line x1="161.087" y1="148.704" x2="156.123" y2="155.037" class="black" /></g>
<g><title>54 (position.label in template: 54.U)</title><text x="170.1" y="147.22" class="green" >T</text></g>
<g><title>55 (position.label in template: 55.U)</title><text x="176.24" y="151.65" class="green" >T</text></g>
<g><title>56 (position.label in template: 56.U)</title><text x="178.44" y="158.88" class="green" >T</text></g>
<g><title>57 (position.label in template: 57.G)</title><text x="175.62" y="165.97" class="black" >G</text></g>
<g><title>58 (position.label in template: 58.A)</title><text x="169.66" y="170.04" class="black" >A</text></g>
<g><title>59 (position.label in template: 59.G)</title><text x="161.71" y="169.42" class="black" >G</text></g>
<g><title>60 (position.label in template: 60.C)</title><text x="156.29" y="164.37" class="black" >C</text></g>
<g><title>61 (position.label in template: 61.C)</title><text x="154.87" y="156.94" class="black" >C</text></g>
<g><title>62 (position.label in template: 62.C)</title><text x="148.98" y="152.2" class="black" >C</text></g>
<g><title>63 (position.label in template: 63.C)</title><text x="143.09" y="147.46" class="black" >C</text></g>
<g><title>64 (position.label in template: 64.A)</title><text x="137.41" y="142.71" class="green" >A</text></g>
<g><title>65 (position.label in template: 65.C)</title><text x="131.32" y="137.97" class="green" >C</text></g>
<g><title>66 (position.label in template: 66.G)</title><text x="124.29" y="141.23" class="black" >G</text></g>
<g><title>67 (position.label in template: 67.G)</title><text x="124.29" y="148.79" class="green" >G</text></g>
<g><title>68 (position.label in template: 68.U)</title><text x="124.5" y="156.35" class="green" >T</text></g>
<g><title>69 (position.label in template: 69.G)</title><text x="124.29" y="163.91" class="black" >G</text></g>
<g><title>70 (position.label in template: 70.G)</title><text x="124.29" y="171.47" class="black" >G</text></g>
<g><title>71 (position.label in template: 71.G)</title><text x="124.29" y="179.03" class="black" >G</text></g>
<g><title>72 (position.label in template: 72.C)</title><text x="124.5" y="186.59" class="black" >C</text></g>
<g><title>73 (position.label in template: 73.G)</title><text x="129.73" y="192.034" class="black" >G</text></g>
<g><title>74 (position.label in template: 74.3')</title><text x="124.502" y="197.48" class="green" >3'</text></g>
<g><line x1="112.05" y1="191.804" x2="112.05" y2="188.316" class="gray" /></g>
<g><line x1="112.05" y1="184.254" x2="112.05" y2="180.756" class="gray" /></g>
<g><line x1="112.106" y1="176.695" x2="112.204" y2="173.196" class="gray" /></g>
<g><line x1="112.26" y1="169.134" x2="112.26" y2="165.636" class="gray" /></g>
<g><line x1="112.204" y1="161.575" x2="112.106" y2="158.076" class="gray" /></g>
<g><line x1="112.106" y1="154.015" x2="112.204" y2="150.516" class="gray" /></g>
<g><line x1="112.26" y1="146.454" x2="112.26" y2="142.956" class="gray" /></g>
<g><line x1="110.428" y1="140.049" x2="107.272" y2="138.541" class="gray" /></g>
<g><line x1="104.033" y1="136.201" x2="101.707" y2="133.78" class="gray" /></g>
<g><line x1="99.3356" y1="130.528" x2="97.5844" y2="127.283" class="gray" /></g>
<g><line x1="94.589" y1="125.495" x2="91.301" y2="125.495" class="gray" /></g>
<g><line x1="87.239" y1="125.495" x2="83.741" y2="125.495" class="gray" /></g>
<g><line x1="79.679" y1="125.495" x2="76.181" y2="125.495" class="gray" /></g>
<g><line x1="72.6891" y1="126.906" x2="70.0609" y2="129.444" class="gray" /></g>
<g><line x1="66.6084" y1="131.253" x2="63.1816" y2="131.938" class="gray" /></g>
<g><line x1="59.3217" y1="131.539" x2="56.2783" y2="130.242" class="gray" /></g>
<g><line x1="53.2822" y1="127.756" x2="51.3378" y2="124.844" class="gray" /></g>
<g><line x1="50.1536" y1="121.125" x2="50.0564" y2="117.626" class="gray" /></g>
<g><line x1="51.1291" y1="113.907" x2="53.0709" y2="111.004" class="gray" /></g>
<g><line x1="56.0848" y1="108.559" x2="59.5152" y2="107.182" class="gray" /></g>
<g><line x1="63.3937" y1="106.813" x2="67.0263" y2="107.518" class="gray" /></g>
<g><line x1="70.4257" y1="109.371" x2="72.7443" y2="111.789" class="gray" /></g>
<g><line x1="76.181" y1="113.255" x2="79.889" y2="113.255" class="gray" /></g>
<g><line x1="83.951" y1="113.255" x2="87.029" y2="113.255" class="gray" /></g>
<g><line x1="91.091" y1="113.255" x2="94.799" y2="113.255" class="gray" /></g>
<g><line x1="97.7521" y1="111.446" x2="99.3779" y2="108.255" class="gray" /></g>
<g><line x1="101.707" y1="104.981" x2="104.033" y2="102.56" class="gray" /></g>
<g><line x1="104.814" y1="99.1633" x2="103.756" y2="95.8975" class="gray" /></g>
<g><line x1="102.456" y1="92.0496" x2="101.294" y2="88.7511" class="gray" /></g>
<g><line x1="99.848" y1="84.9568" x2="98.462" y2="81.5839" class="gray" /></g>
<g><line x1="97.0132" y1="77.7905" x2="95.8468" y2="74.4902" class="gray" /></g>
<g><line x1="93.4466" y1="71.5007" x2="90.7834" y2="69.84" class="gray" /></g>
<g><line x1="88.2366" y1="66.9088" x2="86.7834" y2="63.6319" class="gray" /></g>
<g><line x1="86.4759" y1="59.811" x2="87.3641" y2="56.4297" class="gray" /></g>
<g><line x1="89.48" y1="53.2144" x2="92.24" y2="51.0563" class="gray" /></g>
<g><line x1="95.8708" y1="49.7758" x2="99.3692" y2="49.7249" class="gray" /></g>
<g><line x1="103.053" y1="50.8753" x2="106.037" y2="53.0054" class="gray" /></g>
<g><line x1="108.262" y1="56.1342" x2="109.248" y2="59.4965" class="gray" /></g>
<g><line x1="109.048" y1="63.324" x2="107.692" y2="66.6267" class="gray" /></g>
<g><line x1="107.597" y1="70.4202" x2="108.763" y2="73.7205" class="gray" /></g>
<g><line x1="110.114" y1="77.5511" x2="111.276" y2="80.8496" class="gray" /></g>
<g><line x1="112.627" y1="84.6802" x2="113.793" y2="87.9805" class="gray" /></g>
<g><line x1="115.094" y1="91.8282" x2="116.146" y2="95.0925" class="gray" /></g>
<g><line x1="118.79" y1="97.237" x2="122.48" y2="97.6237" class="gray" /></g>
<g><line x1="126.321" y1="98.7337" x2="129.289" y2="100.197" class="gray" /></g>
<g><line x1="132.545" y1="102.533" x2="135.015" y2="105.008" class="gray" /></g>
<g><line x1="137.374" y1="108.254" x2="139.006" y2="111.447" class="gray" /></g>
<g><line x1="140.148" y1="115.275" x2="140.522" y2="118.756" class="gray" /></g>
<g><line x1="140.273" y1="122.752" x2="139.467" y2="126.159" class="gray" /></g>
<g><line x1="140.582" y1="129.409" x2="143.308" y2="131.602" class="gray" /></g>
<g><line x1="146.447" y1="134.18" x2="149.003" y2="136.321" class="gray" /></g>
<g><line x1="152.142" y1="138.899" x2="154.868" y2="141.092" class="gray" /></g>
<g><line x1="158.032" y1="143.639" x2="160.758" y2="145.832" class="gray" /></g>
<g><line x1="164.37" y1="147.056" x2="168.07" y2="146.965" class="gray" /></g>
<g><line x1="171.747" y1="148.104" x2="174.593" y2="150.157" class="gray" /></g>
<g><line x1="176.831" y1="153.288" x2="177.849" y2="156.632" class="gray" /></g>
<g><line x1="177.689" y1="160.463" x2="176.371" y2="163.778" class="gray" /></g>
<g><line x1="173.943" y1="166.811" x2="171.337" y2="168.59" class="gray" /></g>
<g><line x1="167.635" y1="169.577" x2="163.735" y2="169.273" class="gray" /></g>
<g><line x1="160.224" y1="167.731" x2="157.776" y2="165.45" class="gray" /></g>
<g><line x1="155.909" y1="162.07" x2="155.251" y2="158.63" class="gray" /></g>
<g><line x1="153.288" y1="155.362" x2="150.562" y2="153.169" class="gray" /></g>
<g><line x1="147.398" y1="150.622" x2="144.672" y2="148.429" class="gray" /></g>
<g><line x1="141.532" y1="145.852" x2="138.968" y2="143.708" class="gray" /></g>
<g><line x1="135.807" y1="141.158" x2="132.923" y2="138.913" class="gray" /></g>
<g><line x1="129.478" y1="138.52" x2="126.132" y2="140.071" class="gray" /></g>
<g><line x1="124.29" y1="142.956" x2="124.29" y2="146.454" class="gray" /></g>
<g><line x1="124.346" y1="150.516" x2="124.444" y2="154.015" class="gray" /></g>
<g><line x1="124.444" y1="158.076" x2="124.346" y2="161.575" class="gray" /></g>
<g><line x1="124.29" y1="165.636" x2="124.29" y2="169.134" class="gray" /></g>
<g><line x1="124.29" y1="173.196" x2="124.29" y2="176.694" class="gray" /></g>
<g><line x1="124.346" y1="180.756" x2="124.444" y2="184.255" class="gray" /></g>
<g><line x1="125.907" y1="187.75" x2="128.323" y2="190.265" class="gray" /></g>
<g><line x1="128.324" y1="193.195" x2="125.908" y2="195.71" class="gray" /></g>
</svg>
