<svg
	xmlns="http://www.w3.org/2000/svg"
	width="228.44"
	height="241.831">
<g><style type="text/css" >
<!-- create color definitions -->
<![CDATA[
circle.red {stroke: rgb(255, 0, 255); fill: none; }
circle.green {stroke: rgb(0, 255, 0); fill: none; }
circle.blue {stroke: rgb(0, 0, 255); fill: none; }
circle.black {stroke: rgb(0, 0, 0); fill: none; }
circle.gray {stroke: rgb(204, 204, 204); fill: none; }
circle.brown {stroke: rgb(211.65, 104.55, 30.6); fill: none; }
line.red {stroke: rgb(255, 0, 255); stroke-width: 0.384773; }
line.green {stroke: rgb(0, 255, 0); stroke-width: 0.384773; }
line.blue {stroke: rgb(0, 0, 255); stroke-width: 0.384773; }
line.black {stroke: rgb(0, 0, 0); stroke-width: 0.384773; }
line.gray {stroke: rgb(204, 204, 204); stroke-width: 0.384773; }
line.brown {stroke: rgb(211.65, 104.55, 30.6); stroke-width: 0.384773; }
line {stroke: rgb(0, 0, 0); }
text.red {fill: rgb(255, 0, 255); font-size: 3.078182px; font-weight: bold; font-family: Helvetica; }
text.green {fill: rgb(0, 255, 0); font-size: 3.078182px; font-weight: bold; font-family: Helvetica; }
text.blue {fill: rgb(0, 0, 255); font-size: 3.078182px; font-weight: bold; font-family: Helvetica; }
text.black {fill: rgb(0, 0, 0); font-size: 3.078182px; font-weight: bold; font-family: Helvetica; }
text.gray {fill: rgb(204, 204, 204); font-size: 3.078182px; font-weight: bold; font-family: Helvetica; }
text.brown {fill: rgb(211.65, 104.55, 30.6); font-size: 3.078182px; font-weight: bold; font-family: Helvetica; }
text {fill: rgb(0, 0, 0); font-size: 3.078182px; font-weight: bold; font-family: Helvetica; text-anchor: middle; alignment-baseline: middle; }

.pseudoknot_connection{stroke-linecap: round; stroke-opacity: 0.2; stroke-width: 1.5; }
.pseudoknot_segment1{stroke-linecap: round; stroke-opacity: 0.4; stroke-width: 3.07818; }
.pseudoknot_segment2{stroke-linecap: round; stroke-opacity: 0.4; stroke-width: 3.07818; }
line.numbering-line{stroke: rgb(204, 204, 204); stroke-width: 0.192386; }
line.predicted{stroke: rgb(0, 0, 0); stroke-dasharray: 2; }
polyline{fill: none; stroke-linejoin: round; }
template{visibility: hidden; }
text.numbering-label{fill: rgb(204, 204, 204); }
]]>
</style></g>
<g><title>0 (position.label in template: 0.5')</title><text x="112.05" y="194.142" class="green" >5'</text></g>
<g><title>1 (position.label in template: 1.G)</title><text x="112.05" y="186.59" class="black" >G</text></g>
<g><line x1="114.102" y1="186.282" x2="122.448" y2="186.282" class="black" /></g>
<g><title>2 (position.label in template: 2.G)</title><text x="112.05" y="179.03" class="black" >G</text></g>
<g><line x1="114.102" y1="178.722" x2="122.448" y2="178.722" class="black" /></g>
<g><title>3 (position.label in template: 3.G)</title><text x="112.05" y="171.47" class="green" >G</text></g>
<g><line x1="114.102" y1="171.162" x2="122.448" y2="171.162" class="black" /></g>
<g><title>4 (position.label in template: 4.G)</title><text x="112.05" y="163.91" class="black" >G</text></g>
<g><line x1="114.102" y1="163.602" x2="122.448" y2="163.602" class="black" /></g>
<g><title>5 (position.label in template: 5.G)</title><text x="112.05" y="156.35" class="green" >G</text></g>
<g><line x1="114.102" y1="156.042" x2="122.448" y2="156.042" class="black" /></g>
<g><title>6 (position.label in template: 6.U)</title><text x="112.26" y="148.79" class="green" >T</text></g>
<g><line x1="114.312" y1="148.482" x2="122.658" y2="148.482" class="black" /></g>
<g><title>7 (position.label in template: 7.G)</title><text x="112.05" y="141.23" class="black" >G</text></g>
<g><line x1="114.102" y1="140.922" x2="122.448" y2="140.922" class="black" /></g>
<g><title>8 (position.label in template: 8.U)</title><text x="105.44" y="137.97" class="green" >T</text></g>
<g><title>9 (position.label in template: 9.A)</title><text x="100.3" y="132.62" class="black" >A</text></g>
<g><title>10 (position.label in template: 10.G)</title><text x="96.62" y="125.8" class="black" >G</text></g>
<g><line x1="96.6552" y1="123.44" x2="96.7948" y2="115.304" class="black" /></g>
<g><text x="92.9776" y="131.691" class="numbering-label sequential" >10</text></g>
<g><line x1="95.6487" y1="127.371" x2="93.9293" y2="130.152" class="numbering-line sequential" /></g>
<g><title>11 (position.label in template: 11.C)</title><text x="89.27" y="125.8" class="black" >C</text></g>
<g><line x1="89.2348" y1="123.44" x2="89.0952" y2="115.304" class="black" /></g>
<g><title>12 (position.label in template: 12.G)</title><text x="81.5" y="125.8" class="black" >G</text></g>
<g><line x1="81.5352" y1="123.44" x2="81.6748" y2="115.304" class="black" /></g>
<g><title>13 (position.label in template: 13.C)</title><text x="74.15" y="125.8" class="black" >C</text></g>
<g><line x1="74.1148" y1="123.44" x2="73.9752" y2="115.304" class="black" /></g>
<g><title>14 (position.label in template: 14.A)</title><text x="69.02" y="131.16" class="black" >A</text></g>
<g><title>15 (position.label in template: 15.G)</title><text x="61.19" y="132.64" class="black" >G</text></g>
<g><title>16 (position.label in template: 16.U)</title><text x="54.41" y="129.75" class="green" >T</text></g>
<g><title>17 (position.label in template: 17.U)</title><text x="50.21" y="123.46" class="green" >T</text></g>
<g><title>18 (position.label in template: 18.G)</title><text x="50" y="115.9" class="black" >G</text></g>
<g><title>19 (position.label in template: 19.G)</title><text x="54.2" y="109.62" class="black" >G</text></g>
<g><title>20 (position.label in template: 20.G)</title><text x="61.19" y="106.73" class="black" >G</text></g>
<g><text x="60.534" y="99.8352" class="numbering-label sequential" >20</text></g>
<g><line x1="61.0151" y1="104.891" x2="60.6805" y2="101.374" class="numbering-line sequential" /></g>
<g><title>21 (position.label in template: 21.A)</title><text x="69.02" y="108.21" class="black" >A</text></g>
<g><title>22 (position.label in template: 22.G)</title><text x="73.94" y="113.56" class="black" >G</text></g>
<g><title>23 (position.label in template: 23.C)</title><text x="81.71" y="113.56" class="black" >C</text></g>
<g><title>24 (position.label in template: 24.G)</title><text x="89.06" y="113.56" class="black" >G</text></g>
<g><title>25 (position.label in template: 25.C)</title><text x="96.83" y="113.56" class="black" >C</text></g>
<g><title>26 (position.label in template: 26.G)</title><text x="99.88" y="106.75" class="black" >G</text></g>
<g><title>27 (position.label in template: 27.U)</title><text x="105.44" y="101.4" class="green" >T</text></g>
<g><line x1="107.379" y1="100.421" x2="115.251" y2="97.6938" class="black" /></g>
<g><title>28 (position.label in template: 28.C)</title><text x="102.92" y="94.27" class="black" >C</text></g>
<g><line x1="104.851" y1="93.269" x2="112.329" y2="90.5854" class="black" /></g>
<g><title>29 (position.label in template: 29.U)</title><text x="100.41" y="87.14" class="green" >T</text></g>
<g><line x1="102.349" y1="86.1605" x2="110.221" y2="83.4338" class="black" /></g>
<g><title>30 (position.label in template: 30.G)</title><text x="97.69" y="80.01" class="black" >G</text></g>
<g><line x1="99.6291" y1="79.0305" x2="107.501" y2="76.3038" class="black" /></g>
<g><text x="91.1288" y="82.2278" class="numbering-label sequential" >30</text></g>
<g><line x1="95.9403" y1="80.6014" x2="92.9757" y2="81.6035" class="numbering-line sequential" /></g>
<g><title>31 (position.label in template: 31.A)</title><text x="95.59" y="72.88" class="green" >A</text></g>
<g><line x1="97.5213" y1="71.8784" x2="104.989" y2="69.1959" class="black" /></g>
<g><title>32 (position.label in template: 32.A)</title><text x="89.06" y="69.07" class="black" >A</text></g>
<g><title>33 (position.label in template: 33.U)</title><text x="85.96" y="62.08" class="green" >T</text></g>
<g><title>34 (position.label in template: 34.G)</title><text x="87.67" y="54.77" class="black" >G</text></g>
<g><title>35 (position.label in template: 35.G)</title><text x="93.63" y="50.11" class="black" >G</text></g>
<g><title>36 (position.label in template: 36.C)</title><text x="101.4" y="50" class="black" >C</text></g>
<g><title>37 (position.label in template: 37.A)</title><text x="107.69" y="54.49" class="black" >A</text></g>
<g><title>38 (position.label in template: 38.U)</title><text x="109.61" y="61.75" class="green" >T</text></g>
<g><title>39 (position.label in template: 39.U)</title><text x="106.92" y="68.81" class="green" >T</text></g>
<g><title>40 (position.label in template: 40.C)</title><text x="109.44" y="75.94" class="black" >C</text></g>
<g><title>41 (position.label in template: 41.A)</title><text x="112.16" y="83.07" class="green" >A</text></g>
<g><title>42 (position.label in template: 42.G)</title><text x="114.26" y="90.2" class="black" >G</text></g>
<g><title>43 (position.label in template: 43.A)</title><text x="117.19" y="97.33" class="green" >A</text></g>
<g><title>44 (position.label in template: 44.A)</title><text x="124.71" y="98.14" class="black" >A</text></g>
<g><title>45 (position.label in template: 45.G)</title><text x="131.11" y="101.4" class="black" >G</text></g>
<g><title>46 (position.label in template: 46.G)</title><text x="136.45" y="106.75" class="black" >G</text></g>
<g><title>47 (position.label in template: 47.U)</title><text x="139.93" y="113.56" class="green" >T</text></g>
<g><title>48 (position.label in template: 48.C)</title><text x="140.74" y="121.08" class="black" >C</text></g>
<g><title>49 (position.label in template: 49.A)</title><text x="139.2" y="128.44" class="green" >A</text></g>
<g><line x1="137.892" y1="129.714" x2="132.628" y2="136.081" class="black" /></g>
<g><title>50 (position.label in template: 50.G)</title><text x="144.67" y="133.18" class="black" >G</text></g>
<g><line x1="143.405" y1="134.488" x2="138.475" y2="140.786" class="black" /></g>
<g><text x="149.062" y="127.825" class="numbering-label sequential" >50</text></g>
<g><line x1="145.841" y1="131.752" x2="147.8" y2="129.364" class="numbering-line sequential" /></g>
<g><title>51 (position.label in template: 51.C)</title><text x="150.77" y="137.93" class="black" >C</text></g>
<g><line x1="149.461" y1="139.203" x2="144.189" y2="145.571" class="black" /></g>
<g><title>52 (position.label in template: 52.G)</title><text x="156.45" y="142.67" class="black" >G</text></g>
<g><line x1="155.184" y1="143.977" x2="150.246" y2="150.277" class="black" /></g>
<g><title>53 (position.label in template: 53.G)</title><text x="162.34" y="147.41" class="black" >G</text></g>
<g><line x1="161.074" y1="148.717" x2="156.136" y2="155.017" class="black" /></g>
<g><title>54 (position.label in template: 54.U)</title><text x="170.1" y="147.22" class="green" >T</text></g>
<g><title>55 (position.label in template: 55.U)</title><text x="176.24" y="151.65" class="green" >T</text></g>
<g><title>56 (position.label in template: 56.C)</title><text x="178.44" y="158.88" class="black" >C</text></g>
<g><title>57 (position.label in template: 57.G)</title><text x="175.62" y="165.97" class="black" >G</text></g>
<g><title>58 (position.label in template: 58.A)</title><text x="169.66" y="170.04" class="black" >A</text></g>
<g><title>59 (position.label in template: 59.U)</title><text x="161.92" y="169.42" class="green" >T</text></g>
<g><title>60 (position.label in template: 60.C)</title><text x="156.29" y="164.37" class="black" >C</text></g>
<g><title>61 (position.label in template: 61.C)</title><text x="154.87" y="156.94" class="black" >C</text></g>
<g><title>62 (position.label in template: 62.C)</title><text x="148.98" y="152.2" class="black" >C</text></g>
<g><title>63 (position.label in template: 63.G)</title><text x="142.88" y="147.46" class="black" >G</text></g>
<g><title>64 (position.label in template: 64.C)</title><text x="137.21" y="142.71" class="black" >C</text></g>
<g><title>65 (position.label in template: 65.U)</title><text x="131.32" y="137.97" class="green" >T</text></g>
<g><title>66 (position.label in template: 66.C)</title><text x="124.5" y="141.23" class="black" >C</text></g>
<g><title>67 (position.label in template: 67.A)</title><text x="124.71" y="148.79" class="green" >A</text></g>
<g><title>68 (position.label in template: 68.U)</title><text x="124.5" y="156.35" class="green" >T</text></g>
<g><title>69 (position.label in template: 69.C)</title><text x="124.5" y="163.91" class="black" >C</text></g>
<g><title>70 (position.label in template: 70.U)</title><text x="124.5" y="171.47" class="green" >T</text></g>
<g><title>71 (position.label in template: 71.C)</title><text x="124.5" y="179.03" class="black" >C</text></g>
<g><title>72 (position.label in template: 72.C)</title><text x="124.5" y="186.59" class="black" >C</text></g>
<g><title>73 (position.label in template: 73.A)</title><text x="129.937" y="191.831" class="black" >A</text></g>
<g><title>74 (position.label in template: 74.3')</title><text x="124.708" y="197.28" class="green" >3'</text></g>
<g><line x1="112.05" y1="191.782" x2="112.05" y2="188.334" class="gray" /></g>
<g><line x1="112.05" y1="184.23" x2="112.05" y2="180.774" class="gray" /></g>
<g><line x1="112.05" y1="176.67" x2="112.05" y2="173.214" class="gray" /></g>
<g><line x1="112.05" y1="169.11" x2="112.05" y2="165.654" class="gray" /></g>
<g><line x1="112.05" y1="161.55" x2="112.05" y2="158.094" class="gray" /></g>
<g><line x1="112.107" y1="153.991" x2="112.203" y2="150.534" class="gray" /></g>
<g><line x1="112.203" y1="146.431" x2="112.107" y2="142.974" class="gray" /></g>
<g><line x1="110.21" y1="140.014" x2="107.28" y2="138.57" class="gray" /></g>
<g><line x1="104.018" y1="136.182" x2="101.722" y2="133.792" class="gray" /></g>
<g><line x1="99.3255" y1="130.506" x2="97.5945" y2="127.298" class="gray" /></g>
<g><line x1="94.5679" y1="125.492" x2="91.3221" y2="125.492" class="gray" /></g>
<g><line x1="87.2179" y1="125.492" x2="83.5521" y2="125.492" class="gray" /></g>
<g><line x1="79.4479" y1="125.492" x2="76.2021" y2="125.492" class="gray" /></g>
<g><line x1="72.7311" y1="126.975" x2="70.4389" y2="129.37" class="gray" /></g>
<g><line x1="67.0036" y1="131.233" x2="63.2064" y2="131.951" class="gray" /></g>
<g><line x1="59.3022" y1="131.528" x2="56.2978" y2="130.247" class="gray" /></g>
<g><line x1="53.2704" y1="127.736" x2="51.3496" y2="124.859" class="gray" /></g>
<g><line x1="50.153" y1="121.101" x2="50.057" y2="117.644" class="gray" /></g>
<g><line x1="51.1408" y1="113.886" x2="53.0592" y2="111.018" class="gray" /></g>
<g><line x1="56.0964" y1="108.528" x2="59.2936" y2="107.206" class="gray" /></g>
<g><line x1="63.2064" y1="106.803" x2="67.0036" y2="107.521" class="gray" /></g>
<g><line x1="70.4091" y1="109.413" x2="72.5509" y2="111.742" class="gray" /></g>
<g><line x1="75.9921" y1="113.252" x2="79.6579" y2="113.252" class="gray" /></g>
<g><line x1="83.7621" y1="113.252" x2="87.0079" y2="113.252" class="gray" /></g>
<g><line x1="91.1121" y1="113.252" x2="94.7779" y2="113.252" class="gray" /></g>
<g><line x1="97.6688" y1="111.379" x2="99.0412" y2="108.315" class="gray" /></g>
<g><line x1="101.359" y1="105.019" x2="103.961" y2="102.515" class="gray" /></g>
<g><line x1="104.756" y1="99.1574" x2="103.604" y2="95.897" class="gray" /></g>
<g><line x1="102.239" y1="92.0265" x2="101.091" y2="88.7679" class="gray" /></g>
<g><line x1="99.6786" y1="84.9148" x2="98.4214" y2="81.6195" class="gray" /></g>
<g><line x1="97.1102" y1="77.7337" x2="96.1698" y2="74.5407" class="gray" /></g>
<g><line x1="93.8175" y1="71.538" x2="90.8325" y2="69.7964" class="gray" /></g>
<g><line x1="88.228" y1="66.8863" x2="86.792" y2="63.6481" class="gray" /></g>
<g><line x1="86.4274" y1="59.774" x2="87.2026" y2="56.4604" class="gray" /></g>
<g><line x1="89.2866" y1="53.1982" x2="92.0134" y2="51.0662" class="gray" /></g>
<g><line x1="95.6819" y1="49.7731" x2="99.3481" y2="49.7212" class="gray" /></g>
<g><line x1="103.07" y1="50.8845" x2="106.02" y2="52.9899" class="gray" /></g>
<g><line x1="108.215" y1="56.1661" x2="109.085" y2="59.4583" class="gray" /></g>
<g><line x1="108.879" y1="63.3598" x2="107.651" y2="66.5845" class="gray" /></g>
<g><line x1="107.604" y1="70.437" x2="108.756" y2="73.6974" class="gray" /></g>
<g><line x1="110.171" y1="77.5495" x2="111.429" y2="80.8448" class="gray" /></g>
<g><line x1="112.74" y1="84.7307" x2="113.68" y2="87.9237" class="gray" /></g>
<g><line x1="115.04" y1="91.7903" x2="116.41" y2="95.1241" class="gray" /></g>
<g><line x1="119.23" y1="97.242" x2="122.67" y2="97.6124" class="gray" /></g>
<g><line x1="126.539" y1="98.7636" x2="129.281" y2="100.161" class="gray" /></g>
<g><line x1="132.56" y1="102.545" x2="135" y2="104.99" class="gray" /></g>
<g><line x1="137.384" y1="108.27" x2="138.996" y2="111.425" class="gray" /></g>
<g><line x1="140.15" y1="115.293" x2="140.52" y2="118.732" class="gray" /></g>
<g><line x1="140.32" y1="122.781" x2="139.62" y2="126.124" class="gray" /></g>
<g><line x1="140.751" y1="129.476" x2="143.119" y2="131.528" class="gray" /></g>
<g><line x1="146.289" y1="134.133" x2="149.151" y2="136.361" class="gray" /></g>
<g><line x1="152.346" y1="138.937" x2="154.874" y2="141.047" class="gray" /></g>
<g><line x1="158.049" y1="143.649" x2="160.741" y2="145.816" class="gray" /></g>
<g><line x1="164.392" y1="147.052" x2="168.048" y2="146.962" class="gray" /></g>
<g><line x1="171.764" y1="148.113" x2="174.576" y2="150.141" class="gray" /></g>
<g><line x1="176.837" y1="153.305" x2="177.843" y2="156.609" class="gray" /></g>
<g><line x1="177.682" y1="160.479" x2="176.378" y2="163.755" class="gray" /></g>
<g><line x1="173.925" y1="166.819" x2="171.355" y2="168.575" class="gray" /></g>
<g><line x1="167.614" y1="169.568" x2="163.966" y2="169.276" class="gray" /></g>
<g><line x1="160.392" y1="167.742" x2="157.818" y2="165.432" class="gray" /></g>
<g><line x1="155.905" y1="162.047" x2="155.255" y2="158.648" class="gray" /></g>
<g><line x1="153.271" y1="155.346" x2="150.579" y2="153.179" class="gray" /></g>
<g><line x1="147.36" y1="150.633" x2="144.5" y2="148.411" class="gray" /></g>
<g><line x1="141.307" y1="145.834" x2="138.783" y2="143.72" class="gray" /></g>
<g><line x1="135.611" y1="141.116" x2="132.919" y2="138.949" class="gray" /></g>
<g><line x1="129.469" y1="138.547" x2="126.351" y2="140.037" class="gray" /></g>
<g><line x1="124.557" y1="142.974" x2="124.653" y2="146.431" class="gray" /></g>
<g><line x1="124.653" y1="150.534" x2="124.557" y2="153.991" class="gray" /></g>
<g><line x1="124.5" y1="158.094" x2="124.5" y2="161.55" class="gray" /></g>
<g><line x1="124.5" y1="165.654" x2="124.5" y2="169.11" class="gray" /></g>
<g><line x1="124.5" y1="173.214" x2="124.5" y2="176.67" class="gray" /></g>
<g><line x1="124.5" y1="180.774" x2="124.5" y2="184.23" class="gray" /></g>
<g><line x1="125.977" y1="187.706" x2="128.46" y2="190.099" class="gray" /></g>
<g><line x1="128.516" y1="193.004" x2="126.129" y2="195.491" class="gray" /></g>
</svg>
