<svg
	xmlns="http://www.w3.org/2000/svg"
	width="227.98"
	height="241.459">
<g><style type="text/css" >
<!-- create color definitions -->
<![CDATA[
circle.red {stroke: rgb(255, 0, 255); fill: none; }
circle.green {stroke: rgb(0, 255, 0); fill: none; }
circle.blue {stroke: rgb(0, 0, 255); fill: none; }
circle.black {stroke: rgb(0, 0, 0); fill: none; }
circle.gray {stroke: rgb(204, 204, 204); fill: none; }
circle.brown {stroke: rgb(211.65, 104.55, 30.6); fill: none; }
line.red {stroke: rgb(255, 0, 255); stroke-width: 0.382517; }
line.green {stroke: rgb(0, 255, 0); stroke-width: 0.382517; }
line.blue {stroke: rgb(0, 0, 255); stroke-width: 0.382517; }
line.black {stroke: rgb(0, 0, 0); stroke-width: 0.382517; }
line.gray {stroke: rgb(204, 204, 204); stroke-width: 0.382517; }
line.brown {stroke: rgb(211.65, 104.55, 30.6); stroke-width: 0.382517; }
line {stroke: rgb(0, 0, 0); }
text.red {fill: rgb(255, 0, 255); font-size: 3.060134px; font-weight: bold; font-family: Helvetica; }
text.green {fill: rgb(0, 255, 0); font-size: 3.060134px; font-weight: bold; font-family: Helvetica; }
text.blue {fill: rgb(0, 0, 255); font-size: 3.060134px; font-weight: bold; font-family: Helvetica; }
text.black {fill: rgb(0, 0, 0); font-size: 3.060134px; font-weight: bold; font-family: Helvetica; }
text.gray {fill: rgb(204, 204, 204); font-size: 3.060134px; font-weight: bold; font-family: Helvetica; }
text.brown {fill: rgb(211.65, 104.55, 30.6); font-size: 3.060134px; font-weight: bold; font-family: Helvetica; }
text {fill: rgb(0, 0, 0); font-size: 3.060134px; font-weight: bold; font-family: Helvetica; text-anchor: middle; alignment-baseline: middle; }

.pseudoknot_connection{stroke-linecap: round; stroke-opacity: 0.2; stroke-width: 1.5; }
.pseudoknot_segment1{stroke-linecap: round; stroke-opacity: 0.4; stroke-width: 3.06013; }
.pseudoknot_segment2{stroke-linecap: round; stroke-opacity: 0.4; stroke-width: 3.06013; }
line.numbering-line{stroke: rgb(204, 204, 204); stroke-width: 0.191258; }
line.predicted{stroke: rgb(0, 0, 0); stroke-dasharray: 2; }
polyline{fill: none; stroke-linejoin: round; }
template{visibility: hidden; }
text.numbering-label{fill: rgb(204, 204, 204); }
]]>
</style></g>
<g><title>0 (position.label in template: 0.5')</title><text x="112.98" y="193.773" class="green" >5'</text></g>
<g><title>1 (position.label in template: 1.G)</title><text x="113.19" y="186.22" class="black" >G</text></g>
<g><line x1="115.23" y1="185.914" x2="123.6" y2="185.914" class="black" /></g>
<g><title>2 (position.label in template: 2.C)</title><text x="113.4" y="178.66" class="black" >C</text></g>
<g><line x1="115.44" y1="178.354" x2="123.39" y2="178.354" class="black" /></g>
<g><title>3 (position.label in template: 3.G)</title><text x="113.19" y="171.1" class="black" >G</text></g>
<g><line x1="115.23" y1="170.794" x2="123.6" y2="170.794" class="black" /></g>
<g><title>4 (position.label in template: 4.C)</title><text x="113.4" y="163.54" class="black" >C</text></g>
<g><line x1="115.44" y1="163.234" x2="123.39" y2="163.234" class="black" /></g>
<g><title>5 (position.label in template: 5.G)</title><text x="113.19" y="155.98" class="black" >G</text></g>
<g><line x1="115.23" y1="155.674" x2="123.6" y2="155.674" class="black" /></g>
<g><title>6 (position.label in template: 6.A)</title><text x="113.6" y="148.42" class="green" >A</text></g>
<g><line x1="115.64" y1="148.114" x2="123.6" y2="148.114" class="black" /></g>
<g><title>7 (position.label in template: 7.G)</title><text x="113.19" y="140.86" class="black" >G</text></g>
<g><line x1="115.23" y1="140.554" x2="123.6" y2="140.554" class="black" /></g>
<g><title>8 (position.label in template: 8.U)</title><text x="106.53" y="137.7" class="green" >T</text></g>
<g><title>9 (position.label in template: 9.G)</title><text x="100.84" y="132.49" class="black" >G</text></g>
<g><title>10 (position.label in template: 10.G)</title><text x="97.33" y="125.8" class="black" >G</text></g>
<g><line x1="97.2583" y1="123.455" x2="96.9717" y2="115.303" class="black" /></g>
<g><text x="93.8726" y="131.754" class="numbering-label sequential" >10</text></g>
<g><line x1="96.408" y1="127.388" x2="94.7611" y2="130.224" class="numbering-line sequential" /></g>
<g><title>11 (position.label in template: 11.C)</title><text x="89.99" y="126.19" class="black" >C</text></g>
<g><line x1="89.8486" y1="123.849" x2="89.2814" y2="115.689" class="black" /></g>
<g><title>12 (position.label in template: 12.G)</title><text x="82.23" y="126.58" class="black" >G</text></g>
<g><line x1="82.1583" y1="124.235" x2="81.8717" y2="116.093" class="black" /></g>
<g><title>13 (position.label in template: 13.G)</title><text x="78.23" y="133" class="black" >G</text></g>
<g><title>14 (position.label in template: 14.A)</title><text x="72.21" y="136.97" class="black" >A</text></g>
<g><title>15 (position.label in template: 15.A)</title><text x="64.69" y="137.67" class="black" >A</text></g>
<g><title>16 (position.label in template: 16.U)</title><text x="57.43" y="134.95" class="green" >T</text></g>
<g><title>17 (position.label in template: 17.U)</title><text x="52.31" y="129.38" class="green" >T</text></g>
<g><title>18 (position.label in template: 18.G)</title><text x="50" y="122.12" class="black" >G</text></g>
<g><title>19 (position.label in template: 19.G)</title><text x="51.34" y="114.68" class="black" >G</text></g>
<g><title>20 (position.label in template: 20.C)</title><text x="56.06" y="108.61" class="black" >C</text></g>
<g><text x="51.7109" y="103.272" class="numbering-label sequential" >20</text></g>
<g><line x1="54.9003" y1="107.187" x2="52.9576" y2="104.802" class="numbering-line sequential" /></g>
<g><title>21 (position.label in template: 21.A)</title><text x="63" y="105.18" class="black" >A</text></g>
<g><title>22 (position.label in template: 22.G)</title><text x="70.15" y="105.1" class="black" >G</text></g>
<g><title>23 (position.label in template: 23.A)</title><text x="77.37" y="108.39" class="black" >A</text></g>
<g><title>24 (position.label in template: 24.C)</title><text x="81.8" y="114.36" class="black" >C</text></g>
<g><title>25 (position.label in template: 25.G)</title><text x="89.14" y="113.96" class="black" >G</text></g>
<g><title>26 (position.label in template: 26.C)</title><text x="96.9" y="113.57" class="black" >C</text></g>
<g><title>27 (position.label in template: 27.G)</title><text x="99.5" y="106.55" class="black" >G</text></g>
<g><title>28 (position.label in template: 28.C)</title><text x="104.62" y="100.81" class="black" >C</text></g>
<g><line x1="106.467" y1="99.6373" x2="113.683" y2="96.2507" class="black" /></g>
<g><title>29 (position.label in template: 29.U)</title><text x="101.46" y="93.94" class="green" >T</text></g>
<g><line x1="103.319" y1="92.7933" x2="110.921" y2="89.3547" class="black" /></g>
<g><title>30 (position.label in template: 30.G)</title><text x="98.09" y="87.07" class="black" >G</text></g>
<g><line x1="99.9488" y1="85.9233" x2="107.551" y2="82.4847" class="black" /></g>
<g><text x="91.8739" y="90.0309" class="numbering-label sequential" >30</text></g>
<g><line x1="96.4324" y1="87.8596" x2="93.7099" y2="89.1563" class="numbering-line sequential" /></g>
<g><title>31 (position.label in template: 31.G)</title><text x="94.92" y="80.21" class="black" >G</text></g>
<g><line x1="96.7791" y1="79.0639" x2="104.391" y2="75.6241" class="black" /></g>
<g><title>32 (position.label in template: 32.A)</title><text x="92.18" y="73.34" class="green" >A</text></g>
<g><line x1="94.0268" y1="72.1673" x2="101.243" y2="68.7807" class="black" /></g>
<g><title>33 (position.label in template: 33.U)</title><text x="85.12" y="70.14" class="green" >T</text></g>
<g><title>34 (position.label in template: 34.U)</title><text x="81.6" y="63.46" class="green" >T</text></g>
<g><title>35 (position.label in template: 35.U)</title><text x="82.84" y="56" class="green" >T</text></g>
<g><title>36 (position.label in template: 36.A)</title><text x="88.54" y="50.81" class="black" >A</text></g>
<g><title>37 (position.label in template: 37.G)</title><text x="95.64" y="50" class="black" >G</text></g>
<g><title>38 (position.label in template: 38.G)</title><text x="102.12" y="53.91" class="black" >G</text></g>
<g><title>39 (position.label in template: 39.U)</title><text x="105.12" y="60.94" class="green" >T</text></g>
<g><title>40 (position.label in template: 40.U)</title><text x="103.09" y="68.22" class="green" >T</text></g>
<g><title>41 (position.label in template: 41.C)</title><text x="106.25" y="75.09" class="black" >C</text></g>
<g><title>42 (position.label in template: 42.C)</title><text x="109.41" y="81.95" class="black" >C</text></g>
<g><title>43 (position.label in template: 43.A)</title><text x="112.78" y="88.82" class="green" >A</text></g>
<g><title>44 (position.label in template: 44.G)</title><text x="115.53" y="95.69" class="black" >G</text></g>
<g><title>45 (position.label in template: 45.U)</title><text x="123.3" y="95.69" class="green" >T</text></g>
<g><title>46 (position.label in template: 46.G)</title><text x="130.25" y="98.12" class="black" >G</text></g>
<g><line x1="131.745" y1="99.202" x2="137.835" y2="104.856" class="black" /></g>
<g><title>47 (position.label in template: 47.U)</title><text x="135.66" y="92.64" class="green" >T</text></g>
<g><line x1="137.155" y1="93.722" x2="143.245" y2="99.3759" class="black" /></g>
<g><title>48 (position.label in template: 48.C)</title><text x="140.87" y="87.16" class="black" >C</text></g>
<g><line x1="142.332" y1="88.277" x2="148.068" y2="93.861" class="black" /></g>
<g><title>49 (position.label in template: 49.U)</title><text x="144.28" y="80.41" class="green" >T</text></g>
<g><title>50 (position.label in template: 50.U)</title><text x="151.73" y="79.12" class="green" >T</text></g>
<g><text x="153.728" y="72.5309" class="numbering-label sequential" >50</text></g>
<g><line x1="152.263" y1="77.3629" x2="153.264" y2="74.0609" class="numbering-line sequential" /></g>
<g><title>51 (position.label in template: 51.C)</title><text x="157.21" y="84.33" class="black" >C</text></g>
<g><title>52 (position.label in template: 52.G)</title><text x="156.09" y="91.83" class="black" >G</text></g>
<g><title>53 (position.label in template: 53.G)</title><text x="149.53" y="95.59" class="black" >G</text></g>
<g><title>54 (position.label in template: 54.A)</title><text x="144.74" y="101.07" class="green" >A</text></g>
<g><title>55 (position.label in template: 55.C)</title><text x="139.33" y="106.55" class="black" >C</text></g>
<g><title>56 (position.label in template: 56.G)</title><text x="141.92" y="113.57" class="black" >G</text></g>
<g><title>57 (position.label in template: 57.U)</title><text x="142.53" y="121.12" class="green" >T</text></g>
<g><title>58 (position.label in template: 58.G)</title><text x="140.25" y="128.4" class="black" >G</text></g>
<g><line x1="138.945" y1="129.662" x2="133.815" y2="135.826" class="black" /></g>
<g><title>59 (position.label in template: 59.U)</title><text x="147.72" y="130.52" class="green" >T</text></g>
<g><title>60 (position.label in template: 60.G)</title><text x="150.73" y="137.36" class="black" >G</text></g>
<g><line x1="149.424" y1="138.621" x2="144.286" y2="144.787" class="black" /></g>
<g><title>61 (position.label in template: 61.G)</title><text x="156.48" y="142.28" class="black" >G</text></g>
<g><line x1="155.174" y1="143.541" x2="150.036" y2="149.707" class="black" /></g>
<g><title>62 (position.label in template: 62.G)</title><text x="162.22" y="147.19" class="black" >G</text></g>
<g><line x1="160.914" y1="148.451" x2="155.776" y2="154.617" class="black" /></g>
<g><title>63 (position.label in template: 63.U)</title><text x="169.99" y="147.23" class="green" >T</text></g>
<g><title>64 (position.label in template: 64.U)</title><text x="175.99" y="151.83" class="green" >T</text></g>
<g><title>65 (position.label in template: 65.C)</title><text x="177.98" y="159.12" class="black" >C</text></g>
<g><title>66 (position.label in template: 66.A)</title><text x="175.36" y="166.14" class="black" >A</text></g>
<g><title>67 (position.label in template: 67.A)</title><text x="168.87" y="170.01" class="black" >A</text></g>
<g><title>68 (position.label in template: 68.G)</title><text x="160.94" y="169.17" class="black" >G</text></g>
<g><title>69 (position.label in template: 69.U)</title><text x="155.68" y="163.96" class="green" >T</text></g>
<g><title>70 (position.label in template: 70.C)</title><text x="154.47" y="156.49" class="black" >C</text></g>
<g><title>71 (position.label in template: 71.C)</title><text x="148.73" y="151.58" class="black" >C</text></g>
<g><title>72 (position.label in template: 72.C)</title><text x="142.98" y="146.66" class="black" >C</text></g>
<g><title>73 (position.label in template: 73.U)</title><text x="135.73" y="144.53" class="green" >T</text></g>
<g><title>74 (position.label in template: 74.C)</title><text x="132.51" y="137.7" class="black" >C</text></g>
<g><title>75 (position.label in template: 75.C)</title><text x="125.64" y="140.86" class="black" >C</text></g>
<g><title>76 (position.label in template: 76.U)</title><text x="125.64" y="148.42" class="green" >T</text></g>
<g><title>77 (position.label in template: 77.C)</title><text x="125.64" y="155.98" class="black" >C</text></g>
<g><title>78 (position.label in template: 78.G)</title><text x="125.43" y="163.54" class="black" >G</text></g>
<g><title>79 (position.label in template: 79.C)</title><text x="125.64" y="171.1" class="black" >C</text></g>
<g><title>80 (position.label in template: 80.G)</title><text x="125.43" y="178.66" class="black" >G</text></g>
<g><title>81 (position.label in template: 81.C)</title><text x="125.64" y="186.22" class="black" >C</text></g>
<g><title>82 (position.label in template: 82.A)</title><text x="131.085" y="191.459" class="black" >A</text></g>
<g><title>83 (position.label in template: 83.3')</title><text x="130.34" y="198.977" class="green" >3'</text></g>
<g><line x1="113.037" y1="191.427" x2="113.133" y2="187.953" class="gray" /></g>
<g><line x1="113.247" y1="183.875" x2="113.343" y2="180.393" class="gray" /></g>
<g><line x1="113.343" y1="176.315" x2="113.247" y2="172.833" class="gray" /></g>
<g><line x1="113.247" y1="168.755" x2="113.343" y2="165.273" class="gray" /></g>
<g><line x1="113.343" y1="161.195" x2="113.247" y2="157.713" class="gray" /></g>
<g><line x1="113.3" y1="153.637" x2="113.49" y2="150.151" class="gray" /></g>
<g><line x1="113.49" y1="146.077" x2="113.3" y2="142.591" class="gray" /></g>
<g><line x1="111.347" y1="139.679" x2="108.373" y2="138.269" class="gray" /></g>
<g><line x1="105.025" y1="136.016" x2="102.345" y2="133.562" class="gray" /></g>
<g><line x1="99.8922" y1="130.377" x2="98.2778" y2="127.301" class="gray" /></g>
<g><line x1="95.2928" y1="125.602" x2="92.0272" y2="125.776" class="gray" /></g>
<g><line x1="87.9525" y1="125.986" x2="84.2675" y2="126.172" class="gray" /></g>
<g><line x1="81.1512" y1="128.005" x2="79.3088" y2="130.962" class="gray" /></g>
<g><line x1="76.5269" y1="133.817" x2="73.9131" y2="135.541" class="gray" /></g>
<g><line x1="70.1787" y1="136.853" x2="66.7213" y2="137.175" class="gray" /></g>
<g><line x1="62.7796" y1="136.648" x2="59.3404" y2="135.36" class="gray" /></g>
<g><line x1="56.0494" y1="133.142" x2="53.6906" y2="130.576" class="gray" /></g>
<g><line x1="51.6914" y1="127.13" x2="50.6186" y2="123.758" class="gray" /></g>
<g><line x1="50.3616" y1="119.806" x2="50.9784" y2="116.382" class="gray" /></g>
<g><line x1="52.5923" y1="112.763" x2="54.8077" y2="109.914" class="gray" /></g>
<g><line x1="57.8889" y1="107.4" x2="61.1711" y2="105.778" class="gray" /></g>
<g><line x1="65.04" y1="104.851" x2="68.11" y2="104.817" class="gray" /></g>
<g><line x1="72.0064" y1="105.64" x2="75.5136" y2="107.238" class="gray" /></g>
<g><line x1="78.5857" y1="109.722" x2="80.5843" y2="112.416" class="gray" /></g>
<g><line x1="83.8371" y1="113.943" x2="87.1029" y2="113.765" class="gray" /></g>
<g><line x1="91.1775" y1="113.552" x2="94.8625" y2="113.366" class="gray" /></g>
<g><line x1="97.6086" y1="111.351" x2="98.7914" y2="108.157" class="gray" /></g>
<g><line x1="100.858" y1="104.722" x2="103.262" y2="102.026" class="gray" /></g>
<g><line x1="103.767" y1="98.6506" x2="102.313" y2="95.4874" class="gray" /></g>
<g><line x1="100.562" y1="91.8024" x2="98.9885" y2="88.5956" class="gray" /></g>
<g><line x1="97.2342" y1="84.9121" x2="95.7758" y2="81.7559" class="gray" /></g>
<g><line x1="94.1642" y1="78.0091" x2="92.9358" y2="74.9289" class="gray" /></g>
<g><line x1="90.3219" y1="72.1918" x2="86.9781" y2="70.6762" class="gray" /></g>
<g><line x1="84.1689" y1="68.0291" x2="82.5511" y2="64.9588" class="gray" /></g>
<g><line x1="81.9345" y1="61.1415" x2="82.5055" y2="57.7065" class="gray" /></g>
<g><line x1="84.3485" y1="54.3205" x2="87.0315" y2="51.8775" class="gray" /></g>
<g><line x1="90.5669" y1="50.2727" x2="93.6131" y2="49.9252" class="gray" /></g>
<g><line x1="97.3867" y1="50.748" x2="100.373" y2="52.55" class="gray" /></g>
<g><line x1="102.921" y1="55.4804" x2="104.319" y2="58.7576" class="gray" /></g>
<g><line x1="104.572" y1="62.5991" x2="103.638" y2="65.9489" class="gray" /></g>
<g><line x1="103.943" y1="69.7674" x2="105.397" y2="72.9306" class="gray" /></g>
<g><line x1="107.104" y1="76.6369" x2="108.556" y2="79.791" class="gray" /></g>
<g><line x1="110.308" y1="83.4756" x2="111.882" y2="86.6824" class="gray" /></g>
<g><line x1="113.538" y1="90.408" x2="114.772" y2="93.49" class="gray" /></g>
<g><line x1="117.57" y1="95.384" x2="121.26" y2="95.384" class="gray" /></g>
<g><line x1="125.226" y1="96.0573" x2="128.324" y2="97.1407" class="gray" /></g>
<g><line x1="131.683" y1="96.3622" x2="134.227" y2="93.7858" class="gray" /></g>
<g><line x1="137.066" y1="90.8555" x2="139.464" y2="88.3325" class="gray" /></g>
<g><line x1="141.79" y1="85.0331" x2="143.36" y2="81.9249" class="gray" /></g>
<g><line x1="146.29" y1="79.7559" x2="149.72" y2="79.1621" class="gray" /></g>
<g><line x1="153.209" y1="80.2197" x2="155.731" y2="82.6183" class="gray" /></g>
<g><line x1="156.909" y1="86.0417" x2="156.391" y2="89.5063" class="gray" /></g>
<g><line x1="154.32" y1="92.5385" x2="151.3" y2="94.2695" class="gray" /></g>
<g><line x1="148.187" y1="96.82" x2="146.083" y2="99.228" class="gray" /></g>
<g><line x1="143.307" y1="102.216" x2="140.763" y2="104.792" class="gray" /></g>
<g><line x1="140.036" y1="108.158" x2="141.214" y2="111.35" class="gray" /></g>
<g><line x1="142.084" y1="115.297" x2="142.366" y2="118.781" class="gray" /></g>
<g><line x1="141.92" y1="122.761" x2="140.86" y2="126.147" class="gray" /></g>
<g><line x1="142.213" y1="128.651" x2="145.757" y2="129.657" class="gray" /></g>
<g><line x1="148.542" y1="132.081" x2="149.908" y2="135.187" class="gray" /></g>
<g><line x1="152.28" y1="138.38" x2="154.93" y2="140.648" class="gray" /></g>
<g><line x1="158.03" y1="143.3" x2="160.67" y2="145.558" class="gray" /></g>
<g><line x1="164.26" y1="146.894" x2="167.95" y2="146.913" class="gray" /></g>
<g><line x1="171.609" y1="148.165" x2="174.371" y2="150.283" class="gray" /></g>
<g><line x1="176.527" y1="153.492" x2="177.443" y2="156.846" class="gray" /></g>
<g><line x1="177.267" y1="160.725" x2="176.073" y2="163.923" class="gray" /></g>
<g><line x1="173.608" y1="166.879" x2="170.622" y2="168.659" class="gray" /></g>
<g><line x1="166.841" y1="169.489" x2="162.969" y2="169.079" class="gray" /></g>
<g><line x1="159.491" y1="167.428" x2="157.129" y2="165.09" class="gray" /></g>
<g><line x1="155.354" y1="161.64" x2="154.796" y2="158.198" class="gray" /></g>
<g><line x1="152.92" y1="154.858" x2="150.28" y2="152.6" class="gray" /></g>
<g><line x1="147.18" y1="149.948" x2="144.53" y2="147.68" class="gray" /></g>
<g><line x1="141.023" y1="145.779" x2="137.687" y2="144.799" class="gray" /></g>
<g><line x1="134.86" y1="142.379" x2="133.38" y2="139.239" class="gray" /></g>
<g><line x1="130.657" y1="138.247" x2="127.493" y2="139.701" class="gray" /></g>
<g><line x1="125.64" y1="142.594" x2="125.64" y2="146.074" class="gray" /></g>
<g><line x1="125.64" y1="150.154" x2="125.64" y2="153.634" class="gray" /></g>
<g><line x1="125.583" y1="157.713" x2="125.487" y2="161.195" class="gray" /></g>
<g><line x1="125.487" y1="165.273" x2="125.583" y2="168.755" class="gray" /></g>
<g><line x1="125.583" y1="172.833" x2="125.487" y2="176.315" class="gray" /></g>
<g><line x1="125.487" y1="180.393" x2="125.583" y2="183.875" class="gray" /></g>
<g><line x1="127.11" y1="187.328" x2="129.614" y2="189.738" class="gray" /></g>
<g><line x1="130.884" y1="193.183" x2="130.541" y2="196.641" class="gray" /></g>
</svg>
