<svg
	xmlns="http://www.w3.org/2000/svg"
	width="153.918"
	height="284.662">
<g><style type="text/css" >
<!-- create color definitions -->
<![CDATA[
circle.red {stroke: rgb(255, 0, 255); fill: none; }
circle.green {stroke: rgb(0, 255, 0); fill: none; }
circle.blue {stroke: rgb(0, 0, 255); fill: none; }
circle.black {stroke: rgb(0, 0, 0); fill: none; }
circle.gray {stroke: rgb(204, 204, 204); fill: none; }
circle.brown {stroke: rgb(211.65, 104.55, 30.6); fill: none; }
line.red {stroke: rgb(255, 0, 255); stroke-width: 0.385052; }
line.green {stroke: rgb(0, 255, 0); stroke-width: 0.385052; }
line.blue {stroke: rgb(0, 0, 255); stroke-width: 0.385052; }
line.black {stroke: rgb(0, 0, 0); stroke-width: 0.385052; }
line.gray {stroke: rgb(204, 204, 204); stroke-width: 0.385052; }
line.brown {stroke: rgb(211.65, 104.55, 30.6); stroke-width: 0.385052; }
line {stroke: rgb(0, 0, 0); }
text.red {fill: rgb(255, 0, 255); font-size: 3.080417px; font-weight: bold; font-family: Helvetica; }
text.green {fill: rgb(0, 255, 0); font-size: 3.080417px; font-weight: bold; font-family: Helvetica; }
text.blue {fill: rgb(0, 0, 255); font-size: 3.080417px; font-weight: bold; font-family: Helvetica; }
text.black {fill: rgb(0, 0, 0); font-size: 3.080417px; font-weight: bold; font-family: Helvetica; }
text.gray {fill: rgb(204, 204, 204); font-size: 3.080417px; font-weight: bold; font-family: Helvetica; }
text.brown {fill: rgb(211.65, 104.55, 30.6); font-size: 3.080417px; font-weight: bold; font-family: Helvetica; }
text {fill: rgb(0, 0, 0); font-size: 3.080417px; font-weight: bold; font-family: Helvetica; text-anchor: middle; alignment-baseline: middle; }

.pseudoknot_connection{stroke-linecap: round; stroke-opacity: 0.2; stroke-width: 1.5; }
.pseudoknot_segment1{stroke-linecap: round; stroke-opacity: 0.4; stroke-width: 3.08042; }
.pseudoknot_segment2{stroke-linecap: round; stroke-opacity: 0.4; stroke-width: 3.08042; }
line.numbering-line{stroke: rgb(204, 204, 204); stroke-width: 0.192526; }
line.predicted{stroke: rgb(0, 0, 0); stroke-dasharray: 2; }
polyline{fill: none; stroke-linejoin: round; }
template{visibility: hidden; }
text.numbering-label{fill: rgb(204, 204, 204); }
]]>
</style></g>
<g><title>0 (position.label in template: 0.5')</title><text x="63.43" y="236.882" class="green" >5'</text></g>
<g><title>1 (position.label in template: 1.G)</title><text x="63.43" y="229.32" class="black" >G</text></g>
<g><line x1="65.4836" y1="229.012" x2="73.8264" y2="229.012" class="black" /></g>
<g><title>2 (position.label in template: 2.G)</title><text x="63.43" y="221.76" class="green" >G</text></g>
<g><line x1="65.4836" y1="221.452" x2="73.8264" y2="221.452" class="black" /></g>
<g><title>3 (position.label in template: 3.C)</title><text x="63.64" y="214.2" class="black" >C</text></g>
<g><line x1="65.6936" y1="213.892" x2="73.6164" y2="213.892" class="black" /></g>
<g><title>4 (position.label in template: 4.U)</title><text x="63.64" y="206.64" class="green" >T</text></g>
<g><line x1="65.6936" y1="206.332" x2="74.0364" y2="206.332" class="black" /></g>
<g><title>5 (position.label in template: 5.G)</title><text x="63.43" y="199.08" class="green" >G</text></g>
<g><line x1="65.4836" y1="198.772" x2="73.8264" y2="198.772" class="black" /></g>
<g><title>6 (position.label in template: 6.G)</title><text x="63.43" y="191.52" class="black" >G</text></g>
<g><line x1="65.4836" y1="191.212" x2="73.8264" y2="191.212" class="black" /></g>
<g><title>7 (position.label in template: 7.U)</title><text x="63.64" y="183.96" class="green" >T</text></g>
<g><line x1="65.6936" y1="183.652" x2="74.0364" y2="183.652" class="black" /></g>
<g><title>8 (position.label in template: 8.C)</title><text x="63.64" y="176.4" class="black" >C</text></g>
<g><line x1="65.6936" y1="176.092" x2="73.6164" y2="176.092" class="black" /></g>
<g><title>9 (position.label in template: 9.U)</title><text x="57.09" y="172.62" class="green" >T</text></g>
<g><title>10 (position.label in template: 10.G)</title><text x="63.43" y="168.84" class="green" >G</text></g>
<g><line x1="65.4836" y1="168.532" x2="73.8264" y2="168.532" class="black" /></g>
<g><text x="57.4283" y="165.373" class="numbering-label sequential" >10</text></g>
<g><line x1="61.8295" y1="167.916" x2="59.2765" y2="166.441" class="numbering-line sequential" /></g>
<g><title>11 (position.label in template: 11.C)</title><text x="63.64" y="161.28" class="green" >C</text></g>
<g><line x1="65.6936" y1="160.972" x2="73.8264" y2="160.972" class="black" /></g>
<g><title>12 (position.label in template: 12.A)</title><text x="59.14" y="155.36" class="black" >A</text></g>
<g><title>13 (position.label in template: 13.G)</title><text x="58.73" y="147.8" class="black" >G</text></g>
<g><title>14 (position.label in template: 14.G)</title><text x="63.43" y="141.88" class="black" >G</text></g>
<g><line x1="65.4836" y1="141.572" x2="73.8264" y2="141.572" class="black" /></g>
<g><title>15 (position.label in template: 15.U)</title><text x="63.64" y="134.33" class="green" >T</text></g>
<g><line x1="65.6936" y1="134.022" x2="73.6164" y2="134.022" class="black" /></g>
<g><title>16 (position.label in template: 16.A)</title><text x="63.85" y="126.77" class="green" >A</text></g>
<g><line x1="65.9036" y1="126.462" x2="73.8264" y2="126.462" class="black" /></g>
<g><title>17 (position.label in template: 17.G)</title><text x="63.43" y="119.2" class="black" >G</text></g>
<g><line x1="65.4836" y1="118.892" x2="73.8264" y2="118.892" class="black" /></g>
<g><title>18 (position.label in template: 18.U)</title><text x="63.64" y="111.64" class="green" >T</text></g>
<g><line x1="65.6936" y1="111.332" x2="74.0364" y2="111.332" class="black" /></g>
<g><title>19 (position.label in template: 19.G)</title><text x="63.43" y="104.08" class="black" >G</text></g>
<g><line x1="65.4836" y1="103.772" x2="73.8264" y2="103.772" class="black" /></g>
<g><title>20 (position.label in template: 20.A)</title><text x="63.85" y="96.52" class="green" >A</text></g>
<g><line x1="65.9036" y1="96.212" x2="73.8264" y2="96.212" class="black" /></g>
<g><text x="56.9191" y="96.52" class="numbering-label sequential" >20</text></g>
<g><line x1="62.0018" y1="96.52" x2="58.7673" y2="96.52" class="numbering-line sequential" /></g>
<g><title>21 (position.label in template: 21.G)</title><text x="63.43" y="88.96" class="black" >G</text></g>
<g><line x1="65.4836" y1="88.652" x2="73.8264" y2="88.652" class="black" /></g>
<g><title>22 (position.label in template: 22.U)</title><text x="57" y="85.36" class="green" >T</text></g>
<g><title>23 (position.label in template: 23.U)</title><text x="52.16" y="79.55" class="green" >T</text></g>
<g><title>24 (position.label in template: 24.A)</title><text x="50" y="72.37" class="black" >A</text></g>
<g><title>25 (position.label in template: 25.U)</title><text x="50.25" y="64.82" class="green" >T</text></g>
<g><title>26 (position.label in template: 26.U)</title><text x="53.45" y="57.98" class="green" >T</text></g>
<g><title>27 (position.label in template: 27.U)</title><text x="58.95" y="52.79" class="green" >T</text></g>
<g><title>28 (position.label in template: 28.C)</title><text x="65.98" y="50" class="black" >C</text></g>
<g><title>29 (position.label in template: 29.U)</title><text x="73.54" y="50" class="green" >T</text></g>
<g><title>30 (position.label in template: 30.C)</title><text x="80.57" y="52.79" class="black" >C</text></g>
<g><text x="84.2932" y="46.944" class="numbering-label sequential" >30</text></g>
<g><line x1="81.5628" y1="51.2311" x2="83.3122" y2="48.4842" class="numbering-line sequential" /></g>
<g><title>31 (position.label in template: 31.C)</title><text x="86.07" y="57.98" class="black" >C</text></g>
<g><title>32 (position.label in template: 32.C)</title><text x="89.28" y="64.82" class="black" >C</text></g>
<g><title>33 (position.label in template: 33.C)</title><text x="89.73" y="72.37" class="black" >C</text></g>
<g><title>34 (position.label in template: 34.U)</title><text x="87.37" y="79.55" class="green" >T</text></g>
<g><title>35 (position.label in template: 35.U)</title><text x="82.52" y="85.36" class="green" >T</text></g>
<g><title>36 (position.label in template: 36.C)</title><text x="75.88" y="88.96" class="black" >C</text></g>
<g><title>37 (position.label in template: 37.U)</title><text x="75.88" y="96.52" class="green" >T</text></g>
<g><title>38 (position.label in template: 38.C)</title><text x="75.88" y="104.08" class="black" >C</text></g>
<g><title>39 (position.label in template: 39.A)</title><text x="76.09" y="111.64" class="green" >A</text></g>
<g><title>40 (position.label in template: 40.C)</title><text x="75.88" y="119.2" class="black" >C</text></g>
<g><title>41 (position.label in template: 41.U)</title><text x="75.88" y="126.77" class="green" >T</text></g>
<g><title>42 (position.label in template: 42.A)</title><text x="83.28" y="124.43" class="black" >A</text></g>
<g><title>43 (position.label in template: 43.C)</title><text x="87.52" y="130.55" class="black" >C</text></g>
<g><title>44 (position.label in template: 44.C)</title><text x="83.07" y="136.66" class="black" >C</text></g>
<g><title>45 (position.label in template: 45.G)</title><text x="75.67" y="134.33" class="green" >G</text></g>
<g><title>46 (position.label in template: 46.C)</title><text x="75.88" y="141.88" class="black" >C</text></g>
<g><title>47 (position.label in template: 47.U)</title><text x="80.59" y="147.8" class="green" >T</text></g>
<g><title>48 (position.label in template: 48.C)</title><text x="80.59" y="155.36" class="black" >C</text></g>
<g><title>49 (position.label in template: 49.U)</title><text x="75.88" y="161.28" class="green" >T</text></g>
<g><title>50 (position.label in template: 50.U)</title><text x="75.88" y="168.84" class="green" >T</text></g>
<g><text x="82.8103" y="168.936" class="numbering-label sequential" >50</text></g>
<g><line x1="77.7281" y1="168.866" x2="80.962" y2="168.911" class="numbering-line sequential" /></g>
<g><title>51 (position.label in template: 51.G)</title><text x="75.67" y="176.4" class="black" >G</text></g>
<g><title>52 (position.label in template: 52.A)</title><text x="76.09" y="183.96" class="green" >A</text></g>
<g><title>53 (position.label in template: 53.C)</title><text x="75.88" y="191.52" class="black" >C</text></g>
<g><title>54 (position.label in template: 54.U)</title><text x="75.88" y="199.08" class="green" >T</text></g>
<g><title>55 (position.label in template: 55.A)</title><text x="76.09" y="206.64" class="green" >A</text></g>
<g><title>56 (position.label in template: 56.G)</title><text x="75.67" y="214.2" class="black" >G</text></g>
<g><title>57 (position.label in template: 57.U)</title><text x="75.88" y="221.76" class="green" >T</text></g>
<g><title>58 (position.label in template: 58.C)</title><text x="75.88" y="229.32" class="black" >C</text></g>
<g><title>59 (position.label in template: 59.U)</title><text x="81.2321" y="234.662" class="green" >T</text></g>
<g><title>60 (position.label in template: 60.U)</title><text x="88.794" y="234.662" class="green" >T</text></g>
<g><title>61 (position.label in template: 61.A)</title><text x="96.3559" y="234.662" class="black" >A</text></g>
<g><title>62 (position.label in template: 62.G)</title><text x="103.918" y="234.662" class="black" >G</text></g>
<g><title>63 (position.label in template: 63.3')</title><text x="111.48" y="234.662" class="green" >3'</text></g>
<g><line x1="63.43" y1="234.52" x2="63.43" y2="231.066" class="gray" /></g>
<g><line x1="63.43" y1="226.958" x2="63.43" y2="223.506" class="gray" /></g>
<g><line x1="63.487" y1="219.399" x2="63.583" y2="215.945" class="gray" /></g>
<g><line x1="63.64" y1="211.838" x2="63.64" y2="208.386" class="gray" /></g>
<g><line x1="63.583" y1="204.279" x2="63.487" y2="200.825" class="gray" /></g>
<g><line x1="63.43" y1="196.718" x2="63.43" y2="193.266" class="gray" /></g>
<g><line x1="63.487" y1="189.159" x2="63.583" y2="185.705" class="gray" /></g>
<g><line x1="63.64" y1="181.598" x2="63.64" y2="178.146" class="gray" /></g>
<g><line x1="61.8613" y1="175.065" x2="58.8687" y2="173.338" class="gray" /></g>
<g><line x1="58.8539" y1="171.26" x2="61.6661" y2="169.584" class="gray" /></g>
<g><line x1="63.487" y1="166.479" x2="63.583" y2="163.025" class="gray" /></g>
<g><line x1="62.3973" y1="159.337" x2="60.3827" y2="156.687" class="gray" /></g>
<g><line x1="59.0288" y1="153.001" x2="58.8412" y2="149.543" class="gray" /></g>
<g><line x1="60.0069" y1="145.884" x2="62.1531" y2="143.18" class="gray" /></g>
<g><line x1="63.4871" y1="139.519" x2="63.5829" y2="136.075" class="gray" /></g>
<g><line x1="63.697" y1="131.969" x2="63.793" y2="128.515" class="gray" /></g>
<g><line x1="63.7362" y1="124.412" x2="63.5438" y2="120.942" class="gray" /></g>
<g><line x1="63.487" y1="116.839" x2="63.583" y2="113.385" class="gray" /></g>
<g><line x1="63.583" y1="109.279" x2="63.487" y2="105.825" class="gray" /></g>
<g><line x1="63.5439" y1="101.722" x2="63.7361" y2="98.2624" class="gray" /></g>
<g><line x1="63.7361" y1="94.1615" x2="63.5439" y2="90.7024" class="gray" /></g>
<g><line x1="61.6381" y1="87.6487" x2="58.7919" y2="86.0552" class="gray" /></g>
<g><line x1="55.6856" y1="83.4741" x2="53.4744" y2="80.8198" class="gray" /></g>
<g><line x1="51.5684" y1="77.2754" x2="50.5916" y2="74.0285" class="gray" /></g>
<g><line x1="50.068" y1="70.0095" x2="50.182" y2="66.5644" class="gray" /></g>
<g><line x1="51.1202" y1="62.6518" x2="52.5798" y2="59.5321" class="gray" /></g>
<g><line x1="54.9436" y1="56.2625" x2="57.4564" y2="53.8914" class="gray" /></g>
<g><line x1="60.8588" y1="51.7244" x2="64.0712" y2="50.4495" class="gray" /></g>
<g><line x1="68.0336" y1="49.692" x2="71.4864" y2="49.692" class="gray" /></g>
<g><line x1="75.4488" y1="50.4495" x2="78.6612" y2="51.7244" class="gray" /></g>
<g><line x1="82.0636" y1="53.8914" x2="84.5764" y2="56.2625" class="gray" /></g>
<g><line x1="86.9425" y1="59.531" x2="88.4075" y2="62.6529" class="gray" /></g>
<g><line x1="89.4022" y1="66.5619" x2="89.6078" y2="70.012" class="gray" /></g>
<g><line x1="89.0887" y1="74.0129" x2="88.0113" y2="77.291" class="gray" /></g>
<g><line x1="86.054" y1="80.8185" x2="83.836" y2="83.4754" class="gray" /></g>
<g><line x1="80.7147" y1="86.0308" x2="77.6853" y2="87.6732" class="gray" /></g>
<g><line x1="75.88" y1="90.7056" x2="75.88" y2="94.1583" class="gray" /></g>
<g><line x1="75.88" y1="98.2656" x2="75.88" y2="101.718" class="gray" /></g>
<g><line x1="75.937" y1="105.825" x2="76.033" y2="109.279" class="gray" /></g>
<g><line x1="76.033" y1="113.385" x2="75.937" y2="116.839" class="gray" /></g>
<g><line x1="75.88" y1="120.946" x2="75.88" y2="124.408" class="gray" /></g>
<g><line x1="77.838" y1="125.843" x2="81.322" y2="124.741" class="gray" /></g>
<g><line x1="84.4495" y1="125.81" x2="86.3505" y2="128.554" class="gray" /></g>
<g><line x1="86.311" y1="131.902" x2="84.279" y2="134.692" class="gray" /></g>
<g><line x1="81.1112" y1="135.735" x2="77.6288" y2="134.639" class="gray" /></g>
<g><line x1="75.7271" y1="136.075" x2="75.8229" y2="139.519" class="gray" /></g>
<g><line x1="77.1586" y1="143.179" x2="79.3114" y2="145.885" class="gray" /></g>
<g><line x1="80.59" y1="149.546" x2="80.59" y2="152.998" class="gray" /></g>
<g><line x1="79.3114" y1="156.659" x2="77.1586" y2="159.365" class="gray" /></g>
<g><line x1="75.88" y1="163.026" x2="75.88" y2="166.478" class="gray" /></g>
<g><line x1="75.823" y1="170.585" x2="75.727" y2="174.039" class="gray" /></g>
<g><line x1="75.7839" y1="178.142" x2="75.9761" y2="181.602" class="gray" /></g>
<g><line x1="76.033" y1="185.705" x2="75.937" y2="189.159" class="gray" /></g>
<g><line x1="75.88" y1="193.266" x2="75.88" y2="196.718" class="gray" /></g>
<g><line x1="75.937" y1="200.825" x2="76.033" y2="204.279" class="gray" /></g>
<g><line x1="75.9761" y1="208.382" x2="75.7839" y2="211.842" class="gray" /></g>
<g><line x1="75.727" y1="215.945" x2="75.823" y2="219.399" class="gray" /></g>
<g><line x1="75.88" y1="223.506" x2="75.88" y2="226.958" class="gray" /></g>
<g><line x1="77.3335" y1="230.463" x2="79.7786" y2="232.903" class="gray" /></g>
<g><line x1="83.2857" y1="234.354" x2="86.7404" y2="234.354" class="gray" /></g>
<g><line x1="90.8476" y1="234.354" x2="94.3023" y2="234.354" class="gray" /></g>
<g><line x1="98.4096" y1="234.354" x2="101.864" y2="234.354" class="gray" /></g>
<g><line x1="105.971" y1="234.354" x2="109.426" y2="234.354" class="gray" /></g>
</svg>
