<svg
	xmlns="http://www.w3.org/2000/svg"
	width="226.49"
	height="241.826">
<g><style type="text/css" >
<!-- create color definitions -->
<![CDATA[
circle.red {stroke: rgb(255, 0, 255); fill: none; }
circle.green {stroke: rgb(0, 255, 0); fill: none; }
circle.blue {stroke: rgb(0, 0, 255); fill: none; }
circle.black {stroke: rgb(0, 0, 0); fill: none; }
circle.gray {stroke: rgb(204, 204, 204); fill: none; }
circle.brown {stroke: rgb(211.65, 104.55, 30.6); fill: none; }
line.red {stroke: rgb(255, 0, 255); stroke-width: 0.383926; }
line.green {stroke: rgb(0, 255, 0); stroke-width: 0.383926; }
line.blue {stroke: rgb(0, 0, 255); stroke-width: 0.383926; }
line.black {stroke: rgb(0, 0, 0); stroke-width: 0.383926; }
line.gray {stroke: rgb(204, 204, 204); stroke-width: 0.383926; }
line.brown {stroke: rgb(211.65, 104.55, 30.6); stroke-width: 0.383926; }
line {stroke: rgb(0, 0, 0); }
text.red {fill: rgb(255, 0, 255); font-size: 3.071409px; font-weight: bold; font-family: Helvetica; }
text.green {fill: rgb(0, 255, 0); font-size: 3.071409px; font-weight: bold; font-family: Helvetica; }
text.blue {fill: rgb(0, 0, 255); font-size: 3.071409px; font-weight: bold; font-family: Helvetica; }
text.black {fill: rgb(0, 0, 0); font-size: 3.071409px; font-weight: bold; font-family: Helvetica; }
text.gray {fill: rgb(204, 204, 204); font-size: 3.071409px; font-weight: bold; font-family: Helvetica; }
text.brown {fill: rgb(211.65, 104.55, 30.6); font-size: 3.071409px; font-weight: bold; font-family: Helvetica; }
text {fill: rgb(0, 0, 0); font-size: 3.071409px; font-weight: bold; font-family: Helvetica; text-anchor: middle; alignment-baseline: middle; }

.pseudoknot_connection{stroke-linecap: round; stroke-opacity: 0.2; stroke-width: 1.5; }
.pseudoknot_segment1{stroke-linecap: round; stroke-opacity: 0.4; stroke-width: 3.07141; }
.pseudoknot_segment2{stroke-linecap: round; stroke-opacity: 0.4; stroke-width: 3.07141; }
line.numbering-line{stroke: rgb(204, 204, 204); stroke-width: 0.191963; }
line.predicted{stroke: rgb(0, 0, 0); stroke-dasharray: 2; }
polyline{fill: none; stroke-linejoin: round; }
template{visibility: hidden; }
text.numbering-label{fill: rgb(204, 204, 204); }
]]>
</style></g>
<g><title>0 (position.label in template: 0.5')</title><text x="110.09" y="194.141" class="green" >5'</text></g>
<g><title>1 (position.label in template: 1.G)</title><text x="110.09" y="186.59" class="black" >G</text></g>
<g><line x1="112.138" y1="186.283" x2="120.492" y2="186.283" class="black" /></g>
<g><title>2 (position.label in template: 2.G)</title><text x="110.09" y="179.03" class="black" >G</text></g>
<g><line x1="112.138" y1="178.723" x2="120.492" y2="178.723" class="black" /></g>
<g><title>3 (position.label in template: 3.G)</title><text x="110.09" y="171.47" class="black" >G</text></g>
<g><line x1="112.138" y1="171.163" x2="120.492" y2="171.163" class="black" /></g>
<g><title>4 (position.label in template: 4.C)</title><text x="110.3" y="163.91" class="black" >C</text></g>
<g><line x1="112.348" y1="163.603" x2="120.282" y2="163.603" class="black" /></g>
<g><title>5 (position.label in template: 5.G)</title><text x="110.09" y="156.35" class="black" >G</text></g>
<g><line x1="112.138" y1="156.043" x2="120.492" y2="156.043" class="black" /></g>
<g><title>6 (position.label in template: 6.U)</title><text x="110.3" y="148.79" class="green" >T</text></g>
<g><line x1="112.348" y1="148.483" x2="120.282" y2="148.483" class="black" /></g>
<g><title>7 (position.label in template: 7.C)</title><text x="110.3" y="141.23" class="black" >C</text></g>
<g><line x1="112.348" y1="140.923" x2="120.282" y2="140.923" class="black" /></g>
<g><title>8 (position.label in template: 8.U)</title><text x="103.48" y="137.97" class="green" >T</text></g>
<g><title>9 (position.label in template: 9.A)</title><text x="98.34" y="132.62" class="black" >A</text></g>
<g><title>10 (position.label in template: 10.G)</title><text x="94.66" y="125.8" class="black" >G</text></g>
<g><line x1="94.6951" y1="123.446" x2="94.8349" y2="115.3" class="black" /></g>
<g><text x="91.0257" y="131.678" class="numbering-label sequential" >10</text></g>
<g><line x1="93.6908" y1="127.367" x2="91.9752" y2="130.142" class="numbering-line sequential" /></g>
<g><title>11 (position.label in template: 11.C)</title><text x="87.31" y="125.8" class="black" >C</text></g>
<g><line x1="87.2749" y1="123.446" x2="87.1351" y2="115.3" class="black" /></g>
<g><title>12 (position.label in template: 12.U)</title><text x="79.75" y="125.8" class="green" >T</text></g>
<g><line x1="79.7851" y1="123.446" x2="79.9249" y2="115.3" class="black" /></g>
<g><title>13 (position.label in template: 13.C)</title><text x="72.19" y="125.8" class="black" >C</text></g>
<g><line x1="72.1549" y1="123.446" x2="72.0151" y2="115.3" class="black" /></g>
<g><title>14 (position.label in template: 14.A)</title><text x="66.63" y="130.69" class="black" >A</text></g>
<g><title>15 (position.label in template: 15.A)</title><text x="59.08" y="131.1" class="black" >A</text></g>
<g><title>16 (position.label in template: 16.C)</title><text x="52.62" y="126.85" class="black" >C</text></g>
<g><title>17 (position.label in template: 17.G)</title><text x="50" y="119.68" class="black" >G</text></g>
<g><title>18 (position.label in template: 18.G)</title><text x="52.41" y="112.52" class="black" >G</text></g>
<g><title>19 (position.label in template: 19.U)</title><text x="58.88" y="108.27" class="green" >T</text></g>
<g><title>20 (position.label in template: 20.A)</title><text x="66.63" y="108.68" class="black" >A</text></g>
<g><text x="69.2176" y="102.272" class="numbering-label sequential" >20</text></g>
<g><line x1="67.32" y1="106.971" x2="68.5975" y2="103.808" class="numbering-line sequential" /></g>
<g><title>21 (position.label in template: 21.G)</title><text x="71.98" y="113.56" class="black" >G</text></g>
<g><title>22 (position.label in template: 22.A)</title><text x="79.96" y="113.56" class="green" >A</text></g>
<g><title>23 (position.label in template: 23.G)</title><text x="87.1" y="113.56" class="black" >G</text></g>
<g><title>24 (position.label in template: 24.C)</title><text x="94.87" y="113.56" class="black" >C</text></g>
<g><title>25 (position.label in template: 25.C)</title><text x="98.14" y="106.75" class="black" >C</text></g>
<g><title>26 (position.label in template: 26.G)</title><text x="103.27" y="101.4" class="black" >G</text></g>
<g><line x1="105.205" y1="100.423" x2="113.095" y2="97.6925" class="black" /></g>
<g><title>27 (position.label in template: 27.G)</title><text x="100.76" y="94.27" class="green" >G</text></g>
<g><line x1="102.695" y1="93.2927" x2="110.575" y2="90.563" class="black" /></g>
<g><title>28 (position.label in template: 28.C)</title><text x="98.45" y="87.14" class="black" >C</text></g>
<g><line x1="100.377" y1="86.1412" x2="107.863" y2="83.4546" class="black" /></g>
<g><title>29 (position.label in template: 29.U)</title><text x="95.94" y="80.01" class="green" >T</text></g>
<g><line x1="97.8748" y1="79.0327" x2="105.755" y2="76.303" class="black" /></g>
<g><title>30 (position.label in template: 30.G)</title><text x="93.21" y="72.88" class="black" >G</text></g>
<g><line x1="95.145" y1="71.9032" x2="103.035" y2="69.1725" class="black" /></g>
<g><text x="87.8828" y="77.282" class="numbering-label sequential" >30</text></g>
<g><line x1="91.7894" y1="74.0539" x2="89.7412" y2="75.7463" class="numbering-line sequential" /></g>
<g><title>31 (position.label in template: 31.C)</title><text x="86.9" y="69.07" class="black" >C</text></g>
<g><title>32 (position.label in template: 32.U)</title><text x="84.01" y="62.08" class="green" >T</text></g>
<g><title>33 (position.label in template: 33.C)</title><text x="85.93" y="54.77" class="black" >C</text></g>
<g><title>34 (position.label in template: 34.A)</title><text x="92.09" y="50.11" class="black" >A</text></g>
<g><title>35 (position.label in template: 35.U)</title><text x="99.44" y="50" class="green" >T</text></g>
<g><title>36 (position.label in template: 36.A)</title><text x="105.73" y="54.49" class="black" >A</text></g>
<g><title>37 (position.label in template: 37.A)</title><text x="107.86" y="61.75" class="black" >A</text></g>
<g><title>38 (position.label in template: 38.C)</title><text x="104.97" y="68.81" class="black" >C</text></g>
<g><title>39 (position.label in template: 39.A)</title><text x="107.69" y="75.94" class="green" >A</text></g>
<g><title>40 (position.label in template: 40.G)</title><text x="109.79" y="83.07" class="black" >G</text></g>
<g><title>41 (position.label in template: 41.U)</title><text x="112.51" y="90.2" class="green" >T</text></g>
<g><title>42 (position.label in template: 42.C)</title><text x="115.03" y="97.33" class="black" >C</text></g>
<g><title>43 (position.label in template: 43.C)</title><text x="122.54" y="98.14" class="black" >C</text></g>
<g><title>44 (position.label in template: 44.A)</title><text x="129.57" y="101.4" class="black" >A</text></g>
<g><title>45 (position.label in template: 45.A)</title><text x="134.91" y="106.75" class="black" >A</text></g>
<g><title>46 (position.label in template: 46.A)</title><text x="138.18" y="113.56" class="black" >A</text></g>
<g><title>47 (position.label in template: 47.U)</title><text x="138.78" y="121.08" class="green" >T</text></g>
<g><title>48 (position.label in template: 48.A)</title><text x="137.25" y="128.44" class="green" >A</text></g>
<g><line x1="135.944" y1="129.71" x2="130.666" y2="136.086" class="black" /></g>
<g><title>49 (position.label in template: 49.U)</title><text x="142.93" y="133.18" class="green" >T</text></g>
<g><line x1="141.624" y1="134.45" x2="136.346" y2="140.826" class="black" /></g>
<g><title>50 (position.label in template: 50.C)</title><text x="148.82" y="137.93" class="black" >C</text></g>
<g><line x1="147.514" y1="139.2" x2="142.236" y2="145.576" class="black" /></g>
<g><text x="153.205" y="132.589" class="numbering-label sequential" >50</text></g>
<g><line x1="149.989" y1="136.506" x2="151.944" y2="134.124" class="numbering-line sequential" /></g>
<g><title>51 (position.label in template: 51.G)</title><text x="154.49" y="142.67" class="black" >G</text></g>
<g><line x1="153.227" y1="143.974" x2="148.283" y2="150.281" class="black" /></g>
<g><title>52 (position.label in template: 52.G)</title><text x="160.38" y="147.41" class="black" >G</text></g>
<g><line x1="159.117" y1="148.714" x2="154.173" y2="155.021" class="black" /></g>
<g><title>53 (position.label in template: 53.U)</title><text x="168.15" y="147.22" class="green" >T</text></g>
<g><title>54 (position.label in template: 54.U)</title><text x="174.28" y="151.65" class="green" >T</text></g>
<g><title>55 (position.label in template: 55.C)</title><text x="176.49" y="158.88" class="black" >C</text></g>
<g><title>56 (position.label in template: 56.A)</title><text x="174.07" y="165.97" class="black" >A</text></g>
<g><title>57 (position.label in template: 57.A)</title><text x="167.7" y="170.04" class="black" >A</text></g>
<g><title>58 (position.label in template: 58.A)</title><text x="160.17" y="169.42" class="black" >A</text></g>
<g><title>59 (position.label in template: 59.U)</title><text x="154.33" y="164.37" class="green" >T</text></g>
<g><title>60 (position.label in template: 60.C)</title><text x="152.91" y="156.94" class="black" >C</text></g>
<g><title>61 (position.label in template: 61.C)</title><text x="147.02" y="152.2" class="black" >C</text></g>
<g><title>62 (position.label in template: 62.G)</title><text x="140.93" y="147.46" class="black" >G</text></g>
<g><title>63 (position.label in template: 63.G)</title><text x="135.04" y="142.71" class="green" >G</text></g>
<g><title>64 (position.label in template: 64.U)</title><text x="129.36" y="137.97" class="green" >T</text></g>
<g><title>65 (position.label in template: 65.G)</title><text x="122.33" y="141.23" class="black" >G</text></g>
<g><title>66 (position.label in template: 66.G)</title><text x="122.33" y="148.79" class="green" >G</text></g>
<g><title>67 (position.label in template: 67.C)</title><text x="122.54" y="156.35" class="black" >C</text></g>
<g><title>68 (position.label in template: 68.G)</title><text x="122.33" y="163.91" class="black" >G</text></g>
<g><title>69 (position.label in template: 69.C)</title><text x="122.54" y="171.47" class="black" >C</text></g>
<g><title>70 (position.label in template: 70.C)</title><text x="122.54" y="179.03" class="black" >C</text></g>
<g><title>71 (position.label in template: 71.C)</title><text x="122.54" y="186.59" class="black" >C</text></g>
<g><title>72 (position.label in template: 72.A)</title><text x="127.981" y="191.826" class="black" >A</text></g>
<g><title>73 (position.label in template: 73.3')</title><text x="122.753" y="197.273" class="green" >3'</text></g>
<g><line x1="110.09" y1="191.786" x2="110.09" y2="188.33" class="gray" /></g>
<g><line x1="110.09" y1="184.235" x2="110.09" y2="180.77" class="gray" /></g>
<g><line x1="110.09" y1="176.675" x2="110.09" y2="173.21" class="gray" /></g>
<g><line x1="110.147" y1="169.116" x2="110.243" y2="165.65" class="gray" /></g>
<g><line x1="110.243" y1="161.556" x2="110.147" y2="158.09" class="gray" /></g>
<g><line x1="110.147" y1="153.996" x2="110.243" y2="150.53" class="gray" /></g>
<g><line x1="110.3" y1="146.435" x2="110.3" y2="142.97" class="gray" /></g>
<g><line x1="108.453" y1="140.04" x2="105.327" y2="138.546" class="gray" /></g>
<g><line x1="102.061" y1="136.186" x2="99.7586" y2="133.789" class="gray" /></g>
<g><line x1="97.3677" y1="130.511" x2="95.6323" y2="127.295" class="gray" /></g>
<g><line x1="92.6124" y1="125.493" x2="89.3576" y2="125.493" class="gray" /></g>
<g><line x1="85.2624" y1="125.493" x2="81.7976" y2="125.493" class="gray" /></g>
<g><line x1="77.7024" y1="125.493" x2="74.2376" y2="125.493" class="gray" /></g>
<g><line x1="70.6525" y1="126.845" x2="68.1675" y2="129.031" class="gray" /></g>
<g><line x1="64.5854" y1="130.494" x2="61.1246" y2="130.682" class="gray" /></g>
<g><line x1="57.3694" y1="129.667" x2="54.3306" y2="127.668" class="gray" /></g>
<g><line x1="51.9172" y1="124.62" x2="50.7028" y2="121.296" class="gray" /></g>
<g><line x1="50.6532" y1="117.432" x2="51.7568" y2="114.153" class="gray" /></g>
<g><line x1="54.1214" y1="111.089" x2="57.1686" y2="109.087" class="gray" /></g>
<g><line x1="60.9247" y1="108.071" x2="64.5853" y2="108.265" class="gray" /></g>
<g><line x1="68.1428" y1="109.753" x2="70.4672" y2="111.873" class="gray" /></g>
<g><line x1="74.0276" y1="113.253" x2="77.9124" y2="113.253" class="gray" /></g>
<g><line x1="82.0076" y1="113.253" x2="85.0524" y2="113.253" class="gray" /></g>
<g><line x1="89.1476" y1="113.253" x2="92.8224" y2="113.253" class="gray" /></g>
<g><line x1="95.7563" y1="111.407" x2="97.2537" y2="108.289" class="gray" /></g>
<g><line x1="99.5572" y1="104.965" x2="101.853" y2="102.571" class="gray" /></g>
<g><line x1="102.59" y1="99.1614" x2="101.44" y2="95.8943" class="gray" /></g>
<g><line x1="100.129" y1="92.0149" x2="99.0811" y2="88.7808" class="gray" /></g>
<g><line x1="97.7701" y1="84.9014" x2="96.6199" y2="81.6343" class="gray" /></g>
<g><line x1="95.2078" y1="77.7906" x2="93.9422" y2="74.4851" class="gray" /></g>
<g><line x1="91.4571" y1="71.5145" x2="88.6529" y2="69.8212" class="gray" /></g>
<g><line x1="86.1177" y1="66.8706" x2="84.7923" y2="63.6651" class="gray" /></g>
<g><line x1="84.5302" y1="59.7924" x2="85.4098" y2="56.4433" class="gray" /></g>
<g><line x1="87.563" y1="53.2275" x2="90.457" y2="51.0382" class="gray" /></g>
<g><line x1="94.1374" y1="49.7722" x2="97.3926" y2="49.7235" class="gray" /></g>
<g><line x1="101.107" y1="50.8825" x2="104.063" y2="52.9932" class="gray" /></g>
<g><line x1="106.306" y1="56.1476" x2="107.284" y2="59.4781" class="gray" /></g>
<g><line x1="107.084" y1="63.3378" x2="105.746" y2="66.6079" class="gray" /></g>
<g><line x1="105.7" y1="70.416" x2="106.96" y2="73.7197" class="gray" /></g>
<g><line x1="108.269" y1="77.597" x2="109.211" y2="80.7987" class="gray" /></g>
<g><line x1="110.52" y1="84.676" x2="111.78" y2="87.9797" class="gray" /></g>
<g><line x1="113.192" y1="91.8234" x2="114.348" y2="95.0923" class="gray" /></g>
<g><line x1="117.066" y1="97.2424" x2="120.504" y2="97.6133" class="gray" /></g>
<g><line x1="124.398" y1="98.6943" x2="127.712" y2="100.231" class="gray" /></g>
<g><line x1="131.017" y1="102.542" x2="133.463" y2="104.994" class="gray" /></g>
<g><line x1="135.796" y1="108.289" x2="137.294" y2="111.407" class="gray" /></g>
<g><line x1="138.343" y1="115.294" x2="138.617" y2="118.732" class="gray" /></g>
<g><line x1="138.363" y1="122.778" x2="137.667" y2="126.128" class="gray" /></g>
<g><line x1="138.822" y1="129.445" x2="141.358" y2="131.561" class="gray" /></g>
<g><line x1="144.524" y1="134.158" x2="147.226" y2="136.337" class="gray" /></g>
<g><line x1="150.391" y1="138.936" x2="152.919" y2="141.05" class="gray" /></g>
<g><line x1="156.085" y1="143.647" x2="158.785" y2="145.819" class="gray" /></g>
<g><line x1="162.427" y1="147.053" x2="166.103" y2="146.963" class="gray" /></g>
<g><line x1="169.81" y1="148.112" x2="172.62" y2="150.144" class="gray" /></g>
<g><line x1="174.879" y1="153.301" x2="175.891" y2="156.615" class="gray" /></g>
<g><line x1="175.829" y1="160.511" x2="174.731" y2="163.725" class="gray" /></g>
<g><line x1="172.345" y1="166.765" x2="169.425" y2="168.63" class="gray" /></g>
<g><line x1="165.659" y1="169.565" x2="162.211" y2="169.281" class="gray" /></g>
<g><line x1="158.621" y1="167.774" x2="155.879" y2="165.402" class="gray" /></g>
<g><line x1="153.946" y1="162.052" x2="153.294" y2="158.644" class="gray" /></g>
<g><line x1="151.315" y1="155.349" x2="148.615" y2="153.177" class="gray" /></g>
<g><line x1="145.404" y1="150.635" x2="142.546" y2="148.411" class="gray" /></g>
<g><line x1="139.336" y1="145.867" x2="136.634" y2="143.688" class="gray" /></g>
<g><line x1="133.468" y1="141.091" x2="130.932" y2="138.975" class="gray" /></g>
<g><line x1="127.502" y1="138.524" x2="124.188" y2="140.061" class="gray" /></g>
<g><line x1="122.33" y1="142.97" x2="122.33" y2="146.435" class="gray" /></g>
<g><line x1="122.387" y1="150.53" x2="122.483" y2="153.996" class="gray" /></g>
<g><line x1="122.483" y1="158.09" x2="122.387" y2="161.556" class="gray" /></g>
<g><line x1="122.387" y1="165.65" x2="122.483" y2="169.116" class="gray" /></g>
<g><line x1="122.54" y1="173.21" x2="122.54" y2="176.675" class="gray" /></g>
<g><line x1="122.54" y1="180.77" x2="122.54" y2="184.235" class="gray" /></g>
<g><line x1="124.015" y1="187.703" x2="126.506" y2="190.099" class="gray" /></g>
<g><line x1="126.563" y1="192.996" x2="124.17" y2="195.489" class="gray" /></g>
</svg>
