<svg
	xmlns="http://www.w3.org/2000/svg"
	width="247.66"
	height="267.54">
<g><style type="text/css" >
<!-- create color definitions -->
<![CDATA[
circle.red {stroke: rgb(255, 0, 255); fill: none; }
circle.green {stroke: rgb(0, 255, 0); fill: none; }
circle.blue {stroke: rgb(0, 0, 255); fill: none; }
circle.black {stroke: rgb(0, 0, 0); fill: none; }
circle.gray {stroke: rgb(204, 204, 204); fill: none; }
circle.brown {stroke: rgb(211.65, 104.55, 30.6); fill: none; }
line.red {stroke: rgb(255, 0, 255); stroke-width: 0.382422; }
line.green {stroke: rgb(0, 255, 0); stroke-width: 0.382422; }
line.blue {stroke: rgb(0, 0, 255); stroke-width: 0.382422; }
line.black {stroke: rgb(0, 0, 0); stroke-width: 0.382422; }
line.gray {stroke: rgb(204, 204, 204); stroke-width: 0.382422; }
line.brown {stroke: rgb(211.65, 104.55, 30.6); stroke-width: 0.382422; }
line {stroke: rgb(0, 0, 0); }
text.red {fill: rgb(255, 0, 255); font-size: 3.059375px; font-weight: bold; font-family: Helvetica; }
text.green {fill: rgb(0, 255, 0); font-size: 3.059375px; font-weight: bold; font-family: Helvetica; }
text.blue {fill: rgb(0, 0, 255); font-size: 3.059375px; font-weight: bold; font-family: Helvetica; }
text.black {fill: rgb(0, 0, 0); font-size: 3.059375px; font-weight: bold; font-family: Helvetica; }
text.gray {fill: rgb(204, 204, 204); font-size: 3.059375px; font-weight: bold; font-family: Helvetica; }
text.brown {fill: rgb(211.65, 104.55, 30.6); font-size: 3.059375px; font-weight: bold; font-family: Helvetica; }
text {fill: rgb(0, 0, 0); font-size: 3.059375px; font-weight: bold; font-family: Helvetica; text-anchor: middle; alignment-baseline: middle; }

.pseudoknot_connection{stroke-linecap: round; stroke-opacity: 0.2; stroke-width: 1.5; }
.pseudoknot_segment1{stroke-linecap: round; stroke-opacity: 0.4; stroke-width: 3.05938; }
.pseudoknot_segment2{stroke-linecap: round; stroke-opacity: 0.4; stroke-width: 3.05938; }
line.numbering-line{stroke: rgb(204, 204, 204); stroke-width: 0.191211; }
line.predicted{stroke: rgb(0, 0, 0); stroke-dasharray: 2; }
polyline{fill: none; stroke-linejoin: round; }
template{visibility: hidden; }
text.numbering-label{fill: rgb(204, 204, 204); }
]]>
</style></g>
<g><title>0 (position.label in template: 0.5')</title><text x="88.96" y="217.54" class="green" >5'</text></g>
<g><title>1 (position.label in template: 1.C)</title><text x="95.96" y="217.54" class="black" >C</text></g>
<g><line x1="97.9996" y1="217.234" x2="105.95" y2="217.234" class="black" /></g>
<g><title>2 (position.label in template: 2.U)</title><text x="95.96" y="209.98" class="green" >T</text></g>
<g><line x1="97.9996" y1="209.674" x2="106.36" y2="209.674" class="black" /></g>
<g><title>3 (position.label in template: 3.U)</title><text x="95.96" y="202.42" class="green" >T</text></g>
<g><line x1="97.9996" y1="202.114" x2="106.36" y2="202.114" class="black" /></g>
<g><title>4 (position.label in template: 4.C)</title><text x="95.96" y="194.86" class="black" >C</text></g>
<g><line x1="97.9996" y1="194.554" x2="105.95" y2="194.554" class="black" /></g>
<g><title>5 (position.label in template: 5.U)</title><text x="88.53" y="193.43" class="green" >T</text></g>
<g><title>6 (position.label in template: 6.A)</title><text x="81.6" y="190.94" class="black" >A</text></g>
<g><title>7 (position.label in template: 7.A)</title><text x="74.9" y="187.44" class="black" >A</text></g>
<g><title>8 (position.label in template: 8.U)</title><text x="68.57" y="183.01" class="green" >T</text></g>
<g><title>9 (position.label in template: 9.G)</title><text x="62.94" y="177.74" class="black" >G</text></g>
<g><title>10 (position.label in template: 10.A)</title><text x="58.76" y="171.74" class="black" >A</text></g>
<g><text x="52.9634" y="175.453" class="numbering-label sequential" >10</text></g>
<g><line x1="57.2142" y1="172.73" x2="54.799" y2="174.277" class="numbering-line sequential" /></g>
<g><title>11 (position.label in template: 11.U)</title><text x="54.87" y="165.14" class="green" >T</text></g>
<g><title>12 (position.label in template: 12.G)</title><text x="51.97" y="158.07" class="black" >G</text></g>
<g><title>13 (position.label in template: 13.A)</title><text x="50.76" y="150.69" class="black" >A</text></g>
<g><title>14 (position.label in template: 14.U)</title><text x="50" y="143.15" class="green" >T</text></g>
<g><title>15 (position.label in template: 15.G)</title><text x="50.34" y="135.61" class="black" >G</text></g>
<g><title>16 (position.label in template: 16.C)</title><text x="52.18" y="128.23" class="black" >C</text></g>
<g><title>17 (position.label in template: 17.C)</title><text x="54.87" y="121.16" class="black" >C</text></g>
<g><title>18 (position.label in template: 18.C)</title><text x="58.55" y="114.56" class="black" >C</text></g>
<g><title>19 (position.label in template: 19.U)</title><text x="63.15" y="108.56" class="green" >T</text></g>
<g><title>20 (position.label in template: 20.U)</title><text x="68.57" y="103.29" class="green" >T</text></g>
<g><text x="64.0906" y="98.0633" class="numbering-label sequential" >20</text></g>
<g><line x1="67.3755" y1="101.896" x2="65.4016" y2="99.5929" class="numbering-line sequential" /></g>
<g><title>21 (position.label in template: 21.G)</title><text x="74.48" y="98.85" class="black" >G</text></g>
<g><title>22 (position.label in template: 22.U)</title><text x="81.39" y="95.36" class="green" >T</text></g>
<g><title>23 (position.label in template: 23.C)</title><text x="88.53" y="92.86" class="black" >C</text></g>
<g><title>24 (position.label in template: 24.C)</title><text x="95.96" y="91.43" class="black" >C</text></g>
<g><line x1="97.9996" y1="91.1241" x2="105.95" y2="91.1241" class="black" /></g>
<g><title>25 (position.label in template: 25.A)</title><text x="96.16" y="83.87" class="green" >A</text></g>
<g><line x1="98.1996" y1="83.5641" x2="106.16" y2="83.5641" class="black" /></g>
<g><title>26 (position.label in template: 26.G)</title><text x="95.75" y="76.31" class="black" >G</text></g>
<g><line x1="97.7896" y1="76.0041" x2="106.16" y2="76.0041" class="black" /></g>
<g><title>27 (position.label in template: 27.U)</title><text x="95.96" y="68.75" class="green" >T</text></g>
<g><line x1="97.9996" y1="68.4441" x2="106.36" y2="68.4441" class="black" /></g>
<g><title>28 (position.label in template: 28.U)</title><text x="91.69" y="62.51" class="green" >T</text></g>
<g><title>29 (position.label in template: 29.C)</title><text x="92.63" y="55.01" class="black" >C</text></g>
<g><title>30 (position.label in template: 30.U)</title><text x="98.3" y="50" class="green" >T</text></g>
<g><text x="95.8279" y="43.5756" class="numbering-label sequential" >30</text></g>
<g><line x1="97.6408" y1="48.2868" x2="96.4166" y2="45.1053" class="numbering-line sequential" /></g>
<g><title>31 (position.label in template: 31.G)</title><text x="105.65" y="50" class="black" >G</text></g>
<g><title>32 (position.label in template: 32.C)</title><text x="111.52" y="55.01" class="black" >C</text></g>
<g><title>33 (position.label in template: 33.U)</title><text x="112.46" y="62.51" class="green" >T</text></g>
<g><title>34 (position.label in template: 34.A)</title><text x="108.4" y="68.75" class="green" >A</text></g>
<g><title>35 (position.label in template: 35.C)</title><text x="108.2" y="76.31" class="black" >C</text></g>
<g><title>36 (position.label in template: 36.U)</title><text x="108.2" y="83.87" class="green" >T</text></g>
<g><title>37 (position.label in template: 37.G)</title><text x="107.99" y="91.43" class="black" >G</text></g>
<g><title>38 (position.label in template: 38.A)</title><text x="115.18" y="88.09" class="black" >A</text></g>
<g><title>39 (position.label in template: 39.A)</title><text x="122.33" y="85.63" class="black" >A</text></g>
<g><title>40 (position.label in template: 40.G)</title><text x="129.32" y="84.09" class="black" >G</text></g>
<g><title>41 (position.label in template: 41.G)</title><text x="136.85" y="83.5" class="black" >G</text></g>
<g><title>42 (position.label in template: 42.G)</title><text x="144.4" y="83.87" class="black" >G</text></g>
<g><title>43 (position.label in template: 43.A)</title><text x="152.26" y="85.2" class="black" >A</text></g>
<g><title>44 (position.label in template: 44.G)</title><text x="159.06" y="87.45" class="black" >G</text></g>
<g><title>45 (position.label in template: 45.A)</title><text x="166.35" y="90.6" class="black" >A</text></g>
<g><title>46 (position.label in template: 46.G)</title><text x="172.36" y="94.59" class="black" >G</text></g>
<g><title>47 (position.label in template: 47.C)</title><text x="178.43" y="99.36" class="black" >C</text></g>
<g><title>48 (position.label in template: 48.G)</title><text x="183.44" y="104.83" class="black" >G</text></g>
<g><title>49 (position.label in template: 49.A)</title><text x="188.33" y="110.92" class="black" >A</text></g>
<g><title>50 (position.label in template: 50.U)</title><text x="191.8" y="117.53" class="green" >T</text></g>
<g><text x="198.088" y="114.73" class="numbering-label sequential" >50</text></g>
<g><line x1="193.477" y1="116.783" x2="196.253" y2="115.547" class="numbering-line sequential" /></g>
<g><title>51 (position.label in template: 51.G)</title><text x="194.4" y="124.55" class="black" >G</text></g>
<g><title>52 (position.label in template: 52.A)</title><text x="196.71" y="131.87" class="black" >A</text></g>
<g><title>53 (position.label in template: 53.C)</title><text x="197.46" y="139.37" class="black" >C</text></g>
<g><title>54 (position.label in template: 54.A)</title><text x="197.66" y="146.93" class="black" >A</text></g>
<g><title>55 (position.label in template: 55.C)</title><text x="196.5" y="154.43" class="black" >C</text></g>
<g><title>56 (position.label in template: 56.U)</title><text x="194.6" y="161.75" class="green" >T</text></g>
<g><title>57 (position.label in template: 57.U)</title><text x="191.8" y="168.77" class="green" >T</text></g>
<g><title>58 (position.label in template: 58.U)</title><text x="188.12" y="175.37" class="green" >T</text></g>
<g><title>59 (position.label in template: 59.A)</title><text x="183.85" y="181.46" class="black" >A</text></g>
<g><title>60 (position.label in template: 60.U)</title><text x="178.43" y="186.94" class="green" >T</text></g>
<g><title>61 (position.label in template: 61.G)</title><text x="172.36" y="191.71" class="black" >G</text></g>
<g><title>62 (position.label in template: 62.A)</title><text x="166.35" y="195.7" class="black" >A</text></g>
<g><title>63 (position.label in template: 63.C)</title><text x="159.27" y="198.85" class="black" >C</text></g>
<g><title>64 (position.label in template: 64.G)</title><text x="151.85" y="201.1" class="black" >G</text></g>
<g><title>65 (position.label in template: 65.C)</title><text x="144.61" y="202.42" class="black" >C</text></g>
<g><title>66 (position.label in template: 66.U)</title><text x="137.06" y="202.79" class="green" >T</text></g>
<g><title>67 (position.label in template: 67.G)</title><text x="129.32" y="202.21" class="black" >G</text></g>
<g><title>68 (position.label in template: 68.A)</title><text x="122.33" y="200.67" class="black" >A</text></g>
<g><title>69 (position.label in template: 69.G)</title><text x="114.77" y="198.21" class="black" >G</text></g>
<g><title>70 (position.label in template: 70.G)</title><text x="107.99" y="194.86" class="black" >G</text></g>
<g><title>71 (position.label in template: 71.A)</title><text x="108.4" y="202.42" class="green" >A</text></g>
<g><title>72 (position.label in template: 72.A)</title><text x="108.4" y="209.98" class="green" >A</text></g>
<g><title>73 (position.label in template: 73.G)</title><text x="107.99" y="217.54" class="black" >G</text></g>
<g><title>74 (position.label in template: 74.3')</title><text x="114.99" y="217.54" class="green" >3'</text></g>
<g><line x1="90.9996" y1="217.234" x2="93.9204" y2="217.234" class="gray" /></g>
<g><line x1="95.96" y1="215.194" x2="95.96" y2="211.714" class="gray" /></g>
<g><line x1="95.96" y1="207.634" x2="95.96" y2="204.154" class="gray" /></g>
<g><line x1="95.96" y1="200.074" x2="95.96" y2="196.594" class="gray" /></g>
<g><line x1="93.9572" y1="194.169" x2="90.5328" y2="193.51" class="gray" /></g>
<g><line x1="86.6106" y1="192.434" x2="83.5194" y2="191.324" class="gray" /></g>
<g><line x1="79.7922" y1="189.69" x2="76.7078" y2="188.078" class="gray" /></g>
<g><line x1="73.229" y1="185.965" x2="70.241" y2="183.874" class="gray" /></g>
<g><line x1="67.081" y1="181.31" x2="64.429" y2="178.828" class="gray" /></g>
<g><line x1="61.7741" y1="175.761" x2="59.9259" y2="173.108" class="gray" /></g>
<g><line x1="57.7244" y1="169.677" x2="55.9056" y2="166.591" class="gray" /></g>
<g><line x1="54.096" y1="162.947" x2="52.744" y2="159.651" class="gray" /></g>
<g><line x1="51.64" y1="155.751" x2="51.09" y2="152.397" class="gray" /></g>
<g><line x1="50.5555" y1="148.355" x2="50.2045" y2="144.873" class="gray" /></g>
<g><line x1="50.0919" y1="140.807" x2="50.2481" y2="137.342" class="gray" /></g>
<g><line x1="50.8334" y1="133.325" x2="51.6866" y2="129.903" class="gray" /></g>
<g><line x1="52.9053" y1="126.018" x2="54.1447" y2="122.76" class="gray" /></g>
<g><line x1="55.8633" y1="119.073" x2="57.5567" y2="116.035" class="gray" /></g>
<g><line x1="59.7909" y1="112.635" x2="61.9091" y2="109.873" class="gray" /></g>
<g><line x1="64.6123" y1="106.832" x2="67.1077" y2="104.406" class="gray" /></g>
<g><line x1="70.2007" y1="101.759" x2="72.8493" y2="99.7691" class="gray" /></g>
<g><line x1="76.3006" y1="97.6246" x2="79.5694" y2="95.9736" class="gray" /></g>
<g><line x1="83.315" y1="94.38" x2="86.605" y2="93.2281" class="gray" /></g>
<g><line x1="90.5328" y1="92.1686" x2="93.9572" y2="91.5095" class="gray" /></g>
<g><line x1="96.0139" y1="89.0852" x2="96.1061" y2="85.6029" class="gray" /></g>
<g><line x1="96.0495" y1="81.5275" x2="95.8605" y2="78.0407" class="gray" /></g>
<g><line x1="95.8066" y1="73.9653" x2="95.9034" y2="70.4829" class="gray" /></g>
<g><line x1="94.8082" y1="66.7608" x2="92.8418" y2="63.8873" class="gray" /></g>
<g><line x1="91.9436" y1="60.1803" x2="92.3764" y2="56.7278" class="gray" /></g>
<g><line x1="94.1584" y1="53.3536" x2="96.7716" y2="51.0446" class="gray" /></g>
<g><line x1="100.34" y1="49.6941" x2="103.61" y2="49.6941" class="gray" /></g>
<g><line x1="107.201" y1="51.0181" x2="109.969" y2="53.38" class="gray" /></g>
<g><line x1="111.774" y1="56.7278" x2="112.206" y2="60.1803" class="gray" /></g>
<g><line x1="111.348" y1="63.9136" x2="109.512" y2="66.7345" class="gray" /></g>
<g><line x1="108.346" y1="70.4829" x2="108.254" y2="73.9652" class="gray" /></g>
<g><line x1="108.2" y1="78.0436" x2="108.2" y2="81.5245" class="gray" /></g>
<g><line x1="108.143" y1="85.6029" x2="108.047" y2="89.0853" class="gray" /></g>
<g><line x1="109.84" y1="90.2648" x2="113.33" y2="88.6433" class="gray" /></g>
<g><line x1="117.109" y1="87.1205" x2="120.401" y2="85.9876" class="gray" /></g>
<g><line x1="124.322" y1="84.8852" x2="127.328" y2="84.2229" class="gray" /></g>
<g><line x1="131.353" y1="83.6247" x2="134.817" y2="83.3534" class="gray" /></g>
<g><line x1="138.887" y1="83.2939" x2="142.363" y2="83.4642" class="gray" /></g>
<g><line x1="146.411" y1="83.9043" x2="150.249" y2="84.5538" class="gray" /></g>
<g><line x1="154.196" y1="85.5348" x2="157.124" y2="86.5034" class="gray" /></g>
<g><line x1="160.932" y1="87.9531" x2="164.478" y2="89.4851" class="gray" /></g>
<g><line x1="168.049" y1="91.4222" x2="170.661" y2="93.156" class="gray" /></g>
<g><line x1="173.964" y1="95.5443" x2="176.826" y2="97.7938" class="gray" /></g>
<g><line x1="179.808" y1="100.558" x2="182.062" y2="103.02" class="gray" /></g>
<g><line x1="184.717" y1="106.114" x2="187.053" y2="109.024" class="gray" /></g>
<g><line x1="189.278" y1="112.42" x2="190.852" y2="115.418" class="gray" /></g>
<g><line x1="192.508" y1="119.137" x2="193.692" y2="122.331" class="gray" /></g>
<g><line x1="195.014" y1="126.189" x2="196.096" y2="129.619" class="gray" /></g>
<g><line x1="196.913" y1="133.594" x2="197.257" y2="137.035" class="gray" /></g>
<g><line x1="197.514" y1="141.103" x2="197.606" y2="144.585" class="gray" /></g>
<g><line x1="197.348" y1="148.64" x2="196.812" y2="152.108" class="gray" /></g>
<g><line x1="195.988" y1="156.098" x2="195.112" y2="159.47" class="gray" /></g>
<g><line x1="193.844" y1="163.339" x2="192.556" y2="166.57" class="gray" /></g>
<g><line x1="190.807" y1="170.245" x2="189.113" y2="173.283" class="gray" /></g>
<g><line x1="186.949" y1="176.734" x2="185.021" y2="179.484" class="gray" /></g>
<g><line x1="182.416" y1="182.604" x2="179.864" y2="185.184" class="gray" /></g>
<g><line x1="176.826" y1="187.894" x2="173.964" y2="190.144" class="gray" /></g>
<g><line x1="170.661" y1="192.532" x2="168.049" y2="194.266" class="gray" /></g>
<g><line x1="164.487" y1="196.223" x2="161.133" y2="197.715" class="gray" /></g>
<g><line x1="157.318" y1="199.136" x2="153.802" y2="200.202" class="gray" /></g>
<g><line x1="149.843" y1="201.16" x2="146.617" y2="201.748" class="gray" /></g>
<g><line x1="142.573" y1="202.214" x2="139.097" y2="202.384" class="gray" /></g>
<g><line x1="135.026" y1="202.332" x2="131.354" y2="202.056" class="gray" /></g>
<g><line x1="127.328" y1="201.465" x2="124.322" y2="200.803" class="gray" /></g>
<g><line x1="120.391" y1="199.733" x2="116.709" y2="198.535" class="gray" /></g>
<g><line x1="112.941" y1="197.001" x2="109.819" y2="195.458" class="gray" /></g>
<g><line x1="108.1" y1="196.591" x2="108.29" y2="200.077" class="gray" /></g>
<g><line x1="108.4" y1="204.154" x2="108.4" y2="207.634" class="gray" /></g>
<g><line x1="108.29" y1="211.711" x2="108.1" y2="215.197" class="gray" /></g>
<g><line x1="110.03" y1="217.234" x2="112.95" y2="217.234" class="gray" /></g>
</svg>
