<svg
	xmlns="http://www.w3.org/2000/svg"
	width="223.94"
	height="233.26">
<g><style type="text/css" >
<!-- create color definitions -->
<![CDATA[
circle.red {stroke: rgb(255, 0, 255); fill: none; }
circle.green {stroke: rgb(0, 255, 0); fill: none; }
circle.blue {stroke: rgb(0, 0, 255); fill: none; }
circle.black {stroke: rgb(0, 0, 0); fill: none; }
circle.gray {stroke: rgb(204, 204, 204); fill: none; }
circle.brown {stroke: rgb(211.65, 104.55, 30.6); fill: none; }
line.red {stroke: rgb(255, 0, 255); stroke-width: 0.383412; }
line.green {stroke: rgb(0, 255, 0); stroke-width: 0.383412; }
line.blue {stroke: rgb(0, 0, 255); stroke-width: 0.383412; }
line.black {stroke: rgb(0, 0, 0); stroke-width: 0.383412; }
line.gray {stroke: rgb(204, 204, 204); stroke-width: 0.383412; }
line.brown {stroke: rgb(211.65, 104.55, 30.6); stroke-width: 0.383412; }
line {stroke: rgb(0, 0, 0); }
text.red {fill: rgb(255, 0, 255); font-size: 3.067295px; font-weight: bold; font-family: Helvetica; }
text.green {fill: rgb(0, 255, 0); font-size: 3.067295px; font-weight: bold; font-family: Helvetica; }
text.blue {fill: rgb(0, 0, 255); font-size: 3.067295px; font-weight: bold; font-family: Helvetica; }
text.black {fill: rgb(0, 0, 0); font-size: 3.067295px; font-weight: bold; font-family: Helvetica; }
text.gray {fill: rgb(204, 204, 204); font-size: 3.067295px; font-weight: bold; font-family: Helvetica; }
text.brown {fill: rgb(211.65, 104.55, 30.6); font-size: 3.067295px; font-weight: bold; font-family: Helvetica; }
text {fill: rgb(0, 0, 0); font-size: 3.067295px; font-weight: bold; font-family: Helvetica; text-anchor: middle; alignment-baseline: middle; }

.pseudoknot_connection{stroke-linecap: round; stroke-opacity: 0.2; stroke-width: 1.5; }
.pseudoknot_segment1{stroke-linecap: round; stroke-opacity: 0.4; stroke-width: 3.0673; }
.pseudoknot_segment2{stroke-linecap: round; stroke-opacity: 0.4; stroke-width: 3.0673; }
line.numbering-line{stroke: rgb(204, 204, 204); stroke-width: 0.191706; }
line.predicted{stroke: rgb(0, 0, 0); stroke-dasharray: 2; }
polyline{fill: none; stroke-linejoin: round; }
template{visibility: hidden; }
text.numbering-label{fill: rgb(204, 204, 204); }
]]>
</style></g>
<g><title>0 (position.label in template: 0.5')</title><text x="97.3034" y="188.82" class="green" >5'</text></g>
<g><title>1 (position.label in template: 1.A)</title><text x="102.427" y="183.26" class="black" >A</text></g>
<g><title>2 (position.label in template: 2.G)</title><text x="107.55" y="177.7" class="black" >G</text></g>
<g><line x1="109.595" y1="177.393" x2="117.955" y2="177.393" class="black" /></g>
<g><title>3 (position.label in template: 3.A)</title><text x="104.86" y="170.81" class="black" >A</text></g>
<g><title>4 (position.label in template: 4.C)</title><text x="107.76" y="163.91" class="black" >C</text></g>
<g><line x1="109.805" y1="163.603" x2="117.745" y2="163.603" class="black" /></g>
<g><title>5 (position.label in template: 5.A)</title><text x="107.96" y="156.35" class="green" >A</text></g>
<g><line x1="110.005" y1="156.043" x2="117.955" y2="156.043" class="black" /></g>
<g><title>6 (position.label in template: 6.U)</title><text x="107.76" y="148.79" class="green" >T</text></g>
<g><line x1="109.805" y1="148.483" x2="118.155" y2="148.483" class="black" /></g>
<g><title>7 (position.label in template: 7.U)</title><text x="107.76" y="141.23" class="green" >T</text></g>
<g><line x1="109.805" y1="140.923" x2="118.155" y2="140.923" class="black" /></g>
<g><title>8 (position.label in template: 8.U)</title><text x="100.94" y="137.97" class="green" >T</text></g>
<g><title>9 (position.label in template: 9.G)</title><text x="95.38" y="132.62" class="black" >G</text></g>
<g><title>10 (position.label in template: 10.G)</title><text x="92.12" y="125.8" class="green" >G</text></g>
<g><line x1="92.1551" y1="123.449" x2="92.2949" y2="115.298" class="black" /></g>
<g><text x="88.3883" y="131.605" class="numbering-label sequential" >10</text></g>
<g><line x1="91.1249" y1="127.348" x2="89.3741" y2="130.072" class="numbering-line sequential" /></g>
<g><title>11 (position.label in template: 11.U)</title><text x="84.77" y="125.8" class="green" >T</text></g>
<g><line x1="84.8051" y1="123.449" x2="84.9449" y2="115.298" class="black" /></g>
<g><title>12 (position.label in template: 12.C)</title><text x="77.21" y="125.8" class="black" >C</text></g>
<g><line x1="77.1749" y1="123.449" x2="77.0351" y2="115.298" class="black" /></g>
<g><title>13 (position.label in template: 13.U)</title><text x="72.25" y="131.51" class="green" >T</text></g>
<g><title>14 (position.label in template: 14.A)</title><text x="65.27" y="133.86" class="black" >A</text></g>
<g><title>15 (position.label in template: 15.G)</title><text x="57.48" y="132.19" class="black" >G</text></g>
<g><title>16 (position.label in template: 16.U)</title><text x="52.22" y="126.97" class="green" >T</text></g>
<g><title>17 (position.label in template: 17.G)</title><text x="50" y="119.68" class="black" >G</text></g>
<g><title>18 (position.label in template: 18.G)</title><text x="52.01" y="112.4" class="black" >G</text></g>
<g><title>19 (position.label in template: 19.U)</title><text x="57.69" y="107.18" class="green" >T</text></g>
<g><title>20 (position.label in template: 20.A)</title><text x="65.27" y="105.51" class="black" >A</text></g>
<g><text x="65.592" y="98.6161" class="numbering-label sequential" >20</text></g>
<g><line x1="65.3559" y1="103.672" x2="65.5203" y2="100.15" class="numbering-line sequential" /></g>
<g><title>21 (position.label in template: 21.U)</title><text x="72.25" y="107.86" class="green" >T</text></g>
<g><title>22 (position.label in template: 22.G)</title><text x="77" y="113.56" class="black" >G</text></g>
<g><title>23 (position.label in template: 23.A)</title><text x="84.98" y="113.56" class="green" >A</text></g>
<g><title>24 (position.label in template: 24.U)</title><text x="92.33" y="113.56" class="green" >T</text></g>
<g><title>25 (position.label in template: 25.U)</title><text x="95.59" y="106.75" class="green" >T</text></g>
<g><title>26 (position.label in template: 26.C)</title><text x="100.94" y="101.4" class="black" >C</text></g>
<g><line x1="102.864" y1="100.402" x2="110.346" y2="97.7146" class="black" /></g>
<g><title>27 (position.label in template: 27.U)</title><text x="98.42" y="94.27" class="green" >T</text></g>
<g><line x1="100.352" y1="93.294" x2="108.238" y2="90.5626" class="black" /></g>
<g><title>28 (position.label in template: 28.U)</title><text x="95.91" y="87.14" class="green" >T</text></g>
<g><line x1="97.8422" y1="86.164" x2="105.728" y2="83.4326" class="black" /></g>
<g><title>29 (position.label in template: 29.G)</title><text x="93.18" y="80.01" class="black" >G</text></g>
<g><line x1="95.1124" y1="79.0345" x2="103.008" y2="76.3021" class="black" /></g>
<g><title>30 (position.label in template: 30.U)</title><text x="90.88" y="72.88" class="green" >T</text></g>
<g><line x1="92.8045" y1="71.882" x2="100.286" y2="69.1946" class="black" /></g>
<g><text x="85.5096" y="77.2146" class="numbering-label sequential" >30</text></g>
<g><line x1="89.4479" y1="74.0359" x2="87.4098" y2="75.6809" class="numbering-line sequential" /></g>
<g><title>31 (position.label in template: 31.U)</title><text x="84.35" y="69.07" class="green" >T</text></g>
<g><title>32 (position.label in template: 32.U)</title><text x="81.46" y="62.08" class="green" >T</text></g>
<g><title>33 (position.label in template: 33.A)</title><text x="83.59" y="54.77" class="black" >A</text></g>
<g><title>34 (position.label in template: 34.G)</title><text x="89.13" y="50.11" class="black" >G</text></g>
<g><title>35 (position.label in template: 35.G)</title><text x="96.69" y="50" class="black" >G</text></g>
<g><title>36 (position.label in template: 36.G)</title><text x="102.77" y="54.49" class="black" >G</text></g>
<g><title>37 (position.label in template: 37.U)</title><text x="105.11" y="61.75" class="green" >T</text></g>
<g><title>38 (position.label in template: 38.G)</title><text x="102.21" y="68.81" class="green" >G</text></g>
<g><title>39 (position.label in template: 39.C)</title><text x="104.94" y="75.94" class="black" >C</text></g>
<g><title>40 (position.label in template: 40.A)</title><text x="107.66" y="83.07" class="green" >A</text></g>
<g><title>41 (position.label in template: 41.A)</title><text x="110.17" y="90.2" class="green" >A</text></g>
<g><title>42 (position.label in template: 42.G)</title><text x="112.27" y="97.33" class="black" >G</text></g>
<g><title>43 (position.label in template: 43.A)</title><text x="120.2" y="98.14" class="black" >A</text></g>
<g><title>44 (position.label in template: 44.G)</title><text x="126.61" y="101.4" class="black" >G</text></g>
<g><title>45 (position.label in template: 45.G)</title><text x="131.95" y="106.75" class="black" >G</text></g>
<g><title>46 (position.label in template: 46.U)</title><text x="135.43" y="113.56" class="green" >T</text></g>
<g><title>47 (position.label in template: 47.C)</title><text x="136.23" y="121.08" class="black" >C</text></g>
<g><title>48 (position.label in template: 48.C)</title><text x="134.5" y="128.44" class="black" >C</text></g>
<g><line x1="133.196" y1="129.708" x2="127.914" y2="136.088" class="black" /></g>
<g><title>49 (position.label in template: 49.C)</title><text x="140.38" y="133.18" class="black" >C</text></g>
<g><line x1="139.076" y1="134.448" x2="133.794" y2="140.828" class="black" /></g>
<g><title>50 (position.label in template: 50.G)</title><text x="146.06" y="137.93" class="black" >G</text></g>
<g><line x1="144.799" y1="139.233" x2="139.851" y2="145.544" class="black" /></g>
<g><text x="150.345" y="132.52" class="numbering-label sequential" >50</text></g>
<g><line x1="147.203" y1="136.487" x2="149.13" y2="134.054" class="numbering-line sequential" /></g>
<g><title>51 (position.label in template: 51.A)</title><text x="152.36" y="142.67" class="green" >A</text></g>
<g><line x1="151.057" y1="143.939" x2="145.783" y2="150.317" class="black" /></g>
<g><title>52 (position.label in template: 52.G)</title><text x="157.83" y="147.41" class="black" >G</text></g>
<g><line x1="156.569" y1="148.713" x2="151.621" y2="155.024" class="black" /></g>
<g><title>53 (position.label in template: 53.U)</title><text x="165.6" y="147.22" class="green" >T</text></g>
<g><title>54 (position.label in template: 54.U)</title><text x="171.73" y="151.65" class="green" >T</text></g>
<g><title>55 (position.label in template: 55.C)</title><text x="173.94" y="158.88" class="black" >C</text></g>
<g><title>56 (position.label in template: 56.A)</title><text x="171.53" y="165.97" class="black" >A</text></g>
<g><title>57 (position.label in template: 57.A)</title><text x="165.16" y="170.04" class="black" >A</text></g>
<g><title>58 (position.label in template: 58.U)</title><text x="157.42" y="169.42" class="green" >T</text></g>
<g><title>59 (position.label in template: 59.U)</title><text x="151.79" y="164.37" class="green" >T</text></g>
<g><title>60 (position.label in template: 60.C)</title><text x="150.36" y="156.94" class="black" >C</text></g>
<g><title>61 (position.label in template: 61.U)</title><text x="144.48" y="152.2" class="green" >T</text></g>
<g><title>62 (position.label in template: 62.C)</title><text x="138.59" y="147.46" class="black" >C</text></g>
<g><title>63 (position.label in template: 63.G)</title><text x="132.49" y="142.71" class="black" >G</text></g>
<g><title>64 (position.label in template: 64.G)</title><text x="126.61" y="137.97" class="black" >G</text></g>
<g><title>65 (position.label in template: 65.A)</title><text x="120.2" y="141.23" class="green" >A</text></g>
<g><title>66 (position.label in template: 66.A)</title><text x="120.2" y="148.79" class="green" >A</text></g>
<g><title>67 (position.label in template: 67.U)</title><text x="120" y="156.35" class="green" >T</text></g>
<g><title>68 (position.label in template: 68.G)</title><text x="119.79" y="163.91" class="black" >G</text></g>
<g><title>69 (position.label in template: 69.C)</title><text x="123.1" y="170.81" class="black" >C</text></g>
<g><title>70 (position.label in template: 70.C)</title><text x="120" y="177.7" class="black" >C</text></g>
<g><title>71 (position.label in template: 71.C)</title><text x="125.341" y="183.051" class="black" >C</text></g>
<g><title>72 (position.label in template: 72.C)</title><text x="132.901" y="183.051" class="black" >C</text></g>
<g><title>73 (position.label in template: 73.3')</title><text x="140.462" y="183.051" class="green" >3'</text></g>
<g><line x1="98.6891" y1="187.009" x2="101.041" y2="184.457" class="gray" /></g>
<g><line x1="103.812" y1="181.449" x2="106.164" y2="178.897" class="gray" /></g>
<g><line x1="106.806" y1="175.488" x2="105.604" y2="172.408" class="gray" /></g>
<g><line x1="105.652" y1="168.618" x2="106.968" y2="165.488" class="gray" /></g>
<g><line x1="107.814" y1="161.559" x2="107.906" y2="158.087" class="gray" /></g>
<g><line x1="107.906" y1="153.999" x2="107.814" y2="150.527" class="gray" /></g>
<g><line x1="107.76" y1="146.438" x2="107.76" y2="142.968" class="gray" /></g>
<g><line x1="105.915" y1="140.041" x2="102.785" y2="138.545" class="gray" /></g>
<g><line x1="99.4665" y1="136.245" x2="96.8535" y2="133.731" class="gray" /></g>
<g><line x1="94.4981" y1="130.468" x2="93.0019" y2="127.338" class="gray" /></g>
<g><line x1="90.0751" y1="125.493" x2="86.8149" y2="125.493" class="gray" /></g>
<g><line x1="82.7251" y1="125.493" x2="79.2549" y2="125.493" class="gray" /></g>
<g><line x1="75.869" y1="127.037" x2="73.591" y2="129.66" class="gray" /></g>
<g><line x1="70.312" y1="131.856" x2="67.208" y2="132.901" class="gray" /></g>
<g><line x1="63.2706" y1="133.125" x2="59.4794" y2="132.312" class="gray" /></g>
<g><line x1="56.0286" y1="130.443" x2="53.6714" y2="128.104" class="gray" /></g>
<g><line x1="51.6243" y1="124.707" x2="50.5957" y2="121.329" class="gray" /></g>
<g><line x1="50.5442" y1="117.402" x2="51.4658" y2="114.064" class="gray" /></g>
<g><line x1="53.5156" y1="110.71" x2="56.1844" y2="108.257" class="gray" /></g>
<g><line x1="59.687" y1="106.433" x2="63.273" y2="105.643" class="gray" /></g>
<g><line x1="67.208" y1="105.856" x2="70.312" y2="106.901" class="gray" /></g>
<g><line x1="73.5591" y1="109.124" x2="75.6909" y2="111.682" class="gray" /></g>
<g><line x1="79.0449" y1="113.253" x2="82.9351" y2="113.253" class="gray" /></g>
<g><line x1="87.0249" y1="113.253" x2="90.2851" y2="113.253" class="gray" /></g>
<g><line x1="93.2129" y1="111.409" x2="94.7071" y2="108.288" class="gray" /></g>
<g><line x1="97.0359" y1="104.997" x2="99.4941" y2="102.539" class="gray" /></g>
<g><line x1="100.259" y1="99.1653" x2="99.1014" y2="95.8913" class="gray" /></g>
<g><line x1="97.741" y1="92.0344" x2="96.589" y2="88.7621" class="gray" /></g>
<g><line x1="95.1788" y1="84.9236" x2="93.9112" y2="81.6129" class="gray" /></g>
<g><line x1="92.5522" y1="77.7572" x2="91.5078" y2="74.5194" class="gray" /></g>
<g><line x1="89.1138" y1="71.5428" x2="86.1162" y2="69.7938" class="gray" /></g>
<g><line x1="83.5687" y1="66.8736" x2="82.2413" y2="63.663" class="gray" /></g>
<g><line x1="82.032" y1="59.8101" x2="83.018" y2="56.4265" class="gray" /></g>
<g><line x1="85.1549" y1="53.147" x2="87.5651" y2="51.1196" class="gray" /></g>
<g><line x1="91.1746" y1="49.7735" x2="94.6454" y2="49.723" class="gray" /></g>
<g><line x1="98.3349" y1="50.908" x2="101.125" y2="52.9685" class="gray" /></g>
<g><line x1="103.397" y1="56.1295" x2="104.483" y2="59.497" class="gray" /></g>
<g><line x1="104.333" y1="63.3348" x2="102.987" y2="66.6118" class="gray" /></g>
<g><line x1="102.941" y1="70.4129" x2="104.209" y2="73.7236" class="gray" /></g>
<g><line x1="105.669" y1="77.5438" x2="106.931" y2="80.8527" class="gray" /></g>
<g><line x1="108.339" y1="84.6921" x2="109.491" y2="87.9644" class="gray" /></g>
<g><line x1="110.748" y1="91.8548" x2="111.692" y2="95.0617" class="gray" /></g>
<g><line x1="114.304" y1="97.2311" x2="118.166" y2="97.6255" class="gray" /></g>
<g><line x1="122.023" y1="98.7603" x2="124.787" y2="100.166" class="gray" /></g>
<g><line x1="128.055" y1="102.541" x2="130.505" y2="104.996" class="gray" /></g>
<g><line x1="132.88" y1="108.264" x2="134.5" y2="111.432" class="gray" /></g>
<g><line x1="135.646" y1="115.287" x2="136.014" y2="118.74" class="gray" /></g>
<g><line x1="135.762" y1="122.764" x2="134.968" y2="126.143" class="gray" /></g>
<g><line x1="136.092" y1="129.417" x2="138.788" y2="131.59" class="gray" /></g>
<g><line x1="141.949" y1="134.185" x2="144.491" y2="136.311" class="gray" /></g>
<g><line x1="147.694" y1="138.853" x2="150.726" y2="141.134" class="gray" /></g>
<g><line x1="153.905" y1="143.702" x2="156.285" y2="145.764" class="gray" /></g>
<g><line x1="159.874" y1="147.053" x2="163.556" y2="146.963" class="gray" /></g>
<g><line x1="167.257" y1="148.111" x2="170.073" y2="150.146" class="gray" /></g>
<g><line x1="172.328" y1="153.299" x2="173.342" y2="156.618" class="gray" /></g>
<g><line x1="173.282" y1="160.509" x2="172.188" y2="163.727" class="gray" /></g>
<g><line x1="169.807" y1="166.764" x2="166.883" y2="168.632" class="gray" /></g>
<g><line x1="163.122" y1="169.57" x2="159.458" y2="169.277" class="gray" /></g>
<g><line x1="155.898" y1="167.748" x2="153.312" y2="165.429" class="gray" /></g>
<g><line x1="151.404" y1="162.055" x2="150.746" y2="158.641" class="gray" /></g>
<g><line x1="148.768" y1="155.35" x2="146.072" y2="153.177" class="gray" /></g>
<g><line x1="142.887" y1="150.611" x2="140.183" y2="148.435" class="gray" /></g>
<g><line x1="136.977" y1="145.897" x2="134.103" y2="143.66" class="gray" /></g>
<g><line x1="130.898" y1="141.12" x2="128.202" y2="138.947" class="gray" /></g>
<g><line x1="124.787" y1="138.59" x2="122.023" y2="139.996" class="gray" /></g>
<g><line x1="120.2" y1="142.968" x2="120.2" y2="146.438" class="gray" /></g>
<g><line x1="120.146" y1="150.527" x2="120.054" y2="153.999" class="gray" /></g>
<g><line x1="119.943" y1="158.087" x2="119.847" y2="161.559" class="gray" /></g>
<g><line x1="120.674" y1="165.447" x2="122.216" y2="168.66" class="gray" /></g>
<g><line x1="122.261" y1="172.368" x2="120.839" y2="175.528" class="gray" /></g>
<g><line x1="121.445" y1="178.841" x2="123.896" y2="181.297" class="gray" /></g>
<g><line x1="127.386" y1="182.744" x2="130.856" y2="182.744" class="gray" /></g>
<g><line x1="134.946" y1="182.744" x2="138.417" y2="182.744" class="gray" /></g>
</svg>
