<svg
	xmlns="http://www.w3.org/2000/svg"
	width="253.82"
	height="286.74">
<g><style type="text/css" >
<!-- create color definitions -->
<![CDATA[
circle.red {stroke: rgb(255, 0, 255); fill: none; }
circle.green {stroke: rgb(0, 255, 0); fill: none; }
circle.blue {stroke: rgb(0, 0, 255); fill: none; }
circle.black {stroke: rgb(0, 0, 0); fill: none; }
circle.gray {stroke: rgb(204, 204, 204); fill: none; }
circle.brown {stroke: rgb(211.65, 104.55, 30.6); fill: none; }
line.red {stroke: rgb(255, 0, 255); stroke-width: 0.382917; }
line.green {stroke: rgb(0, 255, 0); stroke-width: 0.382917; }
line.blue {stroke: rgb(0, 0, 255); stroke-width: 0.382917; }
line.black {stroke: rgb(0, 0, 0); stroke-width: 0.382917; }
line.gray {stroke: rgb(204, 204, 204); stroke-width: 0.382917; }
line.brown {stroke: rgb(211.65, 104.55, 30.6); stroke-width: 0.382917; }
line {stroke: rgb(0, 0, 0); }
text.red {fill: rgb(255, 0, 255); font-size: 3.063332px; font-weight: bold; font-family: Helvetica; }
text.green {fill: rgb(0, 255, 0); font-size: 3.063332px; font-weight: bold; font-family: Helvetica; }
text.blue {fill: rgb(0, 0, 255); font-size: 3.063332px; font-weight: bold; font-family: Helvetica; }
text.black {fill: rgb(0, 0, 0); font-size: 3.063332px; font-weight: bold; font-family: Helvetica; }
text.gray {fill: rgb(204, 204, 204); font-size: 3.063332px; font-weight: bold; font-family: Helvetica; }
text.brown {fill: rgb(211.65, 104.55, 30.6); font-size: 3.063332px; font-weight: bold; font-family: Helvetica; }
text {fill: rgb(0, 0, 0); font-size: 3.063332px; font-weight: bold; font-family: Helvetica; text-anchor: middle; alignment-baseline: middle; }

.pseudoknot_connection{stroke-linecap: round; stroke-opacity: 0.2; stroke-width: 1.5; }
.pseudoknot_segment1{stroke-linecap: round; stroke-opacity: 0.4; stroke-width: 3.06333; }
.pseudoknot_segment2{stroke-linecap: round; stroke-opacity: 0.4; stroke-width: 3.06333; }
line.numbering-line{stroke: rgb(204, 204, 204); stroke-width: 0.191458; }
line.predicted{stroke: rgb(0, 0, 0); stroke-dasharray: 2; }
polyline{fill: none; stroke-linejoin: round; }
template{visibility: hidden; }
text.numbering-label{fill: rgb(204, 204, 204); }
]]>
</style></g>
<g><title>0 (position.label in template: 0.5')</title><text x="110.54" y="236.74" class="green" >5'</text></g>
<g><title>1 (position.label in template: 1.C)</title><text x="117.54" y="236.74" class="black" >C</text></g>
<g><line x1="119.582" y1="236.434" x2="127.528" y2="236.434" class="black" /></g>
<g><title>2 (position.label in template: 2.U)</title><text x="117.54" y="229.18" class="green" >T</text></g>
<g><line x1="119.582" y1="228.874" x2="127.948" y2="228.874" class="black" /></g>
<g><title>3 (position.label in template: 3.C)</title><text x="117.54" y="221.62" class="black" >C</text></g>
<g><line x1="119.582" y1="221.314" x2="127.528" y2="221.314" class="black" /></g>
<g><title>4 (position.label in template: 4.U)</title><text x="117.54" y="214.06" class="green" >T</text></g>
<g><line x1="119.582" y1="213.754" x2="127.948" y2="213.754" class="black" /></g>
<g><title>5 (position.label in template: 5.U)</title><text x="117.54" y="206.5" class="green" >T</text></g>
<g><line x1="119.582" y1="206.194" x2="127.948" y2="206.194" class="black" /></g>
<g><title>6 (position.label in template: 6.A)</title><text x="117.75" y="198.94" class="green" >A</text></g>
<g><line x1="119.792" y1="198.634" x2="127.738" y2="198.634" class="black" /></g>
<g><title>7 (position.label in template: 7.U)</title><text x="117.54" y="191.38" class="green" >T</text></g>
<g><line x1="119.582" y1="191.074" x2="127.948" y2="191.074" class="black" /></g>
<g><title>8 (position.label in template: 8.C)</title><text x="117.54" y="183.82" class="black" >C</text></g>
<g><line x1="119.582" y1="183.514" x2="127.528" y2="183.514" class="black" /></g>
<g><title>9 (position.label in template: 9.C)</title><text x="110.81" y="180.38" class="black" >C</text></g>
<g><title>10 (position.label in template: 10.A)</title><text x="105.91" y="174.8" class="black" >A</text></g>
<g><text x="100.118" y="178.537" class="numbering-label sequential" >10</text></g>
<g><line x1="104.366" y1="175.797" x2="101.956" y2="177.351" class="numbering-line sequential" /></g>
<g><title>11 (position.label in template: 11.G)</title><text x="102.68" y="167.78" class="black" >G</text></g>
<g><title>12 (position.label in template: 12.A)</title><text x="102.91" y="160.23" class="black" >A</text></g>
<g><title>13 (position.label in template: 13.G)</title><text x="104.98" y="153.09" class="black" >G</text></g>
<g><line x1="106.469" y1="151.386" x2="112.531" y2="145.701" class="black" /></g>
<g><title>14 (position.label in template: 14.U)</title><text x="97.84" y="154.89" class="green" >T</text></g>
<g><title>15 (position.label in template: 15.G)</title><text x="99.74" y="147.63" class="black" >G</text></g>
<g><line x1="101.231" y1="145.928" x2="107.299" y2="140.249" class="black" /></g>
<g><title>16 (position.label in template: 16.A)</title><text x="94.93" y="142.17" class="green" >A</text></g>
<g><line x1="96.3867" y1="140.432" x2="102.093" y2="134.825" class="black" /></g>
<g><title>17 (position.label in template: 17.C)</title><text x="89.49" y="136.72" class="black" >C</text></g>
<g><line x1="90.9458" y1="134.981" x2="96.6542" y2="129.366" class="black" /></g>
<g><title>18 (position.label in template: 18.G)</title><text x="81.72" y="136.92" class="black" >G</text></g>
<g><title>19 (position.label in template: 19.G)</title><text x="75.19" y="133.11" class="black" >G</text></g>
<g><title>20 (position.label in template: 20.A)</title><text x="72.07" y="126.43" class="black" >A</text></g>
<g><text x="65.3279" y="127.862" class="numbering-label sequential" >20</text></g>
<g><line x1="70.2721" y1="126.812" x2="67.1659" y2="127.472" class="numbering-line sequential" /></g>
<g><title>21 (position.label in template: 21.G)</title><text x="72.17" y="118.89" class="black" >G</text></g>
<g><line x1="73.6602" y1="117.187" x2="79.7298" y2="111.5" class="black" /></g>
<g><title>22 (position.label in template: 22.G)</title><text x="66.94" y="113.43" class="black" >G</text></g>
<g><line x1="68.4303" y1="111.727" x2="74.4897" y2="106.05" class="black" /></g>
<g><title>23 (position.label in template: 23.G)</title><text x="61.71" y="107.97" class="black" >G</text></g>
<g><line x1="63.2003" y1="106.267" x2="69.2597" y2="100.59" class="black" /></g>
<g><title>24 (position.label in template: 24.A)</title><text x="54.72" y="106.42" class="black" >A</text></g>
<g><title>25 (position.label in template: 25.U)</title><text x="50" y="100.36" class="green" >T</text></g>
<g><title>26 (position.label in template: 26.C)</title><text x="50.63" y="92.82" class="black" >C</text></g>
<g><title>27 (position.label in template: 27.A)</title><text x="56.29" y="87.59" class="black" >A</text></g>
<g><title>28 (position.label in template: 28.G)</title><text x="63.43" y="87.28" class="black" >G</text></g>
<g><title>29 (position.label in template: 29.G)</title><text x="69.29" y="92.04" class="black" >G</text></g>
<g><title>30 (position.label in template: 30.C)</title><text x="70.75" y="99.5" class="black" >C</text></g>
<g><text x="76.8706" y="96.3307" class="numbering-label sequential" >30</text></g>
<g><line x1="72.3822" y1="98.6549" x2="75.0326" y2="97.2824" class="numbering-line sequential" /></g>
<g><title>31 (position.label in template: 31.C)</title><text x="75.98" y="104.96" class="black" >C</text></g>
<g><title>32 (position.label in template: 32.C)</title><text x="81.22" y="110.41" class="black" >C</text></g>
<g><title>33 (position.label in template: 33.G)</title><text x="85.73" y="104.51" class="black" >G</text></g>
<g><title>34 (position.label in template: 34.A)</title><text x="93.3" y="102.07" class="black" >A</text></g>
<g><title>35 (position.label in template: 35.U)</title><text x="100.44" y="103.86" class="green" >T</text></g>
<g><title>36 (position.label in template: 36.G)</title><text x="105.46" y="109.31" class="black" >G</text></g>
<g><title>37 (position.label in template: 37.A)</title><text x="107.36" y="116.73" class="black" >A</text></g>
<g><title>38 (position.label in template: 38.A)</title><text x="104.62" y="123.77" class="black" >A</text></g>
<g><title>39 (position.label in template: 39.G)</title><text x="98.11" y="128.24" class="black" >G</text></g>
<g><title>40 (position.label in template: 40.U)</title><text x="103.55" y="133.7" class="green" >T</text></g>
<g><title>41 (position.label in template: 41.C)</title><text x="108.79" y="139.16" class="black" >C</text></g>
<g><title>42 (position.label in template: 42.C)</title><text x="114.02" y="144.61" class="black" >C</text></g>
<g><title>43 (position.label in template: 43.G)</title><text x="121.05" y="142.43" class="black" >G</text></g>
<g><line x1="123.061" y1="142.481" x2="131.289" y2="143.946" class="black" /></g>
<g><title>44 (position.label in template: 44.G)</title><text x="122.39" y="134.99" class="black" >G</text></g>
<g><line x1="124.401" y1="135.041" x2="132.639" y2="136.506" class="black" /></g>
<g><title>45 (position.label in template: 45.C)</title><text x="123.95" y="127.55" class="black" >C</text></g>
<g><line x1="125.958" y1="127.615" x2="133.782" y2="129.062" class="black" /></g>
<g><title>46 (position.label in template: 46.A)</title><text x="125.51" y="120.12" class="green" >A</text></g>
<g><line x1="127.518" y1="120.184" x2="135.332" y2="121.624" class="black" /></g>
<g><title>47 (position.label in template: 47.A)</title><text x="119.74" y="115.23" class="black" >A</text></g>
<g><title>48 (position.label in template: 48.C)</title><text x="126.65" y="112.68" class="black" >C</text></g>
<g><line x1="128.658" y1="112.744" x2="136.472" y2="114.184" class="black" /></g>
<g><title>49 (position.label in template: 49.C)</title><text x="127.99" y="105.24" class="black" >C</text></g>
<g><line x1="129.998" y1="105.303" x2="137.822" y2="106.744" class="black" /></g>
<g><title>50 (position.label in template: 50.U)</title><text x="129.34" y="97.8" class="green" >T</text></g>
<g><line x1="131.351" y1="97.8515" x2="139.579" y2="99.3159" class="black" /></g>
<g><text x="122.558" y="96.5694" class="numbering-label sequential" >50</text></g>
<g><line x1="127.532" y1="97.4719" x2="124.396" y2="96.9029" class="numbering-line sequential" /></g>
<g><title>51 (position.label in template: 51.U)</title><text x="130.69" y="90.36" class="green" >T</text></g>
<g><line x1="132.701" y1="90.4115" x2="140.929" y2="91.8759" class="black" /></g>
<g><title>52 (position.label in template: 52.C)</title><text x="132.04" y="82.92" class="black" >C</text></g>
<g><line x1="134.048" y1="82.9838" x2="141.862" y2="84.4236" class="black" /></g>
<g><title>53 (position.label in template: 53.A)</title><text x="133.59" y="75.48" class="green" >A</text></g>
<g><line x1="135.598" y1="75.5435" x2="143.422" y2="76.9839" class="black" /></g>
<g><title>54 (position.label in template: 54.A)</title><text x="128.86" y="69.58" class="black" >A</text></g>
<g><title>55 (position.label in template: 55.G)</title><text x="127.41" y="62.1" class="black" >G</text></g>
<g><title>56 (position.label in template: 56.C)</title><text x="130.58" y="55.14" class="black" >C</text></g>
<g><title>57 (position.label in template: 57.A)</title><text x="136.89" y="50.69" class="black" >A</text></g>
<g><title>58 (position.label in template: 58.A)</title><text x="144.42" y="50" class="black" >A</text></g>
<g><title>59 (position.label in template: 59.U)</title><text x="151.03" y="53.28" class="green" >T</text></g>
<g><title>60 (position.label in template: 60.G)</title><text x="154.98" y="59.6" class="black" >G</text></g>
<g><title>61 (position.label in template: 61.C)</title><text x="155.52" y="67.15" class="black" >C</text></g>
<g><title>62 (position.label in template: 62.U)</title><text x="151.93" y="73.8" class="green" >T</text></g>
<g><title>63 (position.label in template: 63.U)</title><text x="145.43" y="77.66" class="green" >T</text></g>
<g><title>64 (position.label in template: 64.G)</title><text x="143.87" y="85.1" class="black" >G</text></g>
<g><title>65 (position.label in template: 65.A)</title><text x="142.94" y="92.54" class="green" >A</text></g>
<g><title>66 (position.label in template: 66.A)</title><text x="141.59" y="99.98" class="green" >A</text></g>
<g><title>67 (position.label in template: 67.A)</title><text x="149.03" y="101.33" class="black" >A</text></g>
<g><title>68 (position.label in template: 68.A)</title><text x="147.68" y="108.77" class="black" >A</text></g>
<g><title>69 (position.label in template: 69.G)</title><text x="139.83" y="107.42" class="black" >G</text></g>
<g><title>70 (position.label in template: 70.G)</title><text x="138.48" y="114.86" class="black" >G</text></g>
<g><title>71 (position.label in template: 71.U)</title><text x="137.34" y="122.3" class="green" >T</text></g>
<g><title>72 (position.label in template: 72.G)</title><text x="135.79" y="129.74" class="black" >G</text></g>
<g><title>73 (position.label in template: 73.C)</title><text x="134.65" y="137.17" class="black" >C</text></g>
<g><title>74 (position.label in template: 74.C)</title><text x="133.3" y="144.61" class="black" >C</text></g>
<g><title>75 (position.label in template: 75.A)</title><text x="139.52" y="149.19" class="black" >A</text></g>
<g><title>76 (position.label in template: 76.A)</title><text x="143.55" y="155.59" class="black" >A</text></g>
<g><title>77 (position.label in template: 77.U)</title><text x="144.86" y="163" class="green" >T</text></g>
<g><title>78 (position.label in template: 78.U)</title><text x="143.7" y="170.47" class="green" >T</text></g>
<g><line x1="142.524" y1="171.833" x2="137.896" y2="178.404" class="black" /></g>
<g><title>79 (position.label in template: 79.C)</title><text x="148.47" y="164.6" class="black" >C</text></g>
<g><title>80 (position.label in template: 80.C)</title><text x="155.96" y="163.62" class="black" >C</text></g>
<g><title>81 (position.label in template: 81.U)</title><text x="162.09" y="168.06" class="green" >T</text></g>
<g><title>82 (position.label in template: 82.G)</title><text x="163.28" y="175.49" class="black" >G</text></g>
<g><title>83 (position.label in template: 83.C)</title><text x="159.4" y="181.85" class="black" >C</text></g>
<g><line x1="158.179" y1="183.181" x2="153.231" y2="189.817" class="black" /></g>
<g><title>84 (position.label in template: 84.A)</title><text x="165.73" y="186.28" class="green" >A</text></g>
<g><line x1="164.51" y1="187.611" x2="159.56" y2="194.256" class="black" /></g>
<g><title>85 (position.label in template: 85.G)</title><text x="171.43" y="190.72" class="black" >G</text></g>
<g><line x1="170.255" y1="192.084" x2="165.635" y2="198.653" class="black" /></g>
<g><title>86 (position.label in template: 86.A)</title><text x="177.97" y="195.16" class="green" >A</text></g>
<g><line x1="176.749" y1="196.491" x2="171.801" y2="203.127" class="black" /></g>
<g><title>87 (position.label in template: 87.C)</title><text x="183.89" y="199.59" class="black" >C</text></g>
<g><line x1="182.669" y1="200.921" x2="177.721" y2="207.557" class="black" /></g>
<g><title>88 (position.label in template: 88.A)</title><text x="190.22" y="204.03" class="green" >A</text></g>
<g><line x1="188.999" y1="205.361" x2="184.051" y2="211.997" class="black" /></g>
<g><title>89 (position.label in template: 89.A)</title><text x="197.77" y="204.24" class="black" >A</text></g>
<g><title>90 (position.label in template: 90.U)</title><text x="203.09" y="209.4" class="green" >T</text></g>
<g><title>91 (position.label in template: 91.U)</title><text x="203.82" y="216.93" class="green" >T</text></g>
<g><title>92 (position.label in template: 92.C)</title><text x="199.38" y="223.05" class="black" >C</text></g>
<g><title>93 (position.label in template: 93.A)</title><text x="192.21" y="224.7" class="black" >A</text></g>
<g><title>94 (position.label in template: 94.U)</title><text x="185.38" y="221.05" class="green" >T</text></g>
<g><title>95 (position.label in template: 95.U)</title><text x="182.83" y="213.94" class="green" >T</text></g>
<g><title>96 (position.label in template: 96.G)</title><text x="176.5" y="209.5" class="black" >G</text></g>
<g><title>97 (position.label in template: 97.U)</title><text x="170.58" y="205.07" class="green" >T</text></g>
<g><title>98 (position.label in template: 98.C)</title><text x="164.46" y="200.63" class="black" >C</text></g>
<g><title>99 (position.label in template: 99.U)</title><text x="158.34" y="196.2" class="green" >T</text></g>
<g><title>100 (position.label in template: 100.G)</title><text x="152.01" y="191.76" class="black" >G</text></g>
<g><text x="150.003" y="198.354" class="numbering-label sequential" >100</text></g>
<g><line x1="151.475" y1="193.518" x2="150.469" y2="196.822" class="numbering-line sequential" /></g>
<g><title>101 (position.label in template: 101.A)</title><text x="144.87" y="192.1" class="black" >A</text></g>
<g><title>102 (position.label in template: 102.A)</title><text x="138.75" y="187.66" class="black" >A</text></g>
<g><title>103 (position.label in template: 103.A)</title><text x="136.72" y="180.38" class="green" >A</text></g>
<g><title>104 (position.label in template: 104.G)</title><text x="129.57" y="183.82" class="black" >G</text></g>
<g><title>105 (position.label in template: 105.A)</title><text x="129.99" y="191.38" class="green" >A</text></g>
<g><title>106 (position.label in template: 106.U)</title><text x="129.78" y="198.94" class="green" >T</text></g>
<g><title>107 (position.label in template: 107.A)</title><text x="129.99" y="206.5" class="green" >A</text></g>
<g><title>108 (position.label in template: 108.A)</title><text x="129.99" y="214.06" class="green" >A</text></g>
<g><title>109 (position.label in template: 109.G)</title><text x="129.57" y="221.62" class="black" >G</text></g>
<g><title>110 (position.label in template: 110.A)</title><text x="129.99" y="229.18" class="green" >A</text></g>
<g><title>111 (position.label in template: 111.G)</title><text x="129.57" y="236.74" class="black" >G</text></g>
<g><title>112 (position.label in template: 112.3')</title><text x="136.57" y="236.74" class="green" >3'</text></g>
<g><line x1="112.582" y1="236.434" x2="115.498" y2="236.434" class="gray" /></g>
<g><line x1="117.54" y1="234.391" x2="117.54" y2="230.916" class="gray" /></g>
<g><line x1="117.54" y1="226.831" x2="117.54" y2="223.356" class="gray" /></g>
<g><line x1="117.54" y1="219.271" x2="117.54" y2="215.796" class="gray" /></g>
<g><line x1="117.54" y1="211.711" x2="117.54" y2="208.236" class="gray" /></g>
<g><line x1="117.597" y1="204.152" x2="117.693" y2="200.675" class="gray" /></g>
<g><line x1="117.693" y1="196.592" x2="117.597" y2="193.115" class="gray" /></g>
<g><line x1="117.54" y1="189.031" x2="117.54" y2="185.556" class="gray" /></g>
<g><line x1="115.722" y1="182.584" x2="112.628" y2="181.003" class="gray" /></g>
<g><line x1="109.462" y1="178.539" x2="107.258" y2="176.028" class="gray" /></g>
<g><line x1="105.056" y1="172.638" x2="103.534" y2="169.329" class="gray" /></g>
<g><line x1="102.742" y1="165.432" x2="102.848" y2="161.965" class="gray" /></g>
<g><line x1="103.479" y1="157.962" x2="104.411" y2="154.745" class="gray" /></g>
<g><line x1="103" y1="153.283" x2="99.8203" y2="154.084" class="gray" /></g>
<g><line x1="98.3571" y1="152.608" x2="99.2229" y2="149.299" class="gray" /></g>
<g><line x1="98.39" y1="145.791" x2="96.28" y2="143.396" class="gray" /></g>
<g><line x1="93.4873" y1="140.418" x2="90.9327" y2="137.859" class="gray" /></g>
<g><line x1="87.4485" y1="136.466" x2="83.7615" y2="136.561" class="gray" /></g>
<g><line x1="79.9561" y1="135.584" x2="76.9539" y2="133.833" class="gray" /></g>
<g><line x1="74.3258" y1="130.953" x2="72.9342" y2="127.974" class="gray" /></g>
<g><line x1="72.0971" y1="124.082" x2="72.1429" y2="120.626" class="gray" /></g>
<g><line x1="70.7573" y1="117.109" x2="68.3527" y2="114.598" class="gray" /></g>
<g><line x1="65.5273" y1="111.649" x2="63.1227" y2="109.138" class="gray" /></g>
<g><line x1="59.7162" y1="107.222" x2="56.7138" y2="106.556" class="gray" /></g>
<g><line x1="53.4651" y1="104.502" x2="51.2549" y2="101.665" class="gray" /></g>
<g><line x1="50.17" y1="98.0185" x2="50.46" y2="94.5488" class="gray" /></g>
<g><line x1="52.1299" y1="91.1277" x2="54.7901" y2="88.6696" class="gray" /></g>
<g><line x1="58.3303" y1="87.1951" x2="61.3897" y2="87.0623" class="gray" /></g>
<g><line x1="65.0152" y1="88.2613" x2="67.7048" y2="90.4461" class="gray" /></g>
<g><line x1="69.6822" y1="93.7379" x2="70.3578" y2="97.1895" class="gray" /></g>
<g><line x1="72.1627" y1="100.668" x2="74.5673" y2="103.179" class="gray" /></g>
<g><line x1="77.3954" y1="106.126" x2="79.8046" y2="108.632" class="gray" /></g>
<g><line x1="82.4602" y1="108.481" x2="84.4898" y2="105.826" class="gray" /></g>
<g><line x1="87.6737" y1="103.577" x2="91.3563" y2="102.39" class="gray" /></g>
<g><line x1="95.2809" y1="102.26" x2="98.4591" y2="103.057" class="gray" /></g>
<g><line x1="101.824" y1="105.056" x2="104.076" y2="107.502" class="gray" /></g>
<g><line x1="105.967" y1="110.982" x2="106.853" y2="114.445" class="gray" /></g>
<g><line x1="106.619" y1="118.327" x2="105.361" y2="121.561" class="gray" /></g>
<g><line x1="102.936" y1="124.62" x2="99.7936" y2="126.778" class="gray" /></g>
<g><line x1="99.5514" y1="129.38" x2="102.109" y2="131.947" class="gray" /></g>
<g><line x1="104.964" y1="134.867" x2="107.376" y2="137.38" class="gray" /></g>
<g><line x1="110.204" y1="140.327" x2="112.606" y2="142.83" class="gray" /></g>
<g><line x1="115.971" y1="143.699" x2="119.099" y2="142.729" class="gray" /></g>
<g><line x1="121.412" y1="140.114" x2="122.028" y2="136.694" class="gray" /></g>
<g><line x1="122.809" y1="132.685" x2="123.531" y2="129.242" class="gray" /></g>
<g><line x1="124.37" y1="125.245" x2="125.09" y2="121.812" class="gray" /></g>
<g><line x1="123.952" y1="118.493" x2="121.298" y2="116.244" class="gray" /></g>
<g><line x1="121.656" y1="114.217" x2="124.734" y2="113.081" class="gray" /></g>
<g><line x1="127.012" y1="110.364" x2="127.628" y2="106.944" class="gray" /></g>
<g><line x1="128.355" y1="102.924" x2="128.975" y2="99.5031" class="gray" /></g>
<g><line x1="129.705" y1="95.4843" x2="130.325" y2="92.0631" class="gray" /></g>
<g><line x1="131.055" y1="88.0443" x2="131.675" y2="84.6231" class="gray" /></g>
<g><line x1="132.457" y1="80.6144" x2="133.173" y2="77.173" class="gray" /></g>
<g><line x1="132.313" y1="73.5803" x2="130.137" y2="70.8671" class="gray" /></g>
<g><line x1="128.471" y1="67.2688" x2="127.799" y2="63.7986" class="gray" /></g>
<g><line x1="128.256" y1="59.9351" x2="129.734" y2="56.6922" class="gray" /></g>
<g><line x1="132.249" y1="53.6567" x2="135.221" y2="51.5607" class="gray" /></g>
<g><line x1="138.924" y1="50.1973" x2="142.386" y2="49.88" class="gray" /></g>
<g><line x1="146.249" y1="50.6014" x2="149.201" y2="52.0659" class="gray" /></g>
<g><line x1="152.112" y1="54.7055" x2="153.898" y2="57.5619" class="gray" /></g>
<g><line x1="155.126" y1="61.3307" x2="155.374" y2="64.8066" class="gray" /></g>
<g><line x1="154.55" y1="68.6407" x2="152.9" y2="71.6966" class="gray" /></g>
<g><line x1="150.174" y1="74.5364" x2="147.186" y2="76.3109" class="gray" /></g>
<g><line x1="145.011" y1="79.3524" x2="144.289" y2="82.7949" class="gray" /></g>
<g><line x1="143.617" y1="86.8201" x2="143.193" y2="90.2072" class="gray" /></g>
<g><line x1="142.575" y1="94.2431" x2="141.955" y2="97.6643" class="gray" /></g>
<g><line x1="143.599" y1="100.038" x2="147.021" y2="100.659" class="gray" /></g>
<g><line x1="148.665" y1="103.033" x2="148.045" y2="106.454" class="gray" /></g>
<g><line x1="145.667" y1="108.118" x2="141.843" y2="107.46" class="gray" /></g>
<g><line x1="139.465" y1="109.123" x2="138.845" y2="112.544" class="gray" /></g>
<g><line x1="138.171" y1="116.572" x2="137.649" y2="119.975" class="gray" /></g>
<g><line x1="136.923" y1="123.993" x2="136.207" y2="127.434" class="gray" /></g>
<g><line x1="135.48" y1="131.452" x2="134.96" y2="134.845" class="gray" /></g>
<g><line x1="134.285" y1="138.873" x2="133.665" y2="142.294" class="gray" /></g>
<g><line x1="134.945" y1="145.515" x2="137.875" y2="147.673" class="gray" /></g>
<g><line x1="140.608" y1="150.612" x2="142.462" y2="153.556" class="gray" /></g>
<g><line x1="143.906" y1="157.295" x2="144.504" y2="160.683" class="gray" /></g>
<g><line x1="144.547" y1="164.712" x2="144.013" y2="168.146" class="gray" /></g>
<g><line x1="144.988" y1="168.579" x2="147.182" y2="165.879" class="gray" /></g>
<g><line x1="150.495" y1="164.029" x2="153.935" y2="163.579" class="gray" /></g>
<g><line x1="157.614" y1="164.512" x2="160.436" y2="166.556" class="gray" /></g>
<g><line x1="162.413" y1="169.77" x2="162.957" y2="173.167" class="gray" /></g>
<g><line x1="162.216" y1="176.927" x2="160.464" y2="179.8" class="gray" /></g>
<g><line x1="161.073" y1="182.715" x2="164.057" y2="184.803" class="gray" /></g>
<g><line x1="167.341" y1="187.229" x2="169.819" y2="189.159" class="gray" /></g>
<g><line x1="173.12" y1="191.561" x2="176.28" y2="193.707" class="gray" /></g>
<g><line x1="179.605" y1="196.077" x2="182.255" y2="198.06" class="gray" /></g>
<g><line x1="185.562" y1="200.456" x2="188.548" y2="202.551" class="gray" /></g>
<g><line x1="192.261" y1="203.78" x2="195.729" y2="203.877" class="gray" /></g>
<g><line x1="199.236" y1="205.356" x2="201.624" y2="207.672" class="gray" /></g>
<g><line x1="203.287" y1="211.126" x2="203.623" y2="214.591" class="gray" /></g>
<g><line x1="202.621" y1="218.277" x2="200.579" y2="221.091" class="gray" /></g>
<g><line x1="197.39" y1="223.202" x2="194.2" y2="223.936" class="gray" /></g>
<g><line x1="190.409" y1="223.431" x2="187.181" y2="221.706" class="gray" /></g>
<g><line x1="184.691" y1="218.821" x2="183.519" y2="215.556" class="gray" /></g>
<g><line x1="181.158" y1="212.461" x2="178.172" y2="210.366" class="gray" /></g>
<g><line x1="174.865" y1="207.97" x2="172.215" y2="205.987" class="gray" /></g>
<g><line x1="168.927" y1="203.564" x2="166.113" y2="201.523" class="gray" /></g>
<g><line x1="162.806" y1="199.126" x2="159.994" y2="197.091" class="gray" /></g>
<g><line x1="156.668" y1="194.721" x2="153.682" y2="192.626" class="gray" /></g>
<g><line x1="149.97" y1="191.551" x2="146.91" y2="191.697" class="gray" /></g>
<g><line x1="143.217" y1="190.594" x2="140.403" y2="188.553" class="gray" /></g>
<g><line x1="138.201" y1="185.386" x2="137.269" y2="182.041" class="gray" /></g>
<g><line x1="134.88" y1="180.959" x2="131.41" y2="182.628" class="gray" /></g>
<g><line x1="129.683" y1="185.553" x2="129.877" y2="189.035" class="gray" /></g>
<g><line x1="129.933" y1="193.115" x2="129.837" y2="196.592" class="gray" /></g>
<g><line x1="129.837" y1="200.675" x2="129.933" y2="204.152" class="gray" /></g>
<g><line x1="129.99" y1="208.236" x2="129.99" y2="211.711" class="gray" /></g>
<g><line x1="129.877" y1="215.793" x2="129.683" y2="219.275" class="gray" /></g>
<g><line x1="129.683" y1="223.353" x2="129.877" y2="226.835" class="gray" /></g>
<g><line x1="129.877" y1="230.913" x2="129.683" y2="234.395" class="gray" /></g>
<g><line x1="131.612" y1="236.434" x2="134.528" y2="236.434" class="gray" /></g>
</svg>
