<svg
	xmlns="http://www.w3.org/2000/svg"
	width="259.458"
	height="157.791">
<g><style type="text/css" >
<!-- create color definitions -->
<![CDATA[
circle.red {stroke: rgb(255, 0, 255); fill: none; }
circle.green {stroke: rgb(0, 255, 0); fill: none; }
circle.blue {stroke: rgb(0, 0, 255); fill: none; }
circle.black {stroke: rgb(0, 0, 0); fill: none; }
circle.gray {stroke: rgb(204, 204, 204); fill: none; }
circle.brown {stroke: rgb(211.65, 104.55, 30.6); fill: none; }
line.red {stroke: rgb(255, 0, 255); stroke-width: 0.384014; }
line.green {stroke: rgb(0, 255, 0); stroke-width: 0.384014; }
line.blue {stroke: rgb(0, 0, 255); stroke-width: 0.384014; }
line.black {stroke: rgb(0, 0, 0); stroke-width: 0.384014; }
line.gray {stroke: rgb(204, 204, 204); stroke-width: 0.384014; }
line.brown {stroke: rgb(211.65, 104.55, 30.6); stroke-width: 0.384014; }
line {stroke: rgb(0, 0, 0); }
text.red {fill: rgb(255, 0, 255); font-size: 3.072115px; font-weight: bold; font-family: Helvetica; }
text.green {fill: rgb(0, 255, 0); font-size: 3.072115px; font-weight: bold; font-family: Helvetica; }
text.blue {fill: rgb(0, 0, 255); font-size: 3.072115px; font-weight: bold; font-family: Helvetica; }
text.black {fill: rgb(0, 0, 0); font-size: 3.072115px; font-weight: bold; font-family: Helvetica; }
text.gray {fill: rgb(204, 204, 204); font-size: 3.072115px; font-weight: bold; font-family: Helvetica; }
text.brown {fill: rgb(211.65, 104.55, 30.6); font-size: 3.072115px; font-weight: bold; font-family: Helvetica; }
text {fill: rgb(0, 0, 0); font-size: 3.072115px; font-weight: bold; font-family: Helvetica; text-anchor: middle; alignment-baseline: middle; }

.pseudoknot_connection{stroke-linecap: round; stroke-opacity: 0.2; stroke-width: 1.5; }
.pseudoknot_segment1{stroke-linecap: round; stroke-opacity: 0.4; stroke-width: 3.07212; }
.pseudoknot_segment2{stroke-linecap: round; stroke-opacity: 0.4; stroke-width: 3.07212; }
line.numbering-line{stroke: rgb(204, 204, 204); stroke-width: 0.192007; }
line.predicted{stroke: rgb(0, 0, 0); stroke-dasharray: 2; }
polyline{fill: none; stroke-linejoin: round; }
template{visibility: hidden; }
text.numbering-label{fill: rgb(204, 204, 204); }
]]>
</style></g>
<g><title>0 (position.label in template: 0.5')</title><text x="42.4383" y="107.791" class="green" >5'</text></g>
<g><title>1 (position.label in template: 1.G)</title><text x="50" y="107.791" class="black" >G</text></g>
<g><title>2 (position.label in template: 2.G)</title><text x="57.5617" y="107.791" class="black" >G</text></g>
<g><title>3 (position.label in template: 3.G)</title><text x="65.1235" y="107.791" class="black" >G</text></g>
<g><title>4 (position.label in template: 4.G)</title><text x="72.6852" y="107.791" class="black" >G</text></g>
<g><title>5 (position.label in template: 5.A)</title><text x="80.247" y="107.791" class="black" >A</text></g>
<g><title>6 (position.label in template: 6.U)</title><text x="87.8087" y="107.791" class="green" >T</text></g>
<g><title>7 (position.label in template: 7.U)</title><text x="95.3705" y="107.791" class="green" >T</text></g>
<g><title>8 (position.label in template: 8.U)</title><text x="102.932" y="107.791" class="green" >T</text></g>
<g><title>9 (position.label in template: 9.A)</title><text x="110.494" y="107.791" class="black" >A</text></g>
<g><title>10 (position.label in template: 10.G)</title><text x="115.618" y="102.23" class="black" >G</text></g>
<g><line x1="117.666" y1="101.923" x2="126.02" y2="101.923" class="black" /></g>
<g><text x="109.215" y="99.6267" class="numbering-label sequential" >10</text></g>
<g><line x1="113.911" y1="101.536" x2="111.058" y2="100.376" class="numbering-line sequential" /></g>
<g><title>11 (position.label in template: 11.C)</title><text x="115.828" y="94.67" class="black" >C</text></g>
<g><line x1="117.876" y1="94.3628" x2="125.81" y2="94.3628" class="black" /></g>
<g><title>12 (position.label in template: 12.U)</title><text x="115.828" y="87.11" class="green" >T</text></g>
<g><line x1="117.876" y1="86.8028" x2="126.23" y2="86.8028" class="black" /></g>
<g><title>13 (position.label in template: 13.C)</title><text x="115.828" y="79.55" class="black" >C</text></g>
<g><line x1="117.876" y1="79.2428" x2="126.23" y2="79.2428" class="black" /></g>
<g><title>14 (position.label in template: 14.A)</title><text x="110.678" y="74.21" class="black" >A</text></g>
<g><title>15 (position.label in template: 15.G)</title><text x="108.788" y="66.8" class="black" >G</text></g>
<g><title>16 (position.label in template: 16.C)</title><text x="111.888" y="59.81" class="black" >C</text></g>
<g><title>17 (position.label in template: 17.G)</title><text x="117.958" y="55.61" class="black" >G</text></g>
<g><title>18 (position.label in template: 18.G)</title><text x="125.518" y="55.61" class="black" >G</text></g>
<g><title>19 (position.label in template: 19.C)</title><text x="132.018" y="59.81" class="black" >C</text></g>
<g><title>20 (position.label in template: 20.A)</title><text x="135.108" y="66.8" class="black" >A</text></g>
<g><text x="141.988" y="66.1311" class="numbering-label sequential" >20</text></g>
<g><line x1="136.943" y1="66.6216" x2="140.145" y2="66.3103" class="numbering-line sequential" /></g>
<g><title>21 (position.label in template: 21.U)</title><text x="133.418" y="74.21" class="green" >T</text></g>
<g><title>22 (position.label in template: 22.A)</title><text x="128.278" y="79.55" class="black" >A</text></g>
<g><title>23 (position.label in template: 23.A)</title><text x="128.278" y="87.11" class="green" >A</text></g>
<g><title>24 (position.label in template: 24.G)</title><text x="127.858" y="94.67" class="black" >G</text></g>
<g><title>25 (position.label in template: 25.C)</title><text x="128.068" y="102.23" class="black" >C</text></g>
<g><title>26 (position.label in template: 26.A)</title><text x="133.618" y="107.58" class="black" >A</text></g>
<g><title>27 (position.label in template: 27.C)</title><text x="138.758" y="102.23" class="black" >C</text></g>
<g><line x1="140.806" y1="101.923" x2="148.74" y2="101.923" class="black" /></g>
<g><title>28 (position.label in template: 28.C)</title><text x="138.758" y="94.67" class="black" >C</text></g>
<g><line x1="140.806" y1="94.3628" x2="148.74" y2="94.3628" class="black" /></g>
<g><title>29 (position.label in template: 29.U)</title><text x="138.758" y="87.11" class="green" >T</text></g>
<g><line x1="140.806" y1="86.8028" x2="149.16" y2="86.8028" class="black" /></g>
<g><title>30 (position.label in template: 30.G)</title><text x="138.548" y="79.55" class="black" >G</text></g>
<g><line x1="140.596" y1="79.2428" x2="148.95" y2="79.2428" class="black" /></g>
<g><text x="131.636" y="79.55" class="numbering-label sequential" >30</text></g>
<g><line x1="136.705" y1="79.55" x2="133.479" y2="79.55" class="numbering-line sequential" /></g>
<g><title>31 (position.label in template: 31.C)</title><text x="138.758" y="71.99" class="black" >C</text></g>
<g><line x1="140.806" y1="71.6828" x2="148.74" y2="71.6828" class="black" /></g>
<g><title>32 (position.label in template: 32.C)</title><text x="133.878" y="66.22" class="black" >C</text></g>
<g><title>33 (position.label in template: 33.U)</title><text x="133.468" y="58.67" class="green" >T</text></g>
<g><title>34 (position.label in template: 34.U)</title><text x="137.718" y="52.42" class="green" >T</text></g>
<g><title>35 (position.label in template: 35.G)</title><text x="144.668" y="50" class="black" >G</text></g>
<g><title>36 (position.label in template: 36.C)</title><text x="152.048" y="52.42" class="black" >C</text></g>
<g><title>37 (position.label in template: 37.A)</title><text x="156.498" y="58.67" class="black" >A</text></g>
<g><title>38 (position.label in template: 38.A)</title><text x="156.098" y="66.22" class="black" >A</text></g>
<g><title>39 (position.label in template: 39.G)</title><text x="150.788" y="71.99" class="black" >G</text></g>
<g><title>40 (position.label in template: 40.C)</title><text x="150.998" y="79.55" class="black" >C</text></g>
<g><title>41 (position.label in template: 41.A)</title><text x="151.208" y="87.11" class="green" >A</text></g>
<g><title>42 (position.label in template: 42.G)</title><text x="150.788" y="94.67" class="black" >G</text></g>
<g><title>43 (position.label in template: 43.G)</title><text x="150.788" y="102.23" class="black" >G</text></g>
<g><title>44 (position.label in template: 44.C)</title><text x="156.348" y="107.58" class="black" >C</text></g>
<g><title>45 (position.label in template: 45.A)</title><text x="164.108" y="107.58" class="black" >A</text></g>
<g><title>46 (position.label in template: 46.A)</title><text x="171.668" y="107.58" class="black" >A</text></g>
<g><title>47 (position.label in template: 47.C)</title><text x="179.028" y="107.58" class="black" >C</text></g>
<g><title>48 (position.label in template: 48.G)</title><text x="186.378" y="107.58" class="black" >G</text></g>
<g><title>49 (position.label in template: 49.U)</title><text x="191.928" y="102.23" class="green" >T</text></g>
<g><line x1="193.976" y1="101.923" x2="202.33" y2="101.923" class="black" /></g>
<g><title>50 (position.label in template: 50.G)</title><text x="191.718" y="94.67" class="black" >G</text></g>
<g><line x1="193.766" y1="94.3628" x2="202.12" y2="94.3628" class="black" /></g>
<g><text x="184.807" y="94.574" class="numbering-label sequential" >50</text></g>
<g><line x1="189.875" y1="94.6444" x2="186.65" y2="94.5996" class="numbering-line sequential" /></g>
<g><title>51 (position.label in template: 51.A)</title><text x="192.138" y="87.11" class="black" >A</text></g>
<g><line x1="194.186" y1="86.8028" x2="202.12" y2="86.8028" class="black" /></g>
<g><title>52 (position.label in template: 52.G)</title><text x="191.718" y="79.55" class="black" >G</text></g>
<g><line x1="193.766" y1="79.2428" x2="202.12" y2="79.2428" class="black" /></g>
<g><title>53 (position.label in template: 53.U)</title><text x="187.048" y="73.78" class="green" >T</text></g>
<g><title>54 (position.label in template: 54.U)</title><text x="186.638" y="66.23" class="green" >T</text></g>
<g><title>55 (position.label in template: 55.C)</title><text x="190.888" y="59.98" class="black" >C</text></g>
<g><title>56 (position.label in template: 56.G)</title><text x="197.838" y="57.57" class="black" >G</text></g>
<g><title>57 (position.label in template: 57.A)</title><text x="205.428" y="59.98" class="black" >A</text></g>
<g><title>58 (position.label in template: 58.U)</title><text x="209.458" y="66.23" class="green" >T</text></g>
<g><title>59 (position.label in template: 59.C)</title><text x="209.058" y="73.78" class="black" >C</text></g>
<g><title>60 (position.label in template: 60.C)</title><text x="204.168" y="79.55" class="black" >C</text></g>
<g><title>61 (position.label in template: 61.C)</title><text x="204.168" y="87.11" class="black" >C</text></g>
<g><title>62 (position.label in template: 62.C)</title><text x="204.168" y="94.67" class="black" >C</text></g>
<g><title>63 (position.label in template: 63.A)</title><text x="204.378" y="102.23" class="green" >A</text></g>
<g><title>64 (position.label in template: 64.3')</title><text x="211.627" y="100.076" class="green" >3'</text></g>
<g><line x1="44.4863" y1="107.484" x2="47.9519" y2="107.484" class="gray" /></g>
<g><line x1="52.0481" y1="107.484" x2="55.5137" y2="107.484" class="gray" /></g>
<g><line x1="59.6098" y1="107.484" x2="63.0754" y2="107.484" class="gray" /></g>
<g><line x1="67.1716" y1="107.484" x2="70.6372" y2="107.484" class="gray" /></g>
<g><line x1="74.7333" y1="107.484" x2="78.1989" y2="107.484" class="gray" /></g>
<g><line x1="82.2951" y1="107.484" x2="85.7607" y2="107.484" class="gray" /></g>
<g><line x1="89.8568" y1="107.484" x2="93.3224" y2="107.484" class="gray" /></g>
<g><line x1="97.4186" y1="107.484" x2="100.884" y2="107.484" class="gray" /></g>
<g><line x1="104.98" y1="107.484" x2="108.446" y2="107.484" class="gray" /></g>
<g><line x1="111.882" y1="105.977" x2="114.23" y2="103.429" class="gray" /></g>
<g><line x1="115.675" y1="99.8755" x2="115.771" y2="96.4101" class="gray" /></g>
<g><line x1="115.828" y1="92.3147" x2="115.828" y2="88.8509" class="gray" /></g>
<g><line x1="115.828" y1="84.7547" x2="115.828" y2="81.2909" class="gray" /></g>
<g><line x1="114.406" y1="77.7686" x2="112.1" y2="75.377" class="gray" /></g>
<g><line x1="110.172" y1="71.9182" x2="109.294" y2="68.4773" class="gray" /></g>
<g><line x1="109.619" y1="64.6206" x2="111.058" y2="61.375" class="gray" /></g>
<g><line x1="113.572" y1="58.3374" x2="116.274" y2="56.4681" class="gray" /></g>
<g><line x1="120.006" y1="55.3028" x2="123.47" y2="55.3028" class="gray" /></g>
<g><line x1="127.238" y1="56.4143" x2="130.298" y2="58.3913" class="gray" /></g>
<g><line x1="132.846" y1="61.376" x2="134.28" y2="64.6196" class="gray" /></g>
<g><line x1="134.653" y1="68.4896" x2="133.874" y2="71.906" class="gray" /></g>
<g><line x1="131.998" y1="75.3784" x2="129.699" y2="77.7672" class="gray" /></g>
<g><line x1="128.278" y1="81.2909" x2="128.278" y2="84.7547" class="gray" /></g>
<g><line x1="128.165" y1="88.8477" x2="127.972" y2="92.3179" class="gray" /></g>
<g><line x1="127.915" y1="96.4101" x2="128.011" y2="99.8755" class="gray" /></g>
<g><line x1="129.543" y1="103.344" x2="132.144" y2="105.851" class="gray" /></g>
<g><line x1="135.037" y1="105.796" x2="137.339" y2="103.4" class="gray" /></g>
<g><line x1="138.758" y1="99.8747" x2="138.758" y2="96.4109" class="gray" /></g>
<g><line x1="138.758" y1="92.3147" x2="138.758" y2="88.8509" class="gray" /></g>
<g><line x1="138.701" y1="84.7555" x2="138.605" y2="81.2901" class="gray" /></g>
<g><line x1="138.605" y1="77.1955" x2="138.701" y2="73.7301" class="gray" /></g>
<g><line x1="137.436" y1="70.119" x2="135.201" y2="67.4766" class="gray" /></g>
<g><line x1="133.767" y1="63.8677" x2="133.579" y2="60.4079" class="gray" /></g>
<g><line x1="134.62" y1="56.6692" x2="136.567" y2="53.8064" class="gray" /></g>
<g><line x1="139.652" y1="51.4393" x2="142.734" y2="50.3663" class="gray" /></g>
<g><line x1="146.614" y1="50.3309" x2="150.102" y2="51.4746" class="gray" /></g>
<g><line x1="153.236" y1="53.7812" x2="155.31" y2="56.6944" class="gray" /></g>
<g><line x1="156.39" y1="60.408" x2="156.207" y2="63.8676" class="gray" /></g>
<g><line x1="154.711" y1="67.4198" x2="152.175" y2="70.1758" class="gray" /></g>
<g><line x1="150.845" y1="73.7301" x2="150.941" y2="77.1955" class="gray" /></g>
<g><line x1="151.055" y1="81.2901" x2="151.151" y2="84.7555" class="gray" /></g>
<g><line x1="151.095" y1="88.8477" x2="150.902" y2="92.3179" class="gray" /></g>
<g><line x1="150.788" y1="96.4109" x2="150.788" y2="99.8747" class="gray" /></g>
<g><line x1="152.264" y1="103.343" x2="154.872" y2="105.853" class="gray" /></g>
<g><line x1="158.396" y1="107.273" x2="162.06" y2="107.273" class="gray" /></g>
<g><line x1="166.156" y1="107.273" x2="169.62" y2="107.273" class="gray" /></g>
<g><line x1="173.716" y1="107.273" x2="176.98" y2="107.273" class="gray" /></g>
<g><line x1="181.076" y1="107.273" x2="184.33" y2="107.273" class="gray" /></g>
<g><line x1="187.853" y1="105.851" x2="190.454" y2="103.344" class="gray" /></g>
<g><line x1="191.871" y1="99.8755" x2="191.775" y2="96.4101" class="gray" /></g>
<g><line x1="191.832" y1="92.3179" x2="192.025" y2="88.8477" class="gray" /></g>
<g><line x1="192.025" y1="84.7579" x2="191.832" y2="81.2877" class="gray" /></g>
<g><line x1="190.43" y1="77.6508" x2="188.337" y2="75.0648" class="gray" /></g>
<g><line x1="186.937" y1="71.4277" x2="186.749" y2="67.9679" class="gray" /></g>
<g><line x1="187.79" y1="64.2292" x2="189.737" y2="61.3664" class="gray" /></g>
<g><line x1="192.823" y1="59.0018" x2="195.903" y2="57.9338" class="gray" /></g>
<g><line x1="199.79" y1="57.8826" x2="203.476" y2="59.053" class="gray" /></g>
<g><line x1="206.538" y1="61.3941" x2="208.348" y2="64.2015" class="gray" /></g>
<g><line x1="209.35" y1="67.968" x2="209.167" y2="71.4276" class="gray" /></g>
<g><line x1="207.734" y1="75.0352" x2="205.492" y2="77.6803" class="gray" /></g>
<g><line x1="204.168" y1="81.2909" x2="204.168" y2="84.7547" class="gray" /></g>
<g><line x1="204.168" y1="88.8509" x2="204.168" y2="92.3147" class="gray" /></g>
<g><line x1="204.225" y1="96.4101" x2="204.321" y2="99.8755" class="gray" /></g>
<g><line x1="206.341" y1="101.339" x2="209.663" y2="100.352" class="gray" /></g>
</svg>
