<svg
	xmlns="http://www.w3.org/2000/svg"
	width="227.98"
	height="239.887">
<g><style type="text/css" >
<!-- create color definitions -->
<![CDATA[
circle.red {stroke: rgb(255, 0, 255); fill: none; }
circle.green {stroke: rgb(0, 255, 0); fill: none; }
circle.blue {stroke: rgb(0, 0, 255); fill: none; }
circle.black {stroke: rgb(0, 0, 0); fill: none; }
circle.gray {stroke: rgb(204, 204, 204); fill: none; }
circle.brown {stroke: rgb(211.65, 104.55, 30.6); fill: none; }
line.red {stroke: rgb(255, 0, 255); stroke-width: 0.383817; }
line.green {stroke: rgb(0, 255, 0); stroke-width: 0.383817; }
line.blue {stroke: rgb(0, 0, 255); stroke-width: 0.383817; }
line.black {stroke: rgb(0, 0, 0); stroke-width: 0.383817; }
line.gray {stroke: rgb(204, 204, 204); stroke-width: 0.383817; }
line.brown {stroke: rgb(211.65, 104.55, 30.6); stroke-width: 0.383817; }
line {stroke: rgb(0, 0, 0); }
text.red {fill: rgb(255, 0, 255); font-size: 3.070535px; font-weight: bold; font-family: Helvetica; }
text.green {fill: rgb(0, 255, 0); font-size: 3.070535px; font-weight: bold; font-family: Helvetica; }
text.blue {fill: rgb(0, 0, 255); font-size: 3.070535px; font-weight: bold; font-family: Helvetica; }
text.black {fill: rgb(0, 0, 0); font-size: 3.070535px; font-weight: bold; font-family: Helvetica; }
text.gray {fill: rgb(204, 204, 204); font-size: 3.070535px; font-weight: bold; font-family: Helvetica; }
text.brown {fill: rgb(211.65, 104.55, 30.6); font-size: 3.070535px; font-weight: bold; font-family: Helvetica; }
text {fill: rgb(0, 0, 0); font-size: 3.070535px; font-weight: bold; font-family: Helvetica; text-anchor: middle; alignment-baseline: middle; }

.pseudoknot_connection{stroke-linecap: round; stroke-opacity: 0.2; stroke-width: 1.5; }
.pseudoknot_segment1{stroke-linecap: round; stroke-opacity: 0.4; stroke-width: 3.07054; }
.pseudoknot_segment2{stroke-linecap: round; stroke-opacity: 0.4; stroke-width: 3.07054; }
line.numbering-line{stroke: rgb(204, 204, 204); stroke-width: 0.191908; }
line.predicted{stroke: rgb(0, 0, 0); stroke-dasharray: 2; }
polyline{fill: none; stroke-linejoin: round; }
template{visibility: hidden; }
text.numbering-label{fill: rgb(204, 204, 204); }
]]>
</style></g>
<g><title>0 (position.label in template: 0.5')</title><text x="111.09" y="192.099" class="green" >5'</text></g>
<g><title>1 (position.label in template: 1.U)</title><text x="110.88" y="184.54" class="green" >T</text></g>
<g><line x1="112.927" y1="184.233" x2="121.283" y2="184.233" class="black" /></g>
<g><title>2 (position.label in template: 2.G)</title><text x="110.67" y="176.98" class="black" >G</text></g>
<g><line x1="112.717" y1="176.673" x2="121.073" y2="176.673" class="black" /></g>
<g><title>3 (position.label in template: 3.C)</title><text x="110.88" y="169.42" class="black" >C</text></g>
<g><line x1="112.927" y1="169.113" x2="120.863" y2="169.113" class="black" /></g>
<g><title>4 (position.label in template: 4.C)</title><text x="110.88" y="161.86" class="black" >C</text></g>
<g><line x1="112.927" y1="161.553" x2="120.863" y2="161.553" class="black" /></g>
<g><title>5 (position.label in template: 5.U)</title><text x="110.88" y="154.3" class="green" >T</text></g>
<g><line x1="112.927" y1="153.993" x2="121.283" y2="153.993" class="black" /></g>
<g><title>6 (position.label in template: 6.A)</title><text x="111.09" y="146.74" class="green" >A</text></g>
<g><line x1="113.137" y1="146.433" x2="121.073" y2="146.433" class="black" /></g>
<g><title>7 (position.label in template: 7.U)</title><text x="110.88" y="139.18" class="green" >T</text></g>
<g><line x1="112.927" y1="138.873" x2="121.283" y2="138.873" class="black" /></g>
<g><title>8 (position.label in template: 8.U)</title><text x="104.15" y="135.74" class="green" >T</text></g>
<g><title>9 (position.label in template: 9.A)</title><text x="99.25" y="130.16" class="black" >A</text></g>
<g><title>10 (position.label in template: 10.G)</title><text x="96.01" y="123.15" class="black" >G</text></g>
<g><line x1="96.2285" y1="120.808" x2="97.1015" y2="112.678" class="black" /></g>
<g><text x="91.9405" y="128.733" class="numbering-label sequential" >10</text></g>
<g><line x1="94.9248" y1="124.639" x2="93.0596" y2="127.198" class="numbering-line sequential" /></g>
<g><title>11 (position.label in template: 11.C)</title><text x="88.7" y="122.47" class="black" >C</text></g>
<g><line x1="88.8474" y1="120.121" x2="89.4326" y2="112.015" class="black" /></g>
<g><title>12 (position.label in template: 12.U)</title><text x="81.17" y="121.79" class="green" >T</text></g>
<g><line x1="81.3871" y1="119.447" x2="82.2529" y2="111.328" class="black" /></g>
<g><title>13 (position.label in template: 13.C)</title><text x="73.64" y="121.12" class="black" >C</text></g>
<g><line x1="73.7874" y1="118.771" x2="74.3726" y2="110.665" class="black" /></g>
<g><title>14 (position.label in template: 14.A)</title><text x="68.05" y="125.97" class="black" >A</text></g>
<g><title>15 (position.label in template: 15.A)</title><text x="60.53" y="126.78" class="black" >A</text></g>
<g><title>16 (position.label in template: 16.C)</title><text x="53.62" y="123.28" class="black" >C</text></g>
<g><title>17 (position.label in template: 17.U)</title><text x="50" y="116.64" class="green" >T</text></g>
<g><title>18 (position.label in template: 18.G)</title><text x="50.47" y="109.11" class="black" >G</text></g>
<g><title>19 (position.label in template: 19.G)</title><text x="55.21" y="103.23" class="black" >G</text></g>
<g><title>20 (position.label in template: 20.U)</title><text x="62.64" y="100.98" class="green" >T</text></g>
<g><text x="62.589" y="94.0715" class="numbering-label sequential" >20</text></g>
<g><line x1="62.6264" y1="99.1377" x2="62.6003" y2="95.6068" class="numbering-line sequential" /></g>
<g><title>21 (position.label in template: 21.A)</title><text x="70.1" y="103.12" class="black" >A</text></g>
<g><title>22 (position.label in template: 22.G)</title><text x="74.52" y="108.93" class="black" >G</text></g>
<g><title>23 (position.label in template: 23.A)</title><text x="82.47" y="109.6" class="green" >A</text></g>
<g><title>24 (position.label in template: 24.G)</title><text x="89.58" y="110.28" class="black" >G</text></g>
<g><title>25 (position.label in template: 25.C)</title><text x="97.32" y="110.95" class="black" >C</text></g>
<g><title>26 (position.label in template: 26.U)</title><text x="101.34" y="104.56" class="green" >T</text></g>
<g><title>27 (position.label in template: 27.U)</title><text x="107.36" y="99.97" class="green" >T</text></g>
<g><line x1="109.375" y1="99.3043" x2="117.595" y2="97.8416" class="black" /></g>
<g><title>28 (position.label in template: 28.U)</title><text x="106.01" y="92.53" class="green" >T</text></g>
<g><line x1="108.025" y1="91.8643" x2="116.245" y2="90.4016" class="black" /></g>
<g><title>29 (position.label in template: 29.G)</title><text x="104.45" y="85.1" class="black" >G</text></g>
<g><line x1="106.465" y1="84.433" x2="114.695" y2="82.9629" class="black" /></g>
<g><title>30 (position.label in template: 30.U)</title><text x="103.32" y="77.66" class="green" >T</text></g>
<g><line x1="105.335" y1="76.9943" x2="113.555" y2="75.5316" class="black" /></g>
<g><text x="96.5215" y="78.889" class="numbering-label sequential" >30</text></g>
<g><line x1="101.507" y1="77.9877" x2="98.3638" y2="78.556" class="numbering-line sequential" /></g>
<g><title>31 (position.label in template: 31.G)</title><text x="101.76" y="70.22" class="black" >G</text></g>
<g><line x1="103.775" y1="69.5543" x2="111.995" y2="68.0916" class="black" /></g>
<g><title>32 (position.label in template: 32.C)</title><text x="96.66" y="64.83" class="black" >C</text></g>
<g><title>33 (position.label in template: 33.G)</title><text x="96.04" y="57.29" class="black" >G</text></g>
<g><title>34 (position.label in template: 34.A)</title><text x="101.14" y="51.35" class="black" >A</text></g>
<g><title>35 (position.label in template: 35.U)</title><text x="108.37" y="50" class="green" >T</text></g>
<g><title>36 (position.label in template: 36.U)</title><text x="114.84" y="53.92" class="green" >T</text></g>
<g><title>37 (position.label in template: 37.G)</title><text x="116.89" y="61.13" class="black" >G</text></g>
<g><title>38 (position.label in template: 38.C)</title><text x="114.01" y="68.04" class="black" >C</text></g>
<g><title>39 (position.label in template: 39.A)</title><text x="115.57" y="75.48" class="green" >A</text></g>
<g><title>40 (position.label in template: 40.C)</title><text x="116.71" y="82.91" class="black" >C</text></g>
<g><title>41 (position.label in template: 41.A)</title><text x="118.26" y="90.35" class="green" >A</text></g>
<g><title>42 (position.label in template: 42.A)</title><text x="119.61" y="97.79" class="green" >A</text></g>
<g><title>43 (position.label in template: 43.U)</title><text x="126.64" y="99.97" class="green" >T</text></g>
<g><title>44 (position.label in template: 44.G)</title><text x="132.44" y="104.56" class="black" >G</text></g>
<g><title>45 (position.label in template: 45.G)</title><text x="136.47" y="110.95" class="black" >G</text></g>
<g><title>46 (position.label in template: 46.U)</title><text x="138.2" y="118.36" class="green" >T</text></g>
<g><title>47 (position.label in template: 47.G)</title><text x="136.83" y="125.83" class="black" >G</text></g>
<g><line x1="135.651" y1="127.197" x2="131.029" y2="133.759" class="black" /></g>
<g><title>48 (position.label in template: 48.U)</title><text x="143.16" y="130.26" class="green" >T</text></g>
<g><line x1="141.982" y1="131.627" x2="137.358" y2="138.199" class="black" /></g>
<g><title>49 (position.label in template: 49.A)</title><text x="149.48" y="134.7" class="green" >A</text></g>
<g><line x1="148.257" y1="136.035" x2="143.323" y2="142.661" class="black" /></g>
<g><title>50 (position.label in template: 50.G)</title><text x="155.19" y="139.14" class="black" >G</text></g>
<g><line x1="154.012" y1="140.507" x2="149.398" y2="147.069" class="black" /></g>
<g><text x="159.334" y="133.612" class="numbering-label sequential" >50</text></g>
<g><line x1="156.295" y1="137.666" x2="158.183" y2="135.148" class="numbering-line sequential" /></g>
<g><title>51 (position.label in template: 51.G)</title><text x="161.31" y="143.57" class="black" >G</text></g>
<g><line x1="160.132" y1="144.937" x2="155.518" y2="151.499" class="black" /></g>
<g><title>52 (position.label in template: 52.U)</title><text x="169.06" y="143" class="green" >T</text></g>
<g><title>53 (position.label in template: 53.U)</title><text x="175.41" y="147.1" class="green" >T</text></g>
<g><title>54 (position.label in template: 54.C)</title><text x="177.98" y="154.21" class="black" >C</text></g>
<g><title>55 (position.label in template: 55.A)</title><text x="175.94" y="161.43" class="black" >A</text></g>
<g><title>56 (position.label in template: 56.A)</title><text x="169.78" y="165.81" class="black" >A</text></g>
<g><title>57 (position.label in template: 57.A)</title><text x="162.22" y="165.58" class="black" >A</text></g>
<g><title>58 (position.label in template: 58.U)</title><text x="156.14" y="160.83" class="green" >T</text></g>
<g><title>59 (position.label in template: 59.C)</title><text x="154.34" y="153.48" class="black" >C</text></g>
<g><title>60 (position.label in template: 60.C)</title><text x="148.22" y="149.05" class="black" >C</text></g>
<g><title>61 (position.label in template: 61.U)</title><text x="142.1" y="144.61" class="green" >T</text></g>
<g><title>62 (position.label in template: 62.A)</title><text x="136.18" y="140.18" class="green" >A</text></g>
<g><title>63 (position.label in template: 63.C)</title><text x="129.85" y="135.74" class="black" >C</text></g>
<g><title>64 (position.label in template: 64.A)</title><text x="123.33" y="139.18" class="green" >A</text></g>
<g><title>65 (position.label in template: 65.U)</title><text x="123.12" y="146.74" class="green" >T</text></g>
<g><title>66 (position.label in template: 66.A)</title><text x="123.33" y="154.3" class="green" >A</text></g>
<g><title>67 (position.label in template: 67.G)</title><text x="122.91" y="161.86" class="black" >G</text></g>
<g><title>68 (position.label in template: 68.G)</title><text x="122.91" y="169.42" class="black" >G</text></g>
<g><title>69 (position.label in template: 69.C)</title><text x="123.12" y="176.98" class="black" >C</text></g>
<g><title>70 (position.label in template: 70.A)</title><text x="123.33" y="184.54" class="green" >A</text></g>
<g><title>71 (position.label in template: 71.A)</title><text x="128.677" y="189.887" class="black" >A</text></g>
<g><title>72 (position.label in template: 72.3')</title><text x="123.483" y="195.383" class="green" >3'</text></g>
<g><line x1="111.033" y1="189.746" x2="110.937" y2="186.279" class="gray" /></g>
<g><line x1="110.823" y1="182.187" x2="110.727" y2="178.719" class="gray" /></g>
<g><line x1="110.727" y1="174.627" x2="110.823" y2="171.159" class="gray" /></g>
<g><line x1="110.88" y1="167.066" x2="110.88" y2="163.6" class="gray" /></g>
<g><line x1="110.88" y1="159.506" x2="110.88" y2="156.04" class="gray" /></g>
<g><line x1="110.937" y1="151.947" x2="111.033" y2="148.479" class="gray" /></g>
<g><line x1="111.033" y1="144.387" x2="110.937" y2="140.919" class="gray" /></g>
<g><line x1="109.057" y1="137.941" x2="105.973" y2="136.365" class="gray" /></g>
<g><line x1="102.799" y1="133.895" x2="100.601" y2="131.391" class="gray" /></g>
<g><line x1="98.3912" y1="127.995" x2="96.8688" y2="124.701" class="gray" /></g>
<g><line x1="93.9718" y1="122.653" x2="90.7382" y2="122.353" class="gray" /></g>
<g><line x1="86.6613" y1="121.979" x2="83.2087" y2="121.667" class="gray" /></g>
<g><line x1="79.131" y1="121.302" x2="75.679" y2="120.994" class="gray" /></g>
<g><line x1="72.0938" y1="122.154" x2="69.5962" y2="124.321" class="gray" /></g>
<g><line x1="66.0147" y1="125.882" x2="62.5653" y2="126.254" class="gray" /></g>
<g><line x1="58.7039" y1="125.548" x2="55.4461" y2="123.898" class="gray" /></g>
<g><line x1="52.6402" y1="121.176" x2="50.9798" y2="118.13" class="gray" /></g>
<g><line x1="50.1275" y1="114.29" x2="50.3425" y2="110.846" class="gray" /></g>
<g><line x1="51.7547" y1="107.209" x2="53.9253" y2="104.517" class="gray" /></g>
<g><line x1="57.1692" y1="102.33" x2="60.6808" y2="101.266" class="gray" /></g>
<g><line x1="64.6077" y1="101.237" x2="68.1323" y2="102.248" class="gray" /></g>
<g><line x1="71.3394" y1="104.442" x2="73.2806" y2="106.994" class="gray" /></g>
<g><line x1="76.5598" y1="108.795" x2="80.4302" y2="109.121" class="gray" /></g>
<g><line x1="84.5077" y1="109.488" x2="87.5423" y2="109.778" class="gray" /></g>
<g><line x1="91.6194" y1="110.149" x2="95.2806" y2="110.466" class="gray" /></g>
<g><line x1="98.41" y1="108.91" x2="100.25" y2="105.986" class="gray" /></g>
<g><line x1="102.968" y1="103.012" x2="105.732" y2="100.904" class="gray" /></g>
<g><line x1="106.995" y1="97.6488" x2="106.375" y2="94.2371" class="gray" /></g>
<g><line x1="105.589" y1="90.2196" x2="104.871" y2="86.7963" class="gray" /></g>
<g><line x1="104.143" y1="82.7691" x2="103.627" y2="79.3768" class="gray" /></g>
<g><line x1="102.9" y1="75.3495" x2="102.18" y2="71.9164" class="gray" /></g>
<g><line x1="100.353" y1="68.426" x2="98.0669" y2="66.0099" class="gray" /></g>
<g><line x1="96.4922" y1="62.4828" x2="96.2078" y2="59.0231" class="gray" /></g>
<g><line x1="97.3735" y1="55.4298" x2="99.8065" y2="52.5961" class="gray" /></g>
<g><line x1="103.152" y1="50.6672" x2="106.358" y2="50.0687" class="gray" /></g>
<g><line x1="110.121" y1="50.7537" x2="113.089" y2="52.5522" class="gray" /></g>
<g><line x1="115.4" y1="55.5819" x2="116.33" y2="58.854" class="gray" /></g>
<g><line x1="116.102" y1="62.7124" x2="114.798" y2="65.8435" class="gray" /></g>
<g><line x1="114.43" y1="69.7364" x2="115.15" y2="73.1695" class="gray" /></g>
<g><line x1="115.88" y1="77.1963" x2="116.4" y2="80.5796" class="gray" /></g>
<g><line x1="117.127" y1="84.6069" x2="117.843" y2="88.039" class="gray" /></g>
<g><line x1="118.625" y1="92.0571" x2="119.245" y2="95.4688" class="gray" /></g>
<g><line x1="121.565" y1="98.0892" x2="124.685" y2="99.0566" class="gray" /></g>
<g><line x1="128.245" y1="100.933" x2="130.835" y2="102.983" class="gray" /></g>
<g><line x1="133.532" y1="105.984" x2="135.378" y2="108.912" class="gray" /></g>
<g><line x1="136.935" y1="112.636" x2="137.735" y2="116.06" class="gray" /></g>
<g><line x1="137.831" y1="120.066" x2="137.199" y2="123.51" class="gray" /></g>
<g><line x1="138.507" y1="126.697" x2="141.483" y2="128.779" class="gray" /></g>
<g><line x1="144.835" y1="131.13" x2="147.805" y2="133.216" class="gray" /></g>
<g><line x1="151.096" y1="135.65" x2="153.574" y2="137.576" class="gray" /></g>
<g><line x1="156.848" y1="140.033" x2="159.652" y2="142.063" class="gray" /></g>
<g><line x1="163.352" y1="143.113" x2="167.018" y2="142.843" class="gray" /></g>
<g><line x1="170.78" y1="143.803" x2="173.69" y2="145.683" class="gray" /></g>
<g><line x1="176.106" y1="148.718" x2="177.284" y2="151.978" class="gray" /></g>
<g><line x1="177.423" y1="155.873" x2="176.497" y2="159.153" class="gray" /></g>
<g><line x1="174.272" y1="162.309" x2="171.448" y2="164.317" class="gray" /></g>
<g><line x1="167.734" y1="165.441" x2="164.266" y2="165.335" class="gray" /></g>
<g><line x1="160.607" y1="164.013" x2="157.753" y2="161.783" class="gray" /></g>
<g><line x1="155.653" y1="158.535" x2="154.827" y2="155.161" class="gray" /></g>
<g><line x1="152.682" y1="151.973" x2="149.878" y2="149.943" class="gray" /></g>
<g><line x1="146.563" y1="147.541" x2="143.757" y2="145.505" class="gray" /></g>
<g><line x1="140.461" y1="143.077" x2="137.819" y2="141.099" class="gray" /></g>
<g><line x1="134.504" y1="138.697" x2="131.526" y2="136.608" class="gray" /></g>
<g><line x1="128.04" y1="136.388" x2="125.14" y2="137.918" class="gray" /></g>
<g><line x1="123.273" y1="140.919" x2="123.177" y2="144.387" class="gray" /></g>
<g><line x1="123.177" y1="148.479" x2="123.273" y2="151.947" class="gray" /></g>
<g><line x1="123.216" y1="156.037" x2="123.024" y2="159.509" class="gray" /></g>
<g><line x1="122.91" y1="163.6" x2="122.91" y2="167.066" class="gray" /></g>
<g><line x1="122.967" y1="171.159" x2="123.063" y2="174.627" class="gray" /></g>
<g><line x1="123.177" y1="178.719" x2="123.273" y2="182.187" class="gray" /></g>
<g><line x1="124.777" y1="185.68" x2="127.23" y2="188.133" class="gray" /></g>
<g><line x1="127.271" y1="191.068" x2="124.889" y2="193.589" class="gray" /></g>
</svg>
