<svg
	xmlns="http://www.w3.org/2000/svg"
	width="273.57"
	height="263.09">
<g><style type="text/css" >
<!-- create color definitions -->
<![CDATA[
circle.red {stroke: rgb(255, 0, 255); fill: none; }
circle.green {stroke: rgb(0, 255, 0); fill: none; }
circle.blue {stroke: rgb(0, 0, 255); fill: none; }
circle.black {stroke: rgb(0, 0, 0); fill: none; }
circle.gray {stroke: rgb(204, 204, 204); fill: none; }
circle.brown {stroke: rgb(211.65, 104.55, 30.6); fill: none; }
line.red {stroke: rgb(255, 0, 255); stroke-width: 0.383792; }
line.green {stroke: rgb(0, 255, 0); stroke-width: 0.383792; }
line.blue {stroke: rgb(0, 0, 255); stroke-width: 0.383792; }
line.black {stroke: rgb(0, 0, 0); stroke-width: 0.383792; }
line.gray {stroke: rgb(204, 204, 204); stroke-width: 0.383792; }
line.brown {stroke: rgb(211.65, 104.55, 30.6); stroke-width: 0.383792; }
line {stroke: rgb(0, 0, 0); }
text.red {fill: rgb(255, 0, 255); font-size: 3.070332px; font-weight: bold; font-family: Helvetica; }
text.green {fill: rgb(0, 255, 0); font-size: 3.070332px; font-weight: bold; font-family: Helvetica; }
text.blue {fill: rgb(0, 0, 255); font-size: 3.070332px; font-weight: bold; font-family: Helvetica; }
text.black {fill: rgb(0, 0, 0); font-size: 3.070332px; font-weight: bold; font-family: Helvetica; }
text.gray {fill: rgb(204, 204, 204); font-size: 3.070332px; font-weight: bold; font-family: Helvetica; }
text.brown {fill: rgb(211.65, 104.55, 30.6); font-size: 3.070332px; font-weight: bold; font-family: Helvetica; }
text {fill: rgb(0, 0, 0); font-size: 3.070332px; font-weight: bold; font-family: Helvetica; text-anchor: middle; alignment-baseline: middle; }

.pseudoknot_connection{stroke-linecap: round; stroke-opacity: 0.2; stroke-width: 1.5; }
.pseudoknot_segment1{stroke-linecap: round; stroke-opacity: 0.4; stroke-width: 3.07033; }
.pseudoknot_segment2{stroke-linecap: round; stroke-opacity: 0.4; stroke-width: 3.07033; }
line.numbering-line{stroke: rgb(204, 204, 204); stroke-width: 0.191896; }
line.predicted{stroke: rgb(0, 0, 0); stroke-dasharray: 2; }
polyline{fill: none; stroke-linejoin: round; }
template{visibility: hidden; }
text.numbering-label{fill: rgb(204, 204, 204); }
]]>
</style></g>
<g><title>0 (position.label in template: 0.5')</title><text x="79.439" y="147.088" class="green" >5'</text></g>
<g><title>1 (position.label in template: 1.U)</title><text x="87.0017" y="147.088" class="green" >T</text></g>
<g><title>2 (position.label in template: 2.U)</title><text x="94.5643" y="147.088" class="green" >T</text></g>
<g><title>3 (position.label in template: 3.U)</title><text x="102.127" y="147.088" class="green" >T</text></g>
<g><title>4 (position.label in template: 4.U)</title><text x="109.69" y="147.088" class="green" >T</text></g>
<g><title>5 (position.label in template: 5.U)</title><text x="117.252" y="147.088" class="green" >T</text></g>
<g><title>6 (position.label in template: 6.C)</title><text x="122.6" y="141.74" class="black" >C</text></g>
<g><line x1="124.647" y1="141.433" x2="132.583" y2="141.433" class="black" /></g>
<g><title>7 (position.label in template: 7.U)</title><text x="122.6" y="134.18" class="green" >T</text></g>
<g><line x1="124.647" y1="133.873" x2="133.003" y2="133.873" class="black" /></g>
<g><title>8 (position.label in template: 8.U)</title><text x="122.6" y="126.62" class="green" >T</text></g>
<g><line x1="124.647" y1="126.313" x2="133.003" y2="126.313" class="black" /></g>
<g><title>9 (position.label in template: 9.G)</title><text x="122.39" y="119.06" class="black" >G</text></g>
<g><line x1="124.437" y1="118.753" x2="132.793" y2="118.753" class="black" /></g>
<g><title>10 (position.label in template: 10.U)</title><text x="122.6" y="111.5" class="green" >T</text></g>
<g><line x1="124.647" y1="111.193" x2="133.003" y2="111.193" class="black" /></g>
<g><text x="116.515" y="114.771" class="numbering-label sequential" >10</text></g>
<g><line x1="120.977" y1="112.372" x2="118.358" y2="113.781" class="numbering-line sequential" /></g>
<g><title>11 (position.label in template: 11.C)</title><text x="116.18" y="107.51" class="black" >C</text></g>
<g><line x1="115.246" y1="105.382" x2="111.484" y2="98.0444" class="black" /></g>
<g><title>12 (position.label in template: 12.G)</title><text x="109.19" y="110.86" class="black" >G</text></g>
<g><line x1="108.313" y1="108.704" x2="104.857" y2="101.422" class="black" /></g>
<g><title>13 (position.label in template: 13.G)</title><text x="102.42" y="114.21" class="black" >G</text></g>
<g><line x1="101.54" y1="112.055" x2="98.0795" y2="104.781" class="black" /></g>
<g><title>14 (position.label in template: 14.A)</title><text x="96.06" y="117.56" class="green" >A</text></g>
<g><line x1="95.1254" y1="115.432" x2="91.3646" y2="108.104" class="black" /></g>
<g><title>15 (position.label in template: 15.G)</title><text x="90.83" y="123.39" class="black" >G</text></g>
<g><title>16 (position.label in template: 16.U)</title><text x="83.49" y="123.67" class="green" >T</text></g>
<g><line x1="82.5541" y1="121.543" x2="78.7859" y2="114.213" class="black" /></g>
<g><title>17 (position.label in template: 17.G)</title><text x="82.25" y="131.16" class="black" >G</text></g>
<g><line x1="80.8996" y1="132.391" x2="75.6204" y2="138.405" class="black" /></g>
<g><title>18 (position.label in template: 18.C)</title><text x="88.07" y="136.22" class="black" >C</text></g>
<g><line x1="86.6808" y1="137.416" x2="81.0592" y2="143.5" class="black" /></g>
<g><title>19 (position.label in template: 19.C)</title><text x="93.69" y="141.28" class="black" >C</text></g>
<g><line x1="92.3008" y1="142.476" x2="86.6792" y2="148.56" class="black" /></g>
<g><title>20 (position.label in template: 20.U)</title><text x="99.31" y="146.33" class="green" >T</text></g>
<g><line x1="97.9604" y1="147.562" x2="92.6796" y2="153.584" class="black" /></g>
<g><text x="103.885" y="141.154" class="numbering-label sequential" >20</text></g>
<g><line x1="100.53" y1="144.95" x2="102.528" y2="142.689" class="numbering-line sequential" /></g>
<g><title>21 (position.label in template: 21.A)</title><text x="105.13" y="151.39" class="black" >A</text></g>
<g><line x1="103.743" y1="152.588" x2="98.1275" y2="158.678" class="black" /></g>
<g><title>22 (position.label in template: 22.G)</title><text x="111.16" y="147.44" class="black" >G</text></g>
<g><title>23 (position.label in template: 23.C)</title><text x="118.53" y="144.99" class="black" >C</text></g>
<g><title>24 (position.label in template: 24.G)</title><text x="125.83" y="144.16" class="black" >G</text></g>
<g><title>25 (position.label in template: 25.U)</title><text x="133.55" y="144.98" class="green" >T</text></g>
<g><title>26 (position.label in template: 26.U)</title><text x="140.71" y="147.41" class="green" >T</text></g>
<g><title>27 (position.label in template: 27.C)</title><text x="147.17" y="151.35" class="black" >C</text></g>
<g><title>28 (position.label in template: 28.A)</title><text x="152.81" y="156.6" class="black" >A</text></g>
<g><title>29 (position.label in template: 29.G)</title><text x="156.56" y="162.91" class="black" >G</text></g>
<g><title>30 (position.label in template: 30.C)</title><text x="159.47" y="169.97" class="black" >C</text></g>
<g><text x="166.155" y="168.228" class="numbering-label sequential" >30</text></g>
<g><line x1="161.253" y1="169.505" x2="164.313" y2="168.708" class="numbering-line sequential" /></g>
<g><title>31 (position.label in template: 31.G)</title><text x="160.35" y="177.45" class="black" >G</text></g>
<g><title>32 (position.label in template: 32.U)</title><text x="160" y="184.99" class="green" >T</text></g>
<g><title>33 (position.label in template: 33.A)</title><text x="158.01" y="192.23" class="black" >A</text></g>
<g><title>34 (position.label in template: 34.U)</title><text x="154.09" y="198.81" class="green" >T</text></g>
<g><title>35 (position.label in template: 35.A)</title><text x="149.24" y="204.43" class="black" >A</text></g>
<g><title>36 (position.label in template: 36.U)</title><text x="142.88" y="208.81" class="green" >T</text></g>
<g><title>37 (position.label in template: 37.C)</title><text x="135.91" y="211.75" class="black" >C</text></g>
<g><title>38 (position.label in template: 38.A)</title><text x="128.68" y="213.09" class="black" >A</text></g>
<g><title>39 (position.label in template: 39.C)</title><text x="120.92" y="212.79" class="black" >C</text></g>
<g><title>40 (position.label in template: 40.G)</title><text x="113.4" y="210.85" class="black" >G</text></g>
<g><title>41 (position.label in template: 41.A)</title><text x="107.11" y="207.36" class="black" >A</text></g>
<g><title>42 (position.label in template: 42.U)</title><text x="101.11" y="202.5" class="green" >T</text></g>
<g><title>43 (position.label in template: 43.G)</title><text x="96.31" y="196.49" class="black" >G</text></g>
<g><title>44 (position.label in template: 44.A)</title><text x="93.56" y="189.63" class="black" >A</text></g>
<g><title>45 (position.label in template: 45.A)</title><text x="91.95" y="182.24" class="black" >A</text></g>
<g><title>46 (position.label in template: 46.C)</title><text x="91.79" y="174.68" class="black" >C</text></g>
<g><title>47 (position.label in template: 47.A)</title><text x="93.69" y="167.31" class="black" >A</text></g>
<g><title>48 (position.label in template: 48.C)</title><text x="96.74" y="160.49" class="black" >C</text></g>
<g><title>49 (position.label in template: 49.A)</title><text x="91.33" y="155.43" class="green" >A</text></g>
<g><title>50 (position.label in template: 50.G)</title><text x="85.29" y="150.37" class="black" >G</text></g>
<g><text x="80.7618" y="155.587" class="numbering-label sequential" >50</text></g>
<g><line x1="84.0825" y1="151.761" x2="82.0942" y2="154.052" class="numbering-line sequential" /></g>
<g><title>51 (position.label in template: 51.G)</title><text x="79.67" y="145.31" class="black" >G</text></g>
<g><title>52 (position.label in template: 52.C)</title><text x="74.27" y="140.25" class="black" >C</text></g>
<g><title>53 (position.label in template: 53.U)</title><text x="66.92" y="142.06" class="green" >T</text></g>
<g><title>54 (position.label in template: 54.G)</title><text x="59.32" y="140.49" class="black" >G</text></g>
<g><title>55 (position.label in template: 55.A)</title><text x="53.77" y="135.85" class="black" >A</text></g>
<g><title>56 (position.label in template: 56.G)</title><text x="50" y="129.08" class="black" >G</text></g>
<g><title>57 (position.label in template: 57.A)</title><text x="50.36" y="121.52" class="black" >A</text></g>
<g><title>58 (position.label in template: 58.C)</title><text x="53.39" y="114.69" class="black" >C</text></g>
<g><title>59 (position.label in template: 59.C)</title><text x="59.29" y="109.95" class="black" >C</text></g>
<g><line x1="61.3301" y1="109.476" x2="69.2399" y2="108.83" class="black" /></g>
<g><title>60 (position.label in template: 60.G)</title><text x="58.47" y="102.42" class="black" >G</text></g>
<g><line x1="60.5104" y1="101.95" x2="68.8396" y2="101.286" class="black" /></g>
<g><title>61 (position.label in template: 61.U)</title><text x="58.07" y="94.88" class="green" >T</text></g>
<g><line x1="60.1103" y1="94.4091" x2="68.2297" y2="93.7569" class="black" /></g>
<g><title>62 (position.label in template: 62.U)</title><text x="57.46" y="87.35" class="green" >T</text></g>
<g><line x1="59.5002" y1="86.8774" x2="67.6198" y2="86.2185" class="black" /></g>
<g><title>63 (position.label in template: 63.U)</title><text x="56.85" y="79.81" class="green" >T</text></g>
<g><line x1="58.8905" y1="79.3418" x2="67.2195" y2="78.6841" class="black" /></g>
<g><title>64 (position.label in template: 64.A)</title><text x="69.26" y="78.83" class="green" >A</text></g>
<g><title>65 (position.label in template: 65.U)</title><text x="69.66" y="86.36" class="green" >T</text></g>
<g><title>66 (position.label in template: 66.U)</title><text x="70.27" y="93.9" class="green" >T</text></g>
<g><title>67 (position.label in template: 67.C)</title><text x="70.88" y="101.43" class="black" >C</text></g>
<g><title>68 (position.label in template: 68.G)</title><text x="71.28" y="108.97" class="black" >G</text></g>
<g><title>69 (position.label in template: 69.G)</title><text x="77.85" y="112.7" class="green" >G</text></g>
<g><title>70 (position.label in template: 70.G)</title><text x="77.59" y="105.14" class="black" >G</text></g>
<g><title>71 (position.label in template: 71.A)</title><text x="84.79" y="101.79" class="black" >A</text></g>
<g><title>72 (position.label in template: 72.U)</title><text x="90.43" y="106.59" class="green" >T</text></g>
<g><title>73 (position.label in template: 73.C)</title><text x="97.2" y="103.24" class="black" >C</text></g>
<g><title>74 (position.label in template: 74.C)</title><text x="103.98" y="99.88" class="black" >C</text></g>
<g><title>75 (position.label in template: 75.G)</title><text x="110.55" y="96.53" class="black" >G</text></g>
<g><title>76 (position.label in template: 76.C)</title><text x="111.49" y="89.01" class="black" >C</text></g>
<g><title>77 (position.label in template: 77.A)</title><text x="115.44" y="82.44" class="black" >A</text></g>
<g><title>78 (position.label in template: 78.G)</title><text x="121.12" y="77.98" class="black" >G</text></g>
<g><title>79 (position.label in template: 79.A)</title><text x="128.93" y="76.4" class="black" >A</text></g>
<g><title>80 (position.label in template: 80.A)</title><text x="136.32" y="77.98" class="black" >A</text></g>
<g><title>81 (position.label in template: 81.C)</title><text x="142.22" y="82.44" class="black" >C</text></g>
<g><line x1="142.954" y1="84.0437" x2="145.846" y2="91.5722" class="black" /></g>
<g><title>82 (position.label in template: 82.C)</title><text x="149.23" y="79.61" class="black" >C</text></g>
<g><line x1="149.963" y1="81.2139" x2="152.857" y2="88.752" class="black" /></g>
<g><title>83 (position.label in template: 83.U)</title><text x="156.24" y="76.79" class="green" >T</text></g>
<g><line x1="157.034" y1="78.3694" x2="160.226" y2="85.9465" class="black" /></g>
<g><title>84 (position.label in template: 84.G)</title><text x="163.04" y="73.96" class="black" >G</text></g>
<g><line x1="163.864" y1="75.5268" x2="167.206" y2="83.1292" class="black" /></g>
<g><title>85 (position.label in template: 85.A)</title><text x="167.19" y="67.38" class="black" >A</text></g>
<g><title>86 (position.label in template: 86.U)</title><text x="173.99" y="64.56" class="green" >T</text></g>
<g><title>87 (position.label in template: 87.C)</title><text x="181.24" y="66.71" class="black" >C</text></g>
<g><line x1="181.975" y1="68.3132" x2="184.875" y2="75.8428" class="black" /></g>
<g><title>88 (position.label in template: 88.G)</title><text x="188.04" y="63.88" class="black" >G</text></g>
<g><line x1="188.835" y1="65.459" x2="192.035" y2="73.0469" class="black" /></g>
<g><title>89 (position.label in template: 89.G)</title><text x="195.05" y="61.06" class="black" >G</text></g>
<g><line x1="195.846" y1="62.6388" x2="199.044" y2="70.2171" class="black" /></g>
<g><title>90 (position.label in template: 90.G)</title><text x="202.06" y="58.23" class="black" >G</text></g>
<g><line x1="202.856" y1="59.8088" x2="206.054" y2="67.3871" class="black" /></g>
<g><title>91 (position.label in template: 91.C)</title><text x="206.47" y="51.94" class="black" >C</text></g>
<g><title>92 (position.label in template: 92.U)</title><text x="213.78" y="50" class="green" >T</text></g>
<g><title>93 (position.label in template: 93.A)</title><text x="220.74" y="53.39" class="black" >A</text></g>
<g><title>94 (position.label in template: 94.A)</title><text x="223.57" y="60.4" class="black" >A</text></g>
<g><title>95 (position.label in template: 95.U)</title><text x="220.84" y="67.53" class="green" >T</text></g>
<g><title>96 (position.label in template: 96.A)</title><text x="214.44" y="71.2" class="black" >A</text></g>
<g><title>97 (position.label in template: 97.C)</title><text x="206.85" y="69.58" class="black" >C</text></g>
<g><title>98 (position.label in template: 98.C)</title><text x="199.84" y="72.41" class="black" >C</text></g>
<g><title>99 (position.label in template: 99.C)</title><text x="192.83" y="75.24" class="black" >C</text></g>
<g><title>100 (position.label in template: 100.G)</title><text x="185.61" y="78.06" class="black" >G</text></g>
<g><text x="190.16" y="83.2584" class="numbering-label sequential" >100</text></g>
<g><line x1="186.823" y1="79.4462" x2="188.816" y2="81.7232" class="numbering-line sequential" /></g>
<g><title>101 (position.label in template: 101.C)</title><text x="182.09" y="84.64" class="black" >C</text></g>
<g><title>102 (position.label in template: 102.G)</title><text x="174.87" y="87.47" class="black" >G</text></g>
<g><title>103 (position.label in template: 103.A)</title><text x="168.03" y="85.31" class="black" >A</text></g>
<g><title>104 (position.label in template: 104.A)</title><text x="161.02" y="88.14" class="green" >A</text></g>
<g><title>105 (position.label in template: 105.G)</title><text x="153.59" y="90.97" class="black" >G</text></g>
<g><title>106 (position.label in template: 106.G)</title><text x="146.58" y="93.79" class="black" >G</text></g>
<g><title>107 (position.label in template: 107.G)</title><text x="145.28" y="101.24" class="black" >G</text></g>
<g><title>108 (position.label in template: 108.A)</title><text x="141.47" y="107.51" class="black" >A</text></g>
<g><title>109 (position.label in template: 109.A)</title><text x="135.05" y="111.5" class="green" >A</text></g>
<g><title>110 (position.label in template: 110.C)</title><text x="134.84" y="119.06" class="black" >C</text></g>
<g><title>111 (position.label in template: 111.A)</title><text x="135.05" y="126.62" class="green" >A</text></g>
<g><title>112 (position.label in template: 112.A)</title><text x="135.05" y="134.18" class="green" >A</text></g>
<g><title>113 (position.label in template: 113.G)</title><text x="134.63" y="141.74" class="black" >G</text></g>
<g><title>114 (position.label in template: 114.A)</title><text x="140.18" y="146.877" class="black" >A</text></g>
<g><title>115 (position.label in template: 115.G)</title><text x="147.743" y="146.877" class="black" >G</text></g>
<g><title>116 (position.label in template: 116.U)</title><text x="155.306" y="146.877" class="green" >T</text></g>
<g><title>117 (position.label in template: 117.A)</title><text x="162.868" y="146.877" class="black" >A</text></g>
<g><title>118 (position.label in template: 118.A)</title><text x="170.431" y="146.877" class="black" >A</text></g>
<g><title>119 (position.label in template: 119.U)</title><text x="177.994" y="146.877" class="green" >T</text></g>
<g><title>120 (position.label in template: 120.C)</title><text x="185.557" y="146.877" class="black" >C</text></g>
<g><title>121 (position.label in template: 121.C)</title><text x="193.119" y="146.877" class="black" >C</text></g>
<g><title>122 (position.label in template: 122.C)</title><text x="200.682" y="146.877" class="black" >C</text></g>
<g><title>123 (position.label in template: 123.U)</title><text x="208.245" y="146.877" class="green" >T</text></g>
<g><title>124 (position.label in template: 124.C)</title><text x="215.807" y="146.877" class="black" >C</text></g>
<g><title>125 (position.label in template: 125.U)</title><text x="223.37" y="146.877" class="green" >T</text></g>
<g><title>126 (position.label in template: 126.3')</title><text x="230.933" y="146.877" class="green" >3'</text></g>
<g><line x1="81.4859" y1="146.781" x2="84.9548" y2="146.781" class="gray" /></g>
<g><line x1="89.0486" y1="146.781" x2="92.5175" y2="146.781" class="gray" /></g>
<g><line x1="96.6112" y1="146.781" x2="100.08" y2="146.781" class="gray" /></g>
<g><line x1="104.174" y1="146.781" x2="107.643" y2="146.781" class="gray" /></g>
<g><line x1="111.737" y1="146.781" x2="115.205" y2="146.781" class="gray" /></g>
<g><line x1="118.7" y1="145.333" x2="121.153" y2="142.88" class="gray" /></g>
<g><line x1="122.6" y1="139.386" x2="122.6" y2="135.92" class="gray" /></g>
<g><line x1="122.6" y1="131.826" x2="122.6" y2="128.36" class="gray" /></g>
<g><line x1="122.543" y1="124.267" x2="122.447" y2="120.799" class="gray" /></g>
<g><line x1="122.447" y1="116.707" x2="122.543" y2="113.239" class="gray" /></g>
<g><line x1="120.862" y1="110.113" x2="117.918" y2="108.283" class="gray" /></g>
<g><line x1="114.334" y1="108.088" x2="111.036" y2="109.668" class="gray" /></g>
<g><line x1="107.355" y1="111.461" x2="104.255" y2="112.995" class="gray" /></g>
<g><line x1="100.609" y1="114.857" x2="97.871" y2="116.299" class="gray" /></g>
<g><line x1="94.6932" y1="118.777" x2="92.1968" y2="121.559" class="gray" /></g>
<g><line x1="88.7846" y1="123.161" x2="85.5354" y2="123.285" class="gray" /></g>
<g><line x1="83.1557" y1="125.382" x2="82.5843" y2="128.834" class="gray" /></g>
<g><line x1="83.7947" y1="132.196" x2="86.5253" y2="134.57" class="gray" /></g>
<g><line x1="89.5912" y1="137.283" x2="92.1688" y2="139.603" class="gray" /></g>
<g><line x1="95.2125" y1="142.341" x2="97.7875" y2="144.655" class="gray" /></g>
<g><line x1="100.855" y1="147.366" x2="103.585" y2="149.74" class="gray" /></g>
<g><line x1="106.842" y1="149.961" x2="109.448" y2="148.255" class="gray" /></g>
<g><line x1="113.102" y1="146.487" x2="116.588" y2="145.329" class="gray" /></g>
<g><line x1="120.564" y1="144.452" x2="123.796" y2="144.084" class="gray" /></g>
<g><line x1="127.865" y1="144.069" x2="131.515" y2="144.457" class="gray" /></g>
<g><line x1="135.488" y1="145.331" x2="138.772" y2="146.445" class="gray" /></g>
<g><line x1="142.458" y1="148.169" x2="145.422" y2="149.977" class="gray" /></g>
<g><line x1="148.668" y1="152.438" x2="151.312" y2="154.898" class="gray" /></g>
<g><line x1="153.856" y1="158.053" x2="155.514" y2="160.843" class="gray" /></g>
<g><line x1="157.34" y1="164.495" x2="158.69" y2="167.771" class="gray" /></g>
<g><line x1="159.709" y1="171.696" x2="160.111" y2="175.11" class="gray" /></g>
<g><line x1="160.255" y1="179.188" x2="160.095" y2="182.638" class="gray" /></g>
<g><line x1="159.458" y1="186.657" x2="158.552" y2="189.949" class="gray" /></g>
<g><line x1="156.962" y1="193.681" x2="155.138" y2="196.744" class="gray" /></g>
<g><line x1="152.753" y1="200.053" x2="150.577" y2="202.573" class="gray" /></g>
<g><line x1="147.554" y1="205.284" x2="144.566" y2="207.342" class="gray" /></g>
<g><line x1="140.994" y1="209.298" x2="137.796" y2="210.647" class="gray" /></g>
<g><line x1="133.897" y1="211.816" x2="130.693" y2="212.41" class="gray" /></g>
<g><line x1="126.635" y1="212.704" x2="122.965" y2="212.562" class="gray" /></g>
<g><line x1="118.938" y1="211.972" x2="115.382" y2="211.054" class="gray" /></g>
<g><line x1="111.61" y1="209.55" x2="108.9" y2="208.046" class="gray" /></g>
<g><line x1="105.519" y1="205.765" x2="102.701" y2="203.481" class="gray" /></g>
<g><line x1="99.8326" y1="200.594" x2="97.5874" y2="197.782" class="gray" /></g>
<g><line x1="95.5484" y1="194.283" x2="94.3216" y2="191.223" class="gray" /></g>
<g><line x1="93.1243" y1="187.323" x2="92.3857" y2="183.933" class="gray" /></g>
<g><line x1="91.9067" y1="179.887" x2="91.8333" y2="176.419" class="gray" /></g>
<g><line x1="92.301" y1="172.391" x2="93.179" y2="168.985" class="gray" /></g>
<g><line x1="94.5256" y1="165.134" x2="95.9044" y2="162.052" class="gray" /></g>
<g><line x1="95.2451" y1="158.785" x2="92.8249" y2="156.521" class="gray" /></g>
<g><line x1="89.7609" y1="153.808" x2="86.8591" y2="151.377" class="gray" /></g>
<g><line x1="83.7688" y1="148.693" x2="81.1912" y2="146.373" class="gray" /></g>
<g><line x1="78.1764" y1="143.603" x2="75.7636" y2="141.343" class="gray" /></g>
<g><line x1="72.2825" y1="140.432" x2="68.9075" y2="141.264" class="gray" /></g>
<g><line x1="64.9154" y1="141.339" x2="61.3246" y2="140.597" class="gray" /></g>
<g><line x1="57.7496" y1="138.87" x2="55.3404" y2="136.856" class="gray" /></g>
<g><line x1="52.7741" y1="133.755" x2="50.9959" y2="130.561" class="gray" /></g>
<g><line x1="50.0974" y1="126.728" x2="50.2626" y2="123.258" class="gray" /></g>
<g><line x1="51.19" y1="119.342" x2="52.56" y2="116.254" class="gray" /></g>
<g><line x1="54.9857" y1="113.101" x2="57.6943" y2="110.925" class="gray" /></g>
<g><line x1="59.0684" y1="107.608" x2="58.6916" y2="104.148" class="gray" /></g>
<g><line x1="58.3616" y1="100.069" x2="58.1784" y2="96.617" class="gray" /></g>
<g><line x1="57.9047" y1="92.5328" x2="57.6253" y2="89.0832" class="gray" /></g>
<g><line x1="57.2949" y1="85.0027" x2="57.0151" y2="81.5432" class="gray" /></g>
<g><line x1="58.8905" y1="79.3418" x2="67.2195" y2="78.6841" class="gray" /></g>
<g><line x1="69.3686" y1="80.567" x2="69.5514" y2="84.009" class="gray" /></g>
<g><line x1="69.8251" y1="88.0932" x2="70.1049" y2="91.5527" class="gray" /></g>
<g><line x1="70.4353" y1="95.6332" x2="70.7147" y2="99.0828" class="gray" /></g>
<g><line x1="70.9884" y1="103.167" x2="71.1716" y2="106.619" class="gray" /></g>
<g><line x1="73.06" y1="109.674" x2="76.07" y2="111.382" class="gray" /></g>
<g><line x1="77.7796" y1="110.347" x2="77.6604" y2="106.879" class="gray" /></g>
<g><line x1="79.4458" y1="103.969" x2="82.9342" y2="102.346" class="gray" /></g>
<g><line x1="86.3488" y1="102.81" x2="88.8712" y2="104.956" class="gray" /></g>
<g><line x1="92.2646" y1="105.375" x2="95.3654" y2="103.841" class="gray" /></g>
<g><line x1="99.034" y1="102.024" x2="102.146" y2="100.482" class="gray" /></g>
<g><line x1="105.804" y1="98.6432" x2="108.726" y2="97.1528" class="gray" /></g>
<g><line x1="110.804" y1="94.1919" x2="111.236" y2="90.734" class="gray" /></g>
<g><line x1="112.545" y1="86.9487" x2="114.385" y2="83.8872" class="gray" /></g>
<g><line x1="117.05" y1="80.8689" x2="119.51" y2="78.9371" class="gray" /></g>
<g><line x1="123.126" y1="77.2671" x2="126.924" y2="76.4988" class="gray" /></g>
<g><line x1="130.932" y1="76.5209" x2="134.318" y2="77.245" class="gray" /></g>
<g><line x1="137.953" y1="78.9073" x2="140.587" y2="80.8986" class="gray" /></g>
<g><line x1="144.118" y1="81.3667" x2="147.332" y2="80.0692" class="gray" /></g>
<g><line x1="151.129" y1="78.539" x2="154.341" y2="77.2469" class="gray" /></g>
<g><line x1="158.13" y1="75.6965" x2="161.15" y2="74.4394" class="gray" /></g>
<g><line x1="164.132" y1="71.9217" x2="166.098" y2="68.8043" class="gray" /></g>
<g><line x1="169.081" y1="66.2889" x2="172.099" y2="65.0371" class="gray" /></g>
<g><line x1="175.952" y1="64.8349" x2="179.278" y2="65.821" class="gray" /></g>
<g><line x1="183.13" y1="65.6165" x2="186.15" y2="64.3594" class="gray" /></g>
<g><line x1="189.939" y1="62.809" x2="193.151" y2="61.5169" class="gray" /></g>
<g><line x1="196.948" y1="59.9867" x2="200.162" y2="58.6892" class="gray" /></g>
<g><line x1="203.235" y1="56.247" x2="205.295" y2="53.309" class="gray" /></g>
<g><line x1="208.448" y1="51.1079" x2="211.802" y2="50.218" class="gray" /></g>
<g><line x1="215.62" y1="50.5893" x2="218.9" y2="52.1867" class="gray" /></g>
<g><line x1="221.506" y1="54.981" x2="222.804" y2="58.1949" class="gray" /></g>
<g><line x1="222.838" y1="62.0045" x2="221.572" y2="65.3114" class="gray" /></g>
<g><line x1="219.064" y1="68.2412" x2="216.216" y2="69.8747" class="gray" /></g>
<g><line x1="212.438" y1="70.4657" x2="208.852" y2="69.7002" class="gray" /></g>
<g><line x1="204.952" y1="70.0392" x2="201.738" y2="71.3367" class="gray" /></g>
<g><line x1="197.942" y1="72.8692" x2="194.728" y2="74.1667" class="gray" /></g>
<g><line x1="190.923" y1="75.6777" x2="187.517" y2="77.0083" class="gray" /></g>
<g><line x1="184.644" y1="79.5578" x2="183.056" y2="82.5281" class="gray" /></g>
<g><line x1="180.184" y1="85.0799" x2="176.776" y2="86.416" class="gray" /></g>
<g><line x1="172.918" y1="86.5466" x2="169.982" y2="85.6193" class="gray" /></g>
<g><line x1="166.132" y1="85.7692" x2="162.918" y2="87.0667" class="gray" /></g>
<g><line x1="159.107" y1="88.5615" x2="155.503" y2="89.9344" class="gray" /></g>
<g><line x1="151.691" y1="91.4269" x2="148.479" y2="92.719" class="gray" /></g>
<g><line x1="146.228" y1="95.4994" x2="145.632" y2="98.9165" class="gray" /></g>
<g><line x1="144.217" y1="102.682" x2="142.533" y2="105.454" class="gray" /></g>
<g><line x1="139.732" y1="108.283" x2="136.788" y2="110.113" class="gray" /></g>
<g><line x1="134.993" y1="113.239" x2="134.897" y2="116.707" class="gray" /></g>
<g><line x1="134.897" y1="120.799" x2="134.993" y2="124.267" class="gray" /></g>
<g><line x1="135.05" y1="128.36" x2="135.05" y2="131.826" class="gray" /></g>
<g><line x1="134.936" y1="135.917" x2="134.744" y2="139.389" class="gray" /></g>
<g><line x1="136.132" y1="142.823" x2="138.678" y2="145.179" class="gray" /></g>
<g><line x1="142.227" y1="146.57" x2="145.696" y2="146.57" class="gray" /></g>
<g><line x1="149.79" y1="146.57" x2="153.259" y2="146.57" class="gray" /></g>
<g><line x1="157.353" y1="146.57" x2="160.822" y2="146.57" class="gray" /></g>
<g><line x1="164.915" y1="146.57" x2="168.384" y2="146.57" class="gray" /></g>
<g><line x1="172.478" y1="146.57" x2="175.947" y2="146.57" class="gray" /></g>
<g><line x1="180.041" y1="146.57" x2="183.51" y2="146.57" class="gray" /></g>
<g><line x1="187.603" y1="146.57" x2="191.072" y2="146.57" class="gray" /></g>
<g><line x1="195.166" y1="146.57" x2="198.635" y2="146.57" class="gray" /></g>
<g><line x1="202.729" y1="146.57" x2="206.198" y2="146.57" class="gray" /></g>
<g><line x1="210.291" y1="146.57" x2="213.76" y2="146.57" class="gray" /></g>
<g><line x1="217.854" y1="146.57" x2="221.323" y2="146.57" class="gray" /></g>
<g><line x1="225.417" y1="146.57" x2="228.886" y2="146.57" class="gray" /></g>
</svg>
