<svg
	xmlns="http://www.w3.org/2000/svg"
	width="247.16"
	height="242.28">
<g><style type="text/css" >
<!-- create color definitions -->
<![CDATA[
circle.red {stroke: rgb(255, 0, 255); fill: none; }
circle.green {stroke: rgb(0, 255, 0); fill: none; }
circle.blue {stroke: rgb(0, 0, 255); fill: none; }
circle.black {stroke: rgb(0, 0, 0); fill: none; }
circle.gray {stroke: rgb(204, 204, 204); fill: none; }
circle.brown {stroke: rgb(211.65, 104.55, 30.6); fill: none; }
line.red {stroke: rgb(255, 0, 255); stroke-width: 0.383429; }
line.green {stroke: rgb(0, 255, 0); stroke-width: 0.383429; }
line.blue {stroke: rgb(0, 0, 255); stroke-width: 0.383429; }
line.black {stroke: rgb(0, 0, 0); stroke-width: 0.383429; }
line.gray {stroke: rgb(204, 204, 204); stroke-width: 0.383429; }
line.brown {stroke: rgb(211.65, 104.55, 30.6); stroke-width: 0.383429; }
line {stroke: rgb(0, 0, 0); }
text.red {fill: rgb(255, 0, 255); font-size: 3.067428px; font-weight: bold; font-family: Helvetica; }
text.green {fill: rgb(0, 255, 0); font-size: 3.067428px; font-weight: bold; font-family: Helvetica; }
text.blue {fill: rgb(0, 0, 255); font-size: 3.067428px; font-weight: bold; font-family: Helvetica; }
text.black {fill: rgb(0, 0, 0); font-size: 3.067428px; font-weight: bold; font-family: Helvetica; }
text.gray {fill: rgb(204, 204, 204); font-size: 3.067428px; font-weight: bold; font-family: Helvetica; }
text.brown {fill: rgb(211.65, 104.55, 30.6); font-size: 3.067428px; font-weight: bold; font-family: Helvetica; }
text {fill: rgb(0, 0, 0); font-size: 3.067428px; font-weight: bold; font-family: Helvetica; text-anchor: middle; alignment-baseline: middle; }

.pseudoknot_connection{stroke-linecap: round; stroke-opacity: 0.2; stroke-width: 1.5; }
.pseudoknot_segment1{stroke-linecap: round; stroke-opacity: 0.4; stroke-width: 3.06743; }
.pseudoknot_segment2{stroke-linecap: round; stroke-opacity: 0.4; stroke-width: 3.06743; }
line.numbering-line{stroke: rgb(204, 204, 204); stroke-width: 0.191714; }
line.predicted{stroke: rgb(0, 0, 0); stroke-dasharray: 2; }
polyline{fill: none; stroke-linejoin: round; }
template{visibility: hidden; }
text.numbering-label{fill: rgb(204, 204, 204); }
]]>
</style></g>
<g><title>0 (position.label in template: 0.5')</title><text x="110.97" y="192.28" class="green" >5'</text></g>
<g><title>1 (position.label in template: 1.G)</title><text x="117.97" y="192.28" class="black" >G</text></g>
<g><line x1="120.015" y1="191.973" x2="128.375" y2="191.973" class="black" /></g>
<g><title>2 (position.label in template: 2.G)</title><text x="117.97" y="184.72" class="black" >G</text></g>
<g><line x1="120.015" y1="184.413" x2="128.375" y2="184.413" class="black" /></g>
<g><title>3 (position.label in template: 3.G)</title><text x="117.97" y="177.16" class="black" >G</text></g>
<g><line x1="120.015" y1="176.853" x2="128.375" y2="176.853" class="black" /></g>
<g><title>4 (position.label in template: 4.G)</title><text x="117.97" y="169.6" class="green" >G</text></g>
<g><line x1="120.015" y1="169.293" x2="128.375" y2="169.293" class="black" /></g>
<g><title>5 (position.label in template: 5.G)</title><text x="117.97" y="162.04" class="black" >G</text></g>
<g><line x1="120.015" y1="161.733" x2="128.375" y2="161.733" class="black" /></g>
<g><title>6 (position.label in template: 6.C)</title><text x="118.18" y="154.48" class="black" >C</text></g>
<g><line x1="120.225" y1="154.173" x2="128.165" y2="154.173" class="black" /></g>
<g><title>7 (position.label in template: 7.G)</title><text x="117.97" y="146.92" class="black" >G</text></g>
<g><line x1="120.015" y1="146.613" x2="128.375" y2="146.613" class="black" /></g>
<g><title>8 (position.label in template: 8.G)</title><text x="111.04" y="143.9" class="black" >G</text></g>
<g><title>9 (position.label in template: 9.A)</title><text x="105.78" y="138.91" class="black" >A</text></g>
<g><title>10 (position.label in template: 10.G)</title><text x="101.5" y="132.41" class="black" >G</text></g>
<g><text x="95.1606" y="135.139" class="numbering-label sequential" >10</text></g>
<g><line x1="99.8095" y1="133.138" x2="97.001" y2="134.346" class="numbering-line sequential" /></g>
<g><title>11 (position.label in template: 11.G)</title><text x="99.81" y="125.04" class="black" >G</text></g>
<g><line x1="100.22" y1="122.73" x2="101.86" y2="114.707" class="black" /></g>
<g><title>12 (position.label in template: 12.G)</title><text x="92.38" y="123.66" class="black" >G</text></g>
<g><line x1="92.7878" y1="121.349" x2="94.4222" y2="113.317" class="black" /></g>
<g><title>13 (position.label in template: 13.G)</title><text x="84.94" y="122.27" class="black" >G</text></g>
<g><line x1="85.3497" y1="119.96" x2="86.9903" y2="111.937" class="black" /></g>
<g><title>14 (position.label in template: 14.G)</title><text x="77.51" y="120.88" class="black" >G</text></g>
<g><line x1="77.9197" y1="118.57" x2="79.5603" y2="110.547" class="black" /></g>
<g><title>15 (position.label in template: 15.A)</title><text x="70.5" y="119.49" class="green" >A</text></g>
<g><line x1="70.8419" y1="117.167" x2="72.1981" y2="109.169" class="black" /></g>
<g><title>16 (position.label in template: 16.C)</title><text x="62.86" y="118.1" class="black" >C</text></g>
<g><line x1="63.2019" y1="115.777" x2="64.5581" y2="107.779" class="black" /></g>
<g><title>17 (position.label in template: 17.U)</title><text x="55.34" y="118.91" class="green" >T</text></g>
<g><title>18 (position.label in template: 18.G)</title><text x="50" y="113.36" class="black" >G</text></g>
<g><title>19 (position.label in template: 19.G)</title><text x="51.39" y="105.92" class="black" >G</text></g>
<g><title>20 (position.label in template: 20.U)</title><text x="58.39" y="102.6" class="green" >T</text></g>
<g><text x="58.4666" y="95.6987" class="numbering-label sequential" >20</text></g>
<g><line x1="58.4104" y1="100.76" x2="58.4496" y2="97.2324" class="numbering-line sequential" /></g>
<g><title>21 (position.label in template: 21.G)</title><text x="64.9" y="106.07" class="black" >G</text></g>
<g><title>22 (position.label in template: 22.U)</title><text x="72.54" y="107.46" class="green" >T</text></g>
<g><title>23 (position.label in template: 23.C)</title><text x="79.97" y="108.85" class="black" >C</text></g>
<g><title>24 (position.label in template: 24.C)</title><text x="87.4" y="110.24" class="black" >C</text></g>
<g><title>25 (position.label in template: 25.C)</title><text x="94.83" y="111.62" class="black" >C</text></g>
<g><title>26 (position.label in template: 26.C)</title><text x="102.27" y="113.01" class="black" >C</text></g>
<g><title>27 (position.label in template: 27.G)</title><text x="106.29" y="106.75" class="black" >G</text></g>
<g><title>28 (position.label in template: 28.G)</title><text x="112.24" y="102.09" class="green" >G</text></g>
<g><line x1="114.221" y1="101.277" x2="122.319" y2="99.2093" class="black" /></g>
<g><title>29 (position.label in template: 29.C)</title><text x="110.55" y="94.77" class="black" >C</text></g>
<g><line x1="112.527" y1="93.9417" x2="120.213" y2="91.9148" class="black" /></g>
<g><title>30 (position.label in template: 30.G)</title><text x="108.44" y="87.46" class="black" >G</text></g>
<g><line x1="110.421" y1="86.6472" x2="118.519" y2="84.5793" class="black" /></g>
<g><text x="101.784" y="89.2844" class="numbering-label sequential" >30</text></g>
<g><line x1="106.665" y1="87.9465" x2="103.624" y2="88.78" class="numbering-line sequential" /></g>
<g><title>31 (position.label in template: 31.G)</title><text x="106.54" y="80.14" class="black" >G</text></g>
<g><line x1="108.521" y1="79.3272" x2="116.619" y2="77.2593" class="black" /></g>
<g><title>32 (position.label in template: 32.U)</title><text x="104.85" y="72.82" class="green" >T</text></g>
<g><line x1="106.832" y1="72.0088" x2="114.928" y2="69.9477" class="black" /></g>
<g><title>33 (position.label in template: 33.C)</title><text x="98.67" y="68.47" class="black" >C</text></g>
<g><title>34 (position.label in template: 34.U)</title><text x="96.38" y="61.26" class="green" >T</text></g>
<g><title>35 (position.label in template: 35.U)</title><text x="98.92" y="54.14" class="green" >T</text></g>
<g><title>36 (position.label in template: 36.C)</title><text x="105.25" y="50" class="black" >C</text></g>
<g><title>37 (position.label in template: 37.A)</title><text x="113" y="50.54" class="black" >A</text></g>
<g><title>38 (position.label in template: 38.A)</title><text x="118.68" y="55.53" class="black" >A</text></g>
<g><title>39 (position.label in template: 39.A)</title><text x="120.19" y="62.93" class="black" >A</text></g>
<g><title>40 (position.label in template: 40.A)</title><text x="116.91" y="69.75" class="green" >A</text></g>
<g><title>41 (position.label in template: 41.C)</title><text x="118.6" y="77.06" class="black" >C</text></g>
<g><title>42 (position.label in template: 42.C)</title><text x="120.5" y="84.38" class="black" >C</text></g>
<g><title>43 (position.label in template: 43.G)</title><text x="122.19" y="91.7" class="black" >G</text></g>
<g><title>44 (position.label in template: 44.U)</title><text x="124.3" y="99.01" class="green" >T</text></g>
<g><title>45 (position.label in template: 45.G)</title><text x="131.56" y="100.19" class="black" >G</text></g>
<g><title>46 (position.label in template: 46.C)</title><text x="138.52" y="103.6" class="black" >C</text></g>
<g><line x1="139.806" y1="104.883" x2="144.844" y2="111.113" class="black" /></g>
<g><title>47 (position.label in template: 47.A)</title><text x="144.54" y="98.77" class="green" >A</text></g>
<g><line x1="145.826" y1="100.053" x2="150.864" y2="106.283" class="black" /></g>
<g><title>48 (position.label in template: 48.G)</title><text x="142.85" y="91.31" class="black" >G</text></g>
<g><title>49 (position.label in template: 49.C)</title><text x="150.15" y="93.94" class="black" >C</text></g>
<g><line x1="151.436" y1="95.2233" x2="156.474" y2="101.453" class="black" /></g>
<g><title>50 (position.label in template: 50.C)</title><text x="155.97" y="89.11" class="black" >C</text></g>
<g><line x1="157.256" y1="90.3933" x2="162.294" y2="96.6232" class="black" /></g>
<g><text x="151.56" y="83.8009" class="numbering-label sequential" >50</text></g>
<g><line x1="154.794" y1="87.6942" x2="152.834" y2="85.3346" class="numbering-line sequential" /></g>
<g><title>51 (position.label in template: 51.C)</title><text x="161.78" y="84.28" class="black" >C</text></g>
<g><line x1="163.066" y1="85.5633" x2="168.104" y2="91.7932" class="black" /></g>
<g><title>52 (position.label in template: 52.G)</title><text x="167.39" y="79.45" class="black" >G</text></g>
<g><line x1="168.717" y1="80.6988" x2="174.093" y2="86.9977" class="black" /></g>
<g><title>53 (position.label in template: 53.G)</title><text x="173.2" y="74.62" class="black" >G</text></g>
<g><line x1="174.527" y1="75.8688" x2="179.903" y2="82.1677" class="black" /></g>
<g><title>54 (position.label in template: 54.C)</title><text x="174.73" y="67.17" class="black" >C</text></g>
<g><title>55 (position.label in template: 55.U)</title><text x="180.28" y="62.04" class="green" >T</text></g>
<g><title>56 (position.label in template: 56.A)</title><text x="188.01" y="61.31" class="black" >A</text></g>
<g><title>57 (position.label in template: 57.G)</title><text x="194.03" y="65.28" class="black" >G</text></g>
<g><title>58 (position.label in template: 58.A)</title><text x="197.16" y="72.33" class="black" >A</text></g>
<g><title>59 (position.label in template: 59.A)</title><text x="195.06" y="79.6" class="black" >A</text></g>
<g><title>60 (position.label in template: 60.C)</title><text x="188.79" y="84.11" class="black" >C</text></g>
<g><title>61 (position.label in template: 61.C)</title><text x="181.23" y="84.03" class="black" >C</text></g>
<g><title>62 (position.label in template: 62.C)</title><text x="175.42" y="88.86" class="black" >C</text></g>
<g><title>63 (position.label in template: 63.G)</title><text x="169.39" y="93.69" class="black" >G</text></g>
<g><title>64 (position.label in template: 64.G)</title><text x="163.58" y="98.52" class="black" >G</text></g>
<g><title>65 (position.label in template: 65.G)</title><text x="157.76" y="103.35" class="black" >G</text></g>
<g><title>66 (position.label in template: 66.U)</title><text x="152.15" y="108.18" class="green" >T</text></g>
<g><title>67 (position.label in template: 67.G)</title><text x="146.13" y="113.01" class="black" >G</text></g>
<g><title>68 (position.label in template: 68.G)</title><text x="148.24" y="120.27" class="black" >G</text></g>
<g><title>69 (position.label in template: 69.G)</title><text x="148.02" y="127.83" class="black" >G</text></g>
<g><line x1="147.18" y1="129.388" x2="143.87" y2="136.739" class="black" /></g>
<g><title>70 (position.label in template: 70.U)</title><text x="155.07" y="131.04" class="green" >T</text></g>
<g><line x1="154.23" y1="132.598" x2="150.92" y2="139.949" class="black" /></g>
<g><title>71 (position.label in template: 71.G)</title><text x="161.71" y="134.25" class="black" >G</text></g>
<g><line x1="160.87" y1="135.808" x2="157.56" y2="143.159" class="black" /></g>
<g><title>72 (position.label in template: 72.G)</title><text x="168.55" y="137.47" class="black" >G</text></g>
<g><line x1="167.71" y1="139.028" x2="164.4" y2="146.379" class="black" /></g>
<g><title>73 (position.label in template: 73.G)</title><text x="175.39" y="140.68" class="black" >G</text></g>
<g><line x1="174.55" y1="142.238" x2="171.24" y2="149.589" class="black" /></g>
<g><title>74 (position.label in template: 74.U)</title><text x="182.9" y="138.71" class="green" >T</text></g>
<g><title>75 (position.label in template: 75.U)</title><text x="189.91" y="141.55" class="green" >T</text></g>
<g><title>76 (position.label in template: 76.C)</title><text x="193.76" y="148.05" class="black" >C</text></g>
<g><title>77 (position.label in template: 77.G)</title><text x="192.69" y="155.56" class="black" >G</text></g>
<g><title>78 (position.label in template: 78.A)</title><text x="187.88" y="161.02" class="black" >A</text></g>
<g><title>79 (position.label in template: 79.U)</title><text x="180.21" y="162.21" class="green" >T</text></g>
<g><title>80 (position.label in template: 80.U)</title><text x="173.55" y="158.63" class="green" >T</text></g>
<g><title>81 (position.label in template: 81.C)</title><text x="170.4" y="151.76" class="black" >C</text></g>
<g><title>82 (position.label in template: 82.C)</title><text x="163.56" y="148.55" class="black" >C</text></g>
<g><title>83 (position.label in template: 83.C)</title><text x="156.72" y="145.33" class="black" >C</text></g>
<g><title>84 (position.label in template: 84.A)</title><text x="150.08" y="142.12" class="green" >A</text></g>
<g><title>85 (position.label in template: 85.C)</title><text x="143.03" y="138.91" class="black" >C</text></g>
<g><title>86 (position.label in template: 86.A)</title><text x="137.56" y="143.9" class="black" >A</text></g>
<g><title>87 (position.label in template: 87.C)</title><text x="130.42" y="146.92" class="black" >C</text></g>
<g><title>88 (position.label in template: 88.G)</title><text x="130.21" y="154.48" class="black" >G</text></g>
<g><title>89 (position.label in template: 89.C)</title><text x="130.42" y="162.04" class="black" >C</text></g>
<g><title>90 (position.label in template: 90.U)</title><text x="130.42" y="169.6" class="green" >T</text></g>
<g><title>91 (position.label in template: 91.C)</title><text x="130.42" y="177.16" class="black" >C</text></g>
<g><title>92 (position.label in template: 92.C)</title><text x="130.42" y="184.72" class="black" >C</text></g>
<g><title>93 (position.label in template: 93.C)</title><text x="130.42" y="192.28" class="black" >C</text></g>
<g><title>94 (position.label in template: 94.3')</title><text x="137.42" y="192.28" class="green" >3'</text></g>
<g><line x1="113.015" y1="191.973" x2="115.925" y2="191.973" class="gray" /></g>
<g><line x1="117.97" y1="189.928" x2="117.97" y2="186.458" class="gray" /></g>
<g><line x1="117.97" y1="182.368" x2="117.97" y2="178.898" class="gray" /></g>
<g><line x1="117.97" y1="174.808" x2="117.97" y2="171.338" class="gray" /></g>
<g><line x1="117.97" y1="167.248" x2="117.97" y2="163.778" class="gray" /></g>
<g><line x1="118.027" y1="159.689" x2="118.123" y2="156.217" class="gray" /></g>
<g><line x1="118.123" y1="152.129" x2="118.027" y2="148.657" class="gray" /></g>
<g><line x1="116.095" y1="145.796" x2="112.915" y2="144.41" class="gray" /></g>
<g><line x1="109.556" y1="142.186" x2="107.264" y2="140.011" class="gray" /></g>
<g><line x1="104.655" y1="136.895" x2="102.625" y2="133.811" class="gray" /></g>
<g><line x1="101.043" y1="130.11" x2="100.267" y2="126.726" class="gray" /></g>
<g><line x1="97.7994" y1="124.36" x2="94.3906" y2="123.727" class="gray" /></g>
<g><line x1="90.3698" y1="122.978" x2="86.9502" y2="122.339" class="gray" /></g>
<g><line x1="82.9299" y1="121.587" x2="79.5201" y2="120.949" class="gray" /></g>
<g><line x1="75.5041" y1="120.176" x2="72.5059" y2="119.581" class="gray" /></g>
<g><line x1="68.4881" y1="118.817" x2="64.8719" y2="118.159" class="gray" /></g>
<g><line x1="60.8268" y1="118.012" x2="57.3732" y2="118.384" class="gray" /></g>
<g><line x1="53.9221" y1="117.13" x2="51.4179" y2="114.527" class="gray" /></g>
<g><line x1="50.3756" y1="111.043" x2="51.0144" y2="107.623" class="gray" /></g>
<g><line x1="53.2377" y1="104.737" x2="56.5423" y2="103.17" class="gray" /></g>
<g><line x1="60.1946" y1="103.255" x2="63.0954" y2="104.801" class="gray" /></g>
<g><line x1="66.9119" y1="106.129" x2="70.5281" y2="106.787" class="gray" /></g>
<g><line x1="74.5501" y1="107.529" x2="77.9599" y2="108.167" class="gray" /></g>
<g><line x1="81.9801" y1="108.919" x2="85.3899" y2="109.557" class="gray" /></g>
<g><line x1="89.4106" y1="110.307" x2="92.8194" y2="110.94" class="gray" /></g>
<g><line x1="96.8402" y1="111.689" x2="100.26" y2="112.328" class="gray" /></g>
<g><line x1="103.375" y1="110.983" x2="105.185" y2="108.164" class="gray" /></g>
<g><line x1="107.9" y1="105.182" x2="110.63" y2="103.044" class="gray" /></g>
<g><line x1="111.78" y1="99.7907" x2="111.01" y2="96.4558" class="gray" /></g>
<g><line x1="109.983" y1="92.4985" x2="109.007" y2="89.118" class="gray" /></g>
<g><line x1="107.926" y1="85.1739" x2="107.054" y2="81.8126" class="gray" /></g>
<g><line x1="106.08" y1="77.8407" x2="105.31" y2="74.5058" class="gray" /></g>
<g><line x1="103.178" y1="71.3362" x2="100.342" y2="69.3403" class="gray" /></g>
<g><line x1="98.051" y1="66.2143" x2="96.999" y2="62.9023" class="gray" /></g>
<g><line x1="97.0671" y1="59.0272" x2="98.2329" y2="55.7593" class="gray" /></g>
<g><line x1="100.631" y1="52.7139" x2="103.539" y2="50.8126" class="gray" /></g>
<g><line x1="107.29" y1="49.8354" x2="110.96" y2="50.0911" class="gray" /></g>
<g><line x1="114.536" y1="51.5829" x2="117.144" y2="53.8736" class="gray" /></g>
<g><line x1="119.089" y1="57.2269" x2="119.781" y2="60.6196" class="gray" /></g>
<g><line x1="119.304" y1="64.4662" x2="117.796" y2="67.6004" class="gray" /></g>
<g><line x1="117.371" y1="71.4357" x2="118.139" y2="74.7609" class="gray" /></g>
<g><line x1="119.114" y1="78.7326" x2="119.986" y2="82.0939" class="gray" /></g>
<g><line x1="120.96" y1="86.0658" x2="121.73" y2="89.4007" class="gray" /></g>
<g><line x1="122.757" y1="93.358" x2="123.733" y2="96.7385" class="gray" /></g>
<g><line x1="126.318" y1="99.0313" x2="129.542" y2="99.5552" class="gray" /></g>
<g><line x1="133.396" y1="100.783" x2="136.684" y2="102.394" class="gray" /></g>
<g><line x1="140.115" y1="102.014" x2="142.945" y2="99.743" class="gray" /></g>
<g><line x1="144.088" y1="96.4688" x2="143.302" y2="92.9977" class="gray" /></g>
<g><line x1="144.774" y1="91.6964" x2="148.226" y2="92.9401" class="gray" /></g>
<g><line x1="151.724" y1="92.3273" x2="154.396" y2="90.1092" class="gray" /></g>
<g><line x1="157.543" y1="87.496" x2="160.207" y2="85.2805" class="gray" /></g>
<g><line x1="163.33" y1="82.639" x2="165.84" y2="80.4775" class="gray" /></g>
<g><line x1="168.963" y1="77.836" x2="171.627" y2="75.6205" class="gray" /></g>
<g><line x1="173.611" y1="72.3101" x2="174.319" y2="68.8664" class="gray" /></g>
<g><line x1="176.232" y1="65.4752" x2="178.778" y2="63.1213" class="gray" /></g>
<g><line x1="182.316" y1="61.541" x2="185.974" y2="61.1955" class="gray" /></g>
<g><line x1="189.717" y1="62.1291" x2="192.323" y2="63.8474" class="gray" /></g>
<g><line x1="194.86" y1="66.8423" x2="196.33" y2="70.1542" class="gray" /></g>
<g><line x1="196.593" y1="73.9879" x2="195.627" y2="77.3286" class="gray" /></g>
<g><line x1="193.4" y1="80.4874" x2="190.45" y2="82.6091" class="gray" /></g>
<g><line x1="186.745" y1="83.7816" x2="183.275" y2="83.7449" class="gray" /></g>
<g><line x1="179.657" y1="85.0305" x2="176.993" y2="87.246" class="gray" /></g>
<g><line x1="173.824" y1="89.8317" x2="170.986" y2="92.1048" class="gray" /></g>
<g><line x1="167.817" y1="94.6905" x2="165.153" y2="96.906" class="gray" /></g>
<g><line x1="162.006" y1="99.5192" x2="159.334" y2="101.737" class="gray" /></g>
<g><line x1="156.21" y1="104.378" x2="153.7" y2="106.539" class="gray" /></g>
<g><line x1="150.555" y1="109.153" x2="147.725" y2="111.424" class="gray" /></g>
<g><line x1="146.701" y1="114.667" x2="147.669" y2="118" class="gray" /></g>
<g><line x1="148.181" y1="122.007" x2="148.079" y2="125.479" class="gray" /></g>
<g><line x1="149.881" y1="128.371" x2="153.209" y2="129.886" class="gray" /></g>
<g><line x1="156.911" y1="131.623" x2="159.869" y2="133.053" class="gray" /></g>
<g><line x1="163.56" y1="134.814" x2="166.7" y2="136.292" class="gray" /></g>
<g><line x1="170.401" y1="138.032" x2="173.539" y2="139.504" class="gray" /></g>
<g><line x1="177.368" y1="139.854" x2="180.922" y2="138.922" class="gray" /></g>
<g><line x1="184.795" y1="139.171" x2="188.015" y2="140.475" class="gray" /></g>
<g><line x1="190.952" y1="143.003" x2="192.718" y2="145.984" class="gray" /></g>
<g><line x1="193.472" y1="149.768" x2="192.978" y2="153.229" class="gray" /></g>
<g><line x1="191.338" y1="156.788" x2="189.232" y2="159.179" class="gray" /></g>
<g><line x1="185.859" y1="161.027" x2="182.231" y2="161.59" class="gray" /></g>
<g><line x1="178.409" y1="160.935" x2="175.351" y2="159.291" class="gray" /></g>
<g><line x1="172.698" y1="156.464" x2="171.252" y2="153.312" class="gray" /></g>
<g><line x1="168.549" y1="150.584" x2="165.411" y2="149.112" class="gray" /></g>
<g><line x1="161.71" y1="147.372" x2="158.57" y2="145.894" class="gray" /></g>
<g><line x1="154.879" y1="144.133" x2="151.921" y2="142.703" class="gray" /></g>
<g><line x1="148.219" y1="140.966" x2="144.891" y2="139.451" class="gray" /></g>
<g><line x1="141.519" y1="139.981" x2="139.071" y2="142.215" class="gray" /></g>
<g><line x1="135.677" y1="144.39" x2="132.303" y2="145.817" class="gray" /></g>
<g><line x1="130.363" y1="148.657" x2="130.267" y2="152.129" class="gray" /></g>
<g><line x1="130.267" y1="156.217" x2="130.363" y2="159.689" class="gray" /></g>
<g><line x1="130.42" y1="163.778" x2="130.42" y2="167.248" class="gray" /></g>
<g><line x1="130.42" y1="171.338" x2="130.42" y2="174.808" class="gray" /></g>
<g><line x1="130.42" y1="178.898" x2="130.42" y2="182.368" class="gray" /></g>
<g><line x1="130.42" y1="186.458" x2="130.42" y2="189.928" class="gray" /></g>
<g><line x1="132.465" y1="191.973" x2="135.375" y2="191.973" class="gray" /></g>
</svg>
