<svg
	xmlns="http://www.w3.org/2000/svg"
	width="231.5"
	height="241.833">
<g><style type="text/css" >
<!-- create color definitions -->
<![CDATA[
circle.red {stroke: rgb(255, 0, 255); fill: none; }
circle.green {stroke: rgb(0, 255, 0); fill: none; }
circle.blue {stroke: rgb(0, 0, 255); fill: none; }
circle.black {stroke: rgb(0, 0, 0); fill: none; }
circle.gray {stroke: rgb(204, 204, 204); fill: none; }
circle.brown {stroke: rgb(211.65, 104.55, 30.6); fill: none; }
line.red {stroke: rgb(255, 0, 255); stroke-width: 0.385401; }
line.green {stroke: rgb(0, 255, 0); stroke-width: 0.385401; }
line.blue {stroke: rgb(0, 0, 255); stroke-width: 0.385401; }
line.black {stroke: rgb(0, 0, 0); stroke-width: 0.385401; }
line.gray {stroke: rgb(204, 204, 204); stroke-width: 0.385401; }
line.brown {stroke: rgb(211.65, 104.55, 30.6); stroke-width: 0.385401; }
line {stroke: rgb(0, 0, 0); }
text.red {fill: rgb(255, 0, 255); font-size: 3.083205px; font-weight: bold; font-family: Helvetica; }
text.green {fill: rgb(0, 255, 0); font-size: 3.083205px; font-weight: bold; font-family: Helvetica; }
text.blue {fill: rgb(0, 0, 255); font-size: 3.083205px; font-weight: bold; font-family: Helvetica; }
text.black {fill: rgb(0, 0, 0); font-size: 3.083205px; font-weight: bold; font-family: Helvetica; }
text.gray {fill: rgb(204, 204, 204); font-size: 3.083205px; font-weight: bold; font-family: Helvetica; }
text.brown {fill: rgb(211.65, 104.55, 30.6); font-size: 3.083205px; font-weight: bold; font-family: Helvetica; }
text {fill: rgb(0, 0, 0); font-size: 3.083205px; font-weight: bold; font-family: Helvetica; text-anchor: middle; alignment-baseline: middle; }

.pseudoknot_connection{stroke-linecap: round; stroke-opacity: 0.2; stroke-width: 1.5; }
.pseudoknot_segment1{stroke-linecap: round; stroke-opacity: 0.4; stroke-width: 3.0832; }
.pseudoknot_segment2{stroke-linecap: round; stroke-opacity: 0.4; stroke-width: 3.0832; }
line.numbering-line{stroke: rgb(204, 204, 204); stroke-width: 0.1927; }
line.predicted{stroke: rgb(0, 0, 0); stroke-dasharray: 2; }
polyline{fill: none; stroke-linejoin: round; }
template{visibility: hidden; }
text.numbering-label{fill: rgb(204, 204, 204); }
]]>
</style></g>
<g><title>0 (position.label in template: 0.5')</title><text x="114.9" y="194.142" class="green" >5'</text></g>
<g><title>1 (position.label in template: 1.G)</title><text x="115.11" y="186.59" class="black" >G</text></g>
<g><line x1="117.165" y1="186.282" x2="125.505" y2="186.282" class="black" /></g>
<g><title>2 (position.label in template: 2.C)</title><text x="115.32" y="179.03" class="black" >C</text></g>
<g><line x1="117.375" y1="178.722" x2="125.295" y2="178.722" class="black" /></g>
<g><title>3 (position.label in template: 3.U)</title><text x="115.32" y="171.47" class="green" >T</text></g>
<g><line x1="117.375" y1="171.162" x2="125.505" y2="171.162" class="black" /></g>
<g><title>4 (position.label in template: 4.G)</title><text x="115.11" y="163.91" class="black" >G</text></g>
<g><line x1="117.165" y1="163.602" x2="125.505" y2="163.602" class="black" /></g>
<g><title>5 (position.label in template: 5.G)</title><text x="115.11" y="156.35" class="black" >G</text></g>
<g><line x1="117.165" y1="156.042" x2="125.705" y2="156.042" class="black" /></g>
<g><title>6 (position.label in template: 6.G)</title><text x="115.11" y="148.79" class="green" >G</text></g>
<g><line x1="117.165" y1="148.482" x2="125.505" y2="148.482" class="black" /></g>
<g><title>7 (position.label in template: 7.U)</title><text x="115.32" y="141.23" class="green" >T</text></g>
<g><line x1="117.375" y1="140.922" x2="125.505" y2="140.922" class="black" /></g>
<g><title>8 (position.label in template: 8.U)</title><text x="108.5" y="137.97" class="green" >T</text></g>
<g><title>9 (position.label in template: 9.A)</title><text x="103.36" y="132.62" class="black" >A</text></g>
<g><title>10 (position.label in template: 10.G)</title><text x="99.68" y="125.8" class="black" >G</text></g>
<g><line x1="99.7153" y1="123.437" x2="99.8547" y2="115.307" class="black" /></g>
<g><text x="96.0317" y="131.7" class="numbering-label sequential" >10</text></g>
<g><line x1="98.7071" y1="127.373" x2="96.9849" y2="130.159" class="numbering-line sequential" /></g>
<g><title>11 (position.label in template: 11.C)</title><text x="92.33" y="125.8" class="black" >C</text></g>
<g><line x1="92.3653" y1="123.437" x2="92.5047" y2="115.307" class="black" /></g>
<g><title>12 (position.label in template: 12.U)</title><text x="84.77" y="125.8" class="green" >T</text></g>
<g><line x1="84.8053" y1="123.437" x2="84.9447" y2="115.307" class="black" /></g>
<g><title>13 (position.label in template: 13.C)</title><text x="77.21" y="125.8" class="black" >C</text></g>
<g><line x1="77.1747" y1="123.437" x2="77.0353" y2="115.307" class="black" /></g>
<g><title>14 (position.label in template: 14.A)</title><text x="72.46" y="131.51" class="black" >A</text></g>
<g><title>15 (position.label in template: 15.G)</title><text x="64.86" y="133.86" class="black" >G</text></g>
<g><title>16 (position.label in template: 16.U)</title><text x="57.69" y="132.19" class="green" >T</text></g>
<g><title>17 (position.label in template: 17.U)</title><text x="52.22" y="126.97" class="green" >T</text></g>
<g><title>18 (position.label in template: 18.G)</title><text x="50" y="119.68" class="black" >G</text></g>
<g><title>19 (position.label in template: 19.G)</title><text x="52.01" y="112.4" class="black" >G</text></g>
<g><title>20 (position.label in template: 20.U)</title><text x="57.69" y="107.18" class="green" >T</text></g>
<g><text x="54.453" y="101.044" class="numbering-label sequential" >20</text></g>
<g><line x1="56.8268" y1="105.544" x2="55.2663" y2="102.586" class="numbering-line sequential" /></g>
<g><title>21 (position.label in template: 21.U)</title><text x="65.07" y="105.51" class="green" >T</text></g>
<g><title>22 (position.label in template: 22.A)</title><text x="72.46" y="107.86" class="black" >A</text></g>
<g><title>23 (position.label in template: 23.G)</title><text x="77" y="113.56" class="black" >G</text></g>
<g><title>24 (position.label in template: 24.A)</title><text x="84.98" y="113.56" class="green" >A</text></g>
<g><title>25 (position.label in template: 25.A)</title><text x="92.54" y="113.56" class="black" >A</text></g>
<g><title>26 (position.label in template: 26.C)</title><text x="99.89" y="113.56" class="black" >C</text></g>
<g><title>27 (position.label in template: 27.A)</title><text x="103.36" y="106.75" class="black" >A</text></g>
<g><title>28 (position.label in template: 28.U)</title><text x="108.5" y="101.4" class="green" >T</text></g>
<g><line x1="110.442" y1="100.419" x2="118.308" y2="97.6944" class="black" /></g>
<g><title>29 (position.label in template: 29.G)</title><text x="105.77" y="94.27" class="black" >G</text></g>
<g><line x1="107.712" y1="93.2894" x2="115.588" y2="90.5639" class="black" /></g>
<g><title>30 (position.label in template: 30.G)</title><text x="103.26" y="87.14" class="black" >G</text></g>
<g><line x1="105.202" y1="86.1589" x2="113.068" y2="83.4344" class="black" /></g>
<g><text x="96.6881" y="89.3614" class="numbering-label sequential" >30</text></g>
<g><line x1="101.507" y1="87.7324" x2="98.538" y2="88.7361" class="numbering-line sequential" /></g>
<g><title>31 (position.label in template: 31.U)</title><text x="100.95" y="80.01" class="green" >T</text></g>
<g><line x1="102.892" y1="79.0289" x2="110.758" y2="76.3044" class="black" /></g>
<g><title>32 (position.label in template: 32.G)</title><text x="98.23" y="72.88" class="black" >G</text></g>
<g><line x1="100.172" y1="71.8989" x2="108.038" y2="69.1744" class="black" /></g>
<g><title>33 (position.label in template: 33.C)</title><text x="91.91" y="69.07" class="black" >C</text></g>
<g><title>34 (position.label in template: 34.U)</title><text x="89.02" y="62.08" class="green" >T</text></g>
<g><title>35 (position.label in template: 35.A)</title><text x="91.15" y="54.77" class="black" >A</text></g>
<g><title>36 (position.label in template: 36.A)</title><text x="97.1" y="50.11" class="black" >A</text></g>
<g><title>37 (position.label in template: 37.U)</title><text x="104.46" y="50" class="green" >T</text></g>
<g><title>38 (position.label in template: 38.A)</title><text x="110.75" y="54.49" class="black" >A</text></g>
<g><title>39 (position.label in template: 39.A)</title><text x="112.88" y="61.75" class="black" >A</text></g>
<g><title>40 (position.label in template: 40.C)</title><text x="109.98" y="68.81" class="black" >C</text></g>
<g><title>41 (position.label in template: 41.A)</title><text x="112.7" y="75.94" class="green" >A</text></g>
<g><title>42 (position.label in template: 42.C)</title><text x="115.01" y="83.07" class="black" >C</text></g>
<g><title>43 (position.label in template: 43.C)</title><text x="117.53" y="90.2" class="black" >C</text></g>
<g><title>44 (position.label in template: 44.A)</title><text x="120.25" y="97.33" class="green" >A</text></g>
<g><title>45 (position.label in template: 45.A)</title><text x="127.76" y="98.14" class="black" >A</text></g>
<g><title>46 (position.label in template: 46.G)</title><text x="134.17" y="101.4" class="black" >G</text></g>
<g><title>47 (position.label in template: 47.U)</title><text x="139.72" y="106.75" class="green" >T</text></g>
<g><title>48 (position.label in template: 48.U)</title><text x="142.99" y="113.56" class="green" >T</text></g>
<g><title>49 (position.label in template: 49.C)</title><text x="143.79" y="121.08" class="black" >C</text></g>
<g><title>50 (position.label in template: 50.A)</title><text x="142.26" y="128.44" class="black" >A</text></g>
<g><line x1="140.95" y1="129.716" x2="135.69" y2="136.078" class="black" /></g>
<g><text x="148.822" y="126.189" class="numbering-label sequential" >50</text></g>
<g><line x1="144.01" y1="127.84" x2="146.972" y2="126.824" class="numbering-line sequential" /></g>
<g><title>51 (position.label in template: 51.C)</title><text x="147.94" y="133.18" class="black" >C</text></g>
<g><line x1="146.629" y1="134.455" x2="141.361" y2="140.818" class="black" /></g>
<g><title>52 (position.label in template: 52.A)</title><text x="154.04" y="137.93" class="green" >A</text></g>
<g><line x1="152.729" y1="139.205" x2="147.461" y2="145.568" class="black" /></g>
<g><title>53 (position.label in template: 53.G)</title><text x="159.51" y="142.67" class="black" >G</text></g>
<g><line x1="158.242" y1="143.979" x2="153.308" y2="150.274" class="black" /></g>
<g><title>54 (position.label in template: 54.G)</title><text x="165.39" y="147.41" class="black" >G</text></g>
<g><line x1="164.122" y1="148.719" x2="159.188" y2="155.014" class="black" /></g>
<g><title>55 (position.label in template: 55.U)</title><text x="173.16" y="147.22" class="green" >T</text></g>
<g><title>56 (position.label in template: 56.U)</title><text x="179.29" y="151.65" class="green" >T</text></g>
<g><title>57 (position.label in template: 57.C)</title><text x="181.5" y="158.88" class="black" >C</text></g>
<g><title>58 (position.label in template: 58.A)</title><text x="179.09" y="165.97" class="black" >A</text></g>
<g><title>59 (position.label in template: 59.A)</title><text x="172.72" y="170.04" class="black" >A</text></g>
<g><title>60 (position.label in template: 60.U)</title><text x="164.97" y="169.42" class="green" >T</text></g>
<g><title>61 (position.label in template: 61.C)</title><text x="159.35" y="164.37" class="black" >C</text></g>
<g><title>62 (position.label in template: 62.C)</title><text x="157.92" y="156.94" class="black" >C</text></g>
<g><title>63 (position.label in template: 63.C)</title><text x="152.04" y="152.2" class="black" >C</text></g>
<g><title>64 (position.label in template: 64.U)</title><text x="146.15" y="147.46" class="green" >T</text></g>
<g><title>65 (position.label in template: 65.G)</title><text x="140.05" y="142.71" class="black" >G</text></g>
<g><title>66 (position.label in template: 66.C)</title><text x="134.38" y="137.97" class="black" >C</text></g>
<g><title>67 (position.label in template: 67.U)</title><text x="127.56" y="141.23" class="green" >T</text></g>
<g><title>68 (position.label in template: 68.U)</title><text x="127.56" y="148.79" class="green" >T</text></g>
<g><title>69 (position.label in template: 69.A)</title><text x="127.76" y="156.35" class="black" >A</text></g>
<g><title>70 (position.label in template: 70.C)</title><text x="127.56" y="163.91" class="black" >C</text></g>
<g><title>71 (position.label in template: 71.U)</title><text x="127.56" y="171.47" class="green" >T</text></g>
<g><title>72 (position.label in template: 72.G)</title><text x="127.35" y="179.03" class="black" >G</text></g>
<g><title>73 (position.label in template: 73.C)</title><text x="127.56" y="186.59" class="black" >C</text></g>
<g><title>74 (position.label in template: 74.A)</title><text x="132.999" y="191.833" class="black" >A</text></g>
<g><title>75 (position.label in template: 75.3')</title><text x="127.769" y="197.285" class="green" >3'</text></g>
<g><line x1="114.957" y1="191.779" x2="115.053" y2="188.336" class="gray" /></g>
<g><line x1="115.167" y1="184.227" x2="115.263" y2="180.776" class="gray" /></g>
<g><line x1="115.32" y1="176.666" x2="115.32" y2="173.217" class="gray" /></g>
<g><line x1="115.263" y1="169.107" x2="115.167" y2="165.656" class="gray" /></g>
<g><line x1="115.11" y1="161.546" x2="115.11" y2="158.097" class="gray" /></g>
<g><line x1="115.11" y1="153.986" x2="115.11" y2="150.537" class="gray" /></g>
<g><line x1="115.167" y1="146.427" x2="115.263" y2="142.976" class="gray" /></g>
<g><line x1="113.466" y1="140.035" x2="110.354" y2="138.548" class="gray" /></g>
<g><line x1="107.076" y1="136.179" x2="104.784" y2="133.794" class="gray" /></g>
<g><line x1="102.384" y1="130.503" x2="100.656" y2="127.301" class="gray" /></g>
<g><line x1="97.6245" y1="125.492" x2="94.3855" y2="125.492" class="gray" /></g>
<g><line x1="90.2745" y1="125.492" x2="86.8255" y2="125.492" class="gray" /></g>
<g><line x1="82.7145" y1="125.492" x2="79.2655" y2="125.492" class="gray" /></g>
<g><line x1="75.8955" y1="127.072" x2="73.7745" y2="129.621" class="gray" /></g>
<g><line x1="70.4963" y1="131.809" x2="66.8237" y2="132.944" class="gray" /></g>
<g><line x1="62.8581" y1="133.085" x2="59.6919" y2="132.348" class="gray" /></g>
<g><line x1="56.203" y1="130.463" x2="53.707" y2="128.081" class="gray" /></g>
<g><line x1="51.6212" y1="124.695" x2="50.5988" y2="121.338" class="gray" /></g>
<g><line x1="50.547" y1="117.39" x2="51.463" y2="114.073" class="gray" /></g>
<g><line x1="53.5234" y1="110.701" x2="56.1766" y2="108.263" class="gray" /></g>
<g><line x1="59.6948" y1="106.418" x2="63.0652" y2="105.655" class="gray" /></g>
<g><line x1="67.0288" y1="105.825" x2="70.5012" y2="106.929" class="gray" /></g>
<g><line x1="73.7406" y1="109.159" x2="75.7194" y2="111.644" class="gray" /></g>
<g><line x1="79.0555" y1="113.252" x2="82.9245" y2="113.252" class="gray" /></g>
<g><line x1="87.0355" y1="113.252" x2="90.4845" y2="113.252" class="gray" /></g>
<g><line x1="94.5955" y1="113.252" x2="97.8345" y2="113.252" class="gray" /></g>
<g><line x1="100.823" y1="111.42" x2="102.427" y2="108.273" class="gray" /></g>
<g><line x1="104.784" y1="104.959" x2="107.076" y2="102.574" class="gray" /></g>
<g><line x1="107.765" y1="99.1721" x2="106.505" y2="95.8813" class="gray" /></g>
<g><line x1="105.087" y1="92.0228" x2="103.943" y2="88.7705" class="gray" /></g>
<g><line x1="102.626" y1="84.8763" x2="101.584" y2="81.6571" class="gray" /></g>
<g><line x1="100.217" y1="77.7812" x2="98.9626" y2="74.4921" class="gray" /></g>
<g><line x1="96.4697" y1="71.5105" x2="93.6703" y2="69.8229" class="gray" /></g>
<g><line x1="91.1246" y1="66.8622" x2="89.8054" y2="63.6712" class="gray" /></g>
<g><line x1="89.595" y1="59.7983" x2="90.575" y2="56.4351" class="gray" /></g>
<g><line x1="92.7682" y1="53.1943" x2="95.4818" y2="51.0691" class="gray" /></g>
<g><line x1="99.1552" y1="49.771" x2="102.405" y2="49.7224" class="gray" /></g>
<g><line x1="106.133" y1="50.8859" x2="109.077" y2="52.9875" class="gray" /></g>
<g><line x1="111.329" y1="56.154" x2="112.301" y2="59.4693" class="gray" /></g>
<g><line x1="112.099" y1="63.343" x2="110.761" y2="66.6004" class="gray" /></g>
<g><line x1="110.713" y1="70.4221" x2="111.967" y2="73.7112" class="gray" /></g>
<g><line x1="113.334" y1="77.5871" x2="114.376" y2="80.8063" class="gray" /></g>
<g><line x1="115.695" y1="84.6997" x2="116.845" y2="87.9537" class="gray" /></g>
<g><line x1="118.263" y1="91.8121" x2="119.517" y2="95.1012" class="gray" /></g>
<g><line x1="122.294" y1="97.2421" x2="125.716" y2="97.6113" class="gray" /></g>
<g><line x1="129.592" y1="98.7635" x2="132.338" y2="100.16" class="gray" /></g>
<g><line x1="135.65" y1="102.518" x2="138.24" y2="105.015" class="gray" /></g>
<g><line x1="140.61" y1="108.295" x2="142.1" y2="111.399" class="gray" /></g>
<g><line x1="143.207" y1="115.296" x2="143.573" y2="118.728" class="gray" /></g>
<g><line x1="143.372" y1="122.784" x2="142.678" y2="126.119" class="gray" /></g>
<g><line x1="143.838" y1="129.449" x2="146.362" y2="131.555" class="gray" /></g>
<g><line x1="149.562" y1="134.135" x2="152.418" y2="136.359" class="gray" /></g>
<g><line x1="155.593" y1="138.968" x2="157.957" y2="141.016" class="gray" /></g>
<g><line x1="161.11" y1="143.652" x2="163.79" y2="145.812" class="gray" /></g>
<g><line x1="167.445" y1="147.051" x2="171.105" y2="146.962" class="gray" /></g>
<g><line x1="174.826" y1="148.116" x2="177.624" y2="150.138" class="gray" /></g>
<g><line x1="179.891" y1="153.307" x2="180.899" y2="156.606" class="gray" /></g>
<g><line x1="180.838" y1="160.518" x2="179.752" y2="163.716" class="gray" /></g>
<g><line x1="177.358" y1="166.768" x2="174.452" y2="168.625" class="gray" /></g>
<g><line x1="170.671" y1="169.568" x2="167.019" y2="169.276" class="gray" /></g>
<g><line x1="163.441" y1="167.738" x2="160.879" y2="165.436" class="gray" /></g>
<g><line x1="158.962" y1="162.043" x2="158.308" y2="158.65" class="gray" /></g>
<g><line x1="156.32" y1="155.342" x2="153.64" y2="153.182" class="gray" /></g>
<g><line x1="150.439" y1="150.603" x2="147.751" y2="148.44" class="gray" /></g>
<g><line x1="144.528" y1="145.889" x2="141.672" y2="143.665" class="gray" /></g>
<g><line x1="138.473" y1="141.083" x2="135.957" y2="138.98" class="gray" /></g>
<g><line x1="132.526" y1="138.548" x2="129.414" y2="140.035" class="gray" /></g>
<g><line x1="127.56" y1="142.977" x2="127.56" y2="146.426" class="gray" /></g>
<g><line x1="127.614" y1="150.536" x2="127.706" y2="153.987" class="gray" /></g>
<g><line x1="127.706" y1="158.096" x2="127.614" y2="161.547" class="gray" /></g>
<g><line x1="127.56" y1="165.657" x2="127.56" y2="169.106" class="gray" /></g>
<g><line x1="127.503" y1="173.216" x2="127.407" y2="176.667" class="gray" /></g>
<g><line x1="127.407" y1="180.776" x2="127.503" y2="184.227" class="gray" /></g>
<g><line x1="129.04" y1="187.708" x2="131.52" y2="190.099" class="gray" /></g>
<g><line x1="131.576" y1="193.008" x2="129.192" y2="195.494" class="gray" /></g>
</svg>
