<svg
	xmlns="http://www.w3.org/2000/svg"
	width="282.24"
	height="245.841">
<g><style type="text/css" >
<!-- create color definitions -->
<![CDATA[
circle.red {stroke: rgb(255, 0, 255); fill: none; }
circle.green {stroke: rgb(0, 255, 0); fill: none; }
circle.blue {stroke: rgb(0, 0, 255); fill: none; }
circle.black {stroke: rgb(0, 0, 0); fill: none; }
circle.gray {stroke: rgb(204, 204, 204); fill: none; }
circle.brown {stroke: rgb(211.65, 104.55, 30.6); fill: none; }
line.red {stroke: rgb(255, 0, 255); stroke-width: 0.382843; }
line.green {stroke: rgb(0, 255, 0); stroke-width: 0.382843; }
line.blue {stroke: rgb(0, 0, 255); stroke-width: 0.382843; }
line.black {stroke: rgb(0, 0, 0); stroke-width: 0.382843; }
line.gray {stroke: rgb(204, 204, 204); stroke-width: 0.382843; }
line.brown {stroke: rgb(211.65, 104.55, 30.6); stroke-width: 0.382843; }
line {stroke: rgb(0, 0, 0); }
text.red {fill: rgb(255, 0, 255); font-size: 3.062748px; font-weight: bold; font-family: Helvetica; }
text.green {fill: rgb(0, 255, 0); font-size: 3.062748px; font-weight: bold; font-family: Helvetica; }
text.blue {fill: rgb(0, 0, 255); font-size: 3.062748px; font-weight: bold; font-family: Helvetica; }
text.black {fill: rgb(0, 0, 0); font-size: 3.062748px; font-weight: bold; font-family: Helvetica; }
text.gray {fill: rgb(204, 204, 204); font-size: 3.062748px; font-weight: bold; font-family: Helvetica; }
text.brown {fill: rgb(211.65, 104.55, 30.6); font-size: 3.062748px; font-weight: bold; font-family: Helvetica; }
text {fill: rgb(0, 0, 0); font-size: 3.062748px; font-weight: bold; font-family: Helvetica; text-anchor: middle; alignment-baseline: middle; }

.pseudoknot_connection{stroke-linecap: round; stroke-opacity: 0.2; stroke-width: 1.5; }
.pseudoknot_segment1{stroke-linecap: round; stroke-opacity: 0.4; stroke-width: 3.06275; }
.pseudoknot_segment2{stroke-linecap: round; stroke-opacity: 0.4; stroke-width: 3.06275; }
line.numbering-line{stroke: rgb(204, 204, 204); stroke-width: 0.191422; }
line.predicted{stroke: rgb(0, 0, 0); stroke-dasharray: 2; }
polyline{fill: none; stroke-linejoin: round; }
template{visibility: hidden; }
text.numbering-label{fill: rgb(204, 204, 204); }
]]>
</style></g>
<g><title>0 (position.label in template: 0.5')</title><text x="42.4346" y="195.841" class="green" >5'</text></g>
<g><title>1 (position.label in template: 1.G)</title><text x="50" y="195.841" class="black" >G</text></g>
<g><title>2 (position.label in template: 2.G)</title><text x="57.5654" y="195.841" class="black" >G</text></g>
<g><title>3 (position.label in template: 3.U)</title><text x="65.1307" y="195.841" class="green" >T</text></g>
<g><title>4 (position.label in template: 4.U)</title><text x="72.6961" y="195.841" class="green" >T</text></g>
<g><title>5 (position.label in template: 5.U)</title><text x="80.2615" y="195.841" class="green" >T</text></g>
<g><title>6 (position.label in template: 6.G)</title><text x="85.4976" y="190.38" class="green" >G</text></g>
<g><line x1="87.5394" y1="190.074" x2="95.9057" y2="190.074" class="black" /></g>
<g><title>7 (position.label in template: 7.C)</title><text x="85.7076" y="182.82" class="black" >C</text></g>
<g><line x1="87.7494" y1="182.514" x2="95.6957" y2="182.514" class="black" /></g>
<g><title>8 (position.label in template: 8.A)</title><text x="85.9176" y="175.26" class="green" >A</text></g>
<g><line x1="87.9594" y1="174.954" x2="95.9057" y2="174.954" class="black" /></g>
<g><title>9 (position.label in template: 9.U)</title><text x="85.7076" y="167.7" class="green" >T</text></g>
<g><line x1="87.7494" y1="167.394" x2="96.1157" y2="167.394" class="black" /></g>
<g><title>10 (position.label in template: 10.A)</title><text x="85.9176" y="160.14" class="black" >A</text></g>
<g><line x1="87.9594" y1="159.834" x2="95.6957" y2="159.834" class="black" /></g>
<g><text x="79.9552" y="163.595" class="numbering-label sequential" >10</text></g>
<g><line x1="84.3276" y1="161.061" x2="81.7928" y2="162.53" class="numbering-line sequential" /></g>
<g><title>11 (position.label in template: 11.U)</title><text x="79.1476" y="156.38" class="green" >T</text></g>
<g><title>12 (position.label in template: 12.A)</title><text x="74.7476" y="150.39" class="black" >A</text></g>
<g><title>13 (position.label in template: 13.G)</title><text x="72.3876" y="143.08" class="black" >G</text></g>
<g><title>14 (position.label in template: 14.A)</title><text x="73.8176" y="135.59" class="black" >A</text></g>
<g><title>15 (position.label in template: 15.G)</title><text x="77.2176" y="129.07" class="black" >G</text></g>
<g><line x1="78.9973" y1="127.763" x2="86.2678" y2="123.675" class="black" /></g>
<g><title>16 (position.label in template: 16.A)</title><text x="73.8776" y="122.51" class="green" >A</text></g>
<g><line x1="75.64" y1="121.173" x2="82.5252" y2="117.145" class="black" /></g>
<g><title>17 (position.label in template: 17.G)</title><text x="69.6976" y="115.95" class="black" >G</text></g>
<g><line x1="71.4773" y1="114.643" x2="78.7478" y2="110.555" class="black" /></g>
<g><title>18 (position.label in template: 18.G)</title><text x="65.9376" y="109.39" class="black" >G</text></g>
<g><line x1="67.7173" y1="108.083" x2="74.9878" y2="103.995" class="black" /></g>
<g><title>19 (position.label in template: 19.A)</title><text x="60.8676" y="104.19" class="black" >A</text></g>
<g><title>20 (position.label in template: 20.A)</title><text x="61.7676" y="96.68" class="black" >A</text></g>
<g><text x="56.0212" y="92.8763" class="numbering-label sequential" >20</text></g>
<g><line x1="60.2352" y1="95.6657" x2="57.8589" y2="94.0927" class="numbering-line sequential" /></g>
<g><title>21 (position.label in template: 21.A)</title><text x="68.3276" y="92.92" class="black" >A</text></g>
<g><title>22 (position.label in template: 22.U)</title><text x="75.0476" y="95.94" class="green" >T</text></g>
<g><title>23 (position.label in template: 23.C)</title><text x="76.7676" y="103.3" class="black" >C</text></g>
<g><title>24 (position.label in template: 24.C)</title><text x="80.5276" y="109.86" class="black" >C</text></g>
<g><title>25 (position.label in template: 25.U)</title><text x="84.2876" y="116.42" class="green" >T</text></g>
<g><title>26 (position.label in template: 26.C)</title><text x="88.0476" y="122.98" class="black" >C</text></g>
<g><title>27 (position.label in template: 27.A)</title><text x="95.8176" y="122.98" class="green" >A</text></g>
<g><line x1="97.58" y1="123.705" x2="104.465" y2="127.733" class="black" /></g>
<g><title>28 (position.label in template: 28.G)</title><text x="99.1576" y="116.42" class="black" >G</text></g>
<g><line x1="100.937" y1="117.115" x2="108.208" y2="121.203" class="black" /></g>
<g><title>29 (position.label in template: 29.C)</title><text x="103.128" y="109.86" class="black" >C</text></g>
<g><line x1="104.89" y1="110.585" x2="111.775" y2="114.613" class="black" /></g>
<g><title>30 (position.label in template: 30.A)</title><text x="98.9076" y="103.73" class="black" >A</text></g>
<g><text x="92.0209" y="103.98" class="numbering-label sequential" >30</text></g>
<g><line x1="97.0711" y1="103.797" x2="93.8586" y2="103.913" class="numbering-line sequential" /></g>
<g><title>31 (position.label in template: 31.A)</title><text x="102.668" y="97.17" class="black" >A</text></g>
<g><title>32 (position.label in template: 32.C)</title><text x="109.988" y="97.9" class="black" >C</text></g>
<g><line x1="111.75" y1="98.6248" x2="118.635" y2="102.653" class="black" /></g>
<g><title>33 (position.label in template: 33.C)</title><text x="113.748" y="91.34" class="black" >C</text></g>
<g><line x1="115.51" y1="92.0648" x2="122.395" y2="96.0927" class="black" /></g>
<g><title>34 (position.label in template: 34.U)</title><text x="117.508" y="84.78" class="green" >T</text></g>
<g><line x1="119.287" y1="85.4745" x2="126.558" y2="89.5629" class="black" /></g>
<g><title>35 (position.label in template: 35.A)</title><text x="121.478" y="78.22" class="green" >A</text></g>
<g><line x1="123.24" y1="78.9448" x2="130.125" y2="82.9727" class="black" /></g>
<g><title>36 (position.label in template: 36.G)</title><text x="124.828" y="71.66" class="black" >G</text></g>
<g><line x1="126.607" y1="72.3552" x2="133.868" y2="76.4422" class="black" /></g>
<g><title>37 (position.label in template: 37.A)</title><text x="128.998" y="65.11" class="black" >A</text></g>
<g><line x1="130.77" y1="65.8182" x2="137.846" y2="69.8693" class="black" /></g>
<g><title>38 (position.label in template: 38.A)</title><text x="128.408" y="57.57" class="black" >A</text></g>
<g><title>39 (position.label in template: 39.U)</title><text x="132.748" y="51.53" class="green" >T</text></g>
<g><title>40 (position.label in template: 40.A)</title><text x="140.358" y="50" class="black" >A</text></g>
<g><title>41 (position.label in template: 41.C)</title><text x="146.708" y="53.77" class="black" >C</text></g>
<g><title>42 (position.label in template: 42.C)</title><text x="149.138" y="60.93" class="black" >C</text></g>
<g><title>43 (position.label in template: 43.A)</title><text x="146.418" y="67.9" class="black" >A</text></g>
<g><title>44 (position.label in template: 44.A)</title><text x="139.618" y="71.19" class="black" >A</text></g>
<g><title>45 (position.label in template: 45.C)</title><text x="135.648" y="77.75" class="black" >C</text></g>
<g><title>46 (position.label in template: 46.U)</title><text x="131.888" y="84.31" class="green" >T</text></g>
<g><title>47 (position.label in template: 47.A)</title><text x="135.898" y="90.85" class="black" >A</text></g>
<g><title>48 (position.label in template: 48.A)</title><text x="128.338" y="90.87" class="green" >A</text></g>
<g><title>49 (position.label in template: 49.G)</title><text x="124.158" y="97.43" class="black" >G</text></g>
<g><title>50 (position.label in template: 50.G)</title><text x="120.398" y="103.99" class="black" >G</text></g>
<g><text x="126.99" y="105.998" class="numbering-label sequential" >50</text></g>
<g><line x1="122.155" y1="104.526" x2="125.152" y2="105.439" class="numbering-line sequential" /></g>
<g><title>51 (position.label in template: 51.U)</title><text x="119.868" y="111.51" class="green" >T</text></g>
<g><title>52 (position.label in template: 52.G)</title><text x="113.538" y="115.95" class="black" >G</text></g>
<g><title>53 (position.label in template: 53.C)</title><text x="109.988" y="122.51" class="black" >C</text></g>
<g><title>54 (position.label in template: 54.U)</title><text x="106.228" y="129.07" class="green" >T</text></g>
<g><title>55 (position.label in template: 55.U)</title><text x="110.048" y="135.59" class="green" >T</text></g>
<g><title>56 (position.label in template: 56.U)</title><text x="111.058" y="143.08" class="green" >T</text></g>
<g><title>57 (position.label in template: 57.U)</title><text x="109.118" y="150.39" class="green" >T</text></g>
<g><title>58 (position.label in template: 58.U)</title><text x="104.508" y="156.38" class="green" >T</text></g>
<g><title>59 (position.label in template: 59.G)</title><text x="97.7376" y="160.14" class="black" >G</text></g>
<g><title>60 (position.label in template: 60.A)</title><text x="98.1576" y="167.7" class="green" >A</text></g>
<g><title>61 (position.label in template: 61.U)</title><text x="97.9476" y="175.26" class="green" >T</text></g>
<g><title>62 (position.label in template: 62.G)</title><text x="97.7376" y="182.82" class="black" >G</text></g>
<g><title>63 (position.label in template: 63.U)</title><text x="97.9476" y="190.38" class="green" >T</text></g>
<g><title>64 (position.label in template: 64.G)</title><text x="103.088" y="195.73" class="black" >G</text></g>
<g><title>65 (position.label in template: 65.G)</title><text x="108.428" y="190.38" class="black" >G</text></g>
<g><line x1="110.469" y1="190.074" x2="118.836" y2="190.074" class="black" /></g>
<g><title>66 (position.label in template: 66.U)</title><text x="108.638" y="182.82" class="green" >T</text></g>
<g><line x1="110.679" y1="182.514" x2="119.046" y2="182.514" class="black" /></g>
<g><title>67 (position.label in template: 67.U)</title><text x="108.638" y="175.26" class="green" >T</text></g>
<g><line x1="110.679" y1="174.954" x2="119.046" y2="174.954" class="black" /></g>
<g><title>68 (position.label in template: 68.U)</title><text x="106.468" y="168.02" class="green" >T</text></g>
<g><title>69 (position.label in template: 69.U)</title><text x="110.978" y="161.96" class="green" >T</text></g>
<g><title>70 (position.label in template: 70.A)</title><text x="118.748" y="161.96" class="black" >A</text></g>
<g><title>71 (position.label in template: 71.C)</title><text x="123.048" y="168.02" class="black" >C</text></g>
<g><title>72 (position.label in template: 72.A)</title><text x="121.088" y="175.26" class="green" >A</text></g>
<g><title>73 (position.label in template: 73.A)</title><text x="121.088" y="182.82" class="green" >A</text></g>
<g><title>74 (position.label in template: 74.C)</title><text x="120.878" y="190.38" class="black" >C</text></g>
<g><title>75 (position.label in template: 75.A)</title><text x="126.324" y="195.63" class="black" >A</text></g>
<g><title>76 (position.label in template: 76.A)</title><text x="133.89" y="195.63" class="black" >A</text></g>
<g><title>77 (position.label in template: 77.A)</title><text x="141.455" y="195.63" class="black" >A</text></g>
<g><title>78 (position.label in template: 78.A)</title><text x="149.02" y="195.63" class="black" >A</text></g>
<g><title>79 (position.label in template: 79.A)</title><text x="156.586" y="195.63" class="black" >A</text></g>
<g><title>80 (position.label in template: 80.A)</title><text x="164.151" y="195.63" class="black" >A</text></g>
<g><title>81 (position.label in template: 81.U)</title><text x="171.717" y="195.63" class="green" >T</text></g>
<g><title>82 (position.label in template: 82.G)</title><text x="179.282" y="195.63" class="black" >G</text></g>
<g><title>83 (position.label in template: 83.G)</title><text x="186.847" y="195.63" class="black" >G</text></g>
<g><title>84 (position.label in template: 84.U)</title><text x="194.413" y="195.63" class="green" >T</text></g>
<g><title>85 (position.label in template: 85.A)</title><text x="201.978" y="195.63" class="black" >A</text></g>
<g><title>86 (position.label in template: 86.U)</title><text x="209.543" y="195.63" class="green" >T</text></g>
<g><title>87 (position.label in template: 87.U)</title><text x="217.109" y="195.63" class="green" >T</text></g>
<g><title>88 (position.label in template: 88.U)</title><text x="224.674" y="195.63" class="green" >T</text></g>
<g><title>89 (position.label in template: 89.C)</title><text x="232.24" y="195.63" class="black" >C</text></g>
<g><title>90 (position.label in template: 90.3')</title><text x="239.805" y="195.63" class="green" >3'</text></g>
<g><line x1="44.4765" y1="195.534" x2="47.9582" y2="195.534" class="gray" /></g>
<g><line x1="52.0418" y1="195.534" x2="55.5235" y2="195.534" class="gray" /></g>
<g><line x1="59.6072" y1="195.534" x2="63.0889" y2="195.534" class="gray" /></g>
<g><line x1="67.1726" y1="195.534" x2="70.6543" y2="195.534" class="gray" /></g>
<g><line x1="74.7379" y1="195.534" x2="78.2197" y2="195.534" class="gray" /></g>
<g><line x1="81.6747" y1="194.061" x2="84.0844" y2="191.548" class="gray" /></g>
<g><line x1="85.5543" y1="188.033" x2="85.6509" y2="184.555" class="gray" /></g>
<g><line x1="85.7643" y1="180.473" x2="85.8609" y2="176.995" class="gray" /></g>
<g><line x1="85.8609" y1="172.913" x2="85.7643" y2="169.435" class="gray" /></g>
<g><line x1="85.7643" y1="165.353" x2="85.8609" y2="161.875" class="gray" /></g>
<g><line x1="84.1326" y1="158.842" x2="80.9326" y2="157.065" class="gray" /></g>
<g><line x1="77.9388" y1="154.428" x2="75.9563" y2="151.729" class="gray" /></g>
<g><line x1="74.1203" y1="148.141" x2="73.0149" y2="144.717" class="gray" /></g>
<g><line x1="72.7705" y1="140.768" x2="73.4347" y2="137.289" class="gray" /></g>
<g><line x1="74.7617" y1="133.473" x2="76.2735" y2="130.574" class="gray" /></g>
<g><line x1="76.2911" y1="126.944" x2="74.804" y2="124.023" class="gray" /></g>
<g><line x1="72.7803" y1="120.482" x2="70.7948" y2="117.366" class="gray" /></g>
<g><line x1="68.6822" y1="113.872" x2="66.9529" y2="110.855" class="gray" /></g>
<g><line x1="64.5122" y1="107.622" x2="62.293" y2="105.346" class="gray" /></g>
<g><line x1="61.1105" y1="101.856" x2="61.5246" y2="98.4011" class="gray" /></g>
<g><line x1="63.539" y1="95.3584" x2="66.5561" y2="93.6291" class="gray" /></g>
<g><line x1="70.19" y1="93.4507" x2="73.1852" y2="94.7968" class="gray" /></g>
<g><line x1="75.5122" y1="97.622" x2="76.3029" y2="101.005" class="gray" /></g>
<g><line x1="77.7829" y1="104.765" x2="79.5122" y2="107.782" class="gray" /></g>
<g><line x1="81.5429" y1="111.325" x2="83.2722" y2="114.342" class="gray" /></g>
<g><line x1="85.3029" y1="117.885" x2="87.0322" y2="120.902" class="gray" /></g>
<g><line x1="90.0894" y1="122.674" x2="93.7757" y2="122.674" class="gray" /></g>
<g><line x1="96.744" y1="120.854" x2="98.2311" y2="117.933" class="gray" /></g>
<g><line x1="100.215" y1="114.367" x2="102.07" y2="111.301" class="gray" /></g>
<g><line x1="101.97" y1="107.872" x2="100.065" y2="105.106" class="gray" /></g>
<g><line x1="99.9229" y1="101.652" x2="101.652" y2="98.6352" class="gray" /></g>
<g><line x1="104.699" y1="97.0663" x2="107.956" y2="97.3911" class="gray" /></g>
<g><line x1="111.003" y1="95.8222" x2="112.732" y2="92.8052" class="gray" /></g>
<g><line x1="114.763" y1="89.2622" x2="116.492" y2="86.2452" class="gray" /></g>
<g><line x1="118.565" y1="82.7269" x2="120.42" y2="79.6606" class="gray" /></g>
<g><line x1="122.406" y1="76.0953" x2="123.899" y2="73.1722" class="gray" /></g>
<g><line x1="125.924" y1="69.6313" x2="127.901" y2="66.5261" class="gray" /></g>
<g><line x1="128.838" y1="62.7681" x2="128.567" y2="59.2993" class="gray" /></g>
<g><line x1="129.599" y1="55.6056" x2="131.556" y2="52.8819" class="gray" /></g>
<g><line x1="134.749" y1="50.8213" x2="138.356" y2="50.0962" class="gray" /></g>
<g><line x1="142.113" y1="50.7361" x2="144.952" y2="52.4214" class="gray" /></g>
<g><line x1="147.364" y1="55.3972" x2="148.481" y2="58.6902" class="gray" /></g>
<g><line x1="148.395" y1="62.5259" x2="147.16" y2="65.6916" class="gray" /></g>
<g><line x1="144.58" y1="68.483" x2="141.456" y2="69.9945" class="gray" /></g>
<g><line x1="138.56" y1="72.6306" x2="136.705" y2="75.6969" class="gray" /></g>
<g><line x1="134.632" y1="79.2152" x2="132.903" y2="82.2322" class="gray" /></g>
<g><line x1="132.955" y1="85.7444" x2="134.83" y2="88.803" class="gray" /></g>
<g><line x1="133.856" y1="90.5491" x2="130.379" y2="90.5583" class="gray" /></g>
<g><line x1="127.24" y1="92.2857" x2="125.255" y2="95.4018" class="gray" /></g>
<g><line x1="123.142" y1="98.8952" x2="121.413" y2="101.912" class="gray" /></g>
<g><line x1="120.254" y1="105.721" x2="120.011" y2="109.167" class="gray" /></g>
<g><line x1="118.196" y1="112.376" x2="115.209" y2="114.471" class="gray" /></g>
<g><line x1="112.566" y1="117.439" x2="110.959" y2="120.408" class="gray" /></g>
<g><line x1="108.972" y1="123.975" x2="107.243" y2="126.992" class="gray" /></g>
<g><line x1="107.26" y1="130.525" x2="109.015" y2="133.522" class="gray" /></g>
<g><line x1="110.32" y1="137.307" x2="110.785" y2="140.75" class="gray" /></g>
<g><line x1="110.534" y1="144.747" x2="109.641" y2="148.11" class="gray" /></g>
<g><line x1="107.872" y1="151.702" x2="105.753" y2="154.456" class="gray" /></g>
<g><line x1="102.723" y1="157.065" x2="99.5226" y2="158.842" class="gray" /></g>
<g><line x1="97.8508" y1="161.872" x2="98.0443" y2="165.355" class="gray" /></g>
<g><line x1="98.1009" y1="169.435" x2="98.0043" y2="172.913" class="gray" /></g>
<g><line x1="97.8909" y1="176.995" x2="97.7943" y2="180.473" class="gray" /></g>
<g><line x1="97.7943" y1="184.555" x2="97.8909" y2="188.033" class="gray" /></g>
<g><line x1="99.3622" y1="191.546" x2="101.673" y2="193.951" class="gray" /></g>
<g><line x1="104.53" y1="193.979" x2="106.985" y2="191.519" class="gray" /></g>
<g><line x1="108.484" y1="188.033" x2="108.581" y2="184.555" class="gray" /></g>
<g><line x1="108.638" y1="180.472" x2="108.638" y2="176.996" class="gray" /></g>
<g><line x1="108.051" y1="172.998" x2="107.054" y2="169.67" class="gray" /></g>
<g><line x1="107.687" y1="166.076" x2="109.759" y2="163.292" class="gray" /></g>
<g><line x1="113.019" y1="161.654" x2="116.706" y2="161.654" class="gray" /></g>
<g><line x1="119.929" y1="163.319" x2="121.866" y2="166.049" class="gray" /></g>
<g><line x1="122.514" y1="169.685" x2="121.621" y2="172.983" class="gray" /></g>
<g><line x1="121.088" y1="176.996" x2="121.088" y2="180.472" class="gray" /></g>
<g><line x1="121.031" y1="184.555" x2="120.934" y2="188.033" class="gray" /></g>
<g><line x1="122.348" y1="191.491" x2="124.854" y2="193.907" class="gray" /></g>
<g><line x1="128.366" y1="195.324" x2="131.848" y2="195.324" class="gray" /></g>
<g><line x1="135.932" y1="195.324" x2="139.413" y2="195.324" class="gray" /></g>
<g><line x1="143.497" y1="195.324" x2="146.979" y2="195.324" class="gray" /></g>
<g><line x1="151.062" y1="195.324" x2="154.544" y2="195.324" class="gray" /></g>
<g><line x1="158.628" y1="195.324" x2="162.109" y2="195.324" class="gray" /></g>
<g><line x1="166.193" y1="195.324" x2="169.675" y2="195.324" class="gray" /></g>
<g><line x1="173.758" y1="195.324" x2="177.24" y2="195.324" class="gray" /></g>
<g><line x1="181.324" y1="195.324" x2="184.805" y2="195.324" class="gray" /></g>
<g><line x1="188.889" y1="195.324" x2="192.371" y2="195.324" class="gray" /></g>
<g><line x1="196.455" y1="195.324" x2="199.936" y2="195.324" class="gray" /></g>
<g><line x1="204.02" y1="195.324" x2="207.502" y2="195.324" class="gray" /></g>
<g><line x1="211.585" y1="195.324" x2="215.067" y2="195.324" class="gray" /></g>
<g><line x1="219.151" y1="195.324" x2="222.632" y2="195.324" class="gray" /></g>
<g><line x1="226.716" y1="195.324" x2="230.198" y2="195.324" class="gray" /></g>
<g><line x1="234.281" y1="195.324" x2="237.763" y2="195.324" class="gray" /></g>
</svg>
