<svg
	xmlns="http://www.w3.org/2000/svg"
	width="225.91"
	height="234.962">
<g><style type="text/css" >
<!-- create color definitions -->
<![CDATA[
circle.red {stroke: rgb(255, 0, 255); fill: none; }
circle.green {stroke: rgb(0, 255, 0); fill: none; }
circle.blue {stroke: rgb(0, 0, 255); fill: none; }
circle.black {stroke: rgb(0, 0, 0); fill: none; }
circle.gray {stroke: rgb(204, 204, 204); fill: none; }
circle.brown {stroke: rgb(211.65, 104.55, 30.6); fill: none; }
line.red {stroke: rgb(255, 0, 255); stroke-width: 0.38181; }
line.green {stroke: rgb(0, 255, 0); stroke-width: 0.38181; }
line.blue {stroke: rgb(0, 0, 255); stroke-width: 0.38181; }
line.black {stroke: rgb(0, 0, 0); stroke-width: 0.38181; }
line.gray {stroke: rgb(204, 204, 204); stroke-width: 0.38181; }
line.brown {stroke: rgb(211.65, 104.55, 30.6); stroke-width: 0.38181; }
line {stroke: rgb(0, 0, 0); }
text.red {fill: rgb(255, 0, 255); font-size: 3.054479px; font-weight: bold; font-family: Helvetica; }
text.green {fill: rgb(0, 255, 0); font-size: 3.054479px; font-weight: bold; font-family: Helvetica; }
text.blue {fill: rgb(0, 0, 255); font-size: 3.054479px; font-weight: bold; font-family: Helvetica; }
text.black {fill: rgb(0, 0, 0); font-size: 3.054479px; font-weight: bold; font-family: Helvetica; }
text.gray {fill: rgb(204, 204, 204); font-size: 3.054479px; font-weight: bold; font-family: Helvetica; }
text.brown {fill: rgb(211.65, 104.55, 30.6); font-size: 3.054479px; font-weight: bold; font-family: Helvetica; }
text {fill: rgb(0, 0, 0); font-size: 3.054479px; font-weight: bold; font-family: Helvetica; text-anchor: middle; alignment-baseline: middle; }

.pseudoknot_connection{stroke-linecap: round; stroke-opacity: 0.2; stroke-width: 1.5; }
.pseudoknot_segment1{stroke-linecap: round; stroke-opacity: 0.4; stroke-width: 3.05448; }
.pseudoknot_segment2{stroke-linecap: round; stroke-opacity: 0.4; stroke-width: 3.05448; }
line.numbering-line{stroke: rgb(204, 204, 204); stroke-width: 0.190905; }
line.predicted{stroke: rgb(0, 0, 0); stroke-dasharray: 2; }
polyline{fill: none; stroke-linejoin: round; }
template{visibility: hidden; }
text.numbering-label{fill: rgb(204, 204, 204); }
]]>
</style></g>
<g><title>0 (position.label in template: 0.5')</title><text x="108.59" y="187.071" class="green" >5'</text></g>
<g><title>1 (position.label in template: 1.G)</title><text x="108.59" y="179.51" class="green" >G</text></g>
<g><line x1="110.626" y1="179.205" x2="119.004" y2="179.205" class="black" /></g>
<g><title>2 (position.label in template: 2.G)</title><text x="108.59" y="171.95" class="black" >G</text></g>
<g><line x1="110.626" y1="171.645" x2="119.004" y2="171.645" class="black" /></g>
<g><title>3 (position.label in template: 3.C)</title><text x="108.8" y="164.39" class="black" >C</text></g>
<g><line x1="110.836" y1="164.085" x2="118.794" y2="164.085" class="black" /></g>
<g><title>4 (position.label in template: 4.C)</title><text x="108.8" y="156.83" class="black" >C</text></g>
<g><line x1="110.836" y1="156.525" x2="118.794" y2="156.525" class="black" /></g>
<g><title>5 (position.label in template: 5.C)</title><text x="108.8" y="149.27" class="black" >C</text></g>
<g><line x1="110.836" y1="148.965" x2="118.794" y2="148.965" class="black" /></g>
<g><title>6 (position.label in template: 6.A)</title><text x="109.01" y="141.71" class="green" >A</text></g>
<g><line x1="111.046" y1="141.405" x2="119.004" y2="141.405" class="black" /></g>
<g><title>7 (position.label in template: 7.G)</title><text x="108.59" y="134.15" class="black" >G</text></g>
<g><line x1="110.626" y1="133.845" x2="119.004" y2="133.845" class="black" /></g>
<g><title>8 (position.label in template: 8.U)</title><text x="102.07" y="130.71" class="green" >T</text></g>
<g><title>9 (position.label in template: 9.A)</title><text x="97.17" y="125.14" class="black" >A</text></g>
<g><title>10 (position.label in template: 10.G)</title><text x="93.94" y="118.12" class="black" >G</text></g>
<g><line x1="94.1559" y1="115.79" x2="95.0241" y2="107.649" class="black" /></g>
<g><text x="89.8884" y="123.671" class="numbering-label sequential" >10</text></g>
<g><line x1="92.8596" y1="119.6" x2="91.003" y2="122.144" class="numbering-line sequential" /></g>
<g><title>11 (position.label in template: 11.C)</title><text x="86.62" y="117.44" class="black" >C</text></g>
<g><line x1="86.7666" y1="115.104" x2="87.3534" y2="106.976" class="black" /></g>
<g><title>12 (position.label in template: 12.U)</title><text x="79.09" y="116.77" class="green" >T</text></g>
<g><line x1="79.3059" y1="114.44" x2="80.1741" y2="106.299" class="black" /></g>
<g><title>13 (position.label in template: 13.C)</title><text x="71.56" y="116.09" class="black" >C</text></g>
<g><line x1="71.7066" y1="113.754" x2="72.2934" y2="105.626" class="black" /></g>
<g><title>14 (position.label in template: 14.A)</title><text x="65.58" y="120.44" class="black" >A</text></g>
<g><title>15 (position.label in template: 15.A)</title><text x="58.03" y="120.17" class="black" >A</text></g>
<g><title>16 (position.label in template: 16.U)</title><text x="51.97" y="115.38" class="green" >T</text></g>
<g><title>17 (position.label in template: 17.G)</title><text x="50" y="108.03" class="black" >G</text></g>
<g><title>18 (position.label in template: 18.G)</title><text x="53.04" y="101.11" class="black" >G</text></g>
<g><title>19 (position.label in template: 19.G)</title><text x="59.65" y="97.44" class="black" >G</text></g>
<g><title>20 (position.label in template: 20.A)</title><text x="67.55" y="98.52" class="black" >A</text></g>
<g><text x="70.6484" y="92.3855" class="numbering-label sequential" >20</text></g>
<g><line x1="68.3762" y1="96.8841" x2="69.877" y2="93.9127" class="numbering-line sequential" /></g>
<g><title>21 (position.label in template: 21.G)</title><text x="72.44" y="103.9" class="black" >G</text></g>
<g><title>22 (position.label in template: 22.A)</title><text x="80.39" y="104.58" class="green" >A</text></g>
<g><title>23 (position.label in template: 23.G)</title><text x="87.5" y="105.25" class="black" >G</text></g>
<g><title>24 (position.label in template: 24.C)</title><text x="95.24" y="105.93" class="black" >C</text></g>
<g><title>25 (position.label in template: 25.G)</title><text x="99.06" y="99.53" class="black" >G</text></g>
<g><title>26 (position.label in template: 26.U)</title><text x="105.28" y="94.95" class="green" >T</text></g>
<g><line x1="107.285" y1="94.2878" x2="115.525" y2="92.8213" class="black" /></g>
<g><title>27 (position.label in template: 27.U)</title><text x="97.99" y="92.97" class="green" >T</text></g>
<g><title>28 (position.label in template: 28.C)</title><text x="91.75" y="88.69" class="black" >C</text></g>
<g><title>29 (position.label in template: 29.C)</title><text x="87.29" y="82.59" class="black" >C</text></g>
<g><title>30 (position.label in template: 30.A)</title><text x="85.3" y="75.36" class="black" >A</text></g>
<g><text x="78.4708" y="76.1311" class="numbering-label sequential" >30</text></g>
<g><line x1="83.4789" y1="75.5656" x2="80.3035" y2="75.9242" class="numbering-line sequential" /></g>
<g><title>31 (position.label in template: 31.A)</title><text x="85.62" y="67.8" class="black" >A</text></g>
<g><title>32 (position.label in template: 32.G)</title><text x="88.01" y="60.78" class="black" >G</text></g>
<g><title>33 (position.label in template: 33.C)</title><text x="93.19" y="55.09" class="black" >C</text></g>
<g><title>34 (position.label in template: 34.U)</title><text x="99.76" y="51.35" class="green" >T</text></g>
<g><title>35 (position.label in template: 35.A)</title><text x="107.41" y="50" class="black" >A</text></g>
<g><title>36 (position.label in template: 36.U)</title><text x="114.67" y="51.2" class="green" >T</text></g>
<g><title>37 (position.label in template: 37.G)</title><text x="121.11" y="54.79" class="black" >G</text></g>
<g><title>38 (position.label in template: 38.G)</title><text x="126.2" y="60.38" class="black" >G</text></g>
<g><title>39 (position.label in template: 39.A)</title><text x="129.57" y="67.34" class="black" >A</text></g>
<g><title>40 (position.label in template: 40.U)</title><text x="129.84" y="74.88" class="green" >T</text></g>
<g><title>41 (position.label in template: 41.C)</title><text x="127.8" y="82.16" class="black" >C</text></g>
<g><title>42 (position.label in template: 42.U)</title><text x="123.47" y="88.36" class="green" >T</text></g>
<g><title>43 (position.label in template: 43.A)</title><text x="117.53" y="92.77" class="green" >A</text></g>
<g><title>44 (position.label in template: 44.U)</title><text x="124.56" y="94.95" class="green" >T</text></g>
<g><title>45 (position.label in template: 45.G)</title><text x="130.37" y="99.53" class="black" >G</text></g>
<g><title>46 (position.label in template: 46.C)</title><text x="134.6" y="105.93" class="black" >C</text></g>
<g><title>47 (position.label in template: 47.U)</title><text x="136.13" y="113.33" class="green" >T</text></g>
<g><title>48 (position.label in template: 48.G)</title><text x="134.75" y="120.8" class="black" >G</text></g>
<g><line x1="133.579" y1="122.16" x2="128.951" y2="128.739" class="black" /></g>
<g><title>49 (position.label in template: 49.C)</title><text x="141.08" y="125.24" class="black" >C</text></g>
<g><line x1="139.863" y1="126.567" x2="134.907" y2="133.212" class="black" /></g>
<g><title>50 (position.label in template: 50.G)</title><text x="146.99" y="129.68" class="green" >G</text></g>
<g><line x1="145.819" y1="131.04" x2="141.191" y2="137.619" class="black" /></g>
<g><text x="151.069" y="124.148" class="numbering-label sequential" >50</text></g>
<g><line x1="148.078" y1="128.205" x2="149.942" y2="125.676" class="numbering-line sequential" /></g>
<g><title>51 (position.label in template: 51.G)</title><text x="153.11" y="134.11" class="black" >G</text></g>
<g><line x1="151.939" y1="135.47" x2="147.311" y2="142.049" class="black" /></g>
<g><title>52 (position.label in template: 52.G)</title><text x="159.24" y="138.55" class="black" >G</text></g>
<g><line x1="158.067" y1="139.909" x2="153.433" y2="146.49" class="black" /></g>
<g><title>53 (position.label in template: 53.U)</title><text x="166.98" y="137.97" class="green" >T</text></g>
<g><title>54 (position.label in template: 54.U)</title><text x="173.33" y="142.08" class="green" >T</text></g>
<g><title>55 (position.label in template: 55.C)</title><text x="175.91" y="149.19" class="black" >C</text></g>
<g><title>56 (position.label in template: 56.A)</title><text x="173.86" y="156.4" class="black" >A</text></g>
<g><title>57 (position.label in template: 57.A)</title><text x="167.7" y="160.79" class="black" >A</text></g>
<g><title>58 (position.label in template: 58.G)</title><text x="159.73" y="160.56" class="black" >G</text></g>
<g><title>59 (position.label in template: 59.U)</title><text x="154.07" y="155.8" class="green" >T</text></g>
<g><title>60 (position.label in template: 60.C)</title><text x="152.26" y="148.46" class="black" >C</text></g>
<g><title>61 (position.label in template: 61.C)</title><text x="146.14" y="144.02" class="black" >C</text></g>
<g><title>62 (position.label in template: 62.U)</title><text x="140.02" y="139.59" class="green" >T</text></g>
<g><title>63 (position.label in template: 63.G)</title><text x="133.69" y="135.15" class="black" >G</text></g>
<g><title>64 (position.label in template: 64.C)</title><text x="127.78" y="130.71" class="black" >C</text></g>
<g><title>65 (position.label in template: 65.C)</title><text x="121.04" y="134.15" class="black" >C</text></g>
<g><title>66 (position.label in template: 66.U)</title><text x="121.04" y="141.71" class="green" >T</text></g>
<g><title>67 (position.label in template: 67.G)</title><text x="120.83" y="149.27" class="black" >G</text></g>
<g><title>68 (position.label in template: 68.G)</title><text x="120.83" y="156.83" class="black" >G</text></g>
<g><title>69 (position.label in template: 69.G)</title><text x="120.83" y="164.39" class="black" >G</text></g>
<g><title>70 (position.label in template: 70.C)</title><text x="121.04" y="171.95" class="black" >C</text></g>
<g><title>71 (position.label in template: 71.U)</title><text x="121.04" y="179.51" class="green" >T</text></g>
<g><title>72 (position.label in template: 72.G)</title><text x="126.278" y="184.962" class="black" >G</text></g>
<g><title>73 (position.label in template: 73.3')</title><text x="121.062" y="190.435" class="green" >3'</text></g>
<g><line x1="108.59" y1="184.729" x2="108.59" y2="181.241" class="gray" /></g>
<g><line x1="108.59" y1="177.168" x2="108.59" y2="173.681" class="gray" /></g>
<g><line x1="108.647" y1="169.609" x2="108.743" y2="166.12" class="gray" /></g>
<g><line x1="108.8" y1="162.048" x2="108.8" y2="158.561" class="gray" /></g>
<g><line x1="108.8" y1="154.488" x2="108.8" y2="151.001" class="gray" /></g>
<g><line x1="108.857" y1="146.929" x2="108.953" y2="143.44" class="gray" /></g>
<g><line x1="108.897" y1="139.371" x2="108.703" y2="135.878" class="gray" /></g>
<g><line x1="106.789" y1="132.894" x2="103.871" y2="131.355" class="gray" /></g>
<g><line x1="100.725" y1="128.876" x2="98.515" y2="126.363" class="gray" /></g>
<g><line x1="96.3188" y1="122.985" x2="94.7912" y2="119.664" class="gray" /></g>
<g><line x1="91.9124" y1="117.626" x2="88.6476" y2="117.323" class="gray" /></g>
<g><line x1="84.5917" y1="116.954" x2="81.1183" y2="116.645" class="gray" /></g>
<g><line x1="77.0619" y1="116.281" x2="73.5881" y2="115.968" class="gray" /></g>
<g><line x1="69.9133" y1="116.982" x2="67.2267" y2="118.937" class="gray" /></g>
<g><line x1="63.545" y1="120.062" x2="60.065" y2="119.937" class="gray" /></g>
<g><line x1="56.4325" y1="118.602" x2="53.5675" y2="116.337" class="gray" /></g>
<g><line x1="51.4428" y1="113.108" x2="50.5272" y2="109.691" class="gray" /></g>
<g><line x1="50.819" y1="105.86" x2="52.221" y2="102.669" class="gray" /></g>
<g><line x1="54.8203" y1="99.8161" x2="57.8697" y2="98.123" class="gray" /></g>
<g><line x1="61.6676" y1="97.4104" x2="65.5324" y2="97.9387" class="gray" /></g>
<g><line x1="68.9196" y1="99.7214" x2="71.0704" y2="102.088" class="gray" /></g>
<g><line x1="74.4689" y1="103.768" x2="78.3611" y2="104.101" class="gray" /></g>
<g><line x1="82.4173" y1="104.466" x2="85.4727" y2="104.754" class="gray" /></g>
<g><line x1="89.5285" y1="105.123" x2="93.2115" y2="105.446" class="gray" /></g>
<g><line x1="96.2837" y1="103.876" x2="98.0163" y2="100.973" class="gray" /></g>
<g><line x1="100.7" y1="98.0171" x2="103.64" y2="95.852" class="gray" /></g>
<g><line x1="103.315" y1="94.1108" x2="99.9551" y2="93.1983" class="gray" /></g>
<g><line x1="96.3107" y1="91.5127" x2="93.4293" y2="89.5364" class="gray" /></g>
<g><line x1="90.5481" y1="86.7407" x2="88.4919" y2="83.9284" class="gray" /></g>
<g><line x1="86.7496" y1="80.3212" x2="85.8404" y2="77.0179" class="gray" /></g>
<g><line x1="85.3861" y1="73.0201" x2="85.5339" y2="69.529" class="gray" /></g>
<g><line x1="86.2763" y1="65.5669" x2="87.3537" y2="62.4022" class="gray" /></g>
<g><line x1="89.3808" y1="58.9688" x2="91.8192" y2="56.2903" class="gray" /></g>
<g><line x1="94.9597" y1="53.7772" x2="97.9903" y2="52.0519" class="gray" /></g>
<g><line x1="101.765" y1="50.6907" x2="105.405" y2="50.0484" class="gray" /></g>
<g><line x1="109.419" y1="50.0266" x2="112.661" y2="50.5625" class="gray" /></g>
<g><line x1="116.449" y1="51.8861" x2="119.331" y2="53.493" class="gray" /></g>
<g><line x1="122.481" y1="55.9902" x2="124.829" y2="58.5689" class="gray" /></g>
<g><line x1="127.087" y1="61.9073" x2="128.683" y2="65.2018" class="gray" /></g>
<g><line x1="129.643" y1="69.0696" x2="129.767" y2="72.5395" class="gray" /></g>
<g><line x1="129.291" y1="76.5353" x2="128.349" y2="79.8938" class="gray" /></g>
<g><line x1="126.634" y1="83.524" x2="124.636" y2="86.3851" class="gray" /></g>
<g><line x1="121.835" y1="89.2684" x2="119.165" y2="91.2507" class="gray" /></g>
<g><line x1="119.475" y1="93.0677" x2="122.615" y2="94.0414" class="gray" /></g>
<g><line x1="126.159" y1="95.9052" x2="128.771" y2="97.9639" class="gray" /></g>
<g><line x1="131.493" y1="100.923" x2="133.477" y2="103.926" class="gray" /></g>
<g><line x1="135.012" y1="107.619" x2="135.718" y2="111.03" class="gray" /></g>
<g><line x1="135.76" y1="115.027" x2="135.12" y2="118.492" class="gray" /></g>
<g><line x1="136.417" y1="121.664" x2="139.413" y2="123.765" class="gray" /></g>
<g><line x1="142.708" y1="126.158" x2="145.362" y2="128.151" class="gray" /></g>
<g><line x1="148.64" y1="130.569" x2="151.46" y2="132.611" class="gray" /></g>
<g><line x1="154.759" y1="134.999" x2="157.591" y2="137.05" class="gray" /></g>
<g><line x1="161.271" y1="138.092" x2="164.949" y2="137.817" class="gray" /></g>
<g><line x1="168.689" y1="138.771" x2="171.621" y2="140.668" class="gray" /></g>
<g><line x1="174.025" y1="143.689" x2="175.215" y2="146.97" class="gray" /></g>
<g><line x1="175.353" y1="150.843" x2="174.417" y2="154.136" class="gray" /></g>
<g><line x1="172.202" y1="157.276" x2="169.358" y2="159.303" class="gray" /></g>
<g><line x1="165.665" y1="160.426" x2="161.765" y2="160.313" class="gray" /></g>
<g><line x1="158.172" y1="158.944" x2="155.628" y2="156.805" class="gray" /></g>
<g><line x1="153.582" y1="153.517" x2="152.748" y2="150.132" class="gray" /></g>
<g><line x1="150.612" y1="146.959" x2="147.788" y2="144.91" class="gray" /></g>
<g><line x1="144.49" y1="142.521" x2="141.67" y2="140.479" class="gray" /></g>
<g><line x1="138.353" y1="138.115" x2="135.357" y2="136.014" class="gray" /></g>
<g><line x1="132.062" y1="133.621" x2="129.408" y2="131.628" class="gray" /></g>
<g><line x1="125.966" y1="131.33" x2="122.854" y2="132.919" class="gray" /></g>
<g><line x1="121.04" y1="135.881" x2="121.04" y2="139.368" class="gray" /></g>
<g><line x1="120.983" y1="143.44" x2="120.887" y2="146.929" class="gray" /></g>
<g><line x1="120.83" y1="151.001" x2="120.83" y2="154.488" class="gray" /></g>
<g><line x1="120.83" y1="158.561" x2="120.83" y2="162.048" class="gray" /></g>
<g><line x1="120.887" y1="166.12" x2="120.983" y2="169.609" class="gray" /></g>
<g><line x1="121.04" y1="173.681" x2="121.04" y2="177.168" class="gray" /></g>
<g><line x1="122.451" y1="180.673" x2="124.867" y2="183.188" class="gray" /></g>
<g><line x1="124.873" y1="186.131" x2="122.467" y2="188.656" class="gray" /></g>
</svg>
