<svg
	xmlns="http://www.w3.org/2000/svg"
	width="225.45"
	height="240.503">
<g><style type="text/css" >
<!-- create color definitions -->
<![CDATA[
circle.red {stroke: rgb(255, 0, 255); fill: none; }
circle.green {stroke: rgb(0, 255, 0); fill: none; }
circle.blue {stroke: rgb(0, 0, 255); fill: none; }
circle.black {stroke: rgb(0, 0, 0); fill: none; }
circle.gray {stroke: rgb(204, 204, 204); fill: none; }
circle.brown {stroke: rgb(211.65, 104.55, 30.6); fill: none; }
line.red {stroke: rgb(255, 0, 255); stroke-width: 0.383106; }
line.green {stroke: rgb(0, 255, 0); stroke-width: 0.383106; }
line.blue {stroke: rgb(0, 0, 255); stroke-width: 0.383106; }
line.black {stroke: rgb(0, 0, 0); stroke-width: 0.383106; }
line.gray {stroke: rgb(204, 204, 204); stroke-width: 0.383106; }
line.brown {stroke: rgb(211.65, 104.55, 30.6); stroke-width: 0.383106; }
line {stroke: rgb(0, 0, 0); }
text.red {fill: rgb(255, 0, 255); font-size: 3.064852px; font-weight: bold; font-family: Helvetica; }
text.green {fill: rgb(0, 255, 0); font-size: 3.064852px; font-weight: bold; font-family: Helvetica; }
text.blue {fill: rgb(0, 0, 255); font-size: 3.064852px; font-weight: bold; font-family: Helvetica; }
text.black {fill: rgb(0, 0, 0); font-size: 3.064852px; font-weight: bold; font-family: Helvetica; }
text.gray {fill: rgb(204, 204, 204); font-size: 3.064852px; font-weight: bold; font-family: Helvetica; }
text.brown {fill: rgb(211.65, 104.55, 30.6); font-size: 3.064852px; font-weight: bold; font-family: Helvetica; }
text {fill: rgb(0, 0, 0); font-size: 3.064852px; font-weight: bold; font-family: Helvetica; text-anchor: middle; alignment-baseline: middle; }

.pseudoknot_connection{stroke-linecap: round; stroke-opacity: 0.2; stroke-width: 1.5; }
.pseudoknot_segment1{stroke-linecap: round; stroke-opacity: 0.4; stroke-width: 3.06485; }
.pseudoknot_segment2{stroke-linecap: round; stroke-opacity: 0.4; stroke-width: 3.06485; }
line.numbering-line{stroke: rgb(204, 204, 204); stroke-width: 0.191553; }
line.predicted{stroke: rgb(0, 0, 0); stroke-dasharray: 2; }
polyline{fill: none; stroke-linejoin: round; }
template{visibility: hidden; }
text.numbering-label{fill: rgb(204, 204, 204); }
]]>
</style></g>
<g><title>0 (position.label in template: 0.5')</title><text x="110.09" y="192.821" class="green" >5'</text></g>
<g><title>1 (position.label in template: 1.G)</title><text x="110.09" y="185.26" class="black" >G</text></g>
<g><line x1="112.133" y1="184.954" x2="120.497" y2="184.954" class="black" /></g>
<g><title>2 (position.label in template: 2.G)</title><text x="110.09" y="177.7" class="black" >G</text></g>
<g><line x1="112.133" y1="177.394" x2="120.497" y2="177.394" class="black" /></g>
<g><title>3 (position.label in template: 3.A)</title><text x="110.51" y="170.14" class="green" >A</text></g>
<g><line x1="112.553" y1="169.834" x2="120.497" y2="169.834" class="black" /></g>
<g><title>4 (position.label in template: 4.G)</title><text x="110.09" y="162.58" class="black" >G</text></g>
<g><line x1="112.133" y1="162.274" x2="120.497" y2="162.274" class="black" /></g>
<g><title>5 (position.label in template: 5.G)</title><text x="110.09" y="155.02" class="black" >G</text></g>
<g><line x1="112.133" y1="154.714" x2="120.497" y2="154.714" class="black" /></g>
<g><title>6 (position.label in template: 6.U)</title><text x="107.2" y="148.13" class="green" >T</text></g>
<g><title>7 (position.label in template: 7.A)</title><text x="110.51" y="141.23" class="green" >A</text></g>
<g><line x1="112.553" y1="140.924" x2="120.497" y2="140.924" class="black" /></g>
<g><title>8 (position.label in template: 8.U)</title><text x="103.48" y="137.97" class="green" >T</text></g>
<g><title>9 (position.label in template: 9.A)</title><text x="98.34" y="132.62" class="black" >A</text></g>
<g><title>10 (position.label in template: 10.G)</title><text x="94.66" y="125.8" class="green" >G</text></g>
<g><line x1="94.6951" y1="123.451" x2="94.8349" y2="115.296" class="black" /></g>
<g><text x="91.0334" y="131.665" class="numbering-label sequential" >10</text></g>
<g><line x1="93.6929" y1="127.364" x2="91.9809" y2="130.133" class="numbering-line sequential" /></g>
<g><title>11 (position.label in template: 11.C)</title><text x="87.31" y="125.8" class="black" >C</text></g>
<g><line x1="87.2749" y1="123.451" x2="87.1351" y2="115.296" class="black" /></g>
<g><title>12 (position.label in template: 12.U)</title><text x="79.75" y="125.8" class="green" >T</text></g>
<g><line x1="79.7851" y1="123.451" x2="79.9249" y2="115.296" class="black" /></g>
<g><title>13 (position.label in template: 13.C)</title><text x="72.19" y="125.8" class="black" >C</text></g>
<g><line x1="72.1549" y1="123.451" x2="72.0151" y2="115.296" class="black" /></g>
<g><title>14 (position.label in template: 14.A)</title><text x="66.63" y="130.69" class="black" >A</text></g>
<g><title>15 (position.label in template: 15.G)</title><text x="58.67" y="131.1" class="black" >G</text></g>
<g><title>16 (position.label in template: 16.U)</title><text x="52.62" y="126.85" class="green" >T</text></g>
<g><title>17 (position.label in template: 17.G)</title><text x="50" y="119.68" class="black" >G</text></g>
<g><title>18 (position.label in template: 18.G)</title><text x="52.41" y="112.52" class="black" >G</text></g>
<g><title>19 (position.label in template: 19.U)</title><text x="58.88" y="108.27" class="green" >T</text></g>
<g><title>20 (position.label in template: 20.A)</title><text x="66.63" y="108.68" class="black" >A</text></g>
<g><text x="69.2121" y="102.286" class="numbering-label sequential" >20</text></g>
<g><line x1="67.3186" y1="106.975" x2="68.5933" y2="103.818" class="numbering-line sequential" /></g>
<g><title>21 (position.label in template: 21.G)</title><text x="71.98" y="113.56" class="black" >G</text></g>
<g><title>22 (position.label in template: 22.A)</title><text x="79.96" y="113.56" class="green" >A</text></g>
<g><title>23 (position.label in template: 23.G)</title><text x="87.1" y="113.56" class="black" >G</text></g>
<g><title>24 (position.label in template: 24.U)</title><text x="94.87" y="113.56" class="green" >T</text></g>
<g><title>25 (position.label in template: 25.G)</title><text x="97.93" y="106.75" class="black" >G</text></g>
<g><title>26 (position.label in template: 26.U)</title><text x="103.48" y="101.4" class="green" >T</text></g>
<g><line x1="105.403" y1="100.403" x2="112.897" y2="97.7137" class="black" /></g>
<g><title>27 (position.label in template: 27.G)</title><text x="100.76" y="94.27" class="black" >G</text></g>
<g><line x1="102.691" y1="93.2948" x2="110.579" y2="90.5623" class="black" /></g>
<g><title>28 (position.label in template: 28.U)</title><text x="98.45" y="87.14" class="green" >T</text></g>
<g><line x1="100.381" y1="86.1648" x2="108.269" y2="83.4323" class="black" /></g>
<g><title>29 (position.label in template: 29.G)</title><text x="95.73" y="80.01" class="green" >G</text></g>
<g><line x1="97.6607" y1="79.0348" x2="105.549" y2="76.3023" class="black" /></g>
<g><title>30 (position.label in template: 30.C)</title><text x="93.42" y="72.88" class="black" >C</text></g>
<g><line x1="95.3431" y1="71.8833" x2="102.837" y2="69.1937" class="black" /></g>
<g><text x="88.0059" y="77.1509" class="numbering-label sequential" >30</text></g>
<g><line x1="91.9762" y1="74.0189" x2="89.9485" y2="75.6185" class="numbering-line sequential" /></g>
<g><title>31 (position.label in template: 31.A)</title><text x="87.1" y="69.07" class="black" >A</text></g>
<g><title>32 (position.label in template: 32.U)</title><text x="84.01" y="62.08" class="green" >T</text></g>
<g><title>33 (position.label in template: 33.A)</title><text x="86.13" y="54.77" class="black" >A</text></g>
<g><title>34 (position.label in template: 34.G)</title><text x="91.67" y="50.11" class="black" >G</text></g>
<g><title>35 (position.label in template: 35.C)</title><text x="99.44" y="50" class="black" >C</text></g>
<g><title>36 (position.label in template: 36.A)</title><text x="105.73" y="54.49" class="black" >A</text></g>
<g><title>37 (position.label in template: 37.C)</title><text x="107.66" y="61.75" class="black" >C</text></g>
<g><title>38 (position.label in template: 38.G)</title><text x="104.76" y="68.81" class="black" >G</text></g>
<g><title>39 (position.label in template: 39.U)</title><text x="107.48" y="75.94" class="green" >T</text></g>
<g><title>40 (position.label in template: 40.A)</title><text x="110.2" y="83.07" class="green" >A</text></g>
<g><title>41 (position.label in template: 41.C)</title><text x="112.51" y="90.2" class="black" >C</text></g>
<g><title>42 (position.label in template: 42.G)</title><text x="114.82" y="97.33" class="green" >G</text></g>
<g><title>43 (position.label in template: 43.A)</title><text x="122.75" y="98.14" class="black" >A</text></g>
<g><title>44 (position.label in template: 44.G)</title><text x="129.15" y="101.4" class="black" >G</text></g>
<g><title>45 (position.label in template: 45.G)</title><text x="134.5" y="106.75" class="black" >G</text></g>
<g><title>46 (position.label in template: 46.C)</title><text x="137.97" y="113.56" class="black" >C</text></g>
<g><title>47 (position.label in template: 47.C)</title><text x="138.78" y="121.08" class="black" >C</text></g>
<g><title>48 (position.label in template: 48.C)</title><text x="137.04" y="128.44" class="black" >C</text></g>
<g><line x1="135.737" y1="129.707" x2="130.453" y2="136.09" class="black" /></g>
<g><title>49 (position.label in template: 49.U)</title><text x="144.36" y="130.35" class="green" >T</text></g>
<g><title>50 (position.label in template: 50.G)</title><text x="147.57" y="137.09" class="black" >G</text></g>
<g><line x1="146.31" y1="138.392" x2="141.36" y2="144.705" class="black" /></g>
<g><text x="152.974" y="132.806" class="numbering-label sequential" >50</text></g>
<g><line x1="149.011" y1="135.948" x2="151.041" y2="134.339" class="numbering-line sequential" /></g>
<g><title>51 (position.label in template: 51.G)</title><text x="153.46" y="141.83" class="black" >G</text></g>
<g><line x1="152.2" y1="143.132" x2="147.25" y2="149.455" class="black" /></g>
<g><title>52 (position.label in template: 52.G)</title><text x="159.34" y="146.58" class="black" >G</text></g>
<g><line x1="158.081" y1="147.882" x2="153.139" y2="154.195" class="black" /></g>
<g><title>53 (position.label in template: 53.U)</title><text x="167.11" y="146.39" class="green" >T</text></g>
<g><title>54 (position.label in template: 54.U)</title><text x="173.24" y="150.81" class="green" >T</text></g>
<g><title>55 (position.label in template: 55.C)</title><text x="175.45" y="158.04" class="black" >C</text></g>
<g><title>56 (position.label in template: 56.A)</title><text x="173.04" y="165.14" class="black" >A</text></g>
<g><title>57 (position.label in template: 57.A)</title><text x="166.67" y="169.2" class="black" >A</text></g>
<g><title>58 (position.label in template: 58.U)</title><text x="158.93" y="168.58" class="green" >T</text></g>
<g><title>59 (position.label in template: 59.C)</title><text x="153.3" y="163.53" class="black" >C</text></g>
<g><title>60 (position.label in template: 60.C)</title><text x="151.88" y="156.11" class="black" >C</text></g>
<g><title>61 (position.label in template: 61.C)</title><text x="145.99" y="151.37" class="black" >C</text></g>
<g><title>62 (position.label in template: 62.C)</title><text x="140.1" y="146.62" class="black" >C</text></g>
<g><title>63 (position.label in template: 63.U)</title><text x="132.79" y="144.71" class="green" >T</text></g>
<g><title>64 (position.label in template: 64.G)</title><text x="129.15" y="137.97" class="black" >G</text></g>
<g><title>65 (position.label in template: 65.U)</title><text x="122.54" y="141.23" class="green" >T</text></g>
<g><title>66 (position.label in template: 66.C)</title><text x="125.64" y="148.13" class="black" >C</text></g>
<g><title>67 (position.label in template: 67.C)</title><text x="122.54" y="155.02" class="black" >C</text></g>
<g><title>68 (position.label in template: 68.C)</title><text x="122.54" y="162.58" class="black" >C</text></g>
<g><title>69 (position.label in template: 69.U)</title><text x="122.54" y="170.14" class="green" >T</text></g>
<g><title>70 (position.label in template: 70.C)</title><text x="122.54" y="177.7" class="black" >C</text></g>
<g><title>71 (position.label in template: 71.C)</title><text x="122.54" y="185.26" class="black" >C</text></g>
<g><title>72 (position.label in template: 72.A)</title><text x="127.989" y="190.503" class="black" >A</text></g>
<g><title>73 (position.label in template: 73.3')</title><text x="128.407" y="198.052" class="green" >3'</text></g>
<g><line x1="110.09" y1="190.472" x2="110.09" y2="186.997" class="gray" /></g>
<g><line x1="110.09" y1="182.91" x2="110.09" y2="179.437" class="gray" /></g>
<g><line x1="110.203" y1="175.353" x2="110.397" y2="171.874" class="gray" /></g>
<g><line x1="110.397" y1="167.793" x2="110.203" y2="164.314" class="gray" /></g>
<g><line x1="110.09" y1="160.23" x2="110.09" y2="156.757" class="gray" /></g>
<g><line x1="109.3" y1="152.829" x2="107.99" y2="149.708" class="gray" /></g>
<g><line x1="108.084" y1="145.981" x2="109.626" y2="142.766" class="gray" /></g>
<g><line x1="108.656" y1="140.064" x2="105.334" y2="138.523" class="gray" /></g>
<g><line x1="102.064" y1="136.19" x2="99.7556" y2="133.787" class="gray" /></g>
<g><line x1="97.3697" y1="130.515" x2="95.6303" y2="127.292" class="gray" /></g>
<g><line x1="92.6168" y1="125.494" x2="89.3532" y2="125.494" class="gray" /></g>
<g><line x1="85.2668" y1="125.494" x2="81.7932" y2="125.494" class="gray" /></g>
<g><line x1="77.7068" y1="125.494" x2="74.2332" y2="125.494" class="gray" /></g>
<g><line x1="70.6557" y1="126.843" x2="68.1643" y2="129.034" class="gray" /></g>
<g><line x1="64.5895" y1="130.489" x2="60.7105" y2="130.688" class="gray" /></g>
<g><line x1="56.9981" y1="129.619" x2="54.2919" y2="127.718" class="gray" /></g>
<g><line x1="51.9187" y1="124.624" x2="50.7013" y2="121.293" class="gray" /></g>
<g><line x1="50.6518" y1="117.437" x2="51.7582" y2="114.15" class="gray" /></g>
<g><line x1="54.1177" y1="111.092" x2="57.1723" y2="109.085" class="gray" /></g>
<g><line x1="60.9204" y1="108.071" x2="64.5896" y2="108.266" class="gray" /></g>
<g><line x1="68.1396" y1="109.75" x2="70.4704" y2="111.877" class="gray" /></g>
<g><line x1="74.0232" y1="113.254" x2="77.9168" y2="113.254" class="gray" /></g>
<g><line x1="82.0032" y1="113.254" x2="85.0568" y2="113.254" class="gray" /></g>
<g><line x1="89.1432" y1="113.254" x2="92.8268" y2="113.254" class="gray" /></g>
<g><line x1="95.7074" y1="111.39" x2="97.0926" y2="108.307" class="gray" /></g>
<g><line x1="99.401" y1="105.025" x2="102.009" y2="102.512" class="gray" /></g>
<g><line x1="102.752" y1="99.1845" x2="101.488" y2="95.8726" class="gray" /></g>
<g><line x1="100.13" y1="92.0197" x2="99.0797" y2="88.7773" class="gray" /></g>
<g><line x1="97.7217" y1="84.9245" x2="96.4583" y2="81.6126" class="gray" /></g>
<g><line x1="95.1003" y1="77.7597" x2="94.0497" y2="74.5173" class="gray" /></g>
<g><line x1="91.6701" y1="71.5186" x2="88.8499" y2="69.8184" class="gray" /></g>
<g><line x1="86.2739" y1="66.8947" x2="84.8361" y2="63.6423" class="gray" /></g>
<g><line x1="84.5791" y1="59.8111" x2="85.5609" y2="56.4259" class="gray" /></g>
<g><line x1="87.6936" y1="53.1483" x2="90.1064" y2="51.1188" class="gray" /></g>
<g><line x1="93.713" y1="49.7746" x2="97.397" y2="49.7224" class="gray" /></g>
<g><line x1="101.103" y1="50.8806" x2="104.067" y2="52.9964" class="gray" /></g>
<g><line x1="106.255" y1="56.1582" x2="107.135" y2="59.4689" class="gray" /></g>
<g><line x1="106.884" y1="63.3335" x2="105.536" y2="66.6135" class="gray" /></g>
<g><line x1="105.488" y1="70.4126" x2="106.752" y2="73.7245" class="gray" /></g>
<g><line x1="108.208" y1="77.5426" x2="109.472" y2="80.8545" class="gray" /></g>
<g><line x1="110.83" y1="84.7073" x2="111.88" y2="87.9497" class="gray" /></g>
<g><line x1="113.14" y1="91.8373" x2="114.19" y2="95.0797" class="gray" /></g>
<g><line x1="116.853" y1="97.2311" x2="120.717" y2="97.6259" class="gray" /></g>
<g><line x1="124.571" y1="98.7609" x2="127.329" y2="100.166" class="gray" /></g>
<g><line x1="130.595" y1="102.538" x2="133.055" y2="104.999" class="gray" /></g>
<g><line x1="135.428" y1="108.264" x2="137.042" y2="111.433" class="gray" /></g>
<g><line x1="138.189" y1="115.285" x2="138.561" y2="118.742" class="gray" /></g>
<g><line x1="138.31" y1="122.762" x2="137.51" y2="126.145" class="gray" /></g>
<g><line x1="139.017" y1="128.649" x2="142.383" y2="129.528" class="gray" /></g>
<g><line x1="145.239" y1="131.888" x2="146.691" y2="134.939" class="gray" /></g>
<g><line x1="149.162" y1="138.065" x2="151.868" y2="140.243" class="gray" /></g>
<g><line x1="155.049" y1="142.807" x2="157.751" y2="144.99" class="gray" /></g>
<g><line x1="161.383" y1="146.224" x2="165.067" y2="146.133" class="gray" /></g>
<g><line x1="168.767" y1="147.279" x2="171.583" y2="149.309" class="gray" /></g>
<g><line x1="173.837" y1="152.458" x2="174.853" y2="155.78" class="gray" /></g>
<g><line x1="174.793" y1="159.668" x2="173.697" y2="162.899" class="gray" /></g>
<g><line x1="171.317" y1="165.932" x2="168.393" y2="167.795" class="gray" /></g>
<g><line x1="164.633" y1="168.73" x2="160.967" y2="168.437" class="gray" /></g>
<g><line x1="157.409" y1="166.909" x2="154.821" y2="164.588" class="gray" /></g>
<g><line x1="152.916" y1="161.217" x2="152.264" y2="157.81" class="gray" /></g>
<g><line x1="150.288" y1="154.523" x2="147.582" y2="152.345" class="gray" /></g>
<g><line x1="144.4" y1="149.781" x2="141.69" y2="147.596" class="gray" /></g>
<g><line x1="138.123" y1="145.797" x2="134.767" y2="144.92" class="gray" /></g>
<g><line x1="131.819" y1="142.606" x2="130.121" y2="139.461" class="gray" /></g>
<g><line x1="127.318" y1="138.567" x2="124.372" y2="140.02" class="gray" /></g>
<g><line x1="123.377" y1="142.787" x2="124.803" y2="145.96" class="gray" /></g>
<g><line x1="124.802" y1="149.687" x2="123.378" y2="152.85" class="gray" /></g>
<g><line x1="122.54" y1="156.757" x2="122.54" y2="160.23" class="gray" /></g>
<g><line x1="122.54" y1="164.317" x2="122.54" y2="167.79" class="gray" /></g>
<g><line x1="122.54" y1="171.877" x2="122.54" y2="175.35" class="gray" /></g>
<g><line x1="122.54" y1="179.437" x2="122.54" y2="182.91" class="gray" /></g>
<g><line x1="124.012" y1="186.37" x2="126.516" y2="188.78" class="gray" /></g>
<g><line x1="128.102" y1="192.236" x2="128.294" y2="195.706" class="gray" /></g>
</svg>
