<svg
	xmlns="http://www.w3.org/2000/svg"
	width="226.33"
	height="241.111">
<g><style type="text/css" >
<!-- create color definitions -->
<![CDATA[
circle.red {stroke: rgb(255, 0, 255); fill: none; }
circle.green {stroke: rgb(0, 255, 0); fill: none; }
circle.blue {stroke: rgb(0, 0, 255); fill: none; }
circle.black {stroke: rgb(0, 0, 0); fill: none; }
circle.gray {stroke: rgb(204, 204, 204); fill: none; }
circle.brown {stroke: rgb(211.65, 104.55, 30.6); fill: none; }
line.red {stroke: rgb(255, 0, 255); stroke-width: 0.38401; }
line.green {stroke: rgb(0, 255, 0); stroke-width: 0.38401; }
line.blue {stroke: rgb(0, 0, 255); stroke-width: 0.38401; }
line.black {stroke: rgb(0, 0, 0); stroke-width: 0.38401; }
line.gray {stroke: rgb(204, 204, 204); stroke-width: 0.38401; }
line.brown {stroke: rgb(211.65, 104.55, 30.6); stroke-width: 0.38401; }
line {stroke: rgb(0, 0, 0); }
text.red {fill: rgb(255, 0, 255); font-size: 3.072077px; font-weight: bold; font-family: Helvetica; }
text.green {fill: rgb(0, 255, 0); font-size: 3.072077px; font-weight: bold; font-family: Helvetica; }
text.blue {fill: rgb(0, 0, 255); font-size: 3.072077px; font-weight: bold; font-family: Helvetica; }
text.black {fill: rgb(0, 0, 0); font-size: 3.072077px; font-weight: bold; font-family: Helvetica; }
text.gray {fill: rgb(204, 204, 204); font-size: 3.072077px; font-weight: bold; font-family: Helvetica; }
text.brown {fill: rgb(211.65, 104.55, 30.6); font-size: 3.072077px; font-weight: bold; font-family: Helvetica; }
text {fill: rgb(0, 0, 0); font-size: 3.072077px; font-weight: bold; font-family: Helvetica; text-anchor: middle; alignment-baseline: middle; }

.pseudoknot_connection{stroke-linecap: round; stroke-opacity: 0.2; stroke-width: 1.5; }
.pseudoknot_segment1{stroke-linecap: round; stroke-opacity: 0.4; stroke-width: 3.07208; }
.pseudoknot_segment2{stroke-linecap: round; stroke-opacity: 0.4; stroke-width: 3.07208; }
line.numbering-line{stroke: rgb(204, 204, 204); stroke-width: 0.192005; }
line.predicted{stroke: rgb(0, 0, 0); stroke-dasharray: 2; }
polyline{fill: none; stroke-linejoin: round; }
template{visibility: hidden; }
text.numbering-label{fill: rgb(204, 204, 204); }
]]>
</style></g>
<g><title>0 (position.label in template: 0.5')</title><text x="108.57" y="193.323" class="green" >5'</text></g>
<g><title>1 (position.label in template: 1.G)</title><text x="108.57" y="185.77" class="black" >G</text></g>
<g><line x1="110.618" y1="185.463" x2="118.972" y2="185.463" class="black" /></g>
<g><title>2 (position.label in template: 2.G)</title><text x="108.57" y="178.21" class="black" >G</text></g>
<g><line x1="110.618" y1="177.903" x2="118.972" y2="177.903" class="black" /></g>
<g><title>3 (position.label in template: 3.C)</title><text x="108.78" y="170.65" class="black" >C</text></g>
<g><line x1="110.828" y1="170.343" x2="118.762" y2="170.343" class="black" /></g>
<g><title>4 (position.label in template: 4.G)</title><text x="108.57" y="163.09" class="black" >G</text></g>
<g><line x1="110.618" y1="162.783" x2="118.972" y2="162.783" class="black" /></g>
<g><title>5 (position.label in template: 5.G)</title><text x="108.57" y="155.53" class="black" >G</text></g>
<g><line x1="110.618" y1="155.223" x2="118.972" y2="155.223" class="black" /></g>
<g><title>6 (position.label in template: 6.C)</title><text x="108.78" y="147.97" class="black" >C</text></g>
<g><line x1="110.828" y1="147.663" x2="118.762" y2="147.663" class="black" /></g>
<g><title>7 (position.label in template: 7.A)</title><text x="108.99" y="140.41" class="green" >A</text></g>
<g><line x1="111.038" y1="140.103" x2="118.972" y2="140.103" class="black" /></g>
<g><title>8 (position.label in template: 8.U)</title><text x="101.89" y="137.31" class="green" >T</text></g>
<g><title>9 (position.label in template: 9.G)</title><text x="96.12" y="132.18" class="black" >G</text></g>
<g><title>10 (position.label in template: 10.G)</title><text x="92.47" y="125.56" class="black" >G</text></g>
<g><line x1="92.341" y1="123.209" x2="91.829" y2="115.097" class="black" /></g>
<g><text x="89.1489" y="131.622" class="numbering-label sequential" >10</text></g>
<g><line x1="91.5844" y1="127.177" x2="89.9904" y2="130.086" class="numbering-line sequential" /></g>
<g><title>11 (position.label in template: 11.C)</title><text x="85.15" y="126.17" class="black" >C</text></g>
<g><line x1="84.9512" y1="123.824" x2="84.1588" y2="115.701" class="black" /></g>
<g><title>12 (position.label in template: 12.C)</title><text x="77.61" y="126.78" class="black" >C</text></g>
<g><line x1="77.4112" y1="124.434" x2="76.6188" y2="116.311" class="black" /></g>
<g><title>13 (position.label in template: 13.G)</title><text x="72.92" y="132.86" class="black" >G</text></g>
<g><title>14 (position.label in template: 14.A)</title><text x="66.36" y="135.79" class="black" >A</text></g>
<g><title>15 (position.label in template: 15.G)</title><text x="58.46" y="134.71" class="black" >G</text></g>
<g><title>16 (position.label in template: 16.U)</title><text x="52.8" y="129.95" class="green" >T</text></g>
<g><title>17 (position.label in template: 17.G)</title><text x="50" y="122.85" class="black" >G</text></g>
<g><title>18 (position.label in template: 18.G)</title><text x="51.42" y="115.42" class="black" >G</text></g>
<g><title>19 (position.label in template: 19.U)</title><text x="56.66" y="109.78" class="green" >T</text></g>
<g><title>20 (position.label in template: 20.A)</title><text x="64.08" y="107.52" class="black" >A</text></g>
<g><text x="63.8508" y="100.612" class="numbering-label sequential" >20</text></g>
<g><line x1="64.0189" y1="105.678" x2="63.9018" y2="102.148" class="numbering-line sequential" /></g>
<g><title>21 (position.label in template: 21.A)</title><text x="71.43" y="109.29" class="black" >A</text></g>
<g><title>22 (position.label in template: 22.G)</title><text x="76.42" y="114.58" class="black" >G</text></g>
<g><title>23 (position.label in template: 23.G)</title><text x="83.96" y="113.97" class="black" >G</text></g>
<g><title>24 (position.label in template: 24.C)</title><text x="91.7" y="113.36" class="black" >C</text></g>
<g><title>25 (position.label in template: 25.G)</title><text x="94.03" y="106.24" class="black" >G</text></g>
<g><title>26 (position.label in template: 26.G)</title><text x="98.7" y="100.29" class="green" >G</text></g>
<g><line x1="100.521" y1="99.0465" x2="107.929" y2="95.2391" class="black" /></g>
<g><title>27 (position.label in template: 27.G)</title><text x="95.19" y="93.6" class="green" >G</text></g>
<g><line x1="97.0108" y1="92.3552" x2="104.419" y2="88.5404" class="black" /></g>
<g><title>28 (position.label in template: 28.G)</title><text x="91.68" y="86.9" class="black" >G</text></g>
<g><line x1="93.5015" y1="85.6565" x2="100.909" y2="81.8491" class="black" /></g>
<g><title>29 (position.label in template: 29.G)</title><text x="88.17" y="80.2" class="black" >G</text></g>
<g><line x1="89.9915" y1="78.9565" x2="97.3985" y2="75.1491" class="black" /></g>
<g><title>30 (position.label in template: 30.A)</title><text x="85.07" y="73.51" class="green" >A</text></g>
<g><line x1="86.8767" y1="72.2383" x2="93.9033" y2="68.4873" class="black" /></g>
<g><text x="80.3781" y="78.5859" class="numbering-label sequential" >30</text></g>
<g><line x1="83.8188" y1="74.8636" x2="81.798" y2="77.0498" class="numbering-line sequential" /></g>
<g><title>31 (position.label in template: 31.C)</title><text x="77.86" y="70.67" class="black" >C</text></g>
<g><title>32 (position.label in template: 32.U)</title><text x="74" y="64.17" class="green" >T</text></g>
<g><title>33 (position.label in template: 33.G)</title><text x="74.65" y="56.66" class="black" >G</text></g>
<g><title>34 (position.label in template: 34.C)</title><text x="80.08" y="51.19" class="black" >C</text></g>
<g><title>35 (position.label in template: 35.A)</title><text x="87.75" y="50" class="black" >A</text></g>
<g><title>36 (position.label in template: 36.A)</title><text x="94.42" y="53.57" class="black" >A</text></g>
<g><title>37 (position.label in template: 37.A)</title><text x="97.57" y="60.45" class="black" >A</text></g>
<g><title>38 (position.label in template: 38.U)</title><text x="95.71" y="67.83" class="green" >T</text></g>
<g><title>39 (position.label in template: 39.C)</title><text x="99.22" y="74.52" class="black" >C</text></g>
<g><title>40 (position.label in template: 40.C)</title><text x="102.73" y="81.22" class="black" >C</text></g>
<g><title>41 (position.label in template: 41.U)</title><text x="106.24" y="87.91" class="green" >T</text></g>
<g><title>42 (position.label in template: 42.U)</title><text x="109.75" y="94.61" class="green" >T</text></g>
<g><title>43 (position.label in template: 43.U)</title><text x="117.29" y="94.16" class="green" >T</text></g>
<g><title>44 (position.label in template: 44.U)</title><text x="124.59" y="96.12" class="green" >T</text></g>
<g><title>45 (position.label in template: 45.U)</title><text x="130.9" y="100.29" class="green" >T</text></g>
<g><title>46 (position.label in template: 46.C)</title><text x="135.56" y="106.24" class="black" >C</text></g>
<g><title>47 (position.label in template: 47.A)</title><text x="138.31" y="113.36" class="black" >A</text></g>
<g><title>48 (position.label in template: 48.C)</title><text x="138.26" y="120.92" class="black" >C</text></g>
<g><line x1="137.429" y1="122.485" x2="134.091" y2="130.001" class="black" /></g>
<g><title>49 (position.label in template: 49.C)</title><text x="145.22" y="123.88" class="black" >C</text></g>
<g><line x1="144.389" y1="125.445" x2="141.051" y2="132.961" class="black" /></g>
<g><title>50 (position.label in template: 50.A)</title><text x="152.99" y="123.73" class="black" >A</text></g>
<g><text x="155.735" y="117.386" class="numbering-label sequential" >50</text></g>
<g><line x1="153.722" y1="122.038" x2="155.07" y2="118.922" class="numbering-line sequential" /></g>
<g><title>51 (position.label in template: 51.G)</title><text x="157.7" y="129.28" class="black" >G</text></g>
<g><line x1="156.928" y1="130.87" x2="153.892" y2="138.336" class="black" /></g>
<g><title>52 (position.label in template: 52.U)</title><text x="165.13" y="127.04" class="green" >T</text></g>
<g><title>53 (position.label in template: 53.U)</title><text x="172.24" y="129.63" class="green" >T</text></g>
<g><title>54 (position.label in template: 54.C)</title><text x="176.33" y="135.98" class="black" >C</text></g>
<g><title>55 (position.label in template: 55.A)</title><text x="175.95" y="143.52" class="black" >A</text></g>
<g><title>56 (position.label in template: 56.A)</title><text x="170.93" y="149.17" class="black" >A</text></g>
<g><title>57 (position.label in template: 57.A)</title><text x="163.51" y="150.63" class="black" >A</text></g>
<g><title>58 (position.label in template: 58.U)</title><text x="156.51" y="147.3" class="green" >T</text></g>
<g><title>59 (position.label in template: 59.C)</title><text x="153.12" y="140.54" class="black" >C</text></g>
<g><title>60 (position.label in template: 60.C)</title><text x="145.56" y="140.69" class="black" >C</text></g>
<g><title>61 (position.label in template: 61.G)</title><text x="140.22" y="135.14" class="black" >G</text></g>
<g><title>62 (position.label in template: 62.G)</title><text x="133.26" y="132.18" class="black" >G</text></g>
<g><title>63 (position.label in template: 63.G)</title><text x="127.71" y="137.31" class="black" >G</text></g>
<g><title>64 (position.label in template: 64.U)</title><text x="121.02" y="140.41" class="green" >T</text></g>
<g><title>65 (position.label in template: 65.G)</title><text x="120.81" y="147.97" class="black" >G</text></g>
<g><title>66 (position.label in template: 66.C)</title><text x="121.02" y="155.53" class="black" >C</text></g>
<g><title>67 (position.label in template: 67.C)</title><text x="121.02" y="163.09" class="black" >C</text></g>
<g><title>68 (position.label in template: 68.G)</title><text x="120.81" y="170.65" class="black" >G</text></g>
<g><title>69 (position.label in template: 69.C)</title><text x="121.02" y="178.21" class="black" >C</text></g>
<g><title>70 (position.label in template: 70.C)</title><text x="121.02" y="185.77" class="black" >C</text></g>
<g><title>71 (position.label in template: 71.U)</title><text x="126.361" y="191.111" class="green" >T</text></g>
<g><title>72 (position.label in template: 72.3')</title><text x="126.171" y="198.661" class="green" >3'</text></g>
<g><line x1="108.57" y1="190.968" x2="108.57" y2="187.511" class="gray" /></g>
<g><line x1="108.57" y1="183.415" x2="108.57" y2="179.951" class="gray" /></g>
<g><line x1="108.627" y1="175.856" x2="108.723" y2="172.39" class="gray" /></g>
<g><line x1="108.723" y1="168.296" x2="108.627" y2="164.83" class="gray" /></g>
<g><line x1="108.57" y1="160.735" x2="108.57" y2="157.271" class="gray" /></g>
<g><line x1="108.627" y1="153.176" x2="108.723" y2="149.71" class="gray" /></g>
<g><line x1="108.837" y1="145.616" x2="108.933" y2="142.15" class="gray" /></g>
<g><line x1="107.113" y1="139.283" x2="103.767" y2="137.822" class="gray" /></g>
<g><line x1="100.359" y1="135.642" x2="97.6506" y2="133.234" class="gray" /></g>
<g><line x1="95.1311" y1="130.079" x2="93.4589" y2="127.046" class="gray" /></g>
<g><line x1="90.429" y1="125.423" x2="87.191" y2="125.693" class="gray" /></g>
<g><line x1="83.1086" y1="126.028" x2="79.6514" y2="126.308" class="gray" /></g>
<g><line x1="76.3591" y1="128.094" x2="74.1709" y2="130.931" class="gray" /></g>
<g><line x1="71.05" y1="133.388" x2="68.23" y2="134.648" class="gray" /></g>
<g><line x1="64.3308" y1="135.205" x2="60.4892" y2="134.68" class="gray" /></g>
<g><line x1="56.8926" y1="133.085" x2="54.3674" y2="130.961" class="gray" /></g>
<g><line x1="52.0486" y1="127.738" x2="50.7514" y2="124.448" class="gray" /></g>
<g><line x1="50.3845" y1="120.531" x2="51.0355" y2="117.124" class="gray" /></g>
<g><line x1="52.814" y1="113.612" x2="55.266" y2="110.973" class="gray" /></g>
<g><line x1="58.6192" y1="108.876" x2="62.1208" y2="107.81" class="gray" /></g>
<g><line x1="66.0711" y1="107.692" x2="69.4389" y2="108.503" class="gray" /></g>
<g><line x1="72.8353" y1="110.473" x2="75.0147" y2="112.783" class="gray" /></g>
<g><line x1="78.4614" y1="114.108" x2="81.9186" y2="113.828" class="gray" /></g>
<g><line x1="86.0017" y1="113.502" x2="89.6583" y2="113.214" class="gray" /></g>
<g><line x1="92.337" y1="111.106" x2="93.393" y2="107.879" class="gray" /></g>
<g><line x1="95.2945" y1="104.322" x2="97.4355" y2="101.594" class="gray" /></g>
<g><line x1="97.7485" y1="98.1692" x2="96.1415" y2="95.1064" class="gray" /></g>
<g><line x1="94.2396" y1="91.4786" x2="92.6304" y2="88.407" class="gray" /></g>
<g><line x1="90.7296" y1="84.7786" x2="89.1204" y2="81.707" class="gray" /></g>
<g><line x1="87.3089" y1="78.0345" x2="85.9311" y2="75.061" class="gray" /></g>
<g><line x1="83.1644" y1="72.4522" x2="79.7656" y2="71.1134" class="gray" /></g>
<g><line x1="76.8143" y1="68.6018" x2="75.0457" y2="65.6237" class="gray" /></g>
<g><line x1="74.1766" y1="61.8224" x2="74.4734" y2="58.3932" class="gray" /></g>
<g><line x1="76.0929" y1="54.8993" x2="78.6371" y2="52.3363" class="gray" /></g>
<g><line x1="82.1038" y1="50.5688" x2="85.7262" y2="50.0068" class="gray" /></g>
<g><line x1="89.5557" y1="50.6592" x2="92.6143" y2="52.2963" class="gray" /></g>
<g><line x1="95.2726" y1="55.1249" x2="96.7174" y2="58.2806" class="gray" /></g>
<g><line x1="97.0695" y1="62.1287" x2="96.2105" y2="65.5368" class="gray" /></g>
<g><line x1="96.6615" y1="69.3364" x2="98.2685" y2="72.3992" class="gray" /></g>
<g><line x1="100.17" y1="76.027" x2="101.78" y2="79.0986" class="gray" /></g>
<g><line x1="103.682" y1="82.7264" x2="105.288" y2="85.7892" class="gray" /></g>
<g><line x1="107.19" y1="89.417" x2="108.8" y2="92.4886" class="gray" /></g>
<g><line x1="111.794" y1="94.1808" x2="115.246" y2="93.9748" class="gray" /></g>
<g><line x1="119.268" y1="94.3839" x2="122.612" y2="95.2817" class="gray" /></g>
<g><line x1="126.299" y1="96.942" x2="129.191" y2="98.8536" class="gray" /></g>
<g><line x1="132.163" y1="101.595" x2="134.297" y2="104.32" class="gray" /></g>
<g><line x1="136.298" y1="107.843" x2="137.572" y2="111.142" class="gray" /></g>
<g><line x1="138.296" y1="115.101" x2="138.274" y2="118.565" class="gray" /></g>
<g><line x1="140.145" y1="121.414" x2="143.335" y2="122.771" class="gray" /></g>
<g><line x1="147.268" y1="123.533" x2="150.942" y2="123.462" class="gray" /></g>
<g><line x1="154.315" y1="124.984" x2="156.375" y2="127.411" class="gray" /></g>
<g><line x1="159.661" y1="128.382" x2="163.169" y2="127.324" class="gray" /></g>
<g><line x1="167.054" y1="127.434" x2="170.316" y2="128.622" class="gray" /></g>
<g><line x1="173.349" y1="131.045" x2="175.221" y2="133.951" class="gray" /></g>
<g><line x1="176.227" y1="137.718" x2="176.053" y2="141.167" class="gray" /></g>
<g><line x1="174.59" y1="144.744" x2="172.29" y2="147.332" class="gray" /></g>
<g><line x1="168.92" y1="149.258" x2="165.52" y2="149.927" class="gray" /></g>
<g><line x1="161.661" y1="149.443" x2="158.359" y2="147.873" class="gray" /></g>
<g><line x1="155.592" y1="145.162" x2="154.038" y2="142.064" class="gray" /></g>
<g><line x1="151.072" y1="140.273" x2="147.608" y2="140.342" class="gray" /></g>
<g><line x1="144.14" y1="138.907" x2="141.64" y2="136.309" class="gray" /></g>
<g><line x1="138.335" y1="134.031" x2="135.145" y2="132.674" class="gray" /></g>
<g><line x1="131.756" y1="133.263" x2="129.214" y2="135.613" class="gray" /></g>
<g><line x1="125.852" y1="137.864" x2="122.878" y2="139.242" class="gray" /></g>
<g><line x1="120.963" y1="142.15" x2="120.867" y2="145.616" class="gray" /></g>
<g><line x1="120.867" y1="149.71" x2="120.963" y2="153.176" class="gray" /></g>
<g><line x1="121.02" y1="157.271" x2="121.02" y2="160.735" class="gray" /></g>
<g><line x1="120.963" y1="164.83" x2="120.867" y2="168.296" class="gray" /></g>
<g><line x1="120.867" y1="172.39" x2="120.963" y2="175.856" class="gray" /></g>
<g><line x1="121.02" y1="179.951" x2="121.02" y2="183.415" class="gray" /></g>
<g><line x1="122.468" y1="186.911" x2="124.913" y2="189.355" class="gray" /></g>
<g><line x1="126.309" y1="192.851" x2="126.223" y2="196.307" class="gray" /></g>
</svg>
