<svg
	xmlns="http://www.w3.org/2000/svg"
	width="227.76"
	height="255.9">
<g><style type="text/css" >
<!-- create color definitions -->
<![CDATA[
circle.red {stroke: rgb(255, 0, 255); fill: none; }
circle.green {stroke: rgb(0, 255, 0); fill: none; }
circle.blue {stroke: rgb(0, 0, 255); fill: none; }
circle.black {stroke: rgb(0, 0, 0); fill: none; }
circle.gray {stroke: rgb(204, 204, 204); fill: none; }
circle.brown {stroke: rgb(211.65, 104.55, 30.6); fill: none; }
line.red {stroke: rgb(255, 0, 255); stroke-width: 0.384959; }
line.green {stroke: rgb(0, 255, 0); stroke-width: 0.384959; }
line.blue {stroke: rgb(0, 0, 255); stroke-width: 0.384959; }
line.black {stroke: rgb(0, 0, 0); stroke-width: 0.384959; }
line.gray {stroke: rgb(204, 204, 204); stroke-width: 0.384959; }
line.brown {stroke: rgb(211.65, 104.55, 30.6); stroke-width: 0.384959; }
line {stroke: rgb(0, 0, 0); }
text.red {fill: rgb(255, 0, 255); font-size: 3.079668px; font-weight: bold; font-family: Helvetica; }
text.green {fill: rgb(0, 255, 0); font-size: 3.079668px; font-weight: bold; font-family: Helvetica; }
text.blue {fill: rgb(0, 0, 255); font-size: 3.079668px; font-weight: bold; font-family: Helvetica; }
text.black {fill: rgb(0, 0, 0); font-size: 3.079668px; font-weight: bold; font-family: Helvetica; }
text.gray {fill: rgb(204, 204, 204); font-size: 3.079668px; font-weight: bold; font-family: Helvetica; }
text.brown {fill: rgb(211.65, 104.55, 30.6); font-size: 3.079668px; font-weight: bold; font-family: Helvetica; }
text {fill: rgb(0, 0, 0); font-size: 3.079668px; font-weight: bold; font-family: Helvetica; text-anchor: middle; alignment-baseline: middle; }

.pseudoknot_connection{stroke-linecap: round; stroke-opacity: 0.2; stroke-width: 1.5; }
.pseudoknot_segment1{stroke-linecap: round; stroke-opacity: 0.4; stroke-width: 3.07967; }
.pseudoknot_segment2{stroke-linecap: round; stroke-opacity: 0.4; stroke-width: 3.07967; }
line.numbering-line{stroke: rgb(204, 204, 204); stroke-width: 0.192479; }
line.predicted{stroke: rgb(0, 0, 0); stroke-dasharray: 2; }
polyline{fill: none; stroke-linejoin: round; }
template{visibility: hidden; }
text.numbering-label{fill: rgb(204, 204, 204); }
]]>
</style></g>
<g><title>0 (position.label in template: 0.5')</title><text x="105.17" y="205.9" class="green" >5'</text></g>
<g><title>1 (position.label in template: 1.G)</title><text x="112.17" y="205.9" class="green" >G</text></g>
<g><line x1="114.223" y1="205.592" x2="122.567" y2="205.592" class="black" /></g>
<g><title>2 (position.label in template: 2.U)</title><text x="112.38" y="198.34" class="green" >T</text></g>
<g><line x1="114.433" y1="198.032" x2="122.777" y2="198.032" class="black" /></g>
<g><title>3 (position.label in template: 3.A)</title><text x="112.59" y="190.78" class="green" >A</text></g>
<g><line x1="114.643" y1="190.472" x2="122.567" y2="190.472" class="black" /></g>
<g><title>4 (position.label in template: 4.C)</title><text x="112.38" y="183.22" class="black" >C</text></g>
<g><line x1="114.433" y1="182.912" x2="122.357" y2="182.912" class="black" /></g>
<g><title>5 (position.label in template: 5.U)</title><text x="112.38" y="175.66" class="green" >T</text></g>
<g><line x1="114.433" y1="175.352" x2="122.777" y2="175.352" class="black" /></g>
<g><title>6 (position.label in template: 6.G)</title><text x="112.17" y="168.1" class="black" >G</text></g>
<g><line x1="114.223" y1="167.792" x2="122.567" y2="167.792" class="black" /></g>
<g><title>7 (position.label in template: 7.A)</title><text x="108.14" y="174.21" class="black" >A</text></g>
<g><title>8 (position.label in template: 8.A)</title><text x="100.95" y="176.55" class="black" >A</text></g>
<g><title>9 (position.label in template: 9.A)</title><text x="93.76" y="174.21" class="black" >A</text></g>
<g><title>10 (position.label in template: 10.U)</title><text x="89.11" y="168.1" class="green" >T</text></g>
<g><text x="82.5811" y="170.421" class="numbering-label sequential" >10</text></g>
<g><line x1="87.369" y1="168.719" x2="84.4289" y2="169.764" class="numbering-line sequential" /></g>
<g><title>11 (position.label in template: 11.G)</title><text x="88.9" y="160.54" class="black" >G</text></g>
<g><title>12 (position.label in template: 12.C)</title><text x="93.56" y="154.42" class="black" >C</text></g>
<g><title>13 (position.label in template: 13.A)</title><text x="100.95" y="152.09" class="black" >A</text></g>
<g><title>14 (position.label in template: 14.U)</title><text x="107.94" y="154.42" class="green" >T</text></g>
<g><title>15 (position.label in template: 15.G)</title><text x="112.17" y="160.54" class="black" >G</text></g>
<g><line x1="114.223" y1="160.232" x2="122.567" y2="160.232" class="black" /></g>
<g><title>16 (position.label in template: 16.G)</title><text x="112.17" y="152.98" class="black" >G</text></g>
<g><line x1="114.223" y1="152.672" x2="122.567" y2="152.672" class="black" /></g>
<g><title>17 (position.label in template: 17.U)</title><text x="112.38" y="145.42" class="green" >T</text></g>
<g><line x1="114.433" y1="145.112" x2="122.777" y2="145.112" class="black" /></g>
<g><title>18 (position.label in template: 18.G)</title><text x="112.17" y="137.86" class="black" >G</text></g>
<g><line x1="114.223" y1="137.552" x2="122.567" y2="137.552" class="black" /></g>
<g><title>19 (position.label in template: 19.G)</title><text x="112.17" y="130.3" class="black" >G</text></g>
<g><line x1="114.223" y1="129.992" x2="122.567" y2="129.992" class="black" /></g>
<g><title>20 (position.label in template: 20.G)</title><text x="105.11" y="127.59" class="black" >G</text></g>
<g><text x="101.667" y="133.603" class="numbering-label sequential" >20</text></g>
<g><line x1="104.192" y1="129.194" x2="102.549" y2="132.064" class="numbering-line sequential" /></g>
<g><title>21 (position.label in template: 21.A)</title><text x="99.49" y="123.04" class="black" >A</text></g>
<g><title>22 (position.label in template: 22.A)</title><text x="94.94" y="117" class="black" >A</text></g>
<g><title>23 (position.label in template: 23.A)</title><text x="92.23" y="109.94" class="black" >A</text></g>
<g><title>24 (position.label in template: 24.U)</title><text x="91.36" y="102.41" class="green" >T</text></g>
<g><title>25 (position.label in template: 25.C)</title><text x="92.8" y="94.99" class="black" >C</text></g>
<g><line x1="93.8628" y1="92.9254" x2="98.0172" y2="86.0587" class="black" /></g>
<g><title>26 (position.label in template: 26.A)</title><text x="86.6" y="90.99" class="green" >A</text></g>
<g><line x1="87.6608" y1="88.9242" x2="91.8092" y2="82.0499" class="black" /></g>
<g><title>27 (position.label in template: 27.G)</title><text x="79.77" y="86.98" class="green" >G</text></g>
<g><line x1="80.8823" y1="84.9463" x2="85.3477" y2="78.0178" class="black" /></g>
<g><title>28 (position.label in template: 28.U)</title><text x="73.57" y="82.98" class="green" >T</text></g>
<g><line x1="74.6823" y1="80.9463" x2="79.1477" y2="74.0178" class="black" /></g>
<g><title>29 (position.label in template: 29.G)</title><text x="66.94" y="78.97" class="black" >G</text></g>
<g><line x1="68.0534" y1="76.9371" x2="72.5266" y2="70.007" class="black" /></g>
<g><title>30 (position.label in template: 30.U)</title><text x="59.67" y="80.06" class="green" >T</text></g>
<g><text x="58.4313" y="86.8776" class="numbering-label sequential" >30</text></g>
<g><line x1="59.3397" y1="81.878" x2="58.7111" y2="85.3378" class="numbering-line sequential" /></g>
<g><title>31 (position.label in template: 31.G)</title><text x="52.85" y="76.41" class="black" >G</text></g>
<g><title>32 (position.label in template: 32.U)</title><text x="50" y="69.49" class="green" >T</text></g>
<g><title>33 (position.label in template: 33.A)</title><text x="51.95" y="62.14" class="black" >A</text></g>
<g><title>34 (position.label in template: 34.A)</title><text x="57.8" y="57.34" class="black" >A</text></g>
<g><title>35 (position.label in template: 35.U)</title><text x="65.14" y="57.05" class="green" >T</text></g>
<g><title>36 (position.label in template: 36.U)</title><text x="71.33" y="61.39" class="green" >T</text></g>
<g><title>37 (position.label in template: 37.C)</title><text x="73.64" y="68.59" class="black" >C</text></g>
<g><title>38 (position.label in template: 38.A)</title><text x="80.26" y="72.6" class="green" >A</text></g>
<g><title>39 (position.label in template: 39.U)</title><text x="86.46" y="76.6" class="green" >T</text></g>
<g><title>40 (position.label in template: 40.U)</title><text x="92.87" y="80.6" class="green" >T</text></g>
<g><title>41 (position.label in template: 41.G)</title><text x="99.08" y="84.61" class="black" >G</text></g>
<g><title>42 (position.label in template: 42.G)</title><text x="105.11" y="80.06" class="black" >G</text></g>
<g><title>43 (position.label in template: 43.C)</title><text x="112.38" y="77.35" class="black" >C</text></g>
<g><title>44 (position.label in template: 44.U)</title><text x="119.91" y="76.69" class="green" >T</text></g>
<g><line x1="121.886" y1="76.938" x2="129.914" y2="79.1961" class="black" /></g>
<g><title>45 (position.label in template: 45.G)</title><text x="121.79" y="69.42" class="black" >G</text></g>
<g><line x1="123.766" y1="69.6684" x2="131.784" y2="71.9256" class="black" /></g>
<g><title>46 (position.label in template: 46.U)</title><text x="124.08" y="62.15" class="green" >T</text></g>
<g><line x1="126.051" y1="62.4171" x2="133.659" y2="64.637" class="black" /></g>
<g><title>47 (position.label in template: 47.G)</title><text x="123.77" y="54.59" class="black" >G</text></g>
<g><title>48 (position.label in template: 48.C)</title><text x="129.99" y="50" class="black" >C</text></g>
<g><title>49 (position.label in template: 49.C)</title><text x="137.26" y="52.09" class="black" >C</text></g>
<g><title>50 (position.label in template: 50.U)</title><text x="139.93" y="59.16" class="green" >T</text></g>
<g><text x="146.809" y="59.9949" class="numbering-label sequential" >50</text></g>
<g><line x1="141.764" y1="59.3826" x2="144.961" y2="59.7706" class="numbering-line sequential" /></g>
<g><title>51 (position.label in template: 51.G)</title><text x="135.63" y="65.52" class="green" >G</text></g>
<g><title>52 (position.label in template: 52.C)</title><text x="133.76" y="72.79" class="black" >C</text></g>
<g><title>53 (position.label in template: 53.A)</title><text x="131.89" y="80.06" class="green" >A</text></g>
<g><title>54 (position.label in template: 54.A)</title><text x="137.92" y="84.61" class="black" >A</text></g>
<g><title>55 (position.label in template: 55.C)</title><text x="142.27" y="90.65" class="black" >C</text></g>
<g><line x1="142.803" y1="92.3248" x2="144.897" y2="100.119" class="black" /></g>
<g><title>56 (position.label in template: 56.C)</title><text x="149.53" y="88.56" class="black" >C</text></g>
<g><line x1="150.064" y1="90.2345" x2="152.166" y2="98.0396" class="black" /></g>
<g><title>57 (position.label in template: 57.G)</title><text x="156.59" y="86.48" class="black" >G</text></g>
<g><line x1="157.187" y1="88.1363" x2="159.573" y2="95.9778" class="black" /></g>
<g><title>58 (position.label in template: 58.U)</title><text x="161.63" y="80.66" class="green" >T</text></g>
<g><title>59 (position.label in template: 59.A)</title><text x="169.3" y="79.5" class="black" >A</text></g>
<g><title>60 (position.label in template: 60.A)</title><text x="175.68" y="83.56" class="black" >A</text></g>
<g><title>61 (position.label in template: 61.A)</title><text x="177.76" y="90.83" class="black" >A</text></g>
<g><title>62 (position.label in template: 62.G)</title><text x="174.09" y="97.66" class="black" >G</text></g>
<g><title>63 (position.label in template: 63.U)</title><text x="167.35" y="100.63" class="green" >T</text></g>
<g><title>64 (position.label in template: 64.C)</title><text x="160.17" y="98.25" class="black" >C</text></g>
<g><title>65 (position.label in template: 65.G)</title><text x="152.7" y="100.33" class="black" >G</text></g>
<g><title>66 (position.label in template: 66.G)</title><text x="145.43" y="102.41" class="black" >G</text></g>
<g><title>67 (position.label in template: 67.A)</title><text x="145.18" y="109.94" class="black" >A</text></g>
<g><title>68 (position.label in template: 68.G)</title><text x="142.06" y="117" class="black" >G</text></g>
<g><title>69 (position.label in template: 69.C)</title><text x="137.72" y="123.04" class="black" >C</text></g>
<g><title>70 (position.label in template: 70.G)</title><text x="131.47" y="127.59" class="black" >G</text></g>
<g><title>71 (position.label in template: 71.C)</title><text x="124.62" y="130.3" class="black" >C</text></g>
<g><title>72 (position.label in template: 72.C)</title><text x="124.62" y="137.86" class="black" >C</text></g>
<g><title>73 (position.label in template: 73.A)</title><text x="124.83" y="145.42" class="green" >A</text></g>
<g><title>74 (position.label in template: 74.C)</title><text x="124.62" y="152.98" class="black" >C</text></g>
<g><title>75 (position.label in template: 75.C)</title><text x="124.62" y="160.54" class="black" >C</text></g>
<g><title>76 (position.label in template: 76.C)</title><text x="124.62" y="168.1" class="black" >C</text></g>
<g><title>77 (position.label in template: 77.A)</title><text x="124.83" y="175.66" class="green" >A</text></g>
<g><title>78 (position.label in template: 78.G)</title><text x="124.41" y="183.22" class="black" >G</text></g>
<g><title>79 (position.label in template: 79.U)</title><text x="124.62" y="190.78" class="green" >T</text></g>
<g><title>80 (position.label in template: 80.A)</title><text x="124.83" y="198.34" class="green" >A</text></g>
<g><title>81 (position.label in template: 81.U)</title><text x="124.62" y="205.9" class="green" >T</text></g>
<g><title>82 (position.label in template: 82.3')</title><text x="131.62" y="205.9" class="green" >3'</text></g>
<g><line x1="107.223" y1="205.592" x2="110.117" y2="205.592" class="gray" /></g>
<g><line x1="112.227" y1="203.54" x2="112.323" y2="200.084" class="gray" /></g>
<g><line x1="112.437" y1="195.98" x2="112.533" y2="192.524" class="gray" /></g>
<g><line x1="112.533" y1="188.42" x2="112.437" y2="184.964" class="gray" /></g>
<g><line x1="112.38" y1="180.859" x2="112.38" y2="177.405" class="gray" /></g>
<g><line x1="112.323" y1="173.3" x2="112.227" y2="169.844" class="gray" /></g>
<g><line x1="111.04" y1="169.506" x2="109.27" y2="172.188" class="gray" /></g>
<g><line x1="106.188" y1="174.537" x2="102.902" y2="175.607" class="gray" /></g>
<g><line x1="98.9977" y1="175.607" x2="95.7123" y2="174.537" class="gray" /></g>
<g><line x1="92.5166" y1="172.268" x2="90.3534" y2="169.426" class="gray" /></g>
<g><line x1="89.053" y1="165.74" x2="88.957" y2="162.284" class="gray" /></g>
<g><line x1="90.1438" y1="158.599" x2="92.3162" y2="155.746" class="gray" /></g>
<g><line x1="95.5181" y1="153.495" x2="98.9919" y2="152.399" class="gray" /></g>
<g><line x1="102.898" y1="152.431" x2="105.992" y2="153.463" class="gray" /></g>
<g><line x1="109.107" y1="155.801" x2="111.003" y2="158.543" class="gray" /></g>
<g><line x1="112.17" y1="158.179" x2="112.17" y2="154.725" class="gray" /></g>
<g><line x1="112.227" y1="150.62" x2="112.323" y2="147.164" class="gray" /></g>
<g><line x1="112.323" y1="143.06" x2="112.227" y2="139.604" class="gray" /></g>
<g><line x1="112.17" y1="135.499" x2="112.17" y2="132.045" class="gray" /></g>
<g><line x1="110.253" y1="129.256" x2="107.027" y2="128.018" class="gray" /></g>
<g><line x1="103.514" y1="125.99" x2="101.086" y2="124.024" class="gray" /></g>
<g><line x1="98.2547" y1="121.092" x2="96.1753" y2="118.332" class="gray" /></g>
<g><line x1="94.2042" y1="114.775" x2="92.9658" y2="111.549" class="gray" /></g>
<g><line x1="91.9944" y1="107.592" x2="91.5956" y2="104.142" class="gray" /></g>
<g><line x1="91.7511" y1="100.087" x2="92.4089" y2="96.6975" class="gray" /></g>
<g><line x1="91.0748" y1="93.569" x2="88.3252" y2="91.7951" class="gray" /></g>
<g><line x1="84.8295" y1="89.6425" x2="81.5405" y2="87.7115" class="gray" /></g>
<g><line x1="78.0448" y1="85.559" x2="75.2952" y2="83.7851" class="gray" /></g>
<g><line x1="71.8132" y1="81.6095" x2="68.6968" y2="79.7246" class="gray" /></g>
<g><line x1="64.9096" y1="78.9665" x2="61.7004" y2="79.4476" class="gray" /></g>
<g><line x1="57.8598" y1="78.7832" x2="54.6602" y2="77.0708" class="gray" /></g>
<g><line x1="52.0681" y1="74.2036" x2="50.7819" y2="71.0804" class="gray" /></g>
<g><line x1="50.5265" y1="67.1976" x2="51.4235" y2="63.8165" class="gray" /></g>
<g><line x1="53.5372" y1="60.5297" x2="56.2128" y2="58.3344" class="gray" /></g>
<g><line x1="59.8515" y1="56.951" x2="63.0885" y2="56.8231" class="gray" /></g>
<g><line x1="66.8211" y1="57.9207" x2="69.6489" y2="59.9034" class="gray" /></g>
<g><line x1="71.9572" y1="63.037" x2="73.0128" y2="66.3271" class="gray" /></g>
<g><line x1="75.3961" y1="69.3458" x2="78.5039" y2="71.2283" class="gray" /></g>
<g><line x1="81.9852" y1="73.4051" x2="84.7348" y2="75.179" class="gray" /></g>
<g><line x1="88.2018" y1="77.379" x2="91.1282" y2="79.2051" class="gray" /></g>
<g><line x1="94.5948" y1="81.4058" x2="97.3552" y2="83.1883" class="gray" /></g>
<g><line x1="100.719" y1="83.0654" x2="103.471" y2="80.9887" class="gray" /></g>
<g><line x1="107.034" y1="79.0349" x2="110.456" y2="77.7592" class="gray" /></g>
<g><line x1="114.425" y1="76.8628" x2="117.865" y2="76.5613" class="gray" /></g>
<g><line x1="120.424" y1="74.3943" x2="121.276" y2="71.0998" class="gray" /></g>
<g><line x1="122.407" y1="67.1538" x2="123.463" y2="63.8003" class="gray" /></g>
<g><line x1="123.996" y1="59.7906" x2="123.854" y2="56.3334" class="gray" /></g>
<g><line x1="125.422" y1="53.063" x2="128.338" y2="50.9111" class="gray" /></g>
<g><line x1="131.963" y1="50.2593" x2="135.287" y2="51.2148" class="gray" /></g>
<g><line x1="137.985" y1="53.7027" x2="139.205" y2="56.9313" class="gray" /></g>
<g><line x1="138.78" y1="60.5529" x2="136.78" y2="63.5112" class="gray" /></g>
<g><line x1="135.119" y1="67.2004" x2="134.271" y2="70.4936" class="gray" /></g>
<g><line x1="133.249" y1="74.4704" x2="132.401" y2="77.7636" class="gray" /></g>
<g><line x1="133.529" y1="80.9887" x2="136.281" y2="83.0654" class="gray" /></g>
<g><line x1="139.12" y1="85.968" x2="141.07" y2="88.676" class="gray" /></g>
<g><line x1="144.243" y1="89.7741" x2="147.557" y2="88.82" class="gray" /></g>
<g><line x1="151.499" y1="87.6718" x2="154.621" y2="86.7523" class="gray" /></g>
<g><line x1="157.934" y1="84.62" x2="160.286" y2="81.9041" class="gray" /></g>
<g><line x1="163.66" y1="80.045" x2="167.27" y2="79.4991" class="gray" /></g>
<g><line x1="171.032" y1="80.2943" x2="173.948" y2="82.1498" class="gray" /></g>
<g><line x1="176.245" y1="85.2259" x2="177.195" y2="88.5481" class="gray" /></g>
<g><line x1="176.788" y1="92.3306" x2="175.062" y2="95.5435" class="gray" /></g>
<g><line x1="172.211" y1="98.1799" x2="169.229" y2="99.4941" class="gray" /></g>
<g><line x1="165.401" y1="99.676" x2="162.119" y2="98.588" class="gray" /></g>
<g><line x1="158.192" y1="98.4928" x2="154.678" y2="99.4713" class="gray" /></g>
<g><line x1="150.726" y1="100.587" x2="147.404" y2="101.537" class="gray" /></g>
<g><line x1="145.362" y1="104.154" x2="145.248" y2="107.58" class="gray" /></g>
<g><line x1="144.35" y1="111.51" x2="142.89" y2="114.814" class="gray" /></g>
<g><line x1="140.862" y1="118.359" x2="138.918" y2="121.065" class="gray" /></g>
<g><line x1="136.06" y1="123.94" x2="133.13" y2="126.074" class="gray" /></g>
<g><line x1="129.561" y1="128.037" x2="126.529" y2="129.237" class="gray" /></g>
<g><line x1="124.62" y1="132.045" x2="124.62" y2="135.499" class="gray" /></g>
<g><line x1="124.677" y1="139.604" x2="124.773" y2="143.06" class="gray" /></g>
<g><line x1="124.773" y1="147.164" x2="124.677" y2="150.62" class="gray" /></g>
<g><line x1="124.62" y1="154.725" x2="124.62" y2="158.179" class="gray" /></g>
<g><line x1="124.62" y1="162.285" x2="124.62" y2="165.739" class="gray" /></g>
<g><line x1="124.677" y1="169.844" x2="124.773" y2="173.3" class="gray" /></g>
<g><line x1="124.716" y1="177.402" x2="124.524" y2="180.862" class="gray" /></g>
<g><line x1="124.467" y1="184.964" x2="124.563" y2="188.42" class="gray" /></g>
<g><line x1="124.677" y1="192.524" x2="124.773" y2="195.98" class="gray" /></g>
<g><line x1="124.773" y1="200.084" x2="124.677" y2="203.54" class="gray" /></g>
<g><line x1="126.673" y1="205.592" x2="129.567" y2="205.592" class="gray" /></g>
</svg>
