<svg
	xmlns="http://www.w3.org/2000/svg"
	width="242.89"
	height="236.74">
<g><style type="text/css" >
<!-- create color definitions -->
<![CDATA[
circle.red {stroke: rgb(255, 0, 255); fill: none; }
circle.green {stroke: rgb(0, 255, 0); fill: none; }
circle.blue {stroke: rgb(0, 0, 255); fill: none; }
circle.black {stroke: rgb(0, 0, 0); fill: none; }
circle.gray {stroke: rgb(204, 204, 204); fill: none; }
circle.brown {stroke: rgb(211.65, 104.55, 30.6); fill: none; }
line.red {stroke: rgb(255, 0, 255); stroke-width: 0.381536; }
line.green {stroke: rgb(0, 255, 0); stroke-width: 0.381536; }
line.blue {stroke: rgb(0, 0, 255); stroke-width: 0.381536; }
line.black {stroke: rgb(0, 0, 0); stroke-width: 0.381536; }
line.gray {stroke: rgb(204, 204, 204); stroke-width: 0.381536; }
line.brown {stroke: rgb(211.65, 104.55, 30.6); stroke-width: 0.381536; }
line {stroke: rgb(0, 0, 0); }
text.red {fill: rgb(255, 0, 255); font-size: 3.052288px; font-weight: bold; font-family: Helvetica; }
text.green {fill: rgb(0, 255, 0); font-size: 3.052288px; font-weight: bold; font-family: Helvetica; }
text.blue {fill: rgb(0, 0, 255); font-size: 3.052288px; font-weight: bold; font-family: Helvetica; }
text.black {fill: rgb(0, 0, 0); font-size: 3.052288px; font-weight: bold; font-family: Helvetica; }
text.gray {fill: rgb(204, 204, 204); font-size: 3.052288px; font-weight: bold; font-family: Helvetica; }
text.brown {fill: rgb(211.65, 104.55, 30.6); font-size: 3.052288px; font-weight: bold; font-family: Helvetica; }
text {fill: rgb(0, 0, 0); font-size: 3.052288px; font-weight: bold; font-family: Helvetica; text-anchor: middle; alignment-baseline: middle; }

.pseudoknot_connection{stroke-linecap: round; stroke-opacity: 0.2; stroke-width: 1.5; }
.pseudoknot_segment1{stroke-linecap: round; stroke-opacity: 0.4; stroke-width: 3.05229; }
.pseudoknot_segment2{stroke-linecap: round; stroke-opacity: 0.4; stroke-width: 3.05229; }
line.numbering-line{stroke: rgb(204, 204, 204); stroke-width: 0.190768; }
line.predicted{stroke: rgb(0, 0, 0); stroke-dasharray: 2; }
polyline{fill: none; stroke-linejoin: round; }
template{visibility: hidden; }
text.numbering-label{fill: rgb(204, 204, 204); }
]]>
</style></g>
<g><title>0 (position.label in template: 0.5')</title><text x="114.12" y="186.74" class="green" >5'</text></g>
<g><title>1 (position.label in template: 1.G)</title><text x="121.12" y="186.74" class="black" >G</text></g>
<g><line x1="123.155" y1="186.435" x2="131.535" y2="186.435" class="black" /></g>
<g><title>2 (position.label in template: 2.G)</title><text x="121.12" y="179.18" class="black" >G</text></g>
<g><line x1="123.155" y1="178.875" x2="131.535" y2="178.875" class="black" /></g>
<g><title>3 (position.label in template: 3.A)</title><text x="121.53" y="171.62" class="green" >A</text></g>
<g><line x1="123.565" y1="171.315" x2="131.535" y2="171.315" class="black" /></g>
<g><title>4 (position.label in template: 4.A)</title><text x="121.53" y="164.06" class="green" >A</text></g>
<g><line x1="123.565" y1="163.755" x2="131.535" y2="163.755" class="black" /></g>
<g><title>5 (position.label in template: 5.G)</title><text x="121.12" y="156.5" class="black" >G</text></g>
<g><line x1="123.155" y1="156.195" x2="131.535" y2="156.195" class="black" /></g>
<g><title>6 (position.label in template: 6.U)</title><text x="121.33" y="148.94" class="green" >T</text></g>
<g><line x1="123.365" y1="148.635" x2="131.535" y2="148.635" class="black" /></g>
<g><title>7 (position.label in template: 7.C)</title><text x="121.33" y="141.38" class="black" >C</text></g>
<g><line x1="123.365" y1="141.075" x2="131.325" y2="141.075" class="black" /></g>
<g><title>8 (position.label in template: 8.G)</title><text x="121.12" y="133.82" class="black" >G</text></g>
<g><line x1="123.155" y1="133.515" x2="131.535" y2="133.515" class="black" /></g>
<g><title>9 (position.label in template: 9.A)</title><text x="114.8" y="130.38" class="black" >A</text></g>
<g><title>10 (position.label in template: 10.G)</title><text x="109.28" y="124.8" class="black" >G</text></g>
<g><text x="103.555" y="128.593" class="numbering-label sequential" >10</text></g>
<g><line x1="107.753" y1="125.811" x2="105.386" y2="127.38" class="numbering-line sequential" /></g>
<g><title>11 (position.label in template: 11.G)</title><text x="106.46" y="117.79" class="black" >G</text></g>
<g><line x1="106.677" y1="115.462" x2="107.553" y2="107.318" class="black" /></g>
<g><title>12 (position.label in template: 12.G)</title><text x="98.93" y="117.11" class="black" >G</text></g>
<g><line x1="99.1474" y1="114.782" x2="100.023" y2="106.638" class="black" /></g>
<g><title>13 (position.label in template: 13.C)</title><text x="91.61" y="116.44" class="black" >C</text></g>
<g><line x1="91.7582" y1="114.105" x2="92.3518" y2="105.974" class="black" /></g>
<g><title>14 (position.label in template: 14.A)</title><text x="84.29" y="115.76" class="green" >A</text></g>
<g><line x1="84.4382" y1="113.425" x2="85.0318" y2="105.294" class="black" /></g>
<g><title>15 (position.label in template: 15.G)</title><text x="76.34" y="115.09" class="black" >G</text></g>
<g><line x1="76.5572" y1="112.762" x2="77.4328" y2="104.608" class="black" /></g>
<g><title>16 (position.label in template: 16.A)</title><text x="71.31" y="120.33" class="black" >A</text></g>
<g><title>17 (position.label in template: 17.A)</title><text x="63.94" y="122.02" class="black" >A</text></g>
<g><title>18 (position.label in template: 18.A)</title><text x="56.75" y="119.7" class="black" >A</text></g>
<g><title>19 (position.label in template: 19.A)</title><text x="51.77" y="114.01" class="black" >A</text></g>
<g><title>20 (position.label in template: 20.G)</title><text x="50" y="106.57" class="black" >G</text></g>
<g><text x="43.1452" y="106.15" class="numbering-label sequential" >20</text></g>
<g><line x1="48.1721" y1="106.458" x2="44.9766" y2="106.262" class="numbering-line sequential" /></g>
<g><title>21 (position.label in template: 21.G)</title><text x="52.66" y="99.5" class="black" >G</text></g>
<g><title>22 (position.label in template: 22.U)</title><text x="58.78" y="94.79" class="green" >T</text></g>
<g><title>23 (position.label in template: 23.U)</title><text x="66.27" y="93.78" class="green" >T</text></g>
<g><title>24 (position.label in template: 24.C)</title><text x="73.22" y="96.77" class="black" >C</text></g>
<g><title>25 (position.label in template: 25.C)</title><text x="77.65" y="102.89" class="black" >C</text></g>
<g><title>26 (position.label in template: 26.U)</title><text x="85.18" y="103.57" class="green" >T</text></g>
<g><title>27 (position.label in template: 27.G)</title><text x="92.5" y="104.25" class="black" >G</text></g>
<g><title>28 (position.label in template: 28.C)</title><text x="100.24" y="104.92" class="black" >C</text></g>
<g><title>29 (position.label in template: 29.C)</title><text x="107.77" y="105.6" class="black" >C</text></g>
<g><title>30 (position.label in template: 30.G)</title><text x="111.58" y="99.2" class="black" >G</text></g>
<g><text x="106.512" y="94.5656" class="numbering-label sequential" >30</text></g>
<g><line x1="110.228" y1="97.9642" x2="108.343" y2="96.2402" class="numbering-line sequential" /></g>
<g><title>31 (position.label in template: 31.C)</title><text x="117.81" y="94.62" class="black" >C</text></g>
<g><line x1="119.811" y1="93.946" x2="127.639" y2="92.5035" class="black" /></g>
<g><title>32 (position.label in template: 32.A)</title><text x="116.66" y="87.18" class="green" >A</text></g>
<g><line x1="118.661" y1="86.5063" x2="126.499" y2="85.0632" class="black" /></g>
<g><title>33 (position.label in template: 33.C)</title><text x="115.11" y="79.74" class="black" >C</text></g>
<g><line x1="117.111" y1="79.0663" x2="124.949" y2="77.6232" class="black" /></g>
<g><title>34 (position.label in template: 34.C)</title><text x="113.76" y="72.3" class="black" >C</text></g>
<g><line x1="115.761" y1="71.6263" x2="123.599" y2="70.1832" class="black" /></g>
<g><title>35 (position.label in template: 35.U)</title><text x="112.42" y="64.86" class="green" >T</text></g>
<g><line x1="114.423" y1="64.1983" x2="122.667" y2="62.7313" class="black" /></g>
<g><title>36 (position.label in template: 36.G)</title><text x="108.78" y="58.12" class="black" >G</text></g>
<g><title>37 (position.label in template: 37.A)</title><text x="112.55" y="51.35" class="black" >A</text></g>
<g><title>38 (position.label in template: 38.G)</title><text x="119.58" y="50" class="black" >G</text></g>
<g><title>39 (position.label in template: 39.A)</title><text x="125.51" y="55.17" class="black" >A</text></g>
<g><title>40 (position.label in template: 40.A)</title><text x="124.67" y="62.68" class="green" >A</text></g>
<g><title>41 (position.label in template: 41.G)</title><text x="125.6" y="70.12" class="black" >G</text></g>
<g><title>42 (position.label in template: 42.G)</title><text x="126.95" y="77.56" class="black" >G</text></g>
<g><title>43 (position.label in template: 43.U)</title><text x="128.5" y="85" class="green" >T</text></g>
<g><title>44 (position.label in template: 44.A)</title><text x="134.48" y="80.11" class="black" >A</text></g>
<g><title>45 (position.label in template: 45.U)</title><text x="141.39" y="82.66" class="green" >T</text></g>
<g><title>46 (position.label in template: 46.C)</title><text x="142.73" y="90.1" class="black" >C</text></g>
<g><title>47 (position.label in template: 47.U)</title><text x="136.97" y="94.99" class="green" >T</text></g>
<g><title>48 (position.label in template: 48.G)</title><text x="129.64" y="92.44" class="black" >G</text></g>
<g><title>49 (position.label in template: 49.A)</title><text x="137.29" y="94.62" class="black" >A</text></g>
<g><title>50 (position.label in template: 50.G)</title><text x="142.89" y="99.2" class="black" >G</text></g>
<g><text x="147.958" y="94.5656" class="numbering-label sequential" >50</text></g>
<g><line x1="144.242" y1="97.9642" x2="146.289" y2="96.0918" class="numbering-line sequential" /></g>
<g><title>51 (position.label in template: 51.A)</title><text x="147.33" y="105.6" class="black" >A</text></g>
<g><title>52 (position.label in template: 52.U)</title><text x="148.65" y="113" class="green" >T</text></g>
<g><title>53 (position.label in template: 53.G)</title><text x="147.27" y="120.47" class="black" >G</text></g>
<g><line x1="146.099" y1="121.829" x2="141.471" y2="128.41" class="black" /></g>
<g><title>54 (position.label in template: 54.C)</title><text x="153.61" y="124.91" class="black" >C</text></g>
<g><line x1="152.393" y1="126.235" x2="147.427" y2="132.884" class="black" /></g>
<g><title>55 (position.label in template: 55.U)</title><text x="159.73" y="129.35" class="green" >T</text></g>
<g><line x1="158.558" y1="130.708" x2="153.922" y2="137.291" class="black" /></g>
<g><title>56 (position.label in template: 56.G)</title><text x="165.64" y="133.78" class="black" >G</text></g>
<g><line x1="164.469" y1="135.139" x2="159.841" y2="141.72" class="black" /></g>
<g><title>57 (position.label in template: 57.G)</title><text x="171.76" y="138.22" class="black" >G</text></g>
<g><line x1="170.589" y1="139.579" x2="165.961" y2="146.16" class="black" /></g>
<g><title>58 (position.label in template: 58.G)</title><text x="179.12" y="136.51" class="black" >G</text></g>
<g><title>59 (position.label in template: 59.U)</title><text x="186.53" y="138.82" class="green" >T</text></g>
<g><title>60 (position.label in template: 60.A)</title><text x="191.73" y="144.5" class="black" >A</text></g>
<g><title>61 (position.label in template: 61.C)</title><text x="192.89" y="151.93" class="black" >C</text></g>
<g><title>62 (position.label in template: 62.G)</title><text x="190.03" y="159.02" class="black" >G</text></g>
<g><title>63 (position.label in template: 63.C)</title><text x="184.34" y="163.74" class="black" >C</text></g>
<g><title>64 (position.label in template: 64.C)</title><text x="176.84" y="164.75" class="black" >C</text></g>
<g><title>65 (position.label in template: 65.G)</title><text x="169.68" y="161.78" class="black" >G</text></g>
<g><title>66 (position.label in template: 66.A)</title><text x="165.66" y="155.66" class="black" >A</text></g>
<g><title>67 (position.label in template: 67.C)</title><text x="164.79" y="148.13" class="black" >C</text></g>
<g><title>68 (position.label in template: 68.C)</title><text x="158.67" y="143.69" class="black" >C</text></g>
<g><title>69 (position.label in template: 69.A)</title><text x="152.75" y="139.26" class="green" >A</text></g>
<g><title>70 (position.label in template: 70.G)</title><text x="146.21" y="134.82" class="black" >G</text></g>
<g><title>71 (position.label in template: 71.C)</title><text x="140.3" y="130.38" class="black" >C</text></g>
<g><title>72 (position.label in template: 72.C)</title><text x="133.57" y="133.82" class="black" >C</text></g>
<g><title>73 (position.label in template: 73.G)</title><text x="133.36" y="141.38" class="black" >G</text></g>
<g><title>74 (position.label in template: 74.U)</title><text x="133.57" y="148.94" class="green" >T</text></g>
<g><title>75 (position.label in template: 75.C)</title><text x="133.57" y="156.5" class="black" >C</text></g>
<g><title>76 (position.label in template: 76.U)</title><text x="133.57" y="164.06" class="green" >T</text></g>
<g><title>77 (position.label in template: 77.U)</title><text x="133.57" y="171.62" class="green" >T</text></g>
<g><title>78 (position.label in template: 78.C)</title><text x="133.57" y="179.18" class="black" >C</text></g>
<g><title>79 (position.label in template: 79.C)</title><text x="133.57" y="186.74" class="black" >C</text></g>
<g><title>80 (position.label in template: 80.3')</title><text x="140.57" y="186.74" class="green" >3'</text></g>
<g><line x1="116.155" y1="186.435" x2="119.085" y2="186.435" class="gray" /></g>
<g><line x1="121.12" y1="184.4" x2="121.12" y2="180.91" class="gray" /></g>
<g><line x1="121.23" y1="176.843" x2="121.42" y2="173.347" class="gray" /></g>
<g><line x1="121.53" y1="169.28" x2="121.53" y2="165.79" class="gray" /></g>
<g><line x1="121.42" y1="161.723" x2="121.23" y2="158.227" class="gray" /></g>
<g><line x1="121.177" y1="154.161" x2="121.273" y2="150.669" class="gray" /></g>
<g><line x1="121.33" y1="146.6" x2="121.33" y2="143.11" class="gray" /></g>
<g><line x1="121.273" y1="139.041" x2="121.177" y2="135.549" class="gray" /></g>
<g><line x1="119.333" y1="132.542" x2="116.587" y2="131.048" class="gray" /></g>
<g><line x1="113.369" y1="128.628" x2="110.711" y2="125.941" class="gray" /></g>
<g><line x1="108.521" y1="122.607" x2="107.219" y2="119.373" class="gray" /></g>
<g><line x1="104.433" y1="117.302" x2="100.957" y2="116.988" class="gray" /></g>
<g><line x1="96.9036" y1="116.619" x2="93.6364" y2="116.32" class="gray" /></g>
<g><line x1="89.5839" y1="115.947" x2="86.3161" y2="115.643" class="gray" /></g>
<g><line x1="82.2623" y1="115.284" x2="78.3677" y2="114.956" class="gray" /></g>
<g><line x1="74.9309" y1="116.253" x2="72.7191" y2="118.557" class="gray" /></g>
<g><line x1="69.3266" y1="120.48" x2="65.9234" y2="121.26" class="gray" /></g>
<g><line x1="62.0035" y1="121.09" x2="58.6865" y2="120.02" class="gray" /></g>
<g><line x1="55.4098" y1="117.864" x2="53.1102" y2="115.236" class="gray" /></g>
<g><line x1="51.299" y1="111.725" x2="50.471" y2="108.244" class="gray" /></g>
<g><line x1="50.7166" y1="104.36" x2="51.9434" y2="101.099" class="gray" /></g>
<g><line x1="54.2726" y1="97.9537" x2="57.1674" y2="95.7258" class="gray" /></g>
<g><line x1="60.7966" y1="94.2128" x2="64.2534" y2="93.7467" class="gray" /></g>
<g><line x1="68.1392" y1="94.2789" x2="71.3508" y2="95.6606" class="gray" /></g>
<g><line x1="74.4132" y1="98.1131" x2="76.4568" y2="100.936" class="gray" /></g>
<g><line x1="79.6766" y1="102.768" x2="83.1534" y2="103.082" class="gray" /></g>
<g><line x1="87.2061" y1="103.453" x2="90.4739" y2="103.757" class="gray" /></g>
<g><line x1="94.5273" y1="104.12" x2="98.2127" y2="104.439" class="gray" /></g>
<g><line x1="102.267" y1="104.798" x2="105.743" y2="105.112" class="gray" /></g>
<g><line x1="108.811" y1="103.546" x2="110.539" y2="100.643" class="gray" /></g>
<g><line x1="113.219" y1="97.6895" x2="116.171" y2="95.5201" class="gray" /></g>
<g><line x1="117.499" y1="92.3038" x2="116.971" y2="88.8857" class="gray" /></g>
<g><line x1="116.245" y1="84.8827" x2="115.525" y2="81.4269" class="gray" /></g>
<g><line x1="114.747" y1="77.4326" x2="114.123" y2="73.9969" class="gray" /></g>
<g><line x1="113.399" y1="69.9921" x2="112.781" y2="66.5574" class="gray" /></g>
<g><line x1="111.453" y1="62.7643" x2="109.747" y2="59.6052" class="gray" /></g>
<g><line x1="109.77" y1="56.037" x2="111.56" y2="52.8226" class="gray" /></g>
<g><line x1="114.548" y1="50.661" x2="117.582" y2="50.0785" class="gray" /></g>
<g><line x1="121.114" y1="51.032" x2="123.976" y2="53.5276" class="gray" /></g>
<g><line x1="125.284" y1="56.887" x2="124.896" y2="60.3525" class="gray" /></g>
<g><line x1="124.922" y1="64.3939" x2="125.348" y2="67.7956" class="gray" /></g>
<g><line x1="125.963" y1="71.8169" x2="126.587" y2="75.2526" class="gray" /></g>
<g><line x1="127.365" y1="79.2469" x2="128.085" y2="82.7027" class="gray" /></g>
<g><line x1="130.075" y1="83.4067" x2="132.905" y2="81.0929" class="gray" /></g>
<g><line x1="136.389" y1="80.5093" x2="139.481" y2="81.6503" class="gray" /></g>
<g><line x1="141.751" y1="84.3574" x2="142.369" y2="87.7921" class="gray" /></g>
<g><line x1="141.179" y1="91.1117" x2="138.521" y2="93.3678" class="gray" /></g>
<g><line x1="135.048" y1="94.0162" x2="131.562" y2="92.8034" class="gray" /></g>
<g><line x1="131.597" y1="92.6924" x2="135.333" y2="93.7571" class="gray" /></g>
<g><line x1="138.865" y1="95.603" x2="141.315" y2="97.6065" class="gray" /></g>
<g><line x1="144.05" y1="100.567" x2="146.17" y2="103.623" class="gray" /></g>
<g><line x1="147.687" y1="107.298" x2="148.293" y2="110.692" class="gray" /></g>
<g><line x1="148.28" y1="114.696" x2="147.64" y2="118.164" class="gray" /></g>
<g><line x1="148.937" y1="121.332" x2="151.943" y2="123.438" class="gray" /></g>
<g><line x1="155.257" y1="125.8" x2="158.083" y2="127.85" class="gray" /></g>
<g><line x1="161.358" y1="130.265" x2="164.012" y2="132.254" class="gray" /></g>
<g><line x1="167.287" y1="134.67" x2="170.113" y2="136.72" class="gray" /></g>
<g><line x1="173.742" y1="137.454" x2="177.138" y2="136.665" class="gray" /></g>
<g><line x1="181.063" y1="136.81" x2="184.587" y2="137.909" class="gray" /></g>
<g><line x1="187.904" y1="140.016" x2="190.356" y2="142.694" class="gray" /></g>
<g><line x1="192.044" y1="146.205" x2="192.576" y2="149.614" class="gray" /></g>
<g><line x1="192.129" y1="153.512" x2="190.791" y2="156.828" class="gray" /></g>
<g><line x1="188.464" y1="160.014" x2="185.906" y2="162.136" class="gray" /></g>
<g><line x1="182.323" y1="163.706" x2="178.857" y2="164.173" class="gray" /></g>
<g><line x1="174.96" y1="163.665" x2="171.56" y2="162.254" class="gray" /></g>
<g><line x1="168.563" y1="159.774" x2="166.777" y2="157.056" class="gray" /></g>
<g><line x1="165.426" y1="153.333" x2="165.024" y2="149.846" class="gray" /></g>
<g><line x1="163.143" y1="146.63" x2="160.317" y2="144.58" class="gray" /></g>
<g><line x1="157.041" y1="142.166" x2="154.379" y2="140.174" class="gray" /></g>
<g><line x1="151.066" y1="137.812" x2="147.894" y2="135.658" class="gray" /></g>
<g><line x1="144.583" y1="133.293" x2="141.927" y2="131.297" class="gray" /></g>
<g><line x1="138.488" y1="131.001" x2="135.382" y2="132.589" class="gray" /></g>
<g><line x1="133.513" y1="135.549" x2="133.417" y2="139.041" class="gray" /></g>
<g><line x1="133.417" y1="143.109" x2="133.513" y2="146.601" class="gray" /></g>
<g><line x1="133.57" y1="150.67" x2="133.57" y2="154.16" class="gray" /></g>
<g><line x1="133.57" y1="158.23" x2="133.57" y2="161.72" class="gray" /></g>
<g><line x1="133.57" y1="165.79" x2="133.57" y2="169.28" class="gray" /></g>
<g><line x1="133.57" y1="173.35" x2="133.57" y2="176.84" class="gray" /></g>
<g><line x1="133.57" y1="180.91" x2="133.57" y2="184.4" class="gray" /></g>
<g><line x1="135.605" y1="186.435" x2="138.535" y2="186.435" class="gray" /></g>
</svg>
