<svg
	xmlns="http://www.w3.org/2000/svg"
	width="205.86"
	height="225.94">
<g><style type="text/css" >
<!-- create color definitions -->
<![CDATA[
circle.red {stroke: rgb(255, 0, 255); fill: none; }
circle.green {stroke: rgb(0, 255, 0); fill: none; }
circle.blue {stroke: rgb(0, 0, 255); fill: none; }
circle.black {stroke: rgb(0, 0, 0); fill: none; }
circle.gray {stroke: rgb(204, 204, 204); fill: none; }
circle.brown {stroke: rgb(211.65, 104.55, 30.6); fill: none; }
line.red {stroke: rgb(255, 0, 255); stroke-width: 0.383585; }
line.green {stroke: rgb(0, 255, 0); stroke-width: 0.383585; }
line.blue {stroke: rgb(0, 0, 255); stroke-width: 0.383585; }
line.black {stroke: rgb(0, 0, 0); stroke-width: 0.383585; }
line.gray {stroke: rgb(204, 204, 204); stroke-width: 0.383585; }
line.brown {stroke: rgb(211.65, 104.55, 30.6); stroke-width: 0.383585; }
line {stroke: rgb(0, 0, 0); }
text.red {fill: rgb(255, 0, 255); font-size: 3.068684px; font-weight: bold; font-family: Helvetica; }
text.green {fill: rgb(0, 255, 0); font-size: 3.068684px; font-weight: bold; font-family: Helvetica; }
text.blue {fill: rgb(0, 0, 255); font-size: 3.068684px; font-weight: bold; font-family: Helvetica; }
text.black {fill: rgb(0, 0, 0); font-size: 3.068684px; font-weight: bold; font-family: Helvetica; }
text.gray {fill: rgb(204, 204, 204); font-size: 3.068684px; font-weight: bold; font-family: Helvetica; }
text.brown {fill: rgb(211.65, 104.55, 30.6); font-size: 3.068684px; font-weight: bold; font-family: Helvetica; }
text {fill: rgb(0, 0, 0); font-size: 3.068684px; font-weight: bold; font-family: Helvetica; text-anchor: middle; alignment-baseline: middle; }

.pseudoknot_connection{stroke-linecap: round; stroke-opacity: 0.2; stroke-width: 1.5; }
.pseudoknot_segment1{stroke-linecap: round; stroke-opacity: 0.4; stroke-width: 3.06868; }
.pseudoknot_segment2{stroke-linecap: round; stroke-opacity: 0.4; stroke-width: 3.06868; }
line.numbering-line{stroke: rgb(204, 204, 204); stroke-width: 0.191793; }
line.predicted{stroke: rgb(0, 0, 0); stroke-dasharray: 2; }
polyline{fill: none; stroke-linejoin: round; }
template{visibility: hidden; }
text.numbering-label{fill: rgb(204, 204, 204); }
]]>
</style></g>
<g><title>0 (position.label in template: 0.5')</title><text x="90.4" y="175.51" class="green" >5'</text></g>
<g><title>1 (position.label in template: 1.G)</title><text x="90.4" y="167.95" class="black" >G</text></g>
<g><line x1="92.4458" y1="167.643" x2="100.804" y2="167.643" class="black" /></g>
<g><title>2 (position.label in template: 2.G)</title><text x="90.4" y="160.39" class="black" >G</text></g>
<g><line x1="92.4458" y1="160.083" x2="100.804" y2="160.083" class="black" /></g>
<g><title>3 (position.label in template: 3.G)</title><text x="90.4" y="152.83" class="green" >G</text></g>
<g><line x1="92.4458" y1="152.523" x2="100.804" y2="152.523" class="black" /></g>
<g><title>4 (position.label in template: 4.G)</title><text x="90.4" y="145.27" class="black" >G</text></g>
<g><line x1="92.4458" y1="144.963" x2="100.804" y2="144.963" class="black" /></g>
<g><title>5 (position.label in template: 5.A)</title><text x="83.92" y="142.16" class="black" >A</text></g>
<g><title>6 (position.label in template: 6.U)</title><text x="78.16" y="137.04" class="green" >T</text></g>
<g><title>7 (position.label in template: 7.U)</title><text x="74.51" y="130.41" class="green" >T</text></g>
<g><title>8 (position.label in template: 8.U)</title><text x="73.14" y="122.98" class="green" >T</text></g>
<g><title>9 (position.label in template: 9.A)</title><text x="74.4" y="115.49" class="black" >A</text></g>
<g><title>10 (position.label in template: 10.G)</title><text x="77.35" y="108.72" class="black" >G</text></g>
<g><line x1="78.9477" y1="107.135" x2="85.4423" y2="101.941" class="black" /></g>
<g><text x="70.5017" y="109.599" class="numbering-label sequential" >10</text></g>
<g><line x1="75.5238" y1="108.954" x2="72.3429" y2="109.363" class="numbering-line sequential" /></g>
<g><title>11 (position.label in template: 11.C)</title><text x="72.78" y="102.87" class="black" >C</text></g>
<g><line x1="74.3488" y1="101.25" x2="80.4712" y2="96.1261" class="black" /></g>
<g><title>12 (position.label in template: 12.U)</title><text x="67.99" y="97.02" class="green" >T</text></g>
<g><line x1="69.587" y1="95.4345" x2="76.073" y2="90.2417" class="black" /></g>
<g><title>13 (position.label in template: 13.C)</title><text x="63.2" y="91.17" class="black" >C</text></g>
<g><line x1="64.7695" y1="89.551" x2="70.9005" y2="84.4253" class="black" /></g>
<g><title>14 (position.label in template: 14.A)</title><text x="55.97" y="89.8" class="black" >A</text></g>
<g><title>15 (position.label in template: 15.G)</title><text x="50.47" y="84.21" class="black" >G</text></g>
<g><title>16 (position.label in template: 16.U)</title><text x="50" y="76.68" class="green" >T</text></g>
<g><title>17 (position.label in template: 17.G)</title><text x="53.81" y="70.28" class="black" >G</text></g>
<g><title>18 (position.label in template: 18.G)</title><text x="60.88" y="67.61" class="black" >G</text></g>
<g><title>19 (position.label in template: 19.U)</title><text x="68.34" y="69.76" class="green" >T</text></g>
<g><title>20 (position.label in template: 20.A)</title><text x="73.01" y="75.86" class="black" >A</text></g>
<g><text x="79.6191" y="73.8618" class="numbering-label sequential" >20</text></g>
<g><line x1="74.7724" y1="75.3271" x2="77.7779" y2="74.4185" class="numbering-line sequential" /></g>
<g><title>21 (position.label in template: 21.G)</title><text x="72.47" y="83.42" class="black" >G</text></g>
<g><title>22 (position.label in template: 22.A)</title><text x="77.67" y="89.27" class="green" >A</text></g>
<g><title>23 (position.label in template: 23.G)</title><text x="82.04" y="95.12" class="black" >G</text></g>
<g><title>24 (position.label in template: 24.C)</title><text x="87.04" y="100.97" class="black" >C</text></g>
<g><title>25 (position.label in template: 25.G)</title><text x="94.13" y="99.01" class="black" >G</text></g>
<g><title>26 (position.label in template: 26.C)</title><text x="101.89" y="99.46" class="black" >C</text></g>
<g><line x1="103.694" y1="100.117" x2="110.716" y2="103.869" class="black" /></g>
<g><title>27 (position.label in template: 27.U)</title><text x="105.4" y="92.77" class="green" >T</text></g>
<g><line x1="107.219" y1="93.3991" x2="114.621" y2="97.2072" class="black" /></g>
<g><title>28 (position.label in template: 28.U)</title><text x="108.9" y="86.07" class="green" >T</text></g>
<g><line x1="110.719" y1="86.6984" x2="118.131" y2="90.5079" class="black" /></g>
<g><title>29 (position.label in template: 29.G)</title><text x="112.2" y="79.37" class="black" >G</text></g>
<g><line x1="114.019" y1="79.999" x2="121.441" y2="83.8172" class="black" /></g>
<g><title>30 (position.label in template: 30.C)</title><text x="115.92" y="72.68" class="black" >C</text></g>
<g><line x1="117.724" y1="73.3373" x2="124.746" y2="77.089" class="black" /></g>
<g><text x="109.033" y="72.1934" class="numbering-label sequential" >30</text></g>
<g><line x1="114.083" y1="72.5502" x2="110.874" y2="72.3235" class="numbering-line sequential" /></g>
<g><title>31 (position.label in template: 31.C)</title><text x="113.17" y="65.64" class="black" >C</text></g>
<g><title>32 (position.label in template: 32.U)</title><text x="114.42" y="58.18" class="green" >T</text></g>
<g><title>33 (position.label in template: 33.A)</title><text x="119.53" y="52.43" class="black" >A</text></g>
<g><title>34 (position.label in template: 34.G)</title><text x="126.28" y="50" class="black" >G</text></g>
<g><title>35 (position.label in template: 35.G)</title><text x="133.67" y="51.6" class="black" >G</text></g>
<g><title>36 (position.label in template: 36.A)</title><text x="139.6" y="56.77" class="black" >A</text></g>
<g><title>37 (position.label in template: 37.A)</title><text x="141.69" y="64.04" class="black" >A</text></g>
<g><title>38 (position.label in template: 38.G)</title><text x="139.33" y="71.34" class="black" >G</text></g>
<g><title>39 (position.label in template: 39.U)</title><text x="134.12" y="76.62" class="green" >T</text></g>
<g><title>40 (position.label in template: 40.G)</title><text x="126.55" y="78.36" class="black" >G</text></g>
<g><title>41 (position.label in template: 41.C)</title><text x="123.26" y="85.06" class="black" >C</text></g>
<g><title>42 (position.label in template: 42.A)</title><text x="119.95" y="91.75" class="green" >A</text></g>
<g><title>43 (position.label in template: 43.A)</title><text x="116.44" y="98.45" class="green" >A</text></g>
<g><title>44 (position.label in template: 44.G)</title><text x="112.52" y="105.14" class="black" >G</text></g>
<g><title>45 (position.label in template: 45.G)</title><text x="117.18" y="111.09" class="black" >G</text></g>
<g><title>46 (position.label in template: 46.C)</title><text x="119.93" y="118.21" class="black" >C</text></g>
<g><title>47 (position.label in template: 47.U)</title><text x="120.09" y="125.77" class="green" >T</text></g>
<g><title>48 (position.label in template: 48.C)</title><text x="117.85" y="132.99" class="black" >C</text></g>
<g><line x1="116.475" y1="134.198" x2="110.905" y2="140.338" class="black" /></g>
<g><title>49 (position.label in template: 49.U)</title><text x="123.51" y="138" class="green" >T</text></g>
<g><line x1="122.175" y1="139.243" x2="116.945" y2="145.313" class="black" /></g>
<g><title>50 (position.label in template: 50.G)</title><text x="128.97" y="143.01" class="black" >G</text></g>
<g><line x1="127.635" y1="144.253" x2="122.405" y2="150.323" class="black" /></g>
<g><text x="133.592" y="137.881" class="numbering-label sequential" >50</text></g>
<g><line x1="130.203" y1="141.642" x2="132.209" y2="139.415" class="numbering-line sequential" /></g>
<g><title>51 (position.label in template: 51.G)</title><text x="134.63" y="148.02" class="black" >G</text></g>
<g><line x1="133.295" y1="149.263" x2="128.065" y2="155.333" class="black" /></g>
<g><title>52 (position.label in template: 52.G)</title><text x="140.29" y="153.03" class="black" >G</text></g>
<g><line x1="138.955" y1="154.273" x2="133.725" y2="160.343" class="black" /></g>
<g><title>53 (position.label in template: 53.U)</title><text x="148.06" y="153.19" class="green" >T</text></g>
<g><title>54 (position.label in template: 54.U)</title><text x="153.98" y="157.89" class="green" >T</text></g>
<g><title>55 (position.label in template: 55.C)</title><text x="155.86" y="165.21" class="black" >C</text></g>
<g><title>56 (position.label in template: 56.G)</title><text x="152.71" y="172.18" class="black" >G</text></g>
<g><title>57 (position.label in template: 57.G)</title><text x="146.15" y="175.94" class="black" >G</text></g>
<g><title>58 (position.label in template: 58.U)</title><text x="138.86" y="174.98" class="green" >T</text></g>
<g><title>59 (position.label in template: 59.C)</title><text x="133.48" y="169.68" class="black" >C</text></g>
<g><title>60 (position.label in template: 60.C)</title><text x="132.39" y="162.2" class="black" >C</text></g>
<g><title>61 (position.label in template: 61.C)</title><text x="126.73" y="157.19" class="black" >C</text></g>
<g><title>62 (position.label in template: 62.C)</title><text x="121.07" y="152.18" class="black" >C</text></g>
<g><title>63 (position.label in template: 63.A)</title><text x="115.61" y="147.17" class="green" >A</text></g>
<g><title>64 (position.label in template: 64.G)</title><text x="109.53" y="142.16" class="black" >G</text></g>
<g><title>65 (position.label in template: 65.C)</title><text x="102.85" y="145.27" class="black" >C</text></g>
<g><title>66 (position.label in template: 66.U)</title><text x="102.85" y="152.83" class="green" >T</text></g>
<g><title>67 (position.label in template: 67.C)</title><text x="102.85" y="160.39" class="black" >C</text></g>
<g><title>68 (position.label in template: 68.C)</title><text x="102.85" y="167.95" class="black" >C</text></g>
<g><title>69 (position.label in template: 69.G)</title><text x="108.088" y="173.402" class="black" >G</text></g>
<g><title>70 (position.label in template: 70.3')</title><text x="100.607" y="174.498" class="green" >3'</text></g>
<g><line x1="90.4" y1="173.157" x2="90.4" y2="169.689" class="gray" /></g>
<g><line x1="90.4" y1="165.597" x2="90.4" y2="162.129" class="gray" /></g>
<g><line x1="90.4" y1="158.037" x2="90.4" y2="154.569" class="gray" /></g>
<g><line x1="90.4" y1="150.477" x2="90.4" y2="147.009" class="gray" /></g>
<g><line x1="88.5556" y1="144.078" x2="85.7644" y2="142.738" class="gray" /></g>
<g><line x1="82.391" y1="140.494" x2="79.689" y2="138.092" class="gray" /></g>
<g><line x1="77.1734" y1="134.941" x2="75.4966" y2="131.895" class="gray" /></g>
<g><line x1="74.139" y1="128.091" x2="73.511" y2="124.685" class="gray" /></g>
<g><line x1="73.4794" y1="120.656" x2="74.0606" y2="117.201" class="gray" /></g>
<g><line x1="75.2172" y1="113.308" x2="76.5328" y2="110.289" class="gray" /></g>
<g><line x1="76.0906" y1="106.801" x2="74.0394" y2="104.175" class="gray" /></g>
<g><line x1="71.4839" y1="100.98" x2="69.2861" y2="98.296" class="gray" /></g>
<g><line x1="66.6939" y1="95.1303" x2="64.4961" y2="92.446" class="gray" /></g>
<g><line x1="61.19" y1="90.4823" x2="57.98" y2="89.874" class="gray" /></g>
<g><line x1="54.5352" y1="88.0348" x2="51.9048" y2="85.3614" class="gray" /></g>
<g><line x1="50.3426" y1="81.8613" x2="50.1274" y2="78.4149" class="gray" /></g>
<g><line x1="51.0465" y1="74.6153" x2="52.7635" y2="71.731" class="gray" /></g>
<g><line x1="55.7239" y1="69.2504" x2="58.9661" y2="68.0259" class="gray" /></g>
<g><line x1="62.8458" y1="67.8697" x2="66.3742" y2="68.8866" class="gray" /></g>
<g><line x1="69.5836" y1="71.0775" x2="71.7664" y2="73.9287" class="gray" /></g>
<g><line x1="72.8642" y1="77.5937" x2="72.6158" y2="81.0725" class="gray" /></g>
<g><line x1="73.8291" y1="84.6422" x2="76.3109" y2="87.4341" class="gray" /></g>
<g><line x1="78.8943" y1="90.6021" x2="80.8157" y2="93.1741" class="gray" /></g>
<g><line x1="83.3692" y1="96.3683" x2="85.7108" y2="99.108" class="gray" /></g>
<g><line x1="89.0118" y1="100.118" x2="92.1582" y2="99.2482" class="gray" /></g>
<g><line x1="96.1724" y1="98.8216" x2="99.8476" y2="99.0347" class="gray" /></g>
<g><line x1="102.84" y1="97.3415" x2="104.45" y2="94.2747" class="gray" /></g>
<g><line x1="106.347" y1="90.6498" x2="107.953" y2="87.5764" class="gray" /></g>
<g><line x1="109.804" y1="83.9279" x2="111.296" y2="80.8984" class="gray" /></g>
<g><line x1="113.194" y1="77.2752" x2="114.926" y2="74.1611" class="gray" /></g>
<g><line x1="115.176" y1="70.4676" x2="113.914" y2="67.2387" class="gray" /></g>
<g><line x1="113.508" y1="63.3155" x2="114.082" y2="59.8908" class="gray" /></g>
<g><line x1="115.779" y1="56.3439" x2="118.171" y2="53.6523" class="gray" /></g>
<g><line x1="121.455" y1="51.4302" x2="124.355" y2="50.3861" class="gray" /></g>
<g><line x1="128.279" y1="50.126" x2="131.671" y2="50.8602" class="gray" /></g>
<g><line x1="135.212" y1="52.6375" x2="138.058" y2="55.1187" class="gray" /></g>
<g><line x1="140.165" y1="58.4293" x2="141.125" y2="61.767" class="gray" /></g>
<g><line x1="141.061" y1="65.6797" x2="139.959" y2="69.0865" class="gray" /></g>
<g><line x1="137.893" y1="72.4893" x2="135.557" y2="74.8569" class="gray" /></g>
<g><line x1="132.126" y1="76.7714" x2="128.544" y2="77.5948" class="gray" /></g>
<g><line x1="125.648" y1="79.8895" x2="124.162" y2="82.9168" class="gray" /></g>
<g><line x1="122.353" y1="86.5868" x2="120.857" y2="89.6095" class="gray" /></g>
<g><line x1="119.001" y1="93.2553" x2="117.389" y2="96.331" class="gray" /></g>
<g><line x1="115.406" y1="99.9082" x2="113.554" y2="103.068" class="gray" /></g>
<g><line x1="113.781" y1="106.444" x2="115.919" y2="109.173" class="gray" /></g>
<g><line x1="117.917" y1="112.692" x2="119.193" y2="115.995" class="gray" /></g>
<g><line x1="119.973" y1="119.948" x2="120.047" y2="123.418" class="gray" /></g>
<g><line x1="119.484" y1="127.417" x2="118.456" y2="130.729" class="gray" /></g>
<g><line x1="119.382" y1="134.039" x2="121.978" y2="136.337" class="gray" /></g>
<g><line x1="125.017" y1="139.076" x2="127.463" y2="141.32" class="gray" /></g>
<g><line x1="130.502" y1="144.059" x2="133.098" y2="146.357" class="gray" /></g>
<g><line x1="136.162" y1="149.069" x2="138.758" y2="151.367" class="gray" /></g>
<g><line x1="142.335" y1="152.765" x2="146.015" y2="152.841" class="gray" /></g>
<g><line x1="149.662" y1="154.155" x2="152.378" y2="156.311" class="gray" /></g>
<g><line x1="154.489" y1="159.565" x2="155.351" y2="162.922" class="gray" /></g>
<g><line x1="155.017" y1="166.767" x2="153.553" y2="170.009" class="gray" /></g>
<g><line x1="150.935" y1="172.89" x2="147.925" y2="174.616" class="gray" /></g>
<g><line x1="144.122" y1="175.366" x2="140.888" y2="174.94" class="gray" /></g>
<g><line x1="137.403" y1="173.237" x2="134.937" y2="170.809" class="gray" /></g>
<g><line x1="133.185" y1="167.349" x2="132.685" y2="163.918" class="gray" /></g>
<g><line x1="130.858" y1="160.537" x2="128.262" y2="158.239" class="gray" /></g>
<g><line x1="125.198" y1="155.527" x2="122.602" y2="153.229" class="gray" /></g>
<g><line x1="119.563" y1="150.49" x2="117.117" y2="148.246" class="gray" /></g>
<g><line x1="114.031" y1="145.562" x2="111.109" y2="143.154" class="gray" /></g>
<g><line x1="107.675" y1="142.717" x2="104.705" y2="144.1" class="gray" /></g>
<g><line x1="102.85" y1="147.009" x2="102.85" y2="150.477" class="gray" /></g>
<g><line x1="102.85" y1="154.569" x2="102.85" y2="158.037" class="gray" /></g>
<g><line x1="102.85" y1="162.129" x2="102.85" y2="165.597" class="gray" /></g>
<g><line x1="104.267" y1="169.118" x2="106.67" y2="171.62" class="gray" /></g>
<g><line x1="106.063" y1="173.392" x2="102.632" y2="173.895" class="gray" /></g>
</svg>
