<svg
	xmlns="http://www.w3.org/2000/svg"
	width="205.44"
	height="248.35">
<g><style type="text/css" >
<!-- create color definitions -->
<![CDATA[
circle.red {stroke: rgb(255, 0, 255); fill: none; }
circle.green {stroke: rgb(0, 255, 0); fill: none; }
circle.blue {stroke: rgb(0, 0, 255); fill: none; }
circle.black {stroke: rgb(0, 0, 0); fill: none; }
circle.gray {stroke: rgb(204, 204, 204); fill: none; }
circle.brown {stroke: rgb(211.65, 104.55, 30.6); fill: none; }
line.red {stroke: rgb(255, 0, 255); stroke-width: 0.381524; }
line.green {stroke: rgb(0, 255, 0); stroke-width: 0.381524; }
line.blue {stroke: rgb(0, 0, 255); stroke-width: 0.381524; }
line.black {stroke: rgb(0, 0, 0); stroke-width: 0.381524; }
line.gray {stroke: rgb(204, 204, 204); stroke-width: 0.381524; }
line.brown {stroke: rgb(211.65, 104.55, 30.6); stroke-width: 0.381524; }
line {stroke: rgb(0, 0, 0); }
text.red {fill: rgb(255, 0, 255); font-size: 3.052195px; font-weight: bold; font-family: Helvetica; }
text.green {fill: rgb(0, 255, 0); font-size: 3.052195px; font-weight: bold; font-family: Helvetica; }
text.blue {fill: rgb(0, 0, 255); font-size: 3.052195px; font-weight: bold; font-family: Helvetica; }
text.black {fill: rgb(0, 0, 0); font-size: 3.052195px; font-weight: bold; font-family: Helvetica; }
text.gray {fill: rgb(204, 204, 204); font-size: 3.052195px; font-weight: bold; font-family: Helvetica; }
text.brown {fill: rgb(211.65, 104.55, 30.6); font-size: 3.052195px; font-weight: bold; font-family: Helvetica; }
text {fill: rgb(0, 0, 0); font-size: 3.052195px; font-weight: bold; font-family: Helvetica; text-anchor: middle; alignment-baseline: middle; }

.pseudoknot_connection{stroke-linecap: round; stroke-opacity: 0.2; stroke-width: 1.5; }
.pseudoknot_segment1{stroke-linecap: round; stroke-opacity: 0.4; stroke-width: 3.0522; }
.pseudoknot_segment2{stroke-linecap: round; stroke-opacity: 0.4; stroke-width: 3.0522; }
line.numbering-line{stroke: rgb(204, 204, 204); stroke-width: 0.190762; }
line.predicted{stroke: rgb(0, 0, 0); stroke-dasharray: 2; }
polyline{fill: none; stroke-linejoin: round; }
template{visibility: hidden; }
text.numbering-label{fill: rgb(204, 204, 204); }
]]>
</style></g>
<g><title>0 (position.label in template: 0.5')</title><text x="120.67" y="198.35" class="green" >5'</text></g>
<g><title>1 (position.label in template: 1.U)</title><text x="127.67" y="198.35" class="green" >T</text></g>
<g><line x1="129.705" y1="198.045" x2="137.665" y2="198.045" class="black" /></g>
<g><title>2 (position.label in template: 2.U)</title><text x="127.67" y="190.79" class="green" >T</text></g>
<g><line x1="129.705" y1="190.485" x2="137.665" y2="190.485" class="black" /></g>
<g><title>3 (position.label in template: 3.G)</title><text x="127.46" y="183.23" class="green" >G</text></g>
<g><line x1="129.495" y1="182.925" x2="137.875" y2="182.925" class="black" /></g>
<g><title>4 (position.label in template: 4.G)</title><text x="127.46" y="175.67" class="green" >G</text></g>
<g><line x1="129.495" y1="175.365" x2="137.875" y2="175.365" class="black" /></g>
<g><title>5 (position.label in template: 5.U)</title><text x="122.08" y="170.58" class="green" >T</text></g>
<g><title>6 (position.label in template: 6.A)</title><text x="120.21" y="163.31" class="black" >A</text></g>
<g><title>7 (position.label in template: 7.A)</title><text x="122.29" y="156.04" class="black" >A</text></g>
<g><title>8 (position.label in template: 8.C)</title><text x="127.67" y="150.96" class="black" >C</text></g>
<g><line x1="129.705" y1="150.655" x2="137.665" y2="150.655" class="black" /></g>
<g><title>9 (position.label in template: 9.U)</title><text x="127.67" y="143.4" class="green" >T</text></g>
<g><line x1="129.705" y1="143.095" x2="138.085" y2="143.095" class="black" /></g>
<g><title>10 (position.label in template: 10.C)</title><text x="127.67" y="135.84" class="black" >C</text></g>
<g><line x1="129.705" y1="135.535" x2="137.665" y2="135.535" class="black" /></g>
<g><text x="120.803" y="135.84" class="numbering-label sequential" >10</text></g>
<g><line x1="125.839" y1="135.84" x2="122.634" y2="135.84" class="numbering-line sequential" /></g>
<g><title>11 (position.label in template: 11.C)</title><text x="127.67" y="128.28" class="black" >C</text></g>
<g><line x1="129.705" y1="127.975" x2="137.665" y2="127.975" class="black" /></g>
<g><title>12 (position.label in template: 12.G)</title><text x="121.04" y="124.29" class="black" >G</text></g>
<g><title>13 (position.label in template: 13.C)</title><text x="117.02" y="118.02" class="black" >C</text></g>
<g><title>14 (position.label in template: 14.C)</title><text x="115.72" y="110.58" class="black" >C</text></g>
<g><line x1="116.451" y1="108.376" x2="119.359" y2="100.814" class="black" /></g>
<g><title>15 (position.label in template: 15.U)</title><text x="108.71" y="107.75" class="green" >T</text></g>
<g><line x1="109.471" y1="105.558" x2="112.529" y2="97.9817" class="black" /></g>
<g><title>16 (position.label in template: 16.G)</title><text x="101.49" y="104.92" class="black" >G</text></g>
<g><line x1="102.281" y1="102.74" x2="105.489" y2="95.1395" class="black" /></g>
<g><title>17 (position.label in template: 17.U)</title><text x="94.69" y="102.1" class="green" >T</text></g>
<g><line x1="95.4792" y1="99.9193" x2="98.6808" y2="92.3103" class="black" /></g>
<g><title>18 (position.label in template: 18.A)</title><text x="87.88" y="99.27" class="green" >A</text></g>
<g><line x1="88.6111" y1="97.0659" x2="91.5189" y2="89.5137" class="black" /></g>
<g><title>19 (position.label in template: 19.G)</title><text x="80.46" y="96.44" class="black" >G</text></g>
<g><line x1="81.2498" y1="94.2595" x2="84.4502" y2="86.6601" class="black" /></g>
<g><title>20 (position.label in template: 20.C)</title><text x="74.52" y="100.84" class="black" >C</text></g>
<g><text x="77.2706" y="107.133" class="numbering-label sequential" >20</text></g>
<g><line x1="75.2535" y1="102.518" x2="76.6035" y2="105.606" class="numbering-line sequential" /></g>
<g><title>21 (position.label in template: 21.U)</title><text x="67.1" y="102.28" class="green" >T</text></g>
<g><title>22 (position.label in template: 22.C)</title><text x="59.75" y="100.5" class="black" >C</text></g>
<g><title>23 (position.label in template: 23.C)</title><text x="53.81" y="95.83" class="black" >C</text></g>
<g><title>24 (position.label in template: 24.U)</title><text x="50.35" y="89.11" class="green" >T</text></g>
<g><title>25 (position.label in template: 25.C)</title><text x="50" y="81.56" class="black" >C</text></g>
<g><title>26 (position.label in template: 26.C)</title><text x="52.83" y="74.54" class="black" >C</text></g>
<g><title>27 (position.label in template: 27.G)</title><text x="58.1" y="69.35" class="black" >G</text></g>
<g><title>28 (position.label in template: 28.G)</title><text x="65.26" y="66.9" class="black" >G</text></g>
<g><title>29 (position.label in template: 29.G)</title><text x="72.78" y="67.65" class="black" >G</text></g>
<g><title>30 (position.label in template: 30.G)</title><text x="79.31" y="71.47" class="black" >G</text></g>
<g><text x="83.9621" y="66.4183" class="numbering-label sequential" >30</text></g>
<g><line x1="80.5505" y1="70.1229" x2="82.5567" y2="67.9444" class="numbering-line sequential" /></g>
<g><title>31 (position.label in template: 31.G)</title><text x="83.65" y="77.66" class="black" >G</text></g>
<g><title>32 (position.label in template: 32.C)</title><text x="85.24" y="85.09" class="black" >C</text></g>
<g><title>33 (position.label in template: 33.U)</title><text x="92.25" y="87.92" class="green" >T</text></g>
<g><title>34 (position.label in template: 34.A)</title><text x="99.47" y="90.74" class="green" >A</text></g>
<g><title>35 (position.label in template: 35.C)</title><text x="106.28" y="93.57" class="black" >C</text></g>
<g><title>36 (position.label in template: 36.U)</title><text x="113.29" y="96.4" class="green" >T</text></g>
<g><title>37 (position.label in template: 37.G)</title><text x="120.09" y="99.22" class="black" >G</text></g>
<g><title>38 (position.label in template: 38.C)</title><text x="126.4" y="94.76" class="black" >C</text></g>
<g><line x1="128.429" y1="94.2976" x2="136.371" y2="93.682" class="black" /></g>
<g><title>39 (position.label in template: 39.C)</title><text x="125.83" y="87.22" class="black" >C</text></g>
<g><line x1="127.859" y1="86.7574" x2="135.791" y2="86.1421" class="black" /></g>
<g><title>40 (position.label in template: 40.G)</title><text x="125.04" y="79.68" class="black" >G</text></g>
<g><line x1="127.069" y1="79.2228" x2="135.431" y2="78.5967" class="black" /></g>
<g><title>41 (position.label in template: 41.G)</title><text x="118.73" y="75.53" class="black" >G</text></g>
<g><title>42 (position.label in template: 42.U)</title><text x="115.37" y="68.86" class="green" >T</text></g>
<g><title>43 (position.label in template: 43.C)</title><text x="115.4" y="61.3" class="black" >C</text></g>
<g><title>44 (position.label in template: 44.C)</title><text x="119.03" y="54.68" class="black" >C</text></g>
<g><title>45 (position.label in template: 45.A)</title><text x="125.59" y="50.58" class="black" >A</text></g>
<g><title>46 (position.label in template: 46.A)</title><text x="133.13" y="50" class="black" >A</text></g>
<g><title>47 (position.label in template: 47.A)</title><text x="140.03" y="53.09" class="black" >A</text></g>
<g><title>48 (position.label in template: 48.G)</title><text x="144.21" y="59.1" class="black" >G</text></g>
<g><title>49 (position.label in template: 49.C)</title><text x="145.6" y="66.57" class="black" >C</text></g>
<g><title>50 (position.label in template: 50.C)</title><text x="143.07" y="73.69" class="black" >C</text></g>
<g><text x="148.78" y="77.5059" class="numbering-label sequential" >50</text></g>
<g><line x1="144.593" y1="74.7076" x2="146.948" y2="76.282" class="numbering-line sequential" /></g>
<g><title>51 (position.label in template: 51.C)</title><text x="137.46" y="78.75" class="black" >C</text></g>
<g><title>52 (position.label in template: 52.G)</title><text x="137.82" y="86.29" class="black" >G</text></g>
<g><title>53 (position.label in template: 53.G)</title><text x="138.4" y="93.83" class="black" >G</text></g>
<g><title>54 (position.label in template: 54.A)</title><text x="145.52" y="97.32" class="black" >A</text></g>
<g><title>55 (position.label in template: 55.U)</title><text x="150" y="103.25" class="green" >T</text></g>
<g><title>56 (position.label in template: 56.A)</title><text x="152.07" y="110.58" class="black" >A</text></g>
<g><title>57 (position.label in template: 57.A)</title><text x="150.77" y="118.02" class="black" >A</text></g>
<g><title>58 (position.label in template: 58.A)</title><text x="146.54" y="124.29" class="black" >A</text></g>
<g><title>59 (position.label in template: 59.G)</title><text x="139.7" y="128.28" class="black" >G</text></g>
<g><title>60 (position.label in template: 60.G)</title><text x="139.7" y="135.84" class="black" >G</text></g>
<g><title>61 (position.label in template: 61.A)</title><text x="140.12" y="143.4" class="green" >A</text></g>
<g><title>62 (position.label in template: 62.G)</title><text x="139.7" y="150.96" class="black" >G</text></g>
<g><title>63 (position.label in template: 63.G)</title><text x="147.25" y="151.43" class="black" >G</text></g>
<g><title>64 (position.label in template: 64.A)</title><text x="153.61" y="156.09" class="black" >A</text></g>
<g><title>65 (position.label in template: 65.G)</title><text x="155.44" y="163.31" class="black" >G</text></g>
<g><title>66 (position.label in template: 66.G)</title><text x="153.2" y="170.53" class="black" >G</text></g>
<g><title>67 (position.label in template: 67.A)</title><text x="147.67" y="175.2" class="black" >A</text></g>
<g><title>68 (position.label in template: 68.U)</title><text x="139.91" y="175.67" class="green" >T</text></g>
<g><title>69 (position.label in template: 69.U)</title><text x="139.91" y="183.23" class="green" >T</text></g>
<g><title>70 (position.label in template: 70.G)</title><text x="139.7" y="190.79" class="green" >G</text></g>
<g><title>71 (position.label in template: 71.G)</title><text x="139.7" y="198.35" class="green" >G</text></g>
<g><title>72 (position.label in template: 72.3')</title><text x="146.7" y="198.35" class="green" >3'</text></g>
<g><line x1="122.705" y1="198.045" x2="125.635" y2="198.045" class="gray" /></g>
<g><line x1="127.67" y1="196.01" x2="127.67" y2="192.52" class="gray" /></g>
<g><line x1="127.613" y1="188.451" x2="127.517" y2="184.959" class="gray" /></g>
<g><line x1="127.46" y1="180.89" x2="127.46" y2="177.4" class="gray" /></g>
<g><line x1="125.982" y1="173.966" x2="123.558" y2="171.673" class="gray" /></g>
<g><line x1="121.573" y1="168.304" x2="120.717" y2="164.975" class="gray" /></g>
<g><line x1="120.77" y1="161.048" x2="121.73" y2="157.691" class="gray" /></g>
<g><line x1="123.769" y1="154.338" x2="126.191" y2="152.052" class="gray" /></g>
<g><line x1="127.67" y1="148.62" x2="127.67" y2="145.13" class="gray" /></g>
<g><line x1="127.67" y1="141.06" x2="127.67" y2="137.57" class="gray" /></g>
<g><line x1="127.67" y1="133.5" x2="127.67" y2="130.01" class="gray" /></g>
<g><line x1="125.927" y1="126.926" x2="122.783" y2="125.034" class="gray" /></g>
<g><line x1="119.942" y1="122.272" x2="118.118" y2="119.428" class="gray" /></g>
<g><line x1="116.67" y1="115.71" x2="116.07" y2="112.279" class="gray" /></g>
<g><line x1="113.833" y1="109.513" x2="110.597" y2="108.207" class="gray" /></g>
<g><line x1="106.816" y1="106.702" x2="103.384" y2="105.357" class="gray" /></g>
<g><line x1="99.6104" y1="103.835" x2="96.5696" y2="102.574" class="gray" /></g>
<g><line x1="92.811" y1="101.014" x2="89.759" y2="99.7456" class="gray" /></g>
<g><line x1="85.9788" y1="98.2397" x2="82.3612" y2="96.8599" class="gray" /></g>
<g><line x1="78.8249" y1="97.3459" x2="76.1551" y2="99.3236" class="gray" /></g>
<g><line x1="72.5225" y1="100.922" x2="69.0975" y2="101.587" class="gray" /></g>
<g><line x1="65.1224" y1="101.496" x2="61.7276" y2="100.674" class="gray" /></g>
<g><line x1="58.1504" y1="98.9372" x2="55.4096" y2="96.7824" class="gray" /></g>
<g><line x1="52.8785" y1="93.7157" x2="51.2815" y2="90.6139" class="gray" /></g>
<g><line x1="50.2558" y1="86.7722" x2="50.0942" y2="83.2874" class="gray" /></g>
<g><line x1="50.7608" y1="79.3676" x2="52.0692" y2="76.122" class="gray" /></g>
<g><line x1="54.2798" y1="72.807" x2="56.6502" y2="70.4726" class="gray" /></g>
<g><line x1="60.0252" y1="68.386" x2="63.3348" y2="67.2535" class="gray" /></g>
<g><line x1="67.2848" y1="66.7967" x2="70.7552" y2="67.1428" class="gray" /></g>
<g><line x1="74.5363" y1="68.3722" x2="77.5537" y2="70.1373" class="gray" /></g>
<g><line x1="80.4781" y1="72.8309" x2="82.4819" y2="75.6887" class="gray" /></g>
<g><line x1="84.0758" y1="79.3445" x2="84.8142" y2="82.795" class="gray" /></g>
<g><line x1="87.1268" y1="85.5465" x2="90.3632" y2="86.853" class="gray" /></g>
<g><line x1="94.1454" y1="88.3551" x2="97.5746" y2="89.6945" class="gray" /></g>
<g><line x1="101.349" y1="91.2156" x2="104.401" y2="92.4839" class="gray" /></g>
<g><line x1="108.167" y1="94.0265" x2="111.403" y2="95.333" class="gray" /></g>
<g><line x1="115.17" y1="96.8743" x2="118.21" y2="98.1353" class="gray" /></g>
<g><line x1="121.752" y1="97.7403" x2="124.738" y2="95.6292" class="gray" /></g>
<g><line x1="126.247" y1="92.4258" x2="125.983" y2="88.9438" class="gray" /></g>
<g><line x1="125.618" y1="84.8911" x2="125.252" y2="81.3985" class="gray" /></g>
<g><line x1="123.34" y1="78.2567" x2="120.43" y2="76.3429" class="gray" /></g>
<g><line x1="117.815" y1="73.4075" x2="116.285" y2="70.372" class="gray" /></g>
<g><line x1="115.378" y1="66.52" x2="115.392" y2="63.0296" class="gray" /></g>
<g><line x1="116.378" y1="59.2106" x2="118.052" y2="56.159" class="gray" /></g>
<g><line x1="120.756" y1="53.2963" x2="123.864" y2="51.3532" class="gray" /></g>
<g><line x1="127.619" y1="50.1187" x2="131.101" y2="49.8508" class="gray" /></g>
<g><line x1="134.987" y1="50.5264" x2="138.173" y2="51.9531" class="gray" /></g>
<g><line x1="141.192" y1="54.4553" x2="143.048" y2="57.1243" class="gray" /></g>
<g><line x1="144.582" y1="60.7952" x2="145.228" y2="64.2643" class="gray" /></g>
<g><line x1="144.919" y1="68.1821" x2="143.751" y2="71.4674" class="gray" /></g>
<g><line x1="141.559" y1="74.7476" x2="138.971" y2="77.0819" class="gray" /></g>
<g><line x1="137.557" y1="80.4773" x2="137.723" y2="83.9523" class="gray" /></g>
<g><line x1="137.976" y1="88.0136" x2="138.244" y2="91.496" class="gray" /></g>
<g><line x1="140.227" y1="94.4204" x2="143.693" y2="96.1192" class="gray" /></g>
<g><line x1="146.747" y1="98.6383" x2="148.773" y2="101.321" class="gray" /></g>
<g><line x1="150.553" y1="104.903" x2="151.517" y2="108.317" class="gray" /></g>
<g><line x1="151.72" y1="112.279" x2="151.12" y2="115.71" class="gray" /></g>
<g><line x1="149.632" y1="119.402" x2="147.678" y2="122.298" class="gray" /></g>
<g><line x1="144.782" y1="125.01" x2="141.458" y2="126.95" class="gray" /></g>
<g><line x1="139.7" y1="130.01" x2="139.7" y2="133.5" class="gray" /></g>
<g><line x1="139.813" y1="137.566" x2="140.007" y2="141.063" class="gray" /></g>
<g><line x1="140.007" y1="145.126" x2="139.813" y2="148.623" class="gray" /></g>
<g><line x1="141.731" y1="150.781" x2="145.219" y2="150.998" class="gray" /></g>
<g><line x1="148.891" y1="152.327" x2="151.969" y2="154.582" class="gray" /></g>
<g><line x1="154.11" y1="157.757" x2="154.94" y2="161.032" class="gray" /></g>
<g><line x1="154.837" y1="164.948" x2="153.803" y2="168.281" class="gray" /></g>
<g><line x1="151.645" y1="171.538" x2="149.225" y2="173.582" class="gray" /></g>
<g><line x1="145.639" y1="175.018" x2="141.941" y2="175.242" class="gray" /></g>
<g><line x1="139.91" y1="177.4" x2="139.91" y2="180.89" class="gray" /></g>
<g><line x1="139.853" y1="184.959" x2="139.757" y2="188.451" class="gray" /></g>
<g><line x1="139.7" y1="192.52" x2="139.7" y2="196.01" class="gray" /></g>
<g><line x1="141.735" y1="198.045" x2="144.665" y2="198.045" class="gray" /></g>
</svg>
