<svg
	xmlns="http://www.w3.org/2000/svg"
	width="260.552"
	height="271.023">
<g><style type="text/css" >
<!-- create color definitions -->
<![CDATA[
circle.red {stroke: rgb(255, 0, 255); fill: none; }
circle.green {stroke: rgb(0, 255, 0); fill: none; }
circle.blue {stroke: rgb(0, 0, 255); fill: none; }
circle.black {stroke: rgb(0, 0, 0); fill: none; }
circle.gray {stroke: rgb(204, 204, 204); fill: none; }
circle.brown {stroke: rgb(211.65, 104.55, 30.6); fill: none; }
line.red {stroke: rgb(255, 0, 255); stroke-width: 0.381406; }
line.green {stroke: rgb(0, 255, 0); stroke-width: 0.381406; }
line.blue {stroke: rgb(0, 0, 255); stroke-width: 0.381406; }
line.black {stroke: rgb(0, 0, 0); stroke-width: 0.381406; }
line.gray {stroke: rgb(204, 204, 204); stroke-width: 0.381406; }
line.brown {stroke: rgb(211.65, 104.55, 30.6); stroke-width: 0.381406; }
line {stroke: rgb(0, 0, 0); }
text.red {fill: rgb(255, 0, 255); font-size: 3.051250px; font-weight: bold; font-family: Helvetica; }
text.green {fill: rgb(0, 255, 0); font-size: 3.051250px; font-weight: bold; font-family: Helvetica; }
text.blue {fill: rgb(0, 0, 255); font-size: 3.051250px; font-weight: bold; font-family: Helvetica; }
text.black {fill: rgb(0, 0, 0); font-size: 3.051250px; font-weight: bold; font-family: Helvetica; }
text.gray {fill: rgb(204, 204, 204); font-size: 3.051250px; font-weight: bold; font-family: Helvetica; }
text.brown {fill: rgb(211.65, 104.55, 30.6); font-size: 3.051250px; font-weight: bold; font-family: Helvetica; }
text {fill: rgb(0, 0, 0); font-size: 3.051250px; font-weight: bold; font-family: Helvetica; text-anchor: middle; alignment-baseline: middle; }

.pseudoknot_connection{stroke-linecap: round; stroke-opacity: 0.2; stroke-width: 1.5; }
.pseudoknot_segment1{stroke-linecap: round; stroke-opacity: 0.4; stroke-width: 3.05125; }
.pseudoknot_segment2{stroke-linecap: round; stroke-opacity: 0.4; stroke-width: 3.05125; }
line.numbering-line{stroke: rgb(204, 204, 204); stroke-width: 0.190703; }
line.predicted{stroke: rgb(0, 0, 0); stroke-dasharray: 2; }
polyline{fill: none; stroke-linejoin: round; }
template{visibility: hidden; }
text.numbering-label{fill: rgb(204, 204, 204); }
]]>
</style></g>
<g><title>0 (position.label in template: 0.5')</title><text x="51.168" y="221.023" class="green" >5'</text></g>
<g><title>1 (position.label in template: 1.A)</title><text x="58.7297" y="221.023" class="black" >A</text></g>
<g><title>2 (position.label in template: 2.U)</title><text x="66.2914" y="221.023" class="green" >T</text></g>
<g><title>3 (position.label in template: 3.G)</title><text x="71.53" y="215.57" class="green" >G</text></g>
<g><line x1="73.5642" y1="215.265" x2="81.9458" y2="215.265" class="black" /></g>
<g><title>4 (position.label in template: 4.C)</title><text x="71.74" y="208.01" class="black" >C</text></g>
<g><line x1="73.7742" y1="207.705" x2="81.7358" y2="207.705" class="black" /></g>
<g><title>5 (position.label in template: 5.C)</title><text x="71.74" y="200.45" class="black" >C</text></g>
<g><line x1="73.7742" y1="200.145" x2="81.7358" y2="200.145" class="black" /></g>
<g><title>6 (position.label in template: 6.A)</title><text x="71.95" y="192.89" class="green" >A</text></g>
<g><line x1="73.9842" y1="192.585" x2="81.9458" y2="192.585" class="black" /></g>
<g><title>7 (position.label in template: 7.G)</title><text x="71.53" y="185.33" class="black" >G</text></g>
<g><line x1="73.5642" y1="185.025" x2="81.9458" y2="185.025" class="black" /></g>
<g><title>8 (position.label in template: 8.U)</title><text x="64.65" y="182.7" class="green" >T</text></g>
<g><title>9 (position.label in template: 9.U)</title><text x="58.52" y="178.27" class="green" >T</text></g>
<g><title>10 (position.label in template: 10.C)</title><text x="53.79" y="172.37" class="black" >C</text></g>
<g><text x="47.9043" y="175.904" class="numbering-label sequential" >10</text></g>
<g><line x1="52.2205" y1="173.312" x2="49.735" y2="174.805" class="numbering-line sequential" /></g>
<g><title>11 (position.label in template: 11.U)</title><text x="50.81" y="165.43" class="green" >T</text></g>
<g><title>12 (position.label in template: 12.A)</title><text x="50" y="157.94" class="black" >A</text></g>
<g><title>13 (position.label in template: 13.U)</title><text x="50.81" y="150.44" class="green" >T</text></g>
<g><title>14 (position.label in template: 14.G)</title><text x="53.58" y="143.5" class="black" >G</text></g>
<g><title>15 (position.label in template: 15.U)</title><text x="58.52" y="137.6" class="green" >T</text></g>
<g><title>16 (position.label in template: 16.G)</title><text x="64.44" y="133.17" class="black" >G</text></g>
<g><title>17 (position.label in template: 17.U)</title><text x="71.74" y="130.55" class="green" >T</text></g>
<g><line x1="73.7742" y1="130.245" x2="82.1558" y2="130.245" class="black" /></g>
<g><title>18 (position.label in template: 18.C)</title><text x="71.74" y="122.99" class="black" >C</text></g>
<g><line x1="73.7742" y1="122.685" x2="81.7358" y2="122.685" class="black" /></g>
<g><title>19 (position.label in template: 19.U)</title><text x="71.74" y="115.43" class="green" >T</text></g>
<g><line x1="73.7742" y1="115.125" x2="82.1558" y2="115.125" class="black" /></g>
<g><title>20 (position.label in template: 20.G)</title><text x="71.53" y="107.87" class="black" >G</text></g>
<g><line x1="73.5642" y1="107.565" x2="81.9458" y2="107.565" class="black" /></g>
<g><text x="64.6647" y="107.87" class="numbering-label sequential" >20</text></g>
<g><line x1="69.6993" y1="107.87" x2="66.4954" y2="107.87" class="numbering-line sequential" /></g>
<g><title>21 (position.label in template: 21.C)</title><text x="71.74" y="100.31" class="black" >C</text></g>
<g><line x1="73.7742" y1="100.005" x2="81.7358" y2="100.005" class="black" /></g>
<g><title>22 (position.label in template: 22.U)</title><text x="64.78" y="97.36" class="green" >T</text></g>
<g><title>23 (position.label in template: 23.C)</title><text x="59.02" y="92.46" class="black" >C</text></g>
<g><title>24 (position.label in template: 24.A)</title><text x="55.2" y="86.06" class="black" >A</text></g>
<g><title>25 (position.label in template: 25.A)</title><text x="53.28" y="78.75" class="black" >A</text></g>
<g><title>26 (position.label in template: 26.C)</title><text x="53.44" y="71.2" class="black" >C</text></g>
<g><title>27 (position.label in template: 27.U)</title><text x="56.05" y="64.1" class="green" >T</text></g>
<g><title>28 (position.label in template: 28.U)</title><text x="60.67" y="58.11" class="green" >T</text></g>
<g><title>29 (position.label in template: 29.G)</title><text x="66.66" y="53.79" class="black" >G</text></g>
<g><title>30 (position.label in template: 30.A)</title><text x="74.29" y="51.52" class="black" >A</text></g>
<g><text x="73.2753" y="44.7301" class="numbering-label sequential" >30</text></g>
<g><line x1="74.0194" y1="49.7094" x2="73.5033" y2="46.2557" class="numbering-line sequential" /></g>
<g><title>31 (position.label in template: 31.A)</title><text x="81.85" y="51.52" class="black" >A</text></g>
<g><title>32 (position.label in template: 32.A)</title><text x="89.06" y="53.79" class="black" >A</text></g>
<g><title>33 (position.label in template: 33.A)</title><text x="95.26" y="58.11" class="black" >A</text></g>
<g><title>34 (position.label in template: 34.U)</title><text x="99.67" y="64.1" class="green" >T</text></g>
<g><title>35 (position.label in template: 35.G)</title><text x="102.07" y="71.2" class="black" >G</text></g>
<g><title>36 (position.label in template: 36.U)</title><text x="102.64" y="78.75" class="green" >T</text></g>
<g><title>37 (position.label in template: 37.U)</title><text x="100.72" y="86.06" class="green" >T</text></g>
<g><title>38 (position.label in template: 38.U)</title><text x="96.7" y="92.46" class="green" >T</text></g>
<g><title>39 (position.label in template: 39.U)</title><text x="90.94" y="97.36" class="green" >T</text></g>
<g><title>40 (position.label in template: 40.G)</title><text x="83.77" y="100.31" class="black" >G</text></g>
<g><title>41 (position.label in template: 41.C)</title><text x="83.98" y="107.87" class="black" >C</text></g>
<g><title>42 (position.label in template: 42.A)</title><text x="84.19" y="115.43" class="green" >A</text></g>
<g><title>43 (position.label in template: 43.G)</title><text x="83.77" y="122.99" class="black" >G</text></g>
<g><title>44 (position.label in template: 44.A)</title><text x="84.19" y="130.55" class="green" >A</text></g>
<g><title>45 (position.label in template: 45.G)</title><text x="90.46" y="127.02" class="black" >G</text></g>
<g><title>46 (position.label in template: 46.C)</title><text x="97.98" y="125.1" class="black" >C</text></g>
<g><title>47 (position.label in template: 47.A)</title><text x="105.74" y="124.89" class="black" >A</text></g>
<g><title>48 (position.label in template: 48.U)</title><text x="112.95" y="126.39" class="green" >T</text></g>
<g><title>49 (position.label in template: 49.A)</title><text x="120.03" y="129.54" class="black" >A</text></g>
<g><title>50 (position.label in template: 50.U)</title><text x="125.81" y="134.15" class="green" >T</text></g>
<g><text x="130.644" y="129.275" class="numbering-label sequential" >50</text></g>
<g><line x1="127.099" y1="132.85" x2="129.131" y2="130.8" class="numbering-line sequential" /></g>
<g><title>51 (position.label in template: 51.U)</title><text x="130.59" y="140.01" class="green" >T</text></g>
<g><title>52 (position.label in template: 52.U)</title><text x="133.93" y="146.79" class="green" >T</text></g>
<g><title>53 (position.label in template: 53.U)</title><text x="135.64" y="154.16" class="green" >T</text></g>
<g><title>54 (position.label in template: 54.A)</title><text x="135.85" y="161.72" class="black" >A</text></g>
<g><title>55 (position.label in template: 55.A)</title><text x="134.13" y="169.08" class="black" >A</text></g>
<g><title>56 (position.label in template: 56.A)</title><text x="130.8" y="175.86" class="black" >A</text></g>
<g><title>57 (position.label in template: 57.A)</title><text x="126.02" y="181.72" class="black" >A</text></g>
<g><title>58 (position.label in template: 58.U)</title><text x="119.82" y="186.33" class="green" >T</text></g>
<g><title>59 (position.label in template: 59.G)</title><text x="112.74" y="189.48" class="black" >G</text></g>
<g><title>60 (position.label in template: 60.A)</title><text x="105.74" y="190.98" class="black" >A</text></g>
<g><title>61 (position.label in template: 61.C)</title><text x="97.98" y="190.77" class="black" >C</text></g>
<g><title>62 (position.label in template: 62.A)</title><text x="90.88" y="188.85" class="black" >A</text></g>
<g><title>63 (position.label in template: 63.C)</title><text x="83.98" y="185.33" class="black" >C</text></g>
<g><title>64 (position.label in template: 64.U)</title><text x="83.98" y="192.89" class="green" >T</text></g>
<g><title>65 (position.label in template: 65.G)</title><text x="83.77" y="200.45" class="black" >G</text></g>
<g><title>66 (position.label in template: 66.G)</title><text x="83.77" y="208.01" class="black" >G</text></g>
<g><title>67 (position.label in template: 67.U)</title><text x="83.98" y="215.57" class="green" >T</text></g>
<g><title>68 (position.label in template: 68.A)</title><text x="89.53" y="220.91" class="black" >A</text></g>
<g><title>69 (position.label in template: 69.A)</title><text x="97.09" y="220.91" class="black" >A</text></g>
<g><title>70 (position.label in template: 70.A)</title><text x="104.65" y="220.91" class="black" >A</text></g>
<g><title>71 (position.label in template: 71.G)</title><text x="111.8" y="220.91" class="black" >G</text></g>
<g><title>72 (position.label in template: 72.U)</title><text x="119.57" y="220.91" class="green" >T</text></g>
<g><title>73 (position.label in template: 73.A)</title><text x="127.33" y="220.91" class="black" >A</text></g>
<g><title>74 (position.label in template: 74.A)</title><text x="134.89" y="220.91" class="black" >A</text></g>
<g><title>75 (position.label in template: 75.A)</title><text x="142.45" y="220.91" class="black" >A</text></g>
<g><title>76 (position.label in template: 76.G)</title><text x="147.38" y="215.57" class="black" >G</text></g>
<g><line x1="149.414" y1="215.265" x2="157.796" y2="215.265" class="black" /></g>
<g><title>77 (position.label in template: 77.C)</title><text x="147.59" y="208.01" class="black" >C</text></g>
<g><line x1="149.624" y1="207.705" x2="157.586" y2="207.705" class="black" /></g>
<g><title>78 (position.label in template: 78.C)</title><text x="147.59" y="200.45" class="black" >C</text></g>
<g><line x1="149.624" y1="200.145" x2="157.586" y2="200.145" class="black" /></g>
<g><title>79 (position.label in template: 79.A)</title><text x="147.8" y="192.89" class="green" >A</text></g>
<g><line x1="149.834" y1="192.585" x2="157.796" y2="192.585" class="black" /></g>
<g><title>80 (position.label in template: 80.C)</title><text x="140.6" y="190.02" class="black" >C</text></g>
<g><title>81 (position.label in template: 81.A)</title><text x="134.94" y="185.24" class="black" >A</text></g>
<g><title>82 (position.label in template: 82.G)</title><text x="130.31" y="178.97" class="black" >G</text></g>
<g><title>83 (position.label in template: 83.U)</title><text x="128.32" y="171.74" class="green" >T</text></g>
<g><title>84 (position.label in template: 84.A)</title><text x="128.53" y="164.18" class="black" >A</text></g>
<g><title>85 (position.label in template: 85.C)</title><text x="130.52" y="156.94" class="black" >C</text></g>
<g><title>86 (position.label in template: 86.G)</title><text x="134.53" y="150.67" class="black" >G</text></g>
<g><title>87 (position.label in template: 87.A)</title><text x="140.8" y="145.89" class="black" >A</text></g>
<g><title>88 (position.label in template: 88.G)</title><text x="147.38" y="143.02" class="green" >G</text></g>
<g><line x1="149.414" y1="142.715" x2="157.796" y2="142.715" class="black" /></g>
<g><title>89 (position.label in template: 89.C)</title><text x="147.59" y="135.46" class="black" >C</text></g>
<g><line x1="149.624" y1="135.155" x2="157.586" y2="135.155" class="black" /></g>
<g><title>90 (position.label in template: 90.C)</title><text x="147.59" y="127.9" class="black" >C</text></g>
<g><line x1="149.624" y1="127.595" x2="157.586" y2="127.595" class="black" /></g>
<g><title>91 (position.label in template: 91.U)</title><text x="147.59" y="120.34" class="green" >T</text></g>
<g><line x1="149.624" y1="120.035" x2="158.006" y2="120.035" class="black" /></g>
<g><title>92 (position.label in template: 92.U)</title><text x="147.59" y="112.78" class="green" >T</text></g>
<g><line x1="149.624" y1="112.475" x2="157.586" y2="112.475" class="black" /></g>
<g><title>93 (position.label in template: 93.G)</title><text x="147.38" y="105.22" class="green" >G</text></g>
<g><line x1="149.414" y1="104.915" x2="157.796" y2="104.915" class="black" /></g>
<g><title>94 (position.label in template: 94.A)</title><text x="147.8" y="97.66" class="green" >A</text></g>
<g><line x1="149.834" y1="97.3549" x2="157.796" y2="97.3549" class="black" /></g>
<g><title>95 (position.label in template: 95.A)</title><text x="144.7" y="90.77" class="black" >A</text></g>
<g><title>96 (position.label in template: 96.G)</title><text x="147.38" y="83.87" class="black" >G</text></g>
<g><line x1="149.414" y1="83.5649" x2="157.796" y2="83.5649" class="black" /></g>
<g><title>97 (position.label in template: 97.A)</title><text x="147.8" y="76.31" class="green" >A</text></g>
<g><line x1="149.834" y1="76.0049" x2="157.796" y2="76.0049" class="black" /></g>
<g><title>98 (position.label in template: 98.C)</title><text x="147.59" y="68.75" class="black" >C</text></g>
<g><line x1="149.624" y1="68.4449" x2="157.586" y2="68.4449" class="black" /></g>
<g><title>99 (position.label in template: 99.C)</title><text x="143.33" y="62.51" class="black" >C</text></g>
<g><title>100 (position.label in template: 100.U)</title><text x="144.27" y="55.01" class="green" >T</text></g>
<g><text x="138.198" y="51.8065" class="numbering-label sequential" >100</text></g>
<g><line x1="142.651" y1="54.1557" x2="140.944" y2="53.2553" class="numbering-line sequential" /></g>
<g><title>101 (position.label in template: 101.U)</title><text x="149.93" y="50" class="green" >T</text></g>
<g><title>102 (position.label in template: 102.G)</title><text x="157.28" y="50" class="black" >G</text></g>
<g><title>103 (position.label in template: 103.U)</title><text x="163.16" y="55.01" class="green" >T</text></g>
<g><title>104 (position.label in template: 104.U)</title><text x="164.1" y="62.51" class="green" >T</text></g>
<g><title>105 (position.label in template: 105.G)</title><text x="159.62" y="68.75" class="black" >G</text></g>
<g><title>106 (position.label in template: 106.U)</title><text x="159.83" y="76.31" class="green" >T</text></g>
<g><title>107 (position.label in template: 107.C)</title><text x="159.83" y="83.87" class="black" >C</text></g>
<g><title>108 (position.label in template: 108.U)</title><text x="162.93" y="90.77" class="green" >T</text></g>
<g><title>109 (position.label in template: 109.U)</title><text x="159.83" y="97.66" class="green" >T</text></g>
<g><title>110 (position.label in template: 110.U)</title><text x="159.83" y="105.22" class="green" >T</text></g>
<g><title>111 (position.label in template: 111.G)</title><text x="159.62" y="112.78" class="green" >G</text></g>
<g><title>112 (position.label in template: 112.A)</title><text x="160.04" y="120.34" class="green" >A</text></g>
<g><title>113 (position.label in template: 113.G)</title><text x="159.62" y="127.9" class="black" >G</text></g>
<g><title>114 (position.label in template: 114.G)</title><text x="159.62" y="135.46" class="black" >G</text></g>
<g><title>115 (position.label in template: 115.U)</title><text x="159.83" y="143.02" class="green" >T</text></g>
<g><title>116 (position.label in template: 116.C)</title><text x="167.24" y="144.55" class="black" >C</text></g>
<g><title>117 (position.label in template: 117.C)</title><text x="173.85" y="148.21" class="black" >C</text></g>
<g><title>118 (position.label in template: 118.C)</title><text x="179.06" y="153.69" class="black" >C</text></g>
<g><title>119 (position.label in template: 119.A)</title><text x="182.59" y="160.48" class="black" >A</text></g>
<g><title>120 (position.label in template: 120.A)</title><text x="183.74" y="167.96" class="black" >A</text></g>
<g><title>121 (position.label in template: 121.G)</title><text x="182.17" y="175.43" class="black" >G</text></g>
<g><title>122 (position.label in template: 122.A)</title><text x="179.26" y="182.21" class="black" >A</text></g>
<g><title>123 (position.label in template: 123.G)</title><text x="173.64" y="187.7" class="black" >G</text></g>
<g><title>124 (position.label in template: 124.A)</title><text x="167.44" y="191.36" class="black" >A</text></g>
<g><title>125 (position.label in template: 125.U)</title><text x="159.83" y="192.89" class="green" >T</text></g>
<g><title>126 (position.label in template: 126.G)</title><text x="159.62" y="200.45" class="black" >G</text></g>
<g><title>127 (position.label in template: 127.G)</title><text x="159.62" y="208.01" class="black" >G</text></g>
<g><title>128 (position.label in template: 128.C)</title><text x="159.83" y="215.57" class="black" >C</text></g>
<g><title>129 (position.label in template: 129.U)</title><text x="165.182" y="220.912" class="green" >T</text></g>
<g><title>130 (position.label in template: 130.A)</title><text x="172.744" y="220.912" class="black" >A</text></g>
<g><title>131 (position.label in template: 131.C)</title><text x="180.305" y="220.912" class="black" >C</text></g>
<g><title>132 (position.label in template: 132.A)</title><text x="187.867" y="220.912" class="black" >A</text></g>
<g><title>133 (position.label in template: 133.U)</title><text x="195.429" y="220.912" class="green" >T</text></g>
<g><title>134 (position.label in template: 134.C)</title><text x="202.99" y="220.912" class="black" >C</text></g>
<g><title>135 (position.label in template: 135.U)</title><text x="210.552" y="220.912" class="green" >T</text></g>
<g><title>136 (position.label in template: 136.3')</title><text x="218.114" y="220.912" class="green" >3'</text></g>
<g><line x1="53.2022" y1="220.718" x2="56.6955" y2="220.718" class="gray" /></g>
<g><line x1="60.7639" y1="220.718" x2="64.2572" y2="220.718" class="gray" /></g>
<g><line x1="67.7006" y1="219.251" x2="70.1208" y2="216.732" class="gray" /></g>
<g><line x1="71.5865" y1="213.231" x2="71.6835" y2="209.738" class="gray" /></g>
<g><line x1="71.74" y1="205.671" x2="71.74" y2="202.179" class="gray" /></g>
<g><line x1="71.7965" y1="198.111" x2="71.8935" y2="194.618" class="gray" /></g>
<g><line x1="71.8372" y1="190.554" x2="71.6428" y2="187.056" class="gray" /></g>
<g><line x1="69.6299" y1="184.299" x2="66.5501" y2="183.121" class="gray" /></g>
<g><line x1="63.0013" y1="181.203" x2="60.1687" y2="179.156" class="gray" /></g>
<g><line x1="57.2476" y1="176.378" x2="55.0624" y2="173.652" class="gray" /></g>
<g><line x1="52.9874" y1="170.196" x2="51.6126" y2="166.994" class="gray" /></g>
<g><line x1="50.5913" y1="163.102" x2="50.2187" y2="159.657" class="gray" /></g>
<g><line x1="50.2184" y1="155.612" x2="50.5916" y2="152.157" class="gray" /></g>
<g><line x1="51.5641" y1="148.246" x2="52.8259" y2="145.084" class="gray" /></g>
<g><line x1="54.8859" y1="141.635" x2="57.2141" y2="138.855" class="gray" /></g>
<g><line x1="60.1487" y1="136.076" x2="62.8113" y2="134.084" class="gray" /></g>
<g><line x1="66.3546" y1="132.178" x2="69.8254" y2="130.932" class="gray" /></g>
<g><line x1="71.74" y1="128.211" x2="71.74" y2="124.719" class="gray" /></g>
<g><line x1="71.74" y1="120.651" x2="71.74" y2="117.159" class="gray" /></g>
<g><line x1="71.6835" y1="113.091" x2="71.5865" y2="109.598" class="gray" /></g>
<g><line x1="71.5865" y1="105.531" x2="71.6835" y2="102.038" class="gray" /></g>
<g><line x1="69.8671" y1="99.2111" x2="66.6529" y2="97.8487" class="gray" /></g>
<g><line x1="63.2306" y1="95.7368" x2="60.5694" y2="93.4729" class="gray" /></g>
<g><line x1="57.9774" y1="90.4082" x2="56.2426" y2="87.5016" class="gray" /></g>
<g><line x1="54.6832" y1="83.7874" x2="53.7968" y2="80.4123" class="gray" /></g>
<g><line x1="53.3231" y1="76.4112" x2="53.3969" y2="72.9286" class="gray" /></g>
<g><line x1="54.1419" y1="68.9856" x2="55.3481" y2="65.7041" class="gray" /></g>
<g><line x1="57.2923" y1="62.1841" x2="59.4277" y2="59.4156" class="gray" /></g>
<g><line x1="62.3199" y1="56.615" x2="65.0101" y2="54.6748" class="gray" /></g>
<g><line x1="68.6097" y1="52.9048" x2="72.3403" y2="51.7949" class="gray" /></g>
<g><line x1="76.3242" y1="51.2149" x2="79.8158" y2="51.2149" class="gray" /></g>
<g><line x1="83.7903" y1="51.8258" x2="87.1197" y2="52.874" class="gray" /></g>
<g><line x1="90.729" y1="54.6478" x2="93.591" y2="56.642" class="gray" /></g>
<g><line x1="96.466" y1="59.443" x2="98.464" y2="62.1568" class="gray" /></g>
<g><line x1="100.321" y1="65.7219" x2="101.419" y2="68.9678" class="gray" /></g>
<g><line x1="102.223" y1="72.9233" x2="102.487" y2="76.4165" class="gray" /></g>
<g><line x1="102.123" y1="80.4123" x2="101.237" y2="83.7874" class="gray" /></g>
<g><line x1="99.638" y1="87.4774" x2="97.782" y2="90.4323" class="gray" /></g>
<g><line x1="95.1506" y1="93.4729" x2="92.4894" y2="95.7368" class="gray" /></g>
<g><line x1="89.0588" y1="97.8289" x2="85.6512" y2="99.2309" class="gray" /></g>
<g><line x1="83.8265" y1="102.038" x2="83.9235" y2="105.531" class="gray" /></g>
<g><line x1="84.0365" y1="109.598" x2="84.1335" y2="113.091" class="gray" /></g>
<g><line x1="84.0772" y1="117.156" x2="83.8828" y2="120.654" class="gray" /></g>
<g><line x1="83.8828" y1="124.716" x2="84.0772" y2="128.214" class="gray" /></g>
<g><line x1="85.9626" y1="129.247" x2="88.6874" y2="127.713" class="gray" /></g>
<g><line x1="92.4309" y1="126.212" x2="96.0091" y2="125.298" class="gray" /></g>
<g><line x1="100.013" y1="124.74" x2="103.707" y2="124.64" class="gray" /></g>
<g><line x1="107.732" y1="124.999" x2="110.958" y2="125.671" class="gray" /></g>
<g><line x1="114.809" y1="126.912" x2="118.171" y2="128.408" class="gray" /></g>
<g><line x1="121.62" y1="130.503" x2="124.22" y2="132.576" class="gray" /></g>
<g><line x1="127.096" y1="135.421" x2="129.304" y2="138.129" class="gray" /></g>
<g><line x1="131.489" y1="141.53" x2="133.031" y2="144.66" class="gray" /></g>
<g><line x1="134.39" y1="148.466" x2="135.18" y2="151.873" class="gray" /></g>
<g><line x1="135.696" y1="155.888" x2="135.794" y2="159.381" class="gray" /></g>
<g><line x1="135.387" y1="163.396" x2="134.593" y2="166.794" class="gray" /></g>
<g><line x1="133.233" y1="170.601" x2="131.697" y2="173.729" class="gray" /></g>
<g><line x1="129.514" y1="177.131" x2="127.306" y2="179.839" class="gray" /></g>
<g><line x1="124.388" y1="182.629" x2="121.452" y2="184.811" class="gray" /></g>
<g><line x1="117.961" y1="186.852" x2="114.599" y2="188.348" class="gray" /></g>
<g><line x1="110.751" y1="189.601" x2="107.729" y2="190.249" class="gray" /></g>
<g><line x1="103.707" y1="190.62" x2="100.013" y2="190.52" class="gray" /></g>
<g><line x1="96.0164" y1="189.934" x2="92.8436" y2="189.076" class="gray" /></g>
<g><line x1="89.068" y1="187.62" x2="85.792" y2="185.949" class="gray" /></g>
<g><line x1="83.98" y1="187.059" x2="83.98" y2="190.551" class="gray" /></g>
<g><line x1="83.9235" y1="194.618" x2="83.8265" y2="198.111" class="gray" /></g>
<g><line x1="83.77" y1="202.179" x2="83.77" y2="205.671" class="gray" /></g>
<g><line x1="83.8265" y1="209.738" x2="83.9235" y2="213.231" class="gray" /></g>
<g><line x1="85.4458" y1="216.675" x2="88.0642" y2="219.195" class="gray" /></g>
<g><line x1="91.5642" y1="220.605" x2="95.0558" y2="220.605" class="gray" /></g>
<g><line x1="99.1242" y1="220.605" x2="102.616" y2="220.605" class="gray" /></g>
<g><line x1="106.684" y1="220.605" x2="109.766" y2="220.605" class="gray" /></g>
<g><line x1="113.834" y1="220.605" x2="117.536" y2="220.605" class="gray" /></g>
<g><line x1="121.604" y1="220.605" x2="125.296" y2="220.605" class="gray" /></g>
<g><line x1="129.364" y1="220.605" x2="132.856" y2="220.605" class="gray" /></g>
<g><line x1="136.924" y1="220.605" x2="140.416" y2="220.605" class="gray" /></g>
<g><line x1="143.83" y1="219.11" x2="146" y2="216.759" class="gray" /></g>
<g><line x1="147.436" y1="213.231" x2="147.534" y2="209.738" class="gray" /></g>
<g><line x1="147.59" y1="205.671" x2="147.59" y2="202.179" class="gray" /></g>
<g><line x1="147.646" y1="198.111" x2="147.744" y2="194.618" class="gray" /></g>
<g><line x1="145.91" y1="191.832" x2="142.49" y2="190.468" class="gray" /></g>
<g><line x1="139.046" y1="188.402" x2="136.494" y2="186.247" class="gray" /></g>
<g><line x1="133.732" y1="183.299" x2="131.518" y2="180.301" class="gray" /></g>
<g><line x1="129.77" y1="176.704" x2="128.86" y2="173.396" class="gray" /></g>
<g><line x1="128.376" y1="169.401" x2="128.474" y2="165.908" class="gray" /></g>
<g><line x1="129.069" y1="161.913" x2="129.981" y2="158.596" class="gray" /></g>
<g><line x1="131.616" y1="154.921" x2="133.434" y2="152.079" class="gray" /></g>
<g><line x1="136.148" y1="149.132" x2="139.182" y2="146.818" class="gray" /></g>
<g><line x1="142.665" y1="144.772" x2="145.515" y2="143.528" class="gray" /></g>
<g><line x1="147.436" y1="140.681" x2="147.534" y2="137.188" class="gray" /></g>
<g><line x1="147.59" y1="133.121" x2="147.59" y2="129.629" class="gray" /></g>
<g><line x1="147.59" y1="125.561" x2="147.59" y2="122.069" class="gray" /></g>
<g><line x1="147.59" y1="118.001" x2="147.59" y2="114.509" class="gray" /></g>
<g><line x1="147.534" y1="110.441" x2="147.436" y2="106.948" class="gray" /></g>
<g><line x1="147.493" y1="102.884" x2="147.687" y2="99.3859" class="gray" /></g>
<g><line x1="146.965" y1="95.4998" x2="145.535" y2="92.3199" class="gray" /></g>
<g><line x1="145.436" y1="88.5687" x2="146.644" y2="85.461" class="gray" /></g>
<g><line x1="147.493" y1="81.5338" x2="147.687" y2="78.0359" class="gray" /></g>
<g><line x1="147.744" y1="73.9715" x2="147.646" y2="70.4783" class="gray" /></g>
<g><line x1="146.443" y1="66.7649" x2="144.477" y2="63.8849" class="gray" /></g>
<g><line x1="143.583" y1="60.1865" x2="144.017" y2="56.7233" class="gray" /></g>
<g><line x1="145.793" y1="53.3566" x2="148.407" y2="51.0431" class="gray" /></g>
<g><line x1="151.964" y1="49.6949" x2="155.246" y2="49.6949" class="gray" /></g>
<g><line x1="158.828" y1="51.0141" x2="161.612" y2="53.3856" class="gray" /></g>
<g><line x1="163.413" y1="56.7233" x2="163.847" y2="60.1865" class="gray" /></g>
<g><line x1="162.914" y1="63.8573" x2="160.806" y2="66.7925" class="gray" /></g>
<g><line x1="159.676" y1="70.4783" x2="159.774" y2="73.9715" class="gray" /></g>
<g><line x1="159.83" y1="78.039" x2="159.83" y2="81.5307" class="gray" /></g>
<g><line x1="160.664" y1="85.4204" x2="162.096" y2="88.6094" class="gray" /></g>
<g><line x1="162.095" y1="92.3199" x2="160.665" y2="95.4998" class="gray" /></g>
<g><line x1="159.83" y1="99.389" x2="159.83" y2="102.881" class="gray" /></g>
<g><line x1="159.774" y1="106.948" x2="159.676" y2="110.441" class="gray" /></g>
<g><line x1="159.733" y1="114.506" x2="159.927" y2="118.004" class="gray" /></g>
<g><line x1="159.927" y1="122.066" x2="159.733" y2="125.564" class="gray" /></g>
<g><line x1="159.62" y1="129.629" x2="159.62" y2="133.121" class="gray" /></g>
<g><line x1="159.676" y1="137.188" x2="159.774" y2="140.681" class="gray" /></g>
<g><line x1="161.822" y1="143.126" x2="165.248" y2="143.834" class="gray" /></g>
<g><line x1="169.02" y1="145.23" x2="172.07" y2="146.92" class="gray" /></g>
<g><line x1="175.252" y1="149.379" x2="177.658" y2="151.911" class="gray" /></g>
<g><line x1="179.998" y1="155.19" x2="181.652" y2="158.37" class="gray" /></g>
<g><line x1="182.899" y1="162.185" x2="183.431" y2="165.644" class="gray" /></g>
<g><line x1="183.322" y1="169.646" x2="182.588" y2="173.134" class="gray" /></g>
<g><line x1="181.368" y1="176.994" x2="180.062" y2="180.036" class="gray" /></g>
<g><line x1="177.805" y1="183.326" x2="175.095" y2="185.973" class="gray" /></g>
<g><line x1="171.888" y1="188.429" x2="169.192" y2="190.021" class="gray" /></g>
<g><line x1="165.446" y1="191.456" x2="161.824" y2="192.184" class="gray" /></g>
<g><line x1="159.774" y1="194.618" x2="159.676" y2="198.111" class="gray" /></g>
<g><line x1="159.62" y1="202.179" x2="159.62" y2="205.671" class="gray" /></g>
<g><line x1="159.676" y1="209.738" x2="159.774" y2="213.231" class="gray" /></g>
<g><line x1="161.27" y1="216.702" x2="163.742" y2="219.17" class="gray" /></g>
<g><line x1="167.216" y1="220.607" x2="170.709" y2="220.607" class="gray" /></g>
<g><line x1="174.778" y1="220.607" x2="178.271" y2="220.607" class="gray" /></g>
<g><line x1="182.339" y1="220.607" x2="185.833" y2="220.607" class="gray" /></g>
<g><line x1="189.901" y1="220.607" x2="193.395" y2="220.607" class="gray" /></g>
<g><line x1="197.463" y1="220.607" x2="200.956" y2="220.607" class="gray" /></g>
<g><line x1="205.025" y1="220.607" x2="208.518" y2="220.607" class="gray" /></g>
<g><line x1="212.586" y1="220.607" x2="216.08" y2="220.607" class="gray" /></g>
</svg>
