<svg
	xmlns="http://www.w3.org/2000/svg"
	width="224.89"
	height="239.852">
<g><style type="text/css" >
<!-- create color definitions -->
<![CDATA[
circle.red {stroke: rgb(255, 0, 255); fill: none; }
circle.green {stroke: rgb(0, 255, 0); fill: none; }
circle.blue {stroke: rgb(0, 0, 255); fill: none; }
circle.black {stroke: rgb(0, 0, 0); fill: none; }
circle.gray {stroke: rgb(204, 204, 204); fill: none; }
circle.brown {stroke: rgb(211.65, 104.55, 30.6); fill: none; }
line.red {stroke: rgb(255, 0, 255); stroke-width: 0.384954; }
line.green {stroke: rgb(0, 255, 0); stroke-width: 0.384954; }
line.blue {stroke: rgb(0, 0, 255); stroke-width: 0.384954; }
line.black {stroke: rgb(0, 0, 0); stroke-width: 0.384954; }
line.gray {stroke: rgb(204, 204, 204); stroke-width: 0.384954; }
line.brown {stroke: rgb(211.65, 104.55, 30.6); stroke-width: 0.384954; }
line {stroke: rgb(0, 0, 0); }
text.red {fill: rgb(255, 0, 255); font-size: 3.079635px; font-weight: bold; font-family: Helvetica; }
text.green {fill: rgb(0, 255, 0); font-size: 3.079635px; font-weight: bold; font-family: Helvetica; }
text.blue {fill: rgb(0, 0, 255); font-size: 3.079635px; font-weight: bold; font-family: Helvetica; }
text.black {fill: rgb(0, 0, 0); font-size: 3.079635px; font-weight: bold; font-family: Helvetica; }
text.gray {fill: rgb(204, 204, 204); font-size: 3.079635px; font-weight: bold; font-family: Helvetica; }
text.brown {fill: rgb(211.65, 104.55, 30.6); font-size: 3.079635px; font-weight: bold; font-family: Helvetica; }
text {fill: rgb(0, 0, 0); font-size: 3.079635px; font-weight: bold; font-family: Helvetica; text-anchor: middle; alignment-baseline: middle; }

.pseudoknot_connection{stroke-linecap: round; stroke-opacity: 0.2; stroke-width: 1.5; }
.pseudoknot_segment1{stroke-linecap: round; stroke-opacity: 0.4; stroke-width: 3.07964; }
.pseudoknot_segment2{stroke-linecap: round; stroke-opacity: 0.4; stroke-width: 3.07964; }
line.numbering-line{stroke: rgb(204, 204, 204); stroke-width: 0.192477; }
line.predicted{stroke: rgb(0, 0, 0); stroke-dasharray: 2; }
polyline{fill: none; stroke-linejoin: round; }
template{visibility: hidden; }
text.numbering-label{fill: rgb(204, 204, 204); }
]]>
</style></g>
<g><title>0 (position.label in template: 0.5')</title><text x="110.09" y="192.171" class="green" >5'</text></g>
<g><title>1 (position.label in template: 1.G)</title><text x="110.09" y="184.61" class="black" >G</text></g>
<g><line x1="112.143" y1="184.302" x2="120.487" y2="184.302" class="black" /></g>
<g><title>2 (position.label in template: 2.G)</title><text x="110.09" y="177.05" class="black" >G</text></g>
<g><line x1="112.143" y1="176.742" x2="120.487" y2="176.742" class="black" /></g>
<g><title>3 (position.label in template: 3.G)</title><text x="110.09" y="169.49" class="green" >G</text></g>
<g><line x1="112.143" y1="169.182" x2="120.487" y2="169.182" class="black" /></g>
<g><title>4 (position.label in template: 4.G)</title><text x="110.09" y="161.93" class="black" >G</text></g>
<g><line x1="112.143" y1="161.622" x2="120.487" y2="161.622" class="black" /></g>
<g><title>5 (position.label in template: 5.G)</title><text x="110.09" y="154.37" class="black" >G</text></g>
<g><line x1="112.143" y1="154.062" x2="120.487" y2="154.062" class="black" /></g>
<g><title>6 (position.label in template: 6.U)</title><text x="110.3" y="146.81" class="green" >T</text></g>
<g><line x1="112.353" y1="146.502" x2="120.697" y2="146.502" class="black" /></g>
<g><title>7 (position.label in template: 7.G)</title><text x="110.09" y="139.25" class="black" >G</text></g>
<g><line x1="112.143" y1="138.942" x2="120.487" y2="138.942" class="black" /></g>
<g><title>8 (position.label in template: 8.U)</title><text x="103.48" y="135.99" class="green" >T</text></g>
<g><title>9 (position.label in template: 9.G)</title><text x="97.93" y="130.64" class="black" >G</text></g>
<g><title>10 (position.label in template: 10.G)</title><text x="94.66" y="123.82" class="black" >G</text></g>
<g><line x1="94.6952" y1="121.459" x2="94.8348" y2="113.325" class="black" /></g>
<g><text x="90.9158" y="129.65" class="numbering-label sequential" >10</text></g>
<g><line x1="93.6615" y1="125.375" x2="91.9046" y2="128.111" class="numbering-line sequential" /></g>
<g><title>11 (position.label in template: 11.C)</title><text x="87.31" y="123.82" class="black" >C</text></g>
<g><line x1="87.2748" y1="121.459" x2="87.1352" y2="113.325" class="black" /></g>
<g><title>12 (position.label in template: 12.U)</title><text x="79.75" y="123.82" class="green" >T</text></g>
<g><line x1="79.7852" y1="121.459" x2="79.9248" y2="113.325" class="black" /></g>
<g><title>13 (position.label in template: 13.C)</title><text x="72.19" y="123.82" class="black" >C</text></g>
<g><line x1="72.1548" y1="121.459" x2="72.0152" y2="113.325" class="black" /></g>
<g><title>14 (position.label in template: 14.A)</title><text x="66.63" y="128.71" class="black" >A</text></g>
<g><title>15 (position.label in template: 15.G)</title><text x="58.67" y="129.11" class="black" >G</text></g>
<g><title>16 (position.label in template: 16.U)</title><text x="52.62" y="124.87" class="green" >T</text></g>
<g><title>17 (position.label in template: 17.G)</title><text x="50" y="117.7" class="black" >G</text></g>
<g><title>18 (position.label in template: 18.G)</title><text x="52.41" y="110.54" class="black" >G</text></g>
<g><title>19 (position.label in template: 19.U)</title><text x="58.88" y="106.29" class="green" >T</text></g>
<g><title>20 (position.label in template: 20.A)</title><text x="66.63" y="106.69" class="black" >A</text></g>
<g><text x="69.2246" y="100.265" class="numbering-label sequential" >20</text></g>
<g><line x1="67.3219" y1="104.977" x2="68.6028" y2="101.805" class="numbering-line sequential" /></g>
<g><title>21 (position.label in template: 21.G)</title><text x="71.98" y="111.58" class="black" >G</text></g>
<g><title>22 (position.label in template: 22.A)</title><text x="79.96" y="111.58" class="green" >A</text></g>
<g><title>23 (position.label in template: 23.G)</title><text x="87.1" y="111.58" class="black" >G</text></g>
<g><title>24 (position.label in template: 24.C)</title><text x="94.87" y="111.58" class="black" >C</text></g>
<g><title>25 (position.label in template: 25.U)</title><text x="98.14" y="104.76" class="green" >T</text></g>
<g><title>26 (position.label in template: 26.C)</title><text x="103.48" y="99.42" class="black" >C</text></g>
<g><line x1="105.412" y1="98.417" x2="112.888" y2="95.7271" class="black" /></g>
<g><title>27 (position.label in template: 27.U)</title><text x="100.97" y="92.29" class="green" >T</text></g>
<g><line x1="102.909" y1="91.3086" x2="110.781" y2="88.5755" class="black" /></g>
<g><title>28 (position.label in template: 28.C)</title><text x="98.45" y="85.16" class="black" >C</text></g>
<g><line x1="100.382" y1="84.1585" x2="107.858" y2="81.4756" class="black" /></g>
<g><title>29 (position.label in template: 29.G)</title><text x="95.73" y="78.03" class="black" >G</text></g>
<g><line x1="97.67" y1="77.0501" x2="105.54" y2="74.324" class="black" /></g>
<g><title>30 (position.label in template: 30.C)</title><text x="88.91" y="75.25" class="black" >C</text></g>
<g><text x="84.6919" y="80.7474" class="numbering-label sequential" >30</text></g>
<g><line x1="87.7852" y1="76.716" x2="85.8734" y2="79.2076" class="numbering-line sequential" /></g>
<g><title>31 (position.label in template: 31.U)</title><text x="84.3" y="69.26" class="green" >T</text></g>
<g><title>32 (position.label in template: 32.U)</title><text x="83.42" y="61.75" class="green" >T</text></g>
<g><title>33 (position.label in template: 33.C)</title><text x="86.53" y="54.85" class="black" >C</text></g>
<g><title>34 (position.label in template: 34.G)</title><text x="92.52" y="50.53" class="black" >G</text></g>
<g><title>35 (position.label in template: 35.C)</title><text x="100.27" y="50" class="black" >C</text></g>
<g><title>36 (position.label in template: 36.A)</title><text x="107.22" y="53.43" class="black" >A</text></g>
<g><title>37 (position.label in template: 37.U)</title><text x="111.04" y="59.82" class="green" >T</text></g>
<g><title>38 (position.label in template: 38.A)</title><text x="111.42" y="67.38" class="black" >A</text></g>
<g><title>39 (position.label in template: 39.C)</title><text x="107.48" y="73.96" class="black" >C</text></g>
<g><title>40 (position.label in template: 40.G)</title><text x="109.79" y="81.09" class="black" >G</text></g>
<g><title>41 (position.label in template: 41.A)</title><text x="112.72" y="88.21" class="green" >A</text></g>
<g><title>42 (position.label in template: 42.G)</title><text x="114.82" y="95.34" class="black" >G</text></g>
<g><title>43 (position.label in template: 43.G)</title><text x="122.33" y="96.15" class="black" >G</text></g>
<g><title>44 (position.label in template: 44.U)</title><text x="129.36" y="99.42" class="green" >T</text></g>
<g><title>45 (position.label in template: 45.G)</title><text x="134.5" y="104.76" class="black" >G</text></g>
<g><title>46 (position.label in template: 46.U)</title><text x="137.97" y="111.58" class="green" >T</text></g>
<g><title>47 (position.label in template: 47.C)</title><text x="138.78" y="119.1" class="black" >C</text></g>
<g><title>48 (position.label in template: 48.C)</title><text x="137.04" y="126.46" class="black" >C</text></g>
<g><line x1="135.731" y1="127.733" x2="130.459" y2="134.101" class="black" /></g>
<g><title>49 (position.label in template: 49.C)</title><text x="142.93" y="131.2" class="black" >C</text></g>
<g><line x1="141.621" y1="132.473" x2="136.349" y2="138.841" class="black" /></g>
<g><title>50 (position.label in template: 50.G)</title><text x="148.61" y="135.94" class="black" >G</text></g>
<g><line x1="147.343" y1="137.248" x2="142.407" y2="143.546" class="black" /></g>
<g><text x="153.007" y="130.584" class="numbering-label sequential" >50</text></g>
<g><line x1="149.782" y1="134.512" x2="151.743" y2="132.124" class="numbering-line sequential" /></g>
<g><title>51 (position.label in template: 51.G)</title><text x="154.49" y="140.69" class="black" >G</text></g>
<g><line x1="153.223" y1="141.998" x2="148.287" y2="148.296" class="black" /></g>
<g><title>52 (position.label in template: 52.A)</title><text x="162.35" y="139.35" class="black" >A</text></g>
<g><title>53 (position.label in template: 53.U)</title><text x="169.22" y="142.03" class="green" >T</text></g>
<g><title>54 (position.label in template: 54.U)</title><text x="173.91" y="147.96" class="green" >T</text></g>
<g><title>55 (position.label in template: 55.C)</title><text x="174.89" y="155.45" class="black" >C</text></g>
<g><title>56 (position.label in template: 56.G)</title><text x="171.68" y="162.39" class="black" >G</text></g>
<g><title>57 (position.label in template: 57.A)</title><text x="165.95" y="166.8" class="black" >A</text></g>
<g><title>58 (position.label in template: 58.C)</title><text x="158.21" y="167.43" class="black" >C</text></g>
<g><title>59 (position.label in template: 59.C)</title><text x="151.42" y="164.11" class="black" >C</text></g>
<g><title>60 (position.label in template: 60.C)</title><text x="147.3" y="157.77" class="black" >C</text></g>
<g><title>61 (position.label in template: 61.C)</title><text x="147.02" y="150.22" class="black" >C</text></g>
<g><title>62 (position.label in template: 62.C)</title><text x="141.14" y="145.47" class="black" >C</text></g>
<g><title>63 (position.label in template: 63.G)</title><text x="135.04" y="140.73" class="black" >G</text></g>
<g><title>64 (position.label in template: 64.G)</title><text x="129.15" y="135.99" class="black" >G</text></g>
<g><title>65 (position.label in template: 65.C)</title><text x="122.54" y="139.25" class="black" >C</text></g>
<g><title>66 (position.label in template: 66.A)</title><text x="122.75" y="146.81" class="green" >A</text></g>
<g><title>67 (position.label in template: 67.C)</title><text x="122.54" y="154.37" class="black" >C</text></g>
<g><title>68 (position.label in template: 68.C)</title><text x="122.54" y="161.93" class="black" >C</text></g>
<g><title>69 (position.label in template: 69.U)</title><text x="122.54" y="169.49" class="green" >T</text></g>
<g><title>70 (position.label in template: 70.C)</title><text x="122.54" y="177.05" class="black" >C</text></g>
<g><title>71 (position.label in template: 71.C)</title><text x="122.54" y="184.61" class="black" >C</text></g>
<g><title>72 (position.label in template: 72.A)</title><text x="127.988" y="189.852" class="black" >A</text></g>
<g><title>73 (position.label in template: 73.3')</title><text x="124.089" y="196.33" class="green" >3'</text></g>
<g><line x1="110.09" y1="189.809" x2="110.09" y2="186.355" class="gray" /></g>
<g><line x1="110.09" y1="182.249" x2="110.09" y2="178.795" class="gray" /></g>
<g><line x1="110.09" y1="174.689" x2="110.09" y2="171.235" class="gray" /></g>
<g><line x1="110.09" y1="167.129" x2="110.09" y2="163.675" class="gray" /></g>
<g><line x1="110.09" y1="159.569" x2="110.09" y2="156.115" class="gray" /></g>
<g><line x1="110.147" y1="152.01" x2="110.243" y2="148.554" class="gray" /></g>
<g><line x1="110.243" y1="144.45" x2="110.147" y2="140.994" class="gray" /></g>
<g><line x1="108.249" y1="138.034" x2="105.321" y2="136.59" class="gray" /></g>
<g><line x1="102.002" y1="134.257" x2="99.4081" y2="131.757" class="gray" /></g>
<g><line x1="97.0424" y1="128.481" x2="95.5476" y2="125.363" class="gray" /></g>
<g><line x1="92.6069" y1="123.512" x2="89.3631" y2="123.512" class="gray" /></g>
<g><line x1="85.2569" y1="123.512" x2="81.8031" y2="123.512" class="gray" /></g>
<g><line x1="77.6969" y1="123.512" x2="74.2431" y2="123.512" class="gray" /></g>
<g><line x1="70.6483" y1="124.868" x2="68.1717" y2="127.046" class="gray" /></g>
<g><line x1="64.5795" y1="128.505" x2="60.7205" y2="128.699" class="gray" /></g>
<g><line x1="56.9887" y1="127.624" x2="54.3013" y2="125.74" class="gray" /></g>
<g><line x1="51.9153" y1="122.634" x2="50.7047" y2="119.32" class="gray" /></g>
<g><line x1="50.6549" y1="115.446" x2="51.7551" y2="112.178" class="gray" /></g>
<g><line x1="54.126" y1="109.105" x2="57.164" y2="107.109" class="gray" /></g>
<g><line x1="60.9304" y1="106.088" x2="64.5796" y2="106.276" class="gray" /></g>
<g><line x1="68.1454" y1="107.767" x2="70.4646" y2="109.887" class="gray" /></g>
<g><line x1="74.0331" y1="111.272" x2="77.9069" y2="111.272" class="gray" /></g>
<g><line x1="82.0131" y1="111.272" x2="85.0469" y2="111.272" class="gray" /></g>
<g><line x1="89.1531" y1="111.272" x2="92.8169" y2="111.272" class="gray" /></g>
<g><line x1="95.7576" y1="109.421" x2="97.2524" y2="106.303" class="gray" /></g>
<g><line x1="99.5918" y1="103" x2="102.028" y2="100.564" class="gray" /></g>
<g><line x1="102.798" y1="97.1754" x2="101.652" y2="93.9186" class="gray" /></g>
<g><line x1="100.286" y1="90.0463" x2="99.1342" y2="86.7878" class="gray" /></g>
<g><line x1="97.7182" y1="82.9338" x2="96.4618" y2="79.6403" class="gray" /></g>
<g><line x1="93.8288" y1="76.9471" x2="90.8112" y2="75.717" class="gray" /></g>
<g><line x1="87.6578" y1="73.315" x2="85.5522" y2="70.5791" class="gray" /></g>
<g><line x1="84.0611" y1="66.9129" x2="83.6589" y2="63.4812" class="gray" /></g>
<g><line x1="84.2636" y1="59.5703" x2="85.6864" y2="56.4138" class="gray" /></g>
<g><line x1="88.1952" y1="53.3411" x2="90.8548" y2="51.423" class="gray" /></g>
<g><line x1="94.5683" y1="50.082" x2="98.2217" y2="49.8321" class="gray" /></g>
<g><line x1="102.111" y1="50.6007" x2="105.379" y2="52.2134" class="gray" /></g>
<g><line x1="108.273" y1="54.8842" x2="109.987" y2="57.7498" class="gray" /></g>
<g><line x1="111.143" y1="61.5625" x2="111.317" y2="65.0215" class="gray" /></g>
<g><line x1="110.365" y1="68.8335" x2="108.535" y2="71.8906" class="gray" /></g>
<g><line x1="108.113" y1="75.6052" x2="109.157" y2="78.8289" class="gray" /></g>
<g><line x1="110.571" y1="82.6806" x2="111.939" y2="86.0034" class="gray" /></g>
<g><line x1="113.3" y1="89.8715" x2="114.24" y2="93.0626" class="gray" /></g>
<g><line x1="116.861" y1="95.2522" x2="120.289" y2="95.6219" class="gray" /></g>
<g><line x1="124.192" y1="96.7079" x2="127.498" y2="98.2461" class="gray" /></g>
<g><line x1="130.784" y1="100.591" x2="133.076" y2="102.973" class="gray" /></g>
<g><line x1="135.431" y1="106.282" x2="137.039" y2="109.442" class="gray" /></g>
<g><line x1="138.19" y1="113.313" x2="138.56" y2="116.751" class="gray" /></g>
<g><line x1="138.308" y1="120.79" x2="137.512" y2="124.154" class="gray" /></g>
<g><line x1="138.639" y1="127.439" x2="141.331" y2="129.605" class="gray" /></g>
<g><line x1="144.506" y1="132.207" x2="147.034" y2="134.317" class="gray" /></g>
<g><line x1="150.207" y1="136.922" x2="152.893" y2="139.092" class="gray" /></g>
<g><line x1="156.514" y1="140.037" x2="160.326" y2="139.387" class="gray" /></g>
<g><line x1="164.263" y1="139.788" x2="167.307" y2="140.976" class="gray" /></g>
<g><line x1="170.494" y1="143.332" x2="172.636" y2="146.042" class="gray" /></g>
<g><line x1="174.176" y1="149.688" x2="174.624" y2="153.106" class="gray" /></g>
<g><line x1="174.028" y1="157.005" x2="172.542" y2="160.219" class="gray" /></g>
<g><line x1="170.053" y1="163.334" x2="167.577" y2="165.24" class="gray" /></g>
<g><line x1="163.904" y1="166.659" x2="160.256" y2="166.955" class="gray" /></g>
<g><line x1="156.366" y1="166.22" x2="153.264" y2="164.704" class="gray" /></g>
<g><line x1="150.301" y1="162.081" x2="148.419" y2="159.184" class="gray" /></g>
<g><line x1="147.224" y1="155.41" x2="147.096" y2="151.964" class="gray" /></g>
<g><line x1="145.423" y1="148.622" x2="142.737" y2="146.452" class="gray" /></g>
<g><line x1="139.519" y1="143.902" x2="136.661" y2="141.682" class="gray" /></g>
<g><line x1="133.441" y1="139.135" x2="130.749" y2="136.969" class="gray" /></g>
<g><line x1="127.309" y1="136.59" x2="124.381" y2="138.034" class="gray" /></g>
<g><line x1="122.597" y1="140.994" x2="122.693" y2="144.45" class="gray" /></g>
<g><line x1="122.693" y1="148.554" x2="122.597" y2="152.01" class="gray" /></g>
<g><line x1="122.54" y1="156.115" x2="122.54" y2="159.569" class="gray" /></g>
<g><line x1="122.54" y1="163.675" x2="122.54" y2="167.129" class="gray" /></g>
<g><line x1="122.54" y1="171.235" x2="122.54" y2="174.689" class="gray" /></g>
<g><line x1="122.54" y1="178.795" x2="122.54" y2="182.249" class="gray" /></g>
<g><line x1="124.019" y1="185.726" x2="126.509" y2="188.121" class="gray" /></g>
<g><line x1="126.929" y1="191.303" x2="125.148" y2="194.263" class="gray" /></g>
</svg>
