<svg
	xmlns="http://www.w3.org/2000/svg"
	width="220.6"
	height="240.503">
<g><style type="text/css" >
<!-- create color definitions -->
<![CDATA[
circle.red {stroke: rgb(255, 0, 255); fill: none; }
circle.green {stroke: rgb(0, 255, 0); fill: none; }
circle.blue {stroke: rgb(0, 0, 255); fill: none; }
circle.black {stroke: rgb(0, 0, 0); fill: none; }
circle.gray {stroke: rgb(204, 204, 204); fill: none; }
circle.brown {stroke: rgb(211.65, 104.55, 30.6); fill: none; }
line.red {stroke: rgb(255, 0, 255); stroke-width: 0.383794; }
line.green {stroke: rgb(0, 255, 0); stroke-width: 0.383794; }
line.blue {stroke: rgb(0, 0, 255); stroke-width: 0.383794; }
line.black {stroke: rgb(0, 0, 0); stroke-width: 0.383794; }
line.gray {stroke: rgb(204, 204, 204); stroke-width: 0.383794; }
line.brown {stroke: rgb(211.65, 104.55, 30.6); stroke-width: 0.383794; }
line {stroke: rgb(0, 0, 0); }
text.red {fill: rgb(255, 0, 255); font-size: 3.070355px; font-weight: bold; font-family: Helvetica; }
text.green {fill: rgb(0, 255, 0); font-size: 3.070355px; font-weight: bold; font-family: Helvetica; }
text.blue {fill: rgb(0, 0, 255); font-size: 3.070355px; font-weight: bold; font-family: Helvetica; }
text.black {fill: rgb(0, 0, 0); font-size: 3.070355px; font-weight: bold; font-family: Helvetica; }
text.gray {fill: rgb(204, 204, 204); font-size: 3.070355px; font-weight: bold; font-family: Helvetica; }
text.brown {fill: rgb(211.65, 104.55, 30.6); font-size: 3.070355px; font-weight: bold; font-family: Helvetica; }
text {fill: rgb(0, 0, 0); font-size: 3.070355px; font-weight: bold; font-family: Helvetica; text-anchor: middle; alignment-baseline: middle; }

.pseudoknot_connection{stroke-linecap: round; stroke-opacity: 0.2; stroke-width: 1.5; }
.pseudoknot_segment1{stroke-linecap: round; stroke-opacity: 0.4; stroke-width: 3.07036; }
.pseudoknot_segment2{stroke-linecap: round; stroke-opacity: 0.4; stroke-width: 3.07036; }
line.numbering-line{stroke: rgb(204, 204, 204); stroke-width: 0.191897; }
line.predicted{stroke: rgb(0, 0, 0); stroke-dasharray: 2; }
polyline{fill: none; stroke-linejoin: round; }
template{visibility: hidden; }
text.numbering-label{fill: rgb(204, 204, 204); }
]]>
</style></g>
<g><title>0 (position.label in template: 0.5')</title><text x="112.831" y="192.307" class="green" >5'</text></g>
<g><title>1 (position.label in template: 1.G)</title><text x="110.09" y="185.26" class="black" >G</text></g>
<g><line x1="112.137" y1="184.953" x2="120.493" y2="184.953" class="black" /></g>
<g><title>2 (position.label in template: 2.A)</title><text x="107.41" y="178.37" class="black" >A</text></g>
<g><title>3 (position.label in template: 3.G)</title><text x="110.09" y="171.47" class="green" >G</text></g>
<g><line x1="112.137" y1="171.163" x2="120.493" y2="171.163" class="black" /></g>
<g><title>4 (position.label in template: 4.G)</title><text x="110.09" y="163.91" class="black" >G</text></g>
<g><line x1="112.137" y1="163.603" x2="120.493" y2="163.603" class="black" /></g>
<g><title>5 (position.label in template: 5.G)</title><text x="110.09" y="156.35" class="black" >G</text></g>
<g><line x1="112.137" y1="156.043" x2="120.493" y2="156.043" class="black" /></g>
<g><title>6 (position.label in template: 6.U)</title><text x="110.3" y="148.79" class="green" >T</text></g>
<g><line x1="112.347" y1="148.483" x2="120.703" y2="148.483" class="black" /></g>
<g><title>7 (position.label in template: 7.A)</title><text x="110.51" y="141.23" class="green" >A</text></g>
<g><line x1="112.557" y1="140.923" x2="120.493" y2="140.923" class="black" /></g>
<g><title>8 (position.label in template: 8.U)</title><text x="103.48" y="137.97" class="green" >T</text></g>
<g><title>9 (position.label in template: 9.A)</title><text x="98.34" y="132.62" class="black" >A</text></g>
<g><title>10 (position.label in template: 10.G)</title><text x="94.66" y="125.8" class="black" >G</text></g>
<g><line x1="94.6951" y1="123.446" x2="94.8349" y2="115.3" class="black" /></g>
<g><text x="91.0269" y="131.676" class="numbering-label sequential" >10</text></g>
<g><line x1="93.6912" y1="127.367" x2="91.9761" y2="130.141" class="numbering-line sequential" /></g>
<g><title>11 (position.label in template: 11.C)</title><text x="87.31" y="125.8" class="black" >C</text></g>
<g><line x1="87.2749" y1="123.446" x2="87.1351" y2="115.3" class="black" /></g>
<g><title>12 (position.label in template: 12.U)</title><text x="79.75" y="125.8" class="green" >T</text></g>
<g><line x1="79.7851" y1="123.446" x2="79.9249" y2="115.3" class="black" /></g>
<g><title>13 (position.label in template: 13.C)</title><text x="72.19" y="125.8" class="black" >C</text></g>
<g><line x1="72.1549" y1="123.446" x2="72.0151" y2="115.3" class="black" /></g>
<g><title>14 (position.label in template: 14.A)</title><text x="66.63" y="130.69" class="black" >A</text></g>
<g><title>15 (position.label in template: 15.G)</title><text x="58.67" y="131.1" class="black" >G</text></g>
<g><title>16 (position.label in template: 16.U)</title><text x="52.62" y="126.85" class="green" >T</text></g>
<g><title>17 (position.label in template: 17.G)</title><text x="50" y="119.68" class="black" >G</text></g>
<g><title>18 (position.label in template: 18.G)</title><text x="52.41" y="112.52" class="black" >G</text></g>
<g><title>19 (position.label in template: 19.U)</title><text x="58.88" y="108.27" class="green" >T</text></g>
<g><title>20 (position.label in template: 20.A)</title><text x="66.63" y="108.68" class="black" >A</text></g>
<g><text x="69.2167" y="102.274" class="numbering-label sequential" >20</text></g>
<g><line x1="67.3198" y1="106.972" x2="68.5968" y2="103.809" class="numbering-line sequential" /></g>
<g><title>21 (position.label in template: 21.G)</title><text x="71.98" y="113.56" class="black" >G</text></g>
<g><title>22 (position.label in template: 22.A)</title><text x="79.96" y="113.56" class="green" >A</text></g>
<g><title>23 (position.label in template: 23.G)</title><text x="87.1" y="113.56" class="black" >G</text></g>
<g><title>24 (position.label in template: 24.C)</title><text x="94.87" y="113.56" class="black" >C</text></g>
<g><title>25 (position.label in template: 25.A)</title><text x="98.34" y="106.75" class="black" >A</text></g>
<g><title>26 (position.label in template: 26.C)</title><text x="103.48" y="101.4" class="black" >C</text></g>
<g><line x1="105.407" y1="100.402" x2="112.893" y2="97.7144" class="black" /></g>
<g><title>27 (position.label in template: 27.G)</title><text x="100.76" y="94.27" class="green" >G</text></g>
<g><line x1="102.694" y1="93.293" x2="110.576" y2="90.5629" class="black" /></g>
<g><title>28 (position.label in template: 28.U)</title><text x="98.45" y="87.14" class="green" >T</text></g>
<g><line x1="100.384" y1="86.163" x2="108.266" y2="83.4329" class="black" /></g>
<g><title>29 (position.label in template: 29.G)</title><text x="95.73" y="80.01" class="black" >G</text></g>
<g><line x1="97.6642" y1="79.033" x2="105.546" y2="76.3029" class="black" /></g>
<g><title>30 (position.label in template: 30.C)</title><text x="93.42" y="72.88" class="black" >C</text></g>
<g><line x1="95.3466" y1="71.8815" x2="102.833" y2="69.1944" class="black" /></g>
<g><text x="88.0443" y="77.2189" class="numbering-label sequential" >30</text></g>
<g><line x1="91.9865" y1="74.037" x2="89.9463" y2="75.6837" class="numbering-line sequential" /></g>
<g><title>31 (position.label in template: 31.U)</title><text x="86.9" y="69.07" class="green" >T</text></g>
<g><title>32 (position.label in template: 32.U)</title><text x="84.01" y="62.08" class="green" >T</text></g>
<g><title>33 (position.label in template: 33.A)</title><text x="86.13" y="54.77" class="black" >A</text></g>
<g><title>34 (position.label in template: 34.G)</title><text x="91.67" y="50.11" class="black" >G</text></g>
<g><title>35 (position.label in template: 35.C)</title><text x="99.44" y="50" class="black" >C</text></g>
<g><title>36 (position.label in template: 36.A)</title><text x="105.73" y="54.49" class="black" >A</text></g>
<g><title>37 (position.label in template: 37.U)</title><text x="107.66" y="61.75" class="green" >T</text></g>
<g><title>38 (position.label in template: 38.G)</title><text x="104.76" y="68.81" class="black" >G</text></g>
<g><title>39 (position.label in template: 39.C)</title><text x="107.48" y="75.94" class="black" >C</text></g>
<g><title>40 (position.label in template: 40.A)</title><text x="110.2" y="83.07" class="green" >A</text></g>
<g><title>41 (position.label in template: 41.U)</title><text x="112.51" y="90.2" class="green" >T</text></g>
<g><title>42 (position.label in template: 42.G)</title><text x="114.82" y="97.33" class="black" >G</text></g>
<g><title>43 (position.label in template: 43.A)</title><text x="122.75" y="98.14" class="black" >A</text></g>
<g><title>44 (position.label in template: 44.G)</title><text x="129.15" y="101.4" class="black" >G</text></g>
<g><title>45 (position.label in template: 45.G)</title><text x="134.5" y="106.75" class="black" >G</text></g>
<g><title>46 (position.label in template: 46.U)</title><text x="137.97" y="113.56" class="green" >T</text></g>
<g><title>47 (position.label in template: 47.C)</title><text x="138.78" y="121.08" class="black" >C</text></g>
<g><title>48 (position.label in template: 48.C)</title><text x="137.04" y="128.44" class="black" >C</text></g>
<g><line x1="135.735" y1="129.71" x2="130.455" y2="136.086" class="black" /></g>
<g><title>49 (position.label in template: 49.U)</title><text x="142.93" y="133.18" class="green" >T</text></g>
<g><line x1="141.667" y1="134.484" x2="136.723" y2="140.792" class="black" /></g>
<g><title>50 (position.label in template: 50.G)</title><text x="148.61" y="137.93" class="black" >G</text></g>
<g><line x1="147.347" y1="139.234" x2="142.403" y2="145.542" class="black" /></g>
<g><text x="152.993" y="132.59" class="numbering-label sequential" >50</text></g>
<g><line x1="149.779" y1="136.506" x2="151.733" y2="134.126" class="numbering-line sequential" /></g>
<g><title>51 (position.label in template: 51.G)</title><text x="154.49" y="142.67" class="black" >G</text></g>
<g><line x1="153.227" y1="143.974" x2="148.283" y2="150.282" class="black" /></g>
<g><title>52 (position.label in template: 52.U)</title><text x="162.26" y="142.48" class="green" >T</text></g>
<g><title>53 (position.label in template: 53.U)</title><text x="168.39" y="146.9" class="green" >T</text></g>
<g><title>54 (position.label in template: 54.C)</title><text x="170.6" y="154.14" class="black" >C</text></g>
<g><title>55 (position.label in template: 55.G)</title><text x="167.77" y="161.23" class="black" >G</text></g>
<g><title>56 (position.label in template: 56.A)</title><text x="161.81" y="165.29" class="black" >A</text></g>
<g><title>57 (position.label in template: 57.U)</title><text x="154.07" y="164.68" class="green" >T</text></g>
<g><title>58 (position.label in template: 58.U)</title><text x="148.45" y="159.62" class="green" >T</text></g>
<g><title>59 (position.label in template: 59.C)</title><text x="147.02" y="152.2" class="black" >C</text></g>
<g><title>60 (position.label in template: 60.C)</title><text x="142.28" y="158.09" class="black" >C</text></g>
<g><title>61 (position.label in template: 61.C)</title><text x="136.39" y="153.34" class="black" >C</text></g>
<g><title>62 (position.label in template: 62.C)</title><text x="141.14" y="147.46" class="black" >C</text></g>
<g><title>63 (position.label in template: 63.A)</title><text x="135.46" y="142.71" class="green" >A</text></g>
<g><title>64 (position.label in template: 64.G)</title><text x="129.15" y="137.97" class="black" >G</text></g>
<g><title>65 (position.label in template: 65.U)</title><text x="122.54" y="141.23" class="green" >T</text></g>
<g><title>66 (position.label in template: 66.A)</title><text x="122.75" y="148.79" class="green" >A</text></g>
<g><title>67 (position.label in template: 67.C)</title><text x="122.54" y="156.35" class="black" >C</text></g>
<g><title>68 (position.label in template: 68.C)</title><text x="122.54" y="163.91" class="black" >C</text></g>
<g><title>69 (position.label in template: 69.U)</title><text x="122.54" y="171.47" class="green" >T</text></g>
<g><title>70 (position.label in template: 70.C)</title><text x="125.64" y="178.37" class="black" >C</text></g>
<g><title>71 (position.label in template: 71.C)</title><text x="122.54" y="185.26" class="black" >C</text></g>
<g><title>72 (position.label in template: 72.A)</title><text x="127.989" y="190.503" class="black" >A</text></g>
<g><title>73 (position.label in template: 73.3')</title><text x="129.426" y="197.927" class="green" >3'</text></g>
<g><line x1="112.089" y1="190.092" x2="110.832" y2="186.861" class="gray" /></g>
<g><line x1="109.348" y1="183.045" x2="108.152" y2="179.971" class="gray" /></g>
<g><line x1="108.151" y1="176.155" x2="109.349" y2="173.071" class="gray" /></g>
<g><line x1="110.09" y1="169.116" x2="110.09" y2="165.65" class="gray" /></g>
<g><line x1="110.09" y1="161.556" x2="110.09" y2="158.09" class="gray" /></g>
<g><line x1="110.147" y1="153.997" x2="110.243" y2="150.529" class="gray" /></g>
<g><line x1="110.357" y1="146.437" x2="110.453" y2="142.969" class="gray" /></g>
<g><line x1="108.653" y1="140.062" x2="105.337" y2="138.524" class="gray" /></g>
<g><line x1="102.062" y1="136.187" x2="99.7581" y2="133.789" class="gray" /></g>
<g><line x1="97.368" y1="130.512" x2="95.632" y2="127.294" class="gray" /></g>
<g><line x1="92.6131" y1="125.493" x2="89.3569" y2="125.493" class="gray" /></g>
<g><line x1="85.2631" y1="125.493" x2="81.7969" y2="125.493" class="gray" /></g>
<g><line x1="77.7031" y1="125.493" x2="74.2369" y2="125.493" class="gray" /></g>
<g><line x1="70.653" y1="126.845" x2="68.167" y2="129.031" class="gray" /></g>
<g><line x1="64.5858" y1="130.488" x2="60.7142" y2="130.688" class="gray" /></g>
<g><line x1="56.9951" y1="129.616" x2="54.2949" y2="127.72" class="gray" /></g>
<g><line x1="51.9175" y1="124.62" x2="50.7025" y2="121.296" class="gray" /></g>
<g><line x1="50.653" y1="117.433" x2="51.757" y2="114.153" class="gray" /></g>
<g><line x1="54.1208" y1="111.089" x2="57.1692" y2="109.087" class="gray" /></g>
<g><line x1="60.924" y1="108.071" x2="64.586" y2="108.265" class="gray" /></g>
<g><line x1="68.1423" y1="109.752" x2="70.4677" y2="111.874" class="gray" /></g>
<g><line x1="74.0269" y1="113.253" x2="77.9131" y2="113.253" class="gray" /></g>
<g><line x1="82.0069" y1="113.253" x2="85.0531" y2="113.253" class="gray" /></g>
<g><line x1="89.1469" y1="113.253" x2="92.8231" y2="113.253" class="gray" /></g>
<g><line x1="95.7993" y1="111.429" x2="97.4107" y2="108.267" class="gray" /></g>
<g><line x1="99.7581" y1="104.967" x2="102.062" y2="102.569" class="gray" /></g>
<g><line x1="102.75" y1="99.1805" x2="101.49" y2="95.8754" class="gray" /></g>
<g><line x1="100.129" y1="92.0157" x2="99.0809" y2="88.7802" class="gray" /></g>
<g><line x1="97.7204" y1="84.9205" x2="96.4596" y2="81.6154" class="gray" /></g>
<g><line x1="95.0991" y1="77.7557" x2="94.0509" y2="74.5202" class="gray" /></g>
<g><line x1="91.6527" y1="71.5402" x2="88.6673" y2="69.7957" class="gray" /></g>
<g><line x1="86.1179" y1="66.8714" x2="84.7921" y2="63.6646" class="gray" /></g>
<g><line x1="84.5801" y1="59.8071" x2="85.5599" y2="56.4289" class="gray" /></g>
<g><line x1="87.6964" y1="53.1454" x2="90.1036" y2="51.1206" class="gray" /></g>
<g><line x1="93.7167" y1="49.774" x2="97.3933" y2="49.7219" class="gray" /></g>
<g><line x1="101.106" y1="50.8822" x2="104.064" y2="52.9937" class="gray" /></g>
<g><line x1="106.256" y1="56.1612" x2="107.134" y2="59.4648" class="gray" /></g>
<g><line x1="106.882" y1="63.3364" x2="105.538" y2="66.6096" class="gray" /></g>
<g><line x1="105.49" y1="70.4154" x2="106.75" y2="73.7205" class="gray" /></g>
<g><line x1="108.21" y1="77.5454" x2="109.47" y2="80.8505" class="gray" /></g>
<g><line x1="110.831" y1="84.7102" x2="111.879" y2="87.9457" class="gray" /></g>
<g><line x1="113.141" y1="91.8402" x2="114.189" y2="95.0757" class="gray" /></g>
<g><line x1="116.856" y1="97.231" x2="120.714" y2="97.625" class="gray" /></g>
<g><line x1="124.574" y1="98.762" x2="127.326" y2="100.164" class="gray" /></g>
<g><line x1="130.597" y1="102.54" x2="133.053" y2="104.996" class="gray" /></g>
<g><line x1="135.429" y1="108.267" x2="137.041" y2="111.429" class="gray" /></g>
<g><line x1="138.189" y1="115.288" x2="138.561" y2="118.738" class="gray" /></g>
<g><line x1="138.309" y1="122.765" x2="137.511" y2="126.141" class="gray" /></g>
<g><line x1="138.635" y1="129.416" x2="141.335" y2="131.59" class="gray" /></g>
<g><line x1="144.5" y1="134.186" x2="147.04" y2="136.31" class="gray" /></g>
<g><line x1="150.204" y1="138.908" x2="152.896" y2="141.078" class="gray" /></g>
<g><line x1="156.536" y1="142.313" x2="160.214" y2="142.223" class="gray" /></g>
<g><line x1="163.92" y1="143.37" x2="166.73" y2="145.396" class="gray" /></g>
<g><line x1="168.988" y1="148.551" x2="170.002" y2="151.875" class="gray" /></g>
<g><line x1="169.841" y1="155.734" x2="168.529" y2="159.022" class="gray" /></g>
<g><line x1="166.078" y1="162.075" x2="163.502" y2="163.831" class="gray" /></g>
<g><line x1="159.769" y1="164.822" x2="156.111" y2="164.534" class="gray" /></g>
<g><line x1="152.549" y1="163.003" x2="149.971" y2="160.683" class="gray" /></g>
<g><line x1="148.063" y1="157.303" x2="147.407" y2="153.903" class="gray" /></g>
<g><line x1="145.737" y1="153.488" x2="143.563" y2="156.188" class="gray" /></g>
<g><line x1="140.687" y1="156.498" x2="137.983" y2="154.318" class="gray" /></g>
<g><line x1="137.676" y1="151.441" x2="139.854" y2="148.745" class="gray" /></g>
<g><line x1="139.57" y1="145.84" x2="137.03" y2="143.716" class="gray" /></g>
<g><line x1="133.823" y1="141.174" x2="130.787" y2="138.892" class="gray" /></g>
<g><line x1="127.314" y1="138.568" x2="124.376" y2="140.018" class="gray" /></g>
<g><line x1="122.597" y1="142.969" x2="122.693" y2="146.437" class="gray" /></g>
<g><line x1="122.693" y1="150.529" x2="122.597" y2="153.997" class="gray" /></g>
<g><line x1="122.54" y1="158.09" x2="122.54" y2="161.556" class="gray" /></g>
<g><line x1="122.54" y1="165.65" x2="122.54" y2="169.116" class="gray" /></g>
<g><line x1="123.379" y1="173.03" x2="124.801" y2="176.196" class="gray" /></g>
<g><line x1="124.8" y1="179.93" x2="123.38" y2="183.086" class="gray" /></g>
<g><line x1="124.015" y1="186.372" x2="126.514" y2="188.777" class="gray" /></g>
<g><line x1="128.378" y1="192.205" x2="129.037" y2="195.61" class="gray" /></g>
</svg>
