<svg
	xmlns="http://www.w3.org/2000/svg"
	width="226.59"
	height="241.664">
<g><style type="text/css" >
<!-- create color definitions -->
<![CDATA[
circle.red {stroke: rgb(255, 0, 255); fill: none; }
circle.green {stroke: rgb(0, 255, 0); fill: none; }
circle.blue {stroke: rgb(0, 0, 255); fill: none; }
circle.black {stroke: rgb(0, 0, 0); fill: none; }
circle.gray {stroke: rgb(204, 204, 204); fill: none; }
circle.brown {stroke: rgb(211.65, 104.55, 30.6); fill: none; }
line.red {stroke: rgb(255, 0, 255); stroke-width: 0.384817; }
line.green {stroke: rgb(0, 255, 0); stroke-width: 0.384817; }
line.blue {stroke: rgb(0, 0, 255); stroke-width: 0.384817; }
line.black {stroke: rgb(0, 0, 0); stroke-width: 0.384817; }
line.gray {stroke: rgb(204, 204, 204); stroke-width: 0.384817; }
line.brown {stroke: rgb(211.65, 104.55, 30.6); stroke-width: 0.384817; }
line {stroke: rgb(0, 0, 0); }
text.red {fill: rgb(255, 0, 255); font-size: 3.078539px; font-weight: bold; font-family: Helvetica; }
text.green {fill: rgb(0, 255, 0); font-size: 3.078539px; font-weight: bold; font-family: Helvetica; }
text.blue {fill: rgb(0, 0, 255); font-size: 3.078539px; font-weight: bold; font-family: Helvetica; }
text.black {fill: rgb(0, 0, 0); font-size: 3.078539px; font-weight: bold; font-family: Helvetica; }
text.gray {fill: rgb(204, 204, 204); font-size: 3.078539px; font-weight: bold; font-family: Helvetica; }
text.brown {fill: rgb(211.65, 104.55, 30.6); font-size: 3.078539px; font-weight: bold; font-family: Helvetica; }
text {fill: rgb(0, 0, 0); font-size: 3.078539px; font-weight: bold; font-family: Helvetica; text-anchor: middle; alignment-baseline: middle; }

.pseudoknot_connection{stroke-linecap: round; stroke-opacity: 0.2; stroke-width: 1.5; }
.pseudoknot_segment1{stroke-linecap: round; stroke-opacity: 0.4; stroke-width: 3.07854; }
.pseudoknot_segment2{stroke-linecap: round; stroke-opacity: 0.4; stroke-width: 3.07854; }
line.numbering-line{stroke: rgb(204, 204, 204); stroke-width: 0.192409; }
line.predicted{stroke: rgb(0, 0, 0); stroke-dasharray: 2; }
polyline{fill: none; stroke-linejoin: round; }
template{visibility: hidden; }
text.numbering-label{fill: rgb(204, 204, 204); }
]]>
</style></g>
<g><title>0 (position.label in template: 0.5')</title><text x="110.78" y="193.777" class="green" >5'</text></g>
<g><title>1 (position.label in template: 1.G)</title><text x="110.78" y="186.22" class="black" >G</text></g>
<g><line x1="112.832" y1="185.912" x2="121.178" y2="185.912" class="black" /></g>
<g><title>2 (position.label in template: 2.G)</title><text x="110.78" y="178.66" class="black" >G</text></g>
<g><line x1="112.832" y1="178.352" x2="121.178" y2="178.352" class="black" /></g>
<g><title>3 (position.label in template: 3.U)</title><text x="110.99" y="171.1" class="green" >T</text></g>
<g><line x1="113.042" y1="170.792" x2="121.388" y2="170.792" class="black" /></g>
<g><title>4 (position.label in template: 4.G)</title><text x="110.78" y="163.54" class="black" >G</text></g>
<g><line x1="112.832" y1="163.232" x2="121.178" y2="163.232" class="black" /></g>
<g><title>5 (position.label in template: 5.G)</title><text x="110.78" y="155.98" class="black" >G</text></g>
<g><line x1="112.832" y1="155.672" x2="121.178" y2="155.672" class="black" /></g>
<g><title>6 (position.label in template: 6.G)</title><text x="110.78" y="148.42" class="black" >G</text></g>
<g><line x1="112.832" y1="148.112" x2="121.178" y2="148.112" class="black" /></g>
<g><title>7 (position.label in template: 7.U)</title><text x="110.99" y="140.86" class="green" >T</text></g>
<g><line x1="113.042" y1="140.552" x2="121.388" y2="140.552" class="black" /></g>
<g><title>8 (position.label in template: 8.U)</title><text x="104.13" y="137.7" class="green" >T</text></g>
<g><title>9 (position.label in template: 9.C)</title><text x="98.64" y="132.49" class="black" >C</text></g>
<g><title>10 (position.label in template: 10.G)</title><text x="94.92" y="125.8" class="black" >G</text></g>
<g><line x1="94.8496" y1="123.441" x2="94.5704" y2="115.313" class="black" /></g>
<g><text x="91.4916" y="131.819" class="numbering-label sequential" >10</text></g>
<g><line x1="94.0058" y1="127.405" x2="92.3684" y2="130.279" class="numbering-line sequential" /></g>
<g><title>11 (position.label in template: 11.C)</title><text x="87.58" y="126.19" class="black" >C</text></g>
<g><line x1="87.4394" y1="123.835" x2="86.8806" y2="115.7" class="black" /></g>
<g><title>12 (position.label in template: 12.C)</title><text x="80.03" y="126.58" class="black" >C</text></g>
<g><line x1="79.8893" y1="124.225" x2="79.3307" y2="116.1" class="black" /></g>
<g><title>13 (position.label in template: 13.U)</title><text x="72.48" y="126.97" class="green" >T</text></g>
<g><line x1="72.3393" y1="124.615" x2="71.7807" y2="116.49" class="black" /></g>
<g><title>14 (position.label in template: 14.A)</title><text x="67.18" y="132.15" class="black" >A</text></g>
<g><title>15 (position.label in template: 15.A)</title><text x="59.66" y="132.94" class="black" >A</text></g>
<g><title>16 (position.label in template: 16.U)</title><text x="52.99" y="129.03" class="green" >T</text></g>
<g><title>17 (position.label in template: 17.G)</title><text x="50" y="122" class="black" >G</text></g>
<g><title>18 (position.label in template: 18.G)</title><text x="52.04" y="114.72" class="black" >G</text></g>
<g><title>19 (position.label in template: 19.U)</title><text x="58.28" y="110.15" class="green" >T</text></g>
<g><title>20 (position.label in template: 20.A)</title><text x="66.04" y="110.16" class="black" >A</text></g>
<g><text x="68.295" y="103.611" class="numbering-label sequential" >20</text></g>
<g><line x1="66.6413" y1="108.414" x2="67.765" y2="105.15" class="numbering-line sequential" /></g>
<g><title>21 (position.label in template: 21.G)</title><text x="71.64" y="114.75" class="green" >G</text></g>
<g><title>22 (position.label in template: 22.G)</title><text x="79.19" y="114.36" class="black" >G</text></g>
<g><title>23 (position.label in template: 23.G)</title><text x="86.74" y="113.96" class="black" >G</text></g>
<g><title>24 (position.label in template: 24.C)</title><text x="94.5" y="113.57" class="black" >C</text></g>
<g><title>25 (position.label in template: 25.A)</title><text x="97.51" y="106.55" class="black" >A</text></g>
<g><title>26 (position.label in template: 26.C)</title><text x="102.22" y="100.81" class="black" >C</text></g>
<g><line x1="104.078" y1="99.6296" x2="111.262" y2="96.2547" class="black" /></g>
<g><title>27 (position.label in template: 27.U)</title><text x="99.05" y="93.94" class="green" >T</text></g>
<g><line x1="100.92" y1="92.787" x2="108.51" y2="89.3573" class="black" /></g>
<g><title>28 (position.label in template: 28.A)</title><text x="96.1" y="87.07" class="green" >A</text></g>
<g><line x1="97.9579" y1="85.8902" x2="105.152" y2="82.5141" class="black" /></g>
<g><title>29 (position.label in template: 29.G)</title><text x="92.52" y="80.21" class="black" >G</text></g>
<g><line x1="94.3903" y1="79.057" x2="101.98" y2="75.6273" class="black" /></g>
<g><title>30 (position.label in template: 30.U)</title><text x="89.57" y="73.34" class="green" >T</text></g>
<g><line x1="91.44" y1="72.1864" x2="99.02" y2="68.7579" class="black" /></g>
<g><text x="84.606" y="78.1709" class="numbering-label sequential" >30</text></g>
<g><line x1="88.2463" y1="74.6282" x2="86.1877" y2="76.6317" class="numbering-line sequential" /></g>
<g><title>31 (position.label in template: 31.C)</title><text x="82.72" y="70.14" class="black" >C</text></g>
<g><title>32 (position.label in template: 32.U)</title><text x="79.19" y="63.46" class="green" >T</text></g>
<g><title>33 (position.label in template: 33.U)</title><text x="80.43" y="56" class="green" >T</text></g>
<g><title>34 (position.label in template: 34.G)</title><text x="85.72" y="50.81" class="black" >G</text></g>
<g><title>35 (position.label in template: 35.A)</title><text x="93.66" y="50" class="black" >A</text></g>
<g><title>36 (position.label in template: 36.A)</title><text x="100.13" y="53.91" class="black" >A</text></g>
<g><title>37 (position.label in template: 37.A)</title><text x="102.92" y="60.94" class="black" >A</text></g>
<g><title>38 (position.label in template: 38.A)</title><text x="100.89" y="68.22" class="green" >A</text></g>
<g><title>39 (position.label in template: 39.C)</title><text x="103.85" y="75.09" class="black" >C</text></g>
<g><title>40 (position.label in template: 40.U)</title><text x="107.01" y="81.95" class="green" >T</text></g>
<g><title>41 (position.label in template: 41.A)</title><text x="110.38" y="88.82" class="green" >A</text></g>
<g><title>42 (position.label in template: 42.G)</title><text x="113.12" y="95.69" class="black" >G</text></g>
<g><title>43 (position.label in template: 43.C)</title><text x="120.89" y="95.69" class="black" >C</text></g>
<g><title>44 (position.label in template: 44.G)</title><text x="127.84" y="98.12" class="black" >G</text></g>
<g><line x1="129.345" y1="99.2077" x2="135.425" y2="104.847" class="black" /></g>
<g><title>45 (position.label in template: 45.G)</title><text x="133.05" y="92.64" class="black" >G</text></g>
<g><line x1="134.554" y1="93.7285" x2="140.626" y2="99.3657" class="black" /></g>
<g><title>46 (position.label in template: 46.G)</title><text x="138.25" y="87.16" class="black" >G</text></g>
<g><line x1="139.755" y1="88.2477" x2="145.835" y2="93.8866" class="black" /></g>
<g><title>47 (position.label in template: 47.C)</title><text x="143.67" y="81.68" class="black" >C</text></g>
<g><line x1="145.141" y1="82.8028" x2="150.859" y2="88.3614" class="black" /></g>
<g><title>48 (position.label in template: 48.G)</title><text x="146.87" y="74.93" class="black" >G</text></g>
<g><title>49 (position.label in template: 49.A)</title><text x="154.73" y="73.64" class="black" >A</text></g>
<g><title>50 (position.label in template: 50.A)</title><text x="160.22" y="78.84" class="black" >A</text></g>
<g><text x="166.737" y="76.4918" class="numbering-label sequential" >50</text></g>
<g><line x1="161.958" y1="78.2138" x2="164.889" y2="77.1574" class="numbering-line sequential" /></g>
<g><title>51 (position.label in template: 51.A)</title><text x="159.31" y="86.35" class="black" >A</text></g>
<g><title>52 (position.label in template: 52.G)</title><text x="152.33" y="90.1" class="black" >G</text></g>
<g><title>53 (position.label in template: 53.C)</title><text x="147.34" y="95.59" class="black" >C</text></g>
<g><title>54 (position.label in template: 54.C)</title><text x="142.13" y="101.07" class="black" >C</text></g>
<g><title>55 (position.label in template: 55.C)</title><text x="136.93" y="106.55" class="black" >C</text></g>
<g><title>56 (position.label in template: 56.U)</title><text x="139.73" y="113.57" class="green" >T</text></g>
<g><title>57 (position.label in template: 57.U)</title><text x="140.12" y="121.12" class="green" >T</text></g>
<g><title>58 (position.label in template: 58.G)</title><text x="137.85" y="128.4" class="black" >G</text></g>
<g><line x1="136.536" y1="129.669" x2="131.414" y2="135.815" class="black" /></g>
<g><title>59 (position.label in template: 59.C)</title><text x="143.8" y="133.31" class="black" >C</text></g>
<g><line x1="142.446" y1="134.545" x2="136.994" y2="140.759" class="black" /></g>
<g><title>60 (position.label in template: 60.A)</title><text x="149.75" y="138.23" class="green" >A</text></g>
<g><line x1="148.396" y1="139.465" x2="142.944" y2="145.679" class="black" /></g>
<g><title>61 (position.label in template: 61.G)</title><text x="155.08" y="143.14" class="black" >G</text></g>
<g><line x1="153.766" y1="144.409" x2="148.644" y2="150.555" class="black" /></g>
<g><title>62 (position.label in template: 62.G)</title><text x="160.83" y="148.06" class="black" >G</text></g>
<g><line x1="159.516" y1="149.329" x2="154.394" y2="155.475" class="black" /></g>
<g><title>63 (position.label in template: 63.U)</title><text x="168.59" y="148.09" class="green" >T</text></g>
<g><title>64 (position.label in template: 64.U)</title><text x="174.59" y="152.69" class="green" >T</text></g>
<g><title>65 (position.label in template: 65.C)</title><text x="176.59" y="159.99" class="black" >C</text></g>
<g><title>66 (position.label in template: 66.G)</title><text x="173.55" y="167" class="black" >G</text></g>
<g><title>67 (position.label in template: 67.A)</title><text x="167.48" y="170.87" class="black" >A</text></g>
<g><title>68 (position.label in template: 68.C)</title><text x="159.76" y="170.03" class="black" >C</text></g>
<g><title>69 (position.label in template: 69.U)</title><text x="154.28" y="164.82" class="green" >T</text></g>
<g><title>70 (position.label in template: 70.C)</title><text x="153.08" y="157.36" class="black" >C</text></g>
<g><title>71 (position.label in template: 71.C)</title><text x="147.33" y="152.44" class="black" >C</text></g>
<g><title>72 (position.label in template: 72.U)</title><text x="141.59" y="147.53" class="green" >T</text></g>
<g><title>73 (position.label in template: 73.G)</title><text x="135.64" y="142.61" class="black" >G</text></g>
<g><title>74 (position.label in template: 74.C)</title><text x="130.1" y="137.7" class="black" >C</text></g>
<g><title>75 (position.label in template: 75.A)</title><text x="123.44" y="140.86" class="green" >A</text></g>
<g><title>76 (position.label in template: 76.C)</title><text x="123.23" y="148.42" class="black" >C</text></g>
<g><title>77 (position.label in template: 77.C)</title><text x="123.23" y="155.98" class="black" >C</text></g>
<g><title>78 (position.label in template: 78.C)</title><text x="123.23" y="163.54" class="black" >C</text></g>
<g><title>79 (position.label in template: 79.A)</title><text x="123.44" y="171.1" class="green" >A</text></g>
<g><title>80 (position.label in template: 80.C)</title><text x="123.23" y="178.66" class="black" >C</text></g>
<g><title>81 (position.label in template: 81.C)</title><text x="123.23" y="186.22" class="black" >C</text></g>
<g><title>82 (position.label in template: 82.G)</title><text x="128.47" y="191.664" class="black" >G</text></g>
<g><title>83 (position.label in template: 83.3')</title><text x="123.233" y="197.112" class="green" >3'</text></g>
<g><line x1="110.78" y1="191.416" x2="110.78" y2="187.965" class="gray" /></g>
<g><line x1="110.78" y1="183.86" x2="110.78" y2="180.405" class="gray" /></g>
<g><line x1="110.837" y1="176.301" x2="110.933" y2="172.844" class="gray" /></g>
<g><line x1="110.933" y1="168.741" x2="110.837" y2="165.284" class="gray" /></g>
<g><line x1="110.78" y1="161.18" x2="110.78" y2="157.725" class="gray" /></g>
<g><line x1="110.78" y1="153.62" x2="110.78" y2="150.165" class="gray" /></g>
<g><line x1="110.837" y1="146.061" x2="110.933" y2="142.604" class="gray" /></g>
<g><line x1="109.126" y1="139.693" x2="105.994" y2="138.251" class="gray" /></g>
<g><line x1="102.641" y1="135.979" x2="100.129" y2="133.595" class="gray" /></g>
<g><line x1="97.6426" y1="130.388" x2="95.9174" y2="127.286" class="gray" /></g>
<g><line x1="92.8705" y1="125.601" x2="89.6295" y2="125.773" class="gray" /></g>
<g><line x1="85.5304" y1="125.988" x2="82.0796" y2="126.166" class="gray" /></g>
<g><line x1="77.9804" y1="126.378" x2="74.5296" y2="126.556" class="gray" /></g>
<g><line x1="71.0122" y1="128.097" x2="68.6478" y2="130.408" class="gray" /></g>
<g><line x1="65.1389" y1="132.057" x2="61.7011" y2="132.418" class="gray" /></g>
<g><line x1="57.8894" y1="131.594" x2="54.7606" y2="129.76" class="gray" /></g>
<g><line x1="52.1867" y1="126.834" x2="50.8033" y2="123.581" class="gray" /></g>
<g><line x1="50.5538" y1="119.716" x2="51.4862" y2="116.388" class="gray" /></g>
<g><line x1="53.6958" y1="113.199" x2="56.6242" y2="111.055" class="gray" /></g>
<g><line x1="60.3324" y1="109.845" x2="63.9876" y2="109.85" class="gray" /></g>
<g><line x1="67.6273" y1="111.153" x2="70.0527" y2="113.141" class="gray" /></g>
<g><line x1="73.6896" y1="114.336" x2="77.1404" y2="114.158" class="gray" /></g>
<g><line x1="81.2395" y1="113.944" x2="84.6905" y2="113.761" class="gray" /></g>
<g><line x1="88.7898" y1="113.549" x2="92.4502" y2="113.365" class="gray" /></g>
<g><line x1="95.3088" y1="111.376" x2="96.7012" y2="108.128" class="gray" /></g>
<g><line x1="98.8119" y1="104.656" x2="100.918" y2="102.089" class="gray" /></g>
<g><line x1="101.36" y1="98.6386" x2="99.9099" y2="95.4957" class="gray" /></g>
<g><line x1="98.2402" y1="91.7463" x2="96.9098" y2="88.648" class="gray" /></g>
<g><line x1="95.1505" y1="84.9427" x2="93.4695" y2="81.7216" class="gray" /></g>
<g><line x1="91.7102" y1="78.0163" x2="90.3798" y2="74.918" class="gray" /></g>
<g><line x1="87.7105" y1="72.1635" x2="84.5795" y2="70.7008" class="gray" /></g>
<g><line x1="81.7611" y1="68.0176" x2="80.1489" y2="64.9667" class="gray" /></g>
<g><line x1="79.5265" y1="61.1276" x2="80.0935" y2="57.7167" class="gray" /></g>
<g><line x1="81.895" y1="54.2548" x2="84.255" y2="51.9395" class="gray" /></g>
<g><line x1="87.7618" y1="50.2939" x2="91.6182" y2="49.9004" class="gray" /></g>
<g><line x1="95.4165" y1="50.7537" x2="98.3735" y2="52.5406" class="gray" /></g>
<g><line x1="100.887" y1="55.5098" x2="102.163" y2="58.7245" class="gray" /></g>
<g><line x1="102.369" y1="62.6091" x2="101.441" y2="65.9352" class="gray" /></g>
<g><line x1="101.702" y1="69.797" x2="103.038" y2="72.8973" class="gray" /></g>
<g><line x1="104.709" y1="76.6462" x2="106.151" y2="79.7781" class="gray" /></g>
<g><line x1="107.914" y1="83.4848" x2="109.476" y2="86.6695" class="gray" /></g>
<g><line x1="111.14" y1="90.4185" x2="112.36" y2="93.4758" class="gray" /></g>
<g><line x1="115.172" y1="95.3821" x2="118.838" y2="95.3821" class="gray" /></g>
<g><line x1="122.827" y1="96.0595" x2="125.903" y2="97.1348" class="gray" /></g>
<g><line x1="129.254" y1="96.3247" x2="131.636" y2="93.8196" class="gray" /></g>
<g><line x1="134.463" y1="90.8434" x2="136.837" y2="88.3409" class="gray" /></g>
<g><line x1="139.693" y1="85.3929" x2="142.227" y2="82.8313" class="gray" /></g>
<g><line x1="144.549" y1="79.5176" x2="145.991" y2="76.4767" class="gray" /></g>
<g><line x1="148.895" y1="74.2898" x2="152.705" y2="73.6645" class="gray" /></g>
<g><line x1="156.22" y1="74.7435" x2="158.73" y2="77.1208" class="gray" /></g>
<g><line x1="159.973" y1="80.5696" x2="159.557" y2="84.0047" class="gray" /></g>
<g><line x1="157.502" y1="87.0135" x2="154.138" y2="88.8208" class="gray" /></g>
<g><line x1="150.95" y1="91.3109" x2="148.72" y2="93.7634" class="gray" /></g>
<g><line x1="145.926" y1="96.7696" x2="143.544" y2="99.2747" class="gray" /></g>
<g><line x1="140.717" y1="102.251" x2="138.343" y2="104.753" class="gray" /></g>
<g><line x1="137.69" y1="108.148" x2="138.97" y2="111.356" class="gray" /></g>
<g><line x1="139.836" y1="115.312" x2="140.014" y2="118.763" class="gray" /></g>
<g><line x1="139.509" y1="122.771" x2="138.461" y2="126.133" class="gray" /></g>
<g><line x1="139.433" y1="129.398" x2="142.217" y2="131.696" class="gray" /></g>
<g><line x1="145.382" y1="134.31" x2="148.168" y2="136.614" class="gray" /></g>
<g><line x1="151.259" y1="139.313" x2="153.571" y2="141.442" class="gray" /></g>
<g><line x1="156.639" y1="144.166" x2="159.271" y2="146.418" class="gray" /></g>
<g><line x1="162.882" y1="147.76" x2="166.538" y2="147.774" class="gray" /></g>
<g><line x1="170.219" y1="149.031" x2="172.961" y2="151.133" class="gray" /></g>
<g><line x1="175.132" y1="154.362" x2="176.048" y2="157.703" class="gray" /></g>
<g><line x1="175.773" y1="161.565" x2="174.367" y2="164.809" class="gray" /></g>
<g><line x1="171.819" y1="167.795" x2="169.211" y2="169.459" class="gray" /></g>
<g><line x1="165.44" y1="170.34" x2="161.8" y2="169.944" class="gray" /></g>
<g><line x1="158.273" y1="168.308" x2="155.767" y2="165.926" class="gray" /></g>
<g><line x1="153.954" y1="162.486" x2="153.406" y2="159.078" class="gray" /></g>
<g><line x1="151.521" y1="155.718" x2="148.889" y2="153.466" class="gray" /></g>
<g><line x1="145.77" y1="150.798" x2="143.15" y2="148.556" class="gray" /></g>
<g><line x1="140.008" y1="145.914" x2="137.222" y2="143.61" class="gray" /></g>
<g><line x1="134.104" y1="140.941" x2="131.636" y2="138.753" class="gray" /></g>
<g><line x1="128.246" y1="138.272" x2="125.294" y2="139.672" class="gray" /></g>
<g><line x1="123.383" y1="142.604" x2="123.287" y2="146.061" class="gray" /></g>
<g><line x1="123.23" y1="150.165" x2="123.23" y2="153.62" class="gray" /></g>
<g><line x1="123.23" y1="157.725" x2="123.23" y2="161.18" class="gray" /></g>
<g><line x1="123.287" y1="165.284" x2="123.383" y2="168.741" class="gray" /></g>
<g><line x1="123.383" y1="172.844" x2="123.287" y2="176.301" class="gray" /></g>
<g><line x1="123.23" y1="180.405" x2="123.23" y2="183.86" class="gray" /></g>
<g><line x1="124.653" y1="187.391" x2="127.047" y2="189.878" class="gray" /></g>
<g><line x1="127.048" y1="192.836" x2="124.656" y2="195.324" class="gray" /></g>
</svg>
