<svg
	xmlns="http://www.w3.org/2000/svg"
	width="213.66"
	height="287.93">
<g><style type="text/css" >
<!-- create color definitions -->
<![CDATA[
circle.red {stroke: rgb(255, 0, 255); fill: none; }
circle.green {stroke: rgb(0, 255, 0); fill: none; }
circle.blue {stroke: rgb(0, 0, 255); fill: none; }
circle.black {stroke: rgb(0, 0, 0); fill: none; }
circle.gray {stroke: rgb(204, 204, 204); fill: none; }
circle.brown {stroke: rgb(211.65, 104.55, 30.6); fill: none; }
line.red {stroke: rgb(255, 0, 255); stroke-width: 0.383214; }
line.green {stroke: rgb(0, 255, 0); stroke-width: 0.383214; }
line.blue {stroke: rgb(0, 0, 255); stroke-width: 0.383214; }
line.black {stroke: rgb(0, 0, 0); stroke-width: 0.383214; }
line.gray {stroke: rgb(204, 204, 204); stroke-width: 0.383214; }
line.brown {stroke: rgb(211.65, 104.55, 30.6); stroke-width: 0.383214; }
line {stroke: rgb(0, 0, 0); }
text.red {fill: rgb(255, 0, 255); font-size: 3.065711px; font-weight: bold; font-family: Helvetica; }
text.green {fill: rgb(0, 255, 0); font-size: 3.065711px; font-weight: bold; font-family: Helvetica; }
text.blue {fill: rgb(0, 0, 255); font-size: 3.065711px; font-weight: bold; font-family: Helvetica; }
text.black {fill: rgb(0, 0, 0); font-size: 3.065711px; font-weight: bold; font-family: Helvetica; }
text.gray {fill: rgb(204, 204, 204); font-size: 3.065711px; font-weight: bold; font-family: Helvetica; }
text.brown {fill: rgb(211.65, 104.55, 30.6); font-size: 3.065711px; font-weight: bold; font-family: Helvetica; }
text {fill: rgb(0, 0, 0); font-size: 3.065711px; font-weight: bold; font-family: Helvetica; text-anchor: middle; alignment-baseline: middle; }

.pseudoknot_connection{stroke-linecap: round; stroke-opacity: 0.2; stroke-width: 1.5; }
.pseudoknot_segment1{stroke-linecap: round; stroke-opacity: 0.4; stroke-width: 3.06571; }
.pseudoknot_segment2{stroke-linecap: round; stroke-opacity: 0.4; stroke-width: 3.06571; }
line.numbering-line{stroke: rgb(204, 204, 204); stroke-width: 0.191607; }
line.predicted{stroke: rgb(0, 0, 0); stroke-dasharray: 2; }
polyline{fill: none; stroke-linejoin: round; }
template{visibility: hidden; }
text.numbering-label{fill: rgb(204, 204, 204); }
]]>
</style></g>
<g><title>0 (position.label in template: 0.5')</title><text x="114.04" y="237.93" class="green" >5'</text></g>
<g><title>1 (position.label in template: 1.U)</title><text x="121.04" y="237.93" class="green" >T</text></g>
<g><line x1="123.084" y1="237.623" x2="131.446" y2="237.623" class="black" /></g>
<g><title>2 (position.label in template: 2.U)</title><text x="121.04" y="230.37" class="green" >T</text></g>
<g><line x1="123.084" y1="230.063" x2="131.446" y2="230.063" class="black" /></g>
<g><title>3 (position.label in template: 3.U)</title><text x="121.04" y="222.81" class="green" >T</text></g>
<g><line x1="123.084" y1="222.503" x2="131.446" y2="222.503" class="black" /></g>
<g><title>4 (position.label in template: 4.U)</title><text x="121.04" y="215.25" class="green" >T</text></g>
<g><line x1="123.084" y1="214.943" x2="131.446" y2="214.943" class="black" /></g>
<g><title>5 (position.label in template: 5.U)</title><text x="121.04" y="207.69" class="green" >T</text></g>
<g><line x1="123.084" y1="207.383" x2="131.446" y2="207.383" class="black" /></g>
<g><title>6 (position.label in template: 6.A)</title><text x="121.25" y="200.13" class="green" >A</text></g>
<g><line x1="123.294" y1="199.823" x2="131.236" y2="199.823" class="black" /></g>
<g><title>7 (position.label in template: 7.U)</title><text x="121.04" y="192.57" class="green" >T</text></g>
<g><line x1="123.084" y1="192.263" x2="131.446" y2="192.263" class="black" /></g>
<g><title>8 (position.label in template: 8.A)</title><text x="121.25" y="185.01" class="green" >A</text></g>
<g><line x1="123.294" y1="184.703" x2="131.236" y2="184.703" class="black" /></g>
<g><title>9 (position.label in template: 9.C)</title><text x="114.31" y="181.58" class="black" >C</text></g>
<g><title>10 (position.label in template: 10.A)</title><text x="109.41" y="176" class="black" >A</text></g>
<g><text x="103.614" y="179.74" class="numbering-label sequential" >10</text></g>
<g><line x1="107.864" y1="176.997" x2="105.453" y2="178.553" class="numbering-line sequential" /></g>
<g><title>11 (position.label in template: 11.G)</title><text x="106.18" y="168.98" class="black" >G</text></g>
<g><title>12 (position.label in template: 12.A)</title><text x="106.41" y="161.42" class="black" >A</text></g>
<g><title>13 (position.label in template: 13.G)</title><text x="108.48" y="154.28" class="black" >G</text></g>
<g><line x1="109.971" y1="152.576" x2="116.029" y2="146.901" class="black" /></g>
<g><title>14 (position.label in template: 14.G)</title><text x="103.24" y="148.83" class="green" >G</text></g>
<g><line x1="104.731" y1="147.126" x2="110.799" y2="141.441" class="black" /></g>
<g><title>15 (position.label in template: 15.C)</title><text x="98.22" y="143.37" class="black" >C</text></g>
<g><line x1="99.6786" y1="141.632" x2="105.391" y2="136.025" class="black" /></g>
<g><title>16 (position.label in template: 16.G)</title><text x="92.78" y="137.91" class="black" >G</text></g>
<g><line x1="94.2714" y1="136.206" x2="100.329" y2="130.531" class="black" /></g>
<g><title>17 (position.label in template: 17.C)</title><text x="87.76" y="132.46" class="black" >C</text></g>
<g><line x1="89.2178" y1="130.721" x2="94.9222" y2="125.116" class="black" /></g>
<g><title>18 (position.label in template: 18.U)</title><text x="80.2" y="132.66" class="green" >T</text></g>
<g><title>19 (position.label in template: 19.G)</title><text x="73.46" y="128.85" class="black" >G</text></g>
<g><title>20 (position.label in template: 20.A)</title><text x="70.34" y="122.17" class="black" >A</text></g>
<g><text x="63.5926" y="123.603" class="numbering-label sequential" >20</text></g>
<g><line x1="68.5407" y1="122.552" x2="65.4321" y2="123.212" class="numbering-line sequential" /></g>
<g><title>21 (position.label in template: 21.G)</title><text x="70.44" y="114.63" class="black" >G</text></g>
<g><line x1="71.9306" y1="112.925" x2="77.9894" y2="107.242" class="black" /></g>
<g><title>22 (position.label in template: 22.A)</title><text x="65.62" y="109.17" class="green" >A</text></g>
<g><line x1="67.0786" y1="107.432" x2="72.7914" y2="101.825" class="black" /></g>
<g><title>23 (position.label in template: 23.G)</title><text x="59.97" y="103.71" class="black" >G</text></g>
<g><line x1="61.4622" y1="102.007" x2="67.5278" y2="96.33" class="black" /></g>
<g><title>24 (position.label in template: 24.A)</title><text x="53.26" y="101.2" class="black" >A</text></g>
<g><title>25 (position.label in template: 25.C)</title><text x="50" y="94.28" class="black" >C</text></g>
<g><title>26 (position.label in template: 26.A)</title><text x="53.14" y="87.31" class="black" >A</text></g>
<g><title>27 (position.label in template: 27.G)</title><text x="59.81" y="84.67" class="black" >G</text></g>
<g><title>28 (position.label in template: 28.G)</title><text x="66.59" y="88.01" class="black" >G</text></g>
<g><title>29 (position.label in template: 29.C)</title><text x="69.02" y="95.24" class="black" >C</text></g>
<g><title>30 (position.label in template: 30.U)</title><text x="74.25" y="100.7" class="green" >T</text></g>
<g><text x="79.2291" y="95.9263" class="numbering-label sequential" >30</text></g>
<g><line x1="75.5778" y1="99.427" x2="77.6303" y2="97.4591" class="numbering-line sequential" /></g>
<g><title>31 (position.label in template: 31.C)</title><text x="79.48" y="106.15" class="black" >C</text></g>
<g><title>32 (position.label in template: 32.G)</title><text x="84" y="100.25" class="black" >G</text></g>
<g><title>33 (position.label in template: 33.A)</title><text x="91.57" y="97.81" class="black" >A</text></g>
<g><title>34 (position.label in template: 34.U)</title><text x="98.71" y="99.6" class="green" >T</text></g>
<g><title>35 (position.label in template: 35.G)</title><text x="103.73" y="105.05" class="black" >G</text></g>
<g><title>36 (position.label in template: 36.A)</title><text x="105.63" y="112.47" class="black" >A</text></g>
<g><title>37 (position.label in template: 37.A)</title><text x="102.89" y="119.51" class="black" >A</text></g>
<g><title>38 (position.label in template: 38.G)</title><text x="96.38" y="123.99" class="black" >G</text></g>
<g><title>39 (position.label in template: 39.C)</title><text x="101.82" y="129.44" class="black" >C</text></g>
<g><title>40 (position.label in template: 40.G)</title><text x="106.85" y="134.9" class="black" >G</text></g>
<g><title>41 (position.label in template: 41.U)</title><text x="112.29" y="140.35" class="green" >T</text></g>
<g><title>42 (position.label in template: 42.C)</title><text x="117.52" y="145.81" class="black" >C</text></g>
<g><title>43 (position.label in template: 43.G)</title><text x="124.55" y="143.63" class="black" >G</text></g>
<g><line x1="126.562" y1="143.682" x2="134.788" y2="145.145" class="black" /></g>
<g><title>44 (position.label in template: 44.G)</title><text x="125.9" y="136.19" class="black" >G</text></g>
<g><line x1="127.912" y1="136.242" x2="136.138" y2="137.705" class="black" /></g>
<g><title>45 (position.label in template: 45.C)</title><text x="127.45" y="128.75" class="black" >C</text></g>
<g><line x1="129.46" y1="128.814" x2="137.28" y2="130.253" class="black" /></g>
<g><title>46 (position.label in template: 46.A)</title><text x="129.01" y="121.31" class="green" >A</text></g>
<g><line x1="131.02" y1="121.374" x2="138.84" y2="122.813" class="black" /></g>
<g><title>47 (position.label in template: 47.A)</title><text x="123.24" y="116.43" class="black" >A</text></g>
<g><title>48 (position.label in template: 48.C)</title><text x="130.15" y="113.87" class="black" >C</text></g>
<g><line x1="132.16" y1="113.934" x2="139.97" y2="115.373" class="black" /></g>
<g><title>49 (position.label in template: 49.C)</title><text x="131.5" y="106.43" class="black" >C</text></g>
<g><line x1="133.51" y1="106.495" x2="141.32" y2="107.941" class="black" /></g>
<g><title>50 (position.label in template: 50.A)</title><text x="129.88" y="99.1" class="black" >A</text></g>
<g><text x="123.092" y="97.8744" class="numbering-label sequential" >50</text></g>
<g><line x1="128.07" y1="98.7732" x2="124.931" y2="98.2065" class="numbering-line sequential" /></g>
<g><title>51 (position.label in template: 51.U)</title><text x="133.95" y="92.86" class="green" >T</text></g>
<g><line x1="135.962" y1="92.9131" x2="144.188" y2="94.3837" class="black" /></g>
<g><title>52 (position.label in template: 52.C)</title><text x="135.3" y="85.43" class="black" >C</text></g>
<g><line x1="137.31" y1="85.4935" x2="145.13" y2="86.9333" class="black" /></g>
<g><title>53 (position.label in template: 53.C)</title><text x="136.65" y="77.99" class="black" >C</text></g>
<g><line x1="138.66" y1="78.0538" x2="146.47" y2="79.493" class="black" /></g>
<g><title>54 (position.label in template: 54.G)</title><text x="137.79" y="70.55" class="black" >G</text></g>
<g><line x1="139.802" y1="70.6015" x2="148.028" y2="72.0653" class="black" /></g>
<g><title>55 (position.label in template: 55.C)</title><text x="134.21" y="64" class="black" >C</text></g>
<g><title>56 (position.label in template: 56.A)</title><text x="135.37" y="56.5" class="black" >A</text></g>
<g><title>57 (position.label in template: 57.A)</title><text x="140.66" y="51.1" class="black" >A</text></g>
<g><title>58 (position.label in template: 58.C)</title><text x="147.94" y="50" class="black" >C</text></g>
<g><title>59 (position.label in template: 59.U)</title><text x="154.56" y="53.66" class="green" >T</text></g>
<g><title>60 (position.label in template: 60.G)</title><text x="157.41" y="60.57" class="black" >G</text></g>
<g><title>61 (position.label in template: 61.C)</title><text x="155.88" y="67.92" class="black" >C</text></g>
<g><title>62 (position.label in template: 62.C)</title><text x="150.04" y="72.73" class="black" >C</text></g>
<g><title>63 (position.label in template: 63.G)</title><text x="148.48" y="80.17" class="black" >G</text></g>
<g><title>64 (position.label in template: 64.G)</title><text x="147.14" y="87.61" class="black" >G</text></g>
<g><title>65 (position.label in template: 65.A)</title><text x="146.2" y="95.05" class="green" >A</text></g>
<g><title>66 (position.label in template: 66.A)</title><text x="152.43" y="99.34" class="black" >A</text></g>
<g><title>67 (position.label in template: 67.C)</title><text x="150.87" y="106.78" class="black" >C</text></g>
<g><title>68 (position.label in template: 68.G)</title><text x="143.33" y="108.62" class="black" >G</text></g>
<g><title>69 (position.label in template: 69.G)</title><text x="141.98" y="116.05" class="black" >G</text></g>
<g><title>70 (position.label in template: 70.U)</title><text x="140.85" y="123.49" class="green" >T</text></g>
<g><title>71 (position.label in template: 71.G)</title><text x="139.29" y="130.93" class="black" >G</text></g>
<g><title>72 (position.label in template: 72.C)</title><text x="138.15" y="138.37" class="black" >C</text></g>
<g><title>73 (position.label in template: 73.C)</title><text x="136.8" y="145.81" class="black" >C</text></g>
<g><title>74 (position.label in template: 74.A)</title><text x="143.02" y="150.39" class="black" >A</text></g>
<g><title>75 (position.label in template: 75.A)</title><text x="147.05" y="156.79" class="black" >A</text></g>
<g><title>76 (position.label in template: 76.U)</title><text x="148.37" y="164.2" class="green" >T</text></g>
<g><title>77 (position.label in template: 77.U)</title><text x="147.2" y="171.67" class="green" >T</text></g>
<g><line x1="146.023" y1="173.034" x2="141.397" y2="179.602" class="black" /></g>
<g><title>78 (position.label in template: 78.C)</title><text x="154.74" y="171.09" class="black" >C</text></g>
<g><title>79 (position.label in template: 79.C)</title><text x="161.09" y="175.2" class="black" >C</text></g>
<g><title>80 (position.label in template: 80.U)</title><text x="163.66" y="182.3" class="green" >T</text></g>
<g><title>81 (position.label in template: 81.G)</title><text x="161.2" y="189.52" class="black" >G</text></g>
<g><title>82 (position.label in template: 82.A)</title><text x="155.46" y="193.91" class="black" >A</text></g>
<g><title>83 (position.label in template: 83.C)</title><text x="147.69" y="193.67" class="black" >C</text></g>
<g><title>84 (position.label in template: 84.C)</title><text x="141.82" y="188.92" class="black" >C</text></g>
<g><title>85 (position.label in template: 85.A)</title><text x="140.22" y="181.58" class="green" >A</text></g>
<g><title>86 (position.label in template: 86.U)</title><text x="133.28" y="185.01" class="green" >T</text></g>
<g><title>87 (position.label in template: 87.A)</title><text x="133.49" y="192.57" class="green" >A</text></g>
<g><title>88 (position.label in template: 88.U)</title><text x="133.28" y="200.13" class="green" >T</text></g>
<g><title>89 (position.label in template: 89.A)</title><text x="133.49" y="207.69" class="green" >A</text></g>
<g><title>90 (position.label in template: 90.A)</title><text x="133.49" y="215.25" class="green" >A</text></g>
<g><title>91 (position.label in template: 91.A)</title><text x="133.49" y="222.81" class="green" >A</text></g>
<g><title>92 (position.label in template: 92.A)</title><text x="133.49" y="230.37" class="green" >A</text></g>
<g><title>93 (position.label in template: 93.A)</title><text x="133.49" y="237.93" class="green" >A</text></g>
<g><title>94 (position.label in template: 94.3')</title><text x="140.49" y="237.93" class="green" >3'</text></g>
<g><line x1="116.084" y1="237.623" x2="118.996" y2="237.623" class="gray" /></g>
<g><line x1="121.04" y1="235.58" x2="121.04" y2="232.107" class="gray" /></g>
<g><line x1="121.04" y1="228.02" x2="121.04" y2="224.547" class="gray" /></g>
<g><line x1="121.04" y1="220.46" x2="121.04" y2="216.987" class="gray" /></g>
<g><line x1="121.04" y1="212.9" x2="121.04" y2="209.427" class="gray" /></g>
<g><line x1="121.097" y1="205.34" x2="121.193" y2="201.866" class="gray" /></g>
<g><line x1="121.193" y1="197.78" x2="121.097" y2="194.306" class="gray" /></g>
<g><line x1="121.097" y1="190.22" x2="121.193" y2="186.746" class="gray" /></g>
<g><line x1="119.418" y1="183.798" x2="116.142" y2="182.179" class="gray" /></g>
<g><line x1="112.961" y1="179.738" x2="110.759" y2="177.229" class="gray" /></g>
<g><line x1="108.556" y1="173.837" x2="107.034" y2="170.53" class="gray" /></g>
<g><line x1="106.242" y1="166.631" x2="106.348" y2="163.156" class="gray" /></g>
<g><line x1="106.979" y1="159.15" x2="107.911" y2="155.936" class="gray" /></g>
<g><line x1="107.063" y1="152.5" x2="104.657" y2="149.997" class="gray" /></g>
<g><line x1="101.857" y1="147.019" x2="99.6033" y2="144.568" class="gray" /></g>
<g><line x1="96.7775" y1="141.616" x2="94.2225" y2="139.051" class="gray" /></g>
<g><line x1="91.3953" y1="136.1" x2="89.1447" y2="133.657" class="gray" /></g>
<g><line x1="85.7169" y1="132.207" x2="82.2431" y2="132.299" class="gray" /></g>
<g><line x1="78.4208" y1="131.348" x2="75.2392" y2="129.549" class="gray" /></g>
<g><line x1="72.5951" y1="126.692" x2="71.2049" y2="123.715" class="gray" /></g>
<g><line x1="70.3671" y1="119.82" x2="70.4129" y2="116.367" class="gray" /></g>
<g><line x1="69.0874" y1="112.791" x2="66.9726" y2="110.396" class="gray" /></g>
<g><line x1="64.1503" y1="107.443" x2="61.4397" y2="104.824" class="gray" /></g>
<g><line x1="58.0557" y1="102.687" x2="55.1743" y2="101.609" class="gray" /></g>
<g><line x1="52.389" y1="99.0445" x2="50.871" y2="95.8223" class="gray" /></g>
<g><line x1="50.8395" y1="92.11" x2="52.3005" y2="88.8669" class="gray" /></g>
<g><line x1="55.0404" y1="86.2513" x2="57.9096" y2="85.1156" class="gray" /></g>
<g><line x1="61.6434" y1="85.2666" x2="64.7566" y2="86.8002" class="gray" /></g>
<g><line x1="67.2411" y1="89.6407" x2="68.3689" y2="92.9961" class="gray" /></g>
<g><line x1="70.4338" y1="96.4094" x2="72.8362" y2="98.9175" class="gray" /></g>
<g><line x1="75.6651" y1="101.868" x2="78.0649" y2="104.369" class="gray" /></g>
<g><line x1="80.7229" y1="104.221" x2="82.7571" y2="101.566" class="gray" /></g>
<g><line x1="85.9453" y1="99.3164" x2="89.6247" y2="98.1304" class="gray" /></g>
<g><line x1="93.5525" y1="98.0004" x2="96.7275" y2="98.7964" class="gray" /></g>
<g><line x1="100.095" y1="100.797" x2="102.345" y2="103.24" class="gray" /></g>
<g><line x1="104.237" y1="106.723" x2="105.123" y2="110.184" class="gray" /></g>
<g><line x1="104.889" y1="114.068" x2="103.631" y2="117.299" class="gray" /></g>
<g><line x1="101.206" y1="120.362" x2="98.0637" y2="122.525" class="gray" /></g>
<g><line x1="97.8239" y1="125.13" x2="100.376" y2="127.687" class="gray" /></g>
<g><line x1="103.205" y1="130.637" x2="105.465" y2="133.09" class="gray" /></g>
<g><line x1="108.294" y1="136.04" x2="110.846" y2="138.597" class="gray" /></g>
<g><line x1="113.704" y1="141.519" x2="116.106" y2="144.027" class="gray" /></g>
<g><line x1="119.472" y1="144.898" x2="122.598" y2="143.929" class="gray" /></g>
<g><line x1="124.915" y1="141.312" x2="125.535" y2="137.894" class="gray" /></g>
<g><line x1="126.317" y1="133.883" x2="127.033" y2="130.444" class="gray" /></g>
<g><line x1="127.869" y1="126.443" x2="128.591" y2="123.004" class="gray" /></g>
<g><line x1="127.449" y1="119.684" x2="124.801" y2="117.443" class="gray" /></g>
<g><line x1="125.157" y1="115.413" x2="128.233" y2="114.273" class="gray" /></g>
<g><line x1="130.515" y1="111.552" x2="131.135" y2="108.134" class="gray" /></g>
<g><line x1="131.059" y1="104.128" x2="130.321" y2="100.789" class="gray" /></g>
<g><line x1="130.997" y1="97.0816" x2="132.833" y2="94.2653" class="gray" /></g>
<g><line x1="134.315" y1="90.5425" x2="134.935" y2="87.1343" class="gray" /></g>
<g><line x1="135.665" y1="83.1125" x2="136.285" y2="79.6944" class="gray" /></g>
<g><line x1="136.96" y1="75.6632" x2="137.48" y2="72.2637" class="gray" /></g>
<g><line x1="136.81" y1="68.45" x2="135.19" y2="65.4868" class="gray" /></g>
<g><line x1="134.522" y1="61.6736" x2="135.058" y2="58.2132" class="gray" /></g>
<g><line x1="136.8" y1="54.7334" x2="139.23" y2="52.2534" class="gray" /></g>
<g><line x1="142.681" y1="50.4881" x2="145.919" y2="49.9988" class="gray" /></g>
<g><line x1="149.729" y1="50.6823" x2="152.771" y2="52.3645" class="gray" /></g>
<g><line x1="155.339" y1="55.2428" x2="156.631" y2="58.374" class="gray" /></g>
<g><line x1="156.993" y1="62.2643" x2="156.297" y2="65.6125" class="gray" /></g>
<g><line x1="154.302" y1="68.9128" x2="151.618" y2="71.1241" class="gray" /></g>
<g><line x1="149.621" y1="74.4237" x2="148.899" y2="77.8631" class="gray" /></g>
<g><line x1="148.118" y1="81.8749" x2="147.502" y2="85.292" class="gray" /></g>
<g><line x1="146.884" y1="89.3311" x2="146.456" y2="92.7157" class="gray" /></g>
<g><line x1="147.883" y1="95.9026" x2="150.747" y2="97.8743" class="gray" /></g>
<g><line x1="152.011" y1="101.034" x2="151.289" y2="104.473" class="gray" /></g>
<g><line x1="148.884" y1="106.958" x2="145.316" y2="107.829" class="gray" /></g>
<g><line x1="142.965" y1="110.324" x2="142.345" y2="113.733" class="gray" /></g>
<g><line x1="141.673" y1="117.764" x2="141.157" y2="121.163" class="gray" /></g>
<g><line x1="140.431" y1="125.184" x2="139.709" y2="128.623" class="gray" /></g>
<g><line x1="138.98" y1="132.644" x2="138.46" y2="136.043" class="gray" /></g>
<g><line x1="137.785" y1="140.074" x2="137.165" y2="143.492" class="gray" /></g>
<g><line x1="138.446" y1="146.715" x2="141.374" y2="148.872" class="gray" /></g>
<g><line x1="144.109" y1="151.813" x2="145.961" y2="154.754" class="gray" /></g>
<g><line x1="147.408" y1="158.496" x2="148.012" y2="161.881" class="gray" /></g>
<g><line x1="148.054" y1="165.913" x2="147.516" y2="169.344" class="gray" /></g>
<g><line x1="149.238" y1="171.207" x2="152.702" y2="170.94" class="gray" /></g>
<g><line x1="156.456" y1="171.894" x2="159.374" y2="173.783" class="gray" /></g>
<g><line x1="161.786" y1="176.815" x2="162.964" y2="180.072" class="gray" /></g>
<g><line x1="163.001" y1="183.928" x2="161.859" y2="187.279" class="gray" /></g>
<g><line x1="159.577" y1="190.455" x2="157.083" y2="192.362" class="gray" /></g>
<g><line x1="153.417" y1="193.54" x2="149.733" y2="193.427" class="gray" /></g>
<g><line x1="146.101" y1="192.078" x2="143.409" y2="189.899" class="gray" /></g>
<g><line x1="141.385" y1="186.617" x2="140.655" y2="183.27" class="gray" /></g>
<g><line x1="138.388" y1="182.179" x2="135.112" y2="183.798" class="gray" /></g>
<g><line x1="133.337" y1="186.746" x2="133.433" y2="190.22" class="gray" /></g>
<g><line x1="133.433" y1="194.306" x2="133.337" y2="197.78" class="gray" /></g>
<g><line x1="133.337" y1="201.866" x2="133.433" y2="205.34" class="gray" /></g>
<g><line x1="133.49" y1="209.427" x2="133.49" y2="212.9" class="gray" /></g>
<g><line x1="133.49" y1="216.987" x2="133.49" y2="220.46" class="gray" /></g>
<g><line x1="133.49" y1="224.547" x2="133.49" y2="228.02" class="gray" /></g>
<g><line x1="133.49" y1="232.107" x2="133.49" y2="235.58" class="gray" /></g>
<g><line x1="135.534" y1="237.623" x2="138.446" y2="237.623" class="gray" /></g>
</svg>
