<svg
	xmlns="http://www.w3.org/2000/svg"
	width="231.29"
	height="234.485">
<g><style type="text/css" >
<!-- create color definitions -->
<![CDATA[
circle.red {stroke: rgb(255, 0, 255); fill: none; }
circle.green {stroke: rgb(0, 255, 0); fill: none; }
circle.blue {stroke: rgb(0, 0, 255); fill: none; }
circle.black {stroke: rgb(0, 0, 0); fill: none; }
circle.gray {stroke: rgb(204, 204, 204); fill: none; }
circle.brown {stroke: rgb(211.65, 104.55, 30.6); fill: none; }
line.red {stroke: rgb(255, 0, 255); stroke-width: 0.384555; }
line.green {stroke: rgb(0, 255, 0); stroke-width: 0.384555; }
line.blue {stroke: rgb(0, 0, 255); stroke-width: 0.384555; }
line.black {stroke: rgb(0, 0, 0); stroke-width: 0.384555; }
line.gray {stroke: rgb(204, 204, 204); stroke-width: 0.384555; }
line.brown {stroke: rgb(211.65, 104.55, 30.6); stroke-width: 0.384555; }
line {stroke: rgb(0, 0, 0); }
text.red {fill: rgb(255, 0, 255); font-size: 3.076443px; font-weight: bold; font-family: Helvetica; }
text.green {fill: rgb(0, 255, 0); font-size: 3.076443px; font-weight: bold; font-family: Helvetica; }
text.blue {fill: rgb(0, 0, 255); font-size: 3.076443px; font-weight: bold; font-family: Helvetica; }
text.black {fill: rgb(0, 0, 0); font-size: 3.076443px; font-weight: bold; font-family: Helvetica; }
text.gray {fill: rgb(204, 204, 204); font-size: 3.076443px; font-weight: bold; font-family: Helvetica; }
text.brown {fill: rgb(211.65, 104.55, 30.6); font-size: 3.076443px; font-weight: bold; font-family: Helvetica; }
text {fill: rgb(0, 0, 0); font-size: 3.076443px; font-weight: bold; font-family: Helvetica; text-anchor: middle; alignment-baseline: middle; }

.pseudoknot_connection{stroke-linecap: round; stroke-opacity: 0.2; stroke-width: 1.5; }
.pseudoknot_segment1{stroke-linecap: round; stroke-opacity: 0.4; stroke-width: 3.07644; }
.pseudoknot_segment2{stroke-linecap: round; stroke-opacity: 0.4; stroke-width: 3.07644; }
line.numbering-line{stroke: rgb(204, 204, 204); stroke-width: 0.192278; }
line.predicted{stroke: rgb(0, 0, 0); stroke-dasharray: 2; }
polyline{fill: none; stroke-linejoin: round; }
template{visibility: hidden; }
text.numbering-label{fill: rgb(204, 204, 204); }
]]>
</style></g>
<g><title>0 (position.label in template: 0.5')</title><text x="104.419" y="189.939" class="green" >5'</text></g>
<g><title>1 (position.label in template: 1.C)</title><text x="109.659" y="184.485" class="black" >C</text></g>
<g><title>2 (position.label in template: 2.G)</title><text x="114.9" y="179.03" class="black" >G</text></g>
<g><line x1="116.951" y1="178.722" x2="125.299" y2="178.722" class="black" /></g>
<g><title>3 (position.label in template: 3.C)</title><text x="115.11" y="171.47" class="black" >C</text></g>
<g><line x1="117.161" y1="171.162" x2="125.089" y2="171.162" class="black" /></g>
<g><title>4 (position.label in template: 4.G)</title><text x="114.9" y="163.91" class="black" >G</text></g>
<g><line x1="116.951" y1="163.602" x2="125.299" y2="163.602" class="black" /></g>
<g><title>5 (position.label in template: 5.G)</title><text x="114.9" y="156.35" class="black" >G</text></g>
<g><line x1="116.951" y1="156.042" x2="125.299" y2="156.042" class="black" /></g>
<g><title>6 (position.label in template: 6.G)</title><text x="114.9" y="148.79" class="black" >G</text></g>
<g><line x1="116.951" y1="148.482" x2="125.299" y2="148.482" class="black" /></g>
<g><title>7 (position.label in template: 7.G)</title><text x="114.9" y="141.23" class="black" >G</text></g>
<g><line x1="116.951" y1="140.922" x2="125.299" y2="140.922" class="black" /></g>
<g><title>8 (position.label in template: 8.U)</title><text x="108.29" y="137.97" class="green" >T</text></g>
<g><title>9 (position.label in template: 9.G)</title><text x="102.73" y="132.62" class="black" >G</text></g>
<g><title>10 (position.label in template: 10.G)</title><text x="99.47" y="125.8" class="black" >G</text></g>
<g><line x1="99.5052" y1="123.442" x2="99.6448" y2="115.303" class="black" /></g>
<g><text x="95.6741" y="131.588" class="numbering-label sequential" >10</text></g>
<g><line x1="98.4578" y1="127.344" x2="96.6829" y2="130.05" class="numbering-line sequential" /></g>
<g><title>11 (position.label in template: 11.A)</title><text x="92.33" y="125.8" class="green" >A</text></g>
<g><line x1="92.2948" y1="123.442" x2="92.1552" y2="115.303" class="black" /></g>
<g><title>12 (position.label in template: 12.G)</title><text x="84.35" y="125.8" class="black" >G</text></g>
<g><line x1="84.3852" y1="123.442" x2="84.5248" y2="115.303" class="black" /></g>
<g><title>13 (position.label in template: 13.C)</title><text x="77" y="125.8" class="black" >C</text></g>
<g><line x1="76.9648" y1="123.442" x2="76.8252" y2="115.303" class="black" /></g>
<g><title>14 (position.label in template: 14.A)</title><text x="72.25" y="131.51" class="black" >A</text></g>
<g><title>15 (position.label in template: 15.G)</title><text x="64.65" y="133.86" class="black" >G</text></g>
<g><title>16 (position.label in template: 16.U)</title><text x="57.48" y="132.19" class="green" >T</text></g>
<g><title>17 (position.label in template: 17.C)</title><text x="52.01" y="126.97" class="black" >C</text></g>
<g><title>18 (position.label in template: 18.U)</title><text x="50" y="119.68" class="green" >T</text></g>
<g><title>19 (position.label in template: 19.G)</title><text x="51.8" y="112.4" class="black" >G</text></g>
<g><title>20 (position.label in template: 20.G)</title><text x="57.27" y="107.18" class="black" >G</text></g>
<g><text x="54.0401" y="101.058" class="numbering-label sequential" >20</text></g>
<g><line x1="56.4087" y1="105.547" x2="54.8516" y2="102.596" class="numbering-line sequential" /></g>
<g><title>21 (position.label in template: 21.U)</title><text x="64.86" y="105.51" class="green" >T</text></g>
<g><title>22 (position.label in template: 22.A)</title><text x="72.25" y="107.86" class="black" >A</text></g>
<g><title>23 (position.label in template: 23.G)</title><text x="76.79" y="113.56" class="black" >G</text></g>
<g><title>24 (position.label in template: 24.C)</title><text x="84.56" y="113.56" class="black" >C</text></g>
<g><title>25 (position.label in template: 25.U)</title><text x="92.12" y="113.56" class="green" >T</text></g>
<g><title>26 (position.label in template: 26.C)</title><text x="99.68" y="113.56" class="black" >C</text></g>
<g><title>27 (position.label in template: 27.G)</title><text x="102.73" y="106.75" class="black" >G</text></g>
<g><title>28 (position.label in template: 28.U)</title><text x="108.29" y="101.4" class="green" >T</text></g>
<g><line x1="110.228" y1="100.421" x2="118.102" y2="97.6936" class="black" /></g>
<g><title>29 (position.label in template: 29.C)</title><text x="105.77" y="94.27" class="black" >C</text></g>
<g><line x1="107.7" y1="93.2695" x2="115.18" y2="90.5852" class="black" /></g>
<g><title>30 (position.label in template: 30.G)</title><text x="103.05" y="87.14" class="black" >G</text></g>
<g><line x1="104.988" y1="86.1611" x2="112.862" y2="83.4336" class="black" /></g>
<g><text x="96.5528" y="89.5275" class="numbering-label sequential" >30</text></g>
<g><line x1="101.317" y1="87.7767" x2="98.3986" y2="88.8492" class="numbering-line sequential" /></g>
<g><title>31 (position.label in template: 31.G)</title><text x="100.53" y="80.01" class="black" >G</text></g>
<g><line x1="102.468" y1="79.0316" x2="110.352" y2="76.3031" class="black" /></g>
<g><title>32 (position.label in template: 32.G)</title><text x="98.02" y="72.88" class="black" >G</text></g>
<g><line x1="99.958" y1="71.9011" x2="107.832" y2="69.1736" class="black" /></g>
<g><title>33 (position.label in template: 33.C)</title><text x="91.7" y="69.07" class="black" >C</text></g>
<g><title>34 (position.label in template: 34.U)</title><text x="88.81" y="62.08" class="green" >T</text></g>
<g><title>35 (position.label in template: 35.C)</title><text x="90.73" y="54.77" class="black" >C</text></g>
<g><title>36 (position.label in template: 36.A)</title><text x="96.89" y="50.11" class="black" >A</text></g>
<g><title>37 (position.label in template: 37.U)</title><text x="104.25" y="50" class="green" >T</text></g>
<g><title>38 (position.label in template: 38.A)</title><text x="110.54" y="54.49" class="black" >A</text></g>
<g><title>39 (position.label in template: 39.A)</title><text x="112.67" y="61.75" class="black" >A</text></g>
<g><title>40 (position.label in template: 40.C)</title><text x="109.77" y="68.81" class="black" >C</text></g>
<g><title>41 (position.label in template: 41.C)</title><text x="112.29" y="75.94" class="black" >C</text></g>
<g><title>42 (position.label in template: 42.C)</title><text x="114.8" y="83.07" class="black" >C</text></g>
<g><title>43 (position.label in template: 43.G)</title><text x="117.11" y="90.2" class="black" >G</text></g>
<g><title>44 (position.label in template: 44.A)</title><text x="120.04" y="97.33" class="green" >A</text></g>
<g><title>45 (position.label in template: 45.A)</title><text x="127.55" y="98.14" class="black" >A</text></g>
<g><title>46 (position.label in template: 46.G)</title><text x="133.96" y="101.4" class="black" >G</text></g>
<g><title>47 (position.label in template: 47.G)</title><text x="139.3" y="106.75" class="black" >G</text></g>
<g><title>48 (position.label in template: 48.U)</title><text x="142.78" y="113.56" class="green" >T</text></g>
<g><title>49 (position.label in template: 49.C)</title><text x="143.58" y="121.08" class="black" >C</text></g>
<g><title>50 (position.label in template: 50.G)</title><text x="141.64" y="128.44" class="black" >G</text></g>
<g><line x1="140.375" y1="129.747" x2="135.435" y2="136.048" class="black" /></g>
<g><text x="148.188" y="126.194" class="numbering-label sequential" >50</text></g>
<g><line x1="143.386" y1="127.841" x2="146.342" y2="126.827" class="numbering-line sequential" /></g>
<g><title>51 (position.label in template: 51.U)</title><text x="147.73" y="133.18" class="green" >T</text></g>
<g><line x1="146.422" y1="134.452" x2="141.148" y2="140.823" class="black" /></g>
<g><title>52 (position.label in template: 52.U)</title><text x="153.62" y="137.93" class="green" >T</text></g>
<g><line x1="152.312" y1="139.202" x2="147.038" y2="145.573" class="black" /></g>
<g><title>53 (position.label in template: 53.G)</title><text x="159.3" y="142.67" class="black" >G</text></g>
<g><line x1="158.035" y1="143.977" x2="153.095" y2="150.278" class="black" /></g>
<g><title>54 (position.label in template: 54.G)</title><text x="165.18" y="147.41" class="black" >G</text></g>
<g><line x1="163.915" y1="148.717" x2="158.975" y2="155.018" class="black" /></g>
<g><title>55 (position.label in template: 55.U)</title><text x="172.95" y="147.22" class="green" >T</text></g>
<g><title>56 (position.label in template: 56.U)</title><text x="179.08" y="151.65" class="green" >T</text></g>
<g><title>57 (position.label in template: 57.C)</title><text x="181.29" y="158.88" class="black" >C</text></g>
<g><title>58 (position.label in template: 58.G)</title><text x="178.46" y="165.97" class="black" >G</text></g>
<g><title>59 (position.label in template: 59.A)</title><text x="172.51" y="170.04" class="black" >A</text></g>
<g><title>60 (position.label in template: 60.A)</title><text x="164.97" y="169.42" class="black" >A</text></g>
<g><title>61 (position.label in template: 61.U)</title><text x="159.14" y="164.37" class="green" >T</text></g>
<g><title>62 (position.label in template: 62.C)</title><text x="157.71" y="156.94" class="black" >C</text></g>
<g><title>63 (position.label in template: 63.C)</title><text x="151.83" y="152.2" class="black" >C</text></g>
<g><title>64 (position.label in template: 64.G)</title><text x="145.73" y="147.46" class="green" >G</text></g>
<g><title>65 (position.label in template: 65.G)</title><text x="139.84" y="142.71" class="green" >G</text></g>
<g><title>66 (position.label in template: 66.C)</title><text x="134.17" y="137.97" class="black" >C</text></g>
<g><title>67 (position.label in template: 67.C)</title><text x="127.35" y="141.23" class="black" >C</text></g>
<g><title>68 (position.label in template: 68.C)</title><text x="127.35" y="148.79" class="black" >C</text></g>
<g><title>69 (position.label in template: 69.C)</title><text x="127.35" y="156.35" class="black" >C</text></g>
<g><title>70 (position.label in template: 70.C)</title><text x="127.35" y="163.91" class="black" >C</text></g>
<g><title>71 (position.label in template: 71.G)</title><text x="127.14" y="171.47" class="black" >G</text></g>
<g><title>72 (position.label in template: 72.C)</title><text x="127.35" y="179.03" class="black" >C</text></g>
<g><title>73 (position.label in template: 73.A)</title><text x="132.796" y="184.28" class="black" >A</text></g>
<g><title>74 (position.label in template: 74.A)</title><text x="140.36" y="184.28" class="black" >A</text></g>
<g><title>75 (position.label in template: 75.3')</title><text x="147.924" y="184.28" class="green" >3'</text></g>
<g><line x1="105.84" y1="188.153" x2="108.239" y2="185.656" class="gray" /></g>
<g><line x1="111.08" y1="182.698" x2="113.479" y2="180.201" class="gray" /></g>
<g><line x1="114.957" y1="176.672" x2="115.053" y2="173.213" class="gray" /></g>
<g><line x1="115.053" y1="169.112" x2="114.957" y2="165.653" class="gray" /></g>
<g><line x1="114.9" y1="161.551" x2="114.9" y2="158.093" class="gray" /></g>
<g><line x1="114.9" y1="153.991" x2="114.9" y2="150.533" class="gray" /></g>
<g><line x1="114.9" y1="146.431" x2="114.9" y2="142.973" class="gray" /></g>
<g><line x1="113.061" y1="140.015" x2="110.129" y2="138.57" class="gray" /></g>
<g><line x1="106.812" y1="136.24" x2="104.208" y2="133.734" class="gray" /></g>
<g><line x1="101.845" y1="130.462" x2="100.355" y2="127.343" class="gray" /></g>
<g><line x1="97.419" y1="125.492" x2="94.381" y2="125.492" class="gray" /></g>
<g><line x1="90.279" y1="125.492" x2="86.401" y2="125.492" class="gray" /></g>
<g><line x1="82.299" y1="125.492" x2="79.051" y2="125.492" class="gray" /></g>
<g><line x1="75.6884" y1="127.069" x2="73.5616" y2="129.626" class="gray" /></g>
<g><line x1="70.2906" y1="131.808" x2="66.6094" y2="132.946" class="gray" /></g>
<g><line x1="62.6525" y1="133.087" x2="59.4775" y2="132.348" class="gray" /></g>
<g><line x1="55.9962" y1="130.466" x2="53.4938" y2="128.078" class="gray" /></g>
<g><line x1="51.4649" y1="124.685" x2="50.5451" y2="121.35" class="gray" /></g>
<g><line x1="50.4923" y1="117.381" x2="51.3077" y2="114.083" class="gray" /></g>
<g><line x1="53.2838" y1="110.676" x2="55.7862" y2="108.288" class="gray" /></g>
<g><line x1="59.273" y1="106.432" x2="62.857" y2="105.643" class="gray" /></g>
<g><line x1="66.8145" y1="105.824" x2="70.2955" y2="106.931" class="gray" /></g>
<g><line x1="73.5278" y1="109.157" x2="75.5122" y2="111.648" class="gray" /></g>
<g><line x1="78.841" y1="113.252" x2="82.509" y2="113.252" class="gray" /></g>
<g><line x1="86.611" y1="113.252" x2="90.069" y2="113.252" class="gray" /></g>
<g><line x1="94.171" y1="113.252" x2="97.629" y2="113.252" class="gray" /></g>
<g><line x1="100.518" y1="111.381" x2="101.892" y2="108.314" class="gray" /></g>
<g><line x1="104.208" y1="105.02" x2="106.812" y2="102.514" class="gray" /></g>
<g><line x1="107.607" y1="99.1586" x2="106.453" y2="95.8961" class="gray" /></g>
<g><line x1="105.039" y1="92.0461" x2="103.781" y2="88.7486" class="gray" /></g>
<g><line x1="102.367" y1="84.8986" x2="101.213" y2="81.6361" class="gray" /></g>
<g><line x1="99.849" y1="77.7678" x2="98.701" y2="74.5069" class="gray" /></g>
<g><line x1="96.2635" y1="71.5135" x2="93.4565" y2="69.8212" class="gray" /></g>
<g><line x1="90.9164" y1="66.867" x2="89.5936" y2="63.6677" class="gray" /></g>
<g><line x1="89.331" y1="59.7887" x2="90.209" y2="56.446" class="gray" /></g>
<g><line x1="92.3657" y1="53.225" x2="95.2543" y2="51.0397" class="gray" /></g>
<g><line x1="98.9407" y1="49.7717" x2="102.199" y2="49.723" class="gray" /></g>
<g><line x1="105.919" y1="50.884" x2="108.871" y2="52.9908" class="gray" /></g>
<g><line x1="111.117" y1="56.1504" x2="112.093" y2="59.4743" class="gray" /></g>
<g><line x1="111.891" y1="63.3395" x2="110.549" y2="66.6052" class="gray" /></g>
<g><line x1="110.453" y1="70.4361" x2="111.607" y2="73.6986" class="gray" /></g>
<g><line x1="112.971" y1="77.5669" x2="114.119" y2="80.8278" class="gray" /></g>
<g><line x1="115.432" y1="84.7135" x2="116.478" y2="87.9412" class="gray" /></g>
<g><line x1="117.89" y1="91.7894" x2="119.26" y2="95.1253" class="gray" /></g>
<g><line x1="122.079" y1="97.2423" x2="125.511" y2="97.6124" class="gray" /></g>
<g><line x1="129.378" y1="98.7621" x2="132.132" y2="100.163" class="gray" /></g>
<g><line x1="135.409" y1="102.544" x2="137.851" y2="104.991" class="gray" /></g>
<g><line x1="140.233" y1="108.269" x2="141.847" y2="111.426" class="gray" /></g>
<g><line x1="142.997" y1="115.292" x2="143.363" y2="118.733" class="gray" /></g>
<g><line x1="143.057" y1="122.756" x2="142.163" y2="126.149" class="gray" /></g>
<g><line x1="143.259" y1="129.392" x2="146.111" y2="131.613" class="gray" /></g>
<g><line x1="149.326" y1="134.16" x2="152.024" y2="136.335" class="gray" /></g>
<g><line x1="155.195" y1="138.936" x2="157.725" y2="141.048" class="gray" /></g>
<g><line x1="160.897" y1="143.65" x2="163.583" y2="145.815" class="gray" /></g>
<g><line x1="167.23" y1="147.052" x2="170.9" y2="146.962" class="gray" /></g>
<g><line x1="174.612" y1="148.114" x2="177.418" y2="150.141" class="gray" /></g>
<g><line x1="179.68" y1="153.304" x2="180.69" y2="156.611" class="gray" /></g>
<g><line x1="180.53" y1="160.477" x2="179.22" y2="163.758" class="gray" /></g>
<g><line x1="176.767" y1="166.82" x2="174.203" y2="168.574" class="gray" /></g>
<g><line x1="170.466" y1="169.564" x2="167.014" y2="169.28" class="gray" /></g>
<g><line x1="163.42" y1="167.77" x2="160.69" y2="165.405" class="gray" /></g>
<g><line x1="158.752" y1="162.048" x2="158.098" y2="158.646" class="gray" /></g>
<g><line x1="156.113" y1="155.345" x2="153.427" y2="153.18" class="gray" /></g>
<g><line x1="150.21" y1="150.634" x2="147.35" y2="148.411" class="gray" /></g>
<g><line x1="144.134" y1="145.865" x2="141.436" y2="143.69" class="gray" /></g>
<g><line x1="138.266" y1="141.087" x2="135.744" y2="138.978" class="gray" /></g>
<g><line x1="132.32" y1="138.547" x2="129.2" y2="140.038" class="gray" /></g>
<g><line x1="127.35" y1="142.973" x2="127.35" y2="146.431" class="gray" /></g>
<g><line x1="127.35" y1="150.533" x2="127.35" y2="153.991" class="gray" /></g>
<g><line x1="127.35" y1="158.093" x2="127.35" y2="161.551" class="gray" /></g>
<g><line x1="127.293" y1="165.653" x2="127.197" y2="169.112" class="gray" /></g>
<g><line x1="127.197" y1="173.213" x2="127.293" y2="176.672" class="gray" /></g>
<g><line x1="128.827" y1="180.146" x2="131.319" y2="182.549" class="gray" /></g>
<g><line x1="134.847" y1="183.972" x2="138.309" y2="183.972" class="gray" /></g>
<g><line x1="142.411" y1="183.972" x2="145.873" y2="183.972" class="gray" /></g>
</svg>
