<svg
	xmlns="http://www.w3.org/2000/svg"
	width="217.66"
	height="239.957">
<g><style type="text/css" >
<!-- create color definitions -->
<![CDATA[
circle.red {stroke: rgb(255, 0, 255); fill: none; }
circle.green {stroke: rgb(0, 255, 0); fill: none; }
circle.blue {stroke: rgb(0, 0, 255); fill: none; }
circle.black {stroke: rgb(0, 0, 0); fill: none; }
circle.gray {stroke: rgb(204, 204, 204); fill: none; }
circle.brown {stroke: rgb(211.65, 104.55, 30.6); fill: none; }
line.red {stroke: rgb(255, 0, 255); stroke-width: 0.379945; }
line.green {stroke: rgb(0, 255, 0); stroke-width: 0.379945; }
line.blue {stroke: rgb(0, 0, 255); stroke-width: 0.379945; }
line.black {stroke: rgb(0, 0, 0); stroke-width: 0.379945; }
line.gray {stroke: rgb(204, 204, 204); stroke-width: 0.379945; }
line.brown {stroke: rgb(211.65, 104.55, 30.6); stroke-width: 0.379945; }
line {stroke: rgb(0, 0, 0); }
text.red {fill: rgb(255, 0, 255); font-size: 3.039558px; font-weight: bold; font-family: Helvetica; }
text.green {fill: rgb(0, 255, 0); font-size: 3.039558px; font-weight: bold; font-family: Helvetica; }
text.blue {fill: rgb(0, 0, 255); font-size: 3.039558px; font-weight: bold; font-family: Helvetica; }
text.black {fill: rgb(0, 0, 0); font-size: 3.039558px; font-weight: bold; font-family: Helvetica; }
text.gray {fill: rgb(204, 204, 204); font-size: 3.039558px; font-weight: bold; font-family: Helvetica; }
text.brown {fill: rgb(211.65, 104.55, 30.6); font-size: 3.039558px; font-weight: bold; font-family: Helvetica; }
text {fill: rgb(0, 0, 0); font-size: 3.039558px; font-weight: bold; font-family: Helvetica; text-anchor: middle; alignment-baseline: middle; }

.pseudoknot_connection{stroke-linecap: round; stroke-opacity: 0.2; stroke-width: 1.5; }
.pseudoknot_segment1{stroke-linecap: round; stroke-opacity: 0.4; stroke-width: 3.03956; }
.pseudoknot_segment2{stroke-linecap: round; stroke-opacity: 0.4; stroke-width: 3.03956; }
line.numbering-line{stroke: rgb(204, 204, 204); stroke-width: 0.189972; }
line.predicted{stroke: rgb(0, 0, 0); stroke-dasharray: 2; }
polyline{fill: none; stroke-linejoin: round; }
template{visibility: hidden; }
text.numbering-label{fill: rgb(204, 204, 204); }
]]>
</style></g>
<g><title>0 (position.label in template: 0.5')</title><text x="102.42" y="192.163" class="green" >5'</text></g>
<g><title>1 (position.label in template: 1.U)</title><text x="102.42" y="184.63" class="green" >T</text></g>
<g><line x1="104.446" y1="184.326" x2="112.834" y2="184.326" class="black" /></g>
<g><title>2 (position.label in template: 2.C)</title><text x="102.42" y="177.07" class="black" >C</text></g>
<g><line x1="104.446" y1="176.766" x2="112.424" y2="176.766" class="black" /></g>
<g><title>3 (position.label in template: 3.C)</title><text x="102.42" y="169.51" class="black" >C</text></g>
<g><line x1="104.446" y1="169.206" x2="112.424" y2="169.206" class="black" /></g>
<g><title>4 (position.label in template: 4.U)</title><text x="102.42" y="161.95" class="green" >T</text></g>
<g><line x1="104.446" y1="161.646" x2="112.424" y2="161.646" class="black" /></g>
<g><title>5 (position.label in template: 5.G)</title><text x="102.21" y="154.39" class="green" >G</text></g>
<g><line x1="104.236" y1="154.086" x2="112.634" y2="154.086" class="black" /></g>
<g><title>6 (position.label in template: 6.G)</title><text x="102.21" y="146.83" class="green" >G</text></g>
<g><line x1="104.236" y1="146.526" x2="112.634" y2="146.526" class="black" /></g>
<g><title>7 (position.label in template: 7.C)</title><text x="95.52" y="143.72" class="black" >C</text></g>
<g><title>8 (position.label in template: 8.A)</title><text x="90.17" y="138.6" class="black" >A</text></g>
<g><title>9 (position.label in template: 9.G)</title><text x="86.11" y="131.98" class="black" >G</text></g>
<g><title>10 (position.label in template: 10.C)</title><text x="84.95" y="124.54" class="black" >C</text></g>
<g><line x1="85.4022" y1="122.261" x2="87.2178" y2="114.331" class="black" /></g>
<g><text x="79.9143" y="129.167" class="numbering-label sequential" >10</text></g>
<g><line x1="83.6071" y1="125.774" x2="81.5681" y2="127.648" class="numbering-line sequential" /></g>
<g><title>11 (position.label in template: 11.U)</title><text x="77.61" y="122.73" class="green" >T</text></g>
<g><line x1="78.1263" y1="120.467" x2="80.2237" y2="112.506" class="black" /></g>
<g><title>12 (position.label in template: 12.C)</title><text x="71.69" y="127.44" class="black" >C</text></g>
<g><title>13 (position.label in template: 13.A)</title><text x="64.45" y="128.75" class="black" >A</text></g>
<g><title>14 (position.label in template: 14.G)</title><text x="56.87" y="126.36" class="black" >G</text></g>
<g><title>15 (position.label in template: 15.C)</title><text x="51.91" y="120.84" class="black" >C</text></g>
<g><title>16 (position.label in template: 16.U)</title><text x="50" y="113.53" class="green" >T</text></g>
<g><title>17 (position.label in template: 17.G)</title><text x="51.6" y="106.19" class="black" >G</text></g>
<g><title>18 (position.label in template: 18.G)</title><text x="56.68" y="100.59" class="black" >G</text></g>
<g><title>19 (position.label in template: 19.U)</title><text x="64.03" y="98.1" class="green" >T</text></g>
<g><title>20 (position.label in template: 20.A)</title><text x="71.7" y="99.31" class="black" >A</text></g>
<g><text x="74.3862" y="93.0206" class="numbering-label sequential" >20</text></g>
<g><line x1="72.4163" y1="97.6328" x2="73.7371" y2="94.5404" class="numbering-line sequential" /></g>
<g><title>21 (position.label in template: 21.A)</title><text x="77.68" y="103.93" class="black" >A</text></g>
<g><title>22 (position.label in template: 22.A)</title><text x="80.74" y="110.85" class="green" >A</text></g>
<g><title>23 (position.label in template: 23.G)</title><text x="87.67" y="112.66" class="black" >G</text></g>
<g><title>24 (position.label in template: 24.A)</title><text x="92.75" y="106.71" class="black" >A</text></g>
<g><title>25 (position.label in template: 25.A)</title><text x="99.05" y="102.54" class="black" >A</text></g>
<g><title>26 (position.label in template: 26.U)</title><text x="106.15" y="100.57" class="green" >T</text></g>
<g><line x1="108.149" y1="100.598" x2="116.021" y2="101.904" class="black" /></g>
<g><title>27 (position.label in template: 27.C)</title><text x="107.36" y="93.11" class="black" >C</text></g>
<g><line x1="109.359" y1="93.1362" x2="117.231" y2="94.4359" class="black" /></g>
<g><title>28 (position.label in template: 28.C)</title><text x="108.57" y="85.65" class="black" >C</text></g>
<g><line x1="110.569" y1="85.6762" x2="118.441" y2="86.9759" class="black" /></g>
<g><title>29 (position.label in template: 29.A)</title><text x="109.99" y="78.19" class="green" >A</text></g>
<g><line x1="111.989" y1="78.2162" x2="119.861" y2="79.5159" class="black" /></g>
<g><title>30 (position.label in template: 30.C)</title><text x="110.99" y="70.73" class="black" >C</text></g>
<g><line x1="112.989" y1="70.7562" x2="120.861" y2="72.0559" class="black" /></g>
<g><text x="104.294" y="72.1229" class="numbering-label sequential" >30</text></g>
<g><line x1="109.204" y1="71.1014" x2="106.118" y2="71.7435" class="numbering-line sequential" /></g>
<g><title>31 (position.label in template: 31.C)</title><text x="107.09" y="64.25" class="black" >C</text></g>
<g><title>32 (position.label in template: 32.U)</title><text x="107.9" y="56.73" class="green" >T</text></g>
<g><title>33 (position.label in template: 33.G)</title><text x="112.89" y="51.24" class="black" >G</text></g>
<g><title>34 (position.label in template: 34.C)</title><text x="120.56" y="50" class="black" >C</text></g>
<g><title>35 (position.label in template: 35.A)</title><text x="127.45" y="53.53" class="black" >A</text></g>
<g><title>36 (position.label in template: 36.A)</title><text x="130.64" y="60.39" class="black" >A</text></g>
<g><title>37 (position.label in template: 37.U)</title><text x="128.82" y="67.78" class="green" >T</text></g>
<g><title>38 (position.label in template: 38.G)</title><text x="122.86" y="72.69" class="black" >G</text></g>
<g><title>39 (position.label in template: 39.U)</title><text x="121.86" y="80.15" class="green" >T</text></g>
<g><title>40 (position.label in template: 40.G)</title><text x="120.44" y="87.61" class="black" >G</text></g>
<g><title>41 (position.label in template: 41.G)</title><text x="119.23" y="95.07" class="black" >G</text></g>
<g><title>42 (position.label in template: 42.G)</title><text x="118.02" y="102.54" class="green" >G</text></g>
<g><title>43 (position.label in template: 43.A)</title><text x="124.74" y="106.71" class="black" >A</text></g>
<g><title>44 (position.label in template: 44.G)</title><text x="128.99" y="112.66" class="black" >G</text></g>
<g><title>45 (position.label in template: 45.A)</title><text x="131.95" y="119.78" class="black" >A</text></g>
<g><title>46 (position.label in template: 46.C)</title><text x="131.9" y="127.33" class="black" >C</text></g>
<g><title>47 (position.label in template: 47.C)</title><text x="129.66" y="134.55" class="black" >C</text></g>
<g><line x1="128.298" y1="135.747" x2="122.702" y2="141.915" class="black" /></g>
<g><title>48 (position.label in template: 48.U)</title><text x="135.32" y="139.56" class="green" >T</text></g>
<g><line x1="133.997" y1="140.791" x2="128.743" y2="146.891" class="black" /></g>
<g><title>49 (position.label in template: 49.G)</title><text x="140.77" y="144.57" class="green" >G</text></g>
<g><line x1="139.448" y1="145.802" x2="134.202" y2="151.9" class="black" /></g>
<g><title>50 (position.label in template: 50.G)</title><text x="146.44" y="149.58" class="black" >G</text></g>
<g><line x1="145.117" y1="150.811" x2="139.863" y2="156.911" class="black" /></g>
<g><text x="150.971" y="144.457" class="numbering-label sequential" >50</text></g>
<g><line x1="147.648" y1="148.214" x2="149.627" y2="145.977" class="numbering-line sequential" /></g>
<g><title>51 (position.label in template: 51.G)</title><text x="152.1" y="154.59" class="black" >G</text></g>
<g><line x1="150.777" y1="155.821" x2="145.523" y2="161.921" class="black" /></g>
<g><title>52 (position.label in template: 52.U)</title><text x="159.87" y="154.75" class="green" >T</text></g>
<g><title>53 (position.label in template: 53.U)</title><text x="165.79" y="159.45" class="green" >T</text></g>
<g><title>54 (position.label in template: 54.C)</title><text x="167.66" y="166.77" class="black" >C</text></g>
<g><title>55 (position.label in template: 55.G)</title><text x="164.51" y="173.74" class="black" >G</text></g>
<g><title>56 (position.label in template: 56.A)</title><text x="158.38" y="177.51" class="black" >A</text></g>
<g><title>57 (position.label in template: 57.U)</title><text x="150.67" y="176.54" class="green" >T</text></g>
<g><title>58 (position.label in template: 58.U)</title><text x="145.28" y="171.24" class="green" >T</text></g>
<g><title>59 (position.label in template: 59.C)</title><text x="144.2" y="163.76" class="black" >C</text></g>
<g><title>60 (position.label in template: 60.C)</title><text x="138.54" y="158.75" class="black" >C</text></g>
<g><title>61 (position.label in template: 61.U)</title><text x="132.88" y="153.74" class="green" >T</text></g>
<g><title>62 (position.label in template: 62.A)</title><text x="127.42" y="148.73" class="green" >A</text></g>
<g><title>63 (position.label in template: 63.G)</title><text x="119.83" y="151.13" class="black" >G</text></g>
<g><title>64 (position.label in template: 64.G)</title><text x="121.34" y="143.72" class="black" >G</text></g>
<g><title>65 (position.label in template: 65.U)</title><text x="114.66" y="146.83" class="green" >T</text></g>
<g><title>66 (position.label in template: 66.U)</title><text x="114.66" y="154.39" class="green" >T</text></g>
<g><title>67 (position.label in template: 67.G)</title><text x="114.45" y="161.95" class="green" >G</text></g>
<g><title>68 (position.label in template: 68.G)</title><text x="114.45" y="169.51" class="black" >G</text></g>
<g><title>69 (position.label in template: 69.G)</title><text x="114.45" y="177.07" class="black" >G</text></g>
<g><title>70 (position.label in template: 70.A)</title><text x="114.86" y="184.63" class="green" >A</text></g>
<g><title>71 (position.label in template: 71.A)</title><text x="120.187" y="189.957" class="black" >A</text></g>
<g><title>72 (position.label in template: 72.3')</title><text x="120.256" y="197.49" class="green" >3'</text></g>
<g><line x1="102.42" y1="189.833" x2="102.42" y2="186.352" class="gray" /></g>
<g><line x1="102.42" y1="182.3" x2="102.42" y2="178.792" class="gray" /></g>
<g><line x1="102.42" y1="174.74" x2="102.42" y2="171.232" class="gray" /></g>
<g><line x1="102.42" y1="167.18" x2="102.42" y2="163.672" class="gray" /></g>
<g><line x1="102.364" y1="159.62" x2="102.266" y2="156.112" class="gray" /></g>
<g><line x1="102.21" y1="152.06" x2="102.21" y2="148.552" class="gray" /></g>
<g><line x1="100.372" y1="145.672" x2="97.3575" y2="144.27" class="gray" /></g>
<g><line x1="94.056" y1="142.015" x2="91.634" y2="139.697" class="gray" /></g>
<g><line x1="89.1106" y1="136.569" x2="87.1694" y2="133.403" class="gray" /></g>
<g><line x1="85.7978" y1="129.674" x2="85.2622" y2="126.238" class="gray" /></g>
<g><line x1="82.9826" y1="123.751" x2="79.5774" y2="122.911" class="gray" /></g>
<g><line x1="76.0243" y1="123.688" x2="73.2757" y2="125.874" class="gray" /></g>
<g><line x1="69.696" y1="127.497" x2="66.444" y2="128.085" class="gray" /></g>
<g><line x1="62.5174" y1="127.837" x2="58.8026" y2="126.665" class="gray" /></g>
<g><line x1="55.5156" y1="124.549" x2="53.2644" y2="122.043" class="gray" /></g>
<g><line x1="51.3977" y1="118.575" x2="50.5123" y2="115.187" class="gray" /></g>
<g><line x1="50.4316" y1="111.246" x2="51.1684" y2="107.866" class="gray" /></g>
<g><line x1="52.9615" y1="104.385" x2="55.3185" y2="101.787" class="gray" /></g>
<g><line x1="58.5992" y1="99.6359" x2="62.1108" y2="98.4462" class="gray" /></g>
<g><line x1="66.0316" y1="98.1118" x2="69.6984" y2="98.6903" class="gray" /></g>
<g><line x1="73.3036" y1="100.245" x2="76.0764" y2="102.387" class="gray" /></g>
<g><line x1="78.4995" y1="105.479" x2="79.9205" y2="108.693" class="gray" /></g>
<g><line x1="82.7006" y1="111.058" x2="85.7094" y2="111.844" class="gray" /></g>
<g><line x1="88.9858" y1="110.815" x2="91.4342" y2="107.947" class="gray" /></g>
<g><line x1="94.4397" y1="105.288" x2="97.3603" y2="103.354" class="gray" /></g>
<g><line x1="101.003" y1="101.694" x2="104.197" y2="100.808" class="gray" /></g>
<g><line x1="106.474" y1="98.2658" x2="107.036" y2="94.8063" class="gray" /></g>
<g><line x1="107.684" y1="90.8058" x2="108.246" y2="87.3463" class="gray" /></g>
<g><line x1="108.949" y1="83.3554" x2="109.611" y2="79.8767" class="gray" /></g>
<g><line x1="110.259" y1="75.8776" x2="110.721" y2="72.4345" class="gray" /></g>
<g><line x1="109.945" y1="68.6899" x2="108.135" y2="65.6822" class="gray" /></g>
<g><line x1="107.307" y1="61.9313" x2="107.683" y2="58.4408" class="gray" /></g>
<g><line x1="109.263" y1="54.9265" x2="111.527" y2="52.4356" class="gray" /></g>
<g><line x1="114.89" y1="50.6126" x2="118.56" y2="50.0194" class="gray" /></g>
<g><line x1="122.363" y1="50.62" x2="125.647" y2="52.3021" class="gray" /></g>
<g><line x1="128.304" y1="55.0635" x2="129.786" y2="58.2486" class="gray" /></g>
<g><line x1="130.155" y1="62.0536" x2="129.305" y2="65.5085" class="gray" /></g>
<g><line x1="127.256" y1="68.7645" x2="124.424" y2="71.0976" class="gray" /></g>
<g><line x1="122.591" y1="74.3945" x2="122.129" y2="77.8376" class="gray" /></g>
<g><line x1="121.481" y1="81.8367" x2="120.819" y2="85.3154" class="gray" /></g>
<g><line x1="120.116" y1="89.3063" x2="119.554" y2="92.7658" class="gray" /></g>
<g><line x1="118.906" y1="96.7663" x2="118.344" y2="100.236" class="gray" /></g>
<g><line x1="119.742" y1="103.304" x2="123.018" y2="105.338" class="gray" /></g>
<g><line x1="125.918" y1="108.055" x2="127.812" y2="110.707" class="gray" /></g>
<g><line x1="129.768" y1="114.227" x2="131.172" y2="117.605" class="gray" /></g>
<g><line x1="131.937" y1="121.502" x2="131.913" y2="125" class="gray" /></g>
<g><line x1="131.3" y1="128.961" x2="130.26" y2="132.311" class="gray" /></g>
<g><line x1="131.177" y1="135.589" x2="133.803" y2="137.913" class="gray" /></g>
<g><line x1="136.812" y1="140.627" x2="139.278" y2="142.895" class="gray" /></g>
<g><line x1="142.289" y1="145.608" x2="144.921" y2="147.934" class="gray" /></g>
<g><line x1="147.957" y1="150.619" x2="150.583" y2="152.943" class="gray" /></g>
<g><line x1="154.126" y1="154.328" x2="157.844" y2="154.404" class="gray" /></g>
<g><line x1="161.457" y1="155.706" x2="164.203" y2="157.886" class="gray" /></g>
<g><line x1="166.292" y1="161.109" x2="167.158" y2="164.503" class="gray" /></g>
<g><line x1="166.825" y1="168.313" x2="165.345" y2="171.589" class="gray" /></g>
<g><line x1="162.784" y1="174.498" x2="160.106" y2="176.144" class="gray" /></g>
<g><line x1="156.369" y1="176.953" x2="152.681" y2="176.489" class="gray" /></g>
<g><line x1="149.225" y1="174.815" x2="146.725" y2="172.357" class="gray" /></g>
<g><line x1="144.99" y1="168.93" x2="144.49" y2="165.462" class="gray" /></g>
<g><line x1="142.683" y1="162.113" x2="140.057" y2="159.789" class="gray" /></g>
<g><line x1="137.023" y1="157.103" x2="134.397" y2="154.779" class="gray" /></g>
<g><line x1="131.387" y1="152.066" x2="128.913" y2="149.796" class="gray" /></g>
<g><line x1="125.488" y1="149.037" x2="121.762" y2="150.215" class="gray" /></g>
<g><line x1="120.235" y1="148.84" x2="120.935" y2="145.402" class="gray" /></g>
<g><line x1="119.503" y1="144.271" x2="116.497" y2="145.671" class="gray" /></g>
<g><line x1="114.66" y1="148.552" x2="114.66" y2="152.06" class="gray" /></g>
<g><line x1="114.604" y1="156.112" x2="114.506" y2="159.62" class="gray" /></g>
<g><line x1="114.45" y1="163.672" x2="114.45" y2="167.18" class="gray" /></g>
<g><line x1="114.45" y1="171.232" x2="114.45" y2="174.74" class="gray" /></g>
<g><line x1="114.56" y1="178.789" x2="114.75" y2="182.303" class="gray" /></g>
<g><line x1="116.293" y1="185.759" x2="118.754" y2="188.22" class="gray" /></g>
<g><line x1="120.205" y1="191.679" x2="120.237" y2="195.16" class="gray" /></g>
</svg>
