<svg
	xmlns="http://www.w3.org/2000/svg"
	width="231.5"
	height="241.83">
<g><style type="text/css" >
<!-- create color definitions -->
<![CDATA[
circle.red {stroke: rgb(255, 0, 255); fill: none; }
circle.green {stroke: rgb(0, 255, 0); fill: none; }
circle.blue {stroke: rgb(0, 0, 255); fill: none; }
circle.black {stroke: rgb(0, 0, 0); fill: none; }
circle.gray {stroke: rgb(204, 204, 204); fill: none; }
circle.brown {stroke: rgb(211.65, 104.55, 30.6); fill: none; }
line.red {stroke: rgb(255, 0, 255); stroke-width: 0.383118; }
line.green {stroke: rgb(0, 255, 0); stroke-width: 0.383118; }
line.blue {stroke: rgb(0, 0, 255); stroke-width: 0.383118; }
line.black {stroke: rgb(0, 0, 0); stroke-width: 0.383118; }
line.gray {stroke: rgb(204, 204, 204); stroke-width: 0.383118; }
line.brown {stroke: rgb(211.65, 104.55, 30.6); stroke-width: 0.383118; }
line {stroke: rgb(0, 0, 0); }
text.red {fill: rgb(255, 0, 255); font-size: 3.064947px; font-weight: bold; font-family: Helvetica; }
text.green {fill: rgb(0, 255, 0); font-size: 3.064947px; font-weight: bold; font-family: Helvetica; }
text.blue {fill: rgb(0, 0, 255); font-size: 3.064947px; font-weight: bold; font-family: Helvetica; }
text.black {fill: rgb(0, 0, 0); font-size: 3.064947px; font-weight: bold; font-family: Helvetica; }
text.gray {fill: rgb(204, 204, 204); font-size: 3.064947px; font-weight: bold; font-family: Helvetica; }
text.brown {fill: rgb(211.65, 104.55, 30.6); font-size: 3.064947px; font-weight: bold; font-family: Helvetica; }
text {fill: rgb(0, 0, 0); font-size: 3.064947px; font-weight: bold; font-family: Helvetica; text-anchor: middle; alignment-baseline: middle; }

.pseudoknot_connection{stroke-linecap: round; stroke-opacity: 0.2; stroke-width: 1.5; }
.pseudoknot_segment1{stroke-linecap: round; stroke-opacity: 0.4; stroke-width: 3.06495; }
.pseudoknot_segment2{stroke-linecap: round; stroke-opacity: 0.4; stroke-width: 3.06495; }
line.numbering-line{stroke: rgb(204, 204, 204); stroke-width: 0.191559; }
line.predicted{stroke: rgb(0, 0, 0); stroke-dasharray: 2; }
polyline{fill: none; stroke-linejoin: round; }
template{visibility: hidden; }
text.numbering-label{fill: rgb(204, 204, 204); }
]]>
</style></g>
<g><title>0 (position.label in template: 0.5')</title><text x="115.11" y="194.141" class="green" >5'</text></g>
<g><title>1 (position.label in template: 1.G)</title><text x="115.11" y="186.59" class="black" >G</text></g>
<g><line x1="117.153" y1="186.284" x2="125.517" y2="186.284" class="black" /></g>
<g><title>2 (position.label in template: 2.G)</title><text x="115.11" y="179.03" class="black" >G</text></g>
<g><line x1="117.153" y1="178.724" x2="125.517" y2="178.724" class="black" /></g>
<g><title>3 (position.label in template: 3.G)</title><text x="115.11" y="171.47" class="green" >G</text></g>
<g><line x1="117.153" y1="171.164" x2="125.517" y2="171.164" class="black" /></g>
<g><title>4 (position.label in template: 4.C)</title><text x="115.32" y="163.91" class="black" >C</text></g>
<g><line x1="117.363" y1="163.604" x2="125.307" y2="163.604" class="black" /></g>
<g><title>5 (position.label in template: 5.C)</title><text x="115.32" y="156.35" class="black" >C</text></g>
<g><line x1="117.363" y1="156.044" x2="125.307" y2="156.044" class="black" /></g>
<g><title>6 (position.label in template: 6.C)</title><text x="115.32" y="148.79" class="black" >C</text></g>
<g><line x1="117.363" y1="148.484" x2="125.307" y2="148.484" class="black" /></g>
<g><title>7 (position.label in template: 7.G)</title><text x="115.11" y="141.23" class="black" >G</text></g>
<g><line x1="117.153" y1="140.924" x2="125.517" y2="140.924" class="black" /></g>
<g><title>8 (position.label in template: 8.U)</title><text x="108.5" y="137.97" class="green" >T</text></g>
<g><title>9 (position.label in template: 9.A)</title><text x="103.36" y="132.62" class="black" >A</text></g>
<g><title>10 (position.label in template: 10.G)</title><text x="99.68" y="125.8" class="black" >G</text></g>
<g><line x1="99.7151" y1="123.451" x2="99.8549" y2="115.297" class="black" /></g>
<g><text x="96.0533" y="131.665" class="numbering-label sequential" >10</text></g>
<g><line x1="98.7129" y1="127.364" x2="97.0009" y2="130.133" class="numbering-line sequential" /></g>
<g><title>11 (position.label in template: 11.C)</title><text x="92.33" y="125.8" class="black" >C</text></g>
<g><line x1="92.2949" y1="123.451" x2="92.1551" y2="115.297" class="black" /></g>
<g><title>12 (position.label in template: 12.G)</title><text x="84.56" y="125.8" class="black" >G</text></g>
<g><line x1="84.5951" y1="123.451" x2="84.7349" y2="115.297" class="black" /></g>
<g><title>13 (position.label in template: 13.C)</title><text x="77.21" y="125.8" class="black" >C</text></g>
<g><line x1="77.1749" y1="123.451" x2="77.0351" y2="115.297" class="black" /></g>
<g><title>14 (position.label in template: 14.A)</title><text x="72.46" y="131.51" class="black" >A</text></g>
<g><title>15 (position.label in template: 15.G)</title><text x="64.86" y="133.86" class="black" >G</text></g>
<g><title>16 (position.label in template: 16.U)</title><text x="57.69" y="132.19" class="green" >T</text></g>
<g><title>17 (position.label in template: 17.U)</title><text x="52.22" y="126.97" class="green" >T</text></g>
<g><title>18 (position.label in template: 18.G)</title><text x="50" y="119.68" class="black" >G</text></g>
<g><title>19 (position.label in template: 19.G)</title><text x="52.01" y="112.4" class="black" >G</text></g>
<g><title>20 (position.label in template: 20.U)</title><text x="57.69" y="107.18" class="green" >T</text></g>
<g><text x="54.4722" y="101.081" class="numbering-label sequential" >20</text></g>
<g><line x1="56.8319" y1="105.554" x2="55.2807" y2="102.613" class="numbering-line sequential" /></g>
<g><title>21 (position.label in template: 21.U)</title><text x="65.07" y="105.51" class="green" >T</text></g>
<g><title>22 (position.label in template: 22.A)</title><text x="72.46" y="107.86" class="black" >A</text></g>
<g><title>23 (position.label in template: 23.G)</title><text x="77" y="113.56" class="black" >G</text></g>
<g><title>24 (position.label in template: 24.C)</title><text x="84.77" y="113.56" class="black" >C</text></g>
<g><title>25 (position.label in template: 25.G)</title><text x="92.12" y="113.56" class="black" >G</text></g>
<g><title>26 (position.label in template: 26.C)</title><text x="99.89" y="113.56" class="black" >C</text></g>
<g><title>27 (position.label in template: 27.G)</title><text x="102.94" y="106.75" class="black" >G</text></g>
<g><title>28 (position.label in template: 28.U)</title><text x="108.5" y="101.4" class="green" >T</text></g>
<g><line x1="110.431" y1="100.425" x2="118.319" y2="97.6923" class="black" /></g>
<g><title>29 (position.label in template: 29.C)</title><text x="105.98" y="94.27" class="black" >C</text></g>
<g><line x1="107.903" y1="93.2733" x2="115.397" y2="90.5837" class="black" /></g>
<g><title>30 (position.label in template: 30.U)</title><text x="103.47" y="87.14" class="green" >T</text></g>
<g><line x1="105.401" y1="86.1647" x2="113.289" y2="83.4323" class="black" /></g>
<g><text x="96.9971" y="89.5186" class="numbering-label sequential" >30</text></g>
<g><line x1="101.744" y1="87.7743" x2="98.836" y2="88.8428" class="numbering-line sequential" /></g>
<g><title>31 (position.label in template: 31.G)</title><text x="100.74" y="80.01" class="black" >G</text></g>
<g><line x1="102.671" y1="79.0352" x2="110.569" y2="76.3018" class="black" /></g>
<g><title>32 (position.label in template: 32.U)</title><text x="98.44" y="72.88" class="green" >T</text></g>
<g><line x1="100.371" y1="71.9047" x2="108.259" y2="69.1723" class="black" /></g>
<g><title>33 (position.label in template: 33.A)</title><text x="92.12" y="69.07" class="black" >A</text></g>
<g><title>34 (position.label in template: 34.U)</title><text x="89.02" y="62.08" class="green" >T</text></g>
<g><title>35 (position.label in template: 35.G)</title><text x="90.73" y="54.77" class="black" >G</text></g>
<g><title>36 (position.label in template: 36.G)</title><text x="96.69" y="50.11" class="black" >G</text></g>
<g><title>37 (position.label in template: 37.C)</title><text x="104.46" y="50" class="black" >C</text></g>
<g><title>38 (position.label in template: 38.A)</title><text x="110.75" y="54.49" class="black" >A</text></g>
<g><title>39 (position.label in template: 39.U)</title><text x="112.67" y="61.75" class="green" >T</text></g>
<g><title>40 (position.label in template: 40.A)</title><text x="110.19" y="68.81" class="green" >A</text></g>
<g><title>41 (position.label in template: 41.C)</title><text x="112.5" y="75.94" class="black" >C</text></g>
<g><title>42 (position.label in template: 42.A)</title><text x="115.22" y="83.07" class="green" >A</text></g>
<g><title>43 (position.label in template: 43.G)</title><text x="117.32" y="90.2" class="black" >G</text></g>
<g><title>44 (position.label in template: 44.A)</title><text x="120.25" y="97.33" class="green" >A</text></g>
<g><title>45 (position.label in template: 45.A)</title><text x="127.76" y="98.14" class="black" >A</text></g>
<g><title>46 (position.label in template: 46.G)</title><text x="134.17" y="101.4" class="black" >G</text></g>
<g><title>47 (position.label in template: 47.G)</title><text x="139.51" y="106.75" class="black" >G</text></g>
<g><title>48 (position.label in template: 48.U)</title><text x="142.99" y="113.56" class="green" >T</text></g>
<g><title>49 (position.label in template: 49.C)</title><text x="143.79" y="121.08" class="black" >C</text></g>
<g><title>50 (position.label in template: 50.A)</title><text x="142.26" y="128.44" class="green" >A</text></g>
<g><line x1="140.958" y1="129.708" x2="135.682" y2="136.089" class="black" /></g>
<g><text x="148.817" y="126.305" class="numbering-label sequential" >50</text></g>
<g><line x1="144.009" y1="127.871" x2="146.978" y2="126.904" class="numbering-line sequential" /></g>
<g><title>51 (position.label in template: 51.G)</title><text x="147.73" y="133.18" class="black" >G</text></g>
<g><line x1="146.469" y1="134.482" x2="141.521" y2="140.795" class="black" /></g>
<g><title>52 (position.label in template: 52.G)</title><text x="153.62" y="137.93" class="black" >G</text></g>
<g><line x1="152.359" y1="139.232" x2="147.411" y2="145.545" class="black" /></g>
<g><title>53 (position.label in template: 53.G)</title><text x="159.51" y="142.67" class="black" >G</text></g>
<g><line x1="158.249" y1="143.972" x2="153.301" y2="150.285" class="black" /></g>
<g><title>54 (position.label in template: 54.G)</title><text x="165.39" y="147.41" class="black" >G</text></g>
<g><line x1="164.129" y1="148.712" x2="159.181" y2="155.025" class="black" /></g>
<g><title>55 (position.label in template: 55.U)</title><text x="173.16" y="147.22" class="green" >T</text></g>
<g><title>56 (position.label in template: 56.U)</title><text x="179.29" y="151.65" class="green" >T</text></g>
<g><title>57 (position.label in template: 57.C)</title><text x="181.5" y="158.88" class="black" >C</text></g>
<g><title>58 (position.label in template: 58.G)</title><text x="178.67" y="165.97" class="black" >G</text></g>
<g><title>59 (position.label in template: 59.A)</title><text x="172.72" y="170.04" class="black" >A</text></g>
<g><title>60 (position.label in template: 60.A)</title><text x="165.18" y="169.42" class="black" >A</text></g>
<g><title>61 (position.label in template: 61.U)</title><text x="159.35" y="164.37" class="green" >T</text></g>
<g><title>62 (position.label in template: 62.C)</title><text x="157.92" y="156.94" class="black" >C</text></g>
<g><title>63 (position.label in template: 63.C)</title><text x="152.04" y="152.2" class="black" >C</text></g>
<g><title>64 (position.label in template: 64.C)</title><text x="146.15" y="147.46" class="black" >C</text></g>
<g><title>65 (position.label in template: 65.C)</title><text x="140.26" y="142.71" class="black" >C</text></g>
<g><title>66 (position.label in template: 66.U)</title><text x="134.38" y="137.97" class="green" >T</text></g>
<g><title>67 (position.label in template: 67.C)</title><text x="127.56" y="141.23" class="black" >C</text></g>
<g><title>68 (position.label in template: 68.G)</title><text x="127.35" y="148.79" class="black" >G</text></g>
<g><title>69 (position.label in template: 69.G)</title><text x="127.35" y="156.35" class="black" >G</text></g>
<g><title>70 (position.label in template: 70.G)</title><text x="127.35" y="163.91" class="black" >G</text></g>
<g><title>71 (position.label in template: 71.U)</title><text x="127.56" y="171.47" class="green" >T</text></g>
<g><title>72 (position.label in template: 72.C)</title><text x="127.56" y="179.03" class="black" >C</text></g>
<g><title>73 (position.label in template: 73.C)</title><text x="127.56" y="186.59" class="black" >C</text></g>
<g><title>74 (position.label in template: 74.A)</title><text x="132.996" y="191.83" class="black" >A</text></g>
<g><title>75 (position.label in template: 75.3')</title><text x="127.768" y="197.279" class="green" >3'</text></g>
<g><line x1="115.11" y1="191.791" x2="115.11" y2="188.327" class="gray" /></g>
<g><line x1="115.11" y1="184.24" x2="115.11" y2="180.767" class="gray" /></g>
<g><line x1="115.11" y1="176.68" x2="115.11" y2="173.207" class="gray" /></g>
<g><line x1="115.167" y1="169.121" x2="115.263" y2="165.646" class="gray" /></g>
<g><line x1="115.32" y1="161.56" x2="115.32" y2="158.087" class="gray" /></g>
<g><line x1="115.32" y1="154" x2="115.32" y2="150.527" class="gray" /></g>
<g><line x1="115.263" y1="146.441" x2="115.167" y2="142.966" class="gray" /></g>
<g><line x1="113.277" y1="140.02" x2="110.333" y2="138.567" class="gray" /></g>
<g><line x1="107.084" y1="136.19" x2="104.776" y2="133.787" class="gray" /></g>
<g><line x1="102.39" y1="130.515" x2="100.65" y2="127.292" class="gray" /></g>
<g><line x1="97.6367" y1="125.494" x2="94.3733" y2="125.494" class="gray" /></g>
<g><line x1="90.2867" y1="125.494" x2="86.6033" y2="125.494" class="gray" /></g>
<g><line x1="82.5167" y1="125.494" x2="79.2533" y2="125.494" class="gray" /></g>
<g><line x1="75.9033" y1="127.064" x2="73.7667" y2="129.633" class="gray" /></g>
<g><line x1="70.5079" y1="131.807" x2="66.8121" y2="132.95" class="gray" /></g>
<g><line x1="62.87" y1="133.09" x2="59.68" y2="132.347" class="gray" /></g>
<g><line x1="56.2118" y1="130.473" x2="53.6982" y2="128.074" class="gray" /></g>
<g><line x1="51.6248" y1="124.709" x2="50.5952" y2="121.328" class="gray" /></g>
<g><line x1="50.5438" y1="117.404" x2="51.4662" y2="114.063" class="gray" /></g>
<g><line x1="53.5145" y1="110.711" x2="56.1855" y2="108.256" class="gray" /></g>
<g><line x1="59.6829" y1="106.423" x2="63.0771" y2="105.654" class="gray" /></g>
<g><line x1="67.0172" y1="105.823" x2="70.5128" y2="106.934" class="gray" /></g>
<g><line x1="73.733" y1="109.152" x2="75.727" y2="111.655" class="gray" /></g>
<g><line x1="79.0433" y1="113.254" x2="82.7267" y2="113.254" class="gray" /></g>
<g><line x1="86.8133" y1="113.254" x2="90.0767" y2="113.254" class="gray" /></g>
<g><line x1="94.1633" y1="113.254" x2="97.8467" y2="113.254" class="gray" /></g>
<g><line x1="100.725" y1="111.389" x2="102.105" y2="108.308" class="gray" /></g>
<g><line x1="104.412" y1="105.027" x2="107.028" y2="102.51" class="gray" /></g>
<g><line x1="107.819" y1="99.167" x2="106.661" y2="95.89" class="gray" /></g>
<g><line x1="105.302" y1="92.0361" x2="104.148" y2="88.7609" class="gray" /></g>
<g><line x1="102.739" y1="84.9253" x2="101.471" y2="81.6117" class="gray" /></g>
<g><line x1="100.113" y1="77.7589" x2="99.0673" y2="74.5181" class="gray" /></g>
<g><line x1="96.6901" y1="71.5186" x2="93.8699" y2="69.8184" class="gray" /></g>
<g><line x1="91.2916" y1="66.8957" x2="89.8484" y2="63.6414" class="gray" /></g>
<g><line x1="89.4854" y1="59.7839" x2="90.2646" y2="56.4531" class="gray" /></g>
<g><line x1="92.3397" y1="53.2049" x2="95.0803" y2="51.0621" class="gray" /></g>
<g><line x1="98.7331" y1="49.7746" x2="102.417" y2="49.7224" class="gray" /></g>
<g><line x1="106.123" y1="50.8806" x2="109.087" y2="52.9964" class="gray" /></g>
<g><line x1="111.272" y1="56.1589" x2="112.148" y2="59.4681" class="gray" /></g>
<g><line x1="111.993" y1="63.3713" x2="110.867" y2="66.5757" class="gray" /></g>
<g><line x1="110.82" y1="70.4473" x2="111.87" y2="73.6897" class="gray" /></g>
<g><line x1="113.228" y1="77.5426" x2="114.492" y2="80.8544" class="gray" /></g>
<g><line x1="115.797" y1="84.7236" x2="116.743" y2="87.9335" class="gray" /></g>
<g><line x1="118.097" y1="91.7834" x2="119.473" y2="95.1336" class="gray" /></g>
<g><line x1="122.282" y1="97.2426" x2="125.728" y2="97.6144" class="gray" /></g>
<g><line x1="129.581" y1="98.7598" x2="132.349" y2="100.167" class="gray" /></g>
<g><line x1="135.613" y1="102.54" x2="138.067" y2="104.997" class="gray" /></g>
<g><line x1="140.44" y1="108.263" x2="142.06" y2="111.434" class="gray" /></g>
<g><line x1="143.206" y1="115.285" x2="143.574" y2="118.742" class="gray" /></g>
<g><line x1="143.374" y1="122.774" x2="142.676" y2="126.133" class="gray" /></g>
<g><line x1="143.804" y1="129.472" x2="146.186" y2="131.535" class="gray" /></g>
<g><line x1="149.321" y1="134.156" x2="152.029" y2="136.341" class="gray" /></g>
<g><line x1="155.212" y1="138.905" x2="157.918" y2="141.082" class="gray" /></g>
<g><line x1="161.101" y1="143.646" x2="163.799" y2="145.821" class="gray" /></g>
<g><line x1="167.433" y1="147.054" x2="171.117" y2="146.963" class="gray" /></g>
<g><line x1="174.816" y1="148.11" x2="177.634" y2="150.147" class="gray" /></g>
<g><line x1="179.887" y1="153.298" x2="180.903" y2="156.619" class="gray" /></g>
<g><line x1="180.743" y1="160.471" x2="179.427" y2="163.766" class="gray" /></g>
<g><line x1="176.984" y1="166.817" x2="174.406" y2="168.58" class="gray" /></g>
<g><line x1="170.684" y1="169.566" x2="167.216" y2="169.281" class="gray" /></g>
<g><line x1="163.636" y1="167.776" x2="160.894" y2="165.401" class="gray" /></g>
<g><line x1="158.964" y1="162.057" x2="158.306" y2="158.64" class="gray" /></g>
<g><line x1="156.329" y1="155.351" x2="153.631" y2="153.176" class="gray" /></g>
<g><line x1="150.448" y1="150.612" x2="147.742" y2="148.435" class="gray" /></g>
<g><line x1="144.559" y1="145.871" x2="141.851" y2="143.686" class="gray" /></g>
<g><line x1="138.669" y1="141.121" x2="135.971" y2="138.946" class="gray" /></g>
<g><line x1="132.536" y1="138.545" x2="129.404" y2="140.042" class="gray" /></g>
<g><line x1="127.503" y1="142.966" x2="127.407" y2="146.441" class="gray" /></g>
<g><line x1="127.35" y1="150.527" x2="127.35" y2="154" class="gray" /></g>
<g><line x1="127.35" y1="158.087" x2="127.35" y2="161.56" class="gray" /></g>
<g><line x1="127.407" y1="165.646" x2="127.503" y2="169.121" class="gray" /></g>
<g><line x1="127.56" y1="173.207" x2="127.56" y2="176.68" class="gray" /></g>
<g><line x1="127.56" y1="180.767" x2="127.56" y2="184.24" class="gray" /></g>
<g><line x1="129.031" y1="187.702" x2="131.525" y2="190.106" class="gray" /></g>
<g><line x1="131.582" y1="192.998" x2="129.183" y2="195.498" class="gray" /></g>
</svg>
