<svg
	xmlns="http://www.w3.org/2000/svg"
	width="228.44"
	height="241.837">
<g><style type="text/css" >
<!-- create color definitions -->
<![CDATA[
circle.red {stroke: rgb(255, 0, 255); fill: none; }
circle.green {stroke: rgb(0, 255, 0); fill: none; }
circle.blue {stroke: rgb(0, 0, 255); fill: none; }
circle.black {stroke: rgb(0, 0, 0); fill: none; }
circle.gray {stroke: rgb(204, 204, 204); fill: none; }
circle.brown {stroke: rgb(211.65, 104.55, 30.6); fill: none; }
line.red {stroke: rgb(255, 0, 255); stroke-width: 0.382313; }
line.green {stroke: rgb(0, 255, 0); stroke-width: 0.382313; }
line.blue {stroke: rgb(0, 0, 255); stroke-width: 0.382313; }
line.black {stroke: rgb(0, 0, 0); stroke-width: 0.382313; }
line.gray {stroke: rgb(204, 204, 204); stroke-width: 0.382313; }
line.brown {stroke: rgb(211.65, 104.55, 30.6); stroke-width: 0.382313; }
line {stroke: rgb(0, 0, 0); }
text.red {fill: rgb(255, 0, 255); font-size: 3.058504px; font-weight: bold; font-family: Helvetica; }
text.green {fill: rgb(0, 255, 0); font-size: 3.058504px; font-weight: bold; font-family: Helvetica; }
text.blue {fill: rgb(0, 0, 255); font-size: 3.058504px; font-weight: bold; font-family: Helvetica; }
text.black {fill: rgb(0, 0, 0); font-size: 3.058504px; font-weight: bold; font-family: Helvetica; }
text.gray {fill: rgb(204, 204, 204); font-size: 3.058504px; font-weight: bold; font-family: Helvetica; }
text.brown {fill: rgb(211.65, 104.55, 30.6); font-size: 3.058504px; font-weight: bold; font-family: Helvetica; }
text {fill: rgb(0, 0, 0); font-size: 3.058504px; font-weight: bold; font-family: Helvetica; text-anchor: middle; alignment-baseline: middle; }

.pseudoknot_connection{stroke-linecap: round; stroke-opacity: 0.2; stroke-width: 1.5; }
.pseudoknot_segment1{stroke-linecap: round; stroke-opacity: 0.4; stroke-width: 3.0585; }
.pseudoknot_segment2{stroke-linecap: round; stroke-opacity: 0.4; stroke-width: 3.0585; }
line.numbering-line{stroke: rgb(204, 204, 204); stroke-width: 0.191157; }
line.predicted{stroke: rgb(0, 0, 0); stroke-dasharray: 2; }
polyline{fill: none; stroke-linejoin: round; }
template{visibility: hidden; }
text.numbering-label{fill: rgb(204, 204, 204); }
]]>
</style></g>
<g><title>0 (position.label in template: 0.5')</title><text x="112.05" y="194.151" class="green" >5'</text></g>
<g><title>1 (position.label in template: 1.G)</title><text x="112.05" y="186.59" class="black" >G</text></g>
<g><line x1="114.089" y1="186.284" x2="122.461" y2="186.284" class="black" /></g>
<g><title>2 (position.label in template: 2.G)</title><text x="112.05" y="179.03" class="black" >G</text></g>
<g><line x1="114.089" y1="178.724" x2="122.461" y2="178.724" class="black" /></g>
<g><title>3 (position.label in template: 3.G)</title><text x="112.05" y="171.47" class="black" >G</text></g>
<g><line x1="114.089" y1="171.164" x2="122.461" y2="171.164" class="black" /></g>
<g><title>4 (position.label in template: 4.U)</title><text x="112.26" y="163.91" class="green" >T</text></g>
<g><line x1="114.299" y1="163.604" x2="122.251" y2="163.604" class="black" /></g>
<g><title>5 (position.label in template: 5.C)</title><text x="112.26" y="156.35" class="black" >C</text></g>
<g><line x1="114.299" y1="156.044" x2="122.251" y2="156.044" class="black" /></g>
<g><title>6 (position.label in template: 6.C)</title><text x="112.26" y="148.79" class="black" >C</text></g>
<g><line x1="114.299" y1="148.484" x2="122.251" y2="148.484" class="black" /></g>
<g><title>7 (position.label in template: 7.U)</title><text x="112.26" y="141.23" class="green" >T</text></g>
<g><line x1="114.299" y1="140.924" x2="122.671" y2="140.924" class="black" /></g>
<g><title>8 (position.label in template: 8.U)</title><text x="105.44" y="137.97" class="green" >T</text></g>
<g><title>9 (position.label in template: 9.A)</title><text x="100.3" y="132.62" class="black" >A</text></g>
<g><title>10 (position.label in template: 10.G)</title><text x="96.62" y="125.8" class="black" >G</text></g>
<g><line x1="96.655" y1="123.455" x2="96.795" y2="115.293" class="black" /></g>
<g><text x="93.0009" y="131.653" class="numbering-label sequential" >10</text></g>
<g><line x1="95.6549" y1="127.361" x2="93.9465" y2="130.124" class="numbering-line sequential" /></g>
<g><title>11 (position.label in template: 11.U)</title><text x="89.27" y="125.8" class="green" >T</text></g>
<g><line x1="89.305" y1="123.455" x2="89.445" y2="115.293" class="black" /></g>
<g><title>12 (position.label in template: 12.U)</title><text x="81.71" y="125.8" class="green" >T</text></g>
<g><line x1="81.745" y1="123.455" x2="81.885" y2="115.293" class="black" /></g>
<g><title>13 (position.label in template: 13.C)</title><text x="74.15" y="125.8" class="black" >C</text></g>
<g><line x1="74.115" y1="123.455" x2="73.975" y2="115.293" class="black" /></g>
<g><title>14 (position.label in template: 14.A)</title><text x="69.02" y="131.16" class="black" >A</text></g>
<g><title>15 (position.label in template: 15.G)</title><text x="61.19" y="132.64" class="black" >G</text></g>
<g><title>16 (position.label in template: 16.U)</title><text x="54.41" y="129.75" class="green" >T</text></g>
<g><title>17 (position.label in template: 17.G)</title><text x="50" y="123.46" class="black" >G</text></g>
<g><title>18 (position.label in template: 18.G)</title><text x="50" y="115.9" class="black" >G</text></g>
<g><title>19 (position.label in template: 19.U)</title><text x="54.41" y="109.62" class="green" >T</text></g>
<g><title>20 (position.label in template: 20.U)</title><text x="61.4" y="106.73" class="green" >T</text></g>
<g><text x="60.7389" y="99.8802" class="numbering-label sequential" >20</text></g>
<g><line x1="61.2237" y1="104.903" x2="60.8865" y2="101.409" class="numbering-line sequential" /></g>
<g><title>21 (position.label in template: 21.A)</title><text x="69.02" y="108.21" class="black" >A</text></g>
<g><title>22 (position.label in template: 22.G)</title><text x="73.94" y="113.56" class="black" >G</text></g>
<g><title>23 (position.label in template: 23.A)</title><text x="81.92" y="113.56" class="green" >A</text></g>
<g><title>24 (position.label in template: 24.A)</title><text x="89.48" y="113.56" class="green" >A</text></g>
<g><title>25 (position.label in template: 25.C)</title><text x="96.83" y="113.56" class="black" >C</text></g>
<g><title>26 (position.label in template: 26.C)</title><text x="100.09" y="106.75" class="black" >C</text></g>
<g><title>27 (position.label in template: 27.C)</title><text x="105.44" y="101.4" class="black" >C</text></g>
<g><line x1="107.359" y1="100.405" x2="114.851" y2="97.7135" class="black" /></g>
<g><title>28 (position.label in template: 28.U)</title><text x="102.92" y="94.27" class="green" >T</text></g>
<g><line x1="104.847" y1="93.2968" x2="112.743" y2="90.5615" class="black" /></g>
<g><title>29 (position.label in template: 29.C)</title><text x="100.41" y="87.14" class="black" >C</text></g>
<g><line x1="102.329" y1="86.1448" x2="109.821" y2="83.4535" class="black" /></g>
<g><title>30 (position.label in template: 30.C)</title><text x="97.9" y="80.01" class="black" >C</text></g>
<g><line x1="99.8189" y1="79.0148" x2="107.311" y2="76.3235" class="black" /></g>
<g><text x="91.4407" y="82.3836" class="numbering-label sequential" >30</text></g>
<g><line x1="96.1775" y1="80.6429" x2="93.2758" y2="81.7092" class="numbering-line sequential" /></g>
<g><title>31 (position.label in template: 31.G)</title><text x="95.17" y="72.88" class="black" >G</text></g>
<g><line x1="97.0967" y1="71.9068" x2="104.993" y2="69.1715" class="black" /></g>
<g><title>32 (position.label in template: 32.C)</title><text x="88.85" y="69.07" class="black" >C</text></g>
<g><title>33 (position.label in template: 33.U)</title><text x="85.96" y="62.08" class="green" >T</text></g>
<g><title>34 (position.label in template: 34.C)</title><text x="87.88" y="54.77" class="black" >C</text></g>
<g><title>35 (position.label in template: 35.A)</title><text x="94.04" y="50.11" class="black" >A</text></g>
<g><title>36 (position.label in template: 36.U)</title><text x="101.4" y="50" class="green" >T</text></g>
<g><title>37 (position.label in template: 37.A)</title><text x="107.69" y="54.49" class="black" >A</text></g>
<g><title>38 (position.label in template: 38.A)</title><text x="109.82" y="61.75" class="black" >A</text></g>
<g><title>39 (position.label in template: 39.C)</title><text x="106.92" y="68.81" class="black" >C</text></g>
<g><title>40 (position.label in template: 40.G)</title><text x="109.23" y="75.94" class="black" >G</text></g>
<g><title>41 (position.label in template: 41.G)</title><text x="111.74" y="83.07" class="black" >G</text></g>
<g><title>42 (position.label in template: 42.A)</title><text x="114.67" y="90.2" class="green" >A</text></g>
<g><title>43 (position.label in template: 43.G)</title><text x="116.77" y="97.33" class="black" >G</text></g>
<g><title>44 (position.label in template: 44.C)</title><text x="124.5" y="98.14" class="black" >C</text></g>
<g><title>45 (position.label in template: 45.U)</title><text x="131.32" y="101.4" class="green" >T</text></g>
<g><title>46 (position.label in template: 46.G)</title><text x="136.45" y="106.75" class="black" >G</text></g>
<g><title>47 (position.label in template: 47.U)</title><text x="139.93" y="113.56" class="green" >T</text></g>
<g><title>48 (position.label in template: 48.C)</title><text x="140.74" y="121.08" class="black" >C</text></g>
<g><title>49 (position.label in template: 49.G)</title><text x="138.79" y="128.44" class="black" >G</text></g>
<g><line x1="137.532" y1="129.739" x2="132.578" y2="136.059" class="black" /></g>
<g><title>50 (position.label in template: 50.C)</title><text x="144.89" y="133.18" class="black" >C</text></g>
<g><line x1="143.59" y1="134.445" x2="138.3" y2="140.834" class="black" /></g>
<g><text x="149.117" y="127.75" class="numbering-label sequential" >50</text></g>
<g><line x1="146.017" y1="131.732" x2="147.927" y2="129.279" class="numbering-line sequential" /></g>
<g><title>51 (position.label in template: 51.A)</title><text x="150.98" y="137.93" class="green" >A</text></g>
<g><line x1="149.68" y1="139.195" x2="144.39" y2="145.584" class="black" /></g>
<g><title>52 (position.label in template: 52.G)</title><text x="156.45" y="142.67" class="black" >G</text></g>
<g><line x1="155.192" y1="143.969" x2="150.238" y2="150.289" class="black" /></g>
<g><title>53 (position.label in template: 53.G)</title><text x="162.34" y="147.41" class="black" >G</text></g>
<g><line x1="161.082" y1="148.709" x2="156.128" y2="155.029" class="black" /></g>
<g><title>54 (position.label in template: 54.U)</title><text x="170.1" y="147.22" class="green" >T</text></g>
<g><title>55 (position.label in template: 55.U)</title><text x="176.24" y="151.65" class="green" >T</text></g>
<g><title>56 (position.label in template: 56.C)</title><text x="178.44" y="158.88" class="black" >C</text></g>
<g><title>57 (position.label in template: 57.A)</title><text x="176.03" y="165.97" class="black" >A</text></g>
<g><title>58 (position.label in template: 58.A)</title><text x="169.66" y="170.04" class="black" >A</text></g>
<g><title>59 (position.label in template: 59.A)</title><text x="162.12" y="169.42" class="black" >A</text></g>
<g><title>60 (position.label in template: 60.U)</title><text x="156.29" y="164.37" class="green" >T</text></g>
<g><title>61 (position.label in template: 61.C)</title><text x="154.87" y="156.94" class="black" >C</text></g>
<g><title>62 (position.label in template: 62.C)</title><text x="148.98" y="152.2" class="black" >C</text></g>
<g><title>63 (position.label in template: 63.U)</title><text x="143.09" y="147.46" class="green" >T</text></g>
<g><title>64 (position.label in template: 64.G)</title><text x="137" y="142.71" class="black" >G</text></g>
<g><title>65 (position.label in template: 65.C)</title><text x="131.32" y="137.97" class="black" >C</text></g>
<g><title>66 (position.label in template: 66.A)</title><text x="124.71" y="141.23" class="green" >A</text></g>
<g><title>67 (position.label in template: 67.G)</title><text x="124.29" y="148.79" class="black" >G</text></g>
<g><title>68 (position.label in template: 68.G)</title><text x="124.29" y="156.35" class="black" >G</text></g>
<g><title>69 (position.label in template: 69.G)</title><text x="124.29" y="163.91" class="green" >G</text></g>
<g><title>70 (position.label in template: 70.C)</title><text x="124.5" y="171.47" class="black" >C</text></g>
<g><title>71 (position.label in template: 71.C)</title><text x="124.5" y="179.03" class="black" >C</text></g>
<g><title>72 (position.label in template: 72.C)</title><text x="124.5" y="186.59" class="black" >C</text></g>
<g><title>73 (position.label in template: 73.A)</title><text x="129.943" y="191.837" class="black" >A</text></g>
<g><title>74 (position.label in template: 74.3')</title><text x="124.71" y="197.294" class="green" >3'</text></g>
<g><line x1="112.05" y1="191.806" x2="112.05" y2="188.323" class="gray" /></g>
<g><line x1="112.05" y1="184.245" x2="112.05" y2="180.763" class="gray" /></g>
<g><line x1="112.05" y1="176.685" x2="112.05" y2="173.203" class="gray" /></g>
<g><line x1="112.107" y1="169.126" x2="112.203" y2="165.642" class="gray" /></g>
<g><line x1="112.26" y1="161.565" x2="112.26" y2="158.083" class="gray" /></g>
<g><line x1="112.26" y1="154.005" x2="112.26" y2="150.523" class="gray" /></g>
<g><line x1="112.26" y1="146.445" x2="112.26" y2="142.963" class="gray" /></g>
<g><line x1="110.42" y1="140.045" x2="107.28" y2="138.544" class="gray" /></g>
<g><line x1="104.027" y1="136.194" x2="101.713" y2="133.785" class="gray" /></g>
<g><line x1="99.3317" y1="130.52" x2="97.5883" y2="127.289" class="gray" /></g>
<g><line x1="94.581" y1="125.494" x2="91.309" y2="125.494" class="gray" /></g>
<g><line x1="87.231" y1="125.494" x2="83.749" y2="125.494" class="gray" /></g>
<g><line x1="79.671" y1="125.494" x2="76.189" y2="125.494" class="gray" /></g>
<g><line x1="72.7402" y1="126.967" x2="70.4298" y2="129.381" class="gray" /></g>
<g><line x1="67.0165" y1="131.233" x2="63.1935" y2="131.955" class="gray" /></g>
<g><line x1="59.3143" y1="131.535" x2="56.2857" y2="130.244" class="gray" /></g>
<g><line x1="53.2395" y1="127.775" x2="51.1705" y2="124.824" class="gray" /></g>
<g><line x1="50" y1="121.115" x2="50" y2="117.633" class="gray" /></g>
<g><line x1="51.1718" y1="113.925" x2="53.2382" y2="110.983" class="gray" /></g>
<g><line x1="56.2943" y1="108.535" x2="59.5157" y2="107.203" class="gray" /></g>
<g><line x1="63.4016" y1="106.813" x2="67.0184" y2="107.515" class="gray" /></g>
<g><line x1="70.4002" y1="109.405" x2="72.5598" y2="111.753" class="gray" /></g>
<g><line x1="75.979" y1="113.254" x2="79.881" y2="113.254" class="gray" /></g>
<g><line x1="83.959" y1="113.254" x2="87.441" y2="113.254" class="gray" /></g>
<g><line x1="91.519" y1="113.254" x2="94.791" y2="113.254" class="gray" /></g>
<g><line x1="97.7104" y1="111.415" x2="99.2096" y2="108.283" class="gray" /></g>
<g><line x1="101.532" y1="105.002" x2="103.998" y2="102.536" class="gray" /></g>
<g><line x1="104.761" y1="99.1717" x2="103.599" y2="95.8866" class="gray" /></g>
<g><line x1="102.243" y1="92.0408" x2="101.087" y2="88.7575" class="gray" /></g>
<g><line x1="99.7329" y1="84.9108" x2="98.5771" y2="81.6275" class="gray" /></g>
<g><line x1="97.1709" y1="77.8" x2="95.8991" y2="74.4783" class="gray" /></g>
<g><line x1="93.4238" y1="71.5214" x2="90.5962" y2="69.8169" class="gray" /></g>
<g><line x1="88.0709" y1="66.8798" x2="86.7391" y2="63.6585" class="gray" /></g>
<g><line x1="86.478" y1="59.802" x2="87.362" y2="56.4363" class="gray" /></g>
<g><line x1="89.5061" y1="53.234" x2="92.4139" y2="51.0343" class="gray" /></g>
<g><line x1="96.0788" y1="49.7737" x2="99.3612" y2="49.7246" class="gray" /></g>
<g><line x1="103.06" y1="50.8788" x2="106.03" y2="52.9995" class="gray" /></g>
<g><line x1="108.264" y1="56.1407" x2="109.246" y2="59.4876" class="gray" /></g>
<g><line x1="109.045" y1="63.3302" x2="107.695" y2="66.6181" class="gray" /></g>
<g><line x1="107.548" y1="70.4439" x2="108.602" y2="73.6944" class="gray" /></g>
<g><line x1="109.907" y1="77.5575" x2="111.063" y2="80.8408" class="gray" /></g>
<g><line x1="112.515" y1="84.6501" x2="113.895" y2="88.0082" class="gray" /></g>
<g><line x1="115.246" y1="91.8501" x2="116.194" y2="95.0682" class="gray" /></g>
<g><line x1="118.798" y1="97.2366" x2="122.472" y2="97.6217" class="gray" /></g>
<g><line x1="126.34" y1="98.7135" x2="129.48" y2="100.215" class="gray" /></g>
<g><line x1="132.731" y1="102.566" x2="135.039" y2="104.972" class="gray" /></g>
<g><line x1="137.378" y1="108.26" x2="139.002" y2="111.438" class="gray" /></g>
<g><line x1="140.148" y1="115.281" x2="140.522" y2="118.747" class="gray" /></g>
<g><line x1="140.218" y1="122.745" x2="139.312" y2="126.163" class="gray" /></g>
<g><line x1="140.4" y1="129.385" x2="143.28" y2="131.623" class="gray" /></g>
<g><line x1="146.498" y1="134.128" x2="149.372" y2="136.37" class="gray" /></g>
<g><line x1="152.521" y1="138.959" x2="154.909" y2="141.029" class="gray" /></g>
<g><line x1="158.039" y1="143.643" x2="160.751" y2="145.826" class="gray" /></g>
<g><line x1="164.378" y1="147.054" x2="168.062" y2="146.964" class="gray" /></g>
<g><line x1="171.754" y1="148.107" x2="174.586" y2="150.151" class="gray" /></g>
<g><line x1="176.834" y1="153.295" x2="177.846" y2="156.623" class="gray" /></g>
<g><line x1="177.784" y1="160.505" x2="176.686" y2="163.734" class="gray" /></g>
<g><line x1="174.312" y1="166.762" x2="171.378" y2="168.636" class="gray" /></g>
<g><line x1="167.628" y1="169.567" x2="164.152" y2="169.281" class="gray" /></g>
<g><line x1="160.579" y1="167.779" x2="157.831" y2="165.399" class="gray" /></g>
<g><line x1="155.907" y1="162.061" x2="155.253" y2="158.637" class="gray" /></g>
<g><line x1="153.281" y1="155.356" x2="150.569" y2="153.173" class="gray" /></g>
<g><line x1="147.391" y1="150.616" x2="144.679" y2="148.433" class="gray" /></g>
<g><line x1="141.482" y1="145.9" x2="138.608" y2="143.658" class="gray" /></g>
<g><line x1="135.434" y1="141.098" x2="132.886" y2="138.971" class="gray" /></g>
<g><line x1="129.491" y1="138.566" x2="126.539" y2="140.022" class="gray" /></g>
<g><line x1="124.597" y1="142.96" x2="124.403" y2="146.448" class="gray" /></g>
<g><line x1="124.29" y1="150.523" x2="124.29" y2="154.005" class="gray" /></g>
<g><line x1="124.29" y1="158.083" x2="124.29" y2="161.565" class="gray" /></g>
<g><line x1="124.347" y1="165.642" x2="124.443" y2="169.126" class="gray" /></g>
<g><line x1="124.5" y1="173.203" x2="124.5" y2="176.685" class="gray" /></g>
<g><line x1="124.5" y1="180.763" x2="124.5" y2="184.245" class="gray" /></g>
<g><line x1="125.968" y1="187.699" x2="128.475" y2="190.116" class="gray" /></g>
<g><line x1="128.532" y1="193.003" x2="126.121" y2="195.516" class="gray" /></g>
</svg>
