<svg
	xmlns="http://www.w3.org/2000/svg"
	width="223.52"
	height="241.926">
<g><style type="text/css" >
<!-- create color definitions -->
<![CDATA[
circle.red {stroke: rgb(255, 0, 255); fill: none; }
circle.green {stroke: rgb(0, 255, 0); fill: none; }
circle.blue {stroke: rgb(0, 0, 255); fill: none; }
circle.black {stroke: rgb(0, 0, 0); fill: none; }
circle.gray {stroke: rgb(204, 204, 204); fill: none; }
circle.brown {stroke: rgb(211.65, 104.55, 30.6); fill: none; }
line.red {stroke: rgb(255, 0, 255); stroke-width: 0.383151; }
line.green {stroke: rgb(0, 255, 0); stroke-width: 0.383151; }
line.blue {stroke: rgb(0, 0, 255); stroke-width: 0.383151; }
line.black {stroke: rgb(0, 0, 0); stroke-width: 0.383151; }
line.gray {stroke: rgb(204, 204, 204); stroke-width: 0.383151; }
line.brown {stroke: rgb(211.65, 104.55, 30.6); stroke-width: 0.383151; }
line {stroke: rgb(0, 0, 0); }
text.red {fill: rgb(255, 0, 255); font-size: 3.065210px; font-weight: bold; font-family: Helvetica; }
text.green {fill: rgb(0, 255, 0); font-size: 3.065210px; font-weight: bold; font-family: Helvetica; }
text.blue {fill: rgb(0, 0, 255); font-size: 3.065210px; font-weight: bold; font-family: Helvetica; }
text.black {fill: rgb(0, 0, 0); font-size: 3.065210px; font-weight: bold; font-family: Helvetica; }
text.gray {fill: rgb(204, 204, 204); font-size: 3.065210px; font-weight: bold; font-family: Helvetica; }
text.brown {fill: rgb(211.65, 104.55, 30.6); font-size: 3.065210px; font-weight: bold; font-family: Helvetica; }
text {fill: rgb(0, 0, 0); font-size: 3.065210px; font-weight: bold; font-family: Helvetica; text-anchor: middle; alignment-baseline: middle; }

.pseudoknot_connection{stroke-linecap: round; stroke-opacity: 0.2; stroke-width: 1.5; }
.pseudoknot_segment1{stroke-linecap: round; stroke-opacity: 0.4; stroke-width: 3.06521; }
.pseudoknot_segment2{stroke-linecap: round; stroke-opacity: 0.4; stroke-width: 3.06521; }
line.numbering-line{stroke: rgb(204, 204, 204); stroke-width: 0.191576; }
line.predicted{stroke: rgb(0, 0, 0); stroke-dasharray: 2; }
polyline{fill: none; stroke-linejoin: round; }
template{visibility: hidden; }
text.numbering-label{fill: rgb(204, 204, 204); }
]]>
</style></g>
<g><title>0 (position.label in template: 0.5')</title><text x="107.13" y="194.136" class="green" >5'</text></g>
<g><title>1 (position.label in template: 1.G)</title><text x="107.13" y="186.59" class="black" >G</text></g>
<g><line x1="109.173" y1="186.283" x2="117.537" y2="186.283" class="black" /></g>
<g><title>2 (position.label in template: 2.G)</title><text x="107.13" y="179.03" class="black" >G</text></g>
<g><line x1="109.173" y1="178.723" x2="117.537" y2="178.723" class="black" /></g>
<g><title>3 (position.label in template: 3.U)</title><text x="107.34" y="171.47" class="green" >T</text></g>
<g><line x1="109.383" y1="171.163" x2="117.747" y2="171.163" class="black" /></g>
<g><title>4 (position.label in template: 4.A)</title><text x="107.55" y="163.91" class="green" >A</text></g>
<g><line x1="109.593" y1="163.603" x2="117.537" y2="163.603" class="black" /></g>
<g><title>5 (position.label in template: 5.C)</title><text x="107.34" y="156.35" class="black" >C</text></g>
<g><line x1="109.383" y1="156.043" x2="117.327" y2="156.043" class="black" /></g>
<g><title>6 (position.label in template: 6.C)</title><text x="107.34" y="148.79" class="black" >C</text></g>
<g><line x1="109.383" y1="148.483" x2="117.327" y2="148.483" class="black" /></g>
<g><title>7 (position.label in template: 7.G)</title><text x="107.13" y="141.23" class="black" >G</text></g>
<g><line x1="109.173" y1="140.923" x2="117.537" y2="140.923" class="black" /></g>
<g><title>8 (position.label in template: 8.U)</title><text x="100.52" y="137.97" class="green" >T</text></g>
<g><title>9 (position.label in template: 9.A)</title><text x="95.38" y="132.62" class="black" >A</text></g>
<g><title>10 (position.label in template: 10.G)</title><text x="91.7" y="125.8" class="black" >G</text></g>
<g><line x1="91.7351" y1="123.45" x2="91.8749" y2="115.297" class="black" /></g>
<g><text x="88.073" y="131.666" class="numbering-label sequential" >10</text></g>
<g><line x1="90.7328" y1="127.364" x2="89.0206" y2="130.133" class="numbering-line sequential" /></g>
<g><title>11 (position.label in template: 11.C)</title><text x="84.35" y="125.8" class="black" >C</text></g>
<g><line x1="84.3149" y1="123.45" x2="84.1751" y2="115.297" class="black" /></g>
<g><title>12 (position.label in template: 12.C)</title><text x="76.79" y="125.8" class="black" >C</text></g>
<g><line x1="76.7549" y1="123.45" x2="76.6151" y2="115.297" class="black" /></g>
<g><title>13 (position.label in template: 13.A)</title><text x="72.04" y="131.51" class="black" >A</text></g>
<g><title>14 (position.label in template: 14.A)</title><text x="64.86" y="133.86" class="black" >A</text></g>
<g><title>15 (position.label in template: 15.G)</title><text x="57.07" y="132.19" class="black" >G</text></g>
<g><title>16 (position.label in template: 16.C)</title><text x="51.81" y="126.97" class="black" >C</text></g>
<g><title>17 (position.label in template: 17.A)</title><text x="50" y="119.68" class="black" >A</text></g>
<g><title>18 (position.label in template: 18.G)</title><text x="51.6" y="112.4" class="black" >G</text></g>
<g><title>19 (position.label in template: 19.U)</title><text x="57.28" y="107.18" class="green" >T</text></g>
<g><title>20 (position.label in template: 20.A)</title><text x="64.86" y="105.51" class="black" >A</text></g>
<g><text x="65.1774" y="98.6206" class="numbering-label sequential" >20</text></g>
<g><line x1="64.9446" y1="103.673" x2="65.1068" y2="100.153" class="numbering-line sequential" /></g>
<g><title>21 (position.label in template: 21.A)</title><text x="72.04" y="107.86" class="black" >A</text></g>
<g><title>22 (position.label in template: 22.G)</title><text x="76.58" y="113.56" class="black" >G</text></g>
<g><title>23 (position.label in template: 23.G)</title><text x="84.14" y="113.56" class="black" >G</text></g>
<g><title>24 (position.label in template: 24.C)</title><text x="91.91" y="113.56" class="black" >C</text></g>
<g><title>25 (position.label in template: 25.A)</title><text x="95.38" y="106.75" class="black" >A</text></g>
<g><title>26 (position.label in template: 26.G)</title><text x="100.31" y="101.4" class="black" >G</text></g>
<g><line x1="102.241" y1="100.425" x2="110.129" y2="97.6923" class="black" /></g>
<g><title>27 (position.label in template: 27.A)</title><text x="98.21" y="94.27" class="green" >A</text></g>
<g><line x1="100.133" y1="93.2732" x2="107.627" y2="90.5838" class="black" /></g>
<g><title>28 (position.label in template: 28.G)</title><text x="95.28" y="87.14" class="black" >G</text></g>
<g><line x1="97.2109" y1="86.1646" x2="105.099" y2="83.4323" class="black" /></g>
<g><title>29 (position.label in template: 29.G)</title><text x="92.77" y="80.01" class="black" >G</text></g>
<g><line x1="94.7009" y1="79.0346" x2="102.589" y2="76.3023" class="black" /></g>
<g><title>30 (position.label in template: 30.U)</title><text x="90.46" y="72.88" class="green" >T</text></g>
<g><line x1="92.3909" y1="71.9046" x2="100.279" y2="69.1723" class="black" /></g>
<g><text x="85.0957" y="77.2146" class="numbering-label sequential" >30</text></g>
<g><line x1="89.0295" y1="74.0359" x2="86.9924" y2="75.682" class="numbering-line sequential" /></g>
<g><title>31 (position.label in template: 31.C)</title><text x="83.93" y="69.07" class="black" >C</text></g>
<g><title>32 (position.label in template: 32.U)</title><text x="81.04" y="62.08" class="green" >T</text></g>
<g><title>33 (position.label in template: 33.G)</title><text x="82.76" y="54.77" class="black" >G</text></g>
<g><title>34 (position.label in template: 34.C)</title><text x="88.92" y="50.11" class="black" >C</text></g>
<g><title>35 (position.label in template: 35.A)</title><text x="96.69" y="50" class="black" >A</text></g>
<g><title>36 (position.label in template: 36.A)</title><text x="102.77" y="54.49" class="black" >A</text></g>
<g><title>37 (position.label in template: 37.A)</title><text x="104.9" y="61.75" class="black" >A</text></g>
<g><title>38 (position.label in template: 38.A)</title><text x="102.21" y="68.81" class="green" >A</text></g>
<g><title>39 (position.label in template: 39.C)</title><text x="104.52" y="75.94" class="black" >C</text></g>
<g><title>40 (position.label in template: 40.C)</title><text x="107.03" y="83.07" class="black" >C</text></g>
<g><title>41 (position.label in template: 41.U)</title><text x="109.55" y="90.2" class="green" >T</text></g>
<g><title>42 (position.label in template: 42.C)</title><text x="112.06" y="97.33" class="black" >C</text></g>
<g><title>43 (position.label in template: 43.U)</title><text x="119.58" y="98.14" class="green" >T</text></g>
<g><title>44 (position.label in template: 44.A)</title><text x="126.61" y="101.4" class="black" >A</text></g>
<g><title>45 (position.label in template: 45.U)</title><text x="131.75" y="106.75" class="green" >T</text></g>
<g><title>46 (position.label in template: 46.G)</title><text x="134.8" y="113.56" class="black" >G</text></g>
<g><title>47 (position.label in template: 47.C)</title><text x="135.82" y="121.08" class="black" >C</text></g>
<g><title>48 (position.label in template: 48.A)</title><text x="134.29" y="128.44" class="green" >A</text></g>
<g><line x1="132.987" y1="129.708" x2="127.703" y2="136.089" class="black" /></g>
<g><title>49 (position.label in template: 49.U)</title><text x="139.97" y="133.18" class="green" >T</text></g>
<g><line x1="138.708" y1="134.481" x2="133.752" y2="140.796" class="black" /></g>
<g><title>50 (position.label in template: 50.G)</title><text x="145.64" y="137.93" class="black" >G</text></g>
<g><line x1="144.379" y1="139.232" x2="139.431" y2="145.545" class="black" /></g>
<g><text x="150.016" y="132.599" class="numbering-label sequential" >50</text></g>
<g><line x1="146.807" y1="136.509" x2="148.758" y2="134.132" class="numbering-line sequential" /></g>
<g><title>51 (position.label in template: 51.G)</title><text x="151.53" y="142.67" class="black" >G</text></g>
<g><line x1="150.269" y1="143.972" x2="145.321" y2="150.285" class="black" /></g>
<g><title>52 (position.label in template: 52.G)</title><text x="157.42" y="147.41" class="black" >G</text></g>
<g><line x1="156.159" y1="148.712" x2="151.211" y2="155.025" class="black" /></g>
<g><title>53 (position.label in template: 53.U)</title><text x="165.19" y="147.22" class="green" >T</text></g>
<g><title>54 (position.label in template: 54.G)</title><text x="171.11" y="151.65" class="black" >G</text></g>
<g><title>55 (position.label in template: 55.C)</title><text x="173.52" y="158.88" class="black" >C</text></g>
<g><title>56 (position.label in template: 56.A)</title><text x="171.11" y="165.97" class="black" >A</text></g>
<g><title>57 (position.label in template: 57.A)</title><text x="164.74" y="170.04" class="black" >A</text></g>
<g><title>58 (position.label in template: 58.U)</title><text x="157" y="169.42" class="green" >T</text></g>
<g><title>59 (position.label in template: 59.U)</title><text x="151.37" y="164.37" class="green" >T</text></g>
<g><title>60 (position.label in template: 60.C)</title><text x="149.95" y="156.94" class="black" >C</text></g>
<g><title>61 (position.label in template: 61.C)</title><text x="144.06" y="152.2" class="black" >C</text></g>
<g><title>62 (position.label in template: 62.C)</title><text x="138.17" y="147.46" class="black" >C</text></g>
<g><title>63 (position.label in template: 63.A)</title><text x="132.49" y="142.71" class="green" >A</text></g>
<g><title>64 (position.label in template: 64.U)</title><text x="126.4" y="137.97" class="green" >T</text></g>
<g><title>65 (position.label in template: 65.C)</title><text x="119.58" y="141.23" class="black" >C</text></g>
<g><title>66 (position.label in template: 66.G)</title><text x="119.37" y="148.79" class="black" >G</text></g>
<g><title>67 (position.label in template: 67.G)</title><text x="119.37" y="156.35" class="black" >G</text></g>
<g><title>68 (position.label in template: 68.U)</title><text x="119.58" y="163.91" class="green" >T</text></g>
<g><title>69 (position.label in template: 69.A)</title><text x="119.79" y="171.47" class="green" >A</text></g>
<g><title>70 (position.label in template: 70.C)</title><text x="119.58" y="179.03" class="black" >C</text></g>
<g><title>71 (position.label in template: 71.C)</title><text x="119.58" y="186.59" class="black" >C</text></g>
<g><title>72 (position.label in template: 72.U)</title><text x="124.916" y="191.926" class="green" >T</text></g>
<g><title>73 (position.label in template: 73.3')</title><text x="119.69" y="197.37" class="green" >3'</text></g>
<g><line x1="107.13" y1="191.786" x2="107.13" y2="188.327" class="gray" /></g>
<g><line x1="107.13" y1="184.24" x2="107.13" y2="180.767" class="gray" /></g>
<g><line x1="107.187" y1="176.681" x2="107.283" y2="173.206" class="gray" /></g>
<g><line x1="107.397" y1="169.121" x2="107.493" y2="165.646" class="gray" /></g>
<g><line x1="107.493" y1="161.561" x2="107.397" y2="158.086" class="gray" /></g>
<g><line x1="107.34" y1="154" x2="107.34" y2="150.527" class="gray" /></g>
<g><line x1="107.283" y1="146.441" x2="107.187" y2="142.966" class="gray" /></g>
<g><line x1="105.297" y1="140.02" x2="102.353" y2="138.567" class="gray" /></g>
<g><line x1="99.1043" y1="136.19" x2="96.7957" y2="133.787" class="gray" /></g>
<g><line x1="94.4096" y1="130.515" x2="92.6704" y2="127.292" class="gray" /></g>
<g><line x1="89.6565" y1="125.493" x2="86.3935" y2="125.493" class="gray" /></g>
<g><line x1="82.3065" y1="125.493" x2="78.8335" y2="125.493" class="gray" /></g>
<g><line x1="75.4832" y1="127.064" x2="73.3468" y2="129.633" class="gray" /></g>
<g><line x1="70.0979" y1="131.839" x2="66.8021" y2="132.918" class="gray" /></g>
<g><line x1="62.8619" y1="133.125" x2="59.0681" y2="132.312" class="gray" /></g>
<g><line x1="55.6195" y1="130.444" x2="53.2605" y2="128.103" class="gray" /></g>
<g><line x1="51.3176" y1="124.68" x2="50.4924" y2="121.357" class="gray" /></g>
<g><line x1="50.4386" y1="117.378" x2="51.1614" y2="114.089" class="gray" /></g>
<g><line x1="53.1046" y1="110.711" x2="55.7754" y2="108.256" class="gray" /></g>
<g><line x1="59.2756" y1="106.434" x2="62.8644" y2="105.643" class="gray" /></g>
<g><line x1="66.8021" y1="105.839" x2="70.0979" y2="106.918" class="gray" /></g>
<g><line x1="73.3131" y1="109.152" x2="75.3069" y2="111.655" class="gray" /></g>
<g><line x1="78.6235" y1="113.253" x2="82.0965" y2="113.253" class="gray" /></g>
<g><line x1="86.1835" y1="113.253" x2="89.8665" y2="113.253" class="gray" /></g>
<g><line x1="92.8377" y1="111.433" x2="94.4523" y2="108.264" class="gray" /></g>
<g><line x1="96.7648" y1="104.941" x2="98.9252" y2="102.596" class="gray" /></g>
<g><line x1="99.7327" y1="99.1333" x2="98.7873" y2="95.9237" class="gray" /></g>
<g><line x1="97.4333" y1="92.0734" x2="96.0567" y2="88.7236" class="gray" /></g>
<g><line x1="94.6014" y1="84.906" x2="93.4486" y2="81.631" class="gray" /></g>
<g><line x1="92.1402" y1="77.7595" x2="91.0898" y2="74.5175" class="gray" /></g>
<g><line x1="88.695" y1="71.5437" x2="85.695" y2="69.7933" class="gray" /></g>
<g><line x1="83.1492" y1="66.875" x2="81.8208" y2="63.6619" class="gray" /></g>
<g><line x1="81.508" y1="59.7843" x2="82.292" y2="56.4526" class="gray" /></g>
<g><line x1="84.3897" y1="53.2306" x2="87.2903" y2="51.0363" class="gray" /></g>
<g><line x1="90.9633" y1="49.7746" x2="94.6467" y2="49.7224" class="gray" /></g>
<g><line x1="98.3338" y1="50.9074" x2="101.126" y2="52.9695" class="gray" /></g>
<g><line x1="103.345" y1="56.1443" x2="104.325" y2="59.4827" class="gray" /></g>
<g><line x1="104.172" y1="63.353" x2="102.938" y2="66.5939" class="gray" /></g>
<g><line x1="102.84" y1="70.4475" x2="103.89" y2="73.6895" class="gray" /></g>
<g><line x1="105.199" y1="77.561" x2="106.351" y2="80.836" class="gray" /></g>
<g><line x1="107.711" y1="84.6902" x2="108.869" y2="87.9668" class="gray" /></g>
<g><line x1="110.229" y1="91.821" x2="111.381" y2="95.096" class="gray" /></g>
<g><line x1="114.092" y1="97.2423" x2="117.548" y2="97.6146" class="gray" /></g>
<g><line x1="121.434" y1="98.6932" x2="124.756" y2="100.234" class="gray" /></g>
<g><line x1="128.026" y1="102.567" x2="130.334" y2="104.97" class="gray" /></g>
<g><line x1="132.585" y1="108.308" x2="133.965" y2="111.389" class="gray" /></g>
<g><line x1="135.075" y1="115.278" x2="135.545" y2="118.749" class="gray" /></g>
<g><line x1="135.404" y1="122.774" x2="134.706" y2="126.133" class="gray" /></g>
<g><line x1="135.859" y1="129.443" x2="138.401" y2="131.564" class="gray" /></g>
<g><line x1="141.536" y1="134.186" x2="144.074" y2="136.311" class="gray" /></g>
<g><line x1="147.232" y1="138.905" x2="149.938" y2="141.082" class="gray" /></g>
<g><line x1="153.122" y1="143.645" x2="155.828" y2="145.822" class="gray" /></g>
<g><line x1="159.463" y1="147.054" x2="163.147" y2="146.963" class="gray" /></g>
<g><line x1="166.826" y1="148.138" x2="169.474" y2="150.119" class="gray" /></g>
<g><line x1="171.756" y1="153.282" x2="172.874" y2="156.635" class="gray" /></g>
<g><line x1="172.862" y1="160.508" x2="171.768" y2="163.729" class="gray" /></g>
<g><line x1="169.388" y1="166.764" x2="166.462" y2="168.633" class="gray" /></g>
<g><line x1="162.703" y1="169.57" x2="159.037" y2="169.277" class="gray" /></g>
<g><line x1="155.479" y1="167.749" x2="152.891" y2="165.428" class="gray" /></g>
<g><line x1="150.986" y1="162.056" x2="150.334" y2="158.641" class="gray" /></g>
<g><line x1="148.358" y1="155.352" x2="145.652" y2="153.175" class="gray" /></g>
<g><line x1="142.468" y1="150.612" x2="139.762" y2="148.435" class="gray" /></g>
<g><line x1="136.602" y1="145.843" x2="134.058" y2="143.714" class="gray" /></g>
<g><line x1="130.877" y1="141.148" x2="128.013" y2="138.919" class="gray" /></g>
<g><line x1="124.556" y1="138.545" x2="121.424" y2="140.042" class="gray" /></g>
<g><line x1="119.523" y1="142.966" x2="119.427" y2="146.441" class="gray" /></g>
<g><line x1="119.37" y1="150.527" x2="119.37" y2="154" class="gray" /></g>
<g><line x1="119.427" y1="158.086" x2="119.523" y2="161.561" class="gray" /></g>
<g><line x1="119.637" y1="165.646" x2="119.733" y2="169.121" class="gray" /></g>
<g><line x1="119.733" y1="173.206" x2="119.637" y2="176.681" class="gray" /></g>
<g><line x1="119.58" y1="180.767" x2="119.58" y2="184.24" class="gray" /></g>
<g><line x1="121.025" y1="187.728" x2="123.471" y2="190.175" class="gray" /></g>
<g><line x1="123.501" y1="193.094" x2="121.105" y2="195.589" class="gray" /></g>
</svg>
