<svg
	xmlns="http://www.w3.org/2000/svg"
	width="273.57"
	height="234.51">
<g><style type="text/css" >
<!-- create color definitions -->
<![CDATA[
circle.red {stroke: rgb(255, 0, 255); fill: none; }
circle.green {stroke: rgb(0, 255, 0); fill: none; }
circle.blue {stroke: rgb(0, 0, 255); fill: none; }
circle.black {stroke: rgb(0, 0, 0); fill: none; }
circle.gray {stroke: rgb(204, 204, 204); fill: none; }
circle.brown {stroke: rgb(211.65, 104.55, 30.6); fill: none; }
line.red {stroke: rgb(255, 0, 255); stroke-width: 0.382423; }
line.green {stroke: rgb(0, 255, 0); stroke-width: 0.382423; }
line.blue {stroke: rgb(0, 0, 255); stroke-width: 0.382423; }
line.black {stroke: rgb(0, 0, 0); stroke-width: 0.382423; }
line.gray {stroke: rgb(204, 204, 204); stroke-width: 0.382423; }
line.brown {stroke: rgb(211.65, 104.55, 30.6); stroke-width: 0.382423; }
line {stroke: rgb(0, 0, 0); }
text.red {fill: rgb(255, 0, 255); font-size: 3.059385px; font-weight: bold; font-family: Helvetica; }
text.green {fill: rgb(0, 255, 0); font-size: 3.059385px; font-weight: bold; font-family: Helvetica; }
text.blue {fill: rgb(0, 0, 255); font-size: 3.059385px; font-weight: bold; font-family: Helvetica; }
text.black {fill: rgb(0, 0, 0); font-size: 3.059385px; font-weight: bold; font-family: Helvetica; }
text.gray {fill: rgb(204, 204, 204); font-size: 3.059385px; font-weight: bold; font-family: Helvetica; }
text.brown {fill: rgb(211.65, 104.55, 30.6); font-size: 3.059385px; font-weight: bold; font-family: Helvetica; }
text {fill: rgb(0, 0, 0); font-size: 3.059385px; font-weight: bold; font-family: Helvetica; text-anchor: middle; alignment-baseline: middle; }

.pseudoknot_connection{stroke-linecap: round; stroke-opacity: 0.2; stroke-width: 1.5; }
.pseudoknot_segment1{stroke-linecap: round; stroke-opacity: 0.4; stroke-width: 3.05939; }
.pseudoknot_segment2{stroke-linecap: round; stroke-opacity: 0.4; stroke-width: 3.05939; }
line.numbering-line{stroke: rgb(204, 204, 204); stroke-width: 0.191212; }
line.predicted{stroke: rgb(0, 0, 0); stroke-dasharray: 2; }
polyline{fill: none; stroke-linejoin: round; }
template{visibility: hidden; }
text.numbering-label{fill: rgb(204, 204, 204); }
]]>
</style></g>
<g><title>0 (position.label in template: 0.5')</title><text x="79.3817" y="146.978" class="green" >5'</text></g>
<g><title>1 (position.label in template: 1.A)</title><text x="86.9366" y="146.978" class="black" >A</text></g>
<g><title>2 (position.label in template: 2.A)</title><text x="94.4914" y="146.978" class="black" >A</text></g>
<g><title>3 (position.label in template: 3.A)</title><text x="102.046" y="146.978" class="black" >A</text></g>
<g><title>4 (position.label in template: 4.G)</title><text x="109.601" y="146.978" class="black" >G</text></g>
<g><title>5 (position.label in template: 5.G)</title><text x="117.156" y="146.978" class="black" >G</text></g>
<g><title>6 (position.label in template: 6.U)</title><text x="122.6" y="141.74" class="green" >T</text></g>
<g><line x1="124.64" y1="141.434" x2="133.01" y2="141.434" class="black" /></g>
<g><title>7 (position.label in template: 7.U)</title><text x="122.6" y="134.18" class="green" >T</text></g>
<g><line x1="124.64" y1="133.874" x2="132.8" y2="133.874" class="black" /></g>
<g><title>8 (position.label in template: 8.U)</title><text x="122.6" y="126.62" class="green" >T</text></g>
<g><line x1="124.64" y1="126.314" x2="133.01" y2="126.314" class="black" /></g>
<g><title>9 (position.label in template: 9.C)</title><text x="122.6" y="119.06" class="black" >C</text></g>
<g><line x1="124.64" y1="118.754" x2="132.59" y2="118.754" class="black" /></g>
<g><title>10 (position.label in template: 10.C)</title><text x="122.6" y="111.5" class="black" >C</text></g>
<g><line x1="124.64" y1="111.194" x2="132.59" y2="111.194" class="black" /></g>
<g><text x="116.63" y="114.927" class="numbering-label sequential" >10</text></g>
<g><line x1="121.008" y1="112.414" x2="118.466" y2="113.873" class="numbering-line sequential" /></g>
<g><title>11 (position.label in template: 11.G)</title><text x="115.97" y="107.51" class="black" >G</text></g>
<g><line x1="115.096" y1="105.361" x2="111.634" y2="98.0667" class="black" /></g>
<g><title>12 (position.label in template: 12.C)</title><text x="109.4" y="110.86" class="black" >C</text></g>
<g><line x1="108.469" y1="108.739" x2="104.701" y2="101.389" class="black" /></g>
<g><title>13 (position.label in template: 13.G)</title><text x="102.42" y="114.21" class="black" >G</text></g>
<g><line x1="101.544" y1="112.062" x2="98.0764" y2="104.776" class="black" /></g>
<g><title>14 (position.label in template: 14.G)</title><text x="95.64" y="117.56" class="black" >G</text></g>
<g><line x1="94.765" y1="115.412" x2="91.305" y2="108.126" class="black" /></g>
<g><title>15 (position.label in template: 15.G)</title><text x="90.83" y="123.39" class="black" >G</text></g>
<g><title>16 (position.label in template: 16.A)</title><text x="83.69" y="123.67" class="black" >A</text></g>
<g><line x1="82.7587" y1="121.549" x2="78.9913" y2="114.209" class="black" /></g>
<g><title>17 (position.label in template: 17.G)</title><text x="82.25" y="131.16" class="black" >G</text></g>
<g><line x1="80.9044" y1="132.387" x2="75.6156" y2="138.411" class="black" /></g>
<g><title>18 (position.label in template: 18.C)</title><text x="88.07" y="136.22" class="black" >C</text></g>
<g><line x1="86.6858" y1="137.412" x2="81.0542" y2="143.506" class="black" /></g>
<g><title>19 (position.label in template: 19.C)</title><text x="93.69" y="141.28" class="black" >C</text></g>
<g><line x1="92.3058" y1="142.472" x2="86.6742" y2="148.566" class="black" /></g>
<g><title>20 (position.label in template: 20.G)</title><text x="99.1" y="146.33" class="black" >G</text></g>
<g><line x1="97.7553" y1="147.558" x2="92.4647" y2="153.591" class="black" /></g>
<g><text x="103.703" y="141.212" class="numbering-label sequential" >20</text></g>
<g><line x1="100.328" y1="144.965" x2="102.327" y2="142.742" class="numbering-line sequential" /></g>
<g><title>21 (position.label in template: 21.C)</title><text x="104.93" y="151.39" class="black" >C</text></g>
<g><line x1="103.547" y1="152.583" x2="97.9134" y2="158.685" class="black" /></g>
<g><title>22 (position.label in template: 22.A)</title><text x="112.42" y="149.37" class="black" >A</text></g>
<g><title>23 (position.label in template: 23.C)</title><text x="119.68" y="150.56" class="black" >C</text></g>
<g><title>24 (position.label in template: 24.G)</title><text x="125.76" y="154.75" class="black" >G</text></g>
<g><title>25 (position.label in template: 25.A)</title><text x="130.16" y="161.17" class="black" >A</text></g>
<g><title>26 (position.label in template: 26.A)</title><text x="131.1" y="168.67" class="black" >A</text></g>
<g><title>27 (position.label in template: 27.A)</title><text x="128.84" y="175.89" class="black" >A</text></g>
<g><title>28 (position.label in template: 28.C)</title><text x="123.58" y="181.51" class="black" >C</text></g>
<g><title>29 (position.label in template: 29.A)</title><text x="116.84" y="184.51" class="black" >A</text></g>
<g><title>30 (position.label in template: 30.G)</title><text x="108.87" y="184.35" class="black" >G</text></g>
<g><text x="107.31" y="191.054" class="numbering-label sequential" >30</text></g>
<g><line x1="108.454" y1="186.138" x2="107.666" y2="189.525" class="numbering-line sequential" /></g>
<g><title>31 (position.label in template: 31.G)</title><text x="102.06" y="181.07" class="black" >G</text></g>
<g><title>32 (position.label in template: 32.A)</title><text x="97.66" y="175.25" class="black" >A</text></g>
<g><title>33 (position.label in template: 33.U)</title><text x="95.49" y="167.95" class="green" >T</text></g>
<g><title>34 (position.label in template: 34.G)</title><text x="96.53" y="160.49" class="black" >G</text></g>
<g><title>35 (position.label in template: 35.C)</title><text x="91.12" y="155.43" class="black" >C</text></g>
<g><title>36 (position.label in template: 36.G)</title><text x="85.29" y="150.37" class="black" >G</text></g>
<g><title>37 (position.label in template: 37.G)</title><text x="79.67" y="145.31" class="black" >G</text></g>
<g><title>38 (position.label in template: 38.C)</title><text x="74.27" y="140.25" class="black" >C</text></g>
<g><title>39 (position.label in template: 39.U)</title><text x="66.92" y="142.06" class="green" >T</text></g>
<g><title>40 (position.label in template: 40.G)</title><text x="59.32" y="140.49" class="black" >G</text></g>
<g><title>41 (position.label in template: 41.A)</title><text x="53.77" y="135.85" class="black" >A</text></g>
<g><title>42 (position.label in template: 42.G)</title><text x="50" y="129.08" class="black" >G</text></g>
<g><title>43 (position.label in template: 43.A)</title><text x="50.36" y="121.52" class="black" >A</text></g>
<g><title>44 (position.label in template: 44.G)</title><text x="53.18" y="114.69" class="black" >G</text></g>
<g><title>45 (position.label in template: 45.G)</title><text x="59.08" y="109.95" class="black" >G</text></g>
<g><line x1="61.1133" y1="109.483" x2="69.4567" y2="108.825" class="black" /></g>
<g><title>46 (position.label in template: 46.C)</title><text x="58.68" y="102.42" class="black" >C</text></g>
<g><line x1="60.7127" y1="101.946" x2="68.6373" y2="101.292" class="black" /></g>
<g><title>47 (position.label in template: 47.A)</title><text x="58.28" y="94.88" class="black" >A</text></g>
<g><line x1="60.3128" y1="94.4079" x2="68.2372" y2="93.7602" class="black" /></g>
<g><title>48 (position.label in template: 48.U)</title><text x="57.46" y="87.35" class="green" >T</text></g>
<g><line x1="59.4929" y1="86.8791" x2="67.6271" y2="86.219" class="black" /></g>
<g><title>49 (position.label in template: 49.A)</title><text x="57.06" y="79.81" class="green" >A</text></g>
<g><line x1="59.0928" y1="79.3379" x2="67.0172" y2="78.6902" class="black" /></g>
<g><title>50 (position.label in template: 50.U)</title><text x="69.05" y="78.83" class="green" >T</text></g>
<g><text x="65.0327" y="86.0622" class="numbering-label sequential" >50</text></g>
<g><line x1="69.1985" y1="80.6596" x2="65.8824" y2="84.5325" class="numbering-line sequential" /></g>
<g><title>51 (position.label in template: 51.U)</title><text x="69.66" y="86.36" class="green" >T</text></g>
<g><title>52 (position.label in template: 52.C)</title><text x="70.27" y="93.9" class="black" >C</text></g>
<g><title>53 (position.label in template: 53.G)</title><text x="70.67" y="101.43" class="black" >G</text></g>
<g><title>54 (position.label in template: 54.C)</title><text x="71.49" y="108.97" class="black" >C</text></g>
<g><title>55 (position.label in template: 55.C)</title><text x="78.06" y="112.7" class="black" >C</text></g>
<g><title>56 (position.label in template: 56.G)</title><text x="77.59" y="105.14" class="black" >G</text></g>
<g><title>57 (position.label in template: 57.A)</title><text x="84.79" y="101.79" class="black" >A</text></g>
<g><title>58 (position.label in template: 58.C)</title><text x="90.43" y="106.59" class="black" >C</text></g>
<g><title>59 (position.label in template: 59.C)</title><text x="97.2" y="103.24" class="black" >C</text></g>
<g><title>60 (position.label in template: 60.G)</title><text x="103.77" y="99.88" class="black" >G</text></g>
<g><title>61 (position.label in template: 61.C)</title><text x="110.76" y="96.53" class="black" >C</text></g>
<g><title>62 (position.label in template: 62.U)</title><text x="111.49" y="89.01" class="green" >T</text></g>
<g><title>63 (position.label in template: 63.U)</title><text x="115.23" y="82.44" class="green" >T</text></g>
<g><title>64 (position.label in template: 64.U)</title><text x="121.33" y="77.98" class="green" >T</text></g>
<g><title>65 (position.label in template: 65.C)</title><text x="128.72" y="76.4" class="black" >C</text></g>
<g><title>66 (position.label in template: 66.A)</title><text x="136.32" y="77.98" class="black" >A</text></g>
<g><title>67 (position.label in template: 67.C)</title><text x="142.22" y="82.44" class="black" >C</text></g>
<g><line x1="142.951" y1="84.038" x2="145.849" y2="91.5801" class="black" /></g>
<g><title>68 (position.label in template: 68.C)</title><text x="149.23" y="79.61" class="black" >C</text></g>
<g><line x1="149.961" y1="81.2082" x2="152.859" y2="88.7599" class="black" /></g>
<g><title>69 (position.label in template: 69.U)</title><text x="156.24" y="76.79" class="green" >T</text></g>
<g><line x1="157.032" y1="78.3638" x2="160.228" y2="85.9544" class="black" /></g>
<g><title>70 (position.label in template: 70.G)</title><text x="163.04" y="73.96" class="black" >G</text></g>
<g><line x1="163.803" y1="75.5455" x2="166.857" y2="83.1127" class="black" /></g>
<g><title>71 (position.label in template: 71.A)</title><text x="167.19" y="67.38" class="black" >A</text></g>
<g><title>72 (position.label in template: 72.U)</title><text x="173.99" y="64.56" class="green" >T</text></g>
<g><title>73 (position.label in template: 73.G)</title><text x="181.03" y="66.71" class="black" >G</text></g>
<g><line x1="181.823" y1="68.2832" x2="185.027" y2="75.875" class="black" /></g>
<g><title>74 (position.label in template: 74.C)</title><text x="188.25" y="63.88" class="black" >C</text></g>
<g><line x1="188.982" y1="65.4777" x2="191.888" y2="73.0305" class="black" /></g>
<g><title>75 (position.label in template: 75.G)</title><text x="195.05" y="61.06" class="black" >G</text></g>
<g><line x1="195.843" y1="62.6332" x2="199.047" y2="70.225" class="black" /></g>
<g><title>76 (position.label in template: 76.G)</title><text x="202.06" y="58.23" class="black" >G</text></g>
<g><line x1="202.853" y1="59.8032" x2="206.057" y2="67.395" class="black" /></g>
<g><title>77 (position.label in template: 77.G)</title><text x="206.26" y="51.94" class="black" >G</text></g>
<g><title>78 (position.label in template: 78.U)</title><text x="213.78" y="50" class="green" >T</text></g>
<g><title>79 (position.label in template: 79.C)</title><text x="220.54" y="53.39" class="black" >C</text></g>
<g><title>80 (position.label in template: 80.A)</title><text x="223.57" y="60.4" class="black" >A</text></g>
<g><title>81 (position.label in template: 81.U)</title><text x="220.84" y="67.53" class="green" >T</text></g>
<g><title>82 (position.label in template: 82.G)</title><text x="214.03" y="71.2" class="black" >G</text></g>
<g><title>83 (position.label in template: 83.C)</title><text x="206.85" y="69.58" class="black" >C</text></g>
<g><title>84 (position.label in template: 84.C)</title><text x="199.84" y="72.41" class="black" >C</text></g>
<g><title>85 (position.label in template: 85.G)</title><text x="192.62" y="75.24" class="black" >G</text></g>
<g><title>86 (position.label in template: 86.C)</title><text x="185.82" y="78.06" class="black" >C</text></g>
<g><title>87 (position.label in template: 87.C)</title><text x="182.09" y="84.64" class="black" >C</text></g>
<g><title>88 (position.label in template: 88.G)</title><text x="174.87" y="87.47" class="black" >G</text></g>
<g><title>89 (position.label in template: 89.G)</title><text x="167.62" y="85.31" class="black" >G</text></g>
<g><title>90 (position.label in template: 90.A)</title><text x="161.02" y="88.14" class="green" >A</text></g>
<g><title>91 (position.label in template: 91.G)</title><text x="153.59" y="90.97" class="black" >G</text></g>
<g><title>92 (position.label in template: 92.G)</title><text x="146.58" y="93.79" class="black" >G</text></g>
<g><title>93 (position.label in template: 93.G)</title><text x="145.28" y="101.24" class="black" >G</text></g>
<g><title>94 (position.label in template: 94.A)</title><text x="141.47" y="107.51" class="black" >A</text></g>
<g><title>95 (position.label in template: 95.G)</title><text x="134.63" y="111.5" class="black" >G</text></g>
<g><title>96 (position.label in template: 96.G)</title><text x="134.63" y="119.06" class="black" >G</text></g>
<g><title>97 (position.label in template: 97.A)</title><text x="135.05" y="126.62" class="green" >A</text></g>
<g><title>98 (position.label in template: 98.C)</title><text x="134.84" y="134.18" class="green" >C</text></g>
<g><title>99 (position.label in template: 99.A)</title><text x="135.05" y="141.74" class="green" >A</text></g>
<g><title>100 (position.label in template: 100.U)</title><text x="140.289" y="147.183" class="green" >T</text></g>
<g><text x="137.594" y="153.517" class="numbering-label sequential" >100</text></g>
<g><line x1="139.571" y1="148.872" x2="138.245" y2="151.988" class="numbering-line sequential" /></g>
<g><title>101 (position.label in template: 101.G)</title><text x="147.844" y="147.183" class="black" >G</text></g>
<g><title>102 (position.label in template: 102.C)</title><text x="155.399" y="147.183" class="black" >C</text></g>
<g><title>103 (position.label in template: 103.U)</title><text x="162.954" y="147.183" class="green" >T</text></g>
<g><title>104 (position.label in template: 104.G)</title><text x="170.509" y="147.183" class="black" >G</text></g>
<g><title>105 (position.label in template: 105.U)</title><text x="178.063" y="147.183" class="green" >T</text></g>
<g><title>106 (position.label in template: 106.G)</title><text x="185.618" y="147.183" class="black" >G</text></g>
<g><title>107 (position.label in template: 107.G)</title><text x="193.173" y="147.183" class="black" >G</text></g>
<g><title>108 (position.label in template: 108.G)</title><text x="200.728" y="147.183" class="black" >G</text></g>
<g><title>109 (position.label in template: 109.C)</title><text x="208.283" y="147.183" class="black" >C</text></g>
<g><title>110 (position.label in template: 110.A)</title><text x="215.838" y="147.183" class="black" >A</text></g>
<g><title>111 (position.label in template: 111.C)</title><text x="223.392" y="147.183" class="black" >C</text></g>
<g><title>112 (position.label in template: 112.3')</title><text x="230.947" y="147.183" class="green" >3'</text></g>
<g><line x1="81.4213" y1="146.672" x2="84.897" y2="146.672" class="gray" /></g>
<g><line x1="88.9761" y1="146.672" x2="92.4518" y2="146.672" class="gray" /></g>
<g><line x1="96.531" y1="146.672" x2="100.007" y2="146.672" class="gray" /></g>
<g><line x1="104.086" y1="146.672" x2="107.561" y2="146.672" class="gray" /></g>
<g><line x1="111.641" y1="146.672" x2="115.116" y2="146.672" class="gray" /></g>
<g><line x1="118.626" y1="145.258" x2="121.13" y2="142.848" class="gray" /></g>
<g><line x1="122.6" y1="139.394" x2="122.6" y2="135.914" class="gray" /></g>
<g><line x1="122.6" y1="131.834" x2="122.6" y2="128.354" class="gray" /></g>
<g><line x1="122.6" y1="124.274" x2="122.6" y2="120.794" class="gray" /></g>
<g><line x1="122.6" y1="116.714" x2="122.6" y2="113.234" class="gray" /></g>
<g><line x1="120.852" y1="110.142" x2="117.718" y2="108.256" class="gray" /></g>
<g><line x1="114.153" y1="108.131" x2="111.217" y2="109.628" class="gray" /></g>
<g><line x1="107.561" y1="111.437" x2="104.259" y2="113.022" class="gray" /></g>
<g><line x1="100.591" y1="114.808" x2="97.4686" y2="116.351" class="gray" /></g>
<g><line x1="94.342" y1="118.827" x2="92.128" y2="121.511" class="gray" /></g>
<g><line x1="88.792" y1="123.164" x2="85.728" y2="123.284" class="gray" /></g>
<g><line x1="83.3049" y1="125.367" x2="82.6351" y2="128.851" class="gray" /></g>
<g><line x1="83.7892" y1="132.192" x2="86.5308" y2="134.576" class="gray" /></g>
<g><line x1="89.5857" y1="137.279" x2="92.1743" y2="139.609" class="gray" /></g>
<g><line x1="95.181" y1="142.366" x2="97.609" y2="144.632" class="gray" /></g>
<g><line x1="100.64" y1="147.361" x2="103.39" y2="149.747" class="gray" /></g>
<g><line x1="106.899" y1="150.553" x2="110.451" y2="149.595" class="gray" /></g>
<g><line x1="114.433" y1="149.394" x2="117.667" y2="149.924" class="gray" /></g>
<g><line x1="121.359" y1="151.411" x2="124.081" y2="153.287" class="gray" /></g>
<g><line x1="126.913" y1="156.126" x2="129.007" y2="159.182" class="gray" /></g>
<g><line x1="130.414" y1="162.888" x2="130.846" y2="166.34" class="gray" /></g>
<g><line x1="130.491" y1="170.311" x2="129.449" y2="173.638" class="gray" /></g>
<g><line x1="127.446" y1="177.073" x2="124.974" y2="179.715" class="gray" /></g>
<g><line x1="121.717" y1="182.033" x2="118.703" y2="183.375" class="gray" /></g>
<g><line x1="114.801" y1="184.163" x2="110.909" y2="184.085" class="gray" /></g>
<g><line x1="107.032" y1="183.159" x2="103.898" y2="181.649" class="gray" /></g>
<g><line x1="100.83" y1="179.137" x2="98.89" y2="176.571" class="gray" /></g>
<g><line x1="97.0788" y1="172.989" x2="96.0712" y2="169.599" class="gray" /></g>
<g><line x1="95.7716" y1="165.624" x2="96.2484" y2="162.204" class="gray" /></g>
<g><line x1="95.0404" y1="158.791" x2="92.6096" y2="156.517" class="gray" /></g>
<g><line x1="89.5797" y1="153.787" x2="86.8303" y2="151.401" class="gray" /></g>
<g><line x1="83.7743" y1="148.699" x2="81.1857" y2="146.369" class="gray" /></g>
<g><line x1="78.1817" y1="143.609" x2="75.7583" y2="141.339" class="gray" /></g>
<g><line x1="72.2896" y1="140.432" x2="68.9004" y2="141.266" class="gray" /></g>
<g><line x1="64.9226" y1="141.341" x2="61.3174" y2="140.597" class="gray" /></g>
<g><line x1="57.7552" y1="138.876" x2="55.3348" y2="136.852" class="gray" /></g>
<g><line x1="52.7777" y1="133.762" x2="50.9923" y2="130.556" class="gray" /></g>
<g><line x1="50.097" y1="126.737" x2="50.263" y2="123.251" class="gray" /></g>
<g><line x1="51.1384" y1="119.329" x2="52.4016" y2="116.269" class="gray" /></g>
<g><line x1="54.77" y1="113.107" x2="57.49" y2="110.921" class="gray" /></g>
<g><line x1="58.9718" y1="107.607" x2="58.7882" y2="104.151" class="gray" /></g>
<g><line x1="58.572" y1="100.077" x2="58.388" y2="96.6108" class="gray" /></g>
<g><line x1="58.0592" y1="92.5465" x2="57.6808" y2="89.0717" class="gray" /></g>
<g><line x1="57.352" y1="85.0073" x2="57.168" y2="81.5408" class="gray" /></g>
<g><line x1="59.0928" y1="79.3379" x2="67.0172" y2="78.6902" class="gray" /></g>
<g><line x1="69.2147" y1="80.557" x2="69.4953" y2="84.0211" class="gray" /></g>
<g><line x1="69.8245" y1="88.087" x2="70.1055" y2="91.5611" class="gray" /></g>
<g><line x1="70.3782" y1="95.6308" x2="70.5618" y2="99.0873" class="gray" /></g>
<g><line x1="70.8905" y1="103.152" x2="71.2695" y2="106.636" class="gray" /></g>
<g><line x1="73.2637" y1="109.671" x2="76.2863" y2="111.387" class="gray" /></g>
<g><line x1="77.9334" y1="110.358" x2="77.7166" y2="106.87" class="gray" /></g>
<g><line x1="79.4392" y1="103.974" x2="82.9408" y2="102.344" class="gray" /></g>
<g><line x1="86.3432" y1="102.806" x2="88.8768" y2="104.962" class="gray" /></g>
<g><line x1="92.258" y1="105.379" x2="95.372" y2="103.839" class="gray" /></g>
<g><line x1="99.0159" y1="102.005" x2="101.954" y2="100.503" class="gray" /></g>
<g><line x1="105.609" y1="98.6926" x2="108.921" y2="97.1055" class="gray" /></g>
<g><line x1="110.957" y1="94.194" x2="111.293" y2="90.7341" class="gray" /></g>
<g><line x1="112.499" y1="86.9315" x2="114.221" y2="83.9066" class="gray" /></g>
<g><line x1="116.876" y1="80.9303" x2="119.684" y2="78.8779" class="gray" /></g>
<g><line x1="123.325" y1="77.2476" x2="126.725" y2="76.5205" class="gray" /></g>
<g><line x1="130.717" y1="76.5092" x2="134.323" y2="77.2589" class="gray" /></g>
<g><line x1="137.947" y1="78.904" x2="140.593" y2="80.9041" class="gray" /></g>
<g><line x1="144.111" y1="81.3705" x2="147.339" y2="80.0676" class="gray" /></g>
<g><line x1="151.122" y1="78.5429" x2="154.348" y2="77.2453" class="gray" /></g>
<g><line x1="158.123" y1="75.7004" x2="161.157" y2="74.4377" class="gray" /></g>
<g><line x1="164.128" y1="71.9289" x2="166.102" y2="68.7992" class="gray" /></g>
<g><line x1="169.074" y1="66.2928" x2="172.106" y2="65.0354" class="gray" /></g>
<g><line x1="175.941" y1="64.8498" x2="179.079" y2="65.8083" class="gray" /></g>
<g><line x1="182.929" y1="65.6597" x2="186.351" y2="64.3184" class="gray" /></g>
<g><line x1="190.134" y1="62.7928" x2="193.166" y2="61.5354" class="gray" /></g>
<g><line x1="196.941" y1="59.9905" x2="200.169" y2="58.6876" class="gray" /></g>
<g><line x1="203.193" y1="56.2278" x2="205.127" y2="53.3303" class="gray" /></g>
<g><line x1="208.235" y1="51.1246" x2="211.805" y2="50.2036" class="gray" /></g>
<g><line x1="215.603" y1="50.6084" x2="218.717" y2="52.1698" class="gray" /></g>
<g><line x1="221.349" y1="54.9562" x2="222.761" y2="58.2219" class="gray" /></g>
<g><line x1="222.841" y1="61.9988" x2="221.569" y2="65.3193" class="gray" /></g>
<g><line x1="219.045" y1="68.1917" x2="215.825" y2="69.9265" class="gray" /></g>
<g><line x1="212.04" y1="70.4452" x2="208.84" y2="69.723" class="gray" /></g>
<g><line x1="204.959" y1="70.0376" x2="201.731" y2="71.3405" class="gray" /></g>
<g><line x1="197.941" y1="72.8484" x2="194.519" y2="74.1897" class="gray" /></g>
<g><line x1="190.736" y1="75.7154" x2="187.704" y2="76.9728" class="gray" /></g>
<g><line x1="184.814" y1="79.5284" x2="183.096" y2="82.5597" class="gray" /></g>
<g><line x1="180.191" y1="85.0784" x2="176.769" y2="86.4197" class="gray" /></g>
<g><line x1="172.915" y1="86.5817" x2="169.575" y2="85.5864" class="gray" /></g>
<g><line x1="165.745" y1="85.8078" x2="162.895" y2="87.0303" class="gray" /></g>
<g><line x1="159.114" y1="88.56" x2="155.496" y2="89.9381" class="gray" /></g>
<g><line x1="151.698" y1="91.4253" x2="148.472" y2="92.7229" class="gray" /></g>
<g><line x1="146.229" y1="95.4933" x2="145.631" y2="98.9248" class="gray" /></g>
<g><line x1="144.221" y1="102.677" x2="142.529" y2="105.461" class="gray" /></g>
<g><line x1="139.708" y1="108.232" x2="136.392" y2="110.166" class="gray" /></g>
<g><line x1="134.63" y1="113.234" x2="134.63" y2="116.714" class="gray" /></g>
<g><line x1="134.743" y1="120.791" x2="134.937" y2="124.278" class="gray" /></g>
<g><line x1="134.993" y1="128.353" x2="134.897" y2="131.835" class="gray" /></g>
<g><line x1="134.897" y1="135.913" x2="134.993" y2="139.395" class="gray" /></g>
<g><line x1="136.464" y1="142.904" x2="138.875" y2="145.408" class="gray" /></g>
<g><line x1="142.329" y1="146.877" x2="145.804" y2="146.877" class="gray" /></g>
<g><line x1="149.884" y1="146.877" x2="153.359" y2="146.877" class="gray" /></g>
<g><line x1="157.438" y1="146.877" x2="160.914" y2="146.877" class="gray" /></g>
<g><line x1="164.993" y1="146.877" x2="168.469" y2="146.877" class="gray" /></g>
<g><line x1="172.548" y1="146.877" x2="176.024" y2="146.877" class="gray" /></g>
<g><line x1="180.103" y1="146.877" x2="183.579" y2="146.877" class="gray" /></g>
<g><line x1="187.658" y1="146.877" x2="191.133" y2="146.877" class="gray" /></g>
<g><line x1="195.213" y1="146.877" x2="198.688" y2="146.877" class="gray" /></g>
<g><line x1="202.767" y1="146.877" x2="206.243" y2="146.877" class="gray" /></g>
<g><line x1="210.322" y1="146.877" x2="213.798" y2="146.877" class="gray" /></g>
<g><line x1="217.877" y1="146.877" x2="221.353" y2="146.877" class="gray" /></g>
<g><line x1="225.432" y1="146.877" x2="228.908" y2="146.877" class="gray" /></g>
</svg>
