<svg
	xmlns="http://www.w3.org/2000/svg"
	width="217.45"
	height="246.195">
<g><style type="text/css" >
<!-- create color definitions -->
<![CDATA[
circle.red {stroke: rgb(255, 0, 255); fill: none; }
circle.green {stroke: rgb(0, 255, 0); fill: none; }
circle.blue {stroke: rgb(0, 0, 255); fill: none; }
circle.black {stroke: rgb(0, 0, 0); fill: none; }
circle.gray {stroke: rgb(204, 204, 204); fill: none; }
circle.brown {stroke: rgb(211.65, 104.55, 30.6); fill: none; }
line.red {stroke: rgb(255, 0, 255); stroke-width: 0.380418; }
line.green {stroke: rgb(0, 255, 0); stroke-width: 0.380418; }
line.blue {stroke: rgb(0, 0, 255); stroke-width: 0.380418; }
line.black {stroke: rgb(0, 0, 0); stroke-width: 0.380418; }
line.gray {stroke: rgb(204, 204, 204); stroke-width: 0.380418; }
line.brown {stroke: rgb(211.65, 104.55, 30.6); stroke-width: 0.380418; }
line {stroke: rgb(0, 0, 0); }
text.red {fill: rgb(255, 0, 255); font-size: 3.043347px; font-weight: bold; font-family: Helvetica; }
text.green {fill: rgb(0, 255, 0); font-size: 3.043347px; font-weight: bold; font-family: Helvetica; }
text.blue {fill: rgb(0, 0, 255); font-size: 3.043347px; font-weight: bold; font-family: Helvetica; }
text.black {fill: rgb(0, 0, 0); font-size: 3.043347px; font-weight: bold; font-family: Helvetica; }
text.gray {fill: rgb(204, 204, 204); font-size: 3.043347px; font-weight: bold; font-family: Helvetica; }
text.brown {fill: rgb(211.65, 104.55, 30.6); font-size: 3.043347px; font-weight: bold; font-family: Helvetica; }
text {fill: rgb(0, 0, 0); font-size: 3.043347px; font-weight: bold; font-family: Helvetica; text-anchor: middle; alignment-baseline: middle; }

.pseudoknot_connection{stroke-linecap: round; stroke-opacity: 0.2; stroke-width: 1.5; }
.pseudoknot_segment1{stroke-linecap: round; stroke-opacity: 0.4; stroke-width: 3.04335; }
.pseudoknot_segment2{stroke-linecap: round; stroke-opacity: 0.4; stroke-width: 3.04335; }
line.numbering-line{stroke: rgb(204, 204, 204); stroke-width: 0.190209; }
line.predicted{stroke: rgb(0, 0, 0); stroke-dasharray: 2; }
polyline{fill: none; stroke-linejoin: round; }
template{visibility: hidden; }
text.numbering-label{fill: rgb(204, 204, 204); }
]]>
</style></g>
<g><title>0 (position.label in template: 0.5')</title><text x="102.42" y="198.405" class="green" >5'</text></g>
<g><title>1 (position.label in template: 1.U)</title><text x="102.42" y="190.86" class="green" >T</text></g>
<g><line x1="104.449" y1="190.556" x2="112.831" y2="190.556" class="black" /></g>
<g><title>2 (position.label in template: 2.C)</title><text x="102.42" y="183.3" class="black" >C</text></g>
<g><line x1="104.449" y1="182.996" x2="112.421" y2="182.996" class="black" /></g>
<g><title>3 (position.label in template: 3.C)</title><text x="102.42" y="175.74" class="black" >C</text></g>
<g><line x1="104.449" y1="175.436" x2="112.421" y2="175.436" class="black" /></g>
<g><title>4 (position.label in template: 4.C)</title><text x="102.42" y="168.18" class="black" >C</text></g>
<g><line x1="104.449" y1="167.876" x2="112.421" y2="167.876" class="black" /></g>
<g><title>5 (position.label in template: 5.U)</title><text x="99.32" y="161.28" class="green" >T</text></g>
<g><title>6 (position.label in template: 6.G)</title><text x="102.21" y="154.39" class="black" >G</text></g>
<g><line x1="104.239" y1="154.086" x2="112.631" y2="154.086" class="black" /></g>
<g><title>7 (position.label in template: 7.C)</title><text x="102.42" y="146.83" class="black" >C</text></g>
<g><line x1="104.449" y1="146.526" x2="112.421" y2="146.526" class="black" /></g>
<g><title>8 (position.label in template: 8.U)</title><text x="95.52" y="143.72" class="green" >T</text></g>
<g><title>9 (position.label in template: 9.G)</title><text x="89.76" y="138.6" class="black" >G</text></g>
<g><title>10 (position.label in template: 10.G)</title><text x="86.11" y="131.98" class="black" >G</text></g>
<g><text x="79.6311" y="134.196" class="numbering-label sequential" >10</text></g>
<g><line x1="84.3823" y1="132.571" x2="81.4571" y2="133.572" class="numbering-line sequential" /></g>
<g><title>11 (position.label in template: 11.C)</title><text x="84.95" y="124.54" class="black" >C</text></g>
<g><line x1="85.4028" y1="122.258" x2="87.2172" y2="114.333" class="black" /></g>
<g><title>12 (position.label in template: 12.U)</title><text x="77.61" y="122.73" class="green" >T</text></g>
<g><line x1="78.1269" y1="120.464" x2="80.2231" y2="112.508" class="black" /></g>
<g><title>13 (position.label in template: 13.C)</title><text x="71.69" y="127.44" class="black" >C</text></g>
<g><title>14 (position.label in template: 14.A)</title><text x="64.45" y="128.75" class="black" >A</text></g>
<g><title>15 (position.label in template: 15.G)</title><text x="56.87" y="126.36" class="black" >G</text></g>
<g><title>16 (position.label in template: 16.A)</title><text x="52.12" y="120.84" class="black" >A</text></g>
<g><title>17 (position.label in template: 17.C)</title><text x="50" y="113.53" class="black" >C</text></g>
<g><title>18 (position.label in template: 18.G)</title><text x="51.6" y="106.19" class="black" >G</text></g>
<g><title>19 (position.label in template: 19.G)</title><text x="56.68" y="100.59" class="black" >G</text></g>
<g><title>20 (position.label in template: 20.U)</title><text x="64.03" y="98.1" class="green" >T</text></g>
<g><text x="63.4486" y="91.2772" class="numbering-label sequential" >20</text></g>
<g><line x1="63.875" y1="96.2806" x2="63.5782" y2="92.7989" class="numbering-line sequential" /></g>
<g><title>21 (position.label in template: 21.A)</title><text x="71.7" y="99.31" class="black" >A</text></g>
<g><title>22 (position.label in template: 22.A)</title><text x="77.68" y="103.93" class="black" >A</text></g>
<g><title>23 (position.label in template: 23.A)</title><text x="80.74" y="110.85" class="green" >A</text></g>
<g><title>24 (position.label in template: 24.G)</title><text x="87.67" y="112.66" class="black" >G</text></g>
<g><title>25 (position.label in template: 25.A)</title><text x="92.75" y="106.71" class="black" >A</text></g>
<g><title>26 (position.label in template: 26.A)</title><text x="99.05" y="102.54" class="black" >A</text></g>
<g><title>27 (position.label in template: 27.U)</title><text x="106.15" y="100.57" class="green" >T</text></g>
<g><line x1="108.152" y1="100.598" x2="116.018" y2="101.903" class="black" /></g>
<g><title>28 (position.label in template: 28.C)</title><text x="107.36" y="93.11" class="black" >C</text></g>
<g><line x1="109.362" y1="93.1362" x2="117.228" y2="94.4351" class="black" /></g>
<g><title>29 (position.label in template: 29.C)</title><text x="108.57" y="85.65" class="black" >C</text></g>
<g><line x1="110.572" y1="85.6762" x2="118.438" y2="86.9751" class="black" /></g>
<g><title>30 (position.label in template: 30.G)</title><text x="109.57" y="78.19" class="green" >G</text></g>
<g><line x1="111.574" y1="78.2052" x2="119.856" y2="79.5261" class="black" /></g>
<g><text x="102.811" y="77.0937" class="numbering-label sequential" >30</text></g>
<g><line x1="107.768" y1="77.8976" x2="104.637" y2="77.3898" class="numbering-line sequential" /></g>
<g><title>31 (position.label in template: 31.C)</title><text x="110.99" y="70.73" class="black" >C</text></g>
<g><line x1="112.992" y1="70.7562" x2="120.858" y2="72.0551" class="black" /></g>
<g><title>32 (position.label in template: 32.C)</title><text x="107.09" y="64.25" class="black" >C</text></g>
<g><title>33 (position.label in template: 33.U)</title><text x="107.9" y="56.73" class="green" >T</text></g>
<g><title>34 (position.label in template: 34.G)</title><text x="112.89" y="51.24" class="black" >G</text></g>
<g><title>35 (position.label in template: 35.C)</title><text x="120.56" y="50" class="black" >C</text></g>
<g><title>36 (position.label in template: 36.A)</title><text x="127.45" y="53.53" class="black" >A</text></g>
<g><title>37 (position.label in template: 37.A)</title><text x="130.64" y="60.39" class="black" >A</text></g>
<g><title>38 (position.label in template: 38.U)</title><text x="128.82" y="67.78" class="green" >T</text></g>
<g><title>39 (position.label in template: 39.G)</title><text x="122.86" y="72.69" class="black" >G</text></g>
<g><title>40 (position.label in template: 40.U)</title><text x="121.86" y="80.15" class="green" >T</text></g>
<g><title>41 (position.label in template: 41.G)</title><text x="120.44" y="87.61" class="black" >G</text></g>
<g><title>42 (position.label in template: 42.G)</title><text x="119.23" y="95.07" class="black" >G</text></g>
<g><title>43 (position.label in template: 43.G)</title><text x="118.02" y="102.54" class="green" >G</text></g>
<g><title>44 (position.label in template: 44.A)</title><text x="124.74" y="106.71" class="black" >A</text></g>
<g><title>45 (position.label in template: 45.G)</title><text x="128.99" y="112.66" class="black" >G</text></g>
<g><title>46 (position.label in template: 46.A)</title><text x="131.95" y="119.78" class="black" >A</text></g>
<g><title>47 (position.label in template: 47.C)</title><text x="131.9" y="127.33" class="black" >C</text></g>
<g><title>48 (position.label in template: 48.C)</title><text x="129.66" y="134.55" class="black" >C</text></g>
<g><line x1="128.297" y1="135.748" x2="122.703" y2="141.913" class="black" /></g>
<g><title>49 (position.label in template: 49.U)</title><text x="135.32" y="139.56" class="green" >T</text></g>
<g><line x1="133.957" y1="140.758" x2="128.363" y2="146.923" class="black" /></g>
<g><title>50 (position.label in template: 50.G)</title><text x="140.77" y="144.57" class="green" >G</text></g>
<g><line x1="139.447" y1="145.804" x2="134.203" y2="151.898" class="black" /></g>
<g><text x="145.354" y="139.483" class="numbering-label sequential" >50</text></g>
<g><line x1="141.992" y1="143.213" x2="143.983" y2="141.005" class="numbering-line sequential" /></g>
<g><title>51 (position.label in template: 51.G)</title><text x="146.44" y="149.58" class="black" >G</text></g>
<g><line x1="145.116" y1="150.813" x2="139.864" y2="156.909" class="black" /></g>
<g><title>52 (position.label in template: 52.G)</title><text x="152.1" y="154.59" class="black" >G</text></g>
<g><line x1="150.776" y1="155.823" x2="145.524" y2="161.919" class="black" /></g>
<g><title>53 (position.label in template: 53.U)</title><text x="159.87" y="154.75" class="green" >T</text></g>
<g><title>54 (position.label in template: 54.U)</title><text x="165.79" y="159.45" class="green" >T</text></g>
<g><title>55 (position.label in template: 55.G)</title><text x="167.45" y="166.77" class="black" >G</text></g>
<g><title>56 (position.label in template: 56.G)</title><text x="164.51" y="173.74" class="black" >G</text></g>
<g><title>57 (position.label in template: 57.A)</title><text x="158.38" y="177.51" class="black" >A</text></g>
<g><title>58 (position.label in template: 58.U)</title><text x="150.67" y="176.54" class="green" >T</text></g>
<g><title>59 (position.label in template: 59.C)</title><text x="145.28" y="171.24" class="black" >C</text></g>
<g><title>60 (position.label in template: 60.C)</title><text x="144.2" y="163.76" class="black" >C</text></g>
<g><title>61 (position.label in template: 61.C)</title><text x="138.54" y="158.75" class="black" >C</text></g>
<g><title>62 (position.label in template: 62.U)</title><text x="132.88" y="153.74" class="green" >T</text></g>
<g><title>63 (position.label in template: 63.G)</title><text x="127" y="148.73" class="green" >G</text></g>
<g><title>64 (position.label in template: 64.G)</title><text x="121.34" y="143.72" class="black" >G</text></g>
<g><title>65 (position.label in template: 65.G)</title><text x="114.45" y="146.83" class="black" >G</text></g>
<g><title>66 (position.label in template: 66.C)</title><text x="114.66" y="154.39" class="black" >C</text></g>
<g><title>67 (position.label in template: 67.U)</title><text x="117.76" y="161.28" class="green" >T</text></g>
<g><title>68 (position.label in template: 68.G)</title><text x="114.45" y="168.18" class="black" >G</text></g>
<g><title>69 (position.label in template: 69.G)</title><text x="114.45" y="175.74" class="black" >G</text></g>
<g><title>70 (position.label in template: 70.G)</title><text x="114.45" y="183.3" class="black" >G</text></g>
<g><title>71 (position.label in template: 71.A)</title><text x="114.86" y="190.86" class="green" >A</text></g>
<g><title>72 (position.label in template: 72.A)</title><text x="120.195" y="196.195" class="black" >A</text></g>
<g><title>73 (position.label in template: 73.3')</title><text x="120.72" y="203.721" class="green" >3'</text></g>
<g><line x1="102.42" y1="196.071" x2="102.42" y2="192.585" class="gray" /></g>
<g><line x1="102.42" y1="188.527" x2="102.42" y2="185.025" class="gray" /></g>
<g><line x1="102.42" y1="180.967" x2="102.42" y2="177.465" class="gray" /></g>
<g><line x1="102.42" y1="173.407" x2="102.42" y2="169.905" class="gray" /></g>
<g><line x1="101.589" y1="166.025" x2="100.151" y2="162.826" class="gray" /></g>
<g><line x1="100.105" y1="159.105" x2="101.425" y2="155.957" class="gray" /></g>
<g><line x1="102.266" y1="152.058" x2="102.364" y2="148.554" class="gray" /></g>
<g><line x1="100.57" y1="145.692" x2="97.3697" y2="144.249" class="gray" /></g>
<g><line x1="94.0036" y1="142.068" x2="91.2764" y2="139.644" class="gray" /></g>
<g><line x1="88.7804" y1="136.519" x2="87.0896" y2="133.452" class="gray" /></g>
<g><line x1="85.7974" y1="129.671" x2="85.2626" y2="126.24" class="gray" /></g>
<g><line x1="82.9801" y1="123.75" x2="79.5799" y2="122.911" class="gray" /></g>
<g><line x1="76.0223" y1="123.689" x2="73.2777" y2="125.872" class="gray" /></g>
<g><line x1="69.6935" y1="127.497" x2="66.4465" y2="128.084" class="gray" /></g>
<g><line x1="62.515" y1="127.836" x2="58.805" y2="126.666" class="gray" /></g>
<g><line x1="55.5466" y1="124.518" x2="53.4434" y2="122.074" class="gray" /></g>
<g><line x1="51.5549" y1="118.587" x2="50.5651" y2="115.174" class="gray" /></g>
<g><line x1="50.4321" y1="111.243" x2="51.1679" y2="107.868" class="gray" /></g>
<g><line x1="52.9632" y1="104.383" x2="55.3168" y2="101.788" class="gray" /></g>
<g><line x1="58.6016" y1="99.6347" x2="62.1084" y2="98.4467" class="gray" /></g>
<g><line x1="66.0341" y1="98.1118" x2="69.6959" y2="98.6895" class="gray" /></g>
<g><line x1="73.3056" y1="100.246" x2="76.0744" y2="102.385" class="gray" /></g>
<g><line x1="78.5005" y1="105.481" x2="79.9195" y2="108.69" class="gray" /></g>
<g><line x1="82.703" y1="111.058" x2="85.707" y2="111.843" class="gray" /></g>
<g><line x1="88.9874" y1="110.813" x2="91.4326" y2="107.949" class="gray" /></g>
<g><line x1="94.4419" y1="105.286" x2="97.3581" y2="103.356" class="gray" /></g>
<g><line x1="101.005" y1="101.693" x2="104.195" y2="100.808" class="gray" /></g>
<g><line x1="106.475" y1="98.2629" x2="107.035" y2="94.8084" class="gray" /></g>
<g><line x1="107.685" y1="90.8029" x2="108.245" y2="87.3484" class="gray" /></g>
<g><line x1="108.84" y1="83.3348" x2="109.3" y2="79.8966" class="gray" /></g>
<g><line x1="109.949" y1="75.8926" x2="110.611" y2="72.4188" class="gray" /></g>
<g><line x1="109.944" y1="68.6873" x2="108.136" y2="65.684" class="gray" /></g>
<g><line x1="107.307" y1="61.9284" x2="107.683" y2="58.4429" class="gray" /></g>
<g><line x1="109.265" y1="54.9243" x2="111.525" y2="52.4371" class="gray" /></g>
<g><line x1="114.893" y1="50.6119" x2="118.557" y2="50.0195" class="gray" /></g>
<g><line x1="122.366" y1="50.6208" x2="125.644" y2="52.3005" class="gray" /></g>
<g><line x1="128.305" y1="55.0654" x2="129.785" y2="58.2459" class="gray" /></g>
<g><line x1="130.155" y1="62.0557" x2="129.305" y2="65.5056" class="gray" /></g>
<g><line x1="127.254" y1="68.7657" x2="124.426" y2="71.0956" class="gray" /></g>
<g><line x1="122.59" y1="74.3966" x2="122.13" y2="77.8348" class="gray" /></g>
<g><line x1="121.481" y1="81.8388" x2="120.819" y2="85.3126" class="gray" /></g>
<g><line x1="120.115" y1="89.3084" x2="119.555" y2="92.7629" class="gray" /></g>
<g><line x1="118.906" y1="96.7685" x2="118.344" y2="100.233" class="gray" /></g>
<g><line x1="119.744" y1="103.305" x2="123.016" y2="105.336" class="gray" /></g>
<g><line x1="125.919" y1="108.057" x2="127.811" y2="110.705" class="gray" /></g>
<g><line x1="129.769" y1="114.229" x2="131.171" y2="117.602" class="gray" /></g>
<g><line x1="131.937" y1="121.505" x2="131.913" y2="124.997" class="gray" /></g>
<g><line x1="131.299" y1="128.963" x2="130.261" y2="132.308" class="gray" /></g>
<g><line x1="131.179" y1="135.59" x2="133.801" y2="137.911" class="gray" /></g>
<g><line x1="136.814" y1="140.629" x2="139.276" y2="142.893" class="gray" /></g>
<g><line x1="142.29" y1="145.609" x2="144.92" y2="147.932" class="gray" /></g>
<g><line x1="147.959" y1="150.62" x2="150.581" y2="152.941" class="gray" /></g>
<g><line x1="154.128" y1="154.327" x2="157.842" y2="154.404" class="gray" /></g>
<g><line x1="161.459" y1="155.707" x2="164.201" y2="157.884" class="gray" /></g>
<g><line x1="166.239" y1="161.124" x2="167.001" y2="164.487" class="gray" /></g>
<g><line x1="166.661" y1="168.335" x2="165.299" y2="171.566" class="gray" /></g>
<g><line x1="162.782" y1="174.499" x2="160.108" y2="176.143" class="gray" /></g>
<g><line x1="156.367" y1="176.952" x2="152.683" y2="176.489" class="gray" /></g>
<g><line x1="149.223" y1="174.813" x2="146.727" y2="172.358" class="gray" /></g>
<g><line x1="144.99" y1="168.928" x2="144.49" y2="165.464" class="gray" /></g>
<g><line x1="142.681" y1="162.111" x2="140.059" y2="159.79" class="gray" /></g>
<g><line x1="137.021" y1="157.101" x2="134.399" y2="154.78" class="gray" /></g>
<g><line x1="131.336" y1="152.12" x2="128.544" y2="149.742" class="gray" /></g>
<g><line x1="125.481" y1="147.081" x2="122.859" y2="144.76" class="gray" /></g>
<g><line x1="119.491" y1="144.25" x2="116.299" y2="145.691" class="gray" /></g>
<g><line x1="114.506" y1="148.554" x2="114.604" y2="152.058" class="gray" /></g>
<g><line x1="115.492" y1="155.936" x2="116.928" y2="159.125" class="gray" /></g>
<g><line x1="116.882" y1="162.805" x2="115.328" y2="166.046" class="gray" /></g>
<g><line x1="114.45" y1="169.905" x2="114.45" y2="173.407" class="gray" /></g>
<g><line x1="114.45" y1="177.465" x2="114.45" y2="180.967" class="gray" /></g>
<g><line x1="114.56" y1="185.022" x2="114.75" y2="188.53" class="gray" /></g>
<g><line x1="116.295" y1="191.99" x2="118.76" y2="194.456" class="gray" /></g>
<g><line x1="120.336" y1="197.915" x2="120.579" y2="201.393" class="gray" /></g>
</svg>
