<svg
	xmlns="http://www.w3.org/2000/svg"
	width="211.66"
	height="248.35">
<g><style type="text/css" >
<!-- create color definitions -->
<![CDATA[
circle.red {stroke: rgb(255, 0, 255); fill: none; }
circle.green {stroke: rgb(0, 255, 0); fill: none; }
circle.blue {stroke: rgb(0, 0, 255); fill: none; }
circle.black {stroke: rgb(0, 0, 0); fill: none; }
circle.gray {stroke: rgb(204, 204, 204); fill: none; }
circle.brown {stroke: rgb(211.65, 104.55, 30.6); fill: none; }
line.red {stroke: rgb(255, 0, 255); stroke-width: 0.37998; }
line.green {stroke: rgb(0, 255, 0); stroke-width: 0.37998; }
line.blue {stroke: rgb(0, 0, 255); stroke-width: 0.37998; }
line.black {stroke: rgb(0, 0, 0); stroke-width: 0.37998; }
line.gray {stroke: rgb(204, 204, 204); stroke-width: 0.37998; }
line.brown {stroke: rgb(211.65, 104.55, 30.6); stroke-width: 0.37998; }
line {stroke: rgb(0, 0, 0); }
text.red {fill: rgb(255, 0, 255); font-size: 3.039842px; font-weight: bold; font-family: Helvetica; }
text.green {fill: rgb(0, 255, 0); font-size: 3.039842px; font-weight: bold; font-family: Helvetica; }
text.blue {fill: rgb(0, 0, 255); font-size: 3.039842px; font-weight: bold; font-family: Helvetica; }
text.black {fill: rgb(0, 0, 0); font-size: 3.039842px; font-weight: bold; font-family: Helvetica; }
text.gray {fill: rgb(204, 204, 204); font-size: 3.039842px; font-weight: bold; font-family: Helvetica; }
text.brown {fill: rgb(211.65, 104.55, 30.6); font-size: 3.039842px; font-weight: bold; font-family: Helvetica; }
text {fill: rgb(0, 0, 0); font-size: 3.039842px; font-weight: bold; font-family: Helvetica; text-anchor: middle; alignment-baseline: middle; }

.pseudoknot_connection{stroke-linecap: round; stroke-opacity: 0.2; stroke-width: 1.5; }
.pseudoknot_segment1{stroke-linecap: round; stroke-opacity: 0.4; stroke-width: 3.03984; }
.pseudoknot_segment2{stroke-linecap: round; stroke-opacity: 0.4; stroke-width: 3.03984; }
line.numbering-line{stroke: rgb(204, 204, 204); stroke-width: 0.18999; }
line.predicted{stroke: rgb(0, 0, 0); stroke-dasharray: 2; }
polyline{fill: none; stroke-linejoin: round; }
template{visibility: hidden; }
text.numbering-label{fill: rgb(204, 204, 204); }
]]>
</style></g>
<g><title>0 (position.label in template: 0.5')</title><text x="120.88" y="198.35" class="green" >5'</text></g>
<g><title>1 (position.label in template: 1.A)</title><text x="127.88" y="198.35" class="black" >A</text></g>
<g><line x1="129.907" y1="198.046" x2="137.883" y2="198.046" class="black" /></g>
<g><title>2 (position.label in template: 2.C)</title><text x="127.67" y="190.79" class="black" >C</text></g>
<g><line x1="129.697" y1="190.486" x2="137.673" y2="190.486" class="black" /></g>
<g><title>3 (position.label in template: 3.C)</title><text x="127.67" y="183.23" class="black" >C</text></g>
<g><line x1="129.697" y1="182.926" x2="137.673" y2="182.926" class="black" /></g>
<g><title>4 (position.label in template: 4.C)</title><text x="127.67" y="175.67" class="black" >C</text></g>
<g><line x1="129.697" y1="175.366" x2="137.673" y2="175.366" class="black" /></g>
<g><title>5 (position.label in template: 5.G)</title><text x="121.87" y="170.58" class="black" >G</text></g>
<g><title>6 (position.label in template: 6.A)</title><text x="120.21" y="163.31" class="black" >A</text></g>
<g><title>7 (position.label in template: 7.A)</title><text x="122.29" y="156.04" class="black" >A</text></g>
<g><title>8 (position.label in template: 8.C)</title><text x="127.67" y="150.96" class="black" >C</text></g>
<g><line x1="129.697" y1="150.656" x2="137.673" y2="150.656" class="black" /></g>
<g><title>9 (position.label in template: 9.U)</title><text x="127.67" y="143.4" class="green" >T</text></g>
<g><line x1="129.697" y1="143.096" x2="138.093" y2="143.096" class="black" /></g>
<g><title>10 (position.label in template: 10.C)</title><text x="127.67" y="135.84" class="black" >C</text></g>
<g><line x1="129.697" y1="135.536" x2="137.673" y2="135.536" class="black" /></g>
<g><text x="120.83" y="135.84" class="numbering-label sequential" >10</text></g>
<g><line x1="125.846" y1="135.84" x2="122.654" y2="135.84" class="numbering-line sequential" /></g>
<g><title>11 (position.label in template: 11.C)</title><text x="127.67" y="128.28" class="black" >C</text></g>
<g><line x1="129.697" y1="127.976" x2="137.673" y2="127.976" class="black" /></g>
<g><title>12 (position.label in template: 12.G)</title><text x="121.04" y="124.29" class="black" >G</text></g>
<g><title>13 (position.label in template: 13.C)</title><text x="117.02" y="118.02" class="black" >C</text></g>
<g><title>14 (position.label in template: 14.C)</title><text x="115.72" y="110.58" class="black" >C</text></g>
<g><line x1="116.448" y1="108.385" x2="119.362" y2="100.807" class="black" /></g>
<g><title>15 (position.label in template: 15.U)</title><text x="108.71" y="107.75" class="green" >T</text></g>
<g><line x1="109.468" y1="105.567" x2="112.532" y2="97.9753" class="black" /></g>
<g><title>16 (position.label in template: 16.G)</title><text x="101.49" y="104.92" class="black" >G</text></g>
<g><line x1="102.278" y1="102.749" x2="105.492" y2="95.1331" class="black" /></g>
<g><title>17 (position.label in template: 17.U)</title><text x="94.69" y="102.1" class="green" >T</text></g>
<g><line x1="95.476" y1="99.9281" x2="98.684" y2="92.304" class="black" /></g>
<g><title>18 (position.label in template: 18.A)</title><text x="87.88" y="99.27" class="green" >A</text></g>
<g><line x1="88.6082" y1="97.0748" x2="91.5218" y2="89.5072" class="black" /></g>
<g><title>19 (position.label in template: 19.G)</title><text x="80.46" y="96.44" class="black" >G</text></g>
<g><line x1="81.2466" y1="94.2683" x2="84.4534" y2="86.6537" class="black" /></g>
<g><title>20 (position.label in template: 20.C)</title><text x="74.52" y="100.84" class="black" >C</text></g>
<g><text x="77.2595" y="107.107" class="numbering-label sequential" >20</text></g>
<g><line x1="75.2505" y1="102.511" x2="76.5951" y2="105.587" class="numbering-line sequential" /></g>
<g><title>21 (position.label in template: 21.U)</title><text x="67.1" y="102.28" class="green" >T</text></g>
<g><title>22 (position.label in template: 22.C)</title><text x="59.75" y="100.5" class="black" >C</text></g>
<g><title>23 (position.label in template: 23.C)</title><text x="53.81" y="95.83" class="black" >C</text></g>
<g><title>24 (position.label in template: 24.U)</title><text x="50.35" y="89.11" class="green" >T</text></g>
<g><title>25 (position.label in template: 25.C)</title><text x="50" y="81.56" class="black" >C</text></g>
<g><title>26 (position.label in template: 26.C)</title><text x="52.83" y="74.54" class="black" >C</text></g>
<g><title>27 (position.label in template: 27.A)</title><text x="58.52" y="69.35" class="black" >A</text></g>
<g><title>28 (position.label in template: 28.G)</title><text x="65.26" y="66.9" class="black" >G</text></g>
<g><title>29 (position.label in template: 29.G)</title><text x="72.78" y="67.65" class="black" >G</text></g>
<g><title>30 (position.label in template: 30.G)</title><text x="79.31" y="71.47" class="black" >G</text></g>
<g><text x="83.9432" y="66.4387" class="numbering-label sequential" >30</text></g>
<g><line x1="80.5455" y1="70.1283" x2="82.5436" y2="67.9586" class="numbering-line sequential" /></g>
<g><title>31 (position.label in template: 31.G)</title><text x="83.65" y="77.66" class="black" >G</text></g>
<g><title>32 (position.label in template: 32.C)</title><text x="85.24" y="85.09" class="black" >C</text></g>
<g><title>33 (position.label in template: 33.U)</title><text x="92.25" y="87.92" class="green" >T</text></g>
<g><title>34 (position.label in template: 34.A)</title><text x="99.47" y="90.74" class="green" >A</text></g>
<g><title>35 (position.label in template: 35.C)</title><text x="106.28" y="93.57" class="black" >C</text></g>
<g><title>36 (position.label in template: 36.U)</title><text x="113.29" y="96.4" class="green" >T</text></g>
<g><title>37 (position.label in template: 37.G)</title><text x="120.09" y="99.22" class="black" >G</text></g>
<g><title>38 (position.label in template: 38.C)</title><text x="126.4" y="94.76" class="black" >C</text></g>
<g><line x1="128.421" y1="94.2994" x2="136.379" y2="93.6826" class="black" /></g>
<g><title>39 (position.label in template: 39.C)</title><text x="125.83" y="87.22" class="black" >C</text></g>
<g><line x1="127.85" y1="86.7593" x2="135.8" y2="86.1427" class="black" /></g>
<g><title>40 (position.label in template: 40.G)</title><text x="125.04" y="79.68" class="black" >G</text></g>
<g><line x1="127.061" y1="79.2247" x2="135.439" y2="78.5973" class="black" /></g>
<g><title>41 (position.label in template: 41.G)</title><text x="118.73" y="75.53" class="black" >G</text></g>
<g><title>42 (position.label in template: 42.U)</title><text x="115.37" y="68.86" class="green" >T</text></g>
<g><title>43 (position.label in template: 43.C)</title><text x="115.4" y="61.3" class="black" >C</text></g>
<g><title>44 (position.label in template: 44.C)</title><text x="119.03" y="54.68" class="black" >C</text></g>
<g><title>45 (position.label in template: 45.C)</title><text x="125.39" y="50.58" class="black" >C</text></g>
<g><title>46 (position.label in template: 46.A)</title><text x="133.13" y="50" class="black" >A</text></g>
<g><title>47 (position.label in template: 47.A)</title><text x="140.03" y="53.09" class="black" >A</text></g>
<g><title>48 (position.label in template: 48.G)</title><text x="144.21" y="59.1" class="black" >G</text></g>
<g><title>49 (position.label in template: 49.C)</title><text x="145.6" y="66.57" class="black" >C</text></g>
<g><title>50 (position.label in template: 50.C)</title><text x="143.07" y="73.69" class="black" >C</text></g>
<g><text x="148.757" y="77.4904" class="numbering-label sequential" >50</text></g>
<g><line x1="144.586" y1="74.7034" x2="146.933" y2="76.2715" class="numbering-line sequential" /></g>
<g><title>51 (position.label in template: 51.C)</title><text x="137.46" y="78.75" class="black" >C</text></g>
<g><title>52 (position.label in template: 52.G)</title><text x="137.82" y="86.29" class="black" >G</text></g>
<g><title>53 (position.label in template: 53.G)</title><text x="138.4" y="93.83" class="black" >G</text></g>
<g><title>54 (position.label in template: 54.G)</title><text x="145.1" y="97.32" class="black" >G</text></g>
<g><title>55 (position.label in template: 55.U)</title><text x="150" y="103.25" class="green" >T</text></g>
<g><title>56 (position.label in template: 56.A)</title><text x="152.07" y="110.58" class="black" >A</text></g>
<g><title>57 (position.label in template: 57.A)</title><text x="150.77" y="118.02" class="black" >A</text></g>
<g><title>58 (position.label in template: 58.A)</title><text x="146.54" y="124.29" class="black" >A</text></g>
<g><title>59 (position.label in template: 59.G)</title><text x="139.7" y="128.28" class="black" >G</text></g>
<g><title>60 (position.label in template: 60.G)</title><text x="139.7" y="135.84" class="black" >G</text></g>
<g><title>61 (position.label in template: 61.A)</title><text x="140.12" y="143.4" class="green" >A</text></g>
<g><title>62 (position.label in template: 62.G)</title><text x="139.7" y="150.96" class="black" >G</text></g>
<g><title>63 (position.label in template: 63.G)</title><text x="146.97" y="148.86" class="black" >G</text></g>
<g><title>64 (position.label in template: 64.A)</title><text x="154.71" y="150.71" class="black" >A</text></g>
<g><title>65 (position.label in template: 65.G)</title><text x="159.69" y="156.02" class="black" >G</text></g>
<g><title>66 (position.label in template: 66.G)</title><text x="161.66" y="163.31" class="black" >G</text></g>
<g><title>67 (position.label in template: 67.G)</title><text x="159.69" y="170.61" class="black" >G</text></g>
<g><title>68 (position.label in template: 68.U)</title><text x="154.51" y="175.91" class="green" >T</text></g>
<g><title>69 (position.label in template: 69.U)</title><text x="147.18" y="177.77" class="green" >T</text></g>
<g><title>70 (position.label in template: 70.G)</title><text x="139.7" y="175.67" class="black" >G</text></g>
<g><title>71 (position.label in template: 71.G)</title><text x="139.7" y="183.23" class="black" >G</text></g>
<g><title>72 (position.label in template: 72.G)</title><text x="139.7" y="190.79" class="black" >G</text></g>
<g><title>73 (position.label in template: 73.C)</title><text x="139.91" y="198.35" class="black" >C</text></g>
<g><title>74 (position.label in template: 74.3')</title><text x="146.91" y="198.35" class="green" >3'</text></g>
<g><line x1="122.907" y1="198.046" x2="125.853" y2="198.046" class="gray" /></g>
<g><line x1="127.824" y1="196.02" x2="127.726" y2="192.512" class="gray" /></g>
<g><line x1="127.67" y1="188.459" x2="127.67" y2="184.953" class="gray" /></g>
<g><line x1="127.67" y1="180.899" x2="127.67" y2="177.393" class="gray" /></g>
<g><line x1="126.147" y1="174.029" x2="123.393" y2="171.613" class="gray" /></g>
<g><line x1="121.419" y1="168.3" x2="120.661" y2="164.982" class="gray" /></g>
<g><line x1="120.767" y1="161.058" x2="121.733" y2="157.684" class="gray" /></g>
<g><line x1="123.763" y1="154.345" x2="126.197" y2="152.047" class="gray" /></g>
<g><line x1="127.67" y1="148.629" x2="127.67" y2="145.123" class="gray" /></g>
<g><line x1="127.67" y1="141.069" x2="127.67" y2="137.563" class="gray" /></g>
<g><line x1="127.67" y1="133.509" x2="127.67" y2="130.003" class="gray" /></g>
<g><line x1="125.934" y1="126.931" x2="122.776" y2="125.031" class="gray" /></g>
<g><line x1="119.946" y1="122.28" x2="118.114" y2="119.422" class="gray" /></g>
<g><line x1="116.671" y1="115.72" x2="116.069" y2="112.272" class="gray" /></g>
<g><line x1="113.841" y1="109.517" x2="110.589" y2="108.205" class="gray" /></g>
<g><line x1="106.823" y1="106.706" x2="103.377" y2="105.356" class="gray" /></g>
<g><line x1="99.618" y1="103.84" x2="96.562" y2="102.572" class="gray" /></g>
<g><line x1="92.8186" y1="101.018" x2="89.7514" y2="99.7437" class="gray" /></g>
<g><line x1="85.9865" y1="98.2438" x2="82.3535" y2="96.8582" class="gray" /></g>
<g><line x1="78.8315" y1="97.3423" x2="76.1485" y2="99.3298" class="gray" /></g>
<g><line x1="72.5306" y1="100.922" x2="69.0894" y2="101.59" class="gray" /></g>
<g><line x1="65.1304" y1="101.499" x2="61.7196" y2="100.673" class="gray" /></g>
<g><line x1="58.1568" y1="98.9435" x2="55.4032" y2="96.7785" class="gray" /></g>
<g><line x1="52.8823" y1="93.7243" x2="51.2777" y2="90.6078" class="gray" /></g>
<g><line x1="50.2562" y1="86.7816" x2="50.0938" y2="83.2804" class="gray" /></g>
<g><line x1="50.7577" y1="79.3764" x2="52.0723" y2="76.1156" class="gray" /></g>
<g><line x1="54.3273" y1="72.8703" x2="57.0227" y2="70.4117" class="gray" /></g>
<g><line x1="60.4246" y1="68.3537" x2="63.3554" y2="67.2884" class="gray" /></g>
<g><line x1="67.2766" y1="66.7971" x2="70.7634" y2="67.1449" class="gray" /></g>
<g><line x1="74.5292" y1="68.3693" x2="77.5608" y2="70.1427" class="gray" /></g>
<g><line x1="80.4734" y1="72.8254" x2="82.4866" y2="75.6967" class="gray" /></g>
<g><line x1="84.0741" y1="79.3377" x2="84.8159" y2="82.8043" class="gray" /></g>
<g><line x1="87.1192" y1="85.5447" x2="90.3708" y2="86.8574" class="gray" /></g>
<g><line x1="94.1377" y1="88.3533" x2="97.5823" y2="89.6987" class="gray" /></g>
<g><line x1="101.341" y1="91.2137" x2="104.409" y2="92.4883" class="gray" /></g>
<g><line x1="108.159" y1="94.0247" x2="111.411" y2="95.3374" class="gray" /></g>
<g><line x1="115.162" y1="96.8723" x2="118.218" y2="98.1397" class="gray" /></g>
<g><line x1="121.745" y1="97.7463" x2="124.745" y2="95.6257" class="gray" /></g>
<g><line x1="126.247" y1="92.4352" x2="125.983" y2="88.9368" class="gray" /></g>
<g><line x1="125.619" y1="84.9005" x2="125.251" y2="81.3915" class="gray" /></g>
<g><line x1="123.347" y1="78.2624" x2="120.423" y2="76.3396" class="gray" /></g>
<g><line x1="117.818" y1="73.4161" x2="116.282" y2="70.3659" class="gray" /></g>
<g><line x1="115.378" y1="66.5295" x2="115.392" y2="63.0226" class="gray" /></g>
<g><line x1="116.374" y1="59.2191" x2="118.056" y2="56.153" class="gray" /></g>
<g><line x1="120.733" y1="53.278" x2="123.687" y2="51.3741" class="gray" /></g>
<g><line x1="127.411" y1="50.1246" x2="131.109" y2="49.8475" class="gray" /></g>
<g><line x1="134.98" y1="50.5243" x2="138.18" y2="51.9577" class="gray" /></g>
<g><line x1="141.187" y1="54.4497" x2="143.053" y2="57.1323" class="gray" /></g>
<g><line x1="144.581" y1="60.7884" x2="145.229" y2="64.2737" class="gray" /></g>
<g><line x1="144.921" y1="68.1756" x2="143.749" y2="71.4764" class="gray" /></g>
<g><line x1="141.565" y1="74.7433" x2="138.965" y2="77.0887" class="gray" /></g>
<g><line x1="137.557" y1="80.4703" x2="137.723" y2="83.9618" class="gray" /></g>
<g><line x1="137.975" y1="88.0066" x2="138.245" y2="91.5054" class="gray" /></g>
<g><line x1="140.197" y1="94.4622" x2="143.303" y2="96.0798" class="gray" /></g>
<g><line x1="146.391" y1="98.5782" x2="148.709" y2="101.384" class="gray" /></g>
<g><line x1="150.551" y1="104.896" x2="151.519" y2="108.326" class="gray" /></g>
<g><line x1="151.721" y1="112.272" x2="151.119" y2="115.72" class="gray" /></g>
<g><line x1="149.637" y1="119.396" x2="147.673" y2="122.306" class="gray" /></g>
<g><line x1="144.789" y1="125.007" x2="141.451" y2="126.955" class="gray" /></g>
<g><line x1="139.7" y1="130.003" x2="139.7" y2="133.509" class="gray" /></g>
<g><line x1="139.812" y1="137.559" x2="140.008" y2="141.073" class="gray" /></g>
<g><line x1="140.008" y1="145.119" x2="139.812" y2="148.633" class="gray" /></g>
<g><line x1="141.647" y1="150.094" x2="145.023" y2="149.118" class="gray" /></g>
<g><line x1="148.941" y1="149.027" x2="152.739" y2="149.935" class="gray" /></g>
<g><line x1="156.096" y1="151.884" x2="158.304" y2="154.238" class="gray" /></g>
<g><line x1="160.219" y1="157.672" x2="161.131" y2="161.05" class="gray" /></g>
<g><line x1="161.132" y1="164.963" x2="160.218" y2="168.349" class="gray" /></g>
<g><line x1="158.274" y1="171.755" x2="155.926" y2="174.157" class="gray" /></g>
<g><line x1="152.546" y1="176.104" x2="149.144" y2="176.968" class="gray" /></g>
<g><line x1="145.229" y1="176.918" x2="141.651" y2="175.914" class="gray" /></g>
<g><line x1="139.7" y1="177.393" x2="139.7" y2="180.899" class="gray" /></g>
<g><line x1="139.7" y1="184.953" x2="139.7" y2="188.459" class="gray" /></g>
<g><line x1="139.756" y1="192.512" x2="139.854" y2="196.02" class="gray" /></g>
<g><line x1="141.937" y1="198.046" x2="144.883" y2="198.046" class="gray" /></g>
</svg>
