<svg
	xmlns="http://www.w3.org/2000/svg"
	width="278.53"
	height="213.02">
<g><style type="text/css" >
<!-- create color definitions -->
<![CDATA[
circle.red {stroke: rgb(255, 0, 255); fill: none; }
circle.green {stroke: rgb(0, 255, 0); fill: none; }
circle.blue {stroke: rgb(0, 0, 255); fill: none; }
circle.black {stroke: rgb(0, 0, 0); fill: none; }
circle.gray {stroke: rgb(204, 204, 204); fill: none; }
circle.brown {stroke: rgb(211.65, 104.55, 30.6); fill: none; }
line.red {stroke: rgb(255, 0, 255); stroke-width: 0.382333; }
line.green {stroke: rgb(0, 255, 0); stroke-width: 0.382333; }
line.blue {stroke: rgb(0, 0, 255); stroke-width: 0.382333; }
line.black {stroke: rgb(0, 0, 0); stroke-width: 0.382333; }
line.gray {stroke: rgb(204, 204, 204); stroke-width: 0.382333; }
line.brown {stroke: rgb(211.65, 104.55, 30.6); stroke-width: 0.382333; }
line {stroke: rgb(0, 0, 0); }
text.red {fill: rgb(255, 0, 255); font-size: 3.058663px; font-weight: bold; font-family: Helvetica; }
text.green {fill: rgb(0, 255, 0); font-size: 3.058663px; font-weight: bold; font-family: Helvetica; }
text.blue {fill: rgb(0, 0, 255); font-size: 3.058663px; font-weight: bold; font-family: Helvetica; }
text.black {fill: rgb(0, 0, 0); font-size: 3.058663px; font-weight: bold; font-family: Helvetica; }
text.gray {fill: rgb(204, 204, 204); font-size: 3.058663px; font-weight: bold; font-family: Helvetica; }
text.brown {fill: rgb(211.65, 104.55, 30.6); font-size: 3.058663px; font-weight: bold; font-family: Helvetica; }
text {fill: rgb(0, 0, 0); font-size: 3.058663px; font-weight: bold; font-family: Helvetica; text-anchor: middle; alignment-baseline: middle; }

.pseudoknot_connection{stroke-linecap: round; stroke-opacity: 0.2; stroke-width: 1.5; }
.pseudoknot_segment1{stroke-linecap: round; stroke-opacity: 0.4; stroke-width: 3.05866; }
.pseudoknot_segment2{stroke-linecap: round; stroke-opacity: 0.4; stroke-width: 3.05866; }
line.numbering-line{stroke: rgb(204, 204, 204); stroke-width: 0.191166; }
line.predicted{stroke: rgb(0, 0, 0); stroke-dasharray: 2; }
polyline{fill: none; stroke-linejoin: round; }
template{visibility: hidden; }
text.numbering-label{fill: rgb(204, 204, 204); }
]]>
</style></g>
<g><title>0 (position.label in template: 0.5')</title><text x="84.4953" y="149.521" class="green" >5'</text></g>
<g><title>1 (position.label in template: 1.A)</title><text x="92.0609" y="149.521" class="black" >A</text></g>
<g><title>2 (position.label in template: 2.C)</title><text x="99.6264" y="149.521" class="black" >C</text></g>
<g><title>3 (position.label in template: 3.C)</title><text x="107.192" y="149.521" class="black" >C</text></g>
<g><title>4 (position.label in template: 4.G)</title><text x="114.758" y="149.521" class="black" >G</text></g>
<g><title>5 (position.label in template: 5.C)</title><text x="122.323" y="149.521" class="black" >C</text></g>
<g><title>6 (position.label in template: 6.A)</title><text x="127.77" y="144.27" class="black" >A</text></g>
<g><line x1="129.809" y1="143.964" x2="137.971" y2="143.964" class="black" /></g>
<g><title>7 (position.label in template: 7.C)</title><text x="127.56" y="136.71" class="black" >C</text></g>
<g><line x1="129.599" y1="136.404" x2="137.551" y2="136.404" class="black" /></g>
<g><title>8 (position.label in template: 8.G)</title><text x="127.35" y="129.15" class="black" >G</text></g>
<g><line x1="129.389" y1="128.844" x2="137.761" y2="128.844" class="black" /></g>
<g><title>9 (position.label in template: 9.C)</title><text x="127.56" y="121.59" class="black" >C</text></g>
<g><line x1="129.599" y1="121.284" x2="137.551" y2="121.284" class="black" /></g>
<g><title>10 (position.label in template: 10.U)</title><text x="127.56" y="114.03" class="green" >T</text></g>
<g><line x1="129.599" y1="113.724" x2="137.971" y2="113.724" class="black" /></g>
<g><text x="121.499" y="117.289" class="numbering-label sequential" >10</text></g>
<g><line x1="125.944" y1="114.899" x2="123.334" y2="116.302" class="numbering-line sequential" /></g>
<g><title>11 (position.label in template: 11.A)</title><text x="121.35" y="110.04" class="green" >A</text></g>
<g><line x1="120.418" y1="107.921" x2="116.642" y2="100.578" class="black" /></g>
<g><title>12 (position.label in template: 12.G)</title><text x="114.15" y="113.39" class="green" >G</text></g>
<g><line x1="113.275" y1="111.242" x2="109.815" y2="103.956" class="black" /></g>
<g><title>13 (position.label in template: 13.G)</title><text x="107.37" y="116.74" class="black" >G</text></g>
<g><line x1="106.495" y1="114.592" x2="103.035" y2="107.306" class="black" /></g>
<g><title>14 (position.label in template: 14.G)</title><text x="100.6" y="120.09" class="black" >G</text></g>
<g><line x1="99.7238" y1="117.943" x2="96.2562" y2="110.655" class="black" /></g>
<g><title>15 (position.label in template: 15.G)</title><text x="95.79" y="125.93" class="black" >G</text></g>
<g><title>16 (position.label in template: 16.U)</title><text x="88.45" y="126.2" class="green" >T</text></g>
<g><line x1="87.5454" y1="124.067" x2="83.9246" y2="116.752" class="black" /></g>
<g><title>17 (position.label in template: 17.G)</title><text x="87.2" y="133.69" class="black" >G</text></g>
<g><line x1="85.8556" y1="134.917" x2="80.5644" y2="140.951" class="black" /></g>
<g><title>18 (position.label in template: 18.C)</title><text x="93.03" y="138.75" class="black" >C</text></g>
<g><line x1="91.6469" y1="139.942" x2="86.0131" y2="146.046" class="black" /></g>
<g><title>19 (position.label in template: 19.C)</title><text x="98.65" y="143.81" class="black" >C</text></g>
<g><line x1="97.2669" y1="145.002" x2="91.6331" y2="151.106" class="black" /></g>
<g><title>20 (position.label in template: 20.U)</title><text x="104.27" y="148.87" class="green" >T</text></g>
<g><line x1="102.924" y1="150.096" x2="97.6262" y2="156.123" class="black" /></g>
<g><text x="108.875" y="143.756" class="numbering-label sequential" >20</text></g>
<g><line x1="105.498" y1="147.506" x2="107.498" y2="145.285" class="numbering-line sequential" /></g>
<g><title>21 (position.label in template: 21.U)</title><text x="109.89" y="153.93" class="green" >T</text></g>
<g><line x1="108.506" y1="155.122" x2="102.874" y2="161.217" class="black" /></g>
<g><title>22 (position.label in template: 22.C)</title><text x="111.18" y="161.38" class="black" >C</text></g>
<g><title>23 (position.label in template: 23.G)</title><text x="101.49" y="163.02" class="green" >G</text></g>
<g><title>24 (position.label in template: 24.A)</title><text x="96.28" y="157.96" class="green" >A</text></g>
<g><title>25 (position.label in template: 25.G)</title><text x="90.25" y="152.91" class="black" >G</text></g>
<g><title>26 (position.label in template: 26.G)</title><text x="84.63" y="147.85" class="black" >G</text></g>
<g><title>27 (position.label in template: 27.C)</title><text x="79.22" y="142.79" class="black" >C</text></g>
<g><title>28 (position.label in template: 28.U)</title><text x="71.88" y="144.6" class="green" >T</text></g>
<g><title>29 (position.label in template: 29.G)</title><text x="64.28" y="143.03" class="black" >G</text></g>
<g><title>30 (position.label in template: 30.A)</title><text x="58.72" y="138.39" class="black" >A</text></g>
<g><text x="53.3882" y="142.741" class="numbering-label sequential" >30</text></g>
<g><line x1="57.2982" y1="139.55" x2="55.2622" y2="141.212" class="numbering-line sequential" /></g>
<g><title>31 (position.label in template: 31.G)</title><text x="54.96" y="131.61" class="black" >G</text></g>
<g><title>32 (position.label in template: 32.A)</title><text x="55.31" y="124.05" class="black" >A</text></g>
<g><title>33 (position.label in template: 33.A)</title><text x="58.55" y="117.22" class="black" >A</text></g>
<g><title>34 (position.label in template: 34.C)</title><text x="64.24" y="112.49" class="black" >C</text></g>
<g><line x1="66.2722" y1="112.016" x2="74.1978" y2="111.362" class="black" /></g>
<g><title>35 (position.label in template: 35.G)</title><text x="63.43" y="104.95" class="black" >G</text></g>
<g><line x1="65.4628" y1="104.484" x2="73.8072" y2="103.825" class="black" /></g>
<g><title>36 (position.label in template: 36.A)</title><text x="63.23" y="97.42" class="green" >A</text></g>
<g><line x1="65.2622" y1="96.9465" x2="73.1978" y2="96.2918" class="black" /></g>
<g><title>37 (position.label in template: 37.G)</title><text x="62.21" y="89.88" class="green" >G</text></g>
<g><line x1="64.2428" y1="89.4136" x2="72.5872" y2="88.7547" class="black" /></g>
<g><title>38 (position.label in template: 38.C)</title><text x="61.81" y="82.35" class="black" >C</text></g>
<g><line x1="63.8422" y1="81.8763" x2="71.7678" y2="81.2219" class="black" /></g>
<g><title>39 (position.label in template: 39.C)</title><text x="55.28" y="78.54" class="black" >C</text></g>
<g><title>40 (position.label in template: 40.G)</title><text x="50.92" y="72.22" class="black" >G</text></g>
<g><title>41 (position.label in template: 41.G)</title><text x="50" y="64.72" class="black" >G</text></g>
<g><title>42 (position.label in template: 42.G)</title><text x="52.51" y="57.59" class="black" >G</text></g>
<g><title>43 (position.label in template: 43.A)</title><text x="58.35" y="52.32" class="black" >A</text></g>
<g><title>44 (position.label in template: 44.U)</title><text x="65.34" y="50" class="green" >T</text></g>
<g><title>45 (position.label in template: 45.U)</title><text x="72.82" y="51.13" class="green" >T</text></g>
<g><title>46 (position.label in template: 46.A)</title><text x="79.22" y="55.47" class="black" >A</text></g>
<g><title>47 (position.label in template: 47.G)</title><text x="82.43" y="62.1" class="black" >G</text></g>
<g><title>48 (position.label in template: 48.C)</title><text x="82.94" y="69.65" class="black" >C</text></g>
<g><title>49 (position.label in template: 49.G)</title><text x="79.64" y="76.55" class="black" >G</text></g>
<g><title>50 (position.label in template: 50.G)</title><text x="73.8" y="81.36" class="black" >G</text></g>
<g><text x="80.1754" y="83.9515" class="numbering-label sequential" >50</text></g>
<g><line x1="75.5001" y1="82.0511" x2="78.3402" y2="83.2055" class="numbering-line sequential" /></g>
<g><title>51 (position.label in template: 51.U)</title><text x="74.62" y="88.9" class="green" >T</text></g>
<g><title>52 (position.label in template: 52.U)</title><text x="75.23" y="96.43" class="green" >T</text></g>
<g><title>53 (position.label in template: 53.C)</title><text x="75.84" y="103.97" class="black" >C</text></g>
<g><title>54 (position.label in template: 54.G)</title><text x="76.23" y="111.5" class="black" >G</text></g>
<g><title>55 (position.label in template: 55.U)</title><text x="83.02" y="115.23" class="green" >T</text></g>
<g><title>56 (position.label in template: 56.A)</title><text x="82.97" y="107.68" class="black" >A</text></g>
<g><title>57 (position.label in template: 57.C)</title><text x="89.54" y="104.33" class="black" >C</text></g>
<g><title>58 (position.label in template: 58.C)</title><text x="95.38" y="109.12" class="black" >C</text></g>
<g><title>59 (position.label in template: 59.C)</title><text x="102.16" y="105.77" class="black" >C</text></g>
<g><title>60 (position.label in template: 60.U)</title><text x="108.94" y="102.42" class="green" >T</text></g>
<g><title>61 (position.label in template: 61.U)</title><text x="115.71" y="99.07" class="green" >T</text></g>
<g><title>62 (position.label in template: 62.G)</title><text x="116.23" y="91.54" class="black" >G</text></g>
<g><title>63 (position.label in template: 63.C)</title><text x="120.19" y="84.98" class="black" >C</text></g>
<g><title>64 (position.label in template: 64.G)</title><text x="126.08" y="80.51" class="black" >G</text></g>
<g><title>65 (position.label in template: 65.A)</title><text x="133.89" y="78.93" class="black" >A</text></g>
<g><title>66 (position.label in template: 66.A)</title><text x="141.28" y="80.51" class="black" >A</text></g>
<g><title>67 (position.label in template: 67.C)</title><text x="147.17" y="84.98" class="black" >C</text></g>
<g><line x1="147.903" y1="86.5771" x2="150.807" y2="94.1212" class="black" /></g>
<g><title>68 (position.label in template: 68.U)</title><text x="154.19" y="82.15" class="green" >T</text></g>
<g><line x1="154.981" y1="83.7234" x2="158.179" y2="91.3149" class="black" /></g>
<g><title>69 (position.label in template: 69.U)</title><text x="161.2" y="79.32" class="green" >T</text></g>
<g><line x1="161.991" y1="80.8934" x2="165.189" y2="88.4849" class="black" /></g>
<g><title>70 (position.label in template: 70.G)</title><text x="168" y="76.5" class="black" >G</text></g>
<g><line x1="168.763" y1="78.0851" x2="171.817" y2="85.6532" class="black" /></g>
<g><title>71 (position.label in template: 71.A)</title><text x="172.14" y="69.92" class="black" >A</text></g>
<g><title>72 (position.label in template: 72.A)</title><text x="179.16" y="67.09" class="black" >A</text></g>
<g><title>73 (position.label in template: 73.C)</title><text x="186.2" y="69.24" class="black" >C</text></g>
<g><line x1="186.931" y1="70.8378" x2="189.829" y2="78.3904" class="black" /></g>
<g><title>74 (position.label in template: 74.C)</title><text x="193.21" y="66.42" class="black" >C</text></g>
<g><line x1="193.941" y1="68.0176" x2="196.839" y2="75.5606" class="black" /></g>
<g><title>75 (position.label in template: 75.G)</title><text x="200.01" y="63.59" class="black" >G</text></g>
<g><line x1="200.803" y1="65.1628" x2="204.007" y2="72.7555" class="black" /></g>
<g><title>76 (position.label in template: 76.G)</title><text x="207.02" y="60.76" class="black" >G</text></g>
<g><line x1="207.812" y1="62.333" x2="211.018" y2="69.9352" class="black" /></g>
<g><title>77 (position.label in template: 77.G)</title><text x="211.22" y="54.48" class="black" >G</text></g>
<g><title>78 (position.label in template: 78.U)</title><text x="218.74" y="52.54" class="green" >T</text></g>
<g><title>79 (position.label in template: 79.A)</title><text x="225.7" y="55.92" class="black" >A</text></g>
<g><title>80 (position.label in template: 80.A)</title><text x="228.53" y="62.94" class="black" >A</text></g>
<g><title>81 (position.label in template: 81.U)</title><text x="225.8" y="70.06" class="green" >T</text></g>
<g><title>82 (position.label in template: 82.G)</title><text x="218.98" y="73.74" class="black" >G</text></g>
<g><title>83 (position.label in template: 83.C)</title><text x="211.81" y="72.12" class="black" >C</text></g>
<g><title>84 (position.label in template: 84.C)</title><text x="204.8" y="74.94" class="black" >C</text></g>
<g><title>85 (position.label in template: 85.G)</title><text x="197.57" y="77.77" class="black" >G</text></g>
<g><title>86 (position.label in template: 86.G)</title><text x="190.56" y="80.6" class="black" >G</text></g>
<g><title>87 (position.label in template: 87.C)</title><text x="187.04" y="87.17" class="black" >C</text></g>
<g><title>88 (position.label in template: 88.G)</title><text x="179.82" y="90" class="black" >G</text></g>
<g><title>89 (position.label in template: 89.G)</title><text x="172.58" y="87.85" class="black" >G</text></g>
<g><title>90 (position.label in template: 90.A)</title><text x="165.98" y="90.67" class="green" >A</text></g>
<g><title>91 (position.label in template: 91.A)</title><text x="158.97" y="93.5" class="green" >A</text></g>
<g><title>92 (position.label in template: 92.G)</title><text x="151.54" y="96.33" class="black" >G</text></g>
<g><title>93 (position.label in template: 93.G)</title><text x="150.24" y="103.78" class="black" >G</text></g>
<g><title>94 (position.label in template: 94.A)</title><text x="146.43" y="110.04" class="black" >A</text></g>
<g><title>95 (position.label in template: 95.A)</title><text x="140.01" y="114.03" class="green" >A</text></g>
<g><title>96 (position.label in template: 96.G)</title><text x="139.59" y="121.59" class="black" >G</text></g>
<g><title>97 (position.label in template: 97.C)</title><text x="139.8" y="129.15" class="black" >C</text></g>
<g><title>98 (position.label in template: 98.G)</title><text x="139.59" y="136.71" class="black" >G</text></g>
<g><title>99 (position.label in template: 99.A)</title><text x="140.01" y="144.27" class="black" >A</text></g>
<g><title>100 (position.label in template: 100.C)</title><text x="145.252" y="149.726" class="black" >C</text></g>
<g><text x="142.554" y="156.057" class="numbering-label sequential" >100</text></g>
<g><line x1="144.532" y1="151.414" x2="143.206" y2="154.528" class="numbering-line sequential" /></g>
<g><title>101 (position.label in template: 101.G)</title><text x="152.817" y="149.726" class="black" >G</text></g>
<g><title>102 (position.label in template: 102.G)</title><text x="160.383" y="149.726" class="black" >G</text></g>
<g><title>103 (position.label in template: 103.U)</title><text x="167.948" y="149.726" class="green" >T</text></g>
<g><title>104 (position.label in template: 104.G)</title><text x="175.514" y="149.726" class="black" >G</text></g>
<g><title>105 (position.label in template: 105.U)</title><text x="183.079" y="149.726" class="green" >T</text></g>
<g><title>106 (position.label in template: 106.C)</title><text x="190.645" y="149.726" class="black" >C</text></g>
<g><title>107 (position.label in template: 107.U)</title><text x="198.21" y="149.726" class="green" >T</text></g>
<g><title>108 (position.label in template: 108.G)</title><text x="205.776" y="149.726" class="black" >G</text></g>
<g><title>109 (position.label in template: 109.G)</title><text x="213.342" y="149.726" class="black" >G</text></g>
<g><title>110 (position.label in template: 110.G)</title><text x="220.907" y="149.726" class="black" >G</text></g>
<g><title>111 (position.label in template: 111.G)</title><text x="228.473" y="149.726" class="black" >G</text></g>
<g><title>112 (position.label in template: 112.3')</title><text x="236.038" y="149.726" class="green" >3'</text></g>
<g><line x1="86.5344" y1="149.215" x2="90.0217" y2="149.215" class="gray" /></g>
<g><line x1="94.1" y1="149.215" x2="97.5873" y2="149.215" class="gray" /></g>
<g><line x1="101.666" y1="149.215" x2="105.153" y2="149.215" class="gray" /></g>
<g><line x1="109.231" y1="149.215" x2="112.718" y2="149.215" class="gray" /></g>
<g><line x1="116.797" y1="149.215" x2="120.284" y2="149.215" class="gray" /></g>
<g><line x1="123.791" y1="147.8" x2="126.302" y2="145.379" class="gray" /></g>
<g><line x1="127.713" y1="141.926" x2="127.617" y2="138.442" class="gray" /></g>
<g><line x1="127.503" y1="134.366" x2="127.407" y2="130.882" class="gray" /></g>
<g><line x1="127.407" y1="126.806" x2="127.503" y2="123.322" class="gray" /></g>
<g><line x1="127.56" y1="119.245" x2="127.56" y2="115.763" class="gray" /></g>
<g><line x1="125.844" y1="112.622" x2="123.066" y2="110.836" class="gray" /></g>
<g><line x1="119.501" y1="110.594" x2="115.999" y2="112.224" class="gray" /></g>
<g><line x1="112.322" y1="113.987" x2="109.198" y2="115.531" class="gray" /></g>
<g><line x1="105.542" y1="117.338" x2="102.428" y2="118.88" class="gray" /></g>
<g><line x1="99.3036" y1="121.358" x2="97.0864" y2="124.05" class="gray" /></g>
<g><line x1="93.7523" y1="125.699" x2="90.4877" y2="125.819" class="gray" /></g>
<g><line x1="88.1143" y1="127.905" x2="87.5357" y2="131.373" class="gray" /></g>
<g><line x1="88.74" y1="134.721" x2="91.49" y2="137.108" class="gray" /></g>
<g><line x1="94.5454" y1="139.809" x2="97.1346" y2="142.14" class="gray" /></g>
<g><line x1="100.165" y1="144.869" x2="102.755" y2="147.2" class="gray" /></g>
<g><line x1="105.785" y1="149.929" x2="108.375" y2="152.26" class="gray" /></g>
<g><line x1="110.238" y1="155.633" x2="110.832" y2="159.065" class="gray" /></g>
<g><line x1="109.169" y1="161.414" x2="103.501" y2="162.374" class="gray" /></g>
<g><line x1="100.027" y1="161.293" x2="97.7428" y2="159.075" class="gray" /></g>
<g><line x1="94.7167" y1="156.345" x2="91.8133" y2="153.913" class="gray" /></g>
<g><line x1="88.7346" y1="151.24" x2="86.1454" y2="148.909" class="gray" /></g>
<g><line x1="83.1408" y1="146.151" x2="80.7092" y2="143.877" class="gray" /></g>
<g><line x1="77.2402" y1="142.972" x2="73.8598" y2="143.806" class="gray" /></g>
<g><line x1="69.8831" y1="143.882" x2="66.2769" y2="143.137" class="gray" /></g>
<g><line x1="62.7144" y1="141.418" x2="60.2856" y2="139.391" class="gray" /></g>
<g><line x1="57.7311" y1="136.301" x2="55.9489" y2="133.087" class="gray" /></g>
<g><line x1="55.0543" y1="129.267" x2="55.2157" y2="125.781" class="gray" /></g>
<g><line x1="56.184" y1="121.902" x2="57.676" y2="118.756" class="gray" /></g>
<g><line x1="60.1181" y1="115.611" x2="62.6719" y2="113.488" class="gray" /></g>
<g><line x1="64.0222" y1="110.157" x2="63.6478" y2="106.672" class="gray" /></g>
<g><line x1="63.3759" y1="102.606" x2="63.2841" y2="99.1525" class="gray" /></g>
<g><line x1="62.9566" y1="95.0934" x2="62.4834" y2="91.5948" class="gray" /></g>
<g><line x1="62.1018" y1="87.5379" x2="61.9182" y2="84.0804" class="gray" /></g>
<g><line x1="60.0488" y1="81.0165" x2="57.0412" y2="79.2617" class="gray" /></g>
<g><line x1="54.1221" y1="76.5557" x2="52.0779" y2="73.5926" class="gray" /></g>
<g><line x1="50.6717" y1="69.8902" x2="50.2483" y2="66.4381" class="gray" /></g>
<g><line x1="50.6771" y1="62.4907" x2="51.8329" y2="59.2075" class="gray" /></g>
<g><line x1="54.0239" y1="55.918" x2="56.8361" y2="53.3802" class="gray" /></g>
<g><line x1="60.2853" y1="51.3718" x2="63.4047" y2="50.3365" class="gray" /></g>
<g><line x1="67.3562" y1="49.9987" x2="70.8038" y2="50.5195" class="gray" /></g>
<g><line x1="74.5077" y1="51.9686" x2="77.5323" y2="54.0197" class="gray" /></g>
<g><line x1="80.1086" y1="56.9994" x2="81.5414" y2="59.9588" class="gray" /></g>
<g><line x1="82.5674" y1="63.8286" x2="82.8026" y2="67.3097" class="gray" /></g>
<g><line x1="82.0602" y1="71.1837" x2="80.5198" y2="74.4046" class="gray" /></g>
<g><line x1="78.066" y1="77.5405" x2="75.374" y2="79.7578" class="gray" /></g>
<g><line x1="74.0205" y1="83.0813" x2="74.3995" y2="86.567" class="gray" /></g>
<g><line x1="74.7846" y1="90.6266" x2="75.0654" y2="94.0917" class="gray" /></g>
<g><line x1="75.3944" y1="98.1566" x2="75.6756" y2="101.632" class="gray" /></g>
<g><line x1="75.9455" y1="105.701" x2="76.1245" y2="109.158" class="gray" /></g>
<g><line x1="78.0172" y1="112.176" x2="81.2328" y2="113.942" class="gray" /></g>
<g><line x1="83.0065" y1="112.885" x2="82.9835" y2="109.413" class="gray" /></g>
<g><line x1="84.7866" y1="106.448" x2="87.7234" y2="104.95" class="gray" /></g>
<g><line x1="91.1166" y1="105.317" x2="93.8034" y2="107.521" class="gray" /></g>
<g><line x1="97.2081" y1="107.911" x2="100.332" y2="106.367" class="gray" /></g>
<g><line x1="103.988" y1="104.561" x2="107.112" y2="103.017" class="gray" /></g>
<g><line x1="110.768" y1="101.21" x2="113.882" y2="99.6685" class="gray" /></g>
<g><line x1="115.85" y1="96.7299" x2="116.09" y2="93.2684" class="gray" /></g>
<g><line x1="117.284" y1="89.4884" x2="119.136" y2="86.4198" class="gray" /></g>
<g><line x1="121.814" y1="83.4414" x2="124.456" y2="81.4368" class="gray" /></g>
<g><line x1="128.079" y1="79.7998" x2="131.891" y2="79.0285" class="gray" /></g>
<g><line x1="135.884" y1="79.0505" x2="139.286" y2="79.7778" class="gray" /></g>
<g><line x1="142.904" y1="81.4368" x2="145.546" y2="83.4414" class="gray" /></g>
<g><line x1="149.061" y1="83.9117" x2="152.299" y2="82.6065" class="gray" /></g>
<g><line x1="156.081" y1="81.0808" x2="159.309" y2="79.7775" class="gray" /></g>
<g><line x1="163.084" y1="78.233" x2="166.116" y2="76.9753" class="gray" /></g>
<g><line x1="169.086" y1="74.4682" x2="171.054" y2="71.34" class="gray" /></g>
<g><line x1="174.031" y1="68.8517" x2="177.269" y2="67.5465" class="gray" /></g>
<g><line x1="181.11" y1="67.3797" x2="184.25" y2="68.3385" class="gray" /></g>
<g><line x1="188.092" y1="68.1731" x2="191.318" y2="66.8752" class="gray" /></g>
<g><line x1="195.093" y1="65.3306" x2="198.127" y2="64.0676" class="gray" /></g>
<g><line x1="201.901" y1="62.5208" x2="205.129" y2="61.2175" class="gray" /></g>
<g><line x1="208.154" y1="58.7592" x2="210.086" y2="55.8691" class="gray" /></g>
<g><line x1="213.194" y1="53.6648" x2="216.766" y2="52.7435" class="gray" /></g>
<g><line x1="220.574" y1="53.1249" x2="223.866" y2="54.7234" class="gray" /></g>
<g><line x1="226.462" y1="57.5053" x2="227.768" y2="60.7429" class="gray" /></g>
<g><line x1="227.8" y1="64.5381" x2="226.53" y2="67.8502" class="gray" /></g>
<g><line x1="224.005" y1="70.7224" x2="220.775" y2="72.4658" class="gray" /></g>
<g><line x1="216.991" y1="72.9847" x2="213.799" y2="72.2635" class="gray" /></g>
<g><line x1="209.918" y1="72.5752" x2="206.692" y2="73.8731" class="gray" /></g>
<g><line x1="202.901" y1="75.3774" x2="199.469" y2="76.7209" class="gray" /></g>
<g><line x1="195.679" y1="78.2275" x2="192.451" y2="79.5308" class="gray" /></g>
<g><line x1="189.597" y1="82.0915" x2="188.003" y2="85.0667" class="gray" /></g>
<g><line x1="185.142" y1="87.6083" x2="181.718" y2="88.95" class="gray" /></g>
<g><line x1="177.865" y1="89.1137" x2="174.535" y2="88.1246" class="gray" /></g>
<g><line x1="170.705" y1="88.3453" x2="167.855" y2="89.5629" class="gray" /></g>
<g><line x1="164.089" y1="91.1275" x2="160.861" y2="92.4308" class="gray" /></g>
<g><line x1="157.064" y1="93.9199" x2="153.446" y2="95.2983" class="gray" /></g>
<g><line x1="151.189" y1="98.0329" x2="150.591" y2="101.465" class="gray" /></g>
<g><line x1="149.18" y1="105.216" x2="147.49" y2="107.992" class="gray" /></g>
<g><line x1="144.698" y1="110.81" x2="141.742" y2="112.648" class="gray" /></g>
<g><line x1="139.897" y1="115.76" x2="139.703" y2="119.248" class="gray" /></g>
<g><line x1="139.647" y1="123.322" x2="139.743" y2="126.806" class="gray" /></g>
<g><line x1="139.743" y1="130.882" x2="139.647" y2="134.366" class="gray" /></g>
<g><line x1="139.703" y1="138.44" x2="139.897" y2="141.928" class="gray" /></g>
<g><line x1="141.423" y1="145.435" x2="143.839" y2="147.949" class="gray" /></g>
<g><line x1="147.291" y1="149.42" x2="150.778" y2="149.42" class="gray" /></g>
<g><line x1="154.856" y1="149.42" x2="158.344" y2="149.42" class="gray" /></g>
<g><line x1="162.422" y1="149.42" x2="165.909" y2="149.42" class="gray" /></g>
<g><line x1="169.987" y1="149.42" x2="173.475" y2="149.42" class="gray" /></g>
<g><line x1="177.553" y1="149.42" x2="181.04" y2="149.42" class="gray" /></g>
<g><line x1="185.118" y1="149.42" x2="188.606" y2="149.42" class="gray" /></g>
<g><line x1="192.684" y1="149.42" x2="196.171" y2="149.42" class="gray" /></g>
<g><line x1="200.25" y1="149.42" x2="203.737" y2="149.42" class="gray" /></g>
<g><line x1="207.815" y1="149.42" x2="211.302" y2="149.42" class="gray" /></g>
<g><line x1="215.381" y1="149.42" x2="218.868" y2="149.42" class="gray" /></g>
<g><line x1="222.946" y1="149.42" x2="226.434" y2="149.42" class="gray" /></g>
<g><line x1="230.512" y1="149.42" x2="233.999" y2="149.42" class="gray" /></g>
</svg>
