<svg
	xmlns="http://www.w3.org/2000/svg"
	width="299.82"
	height="202.71">
<g><style type="text/css" >
<!-- create color definitions -->
<![CDATA[
circle.red {stroke: rgb(255, 0, 255); fill: none; }
circle.green {stroke: rgb(0, 255, 0); fill: none; }
circle.blue {stroke: rgb(0, 0, 255); fill: none; }
circle.black {stroke: rgb(0, 0, 0); fill: none; }
circle.gray {stroke: rgb(204, 204, 204); fill: none; }
circle.brown {stroke: rgb(211.65, 104.55, 30.6); fill: none; }
line.red {stroke: rgb(255, 0, 255); stroke-width: 0.382396; }
line.green {stroke: rgb(0, 255, 0); stroke-width: 0.382396; }
line.blue {stroke: rgb(0, 0, 255); stroke-width: 0.382396; }
line.black {stroke: rgb(0, 0, 0); stroke-width: 0.382396; }
line.gray {stroke: rgb(204, 204, 204); stroke-width: 0.382396; }
line.brown {stroke: rgb(211.65, 104.55, 30.6); stroke-width: 0.382396; }
line {stroke: rgb(0, 0, 0); }
text.red {fill: rgb(255, 0, 255); font-size: 3.059168px; font-weight: bold; font-family: Helvetica; }
text.green {fill: rgb(0, 255, 0); font-size: 3.059168px; font-weight: bold; font-family: Helvetica; }
text.blue {fill: rgb(0, 0, 255); font-size: 3.059168px; font-weight: bold; font-family: Helvetica; }
text.black {fill: rgb(0, 0, 0); font-size: 3.059168px; font-weight: bold; font-family: Helvetica; }
text.gray {fill: rgb(204, 204, 204); font-size: 3.059168px; font-weight: bold; font-family: Helvetica; }
text.brown {fill: rgb(211.65, 104.55, 30.6); font-size: 3.059168px; font-weight: bold; font-family: Helvetica; }
text {fill: rgb(0, 0, 0); font-size: 3.059168px; font-weight: bold; font-family: Helvetica; text-anchor: middle; alignment-baseline: middle; }

.pseudoknot_connection{stroke-linecap: round; stroke-opacity: 0.2; stroke-width: 1.5; }
.pseudoknot_segment1{stroke-linecap: round; stroke-opacity: 0.4; stroke-width: 3.05917; }
.pseudoknot_segment2{stroke-linecap: round; stroke-opacity: 0.4; stroke-width: 3.05917; }
line.numbering-line{stroke: rgb(204, 204, 204); stroke-width: 0.191198; }
line.predicted{stroke: rgb(0, 0, 0); stroke-dasharray: 2; }
polyline{fill: none; stroke-linejoin: round; }
template{visibility: hidden; }
text.numbering-label{fill: rgb(204, 204, 204); }
]]>
</style></g>
<g><title>0 (position.label in template: 0.5')</title><text x="105.74" y="146.985" class="green" >5'</text></g>
<g><title>1 (position.label in template: 1.C)</title><text x="113.312" y="146.985" class="black" >C</text></g>
<g><title>2 (position.label in template: 2.C)</title><text x="120.884" y="146.985" class="black" >C</text></g>
<g><title>3 (position.label in template: 3.U)</title><text x="128.455" y="146.985" class="green" >T</text></g>
<g><title>4 (position.label in template: 4.A)</title><text x="136.027" y="146.985" class="black" >A</text></g>
<g><title>5 (position.label in template: 5.U)</title><text x="143.599" y="146.985" class="green" >T</text></g>
<g><title>6 (position.label in template: 6.A)</title><text x="149.06" y="141.74" class="green" >A</text></g>
<g><line x1="151.099" y1="141.434" x2="159.051" y2="141.434" class="black" /></g>
<g><title>7 (position.label in template: 7.C)</title><text x="148.85" y="134.18" class="black" >C</text></g>
<g><line x1="150.889" y1="133.874" x2="158.841" y2="133.874" class="black" /></g>
<g><title>8 (position.label in template: 8.U)</title><text x="148.85" y="126.62" class="green" >T</text></g>
<g><line x1="150.889" y1="126.314" x2="159.261" y2="126.314" class="black" /></g>
<g><title>9 (position.label in template: 9.U)</title><text x="148.85" y="119.06" class="green" >T</text></g>
<g><line x1="150.889" y1="118.754" x2="159.261" y2="118.754" class="black" /></g>
<g><title>10 (position.label in template: 10.U)</title><text x="148.85" y="111.5" class="green" >T</text></g>
<g><line x1="150.889" y1="111.194" x2="159.261" y2="111.194" class="black" /></g>
<g><text x="142.79" y="114.764" class="numbering-label sequential" >10</text></g>
<g><line x1="147.234" y1="112.37" x2="144.625" y2="113.775" class="numbering-line sequential" /></g>
<g><title>11 (position.label in template: 11.A)</title><text x="142.63" y="107.51" class="green" >A</text></g>
<g><line x1="141.699" y1="105.389" x2="137.931" y2="98.0389" class="black" /></g>
<g><title>12 (position.label in template: 12.G)</title><text x="135.44" y="110.86" class="black" >G</text></g>
<g><line x1="134.566" y1="108.712" x2="131.104" y2="101.417" class="black" /></g>
<g><title>13 (position.label in template: 13.G)</title><text x="128.66" y="114.21" class="black" >G</text></g>
<g><line x1="127.785" y1="112.062" x2="124.325" y2="104.776" class="black" /></g>
<g><title>14 (position.label in template: 14.G)</title><text x="121.89" y="117.56" class="black" >G</text></g>
<g><line x1="121.014" y1="115.413" x2="117.546" y2="108.126" class="black" /></g>
<g><title>15 (position.label in template: 15.G)</title><text x="117.08" y="123.39" class="black" >G</text></g>
<g><title>16 (position.label in template: 16.U)</title><text x="109.73" y="123.67" class="green" >T</text></g>
<g><line x1="108.827" y1="121.536" x2="105.213" y2="114.223" class="black" /></g>
<g><title>17 (position.label in template: 17.G)</title><text x="102.75" y="127.02" class="black" >G</text></g>
<g><line x1="101.874" y1="124.873" x2="98.4063" y2="117.586" class="black" /></g>
<g><title>18 (position.label in template: 18.U)</title><text x="96.18" y="130.37" class="green" >T</text></g>
<g><line x1="95.3037" y1="128.223" x2="91.8363" y2="120.936" class="black" /></g>
<g><title>19 (position.label in template: 19.C)</title><text x="89.4" y="133.72" class="black" >C</text></g>
<g><line x1="88.4688" y1="131.6" x2="84.7012" y2="124.259" class="black" /></g>
<g><title>20 (position.label in template: 20.U)</title><text x="82.63" y="137.07" class="green" >T</text></g>
<g><line x1="81.7537" y1="134.923" x2="78.2863" y2="127.636" class="black" /></g>
<g><text x="85.6433" y="143.258" class="numbering-label sequential" >20</text></g>
<g><line x1="83.4335" y1="138.72" x2="84.8985" y2="141.729" class="numbering-line sequential" /></g>
<g><title>21 (position.label in template: 21.G)</title><text x="75.64" y="140.42" class="black" >G</text></g>
<g><line x1="74.7637" y1="138.273" x2="71.2963" y2="130.986" class="black" /></g>
<g><title>22 (position.label in template: 22.U)</title><text x="73.43" y="147.58" class="green" >T</text></g>
<g><title>23 (position.label in template: 23.U)</title><text x="67.45" y="152.2" class="green" >T</text></g>
<g><title>24 (position.label in template: 24.A)</title><text x="60.11" y="152.71" class="black" >A</text></g>
<g><title>25 (position.label in template: 25.A)</title><text x="53.56" y="148.93" class="black" >A</text></g>
<g><title>26 (position.label in template: 26.C)</title><text x="50" y="142.16" class="black" >C</text></g>
<g><title>27 (position.label in template: 27.A)</title><text x="51.19" y="134.66" class="black" >A</text></g>
<g><title>28 (position.label in template: 28.A)</title><text x="56.17" y="128.97" class="black" >A</text></g>
<g><title>29 (position.label in template: 29.A)</title><text x="63.47" y="127.02" class="black" >A</text></g>
<g><title>30 (position.label in template: 30.C)</title><text x="70.42" y="129.45" class="black" >C</text></g>
<g><text x="69.9667" y="122.582" class="numbering-label sequential" >30</text></g>
<g><line x1="70.2991" y1="127.618" x2="70.0677" y2="124.111" class="numbering-line sequential" /></g>
<g><title>31 (position.label in template: 31.A)</title><text x="77.41" y="126.1" class="green" >A</text></g>
<g><title>32 (position.label in template: 32.G)</title><text x="83.77" y="122.75" class="black" >G</text></g>
<g><title>33 (position.label in template: 33.A)</title><text x="90.96" y="119.4" class="green" >A</text></g>
<g><title>34 (position.label in template: 34.C)</title><text x="97.53" y="116.05" class="black" >C</text></g>
<g><title>35 (position.label in template: 35.U)</title><text x="90.19" y="114.26" class="green" >T</text></g>
<g><title>36 (position.label in template: 36.G)</title><text x="85.5" y="108.17" class="black" >G</text></g>
<g><title>37 (position.label in template: 37.A)</title><text x="86.4" y="100.62" class="black" >A</text></g>
<g><title>38 (position.label in template: 38.G)</title><text x="91.21" y="95.16" class="black" >G</text></g>
<g><title>39 (position.label in template: 39.A)</title><text x="99.14" y="94.32" class="black" >A</text></g>
<g><title>40 (position.label in template: 40.C)</title><text x="105.23" y="98.52" class="black" >C</text></g>
<g><title>41 (position.label in template: 41.U)</title><text x="107.35" y="105.77" class="green" >T</text></g>
<g><title>42 (position.label in template: 42.U)</title><text x="104.31" y="112.7" class="green" >T</text></g>
<g><title>43 (position.label in template: 43.U)</title><text x="104.05" y="105.14" class="green" >T</text></g>
<g><title>44 (position.label in template: 44.A)</title><text x="111.03" y="101.79" class="black" >A</text></g>
<g><title>45 (position.label in template: 45.C)</title><text x="116.67" y="106.59" class="black" >C</text></g>
<g><title>46 (position.label in template: 46.C)</title><text x="123.45" y="103.24" class="black" >C</text></g>
<g><title>47 (position.label in template: 47.C)</title><text x="130.23" y="99.88" class="black" >C</text></g>
<g><title>48 (position.label in template: 48.U)</title><text x="137" y="96.53" class="green" >T</text></g>
<g><title>49 (position.label in template: 49.U)</title><text x="137.73" y="89.01" class="green" >T</text></g>
<g><title>50 (position.label in template: 50.U)</title><text x="141.48" y="82.44" class="green" >T</text></g>
<g><text x="136.297" y="77.9104" class="numbering-label sequential" >50</text></g>
<g><line x1="140.098" y1="81.2321" x2="138.133" y2="79.5146" class="numbering-line sequential" /></g>
<g><title>51 (position.label in template: 51.G)</title><text x="147.37" y="77.98" class="black" >G</text></g>
<g><title>52 (position.label in template: 52.A)</title><text x="155.18" y="76.4" class="black" >A</text></g>
<g><title>53 (position.label in template: 53.A)</title><text x="162.57" y="77.98" class="black" >A</text></g>
<g><title>54 (position.label in template: 54.C)</title><text x="168.46" y="82.44" class="black" >C</text></g>
<g><line x1="169.193" y1="84.0373" x2="172.097" y2="91.5808" class="black" /></g>
<g><title>55 (position.label in template: 55.C)</title><text x="175.48" y="79.61" class="black" >C</text></g>
<g><line x1="176.211" y1="81.2081" x2="179.109" y2="88.7601" class="black" /></g>
<g><title>56 (position.label in template: 56.U)</title><text x="182.49" y="76.79" class="green" >T</text></g>
<g><line x1="183.282" y1="78.3636" x2="186.478" y2="85.9545" class="black" /></g>
<g><title>57 (position.label in template: 57.G)</title><text x="189.29" y="73.96" class="green" >G</text></g>
<g><line x1="190.083" y1="75.5331" x2="193.287" y2="83.1251" class="black" /></g>
<g><title>58 (position.label in template: 58.A)</title><text x="193.43" y="67.38" class="black" >A</text></g>
<g><title>59 (position.label in template: 59.U)</title><text x="200.24" y="64.56" class="green" >T</text></g>
<g><title>60 (position.label in template: 60.C)</title><text x="207.49" y="66.71" class="black" >C</text></g>
<g><line x1="208.221" y1="68.3079" x2="211.119" y2="75.8503" class="black" /></g>
<g><title>61 (position.label in template: 61.U)</title><text x="214.5" y="63.88" class="green" >T</text></g>
<g><line x1="215.291" y1="65.4539" x2="218.489" y2="73.0543" class="black" /></g>
<g><title>62 (position.label in template: 62.G)</title><text x="221.3" y="61.06" class="black" >G</text></g>
<g><line x1="222.093" y1="62.6331" x2="225.297" y2="70.2251" class="black" /></g>
<g><title>63 (position.label in template: 63.G)</title><text x="228.31" y="58.23" class="black" >G</text></g>
<g><line x1="229.103" y1="59.8031" x2="232.307" y2="67.3951" class="black" /></g>
<g><title>64 (position.label in template: 64.A)</title><text x="232.92" y="51.94" class="black" >A</text></g>
<g><title>65 (position.label in template: 65.U)</title><text x="240.03" y="50" class="green" >T</text></g>
<g><title>66 (position.label in template: 66.C)</title><text x="246.78" y="53.39" class="black" >C</text></g>
<g><title>67 (position.label in template: 67.A)</title><text x="249.82" y="60.4" class="black" >A</text></g>
<g><title>68 (position.label in template: 68.U)</title><text x="247.09" y="67.53" class="green" >T</text></g>
<g><title>69 (position.label in template: 69.A)</title><text x="240.69" y="71.2" class="black" >A</text></g>
<g><title>70 (position.label in template: 70.C)</title><text x="233.1" y="69.58" class="black" >C</text></g>
<g><title>71 (position.label in template: 71.C)</title><text x="226.09" y="72.41" class="black" >C</text></g>
<g><title>72 (position.label in template: 72.A)</title><text x="219.28" y="75.24" class="green" >A</text></g>
<g><title>73 (position.label in template: 73.G)</title><text x="211.85" y="78.06" class="black" >G</text></g>
<g><title>74 (position.label in template: 74.C)</title><text x="208.33" y="84.64" class="black" >C</text></g>
<g><title>75 (position.label in template: 75.G)</title><text x="201.11" y="87.47" class="black" >G</text></g>
<g><title>76 (position.label in template: 76.U)</title><text x="194.08" y="85.31" class="green" >T</text></g>
<g><title>77 (position.label in template: 77.A)</title><text x="187.27" y="88.14" class="green" >A</text></g>
<g><title>78 (position.label in template: 78.G)</title><text x="179.84" y="90.97" class="black" >G</text></g>
<g><title>79 (position.label in template: 79.G)</title><text x="172.83" y="93.79" class="black" >G</text></g>
<g><title>80 (position.label in template: 80.G)</title><text x="171.53" y="101.24" class="black" >G</text></g>
<g><title>81 (position.label in template: 81.A)</title><text x="167.72" y="107.51" class="black" >A</text></g>
<g><title>82 (position.label in template: 82.A)</title><text x="161.3" y="111.5" class="green" >A</text></g>
<g><title>83 (position.label in template: 83.A)</title><text x="161.3" y="119.06" class="green" >A</text></g>
<g><title>84 (position.label in template: 84.A)</title><text x="161.3" y="126.62" class="green" >A</text></g>
<g><title>85 (position.label in template: 85.G)</title><text x="160.88" y="134.18" class="black" >G</text></g>
<g><title>86 (position.label in template: 86.U)</title><text x="161.09" y="141.74" class="green" >T</text></g>
<g><title>87 (position.label in template: 87.G)</title><text x="166.341" y="147.195" class="black" >G</text></g>
<g><title>88 (position.label in template: 88.A)</title><text x="173.913" y="147.195" class="black" >A</text></g>
<g><title>89 (position.label in template: 89.G)</title><text x="181.484" y="147.195" class="black" >G</text></g>
<g><title>90 (position.label in template: 90.A)</title><text x="189.056" y="147.195" class="black" >A</text></g>
<g><title>91 (position.label in template: 91.U)</title><text x="196.628" y="147.195" class="green" >T</text></g>
<g><title>92 (position.label in template: 92.G)</title><text x="204.2" y="147.195" class="black" >G</text></g>
<g><title>93 (position.label in template: 93.A)</title><text x="211.772" y="147.195" class="black" >A</text></g>
<g><title>94 (position.label in template: 94.C)</title><text x="219.343" y="147.195" class="black" >C</text></g>
<g><title>95 (position.label in template: 95.U)</title><text x="226.915" y="147.195" class="green" >T</text></g>
<g><title>96 (position.label in template: 96.U)</title><text x="234.487" y="147.195" class="green" >T</text></g>
<g><title>97 (position.label in template: 97.U)</title><text x="242.059" y="147.195" class="green" >T</text></g>
<g><title>98 (position.label in template: 98.U)</title><text x="249.63" y="147.195" class="green" >T</text></g>
<g><title>99 (position.label in template: 99.3')</title><text x="257.202" y="147.195" class="green" >3'</text></g>
<g><line x1="107.78" y1="146.679" x2="111.272" y2="146.679" class="gray" /></g>
<g><line x1="115.351" y1="146.679" x2="118.844" y2="146.679" class="gray" /></g>
<g><line x1="122.923" y1="146.679" x2="126.416" y2="146.679" class="gray" /></g>
<g><line x1="130.495" y1="146.679" x2="133.988" y2="146.679" class="gray" /></g>
<g><line x1="138.067" y1="146.679" x2="141.56" y2="146.679" class="gray" /></g>
<g><line x1="145.07" y1="145.266" x2="147.589" y2="142.847" class="gray" /></g>
<g><line x1="149.003" y1="139.395" x2="148.907" y2="135.913" class="gray" /></g>
<g><line x1="148.85" y1="131.835" x2="148.85" y2="128.354" class="gray" /></g>
<g><line x1="148.85" y1="124.275" x2="148.85" y2="120.794" class="gray" /></g>
<g><line x1="148.85" y1="116.715" x2="148.85" y2="113.234" class="gray" /></g>
<g><line x1="147.133" y1="110.093" x2="144.347" y2="108.305" class="gray" /></g>
<g><line x1="140.781" y1="108.065" x2="137.289" y2="109.693" class="gray" /></g>
<g><line x1="133.612" y1="111.458" x2="130.488" y2="113.001" class="gray" /></g>
<g><line x1="126.832" y1="114.809" x2="123.718" y2="116.35" class="gray" /></g>
<g><line x1="120.592" y1="118.827" x2="118.378" y2="121.511" class="gray" /></g>
<g><line x1="115.042" y1="123.162" x2="111.768" y2="123.286" class="gray" /></g>
<g><line x1="107.891" y1="124.247" x2="104.589" y2="125.832" class="gray" /></g>
<g><line x1="100.933" y1="127.641" x2="97.9969" y2="129.138" class="gray" /></g>
<g><line x1="94.3516" y1="130.968" x2="91.2284" y2="132.511" class="gray" /></g>
<g><line x1="87.5721" y1="134.319" x2="84.4579" y2="135.86" class="gray" /></g>
<g><line x1="80.7909" y1="137.646" x2="77.4791" y2="139.233" class="gray" /></g>
<g><line x1="75.0385" y1="142.063" x2="74.0315" y2="145.325" class="gray" /></g>
<g><line x1="71.8161" y1="148.521" x2="69.0639" y2="150.647" class="gray" /></g>
<g><line x1="65.4155" y1="152.035" x2="62.1445" y2="152.263" class="gray" /></g>
<g><line x1="58.3436" y1="151.385" x2="55.3264" y2="149.643" class="gray" /></g>
<g><line x1="52.6108" y1="146.819" x2="50.9492" y2="143.659" class="gray" /></g>
<g><line x1="50.3196" y1="139.84" x2="50.8704" y2="136.368" class="gray" /></g>
<g><line x1="52.5332" y1="132.819" x2="54.8268" y2="130.199" class="gray" /></g>
<g><line x1="58.1404" y1="128.138" x2="61.4996" y2="127.24" class="gray" /></g>
<g><line x1="65.3952" y1="127.387" x2="68.4948" y2="128.471" class="gray" /></g>
<g><line x1="72.2591" y1="128.263" x2="75.5709" y2="126.676" class="gray" /></g>
<g><line x1="79.2144" y1="124.844" x2="81.9656" y2="123.395" class="gray" /></g>
<g><line x1="85.6186" y1="121.583" x2="89.1114" y2="119.955" class="gray" /></g>
<g><line x1="92.7769" y1="118.168" x2="95.7131" y2="116.671" class="gray" /></g>
<g><line x1="95.5486" y1="115.261" x2="92.1714" y2="114.437" class="gray" /></g>
<g><line x1="88.9456" y1="112.338" x2="86.7444" y2="109.48" class="gray" /></g>
<g><line x1="85.7414" y1="105.839" x2="86.1586" y2="102.339" class="gray" /></g>
<g><line x1="87.7481" y1="98.7838" x2="89.8619" y2="96.3844" class="gray" /></g>
<g><line x1="93.2381" y1="94.6393" x2="97.1119" y2="94.2289" class="gray" /></g>
<g><line x1="100.819" y1="95.1719" x2="103.551" y2="97.0562" class="gray" /></g>
<g><line x1="105.802" y1="100.172" x2="106.778" y2="103.507" class="gray" /></g>
<g><line x1="106.531" y1="107.332" x2="105.129" y2="110.526" class="gray" /></g>
<g><line x1="104.24" y1="110.356" x2="104.12" y2="106.872" class="gray" /></g>
<g><line x1="105.889" y1="103.952" x2="109.191" y2="102.367" class="gray" /></g>
<g><line x1="112.583" y1="102.806" x2="115.117" y2="104.962" class="gray" /></g>
<g><line x1="118.498" y1="105.381" x2="121.622" y2="103.838" class="gray" /></g>
<g><line x1="125.277" y1="102.028" x2="128.403" y2="100.48" class="gray" /></g>
<g><line x1="132.058" y1="98.6696" x2="135.172" y2="97.1286" class="gray" /></g>
<g><line x1="137.197" y1="94.1942" x2="137.533" y2="90.734" class="gray" /></g>
<g><line x1="138.741" y1="86.9329" x2="140.469" y2="83.9053" class="gray" /></g>
<g><line x1="143.106" y1="80.9029" x2="145.744" y2="78.9052" class="gray" /></g>
<g><line x1="149.369" y1="77.2697" x2="153.181" y2="76.4985" class="gray" /></g>
<g><line x1="157.174" y1="76.5205" x2="160.576" y2="77.2477" class="gray" /></g>
<g><line x1="164.196" y1="78.9052" x2="166.834" y2="80.9029" class="gray" /></g>
<g><line x1="170.352" y1="81.3715" x2="173.588" y2="80.0666" class="gray" /></g>
<g><line x1="177.372" y1="78.5429" x2="180.598" y2="77.2452" class="gray" /></g>
<g><line x1="184.373" y1="75.7005" x2="187.407" y2="74.4377" class="gray" /></g>
<g><line x1="190.376" y1="71.9279" x2="192.344" y2="68.8003" class="gray" /></g>
<g><line x1="195.314" y1="66.2938" x2="198.356" y2="65.0344" class="gray" /></g>
<g><line x1="202.195" y1="64.8339" x2="205.535" y2="65.8242" class="gray" /></g>
<g><line x1="209.381" y1="65.6406" x2="212.609" y2="64.3376" class="gray" /></g>
<g><line x1="216.384" y1="62.7928" x2="219.416" y2="61.5353" class="gray" /></g>
<g><line x1="223.191" y1="59.9906" x2="226.419" y2="58.6876" class="gray" /></g>
<g><line x1="229.516" y1="56.2791" x2="231.714" y2="53.279" class="gray" /></g>
<g><line x1="234.888" y1="51.0972" x2="238.062" y2="50.2309" class="gray" /></g>
<g><line x1="241.853" y1="50.6094" x2="244.957" y2="52.1688" class="gray" /></g>
<g><line x1="247.591" y1="54.9552" x2="249.009" y2="58.223" class="gray" /></g>
<g><line x1="249.091" y1="61.9987" x2="247.819" y2="65.3195" class="gray" /></g>
<g><line x1="245.321" y1="68.2386" x2="242.459" y2="69.8796" class="gray" /></g>
<g><line x1="238.695" y1="70.4684" x2="235.095" y2="69.6998" class="gray" /></g>
<g><line x1="231.209" y1="70.0376" x2="227.981" y2="71.3406" class="gray" /></g>
<g><line x1="224.207" y1="72.8867" x2="221.163" y2="74.1514" class="gray" /></g>
<g><line x1="217.373" y1="75.6578" x2="213.757" y2="77.0304" class="gray" /></g>
<g><line x1="210.888" y1="79.5524" x2="209.292" y2="82.5358" class="gray" /></g>
<g><line x1="206.431" y1="85.0783" x2="203.009" y2="86.4198" class="gray" /></g>
<g><line x1="199.161" y1="86.5651" x2="196.029" y2="85.6031" class="gray" /></g>
<g><line x1="192.197" y1="85.7867" x2="189.153" y2="87.0514" class="gray" /></g>
<g><line x1="185.364" y1="88.56" x2="181.746" y2="89.9382" class="gray" /></g>
<g><line x1="177.948" y1="91.4252" x2="174.722" y2="92.7229" class="gray" /></g>
<g><line x1="172.479" y1="95.4932" x2="171.881" y2="98.925" class="gray" /></g>
<g><line x1="170.471" y1="102.677" x2="168.779" y2="105.461" class="gray" /></g>
<g><line x1="165.988" y1="108.281" x2="163.032" y2="110.118" class="gray" /></g>
<g><line x1="161.3" y1="113.234" x2="161.3" y2="116.715" class="gray" /></g>
<g><line x1="161.3" y1="120.794" x2="161.3" y2="124.275" class="gray" /></g>
<g><line x1="161.187" y1="128.35" x2="160.993" y2="131.838" class="gray" /></g>
<g><line x1="160.937" y1="135.913" x2="161.033" y2="139.395" class="gray" /></g>
<g><line x1="162.504" y1="142.903" x2="164.927" y2="145.42" class="gray" /></g>
<g><line x1="168.38" y1="146.889" x2="171.873" y2="146.889" class="gray" /></g>
<g><line x1="175.952" y1="146.889" x2="179.445" y2="146.889" class="gray" /></g>
<g><line x1="183.524" y1="146.889" x2="187.017" y2="146.889" class="gray" /></g>
<g><line x1="191.096" y1="146.889" x2="194.589" y2="146.889" class="gray" /></g>
<g><line x1="198.667" y1="146.889" x2="202.16" y2="146.889" class="gray" /></g>
<g><line x1="206.239" y1="146.889" x2="209.732" y2="146.889" class="gray" /></g>
<g><line x1="213.811" y1="146.889" x2="217.304" y2="146.889" class="gray" /></g>
<g><line x1="221.383" y1="146.889" x2="224.876" y2="146.889" class="gray" /></g>
<g><line x1="228.955" y1="146.889" x2="232.447" y2="146.889" class="gray" /></g>
<g><line x1="236.526" y1="146.889" x2="240.019" y2="146.889" class="gray" /></g>
<g><line x1="244.098" y1="146.889" x2="247.591" y2="146.889" class="gray" /></g>
<g><line x1="251.67" y1="146.889" x2="255.163" y2="146.889" class="gray" /></g>
</svg>
