<svg
	xmlns="http://www.w3.org/2000/svg"
	width="226.49"
	height="242.045">
<g><style type="text/css" >
<!-- create color definitions -->
<![CDATA[
circle.red {stroke: rgb(255, 0, 255); fill: none; }
circle.green {stroke: rgb(0, 255, 0); fill: none; }
circle.blue {stroke: rgb(0, 0, 255); fill: none; }
circle.black {stroke: rgb(0, 0, 0); fill: none; }
circle.gray {stroke: rgb(204, 204, 204); fill: none; }
circle.brown {stroke: rgb(211.65, 104.55, 30.6); fill: none; }
line.red {stroke: rgb(255, 0, 255); stroke-width: 0.384101; }
line.green {stroke: rgb(0, 255, 0); stroke-width: 0.384101; }
line.blue {stroke: rgb(0, 0, 255); stroke-width: 0.384101; }
line.black {stroke: rgb(0, 0, 0); stroke-width: 0.384101; }
line.gray {stroke: rgb(204, 204, 204); stroke-width: 0.384101; }
line.brown {stroke: rgb(211.65, 104.55, 30.6); stroke-width: 0.384101; }
line {stroke: rgb(0, 0, 0); }
text.red {fill: rgb(255, 0, 255); font-size: 3.072807px; font-weight: bold; font-family: Helvetica; }
text.green {fill: rgb(0, 255, 0); font-size: 3.072807px; font-weight: bold; font-family: Helvetica; }
text.blue {fill: rgb(0, 0, 255); font-size: 3.072807px; font-weight: bold; font-family: Helvetica; }
text.black {fill: rgb(0, 0, 0); font-size: 3.072807px; font-weight: bold; font-family: Helvetica; }
text.gray {fill: rgb(204, 204, 204); font-size: 3.072807px; font-weight: bold; font-family: Helvetica; }
text.brown {fill: rgb(211.65, 104.55, 30.6); font-size: 3.072807px; font-weight: bold; font-family: Helvetica; }
text {fill: rgb(0, 0, 0); font-size: 3.072807px; font-weight: bold; font-family: Helvetica; text-anchor: middle; alignment-baseline: middle; }

.pseudoknot_connection{stroke-linecap: round; stroke-opacity: 0.2; stroke-width: 1.5; }
.pseudoknot_segment1{stroke-linecap: round; stroke-opacity: 0.4; stroke-width: 3.07281; }
.pseudoknot_segment2{stroke-linecap: round; stroke-opacity: 0.4; stroke-width: 3.07281; }
line.numbering-line{stroke: rgb(204, 204, 204); stroke-width: 0.19205; }
line.predicted{stroke: rgb(0, 0, 0); stroke-dasharray: 2; }
polyline{fill: none; stroke-linejoin: round; }
template{visibility: hidden; }
text.numbering-label{fill: rgb(204, 204, 204); }
]]>
</style></g>
<g><title>0 (position.label in template: 0.5')</title><text x="109.67" y="194.143" class="green" >5'</text></g>
<g><title>1 (position.label in template: 1.G)</title><text x="110.09" y="186.59" class="green" >G</text></g>
<g><line x1="112.139" y1="186.283" x2="120.491" y2="186.283" class="black" /></g>
<g><title>2 (position.label in template: 2.A)</title><text x="110.51" y="179.03" class="black" >A</text></g>
<g><line x1="112.559" y1="178.723" x2="120.491" y2="178.723" class="black" /></g>
<g><title>3 (position.label in template: 3.G)</title><text x="110.09" y="171.47" class="black" >G</text></g>
<g><line x1="112.139" y1="171.163" x2="120.701" y2="171.163" class="black" /></g>
<g><title>4 (position.label in template: 4.G)</title><text x="110.09" y="163.91" class="black" >G</text></g>
<g><line x1="112.139" y1="163.603" x2="120.491" y2="163.603" class="black" /></g>
<g><title>5 (position.label in template: 5.G)</title><text x="110.09" y="156.35" class="black" >G</text></g>
<g><line x1="112.139" y1="156.043" x2="120.491" y2="156.043" class="black" /></g>
<g><title>6 (position.label in template: 6.U)</title><text x="110.3" y="148.79" class="green" >T</text></g>
<g><line x1="112.349" y1="148.483" x2="120.701" y2="148.483" class="black" /></g>
<g><title>7 (position.label in template: 7.G)</title><text x="110.09" y="141.23" class="green" >G</text></g>
<g><line x1="112.139" y1="140.923" x2="120.491" y2="140.923" class="black" /></g>
<g><title>8 (position.label in template: 8.U)</title><text x="103.48" y="137.97" class="green" >T</text></g>
<g><title>9 (position.label in template: 9.A)</title><text x="98.34" y="132.62" class="black" >A</text></g>
<g><title>10 (position.label in template: 10.G)</title><text x="94.66" y="125.8" class="black" >G</text></g>
<g><line x1="94.6951" y1="123.444" x2="94.8349" y2="115.301" class="black" /></g>
<g><text x="91.024" y="131.681" class="numbering-label sequential" >10</text></g>
<g><line x1="93.6904" y1="127.368" x2="91.974" y2="130.144" class="numbering-line sequential" /></g>
<g><title>11 (position.label in template: 11.C)</title><text x="87.31" y="125.8" class="black" >C</text></g>
<g><line x1="87.2749" y1="123.444" x2="87.1351" y2="115.301" class="black" /></g>
<g><title>12 (position.label in template: 12.U)</title><text x="79.75" y="125.8" class="green" >T</text></g>
<g><line x1="79.7851" y1="123.444" x2="79.9249" y2="115.301" class="black" /></g>
<g><title>13 (position.label in template: 13.C)</title><text x="72.19" y="125.8" class="black" >C</text></g>
<g><line x1="72.1549" y1="123.444" x2="72.0151" y2="115.301" class="black" /></g>
<g><title>14 (position.label in template: 14.A)</title><text x="66.63" y="130.69" class="black" >A</text></g>
<g><title>15 (position.label in template: 15.G)</title><text x="58.67" y="131.1" class="black" >G</text></g>
<g><title>16 (position.label in template: 16.G)</title><text x="52.41" y="126.85" class="black" >G</text></g>
<g><title>17 (position.label in template: 17.G)</title><text x="50" y="119.68" class="black" >G</text></g>
<g><title>18 (position.label in template: 18.G)</title><text x="52.41" y="112.52" class="black" >G</text></g>
<g><title>19 (position.label in template: 19.U)</title><text x="58.88" y="108.27" class="green" >T</text></g>
<g><title>20 (position.label in template: 20.A)</title><text x="66.63" y="108.68" class="black" >A</text></g>
<g><text x="69.2188" y="102.269" class="numbering-label sequential" >20</text></g>
<g><line x1="67.3203" y1="106.97" x2="68.5984" y2="103.806" class="numbering-line sequential" /></g>
<g><title>21 (position.label in template: 21.G)</title><text x="71.98" y="113.56" class="black" >G</text></g>
<g><title>22 (position.label in template: 22.A)</title><text x="79.96" y="113.56" class="green" >A</text></g>
<g><title>23 (position.label in template: 23.G)</title><text x="87.1" y="113.56" class="black" >G</text></g>
<g><title>24 (position.label in template: 24.C)</title><text x="94.87" y="113.56" class="black" >C</text></g>
<g><title>25 (position.label in template: 25.U)</title><text x="98.14" y="106.75" class="green" >T</text></g>
<g><title>26 (position.label in template: 26.C)</title><text x="103.48" y="101.4" class="black" >C</text></g>
<g><line x1="105.416" y1="100.422" x2="113.294" y2="97.6932" class="black" /></g>
<g><title>27 (position.label in template: 27.A)</title><text x="101.17" y="94.27" class="black" >A</text></g>
<g><line x1="103.098" y1="93.2707" x2="110.582" y2="90.5847" class="black" /></g>
<g><title>28 (position.label in template: 28.C)</title><text x="98.45" y="87.14" class="black" >C</text></g>
<g><line x1="100.386" y1="86.1622" x2="108.264" y2="83.4332" class="black" /></g>
<g><title>29 (position.label in template: 29.G)</title><text x="95.73" y="80.01" class="black" >G</text></g>
<g><line x1="97.6657" y1="79.0322" x2="105.544" y2="76.3032" class="black" /></g>
<g><title>30 (position.label in template: 30.C)</title><text x="93.42" y="72.88" class="black" >C</text></g>
<g><line x1="95.3481" y1="71.8807" x2="102.832" y2="69.1947" class="black" /></g>
<g><text x="88.04" y="77.2224" class="numbering-label sequential" >30</text></g>
<g><line x1="91.9853" y1="74.038" x2="89.9435" y2="75.686" class="numbering-line sequential" /></g>
<g><title>31 (position.label in template: 31.C)</title><text x="86.9" y="69.07" class="black" >C</text></g>
<g><title>32 (position.label in template: 32.U)</title><text x="84.01" y="62.08" class="green" >T</text></g>
<g><title>33 (position.label in template: 33.A)</title><text x="86.13" y="54.77" class="black" >A</text></g>
<g><title>34 (position.label in template: 34.G)</title><text x="91.67" y="50.11" class="black" >G</text></g>
<g><title>35 (position.label in template: 35.C)</title><text x="99.44" y="50" class="black" >C</text></g>
<g><title>36 (position.label in template: 36.A)</title><text x="105.73" y="54.49" class="black" >A</text></g>
<g><title>37 (position.label in template: 37.U)</title><text x="107.66" y="61.75" class="green" >T</text></g>
<g><title>38 (position.label in template: 38.G)</title><text x="104.76" y="68.81" class="black" >G</text></g>
<g><title>39 (position.label in template: 39.C)</title><text x="107.48" y="75.94" class="black" >C</text></g>
<g><title>40 (position.label in template: 40.A)</title><text x="110.2" y="83.07" class="black" >A</text></g>
<g><title>41 (position.label in template: 41.C)</title><text x="112.51" y="90.2" class="black" >C</text></g>
<g><title>42 (position.label in template: 42.A)</title><text x="115.23" y="97.33" class="black" >A</text></g>
<g><title>43 (position.label in template: 43.A)</title><text x="122.75" y="98.14" class="black" >A</text></g>
<g><title>44 (position.label in template: 44.G)</title><text x="129.15" y="101.4" class="black" >G</text></g>
<g><title>45 (position.label in template: 45.G)</title><text x="134.5" y="106.75" class="black" >G</text></g>
<g><title>46 (position.label in template: 46.U)</title><text x="137.97" y="113.56" class="green" >T</text></g>
<g><title>47 (position.label in template: 47.C)</title><text x="138.78" y="121.08" class="black" >C</text></g>
<g><title>48 (position.label in template: 48.C)</title><text x="137.04" y="128.44" class="black" >C</text></g>
<g><line x1="135.734" y1="129.711" x2="130.456" y2="136.085" class="black" /></g>
<g><title>49 (position.label in template: 49.U)</title><text x="142.93" y="133.18" class="green" >T</text></g>
<g><line x1="141.666" y1="134.485" x2="136.724" y2="140.79" class="black" /></g>
<g><title>50 (position.label in template: 50.G)</title><text x="148.61" y="137.93" class="black" >G</text></g>
<g><line x1="147.346" y1="139.235" x2="142.404" y2="145.54" class="black" /></g>
<g><text x="152.997" y="132.586" class="numbering-label sequential" >50</text></g>
<g><line x1="149.78" y1="136.505" x2="151.736" y2="134.123" class="numbering-line sequential" /></g>
<g><title>51 (position.label in template: 51.G)</title><text x="154.49" y="142.67" class="black" >G</text></g>
<g><line x1="153.226" y1="143.975" x2="148.284" y2="150.28" class="black" /></g>
<g><title>52 (position.label in template: 52.G)</title><text x="160.38" y="147.41" class="black" >G</text></g>
<g><line x1="159.116" y1="148.715" x2="154.174" y2="155.02" class="black" /></g>
<g><title>53 (position.label in template: 53.U)</title><text x="168.15" y="147.22" class="green" >T</text></g>
<g><title>54 (position.label in template: 54.U)</title><text x="174.28" y="151.65" class="green" >T</text></g>
<g><title>55 (position.label in template: 55.C)</title><text x="176.49" y="158.88" class="black" >C</text></g>
<g><title>56 (position.label in template: 56.A)</title><text x="174.07" y="165.97" class="black" >A</text></g>
<g><title>57 (position.label in template: 57.A)</title><text x="167.7" y="170.04" class="black" >A</text></g>
<g><title>58 (position.label in template: 58.U)</title><text x="159.96" y="169.42" class="green" >T</text></g>
<g><title>59 (position.label in template: 59.U)</title><text x="154.33" y="164.37" class="green" >T</text></g>
<g><title>60 (position.label in template: 60.C)</title><text x="152.91" y="156.94" class="black" >C</text></g>
<g><title>61 (position.label in template: 61.C)</title><text x="147.02" y="152.2" class="black" >C</text></g>
<g><title>62 (position.label in template: 62.C)</title><text x="141.14" y="147.46" class="black" >C</text></g>
<g><title>63 (position.label in template: 63.A)</title><text x="135.46" y="142.71" class="green" >A</text></g>
<g><title>64 (position.label in template: 64.G)</title><text x="129.15" y="137.97" class="black" >G</text></g>
<g><title>65 (position.label in template: 65.U)</title><text x="122.54" y="141.23" class="green" >T</text></g>
<g><title>66 (position.label in template: 66.A)</title><text x="122.75" y="148.79" class="green" >A</text></g>
<g><title>67 (position.label in template: 67.C)</title><text x="122.54" y="156.35" class="black" >C</text></g>
<g><title>68 (position.label in template: 68.C)</title><text x="122.54" y="163.91" class="black" >C</text></g>
<g><title>69 (position.label in template: 69.A)</title><text x="122.75" y="171.47" class="black" >A</text></g>
<g><title>70 (position.label in template: 70.C)</title><text x="122.54" y="179.03" class="black" >C</text></g>
<g><title>71 (position.label in template: 71.U)</title><text x="122.54" y="186.59" class="green" >T</text></g>
<g><title>72 (position.label in template: 72.G)</title><text x="127.781" y="192.045" class="black" >G</text></g>
<g><title>73 (position.label in template: 73.3')</title><text x="122.544" y="197.505" class="green" >3'</text></g>
<g><line x1="109.784" y1="191.791" x2="109.976" y2="188.328" class="gray" /></g>
<g><line x1="110.204" y1="184.237" x2="110.396" y2="180.768" class="gray" /></g>
<g><line x1="110.396" y1="176.677" x2="110.204" y2="173.208" class="gray" /></g>
<g><line x1="110.09" y1="169.114" x2="110.09" y2="165.651" class="gray" /></g>
<g><line x1="110.09" y1="161.554" x2="110.09" y2="158.091" class="gray" /></g>
<g><line x1="110.147" y1="153.995" x2="110.243" y2="150.53" class="gray" /></g>
<g><line x1="110.243" y1="146.435" x2="110.147" y2="142.97" class="gray" /></g>
<g><line x1="108.253" y1="140.017" x2="105.317" y2="138.569" class="gray" /></g>
<g><line x1="102.061" y1="136.185" x2="99.7593" y2="133.79" class="gray" /></g>
<g><line x1="97.3672" y1="130.51" x2="95.6328" y2="127.296" class="gray" /></g>
<g><line x1="92.6115" y1="125.493" x2="89.3585" y2="125.493" class="gray" /></g>
<g><line x1="85.2615" y1="125.493" x2="81.7985" y2="125.493" class="gray" /></g>
<g><line x1="77.7015" y1="125.493" x2="74.2385" y2="125.493" class="gray" /></g>
<g><line x1="70.6518" y1="126.846" x2="68.1682" y2="129.03" class="gray" /></g>
<g><line x1="64.5842" y1="130.488" x2="60.7158" y2="130.687" class="gray" /></g>
<g><line x1="56.9752" y1="129.642" x2="54.1048" y2="127.693" class="gray" /></g>
<g><line x1="51.7573" y1="124.601" x2="50.6527" y2="121.315" class="gray" /></g>
<g><line x1="50.6535" y1="117.431" x2="51.7565" y2="114.154" class="gray" /></g>
<g><line x1="54.1222" y1="111.088" x2="57.1678" y2="109.087" class="gray" /></g>
<g><line x1="60.9257" y1="108.071" x2="64.5843" y2="108.264" class="gray" /></g>
<g><line x1="68.1435" y1="109.753" x2="70.4665" y2="111.872" class="gray" /></g>
<g><line x1="74.0285" y1="113.253" x2="77.9115" y2="113.253" class="gray" /></g>
<g><line x1="82.0085" y1="113.253" x2="85.0515" y2="113.253" class="gray" /></g>
<g><line x1="89.1485" y1="113.253" x2="92.8215" y2="113.253" class="gray" /></g>
<g><line x1="95.7567" y1="111.406" x2="97.2533" y2="108.289" class="gray" /></g>
<g><line x1="99.5872" y1="104.993" x2="102.033" y2="102.543" class="gray" /></g>
<g><line x1="102.849" y1="99.1439" x2="101.801" y2="95.9115" class="gray" /></g>
<g><line x1="100.44" y1="92.0487" x2="99.1802" y2="88.7467" class="gray" /></g>
<g><line x1="97.7198" y1="84.9187" x2="96.4602" y2="81.6167" class="gray" /></g>
<g><line x1="95.0986" y1="77.7539" x2="94.0514" y2="74.5215" class="gray" /></g>
<g><line x1="91.6513" y1="71.5392" x2="88.6687" y2="69.7963" class="gray" /></g>
<g><line x1="86.1173" y1="66.8696" x2="84.7927" y2="63.6658" class="gray" /></g>
<g><line x1="84.5806" y1="59.8053" x2="85.5594" y2="56.4302" class="gray" /></g>
<g><line x1="87.6977" y1="53.1441" x2="90.1023" y2="51.1214" class="gray" /></g>
<g><line x1="93.7183" y1="49.7737" x2="97.3917" y2="49.7217" class="gray" /></g>
<g><line x1="101.107" y1="50.8829" x2="104.063" y2="52.9925" class="gray" /></g>
<g><line x1="106.256" y1="56.1625" x2="107.134" y2="59.4629" class="gray" /></g>
<g><line x1="106.882" y1="63.3376" x2="105.538" y2="66.6078" class="gray" /></g>
<g><line x1="105.49" y1="70.4167" x2="106.75" y2="73.7187" class="gray" /></g>
<g><line x1="108.21" y1="77.5467" x2="109.47" y2="80.8487" class="gray" /></g>
<g><line x1="110.831" y1="84.7115" x2="111.879" y2="87.9439" class="gray" /></g>
<g><line x1="113.24" y1="91.8067" x2="114.5" y2="95.1087" class="gray" /></g>
<g><line x1="117.267" y1="97.2421" x2="120.713" y2="97.6133" class="gray" /></g>
<g><line x1="124.575" y1="98.7625" x2="127.325" y2="100.163" class="gray" /></g>
<g><line x1="130.599" y1="102.541" x2="133.051" y2="104.994" class="gray" /></g>
<g><line x1="135.43" y1="108.268" x2="137.04" y2="111.427" class="gray" /></g>
<g><line x1="138.189" y1="115.289" x2="138.561" y2="118.736" class="gray" /></g>
<g><line x1="138.309" y1="122.766" x2="137.511" y2="126.139" class="gray" /></g>
<g><line x1="138.636" y1="129.417" x2="141.334" y2="131.588" class="gray" /></g>
<g><line x1="144.501" y1="134.187" x2="147.039" y2="136.309" class="gray" /></g>
<g><line x1="150.205" y1="138.908" x2="152.895" y2="141.077" class="gray" /></g>
<g><line x1="156.086" y1="143.647" x2="158.784" y2="145.818" class="gray" /></g>
<g><line x1="162.428" y1="147.053" x2="166.102" y2="146.963" class="gray" /></g>
<g><line x1="169.81" y1="148.113" x2="172.62" y2="150.143" class="gray" /></g>
<g><line x1="174.879" y1="153.302" x2="175.891" y2="156.614" class="gray" /></g>
<g><line x1="175.828" y1="160.511" x2="174.732" y2="163.724" class="gray" /></g>
<g><line x1="172.344" y1="166.766" x2="169.426" y2="168.63" class="gray" /></g>
<g><line x1="165.658" y1="169.569" x2="162.002" y2="169.276" class="gray" /></g>
<g><line x1="158.435" y1="167.745" x2="155.855" y2="165.431" class="gray" /></g>
<g><line x1="153.945" y1="162.051" x2="153.295" y2="158.645" class="gray" /></g>
<g><line x1="151.314" y1="155.348" x2="148.616" y2="153.177" class="gray" /></g>
<g><line x1="145.425" y1="150.607" x2="142.735" y2="148.438" class="gray" /></g>
<g><line x1="139.569" y1="145.839" x2="137.031" y2="143.717" class="gray" /></g>
<g><line x1="133.822" y1="141.172" x2="130.788" y2="138.893" class="gray" /></g>
<g><line x1="127.313" y1="138.569" x2="124.377" y2="140.017" class="gray" /></g>
<g><line x1="122.597" y1="142.97" x2="122.693" y2="146.435" class="gray" /></g>
<g><line x1="122.693" y1="150.53" x2="122.597" y2="153.995" class="gray" /></g>
<g><line x1="122.54" y1="158.091" x2="122.54" y2="161.554" class="gray" /></g>
<g><line x1="122.597" y1="165.65" x2="122.693" y2="169.115" class="gray" /></g>
<g><line x1="122.693" y1="173.21" x2="122.597" y2="176.675" class="gray" /></g>
<g><line x1="122.54" y1="180.771" x2="122.54" y2="184.234" class="gray" /></g>
<g><line x1="123.959" y1="187.76" x2="126.362" y2="190.261" class="gray" /></g>
<g><line x1="126.363" y1="193.216" x2="123.962" y2="195.719" class="gray" /></g>
</svg>
