<svg
	xmlns="http://www.w3.org/2000/svg"
	width="236.28"
	height="266.61">
<g><style type="text/css" >
<!-- create color definitions -->
<![CDATA[
circle.red {stroke: rgb(255, 0, 255); fill: none; }
circle.green {stroke: rgb(0, 255, 0); fill: none; }
circle.blue {stroke: rgb(0, 0, 255); fill: none; }
circle.black {stroke: rgb(0, 0, 0); fill: none; }
circle.gray {stroke: rgb(204, 204, 204); fill: none; }
circle.brown {stroke: rgb(211.65, 104.55, 30.6); fill: none; }
line.red {stroke: rgb(255, 0, 255); stroke-width: 0.383508; }
line.green {stroke: rgb(0, 255, 0); stroke-width: 0.383508; }
line.blue {stroke: rgb(0, 0, 255); stroke-width: 0.383508; }
line.black {stroke: rgb(0, 0, 0); stroke-width: 0.383508; }
line.gray {stroke: rgb(204, 204, 204); stroke-width: 0.383508; }
line.brown {stroke: rgb(211.65, 104.55, 30.6); stroke-width: 0.383508; }
line {stroke: rgb(0, 0, 0); }
text.red {fill: rgb(255, 0, 255); font-size: 3.068063px; font-weight: bold; font-family: Helvetica; }
text.green {fill: rgb(0, 255, 0); font-size: 3.068063px; font-weight: bold; font-family: Helvetica; }
text.blue {fill: rgb(0, 0, 255); font-size: 3.068063px; font-weight: bold; font-family: Helvetica; }
text.black {fill: rgb(0, 0, 0); font-size: 3.068063px; font-weight: bold; font-family: Helvetica; }
text.gray {fill: rgb(204, 204, 204); font-size: 3.068063px; font-weight: bold; font-family: Helvetica; }
text.brown {fill: rgb(211.65, 104.55, 30.6); font-size: 3.068063px; font-weight: bold; font-family: Helvetica; }
text {fill: rgb(0, 0, 0); font-size: 3.068063px; font-weight: bold; font-family: Helvetica; text-anchor: middle; alignment-baseline: middle; }

.pseudoknot_connection{stroke-linecap: round; stroke-opacity: 0.2; stroke-width: 1.5; }
.pseudoknot_segment1{stroke-linecap: round; stroke-opacity: 0.4; stroke-width: 3.06806; }
.pseudoknot_segment2{stroke-linecap: round; stroke-opacity: 0.4; stroke-width: 3.06806; }
line.numbering-line{stroke: rgb(204, 204, 204); stroke-width: 0.191754; }
line.predicted{stroke: rgb(0, 0, 0); stroke-dasharray: 2; }
polyline{fill: none; stroke-linejoin: round; }
template{visibility: hidden; }
text.numbering-label{fill: rgb(204, 204, 204); }
]]>
</style></g>
<g><title>0 (position.label in template: 0.5')</title><text x="115.36" y="216.61" class="green" >5'</text></g>
<g><title>1 (position.label in template: 1.G)</title><text x="122.36" y="216.61" class="black" >G</text></g>
<g><line x1="124.405" y1="216.303" x2="132.965" y2="216.303" class="black" /></g>
<g><title>2 (position.label in template: 2.A)</title><text x="122.77" y="209.05" class="green" >A</text></g>
<g><line x1="124.815" y1="208.743" x2="132.765" y2="208.743" class="black" /></g>
<g><title>3 (position.label in template: 3.G)</title><text x="122.36" y="201.49" class="black" >G</text></g>
<g><line x1="124.405" y1="201.183" x2="132.765" y2="201.183" class="black" /></g>
<g><title>4 (position.label in template: 4.U)</title><text x="122.57" y="193.93" class="green" >T</text></g>
<g><line x1="124.615" y1="193.623" x2="132.965" y2="193.623" class="black" /></g>
<g><title>5 (position.label in template: 5.U)</title><text x="122.57" y="186.37" class="green" >T</text></g>
<g><line x1="124.615" y1="186.063" x2="132.965" y2="186.063" class="black" /></g>
<g><title>6 (position.label in template: 6.A)</title><text x="122.77" y="178.81" class="green" >A</text></g>
<g><line x1="124.815" y1="178.503" x2="132.765" y2="178.503" class="black" /></g>
<g><title>7 (position.label in template: 7.U)</title><text x="122.57" y="171.25" class="green" >T</text></g>
<g><line x1="124.615" y1="170.943" x2="132.965" y2="170.943" class="black" /></g>
<g><title>8 (position.label in template: 8.A)</title><text x="122.77" y="163.69" class="green" >A</text></g>
<g><line x1="124.815" y1="163.383" x2="132.765" y2="163.383" class="black" /></g>
<g><title>9 (position.label in template: 9.A)</title><text x="116.04" y="160.25" class="black" >A</text></g>
<g><title>10 (position.label in template: 10.A)</title><text x="110.94" y="154.67" class="black" >A</text></g>
<g><text x="105.185" y="158.482" class="numbering-label sequential" >10</text></g>
<g><line x1="109.405" y1="155.687" x2="107.026" y2="157.263" class="numbering-line sequential" /></g>
<g><title>11 (position.label in template: 11.G)</title><text x="107.7" y="147.66" class="black" >G</text></g>
<g><title>12 (position.label in template: 12.A)</title><text x="107.94" y="140.1" class="black" >A</text></g>
<g><title>13 (position.label in template: 13.A)</title><text x="110.42" y="132.96" class="green" >A</text></g>
<g><line x1="111.88" y1="131.22" x2="117.59" y2="125.616" class="black" /></g>
<g><title>14 (position.label in template: 14.G)</title><text x="104.77" y="127.5" class="black" >G</text></g>
<g><line x1="106.263" y1="125.795" x2="112.317" y2="120.122" class="black" /></g>
<g><title>15 (position.label in template: 15.A)</title><text x="99.95" y="122.05" class="green" >A</text></g>
<g><line x1="101.409" y1="120.31" x2="107.121" y2="114.697" class="black" /></g>
<g><title>16 (position.label in template: 16.G)</title><text x="94.3" y="116.59" class="black" >G</text></g>
<g><line x1="95.7934" y1="114.886" x2="101.857" y2="109.211" class="black" /></g>
<g><title>17 (position.label in template: 17.C)</title><text x="89.28" y="111.13" class="black" >C</text></g>
<g><line x1="90.7389" y1="109.39" x2="96.4411" y2="103.787" class="black" /></g>
<g><title>18 (position.label in template: 18.G)</title><text x="81.51" y="111.34" class="black" >G</text></g>
<g><title>19 (position.label in template: 19.G)</title><text x="74.98" y="107.53" class="black" >G</text></g>
<g><title>20 (position.label in template: 20.A)</title><text x="71.86" y="100.84" class="black" >A</text></g>
<g><text x="65.1063" y="102.269" class="numbering-label sequential" >20</text></g>
<g><line x1="70.059" y1="101.221" x2="66.9471" y2="101.879" class="numbering-line sequential" /></g>
<g><title>21 (position.label in template: 21.G)</title><text x="71.97" y="93.3" class="black" >G</text></g>
<g><line x1="73.4626" y1="91.5947" x2="79.5174" y2="85.9217" class="black" /></g>
<g><title>22 (position.label in template: 22.A)</title><text x="67.15" y="87.85" class="green" >A</text></g>
<g><line x1="68.6089" y1="86.1096" x2="74.3211" y2="80.4968" class="black" /></g>
<g><title>23 (position.label in template: 23.G)</title><text x="61.5" y="82.39" class="black" >G</text></g>
<g><line x1="62.9926" y1="80.6847" x2="69.0474" y2="75.0117" class="black" /></g>
<g><title>24 (position.label in template: 24.A)</title><text x="54.52" y="80.84" class="black" >A</text></g>
<g><title>25 (position.label in template: 25.A)</title><text x="50" y="74.77" class="black" >A</text></g>
<g><title>26 (position.label in template: 26.C)</title><text x="50.42" y="67.24" class="black" >C</text></g>
<g><title>27 (position.label in template: 27.A)</title><text x="56.08" y="62.01" class="black" >A</text></g>
<g><title>28 (position.label in template: 28.G)</title><text x="63.22" y="61.69" class="black" >G</text></g>
<g><title>29 (position.label in template: 29.G)</title><text x="69.09" y="66.46" class="black" >G</text></g>
<g><title>30 (position.label in template: 30.C)</title><text x="70.54" y="73.92" class="black" >C</text></g>
<g><text x="76.6691" y="70.7439" class="numbering-label sequential" >30</text></g>
<g><line x1="72.1744" y1="73.073" x2="74.8282" y2="71.6978" class="numbering-line sequential" /></g>
<g><title>31 (position.label in template: 31.U)</title><text x="75.78" y="79.37" class="green" >T</text></g>
<g><title>32 (position.label in template: 32.C)</title><text x="81.01" y="84.83" class="black" >C</text></g>
<g><title>33 (position.label in template: 33.G)</title><text x="85.52" y="78.93" class="black" >G</text></g>
<g><title>34 (position.label in template: 34.C)</title><text x="92.89" y="76.48" class="black" >C</text></g>
<g><title>35 (position.label in template: 35.A)</title><text x="100.44" y="78.27" class="black" >A</text></g>
<g><title>36 (position.label in template: 36.G)</title><text x="105.26" y="83.73" class="black" >G</text></g>
<g><title>37 (position.label in template: 37.A)</title><text x="107.15" y="91.14" class="black" >A</text></g>
<g><title>38 (position.label in template: 38.U)</title><text x="104.21" y="98.19" class="green" >T</text></g>
<g><title>39 (position.label in template: 39.G)</title><text x="97.9" y="102.66" class="black" >G</text></g>
<g><title>40 (position.label in template: 40.C)</title><text x="103.35" y="108.12" class="black" >C</text></g>
<g><title>41 (position.label in template: 41.U)</title><text x="108.58" y="113.57" class="green" >T</text></g>
<g><title>42 (position.label in template: 42.C)</title><text x="113.81" y="119.03" class="black" >C</text></g>
<g><title>43 (position.label in template: 43.U)</title><text x="119.05" y="124.49" class="green" >T</text></g>
<g><title>44 (position.label in template: 44.G)</title><text x="126.07" y="122.3" class="black" >G</text></g>
<g><line x1="128.084" y1="122.353" x2="136.316" y2="123.824" class="black" /></g>
<g><title>45 (position.label in template: 45.G)</title><text x="127.42" y="114.87" class="black" >G</text></g>
<g><line x1="129.434" y1="114.921" x2="137.666" y2="116.385" class="black" /></g>
<g><title>46 (position.label in template: 46.C)</title><text x="128.98" y="107.43" class="black" >C</text></g>
<g><line x1="130.992" y1="107.494" x2="138.798" y2="108.933" class="black" /></g>
<g><title>47 (position.label in template: 47.A)</title><text x="130.53" y="99.99" class="green" >A</text></g>
<g><line x1="132.542" y1="100.054" x2="140.358" y2="101.493" class="black" /></g>
<g><title>48 (position.label in template: 48.A)</title><text x="124.76" y="95.1" class="black" >A</text></g>
<g><title>49 (position.label in template: 49.C)</title><text x="131.67" y="92.55" class="black" >C</text></g>
<g><line x1="133.682" y1="92.6136" x2="141.498" y2="94.0528" class="black" /></g>
<g><title>50 (position.label in template: 50.C)</title><text x="133.02" y="85.11" class="black" >C</text></g>
<g><line x1="135.032" y1="85.1736" x2="142.848" y2="86.6128" class="black" /></g>
<g><text x="126.124" y="85.4273" class="numbering-label sequential" >50</text></g>
<g><line x1="131.181" y1="85.1946" x2="127.965" y2="85.3426" class="numbering-line sequential" /></g>
<g><title>51 (position.label in template: 51.G)</title><text x="130.99" y="77.77" class="black" >G</text></g>
<g><title>52 (position.label in template: 52.G)</title><text x="135.27" y="71.54" class="black" >G</text></g>
<g><line x1="137.284" y1="71.5916" x2="145.506" y2="73.0548" class="black" /></g>
<g><title>53 (position.label in template: 53.C)</title><text x="136.83" y="64.1" class="black" >C</text></g>
<g><line x1="138.842" y1="64.1639" x2="146.648" y2="65.6025" class="black" /></g>
<g><title>54 (position.label in template: 54.U)</title><text x="138.17" y="56.66" class="green" >T</text></g>
<g><line x1="140.184" y1="56.7116" x2="148.406" y2="58.1748" class="black" /></g>
<g><title>55 (position.label in template: 55.A)</title><text x="141.96" y="50" class="black" >A</text></g>
<g><title>56 (position.label in template: 56.A)</title><text x="149.4" y="51.35" class="black" >A</text></g>
<g><title>57 (position.label in template: 57.A)</title><text x="150.42" y="58.84" class="green" >A</text></g>
<g><title>58 (position.label in template: 58.G)</title><text x="148.66" y="66.28" class="black" >G</text></g>
<g><title>59 (position.label in template: 59.C)</title><text x="147.52" y="73.72" class="black" >C</text></g>
<g><title>60 (position.label in template: 60.A)</title><text x="153.95" y="78.01" class="black" >A</text></g>
<g><title>61 (position.label in template: 61.A)</title><text x="152.6" y="85.45" class="black" >A</text></g>
<g><title>62 (position.label in template: 62.G)</title><text x="144.86" y="87.29" class="black" >G</text></g>
<g><title>63 (position.label in template: 63.G)</title><text x="143.51" y="94.73" class="black" >G</text></g>
<g><title>64 (position.label in template: 64.U)</title><text x="142.37" y="102.17" class="green" >T</text></g>
<g><title>65 (position.label in template: 65.G)</title><text x="140.81" y="109.61" class="black" >G</text></g>
<g><title>66 (position.label in template: 66.C)</title><text x="139.68" y="117.05" class="black" >C</text></g>
<g><title>67 (position.label in template: 67.C)</title><text x="138.33" y="124.49" class="black" >C</text></g>
<g><title>68 (position.label in template: 68.A)</title><text x="144.55" y="129.07" class="black" >A</text></g>
<g><title>69 (position.label in template: 69.C)</title><text x="148.37" y="135.47" class="black" >C</text></g>
<g><title>70 (position.label in template: 70.A)</title><text x="150.1" y="142.87" class="black" >A</text></g>
<g><title>71 (position.label in template: 71.A)</title><text x="148.93" y="150.34" class="green" >A</text></g>
<g><line x1="147.707" y1="151.673" x2="142.763" y2="158.304" class="black" /></g>
<g><title>72 (position.label in template: 72.C)</title><text x="153.5" y="144.48" class="black" >C</text></g>
<g><title>73 (position.label in template: 73.C)</title><text x="160.99" y="143.49" class="black" >C</text></g>
<g><title>74 (position.label in template: 74.U)</title><text x="167.11" y="147.93" class="green" >T</text></g>
<g><title>75 (position.label in template: 75.G)</title><text x="168.3" y="155.36" class="black" >G</text></g>
<g><title>76 (position.label in template: 76.C)</title><text x="164.43" y="161.72" class="black" >C</text></g>
<g><line x1="163.206" y1="163.052" x2="158.254" y2="169.684" class="black" /></g>
<g><title>77 (position.label in template: 77.C)</title><text x="170.55" y="166.16" class="black" >C</text></g>
<g><line x1="169.327" y1="167.493" x2="164.383" y2="174.124" class="black" /></g>
<g><title>78 (position.label in template: 78.C)</title><text x="176.67" y="170.59" class="black" >C</text></g>
<g><line x1="175.447" y1="171.923" x2="170.503" y2="178.554" class="black" /></g>
<g><title>79 (position.label in template: 79.A)</title><text x="184.01" y="173.08" class="black" >A</text></g>
<g><title>80 (position.label in template: 80.A)</title><text x="186.28" y="180.3" class="black" >A</text></g>
<g><title>81 (position.label in template: 81.A)</title><text x="181.84" y="186.42" class="black" >A</text></g>
<g><title>82 (position.label in template: 82.A)</title><text x="174.28" y="186.51" class="black" >A</text></g>
<g><title>83 (position.label in template: 83.G)</title><text x="169.28" y="180.5" class="black" >G</text></g>
<g><title>84 (position.label in template: 84.G)</title><text x="163.16" y="176.07" class="black" >G</text></g>
<g><title>85 (position.label in template: 85.G)</title><text x="157.03" y="171.63" class="black" >G</text></g>
<g><title>86 (position.label in template: 86.A)</title><text x="149.9" y="171.97" class="black" >A</text></g>
<g><title>87 (position.label in template: 87.A)</title><text x="143.78" y="167.53" class="black" >A</text></g>
<g><title>88 (position.label in template: 88.U)</title><text x="141.54" y="160.25" class="green" >T</text></g>
<g><title>89 (position.label in template: 89.U)</title><text x="134.81" y="163.69" class="green" >T</text></g>
<g><title>90 (position.label in template: 90.A)</title><text x="135.01" y="171.25" class="green" >A</text></g>
<g><title>91 (position.label in template: 91.U)</title><text x="134.81" y="178.81" class="green" >T</text></g>
<g><title>92 (position.label in template: 92.A)</title><text x="135.01" y="186.37" class="green" >A</text></g>
<g><title>93 (position.label in template: 93.A)</title><text x="135.01" y="193.93" class="green" >A</text></g>
<g><title>94 (position.label in template: 94.C)</title><text x="134.81" y="201.49" class="black" >C</text></g>
<g><title>95 (position.label in template: 95.U)</title><text x="134.81" y="209.05" class="green" >T</text></g>
<g><title>96 (position.label in template: 96.A)</title><text x="135.01" y="216.61" class="black" >A</text></g>
<g><title>97 (position.label in template: 97.3')</title><text x="142.01" y="216.61" class="green" >3'</text></g>
<g><line x1="117.405" y1="216.303" x2="120.315" y2="216.303" class="gray" /></g>
<g><line x1="122.471" y1="214.261" x2="122.659" y2="210.786" class="gray" /></g>
<g><line x1="122.659" y1="206.701" x2="122.471" y2="203.226" class="gray" /></g>
<g><line x1="122.417" y1="199.139" x2="122.513" y2="195.668" class="gray" /></g>
<g><line x1="122.57" y1="191.578" x2="122.57" y2="188.109" class="gray" /></g>
<g><line x1="122.624" y1="184.019" x2="122.716" y2="180.548" class="gray" /></g>
<g><line x1="122.716" y1="176.459" x2="122.624" y2="172.988" class="gray" /></g>
<g><line x1="122.624" y1="168.899" x2="122.716" y2="165.428" class="gray" /></g>
<g><line x1="120.949" y1="162.452" x2="117.861" y2="160.874" class="gray" /></g>
<g><line x1="114.66" y1="158.433" x2="112.32" y2="155.873" class="gray" /></g>
<g><line x1="110.082" y1="152.507" x2="108.558" y2="149.21" class="gray" /></g>
<g><line x1="107.765" y1="145.309" x2="107.875" y2="141.838" class="gray" /></g>
<g><line x1="108.611" y1="137.861" x2="109.749" y2="134.585" class="gray" /></g>
<g><line x1="108.949" y1="131.232" x2="106.241" y2="128.615" class="gray" /></g>
<g><line x1="103.415" y1="125.661" x2="101.305" y2="123.275" class="gray" /></g>
<g><line x1="98.4792" y1="120.322" x2="95.7708" y2="117.705" class="gray" /></g>
<g><line x1="92.9156" y1="114.777" x2="90.6644" y2="112.329" class="gray" /></g>
<g><line x1="87.2354" y1="110.878" x2="83.5546" y2="110.978" class="gray" /></g>
<g><line x1="79.7433" y1="110.002" x2="76.7467" y2="108.254" class="gray" /></g>
<g><line x1="74.1155" y1="105.369" x2="72.7245" y2="102.387" class="gray" /></g>
<g><line x1="71.8898" y1="98.488" x2="71.9402" y2="95.0384" class="gray" /></g>
<g><line x1="70.615" y1="91.4611" x2="68.505" y2="89.0753" class="gray" /></g>
<g><line x1="65.6792" y1="86.1218" x2="62.9708" y2="83.5046" class="gray" /></g>
<g><line x1="59.5033" y1="81.6398" x2="56.5167" y2="80.9766" class="gray" /></g>
<g><line x1="53.2984" y1="78.8927" x2="51.2216" y2="76.1037" class="gray" /></g>
<g><line x1="50.1139" y1="72.421" x2="50.3061" y2="68.9754" class="gray" /></g>
<g><line x1="51.9222" y1="65.5451" x2="54.5778" y2="63.0913" class="gray" /></g>
<g><line x1="58.1233" y1="61.6116" x2="61.1767" y2="61.4748" class="gray" /></g>
<g><line x1="64.8074" y1="62.6731" x2="67.5026" y2="64.8633" class="gray" /></g>
<g><line x1="69.4803" y1="68.161" x2="70.1497" y2="71.6054" class="gray" /></g>
<g><line x1="71.9576" y1="75.0876" x2="74.3624" y2="77.5888" class="gray" /></g>
<g><line x1="77.1949" y1="80.5403" x2="79.5951" y2="83.0461" class="gray" /></g>
<g><line x1="82.2522" y1="82.8982" x2="84.2778" y2="80.2482" class="gray" /></g>
<g><line x1="87.4609" y1="77.978" x2="90.9491" y2="76.8184" class="gray" /></g>
<g><line x1="94.8802" y1="76.645" x2="98.4498" y2="77.4913" class="gray" /></g>
<g><line x1="101.794" y1="79.4966" x2="103.906" y2="81.8898" class="gray" /></g>
<g><line x1="105.766" y1="85.4051" x2="106.644" y2="88.8513" class="gray" /></g>
<g><line x1="106.363" y1="92.721" x2="104.997" y2="95.9954" class="gray" /></g>
<g><line x1="102.541" y1="99.0655" x2="99.569" y2="101.171" class="gray" /></g>
<g><line x1="99.345" y1="103.801" x2="101.905" y2="106.366" class="gray" /></g>
<g><line x1="104.766" y1="109.289" x2="107.164" y2="111.787" class="gray" /></g>
<g><line x1="109.995" y1="114.74" x2="112.395" y2="117.246" class="gray" /></g>
<g><line x1="115.226" y1="120.199" x2="117.634" y2="122.707" class="gray" /></g>
<g><line x1="121.003" y1="123.574" x2="124.117" y2="122.602" class="gray" /></g>
<g><line x1="126.436" y1="119.981" x2="127.054" y2="116.576" class="gray" /></g>
<g><line x1="127.84" y1="112.561" x2="128.56" y2="109.125" class="gray" /></g>
<g><line x1="129.397" y1="105.121" x2="130.113" y2="101.686" class="gray" /></g>
<g><line x1="128.97" y1="98.3608" x2="126.32" y2="96.1156" class="gray" /></g>
<g><line x1="126.679" y1="94.0851" x2="129.751" y2="92.9513" class="gray" /></g>
<g><line x1="132.035" y1="90.2307" x2="132.655" y2="86.8157" class="gray" /></g>
<g><line x1="132.475" y1="82.8318" x2="131.535" y2="79.4346" class="gray" /></g>
<g><line x1="132.148" y1="75.7773" x2="134.112" y2="72.9191" class="gray" /></g>
<g><line x1="135.69" y1="69.2314" x2="136.41" y2="65.795" class="gray" /></g>
<g><line x1="137.193" y1="61.7802" x2="137.807" y2="58.3662" class="gray" /></g>
<g><line x1="139.182" y1="54.5755" x2="140.948" y2="51.4709" class="gray" /></g>
<g><line x1="143.973" y1="50.0584" x2="147.387" y2="50.678" class="gray" /></g>
<g><line x1="149.676" y1="53.0699" x2="150.144" y2="56.5065" class="gray" /></g>
<g><line x1="149.949" y1="60.5236" x2="149.131" y2="63.9828" class="gray" /></g>
<g><line x1="148.35" y1="67.995" x2="147.83" y2="71.3914" class="gray" /></g>
<g><line x1="149.221" y1="74.5484" x2="152.249" y2="76.568" class="gray" /></g>
<g><line x1="153.585" y1="79.7157" x2="152.965" y2="83.1307" class="gray" /></g>
<g><line x1="150.61" y1="85.6162" x2="146.85" y2="86.5101" class="gray" /></g>
<g><line x1="144.495" y1="88.9957" x2="143.875" y2="92.4107" class="gray" /></g>
<g><line x1="143.2" y1="96.445" x2="142.68" y2="99.8414" class="gray" /></g>
<g><line x1="141.95" y1="103.865" x2="141.23" y2="107.301" class="gray" /></g>
<g><line x1="140.503" y1="111.325" x2="139.987" y2="114.721" class="gray" /></g>
<g><line x1="139.315" y1="118.756" x2="138.695" y2="122.171" class="gray" /></g>
<g><line x1="139.977" y1="125.396" x2="142.903" y2="127.55" class="gray" /></g>
<g><line x1="145.598" y1="130.52" x2="147.322" y2="133.407" class="gray" /></g>
<g><line x1="148.836" y1="137.155" x2="149.634" y2="140.572" class="gray" /></g>
<g><line x1="149.783" y1="144.584" x2="149.247" y2="148.012" class="gray" /></g>
<g><line x1="150.188" y1="148.42" x2="152.242" y2="145.786" class="gray" /></g>
<g><line x1="155.528" y1="143.905" x2="158.962" y2="143.451" class="gray" /></g>
<g><line x1="162.646" y1="144.384" x2="165.454" y2="146.422" class="gray" /></g>
<g><line x1="167.433" y1="149.643" x2="167.977" y2="153.034" class="gray" /></g>
<g><line x1="167.237" y1="156.801" x2="165.493" y2="159.666" class="gray" /></g>
<g><line x1="166.086" y1="162.614" x2="168.894" y2="164.652" class="gray" /></g>
<g><line x1="172.207" y1="167.053" x2="175.013" y2="169.084" class="gray" /></g>
<g><line x1="178.607" y1="170.94" x2="182.073" y2="172.116" class="gray" /></g>
<g><line x1="184.623" y1="174.724" x2="185.667" y2="178.042" class="gray" /></g>
<g><line x1="185.079" y1="181.649" x2="183.041" y2="184.458" class="gray" /></g>
<g><line x1="179.795" y1="186.138" x2="176.325" y2="186.179" class="gray" /></g>
<g><line x1="172.972" y1="184.631" x2="170.588" y2="181.766" class="gray" /></g>
<g><line x1="167.623" y1="178.994" x2="164.817" y2="176.963" class="gray" /></g>
<g><line x1="161.503" y1="174.563" x2="158.687" y2="172.523" class="gray" /></g>
<g><line x1="154.987" y1="171.421" x2="151.943" y2="171.566" class="gray" /></g>
<g><line x1="148.244" y1="170.462" x2="145.436" y2="168.424" class="gray" /></g>
<g><line x1="143.178" y1="165.268" x2="142.142" y2="161.898" class="gray" /></g>
<g><line x1="139.719" y1="160.874" x2="136.631" y2="162.452" class="gray" /></g>
<g><line x1="134.864" y1="165.428" x2="134.956" y2="168.899" class="gray" /></g>
<g><line x1="134.956" y1="172.988" x2="134.864" y2="176.459" class="gray" /></g>
<g><line x1="134.864" y1="180.548" x2="134.956" y2="184.019" class="gray" /></g>
<g><line x1="135.01" y1="188.109" x2="135.01" y2="191.578" class="gray" /></g>
<g><line x1="134.956" y1="195.668" x2="134.864" y2="199.139" class="gray" /></g>
<g><line x1="134.81" y1="203.229" x2="134.81" y2="206.698" class="gray" /></g>
<g><line x1="134.864" y1="210.788" x2="134.956" y2="214.259" class="gray" /></g>
<g><line x1="137.055" y1="216.303" x2="139.965" y2="216.303" class="gray" /></g>
</svg>
