<svg
	xmlns="http://www.w3.org/2000/svg"
	width="179.23"
	height="248.35">
<g><style type="text/css" >
<!-- create color definitions -->
<![CDATA[
circle.red {stroke: rgb(255, 0, 255); fill: none; }
circle.green {stroke: rgb(0, 255, 0); fill: none; }
circle.blue {stroke: rgb(0, 0, 255); fill: none; }
circle.black {stroke: rgb(0, 0, 0); fill: none; }
circle.gray {stroke: rgb(204, 204, 204); fill: none; }
circle.brown {stroke: rgb(211.65, 104.55, 30.6); fill: none; }
line.red {stroke: rgb(255, 0, 255); stroke-width: 0.384206; }
line.green {stroke: rgb(0, 255, 0); stroke-width: 0.384206; }
line.blue {stroke: rgb(0, 0, 255); stroke-width: 0.384206; }
line.black {stroke: rgb(0, 0, 0); stroke-width: 0.384206; }
line.gray {stroke: rgb(204, 204, 204); stroke-width: 0.384206; }
line.brown {stroke: rgb(211.65, 104.55, 30.6); stroke-width: 0.384206; }
line {stroke: rgb(0, 0, 0); }
text.red {fill: rgb(255, 0, 255); font-size: 3.073644px; font-weight: bold; font-family: Helvetica; }
text.green {fill: rgb(0, 255, 0); font-size: 3.073644px; font-weight: bold; font-family: Helvetica; }
text.blue {fill: rgb(0, 0, 255); font-size: 3.073644px; font-weight: bold; font-family: Helvetica; }
text.black {fill: rgb(0, 0, 0); font-size: 3.073644px; font-weight: bold; font-family: Helvetica; }
text.gray {fill: rgb(204, 204, 204); font-size: 3.073644px; font-weight: bold; font-family: Helvetica; }
text.brown {fill: rgb(211.65, 104.55, 30.6); font-size: 3.073644px; font-weight: bold; font-family: Helvetica; }
text {fill: rgb(0, 0, 0); font-size: 3.073644px; font-weight: bold; font-family: Helvetica; text-anchor: middle; alignment-baseline: middle; }

.pseudoknot_connection{stroke-linecap: round; stroke-opacity: 0.2; stroke-width: 1.5; }
.pseudoknot_segment1{stroke-linecap: round; stroke-opacity: 0.4; stroke-width: 3.07364; }
.pseudoknot_segment2{stroke-linecap: round; stroke-opacity: 0.4; stroke-width: 3.07364; }
line.numbering-line{stroke: rgb(204, 204, 204); stroke-width: 0.192103; }
line.predicted{stroke: rgb(0, 0, 0); stroke-dasharray: 2; }
polyline{fill: none; stroke-linejoin: round; }
template{visibility: hidden; }
text.numbering-label{fill: rgb(204, 204, 204); }
]]>
</style></g>
<g><title>0 (position.label in template: 0.5')</title><text x="94.25" y="198.35" class="green" >5'</text></g>
<g><title>1 (position.label in template: 1.G)</title><text x="101.25" y="198.35" class="black" >G</text></g>
<g><line x1="103.299" y1="198.043" x2="111.651" y2="198.043" class="black" /></g>
<g><title>2 (position.label in template: 2.U)</title><text x="101.46" y="190.79" class="green" >T</text></g>
<g><line x1="103.509" y1="190.483" x2="111.861" y2="190.483" class="black" /></g>
<g><title>3 (position.label in template: 3.U)</title><text x="101.46" y="183.23" class="green" >T</text></g>
<g><line x1="103.509" y1="182.923" x2="111.861" y2="182.923" class="black" /></g>
<g><title>4 (position.label in template: 4.A)</title><text x="101.67" y="175.67" class="green" >A</text></g>
<g><line x1="103.719" y1="175.363" x2="111.651" y2="175.363" class="black" /></g>
<g><title>5 (position.label in template: 5.U)</title><text x="95.87" y="170.58" class="green" >T</text></g>
<g><title>6 (position.label in template: 6.A)</title><text x="94" y="163.31" class="black" >A</text></g>
<g><title>7 (position.label in template: 7.A)</title><text x="96.07" y="156.04" class="black" >A</text></g>
<g><title>8 (position.label in template: 8.U)</title><text x="101.46" y="150.96" class="green" >T</text></g>
<g><line x1="103.509" y1="150.653" x2="111.861" y2="150.653" class="black" /></g>
<g><title>9 (position.label in template: 9.G)</title><text x="101.25" y="143.4" class="black" >G</text></g>
<g><line x1="103.299" y1="143.093" x2="111.651" y2="143.093" class="black" /></g>
<g><title>10 (position.label in template: 10.U)</title><text x="101.46" y="135.84" class="green" >T</text></g>
<g><line x1="103.509" y1="135.533" x2="111.861" y2="135.533" class="black" /></g>
<g><text x="94.547" y="135.648" class="numbering-label sequential" >10</text></g>
<g><line x1="99.6165" y1="135.789" x2="96.3912" y2="135.699" class="numbering-line sequential" /></g>
<g><title>11 (position.label in template: 11.A)</title><text x="101.67" y="128.28" class="green" >A</text></g>
<g><line x1="103.719" y1="127.973" x2="111.651" y2="127.973" class="black" /></g>
<g><title>12 (position.label in template: 12.G)</title><text x="94.83" y="124.29" class="black" >G</text></g>
<g><title>13 (position.label in template: 13.C)</title><text x="90.81" y="118.02" class="black" >C</text></g>
<g><title>14 (position.label in template: 14.U)</title><text x="89.51" y="110.58" class="green" >T</text></g>
<g><line x1="90.3061" y1="108.385" x2="93.5039" y2="100.801" class="black" /></g>
<g><title>15 (position.label in template: 15.U)</title><text x="82.5" y="107.75" class="green" >T</text></g>
<g><line x1="83.2953" y1="105.554" x2="86.4847" y2="97.9811" class="black" /></g>
<g><title>16 (position.label in template: 16.A)</title><text x="75.7" y="104.92" class="green" >A</text></g>
<g><line x1="76.4363" y1="102.7" x2="79.3337" y2="95.1749" class="black" /></g>
<g><title>17 (position.label in template: 17.G)</title><text x="68.27" y="102.1" class="black" >G</text></g>
<g><line x1="69.0647" y1="99.9039" x2="72.2553" y2="92.3213" class="black" /></g>
<g><title>18 (position.label in template: 18.U)</title><text x="61.47" y="99.27" class="green" >T</text></g>
<g><line x1="62.2653" y1="97.0742" x2="65.4547" y2="89.5011" class="black" /></g>
<g><title>19 (position.label in template: 19.A)</title><text x="54.14" y="98.58" class="black" >A</text></g>
<g><title>20 (position.label in template: 20.U)</title><text x="50" y="92.12" class="green" >T</text></g>
<g><text x="43.1168" y="92.7894" class="numbering-label sequential" >20</text></g>
<g><line x1="48.1645" y1="92.2985" x2="44.961" y2="92.6101" class="numbering-line sequential" /></g>
<g><title>21 (position.label in template: 21.U)</title><text x="52.83" y="85.11" class="green" >T</text></g>
<g><title>22 (position.label in template: 22.U)</title><text x="60.14" y="83.19" class="green" >T</text></g>
<g><title>23 (position.label in template: 23.A)</title><text x="66.25" y="87.92" class="green" >A</text></g>
<g><title>24 (position.label in template: 24.C)</title><text x="73.05" y="90.74" class="black" >C</text></g>
<g><title>25 (position.label in template: 25.U)</title><text x="80.07" y="93.57" class="green" >T</text></g>
<g><title>26 (position.label in template: 26.A)</title><text x="87.28" y="96.4" class="green" >A</text></g>
<g><title>27 (position.label in template: 27.A)</title><text x="94.3" y="99.22" class="green" >A</text></g>
<g><title>28 (position.label in template: 28.A)</title><text x="100.4" y="94.76" class="green" >A</text></g>
<g><line x1="102.443" y1="94.2943" x2="110.357" y2="93.681" class="black" /></g>
<g><title>29 (position.label in template: 29.C)</title><text x="99.62" y="87.22" class="black" >C</text></g>
<g><line x1="101.663" y1="86.7542" x2="109.567" y2="86.1411" class="black" /></g>
<g><title>30 (position.label in template: 30.U)</title><text x="99.04" y="79.68" class="green" >T</text></g>
<g><line x1="101.083" y1="79.2195" x2="109.407" y2="78.5958" class="black" /></g>
<g><text x="93.1291" y="83.27" class="numbering-label sequential" >30</text></g>
<g><line x1="97.4638" y1="80.6373" x2="94.9733" y2="82.1499" class="numbering-line sequential" /></g>
<g><title>31 (position.label in template: 31.G)</title><text x="92.52" y="75.53" class="black" >G</text></g>
<g><title>32 (position.label in template: 32.U)</title><text x="89.16" y="68.86" class="green" >T</text></g>
<g><title>33 (position.label in template: 33.U)</title><text x="89.19" y="61.3" class="green" >T</text></g>
<g><title>34 (position.label in template: 34.C)</title><text x="92.82" y="54.68" class="black" >C</text></g>
<g><title>35 (position.label in template: 35.C)</title><text x="99.18" y="50.58" class="black" >C</text></g>
<g><title>36 (position.label in template: 36.A)</title><text x="106.92" y="50" class="black" >A</text></g>
<g><title>37 (position.label in template: 37.A)</title><text x="113.82" y="53.09" class="black" >A</text></g>
<g><title>38 (position.label in template: 38.G)</title><text x="118" y="59.1" class="black" >G</text></g>
<g><title>39 (position.label in template: 39.C)</title><text x="119.39" y="66.57" class="black" >C</text></g>
<g><title>40 (position.label in template: 40.C)</title><text x="116.86" y="73.69" class="black" >C</text></g>
<g><title>41 (position.label in template: 41.A)</title><text x="111.45" y="78.75" class="green" >A</text></g>
<g><title>42 (position.label in template: 42.G)</title><text x="111.61" y="86.29" class="black" >G</text></g>
<g><title>43 (position.label in template: 43.U)</title><text x="112.4" y="93.83" class="green" >T</text></g>
<g><title>44 (position.label in template: 44.A)</title><text x="119.31" y="97.32" class="black" >A</text></g>
<g><title>45 (position.label in template: 45.U)</title><text x="123.79" y="103.25" class="green" >T</text></g>
<g><title>46 (position.label in template: 46.A)</title><text x="125.86" y="110.58" class="black" >A</text></g>
<g><title>47 (position.label in template: 47.A)</title><text x="124.56" y="118.02" class="black" >A</text></g>
<g><title>48 (position.label in template: 48.A)</title><text x="120.33" y="124.29" class="black" >A</text></g>
<g><title>49 (position.label in template: 49.U)</title><text x="113.7" y="128.28" class="green" >T</text></g>
<g><title>50 (position.label in template: 50.A)</title><text x="113.91" y="135.84" class="green" >A</text></g>
<g><text x="120.826" y="135.84" class="numbering-label sequential" >50</text></g>
<g><line x1="115.754" y1="135.84" x2="118.982" y2="135.84" class="numbering-line sequential" /></g>
<g><title>51 (position.label in template: 51.C)</title><text x="113.7" y="143.4" class="black" >C</text></g>
<g><title>52 (position.label in template: 52.A)</title><text x="113.91" y="150.96" class="green" >A</text></g>
<g><title>53 (position.label in template: 53.G)</title><text x="121.04" y="151.43" class="black" >G</text></g>
<g><title>54 (position.label in template: 54.A)</title><text x="127.4" y="156.09" class="black" >A</text></g>
<g><title>55 (position.label in template: 55.G)</title><text x="129.23" y="163.31" class="black" >G</text></g>
<g><title>56 (position.label in template: 56.G)</title><text x="126.99" y="170.53" class="black" >G</text></g>
<g><title>57 (position.label in template: 57.A)</title><text x="121.46" y="175.2" class="black" >A</text></g>
<g><title>58 (position.label in template: 58.U)</title><text x="113.7" y="175.67" class="green" >T</text></g>
<g><title>59 (position.label in template: 59.A)</title><text x="113.91" y="183.23" class="green" >A</text></g>
<g><title>60 (position.label in template: 60.A)</title><text x="113.91" y="190.79" class="green" >A</text></g>
<g><title>61 (position.label in template: 61.C)</title><text x="113.7" y="198.35" class="black" >C</text></g>
<g><title>62 (position.label in template: 62.3')</title><text x="120.7" y="198.35" class="green" >3'</text></g>
<g><line x1="96.2991" y1="198.043" x2="99.2009" y2="198.043" class="gray" /></g>
<g><line x1="101.307" y1="195.994" x2="101.403" y2="192.531" class="gray" /></g>
<g><line x1="101.46" y1="188.434" x2="101.46" y2="184.972" class="gray" /></g>
<g><line x1="101.517" y1="180.874" x2="101.613" y2="177.411" class="gray" /></g>
<g><line x1="100.13" y1="174.011" x2="97.4101" y2="171.624" class="gray" /></g>
<g><line x1="95.3595" y1="168.288" x2="94.5105" y2="164.987" class="gray" /></g>
<g><line x1="94.5611" y1="161.032" x2="95.5089" y2="157.703" class="gray" /></g>
<g><line x1="97.5612" y1="154.327" x2="99.9688" y2="152.058" class="gray" /></g>
<g><line x1="101.403" y1="148.604" x2="101.307" y2="145.141" class="gray" /></g>
<g><line x1="101.307" y1="141.044" x2="101.403" y2="137.581" class="gray" /></g>
<g><line x1="101.517" y1="133.484" x2="101.613" y2="130.021" class="gray" /></g>
<g><line x1="99.9" y1="126.94" x2="96.6" y2="125.015" class="gray" /></g>
<g><line x1="93.724" y1="122.258" x2="91.916" y2="119.438" class="gray" /></g>
<g><line x1="90.4573" y1="115.694" x2="89.8627" y2="112.291" class="gray" /></g>
<g><line x1="87.6099" y1="109.506" x2="84.4001" y2="108.21" class="gray" /></g>
<g><line x1="80.6082" y1="106.655" x2="77.5918" y2="105.4" class="gray" /></g>
<g><line x1="73.7842" y1="103.886" x2="70.1858" y2="102.52" class="gray" /></g>
<g><line x1="66.3782" y1="101.005" x2="63.3618" y2="99.75" class="gray" /></g>
<g><line x1="59.4299" y1="98.7706" x2="56.1801" y2="98.4647" class="gray" /></g>
<g><line x1="53.0344" y1="96.5474" x2="51.1056" y2="93.5379" class="gray" /></g>
<g><line x1="50.7671" y1="89.9125" x2="52.0629" y2="86.7027" class="gray" /></g>
<g><line x1="54.8119" y1="84.2821" x2="58.1581" y2="83.4032" class="gray" /></g>
<g><line x1="61.7603" y1="84.137" x2="64.6297" y2="86.3583" class="gray" /></g>
<g><line x1="68.1428" y1="88.3976" x2="71.1572" y2="89.6477" class="gray" /></g>
<g><line x1="74.9505" y1="91.1988" x2="78.1695" y2="92.4965" class="gray" /></g>
<g><line x1="81.9774" y1="94.0113" x2="85.3726" y2="95.344" class="gray" /></g>
<g><line x1="89.1814" y1="96.8565" x2="92.3986" y2="98.1488" class="gray" /></g>
<g><line x1="95.9541" y1="97.7032" x2="98.7459" y2="95.662" class="gray" /></g>
<g><line x1="100.189" y1="92.4144" x2="99.8309" y2="88.9509" class="gray" /></g>
<g><line x1="99.4628" y1="84.8696" x2="99.1972" y2="81.4157" class="gray" /></g>
<g><line x1="97.3114" y1="78.2724" x2="94.2486" y2="76.3229" class="gray" /></g>
<g><line x1="91.5981" y1="73.3926" x2="90.0819" y2="70.3827" class="gray" /></g>
<g><line x1="89.1681" y1="66.5036" x2="89.1819" y2="63.0417" class="gray" /></g>
<g><line x1="90.1752" y1="59.1959" x2="91.8348" y2="56.1693" class="gray" /></g>
<g><line x1="94.5422" y1="53.2624" x2="97.4578" y2="51.3829" class="gray" /></g>
<g><line x1="101.223" y1="50.1195" x2="104.877" y2="49.8458" class="gray" /></g>
<g><line x1="108.79" y1="50.5301" x2="111.95" y2="51.9451" class="gray" /></g>
<g><line x1="114.99" y1="54.4649" x2="116.83" y2="57.1104" class="gray" /></g>
<g><line x1="118.375" y1="60.8072" x2="119.015" y2="64.2481" class="gray" /></g>
<g><line x1="118.704" y1="68.1935" x2="117.546" y2="71.4518" class="gray" /></g>
<g><line x1="115.363" y1="74.7823" x2="112.947" y2="77.0429" class="gray" /></g>
<g><line x1="111.493" y1="80.4913" x2="111.567" y2="83.934" class="gray" /></g>
<g><line x1="111.824" y1="88.0206" x2="112.186" y2="91.4847" class="gray" /></g>
<g><line x1="114.229" y1="94.4464" x2="117.481" y2="96.0888" class="gray" /></g>
<g><line x1="120.545" y1="98.6476" x2="122.555" y2="101.308" class="gray" /></g>
<g><line x1="124.347" y1="104.915" x2="125.303" y2="108.301" class="gray" /></g>
<g><line x1="125.507" y1="112.291" x2="124.913" y2="115.694" class="gray" /></g>
<g><line x1="123.414" y1="119.411" x2="121.476" y2="122.284" class="gray" /></g>
<g><line x1="118.574" y1="125.039" x2="115.456" y2="126.916" class="gray" /></g>
<g><line x1="113.757" y1="130.021" x2="113.853" y2="133.484" class="gray" /></g>
<g><line x1="113.853" y1="137.581" x2="113.757" y2="141.044" class="gray" /></g>
<g><line x1="113.757" y1="145.141" x2="113.853" y2="148.604" class="gray" /></g>
<g><line x1="115.955" y1="150.787" x2="118.995" y2="150.988" class="gray" /></g>
<g><line x1="122.693" y1="152.334" x2="125.747" y2="154.572" class="gray" /></g>
<g><line x1="127.903" y1="157.769" x2="128.727" y2="161.016" class="gray" /></g>
<g><line x1="128.623" y1="164.96" x2="127.597" y2="168.266" class="gray" /></g>
<g><line x1="125.424" y1="171.545" x2="123.026" y2="173.571" class="gray" /></g>
<g><line x1="119.415" y1="175.017" x2="115.745" y2="175.239" class="gray" /></g>
<g><line x1="113.757" y1="177.411" x2="113.853" y2="180.874" class="gray" /></g>
<g><line x1="113.91" y1="184.972" x2="113.91" y2="188.434" class="gray" /></g>
<g><line x1="113.853" y1="192.531" x2="113.757" y2="195.994" class="gray" /></g>
<g><line x1="115.749" y1="198.043" x2="118.651" y2="198.043" class="gray" /></g>
</svg>
