<svg
	xmlns="http://www.w3.org/2000/svg"
	width="226.57"
	height="240.072">
<g><style type="text/css" >
<!-- create color definitions -->
<![CDATA[
circle.red {stroke: rgb(255, 0, 255); fill: none; }
circle.green {stroke: rgb(0, 255, 0); fill: none; }
circle.blue {stroke: rgb(0, 0, 255); fill: none; }
circle.black {stroke: rgb(0, 0, 0); fill: none; }
circle.gray {stroke: rgb(204, 204, 204); fill: none; }
circle.brown {stroke: rgb(211.65, 104.55, 30.6); fill: none; }
line.red {stroke: rgb(255, 0, 255); stroke-width: 0.382199; }
line.green {stroke: rgb(0, 255, 0); stroke-width: 0.382199; }
line.blue {stroke: rgb(0, 0, 255); stroke-width: 0.382199; }
line.black {stroke: rgb(0, 0, 0); stroke-width: 0.382199; }
line.gray {stroke: rgb(204, 204, 204); stroke-width: 0.382199; }
line.brown {stroke: rgb(211.65, 104.55, 30.6); stroke-width: 0.382199; }
line {stroke: rgb(0, 0, 0); }
text.red {fill: rgb(255, 0, 255); font-size: 3.057596px; font-weight: bold; font-family: Helvetica; }
text.green {fill: rgb(0, 255, 0); font-size: 3.057596px; font-weight: bold; font-family: Helvetica; }
text.blue {fill: rgb(0, 0, 255); font-size: 3.057596px; font-weight: bold; font-family: Helvetica; }
text.black {fill: rgb(0, 0, 0); font-size: 3.057596px; font-weight: bold; font-family: Helvetica; }
text.gray {fill: rgb(204, 204, 204); font-size: 3.057596px; font-weight: bold; font-family: Helvetica; }
text.brown {fill: rgb(211.65, 104.55, 30.6); font-size: 3.057596px; font-weight: bold; font-family: Helvetica; }
text {fill: rgb(0, 0, 0); font-size: 3.057596px; font-weight: bold; font-family: Helvetica; text-anchor: middle; alignment-baseline: middle; }

.pseudoknot_connection{stroke-linecap: round; stroke-opacity: 0.2; stroke-width: 1.5; }
.pseudoknot_segment1{stroke-linecap: round; stroke-opacity: 0.4; stroke-width: 3.0576; }
.pseudoknot_segment2{stroke-linecap: round; stroke-opacity: 0.4; stroke-width: 3.0576; }
line.numbering-line{stroke: rgb(204, 204, 204); stroke-width: 0.1911; }
line.predicted{stroke: rgb(0, 0, 0); stroke-dasharray: 2; }
polyline{fill: none; stroke-linejoin: round; }
template{visibility: hidden; }
text.numbering-label{fill: rgb(204, 204, 204); }
]]>
</style></g>
<g><title>0 (position.label in template: 0.5')</title><text x="110.9" y="192.289" class="green" >5'</text></g>
<g><title>1 (position.label in template: 1.G)</title><text x="111.11" y="184.73" class="black" >G</text></g>
<g><line x1="113.148" y1="184.424" x2="121.522" y2="184.424" class="black" /></g>
<g><title>2 (position.label in template: 2.C)</title><text x="111.32" y="177.17" class="black" >C</text></g>
<g><line x1="113.358" y1="176.864" x2="121.312" y2="176.864" class="black" /></g>
<g><title>3 (position.label in template: 3.G)</title><text x="111.11" y="169.61" class="black" >G</text></g>
<g><line x1="113.148" y1="169.304" x2="121.522" y2="169.304" class="black" /></g>
<g><title>4 (position.label in template: 4.G)</title><text x="111.11" y="162.05" class="black" >G</text></g>
<g><line x1="113.148" y1="161.744" x2="121.522" y2="161.744" class="black" /></g>
<g><title>5 (position.label in template: 5.G)</title><text x="111.11" y="154.49" class="black" >G</text></g>
<g><line x1="113.148" y1="154.184" x2="121.522" y2="154.184" class="black" /></g>
<g><title>6 (position.label in template: 6.C)</title><text x="111.32" y="146.93" class="black" >C</text></g>
<g><line x1="113.358" y1="146.624" x2="121.312" y2="146.624" class="black" /></g>
<g><title>7 (position.label in template: 7.G)</title><text x="111.11" y="139.37" class="black" >G</text></g>
<g><line x1="113.148" y1="139.064" x2="121.522" y2="139.064" class="black" /></g>
<g><title>8 (position.label in template: 8.U)</title><text x="104.43" y="136.26" class="green" >T</text></g>
<g><title>9 (position.label in template: 9.A)</title><text x="99.08" y="131.13" class="black" >A</text></g>
<g><title>10 (position.label in template: 10.G)</title><text x="95.01" y="124.51" class="black" >G</text></g>
<g><line x1="94.8816" y1="122.17" x2="94.3684" y2="114.039" class="black" /></g>
<g><text x="91.7995" y="130.595" class="numbering-label sequential" >10</text></g>
<g><line x1="94.1539" y1="126.133" x2="92.6062" y2="129.066" class="numbering-line sequential" /></g>
<g><title>11 (position.label in template: 11.C)</title><text x="87.69" y="125.12" class="black" >C</text></g>
<g><line x1="87.4905" y1="122.786" x2="86.6895" y2="114.643" class="black" /></g>
<g><title>12 (position.label in template: 12.U)</title><text x="80.15" y="125.73" class="green" >T</text></g>
<g><line x1="80.0199" y1="123.39" x2="79.5001" y2="115.258" class="black" /></g>
<g><title>13 (position.label in template: 13.C)</title><text x="72.62" y="126.34" class="black" >C</text></g>
<g><line x1="72.4205" y1="124.006" x2="71.6195" y2="115.863" class="black" /></g>
<g><title>14 (position.label in template: 14.A)</title><text x="67.47" y="131.67" class="black" >A</text></g>
<g><title>15 (position.label in template: 15.A)</title><text x="59.97" y="132.68" class="black" >A</text></g>
<g><title>16 (position.label in template: 16.U)</title><text x="53.19" y="128.95" class="green" >T</text></g>
<g><title>17 (position.label in template: 17.G)</title><text x="50" y="122" class="black" >G</text></g>
<g><title>18 (position.label in template: 18.G)</title><text x="51.83" y="114.67" class="black" >G</text></g>
<g><title>19 (position.label in template: 19.C)</title><text x="57.93" y="109.93" class="black" >C</text></g>
<g><title>20 (position.label in template: 20.A)</title><text x="65.7" y="109.73" class="black" >A</text></g>
<g><text x="67.7495" y="103.163" class="numbering-label sequential" >20</text></g>
<g><line x1="66.2465" y1="107.979" x2="67.2724" y2="104.692" class="numbering-line sequential" /></g>
<g><title>21 (position.label in template: 21.G)</title><text x="71.42" y="114.14" class="black" >G</text></g>
<g><title>22 (position.label in template: 22.A)</title><text x="79.37" y="113.53" class="green" >A</text></g>
<g><title>23 (position.label in template: 23.G)</title><text x="86.49" y="112.92" class="black" >G</text></g>
<g><title>24 (position.label in template: 24.C)</title><text x="94.24" y="112.31" class="black" >C</text></g>
<g><title>25 (position.label in template: 25.A)</title><text x="96.99" y="105.19" class="black" >A</text></g>
<g><title>26 (position.label in template: 26.G)</title><text x="101.23" y="99.24" class="black" >G</text></g>
<g><title>27 (position.label in template: 27.A)</title><text x="107.96" y="95.07" class="green" >A</text></g>
<g><line x1="109.971" y1="94.4322" x2="117.819" y2="93.1363" class="black" /></g>
<g><title>28 (position.label in template: 28.A)</title><text x="106.74" y="87.61" class="green" >A</text></g>
<g><line x1="108.751" y1="86.9724" x2="116.609" y2="85.6761" class="black" /></g>
<g><title>29 (position.label in template: 29.G)</title><text x="105.12" y="80.15" class="black" >G</text></g>
<g><line x1="107.133" y1="79.5232" x2="115.397" y2="78.2053" class="black" /></g>
<g><title>30 (position.label in template: 30.C)</title><text x="104.12" y="72.69" class="black" >C</text></g>
<g><line x1="106.131" y1="72.0522" x2="113.979" y2="70.7563" class="black" /></g>
<g><text x="98.081" y="75.9853" class="numbering-label sequential" >30</text></g>
<g><line x1="102.51" y1="73.5688" x2="99.9156" y2="74.9843" class="numbering-line sequential" /></g>
<g><title>31 (position.label in template: 31.U)</title><text x="98.37" y="67.78" class="green" >T</text></g>
<g><title>32 (position.label in template: 32.U)</title><text x="96.76" y="60.39" class="green" >T</text></g>
<g><title>33 (position.label in template: 33.C)</title><text x="99.95" y="53.53" class="black" >C</text></g>
<g><title>34 (position.label in template: 34.C)</title><text x="106.63" y="50" class="black" >C</text></g>
<g><title>35 (position.label in template: 35.C)</title><text x="114.09" y="51.24" class="black" >C</text></g>
<g><title>36 (position.label in template: 36.A)</title><text x="119.49" y="56.73" class="black" >A</text></g>
<g><title>37 (position.label in template: 37.A)</title><text x="120.3" y="64.25" class="black" >A</text></g>
<g><title>38 (position.label in template: 38.G)</title><text x="115.99" y="70.73" class="black" >G</text></g>
<g><title>39 (position.label in template: 39.C)</title><text x="117.41" y="78.19" class="black" >C</text></g>
<g><title>40 (position.label in template: 40.U)</title><text x="118.62" y="85.65" class="green" >T</text></g>
<g><title>41 (position.label in template: 41.U)</title><text x="119.83" y="93.11" class="green" >T</text></g>
<g><title>42 (position.label in template: 42.A)</title><text x="127.34" y="95.07" class="black" >A</text></g>
<g><title>43 (position.label in template: 43.C)</title><text x="133.44" y="99.24" class="black" >C</text></g>
<g><title>44 (position.label in template: 44.G)</title><text x="137.89" y="105.19" class="black" >G</text></g>
<g><title>45 (position.label in template: 45.A)</title><text x="140.85" y="112.31" class="black" >A</text></g>
<g><title>46 (position.label in template: 46.C)</title><text x="140.8" y="119.87" class="black" >C</text></g>
<g><title>47 (position.label in template: 47.G)</title><text x="138.35" y="127.09" class="green" >G</text></g>
<g><line x1="137.02" y1="128.329" x2="131.78" y2="134.41" class="black" /></g>
<g><title>48 (position.label in template: 48.A)</title><text x="144.43" y="132.1" class="green" >A</text></g>
<g><line x1="143.061" y1="133.305" x2="137.489" y2="139.454" class="black" /></g>
<g><title>49 (position.label in template: 49.G)</title><text x="149.68" y="137.11" class="black" >G</text></g>
<g><line x1="148.35" y1="138.349" x2="143.11" y2="144.43" class="black" /></g>
<g><title>50 (position.label in template: 50.G)</title><text x="155.34" y="142.12" class="black" >G</text></g>
<g><line x1="154.01" y1="143.359" x2="148.77" y2="149.44" class="black" /></g>
<g><text x="159.9" y="136.969" class="numbering-label sequential" >50</text></g>
<g><line x1="156.556" y1="140.746" x2="158.547" y2="138.497" class="numbering-line sequential" /></g>
<g><title>51 (position.label in template: 51.G)</title><text x="161" y="147.13" class="black" >G</text></g>
<g><line x1="159.671" y1="148.369" x2="154.439" y2="154.449" class="black" /></g>
<g><title>52 (position.label in template: 52.U)</title><text x="168.77" y="147.29" class="green" >T</text></g>
<g><title>53 (position.label in template: 53.U)</title><text x="174.69" y="151.99" class="green" >T</text></g>
<g><title>54 (position.label in template: 54.C)</title><text x="176.57" y="159.31" class="black" >C</text></g>
<g><title>55 (position.label in template: 55.G)</title><text x="173.42" y="166.27" class="black" >G</text></g>
<g><title>56 (position.label in template: 56.A)</title><text x="167.28" y="170.04" class="black" >A</text></g>
<g><title>57 (position.label in template: 57.U)</title><text x="159.58" y="169.08" class="green" >T</text></g>
<g><title>58 (position.label in template: 58.U)</title><text x="154.19" y="163.78" class="green" >T</text></g>
<g><title>59 (position.label in template: 59.C)</title><text x="153.11" y="156.3" class="black" >C</text></g>
<g><title>60 (position.label in template: 60.C)</title><text x="147.44" y="151.29" class="black" >C</text></g>
<g><title>61 (position.label in template: 61.C)</title><text x="141.78" y="146.28" class="black" >C</text></g>
<g><title>62 (position.label in template: 62.U)</title><text x="136.12" y="141.27" class="green" >T</text></g>
<g><title>63 (position.label in template: 63.U)</title><text x="130.45" y="136.26" class="green" >T</text></g>
<g><title>64 (position.label in template: 64.C)</title><text x="123.56" y="139.37" class="black" >C</text></g>
<g><title>65 (position.label in template: 65.G)</title><text x="123.35" y="146.93" class="black" >G</text></g>
<g><title>66 (position.label in template: 66.C)</title><text x="123.56" y="154.49" class="black" >C</text></g>
<g><title>67 (position.label in template: 67.C)</title><text x="123.56" y="162.05" class="black" >C</text></g>
<g><title>68 (position.label in template: 68.C)</title><text x="123.56" y="169.61" class="black" >C</text></g>
<g><title>69 (position.label in template: 69.G)</title><text x="123.35" y="177.17" class="black" >G</text></g>
<g><title>70 (position.label in template: 70.C)</title><text x="123.56" y="184.73" class="black" >C</text></g>
<g><title>71 (position.label in template: 71.U)</title><text x="128.912" y="190.072" class="green" >T</text></g>
<g><title>72 (position.label in template: 72.3')</title><text x="123.671" y="195.524" class="green" >3'</text></g>
<g><line x1="110.957" y1="189.946" x2="111.053" y2="186.462" class="gray" /></g>
<g><line x1="111.167" y1="182.387" x2="111.263" y2="178.902" class="gray" /></g>
<g><line x1="111.263" y1="174.827" x2="111.167" y2="171.342" class="gray" /></g>
<g><line x1="111.11" y1="167.266" x2="111.11" y2="163.783" class="gray" /></g>
<g><line x1="111.11" y1="159.706" x2="111.11" y2="156.223" class="gray" /></g>
<g><line x1="111.167" y1="152.147" x2="111.263" y2="148.662" class="gray" /></g>
<g><line x1="111.263" y1="144.587" x2="111.167" y2="141.102" class="gray" /></g>
<g><line x1="109.262" y1="138.204" x2="106.278" y2="136.815" class="gray" /></g>
<g><line x1="102.959" y1="134.543" x2="100.551" y2="132.235" class="gray" /></g>
<g><line x1="98.0124" y1="129.088" x2="96.0776" y2="125.941" class="gray" /></g>
<g><line x1="92.9786" y1="124.374" x2="89.7214" y2="124.645" class="gray" /></g>
<g><line x1="85.6582" y1="124.979" x2="82.1818" y2="125.26" class="gray" /></g>
<g><line x1="78.1183" y1="125.589" x2="74.6517" y2="125.87" class="gray" /></g>
<g><line x1="71.2036" y1="127.5" x2="68.8864" y2="129.898" class="gray" /></g>
<g><line x1="65.4498" y1="131.636" x2="61.9902" y2="132.102" class="gray" /></g>
<g><line x1="58.184" y1="131.392" x2="54.976" y2="129.627" class="gray" /></g>
<g><line x1="52.3397" y1="126.792" x2="50.8503" y2="123.547" class="gray" /></g>
<g><line x1="50.4937" y1="119.717" x2="51.3363" y2="116.342" class="gray" /></g>
<g><line x1="53.4396" y1="113.114" x2="56.3204" y2="110.875" class="gray" /></g>
<g><line x1="59.9677" y1="109.572" x2="63.6623" y2="109.477" class="gray" /></g>
<g><line x1="67.3143" y1="110.669" x2="69.8057" y2="112.59" class="gray" /></g>
<g><line x1="73.4524" y1="113.678" x2="77.3376" y2="113.38" class="gray" /></g>
<g><line x1="81.401" y1="113.05" x2="84.459" y2="112.788" class="gray" /></g>
<g><line x1="88.5221" y1="112.454" x2="92.2079" y2="112.164" class="gray" /></g>
<g><line x1="94.9744" y1="110.103" x2="96.2556" y2="106.786" class="gray" /></g>
<g><line x1="98.1729" y1="103.224" x2="100.047" y2="100.594" class="gray" /></g>
<g><line x1="102.963" y1="97.8606" x2="106.227" y2="95.8379" class="gray" /></g>
<g><line x1="107.631" y1="92.7526" x2="107.069" y2="89.3159" class="gray" /></g>
<g><line x1="106.307" y1="85.3123" x2="105.553" y2="81.8362" class="gray" /></g>
<g><line x1="104.849" y1="77.8239" x2="104.391" y2="74.4046" class="gray" /></g>
<g><line x1="102.57" y1="71.0606" x2="99.9201" y2="68.7979" class="gray" /></g>
<g><line x1="97.9361" y1="65.4826" x2="97.1939" y2="62.0759" class="gray" /></g>
<g><line x1="97.6195" y1="58.2359" x2="99.0905" y2="55.0726" class="gray" /></g>
<g><line x1="101.752" y1="52.2719" x2="104.828" y2="50.6466" class="gray" /></g>
<g><line x1="108.641" y1="50.0285" x2="112.079" y2="50.6" class="gray" /></g>
<g><line x1="115.519" y1="52.3875" x2="118.061" y2="54.971" class="gray" /></g>
<g><line x1="119.708" y1="58.4509" x2="120.082" y2="61.9176" class="gray" /></g>
<g><line x1="119.171" y1="65.6415" x2="117.119" y2="68.727" class="gray" /></g>
<g><line x1="116.371" y1="72.4267" x2="117.029" y2="75.8818" class="gray" /></g>
<g><line x1="117.736" y1="79.8963" x2="118.294" y2="83.3321" class="gray" /></g>
<g><line x1="118.946" y1="87.3563" x2="119.504" y2="90.7921" class="gray" /></g>
<g><line x1="121.802" y1="93.319" x2="125.368" y2="94.2495" class="gray" /></g>
<g><line x1="129.023" y1="95.9146" x2="131.757" y2="97.7839" class="gray" /></g>
<g><line x1="134.661" y1="100.567" x2="136.669" y2="103.252" class="gray" /></g>
<g><line x1="138.672" y1="106.766" x2="140.068" y2="110.122" class="gray" /></g>
<g><line x1="140.837" y1="114.043" x2="140.813" y2="117.526" class="gray" /></g>
<g><line x1="140.145" y1="121.495" x2="139.005" y2="124.854" class="gray" /></g>
<g><line x1="139.923" y1="128.081" x2="142.857" y2="130.498" class="gray" /></g>
<g><line x1="145.905" y1="133.202" x2="148.205" y2="135.397" class="gray" /></g>
<g><line x1="151.206" y1="138.155" x2="153.814" y2="140.463" class="gray" /></g>
<g><line x1="156.866" y1="143.165" x2="159.474" y2="145.473" class="gray" /></g>
<g><line x1="163.038" y1="146.866" x2="166.732" y2="146.942" class="gray" /></g>
<g><line x1="170.366" y1="148.252" x2="173.094" y2="150.417" class="gray" /></g>
<g><line x1="175.197" y1="153.659" x2="176.063" y2="157.03" class="gray" /></g>
<g><line x1="175.73" y1="160.861" x2="174.26" y2="164.107" class="gray" /></g>
<g><line x1="171.683" y1="167.031" x2="169.017" y2="168.668" class="gray" /></g>
<g><line x1="165.257" y1="169.482" x2="161.603" y2="169.026" class="gray" /></g>
<g><line x1="158.127" y1="167.345" x2="155.643" y2="164.903" class="gray" /></g>
<g><line x1="153.899" y1="161.457" x2="153.401" y2="158.012" class="gray" /></g>
<g><line x1="151.582" y1="154.645" x2="148.968" y2="152.334" class="gray" /></g>
<g><line x1="145.914" y1="149.633" x2="143.306" y2="147.325" class="gray" /></g>
<g><line x1="140.254" y1="144.623" x2="137.646" y2="142.315" class="gray" /></g>
<g><line x1="134.592" y1="139.615" x2="131.978" y2="137.304" class="gray" /></g>
<g><line x1="128.592" y1="136.793" x2="125.418" y2="138.226" class="gray" /></g>
<g><line x1="123.503" y1="141.102" x2="123.407" y2="144.587" class="gray" /></g>
<g><line x1="123.407" y1="148.662" x2="123.503" y2="152.147" class="gray" /></g>
<g><line x1="123.56" y1="156.223" x2="123.56" y2="159.706" class="gray" /></g>
<g><line x1="123.56" y1="163.783" x2="123.56" y2="167.266" class="gray" /></g>
<g><line x1="123.503" y1="171.342" x2="123.407" y2="174.827" class="gray" /></g>
<g><line x1="123.407" y1="178.902" x2="123.503" y2="182.387" class="gray" /></g>
<g><line x1="125.003" y1="185.864" x2="127.47" y2="188.327" class="gray" /></g>
<g><line x1="127.5" y1="191.236" x2="125.084" y2="193.749" class="gray" /></g>
</svg>
