<svg
	xmlns="http://www.w3.org/2000/svg"
	width="227.82"
	height="238.772">
<g><style type="text/css" >
<!-- create color definitions -->
<![CDATA[
circle.red {stroke: rgb(255, 0, 255); fill: none; }
circle.green {stroke: rgb(0, 255, 0); fill: none; }
circle.blue {stroke: rgb(0, 0, 255); fill: none; }
circle.black {stroke: rgb(0, 0, 0); fill: none; }
circle.gray {stroke: rgb(204, 204, 204); fill: none; }
circle.brown {stroke: rgb(211.65, 104.55, 30.6); fill: none; }
line.red {stroke: rgb(255, 0, 255); stroke-width: 0.381468; }
line.green {stroke: rgb(0, 255, 0); stroke-width: 0.381468; }
line.blue {stroke: rgb(0, 0, 255); stroke-width: 0.381468; }
line.black {stroke: rgb(0, 0, 0); stroke-width: 0.381468; }
line.gray {stroke: rgb(204, 204, 204); stroke-width: 0.381468; }
line.brown {stroke: rgb(211.65, 104.55, 30.6); stroke-width: 0.381468; }
line {stroke: rgb(0, 0, 0); }
text.red {fill: rgb(255, 0, 255); font-size: 3.051747px; font-weight: bold; font-family: Helvetica; }
text.green {fill: rgb(0, 255, 0); font-size: 3.051747px; font-weight: bold; font-family: Helvetica; }
text.blue {fill: rgb(0, 0, 255); font-size: 3.051747px; font-weight: bold; font-family: Helvetica; }
text.black {fill: rgb(0, 0, 0); font-size: 3.051747px; font-weight: bold; font-family: Helvetica; }
text.gray {fill: rgb(204, 204, 204); font-size: 3.051747px; font-weight: bold; font-family: Helvetica; }
text.brown {fill: rgb(211.65, 104.55, 30.6); font-size: 3.051747px; font-weight: bold; font-family: Helvetica; }
text {fill: rgb(0, 0, 0); font-size: 3.051747px; font-weight: bold; font-family: Helvetica; text-anchor: middle; alignment-baseline: middle; }

.pseudoknot_connection{stroke-linecap: round; stroke-opacity: 0.2; stroke-width: 1.5; }
.pseudoknot_segment1{stroke-linecap: round; stroke-opacity: 0.4; stroke-width: 3.05175; }
.pseudoknot_segment2{stroke-linecap: round; stroke-opacity: 0.4; stroke-width: 3.05175; }
line.numbering-line{stroke: rgb(204, 204, 204); stroke-width: 0.190734; }
line.predicted{stroke: rgb(0, 0, 0); stroke-dasharray: 2; }
polyline{fill: none; stroke-linejoin: round; }
template{visibility: hidden; }
text.numbering-label{fill: rgb(204, 204, 204); }
]]>
</style></g>
<g><title>0 (position.label in template: 0.5')</title><text x="103.095" y="194.224" class="green" >5'</text></g>
<g><title>1 (position.label in template: 1.A)</title><text x="108.333" y="188.772" class="black" >A</text></g>
<g><title>2 (position.label in template: 2.C)</title><text x="113.57" y="183.32" class="black" >C</text></g>
<g><line x1="115.604" y1="183.015" x2="123.566" y2="183.015" class="black" /></g>
<g><title>3 (position.label in template: 3.C)</title><text x="113.57" y="175.76" class="black" >C</text></g>
<g><line x1="115.604" y1="175.455" x2="123.566" y2="175.455" class="black" /></g>
<g><title>4 (position.label in template: 4.U)</title><text x="113.57" y="168.2" class="green" >T</text></g>
<g><line x1="115.604" y1="167.895" x2="123.566" y2="167.895" class="black" /></g>
<g><title>5 (position.label in template: 5.G)</title><text x="113.36" y="160.64" class="green" >G</text></g>
<g><line x1="115.394" y1="160.335" x2="123.776" y2="160.335" class="black" /></g>
<g><title>6 (position.label in template: 6.G)</title><text x="113.36" y="153.08" class="green" >G</text></g>
<g><line x1="115.394" y1="152.775" x2="123.776" y2="152.775" class="black" /></g>
<g><title>7 (position.label in template: 7.C)</title><text x="113.57" y="145.52" class="black" >C</text></g>
<g><line x1="115.604" y1="145.215" x2="123.566" y2="145.215" class="black" /></g>
<g><title>8 (position.label in template: 8.U)</title><text x="106.68" y="142.41" class="green" >T</text></g>
<g><title>9 (position.label in template: 9.G)</title><text x="100.92" y="137.29" class="black" >G</text></g>
<g><title>10 (position.label in template: 10.G)</title><text x="97.27" y="130.66" class="black" >G</text></g>
<g><line x1="97.1402" y1="128.324" x2="96.6198" y2="120.185" class="black" /></g>
<g><text x="93.9689" y="136.681" class="numbering-label sequential" >10</text></g>
<g><line x1="96.3897" y1="132.266" x2="94.8055" y2="135.155" class="numbering-line sequential" /></g>
<g><title>11 (position.label in template: 11.U)</title><text x="89.94" y="131.27" class="green" >T</text></g>
<g><line x1="89.8102" y1="128.934" x2="89.2898" y2="120.795" class="black" /></g>
<g><title>12 (position.label in template: 12.U)</title><text x="82.4" y="131.88" class="green" >T</text></g>
<g><line x1="82.2718" y1="129.544" x2="81.7582" y2="121.405" class="black" /></g>
<g><title>13 (position.label in template: 13.C)</title><text x="74.87" y="132.49" class="black" >C</text></g>
<g><line x1="74.6725" y1="130.16" x2="73.8775" y2="122.01" class="black" /></g>
<g><title>14 (position.label in template: 14.A)</title><text x="70.18" y="138.25" class="black" >A</text></g>
<g><title>15 (position.label in template: 15.G)</title><text x="62.5" y="140.32" class="black" >G</text></g>
<g><title>16 (position.label in template: 16.U)</title><text x="55.51" y="138.01" class="green" >T</text></g>
<g><title>17 (position.label in template: 17.U)</title><text x="50.82" y="132.08" class="green" >T</text></g>
<g><title>18 (position.label in template: 18.G)</title><text x="50" y="124.54" class="black" >G</text></g>
<g><title>19 (position.label in template: 19.G)</title><text x="53.68" y="117.94" class="black" >G</text></g>
<g><title>20 (position.label in template: 20.U)</title><text x="60.62" y="114.5" class="green" >T</text></g>
<g><text x="59.4388" y="107.736" class="numbering-label sequential" >20</text></g>
<g><line x1="60.305" y1="112.696" x2="59.7053" y2="109.262" class="numbering-line sequential" /></g>
<g><title>21 (position.label in template: 21.A)</title><text x="68.34" y="115.38" class="black" >A</text></g>
<g><title>22 (position.label in template: 22.G)</title><text x="73.68" y="120.29" class="black" >G</text></g>
<g><title>23 (position.label in template: 23.A)</title><text x="81.63" y="119.68" class="green" >A</text></g>
<g><title>24 (position.label in template: 24.A)</title><text x="89.16" y="119.07" class="green" >A</text></g>
<g><title>25 (position.label in template: 25.C)</title><text x="96.49" y="118.46" class="black" >C</text></g>
<g><title>26 (position.label in template: 26.A)</title><text x="99.24" y="111.34" class="black" >A</text></g>
<g><title>27 (position.label in template: 27.A)</title><text x="103.9" y="105.39" class="black" >A</text></g>
<g><title>28 (position.label in template: 28.U)</title><text x="110" y="101.22" class="green" >T</text></g>
<g><line x1="112.009" y1="100.594" x2="120.281" y2="99.2752" class="black" /></g>
<g><title>29 (position.label in template: 29.G)</title><text x="108.58" y="93.76" class="black" >G</text></g>
<g><line x1="110.589" y1="93.1344" x2="118.861" y2="91.8152" class="black" /></g>
<g><title>30 (position.label in template: 30.U)</title><text x="104.63" y="87.45" class="green" >T</text></g>
<g><text x="97.8523" y="88.5506" class="numbering-label sequential" >30</text></g>
<g><line x1="102.823" y1="87.7435" x2="99.6834" y2="88.2532" class="numbering-line sequential" /></g>
<g><title>31 (position.label in template: 31.G)</title><text x="106.37" y="80.15" class="black" >G</text></g>
<g><line x1="108.379" y1="79.5244" x2="116.651" y2="78.2052" class="black" /></g>
<g><title>32 (position.label in template: 32.A)</title><text x="105.58" y="72.69" class="green" >A</text></g>
<g><line x1="107.587" y1="72.0534" x2="115.443" y2="70.7563" class="black" /></g>
<g><title>33 (position.label in template: 33.C)</title><text x="99.62" y="67.78" class="black" >C</text></g>
<g><title>34 (position.label in template: 34.U)</title><text x="98.02" y="60.39" class="green" >T</text></g>
<g><title>35 (position.label in template: 35.C)</title><text x="101.2" y="53.53" class="black" >C</text></g>
<g><title>36 (position.label in template: 36.C)</title><text x="107.89" y="50" class="black" >C</text></g>
<g><title>37 (position.label in template: 37.U)</title><text x="115.35" y="51.24" class="green" >T</text></g>
<g><title>38 (position.label in template: 38.G)</title><text x="120.33" y="56.73" class="black" >G</text></g>
<g><title>39 (position.label in template: 39.A)</title><text x="121.56" y="64.25" class="black" >A</text></g>
<g><title>40 (position.label in template: 40.U)</title><text x="117.45" y="70.73" class="green" >T</text></g>
<g><title>41 (position.label in template: 41.C)</title><text x="118.66" y="78.19" class="black" >C</text></g>
<g><title>42 (position.label in template: 42.U)</title><text x="122.83" y="84.5" class="green" >T</text></g>
<g><title>43 (position.label in template: 43.C)</title><text x="120.87" y="91.8" class="black" >C</text></g>
<g><title>44 (position.label in template: 44.A)</title><text x="122.29" y="99.26" class="green" >A</text></g>
<g><title>45 (position.label in template: 45.G)</title><text x="129.18" y="101.22" class="black" >G</text></g>
<g><title>46 (position.label in template: 46.G)</title><text x="135.48" y="105.39" class="black" >G</text></g>
<g><title>47 (position.label in template: 47.A)</title><text x="140.56" y="111.34" class="black" >A</text></g>
<g><title>48 (position.label in template: 48.U)</title><text x="142.9" y="118.46" class="green" >T</text></g>
<g><title>49 (position.label in template: 49.U)</title><text x="143.06" y="126.02" class="green" >T</text></g>
<g><title>50 (position.label in template: 50.G)</title><text x="140.61" y="133.24" class="black" >G</text></g>
<g><line x1="139.282" y1="134.476" x2="134.038" y2="140.563" class="black" /></g>
<g><text x="147.223" y="131.391" class="numbering-label sequential" >50</text></g>
<g><line x1="142.373" y1="132.747" x2="145.392" y2="131.903" class="numbering-line sequential" /></g>
<g><title>51 (position.label in template: 51.U)</title><text x="146.48" y="138.25" class="green" >T</text></g>
<g><line x1="145.152" y1="139.486" x2="139.908" y2="145.573" class="black" /></g>
<g><title>52 (position.label in template: 52.G)</title><text x="151.93" y="143.26" class="black" >G</text></g>
<g><line x1="150.602" y1="144.496" x2="145.358" y2="150.583" class="black" /></g>
<g><title>53 (position.label in template: 53.A)</title><text x="159.57" y="145.51" class="black" >A</text></g>
<g><title>54 (position.label in template: 54.G)</title><text x="162.26" y="152.4" class="black" >G</text></g>
<g><line x1="160.931" y1="153.635" x2="155.689" y2="159.714" class="black" /></g>
<g><title>55 (position.label in template: 55.U)</title><text x="170.03" y="152.56" class="green" >T</text></g>
<g><title>56 (position.label in template: 56.U)</title><text x="175.95" y="157.26" class="green" >T</text></g>
<g><title>57 (position.label in template: 57.C)</title><text x="177.82" y="164.58" class="black" >C</text></g>
<g><title>58 (position.label in template: 58.A)</title><text x="175.09" y="171.55" class="black" >A</text></g>
<g><title>59 (position.label in template: 59.A)</title><text x="168.54" y="175.31" class="black" >A</text></g>
<g><title>60 (position.label in template: 60.G)</title><text x="160.62" y="174.35" class="black" >G</text></g>
<g><title>61 (position.label in template: 61.C)</title><text x="155.45" y="169.05" class="black" >C</text></g>
<g><title>62 (position.label in template: 62.C)</title><text x="154.36" y="161.56" class="black" >C</text></g>
<g><title>63 (position.label in template: 63.C)</title><text x="147.14" y="159.32" class="black" >C</text></g>
<g><title>64 (position.label in template: 64.C)</title><text x="144.03" y="152.43" class="black" >C</text></g>
<g><title>65 (position.label in template: 65.A)</title><text x="138.58" y="147.42" class="green" >A</text></g>
<g><title>66 (position.label in template: 66.C)</title><text x="132.71" y="142.41" class="black" >C</text></g>
<g><title>67 (position.label in template: 67.G)</title><text x="125.6" y="145.52" class="black" >G</text></g>
<g><title>68 (position.label in template: 68.U)</title><text x="125.81" y="153.08" class="green" >T</text></g>
<g><title>69 (position.label in template: 69.U)</title><text x="125.81" y="160.64" class="green" >T</text></g>
<g><title>70 (position.label in template: 70.G)</title><text x="125.6" y="168.2" class="green" >G</text></g>
<g><title>71 (position.label in template: 71.G)</title><text x="125.6" y="175.76" class="black" >G</text></g>
<g><title>72 (position.label in template: 72.G)</title><text x="125.6" y="183.32" class="black" >G</text></g>
<g><title>73 (position.label in template: 73.G)</title><text x="130.951" y="188.661" class="black" >G</text></g>
<g><title>74 (position.label in template: 74.G)</title><text x="138.511" y="188.661" class="black" >G</text></g>
<g><title>75 (position.label in template: 75.3')</title><text x="146.071" y="188.661" class="green" >3'</text></g>
<g><line x1="104.505" y1="192.451" x2="106.923" y2="189.934" class="gray" /></g>
<g><line x1="109.742" y1="187" x2="112.161" y2="184.482" class="gray" /></g>
<g><line x1="113.57" y1="180.98" x2="113.57" y2="177.489" class="gray" /></g>
<g><line x1="113.57" y1="173.42" x2="113.57" y2="169.929" class="gray" /></g>
<g><line x1="113.514" y1="165.861" x2="113.416" y2="162.369" class="gray" /></g>
<g><line x1="113.36" y1="158.3" x2="113.36" y2="154.809" class="gray" /></g>
<g><line x1="113.416" y1="150.741" x2="113.514" y2="147.249" class="gray" /></g>
<g><line x1="111.716" y1="144.378" x2="108.534" y2="142.942" class="gray" /></g>
<g><line x1="105.159" y1="140.753" x2="102.441" y2="138.336" class="gray" /></g>
<g><line x1="99.9388" y1="135.203" x2="98.2512" y2="132.137" class="gray" /></g>
<g><line x1="95.2425" y1="130.524" x2="91.9675" y2="130.796" class="gray" /></g>
<g><line x1="87.9121" y1="131.129" x2="84.4279" y2="131.411" class="gray" /></g>
<g><line x1="80.3721" y1="131.739" x2="76.8979" y2="132.021" class="gray" /></g>
<g><line x1="73.5854" y1="133.762" x2="71.4646" y2="136.367" class="gray" /></g>
<g><line x1="68.2156" y1="138.474" x2="64.4644" y2="139.485" class="gray" /></g>
<g><line x1="60.5683" y1="139.376" x2="57.4417" y2="138.343" class="gray" /></g>
<g><line x1="54.2479" y1="136.109" x2="52.0821" y2="133.371" class="gray" /></g>
<g><line x1="50.6" y1="129.752" x2="50.22" y2="126.257" class="gray" /></g>
<g><line x1="50.9908" y1="122.458" x2="52.6892" y2="119.412" class="gray" /></g>
<g><line x1="55.5029" y1="116.731" x2="58.7971" y2="115.098" class="gray" /></g>
<g><line x1="62.6414" y1="114.425" x2="66.3186" y2="114.844" class="gray" /></g>
<g><line x1="69.8376" y1="116.452" x2="72.1824" y2="118.608" class="gray" /></g>
<g><line x1="75.7085" y1="119.829" x2="79.6015" y2="119.53" class="gray" /></g>
<g><line x1="83.6579" y1="119.211" x2="87.1321" y2="118.929" class="gray" /></g>
<g><line x1="91.1875" y1="118.596" x2="94.4625" y2="118.324" class="gray" /></g>
<g><line x1="97.223" y1="116.257" x2="98.507" y2="112.933" class="gray" /></g>
<g><line x1="100.494" y1="109.433" x2="102.646" y2="106.687" class="gray" /></g>
<g><line x1="105.58" y1="103.937" x2="108.32" y2="102.063" class="gray" /></g>
<g><line x1="109.62" y1="98.9162" x2="108.96" y2="95.4534" class="gray" /></g>
<g><line x1="107.5" y1="91.7303" x2="105.71" y2="88.8693" class="gray" /></g>
<g><line x1="105.102" y1="85.1658" x2="105.898" y2="81.8239" class="gray" /></g>
<g><line x1="106.156" y1="77.8216" x2="105.794" y2="74.408" class="gray" /></g>
<g><line x1="104.01" y1="71.0912" x2="101.19" y2="68.7684" class="gray" /></g>
<g><line x1="99.1895" y1="65.4864" x2="98.4505" y2="62.0733" class="gray" /></g>
<g><line x1="98.8756" y1="58.239" x2="100.344" y2="55.0706" class="gray" /></g>
<g><line x1="102.999" y1="52.2754" x2="106.091" y2="50.6443" class="gray" /></g>
<g><line x1="109.897" y1="50.0284" x2="113.343" y2="50.6012" class="gray" /></g>
<g><line x1="116.717" y1="52.4417" x2="118.963" y2="54.9179" class="gray" /></g>
<g><line x1="120.658" y1="58.4326" x2="121.232" y2="61.937" class="gray" /></g>
<g><line x1="120.47" y1="65.6629" x2="118.54" y2="68.7068" class="gray" /></g>
<g><line x1="117.776" y1="72.4331" x2="118.334" y2="75.8766" class="gray" /></g>
<g><line x1="119.782" y1="79.5822" x2="121.708" y2="82.4975" class="gray" /></g>
<g><line x1="122.302" y1="86.1597" x2="121.398" y2="89.5299" class="gray" /></g>
<g><line x1="121.25" y1="93.4934" x2="121.91" y2="96.9562" class="gray" /></g>
<g><line x1="124.247" y1="99.5115" x2="127.223" y2="100.358" class="gray" /></g>
<g><line x1="130.877" y1="102.038" x2="133.783" y2="103.962" class="gray" /></g>
<g><line x1="136.801" y1="106.632" x2="139.239" y2="109.488" class="gray" /></g>
<g><line x1="141.195" y1="112.968" x2="142.265" y2="116.222" class="gray" /></g>
<g><line x1="142.943" y1="120.189" x2="143.017" y2="123.681" class="gray" /></g>
<g><line x1="142.406" y1="127.641" x2="141.264" y2="131.008" class="gray" /></g>
<g><line x1="142.157" y1="134.256" x2="144.933" y2="136.624" class="gray" /></g>
<g><line x1="147.978" y1="139.322" x2="150.432" y2="141.578" class="gray" /></g>
<g><line x1="153.882" y1="143.53" x2="157.618" y2="144.63" class="gray" /></g>
<g><line x1="160.31" y1="147.1" x2="161.52" y2="150.2" class="gray" /></g>
<g><line x1="164.294" y1="152.137" x2="167.996" y2="152.213" class="gray" /></g>
<g><line x1="171.623" y1="153.52" x2="174.357" y2="155.69" class="gray" /></g>
<g><line x1="176.454" y1="158.926" x2="177.316" y2="162.304" class="gray" /></g>
<g><line x1="177.078" y1="166.169" x2="175.832" y2="169.35" class="gray" /></g>
<g><line x1="173.326" y1="172.258" x2="170.304" y2="173.992" class="gray" /></g>
<g><line x1="166.52" y1="174.76" x2="162.64" y2="174.29" class="gray" /></g>
<g><line x1="159.199" y1="172.588" x2="156.871" y2="170.201" class="gray" /></g>
<g><line x1="155.157" y1="166.732" x2="154.653" y2="163.268" class="gray" /></g>
<g><line x1="152.417" y1="160.652" x2="149.083" y2="159.618" class="gray" /></g>
<g><line x1="146.303" y1="157.16" x2="144.867" y2="153.979" class="gray" /></g>
<g><line x1="142.532" y1="150.748" x2="140.078" y2="148.492" class="gray" /></g>
<g><line x1="137.033" y1="145.794" x2="134.257" y2="143.426" class="gray" /></g>
<g><line x1="130.846" y1="142.92" x2="127.464" y2="144.399" class="gray" /></g>
<g><line x1="125.656" y1="147.249" x2="125.754" y2="150.741" class="gray" /></g>
<g><line x1="125.81" y1="154.809" x2="125.81" y2="158.3" class="gray" /></g>
<g><line x1="125.754" y1="162.369" x2="125.656" y2="165.861" class="gray" /></g>
<g><line x1="125.6" y1="169.929" x2="125.6" y2="173.42" class="gray" /></g>
<g><line x1="125.6" y1="177.489" x2="125.6" y2="180.98" class="gray" /></g>
<g><line x1="127.04" y1="184.452" x2="129.511" y2="186.918" class="gray" /></g>
<g><line x1="132.985" y1="188.356" x2="136.476" y2="188.356" class="gray" /></g>
<g><line x1="140.545" y1="188.356" x2="144.036" y2="188.356" class="gray" /></g>
</svg>
