<svg
	xmlns="http://www.w3.org/2000/svg"
	width="241.3"
	height="267.92">
<g><style type="text/css" >
<!-- create color definitions -->
<![CDATA[
circle.red {stroke: rgb(255, 0, 255); fill: none; }
circle.green {stroke: rgb(0, 255, 0); fill: none; }
circle.blue {stroke: rgb(0, 0, 255); fill: none; }
circle.black {stroke: rgb(0, 0, 0); fill: none; }
circle.gray {stroke: rgb(204, 204, 204); fill: none; }
circle.brown {stroke: rgb(211.65, 104.55, 30.6); fill: none; }
line.red {stroke: rgb(255, 0, 255); stroke-width: 0.383196; }
line.green {stroke: rgb(0, 255, 0); stroke-width: 0.383196; }
line.blue {stroke: rgb(0, 0, 255); stroke-width: 0.383196; }
line.black {stroke: rgb(0, 0, 0); stroke-width: 0.383196; }
line.gray {stroke: rgb(204, 204, 204); stroke-width: 0.383196; }
line.brown {stroke: rgb(211.65, 104.55, 30.6); stroke-width: 0.383196; }
line {stroke: rgb(0, 0, 0); }
text.red {fill: rgb(255, 0, 255); font-size: 3.065569px; font-weight: bold; font-family: Helvetica; }
text.green {fill: rgb(0, 255, 0); font-size: 3.065569px; font-weight: bold; font-family: Helvetica; }
text.blue {fill: rgb(0, 0, 255); font-size: 3.065569px; font-weight: bold; font-family: Helvetica; }
text.black {fill: rgb(0, 0, 0); font-size: 3.065569px; font-weight: bold; font-family: Helvetica; }
text.gray {fill: rgb(204, 204, 204); font-size: 3.065569px; font-weight: bold; font-family: Helvetica; }
text.brown {fill: rgb(211.65, 104.55, 30.6); font-size: 3.065569px; font-weight: bold; font-family: Helvetica; }
text {fill: rgb(0, 0, 0); font-size: 3.065569px; font-weight: bold; font-family: Helvetica; text-anchor: middle; alignment-baseline: middle; }

.pseudoknot_connection{stroke-linecap: round; stroke-opacity: 0.2; stroke-width: 1.5; }
.pseudoknot_segment1{stroke-linecap: round; stroke-opacity: 0.4; stroke-width: 3.06557; }
.pseudoknot_segment2{stroke-linecap: round; stroke-opacity: 0.4; stroke-width: 3.06557; }
line.numbering-line{stroke: rgb(204, 204, 204); stroke-width: 0.191598; }
line.predicted{stroke: rgb(0, 0, 0); stroke-dasharray: 2; }
polyline{fill: none; stroke-linejoin: round; }
template{visibility: hidden; }
text.numbering-label{fill: rgb(204, 204, 204); }
]]>
</style></g>
<g><title>0 (position.label in template: 0.5')</title><text x="117.95" y="217.92" class="green" >5'</text></g>
<g><title>1 (position.label in template: 1.C)</title><text x="124.95" y="217.92" class="black" >C</text></g>
<g><line x1="126.994" y1="217.613" x2="134.936" y2="217.613" class="black" /></g>
<g><title>2 (position.label in template: 2.U)</title><text x="124.95" y="210.36" class="green" >T</text></g>
<g><line x1="126.994" y1="210.053" x2="135.356" y2="210.053" class="black" /></g>
<g><title>3 (position.label in template: 3.C)</title><text x="124.95" y="202.8" class="black" >C</text></g>
<g><line x1="126.994" y1="202.493" x2="134.936" y2="202.493" class="black" /></g>
<g><title>4 (position.label in template: 4.U)</title><text x="124.95" y="195.24" class="green" >T</text></g>
<g><line x1="126.994" y1="194.933" x2="135.356" y2="194.933" class="black" /></g>
<g><title>5 (position.label in template: 5.U)</title><text x="124.95" y="187.68" class="green" >T</text></g>
<g><line x1="126.994" y1="187.373" x2="135.356" y2="187.373" class="black" /></g>
<g><title>6 (position.label in template: 6.A)</title><text x="125.16" y="180.12" class="green" >A</text></g>
<g><line x1="127.204" y1="179.813" x2="135.146" y2="179.813" class="black" /></g>
<g><title>7 (position.label in template: 7.U)</title><text x="124.95" y="172.56" class="green" >T</text></g>
<g><line x1="126.994" y1="172.253" x2="135.356" y2="172.253" class="black" /></g>
<g><title>8 (position.label in template: 8.U)</title><text x="124.95" y="165" class="green" >T</text></g>
<g><line x1="126.994" y1="164.693" x2="135.356" y2="164.693" class="black" /></g>
<g><title>9 (position.label in template: 9.C)</title><text x="118.22" y="161.56" class="black" >C</text></g>
<g><title>10 (position.label in template: 10.A)</title><text x="113.32" y="155.98" class="black" >A</text></g>
<g><text x="107.526" y="159.722" class="numbering-label sequential" >10</text></g>
<g><line x1="111.775" y1="156.978" x2="109.365" y2="158.534" class="numbering-line sequential" /></g>
<g><title>11 (position.label in template: 11.G)</title><text x="110.09" y="148.97" class="black" >G</text></g>
<g><title>12 (position.label in template: 12.A)</title><text x="110.32" y="141.41" class="black" >A</text></g>
<g><title>13 (position.label in template: 13.G)</title><text x="112.39" y="134.27" class="black" >G</text></g>
<g><line x1="113.881" y1="132.565" x2="119.939" y2="126.882" class="black" /></g>
<g><title>14 (position.label in template: 14.U)</title><text x="107.37" y="128.81" class="green" >T</text></g>
<g><line x1="108.861" y1="127.106" x2="114.919" y2="121.431" class="black" /></g>
<g><title>15 (position.label in template: 15.G)</title><text x="101.92" y="123.35" class="black" >G</text></g>
<g><line x1="103.412" y1="121.647" x2="109.478" y2="115.97" class="black" /></g>
<g><title>16 (position.label in template: 16.G)</title><text x="96.69" y="117.9" class="black" >G</text></g>
<g><line x1="98.1814" y1="116.196" x2="104.239" y2="110.521" class="black" /></g>
<g><title>17 (position.label in template: 17.U)</title><text x="91.67" y="112.44" class="green" >T</text></g>
<g><line x1="93.1278" y1="110.701" x2="98.8322" y2="105.096" class="black" /></g>
<g><title>18 (position.label in template: 18.G)</title><text x="83.9" y="112.65" class="black" >G</text></g>
<g><title>19 (position.label in template: 19.G)</title><text x="77.37" y="108.83" class="black" >G</text></g>
<g><title>20 (position.label in template: 20.A)</title><text x="74.25" y="102.15" class="black" >A</text></g>
<g><text x="67.503" y="103.583" class="numbering-label sequential" >20</text></g>
<g><line x1="72.4508" y1="102.532" x2="69.3423" y2="103.192" class="numbering-line sequential" /></g>
<g><title>21 (position.label in template: 21.G)</title><text x="74.35" y="94.61" class="black" >G</text></g>
<g><line x1="75.8421" y1="92.9069" x2="81.9079" y2="87.23" class="black" /></g>
<g><title>22 (position.label in template: 22.A)</title><text x="69.54" y="89.15" class="green" >A</text></g>
<g><line x1="70.9978" y1="87.4111" x2="76.7022" y2="81.8058" class="black" /></g>
<g><title>23 (position.label in template: 23.U)</title><text x="64.1" y="83.7" class="green" >T</text></g>
<g><line x1="65.5906" y1="81.9952" x2="71.6494" y2="76.3117" class="black" /></g>
<g><title>24 (position.label in template: 24.A)</title><text x="56.78" y="82.92" class="black" >A</text></g>
<g><title>25 (position.label in template: 25.C)</title><text x="51.06" y="77.75" class="black" >C</text></g>
<g><title>26 (position.label in template: 26.A)</title><text x="50" y="70.3" class="black" >A</text></g>
<g><title>27 (position.label in template: 27.U)</title><text x="53.29" y="63.59" class="green" >T</text></g>
<g><title>28 (position.label in template: 28.A)</title><text x="60.34" y="60.38" class="black" >A</text></g>
<g><title>29 (position.label in template: 29.G)</title><text x="67.32" y="61.95" class="black" >G</text></g>
<g><title>30 (position.label in template: 30.G)</title><text x="72.25" y="67.68" class="black" >G</text></g>
<g><text x="78.5667" y="64.9096" class="numbering-label sequential" >30</text></g>
<g><line x1="73.9345" y1="66.9412" x2="76.7274" y2="65.7163" class="numbering-line sequential" /></g>
<g><title>31 (position.label in template: 31.A)</title><text x="73.14" y="75.22" class="green" >A</text></g>
<g><title>32 (position.label in template: 32.U)</title><text x="78.16" y="80.68" class="green" >T</text></g>
<g><title>33 (position.label in template: 33.C)</title><text x="83.4" y="86.14" class="black" >C</text></g>
<g><title>34 (position.label in template: 34.U)</title><text x="88.12" y="80.23" class="green" >T</text></g>
<g><title>35 (position.label in template: 35.A)</title><text x="95.48" y="77.79" class="black" >A</text></g>
<g><title>36 (position.label in template: 36.G)</title><text x="102.41" y="79.58" class="black" >G</text></g>
<g><title>37 (position.label in template: 37.G)</title><text x="107.64" y="85.04" class="black" >G</text></g>
<g><title>38 (position.label in template: 38.A)</title><text x="109.54" y="92.45" class="black" >A</text></g>
<g><title>39 (position.label in template: 39.A)</title><text x="106.8" y="99.5" class="black" >A</text></g>
<g><title>40 (position.label in template: 40.G)</title><text x="100.29" y="103.97" class="green" >G</text></g>
<g><title>41 (position.label in template: 41.C)</title><text x="105.73" y="109.43" class="black" >C</text></g>
<g><title>42 (position.label in template: 42.C)</title><text x="110.97" y="114.88" class="black" >C</text></g>
<g><title>43 (position.label in template: 43.A)</title><text x="116.41" y="120.34" class="green" >A</text></g>
<g><title>44 (position.label in template: 44.C)</title><text x="121.43" y="125.79" class="black" >C</text></g>
<g><title>45 (position.label in template: 45.G)</title><text x="128.46" y="123.61" class="black" >G</text></g>
<g><line x1="130.472" y1="123.662" x2="138.698" y2="125.125" class="black" /></g>
<g><title>46 (position.label in template: 46.G)</title><text x="129.81" y="116.17" class="black" >G</text></g>
<g><line x1="131.822" y1="116.222" x2="140.048" y2="117.685" class="black" /></g>
<g><title>47 (position.label in template: 47.C)</title><text x="131.37" y="108.73" class="black" >C</text></g>
<g><line x1="133.38" y1="108.795" x2="141.19" y2="110.241" class="black" /></g>
<g><title>48 (position.label in template: 48.A)</title><text x="132.92" y="101.3" class="green" >A</text></g>
<g><line x1="134.93" y1="101.364" x2="142.75" y2="102.803" class="black" /></g>
<g><title>49 (position.label in template: 49.A)</title><text x="127.15" y="96.41" class="black" >A</text></g>
<g><title>50 (position.label in template: 50.C)</title><text x="134.06" y="93.86" class="black" >C</text></g>
<g><line x1="136.07" y1="93.9238" x2="143.88" y2="95.3631" class="black" /></g>
<g><text x="128.744" y="89.4648" class="numbering-label sequential" >50</text></g>
<g><line x1="132.642" y1="92.6879" x2="130.584" y2="90.9856" class="numbering-line sequential" /></g>
<g><title>51 (position.label in template: 51.C)</title><text x="135.41" y="86.42" class="black" >C</text></g>
<g><line x1="137.42" y1="86.4838" x2="145.23" y2="87.9231" class="black" /></g>
<g><title>52 (position.label in template: 52.C)</title><text x="136.75" y="78.98" class="black" >C</text></g>
<g><line x1="138.76" y1="79.0435" x2="146.58" y2="80.4834" class="black" /></g>
<g><title>53 (position.label in template: 53.C)</title><text x="138.1" y="71.54" class="black" >C</text></g>
<g><line x1="140.11" y1="71.6035" x2="147.93" y2="73.0434" class="black" /></g>
<g><title>54 (position.label in template: 54.G)</title><text x="139.24" y="64.1" class="black" >G</text></g>
<g><line x1="141.252" y1="64.1515" x2="149.478" y2="65.6154" class="black" /></g>
<g><title>55 (position.label in template: 55.G)</title><text x="140.59" y="56.66" class="black" >G</text></g>
<g><line x1="142.603" y1="56.7057" x2="151.037" y2="58.1812" class="black" /></g>
<g><title>56 (position.label in template: 56.A)</title><text x="144.59" y="50" class="black" >A</text></g>
<g><title>57 (position.label in template: 57.U)</title><text x="151.82" y="51.35" class="green" >T</text></g>
<g><title>58 (position.label in template: 58.A)</title><text x="153.05" y="58.84" class="black" >A</text></g>
<g><title>59 (position.label in template: 59.C)</title><text x="151.49" y="66.28" class="black" >C</text></g>
<g><title>60 (position.label in template: 60.G)</title><text x="149.94" y="73.72" class="black" >G</text></g>
<g><title>61 (position.label in template: 61.G)</title><text x="148.59" y="81.16" class="black" >G</text></g>
<g><title>62 (position.label in template: 62.A)</title><text x="156.44" y="82.51" class="black" >A</text></g>
<g><title>63 (position.label in template: 63.A)</title><text x="155.1" y="89.95" class="black" >A</text></g>
<g><title>64 (position.label in template: 64.G)</title><text x="147.24" y="88.6" class="black" >G</text></g>
<g><title>65 (position.label in template: 65.G)</title><text x="145.89" y="96.04" class="black" >G</text></g>
<g><title>66 (position.label in template: 66.U)</title><text x="144.76" y="103.48" class="green" >T</text></g>
<g><title>67 (position.label in template: 67.G)</title><text x="143.2" y="110.92" class="black" >G</text></g>
<g><title>68 (position.label in template: 68.C)</title><text x="142.06" y="118.35" class="black" >C</text></g>
<g><title>69 (position.label in template: 69.C)</title><text x="140.71" y="125.79" class="black" >C</text></g>
<g><title>70 (position.label in template: 70.A)</title><text x="146.94" y="130.38" class="black" >A</text></g>
<g><title>71 (position.label in template: 71.G)</title><text x="150.54" y="136.77" class="black" >G</text></g>
<g><title>72 (position.label in template: 72.C)</title><text x="152.28" y="144.18" class="black" >C</text></g>
<g><title>73 (position.label in template: 73.C)</title><text x="151.11" y="151.65" class="black" >C</text></g>
<g><line x1="149.911" y1="152.998" x2="145.129" y2="159.598" class="black" /></g>
<g><title>74 (position.label in template: 74.U)</title><text x="155.88" y="145.79" class="green" >T</text></g>
<g><title>75 (position.label in template: 75.G)</title><text x="163.17" y="144.8" class="black" >G</text></g>
<g><title>76 (position.label in template: 76.A)</title><text x="169.7" y="149.24" class="black" >A</text></g>
<g><title>77 (position.label in template: 77.G)</title><text x="170.69" y="156.67" class="black" >G</text></g>
<g><title>78 (position.label in template: 78.C)</title><text x="166.81" y="163.03" class="black" >C</text></g>
<g><line x1="165.588" y1="164.362" x2="160.642" y2="170.995" class="black" /></g>
<g><title>79 (position.label in template: 79.G)</title><text x="172.72" y="167.46" class="black" >G</text></g>
<g><line x1="171.545" y1="168.826" x2="166.925" y2="175.401" class="black" /></g>
<g><title>80 (position.label in template: 80.A)</title><text x="179.26" y="171.9" class="green" >A</text></g>
<g><line x1="178.039" y1="173.233" x2="173.101" y2="179.864" class="black" /></g>
<g><title>81 (position.label in template: 81.G)</title><text x="184.97" y="176.34" class="black" >G</text></g>
<g><line x1="183.817" y1="177.721" x2="179.353" y2="184.256" class="black" /></g>
<g><title>82 (position.label in template: 82.U)</title><text x="191.3" y="180.77" class="green" >T</text></g>
<g><line x1="190.123" y1="182.134" x2="185.497" y2="188.703" class="black" /></g>
<g><title>83 (position.label in template: 83.A)</title><text x="184.32" y="190.68" class="green" >A</text></g>
<g><title>84 (position.label in template: 84.A)</title><text x="178.2" y="186.25" class="black" >A</text></g>
<g><title>85 (position.label in template: 85.U)</title><text x="171.88" y="181.81" class="green" >T</text></g>
<g><title>86 (position.label in template: 86.C)</title><text x="165.75" y="177.38" class="black" >C</text></g>
<g><title>87 (position.label in template: 87.G)</title><text x="159.42" y="172.94" class="black" >G</text></g>
<g><title>88 (position.label in template: 88.A)</title><text x="152.28" y="173.28" class="black" >A</text></g>
<g><title>89 (position.label in template: 89.A)</title><text x="146.16" y="168.84" class="black" >A</text></g>
<g><title>90 (position.label in template: 90.C)</title><text x="143.93" y="161.56" class="black" >C</text></g>
<g><title>91 (position.label in template: 91.A)</title><text x="137.4" y="165" class="green" >A</text></g>
<g><title>92 (position.label in template: 92.A)</title><text x="137.4" y="172.56" class="green" >A</text></g>
<g><title>93 (position.label in template: 93.U)</title><text x="137.19" y="180.12" class="green" >T</text></g>
<g><title>94 (position.label in template: 94.A)</title><text x="137.4" y="187.68" class="green" >A</text></g>
<g><title>95 (position.label in template: 95.A)</title><text x="137.4" y="195.24" class="green" >A</text></g>
<g><title>96 (position.label in template: 96.G)</title><text x="136.98" y="202.8" class="black" >G</text></g>
<g><title>97 (position.label in template: 97.A)</title><text x="137.4" y="210.36" class="green" >A</text></g>
<g><title>98 (position.label in template: 98.G)</title><text x="136.98" y="217.92" class="black" >G</text></g>
<g><title>99 (position.label in template: 99.3')</title><text x="143.98" y="217.92" class="green" >3'</text></g>
<g><line x1="119.994" y1="217.613" x2="122.906" y2="217.613" class="gray" /></g>
<g><line x1="124.95" y1="215.57" x2="124.95" y2="212.097" class="gray" /></g>
<g><line x1="124.95" y1="208.01" x2="124.95" y2="204.537" class="gray" /></g>
<g><line x1="124.95" y1="200.45" x2="124.95" y2="196.977" class="gray" /></g>
<g><line x1="124.95" y1="192.89" x2="124.95" y2="189.417" class="gray" /></g>
<g><line x1="125.007" y1="185.331" x2="125.103" y2="181.856" class="gray" /></g>
<g><line x1="125.103" y1="177.771" x2="125.007" y2="174.296" class="gray" /></g>
<g><line x1="124.95" y1="170.21" x2="124.95" y2="166.737" class="gray" /></g>
<g><line x1="123.13" y1="163.763" x2="120.04" y2="162.184" class="gray" /></g>
<g><line x1="116.871" y1="159.718" x2="114.669" y2="157.209" class="gray" /></g>
<g><line x1="112.465" y1="153.817" x2="110.945" y2="150.52" class="gray" /></g>
<g><line x1="110.152" y1="146.621" x2="110.258" y2="143.146" class="gray" /></g>
<g><line x1="110.889" y1="139.141" x2="111.821" y2="135.926" class="gray" /></g>
<g><line x1="111.007" y1="132.459" x2="108.753" y2="130.008" class="gray" /></g>
<g><line x1="105.926" y1="127.057" x2="103.364" y2="124.49" class="gray" /></g>
<g><line x1="100.505" y1="121.569" x2="98.1051" y2="119.068" class="gray" /></g>
<g><line x1="95.3068" y1="116.089" x2="93.0532" y2="113.638" class="gray" /></g>
<g><line x1="89.627" y1="112.189" x2="85.943" y2="112.288" class="gray" /></g>
<g><line x1="82.136" y1="111.311" x2="79.134" y2="109.555" class="gray" /></g>
<g><line x1="76.5051" y1="106.672" x2="75.1149" y2="103.695" class="gray" /></g>
<g><line x1="74.2771" y1="99.7999" x2="74.3229" y2="96.347" class="gray" /></g>
<g><line x1="72.999" y1="92.7699" x2="70.891" y2="90.377" class="gray" /></g>
<g><line x1="68.0962" y1="87.397" x2="65.5438" y2="84.8399" class="gray" /></g>
<g><line x1="62.0678" y1="83.1769" x2="58.8122" y2="82.83" class="gray" /></g>
<g><line x1="55.2638" y1="81.2431" x2="52.5762" y2="78.8138" class="gray" /></g>
<g><line x1="50.7721" y1="75.4201" x2="50.2879" y2="72.0168" class="gray" /></g>
<g><line x1="50.8997" y1="68.1584" x2="52.3903" y2="65.1185" class="gray" /></g>
<g><line x1="55.15" y1="62.4366" x2="58.48" y2="60.9203" class="gray" /></g>
<g><line x1="62.3339" y1="60.5219" x2="65.3261" y2="61.195" class="gray" /></g>
<g><line x1="68.6529" y1="63.1927" x2="70.9171" y2="65.8242" class="gray" /></g>
<g><line x1="72.4896" y1="69.4031" x2="72.9004" y2="72.8838" class="gray" /></g>
<g><line x1="74.5232" y1="76.4179" x2="76.7768" y2="78.869" class="gray" /></g>
<g><line x1="79.5751" y1="81.848" x2="81.9849" y2="84.3589" class="gray" /></g>
<g><line x1="84.6754" y1="84.2365" x2="86.8446" y2="81.5204" class="gray" /></g>
<g><line x1="90.0599" y1="79.2803" x2="93.5401" y2="78.1266" class="gray" /></g>
<g><line x1="97.4588" y1="77.9946" x2="100.431" y2="78.7623" class="gray" /></g>
<g><line x1="103.824" y1="80.7493" x2="106.226" y2="83.2576" class="gray" /></g>
<g><line x1="108.148" y1="86.7131" x2="109.032" y2="90.1638" class="gray" /></g>
<g><line x1="108.8" y1="94.0483" x2="107.54" y2="97.2885" class="gray" /></g>
<g><line x1="105.115" y1="100.35" x2="101.975" y2="102.507" class="gray" /></g>
<g><line x1="101.732" y1="105.111" x2="104.288" y2="107.676" class="gray" /></g>
<g><line x1="107.146" y1="110.597" x2="109.554" y2="113.1" class="gray" /></g>
<g><line x1="112.412" y1="116.021" x2="114.968" y2="118.586" class="gray" /></g>
<g><line x1="117.795" y1="121.537" x2="120.045" y2="123.98" class="gray" /></g>
<g><line x1="123.382" y1="124.878" x2="126.508" y2="123.909" class="gray" /></g>
<g><line x1="128.825" y1="121.293" x2="129.445" y2="117.874" class="gray" /></g>
<g><line x1="130.229" y1="113.863" x2="130.951" y2="110.424" class="gray" /></g>
<g><line x1="131.787" y1="106.423" x2="132.503" y2="102.994" class="gray" /></g>
<g><line x1="131.361" y1="99.6721" x2="128.709" y2="97.4248" class="gray" /></g>
<g><line x1="129.067" y1="95.3959" x2="132.143" y2="94.261" class="gray" /></g>
<g><line x1="134.425" y1="91.5426" x2="135.045" y2="88.1243" class="gray" /></g>
<g><line x1="135.772" y1="84.1021" x2="136.388" y2="80.6848" class="gray" /></g>
<g><line x1="137.115" y1="76.6626" x2="137.735" y2="73.2443" class="gray" /></g>
<g><line x1="138.41" y1="69.2133" x2="138.93" y2="65.8136" class="gray" /></g>
<g><line x1="139.605" y1="61.7826" x2="140.225" y2="58.3643" class="gray" /></g>
<g><line x1="141.642" y1="54.6014" x2="143.538" y2="51.4454" class="gray" /></g>
<g><line x1="146.599" y1="50.0686" x2="149.811" y2="50.6683" class="gray" /></g>
<g><line x1="152.151" y1="53.0601" x2="152.719" y2="56.5167" class="gray" /></g>
<g><line x1="152.631" y1="60.5337" x2="151.909" y2="63.9732" class="gray" /></g>
<g><line x1="151.073" y1="67.9742" x2="150.357" y2="71.4127" class="gray" /></g>
<g><line x1="149.575" y1="75.4243" x2="148.955" y2="78.8426" class="gray" /></g>
<g><line x1="150.604" y1="81.1998" x2="154.426" y2="81.8571" class="gray" /></g>
<g><line x1="156.078" y1="84.2148" x2="155.462" y2="87.6321" class="gray" /></g>
<g><line x1="153.086" y1="89.2975" x2="149.254" y2="88.6394" class="gray" /></g>
<g><line x1="146.875" y1="90.3043" x2="146.255" y2="93.7226" class="gray" /></g>
<g><line x1="145.583" y1="97.754" x2="145.067" y2="101.153" class="gray" /></g>
<g><line x1="144.341" y1="105.174" x2="143.619" y2="108.613" class="gray" /></g>
<g><line x1="142.89" y1="112.634" x2="142.37" y2="116.023" class="gray" /></g>
<g><line x1="141.695" y1="120.054" x2="141.075" y2="123.473" class="gray" /></g>
<g><line x1="142.355" y1="126.696" x2="145.295" y2="128.861" class="gray" /></g>
<g><line x1="147.943" y1="131.854" x2="149.537" y2="134.683" class="gray" /></g>
<g><line x1="151.007" y1="138.453" x2="151.813" y2="141.884" class="gray" /></g>
<g><line x1="151.964" y1="145.893" x2="151.426" y2="149.324" class="gray" /></g>
<g><line x1="152.4" y1="149.758" x2="154.59" y2="147.068" class="gray" /></g>
<g><line x1="157.905" y1="145.208" x2="161.145" y2="144.768" class="gray" /></g>
<g><line x1="164.86" y1="145.643" x2="168.01" y2="147.784" class="gray" /></g>
<g><line x1="169.97" y1="150.959" x2="170.42" y2="154.338" class="gray" /></g>
<g><line x1="169.626" y1="158.108" x2="167.874" y2="160.979" class="gray" /></g>
<g><line x1="168.445" y1="163.949" x2="171.085" y2="165.928" class="gray" /></g>
<g><line x1="174.411" y1="168.301" x2="177.569" y2="170.446" class="gray" /></g>
<g><line x1="180.873" y1="172.848" x2="183.357" y2="174.779" class="gray" /></g>
<g><line x1="186.644" y1="177.205" x2="189.626" y2="179.292" class="gray" /></g>
<g><line x1="190.123" y1="182.134" x2="185.497" y2="188.703" class="gray" /></g>
<g><line x1="182.664" y1="189.175" x2="179.856" y2="187.142" class="gray" /></g>
<g><line x1="176.528" y1="184.769" x2="173.552" y2="182.678" class="gray" /></g>
<g><line x1="170.224" y1="180.306" x2="167.406" y2="178.271" class="gray" /></g>
<g><line x1="164.077" y1="175.9" x2="161.093" y2="173.807" class="gray" /></g>
<g><line x1="157.379" y1="172.731" x2="154.321" y2="172.876" class="gray" /></g>
<g><line x1="150.626" y1="171.773" x2="147.814" y2="169.734" class="gray" /></g>
<g><line x1="145.561" y1="166.579" x2="144.529" y2="163.208" class="gray" /></g>
<g><line x1="142.122" y1="162.206" x2="139.208" y2="163.741" class="gray" /></g>
<g><line x1="137.4" y1="166.737" x2="137.4" y2="170.21" class="gray" /></g>
<g><line x1="137.343" y1="174.296" x2="137.247" y2="177.771" class="gray" /></g>
<g><line x1="137.247" y1="181.856" x2="137.343" y2="185.331" class="gray" /></g>
<g><line x1="137.4" y1="189.417" x2="137.4" y2="192.89" class="gray" /></g>
<g><line x1="137.287" y1="196.974" x2="137.093" y2="200.453" class="gray" /></g>
<g><line x1="137.093" y1="204.534" x2="137.287" y2="208.013" class="gray" /></g>
<g><line x1="137.287" y1="212.094" x2="137.093" y2="215.573" class="gray" /></g>
<g><line x1="139.024" y1="217.613" x2="141.936" y2="217.613" class="gray" /></g>
</svg>
