<svg
	xmlns="http://www.w3.org/2000/svg"
	width="239.85"
	height="236.582">
<g><style type="text/css" >
<!-- create color definitions -->
<![CDATA[
circle.red {stroke: rgb(255, 0, 255); fill: none; }
circle.green {stroke: rgb(0, 255, 0); fill: none; }
circle.blue {stroke: rgb(0, 0, 255); fill: none; }
circle.black {stroke: rgb(0, 0, 0); fill: none; }
circle.gray {stroke: rgb(204, 204, 204); fill: none; }
circle.brown {stroke: rgb(211.65, 104.55, 30.6); fill: none; }
line.red {stroke: rgb(255, 0, 255); stroke-width: 0.384503; }
line.green {stroke: rgb(0, 255, 0); stroke-width: 0.384503; }
line.blue {stroke: rgb(0, 0, 255); stroke-width: 0.384503; }
line.black {stroke: rgb(0, 0, 0); stroke-width: 0.384503; }
line.gray {stroke: rgb(204, 204, 204); stroke-width: 0.384503; }
line.brown {stroke: rgb(211.65, 104.55, 30.6); stroke-width: 0.384503; }
line {stroke: rgb(0, 0, 0); }
text.red {fill: rgb(255, 0, 255); font-size: 3.076026px; font-weight: bold; font-family: Helvetica; }
text.green {fill: rgb(0, 255, 0); font-size: 3.076026px; font-weight: bold; font-family: Helvetica; }
text.blue {fill: rgb(0, 0, 255); font-size: 3.076026px; font-weight: bold; font-family: Helvetica; }
text.black {fill: rgb(0, 0, 0); font-size: 3.076026px; font-weight: bold; font-family: Helvetica; }
text.gray {fill: rgb(204, 204, 204); font-size: 3.076026px; font-weight: bold; font-family: Helvetica; }
text.brown {fill: rgb(211.65, 104.55, 30.6); font-size: 3.076026px; font-weight: bold; font-family: Helvetica; }
text {fill: rgb(0, 0, 0); font-size: 3.076026px; font-weight: bold; font-family: Helvetica; text-anchor: middle; alignment-baseline: middle; }

.pseudoknot_connection{stroke-linecap: round; stroke-opacity: 0.2; stroke-width: 1.5; }
.pseudoknot_segment1{stroke-linecap: round; stroke-opacity: 0.4; stroke-width: 3.07603; }
.pseudoknot_segment2{stroke-linecap: round; stroke-opacity: 0.4; stroke-width: 3.07603; }
line.numbering-line{stroke: rgb(204, 204, 204); stroke-width: 0.192252; }
line.predicted{stroke: rgb(0, 0, 0); stroke-dasharray: 2; }
polyline{fill: none; stroke-linejoin: round; }
template{visibility: hidden; }
text.numbering-label{fill: rgb(204, 204, 204); }
]]>
</style></g>
<g><title>0 (position.label in template: 0.5')</title><text x="117.757" y="188.388" class="green" >5'</text></g>
<g><title>1 (position.label in template: 1.G)</title><text x="115.02" y="181.34" class="black" >G</text></g>
<g><line x1="117.071" y1="181.032" x2="125.419" y2="181.032" class="black" /></g>
<g><title>2 (position.label in template: 2.A)</title><text x="112.34" y="174.44" class="black" >A</text></g>
<g><title>3 (position.label in template: 3.G)</title><text x="115.02" y="167.55" class="green" >G</text></g>
<g><line x1="117.071" y1="167.242" x2="125.419" y2="167.242" class="black" /></g>
<g><title>4 (position.label in template: 4.G)</title><text x="115.02" y="159.99" class="black" >G</text></g>
<g><line x1="117.071" y1="159.682" x2="125.419" y2="159.682" class="black" /></g>
<g><title>5 (position.label in template: 5.G)</title><text x="115.02" y="152.43" class="black" >G</text></g>
<g><line x1="117.071" y1="152.122" x2="125.419" y2="152.122" class="black" /></g>
<g><title>6 (position.label in template: 6.U)</title><text x="115.23" y="144.87" class="green" >T</text></g>
<g><line x1="117.281" y1="144.562" x2="125.629" y2="144.562" class="black" /></g>
<g><title>7 (position.label in template: 7.G)</title><text x="107.96" y="142.16" class="black" >G</text></g>
<g><title>8 (position.label in template: 8.U)</title><text x="102.14" y="137.61" class="green" >T</text></g>
<g><title>9 (position.label in template: 9.A)</title><text x="97.79" y="131.57" class="black" >A</text></g>
<g><title>10 (position.label in template: 10.G)</title><text x="94.66" y="124.51" class="black" >G</text></g>
<g><line x1="94.6952" y1="122.152" x2="94.8348" y2="114.013" class="black" /></g>
<g><text x="90.7931" y="130.25" class="numbering-label sequential" >10</text></g>
<g><line x1="93.6288" y1="126.041" x2="91.8292" y2="128.712" class="numbering-line sequential" /></g>
<g><title>11 (position.label in template: 11.C)</title><text x="87.31" y="124.51" class="black" >C</text></g>
<g><line x1="87.2748" y1="122.152" x2="87.1352" y2="114.013" class="black" /></g>
<g><title>12 (position.label in template: 12.U)</title><text x="79.75" y="124.51" class="green" >T</text></g>
<g><line x1="79.7852" y1="122.152" x2="79.9248" y2="114.013" class="black" /></g>
<g><title>13 (position.label in template: 13.C)</title><text x="72.19" y="124.51" class="black" >C</text></g>
<g><line x1="72.1548" y1="122.152" x2="72.0152" y2="114.013" class="black" /></g>
<g><title>14 (position.label in template: 14.A)</title><text x="66.63" y="129.4" class="black" >A</text></g>
<g><title>15 (position.label in template: 15.G)</title><text x="58.67" y="129.8" class="black" >G</text></g>
<g><title>16 (position.label in template: 16.U)</title><text x="52.62" y="125.56" class="green" >T</text></g>
<g><title>17 (position.label in template: 17.G)</title><text x="50" y="118.39" class="black" >G</text></g>
<g><title>18 (position.label in template: 18.G)</title><text x="52.41" y="111.23" class="black" >G</text></g>
<g><title>19 (position.label in template: 19.U)</title><text x="58.88" y="106.98" class="green" >T</text></g>
<g><title>20 (position.label in template: 20.A)</title><text x="66.63" y="107.38" class="black" >A</text></g>
<g><text x="69.2215" y="100.962" class="numbering-label sequential" >20</text></g>
<g><line x1="67.3211" y1="105.669" x2="68.6004" y2="102.5" class="numbering-line sequential" /></g>
<g><title>21 (position.label in template: 21.G)</title><text x="71.98" y="112.27" class="black" >G</text></g>
<g><title>22 (position.label in template: 22.A)</title><text x="79.96" y="112.27" class="green" >A</text></g>
<g><title>23 (position.label in template: 23.G)</title><text x="87.1" y="112.27" class="black" >G</text></g>
<g><title>24 (position.label in template: 24.C)</title><text x="94.87" y="112.27" class="black" >C</text></g>
<g><title>25 (position.label in template: 25.A)</title><text x="97.79" y="105.21" class="black" >A</text></g>
<g><title>26 (position.label in template: 26.C)</title><text x="102.14" y="99.18" class="black" >C</text></g>
<g><title>27 (position.label in template: 27.G)</title><text x="107.96" y="94.63" class="black" >G</text></g>
<g><line x1="109.934" y1="93.7671" x2="117.966" y2="91.5077" class="black" /></g>
<g><title>28 (position.label in template: 28.U)</title><text x="106.09" y="87.36" class="green" >T</text></g>
<g><line x1="108.064" y1="86.4967" x2="116.086" y2="84.2381" class="black" /></g>
<g><title>29 (position.label in template: 29.G)</title><text x="103.8" y="80.09" class="black" >G</text></g>
<g><line x1="105.774" y1="79.2267" x2="113.796" y2="76.9681" class="black" /></g>
<g><title>30 (position.label in template: 30.C)</title><text x="101.92" y="72.83" class="black" >C</text></g>
<g><line x1="103.888" y1="71.9469" x2="111.512" y2="69.7179" class="black" /></g>
<g><text x="96.2821" y="76.8444" class="numbering-label sequential" >30</text></g>
<g><line x1="100.417" y1="73.9005" x2="98.1277" y2="75.5302" class="numbering-line sequential" /></g>
<g><title>31 (position.label in template: 31.U)</title><text x="95.64" y="68.63" class="green" >T</text></g>
<g><title>32 (position.label in template: 32.C)</title><text x="93.17" y="61.48" class="black" >C</text></g>
<g><title>33 (position.label in template: 33.A)</title><text x="95.73" y="54.3" class="black" >A</text></g>
<g><title>34 (position.label in template: 34.G)</title><text x="101.54" y="50" class="black" >G</text></g>
<g><title>35 (position.label in template: 35.C)</title><text x="109.3" y="50.35" class="black" >C</text></g>
<g><title>36 (position.label in template: 36.A)</title><text x="115.31" y="55.19" class="black" >A</text></g>
<g><title>37 (position.label in template: 37.U)</title><text x="116.8" y="62.56" class="green" >T</text></g>
<g><title>38 (position.label in template: 38.G)</title><text x="113.48" y="69.45" class="black" >G</text></g>
<g><title>39 (position.label in template: 39.C)</title><text x="115.77" y="76.72" class="black" >C</text></g>
<g><title>40 (position.label in template: 40.A)</title><text x="118.06" y="83.99" class="green" >A</text></g>
<g><title>41 (position.label in template: 41.C)</title><text x="119.94" y="91.26" class="black" >C</text></g>
<g><title>42 (position.label in template: 42.C)</title><text x="127.47" y="91.92" class="black" >C</text></g>
<g><title>43 (position.label in template: 43.A)</title><text x="134.73" y="94.63" class="black" >A</text></g>
<g><title>44 (position.label in template: 44.G)</title><text x="140.36" y="99.18" class="black" >G</text></g>
<g><title>45 (position.label in template: 45.G)</title><text x="144.91" y="105.21" class="black" >G</text></g>
<g><title>46 (position.label in template: 46.U)</title><text x="147.83" y="112.27" class="green" >T</text></g>
<g><title>47 (position.label in template: 47.C)</title><text x="148.49" y="119.8" class="black" >C</text></g>
<g><title>48 (position.label in template: 48.C)</title><text x="147.05" y="127.22" class="black" >C</text></g>
<g><line x1="145.94" y1="128.637" x2="141.47" y2="135.578" class="black" /></g>
<g><title>49 (position.label in template: 49.U)</title><text x="153.46" y="131.23" class="green" >T</text></g>
<g><line x1="152.398" y1="132.677" x2="148.242" y2="139.548" class="black" /></g>
<g><title>50 (position.label in template: 50.G)</title><text x="159.66" y="135.23" class="black" >G</text></g>
<g><line x1="158.6" y1="136.678" x2="154.45" y2="143.557" class="black" /></g>
<g><text x="163.369" y="129.387" class="numbering-label sequential" >50</text></g>
<g><line x1="160.649" y1="133.672" x2="162.393" y2="130.925" class="numbering-line sequential" /></g>
<g><title>51 (position.label in template: 51.G)</title><text x="166.08" y="139.24" class="black" >G</text></g>
<g><line x1="165.018" y1="140.687" x2="160.862" y2="147.558" class="black" /></g>
<g><title>52 (position.label in template: 52.G)</title><text x="172.49" y="143.24" class="black" >G</text></g>
<g><line x1="171.429" y1="144.687" x2="167.271" y2="151.567" class="black" /></g>
<g><title>53 (position.label in template: 53.U)</title><text x="180.18" y="142.15" class="green" >T</text></g>
<g><title>54 (position.label in template: 54.U)</title><text x="186.79" y="145.81" class="green" >T</text></g>
<g><title>55 (position.label in template: 55.C)</title><text x="189.85" y="152.72" class="black" >C</text></g>
<g><title>56 (position.label in template: 56.A)</title><text x="188.31" y="160.08" class="black" >A</text></g>
<g><title>57 (position.label in template: 57.A)</title><text x="182.47" y="164.88" class="black" >A</text></g>
<g><title>58 (position.label in template: 58.U)</title><text x="174.71" y="165.17" class="green" >T</text></g>
<g><title>59 (position.label in template: 59.C)</title><text x="168.52" y="160.83" class="black" >C</text></g>
<g><title>60 (position.label in template: 60.C)</title><text x="166.21" y="153.63" class="black" >C</text></g>
<g><title>61 (position.label in template: 61.C)</title><text x="159.8" y="149.62" class="black" >C</text></g>
<g><title>62 (position.label in template: 62.C)</title><text x="153.39" y="145.62" class="black" >C</text></g>
<g><title>63 (position.label in template: 63.A)</title><text x="147.18" y="141.61" class="green" >A</text></g>
<g><title>64 (position.label in template: 64.G)</title><text x="140.36" y="137.61" class="black" >G</text></g>
<g><title>65 (position.label in template: 65.G)</title><text x="134.32" y="142.16" class="black" >G</text></g>
<g><title>66 (position.label in template: 66.A)</title><text x="127.68" y="144.87" class="green" >A</text></g>
<g><title>67 (position.label in template: 67.C)</title><text x="127.47" y="152.43" class="black" >C</text></g>
<g><title>68 (position.label in template: 68.C)</title><text x="127.47" y="159.99" class="black" >C</text></g>
<g><title>69 (position.label in template: 69.U)</title><text x="127.47" y="167.55" class="green" >T</text></g>
<g><title>70 (position.label in template: 70.C)</title><text x="130.57" y="174.44" class="black" >C</text></g>
<g><title>71 (position.label in template: 71.C)</title><text x="127.47" y="181.34" class="black" >C</text></g>
<g><title>72 (position.label in template: 72.A)</title><text x="132.918" y="186.582" class="black" >A</text></g>
<g><title>73 (position.label in template: 73.3')</title><text x="134.354" y="194.005" class="green" >3'</text></g>
<g><line x1="117.015" y1="186.169" x2="115.762" y2="182.944" class="gray" /></g>
<g><line x1="114.278" y1="179.121" x2="113.082" y2="176.044" class="gray" /></g>
<g><line x1="113.083" y1="172.221" x2="114.277" y2="169.154" class="gray" /></g>
<g><line x1="115.02" y1="165.192" x2="115.02" y2="161.733" class="gray" /></g>
<g><line x1="115.02" y1="157.632" x2="115.02" y2="154.173" class="gray" /></g>
<g><line x1="115.077" y1="150.073" x2="115.173" y2="146.612" class="gray" /></g>
<g><line x1="113.308" y1="143.846" x2="109.882" y2="142.569" class="gray" /></g>
<g><line x1="106.344" y1="140.589" x2="103.756" y2="138.565" class="gray" /></g>
<g><line x1="100.942" y1="135.638" x2="98.9884" y2="132.926" class="gray" /></g>
<g><line x1="96.9589" y1="129.388" x2="95.4911" y2="126.077" class="gray" /></g>
<g><line x1="92.6093" y1="124.202" x2="89.3607" y2="124.202" class="gray" /></g>
<g><line x1="85.2593" y1="124.202" x2="81.8007" y2="124.202" class="gray" /></g>
<g><line x1="77.6993" y1="124.202" x2="74.2407" y2="124.202" class="gray" /></g>
<g><line x1="70.6501" y1="125.557" x2="68.1699" y2="127.738" class="gray" /></g>
<g><line x1="64.5819" y1="129.195" x2="60.7181" y2="129.389" class="gray" /></g>
<g><line x1="56.9907" y1="128.315" x2="54.2993" y2="126.429" class="gray" /></g>
<g><line x1="51.9162" y1="123.326" x2="50.7038" y2="120.009" class="gray" /></g>
<g><line x1="50.6542" y1="116.139" x2="51.7558" y2="112.866" class="gray" /></g>
<g><line x1="54.124" y1="109.797" x2="57.166" y2="107.798" class="gray" /></g>
<g><line x1="60.928" y1="106.778" x2="64.582" y2="106.967" class="gray" /></g>
<g><line x1="68.1437" y1="108.456" x2="70.4663" y2="110.579" class="gray" /></g>
<g><line x1="74.0307" y1="111.962" x2="77.9093" y2="111.962" class="gray" /></g>
<g><line x1="82.0107" y1="111.962" x2="85.0493" y2="111.962" class="gray" /></g>
<g><line x1="89.1507" y1="111.962" x2="92.8193" y2="111.962" class="gray" /></g>
<g><line x1="95.6538" y1="110.067" x2="97.0062" y2="106.797" class="gray" /></g>
<g><line x1="98.9897" y1="103.239" x2="100.94" y2="100.535" class="gray" /></g>
<g><line x1="103.756" y1="97.6094" x2="106.344" y2="95.5854" class="gray" /></g>
<g><line x1="107.449" y1="92.3364" x2="106.601" y2="89.0384" class="gray" /></g>
<g><line x1="105.474" y1="85.0965" x2="104.416" y2="81.7383" class="gray" /></g>
<g><line x1="103.286" y1="77.7972" x2="102.434" y2="74.5076" class="gray" /></g>
<g><line x1="100.215" y1="71.3824" x2="97.3446" y2="69.4624" class="gray" /></g>
<g><line x1="94.9704" y1="66.3841" x2="93.8396" y2="63.1107" class="gray" /></g>
<g><line x1="93.8587" y1="59.2408" x2="95.0413" y2="55.924" class="gray" /></g>
<g><line x1="97.3783" y1="52.7725" x2="99.8917" y2="50.9123" class="gray" /></g>
<g><line x1="103.589" y1="49.7848" x2="107.251" y2="49.95" class="gray" /></g>
<g><line x1="110.897" y1="51.3286" x2="113.713" y2="53.5962" class="gray" /></g>
<g><line x1="115.716" y1="56.8924" x2="116.394" y2="60.2424" class="gray" /></g>
<g><line x1="115.91" y1="64.0998" x2="114.37" y2="67.295" class="gray" /></g>
<g><line x1="114.096" y1="71.0983" x2="115.154" y2="74.4565" class="gray" /></g>
<g><line x1="116.386" y1="78.3683" x2="117.444" y2="81.7265" class="gray" /></g>
<g><line x1="118.573" y1="85.6678" x2="119.427" y2="88.967" class="gray" /></g>
<g><line x1="121.983" y1="91.1315" x2="125.427" y2="91.4333" class="gray" /></g>
<g><line x1="129.391" y1="92.3295" x2="132.809" y2="93.6053" class="gray" /></g>
<g><line x1="136.325" y1="95.6114" x2="138.765" y2="97.5834" class="gray" /></g>
<g><line x1="141.595" y1="100.509" x2="143.675" y2="103.265" class="gray" /></g>
<g><line x1="145.694" y1="106.797" x2="147.046" y2="110.067" class="gray" /></g>
<g><line x1="148.009" y1="114.005" x2="148.311" y2="117.45" class="gray" /></g>
<g><line x1="148.099" y1="121.506" x2="147.441" y2="124.899" class="gray" /></g>
<g><line x1="148.789" y1="128" x2="151.721" y2="129.835" class="gray" /></g>
<g><line x1="155.183" y1="132.034" x2="157.937" y2="133.811" class="gray" /></g>
<g><line x1="161.399" y1="136.009" x2="164.341" y2="137.846" class="gray" /></g>
<g><line x1="167.82" y1="140.018" x2="170.75" y2="141.847" class="gray" /></g>
<g><line x1="174.52" y1="142.645" x2="178.15" y2="142.13" class="gray" /></g>
<g><line x1="181.974" y1="142.836" x2="184.996" y2="144.509" class="gray" /></g>
<g><line x1="187.62" y1="147.377" x2="189.02" y2="150.537" class="gray" /></g>
<g><line x1="189.43" y1="154.42" x2="188.73" y2="157.765" class="gray" /></g>
<g><line x1="186.726" y1="161.075" x2="184.054" y2="163.27" class="gray" /></g>
<g><line x1="180.421" y1="164.649" x2="176.759" y2="164.786" class="gray" /></g>
<g><line x1="173.031" y1="163.685" x2="170.199" y2="161.7" class="gray" /></g>
<g><line x1="167.894" y1="158.57" x2="166.836" y2="155.275" class="gray" /></g>
<g><line x1="164.471" y1="152.235" x2="161.539" y2="150.4" class="gray" /></g>
<g><line x1="158.06" y1="148.227" x2="155.13" y2="146.398" class="gray" /></g>
<g><line x1="151.667" y1="144.2" x2="148.903" y2="142.415" class="gray" /></g>
<g><line x1="145.411" y1="140.265" x2="142.129" y2="138.34" class="gray" /></g>
<g><line x1="138.722" y1="138.536" x2="135.958" y2="140.619" class="gray" /></g>
<g><line x1="132.421" y1="142.627" x2="129.579" y2="143.787" class="gray" /></g>
<g><line x1="127.623" y1="146.612" x2="127.527" y2="150.073" class="gray" /></g>
<g><line x1="127.47" y1="154.173" x2="127.47" y2="157.632" class="gray" /></g>
<g><line x1="127.47" y1="161.733" x2="127.47" y2="165.192" class="gray" /></g>
<g><line x1="128.311" y1="169.113" x2="129.729" y2="172.262" class="gray" /></g>
<g><line x1="129.73" y1="176.003" x2="128.31" y2="179.162" class="gray" /></g>
<g><line x1="128.948" y1="182.454" x2="131.441" y2="184.853" class="gray" /></g>
<g><line x1="133.308" y1="188.288" x2="133.965" y2="191.684" class="gray" /></g>
</svg>
