<svg
	xmlns="http://www.w3.org/2000/svg"
	width="244.46"
	height="292.87">
<g><style type="text/css" >
<!-- create color definitions -->
<![CDATA[
circle.red {stroke: rgb(255, 0, 255); fill: none; }
circle.green {stroke: rgb(0, 255, 0); fill: none; }
circle.blue {stroke: rgb(0, 0, 255); fill: none; }
circle.black {stroke: rgb(0, 0, 0); fill: none; }
circle.gray {stroke: rgb(204, 204, 204); fill: none; }
circle.brown {stroke: rgb(211.65, 104.55, 30.6); fill: none; }
line.red {stroke: rgb(255, 0, 255); stroke-width: 0.383635; }
line.green {stroke: rgb(0, 255, 0); stroke-width: 0.383635; }
line.blue {stroke: rgb(0, 0, 255); stroke-width: 0.383635; }
line.black {stroke: rgb(0, 0, 0); stroke-width: 0.383635; }
line.gray {stroke: rgb(204, 204, 204); stroke-width: 0.383635; }
line.brown {stroke: rgb(211.65, 104.55, 30.6); stroke-width: 0.383635; }
line {stroke: rgb(0, 0, 0); }
text.red {fill: rgb(255, 0, 255); font-size: 3.069079px; font-weight: bold; font-family: Helvetica; }
text.green {fill: rgb(0, 255, 0); font-size: 3.069079px; font-weight: bold; font-family: Helvetica; }
text.blue {fill: rgb(0, 0, 255); font-size: 3.069079px; font-weight: bold; font-family: Helvetica; }
text.black {fill: rgb(0, 0, 0); font-size: 3.069079px; font-weight: bold; font-family: Helvetica; }
text.gray {fill: rgb(204, 204, 204); font-size: 3.069079px; font-weight: bold; font-family: Helvetica; }
text.brown {fill: rgb(211.65, 104.55, 30.6); font-size: 3.069079px; font-weight: bold; font-family: Helvetica; }
text {fill: rgb(0, 0, 0); font-size: 3.069079px; font-weight: bold; font-family: Helvetica; text-anchor: middle; alignment-baseline: middle; }

.pseudoknot_connection{stroke-linecap: round; stroke-opacity: 0.2; stroke-width: 1.5; }
.pseudoknot_segment1{stroke-linecap: round; stroke-opacity: 0.4; stroke-width: 3.06908; }
.pseudoknot_segment2{stroke-linecap: round; stroke-opacity: 0.4; stroke-width: 3.06908; }
line.numbering-line{stroke: rgb(204, 204, 204); stroke-width: 0.191817; }
line.predicted{stroke: rgb(0, 0, 0); stroke-dasharray: 2; }
polyline{fill: none; stroke-linejoin: round; }
template{visibility: hidden; }
text.numbering-label{fill: rgb(204, 204, 204); }
]]>
</style></g>
<g><title>0 (position.label in template: 0.5')</title><text x="110.33" y="242.87" class="green" >5'</text></g>
<g><title>1 (position.label in template: 1.C)</title><text x="117.33" y="242.87" class="black" >C</text></g>
<g><line x1="119.376" y1="242.563" x2="127.314" y2="242.563" class="black" /></g>
<g><title>2 (position.label in template: 2.U)</title><text x="117.33" y="235.31" class="green" >T</text></g>
<g><line x1="119.376" y1="235.003" x2="127.734" y2="235.003" class="black" /></g>
<g><title>3 (position.label in template: 3.C)</title><text x="117.33" y="227.75" class="black" >C</text></g>
<g><line x1="119.376" y1="227.443" x2="127.314" y2="227.443" class="black" /></g>
<g><title>4 (position.label in template: 4.U)</title><text x="117.33" y="220.19" class="green" >T</text></g>
<g><line x1="119.376" y1="219.883" x2="127.734" y2="219.883" class="black" /></g>
<g><title>5 (position.label in template: 5.U)</title><text x="117.33" y="212.63" class="green" >T</text></g>
<g><line x1="119.376" y1="212.323" x2="127.734" y2="212.323" class="black" /></g>
<g><title>6 (position.label in template: 6.A)</title><text x="117.54" y="205.07" class="green" >A</text></g>
<g><line x1="119.586" y1="204.763" x2="127.524" y2="204.763" class="black" /></g>
<g><title>7 (position.label in template: 7.U)</title><text x="117.33" y="197.51" class="green" >T</text></g>
<g><line x1="119.376" y1="197.203" x2="127.734" y2="197.203" class="black" /></g>
<g><title>8 (position.label in template: 8.C)</title><text x="117.33" y="189.95" class="black" >C</text></g>
<g><line x1="119.376" y1="189.643" x2="127.314" y2="189.643" class="black" /></g>
<g><title>9 (position.label in template: 9.G)</title><text x="110.39" y="186.51" class="black" >G</text></g>
<g><title>10 (position.label in template: 10.A)</title><text x="105.71" y="180.93" class="black" >A</text></g>
<g><text x="99.8649" y="184.607" class="numbering-label sequential" >10</text></g>
<g><line x1="104.151" y1="181.911" x2="101.706" y2="183.449" class="numbering-line sequential" /></g>
<g><title>11 (position.label in template: 11.G)</title><text x="102.47" y="173.92" class="black" >G</text></g>
<g><title>12 (position.label in template: 12.A)</title><text x="102.7" y="166.36" class="black" >A</text></g>
<g><title>13 (position.label in template: 13.G)</title><text x="104.77" y="159.22" class="black" >G</text></g>
<g><line x1="106.262" y1="157.513" x2="112.318" y2="151.833" class="black" /></g>
<g><title>14 (position.label in template: 14.A)</title><text x="97.84" y="161.02" class="black" >A</text></g>
<g><title>15 (position.label in template: 15.G)</title><text x="99.54" y="153.76" class="black" >G</text></g>
<g><line x1="101.033" y1="152.054" x2="107.087" y2="146.382" class="black" /></g>
<g><title>16 (position.label in template: 16.G)</title><text x="94.3" y="148.3" class="black" >G</text></g>
<g><line x1="95.7939" y1="146.595" x2="101.856" y2="140.921" class="black" /></g>
<g><title>17 (position.label in template: 17.U)</title><text x="89.28" y="142.85" class="green" >T</text></g>
<g><line x1="90.7394" y1="141.109" x2="96.4406" y2="135.507" class="black" /></g>
<g><title>18 (position.label in template: 18.G)</title><text x="81.51" y="143.05" class="black" >G</text></g>
<g><title>19 (position.label in template: 19.G)</title><text x="74.98" y="139.24" class="black" >G</text></g>
<g><title>20 (position.label in template: 20.A)</title><text x="71.86" y="132.56" class="black" >A</text></g>
<g><text x="65.1043" y="133.99" class="numbering-label sequential" >20</text></g>
<g><line x1="70.0585" y1="132.941" x2="66.9457" y2="133.6" class="numbering-line sequential" /></g>
<g><title>21 (position.label in template: 21.G)</title><text x="71.97" y="125.02" class="black" >G</text></g>
<g><line x1="73.4623" y1="123.313" x2="79.5177" y2="117.633" class="black" /></g>
<g><title>22 (position.label in template: 22.G)</title><text x="66.73" y="119.56" class="black" >G</text></g>
<g><line x1="68.2239" y1="117.855" x2="74.2861" y2="112.181" class="black" /></g>
<g><title>23 (position.label in template: 23.G)</title><text x="61.5" y="114.1" class="black" >G</text></g>
<g><line x1="62.9931" y1="112.394" x2="69.0469" y2="106.722" class="black" /></g>
<g><title>24 (position.label in template: 24.A)</title><text x="54.52" y="112.55" class="black" >A</text></g>
<g><title>25 (position.label in template: 25.A)</title><text x="50" y="106.49" class="black" >A</text></g>
<g><title>26 (position.label in template: 26.A)</title><text x="50.63" y="98.95" class="black" >A</text></g>
<g><title>27 (position.label in template: 27.U)</title><text x="55.88" y="93.72" class="green" >T</text></g>
<g><title>28 (position.label in template: 28.G)</title><text x="63.22" y="93.41" class="black" >G</text></g>
<g><title>29 (position.label in template: 29.G)</title><text x="69.09" y="98.17" class="black" >G</text></g>
<g><title>30 (position.label in template: 30.C)</title><text x="70.54" y="105.63" class="black" >C</text></g>
<g><text x="76.6721" y="102.455" class="numbering-label sequential" >30</text></g>
<g><line x1="72.1752" y1="104.783" x2="74.8307" y2="103.408" class="numbering-line sequential" /></g>
<g><title>31 (position.label in template: 31.C)</title><text x="75.78" y="111.09" class="black" >C</text></g>
<g><title>32 (position.label in template: 32.C)</title><text x="81.01" y="116.54" class="black" >C</text></g>
<g><title>33 (position.label in template: 33.U)</title><text x="85.73" y="110.64" class="green" >T</text></g>
<g><title>34 (position.label in template: 34.A)</title><text x="93.09" y="108.2" class="black" >A</text></g>
<g><title>35 (position.label in template: 35.U)</title><text x="100.23" y="109.99" class="green" >T</text></g>
<g><title>36 (position.label in template: 36.G)</title><text x="105.26" y="115.44" class="black" >G</text></g>
<g><title>37 (position.label in template: 37.A)</title><text x="107.15" y="122.86" class="black" >A</text></g>
<g><title>38 (position.label in template: 38.A)</title><text x="104.42" y="129.91" class="black" >A</text></g>
<g><title>39 (position.label in template: 39.G)</title><text x="97.9" y="134.38" class="green" >G</text></g>
<g><title>40 (position.label in template: 40.C)</title><text x="103.35" y="139.83" class="black" >C</text></g>
<g><title>41 (position.label in template: 41.C)</title><text x="108.58" y="145.29" class="black" >C</text></g>
<g><title>42 (position.label in template: 42.C)</title><text x="113.81" y="150.74" class="black" >C</text></g>
<g><title>43 (position.label in template: 43.G)</title><text x="120.84" y="148.56" class="black" >G</text></g>
<g><line x1="122.854" y1="148.611" x2="131.086" y2="150.075" class="black" /></g>
<g><title>44 (position.label in template: 44.G)</title><text x="122.19" y="141.12" class="black" >G</text></g>
<g><line x1="124.204" y1="141.173" x2="132.426" y2="142.643" class="black" /></g>
<g><title>45 (position.label in template: 45.C)</title><text x="123.75" y="133.69" class="black" >C</text></g>
<g><line x1="125.762" y1="133.754" x2="133.568" y2="135.192" class="black" /></g>
<g><title>46 (position.label in template: 46.A)</title><text x="125.3" y="126.25" class="green" >A</text></g>
<g><line x1="127.312" y1="126.314" x2="135.128" y2="127.753" class="black" /></g>
<g><title>47 (position.label in template: 47.A)</title><text x="119.53" y="121.36" class="black" >A</text></g>
<g><title>48 (position.label in template: 48.C)</title><text x="126.44" y="118.81" class="black" >C</text></g>
<g><line x1="128.452" y1="118.874" x2="136.258" y2="120.312" class="black" /></g>
<g><title>49 (position.label in template: 49.C)</title><text x="127.79" y="111.37" class="black" >C</text></g>
<g><line x1="129.802" y1="111.434" x2="137.608" y2="112.872" class="black" /></g>
<g><title>50 (position.label in template: 50.A)</title><text x="126.17" y="104.03" class="black" >A</text></g>
<g><text x="119.358" y="102.9" class="numbering-label sequential" >50</text></g>
<g><line x1="124.353" y1="103.729" x2="121.199" y2="103.206" class="numbering-line sequential" /></g>
<g><title>51 (position.label in template: 51.G)</title><text x="130.04" y="97.8" class="green" >G</text></g>
<g><line x1="132.054" y1="97.8516" x2="140.276" y2="99.3146" class="black" /></g>
<g><title>52 (position.label in template: 52.U)</title><text x="131.59" y="90.36" class="green" >T</text></g>
<g><line x1="133.604" y1="90.4116" x2="141.826" y2="91.8746" class="black" /></g>
<g><title>53 (position.label in template: 53.G)</title><text x="132.73" y="82.92" class="black" >G</text></g>
<g><line x1="134.744" y1="82.9716" x2="142.966" y2="84.4346" class="black" /></g>
<g><title>54 (position.label in template: 54.U)</title><text x="134.29" y="75.48" class="green" >T</text></g>
<g><line x1="136.304" y1="75.5316" x2="144.526" y2="76.9946" class="black" /></g>
<g><title>55 (position.label in template: 55.G)</title><text x="129.35" y="69.58" class="black" >G</text></g>
<g><title>56 (position.label in template: 56.A)</title><text x="128.73" y="62.1" class="black" >A</text></g>
<g><title>57 (position.label in template: 57.U)</title><text x="131.48" y="55.14" class="green" >T</text></g>
<g><title>58 (position.label in template: 58.A)</title><text x="137.8" y="50.69" class="black" >A</text></g>
<g><title>59 (position.label in template: 59.A)</title><text x="145.33" y="50" class="black" >A</text></g>
<g><title>60 (position.label in template: 60.U)</title><text x="151.93" y="53.28" class="green" >T</text></g>
<g><title>61 (position.label in template: 61.U)</title><text x="156.09" y="59.6" class="green" >T</text></g>
<g><title>62 (position.label in template: 62.U)</title><text x="156.42" y="67.15" class="green" >T</text></g>
<g><title>63 (position.label in template: 63.C)</title><text x="152.83" y="73.8" class="black" >C</text></g>
<g><title>64 (position.label in template: 64.A)</title><text x="146.54" y="77.66" class="green" >A</text></g>
<g><title>65 (position.label in template: 65.C)</title><text x="144.98" y="85.1" class="black" >C</text></g>
<g><title>66 (position.label in template: 66.A)</title><text x="143.84" y="92.54" class="green" >A</text></g>
<g><title>67 (position.label in template: 67.U)</title><text x="142.29" y="99.98" class="green" >T</text></g>
<g><title>68 (position.label in template: 68.A)</title><text x="148.72" y="104.27" class="black" >A</text></g>
<g><title>69 (position.label in template: 69.C)</title><text x="147.17" y="111.71" class="black" >C</text></g>
<g><title>70 (position.label in template: 70.G)</title><text x="139.62" y="113.55" class="black" >G</text></g>
<g><title>71 (position.label in template: 71.G)</title><text x="138.27" y="120.99" class="black" >G</text></g>
<g><title>72 (position.label in template: 72.U)</title><text x="137.14" y="128.43" class="green" >T</text></g>
<g><title>73 (position.label in template: 73.G)</title><text x="135.58" y="135.87" class="black" >G</text></g>
<g><title>74 (position.label in template: 74.C)</title><text x="134.44" y="143.31" class="black" >C</text></g>
<g><title>75 (position.label in template: 75.C)</title><text x="133.1" y="150.74" class="black" >C</text></g>
<g><title>76 (position.label in template: 76.A)</title><text x="139.32" y="155.33" class="black" >A</text></g>
<g><title>77 (position.label in template: 77.A)</title><text x="143.34" y="161.73" class="black" >A</text></g>
<g><title>78 (position.label in template: 78.U)</title><text x="144.66" y="169.13" class="green" >T</text></g>
<g><title>79 (position.label in template: 79.U)</title><text x="143.49" y="176.6" class="green" >T</text></g>
<g><line x1="142.312" y1="177.966" x2="137.688" y2="184.53" class="black" /></g>
<g><title>80 (position.label in template: 80.C)</title><text x="148.26" y="170.74" class="black" >C</text></g>
<g><title>81 (position.label in template: 81.C)</title><text x="155.76" y="169.75" class="black" >C</text></g>
<g><title>82 (position.label in template: 82.U)</title><text x="161.88" y="174.19" class="green" >T</text></g>
<g><title>83 (position.label in template: 83.G)</title><text x="163.07" y="181.62" class="black" >G</text></g>
<g><title>84 (position.label in template: 84.C)</title><text x="159.19" y="187.98" class="black" >C</text></g>
<g><line x1="157.967" y1="189.313" x2="153.023" y2="195.943" class="black" /></g>
<g><title>85 (position.label in template: 85.A)</title><text x="165.52" y="192.42" class="green" >A</text></g>
<g><line x1="164.297" y1="193.753" x2="159.353" y2="200.383" class="black" /></g>
<g><title>86 (position.label in template: 86.G)</title><text x="171.23" y="196.85" class="black" >G</text></g>
<g><line x1="170.052" y1="198.216" x2="165.428" y2="204.78" class="black" /></g>
<g><title>87 (position.label in template: 87.A)</title><text x="177.76" y="201.29" class="black" >A</text></g>
<g><line x1="176.56" y1="202.64" x2="171.78" y2="209.236" class="black" /></g>
<g><title>88 (position.label in template: 88.U)</title><text x="183.68" y="205.72" class="green" >T</text></g>
<g><line x1="182.48" y1="207.071" x2="177.7" y2="213.676" class="black" /></g>
<g><title>89 (position.label in template: 89.A)</title><text x="190.01" y="210.16" class="black" >A</text></g>
<g><line x1="188.81" y1="211.51" x2="184.03" y2="218.106" class="black" /></g>
<g><title>90 (position.label in template: 90.A)</title><text x="194.46" y="216.27" class="black" >A</text></g>
<g><title>91 (position.label in template: 91.U)</title><text x="189.81" y="222.39" class="green" >T</text></g>
<g><title>92 (position.label in template: 92.A)</title><text x="182.83" y="220.07" class="black" >A</text></g>
<g><title>93 (position.label in template: 93.U)</title><text x="176.5" y="215.64" class="green" >T</text></g>
<g><title>94 (position.label in template: 94.A)</title><text x="170.58" y="211.2" class="black" >A</text></g>
<g><title>95 (position.label in template: 95.C)</title><text x="164.25" y="206.76" class="black" >C</text></g>
<g><title>96 (position.label in template: 96.U)</title><text x="158.13" y="202.33" class="green" >T</text></g>
<g><title>97 (position.label in template: 97.G)</title><text x="151.8" y="197.89" class="black" >G</text></g>
<g><title>98 (position.label in template: 98.C)</title><text x="144.46" y="198.23" class="black" >C</text></g>
<g><title>99 (position.label in template: 99.A)</title><text x="138.54" y="193.79" class="black" >A</text></g>
<g><title>100 (position.label in template: 100.A)</title><text x="136.51" y="186.51" class="green" >A</text></g>
<g><text x="133.845" y="192.881" class="numbering-label sequential" >100</text></g>
<g><line x1="135.799" y1="188.209" x2="134.487" y2="191.346" class="numbering-line sequential" /></g>
<g><title>101 (position.label in template: 101.G)</title><text x="129.36" y="189.95" class="black" >G</text></g>
<g><title>102 (position.label in template: 102.A)</title><text x="129.78" y="197.51" class="green" >A</text></g>
<g><title>103 (position.label in template: 103.U)</title><text x="129.57" y="205.07" class="green" >T</text></g>
<g><title>104 (position.label in template: 104.A)</title><text x="129.78" y="212.63" class="green" >A</text></g>
<g><title>105 (position.label in template: 105.A)</title><text x="129.78" y="220.19" class="green" >A</text></g>
<g><title>106 (position.label in template: 106.G)</title><text x="129.36" y="227.75" class="black" >G</text></g>
<g><title>107 (position.label in template: 107.A)</title><text x="129.78" y="235.31" class="green" >A</text></g>
<g><title>108 (position.label in template: 108.G)</title><text x="129.36" y="242.87" class="black" >G</text></g>
<g><title>109 (position.label in template: 109.3')</title><text x="136.36" y="242.87" class="green" >3'</text></g>
<g><line x1="112.376" y1="242.563" x2="115.284" y2="242.563" class="gray" /></g>
<g><line x1="117.33" y1="240.517" x2="117.33" y2="237.049" class="gray" /></g>
<g><line x1="117.33" y1="232.957" x2="117.33" y2="229.489" class="gray" /></g>
<g><line x1="117.33" y1="225.397" x2="117.33" y2="221.929" class="gray" /></g>
<g><line x1="117.33" y1="217.837" x2="117.33" y2="214.369" class="gray" /></g>
<g><line x1="117.387" y1="210.278" x2="117.483" y2="206.808" class="gray" /></g>
<g><line x1="117.483" y1="202.718" x2="117.387" y2="199.248" class="gray" /></g>
<g><line x1="117.33" y1="195.157" x2="117.33" y2="191.689" class="gray" /></g>
<g><line x1="115.497" y1="188.734" x2="112.223" y2="187.112" class="gray" /></g>
<g><line x1="109.075" y1="184.635" x2="107.025" y2="182.191" class="gray" /></g>
<g><line x1="104.852" y1="178.766" x2="103.328" y2="175.47" class="gray" /></g>
<g><line x1="102.532" y1="171.568" x2="102.638" y2="168.098" class="gray" /></g>
<g><line x1="103.27" y1="164.088" x2="104.2" y2="160.878" class="gray" /></g>
<g><line x1="102.79" y1="159.427" x2="99.8203" y2="160.199" class="gray" /></g>
<g><line x1="98.3065" y1="158.721" x2="99.0735" y2="155.445" class="gray" /></g>
<g><line x1="98.1233" y1="151.977" x2="95.7167" y2="149.469" class="gray" /></g>
<g><line x1="92.9138" y1="146.488" x2="90.6662" y2="144.048" class="gray" /></g>
<g><line x1="87.2346" y1="142.596" x2="83.5554" y2="142.69" class="gray" /></g>
<g><line x1="79.7428" y1="141.712" x2="76.7472" y2="139.964" class="gray" /></g>
<g><line x1="74.1141" y1="137.079" x2="72.7259" y2="134.107" class="gray" /></g>
<g><line x1="71.8898" y1="130.207" x2="71.9402" y2="126.759" class="gray" /></g>
<g><line x1="70.5533" y1="123.237" x2="68.1467" y2="120.729" class="gray" /></g>
<g><line x1="65.3147" y1="117.776" x2="62.9153" y2="115.271" class="gray" /></g>
<g><line x1="59.5026" y1="113.35" x2="56.5174" y2="112.687" class="gray" /></g>
<g><line x1="53.2967" y1="110.603" x2="51.2233" y2="107.823" class="gray" /></g>
<g><line x1="50.1704" y1="104.144" x2="50.4596" y2="100.682" class="gray" /></g>
<g><line x1="52.0795" y1="97.1991" x2="54.4305" y2="94.8571" class="gray" /></g>
<g><line x1="57.9242" y1="93.3268" x2="61.1758" y2="93.1894" class="gray" /></g>
<g><line x1="64.8092" y1="94.3918" x2="67.5008" y2="96.5744" class="gray" /></g>
<g><line x1="69.4804" y1="99.8716" x2="70.1496" y2="103.315" class="gray" /></g>
<g><line x1="71.9567" y1="106.799" x2="74.3633" y2="109.307" class="gray" /></g>
<g><line x1="77.1967" y1="112.259" x2="79.5933" y2="114.757" class="gray" /></g>
<g><line x1="82.2882" y1="114.635" x2="84.4518" y2="111.931" class="gray" /></g>
<g><line x1="87.6721" y1="109.689" x2="91.1479" y2="108.537" class="gray" /></g>
<g><line x1="95.0746" y1="108.391" x2="98.2454" y2="109.186" class="gray" /></g>
<g><line x1="101.618" y1="111.187" x2="103.872" y2="113.63" class="gray" /></g>
<g><line x1="105.765" y1="117.116" x2="106.645" y2="120.57" class="gray" /></g>
<g><line x1="106.411" y1="124.461" x2="105.159" y2="127.695" class="gray" /></g>
<g><line x1="102.732" y1="130.76" x2="99.5875" y2="132.916" class="gray" /></g>
<g><line x1="99.3468" y1="135.52" x2="101.903" y2="138.076" class="gray" /></g>
<g><line x1="104.765" y1="141.001" x2="107.165" y2="143.506" class="gray" /></g>
<g><line x1="109.997" y1="146.459" x2="112.393" y2="148.957" class="gray" /></g>
<g><line x1="115.764" y1="149.827" x2="118.886" y2="148.859" class="gray" /></g>
<g><line x1="121.205" y1="146.24" x2="121.825" y2="142.826" class="gray" /></g>
<g><line x1="122.61" y1="138.811" x2="123.33" y2="135.385" class="gray" /></g>
<g><line x1="124.167" y1="131.38" x2="124.883" y2="127.946" class="gray" /></g>
<g><line x1="123.739" y1="124.62" x2="121.091" y2="122.376" class="gray" /></g>
<g><line x1="121.45" y1="120.345" x2="124.52" y2="119.211" class="gray" /></g>
<g><line x1="126.805" y1="116.49" x2="127.425" y2="113.076" class="gray" /></g>
<g><line x1="127.349" y1="109.065" x2="126.611" y2="105.721" class="gray" /></g>
<g><line x1="127.25" y1="101.985" x2="128.96" y2="99.2311" class="gray" /></g>
<g><line x1="130.457" y1="95.49" x2="131.173" y2="92.0561" class="gray" /></g>
<g><line x1="131.9" y1="88.0306" x2="132.42" y2="84.6355" class="gray" /></g>
<g><line x1="133.15" y1="80.6106" x2="133.87" y2="77.1756" class="gray" /></g>
<g><line x1="132.976" y1="73.6043" x2="130.664" y2="70.8419" class="gray" /></g>
<g><line x1="129.181" y1="67.234" x2="128.899" y2="63.8322" class="gray" /></g>
<g><line x1="129.482" y1="59.8902" x2="130.728" y2="56.736" class="gray" /></g>
<g><line x1="133.153" y1="53.6551" x2="136.127" y2="51.561" class="gray" /></g>
<g><line x1="139.838" y1="50.1964" x2="143.292" y2="49.8798" class="gray" /></g>
<g><line x1="147.162" y1="50.6037" x2="150.098" y2="52.0625" class="gray" /></g>
<g><line x1="153.055" y1="54.6821" x2="154.965" y2="57.584" class="gray" /></g>
<g><line x1="156.179" y1="61.3372" x2="156.331" y2="64.799" class="gray" /></g>
<g><line x1="155.448" y1="68.6435" x2="153.802" y2="71.6926" class="gray" /></g>
<g><line x1="151.086" y1="74.5633" x2="148.284" y2="76.2829" class="gray" /></g>
<g><line x1="146.12" y1="79.3556" x2="145.4" y2="82.7906" class="gray" /></g>
<g><line x1="144.67" y1="86.8155" x2="144.15" y2="90.2106" class="gray" /></g>
<g><line x1="143.423" y1="94.2361" x2="142.707" y2="97.67" class="gray" /></g>
<g><line x1="143.992" y1="100.809" x2="147.018" y2="102.828" class="gray" /></g>
<g><line x1="148.303" y1="105.966" x2="147.587" y2="109.4" class="gray" /></g>
<g><line x1="145.182" y1="111.888" x2="141.608" y2="112.759" class="gray" /></g>
<g><line x1="139.255" y1="115.256" x2="138.635" y2="118.67" class="gray" /></g>
<g><line x1="137.963" y1="122.706" x2="137.447" y2="126.1" class="gray" /></g>
<g><line x1="136.72" y1="130.126" x2="136" y2="133.561" class="gray" /></g>
<g><line x1="135.27" y1="137.586" x2="134.75" y2="140.981" class="gray" /></g>
<g><line x1="134.077" y1="145.017" x2="133.463" y2="148.42" class="gray" /></g>
<g><line x1="134.746" y1="151.648" x2="137.674" y2="153.808" class="gray" /></g>
<g><line x1="140.408" y1="156.756" x2="142.252" y2="159.69" class="gray" /></g>
<g><line x1="143.699" y1="163.437" x2="144.301" y2="166.809" class="gray" /></g>
<g><line x1="144.343" y1="170.845" x2="143.807" y2="174.272" class="gray" /></g>
<g><line x1="144.782" y1="174.706" x2="146.968" y2="172.02" class="gray" /></g>
<g><line x1="150.288" y1="170.165" x2="153.732" y2="169.711" class="gray" /></g>
<g><line x1="157.416" y1="170.645" x2="160.224" y2="172.682" class="gray" /></g>
<g><line x1="162.204" y1="175.903" x2="162.746" y2="179.293" class="gray" /></g>
<g><line x1="162.004" y1="183.06" x2="160.256" y2="185.926" class="gray" /></g>
<g><line x1="160.865" y1="188.848" x2="163.845" y2="190.938" class="gray" /></g>
<g><line x1="167.137" y1="193.367" x2="169.613" y2="195.289" class="gray" /></g>
<g><line x1="172.922" y1="197.694" x2="176.068" y2="199.833" class="gray" /></g>
<g><line x1="179.398" y1="202.209" x2="182.042" y2="204.187" class="gray" /></g>
<g><line x1="185.355" y1="206.588" x2="188.335" y2="208.678" class="gray" /></g>
<g><line x1="191.215" y1="211.507" x2="193.255" y2="214.309" class="gray" /></g>
<g><line x1="193.222" y1="217.592" x2="191.048" y2="220.454" class="gray" /></g>
<g><line x1="187.868" y1="221.438" x2="184.772" y2="220.408" class="gray" /></g>
<g><line x1="181.154" y1="218.59" x2="178.176" y2="216.506" class="gray" /></g>
<g><line x1="174.863" y1="214.105" x2="172.217" y2="212.121" class="gray" /></g>
<g><line x1="168.905" y1="209.718" x2="165.925" y2="207.628" class="gray" /></g>
<g><line x1="162.593" y1="205.253" x2="159.787" y2="203.223" class="gray" /></g>
<g><line x1="156.455" y1="200.848" x2="153.475" y2="198.758" class="gray" /></g>
<g><line x1="149.756" y1="197.678" x2="146.504" y2="197.828" class="gray" /></g>
<g><line x1="142.823" y1="196.695" x2="140.177" y2="194.711" class="gray" /></g>
<g><line x1="137.99" y1="191.512" x2="137.06" y2="188.174" class="gray" /></g>
<g><line x1="134.666" y1="187.09" x2="131.204" y2="188.756" class="gray" /></g>
<g><line x1="129.473" y1="191.686" x2="129.667" y2="195.16" class="gray" /></g>
<g><line x1="129.723" y1="199.248" x2="129.627" y2="202.718" class="gray" /></g>
<g><line x1="129.627" y1="206.808" x2="129.723" y2="210.278" class="gray" /></g>
<g><line x1="129.78" y1="214.369" x2="129.78" y2="217.837" class="gray" /></g>
<g><line x1="129.667" y1="221.926" x2="129.473" y2="225.4" class="gray" /></g>
<g><line x1="129.473" y1="229.486" x2="129.667" y2="232.96" class="gray" /></g>
<g><line x1="129.667" y1="237.046" x2="129.473" y2="240.52" class="gray" /></g>
<g><line x1="131.406" y1="242.563" x2="134.314" y2="242.563" class="gray" /></g>
</svg>
