<svg
	xmlns="http://www.w3.org/2000/svg"
	width="205.44"
	height="248.35">
<g><style type="text/css" >
<!-- create color definitions -->
<![CDATA[
circle.red {stroke: rgb(255, 0, 255); fill: none; }
circle.green {stroke: rgb(0, 255, 0); fill: none; }
circle.blue {stroke: rgb(0, 0, 255); fill: none; }
circle.black {stroke: rgb(0, 0, 0); fill: none; }
circle.gray {stroke: rgb(204, 204, 204); fill: none; }
circle.brown {stroke: rgb(211.65, 104.55, 30.6); fill: none; }
line.red {stroke: rgb(255, 0, 255); stroke-width: 0.380269; }
line.green {stroke: rgb(0, 255, 0); stroke-width: 0.380269; }
line.blue {stroke: rgb(0, 0, 255); stroke-width: 0.380269; }
line.black {stroke: rgb(0, 0, 0); stroke-width: 0.380269; }
line.gray {stroke: rgb(204, 204, 204); stroke-width: 0.380269; }
line.brown {stroke: rgb(211.65, 104.55, 30.6); stroke-width: 0.380269; }
line {stroke: rgb(0, 0, 0); }
text.red {fill: rgb(255, 0, 255); font-size: 3.042152px; font-weight: bold; font-family: Helvetica; }
text.green {fill: rgb(0, 255, 0); font-size: 3.042152px; font-weight: bold; font-family: Helvetica; }
text.blue {fill: rgb(0, 0, 255); font-size: 3.042152px; font-weight: bold; font-family: Helvetica; }
text.black {fill: rgb(0, 0, 0); font-size: 3.042152px; font-weight: bold; font-family: Helvetica; }
text.gray {fill: rgb(204, 204, 204); font-size: 3.042152px; font-weight: bold; font-family: Helvetica; }
text.brown {fill: rgb(211.65, 104.55, 30.6); font-size: 3.042152px; font-weight: bold; font-family: Helvetica; }
text {fill: rgb(0, 0, 0); font-size: 3.042152px; font-weight: bold; font-family: Helvetica; text-anchor: middle; alignment-baseline: middle; }

.pseudoknot_connection{stroke-linecap: round; stroke-opacity: 0.2; stroke-width: 1.5; }
.pseudoknot_segment1{stroke-linecap: round; stroke-opacity: 0.4; stroke-width: 3.04215; }
.pseudoknot_segment2{stroke-linecap: round; stroke-opacity: 0.4; stroke-width: 3.04215; }
line.numbering-line{stroke: rgb(204, 204, 204); stroke-width: 0.190134; }
line.predicted{stroke: rgb(0, 0, 0); stroke-dasharray: 2; }
polyline{fill: none; stroke-linejoin: round; }
template{visibility: hidden; }
text.numbering-label{fill: rgb(204, 204, 204); }
]]>
</style></g>
<g><title>0 (position.label in template: 0.5')</title><text x="120.88" y="198.35" class="green" >5'</text></g>
<g><title>1 (position.label in template: 1.A)</title><text x="127.88" y="198.35" class="black" >A</text></g>
<g><line x1="129.908" y1="198.046" x2="137.672" y2="198.046" class="black" /></g>
<g><title>2 (position.label in template: 2.U)</title><text x="127.67" y="190.79" class="green" >T</text></g>
<g><line x1="129.698" y1="190.486" x2="137.672" y2="190.486" class="black" /></g>
<g><title>3 (position.label in template: 3.U)</title><text x="127.67" y="183.23" class="green" >T</text></g>
<g><line x1="129.698" y1="182.926" x2="137.882" y2="182.926" class="black" /></g>
<g><title>4 (position.label in template: 4.A)</title><text x="127.88" y="175.67" class="green" >A</text></g>
<g><line x1="129.908" y1="175.366" x2="137.882" y2="175.366" class="black" /></g>
<g><title>5 (position.label in template: 5.A)</title><text x="122.29" y="170.58" class="black" >A</text></g>
<g><title>6 (position.label in template: 6.A)</title><text x="120.21" y="163.31" class="black" >A</text></g>
<g><title>7 (position.label in template: 7.A)</title><text x="122.29" y="156.04" class="black" >A</text></g>
<g><title>8 (position.label in template: 8.C)</title><text x="127.67" y="150.96" class="black" >C</text></g>
<g><line x1="129.698" y1="150.656" x2="137.672" y2="150.656" class="black" /></g>
<g><title>9 (position.label in template: 9.U)</title><text x="127.67" y="143.4" class="green" >T</text></g>
<g><line x1="129.698" y1="143.096" x2="138.092" y2="143.096" class="black" /></g>
<g><title>10 (position.label in template: 10.C)</title><text x="127.67" y="135.84" class="black" >C</text></g>
<g><line x1="129.698" y1="135.536" x2="137.672" y2="135.536" class="black" /></g>
<g><text x="120.825" y="135.84" class="numbering-label sequential" >10</text></g>
<g><line x1="125.845" y1="135.84" x2="122.65" y2="135.84" class="numbering-line sequential" /></g>
<g><title>11 (position.label in template: 11.C)</title><text x="127.67" y="128.28" class="black" >C</text></g>
<g><line x1="129.698" y1="127.976" x2="137.672" y2="127.976" class="black" /></g>
<g><title>12 (position.label in template: 12.G)</title><text x="121.04" y="124.29" class="black" >G</text></g>
<g><title>13 (position.label in template: 13.C)</title><text x="117.02" y="118.02" class="black" >C</text></g>
<g><title>14 (position.label in template: 14.U)</title><text x="115.72" y="110.58" class="green" >T</text></g>
<g><line x1="116.508" y1="108.407" x2="119.722" y2="100.785" class="black" /></g>
<g><title>15 (position.label in template: 15.U)</title><text x="108.71" y="107.75" class="green" >T</text></g>
<g><line x1="109.469" y1="105.565" x2="112.531" y2="97.9765" class="black" /></g>
<g><title>16 (position.label in template: 16.G)</title><text x="101.49" y="104.92" class="black" >G</text></g>
<g><line x1="102.279" y1="102.747" x2="105.491" y2="95.1343" class="black" /></g>
<g><title>17 (position.label in template: 17.U)</title><text x="94.69" y="102.1" class="green" >T</text></g>
<g><line x1="95.4766" y1="99.9264" x2="98.6834" y2="92.3051" class="black" /></g>
<g><title>18 (position.label in template: 18.A)</title><text x="87.88" y="99.27" class="green" >A</text></g>
<g><line x1="88.6087" y1="97.0731" x2="91.5213" y2="89.5084" class="black" /></g>
<g><title>19 (position.label in template: 19.G)</title><text x="80.46" y="96.44" class="green" >G</text></g>
<g><line x1="81.2472" y1="94.2667" x2="84.4528" y2="86.6549" class="black" /></g>
<g><title>20 (position.label in template: 20.C)</title><text x="74.52" y="100.84" class="black" >C</text></g>
<g><text x="77.2616" y="107.112" class="numbering-label sequential" >20</text></g>
<g><line x1="75.2511" y1="102.512" x2="76.5967" y2="105.591" class="numbering-line sequential" /></g>
<g><title>21 (position.label in template: 21.U)</title><text x="67.1" y="102.28" class="green" >T</text></g>
<g><title>22 (position.label in template: 22.C)</title><text x="59.75" y="100.5" class="black" >C</text></g>
<g><title>23 (position.label in template: 23.C)</title><text x="53.81" y="95.83" class="black" >C</text></g>
<g><title>24 (position.label in template: 24.U)</title><text x="50.35" y="89.11" class="green" >T</text></g>
<g><title>25 (position.label in template: 25.C)</title><text x="50" y="81.56" class="black" >C</text></g>
<g><title>26 (position.label in template: 26.U)</title><text x="52.83" y="74.54" class="green" >T</text></g>
<g><title>27 (position.label in template: 27.G)</title><text x="58.1" y="69.35" class="black" >G</text></g>
<g><title>28 (position.label in template: 28.G)</title><text x="65.26" y="66.9" class="black" >G</text></g>
<g><title>29 (position.label in template: 29.G)</title><text x="72.78" y="67.65" class="black" >G</text></g>
<g><title>30 (position.label in template: 30.G)</title><text x="79.31" y="71.47" class="black" >G</text></g>
<g><text x="83.9468" y="66.4349" class="numbering-label sequential" >30</text></g>
<g><line x1="80.5465" y1="70.1273" x2="82.546" y2="67.956" class="numbering-line sequential" /></g>
<g><title>31 (position.label in template: 31.G)</title><text x="83.65" y="77.66" class="black" >G</text></g>
<g><title>32 (position.label in template: 32.U)</title><text x="85.24" y="85.09" class="green" >T</text></g>
<g><title>33 (position.label in template: 33.U)</title><text x="92.25" y="87.92" class="green" >T</text></g>
<g><title>34 (position.label in template: 34.A)</title><text x="99.47" y="90.74" class="green" >A</text></g>
<g><title>35 (position.label in template: 35.C)</title><text x="106.28" y="93.57" class="black" >C</text></g>
<g><title>36 (position.label in template: 36.U)</title><text x="113.29" y="96.4" class="green" >T</text></g>
<g><title>37 (position.label in template: 37.A)</title><text x="120.51" y="99.22" class="green" >A</text></g>
<g><title>38 (position.label in template: 38.C)</title><text x="126.4" y="94.76" class="black" >C</text></g>
<g><line x1="128.422" y1="94.2991" x2="136.378" y2="93.6825" class="black" /></g>
<g><title>39 (position.label in template: 39.C)</title><text x="125.83" y="87.22" class="black" >C</text></g>
<g><line x1="127.852" y1="86.7589" x2="135.798" y2="86.1426" class="black" /></g>
<g><title>40 (position.label in template: 40.G)</title><text x="125.04" y="79.68" class="black" >G</text></g>
<g><line x1="127.062" y1="79.2243" x2="135.438" y2="78.5972" class="black" /></g>
<g><title>41 (position.label in template: 41.G)</title><text x="118.73" y="75.53" class="black" >G</text></g>
<g><title>42 (position.label in template: 42.U)</title><text x="115.37" y="68.86" class="green" >T</text></g>
<g><title>43 (position.label in template: 43.C)</title><text x="115.4" y="61.3" class="black" >C</text></g>
<g><title>44 (position.label in template: 44.C)</title><text x="119.03" y="54.68" class="black" >C</text></g>
<g><title>45 (position.label in template: 45.C)</title><text x="125.39" y="50.58" class="black" >C</text></g>
<g><title>46 (position.label in template: 46.A)</title><text x="133.13" y="50" class="black" >A</text></g>
<g><title>47 (position.label in template: 47.A)</title><text x="140.03" y="53.09" class="black" >A</text></g>
<g><title>48 (position.label in template: 48.G)</title><text x="144.21" y="59.1" class="black" >G</text></g>
<g><title>49 (position.label in template: 49.C)</title><text x="145.6" y="66.57" class="black" >C</text></g>
<g><title>50 (position.label in template: 50.C)</title><text x="143.07" y="73.69" class="black" >C</text></g>
<g><text x="148.761" y="77.4933" class="numbering-label sequential" >50</text></g>
<g><line x1="144.588" y1="74.7042" x2="146.936" y2="76.2734" class="numbering-line sequential" /></g>
<g><title>51 (position.label in template: 51.C)</title><text x="137.46" y="78.75" class="black" >C</text></g>
<g><title>52 (position.label in template: 52.G)</title><text x="137.82" y="86.29" class="black" >G</text></g>
<g><title>53 (position.label in template: 53.G)</title><text x="138.4" y="93.83" class="black" >G</text></g>
<g><title>54 (position.label in template: 54.G)</title><text x="145.1" y="97.32" class="black" >G</text></g>
<g><title>55 (position.label in template: 55.U)</title><text x="150" y="103.25" class="green" >T</text></g>
<g><title>56 (position.label in template: 56.A)</title><text x="152.07" y="110.58" class="black" >A</text></g>
<g><title>57 (position.label in template: 57.A)</title><text x="150.77" y="118.02" class="black" >A</text></g>
<g><title>58 (position.label in template: 58.A)</title><text x="146.54" y="124.29" class="black" >A</text></g>
<g><title>59 (position.label in template: 59.G)</title><text x="139.7" y="128.28" class="black" >G</text></g>
<g><title>60 (position.label in template: 60.G)</title><text x="139.7" y="135.84" class="black" >G</text></g>
<g><title>61 (position.label in template: 61.A)</title><text x="140.12" y="143.4" class="green" >A</text></g>
<g><title>62 (position.label in template: 62.G)</title><text x="139.7" y="150.96" class="black" >G</text></g>
<g><title>63 (position.label in template: 63.G)</title><text x="147.25" y="151.43" class="black" >G</text></g>
<g><title>64 (position.label in template: 64.A)</title><text x="153.61" y="156.09" class="black" >A</text></g>
<g><title>65 (position.label in template: 65.G)</title><text x="155.44" y="163.31" class="black" >G</text></g>
<g><title>66 (position.label in template: 66.G)</title><text x="153.2" y="170.53" class="black" >G</text></g>
<g><title>67 (position.label in template: 67.G)</title><text x="147.25" y="175.2" class="black" >G</text></g>
<g><title>68 (position.label in template: 68.U)</title><text x="139.91" y="175.67" class="green" >T</text></g>
<g><title>69 (position.label in template: 69.U)</title><text x="139.91" y="183.23" class="green" >T</text></g>
<g><title>70 (position.label in template: 70.G)</title><text x="139.7" y="190.79" class="green" >G</text></g>
<g><title>71 (position.label in template: 71.G)</title><text x="139.7" y="198.35" class="black" >G</text></g>
<g><title>72 (position.label in template: 72.3')</title><text x="146.7" y="198.35" class="green" >3'</text></g>
<g><line x1="122.908" y1="198.046" x2="125.852" y2="198.046" class="gray" /></g>
<g><line x1="127.824" y1="196.018" x2="127.726" y2="192.513" class="gray" /></g>
<g><line x1="127.67" y1="188.458" x2="127.67" y2="184.954" class="gray" /></g>
<g><line x1="127.726" y1="180.898" x2="127.824" y2="177.393" class="gray" /></g>
<g><line x1="126.38" y1="174" x2="123.79" y2="171.641" class="gray" /></g>
<g><line x1="121.732" y1="168.326" x2="120.768" y2="164.956" class="gray" /></g>
<g><line x1="120.768" y1="161.056" x2="121.732" y2="157.686" class="gray" /></g>
<g><line x1="123.765" y1="154.343" x2="126.195" y2="152.048" class="gray" /></g>
<g><line x1="127.67" y1="148.628" x2="127.67" y2="145.124" class="gray" /></g>
<g><line x1="127.67" y1="141.068" x2="127.67" y2="137.564" class="gray" /></g>
<g><line x1="127.67" y1="133.508" x2="127.67" y2="130.004" class="gray" /></g>
<g><line x1="125.932" y1="126.93" x2="122.778" y2="125.032" class="gray" /></g>
<g><line x1="119.945" y1="122.278" x2="118.115" y2="119.423" class="gray" /></g>
<g><line x1="116.671" y1="115.718" x2="116.069" y2="112.274" class="gray" /></g>
<g><line x1="113.839" y1="109.517" x2="110.591" y2="108.205" class="gray" /></g>
<g><line x1="106.822" y1="106.706" x2="103.378" y2="105.356" class="gray" /></g>
<g><line x1="99.6166" y1="103.839" x2="96.5634" y2="102.573" class="gray" /></g>
<g><line x1="92.8172" y1="101.018" x2="89.7528" y2="99.7441" class="gray" /></g>
<g><line x1="85.985" y1="98.243" x2="82.355" y2="96.8585" class="gray" /></g>
<g><line x1="78.8303" y1="97.343" x2="76.1497" y2="99.3286" class="gray" /></g>
<g><line x1="72.529" y1="100.922" x2="69.091" y2="101.589" class="gray" /></g>
<g><line x1="65.1289" y1="101.498" x2="61.7211" y2="100.673" class="gray" /></g>
<g><line x1="58.1556" y1="98.9423" x2="55.4044" y2="96.7793" class="gray" /></g>
<g><line x1="52.8816" y1="93.7227" x2="51.2784" y2="90.6089" class="gray" /></g>
<g><line x1="50.2561" y1="86.7799" x2="50.0939" y2="83.2817" class="gray" /></g>
<g><line x1="50.7583" y1="79.3748" x2="52.0717" y2="76.1168" class="gray" /></g>
<g><line x1="54.275" y1="72.8127" x2="56.655" y2="70.4689" class="gray" /></g>
<g><line x1="60.0189" y1="68.3892" x2="63.3411" y2="67.2524" class="gray" /></g>
<g><line x1="67.2781" y1="66.7971" x2="70.7619" y2="67.1445" class="gray" /></g>
<g><line x1="74.5306" y1="68.3699" x2="77.5594" y2="70.1417" class="gray" /></g>
<g><line x1="80.4743" y1="72.8264" x2="82.4857" y2="75.6952" class="gray" /></g>
<g><line x1="84.0744" y1="79.339" x2="84.8156" y2="82.8026" class="gray" /></g>
<g><line x1="87.1206" y1="85.545" x2="90.3694" y2="86.8566" class="gray" /></g>
<g><line x1="94.1391" y1="88.3536" x2="97.5809" y2="89.6979" class="gray" /></g>
<g><line x1="101.343" y1="91.2141" x2="104.407" y2="92.4875" class="gray" /></g>
<g><line x1="108.161" y1="94.025" x2="111.409" y2="95.3366" class="gray" /></g>
<g><line x1="115.179" y1="96.8336" x2="118.621" y2="98.1779" class="gray" /></g>
<g><line x1="122.127" y1="97.6915" x2="124.783" y2="95.6801" class="gray" /></g>
<g><line x1="126.247" y1="92.4335" x2="125.983" y2="88.9381" class="gray" /></g>
<g><line x1="125.619" y1="84.8987" x2="125.251" y2="81.3928" class="gray" /></g>
<g><line x1="123.346" y1="78.2614" x2="120.424" y2="76.3402" class="gray" /></g>
<g><line x1="117.818" y1="73.4145" x2="116.282" y2="70.367" class="gray" /></g>
<g><line x1="115.378" y1="66.5277" x2="115.392" y2="63.0239" class="gray" /></g>
<g><line x1="116.375" y1="59.2175" x2="118.055" y2="56.1541" class="gray" /></g>
<g><line x1="120.735" y1="53.2769" x2="123.685" y2="51.3747" class="gray" /></g>
<g><line x1="127.412" y1="50.1242" x2="131.108" y2="49.8473" class="gray" /></g>
<g><line x1="134.981" y1="50.5247" x2="138.179" y2="51.9569" class="gray" /></g>
<g><line x1="141.188" y1="54.4508" x2="143.052" y2="57.1308" class="gray" /></g>
<g><line x1="144.581" y1="60.7897" x2="145.229" y2="64.2719" class="gray" /></g>
<g><line x1="144.921" y1="68.1768" x2="143.749" y2="71.4747" class="gray" /></g>
<g><line x1="141.564" y1="74.7441" x2="138.966" y2="77.0874" class="gray" /></g>
<g><line x1="137.557" y1="80.4716" x2="137.723" y2="83.96" class="gray" /></g>
<g><line x1="137.976" y1="88.0079" x2="138.244" y2="91.5037" class="gray" /></g>
<g><line x1="140.199" y1="94.4627" x2="143.301" y2="96.0788" class="gray" /></g>
<g><line x1="146.392" y1="98.5792" x2="148.708" y2="101.382" class="gray" /></g>
<g><line x1="150.551" y1="104.898" x2="151.519" y2="108.324" class="gray" /></g>
<g><line x1="151.721" y1="112.274" x2="151.119" y2="115.718" class="gray" /></g>
<g><line x1="149.636" y1="119.397" x2="147.674" y2="122.305" class="gray" /></g>
<g><line x1="144.788" y1="125.008" x2="141.452" y2="126.954" class="gray" /></g>
<g><line x1="139.7" y1="130.004" x2="139.7" y2="133.508" class="gray" /></g>
<g><line x1="139.812" y1="137.561" x2="140.008" y2="141.071" class="gray" /></g>
<g><line x1="140.008" y1="145.121" x2="139.812" y2="148.631" class="gray" /></g>
<g><line x1="141.724" y1="150.782" x2="145.226" y2="151" class="gray" /></g>
<g><line x1="148.886" y1="152.324" x2="151.974" y2="154.587" class="gray" /></g>
<g><line x1="154.108" y1="157.752" x2="154.942" y2="161.04" class="gray" /></g>
<g><line x1="154.839" y1="164.943" x2="153.801" y2="168.289" class="gray" /></g>
<g><line x1="151.605" y1="171.478" x2="148.845" y2="173.644" class="gray" /></g>
<g><line x1="145.226" y1="175.025" x2="141.934" y2="175.236" class="gray" /></g>
<g><line x1="139.91" y1="177.394" x2="139.91" y2="180.898" class="gray" /></g>
<g><line x1="139.854" y1="184.953" x2="139.756" y2="188.458" class="gray" /></g>
<g><line x1="139.7" y1="192.514" x2="139.7" y2="196.018" class="gray" /></g>
<g><line x1="141.728" y1="198.046" x2="144.672" y2="198.046" class="gray" /></g>
</svg>
