<svg
	xmlns="http://www.w3.org/2000/svg"
	width="225.12"
	height="242.382">
<g><style type="text/css" >
<!-- create color definitions -->
<![CDATA[
circle.red {stroke: rgb(255, 0, 255); fill: none; }
circle.green {stroke: rgb(0, 255, 0); fill: none; }
circle.blue {stroke: rgb(0, 0, 255); fill: none; }
circle.black {stroke: rgb(0, 0, 0); fill: none; }
circle.gray {stroke: rgb(204, 204, 204); fill: none; }
circle.brown {stroke: rgb(211.65, 104.55, 30.6); fill: none; }
line.red {stroke: rgb(255, 0, 255); stroke-width: 0.381167; }
line.green {stroke: rgb(0, 255, 0); stroke-width: 0.381167; }
line.blue {stroke: rgb(0, 0, 255); stroke-width: 0.381167; }
line.black {stroke: rgb(0, 0, 0); stroke-width: 0.381167; }
line.gray {stroke: rgb(204, 204, 204); stroke-width: 0.381167; }
line.brown {stroke: rgb(211.65, 104.55, 30.6); stroke-width: 0.381167; }
line {stroke: rgb(0, 0, 0); }
text.red {fill: rgb(255, 0, 255); font-size: 3.049339px; font-weight: bold; font-family: Helvetica; }
text.green {fill: rgb(0, 255, 0); font-size: 3.049339px; font-weight: bold; font-family: Helvetica; }
text.blue {fill: rgb(0, 0, 255); font-size: 3.049339px; font-weight: bold; font-family: Helvetica; }
text.black {fill: rgb(0, 0, 0); font-size: 3.049339px; font-weight: bold; font-family: Helvetica; }
text.gray {fill: rgb(204, 204, 204); font-size: 3.049339px; font-weight: bold; font-family: Helvetica; }
text.brown {fill: rgb(211.65, 104.55, 30.6); font-size: 3.049339px; font-weight: bold; font-family: Helvetica; }
text {fill: rgb(0, 0, 0); font-size: 3.049339px; font-weight: bold; font-family: Helvetica; text-anchor: middle; alignment-baseline: middle; }

.pseudoknot_connection{stroke-linecap: round; stroke-opacity: 0.2; stroke-width: 1.5; }
.pseudoknot_segment1{stroke-linecap: round; stroke-opacity: 0.4; stroke-width: 3.04934; }
.pseudoknot_segment2{stroke-linecap: round; stroke-opacity: 0.4; stroke-width: 3.04934; }
line.numbering-line{stroke: rgb(204, 204, 204); stroke-width: 0.190584; }
line.predicted{stroke: rgb(0, 0, 0); stroke-dasharray: 2; }
polyline{fill: none; stroke-linejoin: round; }
template{visibility: hidden; }
text.numbering-label{fill: rgb(204, 204, 204); }
]]>
</style></g>
<g><title>0 (position.label in template: 0.5')</title><text x="110.67" y="194.597" class="green" >5'</text></g>
<g><title>1 (position.label in template: 1.U)</title><text x="110.67" y="187.05" class="green" >T</text></g>
<g><line x1="112.703" y1="186.745" x2="121.087" y2="186.745" class="black" /></g>
<g><title>2 (position.label in template: 2.C)</title><text x="110.67" y="179.49" class="black" >C</text></g>
<g><line x1="112.703" y1="179.185" x2="120.667" y2="179.185" class="black" /></g>
<g><title>3 (position.label in template: 3.C)</title><text x="110.67" y="171.93" class="black" >C</text></g>
<g><line x1="112.703" y1="171.625" x2="120.667" y2="171.625" class="black" /></g>
<g><title>4 (position.label in template: 4.C)</title><text x="110.67" y="164.37" class="black" >C</text></g>
<g><line x1="112.703" y1="164.065" x2="120.667" y2="164.065" class="black" /></g>
<g><title>5 (position.label in template: 5.U)</title><text x="110.67" y="156.81" class="green" >T</text></g>
<g><line x1="112.703" y1="156.505" x2="120.877" y2="156.505" class="black" /></g>
<g><title>6 (position.label in template: 6.G)</title><text x="110.46" y="149.25" class="green" >G</text></g>
<g><line x1="112.493" y1="148.945" x2="120.877" y2="148.945" class="black" /></g>
<g><title>7 (position.label in template: 7.G)</title><text x="110.46" y="141.69" class="black" >G</text></g>
<g><line x1="112.493" y1="141.385" x2="120.667" y2="141.385" class="black" /></g>
<g><title>8 (position.label in template: 8.U)</title><text x="103.94" y="138.25" class="green" >T</text></g>
<g><title>9 (position.label in template: 9.G)</title><text x="98.63" y="132.67" class="black" >G</text></g>
<g><title>10 (position.label in template: 10.G)</title><text x="95.81" y="125.66" class="black" >G</text></g>
<g><line x1="96.0256" y1="123.334" x2="96.8944" y2="115.186" class="black" /></g>
<g><text x="91.6641" y="131.127" class="numbering-label sequential" >10</text></g>
<g><line x1="94.7044" y1="127.118" x2="92.8204" y2="129.602" class="numbering-line sequential" /></g>
<g><title>11 (position.label in template: 11.C)</title><text x="88.49" y="124.98" class="black" >C</text></g>
<g><line x1="88.6364" y1="122.647" x2="89.2236" y2="114.513" class="black" /></g>
<g><title>12 (position.label in template: 12.U)</title><text x="80.96" y="124.3" class="green" >T</text></g>
<g><line x1="81.1756" y1="121.974" x2="82.0444" y2="113.826" class="black" /></g>
<g><title>13 (position.label in template: 13.C)</title><text x="73.43" y="123.63" class="black" >C</text></g>
<g><line x1="73.6456" y1="121.304" x2="74.5144" y2="113.156" class="black" /></g>
<g><title>14 (position.label in template: 14.A)</title><text x="67.84" y="128.48" class="black" >A</text></g>
<g><title>15 (position.label in template: 15.G)</title><text x="59.91" y="129.29" class="black" >G</text></g>
<g><title>16 (position.label in template: 16.A)</title><text x="53.62" y="125.79" class="black" >A</text></g>
<g><title>17 (position.label in template: 17.A)</title><text x="50" y="119.15" class="black" >A</text></g>
<g><title>18 (position.label in template: 18.G)</title><text x="50.26" y="111.63" class="black" >G</text></g>
<g><title>19 (position.label in template: 19.U)</title><text x="55.22" y="105.74" class="green" >T</text></g>
<g><title>20 (position.label in template: 20.U)</title><text x="62.43" y="103.49" class="green" >T</text></g>
<g><text x="62.3786" y="96.6292" class="numbering-label sequential" >20</text></g>
<g><line x1="62.4163" y1="101.66" x2="62.39" y2="98.1539" class="numbering-line sequential" /></g>
<g><title>21 (position.label in template: 21.A)</title><text x="69.89" y="105.63" class="black" >A</text></g>
<g><title>22 (position.label in template: 22.A)</title><text x="74.73" y="111.44" class="black" >A</text></g>
<g><title>23 (position.label in template: 23.A)</title><text x="82.26" y="112.11" class="green" >A</text></g>
<g><title>24 (position.label in template: 24.G)</title><text x="89.37" y="112.79" class="black" >G</text></g>
<g><title>25 (position.label in template: 25.C)</title><text x="97.11" y="113.47" class="black" >C</text></g>
<g><title>26 (position.label in template: 26.A)</title><text x="101.34" y="107.07" class="black" >A</text></g>
<g><title>27 (position.label in template: 27.U)</title><text x="107.15" y="102.48" class="green" >T</text></g>
<g><line x1="109.149" y1="101.807" x2="116.991" y2="100.363" class="black" /></g>
<g><title>28 (position.label in template: 28.C)</title><text x="105.8" y="95.05" class="black" >C</text></g>
<g><line x1="107.799" y1="94.3753" x2="115.641" y2="92.9248" class="black" /></g>
<g><title>29 (position.label in template: 29.U)</title><text x="104.46" y="87.61" class="green" >T</text></g>
<g><line x1="106.459" y1="86.9367" x2="114.291" y2="85.4935" class="black" /></g>
<g><title>30 (position.label in template: 30.G)</title><text x="102.9" y="80.17" class="black" >G</text></g>
<g><line x1="104.901" y1="79.5089" x2="113.149" y2="78.0412" class="black" /></g>
<g><text x="96.1492" y="81.3949" class="numbering-label sequential" >30</text></g>
<g><line x1="101.1" y1="80.4967" x2="97.9788" y2="81.063" class="numbering-line sequential" /></g>
<g><title>31 (position.label in template: 31.C)</title><text x="101.76" y="72.73" class="black" >C</text></g>
<g><line x1="103.759" y1="72.057" x2="111.601" y2="70.6132" class="black" /></g>
<g><title>32 (position.label in template: 32.C)</title><text x="95.93" y="67.92" class="black" >C</text></g>
<g><title>33 (position.label in template: 33.U)</title><text x="94.18" y="60.57" class="green" >T</text></g>
<g><title>34 (position.label in template: 34.G)</title><text x="97.04" y="53.66" class="black" >G</text></g>
<g><title>35 (position.label in template: 35.C)</title><text x="103.87" y="50" class="black" >C</text></g>
<g><title>36 (position.label in template: 36.A)</title><text x="111.55" y="51.1" class="black" >A</text></g>
<g><title>37 (position.label in template: 37.A)</title><text x="116.85" y="56.5" class="black" >A</text></g>
<g><title>38 (position.label in template: 38.U)</title><text x="117.59" y="64" class="green" >T</text></g>
<g><title>39 (position.label in template: 39.G)</title><text x="113.6" y="70.55" class="black" >G</text></g>
<g><title>40 (position.label in template: 40.C)</title><text x="115.15" y="77.99" class="black" >C</text></g>
<g><title>41 (position.label in template: 41.G)</title><text x="116.29" y="85.43" class="green" >G</text></g>
<g><title>42 (position.label in template: 42.G)</title><text x="117.64" y="92.86" class="black" >G</text></g>
<g><title>43 (position.label in template: 43.G)</title><text x="118.99" y="100.3" class="green" >G</text></g>
<g><title>44 (position.label in template: 44.A)</title><text x="126.64" y="102.48" class="black" >A</text></g>
<g><title>45 (position.label in template: 45.G)</title><text x="132.24" y="107.07" class="black" >G</text></g>
<g><title>46 (position.label in template: 46.A)</title><text x="136.68" y="113.47" class="black" >A</text></g>
<g><title>47 (position.label in template: 47.C)</title><text x="138" y="120.87" class="black" >C</text></g>
<g><title>48 (position.label in template: 48.C)</title><text x="136.83" y="128.34" class="black" >C</text></g>
<g><line x1="135.615" y1="129.665" x2="130.655" y2="136.315" class="black" /></g>
<g><title>49 (position.label in template: 49.U)</title><text x="142.95" y="132.77" class="green" >T</text></g>
<g><line x1="141.736" y1="134.095" x2="136.774" y2="140.755" class="black" /></g>
<g><title>50 (position.label in template: 50.G)</title><text x="148.86" y="137.21" class="green" >G</text></g>
<g><line x1="147.69" y1="138.568" x2="143.06" y2="145.152" class="black" /></g>
<g><text x="152.935" y="131.69" class="numbering-label sequential" >50</text></g>
<g><line x1="149.947" y1="135.738" x2="151.809" y2="133.215" class="numbering-line sequential" /></g>
<g><title>51 (position.label in template: 51.G)</title><text x="154.98" y="141.65" class="black" >G</text></g>
<g><line x1="153.81" y1="143.008" x2="149.18" y2="149.592" class="black" /></g>
<g><title>52 (position.label in template: 52.G)</title><text x="161.11" y="146.08" class="black" >G</text></g>
<g><line x1="159.939" y1="147.437" x2="155.301" y2="154.023" class="black" /></g>
<g><title>53 (position.label in template: 53.U)</title><text x="168.87" y="146.3" class="green" >T</text></g>
<g><title>54 (position.label in template: 54.U)</title><text x="174.4" y="151.46" class="green" >T</text></g>
<g><title>55 (position.label in template: 55.C)</title><text x="175.12" y="158.98" class="black" >C</text></g>
<g><title>56 (position.label in template: 56.G)</title><text x="170.48" y="165.1" class="black" >G</text></g>
<g><title>57 (position.label in template: 57.A)</title><text x="163.52" y="166.75" class="black" >A</text></g>
<g><title>58 (position.label in template: 58.U)</title><text x="156.69" y="163.11" class="green" >T</text></g>
<g><title>59 (position.label in template: 59.C)</title><text x="154.13" y="155.99" class="black" >C</text></g>
<g><title>60 (position.label in template: 60.C)</title><text x="148.01" y="151.56" class="black" >C</text></g>
<g><title>61 (position.label in template: 61.U)</title><text x="141.89" y="147.12" class="green" >T</text></g>
<g><title>62 (position.label in template: 62.G)</title><text x="135.56" y="142.69" class="green" >G</text></g>
<g><title>63 (position.label in template: 63.G)</title><text x="129.44" y="138.25" class="black" >G</text></g>
<g><title>64 (position.label in template: 64.G)</title><text x="122.7" y="141.69" class="black" >G</text></g>
<g><title>65 (position.label in template: 65.U)</title><text x="122.91" y="149.25" class="green" >T</text></g>
<g><title>66 (position.label in template: 66.U)</title><text x="122.91" y="156.81" class="green" >T</text></g>
<g><title>67 (position.label in template: 67.G)</title><text x="122.7" y="164.37" class="black" >G</text></g>
<g><title>68 (position.label in template: 68.G)</title><text x="122.7" y="171.93" class="black" >G</text></g>
<g><title>69 (position.label in template: 69.G)</title><text x="122.7" y="179.49" class="black" >G</text></g>
<g><title>70 (position.label in template: 70.A)</title><text x="123.12" y="187.05" class="green" >A</text></g>
<g><title>71 (position.label in template: 71.A)</title><text x="128.462" y="192.382" class="black" >A</text></g>
<g><title>72 (position.label in template: 72.3')</title><text x="123.223" y="197.815" class="green" >3'</text></g>
<g><line x1="110.67" y1="192.26" x2="110.67" y2="188.778" class="gray" /></g>
<g><line x1="110.67" y1="184.712" x2="110.67" y2="181.218" class="gray" /></g>
<g><line x1="110.67" y1="177.152" x2="110.67" y2="173.658" class="gray" /></g>
<g><line x1="110.67" y1="169.592" x2="110.67" y2="166.098" class="gray" /></g>
<g><line x1="110.67" y1="162.032" x2="110.67" y2="158.538" class="gray" /></g>
<g><line x1="110.614" y1="154.473" x2="110.516" y2="150.977" class="gray" /></g>
<g><line x1="110.46" y1="146.912" x2="110.46" y2="143.418" class="gray" /></g>
<g><line x1="108.662" y1="140.436" x2="105.738" y2="138.894" class="gray" /></g>
<g><line x1="102.539" y1="136.472" x2="100.031" y2="133.838" class="gray" /></g>
<g><line x1="97.8713" y1="130.479" x2="96.5687" y2="127.241" class="gray" /></g>
<g><line x1="93.7858" y1="125.167" x2="90.5142" y2="124.863" class="gray" /></g>
<g><line x1="86.4653" y1="124.492" x2="82.9847" y2="124.178" class="gray" /></g>
<g><line x1="78.9351" y1="123.815" x2="75.4549" y2="123.505" class="gray" /></g>
<g><line x1="71.8945" y1="124.657" x2="69.3755" y2="126.843" class="gray" /></g>
<g><line x1="65.8176" y1="128.382" x2="61.9324" y2="128.778" class="gray" /></g>
<g><line x1="58.1336" y1="127.997" x2="55.3964" y2="126.474" class="gray" /></g>
<g><line x1="52.6469" y1="123.7" x2="50.9731" y2="120.63" class="gray" /></g>
<g><line x1="50.0702" y1="116.813" x2="50.1898" y2="113.357" class="gray" /></g>
<g><line x1="51.5695" y1="109.77" x2="53.9105" y2="106.99" class="gray" /></g>
<g><line x1="57.1606" y1="104.829" x2="60.4894" y2="103.791" class="gray" /></g>
<g><line x1="64.3841" y1="103.746" x2="67.9359" y2="104.765" class="gray" /></g>
<g><line x1="71.1912" y1="106.887" x2="73.4288" y2="109.573" class="gray" /></g>
<g><line x1="76.7549" y1="111.315" x2="80.2351" y2="111.625" class="gray" /></g>
<g><line x1="84.2837" y1="111.999" x2="87.3463" y2="112.292" class="gray" /></g>
<g><line x1="91.3951" y1="112.663" x2="95.0849" y2="112.987" class="gray" /></g>
<g><line x1="98.2309" y1="111.469" x2="100.219" y2="108.461" class="gray" /></g>
<g><line x1="102.935" y1="105.505" x2="105.555" y2="103.435" class="gray" /></g>
<g><line x1="106.787" y1="100.175" x2="106.163" y2="96.7452" class="gray" /></g>
<g><line x1="105.44" y1="92.7444" x2="104.82" y2="89.3058" class="gray" /></g>
<g><line x1="104.043" y1="85.3154" x2="103.317" y2="81.8547" class="gray" /></g>
<g><line x1="102.592" y1="77.8556" x2="102.068" y2="74.4345" class="gray" /></g>
<g><line x1="100.192" y1="71.1313" x2="97.4981" y2="68.9088" class="gray" /></g>
<g><line x1="95.4591" y1="65.6375" x2="94.6509" y2="62.2427" class="gray" /></g>
<g><line x1="94.9574" y1="58.3867" x2="96.2626" y2="55.2334" class="gray" /></g>
<g><line x1="98.8318" y1="52.3949" x2="102.078" y2="50.6553" class="gray" /></g>
<g><line x1="105.882" y1="49.9833" x2="109.538" y2="50.5068" class="gray" /></g>
<g><line x1="112.974" y1="52.2459" x2="115.426" y2="54.7442" class="gray" /></g>
<g><line x1="117.05" y1="58.2181" x2="117.39" y2="61.672" class="gray" /></g>
<g><line x1="116.532" y1="65.4312" x2="114.658" y2="68.5089" class="gray" /></g>
<g><line x1="114.015" y1="72.2352" x2="114.735" y2="75.6949" class="gray" /></g>
<g><line x1="115.458" y1="79.6945" x2="115.982" y2="83.1156" class="gray" /></g>
<g><line x1="116.653" y1="87.1252" x2="117.277" y2="90.5549" class="gray" /></g>
<g><line x1="118.003" y1="94.5553" x2="118.627" y2="97.9948" class="gray" /></g>
<g><line x1="120.945" y1="100.552" x2="124.685" y2="101.618" class="gray" /></g>
<g><line x1="128.212" y1="103.464" x2="130.668" y2="105.476" class="gray" /></g>
<g><line x1="133.399" y1="108.435" x2="135.521" y2="111.495" class="gray" /></g>
<g><line x1="137.037" y1="115.166" x2="137.643" y2="118.564" class="gray" /></g>
<g><line x1="137.685" y1="122.573" x2="137.145" y2="126.027" class="gray" /></g>
<g><line x1="138.477" y1="129.227" x2="141.303" y2="131.273" class="gray" /></g>
<g><line x1="144.575" y1="133.686" x2="147.235" y2="135.684" class="gray" /></g>
<g><line x1="150.505" y1="138.099" x2="153.335" y2="140.151" class="gray" /></g>
<g><line x1="156.628" y1="142.536" x2="159.462" y2="144.584" class="gray" /></g>
<g><line x1="163.142" y1="145.833" x2="166.838" y2="145.937" class="gray" /></g>
<g><line x1="170.356" y1="147.382" x2="172.914" y2="149.768" class="gray" /></g>
<g><line x1="174.594" y1="153.179" x2="174.926" y2="156.651" class="gray" /></g>
<g><line x1="173.892" y1="160.295" x2="171.708" y2="163.175" class="gray" /></g>
<g><line x1="168.502" y1="165.264" x2="165.498" y2="165.976" class="gray" /></g>
<g><line x1="161.726" y1="165.489" x2="158.484" y2="163.761" class="gray" /></g>
<g><line x1="156.002" y1="160.892" x2="154.818" y2="157.598" class="gray" /></g>
<g><line x1="152.483" y1="154.493" x2="149.657" y2="152.447" class="gray" /></g>
<g><line x1="146.365" y1="150.061" x2="143.535" y2="148.009" class="gray" /></g>
<g><line x1="140.224" y1="145.649" x2="137.226" y2="143.551" class="gray" /></g>
<g><line x1="133.915" y1="141.191" x2="131.085" y2="139.139" class="gray" /></g>
<g><line x1="127.629" y1="138.869" x2="124.511" y2="140.461" class="gray" /></g>
<g><line x1="122.756" y1="143.417" x2="122.854" y2="146.913" class="gray" /></g>
<g><line x1="122.91" y1="150.978" x2="122.91" y2="154.472" class="gray" /></g>
<g><line x1="122.854" y1="158.537" x2="122.756" y2="162.033" class="gray" /></g>
<g><line x1="122.7" y1="166.098" x2="122.7" y2="169.592" class="gray" /></g>
<g><line x1="122.7" y1="173.658" x2="122.7" y2="177.152" class="gray" /></g>
<g><line x1="122.813" y1="181.215" x2="123.007" y2="184.715" class="gray" /></g>
<g><line x1="124.559" y1="188.181" x2="127.023" y2="190.641" class="gray" /></g>
<g><line x1="127.051" y1="193.54" x2="124.634" y2="196.047" class="gray" /></g>
</svg>
