<svg
	xmlns="http://www.w3.org/2000/svg"
	width="246.06"
	height="283.39">
<g><style type="text/css" >
<!-- create color definitions -->
<![CDATA[
circle.red {stroke: rgb(255, 0, 255); fill: none; }
circle.green {stroke: rgb(0, 255, 0); fill: none; }
circle.blue {stroke: rgb(0, 0, 255); fill: none; }
circle.black {stroke: rgb(0, 0, 0); fill: none; }
circle.gray {stroke: rgb(204, 204, 204); fill: none; }
circle.brown {stroke: rgb(211.65, 104.55, 30.6); fill: none; }
line.red {stroke: rgb(255, 0, 255); stroke-width: 0.382708; }
line.green {stroke: rgb(0, 255, 0); stroke-width: 0.382708; }
line.blue {stroke: rgb(0, 0, 255); stroke-width: 0.382708; }
line.black {stroke: rgb(0, 0, 0); stroke-width: 0.382708; }
line.gray {stroke: rgb(204, 204, 204); stroke-width: 0.382708; }
line.brown {stroke: rgb(211.65, 104.55, 30.6); stroke-width: 0.382708; }
line {stroke: rgb(0, 0, 0); }
text.red {fill: rgb(255, 0, 255); font-size: 3.061667px; font-weight: bold; font-family: Helvetica; }
text.green {fill: rgb(0, 255, 0); font-size: 3.061667px; font-weight: bold; font-family: Helvetica; }
text.blue {fill: rgb(0, 0, 255); font-size: 3.061667px; font-weight: bold; font-family: Helvetica; }
text.black {fill: rgb(0, 0, 0); font-size: 3.061667px; font-weight: bold; font-family: Helvetica; }
text.gray {fill: rgb(204, 204, 204); font-size: 3.061667px; font-weight: bold; font-family: Helvetica; }
text.brown {fill: rgb(211.65, 104.55, 30.6); font-size: 3.061667px; font-weight: bold; font-family: Helvetica; }
text {fill: rgb(0, 0, 0); font-size: 3.061667px; font-weight: bold; font-family: Helvetica; text-anchor: middle; alignment-baseline: middle; }

.pseudoknot_connection{stroke-linecap: round; stroke-opacity: 0.2; stroke-width: 1.5; }
.pseudoknot_segment1{stroke-linecap: round; stroke-opacity: 0.4; stroke-width: 3.06167; }
.pseudoknot_segment2{stroke-linecap: round; stroke-opacity: 0.4; stroke-width: 3.06167; }
line.numbering-line{stroke: rgb(204, 204, 204); stroke-width: 0.191354; }
line.predicted{stroke: rgb(0, 0, 0); stroke-dasharray: 2; }
polyline{fill: none; stroke-linejoin: round; }
template{visibility: hidden; }
text.numbering-label{fill: rgb(204, 204, 204); }
]]>
</style></g>
<g><title>0 (position.label in template: 0.5')</title><text x="110.01" y="233.39" class="green" >5'</text></g>
<g><title>1 (position.label in template: 1.A)</title><text x="117.01" y="233.39" class="green" >A</text></g>
<g><line x1="119.051" y1="233.084" x2="127.009" y2="233.084" class="black" /></g>
<g><title>2 (position.label in template: 2.A)</title><text x="117.01" y="225.83" class="green" >A</text></g>
<g><line x1="119.051" y1="225.524" x2="127.009" y2="225.524" class="black" /></g>
<g><title>3 (position.label in template: 3.G)</title><text x="116.59" y="218.27" class="black" >G</text></g>
<g><line x1="118.631" y1="217.964" x2="127.009" y2="217.964" class="black" /></g>
<g><title>4 (position.label in template: 4.U)</title><text x="116.81" y="210.71" class="green" >T</text></g>
<g><line x1="118.851" y1="210.404" x2="127.209" y2="210.404" class="black" /></g>
<g><title>5 (position.label in template: 5.G)</title><text x="116.59" y="203.15" class="black" >G</text></g>
<g><line x1="118.631" y1="202.844" x2="127.009" y2="202.844" class="black" /></g>
<g><title>6 (position.label in template: 6.A)</title><text x="117.01" y="195.59" class="green" >A</text></g>
<g><line x1="119.051" y1="195.284" x2="127.009" y2="195.284" class="black" /></g>
<g><title>7 (position.label in template: 7.U)</title><text x="109.31" y="194.57" class="green" >T</text></g>
<g><title>8 (position.label in template: 8.A)</title><text x="102.18" y="192.78" class="black" >A</text></g>
<g><title>9 (position.label in template: 9.U)</title><text x="94.85" y="190.23" class="green" >T</text></g>
<g><title>10 (position.label in template: 10.G)</title><text x="87.82" y="186.97" class="black" >G</text></g>
<g><text x="84.4851" y="192.998" class="numbering-label sequential" >10</text></g>
<g><line x1="86.9307" y1="188.577" x2="85.3321" y2="191.467" class="numbering-line sequential" /></g>
<g><title>11 (position.label in template: 11.A)</title><text x="81.8" y="183.01" class="black" >A</text></g>
<g><title>12 (position.label in template: 12.U)</title><text x="75.59" y="178.41" class="green" >T</text></g>
<g><title>13 (position.label in template: 13.G)</title><text x="69.89" y="173.22" class="black" >G</text></g>
<g><title>14 (position.label in template: 14.G)</title><text x="64.96" y="167.48" class="black" >G</text></g>
<g><title>15 (position.label in template: 15.U)</title><text x="60.87" y="161.27" class="green" >T</text></g>
<g><title>16 (position.label in template: 16.A)</title><text x="57.44" y="154.64" class="black" >A</text></g>
<g><title>17 (position.label in template: 17.C)</title><text x="54.3" y="147.67" class="black" >C</text></g>
<g><title>18 (position.label in template: 18.A)</title><text x="52.3" y="140.44" class="black" >A</text></g>
<g><title>19 (position.label in template: 19.C)</title><text x="50.66" y="133.02" class="black" >C</text></g>
<g><title>20 (position.label in template: 20.C)</title><text x="50" y="125.49" class="black" >C</text></g>
<g><text x="43.1129" y="125.641" class="numbering-label sequential" >20</text></g>
<g><line x1="48.1634" y1="125.53" x2="44.9499" y2="125.6" class="numbering-line sequential" /></g>
<g><title>21 (position.label in template: 21.A)</title><text x="50.33" y="117.93" class="black" >A</text></g>
<g><title>22 (position.label in template: 22.U)</title><text x="51.02" y="110.42" class="green" >T</text></g>
<g><title>23 (position.label in template: 23.C)</title><text x="52.7" y="103.05" class="black" >C</text></g>
<g><title>24 (position.label in template: 24.U)</title><text x="55.13" y="95.89" class="green" >T</text></g>
<g><title>25 (position.label in template: 25.U)</title><text x="58.28" y="89.02" class="green" >T</text></g>
<g><title>26 (position.label in template: 26.U)</title><text x="62.13" y="82.51" class="green" >T</text></g>
<g><title>27 (position.label in template: 27.C)</title><text x="66.64" y="76.44" class="black" >C</text></g>
<g><title>28 (position.label in template: 28.G)</title><text x="71.53" y="70.87" class="black" >G</text></g>
<g><title>29 (position.label in template: 29.G)</title><text x="77.19" y="65.85" class="black" >G</text></g>
<g><title>30 (position.label in template: 30.G)</title><text x="83.33" y="61.45" class="black" >G</text></g>
<g><text x="79.697" y="55.5971" class="numbering-label sequential" >30</text></g>
<g><line x1="82.3612" y1="59.8892" x2="80.6472" y2="57.1279" class="numbering-line sequential" /></g>
<g><title>31 (position.label in template: 31.A)</title><text x="90.32" y="57.7" class="black" >A</text></g>
<g><title>32 (position.label in template: 32.C)</title><text x="97.03" y="54.66" class="black" >C</text></g>
<g><title>33 (position.label in template: 33.U)</title><text x="104.23" y="52.34" class="green" >T</text></g>
<g><title>34 (position.label in template: 34.G)</title><text x="111.42" y="50.79" class="black" >G</text></g>
<g><title>35 (position.label in template: 35.A)</title><text x="119.35" y="50" class="black" >A</text></g>
<g><title>36 (position.label in template: 36.C)</title><text x="126.7" y="50" class="black" >C</text></g>
<g><title>37 (position.label in template: 37.C)</title><text x="134.22" y="50.79" class="black" >C</text></g>
<g><title>38 (position.label in template: 38.U)</title><text x="141.62" y="52.34" class="green" >T</text></g>
<g><title>39 (position.label in template: 39.G)</title><text x="148.61" y="54.66" class="black" >G</text></g>
<g><title>40 (position.label in template: 40.A)</title><text x="155.95" y="57.7" class="black" >A</text></g>
<g><title>41 (position.label in template: 41.A)</title><text x="162.51" y="61.45" class="black" >A</text></g>
<g><title>42 (position.label in template: 42.A)</title><text x="168.66" y="65.85" class="black" >A</text></g>
<g><title>43 (position.label in template: 43.U)</title><text x="174.11" y="70.87" class="green" >T</text></g>
<g><title>44 (position.label in template: 44.G)</title><text x="179" y="76.44" class="black" >G</text></g>
<g><title>45 (position.label in template: 45.G)</title><text x="183.51" y="82.51" class="black" >G</text></g>
<g><title>46 (position.label in template: 46.A)</title><text x="187.77" y="89.02" class="black" >A</text></g>
<g><title>47 (position.label in template: 47.G)</title><text x="190.51" y="95.89" class="black" >G</text></g>
<g><title>48 (position.label in template: 48.A)</title><text x="193.36" y="103.05" class="black" >A</text></g>
<g><title>49 (position.label in template: 49.G)</title><text x="194.62" y="110.42" class="black" >G</text></g>
<g><title>50 (position.label in template: 50.A)</title><text x="195.94" y="117.93" class="black" >A</text></g>
<g><text x="202.798" y="117.275" class="numbering-label sequential" >50</text></g>
<g><line x1="197.769" y1="117.755" x2="200.961" y2="117.45" class="numbering-line sequential" /></g>
<g><title>51 (position.label in template: 51.A)</title><text x="196.06" y="125.49" class="black" >A</text></g>
<g><title>52 (position.label in template: 52.C)</title><text x="195.19" y="133.02" class="black" >C</text></g>
<g><title>53 (position.label in template: 53.U)</title><text x="193.75" y="140.44" class="green" >T</text></g>
<g><title>54 (position.label in template: 54.C)</title><text x="191.56" y="147.67" class="black" >C</text></g>
<g><title>55 (position.label in template: 55.U)</title><text x="188.62" y="154.64" class="green" >T</text></g>
<g><title>56 (position.label in template: 56.U)</title><text x="184.98" y="161.27" class="green" >T</text></g>
<g><title>57 (position.label in template: 57.A)</title><text x="180.88" y="167.48" class="black" >A</text></g>
<g><title>58 (position.label in template: 58.A)</title><text x="175.96" y="173.22" class="black" >A</text></g>
<g><title>59 (position.label in template: 59.U)</title><text x="170.26" y="178.41" class="green" >T</text></g>
<g><title>60 (position.label in template: 60.A)</title><text x="164.47" y="183.01" class="black" >A</text></g>
<g><title>61 (position.label in template: 61.C)</title><text x="157.82" y="186.97" class="black" >C</text></g>
<g><title>62 (position.label in template: 62.U)</title><text x="151" y="190.23" class="green" >T</text></g>
<g><title>63 (position.label in template: 63.G)</title><text x="143.67" y="192.78" class="black" >G</text></g>
<g><title>64 (position.label in template: 64.A)</title><text x="136.74" y="194.57" class="black" >A</text></g>
<g><title>65 (position.label in template: 65.U)</title><text x="129.05" y="195.59" class="green" >T</text></g>
<g><title>66 (position.label in template: 66.C)</title><text x="129.05" y="203.15" class="black" >C</text></g>
<g><title>67 (position.label in template: 67.A)</title><text x="129.25" y="210.71" class="green" >A</text></g>
<g><title>68 (position.label in template: 68.C)</title><text x="129.05" y="218.27" class="black" >C</text></g>
<g><title>69 (position.label in template: 69.U)</title><text x="129.05" y="225.83" class="green" >T</text></g>
<g><title>70 (position.label in template: 70.U)</title><text x="129.05" y="233.39" class="green" >T</text></g>
<g><title>71 (position.label in template: 71.3')</title><text x="136.05" y="233.39" class="green" >3'</text></g>
<g><line x1="112.051" y1="233.084" x2="114.969" y2="233.084" class="gray" /></g>
<g><line x1="117.01" y1="231.043" x2="117.01" y2="227.565" class="gray" /></g>
<g><line x1="116.897" y1="223.486" x2="116.703" y2="220.002" class="gray" /></g>
<g><line x1="116.649" y1="215.924" x2="116.751" y2="212.444" class="gray" /></g>
<g><line x1="116.751" y1="208.364" x2="116.649" y2="204.884" class="gray" /></g>
<g><line x1="116.703" y1="200.806" x2="116.897" y2="197.322" class="gray" /></g>
<g><line x1="114.987" y1="195.016" x2="111.333" y2="194.532" class="gray" /></g>
<g><line x1="107.33" y1="193.767" x2="104.16" y2="192.971" class="gray" /></g>
<g><line x1="100.252" y1="191.803" x2="96.7778" y2="190.594" class="gray" /></g>
<g><line x1="92.9983" y1="189.065" x2="89.6717" y2="187.523" class="gray" /></g>
<g><line x1="86.1148" y1="185.542" x2="83.5052" y2="183.826" class="gray" /></g>
<g><line x1="80.1599" y1="181.489" x2="77.2301" y2="179.319" class="gray" /></g>
<g><line x1="74.0808" y1="176.73" x2="71.3992" y2="174.288" class="gray" /></g>
<g><line x1="68.5601" y1="171.365" x2="66.2899" y2="168.722" class="gray" /></g>
<g><line x1="63.8373" y1="165.469" x2="61.9927" y2="162.668" class="gray" /></g>
<g><line x1="59.9321" y1="159.151" x2="58.3779" y2="156.147" class="gray" /></g>
<g><line x1="56.6016" y1="152.473" x2="55.1384" y2="149.225" class="gray" /></g>
<g><line x1="53.7558" y1="145.397" x2="52.8442" y2="142.101" class="gray" /></g>
<g><line x1="51.8595" y1="138.141" x2="51.1005" y2="134.707" class="gray" /></g>
<g><line x1="50.4818" y1="130.681" x2="50.1782" y2="127.217" class="gray" /></g>
<g><line x1="50.089" y1="123.145" x2="50.241" y2="119.663" class="gray" /></g>
<g><line x1="50.5167" y1="115.591" x2="50.8333" y2="112.146" class="gray" /></g>
<g><line x1="51.4736" y1="108.124" x2="52.2464" y2="104.734" class="gray" /></g>
<g><line x1="53.356" y1="100.811" x2="54.474" y2="97.5167" class="gray" /></g>
<g><line x1="55.9807" y1="93.7285" x2="57.4293" y2="90.5692" class="gray" /></g>
<g><line x1="59.319" y1="86.957" x2="61.091" y2="83.9607" class="gray" /></g>
<g><line x1="63.3473" y1="80.5655" x2="65.4227" y2="77.7722" class="gray" /></g>
<g><line x1="67.9866" y1="74.6" x2="70.1834" y2="72.0977" class="gray" /></g>
<g><line x1="73.057" y1="69.2095" x2="75.663" y2="66.8982" class="gray" /></g>
<g><line x1="78.8491" y1="64.3549" x2="81.6709" y2="62.3328" class="gray" /></g>
<g><line x1="85.1286" y1="60.1789" x2="88.5214" y2="58.3588" class="gray" /></g>
<g><line x1="92.1792" y1="56.5515" x2="95.1708" y2="55.1962" class="gray" /></g>
<g><line x1="98.9727" y1="53.7278" x2="102.287" y2="52.6598" class="gray" /></g>
<g><line x1="106.225" y1="51.6037" x2="109.425" y2="50.914" class="gray" /></g>
<g><line x1="113.451" y1="50.2815" x2="117.319" y2="49.8962" class="gray" /></g>
<g><line x1="121.391" y1="49.6938" x2="124.659" y2="49.6938" class="gray" /></g>
<g><line x1="128.73" y1="49.9071" x2="132.19" y2="50.2706" class="gray" /></g>
<g><line x1="136.218" y1="50.9023" x2="139.622" y2="51.6154" class="gray" /></g>
<g><line x1="143.557" y1="52.6768" x2="146.673" y2="53.7109" class="gray" /></g>
<g><line x1="150.496" y1="55.1349" x2="154.064" y2="56.6128" class="gray" /></g>
<g><line x1="157.722" y1="58.4068" x2="160.738" y2="60.1309" class="gray" /></g>
<g><line x1="164.17" y1="62.3315" x2="167" y2="64.3562" class="gray" /></g>
<g><line x1="170.161" y1="66.9267" x2="172.609" y2="69.181" class="gray" /></g>
<g><line x1="175.457" y1="72.0977" x2="177.653" y2="74.6" class="gray" /></g>
<g><line x1="180.217" y1="77.7722" x2="182.293" y2="80.5655" class="gray" /></g>
<g><line x1="184.628" y1="83.9118" x2="186.652" y2="87.0059" class="gray" /></g>
<g><line x1="188.526" y1="90.6097" x2="189.754" y2="93.6879" class="gray" /></g>
<g><line x1="191.265" y1="97.4802" x2="192.605" y2="100.847" class="gray" /></g>
<g><line x1="193.704" y1="104.756" x2="194.276" y2="108.102" class="gray" /></g>
<g><line x1="194.973" y1="112.124" x2="195.587" y2="115.614" class="gray" /></g>
<g><line x1="195.972" y1="119.665" x2="196.028" y2="123.143" class="gray" /></g>
<g><line x1="195.826" y1="127.211" x2="195.424" y2="130.686" class="gray" /></g>
<g><line x1="194.801" y1="134.718" x2="194.139" y2="138.13" class="gray" /></g>
<g><line x1="193.158" y1="142.087" x2="192.152" y2="145.41" class="gray" /></g>
<g><line x1="190.767" y1="149.244" x2="189.413" y2="152.453" class="gray" /></g>
<g><line x1="187.638" y1="156.123" x2="185.962" y2="159.175" class="gray" /></g>
<g><line x1="183.855" y1="162.667" x2="182.005" y2="165.47" class="gray" /></g>
<g><line x1="179.552" y1="168.724" x2="177.288" y2="171.364" class="gray" /></g>
<g><line x1="174.451" y1="174.288" x2="171.769" y2="176.73" class="gray" /></g>
<g><line x1="168.662" y1="179.374" x2="166.068" y2="181.434" class="gray" /></g>
<g><line x1="162.716" y1="183.748" x2="159.574" y2="185.62" class="gray" /></g>
<g><line x1="155.978" y1="187.544" x2="152.842" y2="189.044" class="gray" /></g>
<g><line x1="149.072" y1="190.594" x2="145.598" y2="191.803" class="gray" /></g>
<g><line x1="141.694" y1="192.984" x2="138.716" y2="193.753" class="gray" /></g>
<g><line x1="134.717" y1="194.532" x2="131.073" y2="195.015" class="gray" /></g>
<g><line x1="129.05" y1="197.325" x2="129.05" y2="200.803" class="gray" /></g>
<g><line x1="129.104" y1="204.884" x2="129.196" y2="208.363" class="gray" /></g>
<g><line x1="129.196" y1="212.444" x2="129.104" y2="215.923" class="gray" /></g>
<g><line x1="129.05" y1="220.005" x2="129.05" y2="223.483" class="gray" /></g>
<g><line x1="129.05" y1="227.565" x2="129.05" y2="231.043" class="gray" /></g>
<g><line x1="131.091" y1="233.084" x2="134.009" y2="233.084" class="gray" /></g>
</svg>
