<svg
	xmlns="http://www.w3.org/2000/svg"
	width="180.93"
	height="248.35">
<g><style type="text/css" >
<!-- create color definitions -->
<![CDATA[
circle.red {stroke: rgb(255, 0, 255); fill: none; }
circle.green {stroke: rgb(0, 255, 0); fill: none; }
circle.blue {stroke: rgb(0, 0, 255); fill: none; }
circle.black {stroke: rgb(0, 0, 0); fill: none; }
circle.gray {stroke: rgb(204, 204, 204); fill: none; }
circle.brown {stroke: rgb(211.65, 104.55, 30.6); fill: none; }
line.red {stroke: rgb(255, 0, 255); stroke-width: 0.38082; }
line.green {stroke: rgb(0, 255, 0); stroke-width: 0.38082; }
line.blue {stroke: rgb(0, 0, 255); stroke-width: 0.38082; }
line.black {stroke: rgb(0, 0, 0); stroke-width: 0.38082; }
line.gray {stroke: rgb(204, 204, 204); stroke-width: 0.38082; }
line.brown {stroke: rgb(211.65, 104.55, 30.6); stroke-width: 0.38082; }
line {stroke: rgb(0, 0, 0); }
text.red {fill: rgb(255, 0, 255); font-size: 3.046564px; font-weight: bold; font-family: Helvetica; }
text.green {fill: rgb(0, 255, 0); font-size: 3.046564px; font-weight: bold; font-family: Helvetica; }
text.blue {fill: rgb(0, 0, 255); font-size: 3.046564px; font-weight: bold; font-family: Helvetica; }
text.black {fill: rgb(0, 0, 0); font-size: 3.046564px; font-weight: bold; font-family: Helvetica; }
text.gray {fill: rgb(204, 204, 204); font-size: 3.046564px; font-weight: bold; font-family: Helvetica; }
text.brown {fill: rgb(211.65, 104.55, 30.6); font-size: 3.046564px; font-weight: bold; font-family: Helvetica; }
text {fill: rgb(0, 0, 0); font-size: 3.046564px; font-weight: bold; font-family: Helvetica; text-anchor: middle; alignment-baseline: middle; }

.pseudoknot_connection{stroke-linecap: round; stroke-opacity: 0.2; stroke-width: 1.5; }
.pseudoknot_segment1{stroke-linecap: round; stroke-opacity: 0.4; stroke-width: 3.04656; }
.pseudoknot_segment2{stroke-linecap: round; stroke-opacity: 0.4; stroke-width: 3.04656; }
line.numbering-line{stroke: rgb(204, 204, 204); stroke-width: 0.19041; }
line.predicted{stroke: rgb(0, 0, 0); stroke-dasharray: 2; }
polyline{fill: none; stroke-linejoin: round; }
template{visibility: hidden; }
text.numbering-label{fill: rgb(204, 204, 204); }
]]>
</style></g>
<g><title>0 (position.label in template: 0.5')</title><text x="96.16" y="198.35" class="green" >5'</text></g>
<g><title>1 (position.label in template: 1.C)</title><text x="103.16" y="198.35" class="black" >C</text></g>
<g><line x1="105.191" y1="198.045" x2="113.159" y2="198.045" class="black" /></g>
<g><title>2 (position.label in template: 2.C)</title><text x="103.16" y="190.79" class="black" >C</text></g>
<g><line x1="105.191" y1="190.485" x2="113.159" y2="190.485" class="black" /></g>
<g><title>3 (position.label in template: 3.U)</title><text x="103.16" y="183.23" class="green" >T</text></g>
<g><line x1="105.191" y1="182.925" x2="113.569" y2="182.925" class="black" /></g>
<g><title>4 (position.label in template: 4.C)</title><text x="103.16" y="175.67" class="black" >C</text></g>
<g><line x1="105.191" y1="175.365" x2="113.159" y2="175.365" class="black" /></g>
<g><title>5 (position.label in template: 5.U)</title><text x="97.56" y="170.58" class="green" >T</text></g>
<g><title>6 (position.label in template: 6.A)</title><text x="95.7" y="163.31" class="black" >A</text></g>
<g><title>7 (position.label in template: 7.A)</title><text x="97.77" y="156.04" class="black" >A</text></g>
<g><title>8 (position.label in template: 8.U)</title><text x="103.16" y="150.96" class="green" >T</text></g>
<g><line x1="105.191" y1="150.655" x2="113.569" y2="150.655" class="black" /></g>
<g><title>9 (position.label in template: 9.G)</title><text x="102.95" y="143.4" class="black" >G</text></g>
<g><line x1="104.981" y1="143.095" x2="113.369" y2="143.095" class="black" /></g>
<g><title>10 (position.label in template: 10.C)</title><text x="103.16" y="135.84" class="black" >C</text></g>
<g><line x1="105.191" y1="135.535" x2="113.159" y2="135.535" class="black" /></g>
<g><text x="96.3078" y="135.654" class="numbering-label sequential" >10</text></g>
<g><line x1="101.333" y1="135.79" x2="98.1357" y2="135.704" class="numbering-line sequential" /></g>
<g><title>11 (position.label in template: 11.A)</title><text x="103.36" y="128.28" class="green" >A</text></g>
<g><line x1="105.391" y1="127.975" x2="113.369" y2="127.975" class="black" /></g>
<g><title>12 (position.label in template: 12.G)</title><text x="96.52" y="124.29" class="black" >G</text></g>
<g><title>13 (position.label in template: 13.C)</title><text x="92.5" y="118.02" class="black" >C</text></g>
<g><title>14 (position.label in template: 14.C)</title><text x="91.21" y="110.58" class="black" >C</text></g>
<g><line x1="91.9378" y1="108.379" x2="94.8422" y2="100.812" class="black" /></g>
<g><title>15 (position.label in template: 15.U)</title><text x="84.19" y="107.75" class="green" >T</text></g>
<g><line x1="84.9797" y1="105.574" x2="88.1903" y2="97.9666" class="black" /></g>
<g><title>16 (position.label in template: 16.C)</title><text x="77.18" y="104.92" class="black" >C</text></g>
<g><line x1="77.9098" y1="102.72" x2="80.8202" y2="95.1607" class="black" /></g>
<g><title>17 (position.label in template: 17.A)</title><text x="70.38" y="102.1" class="green" >A</text></g>
<g><line x1="71.1092" y1="99.8997" x2="74.0208" y2="92.331" class="black" /></g>
<g><title>18 (position.label in template: 18.C)</title><text x="63.16" y="99.27" class="black" >C</text></g>
<g><line x1="63.8898" y1="97.0699" x2="66.8002" y2="89.5107" class="black" /></g>
<g><title>19 (position.label in template: 19.A)</title><text x="55.83" y="99.9" class="black" >A</text></g>
<g><title>20 (position.label in template: 20.C)</title><text x="50" y="94.85" class="black" >C</text></g>
<g><text x="43.7743" y="97.7185" class="numbering-label sequential" >20</text></g>
<g><line x1="48.3398" y1="95.6149" x2="45.6022" y2="96.8763" class="numbering-line sequential" /></g>
<g><title>21 (position.label in template: 21.A)</title><text x="50.02" y="87.29" class="black" >A</text></g>
<g><title>22 (position.label in template: 22.G)</title><text x="54.98" y="81.97" class="black" >G</text></g>
<g><title>23 (position.label in template: 23.C)</title><text x="62.75" y="82.24" class="black" >C</text></g>
<g><title>24 (position.label in template: 24.G)</title><text x="67.53" y="87.92" class="black" >G</text></g>
<g><title>25 (position.label in template: 25.U)</title><text x="74.75" y="90.74" class="green" >T</text></g>
<g><title>26 (position.label in template: 26.G)</title><text x="81.55" y="93.57" class="black" >G</text></g>
<g><title>27 (position.label in template: 27.A)</title><text x="88.98" y="96.4" class="green" >A</text></g>
<g><title>28 (position.label in template: 28.G)</title><text x="95.57" y="99.22" class="black" >G</text></g>
<g><title>29 (position.label in template: 29.C)</title><text x="101.88" y="94.76" class="black" >C</text></g>
<g><line x1="103.905" y1="94.2984" x2="111.855" y2="93.6823" class="black" /></g>
<g><title>30 (position.label in template: 30.C)</title><text x="101.31" y="87.22" class="black" >C</text></g>
<g><line x1="103.335" y1="86.7583" x2="111.275" y2="86.1424" class="black" /></g>
<g><text x="94.4825" y="87.8312" class="numbering-label sequential" >30</text></g>
<g><line x1="99.4893" y1="87.383" x2="96.3105" y2="87.6676" class="numbering-line sequential" /></g>
<g><title>31 (position.label in template: 31.G)</title><text x="100.53" y="79.68" class="black" >G</text></g>
<g><line x1="102.555" y1="79.2236" x2="110.915" y2="78.5971" class="black" /></g>
<g><title>32 (position.label in template: 32.G)</title><text x="94.21" y="75.53" class="black" >G</text></g>
<g><title>33 (position.label in template: 33.U)</title><text x="90.85" y="68.86" class="green" >T</text></g>
<g><title>34 (position.label in template: 34.C)</title><text x="90.88" y="61.3" class="black" >C</text></g>
<g><title>35 (position.label in template: 35.C)</title><text x="94.52" y="54.68" class="black" >C</text></g>
<g><title>36 (position.label in template: 36.C)</title><text x="100.87" y="50.58" class="black" >C</text></g>
<g><title>37 (position.label in template: 37.A)</title><text x="108.61" y="50" class="black" >A</text></g>
<g><title>38 (position.label in template: 38.A)</title><text x="115.51" y="53.09" class="black" >A</text></g>
<g><title>39 (position.label in template: 39.G)</title><text x="119.69" y="59.1" class="black" >G</text></g>
<g><title>40 (position.label in template: 40.C)</title><text x="121.08" y="66.57" class="black" >C</text></g>
<g><title>41 (position.label in template: 41.C)</title><text x="118.56" y="73.69" class="black" >C</text></g>
<g><title>42 (position.label in template: 42.C)</title><text x="112.94" y="78.75" class="black" >C</text></g>
<g><title>43 (position.label in template: 43.G)</title><text x="113.3" y="86.29" class="black" >G</text></g>
<g><title>44 (position.label in template: 44.G)</title><text x="113.88" y="93.83" class="black" >G</text></g>
<g><title>45 (position.label in template: 45.A)</title><text x="121" y="97.32" class="black" >A</text></g>
<g><title>46 (position.label in template: 46.A)</title><text x="125.69" y="103.25" class="black" >A</text></g>
<g><title>47 (position.label in template: 47.A)</title><text x="127.55" y="110.58" class="black" >A</text></g>
<g><title>48 (position.label in template: 48.A)</title><text x="126.25" y="118.02" class="black" >A</text></g>
<g><title>49 (position.label in template: 49.A)</title><text x="122.02" y="124.29" class="black" >A</text></g>
<g><title>50 (position.label in template: 50.U)</title><text x="115.4" y="128.28" class="green" >T</text></g>
<g><text x="121.3" y="131.769" class="numbering-label sequential" >50</text></g>
<g><line x1="116.973" y1="129.21" x2="119.472" y2="130.688" class="numbering-line sequential" /></g>
<g><title>51 (position.label in template: 51.G)</title><text x="115.19" y="135.84" class="black" >G</text></g>
<g><title>52 (position.label in template: 52.C)</title><text x="115.4" y="143.4" class="black" >C</text></g>
<g><title>53 (position.label in template: 53.A)</title><text x="115.6" y="150.96" class="green" >A</text></g>
<g><title>54 (position.label in template: 54.G)</title><text x="122.73" y="151.43" class="black" >G</text></g>
<g><title>55 (position.label in template: 55.A)</title><text x="129.09" y="156.09" class="black" >A</text></g>
<g><title>56 (position.label in template: 56.G)</title><text x="130.93" y="163.31" class="black" >G</text></g>
<g><title>57 (position.label in template: 57.G)</title><text x="128.68" y="170.53" class="black" >G</text></g>
<g><title>58 (position.label in template: 58.G)</title><text x="122.73" y="175.2" class="black" >G</text></g>
<g><title>59 (position.label in template: 59.G)</title><text x="115.19" y="175.67" class="black" >G</text></g>
<g><title>60 (position.label in template: 60.A)</title><text x="115.6" y="183.23" class="green" >A</text></g>
<g><title>61 (position.label in template: 61.G)</title><text x="115.19" y="190.79" class="black" >G</text></g>
<g><title>62 (position.label in template: 62.G)</title><text x="115.19" y="198.35" class="black" >G</text></g>
<g><title>63 (position.label in template: 63.3')</title><text x="122.19" y="198.35" class="green" >3'</text></g>
<g><line x1="98.191" y1="198.045" x2="101.129" y2="198.045" class="gray" /></g>
<g><line x1="103.16" y1="196.014" x2="103.16" y2="192.516" class="gray" /></g>
<g><line x1="103.16" y1="188.454" x2="103.16" y2="184.956" class="gray" /></g>
<g><line x1="103.16" y1="180.894" x2="103.16" y2="177.396" class="gray" /></g>
<g><line x1="101.657" y1="173.999" x2="99.063" y2="171.641" class="gray" /></g>
<g><line x1="97.0566" y1="168.308" x2="96.2034" y2="164.973" class="gray" /></g>
<g><line x1="96.2562" y1="161.052" x2="97.2138" y2="157.689" class="gray" /></g>
<g><line x1="99.248" y1="154.342" x2="101.682" y2="152.048" class="gray" /></g>
<g><line x1="103.104" y1="148.625" x2="103.006" y2="145.126" class="gray" /></g>
<g><line x1="103.006" y1="141.065" x2="103.104" y2="137.566" class="gray" /></g>
<g><line x1="103.214" y1="133.505" x2="103.306" y2="130.006" class="gray" /></g>
<g><line x1="101.606" y1="126.952" x2="98.2744" y2="125.009" class="gray" /></g>
<g><line x1="95.4238" y1="122.276" x2="93.5962" y2="119.425" class="gray" /></g>
<g><line x1="92.153" y1="115.714" x2="91.557" y2="112.277" class="gray" /></g>
<g><line x1="89.3263" y1="109.516" x2="86.0737" y2="108.205" class="gray" /></g>
<g><line x1="82.3066" y1="106.685" x2="79.0634" y2="105.376" class="gray" /></g>
<g><line x1="75.3039" y1="103.837" x2="72.2561" y2="102.573" class="gray" /></g>
<g><line x1="68.489" y1="101.054" x2="65.051" y2="99.7065" class="gray" /></g>
<g><line x1="61.1364" y1="99.1393" x2="57.8536" y2="99.4214" class="gray" /></g>
<g><line x1="54.2948" y1="98.2656" x2="51.5352" y2="95.8751" class="gray" /></g>
<g><line x1="50.0054" y1="92.5143" x2="50.0146" y2="89.0164" class="gray" /></g>
<g><line x1="51.405" y1="85.4998" x2="53.595" y2="83.1509" class="gray" /></g>
<g><line x1="57.0098" y1="81.7359" x2="60.7202" y2="81.8648" class="gray" /></g>
<g><line x1="64.0578" y1="83.4893" x2="66.2222" y2="86.0614" class="gray" /></g>
<g><line x1="69.4219" y1="88.3543" x2="72.8581" y2="89.6964" class="gray" /></g>
<g><line x1="76.6251" y1="91.2157" x2="79.6749" y2="92.485" class="gray" /></g>
<g><line x1="83.448" y1="93.9883" x2="87.082" y2="95.3724" class="gray" /></g>
<g><line x1="90.8473" y1="96.8944" x2="93.7027" y2="98.1163" class="gray" /></g>
<g><line x1="97.2286" y1="97.743" x2="100.221" y2="95.6276" class="gray" /></g>
<g><line x1="101.727" y1="92.4301" x2="101.463" y2="88.9406" class="gray" /></g>
<g><line x1="101.101" y1="84.8951" x2="100.739" y2="81.3956" class="gray" /></g>
<g><line x1="98.8323" y1="78.2605" x2="95.9077" y2="76.3402" class="gray" /></g>
<g><line x1="93.2963" y1="73.4115" x2="91.7637" y2="70.3692" class="gray" /></g>
<g><line x1="90.8581" y1="66.5243" x2="90.8719" y2="63.0264" class="gray" /></g>
<g><line x1="91.8586" y1="59.2156" x2="93.5414" y2="56.1551" class="gray" /></g>
<g><line x1="96.2263" y1="53.2736" x2="99.1637" y2="51.377" class="gray" /></g>
<g><line x1="102.895" y1="50.1236" x2="106.585" y2="49.8471" class="gray" /></g>
<g><line x1="110.464" y1="50.5255" x2="113.656" y2="51.9552" class="gray" /></g>
<g><line x1="116.67" y1="54.4528" x2="118.53" y2="57.1279" class="gray" /></g>
<g><line x1="120.062" y1="60.7921" x2="120.708" y2="64.2686" class="gray" /></g>
<g><line x1="120.402" y1="68.18" x2="119.238" y2="71.4707" class="gray" /></g>
<g><line x1="117.051" y1="74.7443" x2="114.449" y2="77.0864" class="gray" /></g>
<g><line x1="113.037" y1="80.4741" x2="113.203" y2="83.9566" class="gray" /></g>
<g><line x1="113.456" y1="88.0104" x2="113.724" y2="91.5003" class="gray" /></g>
<g><line x1="115.704" y1="94.4193" x2="119.176" y2="96.1214" class="gray" /></g>
<g><line x1="122.26" y1="98.6084" x2="124.43" y2="101.352" class="gray" /></g>
<g><line x1="126.19" y1="104.914" x2="127.05" y2="108.307" class="gray" /></g>
<g><line x1="127.2" y1="112.276" x2="126.6" y2="115.715" class="gray" /></g>
<g><line x1="125.114" y1="119.399" x2="123.156" y2="122.302" class="gray" /></g>
<g><line x1="120.28" y1="125.034" x2="117.14" y2="126.927" class="gray" /></g>
<g><line x1="115.344" y1="130.006" x2="115.246" y2="133.505" class="gray" /></g>
<g><line x1="115.246" y1="137.566" x2="115.344" y2="141.065" class="gray" /></g>
<g><line x1="115.454" y1="145.126" x2="115.546" y2="148.625" class="gray" /></g>
<g><line x1="117.627" y1="150.789" x2="120.703" y2="150.992" class="gray" /></g>
<g><line x1="124.368" y1="152.326" x2="127.452" y2="154.585" class="gray" /></g>
<g><line x1="129.592" y1="157.753" x2="130.428" y2="161.037" class="gray" /></g>
<g><line x1="130.326" y1="164.944" x2="129.284" y2="168.286" class="gray" /></g>
<g><line x1="127.082" y1="171.479" x2="124.328" y2="173.641" class="gray" /></g>
<g><line x1="120.703" y1="175.022" x2="117.217" y2="175.239" class="gray" /></g>
<g><line x1="115.3" y1="177.393" x2="115.49" y2="180.897" class="gray" /></g>
<g><line x1="115.49" y1="184.953" x2="115.3" y2="188.457" class="gray" /></g>
<g><line x1="115.19" y1="192.516" x2="115.19" y2="196.014" class="gray" /></g>
<g><line x1="117.221" y1="198.045" x2="120.159" y2="198.045" class="gray" /></g>
</svg>
