<svg
	xmlns="http://www.w3.org/2000/svg"
	width="228.19"
	height="234.835">
<g><style type="text/css" >
<!-- create color definitions -->
<![CDATA[
circle.red {stroke: rgb(255, 0, 255); fill: none; }
circle.green {stroke: rgb(0, 255, 0); fill: none; }
circle.blue {stroke: rgb(0, 0, 255); fill: none; }
circle.black {stroke: rgb(0, 0, 0); fill: none; }
circle.gray {stroke: rgb(204, 204, 204); fill: none; }
circle.brown {stroke: rgb(211.65, 104.55, 30.6); fill: none; }
line.red {stroke: rgb(255, 0, 255); stroke-width: 0.383167; }
line.green {stroke: rgb(0, 255, 0); stroke-width: 0.383167; }
line.blue {stroke: rgb(0, 0, 255); stroke-width: 0.383167; }
line.black {stroke: rgb(0, 0, 0); stroke-width: 0.383167; }
line.gray {stroke: rgb(204, 204, 204); stroke-width: 0.383167; }
line.brown {stroke: rgb(211.65, 104.55, 30.6); stroke-width: 0.383167; }
line {stroke: rgb(0, 0, 0); }
text.red {fill: rgb(255, 0, 255); font-size: 3.065337px; font-weight: bold; font-family: Helvetica; }
text.green {fill: rgb(0, 255, 0); font-size: 3.065337px; font-weight: bold; font-family: Helvetica; }
text.blue {fill: rgb(0, 0, 255); font-size: 3.065337px; font-weight: bold; font-family: Helvetica; }
text.black {fill: rgb(0, 0, 0); font-size: 3.065337px; font-weight: bold; font-family: Helvetica; }
text.gray {fill: rgb(204, 204, 204); font-size: 3.065337px; font-weight: bold; font-family: Helvetica; }
text.brown {fill: rgb(211.65, 104.55, 30.6); font-size: 3.065337px; font-weight: bold; font-family: Helvetica; }
text {fill: rgb(0, 0, 0); font-size: 3.065337px; font-weight: bold; font-family: Helvetica; text-anchor: middle; alignment-baseline: middle; }

.pseudoknot_connection{stroke-linecap: round; stroke-opacity: 0.2; stroke-width: 1.5; }
.pseudoknot_segment1{stroke-linecap: round; stroke-opacity: 0.4; stroke-width: 3.06534; }
.pseudoknot_segment2{stroke-linecap: round; stroke-opacity: 0.4; stroke-width: 3.06534; }
line.numbering-line{stroke: rgb(204, 204, 204); stroke-width: 0.191584; }
line.predicted{stroke: rgb(0, 0, 0); stroke-dasharray: 2; }
polyline{fill: none; stroke-linejoin: round; }
template{visibility: hidden; }
text.numbering-label{fill: rgb(204, 204, 204); }
]]>
</style></g>
<g><title>0 (position.label in template: 0.5')</title><text x="110.88" y="187.159" class="green" >5'</text></g>
<g><title>1 (position.label in template: 1.G)</title><text x="110.88" y="179.58" class="black" >G</text></g>
<g><line x1="112.924" y1="179.273" x2="121.286" y2="179.273" class="black" /></g>
<g><title>2 (position.label in template: 2.G)</title><text x="110.88" y="172.02" class="black" >G</text></g>
<g><line x1="112.924" y1="171.713" x2="121.286" y2="171.713" class="black" /></g>
<g><title>3 (position.label in template: 3.C)</title><text x="111.09" y="164.46" class="black" >C</text></g>
<g><line x1="113.134" y1="164.153" x2="121.076" y2="164.153" class="black" /></g>
<g><title>4 (position.label in template: 4.A)</title><text x="111.3" y="156.9" class="green" >A</text></g>
<g><line x1="113.344" y1="156.593" x2="121.286" y2="156.593" class="black" /></g>
<g><title>5 (position.label in template: 5.G)</title><text x="110.88" y="149.34" class="black" >G</text></g>
<g><line x1="112.924" y1="149.033" x2="121.286" y2="149.033" class="black" /></g>
<g><title>6 (position.label in template: 6.C)</title><text x="111.09" y="141.78" class="black" >C</text></g>
<g><line x1="113.134" y1="141.473" x2="121.286" y2="141.473" class="black" /></g>
<g><title>7 (position.label in template: 7.G)</title><text x="110.88" y="134.22" class="black" >G</text></g>
<g><line x1="112.924" y1="133.913" x2="121.286" y2="133.913" class="black" /></g>
<g><title>8 (position.label in template: 8.U)</title><text x="104.36" y="130.78" class="green" >T</text></g>
<g><title>9 (position.label in template: 9.G)</title><text x="99.04" y="125.2" class="black" >G</text></g>
<g><title>10 (position.label in template: 10.G)</title><text x="96.22" y="118.19" class="black" >G</text></g>
<g><line x1="96.4382" y1="115.852" x2="97.3118" y2="107.715" class="black" /></g>
<g><text x="92.0498" y="123.683" class="numbering-label sequential" >10</text></g>
<g><line x1="95.1079" y1="119.655" x2="93.2133" y2="122.151" class="numbering-line sequential" /></g>
<g><title>11 (position.label in template: 11.C)</title><text x="88.91" y="117.51" class="black" >C</text></g>
<g><line x1="89.0571" y1="115.165" x2="89.6429" y2="107.052" class="black" /></g>
<g><title>12 (position.label in template: 12.U)</title><text x="81.38" y="116.83" class="green" >T</text></g>
<g><line x1="81.5967" y1="114.491" x2="82.4633" y2="106.366" class="black" /></g>
<g><title>13 (position.label in template: 13.C)</title><text x="73.85" y="116.16" class="black" >C</text></g>
<g><line x1="73.9971" y1="113.815" x2="74.5829" y2="105.702" class="black" /></g>
<g><title>14 (position.label in template: 14.A)</title><text x="68.26" y="121.01" class="black" >A</text></g>
<g><title>15 (position.label in template: 15.G)</title><text x="60.32" y="121.82" class="black" >G</text></g>
<g><title>16 (position.label in template: 16.U)</title><text x="53.83" y="118.32" class="green" >T</text></g>
<g><title>17 (position.label in template: 17.G)</title><text x="50" y="111.68" class="black" >G</text></g>
<g><title>18 (position.label in template: 18.G)</title><text x="50.68" y="104.15" class="black" >G</text></g>
<g><title>19 (position.label in template: 19.A)</title><text x="55.84" y="98.27" class="black" >A</text></g>
<g><title>20 (position.label in template: 20.A)</title><text x="63.06" y="96.02" class="black" >A</text></g>
<g><text x="63.0076" y="89.1232" class="numbering-label sequential" >20</text></g>
<g><line x1="63.046" y1="94.1809" x2="63.0192" y2="90.6559" class="numbering-line sequential" /></g>
<g><title>21 (position.label in template: 21.A)</title><text x="70.31" y="98.16" class="black" >A</text></g>
<g><title>22 (position.label in template: 22.G)</title><text x="74.73" y="103.97" class="black" >G</text></g>
<g><title>23 (position.label in template: 23.A)</title><text x="82.68" y="104.64" class="green" >A</text></g>
<g><title>24 (position.label in template: 24.G)</title><text x="89.79" y="105.32" class="black" >G</text></g>
<g><title>25 (position.label in template: 25.C)</title><text x="97.53" y="105.99" class="black" >C</text></g>
<g><title>26 (position.label in template: 26.U)</title><text x="101.55" y="99.59" class="green" >T</text></g>
<g><line x1="103.297" y1="98.2229" x2="110.113" y2="94.0841" class="black" /></g>
<g><title>27 (position.label in template: 27.U)</title><text x="97.68" y="93.1" class="green" >T</text></g>
<g><line x1="99.444" y1="91.7617" x2="106.636" y2="87.5552" class="black" /></g>
<g><title>28 (position.label in template: 28.G)</title><text x="93.6" y="86.61" class="black" >G</text></g>
<g><line x1="95.3644" y1="85.2724" x2="102.566" y2="81.0645" class="black" /></g>
<g><title>29 (position.label in template: 29.A)</title><text x="90.15" y="80.11" class="green" >A</text></g>
<g><line x1="91.8968" y1="78.7429" x2="98.7132" y2="74.6041" class="black" /></g>
<g><title>30 (position.label in template: 30.G)</title><text x="85.86" y="73.62" class="black" >G</text></g>
<g><line x1="87.6154" y1="72.2672" x2="94.6246" y2="68.0897" class="black" /></g>
<g><text x="81.5644" y="79.016" class="numbering-label sequential" >30</text></g>
<g><line x1="84.7145" y1="75.0589" x2="82.7845" y2="77.4833" class="numbering-line sequential" /></g>
<g><title>31 (position.label in template: 31.C)</title><text x="78.92" y="71.17" class="black" >C</text></g>
<g><title>32 (position.label in template: 32.U)</title><text x="74.71" y="64.89" class="green" >T</text></g>
<g><title>33 (position.label in template: 33.U)</title><text x="75.15" y="57.34" class="green" >T</text></g>
<g><title>34 (position.label in template: 34.G)</title><text x="79.86" y="51.6" class="black" >G</text></g>
<g><title>35 (position.label in template: 35.G)</title><text x="87.25" y="50" class="black" >G</text></g>
<g><title>36 (position.label in template: 36.G)</title><text x="94.1" y="53.2" class="black" >G</text></g>
<g><title>37 (position.label in template: 37.A)</title><text x="98.04" y="59.9" class="black" >A</text></g>
<g><title>38 (position.label in template: 38.G)</title><text x="96.38" y="67.35" class="black" >G</text></g>
<g><title>39 (position.label in template: 39.U)</title><text x="100.46" y="73.85" class="green" >T</text></g>
<g><title>40 (position.label in template: 40.C)</title><text x="104.33" y="80.34" class="black" >C</text></g>
<g><title>41 (position.label in template: 41.A)</title><text x="108.4" y="86.83" class="green" >A</text></g>
<g><title>42 (position.label in template: 42.G)</title><text x="111.86" y="93.33" class="green" >G</text></g>
<g><title>43 (position.label in template: 43.A)</title><text x="119.82" y="92.83" class="black" >A</text></g>
<g><title>44 (position.label in template: 44.G)</title><text x="126.64" y="95.01" class="black" >G</text></g>
<g><title>45 (position.label in template: 45.G)</title><text x="132.65" y="99.59" class="black" >G</text></g>
<g><title>46 (position.label in template: 46.U)</title><text x="136.89" y="105.99" class="green" >T</text></g>
<g><title>47 (position.label in template: 47.C)</title><text x="138.41" y="113.4" class="black" >C</text></g>
<g><title>48 (position.label in template: 48.G)</title><text x="137.04" y="120.87" class="black" >G</text></g>
<g><line x1="135.84" y1="122.218" x2="131.05" y2="128.819" class="black" /></g>
<g><title>49 (position.label in template: 49.U)</title><text x="143.37" y="125.3" class="green" >T</text></g>
<g><line x1="142.148" y1="126.632" x2="137.202" y2="133.265" class="black" /></g>
<g><title>50 (position.label in template: 50.G)</title><text x="149.28" y="129.74" class="black" >G</text></g>
<g><line x1="148.104" y1="131.105" x2="143.486" y2="137.672" class="black" /></g>
<g><text x="153.376" y="124.191" class="numbering-label sequential" >50</text></g>
<g><line x1="150.372" y1="128.26" x2="152.245" y2="125.724" class="numbering-line sequential" /></g>
<g><title>51 (position.label in template: 51.G)</title><text x="155.4" y="134.18" class="black" >G</text></g>
<g><line x1="154.224" y1="135.545" x2="149.606" y2="142.112" class="black" /></g>
<g><title>52 (position.label in template: 52.A)</title><text x="161.94" y="138.61" class="black" >A</text></g>
<g><line x1="160.718" y1="139.942" x2="155.772" y2="146.575" class="black" /></g>
<g><title>53 (position.label in template: 53.U)</title><text x="169.27" y="138.04" class="green" >T</text></g>
<g><title>54 (position.label in template: 54.U)</title><text x="175.62" y="142.14" class="green" >T</text></g>
<g><title>55 (position.label in template: 55.C)</title><text x="178.19" y="149.25" class="black" >C</text></g>
<g><title>56 (position.label in template: 56.G)</title><text x="175.73" y="156.47" class="black" >G</text></g>
<g><title>57 (position.label in template: 57.A)</title><text x="169.99" y="160.85" class="black" >A</text></g>
<g><title>58 (position.label in template: 58.A)</title><text x="162.44" y="160.62" class="black" >A</text></g>
<g><title>59 (position.label in template: 59.U)</title><text x="156.35" y="155.87" class="green" >T</text></g>
<g><title>60 (position.label in template: 60.C)</title><text x="154.55" y="148.52" class="black" >C</text></g>
<g><title>61 (position.label in template: 61.C)</title><text x="148.43" y="144.09" class="black" >C</text></g>
<g><title>62 (position.label in template: 62.C)</title><text x="142.31" y="139.65" class="black" >C</text></g>
<g><title>63 (position.label in template: 63.G)</title><text x="135.98" y="135.21" class="green" >G</text></g>
<g><title>64 (position.label in template: 64.G)</title><text x="129.85" y="130.78" class="black" >G</text></g>
<g><title>65 (position.label in template: 65.C)</title><text x="123.33" y="134.22" class="black" >C</text></g>
<g><title>66 (position.label in template: 66.C)</title><text x="123.33" y="141.78" class="black" >C</text></g>
<g><title>67 (position.label in template: 67.C)</title><text x="123.33" y="149.34" class="black" >C</text></g>
<g><title>68 (position.label in template: 68.U)</title><text x="123.33" y="156.9" class="green" >T</text></g>
<g><title>69 (position.label in template: 69.G)</title><text x="123.12" y="164.46" class="black" >G</text></g>
<g><title>70 (position.label in template: 70.C)</title><text x="123.33" y="172.02" class="black" >C</text></g>
<g><title>71 (position.label in template: 71.C)</title><text x="123.33" y="179.58" class="black" >C</text></g>
<g><title>72 (position.label in template: 72.A)</title><text x="128.791" y="184.835" class="black" >A</text></g>
<g><title>73 (position.label in template: 73.3')</title><text x="123.567" y="190.325" class="green" >3'</text></g>
<g><line x1="110.88" y1="184.809" x2="110.88" y2="181.317" class="gray" /></g>
<g><line x1="110.88" y1="177.23" x2="110.88" y2="173.757" class="gray" /></g>
<g><line x1="110.937" y1="169.671" x2="111.033" y2="166.196" class="gray" /></g>
<g><line x1="111.147" y1="162.111" x2="111.243" y2="158.636" class="gray" /></g>
<g><line x1="111.187" y1="154.553" x2="110.993" y2="151.074" class="gray" /></g>
<g><line x1="110.937" y1="146.991" x2="111.033" y2="143.516" class="gray" /></g>
<g><line x1="111.033" y1="139.431" x2="110.937" y2="135.956" class="gray" /></g>
<g><line x1="109.073" y1="132.96" x2="106.167" y2="131.427" class="gray" /></g>
<g><line x1="102.95" y1="128.994" x2="100.45" y2="126.373" class="gray" /></g>
<g><line x1="98.2773" y1="122.998" x2="96.9827" y2="119.779" class="gray" /></g>
<g><line x1="94.1852" y1="117.694" x2="90.9448" y2="117.393" class="gray" /></g>
<g><line x1="86.8747" y1="117.02" x2="83.4153" y2="116.707" class="gray" /></g>
<g><line x1="79.3445" y1="116.342" x2="75.8855" y2="116.035" class="gray" /></g>
<g><line x1="72.3064" y1="117.193" x2="69.8036" y2="119.364" class="gray" /></g>
<g><line x1="66.227" y1="120.911" x2="62.353" y2="121.306" class="gray" /></g>
<g><line x1="58.5213" y1="120.543" x2="55.6287" y2="118.983" class="gray" /></g>
<g><line x1="52.8089" y1="116.243" x2="51.0211" y2="113.144" class="gray" /></g>
<g><line x1="50.1838" y1="109.338" x2="50.4962" y2="105.879" class="gray" /></g>
<g><line x1="52.0279" y1="102.307" x2="54.4921" y2="99.4995" class="gray" /></g>
<g><line x1="57.791" y1="97.3555" x2="61.109" y2="96.3215" class="gray" /></g>
<g><line x1="65.02" y1="96.292" x2="68.35" y2="97.2749" class="gray" /></g>
<g><line x1="71.5473" y1="99.4799" x2="73.4927" y2="102.037" class="gray" /></g>
<g><line x1="76.7663" y1="103.835" x2="80.6437" y2="104.162" class="gray" /></g>
<g><line x1="84.7143" y1="104.528" x2="87.7557" y2="104.819" class="gray" /></g>
<g><line x1="91.8259" y1="105.19" x2="95.4941" y2="105.507" class="gray" /></g>
<g><line x1="98.617" y1="103.953" x2="100.463" y2="101.014" class="gray" /></g>
<g><line x1="100.503" y1="97.5283" x2="98.7266" y2="94.5487" class="gray" /></g>
<g><line x1="96.5924" y1="91.0634" x2="94.6876" y2="88.0335" class="gray" /></g>
<g><line x1="92.6419" y1="84.4984" x2="91.1081" y2="81.6085" class="gray" /></g>
<g><line x1="89.0231" y1="78.0987" x2="86.9869" y2="75.0182" class="gray" /></g>
<g><line x1="83.933" y1="72.6332" x2="80.847" y2="71.5437" class="gray" /></g>
<g><line x1="77.7821" y1="69.166" x2="75.8479" y2="66.2809" class="gray" /></g>
<g><line x1="74.8289" y1="62.5434" x2="75.0311" y2="59.0736" class="gray" /></g>
<g><line x1="76.4463" y1="55.4537" x2="78.5637" y2="52.8733" class="gray" /></g>
<g><line x1="81.8573" y1="50.861" x2="85.2527" y2="50.1259" class="gray" /></g>
<g><line x1="89.1015" y1="50.5584" x2="92.2485" y2="52.0285" class="gray" /></g>
<g><line x1="95.1359" y1="54.655" x2="97.0041" y2="57.8319" class="gray" /></g>
<g><line x1="97.5956" y1="61.5881" x2="96.8244" y2="65.0488" class="gray" /></g>
<g><line x1="97.4664" y1="68.7743" x2="99.3736" y2="71.8126" class="gray" /></g>
<g><line x1="101.507" y1="75.2987" x2="103.283" y2="78.2783" class="gray" /></g>
<g><line x1="105.416" y1="81.7647" x2="107.314" y2="84.7922" class="gray" /></g>
<g><line x1="109.36" y1="88.3274" x2="110.9" y2="91.2196" class="gray" /></g>
<g><line x1="113.9" y1="92.8954" x2="117.78" y2="92.6516" class="gray" /></g>
<g><line x1="121.767" y1="93.1457" x2="124.693" y2="94.0813" class="gray" /></g>
<g><line x1="128.265" y1="95.9421" x2="131.025" y2="98.0448" class="gray" /></g>
<g><line x1="133.779" y1="100.987" x2="135.761" y2="103.98" class="gray" /></g>
<g><line x1="137.301" y1="107.685" x2="137.999" y2="111.092" class="gray" /></g>
<g><line x1="138.041" y1="115.103" x2="137.409" y2="118.553" class="gray" /></g>
<g><line x1="138.714" y1="121.735" x2="141.696" y2="123.822" class="gray" /></g>
<g><line x1="145.004" y1="126.221" x2="147.646" y2="128.206" class="gray" /></g>
<g><line x1="150.934" y1="130.634" x2="153.746" y2="132.673" class="gray" /></g>
<g><line x1="157.092" y1="135.02" x2="160.248" y2="137.157" class="gray" /></g>
<g><line x1="163.977" y1="138.145" x2="167.233" y2="137.892" class="gray" /></g>
<g><line x1="170.987" y1="138.842" x2="173.903" y2="140.725" class="gray" /></g>
<g><line x1="176.315" y1="143.755" x2="177.495" y2="147.022" class="gray" /></g>
<g><line x1="177.531" y1="150.878" x2="176.389" y2="154.229" class="gray" /></g>
<g><line x1="174.105" y1="157.403" x2="171.615" y2="159.304" class="gray" /></g>
<g><line x1="167.947" y1="160.481" x2="164.483" y2="160.376" class="gray" /></g>
<g><line x1="160.829" y1="159.057" x2="157.961" y2="156.82" class="gray" /></g>
<g><line x1="155.864" y1="153.579" x2="155.036" y2="150.198" class="gray" /></g>
<g><line x1="152.895" y1="147.015" x2="150.085" y2="144.982" class="gray" /></g>
<g><line x1="146.776" y1="142.583" x2="143.964" y2="140.544" class="gray" /></g>
<g><line x1="140.637" y1="138.17" x2="137.653" y2="136.077" class="gray" /></g>
<g><line x1="134.324" y1="133.706" x2="131.506" y2="131.67" class="gray" /></g>
<g><line x1="128.043" y1="131.427" x2="125.137" y2="132.96" class="gray" /></g>
<g><line x1="123.33" y1="135.957" x2="123.33" y2="139.43" class="gray" /></g>
<g><line x1="123.33" y1="143.517" x2="123.33" y2="146.99" class="gray" /></g>
<g><line x1="123.33" y1="151.077" x2="123.33" y2="154.55" class="gray" /></g>
<g><line x1="123.273" y1="158.636" x2="123.177" y2="162.111" class="gray" /></g>
<g><line x1="123.177" y1="166.196" x2="123.273" y2="169.671" class="gray" /></g>
<g><line x1="123.33" y1="173.757" x2="123.33" y2="177.23" class="gray" /></g>
<g><line x1="124.803" y1="180.69" x2="127.319" y2="183.111" class="gray" /></g>
<g><line x1="127.383" y1="186.009" x2="124.976" y2="188.538" class="gray" /></g>
</svg>
