<svg
	xmlns="http://www.w3.org/2000/svg"
	width="276.66"
	height="222.16">
<g><style type="text/css" >
<!-- create color definitions -->
<![CDATA[
circle.red {stroke: rgb(255, 0, 255); fill: none; }
circle.green {stroke: rgb(0, 255, 0); fill: none; }
circle.blue {stroke: rgb(0, 0, 255); fill: none; }
circle.black {stroke: rgb(0, 0, 0); fill: none; }
circle.gray {stroke: rgb(204, 204, 204); fill: none; }
circle.brown {stroke: rgb(211.65, 104.55, 30.6); fill: none; }
line.red {stroke: rgb(255, 0, 255); stroke-width: 0.381644; }
line.green {stroke: rgb(0, 255, 0); stroke-width: 0.381644; }
line.blue {stroke: rgb(0, 0, 255); stroke-width: 0.381644; }
line.black {stroke: rgb(0, 0, 0); stroke-width: 0.381644; }
line.gray {stroke: rgb(204, 204, 204); stroke-width: 0.381644; }
line.brown {stroke: rgb(211.65, 104.55, 30.6); stroke-width: 0.381644; }
line {stroke: rgb(0, 0, 0); }
text.red {fill: rgb(255, 0, 255); font-size: 3.053151px; font-weight: bold; font-family: Helvetica; }
text.green {fill: rgb(0, 255, 0); font-size: 3.053151px; font-weight: bold; font-family: Helvetica; }
text.blue {fill: rgb(0, 0, 255); font-size: 3.053151px; font-weight: bold; font-family: Helvetica; }
text.black {fill: rgb(0, 0, 0); font-size: 3.053151px; font-weight: bold; font-family: Helvetica; }
text.gray {fill: rgb(204, 204, 204); font-size: 3.053151px; font-weight: bold; font-family: Helvetica; }
text.brown {fill: rgb(211.65, 104.55, 30.6); font-size: 3.053151px; font-weight: bold; font-family: Helvetica; }
text {fill: rgb(0, 0, 0); font-size: 3.053151px; font-weight: bold; font-family: Helvetica; text-anchor: middle; alignment-baseline: middle; }

.pseudoknot_connection{stroke-linecap: round; stroke-opacity: 0.2; stroke-width: 1.5; }
.pseudoknot_segment1{stroke-linecap: round; stroke-opacity: 0.4; stroke-width: 3.05315; }
.pseudoknot_segment2{stroke-linecap: round; stroke-opacity: 0.4; stroke-width: 3.05315; }
line.numbering-line{stroke: rgb(204, 204, 204); stroke-width: 0.190822; }
line.predicted{stroke: rgb(0, 0, 0); stroke-dasharray: 2; }
polyline{fill: none; stroke-linejoin: round; }
template{visibility: hidden; }
text.numbering-label{fill: rgb(204, 204, 204); }
]]>
</style></g>
<g><title>0 (position.label in template: 0.5')</title><text x="82.5439" y="146.994" class="green" >5'</text></g>
<g><title>1 (position.label in template: 1.G)</title><text x="90.1211" y="146.994" class="black" >G</text></g>
<g><title>2 (position.label in template: 2.U)</title><text x="97.6983" y="146.994" class="green" >T</text></g>
<g><title>3 (position.label in template: 3.A)</title><text x="105.275" y="146.994" class="black" >A</text></g>
<g><title>4 (position.label in template: 4.A)</title><text x="112.853" y="146.994" class="black" >A</text></g>
<g><title>5 (position.label in template: 5.U)</title><text x="120.43" y="146.994" class="green" >T</text></g>
<g><title>6 (position.label in template: 6.A)</title><text x="125.89" y="141.74" class="black" >A</text></g>
<g><line x1="127.925" y1="141.435" x2="136.095" y2="141.435" class="black" /></g>
<g><title>7 (position.label in template: 7.A)</title><text x="125.89" y="134.18" class="green" >A</text></g>
<g><line x1="127.925" y1="133.875" x2="135.895" y2="133.875" class="black" /></g>
<g><title>8 (position.label in template: 8.A)</title><text x="125.89" y="126.62" class="green" >A</text></g>
<g><line x1="127.925" y1="126.315" x2="135.895" y2="126.315" class="black" /></g>
<g><title>9 (position.label in template: 9.C)</title><text x="125.69" y="119.06" class="black" >C</text></g>
<g><line x1="127.725" y1="118.755" x2="135.685" y2="118.755" class="black" /></g>
<g><title>10 (position.label in template: 10.U)</title><text x="125.69" y="111.5" class="green" >T</text></g>
<g><line x1="127.725" y1="111.195" x2="136.095" y2="111.195" class="black" /></g>
<g><text x="119.642" y="114.757" class="numbering-label sequential" >10</text></g>
<g><line x1="124.077" y1="112.369" x2="121.474" y2="113.771" class="numbering-line sequential" /></g>
<g><title>11 (position.label in template: 11.A)</title><text x="119.47" y="107.51" class="green" >A</text></g>
<g><line x1="118.541" y1="105.393" x2="114.769" y2="98.0359" class="black" /></g>
<g><title>12 (position.label in template: 12.G)</title><text x="112.28" y="110.86" class="black" >G</text></g>
<g><line x1="111.406" y1="108.716" x2="107.934" y2="101.413" class="black" /></g>
<g><title>13 (position.label in template: 13.G)</title><text x="105.5" y="114.21" class="black" >G</text></g>
<g><line x1="104.627" y1="112.066" x2="101.163" y2="104.773" class="black" /></g>
<g><title>14 (position.label in template: 14.G)</title><text x="98.72" y="117.56" class="black" >G</text></g>
<g><line x1="97.8468" y1="115.416" x2="94.3832" y2="108.123" class="black" /></g>
<g><title>15 (position.label in template: 15.G)</title><text x="93.92" y="123.39" class="black" >G</text></g>
<g><title>16 (position.label in template: 16.U)</title><text x="86.57" y="123.67" class="green" >T</text></g>
<g><line x1="85.6684" y1="121.54" x2="82.0516" y2="114.22" class="black" /></g>
<g><title>17 (position.label in template: 17.G)</title><text x="85.33" y="131.16" class="black" >G</text></g>
<g><line x1="83.9872" y1="132.384" x2="78.6928" y2="138.415" class="black" /></g>
<g><title>18 (position.label in template: 18.U)</title><text x="91.16" y="136.22" class="green" >T</text></g>
<g><line x1="89.7786" y1="137.41" x2="84.1414" y2="143.51" class="black" /></g>
<g><title>19 (position.label in template: 19.C)</title><text x="96.78" y="141.28" class="black" >C</text></g>
<g><line x1="95.3986" y1="142.47" x2="89.7614" y2="148.57" class="black" /></g>
<g><title>20 (position.label in template: 20.C)</title><text x="102.39" y="146.33" class="black" >C</text></g>
<g><line x1="101.009" y1="147.52" x2="95.3706" y2="153.629" class="black" /></g>
<g><text x="106.939" y="141.182" class="numbering-label sequential" >20</text></g>
<g><line x1="103.603" y1="144.957" x2="105.59" y2="142.709" class="numbering-line sequential" /></g>
<g><title>21 (position.label in template: 21.A)</title><text x="108.22" y="151.39" class="green" >A</text></g>
<g><line x1="106.839" y1="152.58" x2="101.201" y2="158.689" class="black" /></g>
<g><title>22 (position.label in template: 22.U)</title><text x="115.5" y="152.4" class="green" >T</text></g>
<g><title>23 (position.label in template: 23.U)</title><text x="120.45" y="158.12" class="green" >T</text></g>
<g><title>24 (position.label in template: 24.G)</title><text x="120.17" y="165.68" class="black" >G</text></g>
<g><title>25 (position.label in template: 25.A)</title><text x="115.53" y="171.3" class="black" >A</text></g>
<g><title>26 (position.label in template: 26.G)</title><text x="107.6" y="172.16" class="black" >G</text></g>
<g><title>27 (position.label in template: 27.U)</title><text x="101.61" y="167.83" class="green" >T</text></g>
<g><title>28 (position.label in template: 28.U)</title><text x="99.82" y="160.49" class="green" >T</text></g>
<g><title>29 (position.label in template: 29.G)</title><text x="93.99" y="155.43" class="black" >G</text></g>
<g><title>30 (position.label in template: 30.G)</title><text x="88.38" y="150.37" class="black" >G</text></g>
<g><text x="83.7812" y="155.473" class="numbering-label sequential" >30</text></g>
<g><line x1="87.1537" y1="151.731" x2="85.1569" y2="153.947" class="numbering-line sequential" /></g>
<g><title>31 (position.label in template: 31.G)</title><text x="82.76" y="145.31" class="green" >G</text></g>
<g><title>32 (position.label in template: 32.C)</title><text x="77.35" y="140.25" class="black" >C</text></g>
<g><title>33 (position.label in template: 33.U)</title><text x="70.01" y="142.06" class="green" >T</text></g>
<g><title>34 (position.label in template: 34.G)</title><text x="62.4" y="140.49" class="black" >G</text></g>
<g><title>35 (position.label in template: 35.A)</title><text x="56.85" y="135.85" class="black" >A</text></g>
<g><title>36 (position.label in template: 36.G)</title><text x="53.08" y="129.08" class="black" >G</text></g>
<g><title>37 (position.label in template: 37.A)</title><text x="53.44" y="121.52" class="black" >A</text></g>
<g><title>38 (position.label in template: 38.G)</title><text x="56.26" y="114.69" class="black" >G</text></g>
<g><title>39 (position.label in template: 39.A)</title><text x="62.58" y="109.95" class="green" >A</text></g>
<g><line x1="64.6087" y1="109.479" x2="72.5413" y2="108.83" class="black" /></g>
<g><title>40 (position.label in template: 40.G)</title><text x="61.55" y="102.42" class="black" >G</text></g>
<g><line x1="63.579" y1="101.953" x2="71.931" y2="101.287" class="black" /></g>
<g><title>41 (position.label in template: 41.A)</title><text x="61.36" y="94.88" class="green" >A</text></g>
<g><line x1="63.3887" y1="94.4089" x2="71.3213" y2="93.7605" class="black" /></g>
<g><title>42 (position.label in template: 42.A)</title><text x="60.75" y="87.35" class="green" >A</text></g>
<g><line x1="62.7785" y1="86.8773" x2="70.7215" y2="86.222" class="black" /></g>
<g><title>43 (position.label in template: 43.A)</title><text x="60.14" y="79.81" class="green" >A</text></g>
<g><line x1="62.1687" y1="79.339" x2="70.1113" y2="78.6904" class="black" /></g>
<g><title>44 (position.label in template: 44.C)</title><text x="53.6" y="75.69" class="black" >C</text></g>
<g><title>45 (position.label in template: 45.A)</title><text x="50.21" y="69.04" class="black" >A</text></g>
<g><title>46 (position.label in template: 46.C)</title><text x="50" y="61.48" class="black" >C</text></g>
<g><title>47 (position.label in template: 47.G)</title><text x="53.39" y="54.83" class="black" >G</text></g>
<g><title>48 (position.label in template: 48.A)</title><text x="60.14" y="50.71" class="black" >A</text></g>
<g><title>49 (position.label in template: 49.U)</title><text x="67.47" y="50.1" class="green" >T</text></g>
<g><title>50 (position.label in template: 50.G)</title><text x="74.18" y="53.16" class="black" >G</text></g>
<g><text x="78.3689" y="47.7153" class="numbering-label sequential" >50</text></g>
<g><line x1="75.297" y1="51.7081" x2="77.1944" y2="49.2419" class="numbering-line sequential" /></g>
<g><title>51 (position.label in template: 51.A)</title><text x="79.22" y="59.14" class="black" >A</text></g>
<g><title>52 (position.label in template: 52.C)</title><text x="80.22" y="66.6" class="black" >C</text></g>
<g><title>53 (position.label in template: 53.G)</title><text x="77.52" y="73.74" class="black" >G</text></g>
<g><title>54 (position.label in template: 54.U)</title><text x="72.14" y="78.83" class="green" >T</text></g>
<g><title>55 (position.label in template: 55.U)</title><text x="72.75" y="86.36" class="green" >T</text></g>
<g><title>56 (position.label in template: 56.U)</title><text x="73.35" y="93.9" class="green" >T</text></g>
<g><title>57 (position.label in template: 57.C)</title><text x="73.96" y="101.43" class="black" >C</text></g>
<g><title>58 (position.label in template: 58.U)</title><text x="74.57" y="108.97" class="green" >T</text></g>
<g><title>59 (position.label in template: 59.U)</title><text x="81.15" y="112.7" class="green" >T</text></g>
<g><title>60 (position.label in template: 60.A)</title><text x="81.09" y="105.14" class="black" >A</text></g>
<g><title>61 (position.label in template: 61.A)</title><text x="87.87" y="101.79" class="black" >A</text></g>
<g><title>62 (position.label in template: 62.C)</title><text x="93.51" y="106.59" class="black" >C</text></g>
<g><title>63 (position.label in template: 63.C)</title><text x="100.29" y="103.24" class="black" >C</text></g>
<g><title>64 (position.label in template: 64.C)</title><text x="107.06" y="99.88" class="black" >C</text></g>
<g><title>65 (position.label in template: 65.U)</title><text x="113.84" y="96.53" class="green" >T</text></g>
<g><title>66 (position.label in template: 66.C)</title><text x="114.57" y="89.01" class="black" >C</text></g>
<g><title>67 (position.label in template: 67.A)</title><text x="118.52" y="82.44" class="black" >A</text></g>
<g><title>68 (position.label in template: 68.G)</title><text x="124.2" y="77.98" class="black" >G</text></g>
<g><title>69 (position.label in template: 69.G)</title><text x="131.6" y="76.4" class="black" >G</text></g>
<g><title>70 (position.label in template: 70.A)</title><text x="139.41" y="77.98" class="black" >A</text></g>
<g><title>71 (position.label in template: 71.C)</title><text x="145.3" y="82.44" class="black" >C</text></g>
<g><line x1="146.031" y1="84.0342" x2="148.939" y2="91.5852" class="black" /></g>
<g><title>72 (position.label in template: 72.C)</title><text x="152.31" y="79.61" class="black" >C</text></g>
<g><line x1="153.041" y1="81.2044" x2="155.949" y2="88.765" class="black" /></g>
<g><title>73 (position.label in template: 73.U)</title><text x="159.32" y="76.79" class="green" >T</text></g>
<g><line x1="160.051" y1="78.3842" x2="162.959" y2="85.9352" class="black" /></g>
<g><title>74 (position.label in template: 74.G)</title><text x="166.13" y="73.96" class="green" >G</text></g>
<g><line x1="166.92" y1="75.5306" x2="170.12" y2="83.1288" class="black" /></g>
<g><title>75 (position.label in template: 75.A)</title><text x="170.27" y="67.38" class="black" >A</text></g>
<g><title>76 (position.label in template: 76.U)</title><text x="177.08" y="64.56" class="green" >T</text></g>
<g><title>77 (position.label in template: 77.C)</title><text x="184.32" y="66.71" class="black" >C</text></g>
<g><line x1="185.051" y1="68.3042" x2="187.959" y2="75.8552" class="black" /></g>
<g><title>78 (position.label in template: 78.U)</title><text x="191.34" y="63.88" class="green" >T</text></g>
<g><line x1="192.129" y1="65.4508" x2="195.331" y2="73.0586" class="black" /></g>
<g><title>79 (position.label in template: 79.G)</title><text x="198.14" y="61.06" class="black" >G</text></g>
<g><line x1="198.93" y1="62.6306" x2="202.13" y2="70.2288" class="black" /></g>
<g><title>80 (position.label in template: 80.G)</title><text x="205.15" y="58.23" class="black" >G</text></g>
<g><line x1="205.941" y1="59.8" x2="209.149" y2="67.3994" class="black" /></g>
<g><title>81 (position.label in template: 81.C)</title><text x="209.56" y="51.94" class="black" >C</text></g>
<g><title>82 (position.label in template: 82.U)</title><text x="216.86" y="50" class="green" >T</text></g>
<g><title>83 (position.label in template: 83.C)</title><text x="223.62" y="53.39" class="black" >C</text></g>
<g><title>84 (position.label in template: 84.A)</title><text x="226.66" y="60.4" class="black" >A</text></g>
<g><title>85 (position.label in template: 85.U)</title><text x="223.93" y="67.53" class="green" >T</text></g>
<g><title>86 (position.label in template: 86.A)</title><text x="217.53" y="71.2" class="black" >A</text></g>
<g><title>87 (position.label in template: 87.C)</title><text x="209.94" y="69.58" class="black" >C</text></g>
<g><title>88 (position.label in template: 88.C)</title><text x="202.92" y="72.41" class="black" >C</text></g>
<g><title>89 (position.label in template: 89.A)</title><text x="196.12" y="75.24" class="green" >A</text></g>
<g><title>90 (position.label in template: 90.G)</title><text x="188.69" y="78.06" class="black" >G</text></g>
<g><title>91 (position.label in template: 91.C)</title><text x="185.17" y="84.64" class="black" >C</text></g>
<g><title>92 (position.label in template: 92.G)</title><text x="177.95" y="87.47" class="black" >G</text></g>
<g><title>93 (position.label in template: 93.U)</title><text x="170.91" y="85.31" class="green" >T</text></g>
<g><title>94 (position.label in template: 94.G)</title><text x="163.69" y="88.14" class="green" >G</text></g>
<g><title>95 (position.label in template: 95.G)</title><text x="156.68" y="90.97" class="black" >G</text></g>
<g><title>96 (position.label in template: 96.G)</title><text x="149.67" y="93.79" class="black" >G</text></g>
<g><title>97 (position.label in template: 97.G)</title><text x="148.37" y="101.24" class="black" >G</text></g>
<g><title>98 (position.label in template: 98.A)</title><text x="144.56" y="107.51" class="black" >A</text></g>
<g><title>99 (position.label in template: 99.A)</title><text x="138.13" y="111.5" class="green" >A</text></g>
<g><title>100 (position.label in template: 100.G)</title><text x="137.72" y="119.06" class="black" >G</text></g>
<g><text x="144.589" y="119.151" class="numbering-label sequential" >100</text></g>
<g><line x1="139.552" y1="119.084" x2="141.841" y2="119.115" class="numbering-line sequential" /></g>
<g><title>101 (position.label in template: 101.U)</title><text x="137.93" y="126.62" class="green" >T</text></g>
<g><title>102 (position.label in template: 102.U)</title><text x="137.93" y="134.18" class="green" >T</text></g>
<g><title>103 (position.label in template: 103.A)</title><text x="138.13" y="141.74" class="black" >A</text></g>
<g><title>104 (position.label in template: 104.G)</title><text x="143.27" y="147.307" class="black" >G</text></g>
<g><title>105 (position.label in template: 105.C)</title><text x="150.847" y="147.307" class="black" >C</text></g>
<g><title>106 (position.label in template: 106.G)</title><text x="158.424" y="147.307" class="black" >G</text></g>
<g><title>107 (position.label in template: 107.U)</title><text x="166.001" y="147.307" class="green" >T</text></g>
<g><title>108 (position.label in template: 108.C)</title><text x="173.579" y="147.307" class="black" >C</text></g>
<g><title>109 (position.label in template: 109.U)</title><text x="181.156" y="147.307" class="green" >T</text></g>
<g><title>110 (position.label in template: 110.G)</title><text x="188.733" y="147.307" class="black" >G</text></g>
<g><title>111 (position.label in template: 111.C)</title><text x="196.31" y="147.307" class="black" >C</text></g>
<g><title>112 (position.label in template: 112.A)</title><text x="203.887" y="147.307" class="black" >A</text></g>
<g><title>113 (position.label in template: 113.A)</title><text x="211.465" y="147.307" class="black" >A</text></g>
<g><title>114 (position.label in template: 114.A)</title><text x="219.042" y="147.307" class="black" >A</text></g>
<g><title>115 (position.label in template: 115.A)</title><text x="226.619" y="147.307" class="black" >A</text></g>
<g><title>116 (position.label in template: 116.3')</title><text x="234.196" y="147.307" class="green" >3'</text></g>
<g><line x1="84.5794" y1="146.688" x2="88.0857" y2="146.688" class="gray" /></g>
<g><line x1="92.1565" y1="146.688" x2="95.6628" y2="146.688" class="gray" /></g>
<g><line x1="99.7337" y1="146.688" x2="103.24" y2="146.688" class="gray" /></g>
<g><line x1="107.311" y1="146.688" x2="110.817" y2="146.688" class="gray" /></g>
<g><line x1="114.888" y1="146.688" x2="118.394" y2="146.688" class="gray" /></g>
<g><line x1="121.897" y1="145.277" x2="124.423" y2="142.846" class="gray" /></g>
<g><line x1="125.89" y1="139.399" x2="125.89" y2="135.91" class="gray" /></g>
<g><line x1="125.89" y1="131.839" x2="125.89" y2="128.35" class="gray" /></g>
<g><line x1="125.836" y1="124.28" x2="125.744" y2="120.789" class="gray" /></g>
<g><line x1="125.69" y1="116.719" x2="125.69" y2="113.23" class="gray" /></g>
<g><line x1="123.977" y1="110.096" x2="121.183" y2="108.304" class="gray" /></g>
<g><line x1="117.625" y1="108.064" x2="114.125" y2="109.695" class="gray" /></g>
<g><line x1="110.455" y1="111.456" x2="107.325" y2="113.003" class="gray" /></g>
<g><line x1="103.675" y1="114.806" x2="100.545" y2="116.353" class="gray" /></g>
<g><line x1="97.4262" y1="118.826" x2="95.2138" y2="121.513" class="gray" /></g>
<g><line x1="91.886" y1="123.162" x2="88.604" y2="123.287" class="gray" /></g>
<g><line x1="86.2376" y1="125.373" x2="85.6624" y2="128.847" class="gray" /></g>
<g><line x1="86.8672" y1="132.189" x2="89.6228" y2="134.581" class="gray" /></g>
<g><line x1="92.6727" y1="137.277" x2="95.2673" y2="139.613" class="gray" /></g>
<g><line x1="98.2928" y1="142.336" x2="100.877" y2="144.663" class="gray" /></g>
<g><line x1="103.927" y1="147.359" x2="106.683" y2="149.751" class="gray" /></g>
<g><line x1="110.236" y1="151.364" x2="113.484" y2="151.815" class="gray" /></g>
<g><line x1="116.832" y1="153.634" x2="119.118" y2="156.276" class="gray" /></g>
<g><line x1="120.375" y1="159.849" x2="120.245" y2="163.341" class="gray" /></g>
<g><line x1="118.874" y1="166.944" x2="116.826" y2="169.425" class="gray" /></g>
<g><line x1="113.506" y1="171.214" x2="109.624" y2="171.635" class="gray" /></g>
<g><line x1="105.95" y1="170.662" x2="103.26" y2="168.717" class="gray" /></g>
<g><line x1="101.128" y1="165.547" x2="100.302" y2="162.162" class="gray" /></g>
<g><line x1="98.2828" y1="158.851" x2="95.5272" y2="156.459" class="gray" /></g>
<g><line x1="92.4785" y1="153.761" x2="89.8915" y2="151.428" class="gray" /></g>
<g><line x1="86.8673" y1="148.703" x2="84.2727" y2="146.367" class="gray" /></g>
<g><line x1="81.2734" y1="143.614" x2="78.8366" y2="141.335" class="gray" /></g>
<g><line x1="75.3738" y1="140.432" x2="71.9862" y2="141.267" class="gray" /></g>
<g><line x1="68.0165" y1="141.343" x2="64.3935" y2="140.596" class="gray" /></g>
<g><line x1="60.8384" y1="138.879" x2="58.4116" y2="136.85" class="gray" /></g>
<g><line x1="55.8597" y1="133.766" x2="54.0703" y2="130.553" class="gray" /></g>
<g><line x1="53.1768" y1="126.742" x2="53.3432" y2="123.248" class="gray" /></g>
<g><line x1="54.2168" y1="119.333" x2="55.4832" y2="116.266" class="gray" /></g>
<g><line x1="57.8883" y1="113.163" x2="60.9517" y2="110.866" class="gray" /></g>
<g><line x1="62.3041" y1="107.628" x2="61.8259" y2="104.131" class="gray" /></g>
<g><line x1="61.4987" y1="100.08" x2="61.4113" y2="96.6095" class="gray" /></g>
<g><line x1="61.1956" y1="92.5459" x2="60.9144" y2="89.0735" class="gray" /></g>
<g><line x1="60.5859" y1="85.0159" x2="60.3041" y2="81.5335" class="gray" /></g>
<g><line x1="58.4178" y1="78.4198" x2="55.3222" y2="76.4696" class="gray" /></g>
<g><line x1="52.6756" y1="73.5713" x2="51.1344" y2="70.5481" class="gray" /></g>
<g><line x1="50.1535" y1="66.7" x2="50.0565" y2="63.2093" class="gray" /></g>
<g><line x1="50.9244" y1="59.3613" x2="52.4656" y2="56.3381" class="gray" /></g>
<g><line x1="55.1274" y1="53.4642" x2="58.4026" y2="51.4651" class="gray" /></g>
<g><line x1="62.1684" y1="50.2359" x2="65.4416" y2="49.9635" class="gray" /></g>
<g><line x1="69.322" y1="50.6392" x2="72.328" y2="52.0101" class="gray" /></g>
<g><line x1="75.4917" y1="54.4111" x2="77.9083" y2="57.2783" class="gray" /></g>
<g><line x1="79.4904" y1="60.8521" x2="79.9496" y2="64.2773" class="gray" /></g>
<g><line x1="79.5001" y1="68.1985" x2="78.2399" y2="71.5308" class="gray" /></g>
<g><line x1="76.0414" y1="74.8336" x2="73.6186" y2="77.1258" class="gray" /></g>
<g><line x1="72.3044" y1="80.5535" x2="72.5856" y2="84.0259" class="gray" /></g>
<g><line x1="72.9115" y1="88.0837" x2="73.1885" y2="91.5657" class="gray" /></g>
<g><line x1="73.5144" y1="95.6235" x2="73.7956" y2="99.0959" class="gray" /></g>
<g><line x1="74.1241" y1="103.153" x2="74.4059" y2="106.636" class="gray" /></g>
<g><line x1="76.3407" y1="109.668" x2="79.3793" y2="111.391" class="gray" /></g>
<g><line x1="81.1338" y1="110.359" x2="81.1062" y2="106.87" class="gray" /></g>
<g><line x1="82.9148" y1="103.933" x2="86.0452" y2="102.386" class="gray" /></g>
<g><line x1="89.4201" y1="102.804" x2="91.9599" y2="104.965" class="gray" /></g>
<g><line x1="95.3348" y1="105.383" x2="98.4652" y2="103.836" class="gray" /></g>
<g><line x1="102.113" y1="102.03" x2="105.237" y2="100.48" class="gray" /></g>
<g><line x1="108.885" y1="98.673" x2="112.015" y2="97.1263" class="gray" /></g>
<g><line x1="114.037" y1="94.1988" x2="114.373" y2="90.7306" class="gray" /></g>
<g><line x1="115.619" y1="86.9603" x2="117.471" y2="83.8791" class="gray" /></g>
<g><line x1="120.121" y1="80.8776" x2="122.599" y2="78.9317" class="gray" /></g>
<g><line x1="126.191" y1="77.2497" x2="129.609" y2="76.5197" class="gray" /></g>
<g><line x1="133.595" y1="76.4983" x2="137.415" y2="77.2711" class="gray" /></g>
<g><line x1="141.033" y1="78.9034" x2="143.677" y2="80.9059" class="gray" /></g>
<g><line x1="147.187" y1="81.3727" x2="150.423" y2="80.0667" class="gray" /></g>
<g><line x1="154.198" y1="78.545" x2="157.432" y2="77.2443" class="gray" /></g>
<g><line x1="161.2" y1="75.7036" x2="164.25" y2="74.4358" class="gray" /></g>
<g><line x1="167.214" y1="71.9319" x2="169.186" y2="68.7975" class="gray" /></g>
<g><line x1="172.151" y1="66.2959" x2="175.199" y2="65.0334" class="gray" /></g>
<g><line x1="179.031" y1="64.8341" x2="182.369" y2="65.8252" class="gray" /></g>
<g><line x1="186.208" y1="65.6436" x2="189.452" y2="64.3357" class="gray" /></g>
<g><line x1="193.22" y1="62.795" x2="196.26" y2="61.5344" class="gray" /></g>
<g><line x1="200.027" y1="59.9927" x2="203.263" y2="58.6867" class="gray" /></g>
<g><line x1="206.318" y1="56.2581" x2="208.392" y2="53.3013" class="gray" /></g>
<g><line x1="211.527" y1="51.1119" x2="214.893" y2="50.2175" class="gray" /></g>
<g><line x1="218.679" y1="50.6071" x2="221.801" y2="52.1723" class="gray" /></g>
<g><line x1="224.43" y1="54.9521" x2="225.85" y2="58.2273" class="gray" /></g>
<g><line x1="225.932" y1="61.9955" x2="224.658" y2="65.3238" class="gray" /></g>
<g><line x1="222.164" y1="68.2372" x2="219.296" y2="69.8822" class="gray" /></g>
<g><line x1="215.539" y1="70.4698" x2="211.931" y2="69.6996" class="gray" /></g>
<g><line x1="208.052" y1="70.0357" x2="204.808" y2="71.3436" class="gray" /></g>
<g><line x1="201.041" y1="72.8868" x2="197.999" y2="74.1526" class="gray" /></g>
<g><line x1="194.217" y1="75.6569" x2="190.593" y2="77.0324" class="gray" /></g>
<g><line x1="187.73" y1="79.5494" x2="186.13" y2="82.5399" class="gray" /></g>
<g><line x1="183.275" y1="85.0775" x2="179.845" y2="86.4219" class="gray" /></g>
<g><line x1="176.004" y1="86.5676" x2="172.856" y2="85.6017" class="gray" /></g>
<g><line x1="169.015" y1="85.7475" x2="165.585" y2="87.0919" class="gray" /></g>
<g><line x1="161.803" y1="88.5967" x2="158.567" y2="89.9027" class="gray" /></g>
<g><line x1="154.792" y1="91.4243" x2="151.558" y2="92.725" class="gray" /></g>
<g><line x1="149.32" y1="95.4898" x2="148.72" y2="98.9295" class="gray" /></g>
<g><line x1="147.313" y1="102.674" x2="145.617" y2="105.465" class="gray" /></g>
<g><line x1="142.83" y1="108.278" x2="139.86" y2="110.121" class="gray" /></g>
<g><line x1="138.02" y1="113.227" x2="137.83" y2="116.722" class="gray" /></g>
<g><line x1="137.777" y1="120.789" x2="137.873" y2="124.28" class="gray" /></g>
<g><line x1="137.93" y1="128.35" x2="137.93" y2="131.839" class="gray" /></g>
<g><line x1="137.984" y1="135.909" x2="138.076" y2="139.4" class="gray" /></g>
<g><line x1="139.511" y1="142.93" x2="141.889" y2="145.506" class="gray" /></g>
<g><line x1="145.305" y1="147.002" x2="148.812" y2="147.002" class="gray" /></g>
<g><line x1="152.882" y1="147.002" x2="156.389" y2="147.002" class="gray" /></g>
<g><line x1="160.46" y1="147.002" x2="163.966" y2="147.002" class="gray" /></g>
<g><line x1="168.037" y1="147.002" x2="171.543" y2="147.002" class="gray" /></g>
<g><line x1="175.614" y1="147.002" x2="179.12" y2="147.002" class="gray" /></g>
<g><line x1="183.191" y1="147.002" x2="186.698" y2="147.002" class="gray" /></g>
<g><line x1="190.768" y1="147.002" x2="194.275" y2="147.002" class="gray" /></g>
<g><line x1="198.346" y1="147.002" x2="201.852" y2="147.002" class="gray" /></g>
<g><line x1="205.923" y1="147.002" x2="209.429" y2="147.002" class="gray" /></g>
<g><line x1="213.5" y1="147.002" x2="217.006" y2="147.002" class="gray" /></g>
<g><line x1="221.077" y1="147.002" x2="224.583" y2="147.002" class="gray" /></g>
<g><line x1="228.654" y1="147.002" x2="232.161" y2="147.002" class="gray" /></g>
</svg>
