<svg
	xmlns="http://www.w3.org/2000/svg"
	width="228.19"
	height="239.788">
<g><style type="text/css" >
<!-- create color definitions -->
<![CDATA[
circle.red {stroke: rgb(255, 0, 255); fill: none; }
circle.green {stroke: rgb(0, 255, 0); fill: none; }
circle.blue {stroke: rgb(0, 0, 255); fill: none; }
circle.black {stroke: rgb(0, 0, 0); fill: none; }
circle.gray {stroke: rgb(204, 204, 204); fill: none; }
circle.brown {stroke: rgb(211.65, 104.55, 30.6); fill: none; }
line.red {stroke: rgb(255, 0, 255); stroke-width: 0.382032; }
line.green {stroke: rgb(0, 255, 0); stroke-width: 0.382032; }
line.blue {stroke: rgb(0, 0, 255); stroke-width: 0.382032; }
line.black {stroke: rgb(0, 0, 0); stroke-width: 0.382032; }
line.gray {stroke: rgb(204, 204, 204); stroke-width: 0.382032; }
line.brown {stroke: rgb(211.65, 104.55, 30.6); stroke-width: 0.382032; }
line {stroke: rgb(0, 0, 0); }
text.red {fill: rgb(255, 0, 255); font-size: 3.056254px; font-weight: bold; font-family: Helvetica; }
text.green {fill: rgb(0, 255, 0); font-size: 3.056254px; font-weight: bold; font-family: Helvetica; }
text.blue {fill: rgb(0, 0, 255); font-size: 3.056254px; font-weight: bold; font-family: Helvetica; }
text.black {fill: rgb(0, 0, 0); font-size: 3.056254px; font-weight: bold; font-family: Helvetica; }
text.gray {fill: rgb(204, 204, 204); font-size: 3.056254px; font-weight: bold; font-family: Helvetica; }
text.brown {fill: rgb(211.65, 104.55, 30.6); font-size: 3.056254px; font-weight: bold; font-family: Helvetica; }
text {fill: rgb(0, 0, 0); font-size: 3.056254px; font-weight: bold; font-family: Helvetica; text-anchor: middle; alignment-baseline: middle; }

.pseudoknot_connection{stroke-linecap: round; stroke-opacity: 0.2; stroke-width: 1.5; }
.pseudoknot_segment1{stroke-linecap: round; stroke-opacity: 0.4; stroke-width: 3.05625; }
.pseudoknot_segment2{stroke-linecap: round; stroke-opacity: 0.4; stroke-width: 3.05625; }
line.numbering-line{stroke: rgb(204, 204, 204); stroke-width: 0.191016; }
line.predicted{stroke: rgb(0, 0, 0); stroke-dasharray: 2; }
polyline{fill: none; stroke-linejoin: round; }
template{visibility: hidden; }
text.numbering-label{fill: rgb(204, 204, 204); }
]]>
</style></g>
<g><title>0 (position.label in template: 0.5')</title><text x="110.67" y="192.098" class="green" >5'</text></g>
<g><title>1 (position.label in template: 1.G)</title><text x="110.88" y="184.54" class="black" >G</text></g>
<g><line x1="112.918" y1="184.234" x2="121.292" y2="184.234" class="black" /></g>
<g><title>2 (position.label in template: 2.C)</title><text x="111.09" y="176.98" class="black" >C</text></g>
<g><line x1="113.128" y1="176.674" x2="121.082" y2="176.674" class="black" /></g>
<g><title>3 (position.label in template: 3.C)</title><text x="111.09" y="169.42" class="black" >C</text></g>
<g><line x1="113.128" y1="169.114" x2="121.082" y2="169.114" class="black" /></g>
<g><title>4 (position.label in template: 4.U)</title><text x="111.09" y="161.86" class="green" >T</text></g>
<g><line x1="113.128" y1="161.554" x2="121.082" y2="161.554" class="black" /></g>
<g><title>5 (position.label in template: 5.U)</title><text x="111.09" y="154.3" class="green" >T</text></g>
<g><line x1="113.128" y1="153.994" x2="121.502" y2="153.994" class="black" /></g>
<g><title>6 (position.label in template: 6.C)</title><text x="111.09" y="146.74" class="black" >C</text></g>
<g><line x1="113.128" y1="146.434" x2="121.082" y2="146.434" class="black" /></g>
<g><title>7 (position.label in template: 7.G)</title><text x="110.88" y="139.18" class="green" >G</text></g>
<g><line x1="112.918" y1="138.874" x2="121.292" y2="138.874" class="black" /></g>
<g><title>8 (position.label in template: 8.U)</title><text x="104.36" y="135.74" class="green" >T</text></g>
<g><title>9 (position.label in template: 9.G)</title><text x="99.04" y="130.17" class="black" >G</text></g>
<g><title>10 (position.label in template: 10.G)</title><text x="96.22" y="123.15" class="black" >G</text></g>
<g><line x1="96.4377" y1="120.819" x2="97.3123" y2="112.68" class="black" /></g>
<g><text x="92.0587" y="128.625" class="numbering-label sequential" >10</text></g>
<g><line x1="95.1103" y1="124.61" x2="93.2202" y2="127.096" class="numbering-line sequential" /></g>
<g><title>11 (position.label in template: 11.U)</title><text x="88.91" y="122.47" class="green" >T</text></g>
<g><line x1="89.1261" y1="120.138" x2="89.9939" y2="112" class="black" /></g>
<g><title>12 (position.label in template: 12.G)</title><text x="81.17" y="121.8" class="black" >G</text></g>
<g><line x1="81.3861" y1="119.468" x2="82.2539" y2="111.33" class="black" /></g>
<g><title>13 (position.label in template: 13.U)</title><text x="73.85" y="121.12" class="green" >T</text></g>
<g><line x1="73.9967" y1="118.782" x2="74.5833" y2="110.657" class="black" /></g>
<g><title>14 (position.label in template: 14.A)</title><text x="68.26" y="125.98" class="black" >A</text></g>
<g><title>15 (position.label in template: 15.G)</title><text x="60.32" y="126.79" class="black" >G</text></g>
<g><title>16 (position.label in template: 16.U)</title><text x="53.83" y="123.29" class="green" >T</text></g>
<g><title>17 (position.label in template: 17.G)</title><text x="50" y="116.65" class="black" >G</text></g>
<g><title>18 (position.label in template: 18.G)</title><text x="50.68" y="109.12" class="black" >G</text></g>
<g><title>19 (position.label in template: 19.U)</title><text x="55.63" y="103.24" class="green" >T</text></g>
<g><title>20 (position.label in template: 20.A)</title><text x="63.06" y="100.98" class="black" >A</text></g>
<g><text x="63.0038" y="94.1037" class="numbering-label sequential" >20</text></g>
<g><line x1="63.045" y1="99.1463" x2="63.0163" y2="95.6318" class="numbering-line sequential" /></g>
<g><title>21 (position.label in template: 21.A)</title><text x="70.31" y="103.12" class="black" >A</text></g>
<g><title>22 (position.label in template: 22.G)</title><text x="74.73" y="108.93" class="green" >G</text></g>
<g><title>23 (position.label in template: 23.C)</title><text x="82.47" y="109.61" class="black" >C</text></g>
<g><title>24 (position.label in template: 24.A)</title><text x="90.21" y="110.28" class="green" >A</text></g>
<g><title>25 (position.label in template: 25.C)</title><text x="97.53" y="110.96" class="black" >C</text></g>
<g><title>26 (position.label in template: 26.G)</title><text x="101.34" y="104.56" class="black" >G</text></g>
<g><title>27 (position.label in template: 27.C)</title><text x="107.57" y="99.98" class="black" >C</text></g>
<g><line x1="109.574" y1="99.3051" x2="117.396" y2="97.8636" class="black" /></g>
<g><title>28 (position.label in template: 28.U)</title><text x="106.22" y="92.54" class="green" >T</text></g>
<g><line x1="108.226" y1="91.8774" x2="116.464" y2="90.4114" class="black" /></g>
<g><title>29 (position.label in template: 29.C)</title><text x="104.87" y="85.1" class="black" >C</text></g>
<g><line x1="106.874" y1="84.4254" x2="114.706" y2="82.9833" class="black" /></g>
<g><title>30 (position.label in template: 30.G)</title><text x="103.32" y="77.66" class="black" >G</text></g>
<g><line x1="105.326" y1="76.9974" x2="113.564" y2="75.5314" class="black" /></g>
<g><text x="97.7193" y="81.6499" class="numbering-label sequential" >30</text></g>
<g><line x1="101.826" y1="78.724" x2="99.553" y2="80.3435" class="numbering-line sequential" /></g>
<g><title>31 (position.label in template: 31.G)</title><text x="96.82" y="73.8" class="black" >G</text></g>
<g><title>32 (position.label in template: 32.C)</title><text x="93.43" y="67.15" class="black" >C</text></g>
<g><title>33 (position.label in template: 33.G)</title><text x="93.55" y="59.6" class="black" >G</text></g>
<g><title>34 (position.label in template: 34.C)</title><text x="97.93" y="53.28" class="black" >C</text></g>
<g><title>35 (position.label in template: 35.G)</title><text x="104.53" y="50" class="black" >G</text></g>
<g><title>36 (position.label in template: 36.U)</title><text x="112.27" y="50.69" class="green" >T</text></g>
<g><title>37 (position.label in template: 37.A)</title><text x="118.58" y="55.14" class="black" >A</text></g>
<g><title>38 (position.label in template: 38.U)</title><text x="121.34" y="62.1" class="green" >T</text></g>
<g><title>39 (position.label in template: 39.U)</title><text x="120.3" y="69.59" class="green" >T</text></g>
<g><title>40 (position.label in template: 40.C)</title><text x="115.57" y="75.48" class="black" >C</text></g>
<g><title>41 (position.label in template: 41.G)</title><text x="116.71" y="82.92" class="black" >G</text></g>
<g><title>42 (position.label in template: 42.A)</title><text x="118.47" y="90.36" class="green" >A</text></g>
<g><title>43 (position.label in template: 43.G)</title><text x="119.4" y="97.8" class="black" >G</text></g>
<g><title>44 (position.label in template: 44.A)</title><text x="127.06" y="99.98" class="black" >A</text></g>
<g><title>45 (position.label in template: 45.G)</title><text x="132.65" y="104.56" class="black" >G</text></g>
<g><title>46 (position.label in template: 46.G)</title><text x="136.68" y="110.96" class="black" >G</text></g>
<g><title>47 (position.label in template: 47.U)</title><text x="138.41" y="118.36" class="green" >T</text></g>
<g><title>48 (position.label in template: 48.C)</title><text x="137.25" y="125.83" class="black" >C</text></g>
<g><line x1="136.031" y1="127.157" x2="131.069" y2="133.802" class="black" /></g>
<g><title>49 (position.label in template: 49.C)</title><text x="143.37" y="130.27" class="black" >C</text></g>
<g><line x1="142.152" y1="131.598" x2="137.198" y2="138.241" class="black" /></g>
<g><title>50 (position.label in template: 50.G)</title><text x="149.28" y="134.71" class="green" >G</text></g>
<g><line x1="148.108" y1="136.071" x2="143.482" y2="142.648" class="black" /></g>
<g><text x="149.989" y="127.87" class="numbering-label sequential" >50</text></g>
<g><line x1="149.469" y1="132.886" x2="149.831" y2="129.398" class="numbering-line sequential" /></g>
<g><title>51 (position.label in template: 51.U)</title><text x="156.39" y="131.62" class="green" >T</text></g>
<g><title>52 (position.label in template: 52.G)</title><text x="155.4" y="139.14" class="black" >G</text></g>
<g><line x1="154.228" y1="140.501" x2="149.602" y2="147.078" class="black" /></g>
<g><title>53 (position.label in template: 53.G)</title><text x="161.52" y="143.58" class="black" >G</text></g>
<g><line x1="160.348" y1="144.941" x2="155.722" y2="151.518" class="black" /></g>
<g><title>54 (position.label in template: 54.U)</title><text x="169.27" y="143" class="green" >T</text></g>
<g><title>55 (position.label in template: 55.U)</title><text x="175.62" y="147.11" class="green" >T</text></g>
<g><title>56 (position.label in template: 56.C)</title><text x="178.19" y="154.22" class="black" >C</text></g>
<g><title>57 (position.label in template: 57.G)</title><text x="175.73" y="161.43" class="black" >G</text></g>
<g><title>58 (position.label in template: 58.A)</title><text x="169.99" y="165.82" class="black" >A</text></g>
<g><title>59 (position.label in template: 59.G)</title><text x="162.02" y="165.59" class="black" >G</text></g>
<g><title>60 (position.label in template: 60.U)</title><text x="156.35" y="160.83" class="green" >T</text></g>
<g><title>61 (position.label in template: 61.C)</title><text x="154.55" y="153.49" class="black" >C</text></g>
<g><title>62 (position.label in template: 62.C)</title><text x="148.43" y="149.05" class="black" >C</text></g>
<g><title>63 (position.label in template: 63.U)</title><text x="142.31" y="144.62" class="green" >T</text></g>
<g><title>64 (position.label in template: 64.G)</title><text x="135.98" y="140.18" class="black" >G</text></g>
<g><title>65 (position.label in template: 65.G)</title><text x="129.85" y="135.74" class="black" >G</text></g>
<g><title>66 (position.label in template: 66.U)</title><text x="123.33" y="139.18" class="green" >T</text></g>
<g><title>67 (position.label in template: 67.G)</title><text x="123.12" y="146.74" class="black" >G</text></g>
<g><title>68 (position.label in template: 68.A)</title><text x="123.54" y="154.3" class="green" >A</text></g>
<g><title>69 (position.label in template: 69.G)</title><text x="123.12" y="161.86" class="green" >G</text></g>
<g><title>70 (position.label in template: 70.G)</title><text x="123.12" y="169.42" class="black" >G</text></g>
<g><title>71 (position.label in template: 71.G)</title><text x="123.12" y="176.98" class="black" >G</text></g>
<g><title>72 (position.label in template: 72.C)</title><text x="123.33" y="184.54" class="black" >C</text></g>
<g><title>73 (position.label in template: 73.A)</title><text x="128.774" y="189.788" class="black" >A</text></g>
<g><title>74 (position.label in template: 74.3')</title><text x="123.559" y="195.263" class="green" >3'</text></g>
<g><line x1="110.727" y1="189.756" x2="110.823" y2="186.271" class="gray" /></g>
<g><line x1="110.937" y1="182.198" x2="111.033" y2="178.711" class="gray" /></g>
<g><line x1="111.09" y1="174.637" x2="111.09" y2="171.152" class="gray" /></g>
<g><line x1="111.09" y1="167.077" x2="111.09" y2="163.592" class="gray" /></g>
<g><line x1="111.09" y1="159.517" x2="111.09" y2="156.032" class="gray" /></g>
<g><line x1="111.09" y1="151.957" x2="111.09" y2="148.472" class="gray" /></g>
<g><line x1="111.033" y1="144.398" x2="110.937" y2="140.911" class="gray" /></g>
<g><line x1="109.078" y1="137.924" x2="106.162" y2="136.385" class="gray" /></g>
<g><line x1="102.953" y1="133.961" x2="100.447" y2="131.338" class="gray" /></g>
<g><line x1="98.2805" y1="127.974" x2="96.9795" y2="124.735" class="gray" /></g>
<g><line x1="94.1913" y1="122.656" x2="90.9387" y2="122.353" class="gray" /></g>
<g><line x1="86.8801" y1="121.989" x2="83.1999" y2="121.67" class="gray" /></g>
<g><line x1="79.1412" y1="121.306" x2="75.8788" y2="121.003" class="gray" /></g>
<g><line x1="72.3124" y1="122.151" x2="69.7976" y2="124.338" class="gray" /></g>
<g><line x1="66.233" y1="125.881" x2="62.347" y2="126.278" class="gray" /></g>
<g><line x1="58.5267" y1="125.517" x2="55.6233" y2="123.952" class="gray" /></g>
<g><line x1="52.812" y1="121.219" x2="51.018" y2="118.109" class="gray" /></g>
<g><line x1="50.1833" y1="114.315" x2="50.4967" y2="110.844" class="gray" /></g>
<g><line x1="51.9922" y1="107.256" x2="54.3178" y2="104.493" class="gray" /></g>
<g><line x1="57.5793" y1="102.341" x2="61.1107" y2="101.267" class="gray" /></g>
<g><line x1="65.0142" y1="101.251" x2="68.3558" y2="102.238" class="gray" /></g>
<g><line x1="71.5436" y1="104.436" x2="73.4964" y2="107.003" class="gray" /></g>
<g><line x1="76.7597" y1="108.803" x2="80.4403" y2="109.126" class="gray" /></g>
<g><line x1="84.4999" y1="109.48" x2="88.1801" y2="109.799" class="gray" /></g>
<g><line x1="92.2388" y1="110.163" x2="95.5012" y2="110.466" class="gray" /></g>
<g><line x1="98.5722" y1="108.904" x2="100.298" y2="106.005" class="gray" /></g>
<g><line x1="102.982" y1="103.048" x2="105.928" y2="100.881" class="gray" /></g>
<g><line x1="107.206" y1="97.6696" x2="106.584" y2="94.2391" class="gray" /></g>
<g><line x1="105.856" y1="90.2296" x2="105.234" y2="86.7991" class="gray" /></g>
<g><line x1="104.454" y1="82.7997" x2="103.736" y2="79.349" class="gray" /></g>
<g><line x1="101.568" y1="76.314" x2="98.5719" y2="74.5347" class="gray" /></g>
<g><line x1="95.8946" y1="71.6791" x2="94.3554" y2="68.6596" class="gray" /></g>
<g><line x1="93.4624" y1="64.8071" x2="93.5176" y2="61.3316" class="gray" /></g>
<g><line x1="94.7106" y1="57.6197" x2="96.7694" y2="54.649" class="gray" /></g>
<g><line x1="99.7546" y1="52.0676" x2="102.705" y2="50.6011" class="gray" /></g>
<g><line x1="106.559" y1="49.8753" x2="110.241" y2="50.2035" class="gray" /></g>
<g><line x1="113.935" y1="51.5586" x2="116.915" y2="53.6601" class="gray" /></g>
<g><line x1="119.331" y1="56.7284" x2="120.589" y2="59.9004" class="gray" /></g>
<g><line x1="121.06" y1="63.8125" x2="120.58" y2="67.2662" class="gray" /></g>
<g><line x1="119.024" y1="70.873" x2="116.846" y2="73.5857" class="gray" /></g>
<g><line x1="115.879" y1="77.1884" x2="116.401" y2="80.6004" class="gray" /></g>
<g><line x1="117.179" y1="84.5972" x2="118.001" y2="88.0716" class="gray" /></g>
<g><line x1="118.723" y1="92.0761" x2="119.147" y2="95.4726" class="gray" /></g>
<g><line x1="121.36" y1="98.0521" x2="125.1" y2="99.1167" class="gray" /></g>
<g><line x1="128.636" y1="100.966" x2="131.074" y2="102.963" class="gray" /></g>
<g><line x1="133.736" y1="105.979" x2="135.594" y2="108.93" class="gray" /></g>
<g><line x1="137.144" y1="112.638" x2="137.946" y2="116.07" class="gray" /></g>
<g><line x1="138.097" y1="120.068" x2="137.563" y2="123.511" class="gray" /></g>
<g><line x1="138.899" y1="126.721" x2="141.721" y2="128.768" class="gray" /></g>
<g><line x1="144.999" y1="131.188" x2="147.651" y2="133.181" class="gray" /></g>
<g><line x1="151.149" y1="133.592" x2="154.521" y2="132.126" class="gray" /></g>
<g><line x1="156.124" y1="133.334" x2="155.666" y2="136.814" class="gray" /></g>
<g><line x1="157.049" y1="140.031" x2="159.871" y2="142.078" class="gray" /></g>
<g><line x1="163.552" y1="143.122" x2="167.238" y2="142.846" class="gray" /></g>
<g><line x1="170.98" y1="143.801" x2="173.91" y2="145.697" class="gray" /></g>
<g><line x1="176.313" y1="148.721" x2="177.497" y2="151.998" class="gray" /></g>
<g><line x1="177.532" y1="155.843" x2="176.388" y2="159.196" class="gray" /></g>
<g><line x1="174.112" y1="162.362" x2="171.608" y2="164.277" class="gray" /></g>
<g><line x1="167.953" y1="165.456" x2="164.057" y2="165.343" class="gray" /></g>
<g><line x1="160.459" y1="163.974" x2="157.911" y2="161.834" class="gray" /></g>
<g><line x1="155.865" y1="158.546" x2="155.035" y2="155.163" class="gray" /></g>
<g><line x1="152.901" y1="151.988" x2="150.079" y2="149.941" class="gray" /></g>
<g><line x1="146.78" y1="147.55" x2="143.96" y2="145.509" class="gray" /></g>
<g><line x1="140.642" y1="143.144" x2="137.648" y2="141.044" class="gray" /></g>
<g><line x1="134.33" y1="138.679" x2="131.5" y2="136.63" class="gray" /></g>
<g><line x1="128.048" y1="136.385" x2="125.132" y2="137.924" class="gray" /></g>
<g><line x1="123.273" y1="140.911" x2="123.177" y2="144.398" class="gray" /></g>
<g><line x1="123.233" y1="148.469" x2="123.427" y2="151.96" class="gray" /></g>
<g><line x1="123.427" y1="156.029" x2="123.233" y2="159.52" class="gray" /></g>
<g><line x1="123.12" y1="163.592" x2="123.12" y2="167.077" class="gray" /></g>
<g><line x1="123.12" y1="171.152" x2="123.12" y2="174.637" class="gray" /></g>
<g><line x1="123.177" y1="178.711" x2="123.273" y2="182.198" class="gray" /></g>
<g><line x1="124.797" y1="185.648" x2="127.307" y2="188.068" class="gray" /></g>
<g><line x1="127.369" y1="190.957" x2="124.964" y2="193.482" class="gray" /></g>
</svg>
