<svg
	xmlns="http://www.w3.org/2000/svg"
	width="226.49"
	height="241.835">
<g><style type="text/css" >
<!-- create color definitions -->
<![CDATA[
circle.red {stroke: rgb(255, 0, 255); fill: none; }
circle.green {stroke: rgb(0, 255, 0); fill: none; }
circle.blue {stroke: rgb(0, 0, 255); fill: none; }
circle.black {stroke: rgb(0, 0, 0); fill: none; }
circle.gray {stroke: rgb(204, 204, 204); fill: none; }
circle.brown {stroke: rgb(211.65, 104.55, 30.6); fill: none; }
line.red {stroke: rgb(255, 0, 255); stroke-width: 0.382932; }
line.green {stroke: rgb(0, 255, 0); stroke-width: 0.382932; }
line.blue {stroke: rgb(0, 0, 255); stroke-width: 0.382932; }
line.black {stroke: rgb(0, 0, 0); stroke-width: 0.382932; }
line.gray {stroke: rgb(204, 204, 204); stroke-width: 0.382932; }
line.brown {stroke: rgb(211.65, 104.55, 30.6); stroke-width: 0.382932; }
line {stroke: rgb(0, 0, 0); }
text.red {fill: rgb(255, 0, 255); font-size: 3.063453px; font-weight: bold; font-family: Helvetica; }
text.green {fill: rgb(0, 255, 0); font-size: 3.063453px; font-weight: bold; font-family: Helvetica; }
text.blue {fill: rgb(0, 0, 255); font-size: 3.063453px; font-weight: bold; font-family: Helvetica; }
text.black {fill: rgb(0, 0, 0); font-size: 3.063453px; font-weight: bold; font-family: Helvetica; }
text.gray {fill: rgb(204, 204, 204); font-size: 3.063453px; font-weight: bold; font-family: Helvetica; }
text.brown {fill: rgb(211.65, 104.55, 30.6); font-size: 3.063453px; font-weight: bold; font-family: Helvetica; }
text {fill: rgb(0, 0, 0); font-size: 3.063453px; font-weight: bold; font-family: Helvetica; text-anchor: middle; alignment-baseline: middle; }

.pseudoknot_connection{stroke-linecap: round; stroke-opacity: 0.2; stroke-width: 1.5; }
.pseudoknot_segment1{stroke-linecap: round; stroke-opacity: 0.4; stroke-width: 3.06345; }
.pseudoknot_segment2{stroke-linecap: round; stroke-opacity: 0.4; stroke-width: 3.06345; }
line.numbering-line{stroke: rgb(204, 204, 204); stroke-width: 0.191466; }
line.predicted{stroke: rgb(0, 0, 0); stroke-dasharray: 2; }
polyline{fill: none; stroke-linejoin: round; }
template{visibility: hidden; }
text.numbering-label{fill: rgb(204, 204, 204); }
]]>
</style></g>
<g><title>0 (position.label in template: 0.5')</title><text x="110.93" y="194.143" class="green" >5'</text></g>
<g><title>1 (position.label in template: 1.A)</title><text x="110.51" y="186.59" class="black" >A</text></g>
<g><line x1="112.552" y1="186.284" x2="120.498" y2="186.284" class="black" /></g>
<g><title>2 (position.label in template: 2.G)</title><text x="110.09" y="179.03" class="black" >G</text></g>
<g><line x1="112.132" y1="178.724" x2="120.498" y2="178.724" class="black" /></g>
<g><title>3 (position.label in template: 3.G)</title><text x="110.09" y="171.47" class="green" >G</text></g>
<g><line x1="112.132" y1="171.164" x2="120.498" y2="171.164" class="black" /></g>
<g><title>4 (position.label in template: 4.G)</title><text x="110.09" y="163.91" class="black" >G</text></g>
<g><line x1="112.132" y1="163.604" x2="120.498" y2="163.604" class="black" /></g>
<g><title>5 (position.label in template: 5.U)</title><text x="110.3" y="156.35" class="green" >T</text></g>
<g><line x1="112.342" y1="156.044" x2="120.498" y2="156.044" class="black" /></g>
<g><title>6 (position.label in template: 6.A)</title><text x="110.51" y="148.79" class="black" >A</text></g>
<g><line x1="112.552" y1="148.484" x2="120.708" y2="148.484" class="black" /></g>
<g><title>7 (position.label in template: 7.A)</title><text x="110.51" y="141.23" class="green" >A</text></g>
<g><line x1="112.552" y1="140.924" x2="120.498" y2="140.924" class="black" /></g>
<g><title>8 (position.label in template: 8.U)</title><text x="103.48" y="137.97" class="green" >T</text></g>
<g><title>9 (position.label in template: 9.A)</title><text x="98.34" y="132.62" class="black" >A</text></g>
<g><title>10 (position.label in template: 10.G)</title><text x="94.66" y="125.8" class="black" >G</text></g>
<g><line x1="94.695" y1="123.452" x2="94.835" y2="115.296" class="black" /></g>
<g><text x="91.0351" y="131.663" class="numbering-label sequential" >10</text></g>
<g><line x1="93.6934" y1="127.363" x2="91.9822" y2="130.131" class="numbering-line sequential" /></g>
<g><title>11 (position.label in template: 11.C)</title><text x="87.31" y="125.8" class="black" >C</text></g>
<g><line x1="87.275" y1="123.452" x2="87.135" y2="115.296" class="black" /></g>
<g><title>12 (position.label in template: 12.U)</title><text x="79.75" y="125.8" class="green" >T</text></g>
<g><line x1="79.785" y1="123.452" x2="79.925" y2="115.296" class="black" /></g>
<g><title>13 (position.label in template: 13.U)</title><text x="72.19" y="125.8" class="green" >T</text></g>
<g><line x1="72.155" y1="123.452" x2="72.015" y2="115.296" class="black" /></g>
<g><title>14 (position.label in template: 14.A)</title><text x="66.63" y="130.69" class="black" >A</text></g>
<g><title>15 (position.label in template: 15.G)</title><text x="58.67" y="131.1" class="black" >G</text></g>
<g><title>16 (position.label in template: 16.U)</title><text x="52.62" y="126.85" class="green" >T</text></g>
<g><title>17 (position.label in template: 17.G)</title><text x="50" y="119.68" class="black" >G</text></g>
<g><title>18 (position.label in template: 18.A)</title><text x="52.83" y="112.52" class="black" >A</text></g>
<g><title>19 (position.label in template: 19.U)</title><text x="58.88" y="108.27" class="green" >T</text></g>
<g><title>20 (position.label in template: 20.A)</title><text x="66.63" y="108.68" class="black" >A</text></g>
<g><text x="69.2109" y="102.289" class="numbering-label sequential" >20</text></g>
<g><line x1="67.3182" y1="106.976" x2="68.5924" y2="103.82" class="numbering-line sequential" /></g>
<g><title>21 (position.label in template: 21.G)</title><text x="71.98" y="113.56" class="green" >G</text></g>
<g><title>22 (position.label in template: 22.A)</title><text x="79.96" y="113.56" class="green" >A</text></g>
<g><title>23 (position.label in template: 23.G)</title><text x="87.1" y="113.56" class="black" >G</text></g>
<g><title>24 (position.label in template: 24.C)</title><text x="94.87" y="113.56" class="black" >C</text></g>
<g><title>25 (position.label in template: 25.A)</title><text x="98.34" y="106.75" class="black" >A</text></g>
<g><title>26 (position.label in template: 26.C)</title><text x="103.48" y="101.4" class="black" >C</text></g>
<g><line x1="105.41" y1="100.425" x2="113.3" y2="97.6921" class="black" /></g>
<g><title>27 (position.label in template: 27.G)</title><text x="100.76" y="94.27" class="black" >G</text></g>
<g><line x1="102.69" y1="93.2952" x2="110.58" y2="90.5621" class="black" /></g>
<g><title>28 (position.label in template: 28.U)</title><text x="98.45" y="87.14" class="green" >T</text></g>
<g><line x1="100.38" y1="86.1652" x2="108.27" y2="83.4321" class="black" /></g>
<g><title>29 (position.label in template: 29.G)</title><text x="95.73" y="80.01" class="black" >G</text></g>
<g><line x1="97.6598" y1="79.0352" x2="105.55" y2="76.3021" class="black" /></g>
<g><title>30 (position.label in template: 30.C)</title><text x="93.42" y="72.88" class="black" >C</text></g>
<g><line x1="95.3422" y1="71.8837" x2="102.838" y2="69.1936" class="black" /></g>
<g><text x="88.0564" y="77.2092" class="numbering-label sequential" >30</text></g>
<g><line x1="91.9897" y1="74.0344" x2="89.9541" y2="75.6774" class="numbering-line sequential" /></g>
<g><title>31 (position.label in template: 31.U)</title><text x="86.9" y="69.07" class="green" >T</text></g>
<g><title>32 (position.label in template: 32.U)</title><text x="84.01" y="62.08" class="green" >T</text></g>
<g><title>33 (position.label in template: 33.A)</title><text x="86.13" y="54.77" class="black" >A</text></g>
<g><title>34 (position.label in template: 34.G)</title><text x="91.67" y="50.11" class="black" >G</text></g>
<g><title>35 (position.label in template: 35.C)</title><text x="99.44" y="50" class="black" >C</text></g>
<g><title>36 (position.label in template: 36.A)</title><text x="105.73" y="54.49" class="black" >A</text></g>
<g><title>37 (position.label in template: 37.U)</title><text x="107.66" y="61.75" class="green" >T</text></g>
<g><title>38 (position.label in template: 38.G)</title><text x="104.76" y="68.81" class="black" >G</text></g>
<g><title>39 (position.label in template: 39.C)</title><text x="107.48" y="75.94" class="black" >C</text></g>
<g><title>40 (position.label in template: 40.A)</title><text x="110.2" y="83.07" class="green" >A</text></g>
<g><title>41 (position.label in template: 41.C)</title><text x="112.51" y="90.2" class="black" >C</text></g>
<g><title>42 (position.label in template: 42.A)</title><text x="115.23" y="97.33" class="black" >A</text></g>
<g><title>43 (position.label in template: 43.G)</title><text x="122.33" y="98.14" class="black" >G</text></g>
<g><title>44 (position.label in template: 44.G)</title><text x="129.15" y="101.4" class="black" >G</text></g>
<g><title>45 (position.label in template: 45.G)</title><text x="134.5" y="106.75" class="black" >G</text></g>
<g><title>46 (position.label in template: 46.U)</title><text x="137.97" y="113.56" class="green" >T</text></g>
<g><title>47 (position.label in template: 47.C)</title><text x="138.78" y="121.08" class="black" >C</text></g>
<g><title>48 (position.label in template: 48.C)</title><text x="137.04" y="128.44" class="black" >C</text></g>
<g><line x1="135.738" y1="129.707" x2="130.452" y2="136.091" class="black" /></g>
<g><title>49 (position.label in template: 49.U)</title><text x="142.93" y="133.18" class="green" >T</text></g>
<g><line x1="141.67" y1="134.481" x2="136.72" y2="140.796" class="black" /></g>
<g><title>50 (position.label in template: 50.G)</title><text x="148.61" y="137.93" class="black" >G</text></g>
<g><line x1="147.371" y1="139.247" x2="142.579" y2="145.53" class="black" /></g>
<g><text x="152.984" y="132.602" class="numbering-label sequential" >50</text></g>
<g><line x1="149.776" y1="136.509" x2="151.726" y2="134.134" class="numbering-line sequential" /></g>
<g><title>51 (position.label in template: 51.G)</title><text x="154.49" y="142.67" class="black" >G</text></g>
<g><line x1="153.23" y1="143.971" x2="148.28" y2="150.286" class="black" /></g>
<g><title>52 (position.label in template: 52.G)</title><text x="160.38" y="147.41" class="black" >G</text></g>
<g><line x1="159.12" y1="148.711" x2="154.17" y2="155.026" class="black" /></g>
<g><title>53 (position.label in template: 53.U)</title><text x="168.15" y="147.22" class="green" >T</text></g>
<g><title>54 (position.label in template: 54.U)</title><text x="174.28" y="151.65" class="green" >T</text></g>
<g><title>55 (position.label in template: 55.C)</title><text x="176.49" y="158.88" class="black" >C</text></g>
<g><title>56 (position.label in template: 56.A)</title><text x="174.07" y="165.97" class="black" >A</text></g>
<g><title>57 (position.label in template: 57.A)</title><text x="167.7" y="170.04" class="black" >A</text></g>
<g><title>58 (position.label in template: 58.U)</title><text x="159.96" y="169.42" class="green" >T</text></g>
<g><title>59 (position.label in template: 59.C)</title><text x="154.33" y="164.37" class="black" >C</text></g>
<g><title>60 (position.label in template: 60.C)</title><text x="152.91" y="156.94" class="black" >C</text></g>
<g><title>61 (position.label in template: 61.C)</title><text x="147.02" y="152.2" class="black" >C</text></g>
<g><title>62 (position.label in template: 62.A)</title><text x="141.34" y="147.46" class="black" >A</text></g>
<g><title>63 (position.label in template: 63.A)</title><text x="135.46" y="142.71" class="green" >A</text></g>
<g><title>64 (position.label in template: 64.G)</title><text x="129.15" y="137.97" class="black" >G</text></g>
<g><title>65 (position.label in template: 65.U)</title><text x="122.54" y="141.23" class="green" >T</text></g>
<g><title>66 (position.label in template: 66.A)</title><text x="122.75" y="148.79" class="black" >A</text></g>
<g><title>67 (position.label in template: 67.C)</title><text x="122.54" y="156.35" class="green" >C</text></g>
<g><title>68 (position.label in template: 68.C)</title><text x="122.54" y="163.91" class="black" >C</text></g>
<g><title>69 (position.label in template: 69.U)</title><text x="122.54" y="171.47" class="green" >T</text></g>
<g><title>70 (position.label in template: 70.C)</title><text x="122.54" y="179.03" class="black" >C</text></g>
<g><title>71 (position.label in template: 71.C)</title><text x="122.54" y="186.59" class="black" >C</text></g>
<g><title>72 (position.label in template: 72.A)</title><text x="127.991" y="191.835" class="black" >A</text></g>
<g><title>73 (position.label in template: 73.3')</title><text x="122.755" y="197.296" class="green" >3'</text></g>
<g><line x1="110.816" y1="191.798" x2="110.623" y2="188.323" class="gray" /></g>
<g><line x1="110.397" y1="184.244" x2="110.203" y2="180.763" class="gray" /></g>
<g><line x1="110.09" y1="176.681" x2="110.09" y2="173.206" class="gray" /></g>
<g><line x1="110.09" y1="169.121" x2="110.09" y2="165.646" class="gray" /></g>
<g><line x1="110.147" y1="161.562" x2="110.243" y2="158.085" class="gray" /></g>
<g><line x1="110.357" y1="154.002" x2="110.453" y2="150.525" class="gray" /></g>
<g><line x1="110.51" y1="146.441" x2="110.51" y2="142.966" class="gray" /></g>
<g><line x1="108.657" y1="140.064" x2="105.333" y2="138.523" class="gray" /></g>
<g><line x1="102.065" y1="136.191" x2="99.7549" y2="133.786" class="gray" /></g>
<g><line x1="97.3702" y1="130.516" x2="95.6298" y2="127.291" class="gray" /></g>
<g><line x1="92.6177" y1="125.494" x2="89.3523" y2="125.494" class="gray" /></g>
<g><line x1="85.2677" y1="125.494" x2="81.7923" y2="125.494" class="gray" /></g>
<g><line x1="77.7077" y1="125.494" x2="74.2323" y2="125.494" class="gray" /></g>
<g><line x1="70.6564" y1="126.842" x2="68.1636" y2="129.035" class="gray" /></g>
<g><line x1="64.5904" y1="130.489" x2="60.7096" y2="130.689" class="gray" /></g>
<g><line x1="56.9988" y1="129.62" x2="54.2912" y2="127.718" class="gray" /></g>
<g><line x1="51.9191" y1="124.625" x2="50.7009" y2="121.292" class="gray" /></g>
<g><line x1="50.7507" y1="117.474" x2="52.0793" y2="114.113" class="gray" /></g>
<g><line x1="54.5012" y1="111.04" x2="57.2088" y2="109.138" class="gray" /></g>
<g><line x1="60.9195" y1="108.072" x2="64.5905" y2="108.266" class="gray" /></g>
<g><line x1="68.1389" y1="109.75" x2="70.4711" y2="111.877" class="gray" /></g>
<g><line x1="74.0223" y1="113.254" x2="77.9177" y2="113.254" class="gray" /></g>
<g><line x1="82.0023" y1="113.254" x2="85.0577" y2="113.254" class="gray" /></g>
<g><line x1="89.1423" y1="113.254" x2="92.8277" y2="113.254" class="gray" /></g>
<g><line x1="95.7972" y1="111.434" x2="97.4128" y2="108.263" class="gray" /></g>
<g><line x1="99.7549" y1="104.971" x2="102.065" y2="102.566" class="gray" /></g>
<g><line x1="102.752" y1="99.1855" x2="101.488" y2="95.8718" class="gray" /></g>
<g><line x1="100.131" y1="92.0208" x2="99.0795" y2="88.7765" class="gray" /></g>
<g><line x1="97.7221" y1="84.9255" x2="96.4579" y2="81.6118" class="gray" /></g>
<g><line x1="95.1005" y1="77.7608" x2="94.0495" y2="74.5165" class="gray" /></g>
<g><line x1="91.6567" y1="71.5433" x2="88.6633" y2="69.7941" class="gray" /></g>
<g><line x1="86.1197" y1="66.8763" x2="84.7903" y2="63.661" class="gray" /></g>
<g><line x1="84.5789" y1="59.8122" x2="85.5611" y2="56.4251" class="gray" /></g>
<g><line x1="87.6929" y1="53.149" x2="90.1071" y2="51.1183" class="gray" /></g>
<g><line x1="93.7121" y1="49.7747" x2="97.3979" y2="49.7226" class="gray" /></g>
<g><line x1="101.102" y1="50.8802" x2="104.068" y2="52.9971" class="gray" /></g>
<g><line x1="106.255" y1="56.1574" x2="107.135" y2="59.4699" class="gray" /></g>
<g><line x1="106.884" y1="63.3328" x2="105.536" y2="66.6145" class="gray" /></g>
<g><line x1="105.488" y1="70.4118" x2="106.752" y2="73.7255" class="gray" /></g>
<g><line x1="108.208" y1="77.5418" x2="109.472" y2="80.8555" class="gray" /></g>
<g><line x1="110.829" y1="84.7065" x2="111.881" y2="87.9508" class="gray" /></g>
<g><line x1="113.238" y1="91.8018" x2="114.502" y2="95.1155" class="gray" /></g>
<g><line x1="117.259" y1="97.2551" x2="120.301" y2="97.6022" class="gray" /></g>
<g><line x1="124.173" y1="98.7144" x2="127.307" y2="100.213" class="gray" /></g>
<g><line x1="130.594" y1="102.538" x2="133.056" y2="105" class="gray" /></g>
<g><line x1="135.427" y1="108.263" x2="137.043" y2="111.434" class="gray" /></g>
<g><line x1="138.189" y1="115.284" x2="138.561" y2="118.743" class="gray" /></g>
<g><line x1="138.31" y1="122.761" x2="137.51" y2="126.146" class="gray" /></g>
<g><line x1="138.631" y1="129.414" x2="141.339" y2="131.593" class="gray" /></g>
<g><line x1="144.497" y1="134.184" x2="147.043" y2="136.313" class="gray" /></g>
<g><line x1="150.2" y1="138.905" x2="152.9" y2="141.082" class="gray" /></g>
<g><line x1="156.081" y1="143.644" x2="158.789" y2="145.823" class="gray" /></g>
<g><line x1="162.422" y1="147.054" x2="166.108" y2="146.964" class="gray" /></g>
<g><line x1="169.805" y1="148.11" x2="172.625" y2="150.147" class="gray" /></g>
<g><line x1="174.877" y1="153.297" x2="175.893" y2="156.621" class="gray" /></g>
<g><line x1="175.83" y1="160.506" x2="174.73" y2="163.731" class="gray" /></g>
<g><line x1="172.349" y1="166.763" x2="169.421" y2="168.634" class="gray" /></g>
<g><line x1="165.664" y1="169.571" x2="161.996" y2="169.277" class="gray" /></g>
<g><line x1="158.44" y1="167.75" x2="155.85" y2="165.427" class="gray" /></g>
<g><line x1="153.947" y1="162.058" x2="153.293" y2="158.64" class="gray" /></g>
<g><line x1="151.319" y1="155.353" x2="148.611" y2="153.174" class="gray" /></g>
<g><line x1="145.452" y1="150.585" x2="142.908" y2="148.462" class="gray" /></g>
<g><line x1="139.751" y1="145.87" x2="137.049" y2="143.687" class="gray" /></g>
<g><line x1="133.827" y1="141.177" x2="130.783" y2="138.89" class="gray" /></g>
<g><line x1="127.318" y1="138.567" x2="124.372" y2="140.02" class="gray" /></g>
<g><line x1="122.597" y1="142.965" x2="122.693" y2="146.442" class="gray" /></g>
<g><line x1="122.693" y1="150.525" x2="122.597" y2="154.002" class="gray" /></g>
<g><line x1="122.54" y1="158.086" x2="122.54" y2="161.561" class="gray" /></g>
<g><line x1="122.54" y1="165.646" x2="122.54" y2="169.121" class="gray" /></g>
<g><line x1="122.54" y1="173.206" x2="122.54" y2="176.681" class="gray" /></g>
<g><line x1="122.54" y1="180.766" x2="122.54" y2="184.241" class="gray" /></g>
<g><line x1="124.012" y1="187.7" x2="126.52" y2="190.113" class="gray" /></g>
<g><line x1="126.578" y1="193.003" x2="124.169" y2="195.515" class="gray" /></g>
</svg>
