<svg
	xmlns="http://www.w3.org/2000/svg"
	width="294.641"
	height="199.49">
<g><style type="text/css" >
<!-- create color definitions -->
<![CDATA[
circle.red {stroke: rgb(255, 0, 255); fill: none; }
circle.green {stroke: rgb(0, 255, 0); fill: none; }
circle.blue {stroke: rgb(0, 0, 255); fill: none; }
circle.black {stroke: rgb(0, 0, 0); fill: none; }
circle.gray {stroke: rgb(204, 204, 204); fill: none; }
circle.brown {stroke: rgb(211.65, 104.55, 30.6); fill: none; }
line.red {stroke: rgb(255, 0, 255); stroke-width: 0.38281; }
line.green {stroke: rgb(0, 255, 0); stroke-width: 0.38281; }
line.blue {stroke: rgb(0, 0, 255); stroke-width: 0.38281; }
line.black {stroke: rgb(0, 0, 0); stroke-width: 0.38281; }
line.gray {stroke: rgb(204, 204, 204); stroke-width: 0.38281; }
line.brown {stroke: rgb(211.65, 104.55, 30.6); stroke-width: 0.38281; }
line {stroke: rgb(0, 0, 0); }
text.red {fill: rgb(255, 0, 255); font-size: 3.062480px; font-weight: bold; font-family: Helvetica; }
text.green {fill: rgb(0, 255, 0); font-size: 3.062480px; font-weight: bold; font-family: Helvetica; }
text.blue {fill: rgb(0, 0, 255); font-size: 3.062480px; font-weight: bold; font-family: Helvetica; }
text.black {fill: rgb(0, 0, 0); font-size: 3.062480px; font-weight: bold; font-family: Helvetica; }
text.gray {fill: rgb(204, 204, 204); font-size: 3.062480px; font-weight: bold; font-family: Helvetica; }
text.brown {fill: rgb(211.65, 104.55, 30.6); font-size: 3.062480px; font-weight: bold; font-family: Helvetica; }
text {fill: rgb(0, 0, 0); font-size: 3.062480px; font-weight: bold; font-family: Helvetica; text-anchor: middle; alignment-baseline: middle; }

.pseudoknot_connection{stroke-linecap: round; stroke-opacity: 0.2; stroke-width: 1.5; }
.pseudoknot_segment1{stroke-linecap: round; stroke-opacity: 0.4; stroke-width: 3.06248; }
.pseudoknot_segment2{stroke-linecap: round; stroke-opacity: 0.4; stroke-width: 3.06248; }
line.numbering-line{stroke: rgb(204, 204, 204); stroke-width: 0.191405; }
line.predicted{stroke: rgb(0, 0, 0); stroke-dasharray: 2; }
polyline{fill: none; stroke-linejoin: round; }
template{visibility: hidden; }
text.numbering-label{fill: rgb(204, 204, 204); }
]]>
</style></g>
<g><title>0 (position.label in template: 0.5')</title><text x="101.043" y="147.082" class="green" >5'</text></g>
<g><title>1 (position.label in template: 1.G)</title><text x="108.604" y="147.082" class="black" >G</text></g>
<g><title>2 (position.label in template: 2.C)</title><text x="116.165" y="147.082" class="black" >C</text></g>
<g><title>3 (position.label in template: 3.U)</title><text x="123.726" y="147.082" class="green" >T</text></g>
<g><title>4 (position.label in template: 4.A)</title><text x="131.287" y="147.082" class="black" >A</text></g>
<g><title>5 (position.label in template: 5.A)</title><text x="138.848" y="147.082" class="black" >A</text></g>
<g><title>6 (position.label in template: 6.A)</title><text x="144.2" y="141.74" class="green" >A</text></g>
<g><line x1="146.242" y1="141.434" x2="154.188" y2="141.434" class="black" /></g>
<g><title>7 (position.label in template: 7.C)</title><text x="143.99" y="134.18" class="black" >C</text></g>
<g><line x1="146.032" y1="133.874" x2="153.978" y2="133.874" class="black" /></g>
<g><title>8 (position.label in template: 8.U)</title><text x="143.99" y="126.62" class="green" >T</text></g>
<g><line x1="146.032" y1="126.314" x2="154.398" y2="126.314" class="black" /></g>
<g><title>9 (position.label in template: 9.U)</title><text x="143.99" y="119.06" class="green" >T</text></g>
<g><line x1="146.032" y1="118.754" x2="154.398" y2="118.754" class="black" /></g>
<g><title>10 (position.label in template: 10.U)</title><text x="143.99" y="111.5" class="green" >T</text></g>
<g><line x1="146.032" y1="111.194" x2="154.398" y2="111.194" class="black" /></g>
<g><text x="137.923" y="114.767" class="numbering-label sequential" >10</text></g>
<g><line x1="142.372" y1="112.371" x2="139.761" y2="113.778" class="numbering-line sequential" /></g>
<g><title>11 (position.label in template: 11.A)</title><text x="137.77" y="107.51" class="green" >A</text></g>
<g><line x1="136.838" y1="105.387" x2="133.072" y2="98.0405" class="black" /></g>
<g><title>12 (position.label in template: 12.G)</title><text x="130.58" y="110.86" class="black" >G</text></g>
<g><line x1="129.705" y1="108.709" x2="126.245" y2="101.418" class="black" /></g>
<g><title>13 (position.label in template: 13.G)</title><text x="123.8" y="114.21" class="black" >G</text></g>
<g><line x1="122.924" y1="112.06" x2="119.466" y2="104.778" class="black" /></g>
<g><title>14 (position.label in template: 14.G)</title><text x="117.03" y="117.56" class="black" >G</text></g>
<g><line x1="116.153" y1="115.41" x2="112.687" y2="108.127" class="black" /></g>
<g><title>15 (position.label in template: 15.G)</title><text x="112.22" y="123.39" class="black" >G</text></g>
<g><title>16 (position.label in template: 16.U)</title><text x="104.87" y="123.67" class="green" >T</text></g>
<g><line x1="103.994" y1="121.52" x2="100.536" y2="114.238" class="black" /></g>
<g><title>17 (position.label in template: 17.G)</title><text x="97.89" y="127.02" class="black" >G</text></g>
<g><line x1="97.0127" y1="124.87" x2="93.5473" y2="117.587" class="black" /></g>
<g><title>18 (position.label in template: 18.C)</title><text x="91.32" y="130.37" class="black" >C</text></g>
<g><line x1="90.3878" y1="128.247" x2="86.6222" y2="120.91" class="black" /></g>
<g><title>19 (position.label in template: 19.C)</title><text x="84.54" y="133.72" class="black" >C</text></g>
<g><line x1="83.6078" y1="131.597" x2="79.8422" y2="124.26" class="black" /></g>
<g><title>20 (position.label in template: 20.C)</title><text x="77.77" y="137.07" class="black" >C</text></g>
<g><line x1="76.8365" y1="134.948" x2="73.0635" y2="127.609" class="black" /></g>
<g><text x="80.8608" y="143.229" class="numbering-label sequential" >20</text></g>
<g><line x1="78.5942" y1="138.712" x2="80.0923" y2="141.697" class="numbering-line sequential" /></g>
<g><title>21 (position.label in template: 21.A)</title><text x="71.19" y="140.42" class="green" >A</text></g>
<g><line x1="70.2578" y1="138.297" x2="66.4922" y2="130.96" class="black" /></g>
<g><title>22 (position.label in template: 22.U)</title><text x="67.28" y="147.01" class="green" >T</text></g>
<g><title>23 (position.label in template: 23.U)</title><text x="60.14" y="149.49" class="green" >T</text></g>
<g><title>24 (position.label in template: 24.G)</title><text x="52.93" y="146.63" class="black" >G</text></g>
<g><title>25 (position.label in template: 25.A)</title><text x="50" y="139.85" class="black" >A</text></g>
<g><title>26 (position.label in template: 26.C)</title><text x="51.77" y="132.56" class="black" >C</text></g>
<g><title>27 (position.label in template: 27.U)</title><text x="58.08" y="128.39" class="green" >T</text></g>
<g><title>28 (position.label in template: 28.U)</title><text x="65.56" y="129.45" class="green" >T</text></g>
<g><title>29 (position.label in template: 29.G)</title><text x="72.13" y="126.1" class="black" >G</text></g>
<g><title>30 (position.label in template: 30.G)</title><text x="78.91" y="122.75" class="black" >G</text></g>
<g><text x="75.8576" y="116.572" class="numbering-label sequential" >30</text></g>
<g><line x1="78.096" y1="121.103" x2="76.6142" y2="118.104" class="numbering-line sequential" /></g>
<g><title>31 (position.label in template: 31.G)</title><text x="85.69" y="119.4" class="black" >G</text></g>
<g><title>32 (position.label in template: 32.C)</title><text x="92.67" y="116.05" class="black" >C</text></g>
<g><title>33 (position.label in template: 33.U)</title><text x="85.51" y="113.62" class="green" >T</text></g>
<g><title>34 (position.label in template: 34.G)</title><text x="81.95" y="106.85" class="black" >G</text></g>
<g><title>35 (position.label in template: 35.A)</title><text x="84.79" y="99.69" class="black" >A</text></g>
<g><title>36 (position.label in template: 36.G)</title><text x="91.15" y="96.34" class="black" >G</text></g>
<g><title>37 (position.label in template: 37.A)</title><text x="98.73" y="98.76" class="black" >A</text></g>
<g><title>38 (position.label in template: 38.C)</title><text x="101.87" y="105.54" class="black" >C</text></g>
<g><title>39 (position.label in template: 39.A)</title><text x="99.66" y="112.7" class="green" >A</text></g>
<g><title>40 (position.label in template: 40.U)</title><text x="99.19" y="105.14" class="green" >T</text></g>
<g><title>41 (position.label in template: 41.A)</title><text x="106.17" y="101.79" class="black" >A</text></g>
<g><title>42 (position.label in template: 42.C)</title><text x="111.81" y="106.59" class="black" >C</text></g>
<g><title>43 (position.label in template: 43.C)</title><text x="118.59" y="103.24" class="black" >C</text></g>
<g><title>44 (position.label in template: 44.C)</title><text x="125.37" y="99.88" class="black" >C</text></g>
<g><title>45 (position.label in template: 45.U)</title><text x="132.14" y="96.53" class="green" >T</text></g>
<g><title>46 (position.label in template: 46.U)</title><text x="132.87" y="89.01" class="green" >T</text></g>
<g><title>47 (position.label in template: 47.U)</title><text x="136.62" y="82.44" class="green" >T</text></g>
<g><title>48 (position.label in template: 48.G)</title><text x="142.51" y="77.98" class="black" >G</text></g>
<g><title>49 (position.label in template: 49.A)</title><text x="150.32" y="76.4" class="black" >A</text></g>
<g><title>50 (position.label in template: 50.A)</title><text x="157.71" y="77.98" class="black" >A</text></g>
<g><text x="160.563" y="71.7077" class="numbering-label sequential" >50</text></g>
<g><line x1="158.471" y1="76.3074" x2="159.866" y2="73.2389" class="numbering-line sequential" /></g>
<g><title>51 (position.label in template: 51.C)</title><text x="163.6" y="82.44" class="black" >C</text></g>
<g><line x1="164.334" y1="84.0391" x2="167.236" y2="91.5784" class="black" /></g>
<g><title>52 (position.label in template: 52.C)</title><text x="170.62" y="79.61" class="black" >C</text></g>
<g><line x1="171.352" y1="81.2098" x2="174.248" y2="88.7577" class="black" /></g>
<g><title>53 (position.label in template: 53.U)</title><text x="177.63" y="76.79" class="green" >T</text></g>
<g><line x1="178.422" y1="78.3653" x2="181.618" y2="85.9522" class="black" /></g>
<g><title>54 (position.label in template: 54.G)</title><text x="184.43" y="73.96" class="green" >G</text></g>
<g><line x1="185.224" y1="75.5348" x2="188.426" y2="83.1227" class="black" /></g>
<g><title>55 (position.label in template: 55.A)</title><text x="188.57" y="67.38" class="black" >A</text></g>
<g><title>56 (position.label in template: 56.C)</title><text x="195.38" y="64.56" class="black" >C</text></g>
<g><title>57 (position.label in template: 57.C)</title><text x="202.62" y="66.71" class="black" >C</text></g>
<g><line x1="203.354" y1="68.3091" x2="206.256" y2="75.8484" class="black" /></g>
<g><title>58 (position.label in template: 58.A)</title><text x="209.84" y="63.88" class="green" >A</text></g>
<g><line x1="210.573" y1="65.4793" x2="213.477" y2="73.0282" class="black" /></g>
<g><title>59 (position.label in template: 59.G)</title><text x="216.44" y="61.06" class="black" >G</text></g>
<g><line x1="217.232" y1="62.6353" x2="220.428" y2="70.2222" class="black" /></g>
<g><title>60 (position.label in template: 60.G)</title><text x="223.45" y="58.23" class="black" >G</text></g>
<g><line x1="224.244" y1="59.8048" x2="227.446" y2="67.3927" class="black" /></g>
<g><title>61 (position.label in template: 61.U)</title><text x="227.86" y="51.94" class="green" >T</text></g>
<g><title>62 (position.label in template: 62.U)</title><text x="235.16" y="50" class="green" >T</text></g>
<g><title>63 (position.label in template: 63.A)</title><text x="242.13" y="53.39" class="black" >A</text></g>
<g><title>64 (position.label in template: 64.G)</title><text x="244.54" y="60.4" class="black" >G</text></g>
<g><title>65 (position.label in template: 65.G)</title><text x="242.02" y="67.53" class="black" >G</text></g>
<g><title>66 (position.label in template: 66.A)</title><text x="235.83" y="71.2" class="black" >A</text></g>
<g><title>67 (position.label in template: 67.C)</title><text x="228.24" y="69.58" class="black" >C</text></g>
<g><title>68 (position.label in template: 68.C)</title><text x="221.22" y="72.41" class="black" >C</text></g>
<g><title>69 (position.label in template: 69.U)</title><text x="214.21" y="75.24" class="green" >T</text></g>
<g><title>70 (position.label in template: 70.G)</title><text x="206.99" y="78.06" class="black" >G</text></g>
<g><title>71 (position.label in template: 71.C)</title><text x="203.47" y="84.64" class="black" >C</text></g>
<g><title>72 (position.label in template: 72.G)</title><text x="196.25" y="87.47" class="black" >G</text></g>
<g><title>73 (position.label in template: 73.U)</title><text x="189.22" y="85.31" class="green" >T</text></g>
<g><title>74 (position.label in template: 74.A)</title><text x="182.41" y="88.14" class="green" >A</text></g>
<g><title>75 (position.label in template: 75.G)</title><text x="174.98" y="90.97" class="black" >G</text></g>
<g><title>76 (position.label in template: 76.G)</title><text x="167.97" y="93.79" class="black" >G</text></g>
<g><title>77 (position.label in template: 77.G)</title><text x="166.67" y="101.24" class="black" >G</text></g>
<g><title>78 (position.label in template: 78.A)</title><text x="162.86" y="107.51" class="black" >A</text></g>
<g><title>79 (position.label in template: 79.A)</title><text x="156.44" y="111.5" class="green" >A</text></g>
<g><title>80 (position.label in template: 80.A)</title><text x="156.44" y="119.06" class="green" >A</text></g>
<g><title>81 (position.label in template: 81.A)</title><text x="156.44" y="126.62" class="green" >A</text></g>
<g><title>82 (position.label in template: 82.G)</title><text x="156.02" y="134.18" class="black" >G</text></g>
<g><title>83 (position.label in template: 83.U)</title><text x="156.23" y="141.74" class="green" >T</text></g>
<g><title>84 (position.label in template: 84.G)</title><text x="161.468" y="147.193" class="black" >G</text></g>
<g><title>85 (position.label in template: 85.A)</title><text x="169.029" y="147.193" class="black" >A</text></g>
<g><title>86 (position.label in template: 86.G)</title><text x="176.591" y="147.193" class="black" >G</text></g>
<g><title>87 (position.label in template: 87.G)</title><text x="184.152" y="147.193" class="black" >G</text></g>
<g><title>88 (position.label in template: 88.A)</title><text x="191.713" y="147.193" class="black" >A</text></g>
<g><title>89 (position.label in template: 89.U)</title><text x="199.274" y="147.193" class="green" >T</text></g>
<g><title>90 (position.label in template: 90.C)</title><text x="206.835" y="147.193" class="black" >C</text></g>
<g><title>91 (position.label in template: 91.U)</title><text x="214.396" y="147.193" class="green" >T</text></g>
<g><title>92 (position.label in template: 92.U)</title><text x="221.957" y="147.193" class="green" >T</text></g>
<g><title>93 (position.label in template: 93.A)</title><text x="229.518" y="147.193" class="black" >A</text></g>
<g><title>94 (position.label in template: 94.C)</title><text x="237.08" y="147.193" class="black" >C</text></g>
<g><title>95 (position.label in template: 95.A)</title><text x="244.641" y="147.193" class="black" >A</text></g>
<g><title>96 (position.label in template: 96.3')</title><text x="252.202" y="147.193" class="green" >3'</text></g>
<g><line x1="103.084" y1="146.775" x2="106.562" y2="146.775" class="gray" /></g>
<g><line x1="110.646" y1="146.775" x2="114.123" y2="146.775" class="gray" /></g>
<g><line x1="118.207" y1="146.775" x2="121.685" y2="146.775" class="gray" /></g>
<g><line x1="125.768" y1="146.775" x2="129.246" y2="146.775" class="gray" /></g>
<g><line x1="133.329" y1="146.775" x2="136.807" y2="146.775" class="gray" /></g>
<g><line x1="140.293" y1="145.333" x2="142.755" y2="142.876" class="gray" /></g>
<g><line x1="144.143" y1="139.393" x2="144.047" y2="135.915" class="gray" /></g>
<g><line x1="143.99" y1="131.832" x2="143.99" y2="128.355" class="gray" /></g>
<g><line x1="143.99" y1="124.272" x2="143.99" y2="120.795" class="gray" /></g>
<g><line x1="143.99" y1="116.712" x2="143.99" y2="113.235" class="gray" /></g>
<g><line x1="142.272" y1="110.091" x2="139.488" y2="108.306" class="gray" /></g>
<g><line x1="135.919" y1="108.066" x2="132.431" y2="109.691" class="gray" /></g>
<g><line x1="128.75" y1="111.458" x2="125.63" y2="112.999" class="gray" /></g>
<g><line x1="121.97" y1="114.809" x2="118.86" y2="116.348" class="gray" /></g>
<g><line x1="115.731" y1="118.829" x2="113.519" y2="121.509" class="gray" /></g>
<g><line x1="110.18" y1="123.161" x2="106.91" y2="123.286" class="gray" /></g>
<g><line x1="103.029" y1="124.247" x2="99.7306" y2="125.83" class="gray" /></g>
<g><line x1="96.0711" y1="127.641" x2="93.1389" y2="129.136" class="gray" /></g>
<g><line x1="89.4896" y1="130.968" x2="86.3704" y2="132.509" class="gray" /></g>
<g><line x1="82.7101" y1="134.319" x2="79.5999" y2="135.858" class="gray" /></g>
<g><line x1="75.9506" y1="137.69" x2="73.0094" y2="139.187" class="gray" /></g>
<g><line x1="70.1482" y1="141.87" x2="68.3218" y2="144.948" class="gray" /></g>
<g><line x1="65.3514" y1="147.374" x2="62.0686" y2="148.514" class="gray" /></g>
<g><line x1="58.2422" y1="148.431" x2="54.8278" y2="147.077" class="gray" /></g>
<g><line x1="52.1201" y1="144.45" x2="50.8099" y2="141.418" class="gray" /></g>
<g><line x1="50.4817" y1="137.56" x2="51.2883" y2="134.238" class="gray" /></g>
<g><line x1="53.4733" y1="131.128" x2="56.3767" y2="129.209" class="gray" /></g>
<g><line x1="60.1015" y1="128.37" x2="63.5385" y2="128.857" class="gray" /></g>
<g><line x1="67.3789" y1="128.216" x2="70.3111" y2="126.721" class="gray" /></g>
<g><line x1="73.9604" y1="124.889" x2="77.0796" y2="123.348" class="gray" /></g>
<g><line x1="80.7404" y1="121.539" x2="83.8596" y2="119.998" class="gray" /></g>
<g><line x1="87.5306" y1="118.21" x2="90.8294" y2="116.627" class="gray" /></g>
<g><line x1="90.7367" y1="115.088" x2="87.4433" y2="113.97" class="gray" /></g>
<g><line x1="84.5598" y1="111.507" x2="82.9002" y2="108.351" class="gray" /></g>
<g><line x1="82.7028" y1="104.646" x2="84.0372" y2="101.282" class="gray" /></g>
<g><line x1="86.5964" y1="98.4323" x2="89.3436" y2="96.9852" class="gray" /></g>
<g><line x1="93.0949" y1="96.6547" x2="96.7851" y2="97.8328" class="gray" /></g>
<g><line x1="99.588" y1="100.306" x2="101.012" y2="103.381" class="gray" /></g>
<g><line x1="101.268" y1="107.185" x2="100.262" y2="110.443" class="gray" /></g>
<g><line x1="99.5333" y1="110.356" x2="99.3167" y2="106.871" class="gray" /></g>
<g><line x1="101.031" y1="103.95" x2="104.329" y2="102.367" class="gray" /></g>
<g><line x1="107.725" y1="102.807" x2="110.255" y2="104.961" class="gray" /></g>
<g><line x1="113.64" y1="105.379" x2="116.76" y2="103.838" class="gray" /></g>
<g><line x1="120.419" y1="102.027" x2="123.541" y2="100.48" class="gray" /></g>
<g><line x1="127.2" y1="98.6683" x2="130.31" y2="97.1292" class="gray" /></g>
<g><line x1="132.337" y1="94.1917" x2="132.673" y2="90.7359" class="gray" /></g>
<g><line x1="133.882" y1="86.9306" x2="135.608" y2="83.9069" class="gray" /></g>
<g><line x1="138.248" y1="80.9013" x2="140.882" y2="78.9062" class="gray" /></g>
<g><line x1="144.511" y1="77.2689" x2="148.319" y2="76.4986" class="gray" /></g>
<g><line x1="152.317" y1="76.5206" x2="155.713" y2="77.2469" class="gray" /></g>
<g><line x1="159.338" y1="78.9062" x2="161.972" y2="80.9013" class="gray" /></g>
<g><line x1="165.494" y1="81.3704" x2="168.726" y2="80.0671" class="gray" /></g>
<g><line x1="172.514" y1="78.5418" x2="175.736" y2="77.2457" class="gray" /></g>
<g><line x1="179.515" y1="75.6993" x2="182.545" y2="74.4382" class="gray" /></g>
<g><line x1="185.517" y1="71.9257" x2="187.483" y2="68.8018" class="gray" /></g>
<g><line x1="190.456" y1="66.2926" x2="193.494" y2="65.0349" class="gray" /></g>
<g><line x1="197.337" y1="64.835" x2="200.663" y2="65.8225" class="gray" /></g>
<g><line x1="204.521" y1="65.6587" x2="207.939" y2="64.3188" class="gray" /></g>
<g><line x1="211.717" y1="62.7716" x2="214.563" y2="61.5559" class="gray" /></g>
<g><line x1="218.333" y1="59.9895" x2="221.557" y2="58.6881" class="gray" /></g>
<g><line x1="224.622" y1="56.252" x2="226.688" y2="53.3055" class="gray" /></g>
<g><line x1="229.833" y1="51.1094" x2="233.187" y2="50.2181" class="gray" /></g>
<g><line x1="236.996" y1="50.5867" x2="240.294" y2="52.1908" class="gray" /></g>
<g><line x1="242.794" y1="55.0145" x2="243.876" y2="58.163" class="gray" /></g>
<g><line x1="243.86" y1="62.0187" x2="242.7" y2="65.2988" class="gray" /></g>
<g><line x1="240.264" y1="68.265" x2="237.586" y2="69.8525" class="gray" /></g>
<g><line x1="233.833" y1="70.4676" x2="230.237" y2="69.6999" class="gray" /></g>
<g><line x1="226.346" y1="70.0371" x2="223.114" y2="71.3404" class="gray" /></g>
<g><line x1="219.327" y1="72.8681" x2="216.103" y2="74.1695" class="gray" /></g>
<g><line x1="212.308" y1="75.6765" x2="208.892" y2="77.011" class="gray" /></g>
<g><line x1="206.027" y1="79.554" x2="204.433" y2="82.5335" class="gray" /></g>
<g><line x1="201.569" y1="85.0788" x2="198.151" y2="86.4187" class="gray" /></g>
<g><line x1="194.298" y1="86.5641" x2="191.172" y2="85.6034" class="gray" /></g>
<g><line x1="187.335" y1="85.7872" x2="184.295" y2="87.0503" class="gray" /></g>
<g><line x1="180.502" y1="88.5605" x2="176.888" y2="89.937" class="gray" /></g>
<g><line x1="173.086" y1="91.4257" x2="169.864" y2="92.7218" class="gray" /></g>
<g><line x1="167.619" y1="95.495" x2="167.021" y2="98.9225" class="gray" /></g>
<g><line x1="165.61" y1="102.679" x2="163.92" y2="105.459" class="gray" /></g>
<g><line x1="161.126" y1="108.281" x2="158.174" y2="110.116" class="gray" /></g>
<g><line x1="156.44" y1="113.235" x2="156.44" y2="116.712" class="gray" /></g>
<g><line x1="156.44" y1="120.795" x2="156.44" y2="124.272" class="gray" /></g>
<g><line x1="156.327" y1="128.352" x2="156.133" y2="131.835" class="gray" /></g>
<g><line x1="156.077" y1="135.915" x2="156.173" y2="139.393" class="gray" /></g>
<g><line x1="157.644" y1="142.906" x2="160.054" y2="145.414" class="gray" /></g>
<g><line x1="163.51" y1="146.886" x2="166.988" y2="146.886" class="gray" /></g>
<g><line x1="171.071" y1="146.886" x2="174.549" y2="146.886" class="gray" /></g>
<g><line x1="178.632" y1="146.886" x2="182.11" y2="146.886" class="gray" /></g>
<g><line x1="186.193" y1="146.886" x2="189.671" y2="146.886" class="gray" /></g>
<g><line x1="193.754" y1="146.886" x2="197.232" y2="146.886" class="gray" /></g>
<g><line x1="201.316" y1="146.886" x2="204.793" y2="146.886" class="gray" /></g>
<g><line x1="208.877" y1="146.886" x2="212.355" y2="146.886" class="gray" /></g>
<g><line x1="216.438" y1="146.886" x2="219.916" y2="146.886" class="gray" /></g>
<g><line x1="223.999" y1="146.886" x2="227.477" y2="146.886" class="gray" /></g>
<g><line x1="231.56" y1="146.886" x2="235.038" y2="146.886" class="gray" /></g>
<g><line x1="239.121" y1="146.886" x2="242.599" y2="146.886" class="gray" /></g>
<g><line x1="246.682" y1="146.886" x2="250.16" y2="146.886" class="gray" /></g>
</svg>
