<svg
	xmlns="http://www.w3.org/2000/svg"
	width="271.365"
	height="287.687">
<g><style type="text/css" >
<!-- create color definitions -->
<![CDATA[
circle.red {stroke: rgb(255, 0, 255); fill: none; }
circle.green {stroke: rgb(0, 255, 0); fill: none; }
circle.blue {stroke: rgb(0, 0, 255); fill: none; }
circle.black {stroke: rgb(0, 0, 0); fill: none; }
circle.gray {stroke: rgb(204, 204, 204); fill: none; }
circle.brown {stroke: rgb(211.65, 104.55, 30.6); fill: none; }
line.red {stroke: rgb(255, 0, 255); stroke-width: 0.383851; }
line.green {stroke: rgb(0, 255, 0); stroke-width: 0.383851; }
line.blue {stroke: rgb(0, 0, 255); stroke-width: 0.383851; }
line.black {stroke: rgb(0, 0, 0); stroke-width: 0.383851; }
line.gray {stroke: rgb(204, 204, 204); stroke-width: 0.383851; }
line.brown {stroke: rgb(211.65, 104.55, 30.6); stroke-width: 0.383851; }
line {stroke: rgb(0, 0, 0); }
text.red {fill: rgb(255, 0, 255); font-size: 3.070809px; font-weight: bold; font-family: Helvetica; }
text.green {fill: rgb(0, 255, 0); font-size: 3.070809px; font-weight: bold; font-family: Helvetica; }
text.blue {fill: rgb(0, 0, 255); font-size: 3.070809px; font-weight: bold; font-family: Helvetica; }
text.black {fill: rgb(0, 0, 0); font-size: 3.070809px; font-weight: bold; font-family: Helvetica; }
text.gray {fill: rgb(204, 204, 204); font-size: 3.070809px; font-weight: bold; font-family: Helvetica; }
text.brown {fill: rgb(211.65, 104.55, 30.6); font-size: 3.070809px; font-weight: bold; font-family: Helvetica; }
text {fill: rgb(0, 0, 0); font-size: 3.070809px; font-weight: bold; font-family: Helvetica; text-anchor: middle; alignment-baseline: middle; }

.pseudoknot_connection{stroke-linecap: round; stroke-opacity: 0.2; stroke-width: 1.5; }
.pseudoknot_segment1{stroke-linecap: round; stroke-opacity: 0.4; stroke-width: 3.07081; }
.pseudoknot_segment2{stroke-linecap: round; stroke-opacity: 0.4; stroke-width: 3.07081; }
line.numbering-line{stroke: rgb(204, 204, 204); stroke-width: 0.191926; }
line.predicted{stroke: rgb(0, 0, 0); stroke-dasharray: 2; }
polyline{fill: none; stroke-linejoin: round; }
template{visibility: hidden; }
text.numbering-label{fill: rgb(204, 204, 204); }
]]>
</style></g>
<g><title>0 (position.label in template: 0.5')</title><text x="48.8768" y="243.033" class="green" >5'</text></g>
<g><title>1 (position.label in template: 1.G)</title><text x="54.2234" y="237.687" class="black" >G</text></g>
<g><title>2 (position.label in template: 2.G)</title><text x="59.57" y="232.34" class="black" >G</text></g>
<g><line x1="61.6172" y1="232.033" x2="69.9728" y2="232.033" class="black" /></g>
<g><title>3 (position.label in template: 3.G)</title><text x="59.57" y="224.78" class="black" >G</text></g>
<g><line x1="61.6172" y1="224.473" x2="69.9728" y2="224.473" class="black" /></g>
<g><title>4 (position.label in template: 4.A)</title><text x="59.99" y="217.22" class="green" >A</text></g>
<g><line x1="62.0372" y1="216.913" x2="69.9728" y2="216.913" class="black" /></g>
<g><title>5 (position.label in template: 5.U)</title><text x="59.78" y="209.66" class="green" >T</text></g>
<g><line x1="61.8272" y1="209.353" x2="70.1828" y2="209.353" class="black" /></g>
<g><title>6 (position.label in template: 6.G)</title><text x="59.57" y="202.1" class="black" >G</text></g>
<g><line x1="61.6172" y1="201.793" x2="69.9728" y2="201.793" class="black" /></g>
<g><title>7 (position.label in template: 7.U)</title><text x="59.78" y="194.54" class="green" >T</text></g>
<g><line x1="61.8272" y1="194.233" x2="70.1828" y2="194.233" class="black" /></g>
<g><title>8 (position.label in template: 8.G)</title><text x="59.57" y="186.98" class="black" >G</text></g>
<g><line x1="61.6172" y1="186.673" x2="69.9728" y2="186.673" class="black" /></g>
<g><title>9 (position.label in template: 9.G)</title><text x="53.44" y="182.55" class="black" >G</text></g>
<g><title>10 (position.label in template: 10.A)</title><text x="50.41" y="175.82" class="black" >A</text></g>
<g><text x="43.6926" y="177.437" class="numbering-label sequential" >10</text></g>
<g><line x1="48.6187" y1="176.251" x2="45.5351" y2="176.994" class="numbering-line sequential" /></g>
<g><title>11 (position.label in template: 11.G)</title><text x="50" y="168.26" class="black" >G</text></g>
<g><title>12 (position.label in template: 12.A)</title><text x="53.86" y="161.53" class="black" >A</text></g>
<g><title>13 (position.label in template: 13.G)</title><text x="59.57" y="157.11" class="black" >G</text></g>
<g><line x1="61.6172" y1="156.803" x2="70.1828" y2="156.803" class="black" /></g>
<g><title>14 (position.label in template: 14.A)</title><text x="59.99" y="149.55" class="black" >A</text></g>
<g><line x1="62.0372" y1="149.243" x2="69.7628" y2="149.243" class="black" /></g>
<g><title>15 (position.label in template: 15.G)</title><text x="59.57" y="141.99" class="green" >G</text></g>
<g><line x1="61.6172" y1="141.683" x2="69.9728" y2="141.683" class="black" /></g>
<g><title>16 (position.label in template: 16.C)</title><text x="59.78" y="134.43" class="black" >C</text></g>
<g><line x1="61.8272" y1="134.123" x2="69.7628" y2="134.123" class="black" /></g>
<g><title>17 (position.label in template: 17.A)</title><text x="59.99" y="126.87" class="black" >A</text></g>
<g><line x1="62.0372" y1="126.563" x2="69.9728" y2="126.563" class="black" /></g>
<g><title>18 (position.label in template: 18.G)</title><text x="59.57" y="119.31" class="green" >G</text></g>
<g><line x1="61.6172" y1="119.003" x2="69.9728" y2="119.003" class="black" /></g>
<g><title>19 (position.label in template: 19.A)</title><text x="59.99" y="111.75" class="green" >A</text></g>
<g><line x1="62.0372" y1="111.443" x2="69.9728" y2="111.443" class="black" /></g>
<g><title>20 (position.label in template: 20.G)</title><text x="59.57" y="104.19" class="black" >G</text></g>
<g><line x1="61.6172" y1="103.883" x2="69.9728" y2="103.883" class="black" /></g>
<g><text x="52.6613" y="104.286" class="numbering-label sequential" >20</text></g>
<g><line x1="57.7277" y1="104.216" x2="54.5038" y2="104.26" class="numbering-line sequential" /></g>
<g><title>21 (position.label in template: 21.C)</title><text x="59.78" y="96.63" class="black" >C</text></g>
<g><line x1="61.8272" y1="96.3229" x2="69.7628" y2="96.3229" class="black" /></g>
<g><title>22 (position.label in template: 22.G)</title><text x="59.57" y="89.07" class="black" >G</text></g>
<g><line x1="61.6172" y1="88.7629" x2="69.9728" y2="88.7629" class="black" /></g>
<g><title>23 (position.label in template: 23.C)</title><text x="59.78" y="81.51" class="black" >C</text></g>
<g><line x1="61.8272" y1="81.2029" x2="69.7628" y2="81.2029" class="black" /></g>
<g><title>24 (position.label in template: 24.C)</title><text x="59.78" y="73.95" class="black" >C</text></g>
<g><line x1="61.8272" y1="73.6429" x2="69.7628" y2="73.6429" class="black" /></g>
<g><title>25 (position.label in template: 25.U)</title><text x="54.43" y="68.61" class="green" >T</text></g>
<g><title>26 (position.label in template: 26.G)</title><text x="52.74" y="61.19" class="black" >G</text></g>
<g><title>27 (position.label in template: 27.A)</title><text x="56.04" y="54.21" class="black" >A</text></g>
<g><title>28 (position.label in template: 28.A)</title><text x="62.33" y="50" class="black" >A</text></g>
<g><title>29 (position.label in template: 29.G)</title><text x="69.47" y="50" class="black" >G</text></g>
<g><title>30 (position.label in template: 30.A)</title><text x="76.17" y="54.21" class="black" >A</text></g>
<g><text x="81.4163" y="49.7139" class="numbering-label sequential" >30</text></g>
<g><line x1="77.569" y1="53.011" x2="79.6247" y2="51.2493" class="numbering-line sequential" /></g>
<g><title>31 (position.label in template: 31.A)</title><text x="79.06" y="61.19" class="black" >A</text></g>
<g><title>32 (position.label in template: 32.U)</title><text x="77.37" y="68.61" class="green" >T</text></g>
<g><title>33 (position.label in template: 33.G)</title><text x="71.81" y="73.95" class="black" >G</text></g>
<g><title>34 (position.label in template: 34.G)</title><text x="71.81" y="81.51" class="black" >G</text></g>
<g><title>35 (position.label in template: 35.C)</title><text x="72.02" y="89.07" class="black" >C</text></g>
<g><title>36 (position.label in template: 36.U)</title><text x="78.57" y="92.85" class="green" >T</text></g>
<g><title>37 (position.label in template: 37.G)</title><text x="71.81" y="96.63" class="black" >G</text></g>
<g><title>38 (position.label in template: 38.C)</title><text x="72.02" y="104.19" class="black" >C</text></g>
<g><title>39 (position.label in template: 39.U)</title><text x="72.02" y="111.75" class="green" >T</text></g>
<g><title>40 (position.label in template: 40.U)</title><text x="72.02" y="119.31" class="green" >T</text></g>
<g><title>41 (position.label in template: 41.C)</title><text x="72.02" y="126.87" class="black" >C</text></g>
<g><title>42 (position.label in template: 42.G)</title><text x="71.81" y="134.43" class="black" >G</text></g>
<g><title>43 (position.label in template: 43.U)</title><text x="72.02" y="141.99" class="green" >T</text></g>
<g><title>44 (position.label in template: 44.G)</title><text x="71.81" y="149.55" class="black" >G</text></g>
<g><title>45 (position.label in template: 45.A)</title><text x="72.23" y="157.11" class="black" >A</text></g>
<g><title>46 (position.label in template: 46.U)</title><text x="78.15" y="161.53" class="green" >T</text></g>
<g><title>47 (position.label in template: 47.U)</title><text x="81.59" y="168.26" class="green" >T</text></g>
<g><title>48 (position.label in template: 48.A)</title><text x="81.8" y="175.82" class="black" >A</text></g>
<g><title>49 (position.label in template: 49.A)</title><text x="78.36" y="182.55" class="black" >A</text></g>
<g><title>50 (position.label in template: 50.C)</title><text x="72.02" y="186.98" class="black" >C</text></g>
<g><text x="78.1719" y="190.125" class="numbering-label sequential" >50</text></g>
<g><line x1="73.6605" y1="187.819" x2="76.3294" y2="189.183" class="numbering-line sequential" /></g>
<g><title>51 (position.label in template: 51.A)</title><text x="72.23" y="194.54" class="green" >A</text></g>
<g><title>52 (position.label in template: 52.C)</title><text x="72.02" y="202.1" class="black" >C</text></g>
<g><title>53 (position.label in template: 53.A)</title><text x="72.23" y="209.66" class="green" >A</text></g>
<g><title>54 (position.label in template: 54.U)</title><text x="72.02" y="217.22" class="green" >T</text></g>
<g><title>55 (position.label in template: 55.C)</title><text x="72.02" y="224.78" class="black" >C</text></g>
<g><title>56 (position.label in template: 56.C)</title><text x="72.02" y="232.34" class="black" >C</text></g>
<g><title>57 (position.label in template: 57.A)</title><text x="77.57" y="237.68" class="black" >A</text></g>
<g><title>58 (position.label in template: 58.A)</title><text x="85.13" y="237.68" class="black" >A</text></g>
<g><title>59 (position.label in template: 59.C)</title><text x="92.49" y="237.68" class="black" >C</text></g>
<g><title>60 (position.label in template: 60.A)</title><text x="100.25" y="237.68" class="black" >A</text></g>
<g><title>61 (position.label in template: 61.G)</title><text x="107.4" y="237.68" class="black" >G</text></g>
<g><title>62 (position.label in template: 62.C)</title><text x="115.17" y="237.68" class="black" >C</text></g>
<g><title>63 (position.label in template: 63.A)</title><text x="122.93" y="237.68" class="black" >A</text></g>
<g><title>64 (position.label in template: 64.A)</title><text x="130.49" y="237.68" class="black" >A</text></g>
<g><title>65 (position.label in template: 65.C)</title><text x="137.85" y="237.68" class="black" >C</text></g>
<g><title>66 (position.label in template: 66.U)</title><text x="145.41" y="237.68" class="green" >T</text></g>
<g><title>67 (position.label in template: 67.U)</title><text x="152.97" y="237.68" class="green" >T</text></g>
<g><title>68 (position.label in template: 68.G)</title><text x="160.32" y="237.68" class="black" >G</text></g>
<g><title>69 (position.label in template: 69.G)</title><text x="165.66" y="232.34" class="black" >G</text></g>
<g><line x1="167.707" y1="232.033" x2="176.063" y2="232.033" class="black" /></g>
<g><title>70 (position.label in template: 70.G)</title><text x="165.66" y="224.78" class="black" >G</text></g>
<g><line x1="167.707" y1="224.473" x2="176.063" y2="224.473" class="black" /></g>
<g><title>71 (position.label in template: 71.C)</title><text x="165.87" y="217.22" class="black" >C</text></g>
<g><line x1="167.917" y1="216.913" x2="176.063" y2="216.913" class="black" /></g>
<g><title>72 (position.label in template: 72.U)</title><text x="165.87" y="209.66" class="green" >T</text></g>
<g><line x1="167.917" y1="209.353" x2="175.853" y2="209.353" class="black" /></g>
<g><title>73 (position.label in template: 73.U)</title><text x="161.17" y="203.74" class="green" >T</text></g>
<g><title>74 (position.label in template: 74.A)</title><text x="161.37" y="196.18" class="black" >A</text></g>
<g><title>75 (position.label in template: 75.C)</title><text x="165.87" y="190.26" class="green" >C</text></g>
<g><line x1="167.917" y1="189.953" x2="176.063" y2="189.953" class="black" /></g>
<g><title>76 (position.label in template: 76.U)</title><text x="165.87" y="182.7" class="green" >T</text></g>
<g><line x1="167.917" y1="182.393" x2="176.273" y2="182.393" class="black" /></g>
<g><title>77 (position.label in template: 77.C)</title><text x="165.87" y="175.14" class="black" >C</text></g>
<g><line x1="167.917" y1="174.833" x2="176.063" y2="174.833" class="black" /></g>
<g><title>78 (position.label in template: 78.C)</title><text x="158.98" y="172.03" class="black" >C</text></g>
<g><title>79 (position.label in template: 79.U)</title><text x="158.98" y="164.47" class="green" >T</text></g>
<g><title>80 (position.label in template: 80.C)</title><text x="165.87" y="161.35" class="black" >C</text></g>
<g><line x1="167.917" y1="161.043" x2="175.853" y2="161.043" class="black" /></g>
<g><title>81 (position.label in template: 81.A)</title><text x="166.08" y="153.79" class="green" >A</text></g>
<g><line x1="168.127" y1="153.483" x2="176.063" y2="153.483" class="black" /></g>
<g><title>82 (position.label in template: 82.C)</title><text x="162.77" y="146.9" class="black" >C</text></g>
<g><title>83 (position.label in template: 83.G)</title><text x="165.66" y="140" class="green" >G</text></g>
<g><line x1="167.707" y1="139.693" x2="176.063" y2="139.693" class="black" /></g>
<g><title>84 (position.label in template: 84.G)</title><text x="165.66" y="132.44" class="black" >G</text></g>
<g><line x1="167.707" y1="132.133" x2="176.063" y2="132.133" class="black" /></g>
<g><title>85 (position.label in template: 85.G)</title><text x="165.66" y="124.88" class="black" >G</text></g>
<g><line x1="167.707" y1="124.573" x2="176.063" y2="124.573" class="black" /></g>
<g><title>86 (position.label in template: 86.U)</title><text x="162.77" y="117.99" class="green" >T</text></g>
<g><title>87 (position.label in template: 87.G)</title><text x="165.66" y="111.09" class="black" >G</text></g>
<g><line x1="167.707" y1="110.783" x2="175.853" y2="110.783" class="black" /></g>
<g><title>88 (position.label in template: 88.G)</title><text x="165.66" y="103.53" class="green" >G</text></g>
<g><line x1="167.707" y1="103.223" x2="176.063" y2="103.223" class="black" /></g>
<g><title>89 (position.label in template: 89.C)</title><text x="165.87" y="95.97" class="black" >C</text></g>
<g><line x1="167.917" y1="95.6629" x2="176.063" y2="95.6629" class="black" /></g>
<g><title>90 (position.label in template: 90.A)</title><text x="160.73" y="90.63" class="black" >A</text></g>
<g><title>91 (position.label in template: 91.G)</title><text x="158.83" y="83.22" class="black" >G</text></g>
<g><title>92 (position.label in template: 92.C)</title><text x="161.93" y="76.23" class="black" >C</text></g>
<g><title>93 (position.label in template: 93.A)</title><text x="168.42" y="72.03" class="black" >A</text></g>
<g><title>94 (position.label in template: 94.U)</title><text x="175.77" y="72.03" class="green" >T</text></g>
<g><title>95 (position.label in template: 95.A)</title><text x="182.26" y="76.23" class="black" >A</text></g>
<g><title>96 (position.label in template: 96.C)</title><text x="184.95" y="83.22" class="black" >C</text></g>
<g><title>97 (position.label in template: 97.C)</title><text x="183.46" y="90.63" class="black" >C</text></g>
<g><title>98 (position.label in template: 98.C)</title><text x="178.11" y="95.97" class="black" >C</text></g>
<g><title>99 (position.label in template: 99.U)</title><text x="178.11" y="103.53" class="green" >T</text></g>
<g><title>100 (position.label in template: 100.G)</title><text x="177.9" y="111.09" class="black" >G</text></g>
<g><text x="184.635" y="109.548" class="numbering-label sequential" >100</text></g>
<g><line x1="179.696" y1="110.679" x2="181.871" y2="110.181" class="numbering-line sequential" /></g>
<g><title>101 (position.label in template: 101.A)</title><text x="181.42" y="117.99" class="black" >A</text></g>
<g><title>102 (position.label in template: 102.C)</title><text x="178.11" y="124.88" class="black" >C</text></g>
<g><title>103 (position.label in template: 103.C)</title><text x="178.11" y="132.44" class="black" >C</text></g>
<g><title>104 (position.label in template: 104.U)</title><text x="178.11" y="140" class="green" >T</text></g>
<g><title>105 (position.label in template: 105.U)</title><text x="185.07" y="137.06" class="green" >T</text></g>
<g><title>106 (position.label in template: 106.C)</title><text x="192.07" y="139.92" class="black" >C</text></g>
<g><title>107 (position.label in template: 107.C)</title><text x="194.98" y="146.9" class="black" >C</text></g>
<g><title>108 (position.label in template: 108.U)</title><text x="192.07" y="153.88" class="green" >T</text></g>
<g><title>109 (position.label in template: 109.G)</title><text x="184.86" y="156.74" class="black" >G</text></g>
<g><title>110 (position.label in template: 110.U)</title><text x="178.11" y="153.79" class="green" >T</text></g>
<g><title>111 (position.label in template: 111.G)</title><text x="177.9" y="161.35" class="black" >G</text></g>
<g><title>112 (position.label in template: 112.A)</title><text x="181.42" y="168.25" class="black" >A</text></g>
<g><title>113 (position.label in template: 113.C)</title><text x="178.11" y="175.14" class="black" >C</text></g>
<g><title>114 (position.label in template: 114.A)</title><text x="178.32" y="182.7" class="green" >A</text></g>
<g><title>115 (position.label in template: 115.U)</title><text x="178.11" y="190.26" class="green" >T</text></g>
<g><title>116 (position.label in template: 116.U)</title><text x="185.16" y="193" class="green" >T</text></g>
<g><title>117 (position.label in template: 117.U)</title><text x="188.11" y="199.96" class="green" >T</text></g>
<g><title>118 (position.label in template: 118.C)</title><text x="185.16" y="206.92" class="black" >C</text></g>
<g><title>119 (position.label in template: 119.G)</title><text x="177.9" y="209.66" class="green" >G</text></g>
<g><title>120 (position.label in template: 120.C)</title><text x="178.11" y="217.22" class="black" >C</text></g>
<g><title>121 (position.label in template: 121.C)</title><text x="178.11" y="224.78" class="black" >C</text></g>
<g><title>122 (position.label in template: 122.C)</title><text x="178.11" y="232.34" class="black" >C</text></g>
<g><title>123 (position.label in template: 123.A)</title><text x="183.559" y="237.583" class="black" >A</text></g>
<g><title>124 (position.label in template: 124.A)</title><text x="191.12" y="237.583" class="black" >A</text></g>
<g><title>125 (position.label in template: 125.C)</title><text x="198.681" y="237.583" class="black" >C</text></g>
<g><title>126 (position.label in template: 126.A)</title><text x="206.242" y="237.583" class="black" >A</text></g>
<g><title>127 (position.label in template: 127.A)</title><text x="213.803" y="237.583" class="black" >A</text></g>
<g><title>128 (position.label in template: 128.U)</title><text x="221.365" y="237.583" class="green" >T</text></g>
<g><title>129 (position.label in template: 129.3')</title><text x="228.926" y="237.583" class="green" >3'</text></g>
<g><line x1="50.3244" y1="241.278" x2="52.7758" y2="238.827" class="gray" /></g>
<g><line x1="55.671" y1="235.932" x2="58.1224" y2="233.481" class="gray" /></g>
<g><line x1="59.57" y1="229.986" x2="59.57" y2="226.52" class="gray" /></g>
<g><line x1="59.6836" y1="222.429" x2="59.8764" y2="218.957" class="gray" /></g>
<g><line x1="59.9332" y1="214.867" x2="59.8368" y2="211.399" class="gray" /></g>
<g><line x1="59.7232" y1="207.307" x2="59.6268" y2="203.839" class="gray" /></g>
<g><line x1="59.6268" y1="199.747" x2="59.7232" y2="196.279" class="gray" /></g>
<g><line x1="59.7232" y1="192.187" x2="59.6268" y2="188.719" class="gray" /></g>
<g><line x1="57.9107" y1="185.474" x2="55.0993" y2="183.442" class="gray" /></g>
<g><line x1="52.5996" y1="180.376" x2="51.2504" y2="177.38" class="gray" /></g>
<g><line x1="50.2991" y1="173.469" x2="50.1109" y2="169.997" class="gray" /></g>
<g><line x1="51.0185" y1="166.177" x2="52.8415" y2="162.999" class="gray" /></g>
<g><line x1="55.4789" y1="159.97" x2="57.9511" y2="158.056" class="gray" /></g>
<g><line x1="59.6836" y1="154.759" x2="59.8764" y2="151.287" class="gray" /></g>
<g><line x1="59.8764" y1="147.199" x2="59.6836" y2="143.727" class="gray" /></g>
<g><line x1="59.6268" y1="139.637" x2="59.7232" y2="136.169" class="gray" /></g>
<g><line x1="59.8368" y1="132.077" x2="59.9332" y2="128.609" class="gray" /></g>
<g><line x1="59.8764" y1="124.519" x2="59.6836" y2="121.047" class="gray" /></g>
<g><line x1="59.6836" y1="116.959" x2="59.8764" y2="113.487" class="gray" /></g>
<g><line x1="59.8764" y1="109.399" x2="59.6836" y2="105.927" class="gray" /></g>
<g><line x1="59.6268" y1="101.837" x2="59.7232" y2="98.3693" class="gray" /></g>
<g><line x1="59.7232" y1="94.2765" x2="59.6268" y2="90.8093" class="gray" /></g>
<g><line x1="59.6268" y1="86.7165" x2="59.7232" y2="83.2493" class="gray" /></g>
<g><line x1="59.78" y1="79.1557" x2="59.78" y2="75.6901" class="gray" /></g>
<g><line x1="58.3311" y1="72.1967" x2="55.8789" y2="69.7492" class="gray" /></g>
<g><line x1="53.9754" y1="66.3068" x2="53.1946" y2="62.879" class="gray" /></g>
<g><line x1="53.615" y1="59.0321" x2="55.165" y2="55.7537" class="gray" /></g>
<g><line x1="57.7413" y1="52.7642" x2="60.6287" y2="50.8316" class="gray" /></g>
<g><line x1="64.3772" y1="49.6929" x2="67.4228" y2="49.6929" class="gray" /></g>
<g><line x1="71.2034" y1="50.7821" x2="74.4366" y2="52.8137" class="gray" /></g>
<g><line x1="76.9532" y1="55.7944" x2="78.2768" y2="58.9914" class="gray" /></g>
<g><line x1="78.6054" y1="62.879" x2="77.8246" y2="66.3068" class="gray" /></g>
<g><line x1="75.8935" y1="69.721" x2="73.2865" y2="72.2248" class="gray" /></g>
<g><line x1="71.81" y1="75.6901" x2="71.81" y2="79.1557" class="gray" /></g>
<g><line x1="71.8668" y1="83.2493" x2="71.9632" y2="86.7165" class="gray" /></g>
<g><line x1="73.7931" y1="89.7862" x2="76.7969" y2="91.5197" class="gray" /></g>
<g><line x1="76.7832" y1="93.5421" x2="73.5968" y2="95.3238" class="gray" /></g>
<g><line x1="71.8668" y1="98.3693" x2="71.9632" y2="101.837" class="gray" /></g>
<g><line x1="72.02" y1="105.93" x2="72.02" y2="109.396" class="gray" /></g>
<g><line x1="72.02" y1="113.49" x2="72.02" y2="116.956" class="gray" /></g>
<g><line x1="72.02" y1="121.05" x2="72.02" y2="124.516" class="gray" /></g>
<g><line x1="71.9632" y1="128.609" x2="71.8668" y2="132.077" class="gray" /></g>
<g><line x1="71.8668" y1="136.169" x2="71.9632" y2="139.637" class="gray" /></g>
<g><line x1="71.9632" y1="143.729" x2="71.8668" y2="147.197" class="gray" /></g>
<g><line x1="71.9236" y1="151.287" x2="72.1164" y2="154.759" class="gray" /></g>
<g><line x1="73.8704" y1="158.028" x2="76.5096" y2="159.998" class="gray" /></g>
<g><line x1="79.0818" y1="163.046" x2="80.6582" y2="166.13" class="gray" /></g>
<g><line x1="81.6468" y1="169.999" x2="81.7432" y2="173.467" class="gray" /></g>
<g><line x1="80.8682" y1="177.336" x2="79.2918" y2="180.42" class="gray" /></g>
<g><line x1="76.6819" y1="183.415" x2="73.6981" y2="185.5" class="gray" /></g>
<g><line x1="72.0768" y1="188.719" x2="72.1732" y2="192.187" class="gray" /></g>
<g><line x1="72.1732" y1="196.279" x2="72.0768" y2="199.747" class="gray" /></g>
<g><line x1="72.0768" y1="203.839" x2="72.1732" y2="207.307" class="gray" /></g>
<g><line x1="72.1732" y1="211.399" x2="72.0768" y2="214.867" class="gray" /></g>
<g><line x1="72.02" y1="218.96" x2="72.02" y2="222.426" class="gray" /></g>
<g><line x1="72.02" y1="226.52" x2="72.02" y2="229.986" class="gray" /></g>
<g><line x1="73.4952" y1="233.452" x2="76.0948" y2="235.954" class="gray" /></g>
<g><line x1="79.6172" y1="237.373" x2="83.0828" y2="237.373" class="gray" /></g>
<g><line x1="87.1772" y1="237.373" x2="90.4428" y2="237.373" class="gray" /></g>
<g><line x1="94.5372" y1="237.373" x2="98.2028" y2="237.373" class="gray" /></g>
<g><line x1="102.297" y1="237.373" x2="105.353" y2="237.373" class="gray" /></g>
<g><line x1="109.447" y1="237.373" x2="113.123" y2="237.373" class="gray" /></g>
<g><line x1="117.217" y1="237.373" x2="120.883" y2="237.373" class="gray" /></g>
<g><line x1="124.977" y1="237.373" x2="128.443" y2="237.373" class="gray" /></g>
<g><line x1="132.537" y1="237.373" x2="135.803" y2="237.373" class="gray" /></g>
<g><line x1="139.897" y1="237.373" x2="143.363" y2="237.373" class="gray" /></g>
<g><line x1="147.457" y1="237.373" x2="150.923" y2="237.373" class="gray" /></g>
<g><line x1="155.017" y1="237.373" x2="158.273" y2="237.373" class="gray" /></g>
<g><line x1="161.768" y1="235.925" x2="164.212" y2="233.481" class="gray" /></g>
<g><line x1="165.66" y1="229.986" x2="165.66" y2="226.52" class="gray" /></g>
<g><line x1="165.717" y1="222.427" x2="165.813" y2="218.959" class="gray" /></g>
<g><line x1="165.87" y1="214.866" x2="165.87" y2="211.4" class="gray" /></g>
<g><line x1="164.597" y1="207.75" x2="162.443" y2="205.036" class="gray" /></g>
<g><line x1="161.224" y1="201.386" x2="161.316" y2="197.919" class="gray" /></g>
<g><line x1="162.609" y1="194.243" x2="164.631" y2="191.583" class="gray" /></g>
<g><line x1="165.87" y1="187.906" x2="165.87" y2="184.44" class="gray" /></g>
<g><line x1="165.87" y1="180.346" x2="165.87" y2="176.88" class="gray" /></g>
<g><line x1="164.004" y1="173.991" x2="160.846" y2="172.565" class="gray" /></g>
<g><line x1="158.98" y1="169.676" x2="158.98" y2="166.21" class="gray" /></g>
<g><line x1="160.845" y1="163.318" x2="164.005" y2="161.887" class="gray" /></g>
<g><line x1="165.927" y1="158.997" x2="166.023" y2="155.529" class="gray" /></g>
<g><line x1="165.194" y1="151.638" x2="163.656" y2="148.438" class="gray" /></g>
<g><line x1="163.561" y1="144.705" x2="164.869" y2="141.581" class="gray" /></g>
<g><line x1="165.66" y1="137.646" x2="165.66" y2="134.18" class="gray" /></g>
<g><line x1="165.66" y1="130.086" x2="165.66" y2="126.62" class="gray" /></g>
<g><line x1="164.868" y1="122.685" x2="163.562" y2="119.571" class="gray" /></g>
<g><line x1="163.561" y1="115.795" x2="164.869" y2="112.671" class="gray" /></g>
<g><line x1="165.66" y1="108.736" x2="165.66" y2="105.27" class="gray" /></g>
<g><line x1="165.717" y1="101.177" x2="165.813" y2="97.7093" class="gray" /></g>
<g><line x1="164.45" y1="94.188" x2="162.15" y2="91.7979" class="gray" /></g>
<g><line x1="160.222" y1="88.3399" x2="159.338" y2="84.896" class="gray" /></g>
<g><line x1="159.66" y1="81.0415" x2="161.1" y2="77.7943" class="gray" /></g>
<g><line x1="163.649" y1="74.8107" x2="166.701" y2="72.8352" class="gray" /></g>
<g><line x1="170.467" y1="71.7229" x2="173.723" y2="71.7229" class="gray" /></g>
<g><line x1="177.489" y1="72.8352" x2="180.541" y2="74.8107" class="gray" /></g>
<g><line x1="182.995" y1="77.8335" x2="184.215" y2="81.0023" class="gray" /></g>
<g><line x1="184.546" y1="84.92" x2="183.864" y2="88.3159" class="gray" /></g>
<g><line x1="182.011" y1="91.7692" x2="179.559" y2="94.2167" class="gray" /></g>
<g><line x1="178.11" y1="97.7101" x2="178.11" y2="101.176" class="gray" /></g>
<g><line x1="178.053" y1="105.269" x2="177.957" y2="108.737" class="gray" /></g>
<g><line x1="178.83" y1="112.607" x2="180.49" y2="115.859" class="gray" /></g>
<g><line x1="180.534" y1="119.528" x2="178.996" y2="122.728" class="gray" /></g>
<g><line x1="178.11" y1="126.62" x2="178.11" y2="130.086" class="gray" /></g>
<g><line x1="178.11" y1="134.18" x2="178.11" y2="137.646" class="gray" /></g>
<g><line x1="179.996" y1="138.896" x2="183.184" y2="137.55" class="gray" /></g>
<g><line x1="186.965" y1="137.527" x2="190.175" y2="138.839" class="gray" /></g>
<g><line x1="192.858" y1="141.502" x2="194.192" y2="144.703" class="gray" /></g>
<g><line x1="194.192" y1="148.482" x2="192.858" y2="151.683" class="gray" /></g>
<g><line x1="190.167" y1="154.328" x2="186.763" y2="155.678" class="gray" /></g>
<g><line x1="182.984" y1="155.613" x2="179.986" y2="154.303" class="gray" /></g>
<g><line x1="178.053" y1="155.529" x2="177.957" y2="158.997" class="gray" /></g>
<g><line x1="178.83" y1="162.867" x2="180.49" y2="166.119" class="gray" /></g>
<g><line x1="180.534" y1="169.788" x2="178.996" y2="172.988" class="gray" /></g>
<g><line x1="178.167" y1="176.879" x2="178.263" y2="180.347" class="gray" /></g>
<g><line x1="178.263" y1="184.439" x2="178.167" y2="187.907" class="gray" /></g>
<g><line x1="180.018" y1="190.695" x2="183.252" y2="191.951" class="gray" /></g>
<g><line x1="185.959" y1="194.578" x2="187.311" y2="197.768" class="gray" /></g>
<g><line x1="187.311" y1="201.538" x2="185.959" y2="204.728" class="gray" /></g>
<g><line x1="183.245" y1="207.336" x2="179.815" y2="208.63" class="gray" /></g>
<g><line x1="177.957" y1="211.399" x2="178.053" y2="214.867" class="gray" /></g>
<g><line x1="178.11" y1="218.96" x2="178.11" y2="222.426" class="gray" /></g>
<g><line x1="178.11" y1="226.52" x2="178.11" y2="229.986" class="gray" /></g>
<g><line x1="179.585" y1="233.452" x2="182.083" y2="235.856" class="gray" /></g>
<g><line x1="185.606" y1="237.275" x2="189.073" y2="237.275" class="gray" /></g>
<g><line x1="193.167" y1="237.275" x2="196.634" y2="237.275" class="gray" /></g>
<g><line x1="200.728" y1="237.275" x2="204.195" y2="237.275" class="gray" /></g>
<g><line x1="208.289" y1="237.275" x2="211.756" y2="237.275" class="gray" /></g>
<g><line x1="215.851" y1="237.275" x2="219.317" y2="237.275" class="gray" /></g>
<g><line x1="223.412" y1="237.275" x2="226.879" y2="237.275" class="gray" /></g>
</svg>
