<svg
	xmlns="http://www.w3.org/2000/svg"
	width="259.361"
	height="292.021">
<g><style type="text/css" >
<!-- create color definitions -->
<![CDATA[
circle.red {stroke: rgb(255, 0, 255); fill: none; }
circle.green {stroke: rgb(0, 255, 0); fill: none; }
circle.blue {stroke: rgb(0, 0, 255); fill: none; }
circle.black {stroke: rgb(0, 0, 0); fill: none; }
circle.gray {stroke: rgb(204, 204, 204); fill: none; }
circle.brown {stroke: rgb(211.65, 104.55, 30.6); fill: none; }
line.red {stroke: rgb(255, 0, 255); stroke-width: 0.38123; }
line.green {stroke: rgb(0, 255, 0); stroke-width: 0.38123; }
line.blue {stroke: rgb(0, 0, 255); stroke-width: 0.38123; }
line.black {stroke: rgb(0, 0, 0); stroke-width: 0.38123; }
line.gray {stroke: rgb(204, 204, 204); stroke-width: 0.38123; }
line.brown {stroke: rgb(211.65, 104.55, 30.6); stroke-width: 0.38123; }
line {stroke: rgb(0, 0, 0); }
text.red {fill: rgb(255, 0, 255); font-size: 3.049839px; font-weight: bold; font-family: Helvetica; }
text.green {fill: rgb(0, 255, 0); font-size: 3.049839px; font-weight: bold; font-family: Helvetica; }
text.blue {fill: rgb(0, 0, 255); font-size: 3.049839px; font-weight: bold; font-family: Helvetica; }
text.black {fill: rgb(0, 0, 0); font-size: 3.049839px; font-weight: bold; font-family: Helvetica; }
text.gray {fill: rgb(204, 204, 204); font-size: 3.049839px; font-weight: bold; font-family: Helvetica; }
text.brown {fill: rgb(211.65, 104.55, 30.6); font-size: 3.049839px; font-weight: bold; font-family: Helvetica; }
text {fill: rgb(0, 0, 0); font-size: 3.049839px; font-weight: bold; font-family: Helvetica; text-anchor: middle; alignment-baseline: middle; }

.pseudoknot_connection{stroke-linecap: round; stroke-opacity: 0.2; stroke-width: 1.5; }
.pseudoknot_segment1{stroke-linecap: round; stroke-opacity: 0.4; stroke-width: 3.04984; }
.pseudoknot_segment2{stroke-linecap: round; stroke-opacity: 0.4; stroke-width: 3.04984; }
line.numbering-line{stroke: rgb(204, 204, 204); stroke-width: 0.190615; }
line.predicted{stroke: rgb(0, 0, 0); stroke-dasharray: 2; }
polyline{fill: none; stroke-linejoin: round; }
template{visibility: hidden; }
text.numbering-label{fill: rgb(204, 204, 204); }
]]>
</style></g>
<g><title>0 (position.label in template: 0.5')</title><text x="42.4381" y="241.918" class="green" >5'</text></g>
<g><title>1 (position.label in template: 1.U)</title><text x="50" y="241.918" class="green" >T</text></g>
<g><title>2 (position.label in template: 2.U)</title><text x="57.5619" y="241.918" class="green" >T</text></g>
<g><title>3 (position.label in template: 3.G)</title><text x="62.7956" y="236.46" class="black" >G</text></g>
<g><line x1="64.8288" y1="236.155" x2="73.2123" y2="236.155" class="black" /></g>
<g><title>4 (position.label in template: 4.C)</title><text x="63.0056" y="228.9" class="black" >C</text></g>
<g><line x1="65.0388" y1="228.595" x2="73.0023" y2="228.595" class="black" /></g>
<g><title>5 (position.label in template: 5.A)</title><text x="63.2156" y="221.34" class="green" >A</text></g>
<g><line x1="65.2488" y1="221.035" x2="73.2123" y2="221.035" class="black" /></g>
<g><title>6 (position.label in template: 6.C)</title><text x="63.0056" y="213.78" class="black" >C</text></g>
<g><line x1="65.0388" y1="213.475" x2="73.0023" y2="213.475" class="black" /></g>
<g><title>7 (position.label in template: 7.U)</title><text x="63.0056" y="206.22" class="green" >T</text></g>
<g><line x1="65.0388" y1="205.915" x2="73.4223" y2="205.915" class="black" /></g>
<g><title>8 (position.label in template: 8.G)</title><text x="62.7956" y="198.66" class="black" >G</text></g>
<g><line x1="64.8288" y1="198.355" x2="73.2123" y2="198.355" class="black" /></g>
<g><title>9 (position.label in template: 9.U)</title><text x="57.4156" y="193.58" class="green" >T</text></g>
<g><title>10 (position.label in template: 10.U)</title><text x="55.3356" y="186.31" class="green" >T</text></g>
<g><text x="48.4734" y="186.31" class="numbering-label sequential" >10</text></g>
<g><line x1="53.5057" y1="186.31" x2="50.3033" y2="186.31" class="numbering-line sequential" /></g>
<g><title>11 (position.label in template: 11.C)</title><text x="57.4156" y="179.04" class="black" >C</text></g>
<g><title>12 (position.label in template: 12.G)</title><text x="62.7956" y="173.96" class="black" >G</text></g>
<g><line x1="64.8288" y1="173.655" x2="73.2123" y2="173.655" class="black" /></g>
<g><title>13 (position.label in template: 13.U)</title><text x="59.9056" y="167.06" class="green" >T</text></g>
<g><title>14 (position.label in template: 14.A)</title><text x="63.2156" y="160.16" class="green" >A</text></g>
<g><line x1="65.2488" y1="159.855" x2="73.2123" y2="159.855" class="black" /></g>
<g><title>15 (position.label in template: 15.A)</title><text x="63.2156" y="152.6" class="green" >A</text></g>
<g><line x1="65.2488" y1="152.295" x2="73.2123" y2="152.295" class="black" /></g>
<g><title>16 (position.label in template: 16.C)</title><text x="63.0056" y="145.04" class="black" >C</text></g>
<g><line x1="65.0388" y1="144.735" x2="73.0023" y2="144.735" class="black" /></g>
<g><title>17 (position.label in template: 17.C)</title><text x="63.0056" y="137.48" class="black" >C</text></g>
<g><line x1="65.0388" y1="137.175" x2="73.0023" y2="137.175" class="black" /></g>
<g><title>18 (position.label in template: 18.U)</title><text x="63.0056" y="129.92" class="green" >T</text></g>
<g><line x1="65.0388" y1="129.615" x2="73.4223" y2="129.615" class="black" /></g>
<g><title>19 (position.label in template: 19.C)</title><text x="63.0056" y="122.36" class="green" >C</text></g>
<g><line x1="65.0388" y1="122.055" x2="73.2123" y2="122.055" class="black" /></g>
<g><title>20 (position.label in template: 20.U)</title><text x="63.0056" y="114.8" class="green" >T</text></g>
<g><line x1="65.0388" y1="114.495" x2="73.4223" y2="114.495" class="black" /></g>
<g><text x="56.1434" y="114.8" class="numbering-label sequential" >20</text></g>
<g><line x1="61.1757" y1="114.8" x2="57.9733" y2="114.8" class="numbering-line sequential" /></g>
<g><title>21 (position.label in template: 21.U)</title><text x="63.0056" y="107.24" class="green" >T</text></g>
<g><line x1="65.0388" y1="106.935" x2="73.4223" y2="106.935" class="black" /></g>
<g><title>22 (position.label in template: 22.G)</title><text x="62.7956" y="99.68" class="black" >G</text></g>
<g><line x1="64.8288" y1="99.375" x2="73.0023" y2="99.375" class="black" /></g>
<g><title>23 (position.label in template: 23.A)</title><text x="63.2156" y="92.12" class="green" >A</text></g>
<g><line x1="65.2488" y1="91.815" x2="73.2123" y2="91.815" class="black" /></g>
<g><title>24 (position.label in template: 24.C)</title><text x="63.0056" y="84.56" class="black" >C</text></g>
<g><line x1="65.0388" y1="84.255" x2="73.0023" y2="84.255" class="black" /></g>
<g><title>25 (position.label in template: 25.A)</title><text x="63.2156" y="77" class="green" >A</text></g>
<g><line x1="65.2488" y1="76.695" x2="73.2123" y2="76.695" class="black" /></g>
<g><title>26 (position.label in template: 26.G)</title><text x="57.0856" y="72.05" class="black" >G</text></g>
<g><title>27 (position.label in template: 27.C)</title><text x="54.9456" y="64.86" class="black" >C</text></g>
<g><title>28 (position.label in template: 28.A)</title><text x="56.8256" y="57.49" class="black" >A</text></g>
<g><title>29 (position.label in template: 29.U)</title><text x="61.8356" y="52.02" class="green" >T</text></g>
<g><title>30 (position.label in template: 30.A)</title><text x="69.3356" y="50" class="black" >A</text></g>
<g><text x="69.3356" y="43.1379" class="numbering-label sequential" >30</text></g>
<g><line x1="69.3356" y1="48.1701" x2="69.3356" y2="44.6628" class="numbering-line sequential" /></g>
<g><title>31 (position.label in template: 31.U)</title><text x="76.4156" y="52.02" class="green" >T</text></g>
<g><title>32 (position.label in template: 32.U)</title><text x="81.6356" y="57.49" class="green" >T</text></g>
<g><title>33 (position.label in template: 33.U)</title><text x="83.3056" y="64.86" class="green" >T</text></g>
<g><title>34 (position.label in template: 34.C)</title><text x="80.9556" y="72.05" class="black" >C</text></g>
<g><title>35 (position.label in template: 35.U)</title><text x="75.2456" y="77" class="green" >T</text></g>
<g><title>36 (position.label in template: 36.G)</title><text x="75.0356" y="84.56" class="black" >G</text></g>
<g><title>37 (position.label in template: 37.U)</title><text x="75.2456" y="92.12" class="green" >T</text></g>
<g><title>38 (position.label in template: 38.G)</title><text x="75.0356" y="99.68" class="black" >G</text></g>
<g><title>39 (position.label in template: 39.A)</title><text x="75.4556" y="107.24" class="green" >A</text></g>
<g><title>40 (position.label in template: 40.A)</title><text x="75.4556" y="114.8" class="green" >A</text></g>
<g><title>41 (position.label in template: 41.U)</title><text x="75.2456" y="122.36" class="green" >T</text></g>
<g><title>42 (position.label in template: 42.A)</title><text x="75.4556" y="129.92" class="green" >A</text></g>
<g><title>43 (position.label in template: 43.G)</title><text x="75.0356" y="137.48" class="black" >G</text></g>
<g><title>44 (position.label in template: 44.G)</title><text x="75.0356" y="145.04" class="black" >G</text></g>
<g><title>45 (position.label in template: 45.U)</title><text x="75.2456" y="152.6" class="green" >T</text></g>
<g><title>46 (position.label in template: 46.U)</title><text x="75.2456" y="160.16" class="green" >T</text></g>
<g><title>47 (position.label in template: 47.C)</title><text x="78.3456" y="167.06" class="black" >C</text></g>
<g><title>48 (position.label in template: 48.C)</title><text x="75.2456" y="173.96" class="black" >C</text></g>
<g><title>49 (position.label in template: 49.A)</title><text x="82.6156" y="176.39" class="black" >A</text></g>
<g><title>50 (position.label in template: 50.U)</title><text x="86.8056" y="182.53" class="green" >T</text></g>
<g><text x="93.3677" y="180.523" class="numbering-label sequential" >50</text></g>
<g><line x1="88.5555" y1="181.995" x2="91.5378" y2="181.083" class="numbering-line sequential" /></g>
<g><title>51 (position.label in template: 51.U)</title><text x="86.8056" y="190.09" class="green" >T</text></g>
<g><title>52 (position.label in template: 52.C)</title><text x="82.4056" y="196.24" class="black" >C</text></g>
<g><title>53 (position.label in template: 53.C)</title><text x="75.2456" y="198.66" class="black" >C</text></g>
<g><title>54 (position.label in template: 54.A)</title><text x="75.4556" y="206.22" class="green" >A</text></g>
<g><title>55 (position.label in template: 55.G)</title><text x="75.0356" y="213.78" class="black" >G</text></g>
<g><title>56 (position.label in template: 56.U)</title><text x="75.2456" y="221.34" class="green" >T</text></g>
<g><title>57 (position.label in template: 57.G)</title><text x="75.0356" y="228.9" class="black" >G</text></g>
<g><title>58 (position.label in template: 58.C)</title><text x="75.2456" y="236.46" class="black" >C</text></g>
<g><title>59 (position.label in template: 59.U)</title><text x="80.5956" y="241.81" class="green" >T</text></g>
<g><title>60 (position.label in template: 60.A)</title><text x="88.3556" y="241.81" class="black" >A</text></g>
<g><title>61 (position.label in template: 61.C)</title><text x="95.7156" y="241.81" class="black" >C</text></g>
<g><title>62 (position.label in template: 62.A)</title><text x="103.476" y="241.81" class="black" >A</text></g>
<g><title>63 (position.label in template: 63.U)</title><text x="110.836" y="241.81" class="green" >T</text></g>
<g><title>64 (position.label in template: 64.G)</title><text x="118.186" y="241.81" class="black" >G</text></g>
<g><title>65 (position.label in template: 65.A)</title><text x="126.156" y="241.81" class="black" >A</text></g>
<g><title>66 (position.label in template: 66.A)</title><text x="133.716" y="241.81" class="black" >A</text></g>
<g><title>67 (position.label in template: 67.A)</title><text x="141.276" y="241.81" class="black" >A</text></g>
<g><title>68 (position.label in template: 68.U)</title><text x="146.416" y="236.46" class="green" >T</text></g>
<g><line x1="148.449" y1="236.155" x2="156.832" y2="236.155" class="black" /></g>
<g><title>69 (position.label in template: 69.C)</title><text x="146.416" y="228.9" class="black" >C</text></g>
<g><line x1="148.449" y1="228.595" x2="156.412" y2="228.595" class="black" /></g>
<g><title>70 (position.label in template: 70.C)</title><text x="146.416" y="221.34" class="black" >C</text></g>
<g><line x1="148.449" y1="221.035" x2="156.412" y2="221.035" class="black" /></g>
<g><title>71 (position.label in template: 71.A)</title><text x="146.626" y="213.78" class="green" >A</text></g>
<g><line x1="148.659" y1="213.475" x2="156.622" y2="213.475" class="black" /></g>
<g><title>72 (position.label in template: 72.A)</title><text x="139.066" y="213.78" class="black" >A</text></g>
<g><title>73 (position.label in template: 73.U)</title><text x="138.856" y="206.22" class="green" >T</text></g>
<g><title>74 (position.label in template: 74.A)</title><text x="146.626" y="206.22" class="green" >A</text></g>
<g><line x1="148.659" y1="205.915" x2="156.622" y2="205.915" class="black" /></g>
<g><title>75 (position.label in template: 75.A)</title><text x="146.626" y="198.66" class="green" >A</text></g>
<g><line x1="148.659" y1="198.355" x2="156.622" y2="198.355" class="black" /></g>
<g><title>76 (position.label in template: 76.U)</title><text x="146.416" y="191.1" class="green" >T</text></g>
<g><line x1="148.449" y1="190.795" x2="156.832" y2="190.795" class="black" /></g>
<g><title>77 (position.label in template: 77.G)</title><text x="141.506" y="185.19" class="black" >G</text></g>
<g><title>78 (position.label in template: 78.G)</title><text x="141.506" y="177.63" class="black" >G</text></g>
<g><title>79 (position.label in template: 79.A)</title><text x="146.626" y="171.71" class="green" >A</text></g>
<g><line x1="148.659" y1="171.405" x2="156.622" y2="171.405" class="black" /></g>
<g><title>80 (position.label in template: 80.A)</title><text x="146.626" y="164.15" class="green" >A</text></g>
<g><line x1="148.659" y1="163.845" x2="156.622" y2="163.845" class="black" /></g>
<g><title>81 (position.label in template: 81.G)</title><text x="146.206" y="156.59" class="black" >G</text></g>
<g><line x1="148.239" y1="156.285" x2="156.622" y2="156.285" class="black" /></g>
<g><title>82 (position.label in template: 82.G)</title><text x="146.206" y="149.03" class="black" >G</text></g>
<g><line x1="148.239" y1="148.725" x2="156.622" y2="148.725" class="black" /></g>
<g><title>83 (position.label in template: 83.C)</title><text x="146.416" y="141.47" class="black" >C</text></g>
<g><line x1="148.449" y1="141.165" x2="156.622" y2="141.165" class="black" /></g>
<g><title>84 (position.label in template: 84.U)</title><text x="139.676" y="138.05" class="green" >T</text></g>
<g><title>85 (position.label in template: 85.G)</title><text x="134.336" y="132.5" class="black" >G</text></g>
<g><title>86 (position.label in template: 86.A)</title><text x="131.886" y="125.5" class="black" >A</text></g>
<g><title>87 (position.label in template: 87.C)</title><text x="131.436" y="117.95" class="black" >C</text></g>
<g><title>88 (position.label in template: 88.A)</title><text x="134.046" y="110.78" class="black" >A</text></g>
<g><title>89 (position.label in template: 89.A)</title><text x="138.796" y="104.9" class="black" >A</text></g>
<g><title>90 (position.label in template: 90.U)</title><text x="145.096" y="101.05" class="green" >T</text></g>
<g><title>91 (position.label in template: 91.U)</title><text x="152.536" y="99.71" class="green" >T</text></g>
<g><title>92 (position.label in template: 92.U)</title><text x="159.976" y="101.05" class="green" >T</text></g>
<g><title>93 (position.label in template: 93.C)</title><text x="166.486" y="104.9" class="black" >C</text></g>
<g><title>94 (position.label in template: 94.C)</title><text x="171.236" y="110.78" class="black" >C</text></g>
<g><title>95 (position.label in template: 95.A)</title><text x="173.846" y="117.95" class="black" >A</text></g>
<g><title>96 (position.label in template: 96.U)</title><text x="173.396" y="125.5" class="green" >T</text></g>
<g><title>97 (position.label in template: 97.G)</title><text x="170.316" y="132.5" class="black" >G</text></g>
<g><title>98 (position.label in template: 98.U)</title><text x="165.396" y="138.05" class="green" >T</text></g>
<g><title>99 (position.label in template: 99.C)</title><text x="158.656" y="141.47" class="black" >C</text></g>
<g><title>100 (position.label in template: 100.C)</title><text x="158.656" y="149.03" class="black" >C</text></g>
<g><text x="165.518" y="149.03" class="numbering-label sequential" >100</text></g>
<g><line x1="160.485" y1="149.03" x2="162.773" y2="149.03" class="numbering-line sequential" /></g>
<g><title>101 (position.label in template: 101.C)</title><text x="158.656" y="156.59" class="black" >C</text></g>
<g><title>102 (position.label in template: 102.U)</title><text x="158.656" y="164.15" class="green" >T</text></g>
<g><title>103 (position.label in template: 103.U)</title><text x="158.656" y="171.71" class="green" >T</text></g>
<g><title>104 (position.label in template: 104.C)</title><text x="166.206" y="172.13" class="black" >C</text></g>
<g><title>105 (position.label in template: 105.U)</title><text x="171.396" y="177.63" class="green" >T</text></g>
<g><title>106 (position.label in template: 106.G)</title><text x="171.186" y="185.19" class="black" >G</text></g>
<g><title>107 (position.label in template: 107.A)</title><text x="166.416" y="190.68" class="black" >A</text></g>
<g><title>108 (position.label in template: 108.A)</title><text x="158.866" y="191.1" class="green" >A</text></g>
<g><title>109 (position.label in template: 109.U)</title><text x="158.656" y="198.66" class="green" >T</text></g>
<g><title>110 (position.label in template: 110.U)</title><text x="158.656" y="206.22" class="green" >T</text></g>
<g><title>111 (position.label in template: 111.U)</title><text x="158.656" y="213.78" class="green" >T</text></g>
<g><title>112 (position.label in template: 112.G)</title><text x="158.446" y="221.34" class="black" >G</text></g>
<g><title>113 (position.label in template: 113.G)</title><text x="158.446" y="228.9" class="black" >G</text></g>
<g><title>114 (position.label in template: 114.A)</title><text x="158.866" y="236.46" class="green" >A</text></g>
<g><title>115 (position.label in template: 115.G)</title><text x="163.99" y="242.021" class="black" >G</text></g>
<g><title>116 (position.label in template: 116.A)</title><text x="171.552" y="242.021" class="black" >A</text></g>
<g><title>117 (position.label in template: 117.C)</title><text x="179.114" y="242.021" class="black" >C</text></g>
<g><title>118 (position.label in template: 118.A)</title><text x="186.676" y="242.021" class="black" >A</text></g>
<g><title>119 (position.label in template: 119.A)</title><text x="194.237" y="242.021" class="black" >A</text></g>
<g><title>120 (position.label in template: 120.A)</title><text x="201.799" y="242.021" class="black" >A</text></g>
<g><title>121 (position.label in template: 121.A)</title><text x="209.361" y="242.021" class="black" >A</text></g>
<g><title>122 (position.label in template: 122.3')</title><text x="216.923" y="242.021" class="green" >3'</text></g>
<g><line x1="44.4713" y1="241.613" x2="47.9668" y2="241.613" class="gray" /></g>
<g><line x1="52.0332" y1="241.613" x2="55.5287" y2="241.613" class="gray" /></g>
<g><line x1="58.9691" y1="240.146" x2="61.3883" y2="237.623" class="gray" /></g>
<g><line x1="62.852" y1="234.123" x2="62.9491" y2="230.627" class="gray" /></g>
<g><line x1="63.062" y1="226.563" x2="63.1591" y2="223.067" class="gray" /></g>
<g><line x1="63.1591" y1="219.003" x2="63.062" y2="215.507" class="gray" /></g>
<g><line x1="63.0056" y1="211.442" x2="63.0056" y2="207.948" class="gray" /></g>
<g><line x1="62.9491" y1="203.883" x2="62.852" y2="200.387" class="gray" /></g>
<g><line x1="61.3172" y1="196.959" x2="58.8939" y2="194.671" class="gray" /></g>
<g><line x1="56.8563" y1="191.32" x2="55.8948" y2="187.96" class="gray" /></g>
<g><line x1="55.8948" y1="184.05" x2="56.8563" y2="180.69" class="gray" /></g>
<g><line x1="58.8939" y1="177.339" x2="61.3172" y2="175.051" class="gray" /></g>
<g><line x1="62.0101" y1="171.78" x2="60.691" y2="168.63" class="gray" /></g>
<g><line x1="60.785" y1="164.922" x2="62.3362" y2="161.688" class="gray" /></g>
<g><line x1="63.2156" y1="157.822" x2="63.2156" y2="154.328" class="gray" /></g>
<g><line x1="63.1591" y1="150.263" x2="63.062" y2="146.767" class="gray" /></g>
<g><line x1="63.0056" y1="142.702" x2="63.0056" y2="139.208" class="gray" /></g>
<g><line x1="63.0056" y1="135.142" x2="63.0056" y2="131.648" class="gray" /></g>
<g><line x1="63.0056" y1="127.582" x2="63.0056" y2="124.088" class="gray" /></g>
<g><line x1="63.0056" y1="120.022" x2="63.0056" y2="116.528" class="gray" /></g>
<g><line x1="63.0056" y1="112.462" x2="63.0056" y2="108.968" class="gray" /></g>
<g><line x1="62.9491" y1="104.903" x2="62.852" y2="101.407" class="gray" /></g>
<g><line x1="62.9083" y1="97.3449" x2="63.1028" y2="93.8451" class="gray" /></g>
<g><line x1="63.1591" y1="89.7826" x2="63.062" y2="86.2875" class="gray" /></g>
<g><line x1="63.062" y1="82.2226" x2="63.1591" y2="78.7275" class="gray" /></g>
<g><line x1="61.6337" y1="75.4176" x2="58.6674" y2="73.0224" class="gray" /></g>
<g><line x1="56.5055" y1="69.7963" x2="55.5256" y2="66.5038" class="gray" /></g>
<g><line x1="55.4481" y1="62.5849" x2="56.323" y2="59.1552" class="gray" /></g>
<g><line x1="58.1988" y1="55.6856" x2="60.4623" y2="53.2144" class="gray" /></g>
<g><line x1="63.7988" y1="51.1862" x2="67.3723" y2="50.2238" class="gray" /></g>
<g><line x1="71.2908" y1="50.2529" x2="74.4604" y2="51.1572" class="gray" /></g>
<g><line x1="77.8193" y1="53.1859" x2="80.2319" y2="55.7141" class="gray" /></g>
<g><line x1="82.0849" y1="59.168" x2="82.8562" y2="62.5721" class="gray" /></g>
<g><line x1="82.6739" y1="66.4876" x2="81.5872" y2="69.8124" class="gray" /></g>
<g><line x1="79.4193" y1="73.0768" x2="76.7819" y2="75.3632" class="gray" /></g>
<g><line x1="75.1891" y1="78.7275" x2="75.092" y2="82.2226" class="gray" /></g>
<g><line x1="75.092" y1="86.2875" x2="75.1891" y2="89.7826" class="gray" /></g>
<g><line x1="75.1891" y1="93.8475" x2="75.092" y2="97.3426" class="gray" /></g>
<g><line x1="75.1483" y1="101.405" x2="75.3428" y2="104.905" class="gray" /></g>
<g><line x1="75.4556" y1="108.968" x2="75.4556" y2="112.462" class="gray" /></g>
<g><line x1="75.3991" y1="116.527" x2="75.302" y2="120.023" class="gray" /></g>
<g><line x1="75.302" y1="124.087" x2="75.3991" y2="127.583" class="gray" /></g>
<g><line x1="75.3428" y1="131.645" x2="75.1483" y2="135.145" class="gray" /></g>
<g><line x1="75.0356" y1="139.208" x2="75.0356" y2="142.702" class="gray" /></g>
<g><line x1="75.092" y1="146.767" x2="75.1891" y2="150.263" class="gray" /></g>
<g><line x1="75.2456" y1="154.328" x2="75.2456" y2="157.822" class="gray" /></g>
<g><line x1="76.0788" y1="161.71" x2="77.5123" y2="164.9" class="gray" /></g>
<g><line x1="77.5123" y1="168.61" x2="76.0788" y2="171.8" class="gray" /></g>
<g><line x1="77.1765" y1="174.292" x2="80.6846" y2="175.448" class="gray" /></g>
<g><line x1="83.7616" y1="177.764" x2="85.6595" y2="180.546" class="gray" /></g>
<g><line x1="86.8056" y1="184.258" x2="86.8056" y2="187.752" class="gray" /></g>
<g><line x1="85.6225" y1="191.439" x2="83.5886" y2="194.281" class="gray" /></g>
<g><line x1="80.4794" y1="196.586" x2="77.1717" y2="197.704" class="gray" /></g>
<g><line x1="75.302" y1="200.387" x2="75.3991" y2="203.883" class="gray" /></g>
<g><line x1="75.3428" y1="207.945" x2="75.1483" y2="211.445" class="gray" /></g>
<g><line x1="75.092" y1="215.507" x2="75.1891" y2="219.003" class="gray" /></g>
<g><line x1="75.1891" y1="223.067" x2="75.092" y2="226.563" class="gray" /></g>
<g><line x1="75.092" y1="230.627" x2="75.1891" y2="234.123" class="gray" /></g>
<g><line x1="76.6833" y1="237.593" x2="79.1579" y2="240.067" class="gray" /></g>
<g><line x1="82.6288" y1="241.505" x2="86.3223" y2="241.505" class="gray" /></g>
<g><line x1="90.3888" y1="241.505" x2="93.6823" y2="241.505" class="gray" /></g>
<g><line x1="97.7488" y1="241.505" x2="101.442" y2="241.505" class="gray" /></g>
<g><line x1="105.509" y1="241.505" x2="108.802" y2="241.505" class="gray" /></g>
<g><line x1="112.869" y1="241.505" x2="116.152" y2="241.505" class="gray" /></g>
<g><line x1="120.219" y1="241.505" x2="124.122" y2="241.505" class="gray" /></g>
<g><line x1="128.189" y1="241.505" x2="131.682" y2="241.505" class="gray" /></g>
<g><line x1="135.749" y1="241.505" x2="139.242" y2="241.505" class="gray" /></g>
<g><line x1="142.684" y1="240.039" x2="145.007" y2="237.621" class="gray" /></g>
<g><line x1="146.416" y1="234.122" x2="146.416" y2="230.628" class="gray" /></g>
<g><line x1="146.416" y1="226.562" x2="146.416" y2="223.068" class="gray" /></g>
<g><line x1="146.472" y1="219.003" x2="146.569" y2="215.507" class="gray" /></g>
<g><line x1="144.592" y1="213.475" x2="141.099" y2="213.475" class="gray" /></g>
<g><line x1="139.009" y1="211.443" x2="138.912" y2="207.947" class="gray" /></g>
<g><line x1="140.889" y1="205.915" x2="144.592" y2="205.915" class="gray" /></g>
<g><line x1="146.626" y1="203.882" x2="146.626" y2="200.388" class="gray" /></g>
<g><line x1="146.569" y1="196.323" x2="146.472" y2="192.827" class="gray" /></g>
<g><line x1="145.116" y1="189.231" x2="142.805" y2="186.449" class="gray" /></g>
<g><line x1="141.506" y1="182.852" x2="141.506" y2="179.358" class="gray" /></g>
<g><line x1="142.836" y1="175.787" x2="145.296" y2="172.943" class="gray" /></g>
<g><line x1="146.626" y1="169.372" x2="146.626" y2="165.878" class="gray" /></g>
<g><line x1="146.513" y1="161.815" x2="146.318" y2="158.315" class="gray" /></g>
<g><line x1="146.206" y1="154.252" x2="146.206" y2="150.758" class="gray" /></g>
<g><line x1="146.262" y1="146.693" x2="146.359" y2="143.197" class="gray" /></g>
<g><line x1="144.602" y1="140.245" x2="141.489" y2="138.665" class="gray" /></g>
<g><line x1="138.266" y1="136.28" x2="135.745" y2="133.66" class="gray" /></g>
<g><line x1="133.664" y1="130.276" x2="132.557" y2="127.114" class="gray" /></g>
<g><line x1="131.765" y1="123.165" x2="131.557" y2="119.675" class="gray" /></g>
<g><line x1="132.131" y1="115.734" x2="133.35" y2="112.386" class="gray" /></g>
<g><line x1="135.323" y1="108.893" x2="137.518" y2="106.177" class="gray" /></g>
<g><line x1="140.53" y1="103.535" x2="143.361" y2="101.805" class="gray" /></g>
<g><line x1="147.097" y1="100.385" x2="150.535" y2="99.7654" class="gray" /></g>
<g><line x1="154.537" y1="99.7654" x2="157.975" y2="100.385" class="gray" /></g>
<g><line x1="161.726" y1="101.78" x2="164.735" y2="103.56" class="gray" /></g>
<g><line x1="167.763" y1="106.177" x2="169.958" y2="108.893" class="gray" /></g>
<g><line x1="171.931" y1="112.386" x2="173.15" y2="115.734" class="gray" /></g>
<g><line x1="173.725" y1="119.675" x2="173.517" y2="123.165" class="gray" /></g>
<g><line x1="172.577" y1="127.056" x2="171.134" y2="130.334" class="gray" /></g>
<g><line x1="168.967" y1="133.716" x2="166.744" y2="136.224" class="gray" /></g>
<g><line x1="163.582" y1="138.665" x2="160.469" y2="140.245" class="gray" /></g>
<g><line x1="158.656" y1="143.198" x2="158.656" y2="146.692" class="gray" /></g>
<g><line x1="158.656" y1="150.758" x2="158.656" y2="154.252" class="gray" /></g>
<g><line x1="158.656" y1="158.318" x2="158.656" y2="161.812" class="gray" /></g>
<g><line x1="158.656" y1="165.878" x2="158.656" y2="169.372" class="gray" /></g>
<g><line x1="160.686" y1="171.518" x2="164.175" y2="171.712" class="gray" /></g>
<g><line x1="167.601" y1="173.304" x2="170" y2="175.846" class="gray" /></g>
<g><line x1="171.339" y1="179.357" x2="171.242" y2="182.853" class="gray" /></g>
<g><line x1="169.852" y1="186.42" x2="167.749" y2="188.84" class="gray" /></g>
<g><line x1="164.385" y1="190.488" x2="160.896" y2="190.682" class="gray" /></g>
<g><line x1="158.809" y1="192.827" x2="158.712" y2="196.323" class="gray" /></g>
<g><line x1="158.656" y1="200.388" x2="158.656" y2="203.882" class="gray" /></g>
<g><line x1="158.656" y1="207.948" x2="158.656" y2="211.442" class="gray" /></g>
<g><line x1="158.599" y1="215.507" x2="158.502" y2="219.003" class="gray" /></g>
<g><line x1="158.446" y1="223.068" x2="158.446" y2="226.562" class="gray" /></g>
<g><line x1="158.558" y1="230.625" x2="158.753" y2="234.125" class="gray" /></g>
<g><line x1="160.243" y1="237.65" x2="162.612" y2="240.221" class="gray" /></g>
<g><line x1="166.023" y1="241.716" x2="169.519" y2="241.716" class="gray" /></g>
<g><line x1="173.585" y1="241.716" x2="177.08" y2="241.716" class="gray" /></g>
<g><line x1="181.147" y1="241.716" x2="184.642" y2="241.716" class="gray" /></g>
<g><line x1="188.709" y1="241.716" x2="192.204" y2="241.716" class="gray" /></g>
<g><line x1="196.271" y1="241.716" x2="199.766" y2="241.716" class="gray" /></g>
<g><line x1="203.833" y1="241.716" x2="207.328" y2="241.716" class="gray" /></g>
<g><line x1="211.394" y1="241.716" x2="214.89" y2="241.716" class="gray" /></g>
</svg>
