<svg
	xmlns="http://www.w3.org/2000/svg"
	width="201.94"
	height="251.302">
<g><style type="text/css" >
<!-- create color definitions -->
<![CDATA[
circle.red {stroke: rgb(255, 0, 255); fill: none; }
circle.green {stroke: rgb(0, 255, 0); fill: none; }
circle.blue {stroke: rgb(0, 0, 255); fill: none; }
circle.black {stroke: rgb(0, 0, 0); fill: none; }
circle.gray {stroke: rgb(204, 204, 204); fill: none; }
circle.brown {stroke: rgb(211.65, 104.55, 30.6); fill: none; }
line.red {stroke: rgb(255, 0, 255); stroke-width: 0.380238; }
line.green {stroke: rgb(0, 255, 0); stroke-width: 0.380238; }
line.blue {stroke: rgb(0, 0, 255); stroke-width: 0.380238; }
line.black {stroke: rgb(0, 0, 0); stroke-width: 0.380238; }
line.gray {stroke: rgb(204, 204, 204); stroke-width: 0.380238; }
line.brown {stroke: rgb(211.65, 104.55, 30.6); stroke-width: 0.380238; }
line {stroke: rgb(0, 0, 0); }
text.red {fill: rgb(255, 0, 255); font-size: 3.041906px; font-weight: bold; font-family: Helvetica; }
text.green {fill: rgb(0, 255, 0); font-size: 3.041906px; font-weight: bold; font-family: Helvetica; }
text.blue {fill: rgb(0, 0, 255); font-size: 3.041906px; font-weight: bold; font-family: Helvetica; }
text.black {fill: rgb(0, 0, 0); font-size: 3.041906px; font-weight: bold; font-family: Helvetica; }
text.gray {fill: rgb(204, 204, 204); font-size: 3.041906px; font-weight: bold; font-family: Helvetica; }
text.brown {fill: rgb(211.65, 104.55, 30.6); font-size: 3.041906px; font-weight: bold; font-family: Helvetica; }
text {fill: rgb(0, 0, 0); font-size: 3.041906px; font-weight: bold; font-family: Helvetica; text-anchor: middle; alignment-baseline: middle; }

.pseudoknot_connection{stroke-linecap: round; stroke-opacity: 0.2; stroke-width: 1.5; }
.pseudoknot_segment1{stroke-linecap: round; stroke-opacity: 0.4; stroke-width: 3.04191; }
.pseudoknot_segment2{stroke-linecap: round; stroke-opacity: 0.4; stroke-width: 3.04191; }
line.numbering-line{stroke: rgb(204, 204, 204); stroke-width: 0.190119; }
line.predicted{stroke: rgb(0, 0, 0); stroke-dasharray: 2; }
polyline{fill: none; stroke-linejoin: round; }
template{visibility: hidden; }
text.numbering-label{fill: rgb(204, 204, 204); }
]]>
</style></g>
<g><title>0 (position.label in template: 0.5')</title><text x="125.31" y="203.509" class="green" >5'</text></g>
<g><title>1 (position.label in template: 1.U)</title><text x="125.51" y="195.95" class="green" >T</text></g>
<g><line x1="127.538" y1="195.646" x2="135.512" y2="195.646" class="black" /></g>
<g><title>2 (position.label in template: 2.A)</title><text x="125.71" y="188.39" class="green" >A</text></g>
<g><line x1="127.738" y1="188.086" x2="135.722" y2="188.086" class="black" /></g>
<g><title>3 (position.label in template: 3.A)</title><text x="125.71" y="180.83" class="green" >A</text></g>
<g><line x1="127.738" y1="180.526" x2="135.722" y2="180.526" class="black" /></g>
<g><title>4 (position.label in template: 4.C)</title><text x="119.38" y="176.4" class="black" >C</text></g>
<g><title>5 (position.label in template: 5.U)</title><text x="115.94" y="169.67" class="green" >T</text></g>
<g><title>6 (position.label in template: 6.A)</title><text x="116.14" y="162.11" class="black" >A</text></g>
<g><title>7 (position.label in template: 7.A)</title><text x="119.58" y="155.38" class="black" >A</text></g>
<g><title>8 (position.label in template: 8.C)</title><text x="125.51" y="150.96" class="black" >C</text></g>
<g><line x1="127.538" y1="150.656" x2="135.512" y2="150.656" class="black" /></g>
<g><title>9 (position.label in template: 9.U)</title><text x="125.51" y="143.4" class="green" >T</text></g>
<g><line x1="127.538" y1="143.096" x2="135.922" y2="143.096" class="black" /></g>
<g><title>10 (position.label in template: 10.C)</title><text x="125.51" y="135.84" class="black" >C</text></g>
<g><line x1="127.538" y1="135.536" x2="135.512" y2="135.536" class="black" /></g>
<g><text x="118.666" y="135.84" class="numbering-label sequential" >10</text></g>
<g><line x1="123.685" y1="135.84" x2="120.491" y2="135.84" class="numbering-line sequential" /></g>
<g><title>11 (position.label in template: 11.C)</title><text x="125.51" y="128.28" class="black" >C</text></g>
<g><line x1="127.538" y1="127.976" x2="135.512" y2="127.976" class="black" /></g>
<g><title>12 (position.label in template: 12.G)</title><text x="118.88" y="124.29" class="black" >G</text></g>
<g><title>13 (position.label in template: 13.C)</title><text x="114.86" y="118.02" class="black" >C</text></g>
<g><title>14 (position.label in template: 14.U)</title><text x="113.56" y="110.58" class="green" >T</text></g>
<g><line x1="114.287" y1="108.383" x2="117.193" y2="100.809" class="black" /></g>
<g><title>15 (position.label in template: 15.U)</title><text x="106.55" y="107.75" class="green" >T</text></g>
<g><line x1="107.307" y1="105.565" x2="110.363" y2="97.977" class="black" /></g>
<g><title>16 (position.label in template: 16.G)</title><text x="99.32" y="104.92" class="black" >G</text></g>
<g><line x1="100.109" y1="102.747" x2="103.321" y2="95.1342" class="black" /></g>
<g><title>17 (position.label in template: 17.U)</title><text x="92.52" y="102.1" class="green" >T</text></g>
<g><line x1="93.3065" y1="99.9266" x2="96.5135" y2="92.305" class="black" /></g>
<g><title>18 (position.label in template: 18.A)</title><text x="85.72" y="99.27" class="green" >A</text></g>
<g><line x1="86.4487" y1="97.0733" x2="89.3613" y2="89.5083" class="black" /></g>
<g><title>19 (position.label in template: 19.G)</title><text x="78.29" y="96.44" class="green" >G</text></g>
<g><line x1="79.0771" y1="94.2669" x2="82.2829" y2="86.6548" class="black" /></g>
<g><title>20 (position.label in template: 20.C)</title><text x="72.17" y="100.58" class="black" >C</text></g>
<g><text x="74.5396" y="107.001" class="numbering-label sequential" >20</text></g>
<g><line x1="72.8019" y1="102.292" x2="73.9783" y2="105.48" class="numbering-line sequential" /></g>
<g><title>21 (position.label in template: 21.U)</title><text x="64.66" y="101.47" class="green" >T</text></g>
<g><title>22 (position.label in template: 22.C)</title><text x="57.54" y="98.93" class="black" >C</text></g>
<g><title>23 (position.label in template: 23.C)</title><text x="52.29" y="93.5" class="black" >C</text></g>
<g><title>24 (position.label in template: 24.U)</title><text x="50" y="86.29" class="green" >T</text></g>
<g><title>25 (position.label in template: 25.C)</title><text x="51.15" y="78.82" class="black" >C</text></g>
<g><title>26 (position.label in template: 26.U)</title><text x="55.5" y="72.64" class="green" >T</text></g>
<g><title>27 (position.label in template: 27.A)</title><text x="62.36" y="69.03" class="black" >A</text></g>
<g><title>28 (position.label in template: 28.G)</title><text x="69.5" y="68.76" class="black" >G</text></g>
<g><title>29 (position.label in template: 29.A)</title><text x="76.8" y="71.87" class="black" >A</text></g>
<g><title>30 (position.label in template: 30.G)</title><text x="81.17" y="77.72" class="black" >G</text></g>
<g><text x="87.354" y="74.787" class="numbering-label sequential" >30</text></g>
<g><line x1="82.8191" y1="76.9379" x2="85.5289" y2="75.6527" class="numbering-line sequential" /></g>
<g><title>31 (position.label in template: 31.U)</title><text x="83.07" y="85.09" class="green" >T</text></g>
<g><title>32 (position.label in template: 32.U)</title><text x="90.09" y="87.92" class="green" >T</text></g>
<g><title>33 (position.label in template: 33.A)</title><text x="97.3" y="90.74" class="green" >A</text></g>
<g><title>34 (position.label in template: 34.C)</title><text x="104.11" y="93.57" class="black" >C</text></g>
<g><title>35 (position.label in template: 35.U)</title><text x="111.12" y="96.4" class="green" >T</text></g>
<g><title>36 (position.label in template: 36.G)</title><text x="117.92" y="99.22" class="green" >G</text></g>
<g><title>37 (position.label in template: 37.C)</title><text x="124.23" y="94.76" class="black" >C</text></g>
<g><line x1="126.252" y1="94.2991" x2="134.208" y2="93.6825" class="black" /></g>
<g><title>38 (position.label in template: 38.C)</title><text x="123.66" y="87.22" class="black" >C</text></g>
<g><line x1="125.682" y1="86.7591" x2="133.638" y2="86.1425" class="black" /></g>
<g><title>39 (position.label in template: 39.G)</title><text x="122.88" y="79.68" class="black" >G</text></g>
<g><line x1="124.902" y1="79.2243" x2="133.268" y2="78.5974" class="black" /></g>
<g><title>40 (position.label in template: 40.G)</title><text x="116.56" y="75.53" class="black" >G</text></g>
<g><title>41 (position.label in template: 41.U)</title><text x="113.2" y="68.86" class="green" >T</text></g>
<g><title>42 (position.label in template: 42.C)</title><text x="113.23" y="61.3" class="black" >C</text></g>
<g><title>43 (position.label in template: 43.C)</title><text x="116.87" y="54.68" class="black" >C</text></g>
<g><title>44 (position.label in template: 44.A)</title><text x="123.43" y="50.58" class="black" >A</text></g>
<g><title>45 (position.label in template: 45.A)</title><text x="130.96" y="50" class="black" >A</text></g>
<g><title>46 (position.label in template: 46.A)</title><text x="137.87" y="53.09" class="black" >A</text></g>
<g><title>47 (position.label in template: 47.G)</title><text x="142.04" y="59.1" class="black" >G</text></g>
<g><title>48 (position.label in template: 48.C)</title><text x="143.43" y="66.57" class="black" >C</text></g>
<g><title>49 (position.label in template: 49.C)</title><text x="140.91" y="73.69" class="black" >C</text></g>
<g><title>50 (position.label in template: 50.C)</title><text x="135.29" y="78.75" class="black" >C</text></g>
<g><text x="141.608" y="81.3824" class="numbering-label sequential" >50</text></g>
<g><line x1="136.975" y1="79.452" x2="139.783" y2="80.6219" class="numbering-line sequential" /></g>
<g><title>51 (position.label in template: 51.G)</title><text x="135.66" y="86.29" class="black" >G</text></g>
<g><title>52 (position.label in template: 52.G)</title><text x="136.23" y="93.83" class="black" >G</text></g>
<g><title>53 (position.label in template: 53.A)</title><text x="143.35" y="97.32" class="black" >A</text></g>
<g><title>54 (position.label in template: 54.U)</title><text x="147.84" y="103.25" class="green" >T</text></g>
<g><title>55 (position.label in template: 55.A)</title><text x="149.9" y="110.58" class="black" >A</text></g>
<g><title>56 (position.label in template: 56.A)</title><text x="148.61" y="118.02" class="black" >A</text></g>
<g><title>57 (position.label in template: 57.A)</title><text x="144.38" y="124.29" class="black" >A</text></g>
<g><title>58 (position.label in template: 58.G)</title><text x="137.54" y="128.28" class="black" >G</text></g>
<g><title>59 (position.label in template: 59.G)</title><text x="137.54" y="135.84" class="black" >G</text></g>
<g><title>60 (position.label in template: 60.A)</title><text x="137.95" y="143.4" class="green" >A</text></g>
<g><title>61 (position.label in template: 61.G)</title><text x="137.54" y="150.96" class="black" >G</text></g>
<g><title>62 (position.label in template: 62.G)</title><text x="144.78" y="153.14" class="black" >G</text></g>
<g><title>63 (position.label in template: 63.A)</title><text x="150.44" y="158.58" class="black" >A</text></g>
<g><title>64 (position.label in template: 64.G)</title><text x="151.94" y="165.89" class="black" >G</text></g>
<g><title>65 (position.label in template: 65.G)</title><text x="150.02" y="173.21" class="black" >G</text></g>
<g><title>66 (position.label in template: 66.G)</title><text x="144.78" y="178.65" class="black" >G</text></g>
<g><title>67 (position.label in template: 67.U)</title><text x="137.75" y="180.83" class="green" >T</text></g>
<g><title>68 (position.label in template: 68.U)</title><text x="137.75" y="188.39" class="green" >T</text></g>
<g><title>69 (position.label in template: 69.G)</title><text x="137.54" y="195.95" class="green" >G</text></g>
<g><title>70 (position.label in template: 70.G)</title><text x="142.882" y="201.302" class="black" >G</text></g>
<g><title>71 (position.label in template: 71.3')</title><text x="142.25" y="208.836" class="green" >3'</text></g>
<g><line x1="125.364" y1="201.177" x2="125.456" y2="197.673" class="gray" /></g>
<g><line x1="125.564" y1="193.619" x2="125.656" y2="190.113" class="gray" /></g>
<g><line x1="125.71" y1="186.058" x2="125.71" y2="182.554" class="gray" /></g>
<g><line x1="124.049" y1="179.363" x2="121.041" y2="177.259" class="gray" /></g>
<g><line x1="118.457" y1="174.29" x2="116.863" y2="171.172" class="gray" /></g>
<g><line x1="115.994" y1="167.339" x2="116.086" y2="163.833" class="gray" /></g>
<g><line x1="117.063" y1="160" x2="118.657" y2="156.882" class="gray" /></g>
<g><line x1="121.206" y1="153.864" x2="123.884" y2="151.868" class="gray" /></g>
<g><line x1="125.51" y1="148.628" x2="125.51" y2="145.124" class="gray" /></g>
<g><line x1="125.51" y1="141.068" x2="125.51" y2="137.564" class="gray" /></g>
<g><line x1="125.51" y1="133.508" x2="125.51" y2="130.004" class="gray" /></g>
<g><line x1="123.772" y1="126.93" x2="120.618" y2="125.031" class="gray" /></g>
<g><line x1="117.785" y1="122.279" x2="115.955" y2="119.423" class="gray" /></g>
<g><line x1="114.511" y1="115.718" x2="113.909" y2="112.273" class="gray" /></g>
<g><line x1="111.68" y1="109.517" x2="108.43" y2="108.205" class="gray" /></g>
<g><line x1="104.662" y1="106.707" x2="101.208" y2="105.355" class="gray" /></g>
<g><line x1="97.4468" y1="103.839" x2="94.3932" y2="102.573" class="gray" /></g>
<g><line x1="90.6477" y1="101.017" x2="87.5923" y2="99.745" class="gray" /></g>
<g><line x1="83.8249" y1="98.244" x2="80.1851" y2="96.8576" class="gray" /></g>
<g><line x1="76.6103" y1="97.2721" x2="73.8497" y2="99.1395" class="gray" /></g>
<g><line x1="70.1562" y1="100.514" x2="66.6738" y2="100.927" class="gray" /></g>
<g><line x1="62.75" y1="100.484" x2="59.45" y2="99.3072" class="gray" /></g>
<g><line x1="56.1304" y1="97.1679" x2="53.6996" y2="94.6537" class="gray" /></g>
<g><line x1="51.6761" y1="91.263" x2="50.6139" y2="87.9186" class="gray" /></g>
<g><line x1="50.3086" y1="83.9815" x2="50.8414" y2="80.5201" class="gray" /></g>
<g><line x1="52.3173" y1="76.8575" x2="54.3327" y2="73.9941" class="gray" /></g>
<g><line x1="57.2946" y1="71.3914" x2="60.5654" y2="69.6702" class="gray" /></g>
<g><line x1="64.3865" y1="68.6492" x2="67.4735" y2="68.5324" class="gray" /></g>
<g><line x1="71.3657" y1="69.2506" x2="74.9343" y2="70.771" class="gray" /></g>
<g><line x1="78.0136" y1="73.1905" x2="79.9564" y2="75.7911" class="gray" /></g>
<g><line x1="81.6763" y1="79.3795" x2="82.5637" y2="82.8221" class="gray" /></g>
<g><line x1="84.9509" y1="85.544" x2="88.2091" y2="86.8576" class="gray" /></g>
<g><line x1="91.9786" y1="88.3545" x2="95.4114" y2="89.6971" class="gray" /></g>
<g><line x1="99.1727" y1="91.214" x2="102.237" y2="92.4876" class="gray" /></g>
<g><line x1="105.99" y1="94.025" x2="109.24" y2="95.3366" class="gray" /></g>
<g><line x1="112.993" y1="96.8727" x2="116.047" y2="98.139" class="gray" /></g>
<g><line x1="119.576" y1="97.7453" x2="122.574" y2="95.6263" class="gray" /></g>
<g><line x1="124.077" y1="92.4336" x2="123.813" y2="88.938" class="gray" /></g>
<g><line x1="123.451" y1="84.8986" x2="123.089" y2="81.393" class="gray" /></g>
<g><line x1="121.185" y1="78.2627" x2="118.255" y2="76.3389" class="gray" /></g>
<g><line x1="115.648" y1="73.4147" x2="114.112" y2="70.3669" class="gray" /></g>
<g><line x1="113.208" y1="66.5279" x2="113.222" y2="63.0237" class="gray" /></g>
<g><line x1="114.207" y1="59.2188" x2="115.893" y2="56.1528" class="gray" /></g>
<g><line x1="118.59" y1="53.301" x2="121.71" y2="51.3506" class="gray" /></g>
<g><line x1="125.452" y1="50.1201" x2="128.938" y2="49.8516" class="gray" /></g>
<g><line x1="132.811" y1="50.5237" x2="136.019" y2="51.958" class="gray" /></g>
<g><line x1="139.026" y1="54.452" x2="140.884" y2="57.1297" class="gray" /></g>
<g><line x1="142.411" y1="60.7895" x2="143.059" y2="64.2721" class="gray" /></g>
<g><line x1="142.753" y1="68.1775" x2="141.587" y2="71.4741" class="gray" /></g>
<g><line x1="139.403" y1="74.7427" x2="136.797" y2="77.0889" class="gray" /></g>
<g><line x1="135.389" y1="80.4713" x2="135.561" y2="83.9603" class="gray" /></g>
<g><line x1="135.813" y1="88.008" x2="136.077" y2="91.5036" class="gray" /></g>
<g><line x1="138.051" y1="94.4184" x2="141.529" y2="96.1232" class="gray" /></g>
<g><line x1="144.574" y1="98.6326" x2="146.616" y2="101.329" class="gray" /></g>
<g><line x1="148.389" y1="104.898" x2="149.351" y2="108.324" class="gray" /></g>
<g><line x1="149.554" y1="112.274" x2="148.956" y2="115.718" class="gray" /></g>
<g><line x1="147.476" y1="119.397" x2="145.514" y2="122.305" class="gray" /></g>
<g><line x1="142.628" y1="125.008" x2="139.292" y2="126.954" class="gray" /></g>
<g><line x1="137.54" y1="130.004" x2="137.54" y2="133.508" class="gray" /></g>
<g><line x1="137.65" y1="137.561" x2="137.84" y2="141.071" class="gray" /></g>
<g><line x1="137.84" y1="145.121" x2="137.65" y2="148.631" class="gray" /></g>
<g><line x1="139.482" y1="151.241" x2="142.838" y2="152.251" class="gray" /></g>
<g><line x1="146.242" y1="154.241" x2="148.978" y2="156.871" class="gray" /></g>
<g><line x1="150.848" y1="160.262" x2="151.532" y2="163.599" class="gray" /></g>
<g><line x1="151.425" y1="167.547" x2="150.535" y2="170.944" class="gray" /></g>
<g><line x1="148.613" y1="174.366" x2="146.187" y2="176.885" class="gray" /></g>
<g><line x1="142.843" y1="178.946" x2="139.687" y2="179.925" class="gray" /></g>
<g><line x1="137.75" y1="182.554" x2="137.75" y2="186.058" class="gray" /></g>
<g><line x1="137.694" y1="190.113" x2="137.596" y2="193.619" class="gray" /></g>
<g><line x1="138.973" y1="197.081" x2="141.449" y2="199.562" class="gray" /></g>
<g><line x1="142.712" y1="203.018" x2="142.419" y2="206.511" class="gray" /></g>
</svg>
