<svg
	xmlns="http://www.w3.org/2000/svg"
	width="148.7"
	height="265.298">
<g><style type="text/css" >
<!-- create color definitions -->
<![CDATA[
circle.red {stroke: rgb(255, 0, 255); fill: none; }
circle.green {stroke: rgb(0, 255, 0); fill: none; }
circle.blue {stroke: rgb(0, 0, 255); fill: none; }
circle.black {stroke: rgb(0, 0, 0); fill: none; }
circle.gray {stroke: rgb(204, 204, 204); fill: none; }
circle.brown {stroke: rgb(211.65, 104.55, 30.6); fill: none; }
line.red {stroke: rgb(255, 0, 255); stroke-width: 0.383262; }
line.green {stroke: rgb(0, 255, 0); stroke-width: 0.383262; }
line.blue {stroke: rgb(0, 0, 255); stroke-width: 0.383262; }
line.black {stroke: rgb(0, 0, 0); stroke-width: 0.383262; }
line.gray {stroke: rgb(204, 204, 204); stroke-width: 0.383262; }
line.brown {stroke: rgb(211.65, 104.55, 30.6); stroke-width: 0.383262; }
line {stroke: rgb(0, 0, 0); }
text.red {fill: rgb(255, 0, 255); font-size: 3.066094px; font-weight: bold; font-family: Helvetica; }
text.green {fill: rgb(0, 255, 0); font-size: 3.066094px; font-weight: bold; font-family: Helvetica; }
text.blue {fill: rgb(0, 0, 255); font-size: 3.066094px; font-weight: bold; font-family: Helvetica; }
text.black {fill: rgb(0, 0, 0); font-size: 3.066094px; font-weight: bold; font-family: Helvetica; }
text.gray {fill: rgb(204, 204, 204); font-size: 3.066094px; font-weight: bold; font-family: Helvetica; }
text.brown {fill: rgb(211.65, 104.55, 30.6); font-size: 3.066094px; font-weight: bold; font-family: Helvetica; }
text {fill: rgb(0, 0, 0); font-size: 3.066094px; font-weight: bold; font-family: Helvetica; text-anchor: middle; alignment-baseline: middle; }

.pseudoknot_connection{stroke-linecap: round; stroke-opacity: 0.2; stroke-width: 1.5; }
.pseudoknot_segment1{stroke-linecap: round; stroke-opacity: 0.4; stroke-width: 3.06609; }
.pseudoknot_segment2{stroke-linecap: round; stroke-opacity: 0.4; stroke-width: 3.06609; }
line.numbering-line{stroke: rgb(204, 204, 204); stroke-width: 0.191631; }
line.predicted{stroke: rgb(0, 0, 0); stroke-dasharray: 2; }
polyline{fill: none; stroke-linejoin: round; }
template{visibility: hidden; }
text.numbering-label{fill: rgb(204, 204, 204); }
]]>
</style></g>
<g><title>0 (position.label in template: 0.5')</title><text x="68.45" y="217.609" class="green" >5'</text></g>
<g><title>1 (position.label in template: 1.A)</title><text x="68.25" y="210.05" class="green" >A</text></g>
<g><line x1="70.2941" y1="209.743" x2="78.2459" y2="209.743" class="black" /></g>
<g><title>2 (position.label in template: 2.C)</title><text x="68.05" y="202.49" class="black" >C</text></g>
<g><line x1="70.0941" y1="202.183" x2="78.0359" y2="202.183" class="black" /></g>
<g><title>3 (position.label in template: 3.U)</title><text x="68.05" y="194.93" class="green" >T</text></g>
<g><line x1="70.0941" y1="194.623" x2="78.4459" y2="194.623" class="black" /></g>
<g><title>4 (position.label in template: 4.G)</title><text x="67.84" y="187.37" class="black" >G</text></g>
<g><line x1="69.8841" y1="187.063" x2="78.2459" y2="187.063" class="black" /></g>
<g><title>5 (position.label in template: 5.U)</title><text x="68.05" y="179.81" class="green" >T</text></g>
<g><line x1="70.0941" y1="179.503" x2="78.0359" y2="179.503" class="black" /></g>
<g><title>6 (position.label in template: 6.G)</title><text x="62.24" y="174.73" class="black" >G</text></g>
<g><title>7 (position.label in template: 7.G)</title><text x="60.17" y="167.46" class="black" >G</text></g>
<g><title>8 (position.label in template: 8.A)</title><text x="62.66" y="160.19" class="black" >A</text></g>
<g><title>9 (position.label in template: 9.G)</title><text x="67.84" y="155.11" class="black" >G</text></g>
<g><line x1="69.8841" y1="154.803" x2="78.2459" y2="154.803" class="black" /></g>
<g><title>10 (position.label in template: 10.U)</title><text x="68.05" y="147.55" class="green" >T</text></g>
<g><line x1="70.0941" y1="147.243" x2="78.4459" y2="147.243" class="black" /></g>
<g><text x="61.1538" y="147.363" class="numbering-label sequential" >10</text></g>
<g><line x1="66.211" y1="147.5" x2="62.9935" y2="147.413" class="numbering-line sequential" /></g>
<g><title>11 (position.label in template: 11.A)</title><text x="68.25" y="139.99" class="green" >A</text></g>
<g><line x1="70.2941" y1="139.683" x2="78.2459" y2="139.683" class="black" /></g>
<g><title>12 (position.label in template: 12.U)</title><text x="68.05" y="132.43" class="green" >T</text></g>
<g><line x1="70.0941" y1="132.123" x2="78.4459" y2="132.123" class="black" /></g>
<g><title>13 (position.label in template: 13.C)</title><text x="68.05" y="124.87" class="black" >C</text></g>
<g><line x1="70.0941" y1="124.563" x2="78.0359" y2="124.563" class="black" /></g>
<g><title>14 (position.label in template: 14.A)</title><text x="62.91" y="130.21" class="black" >A</text></g>
<g><title>15 (position.label in template: 15.A)</title><text x="55.35" y="130.21" class="black" >A</text></g>
<g><title>16 (position.label in template: 16.A)</title><text x="50" y="124.87" class="black" >A</text></g>
<g><title>17 (position.label in template: 17.A)</title><text x="50" y="117.31" class="black" >A</text></g>
<g><title>18 (position.label in template: 18.A)</title><text x="55.35" y="111.96" class="black" >A</text></g>
<g><title>19 (position.label in template: 19.A)</title><text x="62.91" y="111.96" class="black" >A</text></g>
<g><title>20 (position.label in template: 20.U)</title><text x="68.05" y="117.31" class="green" >T</text></g>
<g><line x1="70.0941" y1="117.003" x2="78.4459" y2="117.003" class="black" /></g>
<g><text x="65.228" y="111.015" class="numbering-label sequential" >20</text></g>
<g><line x1="67.2975" y1="115.631" x2="65.9153" y2="112.548" class="numbering-line sequential" /></g>
<g><title>21 (position.label in template: 21.G)</title><text x="67.84" y="109.75" class="black" >G</text></g>
<g><line x1="69.8841" y1="109.443" x2="78.2459" y2="109.443" class="black" /></g>
<g><title>22 (position.label in template: 22.U)</title><text x="68.05" y="102.19" class="green" >T</text></g>
<g><line x1="70.0941" y1="101.883" x2="78.4459" y2="101.883" class="black" /></g>
<g><title>23 (position.label in template: 23.C)</title><text x="60.81" y="100.01" class="black" >C</text></g>
<g><title>24 (position.label in template: 24.G)</title><text x="55.35" y="94.56" class="black" >G</text></g>
<g><title>25 (position.label in template: 25.G)</title><text x="53.44" y="87.25" class="black" >G</text></g>
<g><title>26 (position.label in template: 26.U)</title><text x="55.56" y="79.94" class="green" >T</text></g>
<g><title>27 (position.label in template: 27.A)</title><text x="61.01" y="74.49" class="black" >A</text></g>
<g><title>28 (position.label in template: 28.G)</title><text x="67.84" y="72.31" class="black" >G</text></g>
<g><line x1="69.8841" y1="72.0034" x2="78.2459" y2="72.0034" class="black" /></g>
<g><title>29 (position.label in template: 29.C)</title><text x="68.05" y="64.75" class="black" >C</text></g>
<g><line x1="70.0941" y1="64.4434" x2="78.0359" y2="64.4434" class="black" /></g>
<g><title>30 (position.label in template: 30.U)</title><text x="68.05" y="57.19" class="green" >T</text></g>
<g><line x1="70.0941" y1="56.8834" x2="78.0359" y2="56.8834" class="black" /></g>
<g><text x="61.2514" y="56.0193" class="numbering-label sequential" >30</text></g>
<g><line x1="66.237" y1="56.8778" x2="63.091" y2="56.336" class="numbering-line sequential" /></g>
<g><title>31 (position.label in template: 31.A)</title><text x="70.59" y="50" class="black" >A</text></g>
<g><title>32 (position.label in template: 32.A)</title><text x="78.15" y="50" class="black" >A</text></g>
<g><title>33 (position.label in template: 33.G)</title><text x="80.08" y="57.19" class="green" >G</text></g>
<g><title>34 (position.label in template: 34.G)</title><text x="80.08" y="64.75" class="black" >G</text></g>
<g><title>35 (position.label in template: 35.C)</title><text x="80.29" y="72.31" class="black" >C</text></g>
<g><title>36 (position.label in template: 36.A)</title><text x="86.62" y="76.74" class="black" >A</text></g>
<g><title>37 (position.label in template: 37.A)</title><text x="90.06" y="83.47" class="black" >A</text></g>
<g><title>38 (position.label in template: 38.A)</title><text x="90.06" y="91.03" class="black" >A</text></g>
<g><title>39 (position.label in template: 39.G)</title><text x="86.2" y="97.76" class="black" >G</text></g>
<g><title>40 (position.label in template: 40.A)</title><text x="80.49" y="102.19" class="green" >A</text></g>
<g><title>41 (position.label in template: 41.C)</title><text x="80.29" y="109.75" class="black" >C</text></g>
<g><title>42 (position.label in template: 42.A)</title><text x="80.49" y="117.31" class="green" >A</text></g>
<g><title>43 (position.label in template: 43.G)</title><text x="80.08" y="124.87" class="black" >G</text></g>
<g><title>44 (position.label in template: 44.A)</title><text x="80.49" y="132.43" class="green" >A</text></g>
<g><title>45 (position.label in template: 45.U)</title><text x="80.29" y="139.99" class="green" >T</text></g>
<g><title>46 (position.label in template: 46.A)</title><text x="80.49" y="147.55" class="green" >A</text></g>
<g><title>47 (position.label in template: 47.C)</title><text x="80.29" y="155.11" class="black" >C</text></g>
<g><title>48 (position.label in template: 48.G)</title><text x="87.57" y="154.11" class="black" >G</text></g>
<g><title>49 (position.label in template: 49.U)</title><text x="94.63" y="157.3" class="green" >T</text></g>
<g><title>50 (position.label in template: 50.U)</title><text x="98.7" y="163.68" class="green" >T</text></g>
<g><text x="105.349" y="161.839" class="numbering-label sequential" >50</text></g>
<g><line x1="100.473" y1="163.189" x2="103.509" y2="162.348" class="numbering-line sequential" /></g>
<g><title>51 (position.label in template: 51.G)</title><text x="98.49" y="171.24" class="black" >G</text></g>
<g><title>52 (position.label in template: 52.A)</title><text x="94.84" y="177.61" class="black" >A</text></g>
<g><title>53 (position.label in template: 53.A)</title><text x="87.99" y="180.81" class="black" >A</text></g>
<g><title>54 (position.label in template: 54.G)</title><text x="80.08" y="179.81" class="green" >G</text></g>
<g><title>55 (position.label in template: 55.C)</title><text x="80.29" y="187.37" class="black" >C</text></g>
<g><title>56 (position.label in template: 56.A)</title><text x="80.49" y="194.93" class="green" >A</text></g>
<g><title>57 (position.label in template: 57.G)</title><text x="80.08" y="202.49" class="black" >G</text></g>
<g><title>58 (position.label in template: 58.U)</title><text x="80.29" y="210.05" class="green" >T</text></g>
<g><title>59 (position.label in template: 59.A)</title><text x="85.7341" y="215.298" class="black" >A</text></g>
<g><title>60 (position.label in template: 60.A)</title><text x="93.2957" y="215.298" class="black" >A</text></g>
<g><title>61 (position.label in template: 61.3')</title><text x="100.857" y="215.298" class="green" >3'</text></g>
<g><line x1="68.3959" y1="215.259" x2="68.3041" y2="211.787" class="gray" /></g>
<g><line x1="68.1959" y1="207.7" x2="68.1041" y2="204.227" class="gray" /></g>
<g><line x1="68.05" y1="200.139" x2="68.05" y2="196.667" class="gray" /></g>
<g><line x1="67.9932" y1="192.58" x2="67.8968" y2="189.107" class="gray" /></g>
<g><line x1="67.8968" y1="185.02" x2="67.9932" y2="181.547" class="gray" /></g>
<g><line x1="66.5112" y1="178.158" x2="63.7788" y2="175.769" class="gray" /></g>
<g><line x1="61.6802" y1="172.457" x2="60.7298" y2="169.119" class="gray" /></g>
<g><line x1="60.8323" y1="165.22" x2="61.9977" y2="161.817" class="gray" /></g>
<g><line x1="64.1194" y1="158.452" x2="66.3806" y2="156.235" class="gray" /></g>
<g><line x1="67.8968" y1="152.76" x2="67.9932" y2="149.287" class="gray" /></g>
<g><line x1="68.1041" y1="145.2" x2="68.1959" y2="141.727" class="gray" /></g>
<g><line x1="68.1959" y1="137.64" x2="68.1041" y2="134.167" class="gray" /></g>
<g><line x1="68.05" y1="130.079" x2="68.05" y2="126.607" class="gray" /></g>
<g><line x1="66.6325" y1="126.036" x2="64.3275" y2="128.431" class="gray" /></g>
<g><line x1="60.8659" y1="129.903" x2="57.3941" y2="129.903" class="gray" /></g>
<g><line x1="53.9033" y1="128.459" x2="51.4467" y2="126.007" class="gray" /></g>
<g><line x1="50" y1="122.519" x2="50" y2="119.047" class="gray" /></g>
<g><line x1="51.4454" y1="115.558" x2="53.9046" y2="113.099" class="gray" /></g>
<g><line x1="57.3941" y1="111.653" x2="60.8659" y2="111.653" class="gray" /></g>
<g><line x1="64.3262" y1="113.127" x2="66.6338" y2="115.529" class="gray" /></g>
<g><line x1="67.9932" y1="114.96" x2="67.8968" y2="111.487" class="gray" /></g>
<g><line x1="67.8968" y1="107.4" x2="67.9932" y2="103.927" class="gray" /></g>
<g><line x1="66.0927" y1="101.294" x2="62.7673" y2="100.293" class="gray" /></g>
<g><line x1="59.3633" y1="98.2593" x2="56.7967" y2="95.6974" class="gray" /></g>
<g><line x1="54.8333" y1="92.2757" x2="53.9567" y2="88.9211" class="gray" /></g>
<g><line x1="54.0093" y1="84.9802" x2="54.9907" y2="81.5966" class="gray" /></g>
<g><line x1="57.0054" y1="78.188" x2="59.5646" y2="75.6288" class="gray" /></g>
<g><line x1="62.9573" y1="73.5619" x2="65.8927" y2="72.6249" class="gray" /></g>
<g><line x1="67.8968" y1="69.9601" x2="67.9932" y2="66.4867" class="gray" /></g>
<g><line x1="68.05" y1="62.3993" x2="68.05" y2="58.9275" class="gray" /></g>
<g><line x1="68.7309" y1="54.9561" x2="69.9091" y2="51.6207" class="gray" /></g>
<g><line x1="72.6341" y1="49.6934" x2="76.1059" y2="49.6934" class="gray" /></g>
<g><line x1="78.6799" y1="51.6676" x2="79.5501" y2="54.9092" class="gray" /></g>
<g><line x1="80.08" y1="58.9275" x2="80.08" y2="62.3993" class="gray" /></g>
<g><line x1="80.1368" y1="66.4867" x2="80.2332" y2="69.9601" class="gray" /></g>
<g><line x1="81.9647" y1="73.1754" x2="84.9453" y2="75.2614" class="gray" /></g>
<g><line x1="87.5503" y1="78.2535" x2="89.1297" y2="81.3433" class="gray" /></g>
<g><line x1="90.06" y1="85.2075" x2="90.06" y2="88.6793" class="gray" /></g>
<g><line x1="89.043" y1="92.4965" x2="87.217" y2="95.6803" class="gray" /></g>
<g><line x1="84.585" y1="98.7064" x2="82.105" y2="100.63" class="gray" /></g>
<g><line x1="80.4359" y1="103.927" x2="80.3441" y2="107.4" class="gray" /></g>
<g><line x1="80.3441" y1="111.487" x2="80.4359" y2="114.96" class="gray" /></g>
<g><line x1="80.3793" y1="119.044" x2="80.1907" y2="122.522" class="gray" /></g>
<g><line x1="80.1907" y1="126.604" x2="80.3793" y2="130.082" class="gray" /></g>
<g><line x1="80.4359" y1="134.167" x2="80.3441" y2="137.64" class="gray" /></g>
<g><line x1="80.3441" y1="141.727" x2="80.4359" y2="145.2" class="gray" /></g>
<g><line x1="80.4359" y1="149.287" x2="80.3441" y2="152.76" class="gray" /></g>
<g><line x1="82.315" y1="154.525" x2="85.545" y2="154.082" class="gray" /></g>
<g><line x1="89.4327" y1="154.645" x2="92.7673" y2="156.152" class="gray" /></g>
<g><line x1="95.7293" y1="158.717" x2="97.6007" y2="161.65" class="gray" /></g>
<g><line x1="98.6432" y1="165.417" x2="98.5468" y2="168.89" class="gray" /></g>
<g><line x1="97.4738" y1="172.707" x2="95.8562" y2="175.53" class="gray" /></g>
<g><line x1="92.9881" y1="178.169" x2="89.8419" y2="179.638" class="gray" /></g>
<g><line x1="85.9621" y1="180.247" x2="82.1079" y2="179.76" class="gray" /></g>
<g><line x1="80.1368" y1="181.547" x2="80.2332" y2="185.02" class="gray" /></g>
<g><line x1="80.3441" y1="189.107" x2="80.4359" y2="192.58" class="gray" /></g>
<g><line x1="80.3793" y1="196.664" x2="80.1907" y2="200.142" class="gray" /></g>
<g><line x1="80.1368" y1="204.227" x2="80.2332" y2="207.7" class="gray" /></g>
<g><line x1="81.7616" y1="211.162" x2="84.2624" y2="213.573" class="gray" /></g>
<g><line x1="87.7781" y1="214.991" x2="91.2516" y2="214.991" class="gray" /></g>
<g><line x1="95.3397" y1="214.991" x2="98.8132" y2="214.991" class="gray" /></g>
</svg>
