<svg
	xmlns="http://www.w3.org/2000/svg"
	width="260.849"
	height="210.497">
<g><style type="text/css" >
<!-- create color definitions -->
<![CDATA[
circle.red {stroke: rgb(255, 0, 255); fill: none; }
circle.green {stroke: rgb(0, 255, 0); fill: none; }
circle.blue {stroke: rgb(0, 0, 255); fill: none; }
circle.black {stroke: rgb(0, 0, 0); fill: none; }
circle.gray {stroke: rgb(204, 204, 204); fill: none; }
circle.brown {stroke: rgb(211.65, 104.55, 30.6); fill: none; }
line.red {stroke: rgb(255, 0, 255); stroke-width: 0.380313; }
line.green {stroke: rgb(0, 255, 0); stroke-width: 0.380313; }
line.blue {stroke: rgb(0, 0, 255); stroke-width: 0.380313; }
line.black {stroke: rgb(0, 0, 0); stroke-width: 0.380313; }
line.gray {stroke: rgb(204, 204, 204); stroke-width: 0.380313; }
line.brown {stroke: rgb(211.65, 104.55, 30.6); stroke-width: 0.380313; }
line {stroke: rgb(0, 0, 0); }
text.red {fill: rgb(255, 0, 255); font-size: 3.042500px; font-weight: bold; font-family: Helvetica; }
text.green {fill: rgb(0, 255, 0); font-size: 3.042500px; font-weight: bold; font-family: Helvetica; }
text.blue {fill: rgb(0, 0, 255); font-size: 3.042500px; font-weight: bold; font-family: Helvetica; }
text.black {fill: rgb(0, 0, 0); font-size: 3.042500px; font-weight: bold; font-family: Helvetica; }
text.gray {fill: rgb(204, 204, 204); font-size: 3.042500px; font-weight: bold; font-family: Helvetica; }
text.brown {fill: rgb(211.65, 104.55, 30.6); font-size: 3.042500px; font-weight: bold; font-family: Helvetica; }
text {fill: rgb(0, 0, 0); font-size: 3.042500px; font-weight: bold; font-family: Helvetica; text-anchor: middle; alignment-baseline: middle; }

.pseudoknot_connection{stroke-linecap: round; stroke-opacity: 0.2; stroke-width: 1.5; }
.pseudoknot_segment1{stroke-linecap: round; stroke-opacity: 0.4; stroke-width: 3.0425; }
.pseudoknot_segment2{stroke-linecap: round; stroke-opacity: 0.4; stroke-width: 3.0425; }
line.numbering-line{stroke: rgb(204, 204, 204); stroke-width: 0.190156; }
line.predicted{stroke: rgb(0, 0, 0); stroke-dasharray: 2; }
polyline{fill: none; stroke-linejoin: round; }
template{visibility: hidden; }
text.numbering-label{fill: rgb(204, 204, 204); }
]]>
</style></g>
<g><title>0 (position.label in template: 0.5')</title><text x="42.438" y="160.497" class="green" >5'</text></g>
<g><title>1 (position.label in template: 1.U)</title><text x="50" y="160.497" class="green" >T</text></g>
<g><title>2 (position.label in template: 2.G)</title><text x="57.562" y="160.497" class="black" >G</text></g>
<g><title>3 (position.label in template: 3.C)</title><text x="65.1239" y="160.497" class="black" >C</text></g>
<g><title>4 (position.label in template: 4.C)</title><text x="72.6859" y="160.497" class="black" >C</text></g>
<g><title>5 (position.label in template: 5.C)</title><text x="80.2479" y="160.497" class="black" >C</text></g>
<g><title>6 (position.label in template: 6.A)</title><text x="87.8098" y="160.497" class="black" >A</text></g>
<g><title>7 (position.label in template: 7.G)</title><text x="95.3718" y="160.497" class="black" >G</text></g>
<g><title>8 (position.label in template: 8.C)</title><text x="102.934" y="160.497" class="black" >C</text></g>
<g><title>9 (position.label in template: 9.A)</title><text x="110.496" y="160.497" class="black" >A</text></g>
<g><title>10 (position.label in template: 10.C)</title><text x="118.058" y="160.497" class="black" >C</text></g>
<g><text x="118.058" y="167.343" class="numbering-label sequential" >10</text></g>
<g><line x1="118.058" y1="162.323" x2="118.058" y2="165.821" class="numbering-line sequential" /></g>
<g><title>11 (position.label in template: 11.C)</title><text x="125.62" y="160.497" class="black" >C</text></g>
<g><title>12 (position.label in template: 12.U)</title><text x="133.182" y="160.497" class="green" >T</text></g>
<g><title>13 (position.label in template: 13.C)</title><text x="138.529" y="155.15" class="black" >C</text></g>
<g><line x1="140.557" y1="154.846" x2="148.95" y2="154.846" class="black" /></g>
<g><title>14 (position.label in template: 14.C)</title><text x="138.529" y="147.59" class="black" >C</text></g>
<g><line x1="140.557" y1="147.286" x2="148.53" y2="147.286" class="black" /></g>
<g><title>15 (position.label in template: 15.U)</title><text x="138.529" y="140.03" class="green" >T</text></g>
<g><line x1="140.557" y1="139.726" x2="148.95" y2="139.726" class="black" /></g>
<g><title>16 (position.label in template: 16.A)</title><text x="138.739" y="132.47" class="black" >A</text></g>
<g><line x1="140.767" y1="132.166" x2="148.95" y2="132.166" class="black" /></g>
<g><title>17 (position.label in template: 17.U)</title><text x="138.529" y="124.91" class="green" >T</text></g>
<g><line x1="140.557" y1="124.606" x2="148.53" y2="124.606" class="black" /></g>
<g><title>18 (position.label in template: 18.C)</title><text x="138.529" y="117.35" class="black" >C</text></g>
<g><line x1="140.557" y1="117.046" x2="148.53" y2="117.046" class="black" /></g>
<g><title>19 (position.label in template: 19.C)</title><text x="138.529" y="109.79" class="black" >C</text></g>
<g><line x1="140.557" y1="109.486" x2="148.53" y2="109.486" class="black" /></g>
<g><title>20 (position.label in template: 20.C)</title><text x="138.529" y="102.23" class="black" >C</text></g>
<g><line x1="140.557" y1="101.926" x2="148.95" y2="101.926" class="black" /></g>
<g><text x="131.683" y="102.23" class="numbering-label sequential" >20</text></g>
<g><line x1="136.703" y1="102.23" x2="133.509" y2="102.23" class="numbering-line sequential" /></g>
<g><title>21 (position.label in template: 21.U)</title><text x="138.529" y="94.67" class="green" >T</text></g>
<g><line x1="140.557" y1="94.3658" x2="148.74" y2="94.3658" class="black" /></g>
<g><title>22 (position.label in template: 22.A)</title><text x="138.739" y="87.11" class="green" >A</text></g>
<g><line x1="140.767" y1="86.8058" x2="148.74" y2="86.8058" class="black" /></g>
<g><title>23 (position.label in template: 23.C)</title><text x="138.529" y="79.55" class="black" >C</text></g>
<g><line x1="140.557" y1="79.2458" x2="148.53" y2="79.2458" class="black" /></g>
<g><title>24 (position.label in template: 24.C)</title><text x="138.529" y="71.99" class="black" >C</text></g>
<g><line x1="140.557" y1="71.6858" x2="148.53" y2="71.6858" class="black" /></g>
<g><title>25 (position.label in template: 25.U)</title><text x="133.639" y="66.22" class="green" >T</text></g>
<g><title>26 (position.label in template: 26.C)</title><text x="133.239" y="58.67" class="black" >C</text></g>
<g><title>27 (position.label in template: 27.C)</title><text x="137.489" y="52.42" class="black" >C</text></g>
<g><title>28 (position.label in template: 28.U)</title><text x="144.649" y="50" class="green" >T</text></g>
<g><title>29 (position.label in template: 29.C)</title><text x="151.819" y="52.42" class="black" >C</text></g>
<g><title>30 (position.label in template: 30.G)</title><text x="155.849" y="58.67" class="black" >G</text></g>
<g><text x="162.444" y="56.8349" class="numbering-label sequential" >30</text></g>
<g><line x1="157.607" y1="58.1806" x2="160.618" y2="57.3428" class="numbering-line sequential" /></g>
<g><title>31 (position.label in template: 31.U)</title><text x="155.659" y="66.22" class="green" >T</text></g>
<g><title>32 (position.label in template: 32.G)</title><text x="150.559" y="71.99" class="black" >G</text></g>
<g><title>33 (position.label in template: 33.G)</title><text x="150.559" y="79.55" class="black" >G</text></g>
<g><title>34 (position.label in template: 34.U)</title><text x="150.769" y="87.11" class="green" >T</text></g>
<g><title>35 (position.label in template: 35.A)</title><text x="152.859" y="79.79" class="black" >A</text></g>
<g><title>36 (position.label in template: 36.C)</title><text x="156.289" y="73.16" class="black" >C</text></g>
<g><title>37 (position.label in template: 37.U)</title><text x="161.469" y="67.65" class="green" >T</text></g>
<g><title>38 (position.label in template: 38.G)</title><text x="167.639" y="63.6" class="black" >G</text></g>
<g><title>39 (position.label in template: 39.G)</title><text x="174.829" y="61.26" class="black" >G</text></g>
<g><title>40 (position.label in template: 40.C)</title><text x="182.589" y="60.79" class="black" >C</text></g>
<g><title>41 (position.label in template: 41.C)</title><text x="190.009" y="62.21" class="black" >C</text></g>
<g><title>42 (position.label in template: 42.C)</title><text x="196.849" y="65.43" class="black" >C</text></g>
<g><title>43 (position.label in template: 43.U)</title><text x="202.679" y="70.24" class="green" >T</text></g>
<g><title>44 (position.label in template: 44.C)</title><text x="207.119" y="76.36" class="black" >C</text></g>
<g><title>45 (position.label in template: 45.G)</title><text x="209.689" y="83.39" class="black" >G</text></g>
<g><title>46 (position.label in template: 46.U)</title><text x="210.849" y="90.89" class="green" >T</text></g>
<g><title>47 (position.label in template: 47.A)</title><text x="210.109" y="98.39" class="black" >A</text></g>
<g><title>48 (position.label in template: 48.C)</title><text x="207.119" y="105.42" class="black" >C</text></g>
<g><title>49 (position.label in template: 49.C)</title><text x="202.679" y="111.54" class="black" >C</text></g>
<g><title>50 (position.label in template: 50.U)</title><text x="196.849" y="116.35" class="green" >T</text></g>
<g><text x="200.513" y="122.132" class="numbering-label sequential" >50</text></g>
<g><line x1="197.826" y1="117.892" x2="199.549" y2="120.611" class="numbering-line sequential" /></g>
<g><title>51 (position.label in template: 51.C)</title><text x="190.009" y="119.57" class="black" >C</text></g>
<g><title>52 (position.label in template: 52.G)</title><text x="182.379" y="120.99" class="black" >G</text></g>
<g><title>53 (position.label in template: 53.G)</title><text x="174.829" y="120.52" class="black" >G</text></g>
<g><title>54 (position.label in template: 54.C)</title><text x="167.849" y="118.18" class="black" >C</text></g>
<g><title>55 (position.label in template: 55.C)</title><text x="161.469" y="114.13" class="black" >C</text></g>
<g><title>56 (position.label in template: 56.A)</title><text x="156.499" y="108.62" class="black" >A</text></g>
<g><title>57 (position.label in template: 57.U)</title><text x="152.649" y="101.99" class="green" >T</text></g>
<g><title>58 (position.label in template: 58.C)</title><text x="150.769" y="94.67" class="green" >C</text></g>
<g><title>59 (position.label in template: 59.A)</title><text x="150.979" y="102.23" class="black" >A</text></g>
<g><title>60 (position.label in template: 60.G)</title><text x="150.559" y="109.79" class="black" >G</text></g>
<g><title>61 (position.label in template: 61.G)</title><text x="150.559" y="117.35" class="black" >G</text></g>
<g><title>62 (position.label in template: 62.G)</title><text x="150.559" y="124.91" class="green" >G</text></g>
<g><title>63 (position.label in template: 63.A)</title><text x="150.979" y="132.47" class="black" >A</text></g>
<g><title>64 (position.label in template: 64.A)</title><text x="150.979" y="140.03" class="green" >A</text></g>
<g><title>65 (position.label in template: 65.G)</title><text x="150.559" y="147.59" class="black" >G</text></g>
<g><title>66 (position.label in template: 66.A)</title><text x="150.979" y="155.15" class="black" >A</text></g>
<g><title>67 (position.label in template: 67.3')</title><text x="158.221" y="152.974" class="green" >3'</text></g>
<g><line x1="44.4664" y1="160.193" x2="47.9717" y2="160.193" class="gray" /></g>
<g><line x1="52.0283" y1="160.193" x2="55.5336" y2="160.193" class="gray" /></g>
<g><line x1="59.5903" y1="160.193" x2="63.0956" y2="160.193" class="gray" /></g>
<g><line x1="67.1523" y1="160.193" x2="70.6576" y2="160.193" class="gray" /></g>
<g><line x1="74.7142" y1="160.193" x2="78.2195" y2="160.193" class="gray" /></g>
<g><line x1="82.2762" y1="160.193" x2="85.7815" y2="160.193" class="gray" /></g>
<g><line x1="89.8382" y1="160.193" x2="93.3435" y2="160.193" class="gray" /></g>
<g><line x1="97.4001" y1="160.193" x2="100.905" y2="160.193" class="gray" /></g>
<g><line x1="104.962" y1="160.193" x2="108.467" y2="160.193" class="gray" /></g>
<g><line x1="112.524" y1="160.193" x2="116.029" y2="160.193" class="gray" /></g>
<g><line x1="120.086" y1="160.193" x2="123.591" y2="160.193" class="gray" /></g>
<g><line x1="127.648" y1="160.193" x2="131.153" y2="160.193" class="gray" /></g>
<g><line x1="134.616" y1="158.759" x2="137.095" y2="156.28" class="gray" /></g>
<g><line x1="138.529" y1="152.817" x2="138.529" y2="149.314" class="gray" /></g>
<g><line x1="138.529" y1="145.257" x2="138.529" y2="141.754" class="gray" /></g>
<g><line x1="138.585" y1="137.698" x2="138.682" y2="134.193" class="gray" /></g>
<g><line x1="138.682" y1="130.138" x2="138.585" y2="126.633" class="gray" /></g>
<g><line x1="138.529" y1="122.577" x2="138.529" y2="119.074" class="gray" /></g>
<g><line x1="138.529" y1="115.017" x2="138.529" y2="111.514" class="gray" /></g>
<g><line x1="138.529" y1="107.457" x2="138.529" y2="103.954" class="gray" /></g>
<g><line x1="138.529" y1="99.8974" x2="138.529" y2="96.3941" class="gray" /></g>
<g><line x1="138.585" y1="92.3382" x2="138.682" y2="88.8333" class="gray" /></g>
<g><line x1="138.682" y1="84.7782" x2="138.585" y2="81.2733" class="gray" /></g>
<g><line x1="138.529" y1="77.2174" x2="138.529" y2="73.7141" class="gray" /></g>
<g><line x1="137.217" y1="70.1384" x2="134.95" y2="67.4631" class="gray" /></g>
<g><line x1="133.531" y1="63.8903" x2="133.346" y2="60.3912" class="gray" /></g>
<g><line x1="134.379" y1="56.6885" x2="136.348" y2="53.793" class="gray" /></g>
<g><line x1="139.41" y1="51.4663" x2="142.727" y2="50.3452" class="gray" /></g>
<g><line x1="146.571" y1="50.3444" x2="149.897" y2="51.4671" class="gray" /></g>
<g><line x1="152.918" y1="53.8204" x2="154.75" y2="56.6611" class="gray" /></g>
<g><line x1="155.798" y1="60.3934" x2="155.71" y2="63.8881" class="gray" /></g>
<g><line x1="154.315" y1="67.4355" x2="151.902" y2="70.166" class="gray" /></g>
<g><line x1="150.559" y1="73.7141" x2="150.559" y2="77.2174" class="gray" /></g>
<g><line x1="150.615" y1="81.2733" x2="150.712" y2="84.7782" class="gray" /></g>
<g><line x1="151.326" y1="84.8554" x2="152.302" y2="81.4361" class="gray" /></g>
<g><line x1="153.791" y1="77.6842" x2="155.357" y2="74.6573" class="gray" /></g>
<g><line x1="157.678" y1="71.3779" x2="160.079" y2="68.8236" class="gray" /></g>
<g><line x1="163.164" y1="66.2327" x2="165.943" y2="64.4088" class="gray" /></g>
<g><line x1="169.568" y1="62.668" x2="172.9" y2="61.5835" class="gray" /></g>
<g><line x1="176.853" y1="60.8331" x2="180.564" y2="60.6084" class="gray" /></g>
<g><line x1="184.581" y1="60.867" x2="188.017" y2="61.5245" class="gray" /></g>
<g><line x1="191.844" y1="62.7697" x2="195.014" y2="64.2618" class="gray" /></g>
<g><line x1="198.413" y1="66.4166" x2="201.114" y2="68.6449" class="gray" /></g>
<g><line x1="203.87" y1="71.5775" x2="205.928" y2="74.414" class="gray" /></g>
<g><line x1="207.815" y1="77.9608" x2="208.992" y2="81.1807" class="gray" /></g>
<g><line x1="209.999" y1="85.0902" x2="210.539" y2="88.5813" class="gray" /></g>
<g><line x1="210.65" y1="92.6043" x2="210.308" y2="96.0672" class="gray" /></g>
<g><line x1="209.315" y1="99.9523" x2="207.913" y2="103.249" class="gray" /></g>
<g><line x1="205.928" y1="106.758" x2="203.87" y2="109.594" class="gray" /></g>
<g><line x1="201.114" y1="112.527" x2="198.413" y2="114.755" class="gray" /></g>
<g><line x1="195.014" y1="116.91" x2="191.844" y2="118.402" class="gray" /></g>
<g><line x1="188.015" y1="119.637" x2="184.373" y2="120.315" class="gray" /></g>
<g><line x1="180.354" y1="120.56" x2="176.853" y2="120.342" class="gray" /></g>
<g><line x1="172.906" y1="119.571" x2="169.772" y2="118.52" class="gray" /></g>
<g><line x1="166.136" y1="116.789" x2="163.181" y2="114.913" class="gray" /></g>
<g><line x1="160.11" y1="112.32" x2="157.857" y2="109.822" class="gray" /></g>
<g><line x1="155.48" y1="106.562" x2="153.667" y2="103.44" class="gray" /></g>
<g><line x1="152.144" y1="99.7212" x2="151.273" y2="96.3303" class="gray" /></g>
<g><line x1="150.825" y1="96.3933" x2="150.922" y2="99.8982" class="gray" /></g>
<g><line x1="150.866" y1="103.951" x2="150.671" y2="107.461" class="gray" /></g>
<g><line x1="150.559" y1="111.514" x2="150.559" y2="115.017" class="gray" /></g>
<g><line x1="150.559" y1="119.074" x2="150.559" y2="122.577" class="gray" /></g>
<g><line x1="150.671" y1="126.631" x2="150.866" y2="130.141" class="gray" /></g>
<g><line x1="150.979" y1="134.194" x2="150.979" y2="137.697" class="gray" /></g>
<g><line x1="150.866" y1="141.751" x2="150.671" y2="145.261" class="gray" /></g>
<g><line x1="150.671" y1="149.311" x2="150.866" y2="152.821" class="gray" /></g>
<g><line x1="152.921" y1="154.262" x2="156.278" y2="153.253" class="gray" /></g>
</svg>
