<svg
	xmlns="http://www.w3.org/2000/svg"
	width="225.91"
	height="242.287">
<g><style type="text/css" >
<!-- create color definitions -->
<![CDATA[
circle.red {stroke: rgb(255, 0, 255); fill: none; }
circle.green {stroke: rgb(0, 255, 0); fill: none; }
circle.blue {stroke: rgb(0, 0, 255); fill: none; }
circle.black {stroke: rgb(0, 0, 0); fill: none; }
circle.gray {stroke: rgb(204, 204, 204); fill: none; }
circle.brown {stroke: rgb(211.65, 104.55, 30.6); fill: none; }
line.red {stroke: rgb(255, 0, 255); stroke-width: 0.383399; }
line.green {stroke: rgb(0, 255, 0); stroke-width: 0.383399; }
line.blue {stroke: rgb(0, 0, 255); stroke-width: 0.383399; }
line.black {stroke: rgb(0, 0, 0); stroke-width: 0.383399; }
line.gray {stroke: rgb(204, 204, 204); stroke-width: 0.383399; }
line.brown {stroke: rgb(211.65, 104.55, 30.6); stroke-width: 0.383399; }
line {stroke: rgb(0, 0, 0); }
text.red {fill: rgb(255, 0, 255); font-size: 3.067191px; font-weight: bold; font-family: Helvetica; }
text.green {fill: rgb(0, 255, 0); font-size: 3.067191px; font-weight: bold; font-family: Helvetica; }
text.blue {fill: rgb(0, 0, 255); font-size: 3.067191px; font-weight: bold; font-family: Helvetica; }
text.black {fill: rgb(0, 0, 0); font-size: 3.067191px; font-weight: bold; font-family: Helvetica; }
text.gray {fill: rgb(204, 204, 204); font-size: 3.067191px; font-weight: bold; font-family: Helvetica; }
text.brown {fill: rgb(211.65, 104.55, 30.6); font-size: 3.067191px; font-weight: bold; font-family: Helvetica; }
text {fill: rgb(0, 0, 0); font-size: 3.067191px; font-weight: bold; font-family: Helvetica; text-anchor: middle; alignment-baseline: middle; }

.pseudoknot_connection{stroke-linecap: round; stroke-opacity: 0.2; stroke-width: 1.5; }
.pseudoknot_segment1{stroke-linecap: round; stroke-opacity: 0.4; stroke-width: 3.06719; }
.pseudoknot_segment2{stroke-linecap: round; stroke-opacity: 0.4; stroke-width: 3.06719; }
line.numbering-line{stroke: rgb(204, 204, 204); stroke-width: 0.191699; }
line.predicted{stroke: rgb(0, 0, 0); stroke-dasharray: 2; }
polyline{fill: none; stroke-linejoin: round; }
template{visibility: hidden; }
text.numbering-label{fill: rgb(204, 204, 204); }
]]>
</style></g>
<g><title>0 (position.label in template: 0.5')</title><text x="108.38" y="194.607" class="green" >5'</text></g>
<g><title>1 (position.label in template: 1.G)</title><text x="108.59" y="187.05" class="black" >G</text></g>
<g><line x1="110.635" y1="186.743" x2="118.995" y2="186.743" class="black" /></g>
<g><title>2 (position.label in template: 2.C)</title><text x="108.8" y="179.49" class="black" >C</text></g>
<g><line x1="110.845" y1="179.183" x2="118.785" y2="179.183" class="black" /></g>
<g><title>3 (position.label in template: 3.G)</title><text x="108.59" y="171.93" class="black" >G</text></g>
<g><line x1="110.635" y1="171.623" x2="118.995" y2="171.623" class="black" /></g>
<g><title>4 (position.label in template: 4.G)</title><text x="108.59" y="164.37" class="black" >G</text></g>
<g><line x1="110.635" y1="164.063" x2="118.995" y2="164.063" class="black" /></g>
<g><title>5 (position.label in template: 5.G)</title><text x="108.59" y="156.81" class="black" >G</text></g>
<g><line x1="110.635" y1="156.503" x2="118.995" y2="156.503" class="black" /></g>
<g><title>6 (position.label in template: 6.U)</title><text x="108.8" y="149.25" class="green" >T</text></g>
<g><line x1="110.845" y1="148.943" x2="119.205" y2="148.943" class="black" /></g>
<g><title>7 (position.label in template: 7.A)</title><text x="109.01" y="141.69" class="green" >A</text></g>
<g><line x1="111.055" y1="141.383" x2="118.995" y2="141.383" class="black" /></g>
<g><title>8 (position.label in template: 8.U)</title><text x="102.07" y="138.25" class="green" >T</text></g>
<g><title>9 (position.label in template: 9.G)</title><text x="96.76" y="132.67" class="black" >G</text></g>
<g><title>10 (position.label in template: 10.G)</title><text x="93.94" y="125.66" class="green" >G</text></g>
<g><line x1="94.1568" y1="123.32" x2="95.0232" y2="115.197" class="black" /></g>
<g><text x="89.7699" y="131.159" class="numbering-label sequential" >10</text></g>
<g><line x1="92.828" y1="127.126" x2="90.9329" y2="129.625" class="numbering-line sequential" /></g>
<g><title>11 (position.label in template: 11.U)</title><text x="86.62" y="124.98" class="green" >T</text></g>
<g><line x1="86.8368" y1="122.64" x2="87.7032" y2="114.517" class="black" /></g>
<g><title>12 (position.label in template: 12.U)</title><text x="79.09" y="124.3" class="green" >T</text></g>
<g><line x1="79.3068" y1="121.96" x2="80.1732" y2="113.837" class="black" /></g>
<g><title>13 (position.label in template: 13.U)</title><text x="71.56" y="123.63" class="green" >T</text></g>
<g><line x1="71.7072" y1="121.284" x2="72.2928" y2="113.173" class="black" /></g>
<g><title>14 (position.label in template: 14.A)</title><text x="65.58" y="127.98" class="black" >A</text></g>
<g><title>15 (position.label in template: 15.G)</title><text x="57.61" y="127.71" class="black" >G</text></g>
<g><title>16 (position.label in template: 16.U)</title><text x="51.97" y="122.92" class="green" >T</text></g>
<g><title>17 (position.label in template: 17.G)</title><text x="50" y="115.56" class="black" >G</text></g>
<g><title>18 (position.label in template: 18.G)</title><text x="53.04" y="108.64" class="black" >G</text></g>
<g><title>19 (position.label in template: 19.U)</title><text x="59.86" y="104.98" class="green" >T</text></g>
<g><title>20 (position.label in template: 20.A)</title><text x="67.55" y="106.05" class="black" >A</text></g>
<g><text x="70.7025" y="99.9109" class="numbering-label sequential" >20</text></g>
<g><line x1="68.3907" y1="104.413" x2="69.915" y2="101.445" class="numbering-line sequential" /></g>
<g><title>21 (position.label in template: 21.G)</title><text x="72.44" y="111.44" class="green" >G</text></g>
<g><title>22 (position.label in template: 22.A)</title><text x="80.39" y="112.11" class="green" >A</text></g>
<g><title>23 (position.label in template: 23.A)</title><text x="87.92" y="112.79" class="green" >A</text></g>
<g><title>24 (position.label in template: 24.U)</title><text x="95.24" y="113.47" class="green" >T</text></g>
<g><title>25 (position.label in template: 25.G)</title><text x="99.06" y="107.07" class="black" >G</text></g>
<g><title>26 (position.label in template: 26.C)</title><text x="105.28" y="102.48" class="black" >C</text></g>
<g><line x1="107.291" y1="101.803" x2="115.109" y2="100.364" class="black" /></g>
<g><title>27 (position.label in template: 27.G)</title><text x="103.72" y="95.05" class="black" >G</text></g>
<g><line x1="105.733" y1="94.3837" x2="113.967" y2="92.9129" class="black" /></g>
<g><title>28 (position.label in template: 28.U)</title><text x="102.59" y="87.61" class="green" >T</text></g>
<g><line x1="104.603" y1="86.945" x2="112.827" y2="85.4815" class="black" /></g>
<g><title>29 (position.label in template: 29.C)</title><text x="101.24" y="80.17" class="black" >C</text></g>
<g><line x1="103.251" y1="79.4927" x2="111.059" y2="78.0539" class="black" /></g>
<g><title>30 (position.label in template: 30.C)</title><text x="99.89" y="72.73" class="black" >C</text></g>
<g><line x1="101.901" y1="72.053" x2="109.719" y2="70.6135" class="black" /></g>
<g><text x="93.9361" y="76.2197" class="numbering-label sequential" >30</text></g>
<g><line x1="98.3023" y1="73.6606" x2="95.7765" y2="75.141" class="numbering-line sequential" /></g>
<g><title>31 (position.label in template: 31.U)</title><text x="94.06" y="67.92" class="green" >T</text></g>
<g><title>32 (position.label in template: 32.U)</title><text x="92.31" y="60.57" class="green" >T</text></g>
<g><title>33 (position.label in template: 33.G)</title><text x="95.17" y="53.66" class="black" >G</text></g>
<g><title>34 (position.label in template: 34.C)</title><text x="102" y="50" class="black" >C</text></g>
<g><title>35 (position.label in template: 35.C)</title><text x="109.48" y="51.1" class="black" >C</text></g>
<g><title>36 (position.label in template: 36.A)</title><text x="114.98" y="56.5" class="black" >A</text></g>
<g><title>37 (position.label in template: 37.A)</title><text x="115.92" y="64" class="black" >A</text></g>
<g><title>38 (position.label in template: 38.G)</title><text x="111.73" y="70.55" class="black" >G</text></g>
<g><title>39 (position.label in template: 39.G)</title><text x="113.07" y="77.99" class="black" >G</text></g>
<g><title>40 (position.label in template: 40.A)</title><text x="114.84" y="85.43" class="green" >A</text></g>
<g><title>41 (position.label in template: 41.C)</title><text x="115.98" y="92.86" class="black" >C</text></g>
<g><title>42 (position.label in template: 42.G)</title><text x="117.12" y="100.3" class="black" >G</text></g>
<g><title>43 (position.label in template: 43.A)</title><text x="124.77" y="102.48" class="black" >A</text></g>
<g><title>44 (position.label in template: 44.G)</title><text x="130.37" y="107.07" class="black" >G</text></g>
<g><title>45 (position.label in template: 45.A)</title><text x="134.81" y="113.47" class="black" >A</text></g>
<g><title>46 (position.label in template: 46.C)</title><text x="136.13" y="120.87" class="black" >C</text></g>
<g><title>47 (position.label in template: 47.C)</title><text x="134.96" y="128.34" class="black" >C</text></g>
<g><line x1="133.738" y1="129.672" x2="128.792" y2="136.304" class="black" /></g>
<g><title>48 (position.label in template: 48.C)</title><text x="141.08" y="132.77" class="black" >C</text></g>
<g><line x1="139.858" y1="134.103" x2="134.912" y2="140.743" class="black" /></g>
<g><title>49 (position.label in template: 49.G)</title><text x="146.99" y="137.21" class="black" >G</text></g>
<g><line x1="145.814" y1="138.576" x2="141.196" y2="145.141" class="black" /></g>
<g><title>50 (position.label in template: 50.A)</title><text x="153.53" y="141.65" class="green" >A</text></g>
<g><line x1="152.308" y1="142.982" x2="147.362" y2="149.614" class="black" /></g>
<g><text x="157.577" y="136.06" class="numbering-label sequential" >50</text></g>
<g><line x1="154.609" y1="140.159" x2="156.467" y2="137.594" class="numbering-line sequential" /></g>
<g><title>51 (position.label in template: 51.G)</title><text x="159.24" y="146.08" class="black" >G</text></g>
<g><line x1="158.063" y1="147.445" x2="153.437" y2="154.012" class="black" /></g>
<g><title>52 (position.label in template: 52.U)</title><text x="166.98" y="145.51" class="green" >T</text></g>
<g><title>53 (position.label in template: 53.U)</title><text x="173.33" y="149.61" class="green" >T</text></g>
<g><title>54 (position.label in template: 54.C)</title><text x="175.91" y="156.72" class="black" >C</text></g>
<g><title>55 (position.label in template: 55.G)</title><text x="173.45" y="163.94" class="black" >G</text></g>
<g><title>56 (position.label in template: 56.A)</title><text x="167.7" y="168.33" class="black" >A</text></g>
<g><title>57 (position.label in template: 57.U)</title><text x="159.94" y="168.09" class="green" >T</text></g>
<g><title>58 (position.label in template: 58.U)</title><text x="154.07" y="163.34" class="green" >T</text></g>
<g><title>59 (position.label in template: 59.C)</title><text x="152.26" y="155.99" class="black" >C</text></g>
<g><title>60 (position.label in template: 60.U)</title><text x="146.14" y="151.56" class="green" >T</text></g>
<g><title>61 (position.label in template: 61.C)</title><text x="140.02" y="147.12" class="black" >C</text></g>
<g><title>62 (position.label in template: 62.G)</title><text x="133.69" y="142.69" class="black" >G</text></g>
<g><title>63 (position.label in template: 63.G)</title><text x="127.57" y="138.25" class="black" >G</text></g>
<g><title>64 (position.label in template: 64.U)</title><text x="121.04" y="141.69" class="green" >T</text></g>
<g><title>65 (position.label in template: 65.A)</title><text x="121.25" y="149.25" class="green" >A</text></g>
<g><title>66 (position.label in template: 66.C)</title><text x="121.04" y="156.81" class="black" >C</text></g>
<g><title>67 (position.label in template: 67.C)</title><text x="121.04" y="164.37" class="black" >C</text></g>
<g><title>68 (position.label in template: 68.C)</title><text x="121.04" y="171.93" class="black" >C</text></g>
<g><title>69 (position.label in template: 69.G)</title><text x="120.83" y="179.49" class="black" >G</text></g>
<g><title>70 (position.label in template: 70.C)</title><text x="121.04" y="187.05" class="black" >C</text></g>
<g><title>71 (position.label in template: 71.A)</title><text x="126.493" y="192.287" class="black" >A</text></g>
<g><title>72 (position.label in template: 72.3')</title><text x="121.278" y="197.761" class="green" >3'</text></g>
<g><line x1="108.437" y1="192.256" x2="108.533" y2="188.787" class="gray" /></g>
<g><line x1="108.647" y1="184.699" x2="108.743" y2="181.227" class="gray" /></g>
<g><line x1="108.743" y1="177.139" x2="108.647" y2="173.667" class="gray" /></g>
<g><line x1="108.59" y1="169.578" x2="108.59" y2="166.108" class="gray" /></g>
<g><line x1="108.59" y1="162.018" x2="108.59" y2="158.548" class="gray" /></g>
<g><line x1="108.647" y1="154.459" x2="108.743" y2="150.987" class="gray" /></g>
<g><line x1="108.857" y1="146.899" x2="108.953" y2="143.427" class="gray" /></g>
<g><line x1="107.178" y1="140.475" x2="103.902" y2="138.851" class="gray" /></g>
<g><line x1="100.66" y1="136.462" x2="98.1696" y2="133.845" class="gray" /></g>
<g><line x1="95.9969" y1="130.466" x2="94.7031" y2="127.25" class="gray" /></g>
<g><line x1="91.904" y1="125.164" x2="88.656" y2="124.862" class="gray" /></g>
<g><line x1="84.5835" y1="124.489" x2="81.1265" y2="124.177" class="gray" /></g>
<g><line x1="77.0533" y1="123.812" x2="73.5967" y2="123.505" class="gray" /></g>
<g><line x1="69.9064" y1="124.526" x2="67.2336" y2="126.47" class="gray" /></g>
<g><line x1="63.5364" y1="127.604" x2="59.6536" y2="127.473" class="gray" /></g>
<g><line x1="56.0514" y1="126.08" x2="53.5286" y2="123.937" class="gray" /></g>
<g><line x1="51.4413" y1="120.638" x2="50.5287" y2="117.229" class="gray" /></g>
<g><line x1="50.8224" y1="113.381" x2="52.2176" y2="110.205" class="gray" /></g>
<g><line x1="54.8417" y1="107.366" x2="58.0583" y2="105.64" class="gray" /></g>
<g><line x1="61.8853" y1="104.955" x2="65.5247" y2="105.461" class="gray" /></g>
<g><line x1="68.9239" y1="107.258" x2="71.0661" y2="109.619" class="gray" /></g>
<g><line x1="74.4776" y1="111.305" x2="78.3524" y2="111.632" class="gray" /></g>
<g><line x1="82.4265" y1="111.987" x2="85.8835" y2="112.299" class="gray" /></g>
<g><line x1="89.956" y1="112.672" x2="93.204" y2="112.974" class="gray" /></g>
<g><line x1="96.288" y1="111.407" x2="98.012" y2="108.519" class="gray" /></g>
<g><line x1="100.705" y1="105.549" x2="103.635" y2="103.387" class="gray" /></g>
<g><line x1="104.86" y1="100.172" x2="104.14" y2="96.7444" class="gray" /></g>
<g><line x1="103.413" y1="92.7217" x2="102.897" y2="89.3249" class="gray" /></g>
<g><line x1="102.225" y1="85.2913" x2="101.605" y2="81.8752" class="gray" /></g>
<g><line x1="100.875" y1="77.8513" x2="100.255" y2="74.4352" class="gray" /></g>
<g><line x1="98.3127" y1="71.122" x2="95.6373" y2="68.9146" class="gray" /></g>
<g><line x1="93.5864" y1="65.6241" x2="92.7836" y2="62.2525" class="gray" /></g>
<g><line x1="93.092" y1="58.3739" x2="94.388" y2="55.2426" class="gray" /></g>
<g><line x1="96.9723" y1="52.3875" x2="100.198" y2="50.6591" class="gray" /></g>
<g><line x1="104.023" y1="49.9908" x2="107.457" y2="50.4958" class="gray" /></g>
<g><line x1="110.939" y1="52.2258" x2="113.521" y2="54.7607" class="gray" /></g>
<g><line x1="115.234" y1="58.2222" x2="115.666" y2="61.6644" class="gray" /></g>
<g><line x1="114.818" y1="65.4158" x2="112.832" y2="68.5208" class="gray" /></g>
<g><line x1="112.092" y1="72.2557" x2="112.708" y2="75.6709" class="gray" /></g>
<g><line x1="113.543" y1="79.6726" x2="114.367" y2="83.134" class="gray" /></g>
<g><line x1="115.15" y1="87.1444" x2="115.67" y2="90.5321" class="gray" /></g>
<g><line x1="116.29" y1="94.5745" x2="116.81" y2="97.9721" class="gray" /></g>
<g><line x1="119.087" y1="100.554" x2="122.803" y2="101.613" class="gray" /></g>
<g><line x1="126.351" y1="103.47" x2="128.789" y2="105.467" class="gray" /></g>
<g><line x1="131.536" y1="108.443" x2="133.644" y2="111.483" class="gray" /></g>
<g><line x1="135.169" y1="115.176" x2="135.771" y2="118.55" class="gray" /></g>
<g><line x1="135.814" y1="122.583" x2="135.276" y2="126.013" class="gray" /></g>
<g><line x1="136.616" y1="129.232" x2="139.424" y2="131.264" class="gray" /></g>
<g><line x1="142.715" y1="133.691" x2="145.355" y2="135.675" class="gray" /></g>
<g><line x1="148.682" y1="138.052" x2="151.838" y2="140.195" class="gray" /></g>
<g><line x1="155.146" y1="142.597" x2="157.624" y2="144.52" class="gray" /></g>
<g><line x1="161.279" y1="145.623" x2="164.941" y2="145.353" class="gray" /></g>
<g><line x1="168.698" y1="146.312" x2="171.612" y2="148.194" class="gray" /></g>
<g><line x1="174.027" y1="151.225" x2="175.213" y2="154.491" class="gray" /></g>
<g><line x1="175.251" y1="158.349" x2="174.109" y2="161.698" class="gray" /></g>
<g><line x1="171.825" y1="164.874" x2="169.325" y2="166.782" class="gray" /></g>
<g><line x1="165.656" y1="167.96" x2="161.984" y2="167.846" class="gray" /></g>
<g><line x1="158.35" y1="166.497" x2="155.66" y2="164.32" class="gray" /></g>
<g><line x1="153.581" y1="161.048" x2="152.749" y2="157.669" class="gray" /></g>
<g><line x1="150.604" y1="154.484" x2="147.796" y2="152.452" class="gray" /></g>
<g><line x1="144.485" y1="150.053" x2="141.675" y2="148.014" class="gray" /></g>
<g><line x1="138.345" y1="145.641" x2="135.365" y2="143.556" class="gray" /></g>
<g><line x1="132.035" y1="141.183" x2="129.225" y2="139.144" class="gray" /></g>
<g><line x1="125.761" y1="138.896" x2="122.849" y2="140.43" class="gray" /></g>
<g><line x1="121.097" y1="143.427" x2="121.193" y2="146.899" class="gray" /></g>
<g><line x1="121.193" y1="150.987" x2="121.097" y2="154.459" class="gray" /></g>
<g><line x1="121.04" y1="158.548" x2="121.04" y2="162.018" class="gray" /></g>
<g><line x1="121.04" y1="166.108" x2="121.04" y2="169.578" class="gray" /></g>
<g><line x1="120.983" y1="173.667" x2="120.887" y2="177.139" class="gray" /></g>
<g><line x1="120.887" y1="181.227" x2="120.983" y2="184.699" class="gray" /></g>
<g><line x1="122.515" y1="188.16" x2="125.018" y2="190.564" class="gray" /></g>
<g><line x1="125.082" y1="193.461" x2="122.688" y2="195.973" class="gray" /></g>
</svg>
