<svg
	xmlns="http://www.w3.org/2000/svg"
	width="224.03"
	height="241.33">
<g><style type="text/css" >
<!-- create color definitions -->
<![CDATA[
circle.red {stroke: rgb(255, 0, 255); fill: none; }
circle.green {stroke: rgb(0, 255, 0); fill: none; }
circle.blue {stroke: rgb(0, 0, 255); fill: none; }
circle.black {stroke: rgb(0, 0, 0); fill: none; }
circle.gray {stroke: rgb(204, 204, 204); fill: none; }
circle.brown {stroke: rgb(211.65, 104.55, 30.6); fill: none; }
line.red {stroke: rgb(255, 0, 255); stroke-width: 0.382585; }
line.green {stroke: rgb(0, 255, 0); stroke-width: 0.382585; }
line.blue {stroke: rgb(0, 0, 255); stroke-width: 0.382585; }
line.black {stroke: rgb(0, 0, 0); stroke-width: 0.382585; }
line.gray {stroke: rgb(204, 204, 204); stroke-width: 0.382585; }
line.brown {stroke: rgb(211.65, 104.55, 30.6); stroke-width: 0.382585; }
line {stroke: rgb(0, 0, 0); }
text.red {fill: rgb(255, 0, 255); font-size: 3.060677px; font-weight: bold; font-family: Helvetica; }
text.green {fill: rgb(0, 255, 0); font-size: 3.060677px; font-weight: bold; font-family: Helvetica; }
text.blue {fill: rgb(0, 0, 255); font-size: 3.060677px; font-weight: bold; font-family: Helvetica; }
text.black {fill: rgb(0, 0, 0); font-size: 3.060677px; font-weight: bold; font-family: Helvetica; }
text.gray {fill: rgb(204, 204, 204); font-size: 3.060677px; font-weight: bold; font-family: Helvetica; }
text.brown {fill: rgb(211.65, 104.55, 30.6); font-size: 3.060677px; font-weight: bold; font-family: Helvetica; }
text {fill: rgb(0, 0, 0); font-size: 3.060677px; font-weight: bold; font-family: Helvetica; text-anchor: middle; alignment-baseline: middle; }

.pseudoknot_connection{stroke-linecap: round; stroke-opacity: 0.2; stroke-width: 1.5; }
.pseudoknot_segment1{stroke-linecap: round; stroke-opacity: 0.4; stroke-width: 3.06068; }
.pseudoknot_segment2{stroke-linecap: round; stroke-opacity: 0.4; stroke-width: 3.06068; }
line.numbering-line{stroke: rgb(204, 204, 204); stroke-width: 0.191292; }
line.predicted{stroke: rgb(0, 0, 0); stroke-dasharray: 2; }
polyline{fill: none; stroke-linejoin: round; }
template{visibility: hidden; }
text.numbering-label{fill: rgb(204, 204, 204); }
]]>
</style></g>
<g><title>0 (position.label in template: 0.5')</title><text x="108.99" y="193.328" class="green" >5'</text></g>
<g><title>1 (position.label in template: 1.U)</title><text x="108.78" y="185.77" class="green" >T</text></g>
<g><line x1="110.82" y1="185.464" x2="119.19" y2="185.464" class="black" /></g>
<g><title>2 (position.label in template: 2.G)</title><text x="108.57" y="178.21" class="black" >G</text></g>
<g><line x1="110.61" y1="177.904" x2="118.98" y2="177.904" class="black" /></g>
<g><title>3 (position.label in template: 3.G)</title><text x="108.57" y="170.65" class="black" >G</text></g>
<g><line x1="110.61" y1="170.344" x2="118.98" y2="170.344" class="black" /></g>
<g><title>4 (position.label in template: 4.G)</title><text x="108.57" y="163.09" class="black" >G</text></g>
<g><line x1="110.61" y1="162.784" x2="118.98" y2="162.784" class="black" /></g>
<g><title>5 (position.label in template: 5.C)</title><text x="108.78" y="155.53" class="black" >C</text></g>
<g><line x1="110.82" y1="155.224" x2="118.77" y2="155.224" class="black" /></g>
<g><title>6 (position.label in template: 6.U)</title><text x="108.78" y="147.97" class="green" >T</text></g>
<g><line x1="110.82" y1="147.664" x2="119.19" y2="147.664" class="black" /></g>
<g><title>7 (position.label in template: 7.A)</title><text x="108.99" y="140.41" class="green" >A</text></g>
<g><line x1="111.03" y1="140.104" x2="118.98" y2="140.104" class="black" /></g>
<g><title>8 (position.label in template: 8.U)</title><text x="101.89" y="137.31" class="green" >T</text></g>
<g><title>9 (position.label in template: 9.A)</title><text x="96.54" y="132.18" class="black" >A</text></g>
<g><title>10 (position.label in template: 10.G)</title><text x="92.47" y="125.56" class="black" >G</text></g>
<g><line x1="92.3415" y1="123.218" x2="91.8285" y2="115.09" class="black" /></g>
<g><text x="89.2562" y="131.651" class="numbering-label sequential" >10</text></g>
<g><line x1="91.613" y1="127.184" x2="90.0637" y2="130.12" class="numbering-line sequential" /></g>
<g><title>11 (position.label in template: 11.C)</title><text x="85.15" y="126.17" class="black" >C</text></g>
<g><line x1="84.9519" y1="123.833" x2="84.1581" y2="115.695" class="black" /></g>
<g><title>12 (position.label in template: 12.C)</title><text x="77.61" y="126.78" class="black" >C</text></g>
<g><line x1="77.4119" y1="124.443" x2="76.6181" y2="116.305" class="black" /></g>
<g><title>13 (position.label in template: 13.A)</title><text x="73.34" y="132.86" class="black" >A</text></g>
<g><title>14 (position.label in template: 14.A)</title><text x="66.36" y="135.79" class="black" >A</text></g>
<g><title>15 (position.label in template: 15.G)</title><text x="58.46" y="134.71" class="black" >G</text></g>
<g><title>16 (position.label in template: 16.C)</title><text x="52.8" y="129.95" class="black" >C</text></g>
<g><title>17 (position.label in template: 17.G)</title><text x="50" y="122.85" class="black" >G</text></g>
<g><title>18 (position.label in template: 18.G)</title><text x="51.42" y="115.42" class="black" >G</text></g>
<g><title>19 (position.label in template: 19.U)</title><text x="56.66" y="109.78" class="green" >T</text></g>
<g><title>20 (position.label in template: 20.A)</title><text x="64.08" y="107.52" class="black" >A</text></g>
<g><text x="63.8517" y="100.637" class="numbering-label sequential" >20</text></g>
<g><line x1="64.0191" y1="105.685" x2="63.9024" y2="102.168" class="numbering-line sequential" /></g>
<g><title>21 (position.label in template: 21.A)</title><text x="71.43" y="109.29" class="black" >A</text></g>
<g><title>22 (position.label in template: 22.G)</title><text x="76.42" y="114.58" class="black" >G</text></g>
<g><title>23 (position.label in template: 23.G)</title><text x="83.96" y="113.97" class="black" >G</text></g>
<g><title>24 (position.label in template: 24.C)</title><text x="91.7" y="113.36" class="black" >C</text></g>
<g><title>25 (position.label in template: 25.A)</title><text x="94.45" y="106.24" class="black" >A</text></g>
<g><title>26 (position.label in template: 26.A)</title><text x="99.11" y="100.29" class="green" >A</text></g>
<g><line x1="100.91" y1="99.023" x2="107.95" y2="95.2648" class="black" /></g>
<g><title>27 (position.label in template: 27.C)</title><text x="95.4" y="93.6" class="black" >C</text></g>
<g><line x1="97.1989" y1="92.331" x2="104.231" y2="88.5669" class="black" /></g>
<g><title>28 (position.label in template: 28.G)</title><text x="91.68" y="86.9" class="black" >G</text></g>
<g><line x1="93.4947" y1="85.6611" x2="100.915" y2="81.8468" class="black" /></g>
<g><title>29 (position.label in template: 29.G)</title><text x="88.17" y="80.2" class="black" >G</text></g>
<g><line x1="89.9847" y1="78.9611" x2="97.4053" y2="75.1468" class="black" /></g>
<g><title>30 (position.label in template: 30.A)</title><text x="85.07" y="73.51" class="green" >A</text></g>
<g><line x1="86.87" y1="72.243" x2="93.91" y2="68.4848" class="black" /></g>
<g><text x="80.3955" y="78.567" class="numbering-label sequential" >30</text></g>
<g><line x1="83.8235" y1="74.8585" x2="81.8101" y2="77.0367" class="numbering-line sequential" /></g>
<g><title>31 (position.label in template: 31.C)</title><text x="77.86" y="70.67" class="black" >C</text></g>
<g><title>32 (position.label in template: 32.U)</title><text x="74" y="64.17" class="green" >T</text></g>
<g><title>33 (position.label in template: 33.C)</title><text x="74.86" y="56.66" class="black" >C</text></g>
<g><title>34 (position.label in template: 34.U)</title><text x="80.08" y="51.19" class="green" >T</text></g>
<g><title>35 (position.label in template: 35.G)</title><text x="87.34" y="50" class="black" >G</text></g>
<g><title>36 (position.label in template: 36.A)</title><text x="94.42" y="53.57" class="black" >A</text></g>
<g><title>37 (position.label in template: 37.C)</title><text x="97.36" y="60.45" class="black" >C</text></g>
<g><title>38 (position.label in template: 38.U)</title><text x="95.71" y="67.83" class="green" >T</text></g>
<g><title>39 (position.label in template: 39.C)</title><text x="99.22" y="74.52" class="black" >C</text></g>
<g><title>40 (position.label in template: 40.C)</title><text x="102.73" y="81.22" class="black" >C</text></g>
<g><title>41 (position.label in template: 41.G)</title><text x="106.03" y="87.91" class="black" >G</text></g>
<g><title>42 (position.label in template: 42.U)</title><text x="109.75" y="94.61" class="green" >T</text></g>
<g><title>43 (position.label in template: 43.C)</title><text x="117.29" y="94.16" class="black" >C</text></g>
<g><title>44 (position.label in template: 44.A)</title><text x="124.8" y="96.12" class="black" >A</text></g>
<g><title>45 (position.label in template: 45.U)</title><text x="130.9" y="100.29" class="green" >T</text></g>
<g><title>46 (position.label in template: 46.U)</title><text x="135.56" y="106.24" class="green" >T</text></g>
<g><title>47 (position.label in template: 47.U)</title><text x="138.11" y="113.36" class="green" >T</text></g>
<g><title>48 (position.label in template: 48.C)</title><text x="138.26" y="120.92" class="black" >C</text></g>
<g><title>49 (position.label in template: 49.G)</title><text x="135.81" y="128.14" class="black" >G</text></g>
<g><line x1="134.479" y1="129.381" x2="129.251" y2="135.457" class="black" /></g>
<g><title>50 (position.label in template: 50.U)</title><text x="141.69" y="133.15" class="green" >T</text></g>
<g><line x1="140.358" y1="134.39" x2="135.122" y2="140.468" class="black" /></g>
<g><text x="146.158" y="127.91" class="numbering-label sequential" >50</text></g>
<g><line x1="142.882" y1="131.753" x2="144.853" y2="129.44" class="numbering-line sequential" /></g>
<g><title>51 (position.label in template: 51.A)</title><text x="147.56" y="138.16" class="green" >A</text></g>
<g><line x1="146.189" y1="139.365" x2="140.611" y2="145.513" class="black" /></g>
<g><title>52 (position.label in template: 52.G)</title><text x="152.8" y="143.17" class="black" >G</text></g>
<g><line x1="151.468" y1="144.41" x2="146.242" y2="150.478" class="black" /></g>
<g><title>53 (position.label in template: 53.G)</title><text x="158.47" y="148.17" class="black" >G</text></g>
<g><line x1="157.138" y1="149.41" x2="151.902" y2="155.488" class="black" /></g>
<g><title>54 (position.label in template: 54.U)</title><text x="166.23" y="148.33" class="green" >T</text></g>
<g><title>55 (position.label in template: 55.U)</title><text x="172.16" y="153.03" class="green" >T</text></g>
<g><title>56 (position.label in template: 56.C)</title><text x="174.03" y="160.36" class="black" >C</text></g>
<g><title>57 (position.label in template: 57.G)</title><text x="170.88" y="167.32" class="black" >G</text></g>
<g><title>58 (position.label in template: 58.A)</title><text x="164.74" y="171.09" class="black" >A</text></g>
<g><title>59 (position.label in template: 59.A)</title><text x="157.25" y="170.13" class="black" >A</text></g>
<g><title>60 (position.label in template: 60.U)</title><text x="151.65" y="164.83" class="green" >T</text></g>
<g><title>61 (position.label in template: 61.C)</title><text x="150.57" y="157.34" class="black" >C</text></g>
<g><title>62 (position.label in template: 62.C)</title><text x="144.91" y="152.33" class="black" >C</text></g>
<g><title>63 (position.label in template: 63.U)</title><text x="139.24" y="147.33" class="green" >T</text></g>
<g><title>64 (position.label in template: 64.A)</title><text x="133.79" y="142.32" class="green" >A</text></g>
<g><title>65 (position.label in template: 65.C)</title><text x="127.92" y="137.31" class="black" >C</text></g>
<g><title>66 (position.label in template: 66.U)</title><text x="121.02" y="140.41" class="green" >T</text></g>
<g><title>67 (position.label in template: 67.A)</title><text x="121.23" y="147.97" class="green" >A</text></g>
<g><title>68 (position.label in template: 68.G)</title><text x="120.81" y="155.53" class="black" >G</text></g>
<g><title>69 (position.label in template: 69.C)</title><text x="121.02" y="163.09" class="black" >C</text></g>
<g><title>70 (position.label in template: 70.C)</title><text x="121.02" y="170.65" class="black" >C</text></g>
<g><title>71 (position.label in template: 71.C)</title><text x="121.02" y="178.21" class="black" >C</text></g>
<g><title>72 (position.label in template: 72.A)</title><text x="121.23" y="185.77" class="green" >A</text></g>
<g><title>73 (position.label in template: 73.G)</title><text x="126.353" y="191.33" class="black" >G</text></g>
<g><title>74 (position.label in template: 74.3')</title><text x="121.133" y="196.799" class="green" >3'</text></g>
<g><line x1="108.933" y1="190.982" x2="108.837" y2="187.504" class="gray" /></g>
<g><line x1="108.723" y1="183.424" x2="108.627" y2="179.944" class="gray" /></g>
<g><line x1="108.57" y1="175.863" x2="108.57" y2="172.384" class="gray" /></g>
<g><line x1="108.57" y1="168.303" x2="108.57" y2="164.824" class="gray" /></g>
<g><line x1="108.627" y1="160.744" x2="108.723" y2="157.264" class="gray" /></g>
<g><line x1="108.78" y1="153.183" x2="108.78" y2="149.704" class="gray" /></g>
<g><line x1="108.837" y1="145.624" x2="108.933" y2="142.144" class="gray" /></g>
<g><line x1="107.12" y1="139.287" x2="103.76" y2="137.82" class="gray" /></g>
<g><line x1="100.417" y1="135.592" x2="98.0128" y2="133.286" class="gray" /></g>
<g><line x1="95.4713" y1="130.136" x2="93.5387" y2="126.992" class="gray" /></g>
<g><line x1="90.4366" y1="125.423" x2="87.1834" y2="125.694" class="gray" /></g>
<g><line x1="83.1162" y1="126.028" x2="79.6438" y2="126.309" class="gray" /></g>
<g><line x1="76.4373" y1="128.144" x2="74.5127" y2="130.884" class="gray" /></g>
<g><line x1="71.4586" y1="133.344" x2="68.2414" y2="134.694" class="gray" /></g>
<g><line x1="64.3384" y1="135.208" x2="60.4816" y2="134.68" class="gray" /></g>
<g><line x1="56.8984" y1="133.091" x2="54.3616" y2="130.957" class="gray" /></g>
<g><line x1="52.0514" y1="127.746" x2="50.7486" y2="124.442" class="gray" /></g>
<g><line x1="50.383" y1="120.54" x2="51.037" y2="117.118" class="gray" /></g>
<g><line x1="52.8088" y1="113.619" x2="55.2712" y2="110.969" class="gray" /></g>
<g><line x1="58.6119" y1="108.879" x2="62.1281" y2="107.808" class="gray" /></g>
<g><line x1="66.0637" y1="107.692" x2="69.4463" y2="108.506" class="gray" /></g>
<g><line x1="72.8301" y1="110.468" x2="75.0199" y2="112.79" class="gray" /></g>
<g><line x1="78.4538" y1="114.109" x2="81.9262" y2="113.828" class="gray" /></g>
<g><line x1="85.9941" y1="113.504" x2="89.6659" y2="113.214" class="gray" /></g>
<g><line x1="92.4352" y1="111.151" x2="93.7148" y2="107.837" class="gray" /></g>
<g><line x1="95.7081" y1="104.328" x2="97.8519" y2="101.59" class="gray" /></g>
<g><line x1="98.1204" y1="98.1995" x2="96.3896" y2="95.0784" class="gray" /></g>
<g><line x1="94.4095" y1="91.51" x2="92.6705" y2="88.3779" class="gray" /></g>
<g><line x1="90.7331" y1="84.7865" x2="89.1169" y2="81.7014" class="gray" /></g>
<g><line x1="87.3121" y1="78.0426" x2="85.9279" y2="75.0553" class="gray" /></g>
<g><line x1="83.1715" y1="72.4561" x2="79.7585" y2="71.1117" class="gray" /></g>
<g><line x1="76.8181" y1="68.6095" x2="75.0419" y2="65.6184" class="gray" /></g>
<g><line x1="74.2321" y1="61.8367" x2="74.6279" y2="58.3811" class="gray" /></g>
<g><line x1="76.2687" y1="54.8778" x2="78.6713" y2="52.3601" class="gray" /></g>
<g><line x1="82.0936" y1="50.5539" x2="85.3264" y2="50.024" class="gray" /></g>
<g><line x1="89.1619" y1="50.6126" x2="92.5981" y2="52.3452" class="gray" /></g>
<g><line x1="95.2218" y1="55.1402" x2="96.5582" y2="58.2676" class="gray" /></g>
<g><line x1="96.9148" y1="62.1352" x2="96.1552" y2="65.5326" class="gray" /></g>
<g><line x1="96.658" y1="69.3308" x2="98.272" y2="72.4071" class="gray" /></g>
<g><line x1="100.167" y1="76.0214" x2="101.783" y2="79.1065" class="gray" /></g>
<g><line x1="103.633" y1="82.7439" x2="105.127" y2="85.774" class="gray" /></g>
<g><line x1="107.02" y1="89.3879" x2="108.76" y2="92.52" class="gray" /></g>
<g><line x1="111.787" y1="94.1824" x2="115.253" y2="93.9755" class="gray" /></g>
<g><line x1="119.264" y1="94.3692" x2="122.826" y2="95.2987" class="gray" /></g>
<g><line x1="126.484" y1="96.9654" x2="129.216" y2="98.8324" class="gray" /></g>
<g><line x1="132.158" y1="101.59" x2="134.302" y2="104.328" class="gray" /></g>
<g><line x1="136.248" y1="107.855" x2="137.422" y2="111.133" class="gray" /></g>
<g><line x1="138.15" y1="115.094" x2="138.22" y2="118.574" class="gray" /></g>
<g><line x1="137.604" y1="122.546" x2="136.466" y2="125.902" class="gray" /></g>
<g><line x1="137.363" y1="129.157" x2="140.137" y2="131.521" class="gray" /></g>
<g><line x1="143.242" y1="134.169" x2="146.008" y2="136.529" class="gray" /></g>
<g><line x1="149.035" y1="139.264" x2="151.325" y2="141.454" class="gray" /></g>
<g><line x1="154.33" y1="144.213" x2="156.94" y2="146.514" class="gray" /></g>
<g><line x1="160.51" y1="147.906" x2="164.19" y2="147.982" class="gray" /></g>
<g><line x1="167.829" y1="149.291" x2="170.561" y2="151.457" class="gray" /></g>
<g><line x1="172.664" y1="154.701" x2="173.526" y2="158.077" class="gray" /></g>
<g><line x1="173.189" y1="161.913" x2="171.721" y2="165.155" class="gray" /></g>
<g><line x1="169.141" y1="168.082" x2="166.479" y2="169.716" class="gray" /></g>
<g><line x1="162.716" y1="170.525" x2="159.274" y2="170.083" class="gray" /></g>
<g><line x1="155.768" y1="168.421" x2="153.132" y2="165.927" class="gray" /></g>
<g><line x1="151.359" y1="162.504" x2="150.861" y2="159.053" class="gray" /></g>
<g><line x1="149.042" y1="155.682" x2="146.438" y2="153.376" class="gray" /></g>
<g><line x1="143.38" y1="150.674" x2="140.77" y2="148.373" class="gray" /></g>
<g><line x1="137.738" y1="145.643" x2="135.292" y2="143.395" class="gray" /></g>
<g><line x1="132.238" y1="140.689" x2="129.472" y2="138.329" class="gray" /></g>
<g><line x1="126.059" y1="137.84" x2="122.881" y2="139.268" class="gray" /></g>
<g><line x1="121.077" y1="142.144" x2="121.173" y2="145.624" class="gray" /></g>
<g><line x1="121.117" y1="149.701" x2="120.923" y2="153.187" class="gray" /></g>
<g><line x1="120.867" y1="157.264" x2="120.963" y2="160.744" class="gray" /></g>
<g><line x1="121.02" y1="164.824" x2="121.02" y2="168.303" class="gray" /></g>
<g><line x1="121.02" y1="172.384" x2="121.02" y2="175.863" class="gray" /></g>
<g><line x1="121.077" y1="179.944" x2="121.173" y2="183.424" class="gray" /></g>
<g><line x1="122.613" y1="186.964" x2="124.971" y2="189.523" class="gray" /></g>
<g><line x1="124.945" y1="192.5" x2="122.542" y2="195.017" class="gray" /></g>
</svg>
