<svg
	xmlns="http://www.w3.org/2000/svg"
	width="273.21"
	height="186.08">
<g><style type="text/css" >
<!-- create color definitions -->
<![CDATA[
circle.red {stroke: rgb(255, 0, 255); fill: none; }
circle.green {stroke: rgb(0, 255, 0); fill: none; }
circle.blue {stroke: rgb(0, 0, 255); fill: none; }
circle.black {stroke: rgb(0, 0, 0); fill: none; }
circle.gray {stroke: rgb(204, 204, 204); fill: none; }
circle.brown {stroke: rgb(211.65, 104.55, 30.6); fill: none; }
line.red {stroke: rgb(255, 0, 255); stroke-width: 0.383202; }
line.green {stroke: rgb(0, 255, 0); stroke-width: 0.383202; }
line.blue {stroke: rgb(0, 0, 255); stroke-width: 0.383202; }
line.black {stroke: rgb(0, 0, 0); stroke-width: 0.383202; }
line.gray {stroke: rgb(204, 204, 204); stroke-width: 0.383202; }
line.brown {stroke: rgb(211.65, 104.55, 30.6); stroke-width: 0.383202; }
line {stroke: rgb(0, 0, 0); }
text.red {fill: rgb(255, 0, 255); font-size: 3.065617px; font-weight: bold; font-family: Helvetica; }
text.green {fill: rgb(0, 255, 0); font-size: 3.065617px; font-weight: bold; font-family: Helvetica; }
text.blue {fill: rgb(0, 0, 255); font-size: 3.065617px; font-weight: bold; font-family: Helvetica; }
text.black {fill: rgb(0, 0, 0); font-size: 3.065617px; font-weight: bold; font-family: Helvetica; }
text.gray {fill: rgb(204, 204, 204); font-size: 3.065617px; font-weight: bold; font-family: Helvetica; }
text.brown {fill: rgb(211.65, 104.55, 30.6); font-size: 3.065617px; font-weight: bold; font-family: Helvetica; }
text {fill: rgb(0, 0, 0); font-size: 3.065617px; font-weight: bold; font-family: Helvetica; text-anchor: middle; alignment-baseline: middle; }

.pseudoknot_connection{stroke-linecap: round; stroke-opacity: 0.2; stroke-width: 1.5; }
.pseudoknot_segment1{stroke-linecap: round; stroke-opacity: 0.4; stroke-width: 3.06562; }
.pseudoknot_segment2{stroke-linecap: round; stroke-opacity: 0.4; stroke-width: 3.06562; }
line.numbering-line{stroke: rgb(204, 204, 204); stroke-width: 0.191601; }
line.predicted{stroke: rgb(0, 0, 0); stroke-dasharray: 2; }
polyline{fill: none; stroke-linejoin: round; }
template{visibility: hidden; }
text.numbering-label{fill: rgb(204, 204, 204); }
]]>
</style></g>
<g><title>0 (position.label in template: 0.5')</title><text x="111.81" y="136.08" class="green" >5'</text></g>
<g><title>1 (position.label in template: 1.G)</title><text x="118.81" y="136.08" class="black" >G</text></g>
<g><line x1="120.854" y1="135.773" x2="129.216" y2="135.773" class="black" /></g>
<g><title>2 (position.label in template: 2.G)</title><text x="118.81" y="128.52" class="black" >G</text></g>
<g><line x1="120.854" y1="128.213" x2="129.216" y2="128.213" class="black" /></g>
<g><title>3 (position.label in template: 3.G)</title><text x="111.86" y="125.55" class="black" >G</text></g>
<g><title>4 (position.label in template: 4.A)</title><text x="106.54" y="120.63" class="black" >A</text></g>
<g><title>5 (position.label in template: 5.A)</title><text x="102.55" y="114.21" class="black" >A</text></g>
<g><title>6 (position.label in template: 6.G)</title><text x="100.26" y="106.88" class="black" >G</text></g>
<g><line x1="100.607" y1="104.559" x2="101.993" y2="96.4976" class="black" /></g>
<g><title>7 (position.label in template: 7.C)</title><text x="93" y="105.73" class="black" >C</text></g>
<g><line x1="93.2778" y1="103.399" x2="94.3822" y2="95.3482" class="black" /></g>
<g><title>8 (position.label in template: 8.C)</title><text x="85.53" y="104.58" class="black" >C</text></g>
<g><line x1="85.8078" y1="102.249" x2="86.9122" y2="94.1982" class="black" /></g>
<g><title>9 (position.label in template: 9.G)</title><text x="77.85" y="103.43" class="black" >G</text></g>
<g><line x1="78.1962" y1="101.109" x2="79.5838" y2="93.0376" class="black" /></g>
<g><title>10 (position.label in template: 10.G)</title><text x="70.38" y="102.27" class="black" >G</text></g>
<g><line x1="70.7249" y1="99.949" x2="72.1051" y2="91.8879" class="black" /></g>
<g><text x="71.7555" y="109.029" class="numbering-label sequential" >10</text></g>
<g><line x1="70.7468" y1="104.072" x2="71.4436" y2="107.496" class="numbering-line sequential" /></g>
<g><title>11 (position.label in template: 11.U)</title><text x="64.14" y="106.22" class="green" >T</text></g>
<g><title>12 (position.label in template: 12.G)</title><text x="56.41" y="105.47" class="black" >G</text></g>
<g><title>13 (position.label in template: 13.C)</title><text x="51.09" y="100.32" class="black" >C</text></g>
<g><title>14 (position.label in template: 14.A)</title><text x="50" y="92.87" class="black" >A</text></g>
<g><title>15 (position.label in template: 15.A)</title><text x="53.48" y="86.16" class="black" >A</text></g>
<g><title>16 (position.label in template: 16.A)</title><text x="60.31" y="82.92" class="black" >A</text></g>
<g><title>17 (position.label in template: 17.U)</title><text x="67.5" y="84.47" class="green" >T</text></g>
<g><title>18 (position.label in template: 18.C)</title><text x="72.45" y="90.18" class="black" >C</text></g>
<g><title>19 (position.label in template: 19.C)</title><text x="79.93" y="91.33" class="black" >C</text></g>
<g><title>20 (position.label in template: 20.G)</title><text x="87.19" y="92.48" class="black" >G</text></g>
<g><text x="88.2541" y="85.6649" class="numbering-label sequential" >20</text></g>
<g><line x1="87.4738" y1="90.6627" x2="88.0148" y2="87.1977" class="numbering-line sequential" /></g>
<g><title>21 (position.label in template: 21.G)</title><text x="94.66" y="93.63" class="black" >G</text></g>
<g><title>22 (position.label in template: 22.C)</title><text x="102.34" y="94.79" class="black" >C</text></g>
<g><title>23 (position.label in template: 23.G)</title><text x="106.12" y="88.36" class="black" >G</text></g>
<g><title>24 (position.label in template: 24.C)</title><text x="112.07" y="83.44" class="black" >C</text></g>
<g><title>25 (position.label in template: 25.U)</title><text x="119.02" y="80.48" class="green" >T</text></g>
<g><line x1="121.064" y1="80.1734" x2="129.426" y2="80.1734" class="black" /></g>
<g><title>26 (position.label in template: 26.G)</title><text x="118.81" y="72.92" class="black" >G</text></g>
<g><line x1="120.854" y1="72.6134" x2="129.216" y2="72.6134" class="black" /></g>
<g><title>27 (position.label in template: 27.A)</title><text x="119.23" y="65.36" class="black" >A</text></g>
<g><line x1="121.274" y1="65.0534" x2="129.006" y2="65.0534" class="black" /></g>
<g><title>28 (position.label in template: 28.C)</title><text x="116.85" y="58.12" class="black" >C</text></g>
<g><title>29 (position.label in template: 29.C)</title><text x="121.36" y="52.05" class="black" >C</text></g>
<g><title>30 (position.label in template: 30.C)</title><text x="128.92" y="52.05" class="black" >C</text></g>
<g><text x="132.017" y="45.8867" class="numbering-label sequential" >30</text></g>
<g><line x1="129.746" y1="50.4065" x2="131.247" y2="47.4195" class="numbering-line sequential" /></g>
<g><title>31 (position.label in template: 31.C)</title><text x="133.44" y="58.12" class="black" >C</text></g>
<g><title>32 (position.label in template: 32.G)</title><text x="131.05" y="65.36" class="black" >G</text></g>
<g><title>33 (position.label in template: 33.C)</title><text x="131.26" y="72.92" class="black" >C</text></g>
<g><title>34 (position.label in template: 34.A)</title><text x="131.47" y="80.48" class="green" >A</text></g>
<g><title>35 (position.label in template: 35.G)</title><text x="138.01" y="83.44" class="black" >G</text></g>
<g><title>36 (position.label in template: 36.C)</title><text x="143.96" y="88.36" class="black" >C</text></g>
<g><line x1="144.836" y1="89.8999" x2="148.294" y2="97.187" class="black" /></g>
<g><title>37 (position.label in template: 37.C)</title><text x="150.73" y="85.01" class="black" >C</text></g>
<g><line x1="151.608" y1="86.5489" x2="155.072" y2="93.828" class="black" /></g>
<g><title>38 (position.label in template: 38.G)</title><text x="157.3" y="81.66" class="black" >G</text></g>
<g><line x1="158.234" y1="83.171" x2="162.006" y2="90.5058" class="black" /></g>
<g><title>39 (position.label in template: 39.U)</title><text x="159.59" y="74.39" class="green" >T</text></g>
<g><title>40 (position.label in template: 40.G)</title><text x="164.98" y="69.31" class="black" >G</text></g>
<g><title>41 (position.label in template: 41.A)</title><text x="172.83" y="67.95" class="black" >A</text></g>
<g><title>42 (position.label in template: 42.G)</title><text x="179.45" y="70.71" class="green" >G</text></g>
<g><line x1="180.384" y1="72.221" x2="184.156" y2="79.5558" class="black" /></g>
<g><title>43 (position.label in template: 43.C)</title><text x="186.44" y="67.35" class="black" >C</text></g>
<g><line x1="187.316" y1="68.8899" x2="190.774" y2="76.177" class="black" /></g>
<g><title>44 (position.label in template: 44.C)</title><text x="193.21" y="64" class="black" >C</text></g>
<g><line x1="194.088" y1="65.5389" x2="197.552" y2="72.818" class="black" /></g>
<g><title>45 (position.label in template: 45.G)</title><text x="199.78" y="60.65" class="black" >G</text></g>
<g><line x1="200.713" y1="62.1617" x2="204.477" y2="69.4952" class="black" /></g>
<g><title>46 (position.label in template: 46.C)</title><text x="202.99" y="53.71" class="black" >C</text></g>
<g><title>47 (position.label in template: 47.C)</title><text x="209.58" y="50" class="black" >C</text></g>
<g><title>48 (position.label in template: 48.C)</title><text x="217.07" y="51.04" class="black" >C</text></g>
<g><title>49 (position.label in template: 49.C)</title><text x="222.41" y="56.39" class="black" >C</text></g>
<g><title>50 (position.label in template: 50.G)</title><text x="223.21" y="63.88" class="black" >G</text></g>
<g><text x="229.983" y="65.1846" class="numbering-label sequential" >50</text></g>
<g><line x1="225.016" y1="64.2279" x2="228.144" y2="64.8303" class="numbering-line sequential" /></g>
<g><title>51 (position.label in template: 51.C)</title><text x="219.7" y="70.46" class="black" >C</text></g>
<g><title>52 (position.label in template: 52.G)</title><text x="212.54" y="73.45" class="black" >G</text></g>
<g><title>53 (position.label in template: 53.C)</title><text x="205.41" y="71.62" class="black" >C</text></g>
<g><title>54 (position.label in template: 54.G)</title><text x="198.43" y="74.97" class="black" >G</text></g>
<g><title>55 (position.label in template: 55.G)</title><text x="191.65" y="78.33" class="black" >G</text></g>
<g><title>56 (position.label in template: 56.U)</title><text x="185.09" y="81.68" class="green" >T</text></g>
<g><title>57 (position.label in template: 57.G)</title><text x="185.87" y="89.17" class="black" >G</text></g>
<g><title>58 (position.label in template: 58.A)</title><text x="182.73" y="95.84" class="black" >A</text></g>
<g><title>59 (position.label in template: 59.G)</title><text x="175.54" y="99.2" class="black" >G</text></g>
<g><title>60 (position.label in template: 60.C)</title><text x="168.29" y="97.97" class="black" >C</text></g>
<g><title>61 (position.label in template: 61.C)</title><text x="162.94" y="92.63" class="black" >C</text></g>
<g><title>62 (position.label in template: 62.G)</title><text x="155.95" y="95.98" class="black" >G</text></g>
<g><title>63 (position.label in template: 63.G)</title><text x="149.17" y="99.34" class="black" >G</text></g>
<g><title>64 (position.label in template: 64.A)</title><text x="150.02" y="106.88" class="black" >A</text></g>
<g><title>65 (position.label in template: 65.A)</title><text x="148.15" y="114.21" class="black" >A</text></g>
<g><title>66 (position.label in template: 66.U)</title><text x="143.96" y="120.63" class="green" >T</text></g>
<g><title>67 (position.label in template: 67.G)</title><text x="138.01" y="125.55" class="black" >G</text></g>
<g><title>68 (position.label in template: 68.C)</title><text x="131.26" y="128.52" class="black" >C</text></g>
<g><title>69 (position.label in template: 69.C)</title><text x="131.26" y="136.08" class="black" >C</text></g>
<g><title>70 (position.label in template: 70.3')</title><text x="138.26" y="136.08" class="green" >3'</text></g>
<g><line x1="113.854" y1="135.773" x2="116.766" y2="135.773" class="gray" /></g>
<g><line x1="118.81" y1="133.73" x2="118.81" y2="130.257" class="gray" /></g>
<g><line x1="116.931" y1="127.41" x2="113.739" y2="126.047" class="gray" /></g>
<g><line x1="110.36" y1="123.856" x2="108.04" y2="121.711" class="gray" /></g>
<g><line x1="105.461" y1="118.588" x2="103.629" y2="115.639" class="gray" /></g>
<g><line x1="101.941" y1="111.953" x2="100.869" y2="108.524" class="gray" /></g>
<g><line x1="98.2414" y1="106.254" x2="95.0186" y2="105.743" class="gray" /></g>
<g><line x1="90.9801" y1="105.112" x2="87.5499" y2="104.584" class="gray" /></g>
<g><line x1="83.5088" y1="103.971" x2="79.8712" y2="103.426" class="gray" /></g>
<g><line x1="75.8305" y1="102.81" x2="72.3995" y2="102.277" class="gray" /></g>
<g><line x1="68.6532" y1="103.057" x2="65.8668" y2="104.82" class="gray" /></g>
<g><line x1="62.1058" y1="105.716" x2="58.4442" y2="105.361" class="gray" /></g>
<g><line x1="54.9416" y1="103.742" x2="52.5584" y2="101.435" class="gray" /></g>
<g><line x1="50.7941" y1="97.9912" x2="50.2959" y2="94.5857" class="gray" /></g>
<g><line x1="50.9409" y1="90.7492" x2="52.5391" y2="87.6677" class="gray" /></g>
<g><line x1="55.3265" y1="84.9775" x2="58.4635" y2="83.4894" class="gray" /></g>
<g><line x1="62.3078" y1="83.0441" x2="65.5022" y2="83.7327" class="gray" /></g>
<g><line x1="68.8387" y1="85.7077" x2="71.1113" y2="88.3292" class="gray" /></g>
<g><line x1="74.47" y1="90.184" x2="77.91" y2="90.7129" class="gray" /></g>
<g><line x1="81.9486" y1="91.3432" x2="85.1714" y2="91.8537" class="gray" /></g>
<g><line x1="89.2099" y1="92.4844" x2="92.6401" y2="93.0125" class="gray" /></g>
<g><line x1="96.6808" y1="93.6287" x2="100.319" y2="94.1782" class="gray" /></g>
<g><line x1="103.376" y1="92.7216" x2="105.084" y2="89.8153" class="gray" /></g>
<g><line x1="107.695" y1="86.7511" x2="110.495" y2="84.4358" class="gray" /></g>
<g><line x1="113.95" y1="82.3326" x2="117.14" y2="80.9743" class="gray" /></g>
<g><line x1="118.963" y1="78.1305" x2="118.867" y2="74.6564" class="gray" /></g>
<g><line x1="118.923" y1="70.5728" x2="119.117" y2="67.094" class="gray" /></g>
<g><line x1="118.592" y1="63.1119" x2="117.488" y2="59.755" class="gray" /></g>
<g><line x1="118.069" y1="56.1729" x2="120.141" y2="53.3839" class="gray" /></g>
<g><line x1="123.404" y1="51.7434" x2="126.876" y2="51.7434" class="gray" /></g>
<g><line x1="130.141" y1="53.3826" x2="132.219" y2="56.1742" class="gray" /></g>
<g><line x1="132.799" y1="59.7542" x2="131.691" y2="63.1127" class="gray" /></g>
<g><line x1="131.107" y1="67.0964" x2="131.203" y2="70.5705" class="gray" /></g>
<g><line x1="131.317" y1="74.6564" x2="131.413" y2="78.1305" class="gray" /></g>
<g><line x1="133.332" y1="81.0161" x2="136.148" y2="82.2907" class="gray" /></g>
<g><line x1="139.585" y1="84.4358" x2="142.385" y2="86.7511" class="gray" /></g>
<g><line x1="145.792" y1="87.147" x2="148.898" y2="85.6098" class="gray" /></g>
<g><line x1="152.551" y1="83.7751" x2="155.479" y2="82.2818" class="gray" /></g>
<g><line x1="157.914" y1="79.4041" x2="158.976" y2="76.0328" class="gray" /></g>
<g><line x1="161.077" y1="72.6817" x2="163.493" y2="70.4052" class="gray" /></g>
<g><line x1="166.994" y1="68.6546" x2="170.816" y2="67.9923" class="gray" /></g>
<g><line x1="174.716" y1="68.4299" x2="177.564" y2="69.617" class="gray" /></g>
<g><line x1="181.292" y1="69.518" x2="184.598" y2="67.9289" class="gray" /></g>
<g><line x1="188.272" y1="66.137" x2="191.378" y2="64.5998" class="gray" /></g>
<g><line x1="195.031" y1="62.7651" x2="197.959" y2="61.2718" class="gray" /></g>
<g><line x1="200.638" y1="58.4885" x2="202.132" y2="55.2584" class="gray" /></g>
<g><line x1="204.771" y1="52.4008" x2="207.799" y2="50.696" class="gray" /></g>
<g><line x1="211.604" y1="49.9745" x2="215.046" y2="50.4524" class="gray" /></g>
<g><line x1="218.514" y1="52.1799" x2="220.966" y2="54.6369" class="gray" /></g>
<g><line x1="222.627" y1="58.1156" x2="222.993" y2="61.5413" class="gray" /></g>
<g><line x1="222.248" y1="65.3767" x2="220.662" y2="68.3502" class="gray" /></g>
<g><line x1="217.814" y1="70.941" x2="214.426" y2="72.3559" class="gray" /></g>
<g><line x1="210.56" y1="72.6354" x2="207.39" y2="71.8215" class="gray" /></g>
<g><line x1="203.567" y1="72.1977" x2="200.273" y2="73.7791" class="gray" /></g>
<g><line x1="196.599" y1="75.5709" x2="193.481" y2="77.1159" class="gray" /></g>
<g><line x1="189.83" y1="78.9529" x2="186.91" y2="80.4439" class="gray" /></g>
<g><line x1="185.302" y1="83.4062" x2="185.658" y2="86.8307" class="gray" /></g>
<g><line x1="185" y1="90.7125" x2="183.6" y2="93.6843" class="gray" /></g>
<g><line x1="180.878" y1="96.3987" x2="177.392" y2="98.0282" class="gray" /></g>
<g><line x1="173.525" y1="98.5516" x2="170.305" y2="98.0053" class="gray" /></g>
<g><line x1="166.844" y1="96.2196" x2="164.386" y2="93.7672" class="gray" /></g>
<g><line x1="161.097" y1="93.2067" x2="157.793" y2="94.7902" class="gray" /></g>
<g><line x1="154.119" y1="96.5809" x2="151.001" y2="98.1259" class="gray" /></g>
<g><line x1="149.399" y1="101.064" x2="149.791" y2="104.543" class="gray" /></g>
<g><line x1="149.515" y1="108.554" x2="148.655" y2="111.923" class="gray" /></g>
<g><line x1="147.033" y1="115.615" x2="145.077" y2="118.612" class="gray" /></g>
<g><line x1="142.385" y1="121.626" x2="139.585" y2="123.941" class="gray" /></g>
<g><line x1="136.139" y1="126.067" x2="133.131" y2="127.39" class="gray" /></g>
<g><line x1="131.26" y1="130.257" x2="131.26" y2="133.73" class="gray" /></g>
<g><line x1="133.304" y1="135.773" x2="136.216" y2="135.773" class="gray" /></g>
</svg>
