<svg
	xmlns="http://www.w3.org/2000/svg"
	width="289.417"
	height="207.004">
<g><style type="text/css" >
<!-- create color definitions -->
<![CDATA[
circle.red {stroke: rgb(255, 0, 255); fill: none; }
circle.green {stroke: rgb(0, 255, 0); fill: none; }
circle.blue {stroke: rgb(0, 0, 255); fill: none; }
circle.black {stroke: rgb(0, 0, 0); fill: none; }
circle.gray {stroke: rgb(204, 204, 204); fill: none; }
circle.brown {stroke: rgb(211.65, 104.55, 30.6); fill: none; }
line.red {stroke: rgb(255, 0, 255); stroke-width: 0.383229; }
line.green {stroke: rgb(0, 255, 0); stroke-width: 0.383229; }
line.blue {stroke: rgb(0, 0, 255); stroke-width: 0.383229; }
line.black {stroke: rgb(0, 0, 0); stroke-width: 0.383229; }
line.gray {stroke: rgb(204, 204, 204); stroke-width: 0.383229; }
line.brown {stroke: rgb(211.65, 104.55, 30.6); stroke-width: 0.383229; }
line {stroke: rgb(0, 0, 0); }
text.red {fill: rgb(255, 0, 255); font-size: 3.065833px; font-weight: bold; font-family: Helvetica; }
text.green {fill: rgb(0, 255, 0); font-size: 3.065833px; font-weight: bold; font-family: Helvetica; }
text.blue {fill: rgb(0, 0, 255); font-size: 3.065833px; font-weight: bold; font-family: Helvetica; }
text.black {fill: rgb(0, 0, 0); font-size: 3.065833px; font-weight: bold; font-family: Helvetica; }
text.gray {fill: rgb(204, 204, 204); font-size: 3.065833px; font-weight: bold; font-family: Helvetica; }
text.brown {fill: rgb(211.65, 104.55, 30.6); font-size: 3.065833px; font-weight: bold; font-family: Helvetica; }
text {fill: rgb(0, 0, 0); font-size: 3.065833px; font-weight: bold; font-family: Helvetica; text-anchor: middle; alignment-baseline: middle; }

.pseudoknot_connection{stroke-linecap: round; stroke-opacity: 0.2; stroke-width: 1.5; }
.pseudoknot_segment1{stroke-linecap: round; stroke-opacity: 0.4; stroke-width: 3.06583; }
.pseudoknot_segment2{stroke-linecap: round; stroke-opacity: 0.4; stroke-width: 3.06583; }
line.numbering-line{stroke: rgb(204, 204, 204); stroke-width: 0.191615; }
line.predicted{stroke: rgb(0, 0, 0); stroke-dasharray: 2; }
polyline{fill: none; stroke-linejoin: round; }
template{visibility: hidden; }
text.numbering-label{fill: rgb(204, 204, 204); }
]]>
</style></g>
<g><title>0 (position.label in template: 0.5')</title><text x="42.4375" y="157.004" class="green" >5'</text></g>
<g><title>1 (position.label in template: 1.A)</title><text x="50" y="157.004" class="black" >A</text></g>
<g><title>2 (position.label in template: 2.U)</title><text x="57.5625" y="157.004" class="green" >T</text></g>
<g><title>3 (position.label in template: 3.A)</title><text x="65.125" y="157.004" class="black" >A</text></g>
<g><title>4 (position.label in template: 4.A)</title><text x="72.6875" y="157.004" class="black" >A</text></g>
<g><title>5 (position.label in template: 5.U)</title><text x="80.25" y="157.004" class="green" >T</text></g>
<g><title>6 (position.label in template: 6.U)</title><text x="87.8125" y="157.004" class="green" >T</text></g>
<g><title>7 (position.label in template: 7.U)</title><text x="95.375" y="157.004" class="green" >T</text></g>
<g><title>8 (position.label in template: 8.U)</title><text x="102.937" y="157.004" class="green" >T</text></g>
<g><title>9 (position.label in template: 9.U)</title><text x="110.5" y="157.004" class="green" >T</text></g>
<g><title>10 (position.label in template: 10.G)</title><text x="118.062" y="157.004" class="black" >G</text></g>
<g><text x="118.062" y="163.902" class="numbering-label sequential" >10</text></g>
<g><line x1="118.062" y1="158.843" x2="118.062" y2="162.369" class="numbering-line sequential" /></g>
<g><title>11 (position.label in template: 11.G)</title><text x="125.625" y="157.004" class="black" >G</text></g>
<g><title>12 (position.label in template: 12.G)</title><text x="133.187" y="157.004" class="black" >G</text></g>
<g><title>13 (position.label in template: 13.A)</title><text x="140.75" y="157.004" class="black" >A</text></g>
<g><title>14 (position.label in template: 14.A)</title><text x="148.312" y="157.004" class="black" >A</text></g>
<g><title>15 (position.label in template: 15.U)</title><text x="155.875" y="157.004" class="green" >T</text></g>
<g><title>16 (position.label in template: 16.G)</title><text x="161.114" y="151.55" class="black" >G</text></g>
<g><line x1="163.158" y1="151.243" x2="171.52" y2="151.243" class="black" /></g>
<g><title>17 (position.label in template: 17.A)</title><text x="161.534" y="143.99" class="green" >A</text></g>
<g><line x1="163.578" y1="143.683" x2="171.52" y2="143.683" class="black" /></g>
<g><title>18 (position.label in template: 18.A)</title><text x="161.534" y="136.43" class="green" >A</text></g>
<g><line x1="163.578" y1="136.123" x2="171.52" y2="136.123" class="black" /></g>
<g><title>19 (position.label in template: 19.G)</title><text x="161.114" y="128.86" class="black" >G</text></g>
<g><line x1="163.158" y1="128.553" x2="171.52" y2="128.553" class="black" /></g>
<g><title>20 (position.label in template: 20.U)</title><text x="161.324" y="121.31" class="green" >T</text></g>
<g><line x1="163.368" y1="121.003" x2="171.73" y2="121.003" class="black" /></g>
<g><text x="154.427" y="121.214" class="numbering-label sequential" >20</text></g>
<g><line x1="159.485" y1="121.284" x2="156.266" y2="121.24" class="numbering-line sequential" /></g>
<g><title>21 (position.label in template: 21.U)</title><text x="161.324" y="113.75" class="green" >T</text></g>
<g><line x1="163.368" y1="113.443" x2="171.31" y2="113.443" class="black" /></g>
<g><title>22 (position.label in template: 22.C)</title><text x="156.964" y="119.92" class="black" >C</text></g>
<g><title>23 (position.label in template: 23.U)</title><text x="151.264" y="124.88" class="green" >T</text></g>
<g><title>24 (position.label in template: 24.C)</title><text x="144.534" y="128.34" class="black" >C</text></g>
<g><title>25 (position.label in template: 25.C)</title><text x="137.184" y="130.09" class="black" >C</text></g>
<g><title>26 (position.label in template: 26.C)</title><text x="129.624" y="130.05" class="black" >C</text></g>
<g><title>27 (position.label in template: 27.A)</title><text x="122.504" y="128.2" class="black" >A</text></g>
<g><title>28 (position.label in template: 28.U)</title><text x="115.614" y="124.65" class="green" >T</text></g>
<g><title>29 (position.label in template: 29.G)</title><text x="109.764" y="119.62" class="black" >G</text></g>
<g><title>30 (position.label in template: 30.A)</title><text x="105.904" y="113.39" class="black" >A</text></g>
<g><text x="99.7895" y="116.583" class="numbering-label sequential" >30</text></g>
<g><line x1="104.274" y1="114.241" x2="101.629" y2="115.622" class="numbering-line sequential" /></g>
<g><title>31 (position.label in template: 31.G)</title><text x="102.814" y="106.31" class="black" >G</text></g>
<g><title>32 (position.label in template: 32.A)</title><text x="102.324" y="98.81" class="black" >A</text></g>
<g><title>33 (position.label in template: 33.A)</title><text x="103.234" y="91.3" class="black" >A</text></g>
<g><title>34 (position.label in template: 34.A)</title><text x="105.904" y="84.23" class="black" >A</text></g>
<g><title>35 (position.label in template: 35.U)</title><text x="109.974" y="78" class="green" >T</text></g>
<g><title>36 (position.label in template: 36.C)</title><text x="115.614" y="72.97" class="black" >C</text></g>
<g><title>37 (position.label in template: 37.U)</title><text x="122.294" y="69.42" class="green" >T</text></g>
<g><title>38 (position.label in template: 38.A)</title><text x="129.834" y="67.57" class="black" >A</text></g>
<g><title>39 (position.label in template: 39.A)</title><text x="137.394" y="67.53" class="black" >A</text></g>
<g><title>40 (position.label in template: 40.A)</title><text x="144.744" y="69.28" class="black" >A</text></g>
<g><title>41 (position.label in template: 41.C)</title><text x="151.264" y="72.74" class="black" >C</text></g>
<g><title>42 (position.label in template: 42.C)</title><text x="156.964" y="77.7" class="black" >C</text></g>
<g><title>43 (position.label in template: 43.G)</title><text x="161.114" y="83.87" class="black" >G</text></g>
<g><line x1="163.158" y1="83.5634" x2="171.52" y2="83.5634" class="black" /></g>
<g><title>44 (position.label in template: 44.U)</title><text x="161.324" y="76.31" class="green" >T</text></g>
<g><line x1="163.368" y1="76.0034" x2="171.73" y2="76.0034" class="black" /></g>
<g><title>45 (position.label in template: 45.C)</title><text x="161.324" y="68.75" class="black" >C</text></g>
<g><line x1="163.368" y1="68.4434" x2="171.31" y2="68.4434" class="black" /></g>
<g><title>46 (position.label in template: 46.A)</title><text x="157.264" y="62.51" class="black" >A</text></g>
<g><title>47 (position.label in template: 47.A)</title><text x="158.204" y="55.01" class="black" >A</text></g>
<g><title>48 (position.label in template: 48.G)</title><text x="163.454" y="50" class="black" >G</text></g>
<g><title>49 (position.label in template: 49.U)</title><text x="171.224" y="50" class="green" >T</text></g>
<g><title>50 (position.label in template: 50.A)</title><text x="177.094" y="55.01" class="black" >A</text></g>
<g><text x="183.153" y="51.7119" class="numbering-label sequential" >50</text></g>
<g><line x1="178.71" y1="54.1305" x2="181.313" y2="52.7133" class="numbering-line sequential" /></g>
<g><title>51 (position.label in template: 51.A)</title><text x="178.034" y="62.51" class="black" >A</text></g>
<g><title>52 (position.label in template: 52.G)</title><text x="173.354" y="68.75" class="black" >G</text></g>
<g><title>53 (position.label in template: 53.A)</title><text x="173.774" y="76.31" class="green" >A</text></g>
<g><title>54 (position.label in template: 54.C)</title><text x="173.564" y="83.87" class="black" >C</text></g>
<g><title>55 (position.label in template: 55.U)</title><text x="179.694" y="88.3" class="green" >T</text></g>
<g><title>56 (position.label in template: 56.A)</title><text x="183.344" y="95.03" class="black" >A</text></g>
<g><title>57 (position.label in template: 57.A)</title><text x="183.344" y="102.59" class="black" >A</text></g>
<g><title>58 (position.label in template: 58.U)</title><text x="179.694" y="109.32" class="green" >T</text></g>
<g><title>59 (position.label in template: 59.G)</title><text x="173.354" y="113.75" class="green" >G</text></g>
<g><title>60 (position.label in template: 60.A)</title><text x="173.774" y="121.31" class="green" >A</text></g>
<g><title>61 (position.label in template: 61.C)</title><text x="173.564" y="128.86" class="black" >C</text></g>
<g><title>62 (position.label in template: 62.U)</title><text x="173.564" y="136.43" class="green" >T</text></g>
<g><title>63 (position.label in template: 63.U)</title><text x="173.564" y="143.99" class="green" >T</text></g>
<g><title>64 (position.label in template: 64.C)</title><text x="173.564" y="151.55" class="black" >C</text></g>
<g><title>65 (position.label in template: 65.U)</title><text x="178.917" y="156.892" class="green" >T</text></g>
<g><title>66 (position.label in template: 66.A)</title><text x="186.479" y="156.892" class="black" >A</text></g>
<g><title>67 (position.label in template: 67.U)</title><text x="194.042" y="156.892" class="green" >T</text></g>
<g><title>68 (position.label in template: 68.G)</title><text x="201.604" y="156.892" class="black" >G</text></g>
<g><title>69 (position.label in template: 69.A)</title><text x="209.167" y="156.892" class="black" >A</text></g>
<g><title>70 (position.label in template: 70.U)</title><text x="216.729" y="156.892" class="green" >T</text></g>
<g><title>71 (position.label in template: 71.U)</title><text x="224.292" y="156.892" class="green" >T</text></g>
<g><title>72 (position.label in template: 72.U)</title><text x="231.854" y="156.892" class="green" >T</text></g>
<g><title>73 (position.label in template: 73.A)</title><text x="239.417" y="156.892" class="black" >A</text></g>
<g><title>74 (position.label in template: 74.3')</title><text x="246.979" y="156.892" class="green" >3'</text></g>
<g><line x1="44.4814" y1="156.697" x2="47.9561" y2="156.697" class="gray" /></g>
<g><line x1="52.0439" y1="156.697" x2="55.5186" y2="156.697" class="gray" /></g>
<g><line x1="59.6064" y1="156.697" x2="63.0811" y2="156.697" class="gray" /></g>
<g><line x1="67.1689" y1="156.697" x2="70.6436" y2="156.697" class="gray" /></g>
<g><line x1="74.7314" y1="156.697" x2="78.2061" y2="156.697" class="gray" /></g>
<g><line x1="82.2939" y1="156.697" x2="85.7686" y2="156.697" class="gray" /></g>
<g><line x1="89.8564" y1="156.697" x2="93.3311" y2="156.697" class="gray" /></g>
<g><line x1="97.4189" y1="156.697" x2="100.894" y2="156.697" class="gray" /></g>
<g><line x1="104.981" y1="156.697" x2="108.456" y2="156.697" class="gray" /></g>
<g><line x1="112.544" y1="156.697" x2="116.019" y2="156.697" class="gray" /></g>
<g><line x1="120.106" y1="156.697" x2="123.581" y2="156.697" class="gray" /></g>
<g><line x1="127.669" y1="156.697" x2="131.144" y2="156.697" class="gray" /></g>
<g><line x1="135.231" y1="156.697" x2="138.706" y2="156.697" class="gray" /></g>
<g><line x1="142.794" y1="156.697" x2="146.269" y2="156.697" class="gray" /></g>
<g><line x1="150.356" y1="156.697" x2="153.831" y2="156.697" class="gray" /></g>
<g><line x1="157.291" y1="155.223" x2="159.698" y2="152.717" class="gray" /></g>
<g><line x1="161.228" y1="149.203" x2="161.421" y2="145.724" class="gray" /></g>
<g><line x1="161.534" y1="141.64" x2="161.534" y2="138.167" class="gray" /></g>
<g><line x1="161.421" y1="134.083" x2="161.227" y2="130.594" class="gray" /></g>
<g><line x1="161.171" y1="126.51" x2="161.267" y2="123.047" class="gray" /></g>
<g><line x1="161.324" y1="118.96" x2="161.324" y2="115.487" class="gray" /></g>
<g><line x1="160.145" y1="115.113" x2="158.144" y2="117.944" class="gray" /></g>
<g><line x1="155.422" y1="120.955" x2="152.806" y2="123.232" class="gray" /></g>
<g><line x1="149.446" y1="125.508" x2="146.352" y2="127.099" class="gray" /></g>
<g><line x1="142.546" y1="128.507" x2="139.172" y2="129.31" class="gray" /></g>
<g><line x1="135.14" y1="129.773" x2="131.668" y2="129.754" class="gray" /></g>
<g><line x1="127.646" y1="129.229" x2="124.482" y2="128.407" class="gray" /></g>
<g><line x1="120.687" y1="126.957" x2="117.431" y2="125.28" class="gray" /></g>
<g><line x1="114.064" y1="123.011" x2="111.314" y2="120.646" class="gray" /></g>
<g><line x1="108.688" y1="117.576" x2="106.981" y2="114.821" class="gray" /></g>
<g><line x1="105.087" y1="111.21" x2="103.632" y2="107.877" class="gray" /></g>
<g><line x1="102.681" y1="103.964" x2="102.457" y2="100.543" class="gray" /></g>
<g><line x1="102.57" y1="96.4744" x2="102.988" y2="93.0225" class="gray" /></g>
<g><line x1="103.956" y1="89.0813" x2="105.182" y2="85.8355" class="gray" /></g>
<g><line x1="107.022" y1="82.2123" x2="108.856" y2="79.4045" class="gray" /></g>
<g><line x1="111.5" y1="76.333" x2="114.089" y2="74.0238" class="gray" /></g>
<g><line x1="117.419" y1="71.7043" x2="120.489" y2="70.0726" class="gray" /></g>
<g><line x1="124.279" y1="68.6264" x2="127.849" y2="67.7505" class="gray" /></g>
<g><line x1="131.878" y1="67.2526" x2="135.35" y2="67.2342" class="gray" /></g>
<g><line x1="139.382" y1="67.6968" x2="142.756" y2="68.5" class="gray" /></g>
<g><line x1="146.55" y1="69.9315" x2="149.459" y2="71.4753" class="gray" /></g>
<g><line x1="152.806" y1="73.7751" x2="155.422" y2="76.0517" class="gray" /></g>
<g><line x1="158.105" y1="79.0894" x2="159.973" y2="81.8675" class="gray" /></g>
<g><line x1="161.171" y1="81.5203" x2="161.267" y2="78.0465" class="gray" /></g>
<g><line x1="161.324" y1="73.9595" x2="161.324" y2="70.4873" class="gray" /></g>
<g><line x1="160.21" y1="66.7302" x2="158.379" y2="63.9166" class="gray" /></g>
<g><line x1="157.518" y1="60.1754" x2="157.95" y2="56.7314" class="gray" /></g>
<g><line x1="159.683" y1="53.2924" x2="161.976" y2="51.1045" class="gray" /></g>
<g><line x1="165.498" y1="49.6934" x2="169.18" y2="49.6934" class="gray" /></g>
<g><line x1="172.779" y1="51.0203" x2="175.54" y2="53.3765" class="gray" /></g>
<g><line x1="177.348" y1="56.7314" x2="177.78" y2="60.1754" class="gray" /></g>
<g><line x1="176.808" y1="63.8385" x2="174.581" y2="66.8083" class="gray" /></g>
<g><line x1="173.468" y1="70.4842" x2="173.661" y2="73.9627" class="gray" /></g>
<g><line x1="173.717" y1="78.0465" x2="173.621" y2="81.5203" class="gray" /></g>
<g><line x1="175.221" y1="84.7606" x2="178.038" y2="86.7962" class="gray" /></g>
<g><line x1="180.669" y1="89.7901" x2="182.37" y2="92.9268" class="gray" /></g>
<g><line x1="183.344" y1="96.7673" x2="183.344" y2="100.24" class="gray" /></g>
<g><line x1="182.37" y1="104.08" x2="180.669" y2="107.217" class="gray" /></g>
<g><line x1="178.019" y1="110.184" x2="175.03" y2="112.273" class="gray" /></g>
<g><line x1="173.468" y1="115.484" x2="173.661" y2="118.963" class="gray" /></g>
<g><line x1="173.717" y1="123.047" x2="173.621" y2="126.51" class="gray" /></g>
<g><line x1="173.564" y1="130.597" x2="173.564" y2="134.08" class="gray" /></g>
<g><line x1="173.564" y1="138.167" x2="173.564" y2="141.64" class="gray" /></g>
<g><line x1="173.564" y1="145.727" x2="173.564" y2="149.2" class="gray" /></g>
<g><line x1="175.011" y1="152.687" x2="177.47" y2="155.142" class="gray" /></g>
<g><line x1="180.961" y1="156.586" x2="184.435" y2="156.586" class="gray" /></g>
<g><line x1="188.523" y1="156.586" x2="191.998" y2="156.586" class="gray" /></g>
<g><line x1="196.086" y1="156.586" x2="199.56" y2="156.586" class="gray" /></g>
<g><line x1="203.648" y1="156.586" x2="207.123" y2="156.586" class="gray" /></g>
<g><line x1="211.211" y1="156.586" x2="214.685" y2="156.586" class="gray" /></g>
<g><line x1="218.773" y1="156.586" x2="222.248" y2="156.586" class="gray" /></g>
<g><line x1="226.336" y1="156.586" x2="229.81" y2="156.586" class="gray" /></g>
<g><line x1="233.898" y1="156.586" x2="237.373" y2="156.586" class="gray" /></g>
<g><line x1="241.461" y1="156.586" x2="244.935" y2="156.586" class="gray" /></g>
</svg>
