<svg
	xmlns="http://www.w3.org/2000/svg"
	width="215.6"
	height="276.75">
<g><style type="text/css" >
<!-- create color definitions -->
<![CDATA[
circle.red {stroke: rgb(255, 0, 255); fill: none; }
circle.green {stroke: rgb(0, 255, 0); fill: none; }
circle.blue {stroke: rgb(0, 0, 255); fill: none; }
circle.black {stroke: rgb(0, 0, 0); fill: none; }
circle.gray {stroke: rgb(204, 204, 204); fill: none; }
circle.brown {stroke: rgb(211.65, 104.55, 30.6); fill: none; }
line.red {stroke: rgb(255, 0, 255); stroke-width: 0.379946; }
line.green {stroke: rgb(0, 255, 0); stroke-width: 0.379946; }
line.blue {stroke: rgb(0, 0, 255); stroke-width: 0.379946; }
line.black {stroke: rgb(0, 0, 0); stroke-width: 0.379946; }
line.gray {stroke: rgb(204, 204, 204); stroke-width: 0.379946; }
line.brown {stroke: rgb(211.65, 104.55, 30.6); stroke-width: 0.379946; }
line {stroke: rgb(0, 0, 0); }
text.red {fill: rgb(255, 0, 255); font-size: 3.039568px; font-weight: bold; font-family: Helvetica; }
text.green {fill: rgb(0, 255, 0); font-size: 3.039568px; font-weight: bold; font-family: Helvetica; }
text.blue {fill: rgb(0, 0, 255); font-size: 3.039568px; font-weight: bold; font-family: Helvetica; }
text.black {fill: rgb(0, 0, 0); font-size: 3.039568px; font-weight: bold; font-family: Helvetica; }
text.gray {fill: rgb(204, 204, 204); font-size: 3.039568px; font-weight: bold; font-family: Helvetica; }
text.brown {fill: rgb(211.65, 104.55, 30.6); font-size: 3.039568px; font-weight: bold; font-family: Helvetica; }
text {fill: rgb(0, 0, 0); font-size: 3.039568px; font-weight: bold; font-family: Helvetica; text-anchor: middle; alignment-baseline: middle; }

.pseudoknot_connection{stroke-linecap: round; stroke-opacity: 0.2; stroke-width: 1.5; }
.pseudoknot_segment1{stroke-linecap: round; stroke-opacity: 0.4; stroke-width: 3.03957; }
.pseudoknot_segment2{stroke-linecap: round; stroke-opacity: 0.4; stroke-width: 3.03957; }
line.numbering-line{stroke: rgb(204, 204, 204); stroke-width: 0.189973; }
line.predicted{stroke: rgb(0, 0, 0); stroke-dasharray: 2; }
polyline{fill: none; stroke-linejoin: round; }
template{visibility: hidden; }
text.numbering-label{fill: rgb(204, 204, 204); }
]]>
</style></g>
<g><title>0 (position.label in template: 0.5')</title><text x="115.77" y="226.75" class="green" >5'</text></g>
<g><title>1 (position.label in template: 1.C)</title><text x="122.77" y="226.75" class="black" >C</text></g>
<g><line x1="124.796" y1="226.446" x2="132.774" y2="226.446" class="black" /></g>
<g><title>2 (position.label in template: 2.G)</title><text x="122.56" y="219.19" class="black" >G</text></g>
<g><line x1="124.586" y1="218.886" x2="132.774" y2="218.886" class="black" /></g>
<g><title>3 (position.label in template: 3.U)</title><text x="122.77" y="211.63" class="green" >T</text></g>
<g><line x1="124.796" y1="211.326" x2="133.194" y2="211.326" class="black" /></g>
<g><title>4 (position.label in template: 4.C)</title><text x="122.77" y="204.07" class="black" >C</text></g>
<g><line x1="124.796" y1="203.766" x2="132.774" y2="203.766" class="black" /></g>
<g><title>5 (position.label in template: 5.C)</title><text x="122.77" y="196.51" class="black" >C</text></g>
<g><line x1="124.796" y1="196.206" x2="132.774" y2="196.206" class="black" /></g>
<g><title>6 (position.label in template: 6.A)</title><text x="122.98" y="188.95" class="green" >A</text></g>
<g><line x1="125.006" y1="188.646" x2="132.984" y2="188.646" class="black" /></g>
<g><title>7 (position.label in template: 7.U)</title><text x="122.77" y="181.39" class="green" >T</text></g>
<g><line x1="124.796" y1="181.086" x2="133.194" y2="181.086" class="black" /></g>
<g><title>8 (position.label in template: 8.C)</title><text x="122.77" y="173.83" class="black" >C</text></g>
<g><line x1="124.796" y1="173.526" x2="132.774" y2="173.526" class="black" /></g>
<g><title>9 (position.label in template: 9.C)</title><text x="116.04" y="170.4" class="black" >C</text></g>
<g><title>10 (position.label in template: 10.C)</title><text x="110.94" y="164.82" class="black" >C</text></g>
<g><text x="105.193" y="168.528" class="numbering-label sequential" >10</text></g>
<g><line x1="109.408" y1="165.809" x2="107.017" y2="167.351" class="numbering-line sequential" /></g>
<g><title>11 (position.label in template: 11.G)</title><text x="107.91" y="157.8" class="black" >G</text></g>
<g><title>12 (position.label in template: 12.A)</title><text x="108.14" y="150.24" class="black" >A</text></g>
<g><title>13 (position.label in template: 13.G)</title><text x="110.21" y="143.1" class="black" >G</text></g>
<g><line x1="111.689" y1="141.411" x2="117.771" y2="135.712" class="black" /></g>
<g><title>14 (position.label in template: 14.C)</title><text x="105.19" y="137.65" class="black" >C</text></g>
<g><line x1="106.635" y1="135.925" x2="112.365" y2="130.287" class="black" /></g>
<g><title>15 (position.label in template: 15.G)</title><text x="99.74" y="132.19" class="black" >G</text></g>
<g><line x1="101.219" y1="130.501" x2="107.311" y2="124.801" class="black" /></g>
<g><title>16 (position.label in template: 16.A)</title><text x="94.93" y="126.74" class="green" >A</text></g>
<g><line x1="96.3745" y1="125.015" x2="102.105" y2="119.377" class="black" /></g>
<g><title>17 (position.label in template: 17.C)</title><text x="89.49" y="121.28" class="black" >C</text></g>
<g><line x1="90.9354" y1="119.556" x2="96.6646" y2="113.926" class="black" /></g>
<g><title>18 (position.label in template: 18.U)</title><text x="81.93" y="121.48" class="green" >T</text></g>
<g><title>19 (position.label in template: 19.G)</title><text x="75.19" y="117.67" class="black" >G</text></g>
<g><title>20 (position.label in template: 20.A)</title><text x="72.07" y="110.99" class="black" >A</text></g>
<g><text x="65.3802" y="112.411" class="numbering-label sequential" >20</text></g>
<g><line x1="70.286" y1="111.369" x2="67.2039" y2="112.023" class="numbering-line sequential" /></g>
<g><title>21 (position.label in template: 21.G)</title><text x="72.17" y="103.45" class="black" >G</text></g>
<g><line x1="73.6487" y1="101.76" x2="79.7413" y2="96.0516" class="black" /></g>
<g><title>22 (position.label in template: 22.A)</title><text x="67.35" y="97.99" class="green" >A</text></g>
<g><line x1="68.7962" y1="96.2666" x2="74.5338" y2="90.6354" class="black" /></g>
<g><title>23 (position.label in template: 23.G)</title><text x="61.71" y="92.53" class="black" >G</text></g>
<g><line x1="63.1887" y1="90.8406" x2="69.2713" y2="85.1415" class="black" /></g>
<g><title>24 (position.label in template: 24.A)</title><text x="54.72" y="90.98" class="black" >A</text></g>
<g><title>25 (position.label in template: 25.C)</title><text x="50" y="84.92" class="black" >C</text></g>
<g><title>26 (position.label in template: 26.C)</title><text x="50.63" y="77.38" class="black" >C</text></g>
<g><title>27 (position.label in template: 27.U)</title><text x="56.08" y="72.15" class="green" >T</text></g>
<g><title>28 (position.label in template: 28.G)</title><text x="63.43" y="71.84" class="black" >G</text></g>
<g><title>29 (position.label in template: 29.G)</title><text x="69.29" y="76.6" class="black" >G</text></g>
<g><title>30 (position.label in template: 30.C)</title><text x="70.75" y="84.06" class="black" >C</text></g>
<g><text x="76.8232" y="80.9153" class="numbering-label sequential" >30</text></g>
<g><line x1="72.3695" y1="83.2214" x2="74.9994" y2="81.8596" class="numbering-line sequential" /></g>
<g><title>31 (position.label in template: 31.U)</title><text x="75.98" y="89.52" class="green" >T</text></g>
<g><title>32 (position.label in template: 32.C)</title><text x="81.22" y="94.97" class="black" >C</text></g>
<g><title>33 (position.label in template: 33.G)</title><text x="85.73" y="89.07" class="black" >G</text></g>
<g><title>34 (position.label in template: 34.C)</title><text x="93.09" y="86.63" class="black" >C</text></g>
<g><title>35 (position.label in template: 35.C)</title><text x="100.44" y="88.42" class="black" >C</text></g>
<g><title>36 (position.label in template: 36.G)</title><text x="105.46" y="93.87" class="black" >G</text></g>
<g><title>37 (position.label in template: 37.A)</title><text x="107.36" y="101.29" class="black" >A</text></g>
<g><title>38 (position.label in template: 38.A)</title><text x="104.62" y="108.33" class="black" >A</text></g>
<g><title>39 (position.label in template: 39.G)</title><text x="98.11" y="112.81" class="black" >G</text></g>
<g><title>40 (position.label in template: 40.U)</title><text x="103.55" y="118.26" class="green" >T</text></g>
<g><title>41 (position.label in template: 41.C)</title><text x="108.79" y="123.72" class="black" >C</text></g>
<g><title>42 (position.label in template: 42.G)</title><text x="113.81" y="129.17" class="black" >G</text></g>
<g><title>43 (position.label in template: 43.C)</title><text x="119.25" y="134.63" class="black" >C</text></g>
<g><title>44 (position.label in template: 44.A)</title><text x="126.7" y="132.45" class="green" >A</text></g>
<g><line x1="128.693" y1="132.513" x2="136.537" y2="133.959" class="black" /></g>
<g><title>45 (position.label in template: 45.G)</title><text x="127.63" y="125.01" class="black" >G</text></g>
<g><line x1="129.625" y1="125.061" x2="137.885" y2="126.531" class="black" /></g>
<g><title>46 (position.label in template: 46.C)</title><text x="129.19" y="117.57" class="black" >C</text></g>
<g><line x1="131.183" y1="117.633" x2="139.027" y2="119.079" class="black" /></g>
<g><title>47 (position.label in template: 47.A)</title><text x="130.74" y="110.13" class="green" >A</text></g>
<g><line x1="132.733" y1="110.193" x2="140.587" y2="111.639" class="black" /></g>
<g><title>48 (position.label in template: 48.A)</title><text x="124.97" y="105.25" class="black" >A</text></g>
<g><title>49 (position.label in template: 49.C)</title><text x="131.88" y="102.69" class="black" >C</text></g>
<g><line x1="133.873" y1="102.753" x2="141.717" y2="104.199" class="black" /></g>
<g><title>50 (position.label in template: 50.C)</title><text x="133.23" y="95.25" class="black" >C</text></g>
<g><line x1="135.223" y1="95.3149" x2="143.067" y2="96.7672" class="black" /></g>
<g><text x="126.517" y="93.9409" class="numbering-label sequential" >50</text></g>
<g><line x1="131.44" y1="94.9009" x2="128.341" y2="94.2966" class="numbering-line sequential" /></g>
<g><title>51 (position.label in template: 51.A)</title><text x="134.78" y="87.82" class="black" >A</text></g>
<g><line x1="136.772" y1="87.8894" x2="144.418" y2="89.3227" class="black" /></g>
<g><title>52 (position.label in template: 52.C)</title><text x="135.92" y="80.38" class="black" >C</text></g>
<g><line x1="137.913" y1="80.4433" x2="145.757" y2="81.8888" class="black" /></g>
<g><title>53 (position.label in template: 53.C)</title><text x="137.27" y="72.94" class="black" >C</text></g>
<g><line x1="139.263" y1="73.0033" x2="147.107" y2="74.4488" class="black" /></g>
<g><title>54 (position.label in template: 54.C)</title><text x="138.62" y="65.5" class="black" >C</text></g>
<g><line x1="140.615" y1="65.5511" x2="148.875" y2="67.021" class="black" /></g>
<g><title>55 (position.label in template: 55.U)</title><text x="136.47" y="58.25" class="green" >T</text></g>
<g><title>56 (position.label in template: 56.C)</title><text x="140.28" y="51.72" class="black" >C</text></g>
<g><title>57 (position.label in template: 57.C)</title><text x="147.64" y="50" class="black" >C</text></g>
<g><title>58 (position.label in template: 58.A)</title><text x="154.14" y="54.19" class="black" >A</text></g>
<g><title>59 (position.label in template: 59.C)</title><text x="155.21" y="61.64" class="black" >C</text></g>
<g><title>60 (position.label in template: 60.A)</title><text x="150.87" y="67.68" class="black" >A</text></g>
<g><title>61 (position.label in template: 61.G)</title><text x="149.1" y="75.12" class="black" >G</text></g>
<g><title>62 (position.label in template: 62.G)</title><text x="147.75" y="82.56" class="black" >G</text></g>
<g><title>63 (position.label in template: 63.G)</title><text x="146.41" y="90" class="black" >G</text></g>
<g><title>64 (position.label in template: 64.C)</title><text x="154.06" y="91.34" class="black" >C</text></g>
<g><title>65 (position.label in template: 65.A)</title><text x="152.92" y="98.78" class="black" >A</text></g>
<g><title>66 (position.label in template: 66.G)</title><text x="145.06" y="97.44" class="black" >G</text></g>
<g><title>67 (position.label in template: 67.G)</title><text x="143.71" y="104.87" class="black" >G</text></g>
<g><title>68 (position.label in template: 68.U)</title><text x="142.58" y="112.31" class="green" >T</text></g>
<g><title>69 (position.label in template: 69.G)</title><text x="141.02" y="119.75" class="black" >G</text></g>
<g><title>70 (position.label in template: 70.C)</title><text x="139.88" y="127.19" class="black" >C</text></g>
<g><title>71 (position.label in template: 71.U)</title><text x="138.53" y="134.63" class="green" >T</text></g>
<g><title>72 (position.label in template: 72.A)</title><text x="144.75" y="139.21" class="black" >A</text></g>
<g><title>73 (position.label in template: 73.C)</title><text x="148.57" y="145.61" class="black" >C</text></g>
<g><title>74 (position.label in template: 74.C)</title><text x="150.1" y="153.02" class="black" >C</text></g>
<g><title>75 (position.label in template: 75.G)</title><text x="148.72" y="160.49" class="black" >G</text></g>
<g><line x1="147.554" y1="161.844" x2="142.916" y2="168.439" class="black" /></g>
<g><title>76 (position.label in template: 76.C)</title><text x="156.47" y="159.91" class="black" >C</text></g>
<g><title>77 (position.label in template: 77.C)</title><text x="162.82" y="164.02" class="black" >C</text></g>
<g><title>78 (position.label in template: 78.A)</title><text x="165.6" y="171.12" class="black" >A</text></g>
<g><title>79 (position.label in template: 79.G)</title><text x="162.93" y="178.34" class="black" >G</text></g>
<g><title>80 (position.label in template: 80.G)</title><text x="156.77" y="182.73" class="black" >G</text></g>
<g><title>81 (position.label in template: 81.A)</title><text x="149.63" y="182.49" class="black" >A</text></g>
<g><title>82 (position.label in template: 82.C)</title><text x="143.55" y="177.74" class="black" >C</text></g>
<g><title>83 (position.label in template: 83.C)</title><text x="141.75" y="170.4" class="black" >C</text></g>
<g><title>84 (position.label in template: 84.G)</title><text x="134.8" y="173.83" class="black" >G</text></g>
<g><title>85 (position.label in template: 85.A)</title><text x="135.22" y="181.39" class="green" >A</text></g>
<g><title>86 (position.label in template: 86.U)</title><text x="135.01" y="188.95" class="green" >T</text></g>
<g><title>87 (position.label in template: 87.G)</title><text x="134.8" y="196.51" class="black" >G</text></g>
<g><title>88 (position.label in template: 88.G)</title><text x="134.8" y="204.07" class="black" >G</text></g>
<g><title>89 (position.label in template: 89.A)</title><text x="135.22" y="211.63" class="green" >A</text></g>
<g><title>90 (position.label in template: 90.G)</title><text x="134.8" y="219.19" class="black" >G</text></g>
<g><title>91 (position.label in template: 91.G)</title><text x="134.8" y="226.75" class="black" >G</text></g>
<g><title>92 (position.label in template: 92.3')</title><text x="141.8" y="226.75" class="green" >3'</text></g>
<g><line x1="117.796" y1="226.446" x2="120.744" y2="226.446" class="gray" /></g>
<g><line x1="122.714" y1="224.42" x2="122.616" y2="220.912" class="gray" /></g>
<g><line x1="122.616" y1="216.86" x2="122.714" y2="213.352" class="gray" /></g>
<g><line x1="122.77" y1="209.3" x2="122.77" y2="205.792" class="gray" /></g>
<g><line x1="122.77" y1="201.74" x2="122.77" y2="198.232" class="gray" /></g>
<g><line x1="122.826" y1="194.18" x2="122.924" y2="190.672" class="gray" /></g>
<g><line x1="122.924" y1="186.62" x2="122.826" y2="183.112" class="gray" /></g>
<g><line x1="122.77" y1="179.06" x2="122.77" y2="175.552" class="gray" /></g>
<g><line x1="120.965" y1="172.606" x2="117.845" y2="171.016" class="gray" /></g>
<g><line x1="114.673" y1="168.6" x2="112.307" y2="166.012" class="gray" /></g>
<g><line x1="110.137" y1="162.656" x2="108.713" y2="159.357" class="gray" /></g>
<g><line x1="107.972" y1="155.471" x2="108.078" y2="151.961" class="gray" /></g>
<g><line x1="108.704" y1="147.99" x2="109.646" y2="144.742" class="gray" /></g>
<g><line x1="108.837" y1="141.306" x2="106.563" y2="138.837" class="gray" /></g>
<g><line x1="103.758" y1="135.912" x2="101.172" y2="133.32" class="gray" /></g>
<g><line x1="98.3991" y1="130.367" x2="96.2709" y2="127.955" class="gray" /></g>
<g><line x1="93.4998" y1="125.001" x2="90.9202" y2="122.412" class="gray" /></g>
<g><line x1="87.4643" y1="121.03" x2="83.9557" y2="121.122" class="gray" /></g>
<g><line x1="80.166" y1="120.179" x2="76.954" y2="118.363" class="gray" /></g>
<g><line x1="74.3325" y1="115.53" x2="72.9275" y2="112.522" class="gray" /></g>
<g><line x1="72.0969" y1="108.66" x2="72.1431" y2="105.172" class="gray" /></g>
<g><line x1="70.8289" y1="101.627" x2="68.6911" y2="99.2052" class="gray" /></g>
<g><line x1="65.8941" y1="96.2766" x2="63.1659" y2="93.6355" class="gray" /></g>
<g><line x1="59.7317" y1="91.7874" x2="56.6983" y2="91.1147" class="gray" /></g>
<g><line x1="53.4748" y1="89.0774" x2="51.2452" y2="86.2147" class="gray" /></g>
<g><line x1="50.1687" y1="82.5967" x2="50.4613" y2="79.0954" class="gray" /></g>
<g><line x1="52.0921" y1="75.673" x2="54.6179" y2="73.2491" class="gray" /></g>
<g><line x1="58.1046" y1="71.7607" x2="61.4054" y2="71.6214" class="gray" /></g>
<g><line x1="65.0029" y1="72.8137" x2="67.7171" y2="75.0184" class="gray" /></g>
<g><line x1="69.6792" y1="78.2847" x2="70.3608" y2="81.7674" class="gray" /></g>
<g><line x1="72.1517" y1="85.2194" x2="74.5783" y2="87.7527" class="gray" /></g>
<g><line x1="77.3844" y1="90.6768" x2="79.8156" y2="93.2053" class="gray" /></g>
<g><line x1="82.4506" y1="93.0561" x2="84.4994" y2="90.3759" class="gray" /></g>
<g><line x1="87.6534" y1="88.1284" x2="91.1666" y2="86.9637" class="gray" /></g>
<g><line x1="95.0588" y1="86.8055" x2="98.4712" y2="87.6366" class="gray" /></g>
<g><line x1="101.813" y1="89.6065" x2="104.087" y2="92.0756" class="gray" /></g>
<g><line x1="105.963" y1="95.5291" x2="106.857" y2="99.023" class="gray" /></g>
<g><line x1="106.625" y1="102.874" x2="105.355" y2="106.138" class="gray" /></g>
<g><line x1="102.951" y1="109.175" x2="99.7793" y2="111.357" class="gray" /></g>
<g><line x1="99.5415" y1="113.94" x2="102.118" y2="116.522" class="gray" /></g>
<g><line x1="104.953" y1="119.418" x2="107.387" y2="121.954" class="gray" /></g>
<g><line x1="110.163" y1="124.907" x2="112.437" y2="127.376" class="gray" /></g>
<g><line x1="115.24" y1="130.302" x2="117.82" y2="132.891" class="gray" /></g>
<g><line x1="121.195" y1="133.757" x2="124.755" y2="132.715" class="gray" /></g>
<g><line x1="126.951" y1="130.135" x2="127.379" y2="126.717" class="gray" /></g>
<g><line x1="128.046" y1="122.723" x2="128.774" y2="119.249" class="gray" /></g>
<g><line x1="129.603" y1="115.282" x2="130.327" y2="111.81" class="gray" /></g>
<g><line x1="129.193" y1="108.517" x2="126.517" y2="106.255" class="gray" /></g>
<g><line x1="126.87" y1="104.242" x2="129.98" y2="103.09" class="gray" /></g>
<g><line x1="132.242" y1="100.392" x2="132.868" y2="96.9399" class="gray" /></g>
<g><line x1="133.644" y1="92.9624" x2="134.366" y2="89.4997" class="gray" /></g>
<g><line x1="135.087" y1="85.513" x2="135.613" y2="82.079" class="gray" /></g>
<g><line x1="136.282" y1="78.0822" x2="136.908" y2="74.6299" class="gray" /></g>
<g><line x1="137.632" y1="70.6422" x2="138.258" y2="67.1899" class="gray" /></g>
<g><line x1="138.044" y1="63.2533" x2="137.046" y2="59.8888" class="gray" /></g>
<g><line x1="137.491" y1="56.1958" x2="139.259" y2="53.1663" class="gray" /></g>
<g><line x1="142.253" y1="50.9549" x2="145.667" y2="50.1572" class="gray" /></g>
<g><line x1="149.343" y1="50.7939" x2="152.437" y2="52.7881" class="gray" /></g>
<g><line x1="154.428" y1="55.8918" x2="154.922" y2="59.3302" class="gray" /></g>
<g><line x1="154.028" y1="62.9817" x2="152.052" y2="65.7304" class="gray" /></g>
<g><line x1="150.401" y1="69.3474" x2="149.569" y2="72.8447" class="gray" /></g>
<g><line x1="148.738" y1="76.8099" x2="148.112" y2="80.2622" class="gray" /></g>
<g><line x1="147.391" y1="84.2503" x2="146.769" y2="87.7018" class="gray" /></g>
<g><line x1="148.406" y1="90.0457" x2="152.064" y2="90.6864" class="gray" /></g>
<g><line x1="153.753" y1="93.039" x2="153.227" y2="96.473" class="gray" /></g>
<g><line x1="150.922" y1="98.1355" x2="147.058" y2="97.4766" class="gray" /></g>
<g><line x1="144.698" y1="99.1298" x2="144.072" y2="102.572" class="gray" /></g>
<g><line x1="143.406" y1="106.569" x2="142.884" y2="110.003" class="gray" /></g>
<g><line x1="142.164" y1="113.989" x2="141.436" y2="117.463" class="gray" /></g>
<g><line x1="140.713" y1="121.449" x2="140.187" y2="124.883" class="gray" /></g>
<g><line x1="139.518" y1="128.88" x2="138.892" y2="132.332" class="gray" /></g>
<g><line x1="140.162" y1="135.528" x2="143.118" y2="137.705" class="gray" /></g>
<g><line x1="145.789" y1="140.646" x2="147.531" y2="143.566" class="gray" /></g>
<g><line x1="148.98" y1="147.291" x2="149.69" y2="150.732" class="gray" /></g>
<g><line x1="149.732" y1="154.709" x2="149.088" y2="158.193" class="gray" /></g>
<g><line x1="150.741" y1="160.035" x2="154.449" y2="159.757" class="gray" /></g>
<g><line x1="158.171" y1="160.707" x2="161.119" y2="162.615" class="gray" /></g>
<g><line x1="163.559" y1="165.603" x2="164.861" y2="168.929" class="gray" /></g>
<g><line x1="164.897" y1="172.717" x2="163.633" y2="176.135" class="gray" /></g>
<g><line x1="161.28" y1="179.212" x2="158.42" y2="181.25" class="gray" /></g>
<g><line x1="154.745" y1="182.358" x2="151.655" y2="182.254" class="gray" /></g>
<g><line x1="148.033" y1="180.939" x2="145.147" y2="178.684" class="gray" /></g>
<g><line x1="143.067" y1="175.468" x2="142.233" y2="172.064" class="gray" /></g>
<g><line x1="139.933" y1="170.993" x2="136.617" y2="172.629" class="gray" /></g>
<g><line x1="134.912" y1="175.549" x2="135.108" y2="179.063" class="gray" /></g>
<g><line x1="135.164" y1="183.112" x2="135.066" y2="186.62" class="gray" /></g>
<g><line x1="134.954" y1="190.672" x2="134.856" y2="194.18" class="gray" /></g>
<g><line x1="134.8" y1="198.232" x2="134.8" y2="201.74" class="gray" /></g>
<g><line x1="134.912" y1="205.789" x2="135.108" y2="209.303" class="gray" /></g>
<g><line x1="135.108" y1="213.349" x2="134.912" y2="216.863" class="gray" /></g>
<g><line x1="134.8" y1="220.912" x2="134.8" y2="224.42" class="gray" /></g>
<g><line x1="136.826" y1="226.446" x2="139.774" y2="226.446" class="gray" /></g>
</svg>
