<svg
	xmlns="http://www.w3.org/2000/svg"
	width="240.14"
	height="287.93">
<g><style type="text/css" >
<!-- create color definitions -->
<![CDATA[
circle.red {stroke: rgb(255, 0, 255); fill: none; }
circle.green {stroke: rgb(0, 255, 0); fill: none; }
circle.blue {stroke: rgb(0, 0, 255); fill: none; }
circle.black {stroke: rgb(0, 0, 0); fill: none; }
circle.gray {stroke: rgb(204, 204, 204); fill: none; }
circle.brown {stroke: rgb(211.65, 104.55, 30.6); fill: none; }
line.red {stroke: rgb(255, 0, 255); stroke-width: 0.382742; }
line.green {stroke: rgb(0, 255, 0); stroke-width: 0.382742; }
line.blue {stroke: rgb(0, 0, 255); stroke-width: 0.382742; }
line.black {stroke: rgb(0, 0, 0); stroke-width: 0.382742; }
line.gray {stroke: rgb(204, 204, 204); stroke-width: 0.382742; }
line.brown {stroke: rgb(211.65, 104.55, 30.6); stroke-width: 0.382742; }
line {stroke: rgb(0, 0, 0); }
text.red {fill: rgb(255, 0, 255); font-size: 3.061938px; font-weight: bold; font-family: Helvetica; }
text.green {fill: rgb(0, 255, 0); font-size: 3.061938px; font-weight: bold; font-family: Helvetica; }
text.blue {fill: rgb(0, 0, 255); font-size: 3.061938px; font-weight: bold; font-family: Helvetica; }
text.black {fill: rgb(0, 0, 0); font-size: 3.061938px; font-weight: bold; font-family: Helvetica; }
text.gray {fill: rgb(204, 204, 204); font-size: 3.061938px; font-weight: bold; font-family: Helvetica; }
text.brown {fill: rgb(211.65, 104.55, 30.6); font-size: 3.061938px; font-weight: bold; font-family: Helvetica; }
text {fill: rgb(0, 0, 0); font-size: 3.061938px; font-weight: bold; font-family: Helvetica; text-anchor: middle; alignment-baseline: middle; }

.pseudoknot_connection{stroke-linecap: round; stroke-opacity: 0.2; stroke-width: 1.5; }
.pseudoknot_segment1{stroke-linecap: round; stroke-opacity: 0.4; stroke-width: 3.06194; }
.pseudoknot_segment2{stroke-linecap: round; stroke-opacity: 0.4; stroke-width: 3.06194; }
line.numbering-line{stroke: rgb(204, 204, 204); stroke-width: 0.191371; }
line.predicted{stroke: rgb(0, 0, 0); stroke-dasharray: 2; }
polyline{fill: none; stroke-linejoin: round; }
template{visibility: hidden; }
text.numbering-label{fill: rgb(204, 204, 204); }
]]>
</style></g>
<g><title>0 (position.label in template: 0.5')</title><text x="108.81" y="237.93" class="green" >5'</text></g>
<g><title>1 (position.label in template: 1.U)</title><text x="115.81" y="237.93" class="green" >T</text></g>
<g><line x1="117.851" y1="237.624" x2="125.799" y2="237.624" class="black" /></g>
<g><title>2 (position.label in template: 2.U)</title><text x="115.81" y="230.37" class="green" >T</text></g>
<g><line x1="117.851" y1="230.064" x2="125.799" y2="230.064" class="black" /></g>
<g><title>3 (position.label in template: 3.C)</title><text x="115.81" y="222.81" class="black" >C</text></g>
<g><line x1="117.851" y1="222.504" x2="125.799" y2="222.504" class="black" /></g>
<g><title>4 (position.label in template: 4.U)</title><text x="115.81" y="215.25" class="green" >T</text></g>
<g><line x1="117.851" y1="214.944" x2="126.219" y2="214.944" class="black" /></g>
<g><title>5 (position.label in template: 5.U)</title><text x="115.81" y="207.69" class="green" >T</text></g>
<g><line x1="117.851" y1="207.384" x2="126.219" y2="207.384" class="black" /></g>
<g><title>6 (position.label in template: 6.A)</title><text x="116.02" y="200.13" class="green" >A</text></g>
<g><line x1="118.061" y1="199.824" x2="126.009" y2="199.824" class="black" /></g>
<g><title>7 (position.label in template: 7.U)</title><text x="115.81" y="192.57" class="green" >T</text></g>
<g><line x1="117.851" y1="192.264" x2="126.219" y2="192.264" class="black" /></g>
<g><title>8 (position.label in template: 8.C)</title><text x="115.81" y="185.01" class="black" >C</text></g>
<g><line x1="117.851" y1="184.704" x2="125.799" y2="184.704" class="black" /></g>
<g><title>9 (position.label in template: 9.G)</title><text x="108.87" y="181.58" class="black" >G</text></g>
<g><title>10 (position.label in template: 10.A)</title><text x="104.18" y="176" class="black" >A</text></g>
<g><text x="98.3493" y="179.67" class="numbering-label sequential" >10</text></g>
<g><line x1="102.625" y1="176.979" x2="100.186" y2="178.513" class="numbering-line sequential" /></g>
<g><title>11 (position.label in template: 11.G)</title><text x="100.94" y="168.98" class="black" >G</text></g>
<g><title>12 (position.label in template: 12.A)</title><text x="101.18" y="161.42" class="black" >A</text></g>
<g><title>13 (position.label in template: 13.G)</title><text x="103.24" y="154.28" class="black" >G</text></g>
<g><line x1="104.73" y1="152.579" x2="110.8" y2="146.899" class="black" /></g>
<g><title>14 (position.label in template: 14.U)</title><text x="96.11" y="156.09" class="green" >T</text></g>
<g><title>15 (position.label in template: 15.G)</title><text x="98.01" y="148.83" class="black" >G</text></g>
<g><line x1="99.4996" y1="147.128" x2="105.57" y2="141.44" class="black" /></g>
<g><title>16 (position.label in template: 16.G)</title><text x="92.78" y="143.37" class="black" >G</text></g>
<g><line x1="94.2696" y1="141.668" x2="100.33" y2="135.989" class="black" /></g>
<g><title>17 (position.label in template: 17.U)</title><text x="87.76" y="137.91" class="green" >T</text></g>
<g><line x1="89.2496" y1="136.208" x2="95.3104" y2="130.529" class="black" /></g>
<g><title>18 (position.label in template: 18.G)</title><text x="79.99" y="138.12" class="black" >G</text></g>
<g><title>19 (position.label in template: 19.G)</title><text x="73.46" y="134.31" class="black" >G</text></g>
<g><title>20 (position.label in template: 20.A)</title><text x="70.34" y="127.62" class="black" >A</text></g>
<g><text x="63.6007" y="129.05" class="numbering-label sequential" >20</text></g>
<g><line x1="68.5429" y1="128.001" x2="65.4379" y2="128.66" class="numbering-line sequential" /></g>
<g><title>21 (position.label in template: 21.G)</title><text x="70.44" y="120.08" class="black" >G</text></g>
<g><line x1="71.9296" y1="118.378" x2="77.9904" y2="112.699" class="black" /></g>
<g><title>22 (position.label in template: 22.G)</title><text x="65.21" y="114.63" class="black" >G</text></g>
<g><line x1="66.6988" y1="112.927" x2="72.7612" y2="107.24" class="black" /></g>
<g><title>23 (position.label in template: 23.G)</title><text x="59.97" y="109.17" class="black" >G</text></g>
<g><line x1="61.4604" y1="107.469" x2="67.5296" y2="101.789" class="black" /></g>
<g><title>24 (position.label in template: 24.A)</title><text x="53.26" y="106.65" class="black" >A</text></g>
<g><title>25 (position.label in template: 25.C)</title><text x="50" y="99.74" class="black" >C</text></g>
<g><title>26 (position.label in template: 26.U)</title><text x="52.94" y="92.77" class="green" >T</text></g>
<g><title>27 (position.label in template: 27.G)</title><text x="59.81" y="90.13" class="black" >G</text></g>
<g><title>28 (position.label in template: 28.G)</title><text x="66.59" y="93.47" class="black" >G</text></g>
<g><title>29 (position.label in template: 29.C)</title><text x="69.02" y="100.7" class="black" >C</text></g>
<g><title>30 (position.label in template: 30.C)</title><text x="74.25" y="106.15" class="black" >C</text></g>
<g><text x="79.223" y="101.382" class="numbering-label sequential" >30</text></g>
<g><line x1="75.5761" y1="104.879" x2="77.6262" y2="102.913" class="numbering-line sequential" /></g>
<g><title>31 (position.label in template: 31.C)</title><text x="79.48" y="111.61" class="black" >C</text></g>
<g><title>32 (position.label in template: 32.U)</title><text x="84.21" y="105.71" class="green" >T</text></g>
<g><title>33 (position.label in template: 33.A)</title><text x="91.57" y="103.27" class="black" >A</text></g>
<g><title>34 (position.label in template: 34.U)</title><text x="98.71" y="105.05" class="green" >T</text></g>
<g><title>35 (position.label in template: 35.G)</title><text x="103.73" y="110.51" class="black" >G</text></g>
<g><title>36 (position.label in template: 36.A)</title><text x="105.63" y="117.92" class="black" >A</text></g>
<g><title>37 (position.label in template: 37.A)</title><text x="102.89" y="124.97" class="black" >A</text></g>
<g><title>38 (position.label in template: 38.A)</title><text x="96.8" y="129.44" class="green" >A</text></g>
<g><title>39 (position.label in template: 39.C)</title><text x="101.82" y="134.9" class="black" >C</text></g>
<g><title>40 (position.label in template: 40.C)</title><text x="107.06" y="140.35" class="black" >C</text></g>
<g><title>41 (position.label in template: 41.C)</title><text x="112.29" y="145.81" class="black" >C</text></g>
<g><title>42 (position.label in template: 42.G)</title><text x="119.32" y="143.63" class="green" >G</text></g>
<g><line x1="121.33" y1="143.681" x2="129.56" y2="145.146" class="black" /></g>
<g><title>43 (position.label in template: 43.G)</title><text x="120.66" y="136.19" class="black" >G</text></g>
<g><line x1="122.67" y1="136.241" x2="130.91" y2="137.706" class="black" /></g>
<g><title>44 (position.label in template: 44.C)</title><text x="122.22" y="128.75" class="black" >C</text></g>
<g><line x1="124.228" y1="128.813" x2="132.052" y2="130.254" class="black" /></g>
<g><title>45 (position.label in template: 45.A)</title><text x="123.77" y="121.31" class="green" >A</text></g>
<g><line x1="125.778" y1="121.373" x2="133.602" y2="122.814" class="black" /></g>
<g><title>46 (position.label in template: 46.A)</title><text x="118.01" y="116.43" class="black" >A</text></g>
<g><title>47 (position.label in template: 47.C)</title><text x="124.92" y="113.87" class="black" >C</text></g>
<g><line x1="126.927" y1="113.934" x2="134.743" y2="115.374" class="black" /></g>
<g><title>48 (position.label in template: 48.C)</title><text x="126.26" y="106.43" class="black" >C</text></g>
<g><line x1="128.267" y1="106.495" x2="136.093" y2="107.943" class="black" /></g>
<g><title>49 (position.label in template: 49.A)</title><text x="124.65" y="99.1" class="black" >A</text></g>
<g><title>50 (position.label in template: 50.A)</title><text x="128.93" y="92.86" class="green" >A</text></g>
<g><line x1="130.937" y1="92.9254" x2="138.753" y2="94.3722" class="black" /></g>
<g><text x="122.526" y="90.3208" class="numbering-label sequential" >50</text></g>
<g><line x1="127.222" y1="92.1829" x2="124.363" y2="91.0492" class="numbering-line sequential" /></g>
<g><title>51 (position.label in template: 51.U)</title><text x="130.07" y="85.43" class="green" >T</text></g>
<g><line x1="132.08" y1="85.4815" x2="140.31" y2="86.9462" class="black" /></g>
<g><title>52 (position.label in template: 52.A)</title><text x="131.62" y="77.99" class="green" >A</text></g>
<g><line x1="133.628" y1="78.0534" x2="141.452" y2="79.4942" class="black" /></g>
<g><title>53 (position.label in template: 53.U)</title><text x="132.76" y="70.55" class="green" >T</text></g>
<g><line x1="134.77" y1="70.6015" x2="143" y2="72.0662" class="black" /></g>
<g><title>54 (position.label in template: 54.A)</title><text x="129.19" y="64" class="black" >A</text></g>
<g><title>55 (position.label in template: 55.U)</title><text x="129.93" y="56.5" class="green" >T</text></g>
<g><title>56 (position.label in template: 56.U)</title><text x="135.22" y="51.1" class="green" >T</text></g>
<g><title>57 (position.label in template: 57.A)</title><text x="142.91" y="50" class="black" >A</text></g>
<g><title>58 (position.label in template: 58.U)</title><text x="149.32" y="53.66" class="green" >T</text></g>
<g><title>59 (position.label in template: 59.A)</title><text x="152.59" y="60.57" class="black" >A</text></g>
<g><title>60 (position.label in template: 60.U)</title><text x="150.64" y="67.92" class="green" >T</text></g>
<g><title>61 (position.label in template: 61.A)</title><text x="145.01" y="72.73" class="green" >A</text></g>
<g><title>62 (position.label in template: 62.U)</title><text x="143.46" y="80.17" class="green" >T</text></g>
<g><title>63 (position.label in template: 63.A)</title><text x="142.32" y="87.61" class="green" >A</text></g>
<g><title>64 (position.label in template: 64.U)</title><text x="140.76" y="95.05" class="green" >T</text></g>
<g><title>65 (position.label in template: 65.A)</title><text x="147.19" y="99.34" class="black" >A</text></g>
<g><title>66 (position.label in template: 66.A)</title><text x="145.85" y="106.78" class="black" >A</text></g>
<g><title>67 (position.label in template: 67.G)</title><text x="138.1" y="108.62" class="black" >G</text></g>
<g><title>68 (position.label in template: 68.G)</title><text x="136.75" y="116.05" class="black" >G</text></g>
<g><title>69 (position.label in template: 69.U)</title><text x="135.61" y="123.49" class="green" >T</text></g>
<g><title>70 (position.label in template: 70.G)</title><text x="134.06" y="130.93" class="black" >G</text></g>
<g><title>71 (position.label in template: 71.C)</title><text x="132.92" y="138.37" class="black" >C</text></g>
<g><title>72 (position.label in template: 72.U)</title><text x="131.57" y="145.81" class="green" >T</text></g>
<g><title>73 (position.label in template: 73.A)</title><text x="137.79" y="150.39" class="black" >A</text></g>
<g><title>74 (position.label in template: 74.A)</title><text x="141.82" y="156.79" class="black" >A</text></g>
<g><title>75 (position.label in template: 75.A)</title><text x="143.34" y="164.2" class="black" >A</text></g>
<g><title>76 (position.label in template: 76.U)</title><text x="141.97" y="171.67" class="green" >T</text></g>
<g><line x1="140.795" y1="173.033" x2="136.165" y2="179.605" class="black" /></g>
<g><title>77 (position.label in template: 77.C)</title><text x="146.74" y="165.8" class="black" >C</text></g>
<g><title>78 (position.label in template: 78.C)</title><text x="154.23" y="164.82" class="black" >C</text></g>
<g><title>79 (position.label in template: 79.U)</title><text x="160.36" y="169.26" class="green" >T</text></g>
<g><title>80 (position.label in template: 80.G)</title><text x="161.55" y="176.68" class="black" >G</text></g>
<g><title>81 (position.label in template: 81.C)</title><text x="157.67" y="183.05" class="black" >C</text></g>
<g><line x1="156.45" y1="184.38" x2="151.5" y2="191.017" class="black" /></g>
<g><title>82 (position.label in template: 82.A)</title><text x="164" y="187.48" class="green" >A</text></g>
<g><line x1="162.78" y1="188.81" x2="157.83" y2="195.447" class="black" /></g>
<g><title>83 (position.label in template: 83.G)</title><text x="169.7" y="191.92" class="black" >G</text></g>
<g><line x1="168.526" y1="193.283" x2="163.904" y2="199.854" class="black" /></g>
<g><title>84 (position.label in template: 84.U)</title><text x="176.03" y="196.35" class="green" >T</text></g>
<g><line x1="174.856" y1="197.714" x2="170.234" y2="204.294" class="black" /></g>
<g><title>85 (position.label in template: 85.A)</title><text x="182.36" y="200.79" class="black" >A</text></g>
<g><line x1="181.162" y1="202.137" x2="176.378" y2="208.741" class="black" /></g>
<g><title>86 (position.label in template: 86.A)</title><text x="188.48" y="205.23" class="green" >A</text></g>
<g><line x1="187.261" y1="206.561" x2="182.319" y2="213.197" class="black" /></g>
<g><title>87 (position.label in template: 87.G)</title><text x="190.14" y="212.49" class="black" >G</text></g>
<g><title>88 (position.label in template: 88.U)</title><text x="181.1" y="215.14" class="green" >T</text></g>
<g><title>89 (position.label in template: 89.A)</title><text x="175.18" y="210.7" class="black" >A</text></g>
<g><title>90 (position.label in template: 90.A)</title><text x="169.06" y="206.27" class="green" >A</text></g>
<g><title>91 (position.label in template: 91.C)</title><text x="162.73" y="201.83" class="black" >C</text></g>
<g><title>92 (position.label in template: 92.U)</title><text x="156.61" y="197.39" class="green" >T</text></g>
<g><title>93 (position.label in template: 93.G)</title><text x="150.28" y="192.96" class="black" >G</text></g>
<g><title>94 (position.label in template: 94.A)</title><text x="143.14" y="193.3" class="black" >A</text></g>
<g><title>95 (position.label in template: 95.U)</title><text x="136.81" y="188.86" class="green" >T</text></g>
<g><title>96 (position.label in template: 96.A)</title><text x="134.99" y="181.58" class="green" >A</text></g>
<g><title>97 (position.label in template: 97.G)</title><text x="127.84" y="185.01" class="black" >G</text></g>
<g><title>98 (position.label in template: 98.A)</title><text x="128.26" y="192.57" class="green" >A</text></g>
<g><title>99 (position.label in template: 99.U)</title><text x="128.05" y="200.13" class="green" >T</text></g>
<g><title>100 (position.label in template: 100.A)</title><text x="128.26" y="207.69" class="green" >A</text></g>
<g><text x="135.149" y="207.594" class="numbering-label sequential" >100</text></g>
<g><line x1="130.097" y1="207.664" x2="132.393" y2="207.633" class="numbering-line sequential" /></g>
<g><title>101 (position.label in template: 101.A)</title><text x="128.26" y="215.25" class="green" >A</text></g>
<g><title>102 (position.label in template: 102.G)</title><text x="127.84" y="222.81" class="black" >G</text></g>
<g><title>103 (position.label in template: 103.G)</title><text x="127.84" y="230.37" class="green" >G</text></g>
<g><title>104 (position.label in template: 104.G)</title><text x="127.84" y="237.93" class="green" >G</text></g>
<g><title>105 (position.label in template: 105.3')</title><text x="134.84" y="237.93" class="green" >3'</text></g>
<g><line x1="110.851" y1="237.624" x2="113.769" y2="237.624" class="gray" /></g>
<g><line x1="115.81" y1="235.583" x2="115.81" y2="232.105" class="gray" /></g>
<g><line x1="115.81" y1="228.023" x2="115.81" y2="224.545" class="gray" /></g>
<g><line x1="115.81" y1="220.463" x2="115.81" y2="216.985" class="gray" /></g>
<g><line x1="115.81" y1="212.903" x2="115.81" y2="209.425" class="gray" /></g>
<g><line x1="115.867" y1="205.343" x2="115.963" y2="201.864" class="gray" /></g>
<g><line x1="115.963" y1="197.783" x2="115.867" y2="194.304" class="gray" /></g>
<g><line x1="115.81" y1="190.223" x2="115.81" y2="186.745" class="gray" /></g>
<g><line x1="113.98" y1="183.799" x2="110.7" y2="182.178" class="gray" /></g>
<g><line x1="107.557" y1="179.711" x2="105.493" y2="177.256" class="gray" /></g>
<g><line x1="103.325" y1="173.84" x2="101.795" y2="170.527" class="gray" /></g>
<g><line x1="101.005" y1="166.634" x2="101.115" y2="163.154" class="gray" /></g>
<g><line x1="101.746" y1="159.153" x2="102.674" y2="155.935" class="gray" /></g>
<g><line x1="101.261" y1="154.476" x2="98.0885" y2="155.282" class="gray" /></g>
<g><line x1="96.6268" y1="153.809" x2="97.4932" y2="150.499" class="gray" /></g>
<g><line x1="96.598" y1="147.05" x2="94.192" y2="144.538" class="gray" /></g>
<g><line x1="91.3984" y1="141.561" x2="89.1416" y2="139.106" class="gray" /></g>
<g><line x1="85.7195" y1="137.659" x2="82.0305" y2="137.759" class="gray" /></g>
<g><line x1="78.2269" y1="136.785" x2="75.2231" y2="135.033" class="gray" /></g>
<g><line x1="72.5972" y1="132.154" x2="71.2028" y2="129.164" class="gray" /></g>
<g><line x1="70.3671" y1="125.273" x2="70.4129" y2="121.815" class="gray" /></g>
<g><line x1="69.0266" y1="118.301" x2="66.6234" y2="115.797" class="gray" /></g>
<g><line x1="63.7966" y1="112.851" x2="61.3834" y2="110.337" class="gray" /></g>
<g><line x1="58.059" y1="108.146" x2="55.171" y2="107.061" class="gray" /></g>
<g><line x1="52.389" y1="104.498" x2="50.871" y2="101.28" class="gray" /></g>
<g><line x1="50.7933" y1="97.553" x2="52.1467" y2="94.3446" class="gray" /></g>
<g><line x1="54.8454" y1="91.7316" x2="57.9046" y2="90.556" class="gray" /></g>
<g><line x1="61.6412" y1="90.7259" x2="64.7588" y2="92.2617" class="gray" /></g>
<g><line x1="67.2403" y1="95.0987" x2="68.3697" y2="98.4589" class="gray" /></g>
<g><line x1="70.4334" y1="101.867" x2="72.8366" y2="104.371" class="gray" /></g>
<g><line x1="75.662" y1="107.318" x2="78.068" y2="109.83" class="gray" /></g>
<g><line x1="80.7568" y1="109.711" x2="82.9332" y2="106.996" class="gray" /></g>
<g><line x1="86.1476" y1="104.761" x2="89.6324" y2="103.606" class="gray" /></g>
<g><line x1="93.5507" y1="103.458" x2="96.7293" y2="104.25" class="gray" /></g>
<g><line x1="100.092" y1="106.246" x2="102.348" y2="108.701" class="gray" /></g>
<g><line x1="104.237" y1="112.181" x2="105.123" y2="115.636" class="gray" /></g>
<g><line x1="104.891" y1="119.516" x2="103.629" y2="122.761" class="gray" /></g>
<g><line x1="101.244" y1="125.872" x2="98.4456" y2="127.926" class="gray" /></g>
<g><line x1="98.1816" y1="130.636" x2="100.438" y2="133.091" class="gray" /></g>
<g><line x1="103.235" y1="136.065" x2="105.645" y2="138.572" class="gray" /></g>
<g><line x1="108.472" y1="141.518" x2="110.878" y2="144.03" class="gray" /></g>
<g><line x1="114.24" y1="144.899" x2="117.37" y2="143.928" class="gray" /></g>
<g><line x1="119.682" y1="141.315" x2="120.298" y2="137.893" class="gray" /></g>
<g><line x1="121.079" y1="133.886" x2="121.801" y2="130.442" class="gray" /></g>
<g><line x1="122.636" y1="126.445" x2="123.354" y2="123.002" class="gray" /></g>
<g><line x1="122.213" y1="119.684" x2="119.567" y2="117.443" class="gray" /></g>
<g><line x1="119.924" y1="115.415" x2="123.006" y2="114.273" class="gray" /></g>
<g><line x1="125.282" y1="111.555" x2="125.898" y2="108.133" class="gray" /></g>
<g><line x1="125.822" y1="104.13" x2="125.088" y2="100.788" class="gray" /></g>
<g><line x1="125.805" y1="97.1104" x2="127.775" y2="94.2372" class="gray" /></g>
<g><line x1="129.24" y1="90.5361" x2="129.76" y2="87.1415" class="gray" /></g>
<g><line x1="130.486" y1="83.1254" x2="131.204" y2="79.6822" class="gray" /></g>
<g><line x1="131.929" y1="75.6661" x2="132.451" y2="72.2615" class="gray" /></g>
<g><line x1="131.783" y1="68.4515" x2="130.167" y2="65.4862" class="gray" /></g>
<g><line x1="129.39" y1="61.6624" x2="129.73" y2="58.2252" class="gray" /></g>
<g><line x1="131.358" y1="54.7356" x2="133.792" y2="52.252" class="gray" /></g>
<g><line x1="137.241" y1="50.5048" x2="140.889" y2="49.9829" class="gray" /></g>
<g><line x1="144.683" y1="50.706" x2="147.547" y2="52.3416" class="gray" /></g>
<g><line x1="150.193" y1="55.1989" x2="151.717" y2="58.4187" class="gray" /></g>
<g><line x1="152.067" y1="62.2368" x2="151.163" y2="65.6408" class="gray" /></g>
<g><line x1="149.088" y1="68.9398" x2="146.562" y2="71.0978" class="gray" /></g>
<g><line x1="144.594" y1="74.4222" x2="143.876" y2="77.8654" class="gray" /></g>
<g><line x1="143.151" y1="81.8815" x2="142.629" y2="85.2861" class="gray" /></g>
<g><line x1="141.901" y1="89.3017" x2="141.179" y2="92.746" class="gray" /></g>
<g><line x1="142.458" y1="95.8767" x2="145.492" y2="97.9009" class="gray" /></g>
<g><line x1="146.828" y1="101.043" x2="146.212" y2="104.465" class="gray" /></g>
<g><line x1="143.864" y1="106.945" x2="140.086" y2="107.842" class="gray" /></g>
<g><line x1="137.735" y1="110.322" x2="137.115" y2="113.735" class="gray" /></g>
<g><line x1="136.441" y1="117.762" x2="135.919" y2="121.166" class="gray" /></g>
<g><line x1="135.194" y1="125.182" x2="134.476" y2="128.625" class="gray" /></g>
<g><line x1="133.751" y1="132.642" x2="133.229" y2="136.046" class="gray" /></g>
<g><line x1="132.556" y1="140.072" x2="131.934" y2="143.495" class="gray" /></g>
<g><line x1="133.214" y1="146.714" x2="136.146" y2="148.873" class="gray" /></g>
<g><line x1="138.878" y1="151.811" x2="140.732" y2="154.756" class="gray" /></g>
<g><line x1="142.23" y1="158.483" x2="142.93" y2="161.894" class="gray" /></g>
<g><line x1="142.972" y1="165.902" x2="142.338" y2="169.356" class="gray" /></g>
<g><line x1="143.257" y1="169.78" x2="145.453" y2="167.078" class="gray" /></g>
<g><line x1="148.764" y1="165.229" x2="152.206" y2="164.779" class="gray" /></g>
<g><line x1="155.883" y1="165.711" x2="158.707" y2="167.756" class="gray" /></g>
<g><line x1="160.683" y1="170.969" x2="161.227" y2="174.358" class="gray" /></g>
<g><line x1="160.488" y1="178.117" x2="158.732" y2="181" class="gray" /></g>
<g><line x1="159.342" y1="183.914" x2="162.328" y2="186.003" class="gray" /></g>
<g><line x1="165.61" y1="188.428" x2="168.09" y2="190.359" class="gray" /></g>
<g><line x1="171.372" y1="192.784" x2="174.358" y2="194.873" class="gray" /></g>
<g><line x1="177.701" y1="197.216" x2="180.689" y2="199.312" class="gray" /></g>
<g><line x1="184.012" y1="201.683" x2="186.828" y2="203.725" class="gray" /></g>
<g><line x1="188.935" y1="206.914" x2="189.685" y2="210.194" class="gray" /></g>
<g><line x1="188.181" y1="212.758" x2="183.059" y2="214.26" class="gray" /></g>
<g><line x1="179.467" y1="213.609" x2="176.813" y2="211.619" class="gray" /></g>
<g><line x1="173.526" y1="209.197" x2="170.714" y2="207.161" class="gray" /></g>
<g><line x1="167.389" y1="204.792" x2="164.401" y2="202.696" class="gray" /></g>
<g><line x1="161.078" y1="200.325" x2="158.262" y2="198.283" class="gray" /></g>
<g><line x1="154.938" y1="195.913" x2="151.952" y2="193.824" class="gray" /></g>
<g><line x1="148.241" y1="192.751" x2="145.179" y2="192.897" class="gray" /></g>
<g><line x1="141.469" y1="191.822" x2="138.481" y2="189.726" class="gray" /></g>
<g><line x1="136.315" y1="186.573" x2="135.485" y2="183.254" class="gray" /></g>
<g><line x1="133.15" y1="182.157" x2="129.68" y2="183.821" class="gray" /></g>
<g><line x1="127.953" y1="186.742" x2="128.147" y2="190.226" class="gray" /></g>
<g><line x1="128.203" y1="194.304" x2="128.107" y2="197.783" class="gray" /></g>
<g><line x1="128.107" y1="201.864" x2="128.203" y2="205.343" class="gray" /></g>
<g><line x1="128.26" y1="209.425" x2="128.26" y2="212.903" class="gray" /></g>
<g><line x1="128.147" y1="216.982" x2="127.953" y2="220.466" class="gray" /></g>
<g><line x1="127.84" y1="224.545" x2="127.84" y2="228.023" class="gray" /></g>
<g><line x1="127.84" y1="232.105" x2="127.84" y2="235.583" class="gray" /></g>
<g><line x1="129.881" y1="237.624" x2="132.799" y2="237.624" class="gray" /></g>
</svg>
