<svg
	xmlns="http://www.w3.org/2000/svg"
	width="267.07"
	height="262.607">
<g><style type="text/css" >
<!-- create color definitions -->
<![CDATA[
circle.red {stroke: rgb(255, 0, 255); fill: none; }
circle.green {stroke: rgb(0, 255, 0); fill: none; }
circle.blue {stroke: rgb(0, 0, 255); fill: none; }
circle.black {stroke: rgb(0, 0, 0); fill: none; }
circle.gray {stroke: rgb(204, 204, 204); fill: none; }
circle.brown {stroke: rgb(211.65, 104.55, 30.6); fill: none; }
line.red {stroke: rgb(255, 0, 255); stroke-width: 0.384583; }
line.green {stroke: rgb(0, 255, 0); stroke-width: 0.384583; }
line.blue {stroke: rgb(0, 0, 255); stroke-width: 0.384583; }
line.black {stroke: rgb(0, 0, 0); stroke-width: 0.384583; }
line.gray {stroke: rgb(204, 204, 204); stroke-width: 0.384583; }
line.brown {stroke: rgb(211.65, 104.55, 30.6); stroke-width: 0.384583; }
line {stroke: rgb(0, 0, 0); }
text.red {fill: rgb(255, 0, 255); font-size: 3.076667px; font-weight: bold; font-family: Helvetica; }
text.green {fill: rgb(0, 255, 0); font-size: 3.076667px; font-weight: bold; font-family: Helvetica; }
text.blue {fill: rgb(0, 0, 255); font-size: 3.076667px; font-weight: bold; font-family: Helvetica; }
text.black {fill: rgb(0, 0, 0); font-size: 3.076667px; font-weight: bold; font-family: Helvetica; }
text.gray {fill: rgb(204, 204, 204); font-size: 3.076667px; font-weight: bold; font-family: Helvetica; }
text.brown {fill: rgb(211.65, 104.55, 30.6); font-size: 3.076667px; font-weight: bold; font-family: Helvetica; }
text {fill: rgb(0, 0, 0); font-size: 3.076667px; font-weight: bold; font-family: Helvetica; text-anchor: middle; alignment-baseline: middle; }

.pseudoknot_connection{stroke-linecap: round; stroke-opacity: 0.2; stroke-width: 1.5; }
.pseudoknot_segment1{stroke-linecap: round; stroke-opacity: 0.4; stroke-width: 3.07667; }
.pseudoknot_segment2{stroke-linecap: round; stroke-opacity: 0.4; stroke-width: 3.07667; }
line.numbering-line{stroke: rgb(204, 204, 204); stroke-width: 0.192292; }
line.predicted{stroke: rgb(0, 0, 0); stroke-dasharray: 2; }
polyline{fill: none; stroke-linejoin: round; }
template{visibility: hidden; }
text.numbering-label{fill: rgb(204, 204, 204); }
]]>
</style></g>
<g><title>0 (position.label in template: 0.5')</title><text x="77.7586" y="212.607" class="green" >5'</text></g>
<g><title>1 (position.label in template: 1.A)</title><text x="85.3207" y="212.607" class="black" >A</text></g>
<g><title>2 (position.label in template: 2.U)</title><text x="92.8828" y="212.607" class="green" >T</text></g>
<g><title>3 (position.label in template: 3.U)</title><text x="98.23" y="207.26" class="green" >T</text></g>
<g><line x1="100.281" y1="206.952" x2="108.619" y2="206.952" class="black" /></g>
<g><title>4 (position.label in template: 4.C)</title><text x="98.23" y="199.7" class="black" >C</text></g>
<g><line x1="100.281" y1="199.392" x2="108.619" y2="199.392" class="black" /></g>
<g><title>5 (position.label in template: 5.A)</title><text x="91" y="198.33" class="black" >A</text></g>
<g><title>6 (position.label in template: 6.A)</title><text x="83.83" y="195.95" class="black" >A</text></g>
<g><title>7 (position.label in template: 7.U)</title><text x="76.84" y="192.6" class="green" >T</text></g>
<g><title>8 (position.label in template: 8.G)</title><text x="70.39" y="188.34" class="black" >G</text></g>
<g><title>9 (position.label in template: 9.A)</title><text x="65.21" y="183.25" class="black" >A</text></g>
<g><title>10 (position.label in template: 10.U)</title><text x="60.17" y="177.44" class="green" >T</text></g>
<g><text x="54.6467" y="181.613" class="numbering-label sequential" >10</text></g>
<g><line x1="58.6971" y1="178.553" x2="56.6828" y2="180.075" class="numbering-line sequential" /></g>
<g><title>11 (position.label in template: 11.G)</title><text x="55.97" y="171.02" class="black" >G</text></g>
<g><title>12 (position.label in template: 12.A)</title><text x="53.33" y="164.11" class="black" >A</text></g>
<g><title>13 (position.label in template: 13.A)</title><text x="51.25" y="156.84" class="black" >A</text></g>
<g><title>14 (position.label in template: 14.A)</title><text x="50.21" y="149.35" class="black" >A</text></g>
<g><title>15 (position.label in template: 15.U)</title><text x="50" y="141.79" class="green" >T</text></g>
<g><title>16 (position.label in template: 16.A)</title><text x="51.25" y="134.3" class="black" >A</text></g>
<g><title>17 (position.label in template: 17.U)</title><text x="53.12" y="127.03" class="green" >T</text></g>
<g><title>18 (position.label in template: 18.C)</title><text x="56.18" y="120.12" class="black" >C</text></g>
<g><title>19 (position.label in template: 19.U)</title><text x="60.17" y="113.69" class="green" >T</text></g>
<g><title>20 (position.label in template: 20.C)</title><text x="65" y="107.89" class="black" >C</text></g>
<g><text x="60.0485" y="103.052" class="numbering-label sequential" >20</text></g>
<g><line x1="63.6796" y1="106.6" x2="61.623" y2="104.591" class="numbering-line sequential" /></g>
<g><title>21 (position.label in template: 21.A)</title><text x="70.81" y="102.8" class="black" >A</text></g>
<g><title>22 (position.label in template: 22.U)</title><text x="76.84" y="98.54" class="green" >T</text></g>
<g><title>23 (position.label in template: 23.U)</title><text x="83.62" y="95.19" class="green" >T</text></g>
<g><title>24 (position.label in template: 24.C)</title><text x="90.79" y="92.8" class="black" >C</text></g>
<g><title>25 (position.label in template: 25.C)</title><text x="98.23" y="91.43" class="black" >C</text></g>
<g><line x1="100.281" y1="91.1223" x2="108.209" y2="91.1223" class="black" /></g>
<g><title>26 (position.label in template: 26.A)</title><text x="98.43" y="83.87" class="green" >A</text></g>
<g><line x1="100.481" y1="83.5623" x2="108.419" y2="83.5623" class="black" /></g>
<g><title>27 (position.label in template: 27.G)</title><text x="98.02" y="76.31" class="black" >G</text></g>
<g><line x1="100.071" y1="76.0023" x2="108.419" y2="76.0023" class="black" /></g>
<g><title>28 (position.label in template: 28.U)</title><text x="98.23" y="68.75" class="green" >T</text></g>
<g><line x1="100.281" y1="68.4423" x2="108.619" y2="68.4423" class="black" /></g>
<g><title>29 (position.label in template: 29.U)</title><text x="93.97" y="62.51" class="green" >T</text></g>
<g><title>30 (position.label in template: 30.C)</title><text x="94.9" y="55.01" class="black" >C</text></g>
<g><text x="88.7773" y="51.7798" class="numbering-label sequential" >30</text></g>
<g><line x1="93.2673" y1="54.1486" x2="90.6233" y2="52.7537" class="numbering-line sequential" /></g>
<g><title>31 (position.label in template: 31.U)</title><text x="100.57" y="50" class="green" >T</text></g>
<g><title>32 (position.label in template: 32.G)</title><text x="107.92" y="50" class="black" >G</text></g>
<g><title>33 (position.label in template: 33.C)</title><text x="113.8" y="55.01" class="black" >C</text></g>
<g><title>34 (position.label in template: 34.U)</title><text x="114.73" y="62.51" class="green" >T</text></g>
<g><title>35 (position.label in template: 35.A)</title><text x="110.67" y="68.75" class="green" >A</text></g>
<g><title>36 (position.label in template: 36.C)</title><text x="110.47" y="76.31" class="black" >C</text></g>
<g><title>37 (position.label in template: 37.U)</title><text x="110.47" y="83.87" class="green" >T</text></g>
<g><title>38 (position.label in template: 38.G)</title><text x="110.26" y="91.43" class="black" >G</text></g>
<g><title>39 (position.label in template: 39.A)</title><text x="117.02" y="87.33" class="black" >A</text></g>
<g><title>40 (position.label in template: 40.U)</title><text x="123.59" y="83.97" class="green" >T</text></g>
<g><title>41 (position.label in template: 41.C)</title><text x="130.69" y="81.39" class="black" >C</text></g>
<g><title>42 (position.label in template: 42.A)</title><text x="138.25" y="79.63" class="black" >A</text></g>
<g><title>43 (position.label in template: 43.U)</title><text x="145.55" y="78.7" class="green" >T</text></g>
<g><title>44 (position.label in template: 44.G)</title><text x="152.9" y="78.63" class="black" >G</text></g>
<g><title>45 (position.label in template: 45.U)</title><text x="160.63" y="79.41" class="green" >T</text></g>
<g><title>46 (position.label in template: 46.U)</title><text x="168.01" y="81.03" class="green" >T</text></g>
<g><title>47 (position.label in template: 47.G)</title><text x="174.96" y="83.48" class="black" >G</text></g>
<g><title>48 (position.label in template: 48.A)</title><text x="182.21" y="86.71" class="black" >A</text></g>
<g><title>49 (position.label in template: 49.C)</title><text x="188.43" y="90.69" class="black" >C</text></g>
<g><title>50 (position.label in template: 50.G)</title><text x="194.15" y="95.38" class="black" >G</text></g>
<g><text x="198.693" y="90.1565" class="numbering-label sequential" >50</text></g>
<g><line x1="195.361" y1="93.9871" x2="197.355" y2="91.6949" class="numbering-line sequential" /></g>
<g><title>51 (position.label in template: 51.A)</title><text x="199.94" y="100.7" class="black" >A</text></g>
<g><title>52 (position.label in template: 52.U)</title><text x="204.47" y="106.59" class="green" >T</text></g>
<g><title>53 (position.label in template: 53.A)</title><text x="208.72" y="112.98" class="black" >A</text></g>
<g><title>54 (position.label in template: 54.C)</title><text x="211.81" y="119.78" class="black" >C</text></g>
<g><title>55 (position.label in template: 55.C)</title><text x="214.32" y="126.91" class="black" >C</text></g>
<g><title>56 (position.label in template: 56.C)</title><text x="216.02" y="134.28" class="black" >C</text></g>
<g><title>57 (position.label in template: 57.A)</title><text x="217.07" y="141.79" class="black" >A</text></g>
<g><title>58 (position.label in template: 58.U)</title><text x="216.87" y="149.35" class="green" >T</text></g>
<g><title>59 (position.label in template: 59.U)</title><text x="216.02" y="156.86" class="green" >T</text></g>
<g><title>60 (position.label in template: 60.U)</title><text x="214.32" y="164.23" class="green" >T</text></g>
<g><title>61 (position.label in template: 61.A)</title><text x="212.02" y="171.36" class="black" >A</text></g>
<g><title>62 (position.label in template: 62.C)</title><text x="208.51" y="178.16" class="black" >C</text></g>
<g><title>63 (position.label in template: 63.C)</title><text x="204.47" y="184.55" class="black" >C</text></g>
<g><title>64 (position.label in template: 64.A)</title><text x="199.94" y="190.44" class="black" >A</text></g>
<g><title>65 (position.label in template: 65.A)</title><text x="194.57" y="195.76" class="black" >A</text></g>
<g><title>66 (position.label in template: 66.A)</title><text x="188.63" y="200.44" class="black" >A</text></g>
<g><title>67 (position.label in template: 67.C)</title><text x="182" y="204.43" class="black" >C</text></g>
<g><title>68 (position.label in template: 68.U)</title><text x="175.17" y="207.66" class="green" >T</text></g>
<g><title>69 (position.label in template: 69.U)</title><text x="168.01" y="210.1" class="green" >T</text></g>
<g><title>70 (position.label in template: 70.C)</title><text x="160.63" y="211.73" class="black" >C</text></g>
<g><title>71 (position.label in template: 71.U)</title><text x="153.11" y="212.51" class="green" >T</text></g>
<g><title>72 (position.label in template: 72.C)</title><text x="145.55" y="212.43" class="black" >C</text></g>
<g><title>73 (position.label in template: 73.U)</title><text x="138.05" y="211.51" class="green" >T</text></g>
<g><title>74 (position.label in template: 74.G)</title><text x="130.48" y="209.75" class="black" >G</text></g>
<g><title>75 (position.label in template: 75.A)</title><text x="123.79" y="207.17" class="black" >A</text></g>
<g><title>76 (position.label in template: 76.G)</title><text x="116.61" y="203.81" class="black" >G</text></g>
<g><title>77 (position.label in template: 77.A)</title><text x="110.67" y="199.7" class="black" >A</text></g>
<g><title>78 (position.label in template: 78.A)</title><text x="110.67" y="207.26" class="green" >A</text></g>
<g><title>79 (position.label in template: 79.3')</title><text x="117.912" y="205.083" class="green" >3'</text></g>
<g><line x1="79.8097" y1="212.3" x2="83.2696" y2="212.3" class="gray" /></g>
<g><line x1="87.3718" y1="212.3" x2="90.8317" y2="212.3" class="gray" /></g>
<g><line x1="94.3332" y1="210.849" x2="96.7796" y2="208.403" class="gray" /></g>
<g><line x1="98.23" y1="204.901" x2="98.23" y2="201.443" class="gray" /></g>
<g><line x1="96.2147" y1="199.01" x2="93.0153" y2="198.404" class="gray" /></g>
<g><line x1="89.0533" y1="197.376" x2="85.7767" y2="196.289" class="gray" /></g>
<g><line x1="81.9803" y1="194.756" x2="78.6897" y2="193.179" class="gray" /></g>
<g><line x1="75.1285" y1="191.162" x2="72.1015" y2="189.163" class="gray" /></g>
<g><line x1="68.927" y1="186.595" x2="66.673" y2="184.38" class="gray" /></g>
<g><line x1="63.866" y1="181.393" x2="61.514" y2="178.682" class="gray" /></g>
<g><line x1="59.0471" y1="175.416" x2="57.0929" y2="172.429" class="gray" /></g>
<g><line x1="55.238" y1="168.796" x2="54.062" y2="165.718" class="gray" /></g>
<g><line x1="52.7658" y1="161.83" x2="51.8142" y2="158.504" class="gray" /></g>
<g><line x1="50.9679" y1="154.501" x2="50.4921" y2="151.074" class="gray" /></g>
<g><line x1="50.153" y1="146.992" x2="50.057" y2="143.533" class="gray" /></g>
<g><line x1="50.3376" y1="139.459" x2="50.9124" y2="136.015" class="gray" /></g>
<g><line x1="51.761" y1="132.006" x2="52.609" y2="128.709" class="gray" /></g>
<g><line x1="53.9505" y1="124.847" x2="55.3495" y2="121.688" class="gray" /></g>
<g><line x1="57.2615" y1="118.07" x2="59.0885" y2="115.125" class="gray" /></g>
<g><line x1="61.4826" y1="111.806" x2="63.6874" y2="109.158" class="gray" /></g>
<g><line x1="66.5428" y1="106.231" x2="69.2672" y2="103.844" class="gray" /></g>
<g><line x1="72.4852" y1="101.309" x2="75.1648" y2="99.4158" class="gray" /></g>
<g><line x1="78.6789" y1="97.3237" x2="81.7811" y2="95.7909" class="gray" /></g>
<g><line x1="85.5659" y1="94.2337" x2="88.8441" y2="93.141" class="gray" /></g>
<g><line x1="92.8072" y1="92.1209" x2="96.2128" y2="91.4938" class="gray" /></g>
<g><line x1="98.2842" y1="89.0719" x2="98.3758" y2="85.6127" class="gray" /></g>
<g><line x1="98.3189" y1="81.5142" x2="98.1311" y2="78.0504" class="gray" /></g>
<g><line x1="98.077" y1="73.952" x2="98.173" y2="70.4927" class="gray" /></g>
<g><line x1="97.0735" y1="66.7483" x2="95.1265" y2="63.8963" class="gray" /></g>
<g><line x1="94.2224" y1="60.1668" x2="94.6476" y2="56.7379" class="gray" /></g>
<g><line x1="96.4371" y1="53.3442" x2="99.0329" y2="51.0505" class="gray" /></g>
<g><line x1="102.621" y1="49.6923" x2="105.869" y2="49.6923" class="gray" /></g>
<g><line x1="109.481" y1="51.0226" x2="112.239" y2="53.3721" class="gray" /></g>
<g><line x1="114.052" y1="56.7379" x2="114.478" y2="60.1668" class="gray" /></g>
<g><line x1="113.611" y1="63.9216" x2="111.789" y2="66.7231" class="gray" /></g>
<g><line x1="110.616" y1="70.4927" x2="110.524" y2="73.9519" class="gray" /></g>
<g><line x1="110.47" y1="78.0534" x2="110.47" y2="81.5112" class="gray" /></g>
<g><line x1="110.413" y1="85.6127" x2="110.317" y2="89.072" class="gray" /></g>
<g><line x1="112.014" y1="90.0587" x2="115.266" y2="88.086" class="gray" /></g>
<g><line x1="118.846" y1="86.0884" x2="121.764" y2="84.5963" class="gray" /></g>
<g><line x1="125.518" y1="82.9618" x2="128.762" y2="81.7829" class="gray" /></g>
<g><line x1="132.688" y1="80.6173" x2="136.252" y2="79.7874" class="gray" /></g>
<g><line x1="140.285" y1="79.0631" x2="143.515" y2="78.6515" class="gray" /></g>
<g><line x1="147.601" y1="78.3728" x2="150.849" y2="78.3419" class="gray" /></g>
<g><line x1="154.941" y1="78.5283" x2="158.589" y2="78.8964" class="gray" /></g>
<g><line x1="162.633" y1="79.5421" x2="166.007" y2="80.2826" class="gray" /></g>
<g><line x1="169.944" y1="81.4043" x2="173.026" y2="82.4904" class="gray" /></g>
<g><line x1="176.834" y1="84.007" x2="180.336" y2="85.5676" class="gray" /></g>
<g><line x1="183.938" y1="87.5078" x2="186.702" y2="89.2768" class="gray" /></g>
<g><line x1="190.016" y1="91.6828" x2="192.564" y2="93.7718" class="gray" /></g>
<g><line x1="195.66" y1="96.4601" x2="198.43" y2="99.0046" class="gray" /></g>
<g><line x1="201.19" y1="102.018" x2="203.22" y2="104.656" class="gray" /></g>
<g><line x1="205.606" y1="107.99" x2="207.584" y2="110.964" class="gray" /></g>
<g><line x1="209.569" y1="114.54" x2="210.961" y2="117.605" class="gray" /></g>
<g><line x1="212.491" y1="121.407" x2="213.639" y2="124.668" class="gray" /></g>
<g><line x1="214.781" y1="128.601" x2="215.559" y2="131.974" class="gray" /></g>
<g><line x1="216.304" y1="136.004" x2="216.786" y2="139.451" class="gray" /></g>
<g><line x1="217.016" y1="143.533" x2="216.924" y2="146.992" class="gray" /></g>
<g><line x1="216.639" y1="151.08" x2="216.251" y2="154.514" class="gray" /></g>
<g><line x1="215.559" y1="158.551" x2="214.781" y2="161.924" class="gray" /></g>
<g><line x1="213.69" y1="165.874" x2="212.65" y2="169.1" class="gray" /></g>
<g><line x1="211.079" y1="172.875" x2="209.451" y2="176.03" class="gray" /></g>
<g><line x1="207.414" y1="179.586" x2="205.566" y2="182.509" class="gray" /></g>
<g><line x1="203.22" y1="185.868" x2="201.19" y2="188.506" class="gray" /></g>
<g><line x1="198.483" y1="191.576" x2="196.027" y2="194.009" class="gray" /></g>
<g><line x1="192.959" y1="196.722" x2="190.241" y2="198.863" class="gray" /></g>
<g><line x1="186.873" y1="201.19" x2="183.757" y2="203.065" class="gray" /></g>
<g><line x1="180.146" y1="204.999" x2="177.024" y2="206.475" class="gray" /></g>
<g><line x1="173.229" y1="208.014" x2="169.951" y2="209.131" class="gray" /></g>
<g><line x1="166.007" y1="210.235" x2="162.633" y2="210.98" class="gray" /></g>
<g><line x1="158.59" y1="211.634" x2="155.15" y2="211.991" class="gray" /></g>
<g><line x1="151.059" y1="212.181" x2="147.601" y2="212.144" class="gray" /></g>
<g><line x1="143.514" y1="211.873" x2="140.086" y2="211.452" class="gray" /></g>
<g><line x1="136.052" y1="210.738" x2="132.478" y2="209.907" class="gray" /></g>
<g><line x1="128.566" y1="208.704" x2="125.704" y2="207.6" class="gray" /></g>
<g><line x1="121.932" y1="205.993" x2="118.468" y2="204.372" class="gray" /></g>
<g><line x1="114.923" y1="202.335" x2="112.357" y2="200.559" class="gray" /></g>
<g><line x1="110.67" y1="201.443" x2="110.67" y2="204.901" class="gray" /></g>
<g><line x1="112.634" y1="206.362" x2="115.948" y2="205.366" class="gray" /></g>
</svg>
