<svg
	xmlns="http://www.w3.org/2000/svg"
	width="252.94"
	height="273.392">
<g><style type="text/css" >
<!-- create color definitions -->
<![CDATA[
circle.red {stroke: rgb(255, 0, 255); fill: none; }
circle.green {stroke: rgb(0, 255, 0); fill: none; }
circle.blue {stroke: rgb(0, 0, 255); fill: none; }
circle.black {stroke: rgb(0, 0, 0); fill: none; }
circle.gray {stroke: rgb(204, 204, 204); fill: none; }
circle.brown {stroke: rgb(211.65, 104.55, 30.6); fill: none; }
line.red {stroke: rgb(255, 0, 255); stroke-width: 0.376146; }
line.green {stroke: rgb(0, 255, 0); stroke-width: 0.376146; }
line.blue {stroke: rgb(0, 0, 255); stroke-width: 0.376146; }
line.black {stroke: rgb(0, 0, 0); stroke-width: 0.376146; }
line.gray {stroke: rgb(204, 204, 204); stroke-width: 0.376146; }
line.brown {stroke: rgb(211.65, 104.55, 30.6); stroke-width: 0.376146; }
line {stroke: rgb(0, 0, 0); }
text.red {fill: rgb(255, 0, 255); font-size: 3.009167px; font-weight: bold; font-family: Helvetica; }
text.green {fill: rgb(0, 255, 0); font-size: 3.009167px; font-weight: bold; font-family: Helvetica; }
text.blue {fill: rgb(0, 0, 255); font-size: 3.009167px; font-weight: bold; font-family: Helvetica; }
text.black {fill: rgb(0, 0, 0); font-size: 3.009167px; font-weight: bold; font-family: Helvetica; }
text.gray {fill: rgb(204, 204, 204); font-size: 3.009167px; font-weight: bold; font-family: Helvetica; }
text.brown {fill: rgb(211.65, 104.55, 30.6); font-size: 3.009167px; font-weight: bold; font-family: Helvetica; }
text {fill: rgb(0, 0, 0); font-size: 3.009167px; font-weight: bold; font-family: Helvetica; text-anchor: middle; alignment-baseline: middle; }

.pseudoknot_connection{stroke-linecap: round; stroke-opacity: 0.2; stroke-width: 1.5; }
.pseudoknot_segment1{stroke-linecap: round; stroke-opacity: 0.4; stroke-width: 3.00917; }
.pseudoknot_segment2{stroke-linecap: round; stroke-opacity: 0.4; stroke-width: 3.00917; }
line.numbering-line{stroke: rgb(204, 204, 204); stroke-width: 0.188073; }
line.predicted{stroke: rgb(0, 0, 0); stroke-dasharray: 2; }
polyline{fill: none; stroke-linejoin: round; }
template{visibility: hidden; }
text.numbering-label{fill: rgb(204, 204, 204); }
]]>
</style></g>
<g><title>0 (position.label in template: 0.5')</title><text x="109.977" y="228.743" class="green" >5'</text></g>
<g><title>1 (position.label in template: 1.A)</title><text x="115.318" y="223.392" class="black" >A</text></g>
<g><title>2 (position.label in template: 2.A)</title><text x="120.66" y="218.04" class="green" >A</text></g>
<g><line x1="122.666" y1="217.739" x2="130.694" y2="217.739" class="black" /></g>
<g><title>3 (position.label in template: 3.A)</title><text x="120.66" y="210.48" class="green" >A</text></g>
<g><line x1="122.666" y1="210.179" x2="130.694" y2="210.179" class="black" /></g>
<g><title>4 (position.label in template: 4.C)</title><text x="120.46" y="202.92" class="black" >C</text></g>
<g><line x1="122.466" y1="202.619" x2="130.484" y2="202.619" class="black" /></g>
<g><title>5 (position.label in template: 5.U)</title><text x="112.96" y="201.94" class="green" >T</text></g>
<g><title>6 (position.label in template: 6.A)</title><text x="105.8" y="200.23" class="black" >A</text></g>
<g><title>7 (position.label in template: 7.U)</title><text x="98.44" y="197.81" class="green" >T</text></g>
<g><title>8 (position.label in template: 8.G)</title><text x="91.34" y="194.68" class="black" >G</text></g>
<g><title>9 (position.label in template: 9.A)</title><text x="85.21" y="190.9" class="black" >A</text></g>
<g><title>10 (position.label in template: 10.U)</title><text x="78.87" y="186.49" class="green" >T</text></g>
<g><text x="74.7412" y="191.856" class="numbering-label sequential" >10</text></g>
<g><line x1="77.769" y1="187.921" x2="75.8989" y2="190.351" class="numbering-line sequential" /></g>
<g><title>11 (position.label in template: 11.G)</title><text x="72.98" y="181.49" class="black" >G</text></g>
<g><title>12 (position.label in template: 12.A)</title><text x="68.25" y="175.96" class="black" >A</text></g>
<g><title>13 (position.label in template: 13.G)</title><text x="63.25" y="169.95" class="black" >G</text></g>
<g><title>14 (position.label in template: 14.U)</title><text x="59.49" y="163.51" class="green" >T</text></g>
<g><title>15 (position.label in template: 15.C)</title><text x="56.17" y="156.72" class="black" >C</text></g>
<g><title>16 (position.label in template: 16.U)</title><text x="53.55" y="149.63" class="green" >T</text></g>
<g><title>17 (position.label in template: 17.A)</title><text x="51.84" y="142.32" class="black" >A</text></g>
<g><title>18 (position.label in template: 18.U)</title><text x="50.44" y="134.85" class="green" >T</text></g>
<g><title>19 (position.label in template: 19.C)</title><text x="50" y="127.3" class="black" >C</text></g>
<g><title>20 (position.label in template: 20.C)</title><text x="50.3" y="119.75" class="black" >C</text></g>
<g><text x="43.5565" y="119.145" class="numbering-label sequential" >20</text></g>
<g><line x1="48.5017" y1="119.589" x2="45.362" y2="119.307" class="numbering-line sequential" /></g>
<g><title>21 (position.label in template: 21.C)</title><text x="51.35" y="112.26" class="black" >C</text></g>
<g><title>22 (position.label in template: 22.G)</title><text x="52.92" y="104.91" class="black" >G</text></g>
<g><title>23 (position.label in template: 23.A)</title><text x="55.83" y="97.78" class="black" >A</text></g>
<g><title>24 (position.label in template: 24.A)</title><text x="59.01" y="90.92" class="black" >A</text></g>
<g><title>25 (position.label in template: 25.C)</title><text x="62.65" y="84.41" class="black" >C</text></g>
<g><title>26 (position.label in template: 26.C)</title><text x="67.12" y="78.32" class="black" >C</text></g>
<g><title>27 (position.label in template: 27.U)</title><text x="72.17" y="72.69" class="green" >T</text></g>
<g><title>28 (position.label in template: 28.G)</title><text x="77.54" y="67.59" class="black" >G</text></g>
<g><title>29 (position.label in template: 29.A)</title><text x="84.01" y="63.06" class="black" >A</text></g>
<g><title>30 (position.label in template: 30.G)</title><text x="90.07" y="59.15" class="black" >G</text></g>
<g><text x="86.8209" y="53.2099" class="numbering-label sequential" >30</text></g>
<g><line x1="89.2036" y1="57.566" x2="87.6439" y2="54.7145" class="numbering-line sequential" /></g>
<g><title>31 (position.label in template: 31.U)</title><text x="97.1" y="55.9" class="green" >T</text></g>
<g><title>32 (position.label in template: 32.U)</title><text x="104.22" y="53.34" class="green" >T</text></g>
<g><title>33 (position.label in template: 33.G)</title><text x="111.34" y="51.49" class="black" >G</text></g>
<g><title>34 (position.label in template: 34.U)</title><text x="119.03" y="50.38" class="green" >T</text></g>
<g><title>35 (position.label in template: 35.G)</title><text x="126.37" y="50" class="black" >G</text></g>
<g><title>36 (position.label in template: 36.A)</title><text x="134.33" y="50.38" class="black" >A</text></g>
<g><title>37 (position.label in template: 37.U)</title><text x="141.6" y="51.49" class="green" >T</text></g>
<g><title>38 (position.label in template: 38.G)</title><text x="148.72" y="53.34" class="black" >G</text></g>
<g><title>39 (position.label in template: 39.A)</title><text x="156.25" y="55.9" class="black" >A</text></g>
<g><title>40 (position.label in template: 40.C)</title><text x="162.87" y="59.15" class="black" >C</text></g>
<g><title>41 (position.label in template: 41.A)</title><text x="169.55" y="63.06" class="black" >A</text></g>
<g><title>42 (position.label in template: 42.C)</title><text x="175.4" y="67.59" class="black" >C</text></g>
<g><title>43 (position.label in template: 43.U)</title><text x="180.98" y="72.69" class="green" >T</text></g>
<g><title>44 (position.label in template: 44.U)</title><text x="186.03" y="78.32" class="green" >T</text></g>
<g><title>45 (position.label in template: 45.U)</title><text x="190.5" y="84.41" class="green" >T</text></g>
<g><title>46 (position.label in template: 46.C)</title><text x="194.34" y="90.92" class="black" >C</text></g>
<g><title>47 (position.label in template: 47.U)</title><text x="197.53" y="97.78" class="green" >T</text></g>
<g><title>48 (position.label in template: 48.U)</title><text x="200.03" y="104.91" class="green" >T</text></g>
<g><title>49 (position.label in template: 49.A)</title><text x="202.01" y="112.26" class="black" >A</text></g>
<g><title>50 (position.label in template: 50.U)</title><text x="202.85" y="119.75" class="green" >T</text></g>
<g><text x="209.608" y="119.332" class="numbering-label sequential" >50</text></g>
<g><line x1="204.652" y1="119.639" x2="207.802" y2="119.444" class="numbering-line sequential" /></g>
<g><title>51 (position.label in template: 51.G)</title><text x="202.94" y="127.3" class="black" >G</text></g>
<g><title>52 (position.label in template: 52.G)</title><text x="202.5" y="134.85" class="black" >G</text></g>
<g><title>53 (position.label in template: 53.A)</title><text x="201.73" y="142.32" class="black" >A</text></g>
<g><title>54 (position.label in template: 54.U)</title><text x="199.61" y="149.63" class="green" >T</text></g>
<g><title>55 (position.label in template: 55.C)</title><text x="196.98" y="156.72" class="black" >C</text></g>
<g><title>56 (position.label in template: 56.U)</title><text x="193.66" y="163.51" class="green" >T</text></g>
<g><title>57 (position.label in template: 57.G)</title><text x="189.49" y="169.95" class="black" >G</text></g>
<g><title>58 (position.label in template: 58.A)</title><text x="185.32" y="175.96" class="black" >A</text></g>
<g><title>59 (position.label in template: 59.C)</title><text x="179.96" y="181.49" class="black" >C</text></g>
<g><title>60 (position.label in template: 60.U)</title><text x="174.28" y="186.49" class="green" >T</text></g>
<g><title>61 (position.label in template: 61.G)</title><text x="167.94" y="190.9" class="black" >G</text></g>
<g><title>62 (position.label in template: 62.C)</title><text x="161.6" y="194.68" class="black" >C</text></g>
<g><title>63 (position.label in template: 63.U)</title><text x="154.72" y="197.81" class="green" >T</text></g>
<g><title>64 (position.label in template: 64.G)</title><text x="147.35" y="200.23" class="black" >G</text></g>
<g><title>65 (position.label in template: 65.A)</title><text x="140.4" y="201.94" class="black" >A</text></g>
<g><title>66 (position.label in template: 66.G)</title><text x="132.49" y="202.92" class="black" >G</text></g>
<g><title>67 (position.label in template: 67.U)</title><text x="132.7" y="210.48" class="green" >T</text></g>
<g><title>68 (position.label in template: 68.U)</title><text x="132.7" y="218.04" class="green" >T</text></g>
<g><title>69 (position.label in template: 69.3')</title><text x="139.927" y="215.815" class="green" >3'</text></g>
<g><line x1="111.394" y1="227.023" x2="113.901" y2="224.511" class="gray" /></g>
<g><line x1="116.736" y1="221.671" x2="119.243" y2="219.159" class="gray" /></g>
<g><line x1="120.66" y1="215.733" x2="120.66" y2="212.185" class="gray" /></g>
<g><line x1="120.607" y1="208.174" x2="120.513" y2="204.624" class="gray" /></g>
<g><line x1="118.471" y1="202.359" x2="114.949" y2="201.899" class="gray" /></g>
<g><line x1="111.009" y1="201.173" x2="107.751" y2="200.395" class="gray" /></g>
<g><line x1="103.894" y1="199.302" x2="100.346" y2="198.136" class="gray" /></g>
<g><line x1="96.6043" y1="196.7" x2="93.1757" y2="195.188" class="gray" /></g>
<g><line x1="89.6324" y1="193.326" x2="86.9176" y2="191.652" class="gray" /></g>
<g><line x1="83.5631" y1="189.454" x2="80.5169" y2="187.335" class="gray" /></g>
<g><line x1="77.3406" y1="184.891" x2="74.5094" y2="182.487" class="gray" /></g>
<g><line x1="71.676" y1="179.665" x2="69.554" y2="177.184" class="gray" /></g>
<g><line x1="66.967" y1="174.117" x2="64.533" y2="171.191" class="gray" /></g>
<g><line x1="62.2385" y1="167.917" x2="60.5015" y2="164.942" class="gray" /></g>
<g><line x1="58.6088" y1="161.407" x2="57.0512" y2="158.221" class="gray" /></g>
<g><line x1="55.4746" y1="154.537" x2="54.2454" y2="151.211" class="gray" /></g>
<g><line x1="53.0931" y1="147.376" x2="52.2969" y2="143.972" class="gray" /></g>
<g><line x1="51.4705" y1="140.047" x2="50.8095" y2="136.521" class="gray" /></g>
<g><line x1="50.3233" y1="132.546" x2="50.1167" y2="129.002" class="gray" /></g>
<g><line x1="50.0797" y1="124.995" x2="50.2203" y2="121.454" class="gray" /></g>
<g><line x1="50.5785" y1="117.462" x2="51.0715" y2="113.946" class="gray" /></g>
<g><line x1="51.7691" y1="109.997" x2="52.5009" y2="106.571" class="gray" /></g>
<g><line x1="53.6781" y1="102.752" x2="55.0719" y2="99.3365" class="gray" /></g>
<g><line x1="56.6737" y1="95.659" x2="58.1663" y2="92.4392" class="gray" /></g>
<g><line x1="59.989" y1="88.8681" x2="61.671" y2="85.8601" class="gray" /></g>
<g><line x1="63.837" y1="82.4919" x2="65.933" y2="79.6363" class="gray" /></g>
<g><line x1="68.4595" y1="76.5257" x2="70.8305" y2="73.8825" class="gray" /></g>
<g><line x1="73.6246" y1="71.0076" x2="76.0854" y2="68.6706" class="gray" /></g>
<g><line x1="79.1834" y1="66.1385" x2="82.3666" y2="63.9097" class="gray" /></g>
<g><line x1="85.6957" y1="61.6715" x2="88.3843" y2="59.9367" class="gray" /></g>
<g><line x1="91.8909" y1="58.0073" x2="95.2791" y2="56.4409" class="gray" /></g>
<g><line x1="98.9878" y1="54.9203" x2="102.332" y2="53.7178" class="gray" /></g>
<g><line x1="106.162" y1="52.5346" x2="109.398" y2="51.6936" class="gray" /></g>
<g><line x1="113.326" y1="50.9025" x2="117.044" y2="50.3657" class="gray" /></g>
<g><line x1="121.033" y1="49.9754" x2="124.367" y2="49.8028" class="gray" /></g>
<g><line x1="128.374" y1="49.7947" x2="132.326" y2="49.9834" class="gray" /></g>
<g><line x1="136.313" y1="50.3819" x2="139.617" y2="50.8863" class="gray" /></g>
<g><line x1="143.542" y1="51.6936" x2="146.778" y2="52.5346" class="gray" /></g>
<g><line x1="150.619" y1="53.6848" x2="154.351" y2="54.9534" class="gray" /></g>
<g><line x1="158.051" y1="56.4832" x2="161.069" y2="57.965" class="gray" /></g>
<g><line x1="164.601" y1="59.8625" x2="167.819" y2="61.7457" class="gray" /></g>
<g><line x1="171.136" y1="63.9873" x2="173.814" y2="66.0608" class="gray" /></g>
<g><line x1="176.881" y1="68.6425" x2="179.499" y2="71.0357" class="gray" /></g>
<g><line x1="182.32" y1="73.8825" x2="184.69" y2="76.5257" class="gray" /></g>
<g><line x1="187.217" y1="79.6363" x2="189.313" y2="82.4919" class="gray" /></g>
<g><line x1="191.519" y1="85.837" x2="193.321" y2="88.8912" class="gray" /></g>
<g><line x1="195.186" y1="92.4381" x2="196.684" y2="95.66" class="gray" /></g>
<g><line x1="198.194" y1="99.3722" x2="199.366" y2="102.716" class="gray" /></g>
<g><line x1="200.552" y1="106.546" x2="201.488" y2="110.022" class="gray" /></g>
<g><line x1="202.234" y1="113.953" x2="202.626" y2="117.455" class="gray" /></g>
<g><line x1="202.874" y1="121.455" x2="202.916" y2="124.993" class="gray" /></g>
<g><line x1="202.823" y1="129.002" x2="202.617" y2="132.546" class="gray" /></g>
<g><line x1="202.294" y1="136.545" x2="201.936" y2="140.024" class="gray" /></g>
<g><line x1="201.171" y1="143.946" x2="200.169" y2="147.402" class="gray" /></g>
<g><line x1="198.912" y1="151.21" x2="197.678" y2="154.538" class="gray" /></g>
<g><line x1="196.099" y1="158.221" x2="194.541" y2="161.407" class="gray" /></g>
<g><line x1="192.57" y1="164.893" x2="190.58" y2="167.965" class="gray" /></g>
<g><line x1="188.346" y1="171.297" x2="186.464" y2="174.011" class="gray" /></g>
<g><line x1="183.924" y1="177.1" x2="181.356" y2="179.749" class="gray" /></g>
<g><line x1="178.454" y1="182.515" x2="175.786" y2="184.864" class="gray" /></g>
<g><line x1="172.633" y1="187.335" x2="169.587" y2="189.454" class="gray" /></g>
<g><line x1="166.217" y1="191.626" x2="163.323" y2="193.352" class="gray" /></g>
<g><line x1="159.774" y1="195.21" x2="156.546" y2="196.678" class="gray" /></g>
<g><line x1="152.814" y1="198.135" x2="149.256" y2="199.303" class="gray" /></g>
<g><line x1="145.402" y1="200.408" x2="142.348" y2="201.16" class="gray" /></g>
<g><line x1="138.409" y1="201.886" x2="134.481" y2="202.372" class="gray" /></g>
<g><line x1="132.546" y1="204.624" x2="132.644" y2="208.174" class="gray" /></g>
<g><line x1="132.7" y1="212.185" x2="132.7" y2="215.733" class="gray" /></g>
<g><line x1="134.617" y1="217.149" x2="138.009" y2="216.104" class="gray" /></g>
</svg>
