<svg
	xmlns="http://www.w3.org/2000/svg"
	width="273.57"
	height="210.49">
<g><style type="text/css" >
<!-- create color definitions -->
<![CDATA[
circle.red {stroke: rgb(255, 0, 255); fill: none; }
circle.green {stroke: rgb(0, 255, 0); fill: none; }
circle.blue {stroke: rgb(0, 0, 255); fill: none; }
circle.black {stroke: rgb(0, 0, 0); fill: none; }
circle.gray {stroke: rgb(204, 204, 204); fill: none; }
circle.brown {stroke: rgb(211.65, 104.55, 30.6); fill: none; }
line.red {stroke: rgb(255, 0, 255); stroke-width: 0.382588; }
line.green {stroke: rgb(0, 255, 0); stroke-width: 0.382588; }
line.blue {stroke: rgb(0, 0, 255); stroke-width: 0.382588; }
line.black {stroke: rgb(0, 0, 0); stroke-width: 0.382588; }
line.gray {stroke: rgb(204, 204, 204); stroke-width: 0.382588; }
line.brown {stroke: rgb(211.65, 104.55, 30.6); stroke-width: 0.382588; }
line {stroke: rgb(0, 0, 0); }
text.red {fill: rgb(255, 0, 255); font-size: 3.060702px; font-weight: bold; font-family: Helvetica; }
text.green {fill: rgb(0, 255, 0); font-size: 3.060702px; font-weight: bold; font-family: Helvetica; }
text.blue {fill: rgb(0, 0, 255); font-size: 3.060702px; font-weight: bold; font-family: Helvetica; }
text.black {fill: rgb(0, 0, 0); font-size: 3.060702px; font-weight: bold; font-family: Helvetica; }
text.gray {fill: rgb(204, 204, 204); font-size: 3.060702px; font-weight: bold; font-family: Helvetica; }
text.brown {fill: rgb(211.65, 104.55, 30.6); font-size: 3.060702px; font-weight: bold; font-family: Helvetica; }
text {fill: rgb(0, 0, 0); font-size: 3.060702px; font-weight: bold; font-family: Helvetica; text-anchor: middle; alignment-baseline: middle; }

.pseudoknot_connection{stroke-linecap: round; stroke-opacity: 0.2; stroke-width: 1.5; }
.pseudoknot_segment1{stroke-linecap: round; stroke-opacity: 0.4; stroke-width: 3.0607; }
.pseudoknot_segment2{stroke-linecap: round; stroke-opacity: 0.4; stroke-width: 3.0607; }
line.numbering-line{stroke: rgb(204, 204, 204); stroke-width: 0.191294; }
line.predicted{stroke: rgb(0, 0, 0); stroke-dasharray: 2; }
polyline{fill: none; stroke-linejoin: round; }
template{visibility: hidden; }
text.numbering-label{fill: rgb(204, 204, 204); }
]]>
</style></g>
<g><title>0 (position.label in template: 0.5')</title><text x="79.2852" y="146.99" class="green" >5'</text></g>
<g><title>1 (position.label in template: 1.A)</title><text x="86.8569" y="146.99" class="black" >A</text></g>
<g><title>2 (position.label in template: 2.U)</title><text x="94.4286" y="146.99" class="green" >T</text></g>
<g><title>3 (position.label in template: 3.U)</title><text x="102" y="146.99" class="green" >T</text></g>
<g><title>4 (position.label in template: 4.U)</title><text x="109.572" y="146.99" class="green" >T</text></g>
<g><title>5 (position.label in template: 5.G)</title><text x="117.144" y="146.99" class="black" >G</text></g>
<g><title>6 (position.label in template: 6.C)</title><text x="122.6" y="141.74" class="black" >C</text></g>
<g><line x1="124.64" y1="141.434" x2="132.59" y2="141.434" class="black" /></g>
<g><title>7 (position.label in template: 7.U)</title><text x="122.6" y="134.18" class="green" >T</text></g>
<g><line x1="124.64" y1="133.874" x2="133.01" y2="133.874" class="black" /></g>
<g><title>8 (position.label in template: 8.A)</title><text x="122.81" y="126.62" class="green" >A</text></g>
<g><line x1="124.85" y1="126.314" x2="132.8" y2="126.314" class="black" /></g>
<g><title>9 (position.label in template: 9.C)</title><text x="122.6" y="119.06" class="black" >C</text></g>
<g><line x1="124.64" y1="118.754" x2="132.59" y2="118.754" class="black" /></g>
<g><title>10 (position.label in template: 10.U)</title><text x="122.6" y="111.5" class="green" >T</text></g>
<g><line x1="124.64" y1="111.194" x2="133.01" y2="111.194" class="black" /></g>
<g><text x="116.535" y="114.761" class="numbering-label sequential" >10</text></g>
<g><line x1="120.983" y1="112.37" x2="118.371" y2="113.774" class="numbering-line sequential" /></g>
<g><title>11 (position.label in template: 11.A)</title><text x="116.39" y="107.51" class="green" >A</text></g>
<g><line x1="115.459" y1="105.388" x2="111.691" y2="98.0396" class="black" /></g>
<g><title>12 (position.label in template: 12.G)</title><text x="109.19" y="110.86" class="black" >G</text></g>
<g><line x1="108.315" y1="108.71" x2="104.855" y2="101.417" class="black" /></g>
<g><title>13 (position.label in template: 13.G)</title><text x="102.42" y="114.21" class="black" >G</text></g>
<g><line x1="101.543" y1="112.061" x2="98.0767" y2="104.776" class="black" /></g>
<g><title>14 (position.label in template: 14.G)</title><text x="95.64" y="117.56" class="black" >G</text></g>
<g><line x1="94.7646" y1="115.411" x2="91.3054" y2="108.127" class="black" /></g>
<g><title>15 (position.label in template: 15.G)</title><text x="90.83" y="123.39" class="black" >G</text></g>
<g><title>16 (position.label in template: 16.A)</title><text x="83.69" y="123.67" class="black" >A</text></g>
<g><line x1="82.7862" y1="121.535" x2="79.1738" y2="114.223" class="black" /></g>
<g><title>17 (position.label in template: 17.G)</title><text x="82.25" y="131.16" class="black" >G</text></g>
<g><line x1="80.9038" y1="132.387" x2="75.6162" y2="138.411" class="black" /></g>
<g><title>18 (position.label in template: 18.C)</title><text x="88.07" y="136.22" class="black" >C</text></g>
<g><line x1="86.6852" y1="137.413" x2="81.0548" y2="143.505" class="black" /></g>
<g><title>19 (position.label in template: 19.C)</title><text x="93.69" y="141.28" class="black" >C</text></g>
<g><line x1="92.3052" y1="142.473" x2="86.6748" y2="148.565" class="black" /></g>
<g><title>20 (position.label in template: 20.A)</title><text x="99.52" y="146.33" class="black" >A</text></g>
<g><line x1="98.155" y1="147.541" x2="92.695" y2="153.607" class="black" /></g>
<g><text x="104.08" y="141.17" class="numbering-label sequential" >20</text></g>
<g><line x1="100.736" y1="144.954" x2="102.728" y2="142.7" class="numbering-line sequential" /></g>
<g><title>21 (position.label in template: 21.A)</title><text x="105.13" y="151.39" class="black" >A</text></g>
<g><line x1="103.765" y1="152.601" x2="98.305" y2="158.667" class="black" /></g>
<g><title>22 (position.label in template: 22.A)</title><text x="96.94" y="160.49" class="black" >A</text></g>
<g><title>23 (position.label in template: 23.A)</title><text x="91.33" y="155.43" class="black" >A</text></g>
<g><title>24 (position.label in template: 24.G)</title><text x="85.29" y="150.37" class="black" >G</text></g>
<g><title>25 (position.label in template: 25.G)</title><text x="79.67" y="145.31" class="black" >G</text></g>
<g><title>26 (position.label in template: 26.C)</title><text x="74.27" y="140.25" class="black" >C</text></g>
<g><title>27 (position.label in template: 27.U)</title><text x="66.92" y="142.06" class="green" >T</text></g>
<g><title>28 (position.label in template: 28.G)</title><text x="59.32" y="140.49" class="black" >G</text></g>
<g><title>29 (position.label in template: 29.A)</title><text x="53.77" y="135.85" class="black" >A</text></g>
<g><title>30 (position.label in template: 30.G)</title><text x="50" y="129.08" class="black" >G</text></g>
<g><text x="43.3005" y="130.674" class="numbering-label sequential" >30</text></g>
<g><line x1="48.2135" y1="129.505" x2="45.1369" y2="130.237" class="numbering-line sequential" /></g>
<g><title>31 (position.label in template: 31.A)</title><text x="50.36" y="121.52" class="black" >A</text></g>
<g><title>32 (position.label in template: 32.U)</title><text x="53.39" y="114.69" class="green" >T</text></g>
<g><title>33 (position.label in template: 33.G)</title><text x="59.08" y="109.95" class="black" >G</text></g>
<g><line x1="61.1141" y1="109.483" x2="69.4559" y2="108.825" class="black" /></g>
<g><title>34 (position.label in template: 34.A)</title><text x="58.88" y="102.42" class="green" >A</text></g>
<g><line x1="60.9136" y1="101.946" x2="68.8464" y2="101.292" class="black" /></g>
<g><title>35 (position.label in template: 35.A)</title><text x="58.28" y="94.88" class="green" >A</text></g>
<g><line x1="60.3137" y1="94.4077" x2="68.2363" y2="93.7602" class="black" /></g>
<g><title>36 (position.label in template: 36.U)</title><text x="57.46" y="87.35" class="green" >T</text></g>
<g><line x1="59.494" y1="86.8817" x2="67.836" y2="86.2162" class="black" /></g>
<g><title>37 (position.label in template: 37.G)</title><text x="56.64" y="79.81" class="green" >G</text></g>
<g><line x1="58.6741" y1="79.3433" x2="67.0159" y2="78.6846" class="black" /></g>
<g><title>38 (position.label in template: 38.U)</title><text x="69.05" y="78.83" class="green" >T</text></g>
<g><title>39 (position.label in template: 39.A)</title><text x="69.87" y="86.36" class="green" >A</text></g>
<g><title>40 (position.label in template: 40.U)</title><text x="70.27" y="93.9" class="green" >T</text></g>
<g><title>41 (position.label in template: 41.U)</title><text x="70.88" y="101.43" class="green" >T</text></g>
<g><title>42 (position.label in template: 42.C)</title><text x="71.49" y="108.97" class="black" >C</text></g>
<g><title>43 (position.label in template: 43.A)</title><text x="78.27" y="112.7" class="black" >A</text></g>
<g><title>44 (position.label in template: 44.G)</title><text x="77.59" y="105.14" class="black" >G</text></g>
<g><title>45 (position.label in template: 45.A)</title><text x="84.79" y="101.79" class="black" >A</text></g>
<g><title>46 (position.label in template: 46.C)</title><text x="90.43" y="106.59" class="black" >C</text></g>
<g><title>47 (position.label in template: 47.C)</title><text x="97.2" y="103.24" class="black" >C</text></g>
<g><title>48 (position.label in template: 48.C)</title><text x="103.98" y="99.88" class="black" >C</text></g>
<g><title>49 (position.label in template: 49.U)</title><text x="110.76" y="96.53" class="green" >T</text></g>
<g><title>50 (position.label in template: 50.U)</title><text x="111.49" y="89.01" class="green" >T</text></g>
<g><text x="104.955" y="86.8392" class="numbering-label sequential" >50</text></g>
<g><line x1="109.747" y1="88.4311" x2="106.791" y2="87.4492" class="numbering-line sequential" /></g>
<g><title>51 (position.label in template: 51.A)</title><text x="115.44" y="82.44" class="black" >A</text></g>
<g><title>52 (position.label in template: 52.U)</title><text x="121.33" y="77.98" class="green" >T</text></g>
<g><title>53 (position.label in template: 53.A)</title><text x="128.93" y="76.4" class="black" >A</text></g>
<g><title>54 (position.label in template: 54.A)</title><text x="136.32" y="77.98" class="black" >A</text></g>
<g><title>55 (position.label in template: 55.C)</title><text x="142.22" y="82.44" class="black" >C</text></g>
<g><line x1="142.952" y1="84.0387" x2="145.848" y2="91.5792" class="black" /></g>
<g><title>56 (position.label in template: 56.C)</title><text x="149.23" y="79.61" class="black" >C</text></g>
<g><line x1="149.961" y1="81.2089" x2="152.859" y2="88.7589" class="black" /></g>
<g><title>57 (position.label in template: 57.U)</title><text x="156.24" y="76.79" class="green" >T</text></g>
<g><line x1="157.032" y1="78.3644" x2="160.228" y2="85.9534" class="black" /></g>
<g><title>58 (position.label in template: 58.G)</title><text x="163.04" y="73.96" class="green" >G</text></g>
<g><line x1="163.833" y1="75.5338" x2="167.037" y2="83.124" class="black" /></g>
<g><title>59 (position.label in template: 59.A)</title><text x="167.19" y="67.38" class="black" >A</text></g>
<g><title>60 (position.label in template: 60.U)</title><text x="173.99" y="64.56" class="green" >T</text></g>
<g><title>61 (position.label in template: 61.U)</title><text x="181.24" y="66.71" class="green" >T</text></g>
<g><line x1="182.032" y1="68.2844" x2="185.228" y2="75.8734" class="black" /></g>
<g><title>62 (position.label in template: 62.U)</title><text x="188.25" y="63.88" class="green" >T</text></g>
<g><line x1="189.041" y1="65.4547" x2="192.239" y2="73.0532" class="black" /></g>
<g><title>63 (position.label in template: 63.G)</title><text x="195.05" y="61.06" class="black" >G</text></g>
<g><line x1="195.843" y1="62.6338" x2="199.047" y2="70.224" class="black" /></g>
<g><title>64 (position.label in template: 64.G)</title><text x="202.06" y="58.23" class="black" >G</text></g>
<g><line x1="202.853" y1="59.8038" x2="206.057" y2="67.394" class="black" /></g>
<g><title>65 (position.label in template: 65.U)</title><text x="206.47" y="51.94" class="green" >T</text></g>
<g><title>66 (position.label in template: 66.U)</title><text x="213.78" y="50" class="green" >T</text></g>
<g><title>67 (position.label in template: 67.A)</title><text x="220.74" y="53.39" class="black" >A</text></g>
<g><title>68 (position.label in template: 68.A)</title><text x="223.57" y="60.4" class="black" >A</text></g>
<g><title>69 (position.label in template: 69.U)</title><text x="220.84" y="67.53" class="green" >T</text></g>
<g><title>70 (position.label in template: 70.A)</title><text x="214.44" y="71.2" class="black" >A</text></g>
<g><title>71 (position.label in template: 71.C)</title><text x="206.85" y="69.58" class="black" >C</text></g>
<g><title>72 (position.label in template: 72.C)</title><text x="199.84" y="72.41" class="black" >C</text></g>
<g><title>73 (position.label in template: 73.A)</title><text x="193.03" y="75.24" class="green" >A</text></g>
<g><title>74 (position.label in template: 74.A)</title><text x="186.02" y="78.06" class="green" >A</text></g>
<g><title>75 (position.label in template: 75.C)</title><text x="182.09" y="84.64" class="black" >C</text></g>
<g><title>76 (position.label in template: 76.G)</title><text x="174.87" y="87.47" class="black" >G</text></g>
<g><title>77 (position.label in template: 77.U)</title><text x="167.83" y="85.31" class="green" >T</text></g>
<g><title>78 (position.label in template: 78.A)</title><text x="161.02" y="88.14" class="green" >A</text></g>
<g><title>79 (position.label in template: 79.G)</title><text x="153.59" y="90.97" class="black" >G</text></g>
<g><title>80 (position.label in template: 80.G)</title><text x="146.58" y="93.79" class="black" >G</text></g>
<g><title>81 (position.label in template: 81.A)</title><text x="145.7" y="101.24" class="black" >A</text></g>
<g><title>82 (position.label in template: 82.A)</title><text x="141.47" y="107.51" class="black" >A</text></g>
<g><title>83 (position.label in template: 83.A)</title><text x="135.05" y="111.5" class="green" >A</text></g>
<g><title>84 (position.label in template: 84.G)</title><text x="134.63" y="119.06" class="black" >G</text></g>
<g><title>85 (position.label in template: 85.U)</title><text x="134.84" y="126.62" class="green" >T</text></g>
<g><title>86 (position.label in template: 86.A)</title><text x="135.05" y="134.18" class="green" >A</text></g>
<g><title>87 (position.label in template: 87.G)</title><text x="134.63" y="141.74" class="black" >G</text></g>
<g><title>88 (position.label in template: 88.U)</title><text x="140.091" y="146.985" class="green" >T</text></g>
<g><title>89 (position.label in template: 89.U)</title><text x="147.663" y="146.985" class="green" >T</text></g>
<g><title>90 (position.label in template: 90.A)</title><text x="155.234" y="146.985" class="black" >A</text></g>
<g><title>91 (position.label in template: 91.U)</title><text x="162.806" y="146.985" class="green" >T</text></g>
<g><title>92 (position.label in template: 92.U)</title><text x="170.378" y="146.985" class="green" >T</text></g>
<g><title>93 (position.label in template: 93.A)</title><text x="177.95" y="146.985" class="black" >A</text></g>
<g><title>94 (position.label in template: 94.A)</title><text x="185.521" y="146.985" class="black" >A</text></g>
<g><title>95 (position.label in template: 95.C)</title><text x="193.093" y="146.985" class="black" >C</text></g>
<g><title>96 (position.label in template: 96.U)</title><text x="200.665" y="146.985" class="green" >T</text></g>
<g><title>97 (position.label in template: 97.A)</title><text x="208.236" y="146.985" class="black" >A</text></g>
<g><title>98 (position.label in template: 98.U)</title><text x="215.808" y="146.985" class="green" >T</text></g>
<g><title>99 (position.label in template: 99.U)</title><text x="223.38" y="146.985" class="green" >T</text></g>
<g><title>100 (position.label in template: 100.3')</title><text x="230.952" y="146.985" class="green" >3'</text></g>
<g><line x1="81.3257" y1="146.684" x2="84.8164" y2="146.684" class="gray" /></g>
<g><line x1="88.8974" y1="146.684" x2="92.3882" y2="146.684" class="gray" /></g>
<g><line x1="96.4691" y1="146.684" x2="99.9599" y2="146.684" class="gray" /></g>
<g><line x1="104.041" y1="146.684" x2="107.532" y2="146.684" class="gray" /></g>
<g><line x1="111.613" y1="146.684" x2="115.103" y2="146.684" class="gray" /></g>
<g><line x1="118.614" y1="145.269" x2="121.13" y2="142.849" class="gray" /></g>
<g><line x1="122.6" y1="139.393" x2="122.6" y2="135.914" class="gray" /></g>
<g><line x1="122.657" y1="131.834" x2="122.753" y2="128.354" class="gray" /></g>
<g><line x1="122.753" y1="124.274" x2="122.657" y2="120.794" class="gray" /></g>
<g><line x1="122.6" y1="116.713" x2="122.6" y2="113.234" class="gray" /></g>
<g><line x1="120.883" y1="110.091" x2="118.107" y2="108.307" class="gray" /></g>
<g><line x1="114.54" y1="108.065" x2="111.04" y2="109.693" class="gray" /></g>
<g><line x1="107.361" y1="111.459" x2="104.249" y2="112.999" class="gray" /></g>
<g><line x1="100.591" y1="114.808" x2="97.4693" y2="116.35" class="gray" /></g>
<g><line x1="94.3414" y1="118.828" x2="92.1286" y2="121.51" class="gray" /></g>
<g><line x1="88.7911" y1="123.164" x2="85.7289" y2="123.284" class="gray" /></g>
<g><line x1="83.3048" y1="125.368" x2="82.6352" y2="128.85" class="gray" /></g>
<g><line x1="83.7899" y1="132.193" x2="86.5301" y2="134.575" class="gray" /></g>
<g><line x1="89.5864" y1="137.279" x2="92.1736" y2="139.609" class="gray" /></g>
<g><line x1="95.2323" y1="142.31" x2="97.9777" y2="144.688" class="gray" /></g>
<g><line x1="101.035" y1="147.391" x2="103.615" y2="149.717" class="gray" /></g>
<g><line x1="103.765" y1="152.601" x2="98.305" y2="158.667" class="gray" /></g>
<g><line x1="95.4248" y1="158.817" x2="92.8452" y2="156.491" class="gray" /></g>
<g><line x1="89.7659" y1="153.814" x2="86.8541" y2="151.374" class="gray" /></g>
<g><line x1="83.7736" y1="148.699" x2="81.1864" y2="146.369" class="gray" /></g>
<g><line x1="78.1811" y1="143.609" x2="75.7589" y2="141.339" class="gray" /></g>
<g><line x1="72.2887" y1="140.432" x2="68.9013" y2="141.266" class="gray" /></g>
<g><line x1="64.9217" y1="141.341" x2="61.3183" y2="140.597" class="gray" /></g>
<g><line x1="57.7546" y1="138.875" x2="55.3354" y2="136.853" class="gray" /></g>
<g><line x1="52.7773" y1="133.761" x2="50.9927" y2="130.557" class="gray" /></g>
<g><line x1="50.0971" y1="126.736" x2="50.2629" y2="123.252" class="gray" /></g>
<g><line x1="51.1874" y1="119.349" x2="52.5626" y2="116.249" class="gray" /></g>
<g><line x1="54.9578" y1="113.078" x2="57.5122" y2="110.95" class="gray" /></g>
<g><line x1="59.0258" y1="107.604" x2="58.9342" y2="104.154" class="gray" /></g>
<g><line x1="58.7181" y1="100.08" x2="58.4419" y2="96.608" class="gray" /></g>
<g><line x1="58.0591" y1="92.5455" x2="57.6809" y2="89.0724" class="gray" /></g>
<g><line x1="57.2394" y1="85.0154" x2="56.8606" y2="81.5324" class="gray" /></g>
<g><line x1="58.6741" y1="79.3433" x2="67.0159" y2="78.6846" class="gray" /></g>
<g><line x1="69.2709" y1="80.5524" x2="69.6491" y2="84.0255" class="gray" /></g>
<g><line x1="69.9781" y1="88.0915" x2="70.1619" y2="91.5563" class="gray" /></g>
<g><line x1="70.4348" y1="95.6277" x2="70.7152" y2="99.0901" class="gray" /></g>
<g><line x1="71.0445" y1="103.158" x2="71.3255" y2="106.63" class="gray" /></g>
<g><line x1="73.2778" y1="109.647" x2="76.4822" y2="111.41" class="gray" /></g>
<g><line x1="78.0872" y1="110.362" x2="77.7728" y2="106.866" class="gray" /></g>
<g><line x1="79.44" y1="103.973" x2="82.94" y2="102.345" class="gray" /></g>
<g><line x1="86.3439" y1="102.806" x2="88.8761" y2="104.961" class="gray" /></g>
<g><line x1="92.2588" y1="105.379" x2="95.3712" y2="103.839" class="gray" /></g>
<g><line x1="99.0283" y1="102.028" x2="102.152" y2="100.48" class="gray" /></g>
<g><line x1="105.809" y1="98.67" x2="108.931" y2="97.1278" class="gray" /></g>
<g><line x1="110.957" y1="94.193" x2="111.293" y2="90.7349" class="gray" /></g>
<g><line x1="112.541" y1="86.9552" x2="114.389" y2="83.8827" class="gray" /></g>
<g><line x1="117.067" y1="80.9021" x2="119.703" y2="78.9057" class="gray" /></g>
<g><line x1="123.328" y1="77.2586" x2="126.932" y2="76.5093" class="gray" /></g>
<g><line x1="130.925" y1="76.5205" x2="134.325" y2="77.2473" class="gray" /></g>
<g><line x1="137.948" y1="78.9044" x2="140.592" y2="80.9035" class="gray" /></g>
<g><line x1="144.112" y1="81.3701" x2="147.338" y2="80.0678" class="gray" /></g>
<g><line x1="151.123" y1="78.5424" x2="154.347" y2="77.2455" class="gray" /></g>
<g><line x1="158.124" y1="75.6999" x2="161.156" y2="74.4379" class="gray" /></g>
<g><line x1="164.129" y1="71.9281" x2="166.101" y2="68.7998" class="gray" /></g>
<g><line x1="169.075" y1="66.2923" x2="172.105" y2="65.0356" class="gray" /></g>
<g><line x1="175.946" y1="64.8341" x2="179.284" y2="65.8238" class="gray" /></g>
<g><line x1="183.132" y1="65.6401" x2="186.358" y2="64.3378" class="gray" /></g>
<g><line x1="190.135" y1="62.7923" x2="193.165" y2="61.5356" class="gray" /></g>
<g><line x1="196.942" y1="59.9901" x2="200.168" y2="58.6878" class="gray" /></g>
<g><line x1="203.231" y1="56.2532" x2="205.299" y2="53.3047" class="gray" /></g>
<g><line x1="208.442" y1="51.1105" x2="211.808" y2="50.2173" class="gray" /></g>
<g><line x1="215.614" y1="50.5874" x2="218.906" y2="52.1904" class="gray" /></g>
<g><line x1="221.504" y1="54.976" x2="222.806" y2="58.2018" class="gray" /></g>
<g><line x1="222.84" y1="61.9995" x2="221.57" y2="65.3184" class="gray" /></g>
<g><line x1="219.07" y1="68.239" x2="216.21" y2="69.8789" class="gray" /></g>
<g><line x1="212.444" y1="70.468" x2="208.846" y2="69.6999" class="gray" /></g>
<g><line x1="204.958" y1="70.0378" x2="201.732" y2="71.3401" class="gray" /></g>
<g><line x1="197.956" y1="72.887" x2="194.914" y2="74.1509" class="gray" /></g>
<g><line x1="191.137" y1="75.6955" x2="187.913" y2="76.9924" class="gray" /></g>
<g><line x1="184.974" y1="79.5057" x2="183.136" y2="82.5821" class="gray" /></g>
<g><line x1="180.19" y1="85.0786" x2="176.77" y2="86.4193" class="gray" /></g>
<g><line x1="172.919" y1="86.5654" x2="169.781" y2="85.6024" class="gray" /></g>
<g><line x1="165.946" y1="85.787" x2="162.904" y2="87.0509" class="gray" /></g>
<g><line x1="159.113" y1="88.5602" x2="155.497" y2="89.9376" class="gray" /></g>
<g><line x1="151.697" y1="91.4255" x2="148.473" y2="92.7224" class="gray" /></g>
<g><line x1="146.341" y1="95.5103" x2="145.939" y2="98.9075" class="gray" /></g>
<g><line x1="144.559" y1="102.625" x2="142.611" y2="105.512" class="gray" /></g>
<g><line x1="139.737" y1="108.281" x2="136.783" y2="110.117" class="gray" /></g>
<g><line x1="134.937" y1="113.231" x2="134.743" y2="116.717" class="gray" /></g>
<g><line x1="134.687" y1="120.794" x2="134.783" y2="124.274" class="gray" /></g>
<g><line x1="134.897" y1="128.354" x2="134.993" y2="131.834" class="gray" /></g>
<g><line x1="134.937" y1="135.911" x2="134.743" y2="139.397" class="gray" /></g>
<g><line x1="136.102" y1="142.847" x2="138.619" y2="145.265" class="gray" /></g>
<g><line x1="142.131" y1="146.679" x2="145.622" y2="146.679" class="gray" /></g>
<g><line x1="149.703" y1="146.679" x2="153.194" y2="146.679" class="gray" /></g>
<g><line x1="157.275" y1="146.679" x2="160.766" y2="146.679" class="gray" /></g>
<g><line x1="164.847" y1="146.679" x2="168.337" y2="146.679" class="gray" /></g>
<g><line x1="172.418" y1="146.679" x2="175.909" y2="146.679" class="gray" /></g>
<g><line x1="179.99" y1="146.679" x2="183.481" y2="146.679" class="gray" /></g>
<g><line x1="187.562" y1="146.679" x2="191.052" y2="146.679" class="gray" /></g>
<g><line x1="195.133" y1="146.679" x2="198.624" y2="146.679" class="gray" /></g>
<g><line x1="202.705" y1="146.679" x2="206.196" y2="146.679" class="gray" /></g>
<g><line x1="210.277" y1="146.679" x2="213.768" y2="146.679" class="gray" /></g>
<g><line x1="217.849" y1="146.679" x2="221.339" y2="146.679" class="gray" /></g>
<g><line x1="225.42" y1="146.679" x2="228.911" y2="146.679" class="gray" /></g>
</svg>
