<svg
	xmlns="http://www.w3.org/2000/svg"
	width="247.68"
	height="289.39">
<g><style type="text/css" >
<!-- create color definitions -->
<![CDATA[
circle.red {stroke: rgb(255, 0, 255); fill: none; }
circle.green {stroke: rgb(0, 255, 0); fill: none; }
circle.blue {stroke: rgb(0, 0, 255); fill: none; }
circle.black {stroke: rgb(0, 0, 0); fill: none; }
circle.gray {stroke: rgb(204, 204, 204); fill: none; }
circle.brown {stroke: rgb(211.65, 104.55, 30.6); fill: none; }
line.red {stroke: rgb(255, 0, 255); stroke-width: 0.382988; }
line.green {stroke: rgb(0, 255, 0); stroke-width: 0.382988; }
line.blue {stroke: rgb(0, 0, 255); stroke-width: 0.382988; }
line.black {stroke: rgb(0, 0, 0); stroke-width: 0.382988; }
line.gray {stroke: rgb(204, 204, 204); stroke-width: 0.382988; }
line.brown {stroke: rgb(211.65, 104.55, 30.6); stroke-width: 0.382988; }
line {stroke: rgb(0, 0, 0); }
text.red {fill: rgb(255, 0, 255); font-size: 3.063904px; font-weight: bold; font-family: Helvetica; }
text.green {fill: rgb(0, 255, 0); font-size: 3.063904px; font-weight: bold; font-family: Helvetica; }
text.blue {fill: rgb(0, 0, 255); font-size: 3.063904px; font-weight: bold; font-family: Helvetica; }
text.black {fill: rgb(0, 0, 0); font-size: 3.063904px; font-weight: bold; font-family: Helvetica; }
text.gray {fill: rgb(204, 204, 204); font-size: 3.063904px; font-weight: bold; font-family: Helvetica; }
text.brown {fill: rgb(211.65, 104.55, 30.6); font-size: 3.063904px; font-weight: bold; font-family: Helvetica; }
text {fill: rgb(0, 0, 0); font-size: 3.063904px; font-weight: bold; font-family: Helvetica; text-anchor: middle; alignment-baseline: middle; }

.pseudoknot_connection{stroke-linecap: round; stroke-opacity: 0.2; stroke-width: 1.5; }
.pseudoknot_segment1{stroke-linecap: round; stroke-opacity: 0.4; stroke-width: 3.0639; }
.pseudoknot_segment2{stroke-linecap: round; stroke-opacity: 0.4; stroke-width: 3.0639; }
line.numbering-line{stroke: rgb(204, 204, 204); stroke-width: 0.191494; }
line.predicted{stroke: rgb(0, 0, 0); stroke-dasharray: 2; }
polyline{fill: none; stroke-linejoin: round; }
template{visibility: hidden; }
text.numbering-label{fill: rgb(204, 204, 204); }
]]>
</style></g>
<g><title>0 (position.label in template: 0.5')</title><text x="108.6" y="239.39" class="green" >5'</text></g>
<g><title>1 (position.label in template: 1.C)</title><text x="115.6" y="239.39" class="black" >C</text></g>
<g><line x1="117.643" y1="239.084" x2="125.587" y2="239.084" class="black" /></g>
<g><title>2 (position.label in template: 2.U)</title><text x="115.6" y="231.83" class="green" >T</text></g>
<g><line x1="117.643" y1="231.524" x2="126.007" y2="231.524" class="black" /></g>
<g><title>3 (position.label in template: 3.C)</title><text x="115.6" y="224.27" class="black" >C</text></g>
<g><line x1="117.643" y1="223.964" x2="125.587" y2="223.964" class="black" /></g>
<g><title>4 (position.label in template: 4.U)</title><text x="115.6" y="216.71" class="green" >T</text></g>
<g><line x1="117.643" y1="216.404" x2="126.007" y2="216.404" class="black" /></g>
<g><title>5 (position.label in template: 5.U)</title><text x="115.6" y="209.15" class="green" >T</text></g>
<g><line x1="117.643" y1="208.844" x2="125.587" y2="208.844" class="black" /></g>
<g><title>6 (position.label in template: 6.A)</title><text x="115.81" y="201.59" class="green" >A</text></g>
<g><line x1="117.853" y1="201.284" x2="125.797" y2="201.284" class="black" /></g>
<g><title>7 (position.label in template: 7.U)</title><text x="115.6" y="194.03" class="green" >T</text></g>
<g><line x1="117.643" y1="193.724" x2="126.007" y2="193.724" class="black" /></g>
<g><title>8 (position.label in template: 8.C)</title><text x="115.6" y="186.47" class="black" >C</text></g>
<g><line x1="117.643" y1="186.164" x2="125.587" y2="186.164" class="black" /></g>
<g><title>9 (position.label in template: 9.A)</title><text x="109.08" y="183.03" class="black" >A</text></g>
<g><title>10 (position.label in template: 10.A)</title><text x="103.97" y="177.45" class="black" >A</text></g>
<g><text x="98.2228" y="181.257" class="numbering-label sequential" >10</text></g>
<g><line x1="102.437" y1="178.465" x2="100.061" y2="180.039" class="numbering-line sequential" /></g>
<g><title>11 (position.label in template: 11.G)</title><text x="100.74" y="170.44" class="black" >G</text></g>
<g><title>12 (position.label in template: 12.A)</title><text x="100.97" y="162.88" class="black" >A</text></g>
<g><title>13 (position.label in template: 13.G)</title><text x="103.04" y="155.74" class="black" >G</text></g>
<g><line x1="104.531" y1="154.037" x2="110.589" y2="148.36" class="black" /></g>
<g><title>14 (position.label in template: 14.A)</title><text x="96.11" y="157.54" class="black" >A</text></g>
<g><title>15 (position.label in template: 15.G)</title><text x="97.81" y="150.28" class="black" >G</text></g>
<g><line x1="99.3006" y1="148.577" x2="105.359" y2="142.9" class="black" /></g>
<g><title>16 (position.label in template: 16.G)</title><text x="92.57" y="144.83" class="black" >G</text></g>
<g><line x1="94.0605" y1="143.127" x2="100.129" y2="137.44" class="black" /></g>
<g><title>17 (position.label in template: 17.U)</title><text x="87.55" y="139.37" class="green" >T</text></g>
<g><line x1="89.007" y1="137.632" x2="94.713" y2="132.025" class="black" /></g>
<g><title>18 (position.label in template: 18.G)</title><text x="79.78" y="139.57" class="black" >G</text></g>
<g><title>19 (position.label in template: 19.G)</title><text x="73.25" y="135.76" class="black" >G</text></g>
<g><title>20 (position.label in template: 20.A)</title><text x="70.13" y="129.08" class="black" >A</text></g>
<g><text x="63.3866" y="130.512" class="numbering-label sequential" >20</text></g>
<g><line x1="68.3318" y1="129.462" x2="65.225" y2="130.122" class="numbering-line sequential" /></g>
<g><title>21 (position.label in template: 21.G)</title><text x="70.23" y="121.54" class="black" >G</text></g>
<g><line x1="71.7205" y1="119.837" x2="77.7895" y2="114.15" class="black" /></g>
<g><title>22 (position.label in template: 22.G)</title><text x="65" y="116.08" class="black" >G</text></g>
<g><line x1="66.4913" y1="114.378" x2="72.5587" y2="108.699" class="black" /></g>
<g><title>23 (position.label in template: 23.G)</title><text x="59.77" y="110.63" class="black" >G</text></g>
<g><line x1="61.2597" y1="108.926" x2="67.3203" y2="103.241" class="black" /></g>
<g><title>24 (position.label in template: 24.A)</title><text x="53.06" y="108.11" class="black" >A</text></g>
<g><title>25 (position.label in template: 25.A)</title><text x="50" y="101.19" class="black" >A</text></g>
<g><title>26 (position.label in template: 26.G)</title><text x="52.52" y="94.23" class="black" >G</text></g>
<g><title>27 (position.label in template: 27.U)</title><text x="59.81" y="91.58" class="green" >T</text></g>
<g><title>28 (position.label in template: 28.G)</title><text x="66.38" y="94.93" class="black" >G</text></g>
<g><title>29 (position.label in template: 29.C)</title><text x="68.81" y="102.15" class="black" >C</text></g>
<g><title>30 (position.label in template: 30.C)</title><text x="74.05" y="107.61" class="black" >C</text></g>
<g><text x="79.0239" y="102.837" class="numbering-label sequential" >30</text></g>
<g><line x1="75.3764" y1="106.337" x2="77.4276" y2="104.369" class="numbering-line sequential" /></g>
<g><title>31 (position.label in template: 31.C)</title><text x="79.28" y="113.06" class="black" >C</text></g>
<g><title>32 (position.label in template: 32.U)</title><text x="84" y="107.16" class="green" >T</text></g>
<g><title>33 (position.label in template: 33.A)</title><text x="91.36" y="104.72" class="black" >A</text></g>
<g><title>34 (position.label in template: 34.U)</title><text x="98.5" y="106.51" class="green" >T</text></g>
<g><title>35 (position.label in template: 35.G)</title><text x="103.52" y="111.96" class="black" >G</text></g>
<g><title>36 (position.label in template: 36.A)</title><text x="105.42" y="119.38" class="black" >A</text></g>
<g><title>37 (position.label in template: 37.A)</title><text x="102.68" y="126.43" class="black" >A</text></g>
<g><title>38 (position.label in template: 38.G)</title><text x="96.17" y="130.9" class="green" >G</text></g>
<g><title>39 (position.label in template: 39.C)</title><text x="101.62" y="136.35" class="black" >C</text></g>
<g><title>40 (position.label in template: 40.C)</title><text x="106.85" y="141.81" class="black" >C</text></g>
<g><title>41 (position.label in template: 41.C)</title><text x="112.08" y="147.27" class="black" >C</text></g>
<g><title>42 (position.label in template: 42.G)</title><text x="119.11" y="145.08" class="black" >G</text></g>
<g><line x1="121.121" y1="145.133" x2="129.349" y2="146.604" class="black" /></g>
<g><title>43 (position.label in template: 43.G)</title><text x="120.46" y="137.64" class="black" >G</text></g>
<g><line x1="122.471" y1="137.693" x2="130.699" y2="139.164" class="black" /></g>
<g><title>44 (position.label in template: 44.C)</title><text x="122.02" y="130.21" class="black" >C</text></g>
<g><line x1="124.029" y1="130.274" x2="131.841" y2="131.713" class="black" /></g>
<g><title>45 (position.label in template: 45.A)</title><text x="123.57" y="122.77" class="green" >A</text></g>
<g><line x1="125.579" y1="122.833" x2="133.401" y2="124.274" class="black" /></g>
<g><title>46 (position.label in template: 46.A)</title><text x="117.8" y="117.88" class="black" >A</text></g>
<g><title>47 (position.label in template: 47.C)</title><text x="124.71" y="115.33" class="black" >C</text></g>
<g><line x1="126.719" y1="115.394" x2="134.531" y2="116.833" class="black" /></g>
<g><title>48 (position.label in template: 48.C)</title><text x="126.06" y="107.89" class="black" >C</text></g>
<g><line x1="128.069" y1="107.954" x2="135.881" y2="109.393" class="black" /></g>
<g><title>49 (position.label in template: 49.G)</title><text x="127.19" y="100.45" class="black" >G</text></g>
<g><line x1="129.202" y1="100.496" x2="137.638" y2="101.972" class="black" /></g>
<g><title>50 (position.label in template: 50.U)</title><text x="128.75" y="93.01" class="green" >T</text></g>
<g><line x1="130.761" y1="93.0615" x2="138.989" y2="94.5257" class="black" /></g>
<g><text x="121.984" y="91.6869" class="numbering-label sequential" >50</text></g>
<g><line x1="126.946" y1="92.6572" x2="123.823" y2="92.0464" class="numbering-line sequential" /></g>
<g><title>51 (position.label in template: 51.C)</title><text x="130.1" y="85.57" class="black" >C</text></g>
<g><line x1="132.109" y1="85.6338" x2="139.921" y2="87.0734" class="black" /></g>
<g><title>52 (position.label in template: 52.A)</title><text x="131.65" y="78.13" class="green" >A</text></g>
<g><line x1="133.659" y1="78.1935" x2="141.481" y2="79.6337" class="black" /></g>
<g><title>53 (position.label in template: 53.A)</title><text x="126.59" y="72.52" class="black" >A</text></g>
<g><title>54 (position.label in template: 54.U)</title><text x="124.61" y="65.17" class="green" >T</text></g>
<g><title>55 (position.label in template: 55.A)</title><text x="126.75" y="57.86" class="black" >A</text></g>
<g><title>56 (position.label in template: 56.U)</title><text x="131.74" y="52.37" class="green" >T</text></g>
<g><title>57 (position.label in template: 57.U)</title><text x="138.92" y="50" class="green" >T</text></g>
<g><title>58 (position.label in template: 58.C)</title><text x="146.36" y="51.35" class="black" >C</text></g>
<g><title>59 (position.label in template: 59.G)</title><text x="152.05" y="56.08" class="black" >G</text></g>
<g><title>60 (position.label in template: 60.U)</title><text x="155.19" y="63.05" class="green" >T</text></g>
<g><title>61 (position.label in template: 61.A)</title><text x="154.65" y="70.57" class="black" >A</text></g>
<g><title>62 (position.label in template: 62.U)</title><text x="150.2" y="76.83" class="green" >T</text></g>
<g><title>63 (position.label in template: 63.U)</title><text x="143.49" y="80.31" class="green" >T</text></g>
<g><title>64 (position.label in template: 64.G)</title><text x="141.93" y="87.75" class="black" >G</text></g>
<g><title>65 (position.label in template: 65.A)</title><text x="141" y="95.19" class="green" >A</text></g>
<g><title>66 (position.label in template: 66.A)</title><text x="139.65" y="102.63" class="black" >A</text></g>
<g><title>67 (position.label in template: 67.A)</title><text x="147.09" y="103.98" class="black" >A</text></g>
<g><title>68 (position.label in template: 68.U)</title><text x="145.54" y="111.42" class="green" >T</text></g>
<g><title>69 (position.label in template: 69.G)</title><text x="137.89" y="110.07" class="black" >G</text></g>
<g><title>70 (position.label in template: 70.G)</title><text x="136.54" y="117.51" class="black" >G</text></g>
<g><title>71 (position.label in template: 71.U)</title><text x="135.41" y="124.95" class="green" >T</text></g>
<g><title>72 (position.label in template: 72.G)</title><text x="133.85" y="132.39" class="black" >G</text></g>
<g><title>73 (position.label in template: 73.C)</title><text x="132.71" y="139.83" class="black" >C</text></g>
<g><title>74 (position.label in template: 74.C)</title><text x="131.36" y="147.27" class="black" >C</text></g>
<g><title>75 (position.label in template: 75.A)</title><text x="137.58" y="151.85" class="black" >A</text></g>
<g><title>76 (position.label in template: 76.A)</title><text x="141.61" y="158.25" class="black" >A</text></g>
<g><title>77 (position.label in template: 77.U)</title><text x="142.93" y="165.65" class="green" >T</text></g>
<g><title>78 (position.label in template: 78.U)</title><text x="141.76" y="173.12" class="green" >T</text></g>
<g><line x1="140.584" y1="174.484" x2="135.956" y2="181.054" class="black" /></g>
<g><title>79 (position.label in template: 79.C)</title><text x="146.53" y="167.26" class="black" >C</text></g>
<g><title>80 (position.label in template: 80.A)</title><text x="154.23" y="166.27" class="black" >A</text></g>
<g><title>81 (position.label in template: 81.C)</title><text x="160.15" y="170.71" class="black" >C</text></g>
<g><title>82 (position.label in template: 82.G)</title><text x="161.34" y="178.14" class="black" >G</text></g>
<g><title>83 (position.label in template: 83.C)</title><text x="157.46" y="184.5" class="black" >C</text></g>
<g><line x1="156.239" y1="185.831" x2="151.291" y2="192.466" class="black" /></g>
<g><title>84 (position.label in template: 84.A)</title><text x="163.79" y="188.94" class="green" >A</text></g>
<g><line x1="162.569" y1="190.271" x2="157.621" y2="196.906" class="black" /></g>
<g><title>85 (position.label in template: 85.A)</title><text x="169.91" y="193.37" class="green" >A</text></g>
<g><line x1="168.689" y1="194.701" x2="163.741" y2="201.336" class="black" /></g>
<g><title>86 (position.label in template: 86.A)</title><text x="176.03" y="197.81" class="green" >A</text></g>
<g><line x1="174.81" y1="199.142" x2="169.87" y2="205.775" class="black" /></g>
<g><title>87 (position.label in template: 87.G)</title><text x="181.74" y="202.24" class="black" >G</text></g>
<g><line x1="180.566" y1="203.605" x2="175.944" y2="210.182" class="black" /></g>
<g><title>88 (position.label in template: 88.C)</title><text x="188.07" y="206.68" class="black" >C</text></g>
<g><line x1="186.849" y1="208.011" x2="181.901" y2="214.646" class="black" /></g>
<g><title>89 (position.label in template: 89.G)</title><text x="195" y="209.17" class="black" >G</text></g>
<g><title>90 (position.label in template: 90.A)</title><text x="197.68" y="216.38" class="black" >A</text></g>
<g><title>91 (position.label in template: 91.A)</title><text x="193.24" y="222.51" class="black" >A</text></g>
<g><title>92 (position.label in template: 92.U)</title><text x="185.48" y="222.6" class="green" >T</text></g>
<g><title>93 (position.label in template: 93.G)</title><text x="180.68" y="216.59" class="black" >G</text></g>
<g><title>94 (position.label in template: 94.C)</title><text x="174.77" y="212.16" class="black" >C</text></g>
<g><title>95 (position.label in template: 95.U)</title><text x="168.65" y="207.72" class="green" >T</text></g>
<g><title>96 (position.label in template: 96.U)</title><text x="162.52" y="203.28" class="green" >T</text></g>
<g><title>97 (position.label in template: 97.U)</title><text x="156.4" y="198.85" class="green" >T</text></g>
<g><title>98 (position.label in template: 98.G)</title><text x="150.07" y="194.41" class="black" >G</text></g>
<g><title>99 (position.label in template: 99.G)</title><text x="142.52" y="194.75" class="black" >G</text></g>
<g><title>100 (position.label in template: 100.G)</title><text x="136.4" y="190.31" class="black" >G</text></g>
<g><text x="133.18" y="197.944" class="numbering-label sequential" >100</text></g>
<g><line x1="134.866" y1="191.323" x2="133.826" y2="196.412" class="numbering-line sequential" /></g>
<g><title>101 (position.label in template: 101.A)</title><text x="134.78" y="183.03" class="green" >A</text></g>
<g><title>102 (position.label in template: 102.G)</title><text x="127.63" y="186.47" class="black" >G</text></g>
<g><title>103 (position.label in template: 103.A)</title><text x="128.05" y="194.03" class="green" >A</text></g>
<g><title>104 (position.label in template: 104.U)</title><text x="127.84" y="201.59" class="green" >T</text></g>
<g><title>105 (position.label in template: 105.G)</title><text x="127.63" y="209.15" class="green" >G</text></g>
<g><title>106 (position.label in template: 106.A)</title><text x="128.05" y="216.71" class="green" >A</text></g>
<g><title>107 (position.label in template: 107.G)</title><text x="127.63" y="224.27" class="black" >G</text></g>
<g><title>108 (position.label in template: 108.A)</title><text x="128.05" y="231.83" class="green" >A</text></g>
<g><title>109 (position.label in template: 109.G)</title><text x="127.63" y="239.39" class="black" >G</text></g>
<g><title>110 (position.label in template: 110.3')</title><text x="134.63" y="239.39" class="green" >3'</text></g>
<g><line x1="110.643" y1="239.084" x2="113.557" y2="239.084" class="gray" /></g>
<g><line x1="115.6" y1="237.041" x2="115.6" y2="233.566" class="gray" /></g>
<g><line x1="115.6" y1="229.481" x2="115.6" y2="226.006" class="gray" /></g>
<g><line x1="115.6" y1="221.921" x2="115.6" y2="218.446" class="gray" /></g>
<g><line x1="115.6" y1="214.361" x2="115.6" y2="210.886" class="gray" /></g>
<g><line x1="115.657" y1="206.802" x2="115.753" y2="203.325" class="gray" /></g>
<g><line x1="115.753" y1="199.242" x2="115.657" y2="195.765" class="gray" /></g>
<g><line x1="115.6" y1="191.681" x2="115.6" y2="188.206" class="gray" /></g>
<g><line x1="113.793" y1="185.21" x2="110.887" y2="183.677" class="gray" /></g>
<g><line x1="107.7" y1="181.217" x2="105.35" y2="178.65" class="gray" /></g>
<g><line x1="103.115" y1="175.288" x2="101.595" y2="171.989" class="gray" /></g>
<g><line x1="100.802" y1="168.092" x2="100.908" y2="164.615" class="gray" /></g>
<g><line x1="101.539" y1="160.612" x2="102.471" y2="157.395" class="gray" /></g>
<g><line x1="101.063" y1="155.947" x2="98.087" y2="156.72" class="gray" /></g>
<g><line x1="96.5757" y1="155.245" x2="97.3443" y2="151.962" class="gray" /></g>
<g><line x1="96.3943" y1="148.501" x2="93.9857" y2="145.996" class="gray" /></g>
<g><line x1="91.1875" y1="143.02" x2="88.9325" y2="140.567" class="gray" /></g>
<g><line x1="85.5081" y1="139.116" x2="81.8219" y2="139.211" class="gray" /></g>
<g><line x1="78.0157" y1="138.234" x2="75.0143" y2="136.483" class="gray" /></g>
<g><line x1="72.3856" y1="133.603" x2="70.9944" y2="130.624" class="gray" /></g>
<g><line x1="70.1571" y1="126.731" x2="70.2029" y2="123.276" class="gray" /></g>
<g><line x1="68.8171" y1="119.759" x2="66.4129" y2="117.249" class="gray" /></g>
<g><line x1="63.5857" y1="114.3" x2="61.1843" y2="111.797" class="gray" /></g>
<g><line x1="57.8578" y1="109.605" x2="54.9722" y2="108.522" class="gray" /></g>
<g><line x1="52.2339" y1="105.936" x2="50.8261" y2="102.752" class="gray" /></g>
<g><line x1="50.6954" y1="98.963" x2="51.8246" y2="95.8442" class="gray" /></g>
<g><line x1="54.4397" y1="93.2258" x2="57.8903" y2="91.9714" class="gray" /></g>
<g><line x1="61.6297" y1="92.2015" x2="64.5603" y2="93.6958" class="gray" /></g>
<g><line x1="67.0316" y1="96.5595" x2="68.1584" y2="99.9077" class="gray" /></g>
<g><line x1="70.2243" y1="103.317" x2="72.6357" y2="105.83" class="gray" /></g>
<g><line x1="75.4643" y1="108.777" x2="77.8657" y2="111.28" class="gray" /></g>
<g><line x1="80.556" y1="111.159" x2="82.724" y2="108.449" class="gray" /></g>
<g><line x1="85.9388" y1="106.211" x2="89.4212" y2="105.056" class="gray" /></g>
<g><line x1="93.3413" y1="104.91" x2="96.5187" y2="105.707" class="gray" /></g>
<g><line x1="99.8839" y1="107.706" x2="102.136" y2="110.151" class="gray" /></g>
<g><line x1="104.027" y1="113.632" x2="104.913" y2="117.095" class="gray" /></g>
<g><line x1="104.68" y1="120.977" x2="103.42" y2="124.22" class="gray" /></g>
<g><line x1="100.996" y1="127.28" x2="97.8539" y2="129.437" class="gray" /></g>
<g><line x1="97.6143" y1="132.038" x2="100.176" y2="134.599" class="gray" /></g>
<g><line x1="103.033" y1="137.519" x2="105.437" y2="140.029" class="gray" /></g>
<g><line x1="108.263" y1="142.979" x2="110.667" y2="145.489" class="gray" /></g>
<g><line x1="114.03" y1="146.356" x2="117.16" y2="145.381" class="gray" /></g>
<g><line x1="119.475" y1="142.764" x2="120.095" y2="139.343" class="gray" /></g>
<g><line x1="120.88" y1="135.335" x2="121.6" y2="131.903" class="gray" /></g>
<g><line x1="122.437" y1="127.904" x2="123.153" y2="124.463" class="gray" /></g>
<g><line x1="122.012" y1="121.143" x2="119.358" y2="118.894" class="gray" /></g>
<g><line x1="119.716" y1="116.866" x2="122.794" y2="115.731" class="gray" /></g>
<g><line x1="125.075" y1="113.014" x2="125.695" y2="109.593" class="gray" /></g>
<g><line x1="126.367" y1="105.564" x2="126.883" y2="102.163" class="gray" /></g>
<g><line x1="127.609" y1="98.1445" x2="128.331" y2="94.7027" class="gray" /></g>
<g><line x1="129.115" y1="90.6938" x2="129.735" y2="87.2734" class="gray" /></g>
<g><line x1="130.517" y1="83.2639" x2="131.233" y2="79.8233" class="gray" /></g>
<g><line x1="130.282" y1="76.3068" x2="127.958" y2="73.7304" class="gray" /></g>
<g><line x1="126.059" y1="70.2413" x2="125.141" y2="66.8359" class="gray" /></g>
<g><line x1="125.184" y1="62.9033" x2="126.176" y2="59.5139" class="gray" /></g>
<g><line x1="128.124" y1="56.0421" x2="130.366" y2="53.5751" class="gray" /></g>
<g><line x1="133.68" y1="51.4234" x2="136.98" y2="50.3339" class="gray" /></g>
<g><line x1="140.93" y1="50.0583" x2="144.35" y2="50.6789" class="gray" /></g>
<g><line x1="147.931" y1="52.3494" x2="150.479" y2="54.4679" class="gray" /></g>
<g><line x1="152.889" y1="57.636" x2="154.351" y2="60.8813" class="gray" /></g>
<g><line x1="155.044" y1="64.781" x2="154.796" y2="68.2263" class="gray" /></g>
<g><line x1="153.467" y1="71.9284" x2="151.383" y2="74.8588" class="gray" /></g>
<g><line x1="148.387" y1="77.464" x2="145.303" y2="79.0632" class="gray" /></g>
<g><line x1="143.071" y1="82.0027" x2="142.349" y2="85.4445" class="gray" /></g>
<g><line x1="141.677" y1="89.4704" x2="141.253" y2="92.8568" class="gray" /></g>
<g><line x1="140.635" y1="96.8934" x2="140.015" y2="100.314" class="gray" /></g>
<g><line x1="141.66" y1="102.688" x2="145.08" y2="103.309" class="gray" /></g>
<g><line x1="146.673" y1="105.673" x2="145.957" y2="109.114" class="gray" /></g>
<g><line x1="143.528" y1="110.759" x2="139.902" y2="110.119" class="gray" /></g>
<g><line x1="137.525" y1="111.773" x2="136.905" y2="115.194" class="gray" /></g>
<g><line x1="136.233" y1="119.223" x2="135.717" y2="122.624" class="gray" /></g>
<g><line x1="134.991" y1="126.643" x2="134.269" y2="130.084" class="gray" /></g>
<g><line x1="133.541" y1="134.103" x2="133.019" y2="137.505" class="gray" /></g>
<g><line x1="132.345" y1="141.533" x2="131.725" y2="144.954" class="gray" /></g>
<g><line x1="133.005" y1="148.175" x2="135.935" y2="150.332" class="gray" /></g>
<g><line x1="138.668" y1="153.272" x2="140.522" y2="156.215" class="gray" /></g>
<g><line x1="141.969" y1="159.954" x2="142.571" y2="163.333" class="gray" /></g>
<g><line x1="142.614" y1="167.362" x2="142.076" y2="170.796" class="gray" /></g>
<g><line x1="143.049" y1="171.229" x2="145.241" y2="168.538" class="gray" /></g>
<g><line x1="148.556" y1="166.693" x2="152.204" y2="166.224" class="gray" /></g>
<g><line x1="155.864" y1="167.189" x2="158.516" y2="169.178" class="gray" /></g>
<g><line x1="160.473" y1="172.421" x2="161.017" y2="175.817" class="gray" /></g>
<g><line x1="160.276" y1="179.577" x2="158.524" y2="182.45" class="gray" /></g>
<g><line x1="159.132" y1="185.367" x2="162.118" y2="187.461" class="gray" /></g>
<g><line x1="165.445" y1="189.831" x2="168.255" y2="191.866" class="gray" /></g>
<g><line x1="171.563" y1="194.263" x2="174.377" y2="196.304" class="gray" /></g>
<g><line x1="177.644" y1="198.756" x2="180.126" y2="200.682" class="gray" /></g>
<g><line x1="183.412" y1="203.107" x2="186.398" y2="205.201" class="gray" /></g>
<g><line x1="189.992" y1="207.064" x2="193.078" y2="208.173" class="gray" /></g>
<g><line x1="195.712" y1="210.778" x2="196.968" y2="214.159" class="gray" /></g>
<g><line x1="196.482" y1="217.728" x2="194.438" y2="220.549" class="gray" /></g>
<g><line x1="191.198" y1="222.227" x2="187.522" y2="222.27" class="gray" /></g>
<g><line x1="184.205" y1="220.698" x2="181.955" y2="217.88" class="gray" /></g>
<g><line x1="179.046" y1="215.058" x2="176.404" y2="213.079" class="gray" /></g>
<g><line x1="173.117" y1="210.654" x2="170.303" y2="208.613" class="gray" /></g>
<g><line x1="166.996" y1="206.215" x2="164.174" y2="204.172" class="gray" /></g>
<g><line x1="160.865" y1="201.776" x2="158.055" y2="199.741" class="gray" /></g>
<g><line x1="154.728" y1="197.371" x2="151.742" y2="195.277" class="gray" /></g>
<g><line x1="148.029" y1="194.196" x2="144.561" y2="194.352" class="gray" /></g>
<g><line x1="140.867" y1="193.244" x2="138.053" y2="191.203" class="gray" /></g>
<g><line x1="135.956" y1="188.01" x2="135.224" y2="184.717" class="gray" /></g>
<g><line x1="132.939" y1="183.609" x2="129.471" y2="185.278" class="gray" /></g>
<g><line x1="127.743" y1="188.203" x2="127.937" y2="191.684" class="gray" /></g>
<g><line x1="127.993" y1="195.765" x2="127.897" y2="199.242" class="gray" /></g>
<g><line x1="127.783" y1="203.325" x2="127.687" y2="206.802" class="gray" /></g>
<g><line x1="127.743" y1="210.883" x2="127.937" y2="214.364" class="gray" /></g>
<g><line x1="127.937" y1="218.443" x2="127.743" y2="221.924" class="gray" /></g>
<g><line x1="127.743" y1="226.003" x2="127.937" y2="229.484" class="gray" /></g>
<g><line x1="127.937" y1="233.563" x2="127.743" y2="237.044" class="gray" /></g>
<g><line x1="129.673" y1="239.084" x2="132.587" y2="239.084" class="gray" /></g>
</svg>
