<svg
	xmlns="http://www.w3.org/2000/svg"
	width="228.19"
	height="242.496">
<g><style type="text/css" >
<!-- create color definitions -->
<![CDATA[
circle.red {stroke: rgb(255, 0, 255); fill: none; }
circle.green {stroke: rgb(0, 255, 0); fill: none; }
circle.blue {stroke: rgb(0, 0, 255); fill: none; }
circle.black {stroke: rgb(0, 0, 0); fill: none; }
circle.gray {stroke: rgb(204, 204, 204); fill: none; }
circle.brown {stroke: rgb(211.65, 104.55, 30.6); fill: none; }
line.red {stroke: rgb(255, 0, 255); stroke-width: 0.383015; }
line.green {stroke: rgb(0, 255, 0); stroke-width: 0.383015; }
line.blue {stroke: rgb(0, 0, 255); stroke-width: 0.383015; }
line.black {stroke: rgb(0, 0, 0); stroke-width: 0.383015; }
line.gray {stroke: rgb(204, 204, 204); stroke-width: 0.383015; }
line.brown {stroke: rgb(211.65, 104.55, 30.6); stroke-width: 0.383015; }
line {stroke: rgb(0, 0, 0); }
text.red {fill: rgb(255, 0, 255); font-size: 3.064118px; font-weight: bold; font-family: Helvetica; }
text.green {fill: rgb(0, 255, 0); font-size: 3.064118px; font-weight: bold; font-family: Helvetica; }
text.blue {fill: rgb(0, 0, 255); font-size: 3.064118px; font-weight: bold; font-family: Helvetica; }
text.black {fill: rgb(0, 0, 0); font-size: 3.064118px; font-weight: bold; font-family: Helvetica; }
text.gray {fill: rgb(204, 204, 204); font-size: 3.064118px; font-weight: bold; font-family: Helvetica; }
text.brown {fill: rgb(211.65, 104.55, 30.6); font-size: 3.064118px; font-weight: bold; font-family: Helvetica; }
text {fill: rgb(0, 0, 0); font-size: 3.064118px; font-weight: bold; font-family: Helvetica; text-anchor: middle; alignment-baseline: middle; }

.pseudoknot_connection{stroke-linecap: round; stroke-opacity: 0.2; stroke-width: 1.5; }
.pseudoknot_segment1{stroke-linecap: round; stroke-opacity: 0.4; stroke-width: 3.06412; }
.pseudoknot_segment2{stroke-linecap: round; stroke-opacity: 0.4; stroke-width: 3.06412; }
line.numbering-line{stroke: rgb(204, 204, 204); stroke-width: 0.191507; }
line.predicted{stroke: rgb(0, 0, 0); stroke-dasharray: 2; }
polyline{fill: none; stroke-linejoin: round; }
template{visibility: hidden; }
text.numbering-label{fill: rgb(204, 204, 204); }
]]>
</style></g>
<g><title>0 (position.label in template: 0.5')</title><text x="110.67" y="194.606" class="green" >5'</text></g>
<g><title>1 (position.label in template: 1.G)</title><text x="110.88" y="187.05" class="black" >G</text></g>
<g><line x1="112.923" y1="186.744" x2="121.287" y2="186.744" class="black" /></g>
<g><title>2 (position.label in template: 2.C)</title><text x="111.09" y="179.49" class="green" >C</text></g>
<g><line x1="113.133" y1="179.184" x2="121.287" y2="179.184" class="black" /></g>
<g><title>3 (position.label in template: 3.C)</title><text x="111.09" y="171.93" class="black" >C</text></g>
<g><line x1="113.133" y1="171.624" x2="121.077" y2="171.624" class="black" /></g>
<g><title>4 (position.label in template: 4.U)</title><text x="111.09" y="164.37" class="green" >T</text></g>
<g><line x1="113.133" y1="164.064" x2="121.497" y2="164.064" class="black" /></g>
<g><title>5 (position.label in template: 5.U)</title><text x="111.09" y="156.81" class="green" >T</text></g>
<g><line x1="113.133" y1="156.504" x2="121.497" y2="156.504" class="black" /></g>
<g><title>6 (position.label in template: 6.C)</title><text x="111.09" y="149.25" class="black" >C</text></g>
<g><line x1="113.133" y1="148.944" x2="121.077" y2="148.944" class="black" /></g>
<g><title>7 (position.label in template: 7.G)</title><text x="110.88" y="141.69" class="black" >G</text></g>
<g><line x1="112.923" y1="141.384" x2="121.287" y2="141.384" class="black" /></g>
<g><title>8 (position.label in template: 8.C)</title><text x="104.36" y="138.25" class="black" >C</text></g>
<g><title>9 (position.label in template: 9.G)</title><text x="99.04" y="132.67" class="black" >G</text></g>
<g><title>10 (position.label in template: 10.G)</title><text x="96.22" y="125.66" class="black" >G</text></g>
<g><line x1="96.4383" y1="123.323" x2="97.3117" y2="115.195" class="black" /></g>
<g><text x="92.0514" y="131.151" class="numbering-label sequential" >10</text></g>
<g><line x1="95.1084" y1="127.124" x2="93.2145" y2="129.619" class="numbering-line sequential" /></g>
<g><title>11 (position.label in template: 11.U)</title><text x="88.91" y="124.98" class="green" >T</text></g>
<g><line x1="89.1266" y1="122.642" x2="89.9934" y2="114.515" class="black" /></g>
<g><title>12 (position.label in template: 12.G)</title><text x="81.17" y="124.3" class="black" >G</text></g>
<g><line x1="81.3866" y1="121.962" x2="82.2534" y2="113.835" class="black" /></g>
<g><title>13 (position.label in template: 13.U)</title><text x="73.85" y="123.63" class="green" >T</text></g>
<g><line x1="73.9971" y1="121.286" x2="74.5829" y2="113.171" class="black" /></g>
<g><title>14 (position.label in template: 14.A)</title><text x="68.26" y="128.48" class="black" >A</text></g>
<g><title>15 (position.label in template: 15.G)</title><text x="60.32" y="129.29" class="black" >G</text></g>
<g><title>16 (position.label in template: 16.U)</title><text x="53.83" y="125.79" class="green" >T</text></g>
<g><title>17 (position.label in template: 17.G)</title><text x="50" y="119.15" class="black" >G</text></g>
<g><title>18 (position.label in template: 18.G)</title><text x="50.68" y="111.63" class="black" >G</text></g>
<g><title>19 (position.label in template: 19.U)</title><text x="55.63" y="105.74" class="green" >T</text></g>
<g><title>20 (position.label in template: 20.U)</title><text x="62.85" y="103.49" class="green" >T</text></g>
<g><text x="62.7983" y="96.5959" class="numbering-label sequential" >20</text></g>
<g><line x1="62.8362" y1="101.652" x2="62.8098" y2="98.128" class="numbering-line sequential" /></g>
<g><title>21 (position.label in template: 21.A)</title><text x="70.31" y="105.63" class="black" >A</text></g>
<g><title>22 (position.label in template: 22.G)</title><text x="74.73" y="111.44" class="green" >G</text></g>
<g><title>23 (position.label in template: 23.C)</title><text x="82.47" y="112.11" class="black" >C</text></g>
<g><title>24 (position.label in template: 24.A)</title><text x="90.21" y="112.79" class="green" >A</text></g>
<g><title>25 (position.label in template: 25.C)</title><text x="97.53" y="113.47" class="black" >C</text></g>
<g><title>26 (position.label in template: 26.A)</title><text x="101.76" y="107.07" class="black" >A</text></g>
<g><title>27 (position.label in template: 27.A)</title><text x="107.77" y="102.48" class="black" >A</text></g>
<g><line x1="109.778" y1="101.797" x2="117.392" y2="100.37" class="black" /></g>
<g><title>28 (position.label in template: 28.U)</title><text x="106.22" y="95.05" class="green" >T</text></g>
<g><line x1="108.231" y1="94.3841" x2="116.459" y2="92.9131" class="black" /></g>
<g><title>29 (position.label in template: 29.G)</title><text x="104.66" y="87.61" class="black" >G</text></g>
<g><line x1="106.671" y1="86.946" x2="114.909" y2="85.4812" class="black" /></g>
<g><title>30 (position.label in template: 30.G)</title><text x="103.32" y="80.17" class="black" >G</text></g>
<g><line x1="105.331" y1="79.5057" x2="113.559" y2="78.0415" class="black" /></g>
<g><text x="96.5046" y="81.2097" class="numbering-label sequential" >30</text></g>
<g><line x1="101.503" y1="80.4473" x2="98.3431" y2="80.9293" class="numbering-line sequential" /></g>
<g><title>31 (position.label in template: 31.A)</title><text x="102.39" y="72.73" class="green" >A</text></g>
<g><line x1="104.399" y1="72.0534" x2="112.211" y2="70.6138" class="black" /></g>
<g><title>32 (position.label in template: 32.C)</title><text x="96.34" y="67.92" class="black" >C</text></g>
<g><title>33 (position.label in template: 33.G)</title><text x="94.39" y="60.57" class="black" >G</text></g>
<g><title>34 (position.label in template: 34.C)</title><text x="97.66" y="53.66" class="black" >C</text></g>
<g><title>35 (position.label in template: 35.G)</title><text x="104.07" y="50" class="black" >G</text></g>
<g><title>36 (position.label in template: 36.U)</title><text x="111.76" y="51.1" class="green" >T</text></g>
<g><title>37 (position.label in template: 37.A)</title><text x="117.26" y="56.5" class="black" >A</text></g>
<g><title>38 (position.label in template: 38.U)</title><text x="118" y="64" class="green" >T</text></g>
<g><title>39 (position.label in template: 39.U)</title><text x="114.22" y="70.55" class="green" >T</text></g>
<g><title>40 (position.label in template: 40.C)</title><text x="115.57" y="77.99" class="black" >C</text></g>
<g><title>41 (position.label in template: 41.C)</title><text x="116.92" y="85.43" class="black" >C</text></g>
<g><title>42 (position.label in template: 42.A)</title><text x="118.47" y="92.86" class="green" >A</text></g>
<g><title>43 (position.label in template: 43.G)</title><text x="119.4" y="100.3" class="black" >G</text></g>
<g><title>44 (position.label in template: 44.A)</title><text x="127.06" y="102.48" class="black" >A</text></g>
<g><title>45 (position.label in template: 45.G)</title><text x="132.65" y="107.07" class="black" >G</text></g>
<g><title>46 (position.label in template: 46.G)</title><text x="136.68" y="113.47" class="black" >G</text></g>
<g><title>47 (position.label in template: 47.U)</title><text x="138.41" y="120.87" class="green" >T</text></g>
<g><title>48 (position.label in template: 48.C)</title><text x="137.25" y="128.34" class="black" >C</text></g>
<g><line x1="136.028" y1="129.67" x2="131.072" y2="136.307" class="black" /></g>
<g><title>49 (position.label in template: 49.C)</title><text x="143.37" y="132.77" class="black" >C</text></g>
<g><line x1="142.15" y1="134.102" x2="137.2" y2="140.745" class="black" /></g>
<g><title>50 (position.label in template: 50.G)</title><text x="149.28" y="137.21" class="black" >G</text></g>
<g><line x1="148.105" y1="138.574" x2="143.485" y2="145.143" class="black" /></g>
<g><text x="149.996" y="130.353" class="numbering-label sequential" >50</text></g>
<g><line x1="149.471" y1="135.381" x2="149.836" y2="131.885" class="numbering-line sequential" /></g>
<g><title>51 (position.label in template: 51.U)</title><text x="156.39" y="134.13" class="green" >T</text></g>
<g><title>52 (position.label in template: 52.G)</title><text x="155.4" y="141.65" class="black" >G</text></g>
<g><line x1="154.225" y1="143.014" x2="149.605" y2="149.583" class="black" /></g>
<g><title>53 (position.label in template: 53.G)</title><text x="161.52" y="146.08" class="black" >G</text></g>
<g><line x1="160.345" y1="147.444" x2="155.725" y2="154.013" class="black" /></g>
<g><title>54 (position.label in template: 54.U)</title><text x="169.27" y="145.51" class="green" >T</text></g>
<g><title>55 (position.label in template: 55.U)</title><text x="175.62" y="149.61" class="green" >T</text></g>
<g><title>56 (position.label in template: 56.C)</title><text x="178.19" y="156.72" class="black" >C</text></g>
<g><title>57 (position.label in template: 57.G)</title><text x="175.73" y="163.94" class="black" >G</text></g>
<g><title>58 (position.label in template: 58.A)</title><text x="169.99" y="168.33" class="black" >A</text></g>
<g><title>59 (position.label in template: 59.G)</title><text x="162.02" y="168.09" class="black" >G</text></g>
<g><title>60 (position.label in template: 60.U)</title><text x="156.35" y="163.34" class="green" >T</text></g>
<g><title>61 (position.label in template: 61.C)</title><text x="154.55" y="155.99" class="black" >C</text></g>
<g><title>62 (position.label in template: 62.C)</title><text x="148.43" y="151.56" class="black" >C</text></g>
<g><title>63 (position.label in template: 63.C)</title><text x="142.31" y="147.12" class="black" >C</text></g>
<g><title>64 (position.label in template: 64.G)</title><text x="135.98" y="142.69" class="black" >G</text></g>
<g><title>65 (position.label in template: 65.G)</title><text x="129.85" y="138.25" class="black" >G</text></g>
<g><title>66 (position.label in template: 66.C)</title><text x="123.33" y="141.69" class="black" >C</text></g>
<g><title>67 (position.label in template: 67.G)</title><text x="123.12" y="149.25" class="black" >G</text></g>
<g><title>68 (position.label in template: 68.A)</title><text x="123.54" y="156.81" class="green" >A</text></g>
<g><title>69 (position.label in template: 69.A)</title><text x="123.54" y="164.37" class="green" >A</text></g>
<g><title>70 (position.label in template: 70.G)</title><text x="123.12" y="171.93" class="black" >G</text></g>
<g><title>71 (position.label in template: 71.U)</title><text x="123.33" y="179.49" class="green" >T</text></g>
<g><title>72 (position.label in template: 72.C)</title><text x="123.33" y="187.05" class="black" >C</text></g>
<g><title>73 (position.label in template: 73.G)</title><text x="128.572" y="192.496" class="black" >G</text></g>
<g><title>74 (position.label in template: 74.3')</title><text x="123.358" y="197.968" class="green" >3'</text></g>
<g><line x1="110.727" y1="192.257" x2="110.823" y2="188.786" class="gray" /></g>
<g><line x1="110.937" y1="184.702" x2="111.033" y2="181.226" class="gray" /></g>
<g><line x1="111.09" y1="177.141" x2="111.09" y2="173.666" class="gray" /></g>
<g><line x1="111.09" y1="169.581" x2="111.09" y2="166.106" class="gray" /></g>
<g><line x1="111.09" y1="162.021" x2="111.09" y2="158.546" class="gray" /></g>
<g><line x1="111.09" y1="154.461" x2="111.09" y2="150.986" class="gray" /></g>
<g><line x1="111.033" y1="146.902" x2="110.937" y2="143.426" class="gray" /></g>
<g><line x1="109.073" y1="140.43" x2="106.167" y2="138.897" class="gray" /></g>
<g><line x1="102.95" y1="136.465" x2="100.45" y2="133.842" class="gray" /></g>
<g><line x1="98.2776" y1="130.468" x2="96.9824" y2="127.249" class="gray" /></g>
<g><line x1="94.186" y1="125.164" x2="90.944" y2="124.863" class="gray" /></g>
<g><line x1="86.8751" y1="124.495" x2="83.2049" y2="124.172" class="gray" /></g>
<g><line x1="79.1358" y1="123.807" x2="75.8842" y2="123.51" class="gray" /></g>
<g><line x1="72.307" y1="124.662" x2="69.803" y2="126.835" class="gray" /></g>
<g><line x1="66.2278" y1="128.381" x2="62.3522" y2="128.776" class="gray" /></g>
<g><line x1="58.522" y1="128.014" x2="55.628" y2="126.453" class="gray" /></g>
<g><line x1="52.8093" y1="123.714" x2="51.0207" y2="120.613" class="gray" /></g>
<g><line x1="50.184" y1="116.809" x2="50.496" y2="113.358" class="gray" /></g>
<g><line x1="51.9943" y1="109.76" x2="54.3157" y2="106.997" class="gray" /></g>
<g><line x1="57.5802" y1="104.826" x2="60.8998" y2="103.791" class="gray" /></g>
<g><line x1="64.8136" y1="103.747" x2="68.3464" y2="104.76" class="gray" /></g>
<g><line x1="71.5468" y1="106.949" x2="73.4932" y2="109.508" class="gray" /></g>
<g><line x1="76.7651" y1="111.31" x2="80.4349" y2="111.627" class="gray" /></g>
<g><line x1="84.5049" y1="111.982" x2="88.1751" y2="112.305" class="gray" /></g>
<g><line x1="92.244" y1="112.673" x2="95.496" y2="112.975" class="gray" /></g>
<g><line x1="98.6563" y1="111.459" x2="100.634" y2="108.468" class="gray" /></g>
<g><line x1="103.383" y1="105.524" x2="106.147" y2="103.413" class="gray" /></g>
<g><line x1="107.353" y1="100.174" x2="106.637" y2="96.7433" class="gray" /></g>
<g><line x1="105.801" y1="92.7443" x2="105.079" y2="89.3029" class="gray" /></g>
<g><line x1="104.298" y1="85.2932" x2="103.682" y2="81.874" class="gray" /></g>
<g><line x1="103.067" y1="77.8366" x2="102.643" y2="74.4506" class="gray" /></g>
<g><line x1="100.791" y1="71.1523" x2="97.939" y2="68.8848" class="gray" /></g>
<g><line x1="95.8162" y1="65.6391" x2="94.9138" y2="62.238" class="gray" /></g>
<g><line x1="95.2638" y1="58.4172" x2="96.7862" y2="55.2" class="gray" /></g>
<g><line x1="99.4339" y1="52.3407" x2="102.296" y2="50.7065" class="gray" /></g>
<g><line x1="106.092" y1="49.9828" x2="109.738" y2="50.5043" class="gray" /></g>
<g><line x1="113.218" y1="52.2247" x2="115.802" y2="54.7625" class="gray" /></g>
<g><line x1="117.461" y1="58.2265" x2="117.799" y2="61.6607" class="gray" /></g>
<g><line x1="116.979" y1="65.4628" x2="115.241" y2="68.4743" class="gray" /></g>
<g><line x1="114.585" y1="72.2535" x2="115.205" y2="75.6737" class="gray" /></g>
<g><line x1="115.935" y1="79.6935" x2="116.555" y2="83.1137" class="gray" /></g>
<g><line x1="117.337" y1="87.1233" x2="118.053" y2="90.5539" class="gray" /></g>
<g><line x1="118.723" y1="94.5806" x2="119.147" y2="97.9666" class="gray" /></g>
<g><line x1="121.365" y1="100.553" x2="125.095" y2="101.614" class="gray" /></g>
<g><line x1="128.639" y1="103.47" x2="131.071" y2="105.467" class="gray" /></g>
<g><line x1="133.738" y1="108.492" x2="135.592" y2="111.435" class="gray" /></g>
<g><line x1="137.145" y1="115.153" x2="137.945" y2="118.574" class="gray" /></g>
<g><line x1="138.097" y1="122.582" x2="137.563" y2="126.015" class="gray" /></g>
<g><line x1="138.905" y1="129.231" x2="141.715" y2="131.266" class="gray" /></g>
<g><line x1="145.003" y1="133.691" x2="147.647" y2="135.677" class="gray" /></g>
<g><line x1="151.154" y1="136.092" x2="154.516" y2="134.636" class="gray" /></g>
<g><line x1="156.123" y1="135.849" x2="155.667" y2="139.318" class="gray" /></g>
<g><line x1="157.055" y1="142.541" x2="159.865" y2="144.576" class="gray" /></g>
<g><line x1="163.557" y1="145.624" x2="167.233" y2="145.353" class="gray" /></g>
<g><line x1="170.986" y1="146.312" x2="173.904" y2="148.196" class="gray" /></g>
<g><line x1="176.314" y1="151.225" x2="177.496" y2="154.492" class="gray" /></g>
<g><line x1="177.531" y1="158.347" x2="176.389" y2="161.7" class="gray" /></g>
<g><line x1="174.107" y1="164.875" x2="171.613" y2="166.783" class="gray" /></g>
<g><line x1="167.948" y1="167.962" x2="164.062" y2="167.845" class="gray" /></g>
<g><line x1="160.454" y1="166.472" x2="157.916" y2="164.345" class="gray" /></g>
<g><line x1="155.864" y1="161.049" x2="155.036" y2="157.668" class="gray" /></g>
<g><line x1="152.895" y1="154.486" x2="150.085" y2="152.451" class="gray" /></g>
<g><line x1="146.777" y1="150.054" x2="143.963" y2="148.013" class="gray" /></g>
<g><line x1="140.636" y1="145.642" x2="137.654" y2="143.555" class="gray" /></g>
<g><line x1="134.326" y1="141.185" x2="131.504" y2="139.142" class="gray" /></g>
<g><line x1="128.043" y1="138.897" x2="125.137" y2="140.43" class="gray" /></g>
<g><line x1="123.273" y1="143.426" x2="123.177" y2="146.902" class="gray" /></g>
<g><line x1="123.233" y1="150.983" x2="123.427" y2="154.464" class="gray" /></g>
<g><line x1="123.54" y1="158.546" x2="123.54" y2="162.021" class="gray" /></g>
<g><line x1="123.427" y1="166.103" x2="123.233" y2="169.584" class="gray" /></g>
<g><line x1="123.177" y1="173.666" x2="123.273" y2="177.142" class="gray" /></g>
<g><line x1="123.33" y1="181.226" x2="123.33" y2="184.701" class="gray" /></g>
<g><line x1="124.747" y1="188.215" x2="127.155" y2="190.718" class="gray" /></g>
<g><line x1="127.163" y1="193.668" x2="124.767" y2="196.183" class="gray" /></g>
</svg>
