<svg
	xmlns="http://www.w3.org/2000/svg"
	width="232.59"
	height="242.327">
<g><style type="text/css" >
<!-- create color definitions -->
<![CDATA[
circle.red {stroke: rgb(255, 0, 255); fill: none; }
circle.green {stroke: rgb(0, 255, 0); fill: none; }
circle.blue {stroke: rgb(0, 0, 255); fill: none; }
circle.black {stroke: rgb(0, 0, 0); fill: none; }
circle.gray {stroke: rgb(204, 204, 204); fill: none; }
circle.brown {stroke: rgb(211.65, 104.55, 30.6); fill: none; }
line.red {stroke: rgb(255, 0, 255); stroke-width: 0.383055; }
line.green {stroke: rgb(0, 255, 0); stroke-width: 0.383055; }
line.blue {stroke: rgb(0, 0, 255); stroke-width: 0.383055; }
line.black {stroke: rgb(0, 0, 0); stroke-width: 0.383055; }
line.gray {stroke: rgb(204, 204, 204); stroke-width: 0.383055; }
line.brown {stroke: rgb(211.65, 104.55, 30.6); stroke-width: 0.383055; }
line {stroke: rgb(0, 0, 0); }
text.red {fill: rgb(255, 0, 255); font-size: 3.064442px; font-weight: bold; font-family: Helvetica; }
text.green {fill: rgb(0, 255, 0); font-size: 3.064442px; font-weight: bold; font-family: Helvetica; }
text.blue {fill: rgb(0, 0, 255); font-size: 3.064442px; font-weight: bold; font-family: Helvetica; }
text.black {fill: rgb(0, 0, 0); font-size: 3.064442px; font-weight: bold; font-family: Helvetica; }
text.gray {fill: rgb(204, 204, 204); font-size: 3.064442px; font-weight: bold; font-family: Helvetica; }
text.brown {fill: rgb(211.65, 104.55, 30.6); font-size: 3.064442px; font-weight: bold; font-family: Helvetica; }
text {fill: rgb(0, 0, 0); font-size: 3.064442px; font-weight: bold; font-family: Helvetica; text-anchor: middle; alignment-baseline: middle; }

.pseudoknot_connection{stroke-linecap: round; stroke-opacity: 0.2; stroke-width: 1.5; }
.pseudoknot_segment1{stroke-linecap: round; stroke-opacity: 0.4; stroke-width: 3.06444; }
.pseudoknot_segment2{stroke-linecap: round; stroke-opacity: 0.4; stroke-width: 3.06444; }
line.numbering-line{stroke: rgb(204, 204, 204); stroke-width: 0.191528; }
line.predicted{stroke: rgb(0, 0, 0); stroke-dasharray: 2; }
polyline{fill: none; stroke-linejoin: round; }
template{visibility: hidden; }
text.numbering-label{fill: rgb(204, 204, 204); }
]]>
</style></g>
<g><title>0 (position.label in template: 0.5')</title><text x="114.62" y="194.431" class="green" >5'</text></g>
<g><title>1 (position.label in template: 1.G)</title><text x="114.62" y="186.87" class="black" >G</text></g>
<g><line x1="116.663" y1="186.564" x2="125.027" y2="186.564" class="black" /></g>
<g><title>2 (position.label in template: 2.G)</title><text x="114.62" y="179.31" class="black" >G</text></g>
<g><line x1="116.663" y1="179.004" x2="125.027" y2="179.004" class="black" /></g>
<g><title>3 (position.label in template: 3.C)</title><text x="114.83" y="171.75" class="black" >C</text></g>
<g><line x1="116.873" y1="171.444" x2="124.817" y2="171.444" class="black" /></g>
<g><title>4 (position.label in template: 4.G)</title><text x="114.62" y="164.19" class="black" >G</text></g>
<g><line x1="116.663" y1="163.884" x2="125.027" y2="163.884" class="black" /></g>
<g><title>5 (position.label in template: 5.G)</title><text x="114.62" y="156.63" class="green" >G</text></g>
<g><line x1="116.663" y1="156.324" x2="125.027" y2="156.324" class="black" /></g>
<g><title>6 (position.label in template: 6.G)</title><text x="114.62" y="149.07" class="black" >G</text></g>
<g><line x1="116.663" y1="148.764" x2="125.027" y2="148.764" class="black" /></g>
<g><title>7 (position.label in template: 7.G)</title><text x="114.62" y="141.51" class="black" >G</text></g>
<g><line x1="116.663" y1="141.204" x2="125.027" y2="141.204" class="black" /></g>
<g><title>8 (position.label in template: 8.U)</title><text x="108.04" y="138.19" class="green" >T</text></g>
<g><title>9 (position.label in template: 9.C)</title><text x="102.78" y="132.76" class="black" >C</text></g>
<g><title>10 (position.label in template: 10.G)</title><text x="99.46" y="125.87" class="black" >G</text></g>
<g><line x1="99.56" y1="123.523" x2="99.96" y2="115.364" class="black" /></g>
<g><text x="95.6291" y="131.603" class="numbering-label sequential" >10</text></g>
<g><line x1="98.4384" y1="127.399" x2="96.653" y2="130.071" class="numbering-line sequential" /></g>
<g><title>11 (position.label in template: 11.C)</title><text x="92.11" y="125.63" class="black" >C</text></g>
<g><line x1="92.14" y1="123.281" x2="92.26" y2="115.126" class="black" /></g>
<g><title>12 (position.label in template: 12.A)</title><text x="84.76" y="125.39" class="green" >A</text></g>
<g><line x1="84.7917" y1="123.041" x2="84.9183" y2="114.886" class="black" /></g>
<g><title>13 (position.label in template: 13.U)</title><text x="77" y="125.15" class="green" >T</text></g>
<g><line x1="77.03" y1="122.801" x2="77.15" y2="114.646" class="black" /></g>
<g><title>14 (position.label in template: 14.A)</title><text x="72.07" y="130.69" class="black" >A</text></g>
<g><title>15 (position.label in template: 15.G)</title><text x="64.4" y="132.81" class="black" >G</text></g>
<g><title>16 (position.label in template: 16.U)</title><text x="57.29" y="130.91" class="green" >T</text></g>
<g><title>17 (position.label in template: 17.G)</title><text x="51.78" y="125.52" class="black" >G</text></g>
<g><title>18 (position.label in template: 18.G)</title><text x="50" y="118.17" class="black" >G</text></g>
<g><title>19 (position.label in template: 19.A)</title><text x="52.66" y="110.95" class="black" >A</text></g>
<g><title>20 (position.label in template: 20.C)</title><text x="58.09" y="105.91" class="black" >C</text></g>
<g><text x="54.9854" y="99.7535" class="numbering-label sequential" >20</text></g>
<g><line x1="57.2621" y1="104.268" x2="55.7581" y2="101.286" class="numbering-line sequential" /></g>
<g><title>21 (position.label in template: 21.U)</title><text x="65.51" y="104.47" class="green" >T</text></g>
<g><title>22 (position.label in template: 22.A)</title><text x="72.82" y="107.05" class="black" >A</text></g>
<g><title>23 (position.label in template: 23.G)</title><text x="77.18" y="112.91" class="green" >G</text></g>
<g><title>24 (position.label in template: 24.U)</title><text x="84.95" y="113.15" class="green" >T</text></g>
<g><title>25 (position.label in template: 25.G)</title><text x="92.29" y="113.39" class="black" >G</text></g>
<g><title>26 (position.label in template: 26.C)</title><text x="100.06" y="113.63" class="black" >C</text></g>
<g><title>27 (position.label in template: 27.A)</title><text x="103.8" y="106.95" class="black" >A</text></g>
<g><title>28 (position.label in template: 28.G)</title><text x="108.98" y="101.87" class="black" >G</text></g>
<g><line x1="110.945" y1="101.004" x2="118.985" y2="98.7133" class="black" /></g>
<g><title>29 (position.label in template: 29.A)</title><text x="107.29" y="94.61" class="green" >A</text></g>
<g><line x1="109.249" y1="93.7251" x2="116.881" y2="91.472" class="black" /></g>
<g><title>30 (position.label in template: 30.C)</title><text x="104.98" y="87.35" class="black" >C</text></g>
<g><line x1="106.939" y1="86.4631" x2="114.561" y2="84.2041" class="black" /></g>
<g><text x="98.4105" y="89.4434" class="numbering-label sequential" >30</text></g>
<g><line x1="103.228" y1="87.9082" x2="100.249" y2="88.8575" class="numbering-line sequential" /></g>
<g><title>31 (position.label in template: 31.G)</title><text x="102.66" y="80.08" class="black" >G</text></g>
<g><line x1="104.625" y1="79.2138" x2="112.665" y2="76.9233" class="black" /></g>
<g><title>32 (position.label in template: 32.C)</title><text x="100.77" y="72.82" class="black" >C</text></g>
<g><line x1="102.729" y1="71.9346" x2="110.351" y2="69.6825" class="black" /></g>
<g><title>33 (position.label in template: 33.C)</title><text x="94.46" y="68.65" class="black" >C</text></g>
<g><title>34 (position.label in template: 34.U)</title><text x="91.97" y="61.51" class="green" >T</text></g>
<g><title>35 (position.label in template: 35.U)</title><text x="94.31" y="54.32" class="green" >T</text></g>
<g><title>36 (position.label in template: 36.G)</title><text x="100.31" y="50" class="black" >G</text></g>
<g><title>37 (position.label in template: 37.A)</title><text x="108.28" y="50.33" class="black" >A</text></g>
<g><title>38 (position.label in template: 38.A)</title><text x="114.1" y="55.15" class="black" >A</text></g>
<g><title>39 (position.label in template: 39.A)</title><text x="115.81" y="62.51" class="black" >A</text></g>
<g><title>40 (position.label in template: 40.G)</title><text x="112.31" y="69.41" class="black" >G</text></g>
<g><title>41 (position.label in template: 41.C)</title><text x="114.63" y="76.67" class="black" >C</text></g>
<g><title>42 (position.label in template: 42.G)</title><text x="116.52" y="83.93" class="black" >G</text></g>
<g><title>43 (position.label in template: 43.U)</title><text x="118.84" y="91.2" class="green" >T</text></g>
<g><title>44 (position.label in template: 44.C)</title><text x="120.95" y="98.46" class="black" >C</text></g>
<g><title>45 (position.label in template: 45.C)</title><text x="128.39" y="99.76" class="black" >C</text></g>
<g><title>46 (position.label in template: 46.G)</title><text x="134.75" y="103.51" class="black" >G</text></g>
<g><line x1="135.922" y1="104.877" x2="140.668" y2="111.65" class="black" /></g>
<g><title>47 (position.label in template: 47.A)</title><text x="141.42" y="99.26" class="green" >A</text></g>
<g><line x1="142.543" y1="100.66" x2="146.967" y2="107.377" class="black" /></g>
<g><title>48 (position.label in template: 48.G)</title><text x="147.26" y="95.01" class="green" >G</text></g>
<g><line x1="148.43" y1="96.3781" x2="153.17" y2="103.159" class="black" /></g>
<g><title>49 (position.label in template: 49.C)</title><text x="153.72" y="90.77" class="black" >C</text></g>
<g><line x1="154.844" y1="92.1693" x2="159.266" y2="98.8778" class="black" /></g>
<g><title>50 (position.label in template: 50.G)</title><text x="159.77" y="86.52" class="black" >G</text></g>
<g><line x1="160.941" y1="87.8875" x2="165.679" y2="94.6596" class="black" /></g>
<g><text x="155.85" y="80.8477" class="numbering-label sequential" >50</text></g>
<g><line x1="158.725" y1="85.0074" x2="156.909" y2="82.3799" class="numbering-line sequential" /></g>
<g><title>51 (position.label in template: 51.G)</title><text x="166.02" y="82.27" class="black" >G</text></g>
<g><line x1="167.191" y1="83.6373" x2="171.939" y2="90.4198" class="black" /></g>
<g><title>52 (position.label in template: 52.G)</title><text x="170.79" y="76.41" class="black" >G</text></g>
<g><title>53 (position.label in template: 53.A)</title><text x="178.76" y="76.73" class="black" >A</text></g>
<g><title>54 (position.label in template: 54.G)</title><text x="182.59" y="82.99" class="black" >G</text></g>
<g><title>55 (position.label in template: 55.A)</title><text x="180.52" y="90.13" class="black" >A</text></g>
<g><title>56 (position.label in template: 56.C)</title><text x="173.11" y="92.4" class="black" >C</text></g>
<g><title>57 (position.label in template: 57.C)</title><text x="166.85" y="96.64" class="black" >C</text></g>
<g><title>58 (position.label in template: 58.G)</title><text x="160.39" y="100.89" class="black" >G</text></g>
<g><title>59 (position.label in template: 59.U)</title><text x="154.34" y="105.14" class="green" >T</text></g>
<g><title>60 (position.label in template: 60.U)</title><text x="148.09" y="109.39" class="green" >T</text></g>
<g><title>61 (position.label in template: 61.C)</title><text x="141.84" y="113.63" class="black" >C</text></g>
<g><title>62 (position.label in template: 62.C)</title><text x="142.9" y="121.12" class="black" >C</text></g>
<g><title>63 (position.label in template: 63.G)</title><text x="141.15" y="128.52" class="black" >G</text></g>
<g><line x1="139.92" y1="129.845" x2="135.09" y2="136.252" class="black" /></g>
<g><title>64 (position.label in template: 64.U)</title><text x="147.33" y="133.16" class="green" >T</text></g>
<g><line x1="146.098" y1="134.483" x2="141.262" y2="140.884" class="black" /></g>
<g><title>65 (position.label in template: 65.G)</title><text x="153.1" y="137.79" class="black" >G</text></g>
<g><line x1="151.869" y1="139.114" x2="147.031" y2="145.523" class="black" /></g>
<g><title>66 (position.label in template: 66.G)</title><text x="159.07" y="142.43" class="black" >G</text></g>
<g><line x1="157.839" y1="143.754" x2="153.001" y2="150.163" class="black" /></g>
<g><title>67 (position.label in template: 67.G)</title><text x="165.04" y="147.06" class="black" >G</text></g>
<g><line x1="163.809" y1="148.384" x2="158.971" y2="154.793" class="black" /></g>
<g><title>68 (position.label in template: 68.U)</title><text x="172.8" y="146.74" class="green" >T</text></g>
<g><title>69 (position.label in template: 69.U)</title><text x="179.01" y="151.05" class="green" >T</text></g>
<g><title>70 (position.label in template: 70.C)</title><text x="181.35" y="158.24" class="black" >C</text></g>
<g><title>71 (position.label in template: 71.G)</title><text x="178.65" y="165.38" class="black" >G</text></g>
<g><title>72 (position.label in template: 72.A)</title><text x="172.77" y="169.56" class="black" >A</text></g>
<g><title>73 (position.label in template: 73.A)</title><text x="165.23" y="169.08" class="black" >A</text></g>
<g><title>74 (position.label in template: 74.U)</title><text x="159.3" y="164.13" class="green" >T</text></g>
<g><title>75 (position.label in template: 75.C)</title><text x="157.74" y="156.73" class="black" >C</text></g>
<g><title>76 (position.label in template: 76.C)</title><text x="151.77" y="152.1" class="black" >C</text></g>
<g><title>77 (position.label in template: 77.C)</title><text x="145.8" y="147.46" class="black" >C</text></g>
<g><title>78 (position.label in template: 78.A)</title><text x="140.03" y="142.82" class="green" >A</text></g>
<g><title>79 (position.label in template: 79.C)</title><text x="133.86" y="138.19" class="black" >C</text></g>
<g><title>80 (position.label in template: 80.C)</title><text x="127.07" y="141.51" class="black" >C</text></g>
<g><title>81 (position.label in template: 81.C)</title><text x="127.07" y="149.07" class="black" >C</text></g>
<g><title>82 (position.label in template: 82.U)</title><text x="127.07" y="156.63" class="green" >T</text></g>
<g><title>83 (position.label in template: 83.C)</title><text x="127.07" y="164.19" class="black" >C</text></g>
<g><title>84 (position.label in template: 84.G)</title><text x="126.86" y="171.75" class="black" >G</text></g>
<g><title>85 (position.label in template: 85.C)</title><text x="127.07" y="179.31" class="black" >C</text></g>
<g><title>86 (position.label in template: 86.C)</title><text x="127.07" y="186.87" class="black" >C</text></g>
<g><title>87 (position.label in template: 87.G)</title><text x="132.303" y="192.327" class="black" >G</text></g>
<g><title>88 (position.label in template: 88.3')</title><text x="127.074" y="197.788" class="green" >3'</text></g>
<g><line x1="114.62" y1="192.081" x2="114.62" y2="188.607" class="gray" /></g>
<g><line x1="114.62" y1="184.521" x2="114.62" y2="181.047" class="gray" /></g>
<g><line x1="114.677" y1="176.961" x2="114.773" y2="173.486" class="gray" /></g>
<g><line x1="114.773" y1="169.401" x2="114.677" y2="165.926" class="gray" /></g>
<g><line x1="114.62" y1="161.841" x2="114.62" y2="158.367" class="gray" /></g>
<g><line x1="114.62" y1="154.281" x2="114.62" y2="150.807" class="gray" /></g>
<g><line x1="114.62" y1="146.721" x2="114.62" y2="143.247" class="gray" /></g>
<g><line x1="112.796" y1="140.283" x2="109.864" y2="138.804" class="gray" /></g>
<g><line x1="106.619" y1="136.416" x2="104.201" y2="133.921" class="gray" /></g>
<g><line x1="101.893" y1="130.613" x2="100.347" y2="127.404" class="gray" /></g>
<g><line x1="97.4181" y1="125.497" x2="94.1519" y2="125.39" class="gray" /></g>
<g><line x1="90.0681" y1="125.257" x2="86.8019" y2="125.15" class="gray" /></g>
<g><line x1="82.718" y1="125.02" x2="79.042" y2="124.907" class="gray" /></g>
<g><line x1="75.6419" y1="126.37" x2="73.4281" y2="128.857" class="gray" /></g>
<g><line x1="70.1009" y1="130.928" x2="66.3691" y2="131.959" class="gray" /></g>
<g><line x1="62.4263" y1="131.976" x2="59.2637" y2="131.131" class="gray" /></g>
<g><line x1="55.8296" y1="129.175" x2="53.2404" y2="126.642" class="gray" /></g>
<g><line x1="51.2991" y1="123.228" x2="50.4809" y2="119.849" class="gray" /></g>
<g><line x1="50.7063" y1="115.947" x2="51.9537" y2="112.561" class="gray" /></g>
<g><line x1="54.1574" y1="109.254" x2="56.5926" y2="106.993" class="gray" /></g>
<g><line x1="60.0955" y1="105.214" x2="63.5045" y2="104.553" class="gray" /></g>
<g><line x1="67.4365" y1="104.843" x2="70.8935" y2="106.064" class="gray" /></g>
<g><line x1="74.0395" y1="108.383" x2="75.9605" y2="110.964" class="gray" /></g>
<g><line x1="79.222" y1="112.667" x2="82.908" y2="112.78" class="gray" /></g>
<g><line x1="86.9919" y1="112.91" x2="90.2481" y2="113.017" class="gray" /></g>
<g><line x1="94.332" y1="113.147" x2="98.018" y2="113.26" class="gray" /></g>
<g><line x1="101.058" y1="111.541" x2="102.802" y2="108.426" class="gray" /></g>
<g><line x1="105.259" y1="105.213" x2="107.521" y2="102.994" class="gray" /></g>
<g><line x1="108.517" y1="99.5738" x2="107.753" y2="96.2933" class="gray" /></g>
<g><line x1="106.671" y1="92.3568" x2="105.599" y2="88.9903" class="gray" /></g>
<g><line x1="104.359" y1="85.0973" x2="103.281" y2="81.7198" class="gray" /></g>
<g><line x1="102.145" y1="77.7965" x2="101.285" y2="74.4906" class="gray" /></g>
<g><line x1="99.0656" y1="71.3872" x2="96.1644" y2="69.4699" class="gray" /></g>
<g><line x1="93.7873" y1="66.4145" x2="92.6427" y2="63.1326" class="gray" /></g>
<g><line x1="92.6022" y1="59.2609" x2="93.6778" y2="55.9562" class="gray" /></g>
<g><line x1="95.9679" y1="52.8198" x2="98.6521" y2="50.8873" class="gray" /></g>
<g><line x1="102.351" y1="49.7781" x2="106.239" y2="49.939" class="gray" /></g>
<g><line x1="109.853" y1="51.3266" x2="112.527" y2="53.5405" class="gray" /></g>
<g><line x1="114.562" y1="56.8335" x2="115.348" y2="60.2136" class="gray" /></g>
<g><line x1="114.886" y1="64.0255" x2="113.234" y2="67.2816" class="gray" /></g>
<g><line x1="112.932" y1="71.0496" x2="114.008" y2="74.4175" class="gray" /></g>
<g><line x1="115.145" y1="78.3406" x2="116.005" y2="81.6465" class="gray" /></g>
<g><line x1="117.141" y1="85.5698" x2="118.219" y2="88.9473" class="gray" /></g>
<g><line x1="119.41" y1="92.8553" x2="120.38" y2="96.1918" class="gray" /></g>
<g><line x1="122.962" y1="98.5052" x2="126.378" y2="99.1019" class="gray" /></g>
<g><line x1="130.15" y1="100.491" x2="132.99" y2="102.166" class="gray" /></g>
<g><line x1="136.473" y1="102.106" x2="139.697" y2="100.051" class="gray" /></g>
<g><line x1="143.072" y1="97.7514" x2="145.608" y2="95.9057" class="gray" /></g>
<g><line x1="148.968" y1="93.5826" x2="152.012" y2="91.5846" class="gray" /></g>
<g><line x1="155.392" y1="89.2892" x2="158.098" y2="87.3879" class="gray" /></g>
<g><line x1="161.459" y1="85.0648" x2="164.331" y2="83.1123" class="gray" /></g>
<g><line x1="167.31" y1="80.3791" x2="169.5" y2="77.688" class="gray" /></g>
<g><line x1="172.831" y1="76.1855" x2="176.719" y2="76.3416" class="gray" /></g>
<g><line x1="179.826" y1="78.1662" x2="181.524" y2="80.9409" class="gray" /></g>
<g><line x1="182.021" y1="84.6457" x2="181.089" y2="87.8614" class="gray" /></g>
<g><line x1="178.567" y1="90.422" x2="175.063" y2="91.4952" class="gray" /></g>
<g><line x1="171.419" y1="93.2392" x2="168.541" y2="95.1879" class="gray" /></g>
<g><line x1="165.143" y1="97.4564" x2="162.097" y2="99.4607" class="gray" /></g>
<g><line x1="158.718" y1="101.758" x2="156.012" y2="103.659" class="gray" /></g>
<g><line x1="152.651" y1="105.982" x2="149.779" y2="107.935" class="gray" /></g>
<g><line x1="146.399" y1="110.23" x2="143.531" y2="112.177" class="gray" /></g>
<g><line x1="142.126" y1="115.346" x2="142.614" y2="118.791" class="gray" /></g>
<g><line x1="142.43" y1="122.802" x2="141.62" y2="126.225" class="gray" /></g>
<g><line x1="142.784" y1="129.44" x2="145.696" y2="131.627" class="gray" /></g>
<g><line x1="148.923" y1="134.132" x2="151.507" y2="136.205" class="gray" /></g>
<g><line x1="154.713" y1="138.737" x2="157.457" y2="140.87" class="gray" /></g>
<g><line x1="160.684" y1="143.376" x2="163.426" y2="145.502" class="gray" /></g>
<g><line x1="167.081" y1="146.669" x2="170.759" y2="146.518" class="gray" /></g>
<g><line x1="174.478" y1="147.598" x2="177.332" y2="149.579" class="gray" /></g>
<g><line x1="179.642" y1="152.686" x2="180.718" y2="155.991" class="gray" /></g>
<g><line x1="180.627" y1="159.844" x2="179.373" y2="163.163" class="gray" /></g>
<g><line x1="176.985" y1="166.257" x2="174.435" y2="168.07" class="gray" /></g>
<g><line x1="170.731" y1="169.124" x2="167.269" y2="168.903" class="gray" /></g>
<g><line x1="163.662" y1="167.464" x2="160.868" y2="165.133" class="gray" /></g>
<g><line x1="158.879" y1="161.825" x2="158.161" y2="158.423" class="gray" /></g>
<g><line x1="156.126" y1="155.172" x2="153.384" y2="153.046" class="gray" /></g>
<g><line x1="150.157" y1="150.54" x2="147.413" y2="148.407" class="gray" /></g>
<g><line x1="144.208" y1="145.873" x2="141.622" y2="143.794" class="gray" /></g>
<g><line x1="138.396" y1="141.287" x2="135.494" y2="139.11" class="gray" /></g>
<g><line x1="132.025" y1="138.781" x2="128.905" y2="140.306" class="gray" /></g>
<g><line x1="127.07" y1="143.247" x2="127.07" y2="146.721" class="gray" /></g>
<g><line x1="127.07" y1="150.807" x2="127.07" y2="154.281" class="gray" /></g>
<g><line x1="127.07" y1="158.367" x2="127.07" y2="161.841" class="gray" /></g>
<g><line x1="127.013" y1="165.926" x2="126.917" y2="169.401" class="gray" /></g>
<g><line x1="126.917" y1="173.486" x2="127.013" y2="176.961" class="gray" /></g>
<g><line x1="127.07" y1="181.047" x2="127.07" y2="184.521" class="gray" /></g>
<g><line x1="128.484" y1="188.038" x2="130.889" y2="190.546" class="gray" /></g>
<g><line x1="130.89" y1="193.496" x2="128.487" y2="196.006" class="gray" /></g>
</svg>
