<svg
	xmlns="http://www.w3.org/2000/svg"
	width="226.49"
	height="239.382">
<g><style type="text/css" >
<!-- create color definitions -->
<![CDATA[
circle.red {stroke: rgb(255, 0, 255); fill: none; }
circle.green {stroke: rgb(0, 255, 0); fill: none; }
circle.blue {stroke: rgb(0, 0, 255); fill: none; }
circle.black {stroke: rgb(0, 0, 0); fill: none; }
circle.gray {stroke: rgb(204, 204, 204); fill: none; }
circle.brown {stroke: rgb(211.65, 104.55, 30.6); fill: none; }
line.red {stroke: rgb(255, 0, 255); stroke-width: 0.382597; }
line.green {stroke: rgb(0, 255, 0); stroke-width: 0.382597; }
line.blue {stroke: rgb(0, 0, 255); stroke-width: 0.382597; }
line.black {stroke: rgb(0, 0, 0); stroke-width: 0.382597; }
line.gray {stroke: rgb(204, 204, 204); stroke-width: 0.382597; }
line.brown {stroke: rgb(211.65, 104.55, 30.6); stroke-width: 0.382597; }
line {stroke: rgb(0, 0, 0); }
text.red {fill: rgb(255, 0, 255); font-size: 3.060778px; font-weight: bold; font-family: Helvetica; }
text.green {fill: rgb(0, 255, 0); font-size: 3.060778px; font-weight: bold; font-family: Helvetica; }
text.blue {fill: rgb(0, 0, 255); font-size: 3.060778px; font-weight: bold; font-family: Helvetica; }
text.black {fill: rgb(0, 0, 0); font-size: 3.060778px; font-weight: bold; font-family: Helvetica; }
text.gray {fill: rgb(204, 204, 204); font-size: 3.060778px; font-weight: bold; font-family: Helvetica; }
text.brown {fill: rgb(211.65, 104.55, 30.6); font-size: 3.060778px; font-weight: bold; font-family: Helvetica; }
text {fill: rgb(0, 0, 0); font-size: 3.060778px; font-weight: bold; font-family: Helvetica; text-anchor: middle; alignment-baseline: middle; }

.pseudoknot_connection{stroke-linecap: round; stroke-opacity: 0.2; stroke-width: 1.5; }
.pseudoknot_segment1{stroke-linecap: round; stroke-opacity: 0.4; stroke-width: 3.06078; }
.pseudoknot_segment2{stroke-linecap: round; stroke-opacity: 0.4; stroke-width: 3.06078; }
line.numbering-line{stroke: rgb(204, 204, 204); stroke-width: 0.191299; }
line.predicted{stroke: rgb(0, 0, 0); stroke-dasharray: 2; }
polyline{fill: none; stroke-linejoin: round; }
template{visibility: hidden; }
text.numbering-label{fill: rgb(204, 204, 204); }
]]>
</style></g>
<g><title>0 (position.label in template: 0.5')</title><text x="112.831" y="190.976" class="green" >5'</text></g>
<g><title>1 (position.label in template: 1.G)</title><text x="110.09" y="183.93" class="black" >G</text></g>
<g><line x1="112.131" y1="183.624" x2="120.499" y2="183.624" class="black" /></g>
<g><title>2 (position.label in template: 2.A)</title><text x="107.41" y="177.04" class="black" >A</text></g>
<g><title>3 (position.label in template: 3.G)</title><text x="110.09" y="170.14" class="green" >G</text></g>
<g><line x1="112.131" y1="169.834" x2="120.499" y2="169.834" class="black" /></g>
<g><title>4 (position.label in template: 4.G)</title><text x="110.09" y="162.58" class="black" >G</text></g>
<g><line x1="112.131" y1="162.274" x2="120.499" y2="162.274" class="black" /></g>
<g><title>5 (position.label in template: 5.G)</title><text x="110.09" y="155.02" class="black" >G</text></g>
<g><line x1="112.131" y1="154.714" x2="120.499" y2="154.714" class="black" /></g>
<g><title>6 (position.label in template: 6.U)</title><text x="107.2" y="148.13" class="green" >T</text></g>
<g><title>7 (position.label in template: 7.A)</title><text x="110.51" y="141.23" class="green" >A</text></g>
<g><line x1="112.551" y1="140.924" x2="120.499" y2="140.924" class="black" /></g>
<g><title>8 (position.label in template: 8.G)</title><text x="103.27" y="137.97" class="black" >G</text></g>
<g><title>9 (position.label in template: 9.A)</title><text x="98.34" y="132.62" class="black" >A</text></g>
<g><title>10 (position.label in template: 10.G)</title><text x="94.66" y="125.8" class="green" >G</text></g>
<g><line x1="94.695" y1="123.454" x2="94.835" y2="115.294" class="black" /></g>
<g><text x="91.0382" y="131.657" class="numbering-label sequential" >10</text></g>
<g><line x1="93.6942" y1="127.362" x2="91.9845" y2="130.127" class="numbering-line sequential" /></g>
<g><title>11 (position.label in template: 11.C)</title><text x="87.31" y="125.8" class="black" >C</text></g>
<g><line x1="87.275" y1="123.454" x2="87.135" y2="115.294" class="black" /></g>
<g><title>12 (position.label in template: 12.U)</title><text x="79.75" y="125.8" class="green" >T</text></g>
<g><line x1="79.785" y1="123.454" x2="79.925" y2="115.294" class="black" /></g>
<g><title>13 (position.label in template: 13.C)</title><text x="72.19" y="125.8" class="black" >C</text></g>
<g><line x1="72.155" y1="123.454" x2="72.015" y2="115.294" class="black" /></g>
<g><title>14 (position.label in template: 14.A)</title><text x="66.63" y="130.69" class="black" >A</text></g>
<g><title>15 (position.label in template: 15.G)</title><text x="58.67" y="131.1" class="black" >G</text></g>
<g><title>16 (position.label in template: 16.U)</title><text x="52.62" y="126.85" class="green" >T</text></g>
<g><title>17 (position.label in template: 17.G)</title><text x="50" y="119.68" class="black" >G</text></g>
<g><title>18 (position.label in template: 18.G)</title><text x="52.41" y="112.52" class="black" >G</text></g>
<g><title>19 (position.label in template: 19.U)</title><text x="58.88" y="108.27" class="green" >T</text></g>
<g><title>20 (position.label in template: 20.A)</title><text x="66.63" y="108.68" class="black" >A</text></g>
<g><text x="69.2087" y="102.294" class="numbering-label sequential" >20</text></g>
<g><line x1="67.3176" y1="106.977" x2="68.5907" y2="103.825" class="numbering-line sequential" /></g>
<g><title>21 (position.label in template: 21.G)</title><text x="71.98" y="113.56" class="black" >G</text></g>
<g><title>22 (position.label in template: 22.A)</title><text x="79.96" y="113.56" class="green" >A</text></g>
<g><title>23 (position.label in template: 23.G)</title><text x="87.1" y="113.56" class="black" >G</text></g>
<g><title>24 (position.label in template: 24.U)</title><text x="94.87" y="113.56" class="green" >T</text></g>
<g><title>25 (position.label in template: 25.G)</title><text x="97.93" y="106.75" class="black" >G</text></g>
<g><title>26 (position.label in template: 26.C)</title><text x="103.48" y="101.4" class="black" >C</text></g>
<g><line x1="105.401" y1="100.405" x2="112.899" y2="97.7132" class="black" /></g>
<g><title>27 (position.label in template: 27.A)</title><text x="101.17" y="94.27" class="green" >A</text></g>
<g><line x1="103.091" y1="93.2746" x2="110.589" y2="90.5832" class="black" /></g>
<g><title>28 (position.label in template: 28.U)</title><text x="98.45" y="87.14" class="green" >T</text></g>
<g><line x1="100.378" y1="86.1661" x2="108.272" y2="83.4318" class="black" /></g>
<g><title>29 (position.label in template: 29.G)</title><text x="95.73" y="80.01" class="black" >G</text></g>
<g><line x1="97.6581" y1="79.0361" x2="105.552" y2="76.3018" class="black" /></g>
<g><title>30 (position.label in template: 30.C)</title><text x="93.42" y="72.88" class="black" >C</text></g>
<g><line x1="95.3406" y1="71.8846" x2="102.839" y2="69.1932" class="black" /></g>
<g><text x="88.061" y="77.2054" class="numbering-label sequential" >30</text></g>
<g><line x1="91.9909" y1="74.0334" x2="89.9571" y2="75.675" class="numbering-line sequential" /></g>
<g><title>31 (position.label in template: 31.C)</title><text x="86.9" y="69.07" class="black" >C</text></g>
<g><title>32 (position.label in template: 32.C)</title><text x="84.01" y="62.08" class="black" >C</text></g>
<g><title>33 (position.label in template: 33.A)</title><text x="86.13" y="54.77" class="black" >A</text></g>
<g><title>34 (position.label in template: 34.G)</title><text x="91.67" y="50.11" class="black" >G</text></g>
<g><title>35 (position.label in template: 35.C)</title><text x="99.44" y="50" class="black" >C</text></g>
<g><title>36 (position.label in template: 36.A)</title><text x="105.73" y="54.49" class="black" >A</text></g>
<g><title>37 (position.label in template: 37.U)</title><text x="107.66" y="61.75" class="green" >T</text></g>
<g><title>38 (position.label in template: 38.G)</title><text x="104.76" y="68.81" class="black" >G</text></g>
<g><title>39 (position.label in template: 39.C)</title><text x="107.48" y="75.94" class="black" >C</text></g>
<g><title>40 (position.label in template: 40.A)</title><text x="110.2" y="83.07" class="green" >A</text></g>
<g><title>41 (position.label in template: 41.U)</title><text x="112.51" y="90.2" class="green" >T</text></g>
<g><title>42 (position.label in template: 42.G)</title><text x="114.82" y="97.33" class="black" >G</text></g>
<g><title>43 (position.label in template: 43.A)</title><text x="122.75" y="98.14" class="black" >A</text></g>
<g><title>44 (position.label in template: 44.G)</title><text x="129.15" y="101.4" class="black" >G</text></g>
<g><title>45 (position.label in template: 45.G)</title><text x="134.5" y="106.75" class="black" >G</text></g>
<g><title>46 (position.label in template: 46.U)</title><text x="137.97" y="113.56" class="green" >T</text></g>
<g><title>47 (position.label in template: 47.C)</title><text x="138.78" y="121.08" class="black" >C</text></g>
<g><title>48 (position.label in template: 48.C)</title><text x="137.04" y="128.44" class="black" >C</text></g>
<g><line x1="135.739" y1="129.706" x2="130.451" y2="136.092" class="black" /></g>
<g><title>49 (position.label in template: 49.U)</title><text x="142.93" y="133.18" class="green" >T</text></g>
<g><line x1="141.671" y1="134.48" x2="136.719" y2="140.798" class="black" /></g>
<g><title>50 (position.label in template: 50.G)</title><text x="148.61" y="137.93" class="black" >G</text></g>
<g><line x1="147.351" y1="139.23" x2="142.399" y2="145.548" class="black" /></g>
<g><text x="152.98" y="132.607" class="numbering-label sequential" >50</text></g>
<g><line x1="149.775" y1="136.511" x2="151.723" y2="134.138" class="numbering-line sequential" /></g>
<g><title>51 (position.label in template: 51.G)</title><text x="154.49" y="142.67" class="black" >G</text></g>
<g><line x1="153.231" y1="143.97" x2="148.279" y2="150.288" class="black" /></g>
<g><title>52 (position.label in template: 52.G)</title><text x="160.38" y="147.41" class="black" >G</text></g>
<g><line x1="159.121" y1="148.71" x2="154.169" y2="155.028" class="black" /></g>
<g><title>53 (position.label in template: 53.U)</title><text x="168.15" y="147.22" class="green" >T</text></g>
<g><title>54 (position.label in template: 54.U)</title><text x="174.28" y="151.65" class="green" >T</text></g>
<g><title>55 (position.label in template: 55.C)</title><text x="176.49" y="158.88" class="black" >C</text></g>
<g><title>56 (position.label in template: 56.C)</title><text x="173.87" y="165.97" class="black" >C</text></g>
<g><title>57 (position.label in template: 57.A)</title><text x="167.7" y="170.04" class="black" >A</text></g>
<g><title>58 (position.label in template: 58.U)</title><text x="159.96" y="169.42" class="green" >T</text></g>
<g><title>59 (position.label in template: 59.C)</title><text x="154.33" y="164.37" class="black" >C</text></g>
<g><title>60 (position.label in template: 60.C)</title><text x="152.91" y="156.94" class="black" >C</text></g>
<g><title>61 (position.label in template: 61.C)</title><text x="147.02" y="152.2" class="black" >C</text></g>
<g><title>62 (position.label in template: 62.C)</title><text x="141.14" y="147.46" class="black" >C</text></g>
<g><title>63 (position.label in template: 63.A)</title><text x="135.46" y="142.71" class="green" >A</text></g>
<g><title>64 (position.label in template: 64.G)</title><text x="129.15" y="137.97" class="black" >G</text></g>
<g><title>65 (position.label in template: 65.U)</title><text x="122.54" y="141.23" class="green" >T</text></g>
<g><title>66 (position.label in template: 66.C)</title><text x="125.64" y="148.13" class="black" >C</text></g>
<g><title>67 (position.label in template: 67.C)</title><text x="122.54" y="155.02" class="black" >C</text></g>
<g><title>68 (position.label in template: 68.C)</title><text x="122.54" y="162.58" class="black" >C</text></g>
<g><title>69 (position.label in template: 69.U)</title><text x="122.54" y="170.14" class="green" >T</text></g>
<g><title>70 (position.label in template: 70.C)</title><text x="125.64" y="177.04" class="black" >C</text></g>
<g><title>71 (position.label in template: 71.C)</title><text x="122.54" y="183.93" class="black" >C</text></g>
<g><title>72 (position.label in template: 72.G)</title><text x="127.778" y="189.382" class="black" >G</text></g>
<g><title>73 (position.label in template: 73.3')</title><text x="129.069" y="196.832" class="green" >3'</text></g>
<g><line x1="112.091" y1="188.769" x2="110.83" y2="185.526" class="gray" /></g>
<g><line x1="109.35" y1="181.722" x2="108.15" y2="178.636" class="gray" /></g>
<g><line x1="108.149" y1="174.832" x2="109.351" y2="171.736" class="gray" /></g>
<g><line x1="110.09" y1="167.793" x2="110.09" y2="164.314" class="gray" /></g>
<g><line x1="110.09" y1="160.233" x2="110.09" y2="156.754" class="gray" /></g>
<g><line x1="109.301" y1="152.832" x2="107.989" y2="149.706" class="gray" /></g>
<g><line x1="108.083" y1="145.984" x2="109.627" y2="142.764" class="gray" /></g>
<g><line x1="108.649" y1="140.086" x2="105.131" y2="138.502" class="gray" /></g>
<g><line x1="101.887" y1="136.163" x2="99.7228" y2="133.814" class="gray" /></g>
<g><line x1="97.371" y1="130.518" x2="95.629" y2="127.29" class="gray" /></g>
<g><line x1="92.6195" y1="125.494" x2="89.3505" y2="125.494" class="gray" /></g>
<g><line x1="85.2695" y1="125.494" x2="81.7905" y2="125.494" class="gray" /></g>
<g><line x1="77.7095" y1="125.494" x2="74.2305" y2="125.494" class="gray" /></g>
<g><line x1="70.6578" y1="126.842" x2="68.1622" y2="129.036" class="gray" /></g>
<g><line x1="64.5922" y1="130.489" x2="60.7078" y2="130.689" class="gray" /></g>
<g><line x1="57.0003" y1="129.621" x2="54.2897" y2="127.717" class="gray" /></g>
<g><line x1="51.9197" y1="124.627" x2="50.7003" y2="121.29" class="gray" /></g>
<g><line x1="50.6509" y1="117.44" x2="51.7591" y2="114.148" class="gray" /></g>
<g><line x1="54.1155" y1="111.094" x2="57.1745" y2="109.084" class="gray" /></g>
<g><line x1="60.9177" y1="108.072" x2="64.5923" y2="108.266" class="gray" /></g>
<g><line x1="68.1376" y1="109.749" x2="70.4724" y2="111.879" class="gray" /></g>
<g><line x1="74.0205" y1="113.254" x2="77.9195" y2="113.254" class="gray" /></g>
<g><line x1="82.0005" y1="113.254" x2="85.0595" y2="113.254" class="gray" /></g>
<g><line x1="89.1405" y1="113.254" x2="92.8295" y2="113.254" class="gray" /></g>
<g><line x1="95.7063" y1="111.393" x2="97.0937" y2="108.305" class="gray" /></g>
<g><line x1="99.3991" y1="105.028" x2="102.011" y2="102.51" class="gray" /></g>
<g><line x1="102.851" y1="99.1527" x2="101.799" y2="95.9051" class="gray" /></g>
<g><line x1="100.443" y1="92.0574" x2="99.1773" y2="88.7404" class="gray" /></g>
<g><line x1="97.7227" y1="84.9274" x2="96.4573" y2="81.6104" class="gray" /></g>
<g><line x1="95.1011" y1="77.7627" x2="94.0489" y2="74.5151" class="gray" /></g>
<g><line x1="91.6582" y1="71.5444" x2="88.6618" y2="69.7934" class="gray" /></g>
<g><line x1="86.1204" y1="66.8782" x2="84.7896" y2="63.6596" class="gray" /></g>
<g><line x1="84.5784" y1="59.8142" x2="85.5616" y2="56.4237" class="gray" /></g>
<g><line x1="87.6915" y1="53.1504" x2="90.1085" y2="51.1174" class="gray" /></g>
<g><line x1="93.7103" y1="49.775" x2="97.3997" y2="49.7228" class="gray" /></g>
<g><line x1="101.101" y1="50.8794" x2="104.069" y2="52.9984" class="gray" /></g>
<g><line x1="106.254" y1="56.1559" x2="107.136" y2="59.4719" class="gray" /></g>
<g><line x1="106.885" y1="63.3314" x2="105.535" y2="66.6164" class="gray" /></g>
<g><line x1="105.487" y1="70.4104" x2="106.753" y2="73.7274" class="gray" /></g>
<g><line x1="108.207" y1="77.5404" x2="109.473" y2="80.8574" class="gray" /></g>
<g><line x1="110.829" y1="84.7051" x2="111.881" y2="87.9527" class="gray" /></g>
<g><line x1="113.139" y1="91.8351" x2="114.191" y2="95.0827" class="gray" /></g>
<g><line x1="116.85" y1="97.2313" x2="120.72" y2="97.6266" class="gray" /></g>
<g><line x1="124.568" y1="98.7601" x2="127.332" y2="100.168" class="gray" /></g>
<g><line x1="130.593" y1="102.537" x2="133.057" y2="105.001" class="gray" /></g>
<g><line x1="135.426" y1="108.262" x2="137.044" y2="111.436" class="gray" /></g>
<g><line x1="138.189" y1="115.283" x2="138.561" y2="118.745" class="gray" /></g>
<g><line x1="138.311" y1="122.76" x2="137.509" y2="126.148" class="gray" /></g>
<g><line x1="138.63" y1="129.413" x2="141.34" y2="131.595" class="gray" /></g>
<g><line x1="144.495" y1="134.183" x2="147.045" y2="136.315" class="gray" /></g>
<g><line x1="150.199" y1="138.905" x2="152.901" y2="141.083" class="gray" /></g>
<g><line x1="156.08" y1="143.643" x2="158.79" y2="145.825" class="gray" /></g>
<g><line x1="162.42" y1="147.054" x2="166.11" y2="146.964" class="gray" /></g>
<g><line x1="169.804" y1="148.109" x2="172.626" y2="150.149" class="gray" /></g>
<g><line x1="174.876" y1="153.295" x2="175.894" y2="156.623" class="gray" /></g>
<g><line x1="175.783" y1="160.488" x2="174.577" y2="163.75" class="gray" /></g>
<g><line x1="172.167" y1="166.788" x2="169.403" y2="168.61" class="gray" /></g>
<g><line x1="165.666" y1="169.571" x2="161.994" y2="169.277" class="gray" /></g>
<g><line x1="158.441" y1="167.751" x2="155.849" y2="165.426" class="gray" /></g>
<g><line x1="153.947" y1="162.06" x2="153.293" y2="158.638" class="gray" /></g>
<g><line x1="151.32" y1="155.355" x2="148.61" y2="153.173" class="gray" /></g>
<g><line x1="145.431" y1="150.613" x2="142.729" y2="148.435" class="gray" /></g>
<g><line x1="139.575" y1="145.845" x2="137.025" y2="143.713" class="gray" /></g>
<g><line x1="133.829" y1="141.178" x2="130.781" y2="138.889" class="gray" /></g>
<g><line x1="127.32" y1="138.566" x2="124.37" y2="140.021" class="gray" /></g>
<g><line x1="123.376" y1="142.785" x2="124.804" y2="145.963" class="gray" /></g>
<g><line x1="124.803" y1="149.685" x2="123.377" y2="152.853" class="gray" /></g>
<g><line x1="122.54" y1="156.754" x2="122.54" y2="160.233" class="gray" /></g>
<g><line x1="122.54" y1="164.314" x2="122.54" y2="167.793" class="gray" /></g>
<g><line x1="123.376" y1="171.695" x2="124.804" y2="174.873" class="gray" /></g>
<g><line x1="124.803" y1="178.595" x2="123.377" y2="181.763" class="gray" /></g>
<g><line x1="123.954" y1="185.095" x2="126.364" y2="187.605" class="gray" /></g>
<g><line x1="128.126" y1="191.087" x2="128.72" y2="194.515" class="gray" /></g>
</svg>
