<svg
	xmlns="http://www.w3.org/2000/svg"
	width="269.96"
	height="292.38">
<g><style type="text/css" >
<!-- create color definitions -->
<![CDATA[
circle.red {stroke: rgb(255, 0, 255); fill: none; }
circle.green {stroke: rgb(0, 255, 0); fill: none; }
circle.blue {stroke: rgb(0, 0, 255); fill: none; }
circle.black {stroke: rgb(0, 0, 0); fill: none; }
circle.gray {stroke: rgb(204, 204, 204); fill: none; }
circle.brown {stroke: rgb(211.65, 104.55, 30.6); fill: none; }
line.red {stroke: rgb(255, 0, 255); stroke-width: 0.384141; }
line.green {stroke: rgb(0, 255, 0); stroke-width: 0.384141; }
line.blue {stroke: rgb(0, 0, 255); stroke-width: 0.384141; }
line.black {stroke: rgb(0, 0, 0); stroke-width: 0.384141; }
line.gray {stroke: rgb(204, 204, 204); stroke-width: 0.384141; }
line.brown {stroke: rgb(211.65, 104.55, 30.6); stroke-width: 0.384141; }
line {stroke: rgb(0, 0, 0); }
text.red {fill: rgb(255, 0, 255); font-size: 3.073125px; font-weight: bold; font-family: Helvetica; }
text.green {fill: rgb(0, 255, 0); font-size: 3.073125px; font-weight: bold; font-family: Helvetica; }
text.blue {fill: rgb(0, 0, 255); font-size: 3.073125px; font-weight: bold; font-family: Helvetica; }
text.black {fill: rgb(0, 0, 0); font-size: 3.073125px; font-weight: bold; font-family: Helvetica; }
text.gray {fill: rgb(204, 204, 204); font-size: 3.073125px; font-weight: bold; font-family: Helvetica; }
text.brown {fill: rgb(211.65, 104.55, 30.6); font-size: 3.073125px; font-weight: bold; font-family: Helvetica; }
text {fill: rgb(0, 0, 0); font-size: 3.073125px; font-weight: bold; font-family: Helvetica; text-anchor: middle; alignment-baseline: middle; }

.pseudoknot_connection{stroke-linecap: round; stroke-opacity: 0.2; stroke-width: 1.5; }
.pseudoknot_segment1{stroke-linecap: round; stroke-opacity: 0.4; stroke-width: 3.07313; }
.pseudoknot_segment2{stroke-linecap: round; stroke-opacity: 0.4; stroke-width: 3.07313; }
line.numbering-line{stroke: rgb(204, 204, 204); stroke-width: 0.19207; }
line.predicted{stroke: rgb(0, 0, 0); stroke-dasharray: 2; }
polyline{fill: none; stroke-linejoin: round; }
template{visibility: hidden; }
text.numbering-label{fill: rgb(204, 204, 204); }
]]>
</style></g>
<g><title>0 (position.label in template: 0.5')</title><text x="121.87" y="242.38" class="green" >5'</text></g>
<g><title>1 (position.label in template: 1.U)</title><text x="128.87" y="242.38" class="green" >T</text></g>
<g><line x1="130.919" y1="242.073" x2="139.061" y2="242.073" class="black" /></g>
<g><title>2 (position.label in template: 2.G)</title><text x="128.66" y="234.82" class="green" >G</text></g>
<g><line x1="130.709" y1="234.513" x2="139.061" y2="234.513" class="black" /></g>
<g><title>3 (position.label in template: 3.G)</title><text x="128.66" y="227.26" class="black" >G</text></g>
<g><line x1="130.709" y1="226.953" x2="139.061" y2="226.953" class="black" /></g>
<g><title>4 (position.label in template: 4.C)</title><text x="128.87" y="219.7" class="black" >C</text></g>
<g><line x1="130.919" y1="219.393" x2="138.851" y2="219.393" class="black" /></g>
<g><title>5 (position.label in template: 5.A)</title><text x="121.57" y="218.82" class="black" >A</text></g>
<g><title>6 (position.label in template: 6.G)</title><text x="113.75" y="217.28" class="black" >G</text></g>
<g><title>7 (position.label in template: 7.U)</title><text x="106.73" y="215.08" class="green" >T</text></g>
<g><title>8 (position.label in template: 8.G)</title><text x="99.51" y="212.25" class="black" >G</text></g>
<g><title>9 (position.label in template: 9.A)</title><text x="93.19" y="208.81" class="black" >A</text></g>
<g><title>10 (position.label in template: 10.U)</title><text x="86.58" y="204.79" class="green" >T</text></g>
<g><text x="82.7301" y="210.534" class="numbering-label sequential" >10</text></g>
<g><line x1="85.5533" y1="206.322" x2="83.76" y2="208.997" class="numbering-line sequential" /></g>
<g><title>11 (position.label in template: 11.G)</title><text x="80.36" y="200.21" class="black" >G</text></g>
<g><title>12 (position.label in template: 12.U)</title><text x="74.98" y="195.12" class="green" >T</text></g>
<g><title>13 (position.label in template: 13.A)</title><text x="70.08" y="189.55" class="black" >A</text></g>
<g><title>14 (position.label in template: 14.U)</title><text x="65.27" y="183.54" class="green" >T</text></g>
<g><title>15 (position.label in template: 15.G)</title><text x="61.02" y="177.16" class="black" >G</text></g>
<g><title>16 (position.label in template: 16.A)</title><text x="57.97" y="170.44" class="black" >A</text></g>
<g><title>17 (position.label in template: 17.A)</title><text x="55.12" y="163.43" class="black" >A</text></g>
<g><title>18 (position.label in template: 18.U)</title><text x="52.7" y="156.21" class="green" >T</text></g>
<g><title>19 (position.label in template: 19.U)</title><text x="51.13" y="148.81" class="green" >T</text></g>
<g><title>20 (position.label in template: 20.U)</title><text x="50.23" y="141.3" class="green" >T</text></g>
<g><text x="43.3349" y="141.817" class="numbering-label sequential" >20</text></g>
<g><line x1="48.3913" y1="141.438" x2="45.1787" y2="141.679" class="numbering-line sequential" /></g>
<g><title>21 (position.label in template: 21.C)</title><text x="50" y="133.75" class="black" >C</text></g>
<g><title>22 (position.label in template: 22.U)</title><text x="50.44" y="126.2" class="green" >T</text></g>
<g><title>23 (position.label in template: 23.U)</title><text x="51.55" y="118.72" class="green" >T</text></g>
<g><title>24 (position.label in template: 24.C)</title><text x="53.32" y="111.37" class="black" >C</text></g>
<g><title>25 (position.label in template: 25.A)</title><text x="55.94" y="104.21" class="black" >A</text></g>
<g><title>26 (position.label in template: 26.C)</title><text x="58.78" y="97.29" class="black" >C</text></g>
<g><title>27 (position.label in template: 27.C)</title><text x="62.42" y="90.66" class="black" >C</text></g>
<g><title>28 (position.label in template: 28.U)</title><text x="66.64" y="84.39" class="green" >T</text></g>
<g><title>29 (position.label in template: 29.G)</title><text x="71.19" y="78.52" class="black" >G</text></g>
<g><title>30 (position.label in template: 30.A)</title><text x="76.87" y="73.09" class="black" >A</text></g>
<g><text x="72.1246" y="68.0609" class="numbering-label sequential" >30</text></g>
<g><line x1="75.6046" y1="71.7489" x2="73.5745" y2="69.5975" class="numbering-line sequential" /></g>
<g><title>31 (position.label in template: 31.G)</title><text x="82.18" y="68.15" class="black" >G</text></g>
<g><title>32 (position.label in template: 32.C)</title><text x="88.53" y="63.74" class="black" >C</text></g>
<g><title>33 (position.label in template: 33.U)</title><text x="95.04" y="59.9" class="green" >T</text></g>
<g><title>34 (position.label in template: 34.C)</title><text x="101.86" y="56.64" class="black" >C</text></g>
<g><title>35 (position.label in template: 35.C)</title><text x="108.95" y="54.01" class="black" >C</text></g>
<g><title>36 (position.label in template: 36.A)</title><text x="116.45" y="52.01" class="black" >A</text></g>
<g><title>37 (position.label in template: 37.A)</title><text x="123.89" y="50.68" class="black" >A</text></g>
<g><title>38 (position.label in template: 38.G)</title><text x="131" y="50" class="black" >G</text></g>
<g><title>39 (position.label in template: 39.U)</title><text x="138.77" y="50" class="green" >T</text></g>
<g><title>40 (position.label in template: 40.G)</title><text x="146.09" y="50.68" class="black" >G</text></g>
<g><title>41 (position.label in template: 41.A)</title><text x="153.95" y="52.01" class="black" >A</text></g>
<g><title>42 (position.label in template: 42.A)</title><text x="161.24" y="54.01" class="black" >A</text></g>
<g><title>43 (position.label in template: 43.G)</title><text x="167.91" y="56.64" class="black" >G</text></g>
<g><title>44 (position.label in template: 44.A)</title><text x="175.15" y="59.9" class="black" >A</text></g>
<g><title>45 (position.label in template: 45.G)</title><text x="181.24" y="63.74" class="black" >G</text></g>
<g><title>46 (position.label in template: 46.C)</title><text x="187.59" y="68.15" class="black" >C</text></g>
<g><title>47 (position.label in template: 47.A)</title><text x="193.52" y="73.09" class="black" >A</text></g>
<g><title>48 (position.label in template: 48.A)</title><text x="198.79" y="78.52" class="black" >A</text></g>
<g><title>49 (position.label in template: 49.A)</title><text x="203.55" y="84.39" class="black" >A</text></g>
<g><title>50 (position.label in template: 50.A)</title><text x="207.77" y="90.66" class="black" >A</text></g>
<g><text x="213.715" y="87.1297" class="numbering-label sequential" >50</text></g>
<g><line x1="209.355" y1="89.7186" x2="211.871" y2="88.2245" class="numbering-line sequential" /></g>
<g><title>51 (position.label in template: 51.U)</title><text x="211.21" y="97.29" class="green" >T</text></g>
<g><title>52 (position.label in template: 52.A)</title><text x="214.45" y="104.21" class="black" >A</text></g>
<g><title>53 (position.label in template: 53.G)</title><text x="216.45" y="111.37" class="black" >G</text></g>
<g><title>54 (position.label in template: 54.A)</title><text x="218.64" y="118.72" class="black" >A</text></g>
<g><title>55 (position.label in template: 55.C)</title><text x="219.54" y="126.2" class="black" >C</text></g>
<g><title>56 (position.label in template: 56.G)</title><text x="219.77" y="133.75" class="black" >G</text></g>
<g><title>57 (position.label in template: 57.A)</title><text x="219.96" y="141.3" class="black" >A</text></g>
<g><title>58 (position.label in template: 58.G)</title><text x="218.64" y="148.81" class="black" >G</text></g>
<g><title>59 (position.label in template: 59.C)</title><text x="217.28" y="156.21" class="black" >C</text></g>
<g><title>60 (position.label in template: 60.U)</title><text x="215.06" y="163.43" class="green" >T</text></g>
<g><title>61 (position.label in template: 61.U)</title><text x="212.21" y="170.44" class="green" >T</text></g>
<g><title>62 (position.label in template: 62.U)</title><text x="208.75" y="177.16" class="green" >T</text></g>
<g><title>63 (position.label in template: 63.U)</title><text x="204.71" y="183.54" class="green" >T</text></g>
<g><title>64 (position.label in template: 64.U)</title><text x="200.11" y="189.55" class="green" >T</text></g>
<g><title>65 (position.label in template: 65.A)</title><text x="195.21" y="195.12" class="black" >A</text></g>
<g><title>66 (position.label in template: 66.A)</title><text x="189.62" y="200.21" class="black" >A</text></g>
<g><title>67 (position.label in template: 67.C)</title><text x="183.4" y="204.79" class="black" >C</text></g>
<g><title>68 (position.label in template: 68.C)</title><text x="177" y="208.81" class="black" >C</text></g>
<g><title>69 (position.label in template: 69.C)</title><text x="170.27" y="212.25" class="black" >C</text></g>
<g><title>70 (position.label in template: 70.U)</title><text x="163.25" y="215.08" class="green" >T</text></g>
<g><title>71 (position.label in template: 71.G)</title><text x="155.81" y="217.28" class="black" >G</text></g>
<g><title>72 (position.label in template: 72.A)</title><text x="148.83" y="218.82" class="black" >A</text></g>
<g><title>73 (position.label in template: 73.G)</title><text x="140.9" y="219.7" class="black" >G</text></g>
<g><title>74 (position.label in template: 74.C)</title><text x="141.11" y="227.26" class="black" >C</text></g>
<g><title>75 (position.label in template: 75.U)</title><text x="141.11" y="234.82" class="green" >T</text></g>
<g><title>76 (position.label in template: 76.U)</title><text x="141.11" y="242.38" class="green" >T</text></g>
<g><title>77 (position.label in template: 77.3')</title><text x="148.11" y="242.38" class="green" >3'</text></g>
<g><line x1="123.919" y1="242.073" x2="126.821" y2="242.073" class="gray" /></g>
<g><line x1="128.813" y1="240.025" x2="128.717" y2="236.561" class="gray" /></g>
<g><line x1="128.66" y1="232.464" x2="128.66" y2="229.001" class="gray" /></g>
<g><line x1="128.717" y1="224.905" x2="128.813" y2="221.441" class="gray" /></g>
<g><line x1="126.836" y1="219.147" x2="123.604" y2="218.758" class="gray" /></g>
<g><line x1="119.56" y1="218.117" x2="115.76" y2="217.369" class="gray" /></g>
<g><line x1="111.795" y1="216.36" x2="108.685" y2="215.385" class="gray" /></g>
<g><line x1="104.823" y1="214.025" x2="101.417" y2="212.69" class="gray" /></g>
<g><line x1="97.7105" y1="210.963" x2="94.9895" y2="209.482" class="gray" /></g>
<g><line x1="91.4396" y1="207.438" x2="88.3304" y2="205.547" class="gray" /></g>
<g><line x1="84.9302" y1="203.268" x2="82.0098" y2="201.117" class="gray" /></g>
<g><line x1="78.8718" y1="198.495" x2="76.4682" y2="196.221" class="gray" /></g>
<g><line x1="73.6268" y1="193.274" x2="71.4332" y2="190.781" class="gray" /></g>
<g><line x1="68.7998" y1="187.643" x2="66.5502" y2="184.832" class="gray" /></g>
<g><line x1="64.1342" y1="181.528" x2="62.1558" y2="178.558" class="gray" /></g>
<g><line x1="60.1733" y1="174.987" x2="58.8167" y2="171.998" class="gray" /></g>
<g><line x1="57.1984" y1="168.235" x2="55.8916" y2="165.021" class="gray" /></g>
<g><line x1="54.4689" y1="161.18" x2="53.3511" y2="157.845" class="gray" /></g>
<g><line x1="52.2748" y1="153.899" x2="51.5552" y2="150.507" class="gray" /></g>
<g><line x1="50.8862" y1="146.468" x2="50.4738" y2="143.027" class="gray" /></g>
<g><line x1="50.1676" y1="138.945" x2="50.0624" y2="135.49" class="gray" /></g>
<g><line x1="50.1192" y1="131.397" x2="50.3208" y2="127.938" class="gray" /></g>
<g><line x1="50.7407" y1="123.866" x2="51.2493" y2="120.439" class="gray" /></g>
<g><line x1="52.0297" y1="116.421" x2="52.8403" y2="113.054" class="gray" /></g>
<g><line x1="54.024" y1="109.139" x2="55.236" y2="105.827" class="gray" /></g>
<g><line x1="56.7179" y1="102.007" x2="58.0021" y2="98.878" class="gray" /></g>
<g><line x1="59.766" y1="95.1868" x2="61.434" y2="92.1486" class="gray" /></g>
<g><line x1="63.5639" y1="88.653" x2="65.4961" y2="85.7823" class="gray" /></g>
<g><line x1="67.8951" y1="82.4634" x2="69.9349" y2="79.832" class="gray" /></g>
<g><line x1="72.6709" y1="76.797" x2="75.3891" y2="74.1984" class="gray" /></g>
<g><line x1="78.37" y1="71.3872" x2="80.68" y2="69.2382" class="gray" /></g>
<g><line x1="83.8627" y1="66.674" x2="86.8473" y2="64.6013" class="gray" /></g>
<g><line x1="90.2946" y1="62.3918" x2="93.2754" y2="60.6336" class="gray" /></g>
<g><line x1="96.8884" y1="58.7091" x2="100.012" y2="57.2162" class="gray" /></g>
<g><line x1="103.781" y1="55.6202" x2="107.029" y2="54.4152" class="gray" /></g>
<g><line x1="110.93" y1="53.1748" x2="114.47" y2="52.2306" class="gray" /></g>
<g><line x1="118.467" y1="51.3422" x2="121.873" y2="50.7332" class="gray" /></g>
<g><line x1="125.929" y1="50.1776" x2="128.961" y2="49.8877" class="gray" /></g>
<g><line x1="133.049" y1="49.6927" x2="136.721" y2="49.6927" class="gray" /></g>
<g><line x1="140.81" y1="49.8822" x2="144.05" y2="50.1832" class="gray" /></g>
<g><line x1="148.11" y1="50.7145" x2="151.93" y2="51.3609" class="gray" /></g>
<g><line x1="155.926" y1="52.2447" x2="159.264" y2="53.1606" class="gray" /></g>
<g><line x1="163.146" y1="54.4542" x2="166.004" y2="55.5812" class="gray" /></g>
<g><line x1="169.778" y1="57.1739" x2="173.282" y2="58.7515" class="gray" /></g>
<g><line x1="176.883" y1="60.6854" x2="179.507" y2="62.34" class="gray" /></g>
<g><line x1="182.923" y1="64.6013" x2="185.907" y2="66.674" class="gray" /></g>
<g><line x1="189.164" y1="69.154" x2="191.946" y2="71.4714" class="gray" /></g>
<g><line x1="194.947" y1="74.2529" x2="197.363" y2="76.7425" class="gray" /></g>
<g><line x1="200.08" y1="79.804" x2="202.26" y2="82.4914" class="gray" /></g>
<g><line x1="204.694" y1="85.7823" x2="206.626" y2="88.653" class="gray" /></g>
<g><line x1="208.714" y1="92.1712" x2="210.266" y2="95.1641" class="gray" /></g>
<g><line x1="212.079" y1="98.8381" x2="213.581" y2="102.047" class="gray" /></g>
<g><line x1="215.001" y1="105.876" x2="215.899" y2="109.089" class="gray" /></g>
<g><line x1="217.035" y1="113.026" x2="218.055" y2="116.449" class="gray" /></g>
<g><line x1="218.885" y1="120.447" x2="219.295" y2="123.859" class="gray" /></g>
<g><line x1="219.602" y1="127.94" x2="219.708" y2="131.395" class="gray" /></g>
<g><line x1="219.822" y1="135.491" x2="219.908" y2="138.945" class="gray" /></g>
<g><line x1="219.605" y1="143.011" x2="218.995" y2="146.485" class="gray" /></g>
<g><line x1="218.27" y1="150.518" x2="217.65" y2="153.888" class="gray" /></g>
<g><line x1="216.678" y1="157.861" x2="215.662" y2="161.164" class="gray" /></g>
<g><line x1="214.288" y1="165.021" x2="212.982" y2="168.235" class="gray" /></g>
<g><line x1="211.272" y1="171.954" x2="209.688" y2="175.031" class="gray" /></g>
<g><line x1="207.654" y1="178.584" x2="205.806" y2="181.502" class="gray" /></g>
<g><line x1="203.465" y1="184.86" x2="201.355" y2="187.616" class="gray" /></g>
<g><line x1="198.757" y1="190.781" x2="196.563" y2="193.274" class="gray" /></g>
<g><line x1="193.695" y1="196.192" x2="191.135" y2="198.523" class="gray" /></g>
<g><line x1="187.97" y1="201.117" x2="185.05" y2="203.268" class="gray" /></g>
<g><line x1="181.665" y1="205.572" x2="178.735" y2="207.413" class="gray" /></g>
<g><line x1="175.176" y1="209.435" x2="172.094" y2="211.01" class="gray" /></g>
<g><line x1="168.37" y1="212.709" x2="165.15" y2="214.007" class="gray" /></g>
<g><line x1="161.285" y1="215.354" x2="157.775" y2="216.392" class="gray" /></g>
<g><line x1="153.809" y1="217.414" x2="150.831" y2="218.071" class="gray" /></g>
<g><line x1="146.794" y1="218.739" x2="142.936" y2="219.167" class="gray" /></g>
<g><line x1="140.957" y1="221.441" x2="141.053" y2="224.905" class="gray" /></g>
<g><line x1="141.11" y1="229.001" x2="141.11" y2="232.464" class="gray" /></g>
<g><line x1="141.11" y1="236.561" x2="141.11" y2="240.024" class="gray" /></g>
<g><line x1="143.159" y1="242.073" x2="146.061" y2="242.073" class="gray" /></g>
</svg>
