<svg
	xmlns="http://www.w3.org/2000/svg"
	width="225.13"
	height="240.138">
<g><style type="text/css" >
<!-- create color definitions -->
<![CDATA[
circle.red {stroke: rgb(255, 0, 255); fill: none; }
circle.green {stroke: rgb(0, 255, 0); fill: none; }
circle.blue {stroke: rgb(0, 0, 255); fill: none; }
circle.black {stroke: rgb(0, 0, 0); fill: none; }
circle.gray {stroke: rgb(204, 204, 204); fill: none; }
circle.brown {stroke: rgb(211.65, 104.55, 30.6); fill: none; }
line.red {stroke: rgb(255, 0, 255); stroke-width: 0.383292; }
line.green {stroke: rgb(0, 255, 0); stroke-width: 0.383292; }
line.blue {stroke: rgb(0, 0, 255); stroke-width: 0.383292; }
line.black {stroke: rgb(0, 0, 0); stroke-width: 0.383292; }
line.gray {stroke: rgb(204, 204, 204); stroke-width: 0.383292; }
line.brown {stroke: rgb(211.65, 104.55, 30.6); stroke-width: 0.383292; }
line {stroke: rgb(0, 0, 0); }
text.red {fill: rgb(255, 0, 255); font-size: 3.066336px; font-weight: bold; font-family: Helvetica; }
text.green {fill: rgb(0, 255, 0); font-size: 3.066336px; font-weight: bold; font-family: Helvetica; }
text.blue {fill: rgb(0, 0, 255); font-size: 3.066336px; font-weight: bold; font-family: Helvetica; }
text.black {fill: rgb(0, 0, 0); font-size: 3.066336px; font-weight: bold; font-family: Helvetica; }
text.gray {fill: rgb(204, 204, 204); font-size: 3.066336px; font-weight: bold; font-family: Helvetica; }
text.brown {fill: rgb(211.65, 104.55, 30.6); font-size: 3.066336px; font-weight: bold; font-family: Helvetica; }
text {fill: rgb(0, 0, 0); font-size: 3.066336px; font-weight: bold; font-family: Helvetica; text-anchor: middle; alignment-baseline: middle; }

.pseudoknot_connection{stroke-linecap: round; stroke-opacity: 0.2; stroke-width: 1.5; }
.pseudoknot_segment1{stroke-linecap: round; stroke-opacity: 0.4; stroke-width: 3.06634; }
.pseudoknot_segment2{stroke-linecap: round; stroke-opacity: 0.4; stroke-width: 3.06634; }
line.numbering-line{stroke: rgb(204, 204, 204); stroke-width: 0.191646; }
line.predicted{stroke: rgb(0, 0, 0); stroke-dasharray: 2; }
polyline{fill: none; stroke-linejoin: round; }
template{visibility: hidden; }
text.numbering-label{fill: rgb(204, 204, 204); }
]]>
</style></g>
<g><title>0 (position.label in template: 0.5')</title><text x="109.73" y="192.449" class="green" >5'</text></g>
<g><title>1 (position.label in template: 1.A)</title><text x="109.53" y="184.89" class="green" >A</text></g>
<g><line x1="111.574" y1="184.583" x2="119.526" y2="184.583" class="black" /></g>
<g><title>2 (position.label in template: 2.C)</title><text x="109.33" y="177.33" class="black" >C</text></g>
<g><line x1="111.374" y1="177.023" x2="119.316" y2="177.023" class="black" /></g>
<g><title>3 (position.label in template: 3.C)</title><text x="106.23" y="170.43" class="black" >C</text></g>
<g><title>4 (position.label in template: 4.G)</title><text x="109.12" y="163.54" class="black" >G</text></g>
<g><line x1="111.164" y1="163.233" x2="119.526" y2="163.233" class="black" /></g>
<g><title>5 (position.label in template: 5.G)</title><text x="109.12" y="155.98" class="black" >G</text></g>
<g><line x1="111.164" y1="155.673" x2="119.526" y2="155.673" class="black" /></g>
<g><title>6 (position.label in template: 6.G)</title><text x="109.12" y="148.42" class="black" >G</text></g>
<g><line x1="111.164" y1="148.113" x2="119.526" y2="148.113" class="black" /></g>
<g><title>7 (position.label in template: 7.A)</title><text x="109.53" y="140.86" class="green" >A</text></g>
<g><line x1="111.574" y1="140.553" x2="119.526" y2="140.553" class="black" /></g>
<g><title>8 (position.label in template: 8.U)</title><text x="102.46" y="137.7" class="green" >T</text></g>
<g><title>9 (position.label in template: 9.G)</title><text x="96.77" y="132.49" class="black" >G</text></g>
<g><title>10 (position.label in template: 10.G)</title><text x="93.26" y="125.8" class="black" >G</text></g>
<g><line x1="93.1882" y1="123.45" x2="92.9018" y2="115.306" class="black" /></g>
<g><text x="91.1392" y="132.365" class="numbering-label sequential" >10</text></g>
<g><line x1="92.6945" y1="127.551" x2="91.6345" y2="130.832" class="numbering-line sequential" /></g>
<g><title>11 (position.label in template: 11.C)</title><text x="86.74" y="129.25" class="black" >C</text></g>
<g><title>12 (position.label in template: 12.C)</title><text x="79.69" y="126.51" class="black" >C</text></g>
<g><line x1="79.5498" y1="124.164" x2="78.9902" y2="116.023" class="black" /></g>
<g><title>13 (position.label in template: 13.A)</title><text x="75.59" y="132.72" class="black" >A</text></g>
<g><title>14 (position.label in template: 14.A)</title><text x="68.85" y="136.13" class="black" >A</text></g>
<g><title>15 (position.label in template: 15.A)</title><text x="61.29" y="135.92" class="black" >A</text></g>
<g><title>16 (position.label in template: 16.U)</title><text x="54.54" y="132.13" class="green" >T</text></g>
<g><title>17 (position.label in template: 17.G)</title><text x="50.39" y="125.67" class="black" >G</text></g>
<g><title>18 (position.label in template: 18.G)</title><text x="50" y="118.12" class="black" >G</text></g>
<g><title>19 (position.label in template: 19.U)</title><text x="53.46" y="111.3" class="green" >T</text></g>
<g><title>20 (position.label in template: 20.U)</title><text x="59.58" y="106.85" class="green" >T</text></g>
<g><text x="57.053" y="100.43" class="numbering-label sequential" >20</text></g>
<g><line x1="58.9061" y1="105.138" x2="57.6565" y2="101.963" class="numbering-line sequential" /></g>
<g><title>21 (position.label in template: 21.A)</title><text x="67.28" y="105.86" class="black" >A</text></g>
<g><title>22 (position.label in template: 22.A)</title><text x="74.34" y="108.55" class="black" >A</text></g>
<g><title>23 (position.label in template: 23.G)</title><text x="78.85" y="114.29" class="black" >G</text></g>
<g><title>24 (position.label in template: 24.A)</title><text x="85.99" y="110.83" class="black" >A</text></g>
<g><title>25 (position.label in template: 25.C)</title><text x="92.83" y="113.57" class="black" >C</text></g>
<g><title>26 (position.label in template: 26.C)</title><text x="95.63" y="106.55" class="black" >C</text></g>
<g><title>27 (position.label in template: 27.U)</title><text x="100.55" y="100.81" class="green" >T</text></g>
<g><line x1="102.413" y1="99.6609" x2="110.007" y2="96.2258" class="black" /></g>
<g><title>28 (position.label in template: 28.U)</title><text x="97.39" y="93.94" class="green" >T</text></g>
<g><line x1="99.2526" y1="92.7909" x2="106.847" y2="89.3558" class="black" /></g>
<g><title>29 (position.label in template: 29.G)</title><text x="94.02" y="87.07" class="black" >G</text></g>
<g><line x1="95.8826" y1="85.9209" x2="103.477" y2="82.4858" class="black" /></g>
<g><title>30 (position.label in template: 30.G)</title><text x="90.85" y="80.21" class="black" >G</text></g>
<g><line x1="92.7128" y1="79.0616" x2="100.317" y2="75.6252" class="black" /></g>
<g><text x="84.5129" y="82.9378" class="numbering-label sequential" >30</text></g>
<g><line x1="89.1601" y1="80.9374" x2="86.3527" y2="82.1458" class="numbering-line sequential" /></g>
<g><title>31 (position.label in template: 31.A)</title><text x="88.11" y="73.34" class="green" >A</text></g>
<g><line x1="89.9606" y1="72.1649" x2="97.1694" y2="68.7818" class="black" /></g>
<g><title>32 (position.label in template: 32.C)</title><text x="81.05" y="70.14" class="black" >C</text></g>
<g><title>33 (position.label in template: 33.U)</title><text x="77.53" y="63.46" class="green" >T</text></g>
<g><title>34 (position.label in template: 34.U)</title><text x="78.77" y="56" class="green" >T</text></g>
<g><title>35 (position.label in template: 35.A)</title><text x="84.47" y="50.81" class="black" >A</text></g>
<g><title>36 (position.label in template: 36.A)</title><text x="91.99" y="50" class="black" >A</text></g>
<g><title>37 (position.label in template: 37.G)</title><text x="98.05" y="53.91" class="black" >G</text></g>
<g><title>38 (position.label in template: 38.G)</title><text x="100.84" y="60.94" class="black" >G</text></g>
<g><title>39 (position.label in template: 39.U)</title><text x="99.02" y="68.22" class="green" >T</text></g>
<g><title>40 (position.label in template: 40.C)</title><text x="102.18" y="75.09" class="black" >C</text></g>
<g><title>41 (position.label in template: 41.C)</title><text x="105.34" y="81.95" class="black" >C</text></g>
<g><title>42 (position.label in template: 42.A)</title><text x="108.71" y="88.82" class="green" >A</text></g>
<g><title>43 (position.label in template: 43.A)</title><text x="111.87" y="95.69" class="green" >A</text></g>
<g><title>44 (position.label in template: 44.U)</title><text x="119.23" y="95.69" class="green" >T</text></g>
<g><title>45 (position.label in template: 45.G)</title><text x="126.17" y="98.12" class="black" >G</text></g>
<g><line x1="127.669" y1="99.2034" x2="133.761" y2="104.853" class="black" /></g>
<g><title>46 (position.label in template: 46.G)</title><text x="131.38" y="92.64" class="black" >G</text></g>
<g><line x1="132.879" y1="93.7234" x2="138.971" y2="99.3733" class="black" /></g>
<g><title>47 (position.label in template: 47.A)</title><text x="131.59" y="85.08" class="black" >A</text></g>
<g><title>48 (position.label in template: 48.C)</title><text x="135.42" y="78.69" class="black" >C</text></g>
<g><title>49 (position.label in template: 49.A)</title><text x="142.53" y="75.61" class="black" >A</text></g>
<g><title>50 (position.label in template: 50.U)</title><text x="149.77" y="76.89" class="green" >T</text></g>
<g><text x="152.947" y="70.7658" class="numbering-label sequential" >50</text></g>
<g><line x1="150.617" y1="75.2569" x2="152.152" y2="72.299" class="numbering-line sequential" /></g>
<g><title>51 (position.label in template: 51.G)</title><text x="155.04" y="82.1" class="black" >G</text></g>
<g><title>52 (position.label in template: 52.U)</title><text x="156.92" y="89.47" class="green" >T</text></g>
<g><title>53 (position.label in template: 53.G)</title><text x="153.99" y="96.53" class="black" >G</text></g>
<g><title>54 (position.label in template: 54.C)</title><text x="148.02" y="100.88" class="black" >C</text></g>
<g><title>55 (position.label in template: 55.C)</title><text x="140.47" y="101.07" class="black" >C</text></g>
<g><title>56 (position.label in template: 56.C)</title><text x="135.26" y="106.55" class="black" >C</text></g>
<g><title>57 (position.label in template: 57.A)</title><text x="138.27" y="113.57" class="black" >A</text></g>
<g><title>58 (position.label in template: 58.U)</title><text x="138.45" y="121.12" class="green" >T</text></g>
<g><title>59 (position.label in template: 59.G)</title><text x="136.18" y="128.4" class="black" >G</text></g>
<g><line x1="134.871" y1="129.664" x2="129.739" y2="135.823" class="black" /></g>
<g><title>60 (position.label in template: 60.U)</title><text x="142.14" y="133.31" class="green" >T</text></g>
<g><line x1="140.83" y1="134.573" x2="135.69" y2="140.734" class="black" /></g>
<g><title>61 (position.label in template: 61.A)</title><text x="148.09" y="138.23" class="green" >A</text></g>
<g><line x1="146.741" y1="139.459" x2="141.269" y2="145.688" class="black" /></g>
<g><title>62 (position.label in template: 62.G)</title><text x="153.42" y="143.14" class="black" >G</text></g>
<g><line x1="152.111" y1="144.404" x2="146.979" y2="150.563" class="black" /></g>
<g><title>63 (position.label in template: 63.G)</title><text x="159.16" y="148.06" class="black" >G</text></g>
<g><line x1="157.851" y1="149.324" x2="152.719" y2="155.483" class="black" /></g>
<g><title>64 (position.label in template: 64.U)</title><text x="166.93" y="148.09" class="green" >T</text></g>
<g><title>65 (position.label in template: 65.U)</title><text x="172.93" y="152.69" class="green" >T</text></g>
<g><title>66 (position.label in template: 66.A)</title><text x="175.13" y="159.99" class="black" >A</text></g>
<g><title>67 (position.label in template: 67.G)</title><text x="171.88" y="167" class="black" >G</text></g>
<g><title>68 (position.label in template: 68.A)</title><text x="165.81" y="170.87" class="black" >A</text></g>
<g><title>69 (position.label in template: 69.A)</title><text x="158.3" y="170.03" class="black" >A</text></g>
<g><title>70 (position.label in template: 70.C)</title><text x="152.62" y="164.82" class="black" >C</text></g>
<g><title>71 (position.label in template: 71.C)</title><text x="151.41" y="157.36" class="black" >C</text></g>
<g><title>72 (position.label in template: 72.C)</title><text x="145.67" y="152.44" class="black" >C</text></g>
<g><title>73 (position.label in template: 73.U)</title><text x="139.92" y="147.53" class="green" >T</text></g>
<g><title>74 (position.label in template: 74.A)</title><text x="134.38" y="142.61" class="green" >A</text></g>
<g><title>75 (position.label in template: 75.C)</title><text x="128.43" y="137.7" class="black" >C</text></g>
<g><title>76 (position.label in template: 76.U)</title><text x="121.57" y="140.86" class="green" >T</text></g>
<g><title>77 (position.label in template: 77.C)</title><text x="121.57" y="148.42" class="black" >C</text></g>
<g><title>78 (position.label in template: 78.C)</title><text x="121.57" y="155.98" class="black" >C</text></g>
<g><title>79 (position.label in template: 79.C)</title><text x="121.57" y="163.54" class="black" >C</text></g>
<g><title>80 (position.label in template: 80.A)</title><text x="124.87" y="170.43" class="black" >A</text></g>
<g><title>81 (position.label in template: 81.G)</title><text x="121.36" y="177.33" class="black" >G</text></g>
<g><title>82 (position.label in template: 82.U)</title><text x="121.57" y="184.89" class="green" >T</text></g>
<g><title>83 (position.label in template: 83.A)</title><text x="127.014" y="190.138" class="black" >A</text></g>
<g><title>84 (position.label in template: 84.3')</title><text x="127.832" y="197.655" class="green" >3'</text></g>
<g><line x1="109.676" y1="190.099" x2="109.584" y2="186.627" class="gray" /></g>
<g><line x1="109.476" y1="182.54" x2="109.384" y2="179.067" class="gray" /></g>
<g><line x1="108.492" y1="175.159" x2="107.068" y2="171.988" class="gray" /></g>
<g><line x1="107.021" y1="168.238" x2="108.329" y2="165.118" class="gray" /></g>
<g><line x1="109.12" y1="161.189" x2="109.12" y2="157.718" class="gray" /></g>
<g><line x1="109.12" y1="153.629" x2="109.12" y2="150.158" class="gray" /></g>
<g><line x1="109.231" y1="146.072" x2="109.419" y2="142.595" class="gray" /></g>
<g><line x1="107.664" y1="139.719" x2="104.326" y2="138.228" class="gray" /></g>
<g><line x1="100.952" y1="136.013" x2="98.2777" y2="133.564" class="gray" /></g>
<g><line x1="95.8203" y1="130.373" x2="94.2097" y2="127.304" class="gray" /></g>
<g><line x1="91.4531" y1="126.449" x2="88.5469" y2="127.987" class="gray" /></g>
<g><line x1="84.8346" y1="128.203" x2="81.5954" y2="126.944" class="gray" /></g>
<g><line x1="78.5637" y1="127.909" x2="76.7163" y2="130.707" class="gray" /></g>
<g><line x1="73.7659" y1="133.336" x2="70.6741" y2="134.901" class="gray" /></g>
<g><line x1="66.8066" y1="135.767" x2="63.3334" y2="135.67" class="gray" /></g>
<g><line x1="59.5075" y1="134.613" x2="56.3225" y2="132.824" class="gray" /></g>
<g><line x1="53.4351" y1="130.103" x2="51.4949" y2="127.083" class="gray" /></g>
<g><line x1="50.2845" y1="123.322" x2="50.1055" y2="119.855" class="gray" /></g>
<g><line x1="50.9249" y1="115.99" x2="52.5351" y2="112.816" class="gray" /></g>
<g><line x1="55.1134" y1="109.791" x2="57.9266" y2="107.746" class="gray" /></g>
<g><line x1="61.6075" y1="106.283" x2="65.2525" y2="105.814" class="gray" /></g>
<g><line x1="69.1903" y1="106.281" x2="72.4297" y2="107.516" class="gray" /></g>
<g><line x1="75.603" y1="109.851" x2="77.587" y2="112.376" class="gray" /></g>
<g><line x1="80.6896" y1="113.092" x2="84.1504" y2="111.415" class="gray" /></g>
<g><line x1="87.8876" y1="111.284" x2="90.9324" y2="112.503" class="gray" /></g>
<g><line x1="93.5873" y1="111.365" x2="94.8727" y2="108.142" class="gray" /></g>
<g><line x1="96.9604" y1="104.691" x2="99.2196" y2="102.055" class="gray" /></g>
<g><line x1="99.6958" y1="98.6462" x2="98.2442" y2="95.4905" class="gray" /></g>
<g><line x1="96.4897" y1="91.7981" x2="94.9203" y2="88.5987" class="gray" /></g>
<g><line x1="93.1625" y1="84.9077" x2="91.7075" y2="81.759" class="gray" /></g>
<g><line x1="90.0927" y1="78.0046" x2="88.8673" y2="74.9321" class="gray" /></g>
<g><line x1="86.2481" y1="72.1894" x2="82.9119" y2="70.6773" class="gray" /></g>
<g><line x1="80.097" y1="68.0249" x2="78.483" y2="64.9619" class="gray" /></g>
<g><line x1="77.8652" y1="61.1368" x2="78.4348" y2="57.7099" class="gray" /></g>
<g><line x1="80.2815" y1="54.3171" x2="82.9585" y2="51.8796" class="gray" /></g>
<g><line x1="86.5025" y1="50.2844" x2="89.9575" y2="49.9123" class="gray" /></g>
<g><line x1="93.7077" y1="50.8017" x2="96.3323" y2="52.4951" class="gray" /></g>
<g><line x1="98.8041" y1="55.5034" x2="100.086" y2="58.7333" class="gray" /></g>
<g><line x1="100.344" y1="62.6166" x2="99.5158" y2="65.9302" class="gray" /></g>
<g><line x1="99.8742" y1="69.7705" x2="101.326" y2="72.9262" class="gray" /></g>
<g><line x1="103.035" y1="76.6401" x2="104.485" y2="79.7867" class="gray" /></g>
<g><line x1="106.24" y1="83.4787" x2="107.81" y2="86.6781" class="gray" /></g>
<g><line x1="109.564" y1="90.3705" x2="111.016" y2="93.5262" class="gray" /></g>
<g><line x1="113.914" y1="95.3834" x2="117.186" y2="95.3834" class="gray" /></g>
<g><line x1="121.159" y1="96.0589" x2="124.241" y2="97.1378" class="gray" /></g>
<g><line x1="127.579" y1="96.3318" x2="129.971" y2="93.8149" class="gray" /></g>
<g><line x1="131.437" y1="90.2899" x2="131.533" y2="86.8168" class="gray" /></g>
<g><line x1="132.641" y1="83.02" x2="134.369" y2="80.1368" class="gray" /></g>
<g><line x1="137.296" y1="77.5708" x2="140.654" y2="76.1159" class="gray" /></g>
<g><line x1="144.543" y1="75.6593" x2="147.757" y2="76.2275" class="gray" /></g>
<g><line x1="151.224" y1="78.0206" x2="153.586" y2="80.3562" class="gray" /></g>
<g><line x1="155.545" y1="83.7742" x2="156.415" y2="87.1826" class="gray" /></g>
<g><line x1="156.136" y1="91.0514" x2="154.774" y2="94.3353" class="gray" /></g>
<g><line x1="152.338" y1="97.4272" x2="149.672" y2="99.3695" class="gray" /></g>
<g><line x1="145.976" y1="100.625" x2="142.514" y2="100.712" class="gray" /></g>
<g><line x1="139.061" y1="102.245" x2="136.669" y2="104.762" class="gray" /></g>
<g><line x1="136.066" y1="108.122" x2="137.464" y2="111.385" class="gray" /></g>
<g><line x1="138.319" y1="115.307" x2="138.401" y2="118.77" class="gray" /></g>
<g><line x1="137.841" y1="122.765" x2="136.789" y2="126.142" class="gray" /></g>
<g><line x1="137.758" y1="129.393" x2="140.562" y2="131.704" class="gray" /></g>
<g><line x1="143.715" y1="134.306" x2="146.515" y2="136.621" class="gray" /></g>
<g><line x1="149.594" y1="139.308" x2="151.916" y2="141.448" class="gray" /></g>
<g><line x1="154.972" y1="144.164" x2="157.608" y2="146.423" class="gray" /></g>
<g><line x1="161.204" y1="147.761" x2="164.886" y2="147.775" class="gray" /></g>
<g><line x1="168.552" y1="149.027" x2="171.308" y2="151.14" class="gray" /></g>
<g><line x1="173.52" y1="154.341" x2="174.54" y2="157.726" class="gray" /></g>
<g><line x1="174.27" y1="161.538" x2="172.74" y2="164.839" class="gray" /></g>
<g><line x1="170.156" y1="167.792" x2="167.534" y2="169.464" class="gray" /></g>
<g><line x1="163.778" y1="170.336" x2="160.332" y2="169.951" class="gray" /></g>
<g><line x1="156.794" y1="168.342" x2="154.126" y2="165.895" class="gray" /></g>
<g><line x1="152.293" y1="162.496" x2="151.737" y2="159.071" class="gray" /></g>
<g><line x1="149.858" y1="155.723" x2="147.222" y2="153.464" class="gray" /></g>
<g><line x1="144.115" y1="150.806" x2="141.475" y2="148.551" class="gray" /></g>
<g><line x1="138.392" y1="145.866" x2="135.908" y2="143.661" class="gray" /></g>
<g><line x1="132.803" y1="141.002" x2="130.007" y2="138.694" class="gray" /></g>
<g><line x1="126.573" y1="138.249" x2="123.427" y2="139.698" class="gray" /></g>
<g><line x1="121.57" y1="142.598" x2="121.57" y2="146.069" class="gray" /></g>
<g><line x1="121.57" y1="150.158" x2="121.57" y2="153.629" class="gray" /></g>
<g><line x1="121.57" y1="157.718" x2="121.57" y2="161.189" class="gray" /></g>
<g><line x1="122.453" y1="165.077" x2="123.987" y2="168.28" class="gray" /></g>
<g><line x1="123.943" y1="171.945" x2="122.287" y2="175.201" class="gray" /></g>
<g><line x1="121.417" y1="179.067" x2="121.513" y2="182.54" class="gray" /></g>
<g><line x1="123.042" y1="186.002" x2="125.542" y2="188.412" class="gray" /></g>
<g><line x1="127.235" y1="191.863" x2="127.61" y2="195.316" class="gray" /></g>
</svg>
