<svg
	xmlns="http://www.w3.org/2000/svg"
	width="231.5"
	height="241.841">
<g><style type="text/css" >
<!-- create color definitions -->
<![CDATA[
circle.red {stroke: rgb(255, 0, 255); fill: none; }
circle.green {stroke: rgb(0, 255, 0); fill: none; }
circle.blue {stroke: rgb(0, 0, 255); fill: none; }
circle.black {stroke: rgb(0, 0, 0); fill: none; }
circle.gray {stroke: rgb(204, 204, 204); fill: none; }
circle.brown {stroke: rgb(211.65, 104.55, 30.6); fill: none; }
line.red {stroke: rgb(255, 0, 255); stroke-width: 0.383358; }
line.green {stroke: rgb(0, 255, 0); stroke-width: 0.383358; }
line.blue {stroke: rgb(0, 0, 255); stroke-width: 0.383358; }
line.black {stroke: rgb(0, 0, 0); stroke-width: 0.383358; }
line.gray {stroke: rgb(204, 204, 204); stroke-width: 0.383358; }
line.brown {stroke: rgb(211.65, 104.55, 30.6); stroke-width: 0.383358; }
line {stroke: rgb(0, 0, 0); }
text.red {fill: rgb(255, 0, 255); font-size: 3.066864px; font-weight: bold; font-family: Helvetica; }
text.green {fill: rgb(0, 255, 0); font-size: 3.066864px; font-weight: bold; font-family: Helvetica; }
text.blue {fill: rgb(0, 0, 255); font-size: 3.066864px; font-weight: bold; font-family: Helvetica; }
text.black {fill: rgb(0, 0, 0); font-size: 3.066864px; font-weight: bold; font-family: Helvetica; }
text.gray {fill: rgb(204, 204, 204); font-size: 3.066864px; font-weight: bold; font-family: Helvetica; }
text.brown {fill: rgb(211.65, 104.55, 30.6); font-size: 3.066864px; font-weight: bold; font-family: Helvetica; }
text {fill: rgb(0, 0, 0); font-size: 3.066864px; font-weight: bold; font-family: Helvetica; text-anchor: middle; alignment-baseline: middle; }

.pseudoknot_connection{stroke-linecap: round; stroke-opacity: 0.2; stroke-width: 1.5; }
.pseudoknot_segment1{stroke-linecap: round; stroke-opacity: 0.4; stroke-width: 3.06686; }
.pseudoknot_segment2{stroke-linecap: round; stroke-opacity: 0.4; stroke-width: 3.06686; }
line.numbering-line{stroke: rgb(204, 204, 204); stroke-width: 0.191679; }
line.predicted{stroke: rgb(0, 0, 0); stroke-dasharray: 2; }
polyline{fill: none; stroke-linejoin: round; }
template{visibility: hidden; }
text.numbering-label{fill: rgb(204, 204, 204); }
]]>
</style></g>
<g><title>0 (position.label in template: 0.5')</title><text x="115.11" y="194.156" class="green" >5'</text></g>
<g><title>1 (position.label in template: 1.G)</title><text x="115.11" y="186.59" class="black" >G</text></g>
<g><line x1="117.155" y1="186.283" x2="125.515" y2="186.283" class="black" /></g>
<g><title>2 (position.label in template: 2.G)</title><text x="115.11" y="179.03" class="black" >G</text></g>
<g><line x1="117.155" y1="178.723" x2="125.515" y2="178.723" class="black" /></g>
<g><title>3 (position.label in template: 3.G)</title><text x="115.11" y="171.47" class="black" >G</text></g>
<g><line x1="117.155" y1="171.163" x2="125.515" y2="171.163" class="black" /></g>
<g><title>4 (position.label in template: 4.C)</title><text x="115.32" y="163.91" class="black" >C</text></g>
<g><line x1="117.365" y1="163.603" x2="125.305" y2="163.603" class="black" /></g>
<g><title>5 (position.label in template: 5.C)</title><text x="115.32" y="156.35" class="black" >C</text></g>
<g><line x1="117.365" y1="156.043" x2="125.515" y2="156.043" class="black" /></g>
<g><title>6 (position.label in template: 6.U)</title><text x="115.32" y="148.79" class="green" >T</text></g>
<g><line x1="117.365" y1="148.483" x2="125.515" y2="148.483" class="black" /></g>
<g><title>7 (position.label in template: 7.G)</title><text x="115.11" y="141.23" class="black" >G</text></g>
<g><line x1="117.155" y1="140.923" x2="125.515" y2="140.923" class="black" /></g>
<g><title>8 (position.label in template: 8.U)</title><text x="108.5" y="137.97" class="green" >T</text></g>
<g><title>9 (position.label in template: 9.A)</title><text x="103.36" y="132.62" class="black" >A</text></g>
<g><title>10 (position.label in template: 10.G)</title><text x="99.68" y="125.8" class="black" >G</text></g>
<g><line x1="99.7151" y1="123.449" x2="99.8549" y2="115.298" class="black" /></g>
<g><text x="96.051" y="131.669" class="numbering-label sequential" >10</text></g>
<g><line x1="98.7123" y1="127.365" x2="96.9992" y2="130.136" class="numbering-line sequential" /></g>
<g><title>11 (position.label in template: 11.C)</title><text x="92.33" y="125.8" class="black" >C</text></g>
<g><line x1="92.2949" y1="123.449" x2="92.1551" y2="115.298" class="black" /></g>
<g><title>12 (position.label in template: 12.U)</title><text x="84.77" y="125.8" class="green" >T</text></g>
<g><line x1="84.8051" y1="123.449" x2="84.9449" y2="115.298" class="black" /></g>
<g><title>13 (position.label in template: 13.G)</title><text x="77" y="125.8" class="black" >G</text></g>
<g><line x1="77" y1="123.449" x2="77" y2="115.298" class="black" /></g>
<g><title>14 (position.label in template: 14.A)</title><text x="72.46" y="131.51" class="black" >A</text></g>
<g><title>15 (position.label in template: 15.A)</title><text x="65.27" y="133.86" class="black" >A</text></g>
<g><title>16 (position.label in template: 16.A)</title><text x="57.9" y="132.19" class="black" >A</text></g>
<g><title>17 (position.label in template: 17.G)</title><text x="52.01" y="126.97" class="black" >G</text></g>
<g><title>18 (position.label in template: 18.G)</title><text x="50" y="119.68" class="black" >G</text></g>
<g><title>19 (position.label in template: 19.A)</title><text x="52.43" y="112.4" class="black" >A</text></g>
<g><title>20 (position.label in template: 20.U)</title><text x="57.69" y="107.18" class="green" >T</text></g>
<g><text x="54.3874" y="101.121" class="numbering-label sequential" >20</text></g>
<g><line x1="56.8093" y1="105.564" x2="55.2233" y2="102.655" class="numbering-line sequential" /></g>
<g><title>21 (position.label in template: 21.U)</title><text x="65.07" y="105.51" class="green" >T</text></g>
<g><title>22 (position.label in template: 22.A)</title><text x="72.46" y="107.86" class="black" >A</text></g>
<g><title>23 (position.label in template: 23.G)</title><text x="77" y="113.56" class="black" >G</text></g>
<g><title>24 (position.label in template: 24.A)</title><text x="84.98" y="113.56" class="green" >A</text></g>
<g><title>25 (position.label in template: 25.G)</title><text x="92.12" y="113.56" class="black" >G</text></g>
<g><title>26 (position.label in template: 26.C)</title><text x="99.89" y="113.56" class="black" >C</text></g>
<g><title>27 (position.label in template: 27.A)</title><text x="103.36" y="106.75" class="black" >A</text></g>
<g><title>28 (position.label in template: 28.C)</title><text x="108.5" y="101.4" class="black" >C</text></g>
<g><line x1="110.424" y1="100.402" x2="117.906" y2="97.7145" class="black" /></g>
<g><title>29 (position.label in template: 29.G)</title><text x="105.77" y="94.27" class="green" >G</text></g>
<g><line x1="107.702" y1="93.2946" x2="115.598" y2="90.562" class="black" /></g>
<g><title>30 (position.label in template: 30.U)</title><text x="103.47" y="87.14" class="green" >T</text></g>
<g><line x1="105.402" y1="86.1641" x2="113.288" y2="83.4325" class="black" /></g>
<g><text x="96.9625" y="89.4354" class="numbering-label sequential" >30</text></g>
<g><line x1="101.735" y1="87.7521" x2="98.8026" y2="88.7863" class="numbering-line sequential" /></g>
<g><title>31 (position.label in template: 31.G)</title><text x="100.74" y="80.01" class="black" >G</text></g>
<g><line x1="102.672" y1="79.0346" x2="110.568" y2="76.302" class="black" /></g>
<g><title>32 (position.label in template: 32.G)</title><text x="98.23" y="72.88" class="black" >G</text></g>
<g><line x1="100.162" y1="71.9041" x2="108.048" y2="69.1725" class="black" /></g>
<g><title>33 (position.label in template: 33.C)</title><text x="91.91" y="69.07" class="black" >C</text></g>
<g><title>34 (position.label in template: 34.U)</title><text x="89.02" y="62.08" class="green" >T</text></g>
<g><title>35 (position.label in template: 35.A)</title><text x="91.15" y="54.77" class="black" >A</text></g>
<g><title>36 (position.label in template: 36.U)</title><text x="96.9" y="50.11" class="green" >T</text></g>
<g><title>37 (position.label in template: 37.G)</title><text x="104.25" y="50" class="black" >G</text></g>
<g><title>38 (position.label in template: 38.A)</title><text x="110.75" y="54.49" class="black" >A</text></g>
<g><title>39 (position.label in template: 39.A)</title><text x="112.88" y="61.75" class="black" >A</text></g>
<g><title>40 (position.label in template: 40.C)</title><text x="109.98" y="68.81" class="black" >C</text></g>
<g><title>41 (position.label in template: 41.C)</title><text x="112.5" y="75.94" class="black" >C</text></g>
<g><title>42 (position.label in template: 42.A)</title><text x="115.22" y="83.07" class="green" >A</text></g>
<g><title>43 (position.label in template: 43.U)</title><text x="117.53" y="90.2" class="green" >T</text></g>
<g><title>44 (position.label in template: 44.G)</title><text x="119.83" y="97.33" class="black" >G</text></g>
<g><title>45 (position.label in template: 45.G)</title><text x="127.35" y="98.14" class="black" >G</text></g>
<g><title>46 (position.label in template: 46.C)</title><text x="134.38" y="101.4" class="black" >C</text></g>
<g><title>47 (position.label in template: 47.G)</title><text x="139.51" y="106.75" class="black" >G</text></g>
<g><title>48 (position.label in template: 48.U)</title><text x="142.99" y="113.56" class="green" >T</text></g>
<g><title>49 (position.label in template: 49.C)</title><text x="143.79" y="121.08" class="black" >C</text></g>
<g><title>50 (position.label in template: 50.G)</title><text x="141.85" y="128.44" class="black" >G</text></g>
<g><line x1="140.589" y1="129.742" x2="135.641" y2="136.054" class="black" /></g>
<g><text x="148.411" y="126.303" class="numbering-label sequential" >50</text></g>
<g><line x1="143.6" y1="127.87" x2="146.571" y2="126.903" class="numbering-line sequential" /></g>
<g><title>51 (position.label in template: 51.G)</title><text x="147.73" y="133.18" class="green" >G</text></g>
<g><line x1="146.469" y1="134.482" x2="141.521" y2="140.794" class="black" /></g>
<g><title>52 (position.label in template: 52.G)</title><text x="153.62" y="137.93" class="black" >G</text></g>
<g><line x1="152.359" y1="139.232" x2="147.411" y2="145.544" class="black" /></g>
<g><title>53 (position.label in template: 53.G)</title><text x="159.51" y="142.67" class="black" >G</text></g>
<g><line x1="158.249" y1="143.972" x2="153.301" y2="150.284" class="black" /></g>
<g><title>54 (position.label in template: 54.G)</title><text x="165.39" y="147.41" class="black" >G</text></g>
<g><line x1="164.129" y1="148.712" x2="159.181" y2="155.024" class="black" /></g>
<g><title>55 (position.label in template: 55.U)</title><text x="173.16" y="147.22" class="green" >T</text></g>
<g><title>56 (position.label in template: 56.U)</title><text x="179.29" y="151.65" class="green" >T</text></g>
<g><title>57 (position.label in template: 57.C)</title><text x="181.5" y="158.88" class="black" >C</text></g>
<g><title>58 (position.label in template: 58.G)</title><text x="178.67" y="165.97" class="black" >G</text></g>
<g><title>59 (position.label in template: 59.A)</title><text x="172.72" y="170.04" class="black" >A</text></g>
<g><title>60 (position.label in template: 60.A)</title><text x="165.18" y="169.42" class="black" >A</text></g>
<g><title>61 (position.label in template: 61.U)</title><text x="159.35" y="164.37" class="green" >T</text></g>
<g><title>62 (position.label in template: 62.C)</title><text x="157.92" y="156.94" class="black" >C</text></g>
<g><title>63 (position.label in template: 63.C)</title><text x="152.04" y="152.2" class="black" >C</text></g>
<g><title>64 (position.label in template: 64.C)</title><text x="146.15" y="147.46" class="black" >C</text></g>
<g><title>65 (position.label in template: 65.U)</title><text x="140.26" y="142.71" class="green" >T</text></g>
<g><title>66 (position.label in template: 66.C)</title><text x="134.38" y="137.97" class="black" >C</text></g>
<g><title>67 (position.label in template: 67.C)</title><text x="127.56" y="141.23" class="black" >C</text></g>
<g><title>68 (position.label in template: 68.U)</title><text x="127.56" y="148.79" class="green" >T</text></g>
<g><title>69 (position.label in template: 69.C)</title><text x="127.56" y="156.35" class="black" >C</text></g>
<g><title>70 (position.label in template: 70.G)</title><text x="127.35" y="163.91" class="black" >G</text></g>
<g><title>71 (position.label in template: 71.C)</title><text x="127.56" y="171.47" class="black" >C</text></g>
<g><title>72 (position.label in template: 72.C)</title><text x="127.56" y="179.03" class="black" >C</text></g>
<g><title>73 (position.label in template: 73.C)</title><text x="127.56" y="186.59" class="black" >C</text></g>
<g><title>74 (position.label in template: 74.A)</title><text x="133.007" y="191.841" class="black" >A</text></g>
<g><title>75 (position.label in template: 75.3')</title><text x="127.771" y="197.302" class="green" >3'</text></g>
<g><line x1="115.11" y1="191.805" x2="115.11" y2="188.328" class="gray" /></g>
<g><line x1="115.11" y1="184.239" x2="115.11" y2="180.768" class="gray" /></g>
<g><line x1="115.11" y1="176.679" x2="115.11" y2="173.208" class="gray" /></g>
<g><line x1="115.167" y1="169.12" x2="115.263" y2="165.647" class="gray" /></g>
<g><line x1="115.32" y1="161.559" x2="115.32" y2="158.088" class="gray" /></g>
<g><line x1="115.32" y1="153.999" x2="115.32" y2="150.528" class="gray" /></g>
<g><line x1="115.263" y1="146.44" x2="115.167" y2="142.967" class="gray" /></g>
<g><line x1="113.276" y1="140.019" x2="110.334" y2="138.568" class="gray" /></g>
<g><line x1="107.083" y1="136.189" x2="104.777" y2="133.788" class="gray" /></g>
<g><line x1="102.389" y1="130.514" x2="100.651" y2="127.293" class="gray" /></g>
<g><line x1="97.6354" y1="125.493" x2="94.3746" y2="125.493" class="gray" /></g>
<g><line x1="90.2854" y1="125.493" x2="86.8146" y2="125.493" class="gray" /></g>
<g><line x1="82.7254" y1="125.493" x2="79.0446" y2="125.493" class="gray" /></g>
<g><line x1="75.7276" y1="127.094" x2="73.7324" y2="129.603" class="gray" /></g>
<g><line x1="70.5166" y1="131.839" x2="67.2134" y2="132.918" class="gray" /></g>
<g><line x1="63.276" y1="133.101" x2="59.894" y2="132.335" class="gray" /></g>
<g><line x1="56.3699" y1="130.527" x2="53.5401" y2="128.019" class="gray" /></g>
<g><line x1="51.4665" y1="124.692" x2="50.5435" y2="121.344" class="gray" /></g>
<g><line x1="50.6474" y1="117.434" x2="51.7826" y2="114.033" class="gray" /></g>
<g><line x1="53.8812" y1="110.653" x2="56.2388" y2="108.314" class="gray" /></g>
<g><line x1="59.6842" y1="106.422" x2="63.0758" y2="105.655" class="gray" /></g>
<g><line x1="67.0184" y1="105.823" x2="70.5116" y2="106.934" class="gray" /></g>
<g><line x1="73.7338" y1="109.153" x2="75.7262" y2="111.654" class="gray" /></g>
<g><line x1="79.0446" y1="113.253" x2="82.9354" y2="113.253" class="gray" /></g>
<g><line x1="87.0246" y1="113.253" x2="90.0754" y2="113.253" class="gray" /></g>
<g><line x1="94.1646" y1="113.253" x2="97.8454" y2="113.253" class="gray" /></g>
<g><line x1="100.818" y1="111.432" x2="102.432" y2="108.265" class="gray" /></g>
<g><line x1="104.777" y1="104.969" x2="107.083" y2="102.568" class="gray" /></g>
<g><line x1="107.769" y1="99.1839" x2="106.501" y2="95.8727" class="gray" /></g>
<g><line x1="105.142" y1="92.0175" x2="104.098" y2="88.7792" class="gray" /></g>
<g><line x1="102.739" y1="84.9239" x2="101.471" y2="81.6127" class="gray" /></g>
<g><line x1="100.061" y1="77.7747" x2="98.9089" y2="74.5019" class="gray" /></g>
<g><line x1="96.479" y1="71.5177" x2="93.661" y2="69.8189" class="gray" /></g>
<g><line x1="91.1288" y1="66.8739" x2="89.8012" y2="63.6628" class="gray" /></g>
<g><line x1="89.592" y1="59.8104" x2="90.578" y2="56.4263" class="gray" /></g>
<g><line x1="92.7384" y1="53.176" x2="95.3116" y2="51.0906" class="gray" /></g>
<g><line x1="98.9443" y1="49.7727" x2="102.206" y2="49.7239" class="gray" /></g>
<g><line x1="105.932" y1="50.8554" x2="109.068" y2="53.0213" class="gray" /></g>
<g><line x1="111.326" y1="56.1452" x2="112.304" y2="59.4814" class="gray" /></g>
<g><line x1="112.103" y1="63.3346" x2="110.757" y2="66.6121" class="gray" /></g>
<g><line x1="110.661" y1="70.431" x2="111.819" y2="73.7056" class="gray" /></g>
<g><line x1="113.229" y1="77.5436" x2="114.491" y2="80.853" class="gray" /></g>
<g><line x1="115.85" y1="84.7084" x2="116.9" y2="87.9483" class="gray" /></g>
<g><line x1="118.158" y1="91.8392" x2="119.202" y2="95.0775" class="gray" /></g>
<g><line x1="121.863" y1="97.2423" x2="125.317" y2="97.6144" class="gray" /></g>
<g><line x1="129.205" y1="98.6935" x2="132.525" y2="100.233" class="gray" /></g>
<g><line x1="135.795" y1="102.569" x2="138.095" y2="104.968" class="gray" /></g>
<g><line x1="140.44" y1="108.264" x2="142.06" y2="111.433" class="gray" /></g>
<g><line x1="143.206" y1="115.286" x2="143.574" y2="118.74" class="gray" /></g>
<g><line x1="143.269" y1="122.75" x2="142.371" y2="126.156" class="gray" /></g>
<g><line x1="143.442" y1="129.416" x2="146.138" y2="131.59" class="gray" /></g>
<g><line x1="149.322" y1="134.157" x2="152.028" y2="136.34" class="gray" /></g>
<g><line x1="155.213" y1="138.905" x2="157.917" y2="141.081" class="gray" /></g>
<g><line x1="161.102" y1="143.646" x2="163.798" y2="145.82" class="gray" /></g>
<g><line x1="167.434" y1="147.053" x2="171.116" y2="146.963" class="gray" /></g>
<g><line x1="174.817" y1="148.111" x2="177.633" y2="150.146" class="gray" /></g>
<g><line x1="179.888" y1="153.299" x2="180.902" y2="156.618" class="gray" /></g>
<g><line x1="180.742" y1="160.472" x2="179.428" y2="163.764" class="gray" /></g>
<g><line x1="176.982" y1="166.818" x2="174.408" y2="168.579" class="gray" /></g>
<g><line x1="170.682" y1="169.566" x2="167.218" y2="169.281" class="gray" /></g>
<g><line x1="163.635" y1="167.775" x2="160.895" y2="165.402" class="gray" /></g>
<g><line x1="158.964" y1="162.056" x2="158.306" y2="158.641" class="gray" /></g>
<g><line x1="156.328" y1="155.35" x2="153.632" y2="153.176" class="gray" /></g>
<g><line x1="150.447" y1="150.611" x2="147.743" y2="148.435" class="gray" /></g>
<g><line x1="144.558" y1="145.87" x2="141.852" y2="143.687" class="gray" /></g>
<g><line x1="138.668" y1="141.12" x2="135.972" y2="138.946" class="gray" /></g>
<g><line x1="132.535" y1="138.545" x2="129.405" y2="140.042" class="gray" /></g>
<g><line x1="127.56" y1="142.968" x2="127.56" y2="146.439" class="gray" /></g>
<g><line x1="127.56" y1="150.528" x2="127.56" y2="153.999" class="gray" /></g>
<g><line x1="127.503" y1="158.087" x2="127.407" y2="161.56" class="gray" /></g>
<g><line x1="127.407" y1="165.647" x2="127.503" y2="169.12" class="gray" /></g>
<g><line x1="127.56" y1="173.208" x2="127.56" y2="176.679" class="gray" /></g>
<g><line x1="127.56" y1="180.768" x2="127.56" y2="184.239" class="gray" /></g>
<g><line x1="129.032" y1="187.702" x2="131.535" y2="190.115" class="gray" /></g>
<g><line x1="131.592" y1="193.01" x2="129.186" y2="195.52" class="gray" /></g>
</svg>
