<svg
	xmlns="http://www.w3.org/2000/svg"
	width="233.438"
	height="287.95">
<g><style type="text/css" >
<!-- create color definitions -->
<![CDATA[
circle.red {stroke: rgb(255, 0, 255); fill: none; }
circle.green {stroke: rgb(0, 255, 0); fill: none; }
circle.blue {stroke: rgb(0, 0, 255); fill: none; }
circle.black {stroke: rgb(0, 0, 0); fill: none; }
circle.gray {stroke: rgb(204, 204, 204); fill: none; }
circle.brown {stroke: rgb(211.65, 104.55, 30.6); fill: none; }
line.red {stroke: rgb(255, 0, 255); stroke-width: 0.379607; }
line.green {stroke: rgb(0, 255, 0); stroke-width: 0.379607; }
line.blue {stroke: rgb(0, 0, 255); stroke-width: 0.379607; }
line.black {stroke: rgb(0, 0, 0); stroke-width: 0.379607; }
line.gray {stroke: rgb(204, 204, 204); stroke-width: 0.379607; }
line.brown {stroke: rgb(211.65, 104.55, 30.6); stroke-width: 0.379607; }
line {stroke: rgb(0, 0, 0); }
text.red {fill: rgb(255, 0, 255); font-size: 3.036857px; font-weight: bold; font-family: Helvetica; }
text.green {fill: rgb(0, 255, 0); font-size: 3.036857px; font-weight: bold; font-family: Helvetica; }
text.blue {fill: rgb(0, 0, 255); font-size: 3.036857px; font-weight: bold; font-family: Helvetica; }
text.black {fill: rgb(0, 0, 0); font-size: 3.036857px; font-weight: bold; font-family: Helvetica; }
text.gray {fill: rgb(204, 204, 204); font-size: 3.036857px; font-weight: bold; font-family: Helvetica; }
text.brown {fill: rgb(211.65, 104.55, 30.6); font-size: 3.036857px; font-weight: bold; font-family: Helvetica; }
text {fill: rgb(0, 0, 0); font-size: 3.036857px; font-weight: bold; font-family: Helvetica; text-anchor: middle; alignment-baseline: middle; }

.pseudoknot_connection{stroke-linecap: round; stroke-opacity: 0.2; stroke-width: 1.5; }
.pseudoknot_segment1{stroke-linecap: round; stroke-opacity: 0.4; stroke-width: 3.03686; }
.pseudoknot_segment2{stroke-linecap: round; stroke-opacity: 0.4; stroke-width: 3.03686; }
line.numbering-line{stroke: rgb(204, 204, 204); stroke-width: 0.189804; }
line.predicted{stroke: rgb(0, 0, 0); stroke-dasharray: 2; }
polyline{fill: none; stroke-linejoin: round; }
template{visibility: hidden; }
text.numbering-label{fill: rgb(204, 204, 204); }
]]>
</style></g>
<g><title>0 (position.label in template: 0.5')</title><text x="54.6241" y="237.848" class="green" >5'</text></g>
<g><title>1 (position.label in template: 1.U)</title><text x="62.1852" y="237.848" class="green" >T</text></g>
<g><title>2 (position.label in template: 2.C)</title><text x="69.7463" y="237.848" class="black" >C</text></g>
<g><title>3 (position.label in template: 3.A)</title><text x="75.19" y="232.6" class="black" >A</text></g>
<g><line x1="77.2146" y1="232.296" x2="84.9854" y2="232.296" class="black" /></g>
<g><title>4 (position.label in template: 4.C)</title><text x="74.98" y="225.04" class="black" >C</text></g>
<g><line x1="77.0046" y1="224.736" x2="85.1954" y2="224.736" class="black" /></g>
<g><title>5 (position.label in template: 5.C)</title><text x="74.98" y="217.48" class="black" >C</text></g>
<g><line x1="77.0046" y1="217.176" x2="84.9854" y2="217.176" class="black" /></g>
<g><title>6 (position.label in template: 6.C)</title><text x="74.98" y="209.92" class="black" >C</text></g>
<g><line x1="77.0046" y1="209.616" x2="84.9854" y2="209.616" class="black" /></g>
<g><title>7 (position.label in template: 7.C)</title><text x="74.98" y="202.36" class="black" >C</text></g>
<g><line x1="77.0046" y1="202.056" x2="84.9854" y2="202.056" class="black" /></g>
<g><title>8 (position.label in template: 8.U)</title><text x="74.98" y="194.8" class="green" >T</text></g>
<g><line x1="77.0046" y1="194.496" x2="85.4054" y2="194.496" class="black" /></g>
<g><title>9 (position.label in template: 9.G)</title><text x="74.77" y="187.24" class="black" >G</text></g>
<g><line x1="76.7946" y1="186.936" x2="85.1954" y2="186.936" class="black" /></g>
<g><title>10 (position.label in template: 10.C)</title><text x="74.98" y="179.68" class="black" >C</text></g>
<g><line x1="77.0046" y1="179.376" x2="84.9854" y2="179.376" class="black" /></g>
<g><text x="68.1471" y="179.68" class="numbering-label sequential" >10</text></g>
<g><line x1="73.1579" y1="179.68" x2="69.9692" y2="179.68" class="numbering-line sequential" /></g>
<g><title>11 (position.label in template: 11.G)</title><text x="74.77" y="172.12" class="black" >G</text></g>
<g><line x1="76.7946" y1="171.816" x2="85.1954" y2="171.816" class="black" /></g>
<g><title>12 (position.label in template: 12.U)</title><text x="74.98" y="164.56" class="green" >T</text></g>
<g><line x1="77.0046" y1="164.256" x2="84.9854" y2="164.256" class="black" /></g>
<g><title>13 (position.label in template: 13.G)</title><text x="70.07" y="158.64" class="black" >G</text></g>
<g><title>14 (position.label in template: 14.A)</title><text x="70.48" y="151.08" class="black" >A</text></g>
<g><title>15 (position.label in template: 15.C)</title><text x="74.98" y="145.17" class="black" >C</text></g>
<g><line x1="77.0046" y1="144.866" x2="84.9854" y2="144.866" class="black" /></g>
<g><title>16 (position.label in template: 16.U)</title><text x="74.98" y="137.61" class="green" >T</text></g>
<g><line x1="77.0046" y1="137.306" x2="85.1954" y2="137.306" class="black" /></g>
<g><title>17 (position.label in template: 17.G)</title><text x="67.59" y="135.24" class="black" >G</text></g>
<g><title>18 (position.label in template: 18.G)</title><text x="61.2" y="131.21" class="black" >G</text></g>
<g><title>19 (position.label in template: 19.C)</title><text x="56.16" y="125.77" class="black" >C</text></g>
<g><title>20 (position.label in template: 20.G)</title><text x="52.17" y="119.22" class="black" >G</text></g>
<g><text x="45.8491" y="121.815" class="numbering-label sequential" >20</text></g>
<g><line x1="50.4844" y1="119.912" x2="47.6712" y2="121.067" class="numbering-line sequential" /></g>
<g><title>21 (position.label in template: 21.A)</title><text x="50.49" y="111.96" class="black" >A</text></g>
<g><title>22 (position.label in template: 22.U)</title><text x="50" y="104.4" class="green" >T</text></g>
<g><title>23 (position.label in template: 23.A)</title><text x="51.74" y="97" class="black" >A</text></g>
<g><title>24 (position.label in template: 24.G)</title><text x="54.6" y="90.18" class="black" >G</text></g>
<g><title>25 (position.label in template: 25.A)</title><text x="59.83" y="84.36" class="black" >A</text></g>
<g><title>26 (position.label in template: 26.A)</title><text x="65.91" y="79.86" class="black" >A</text></g>
<g><title>27 (position.label in template: 27.C)</title><text x="72.68" y="76.95" class="black" >C</text></g>
<g><line x1="74.6985" y1="76.4897" x2="82.6515" y2="75.8729" class="black" /></g>
<g><title>28 (position.label in template: 28.C)</title><text x="72.11" y="69.41" class="black" >C</text></g>
<g><line x1="74.1285" y1="68.9497" x2="82.0815" y2="68.3329" class="black" /></g>
<g><title>29 (position.label in template: 29.C)</title><text x="71.53" y="61.87" class="black" >C</text></g>
<g><line x1="73.5485" y1="61.4099" x2="81.5115" y2="60.7927" class="black" /></g>
<g><title>30 (position.label in template: 30.U)</title><text x="70.59" y="54.37" class="green" >T</text></g>
<g><text x="64.3391" y="51.6105" class="numbering-label sequential" >30</text></g>
<g><line x1="68.9231" y1="53.6341" x2="66.1612" y2="52.4149" class="numbering-line sequential" /></g>
<g><title>31 (position.label in template: 31.U)</title><text x="76.77" y="50" class="green" >T</text></g>
<g><title>32 (position.label in template: 32.C)</title><text x="83.53" y="53.39" class="black" >C</text></g>
<g><title>33 (position.label in template: 33.G)</title><text x="83.53" y="60.94" class="black" >G</text></g>
<g><title>34 (position.label in template: 34.G)</title><text x="84.1" y="68.48" class="black" >G</text></g>
<g><title>35 (position.label in template: 35.G)</title><text x="84.67" y="76.02" class="black" >G</text></g>
<g><title>36 (position.label in template: 36.U)</title><text x="92.22" y="77.84" class="green" >T</text></g>
<g><title>37 (position.label in template: 37.U)</title><text x="98.91" y="81.37" class="green" >T</text></g>
<g><title>38 (position.label in template: 38.C)</title><text x="104.55" y="86.4" class="black" >C</text></g>
<g><title>39 (position.label in template: 39.A)</title><text x="109.02" y="92.64" class="black" >A</text></g>
<g><title>40 (position.label in template: 40.A)</title><text x="111.66" y="99.72" class="black" >A</text></g>
<g><title>41 (position.label in template: 41.G)</title><text x="112.1" y="107.24" class="black" >G</text></g>
<g><title>42 (position.label in template: 42.G)</title><text x="111.13" y="114.73" class="black" >G</text></g>
<g><line x1="110.282" y1="116.265" x2="106.888" y2="123.628" class="black" /></g>
<g><title>43 (position.label in template: 43.U)</title><text x="118.16" y="118.01" class="green" >T</text></g>
<g><line x1="117.312" y1="119.545" x2="113.918" y2="126.898" class="black" /></g>
<g><title>44 (position.label in template: 44.G)</title><text x="124.76" y="121.28" class="black" >G</text></g>
<g><line x1="123.912" y1="122.815" x2="120.518" y2="130.168" class="black" /></g>
<g><title>45 (position.label in template: 45.G)</title><text x="131.58" y="124.55" class="black" >G</text></g>
<g><line x1="130.732" y1="126.085" x2="127.338" y2="133.438" class="black" /></g>
<g><title>46 (position.label in template: 46.A)</title><text x="139.47" y="123.41" class="black" >A</text></g>
<g><title>47 (position.label in template: 47.G)</title><text x="145.41" y="127.5" class="black" >G</text></g>
<g><title>48 (position.label in template: 48.C)</title><text x="147.68" y="134.77" class="black" >C</text></g>
<g><title>49 (position.label in template: 49.A)</title><text x="144.61" y="141.59" class="black" >A</text></g>
<g><title>50 (position.label in template: 50.U)</title><text x="137.44" y="144.53" class="green" >T</text></g>
<g><text x="137.697" y="151.358" class="numbering-label sequential" >50</text></g>
<g><line x1="137.509" y1="146.351" x2="137.64" y2="149.84" class="numbering-line sequential" /></g>
<g><title>51 (position.label in template: 51.C)</title><text x="130.27" y="142.13" class="black" >C</text></g>
<g><title>52 (position.label in template: 52.C)</title><text x="126.49" y="135.58" class="black" >C</text></g>
<g><title>53 (position.label in template: 53.C)</title><text x="119.67" y="132.31" class="black" >C</text></g>
<g><title>54 (position.label in template: 54.A)</title><text x="113.07" y="129.04" class="green" >A</text></g>
<g><title>55 (position.label in template: 55.C)</title><text x="106.04" y="125.77" class="black" >C</text></g>
<g><title>56 (position.label in template: 56.C)</title><text x="100.8" y="131.21" class="black" >C</text></g>
<g><title>57 (position.label in template: 57.G)</title><text x="94.19" y="135.24" class="black" >G</text></g>
<g><title>58 (position.label in template: 58.U)</title><text x="87.22" y="137.61" class="green" >T</text></g>
<g><title>59 (position.label in template: 59.G)</title><text x="87.01" y="145.17" class="black" >G</text></g>
<g><title>60 (position.label in template: 60.A)</title><text x="92.14" y="151.08" class="black" >A</text></g>
<g><title>61 (position.label in template: 61.A)</title><text x="92.14" y="158.64" class="black" >A</text></g>
<g><title>62 (position.label in template: 62.G)</title><text x="87.01" y="164.56" class="green" >G</text></g>
<g><title>63 (position.label in template: 63.C)</title><text x="87.22" y="172.12" class="black" >C</text></g>
<g><title>64 (position.label in template: 64.G)</title><text x="87.01" y="179.68" class="black" >G</text></g>
<g><title>65 (position.label in template: 65.C)</title><text x="87.22" y="187.24" class="black" >C</text></g>
<g><title>66 (position.label in template: 66.A)</title><text x="87.43" y="194.8" class="green" >A</text></g>
<g><title>67 (position.label in template: 67.G)</title><text x="87.01" y="202.36" class="black" >G</text></g>
<g><title>68 (position.label in template: 68.G)</title><text x="87.01" y="209.92" class="black" >G</text></g>
<g><title>69 (position.label in template: 69.G)</title><text x="87.01" y="217.48" class="black" >G</text></g>
<g><title>70 (position.label in template: 70.C)</title><text x="87.22" y="225.04" class="black" >C</text></g>
<g><title>71 (position.label in template: 71.G)</title><text x="87.01" y="232.6" class="black" >G</text></g>
<g><title>72 (position.label in template: 72.C)</title><text x="92.57" y="237.95" class="black" >C</text></g>
<g><title>73 (position.label in template: 73.C)</title><text x="100.13" y="237.95" class="black" >C</text></g>
<g><title>74 (position.label in template: 74.G)</title><text x="107.48" y="237.95" class="black" >G</text></g>
<g><title>75 (position.label in template: 75.U)</title><text x="115.25" y="237.95" class="green" >T</text></g>
<g><title>76 (position.label in template: 76.U)</title><text x="122.81" y="237.95" class="green" >T</text></g>
<g><title>77 (position.label in template: 77.U)</title><text x="130.37" y="237.95" class="green" >T</text></g>
<g><title>78 (position.label in template: 78.U)</title><text x="135.71" y="232.6" class="green" >T</text></g>
<g><line x1="137.735" y1="232.296" x2="145.725" y2="232.296" class="black" /></g>
<g><title>79 (position.label in template: 79.U)</title><text x="135.71" y="225.04" class="green" >T</text></g>
<g><line x1="137.735" y1="224.736" x2="146.135" y2="224.736" class="black" /></g>
<g><title>80 (position.label in template: 80.G)</title><text x="135.5" y="217.48" class="black" >G</text></g>
<g><line x1="137.525" y1="217.176" x2="145.925" y2="217.176" class="black" /></g>
<g><title>81 (position.label in template: 81.C)</title><text x="135.71" y="209.92" class="black" >C</text></g>
<g><line x1="137.735" y1="209.616" x2="145.725" y2="209.616" class="black" /></g>
<g><title>82 (position.label in template: 82.C)</title><text x="135.71" y="202.36" class="black" >C</text></g>
<g><line x1="137.735" y1="202.056" x2="145.725" y2="202.056" class="black" /></g>
<g><title>83 (position.label in template: 83.G)</title><text x="129.8" y="197.4" class="black" >G</text></g>
<g><title>84 (position.label in template: 84.U)</title><text x="127.66" y="190.22" class="green" >T</text></g>
<g><title>85 (position.label in template: 85.U)</title><text x="129.33" y="182.84" class="green" >T</text></g>
<g><title>86 (position.label in template: 86.C)</title><text x="134.55" y="177.38" class="black" >C</text></g>
<g><title>87 (position.label in template: 87.G)</title><text x="141.62" y="175.36" class="black" >G</text></g>
<g><title>88 (position.label in template: 88.C)</title><text x="149.12" y="177.38" class="black" >C</text></g>
<g><title>89 (position.label in template: 89.C)</title><text x="154.34" y="182.84" class="black" >C</text></g>
<g><title>90 (position.label in template: 90.U)</title><text x="156.01" y="190.22" class="green" >T</text></g>
<g><title>91 (position.label in template: 91.G)</title><text x="153.45" y="197.4" class="black" >G</text></g>
<g><title>92 (position.label in template: 92.G)</title><text x="147.75" y="202.36" class="black" >G</text></g>
<g><title>93 (position.label in template: 93.G)</title><text x="147.75" y="209.92" class="black" >G</text></g>
<g><title>94 (position.label in template: 94.C)</title><text x="147.95" y="217.48" class="black" >C</text></g>
<g><title>95 (position.label in template: 95.A)</title><text x="148.16" y="225.04" class="green" >A</text></g>
<g><title>96 (position.label in template: 96.G)</title><text x="147.75" y="232.6" class="green" >G</text></g>
<g><title>97 (position.label in template: 97.C)</title><text x="153.194" y="237.848" class="black" >C</text></g>
<g><title>98 (position.label in template: 98.C)</title><text x="160.755" y="237.848" class="black" >C</text></g>
<g><title>99 (position.label in template: 99.G)</title><text x="168.316" y="237.848" class="black" >G</text></g>
<g><title>100 (position.label in template: 100.U)</title><text x="175.877" y="237.848" class="green" >T</text></g>
<g><text x="175.877" y="244.68" class="numbering-label sequential" >100</text></g>
<g><line x1="175.877" y1="239.67" x2="175.877" y2="243.162" class="numbering-line sequential" /></g>
<g><title>101 (position.label in template: 101.U)</title><text x="183.438" y="237.848" class="green" >T</text></g>
<g><title>102 (position.label in template: 102.3')</title><text x="190.999" y="237.848" class="green" >3'</text></g>
<g><line x1="56.6487" y1="237.544" x2="60.1606" y2="237.544" class="gray" /></g>
<g><line x1="64.2098" y1="237.544" x2="67.7217" y2="237.544" class="gray" /></g>
<g><line x1="71.2039" y1="236.139" x2="73.7324" y2="233.701" class="gray" /></g>
<g><line x1="75.1338" y1="230.273" x2="75.0362" y2="226.76" class="gray" /></g>
<g><line x1="74.98" y1="222.712" x2="74.98" y2="219.201" class="gray" /></g>
<g><line x1="74.98" y1="215.152" x2="74.98" y2="211.641" class="gray" /></g>
<g><line x1="74.98" y1="207.592" x2="74.98" y2="204.081" class="gray" /></g>
<g><line x1="74.98" y1="200.032" x2="74.98" y2="196.521" class="gray" /></g>
<g><line x1="74.9238" y1="192.473" x2="74.8262" y2="188.96" class="gray" /></g>
<g><line x1="74.8262" y1="184.913" x2="74.9238" y2="181.4" class="gray" /></g>
<g><line x1="74.9238" y1="177.353" x2="74.8262" y2="173.84" class="gray" /></g>
<g><line x1="74.8262" y1="169.793" x2="74.9238" y2="166.28" class="gray" /></g>
<g><line x1="73.6875" y1="162.698" x2="71.3625" y2="159.895" class="gray" /></g>
<g><line x1="70.1796" y1="156.315" x2="70.3704" y2="152.798" class="gray" /></g>
<g><line x1="71.7065" y1="149.166" x2="73.7535" y2="146.477" class="gray" /></g>
<g><line x1="74.98" y1="142.842" x2="74.98" y2="139.331" class="gray" /></g>
<g><line x1="73.0521" y1="136.688" x2="69.5179" y2="135.555" class="gray" /></g>
<g><line x1="65.8775" y1="133.856" x2="62.9125" y2="131.986" class="gray" /></g>
<g><line x1="59.8241" y1="129.421" x2="57.5359" y2="126.951" class="gray" /></g>
<g><line x1="55.1067" y1="123.737" x2="53.2233" y2="120.645" class="gray" /></g>
<g><line x1="51.7136" y1="116.944" x2="50.9464" y2="113.629" class="gray" /></g>
<g><line x1="50.3591" y1="109.636" x2="50.1309" y2="106.117" class="gray" /></g>
<g><line x1="50.4634" y1="102.125" x2="51.2766" y2="98.6671" class="gray" /></g>
<g><line x1="52.523" y1="94.8293" x2="53.817" y2="91.7434" class="gray" /></g>
<g><line x1="55.9532" y1="88.3704" x2="58.4768" y2="85.5622" class="gray" /></g>
<g><line x1="61.4573" y1="82.8519" x2="64.2827" y2="80.7608" class="gray" /></g>
<g><line x1="67.77" y1="78.7568" x2="70.82" y2="77.4458" class="gray" /></g>
<g><line x1="72.5274" y1="74.6275" x2="72.2626" y2="71.1251" class="gray" /></g>
<g><line x1="71.9547" y1="67.0877" x2="71.6853" y2="63.5849" class="gray" /></g>
<g><line x1="71.2782" y1="59.5575" x2="70.8418" y2="56.0752" class="gray" /></g>
<g><line x1="72.243" y1="52.8974" x2="75.117" y2="50.8652" class="gray" /></g>
<g><line x1="78.5798" y1="50.6039" x2="81.7202" y2="52.1788" class="gray" /></g>
<g><line x1="83.53" y1="55.1109" x2="83.53" y2="58.6117" class="gray" /></g>
<g><line x1="83.6826" y1="62.6551" x2="83.9474" y2="66.1575" class="gray" /></g>
<g><line x1="84.2526" y1="70.1951" x2="84.5174" y2="73.6975" class="gray" /></g>
<g><line x1="86.6382" y1="76.1908" x2="90.2518" y2="77.0619" class="gray" /></g>
<g><line x1="94.0106" y1="78.4811" x2="97.1194" y2="80.1215" class="gray" /></g>
<g><line x1="100.421" y1="82.4139" x2="103.039" y2="84.7488" class="gray" /></g>
<g><line x1="105.729" y1="87.7422" x2="107.841" y2="90.6905" class="gray" /></g>
<g><line x1="109.727" y1="94.2333" x2="110.953" y2="97.5193" class="gray" /></g>
<g><line x1="111.778" y1="101.437" x2="111.982" y2="104.915" class="gray" /></g>
<g><line x1="111.84" y1="108.944" x2="111.39" y2="112.419" class="gray" /></g>
<g><line x1="112.965" y1="115.282" x2="116.325" y2="116.85" class="gray" /></g>
<g><line x1="119.974" y1="118.605" x2="122.946" y2="120.078" class="gray" /></g>
<g><line x1="126.586" y1="121.852" x2="129.754" y2="123.371" class="gray" /></g>
<g><line x1="133.584" y1="123.957" x2="137.466" y2="123.396" class="gray" /></g>
<g><line x1="141.138" y1="124.254" x2="143.742" y2="126.048" class="gray" /></g>
<g><line x1="146.013" y1="129.129" x2="147.077" y2="132.534" class="gray" /></g>
<g><line x1="146.849" y1="136.312" x2="145.441" y2="139.44" class="gray" /></g>
<g><line x1="142.737" y1="142.054" x2="139.313" y2="143.458" class="gray" /></g>
<g><line x1="135.52" y1="143.584" x2="132.19" y2="142.469" class="gray" /></g>
<g><line x1="129.258" y1="140.073" x2="127.502" y2="137.03" class="gray" /></g>
<g><line x1="124.664" y1="134.401" x2="121.496" y2="132.882" class="gray" /></g>
<g><line x1="117.856" y1="131.108" x2="114.884" y2="129.635" class="gray" /></g>
<g><line x1="111.234" y1="127.882" x2="107.876" y2="126.32" class="gray" /></g>
<g><line x1="104.635" y1="126.924" x2="102.205" y2="129.448" class="gray" /></g>
<g><line x1="99.0714" y1="131.96" x2="95.9186" y2="133.882" class="gray" /></g>
<g><line x1="92.2732" y1="135.588" x2="89.1368" y2="136.655" class="gray" /></g>
<g><line x1="87.1638" y1="139.33" x2="87.0662" y2="142.843" class="gray" /></g>
<g><line x1="88.3371" y1="146.395" x2="90.8129" y2="149.247" class="gray" /></g>
<g><line x1="92.14" y1="152.801" x2="92.14" y2="156.312" class="gray" /></g>
<g><line x1="90.8141" y1="159.866" x2="88.3359" y2="162.726" class="gray" /></g>
<g><line x1="87.0662" y1="166.28" x2="87.1638" y2="169.793" class="gray" /></g>
<g><line x1="87.1638" y1="173.84" x2="87.0662" y2="177.353" class="gray" /></g>
<g><line x1="87.0662" y1="181.4" x2="87.1638" y2="184.913" class="gray" /></g>
<g><line x1="87.2762" y1="188.96" x2="87.3738" y2="192.473" class="gray" /></g>
<g><line x1="87.3177" y1="196.518" x2="87.1223" y2="200.035" class="gray" /></g>
<g><line x1="87.01" y1="204.081" x2="87.01" y2="207.592" class="gray" /></g>
<g><line x1="87.01" y1="211.641" x2="87.01" y2="215.152" class="gray" /></g>
<g><line x1="87.0662" y1="219.2" x2="87.1638" y2="222.713" class="gray" /></g>
<g><line x1="87.1638" y1="226.76" x2="87.0662" y2="230.273" class="gray" /></g>
<g><line x1="88.4689" y1="233.7" x2="91.1111" y2="236.243" class="gray" /></g>
<g><line x1="94.5946" y1="237.646" x2="98.1054" y2="237.646" class="gray" /></g>
<g><line x1="102.155" y1="237.646" x2="105.455" y2="237.646" class="gray" /></g>
<g><line x1="109.505" y1="237.646" x2="113.225" y2="237.646" class="gray" /></g>
<g><line x1="117.275" y1="237.646" x2="120.785" y2="237.646" class="gray" /></g>
<g><line x1="124.835" y1="237.646" x2="128.345" y2="237.646" class="gray" /></g>
<g><line x1="131.8" y1="236.213" x2="134.28" y2="233.729" class="gray" /></g>
<g><line x1="135.71" y1="230.272" x2="135.71" y2="226.761" class="gray" /></g>
<g><line x1="135.654" y1="222.713" x2="135.556" y2="219.2" class="gray" /></g>
<g><line x1="135.556" y1="215.153" x2="135.654" y2="211.64" class="gray" /></g>
<g><line x1="135.71" y1="207.592" x2="135.71" y2="204.081" class="gray" /></g>
<g><line x1="134.159" y1="200.755" x2="131.351" y2="198.398" class="gray" /></g>
<g><line x1="129.222" y1="195.156" x2="128.238" y2="191.857" class="gray" /></g>
<g><line x1="128.107" y1="187.942" x2="128.883" y2="184.511" class="gray" /></g>
<g><line x1="130.729" y1="181.073" x2="133.151" y2="178.54" class="gray" /></g>
<g><line x1="136.497" y1="176.52" x2="139.673" y2="175.613" class="gray" /></g>
<g><line x1="143.575" y1="175.583" x2="147.165" y2="176.55" class="gray" /></g>
<g><line x1="150.519" y1="178.54" x2="152.941" y2="181.073" class="gray" /></g>
<g><line x1="154.787" y1="184.511" x2="155.563" y2="187.942" class="gray" /></g>
<g><line x1="155.33" y1="191.823" x2="154.13" y2="195.189" class="gray" /></g>
<g><line x1="151.923" y1="198.425" x2="149.277" y2="200.727" class="gray" /></g>
<g><line x1="147.75" y1="204.081" x2="147.75" y2="207.592" class="gray" /></g>
<g><line x1="147.804" y1="211.64" x2="147.896" y2="215.152" class="gray" /></g>
<g><line x1="148.006" y1="219.2" x2="148.104" y2="222.713" class="gray" /></g>
<g><line x1="148.05" y1="226.758" x2="147.86" y2="230.275" class="gray" /></g>
<g><line x1="149.208" y1="233.701" x2="151.736" y2="236.139" class="gray" /></g>
<g><line x1="155.218" y1="237.544" x2="158.73" y2="237.544" class="gray" /></g>
<g><line x1="162.779" y1="237.544" x2="166.291" y2="237.544" class="gray" /></g>
<g><line x1="170.34" y1="237.544" x2="173.852" y2="237.544" class="gray" /></g>
<g><line x1="177.902" y1="237.544" x2="181.414" y2="237.544" class="gray" /></g>
<g><line x1="185.463" y1="237.544" x2="188.975" y2="237.544" class="gray" /></g>
</svg>
