<svg
	xmlns="http://www.w3.org/2000/svg"
	width="228.44"
	height="241.94">
<g><style type="text/css" >
<!-- create color definitions -->
<![CDATA[
circle.red {stroke: rgb(255, 0, 255); fill: none; }
circle.green {stroke: rgb(0, 255, 0); fill: none; }
circle.blue {stroke: rgb(0, 0, 255); fill: none; }
circle.black {stroke: rgb(0, 0, 0); fill: none; }
circle.gray {stroke: rgb(204, 204, 204); fill: none; }
circle.brown {stroke: rgb(211.65, 104.55, 30.6); fill: none; }
line.red {stroke: rgb(255, 0, 255); stroke-width: 0.381077; }
line.green {stroke: rgb(0, 255, 0); stroke-width: 0.381077; }
line.blue {stroke: rgb(0, 0, 255); stroke-width: 0.381077; }
line.black {stroke: rgb(0, 0, 0); stroke-width: 0.381077; }
line.gray {stroke: rgb(204, 204, 204); stroke-width: 0.381077; }
line.brown {stroke: rgb(211.65, 104.55, 30.6); stroke-width: 0.381077; }
line {stroke: rgb(0, 0, 0); }
text.red {fill: rgb(255, 0, 255); font-size: 3.048612px; font-weight: bold; font-family: Helvetica; }
text.green {fill: rgb(0, 255, 0); font-size: 3.048612px; font-weight: bold; font-family: Helvetica; }
text.blue {fill: rgb(0, 0, 255); font-size: 3.048612px; font-weight: bold; font-family: Helvetica; }
text.black {fill: rgb(0, 0, 0); font-size: 3.048612px; font-weight: bold; font-family: Helvetica; }
text.gray {fill: rgb(204, 204, 204); font-size: 3.048612px; font-weight: bold; font-family: Helvetica; }
text.brown {fill: rgb(211.65, 104.55, 30.6); font-size: 3.048612px; font-weight: bold; font-family: Helvetica; }
text {fill: rgb(0, 0, 0); font-size: 3.048612px; font-weight: bold; font-family: Helvetica; text-anchor: middle; alignment-baseline: middle; }

.pseudoknot_connection{stroke-linecap: round; stroke-opacity: 0.2; stroke-width: 1.5; }
.pseudoknot_segment1{stroke-linecap: round; stroke-opacity: 0.4; stroke-width: 3.04861; }
.pseudoknot_segment2{stroke-linecap: round; stroke-opacity: 0.4; stroke-width: 3.04861; }
line.numbering-line{stroke: rgb(204, 204, 204); stroke-width: 0.190538; }
line.predicted{stroke: rgb(0, 0, 0); stroke-dasharray: 2; }
polyline{fill: none; stroke-linejoin: round; }
template{visibility: hidden; }
text.numbering-label{fill: rgb(204, 204, 204); }
]]>
</style></g>
<g><title>0 (position.label in template: 0.5')</title><text x="111.84" y="194.146" class="green" >5'</text></g>
<g><title>1 (position.label in template: 1.G)</title><text x="112.05" y="186.59" class="black" >G</text></g>
<g><line x1="114.082" y1="186.285" x2="122.468" y2="186.285" class="black" /></g>
<g><title>2 (position.label in template: 2.C)</title><text x="112.26" y="179.03" class="black" >C</text></g>
<g><line x1="114.292" y1="178.725" x2="122.468" y2="178.725" class="black" /></g>
<g><title>3 (position.label in template: 3.C)</title><text x="112.26" y="171.47" class="black" >C</text></g>
<g><line x1="114.292" y1="171.165" x2="122.258" y2="171.165" class="black" /></g>
<g><title>4 (position.label in template: 4.A)</title><text x="112.47" y="163.91" class="green" >A</text></g>
<g><line x1="114.502" y1="163.605" x2="122.468" y2="163.605" class="black" /></g>
<g><title>5 (position.label in template: 5.C)</title><text x="112.26" y="156.35" class="black" >C</text></g>
<g><line x1="114.292" y1="156.045" x2="122.258" y2="156.045" class="black" /></g>
<g><title>6 (position.label in template: 6.A)</title><text x="112.47" y="148.79" class="black" >A</text></g>
<g><line x1="114.502" y1="148.485" x2="122.258" y2="148.485" class="black" /></g>
<g><title>7 (position.label in template: 7.G)</title><text x="112.05" y="141.23" class="black" >G</text></g>
<g><line x1="114.082" y1="140.925" x2="122.468" y2="140.925" class="black" /></g>
<g><title>8 (position.label in template: 8.U)</title><text x="105.44" y="137.97" class="green" >T</text></g>
<g><title>9 (position.label in template: 9.G)</title><text x="99.88" y="132.62" class="black" >G</text></g>
<g><title>10 (position.label in template: 10.G)</title><text x="96.62" y="125.8" class="black" >G</text></g>
<g><line x1="96.6549" y1="123.463" x2="96.7951" y2="115.287" class="black" /></g>
<g><text x="92.911" y="131.57" class="numbering-label sequential" >10</text></g>
<g><line x1="95.6309" y1="127.339" x2="93.8908" y2="130.046" class="numbering-line sequential" /></g>
<g><title>11 (position.label in template: 11.U)</title><text x="89.27" y="125.8" class="green" >T</text></g>
<g><line x1="89.3049" y1="123.463" x2="89.4451" y2="115.287" class="black" /></g>
<g><title>12 (position.label in template: 12.C)</title><text x="81.71" y="125.8" class="black" >C</text></g>
<g><line x1="81.7449" y1="123.463" x2="81.8851" y2="115.287" class="black" /></g>
<g><title>13 (position.label in template: 13.U)</title><text x="74.15" y="125.8" class="green" >T</text></g>
<g><line x1="74.1151" y1="123.463" x2="73.9749" y2="115.287" class="black" /></g>
<g><title>14 (position.label in template: 14.A)</title><text x="69.02" y="131.16" class="black" >A</text></g>
<g><title>15 (position.label in template: 15.G)</title><text x="61.19" y="132.64" class="black" >G</text></g>
<g><title>16 (position.label in template: 16.C)</title><text x="54.41" y="129.75" class="black" >C</text></g>
<g><title>17 (position.label in template: 17.G)</title><text x="50" y="123.46" class="black" >G</text></g>
<g><title>18 (position.label in template: 18.G)</title><text x="50" y="115.9" class="black" >G</text></g>
<g><title>19 (position.label in template: 19.U)</title><text x="54.41" y="109.62" class="green" >T</text></g>
<g><title>20 (position.label in template: 20.C)</title><text x="61.4" y="106.73" class="black" >C</text></g>
<g><text x="60.7411" y="99.9023" class="numbering-label sequential" >20</text></g>
<g><line x1="61.2243" y1="104.909" x2="60.8882" y2="101.427" class="numbering-line sequential" /></g>
<g><title>21 (position.label in template: 21.A)</title><text x="69.02" y="108.21" class="black" >A</text></g>
<g><title>22 (position.label in template: 22.G)</title><text x="73.94" y="113.56" class="green" >G</text></g>
<g><title>23 (position.label in template: 23.A)</title><text x="81.92" y="113.56" class="black" >A</text></g>
<g><title>24 (position.label in template: 24.A)</title><text x="89.48" y="113.56" class="green" >A</text></g>
<g><title>25 (position.label in template: 25.C)</title><text x="96.83" y="113.56" class="black" >C</text></g>
<g><title>26 (position.label in template: 26.G)</title><text x="99.88" y="106.75" class="black" >G</text></g>
<g><title>27 (position.label in template: 27.C)</title><text x="105.44" y="101.4" class="black" >C</text></g>
<g><line x1="107.353" y1="100.408" x2="114.857" y2="97.7122" class="black" /></g>
<g><title>28 (position.label in template: 28.U)</title><text x="102.92" y="94.27" class="green" >T</text></g>
<g><line x1="104.837" y1="93.2897" x2="112.553" y2="90.5706" class="black" /></g>
<g><title>29 (position.label in template: 29.A)</title><text x="100.62" y="87.14" class="black" >A</text></g>
<g><line x1="102.533" y1="86.148" x2="110.037" y2="83.4522" class="black" /></g>
<g><title>30 (position.label in template: 30.G)</title><text x="97.69" y="80.01" class="black" >G</text></g>
<g><line x1="99.6105" y1="79.0399" x2="107.52" y2="76.3004" class="black" /></g>
<g><text x="91.2515" y="82.3759" class="numbering-label sequential" >30</text></g>
<g><line x1="95.9731" y1="80.6409" x2="93.0807" y2="81.7037" class="numbering-line sequential" /></g>
<g><title>31 (position.label in template: 31.C)</title><text x="95.38" y="72.88" class="green" >C</text></g>
<g><line x1="97.2967" y1="71.8991" x2="105.003" y2="69.1811" class="black" /></g>
<g><title>32 (position.label in template: 32.C)</title><text x="88.85" y="69.07" class="black" >C</text></g>
<g><title>33 (position.label in template: 33.U)</title><text x="85.96" y="62.08" class="green" >T</text></g>
<g><title>34 (position.label in template: 34.U)</title><text x="87.88" y="54.77" class="green" >T</text></g>
<g><title>35 (position.label in template: 35.G)</title><text x="93.63" y="50.11" class="black" >G</text></g>
<g><title>36 (position.label in template: 36.U)</title><text x="101.4" y="50" class="green" >T</text></g>
<g><title>37 (position.label in template: 37.A)</title><text x="107.69" y="54.49" class="black" >A</text></g>
<g><title>38 (position.label in template: 38.A)</title><text x="109.82" y="61.75" class="black" >A</text></g>
<g><title>39 (position.label in template: 39.U)</title><text x="106.92" y="68.81" class="green" >T</text></g>
<g><title>40 (position.label in template: 40.C)</title><text x="109.44" y="75.94" class="black" >C</text></g>
<g><title>41 (position.label in template: 41.C)</title><text x="111.95" y="83.07" class="black" >C</text></g>
<g><title>42 (position.label in template: 42.U)</title><text x="114.47" y="90.2" class="green" >T</text></g>
<g><title>43 (position.label in template: 43.G)</title><text x="116.77" y="97.33" class="black" >G</text></g>
<g><title>44 (position.label in template: 44.G)</title><text x="124.29" y="98.14" class="black" >G</text></g>
<g><title>45 (position.label in template: 45.G)</title><text x="131.11" y="101.4" class="black" >G</text></g>
<g><title>46 (position.label in template: 46.A)</title><text x="136.87" y="106.75" class="black" >A</text></g>
<g><title>47 (position.label in template: 47.U)</title><text x="139.93" y="113.56" class="green" >T</text></g>
<g><title>48 (position.label in template: 48.C)</title><text x="140.74" y="121.08" class="black" >C</text></g>
<g><title>49 (position.label in template: 49.U)</title><text x="139" y="128.44" class="green" >T</text></g>
<g><line x1="137.704" y1="129.701" x2="132.406" y2="136.1" class="black" /></g>
<g><title>50 (position.label in template: 50.C)</title><text x="144.89" y="133.18" class="black" >C</text></g>
<g><line x1="143.594" y1="134.441" x2="138.296" y2="140.84" class="black" /></g>
<g><text x="149.242" y="127.878" class="numbering-label sequential" >50</text></g>
<g><line x1="146.051" y1="131.766" x2="147.991" y2="129.403" class="numbering-line sequential" /></g>
<g><title>51 (position.label in template: 51.G)</title><text x="150.56" y="137.93" class="black" >G</text></g>
<g><line x1="149.306" y1="139.225" x2="144.344" y2="145.556" class="black" /></g>
<g><title>52 (position.label in template: 52.G)</title><text x="156.45" y="142.67" class="black" >G</text></g>
<g><line x1="155.196" y1="143.965" x2="150.234" y2="150.296" class="black" /></g>
<g><title>53 (position.label in template: 53.G)</title><text x="162.34" y="147.41" class="black" >G</text></g>
<g><line x1="161.086" y1="148.705" x2="156.124" y2="155.036" class="black" /></g>
<g><title>54 (position.label in template: 54.U)</title><text x="170.1" y="147.22" class="green" >T</text></g>
<g><title>55 (position.label in template: 55.U)</title><text x="176.24" y="151.65" class="green" >T</text></g>
<g><title>56 (position.label in template: 56.C)</title><text x="178.44" y="158.88" class="black" >C</text></g>
<g><title>57 (position.label in template: 57.G)</title><text x="175.62" y="165.97" class="black" >G</text></g>
<g><title>58 (position.label in template: 58.A)</title><text x="169.66" y="170.04" class="black" >A</text></g>
<g><title>59 (position.label in template: 59.U)</title><text x="161.92" y="169.42" class="green" >T</text></g>
<g><title>60 (position.label in template: 60.U)</title><text x="156.29" y="164.37" class="green" >T</text></g>
<g><title>61 (position.label in template: 61.C)</title><text x="154.87" y="156.94" class="black" >C</text></g>
<g><title>62 (position.label in template: 62.C)</title><text x="148.98" y="152.2" class="black" >C</text></g>
<g><title>63 (position.label in template: 63.C)</title><text x="143.09" y="147.46" class="black" >C</text></g>
<g><title>64 (position.label in template: 64.G)</title><text x="137" y="142.71" class="black" >G</text></g>
<g><title>65 (position.label in template: 65.G)</title><text x="131.11" y="137.97" class="green" >G</text></g>
<g><title>66 (position.label in template: 66.C)</title><text x="124.5" y="141.23" class="black" >C</text></g>
<g><title>67 (position.label in template: 67.G)</title><text x="124.29" y="148.79" class="black" >G</text></g>
<g><title>68 (position.label in template: 68.G)</title><text x="124.29" y="156.35" class="black" >G</text></g>
<g><title>69 (position.label in template: 69.U)</title><text x="124.5" y="163.91" class="green" >T</text></g>
<g><title>70 (position.label in template: 70.G)</title><text x="124.29" y="171.47" class="black" >G</text></g>
<g><title>71 (position.label in template: 71.C)</title><text x="124.5" y="179.03" class="black" >C</text></g>
<g><title>72 (position.label in template: 72.C)</title><text x="124.5" y="186.59" class="black" >C</text></g>
<g><title>73 (position.label in template: 73.C)</title><text x="129.84" y="191.94" class="black" >C</text></g>
<g><title>74 (position.label in template: 74.3')</title><text x="124.607" y="197.394" class="green" >3'</text></g>
<g><line x1="111.897" y1="191.809" x2="111.994" y2="188.317" class="gray" /></g>
<g><line x1="112.106" y1="184.254" x2="112.204" y2="180.757" class="gray" /></g>
<g><line x1="112.26" y1="176.693" x2="112.26" y2="173.198" class="gray" /></g>
<g><line x1="112.316" y1="169.134" x2="112.414" y2="165.637" class="gray" /></g>
<g><line x1="112.414" y1="161.574" x2="112.316" y2="158.077" class="gray" /></g>
<g><line x1="112.316" y1="154.014" x2="112.414" y2="150.517" class="gray" /></g>
<g><line x1="112.357" y1="146.456" x2="112.163" y2="142.954" class="gray" /></g>
<g><line x1="110.227" y1="140.026" x2="107.263" y2="138.564" class="gray" /></g>
<g><line x1="103.975" y1="136.256" x2="101.345" y2="133.724" class="gray" /></g>
<g><line x1="99.0035" y1="130.481" x2="97.4965" y2="127.329" class="gray" /></g>
<g><line x1="94.5876" y1="125.495" x2="91.3024" y2="125.495" class="gray" /></g>
<g><line x1="87.2376" y1="125.495" x2="83.7424" y2="125.495" class="gray" /></g>
<g><line x1="79.6776" y1="125.495" x2="76.1824" y2="125.495" class="gray" /></g>
<g><line x1="72.7447" y1="126.963" x2="70.4253" y2="129.387" class="gray" /></g>
<g><line x1="67.023" y1="131.233" x2="63.187" y2="131.958" class="gray" /></g>
<g><line x1="59.3204" y1="131.538" x2="56.2796" y2="130.242" class="gray" /></g>
<g><line x1="53.2432" y1="127.781" x2="51.1668" y2="124.819" class="gray" /></g>
<g><line x1="50" y1="121.123" x2="50" y2="117.628" class="gray" /></g>
<g><line x1="51.168" y1="113.932" x2="53.242" y2="110.978" class="gray" /></g>
<g><line x1="56.2882" y1="108.539" x2="59.5218" y2="107.202" class="gray" /></g>
<g><line x1="63.3951" y1="106.813" x2="67.0249" y2="107.518" class="gray" /></g>
<g><line x1="70.3958" y1="109.401" x2="72.5642" y2="111.759" class="gray" /></g>
<g><line x1="75.9724" y1="113.255" x2="79.8876" y2="113.255" class="gray" /></g>
<g><line x1="83.9524" y1="113.255" x2="87.4476" y2="113.255" class="gray" /></g>
<g><line x1="91.5124" y1="113.255" x2="94.7976" y2="113.255" class="gray" /></g>
<g><line x1="97.6607" y1="111.4" x2="99.0493" y2="108.3" class="gray" /></g>
<g><line x1="101.345" y1="105.036" x2="103.975" y2="102.504" class="gray" /></g>
<g><line x1="104.763" y1="99.1789" x2="103.597" y2="95.8814" class="gray" /></g>
<g><line x1="102.296" y1="92.0309" x2="101.244" y2="88.7694" class="gray" /></g>
<g><line x1="99.8475" y1="84.9553" x2="98.4625" y2="81.585" class="gray" /></g>
<g><line x1="97.0636" y1="77.7717" x2="96.0064" y2="74.5086" class="gray" /></g>
<g><line x1="93.6245" y1="71.5509" x2="90.6055" y2="69.7894" class="gray" /></g>
<g><line x1="88.0735" y1="66.8869" x2="86.7365" y2="63.6533" class="gray" /></g>
<g><line x1="86.4763" y1="59.8094" x2="87.3637" y2="56.4309" class="gray" /></g>
<g><line x1="89.459" y1="53.1855" x2="92.051" y2="51.0848" class="gray" /></g>
<g><line x1="95.6622" y1="49.7764" x2="99.3678" y2="49.7239" class="gray" /></g>
<g><line x1="103.054" y1="50.876" x2="106.036" y2="53.0043" class="gray" /></g>
<g><line x1="108.262" y1="56.1353" x2="109.248" y2="59.4949" class="gray" /></g>
<g><line x1="109.048" y1="63.3251" x2="107.692" y2="66.6252" class="gray" /></g>
<g><line x1="107.597" y1="70.4214" x2="108.763" y2="73.7189" class="gray" /></g>
<g><line x1="110.115" y1="77.5522" x2="111.275" y2="80.8481" class="gray" /></g>
<g><line x1="112.627" y1="84.6814" x2="113.793" y2="87.9789" class="gray" /></g>
<g><line x1="115.094" y1="91.8294" x2="116.146" y2="95.0909" class="gray" /></g>
<g><line x1="118.791" y1="97.2428" x2="122.269" y2="97.6175" class="gray" /></g>
<g><line x1="126.124" y1="98.7117" x2="129.276" y2="100.219" class="gray" /></g>
<g><line x1="132.599" y1="102.478" x2="135.381" y2="105.062" class="gray" /></g>
<g><line x1="137.703" y1="108.299" x2="139.097" y2="111.401" class="gray" /></g>
<g><line x1="140.148" y1="115.276" x2="140.522" y2="118.754" class="gray" /></g>
<g><line x1="140.272" y1="122.753" x2="139.468" y2="126.157" class="gray" /></g>
<g><line x1="140.583" y1="129.409" x2="143.307" y2="131.601" class="gray" /></g>
<g><line x1="146.448" y1="134.18" x2="149.002" y2="136.32" class="gray" /></g>
<g><line x1="152.143" y1="138.899" x2="154.867" y2="141.091" class="gray" /></g>
<g><line x1="158.033" y1="143.639" x2="160.757" y2="145.831" class="gray" /></g>
<g><line x1="164.372" y1="147.055" x2="168.068" y2="146.965" class="gray" /></g>
<g><line x1="171.748" y1="148.104" x2="174.592" y2="150.156" class="gray" /></g>
<g><line x1="176.832" y1="153.29" x2="177.848" y2="156.631" class="gray" /></g>
<g><line x1="177.689" y1="160.464" x2="176.371" y2="163.777" class="gray" /></g>
<g><line x1="173.942" y1="166.811" x2="171.338" y2="168.589" class="gray" /></g>
<g><line x1="167.634" y1="169.573" x2="163.946" y2="169.277" class="gray" /></g>
<g><line x1="160.407" y1="167.758" x2="157.803" y2="165.422" class="gray" /></g>
<g><line x1="155.908" y1="162.069" x2="155.252" y2="158.631" class="gray" /></g>
<g><line x1="153.287" y1="155.361" x2="150.563" y2="153.169" class="gray" /></g>
<g><line x1="147.397" y1="150.621" x2="144.673" y2="148.429" class="gray" /></g>
<g><line x1="141.487" y1="145.905" x2="138.603" y2="143.655" class="gray" /></g>
<g><line x1="135.417" y1="141.131" x2="132.693" y2="138.939" class="gray" /></g>
<g><line x1="129.287" y1="138.564" x2="126.323" y2="140.026" class="gray" /></g>
<g><line x1="124.444" y1="142.957" x2="124.346" y2="146.454" class="gray" /></g>
<g><line x1="124.29" y1="150.518" x2="124.29" y2="154.013" class="gray" /></g>
<g><line x1="124.346" y1="158.077" x2="124.444" y2="161.574" class="gray" /></g>
<g><line x1="124.444" y1="165.637" x2="124.346" y2="169.134" class="gray" /></g>
<g><line x1="124.346" y1="173.197" x2="124.444" y2="176.694" class="gray" /></g>
<g><line x1="124.5" y1="180.758" x2="124.5" y2="184.253" class="gray" /></g>
<g><line x1="125.936" y1="187.724" x2="128.404" y2="190.197" class="gray" /></g>
<g><line x1="128.433" y1="193.102" x2="126.014" y2="195.623" class="gray" /></g>
</svg>
