<svg
	xmlns="http://www.w3.org/2000/svg"
	width="268.211"
	height="296.703">
<g><style type="text/css" >
<!-- create color definitions -->
<![CDATA[
circle.red {stroke: rgb(255, 0, 255); fill: none; }
circle.green {stroke: rgb(0, 255, 0); fill: none; }
circle.blue {stroke: rgb(0, 0, 255); fill: none; }
circle.black {stroke: rgb(0, 0, 0); fill: none; }
circle.gray {stroke: rgb(204, 204, 204); fill: none; }
circle.brown {stroke: rgb(211.65, 104.55, 30.6); fill: none; }
line.red {stroke: rgb(255, 0, 255); stroke-width: 0.3825; }
line.green {stroke: rgb(0, 255, 0); stroke-width: 0.3825; }
line.blue {stroke: rgb(0, 0, 255); stroke-width: 0.3825; }
line.black {stroke: rgb(0, 0, 0); stroke-width: 0.3825; }
line.gray {stroke: rgb(204, 204, 204); stroke-width: 0.3825; }
line.brown {stroke: rgb(211.65, 104.55, 30.6); stroke-width: 0.3825; }
line {stroke: rgb(0, 0, 0); }
text.red {fill: rgb(255, 0, 255); font-size: 3.060000px; font-weight: bold; font-family: Helvetica; }
text.green {fill: rgb(0, 255, 0); font-size: 3.060000px; font-weight: bold; font-family: Helvetica; }
text.blue {fill: rgb(0, 0, 255); font-size: 3.060000px; font-weight: bold; font-family: Helvetica; }
text.black {fill: rgb(0, 0, 0); font-size: 3.060000px; font-weight: bold; font-family: Helvetica; }
text.gray {fill: rgb(204, 204, 204); font-size: 3.060000px; font-weight: bold; font-family: Helvetica; }
text.brown {fill: rgb(211.65, 104.55, 30.6); font-size: 3.060000px; font-weight: bold; font-family: Helvetica; }
text {fill: rgb(0, 0, 0); font-size: 3.060000px; font-weight: bold; font-family: Helvetica; text-anchor: middle; alignment-baseline: middle; }

.pseudoknot_connection{stroke-linecap: round; stroke-opacity: 0.2; stroke-width: 1.5; }
.pseudoknot_segment1{stroke-linecap: round; stroke-opacity: 0.4; stroke-width: 3.06; }
.pseudoknot_segment2{stroke-linecap: round; stroke-opacity: 0.4; stroke-width: 3.06; }
line.numbering-line{stroke: rgb(204, 204, 204); stroke-width: 0.19125; }
line.predicted{stroke: rgb(0, 0, 0); stroke-dasharray: 2; }
polyline{fill: none; stroke-linejoin: round; }
template{visibility: hidden; }
text.numbering-label{fill: rgb(204, 204, 204); }
]]>
</style></g>
<g><title>0 (position.label in template: 0.5')</title><text x="46.3523" y="252.156" class="green" >5'</text></g>
<g><title>1 (position.label in template: 1.A)</title><text x="51.5912" y="246.703" class="black" >A</text></g>
<g><title>2 (position.label in template: 2.U)</title><text x="56.83" y="241.25" class="green" >T</text></g>
<g><line x1="58.87" y1="240.944" x2="67.24" y2="240.944" class="black" /></g>
<g><title>3 (position.label in template: 3.C)</title><text x="56.83" y="233.69" class="black" >C</text></g>
<g><line x1="58.87" y1="233.384" x2="66.82" y2="233.384" class="black" /></g>
<g><title>4 (position.label in template: 4.G)</title><text x="56.62" y="226.13" class="black" >G</text></g>
<g><line x1="58.66" y1="225.824" x2="67.03" y2="225.824" class="black" /></g>
<g><title>5 (position.label in template: 5.A)</title><text x="57.04" y="218.57" class="green" >A</text></g>
<g><line x1="59.08" y1="218.264" x2="67.03" y2="218.264" class="black" /></g>
<g><title>6 (position.label in template: 6.G)</title><text x="56.62" y="211.01" class="black" >G</text></g>
<g><line x1="58.66" y1="210.704" x2="67.03" y2="210.704" class="black" /></g>
<g><title>7 (position.label in template: 7.G)</title><text x="56.62" y="203.45" class="green" >G</text></g>
<g><line x1="58.66" y1="203.144" x2="67.03" y2="203.144" class="black" /></g>
<g><title>8 (position.label in template: 8.C)</title><text x="56.83" y="195.89" class="black" >C</text></g>
<g><line x1="58.87" y1="195.584" x2="66.82" y2="195.584" class="black" /></g>
<g><title>9 (position.label in template: 9.U)</title><text x="56.83" y="188.33" class="green" >T</text></g>
<g><line x1="58.87" y1="188.024" x2="67.24" y2="188.024" class="black" /></g>
<g><title>10 (position.label in template: 10.G)</title><text x="51.92" y="182.42" class="black" >G</text></g>
<g><text x="45.4513" y="184.778" class="numbering-label sequential" >10</text></g>
<g><line x1="50.195" y1="183.049" x2="47.2873" y2="184.109" class="numbering-line sequential" /></g>
<g><title>11 (position.label in template: 11.G)</title><text x="51.92" y="174.86" class="black" >G</text></g>
<g><title>12 (position.label in template: 12.A)</title><text x="57.04" y="168.94" class="black" >A</text></g>
<g><line x1="59.08" y1="168.634" x2="66.82" y2="168.634" class="black" /></g>
<g><title>13 (position.label in template: 13.G)</title><text x="56.62" y="161.38" class="black" >G</text></g>
<g><line x1="58.66" y1="161.074" x2="67.03" y2="161.074" class="black" /></g>
<g><title>14 (position.label in template: 14.U)</title><text x="50.28" y="157.6" class="green" >T</text></g>
<g><title>15 (position.label in template: 15.C)</title><text x="56.83" y="153.82" class="black" >C</text></g>
<g><line x1="58.87" y1="153.514" x2="66.82" y2="153.514" class="black" /></g>
<g><title>16 (position.label in template: 16.A)</title><text x="57.04" y="146.26" class="green" >A</text></g>
<g><line x1="59.08" y1="145.954" x2="67.03" y2="145.954" class="black" /></g>
<g><title>17 (position.label in template: 17.C)</title><text x="56.83" y="138.7" class="black" >C</text></g>
<g><line x1="58.87" y1="138.394" x2="66.82" y2="138.394" class="black" /></g>
<g><title>18 (position.label in template: 18.A)</title><text x="57.04" y="131.14" class="green" >A</text></g>
<g><line x1="59.08" y1="130.834" x2="67.03" y2="130.834" class="black" /></g>
<g><title>19 (position.label in template: 19.C)</title><text x="56.83" y="123.58" class="black" >C</text></g>
<g><line x1="58.87" y1="123.274" x2="66.82" y2="123.274" class="black" /></g>
<g><title>20 (position.label in template: 20.U)</title><text x="56.83" y="116.02" class="green" >T</text></g>
<g><line x1="58.87" y1="115.714" x2="67.24" y2="115.714" class="black" /></g>
<g><text x="50.3303" y="118.291" class="numbering-label sequential" >20</text></g>
<g><line x1="55.0968" y1="116.626" x2="52.1663" y2="117.65" class="numbering-line sequential" /></g>
<g><title>21 (position.label in template: 21.U)</title><text x="52.12" y="110.1" class="green" >T</text></g>
<g><title>22 (position.label in template: 22.G)</title><text x="51.92" y="102.54" class="black" >G</text></g>
<g><title>23 (position.label in template: 23.G)</title><text x="56.62" y="96.63" class="black" >G</text></g>
<g><line x1="58.66" y1="96.324" x2="67.03" y2="96.324" class="black" /></g>
<g><title>24 (position.label in template: 24.G)</title><text x="56.62" y="89.07" class="black" >G</text></g>
<g><line x1="58.66" y1="88.764" x2="67.03" y2="88.764" class="black" /></g>
<g><title>25 (position.label in template: 25.U)</title><text x="56.83" y="81.51" class="green" >T</text></g>
<g><line x1="58.87" y1="81.204" x2="66.82" y2="81.204" class="black" /></g>
<g><title>26 (position.label in template: 26.A)</title><text x="57.04" y="73.95" class="green" >A</text></g>
<g><line x1="59.08" y1="73.644" x2="67.03" y2="73.644" class="black" /></g>
<g><title>27 (position.label in template: 27.U)</title><text x="51.48" y="68.61" class="green" >T</text></g>
<g><title>28 (position.label in template: 28.C)</title><text x="50" y="61.19" class="black" >C</text></g>
<g><title>29 (position.label in template: 29.A)</title><text x="53.09" y="54.21" class="black" >A</text></g>
<g><title>30 (position.label in template: 30.G)</title><text x="58.96" y="50" class="black" >G</text></g>
<g><text x="56.9295" y="43.4212" class="numbering-label sequential" >30</text></g>
<g><line x1="58.4185" y1="48.2457" x2="57.4017" y2="44.9512" class="numbering-line sequential" /></g>
<g><title>31 (position.label in template: 31.C)</title><text x="66.73" y="50" class="black" >C</text></g>
<g><title>32 (position.label in template: 32.U)</title><text x="73.02" y="54.21" class="green" >T</text></g>
<g><title>33 (position.label in template: 33.A)</title><text x="76.11" y="61.19" class="black" >A</text></g>
<g><title>34 (position.label in template: 34.U)</title><text x="74.42" y="68.61" class="green" >T</text></g>
<g><title>35 (position.label in template: 35.U)</title><text x="69.07" y="73.95" class="green" >T</text></g>
<g><title>36 (position.label in template: 36.G)</title><text x="68.86" y="81.51" class="green" >G</text></g>
<g><title>37 (position.label in template: 37.C)</title><text x="69.07" y="89.07" class="black" >C</text></g>
<g><title>38 (position.label in template: 38.C)</title><text x="69.07" y="96.63" class="black" >C</text></g>
<g><title>39 (position.label in template: 39.U)</title><text x="73.78" y="102.54" class="green" >T</text></g>
<g><title>40 (position.label in template: 40.U)</title><text x="73.78" y="110.1" class="green" >T</text></g>
<g><title>41 (position.label in template: 41.A)</title><text x="69.28" y="116.02" class="green" >A</text></g>
<g><title>42 (position.label in template: 42.G)</title><text x="68.86" y="123.58" class="black" >G</text></g>
<g><title>43 (position.label in template: 43.U)</title><text x="69.07" y="131.14" class="green" >T</text></g>
<g><title>44 (position.label in template: 44.G)</title><text x="68.86" y="138.7" class="black" >G</text></g>
<g><title>45 (position.label in template: 45.U)</title><text x="69.07" y="146.26" class="green" >T</text></g>
<g><title>46 (position.label in template: 46.G)</title><text x="68.86" y="153.82" class="black" >G</text></g>
<g><title>47 (position.label in template: 47.C)</title><text x="69.07" y="161.38" class="black" >C</text></g>
<g><title>48 (position.label in template: 48.G)</title><text x="68.86" y="168.94" class="black" >G</text></g>
<g><title>49 (position.label in template: 49.A)</title><text x="73.98" y="174.86" class="black" >A</text></g>
<g><title>50 (position.label in template: 50.G)</title><text x="73.57" y="182.42" class="black" >G</text></g>
<g><text x="80.0706" y="184.688" class="numbering-label sequential" >50</text></g>
<g><line x1="75.3035" y1="183.025" x2="78.2346" y2="184.048" class="numbering-line sequential" /></g>
<g><title>51 (position.label in template: 51.A)</title><text x="69.28" y="188.33" class="green" >A</text></g>
<g><title>52 (position.label in template: 52.G)</title><text x="68.86" y="195.89" class="black" >G</text></g>
<g><title>53 (position.label in template: 53.U)</title><text x="69.07" y="203.45" class="green" >T</text></g>
<g><title>54 (position.label in template: 54.C)</title><text x="75.62" y="207.23" class="black" >C</text></g>
<g><title>55 (position.label in template: 55.C)</title><text x="69.07" y="211.01" class="black" >C</text></g>
<g><title>56 (position.label in template: 56.U)</title><text x="69.07" y="218.57" class="green" >T</text></g>
<g><title>57 (position.label in template: 57.C)</title><text x="69.07" y="226.13" class="black" >C</text></g>
<g><title>58 (position.label in template: 58.G)</title><text x="68.86" y="233.69" class="black" >G</text></g>
<g><title>59 (position.label in template: 59.A)</title><text x="69.28" y="241.25" class="green" >A</text></g>
<g><title>60 (position.label in template: 60.A)</title><text x="74.62" y="246.6" class="black" >A</text></g>
<g><title>61 (position.label in template: 61.G)</title><text x="81.77" y="246.6" class="black" >G</text></g>
<g><title>62 (position.label in template: 62.A)</title><text x="89.74" y="246.6" class="black" >A</text></g>
<g><title>63 (position.label in template: 63.G)</title><text x="96.89" y="246.6" class="black" >G</text></g>
<g><title>64 (position.label in template: 64.U)</title><text x="104.66" y="246.6" class="green" >T</text></g>
<g><title>65 (position.label in template: 65.C)</title><text x="112.22" y="246.6" class="black" >C</text></g>
<g><title>66 (position.label in template: 66.A)</title><text x="119.98" y="246.6" class="black" >A</text></g>
<g><title>67 (position.label in template: 67.C)</title><text x="127.34" y="246.6" class="black" >C</text></g>
<g><title>68 (position.label in template: 68.U)</title><text x="134.9" y="246.6" class="green" >T</text></g>
<g><title>69 (position.label in template: 69.G)</title><text x="142.25" y="246.6" class="black" >G</text></g>
<g><title>70 (position.label in template: 70.C)</title><text x="147.8" y="241.25" class="black" >C</text></g>
<g><line x1="149.84" y1="240.944" x2="157.79" y2="240.944" class="black" /></g>
<g><title>71 (position.label in template: 71.G)</title><text x="147.59" y="233.69" class="black" >G</text></g>
<g><line x1="149.63" y1="233.384" x2="158.21" y2="233.384" class="black" /></g>
<g><title>72 (position.label in template: 72.A)</title><text x="148.01" y="226.13" class="green" >A</text></g>
<g><line x1="150.05" y1="225.824" x2="158" y2="225.824" class="black" /></g>
<g><title>73 (position.label in template: 73.A)</title><text x="148.01" y="218.57" class="green" >A</text></g>
<g><line x1="150.05" y1="218.264" x2="158" y2="218.264" class="black" /></g>
<g><title>74 (position.label in template: 74.C)</title><text x="147.8" y="211.01" class="black" >C</text></g>
<g><line x1="149.84" y1="210.704" x2="157.79" y2="210.704" class="black" /></g>
<g><title>75 (position.label in template: 75.C)</title><text x="147.8" y="203.45" class="black" >C</text></g>
<g><line x1="149.84" y1="203.144" x2="157.79" y2="203.144" class="black" /></g>
<g><title>76 (position.label in template: 76.U)</title><text x="147.8" y="195.89" class="green" >T</text></g>
<g><line x1="149.84" y1="195.584" x2="158.21" y2="195.584" class="black" /></g>
<g><title>77 (position.label in template: 77.U)</title><text x="140.64" y="193.46" class="green" >T</text></g>
<g><title>78 (position.label in template: 78.A)</title><text x="136.45" y="187.32" class="black" >A</text></g>
<g><title>79 (position.label in template: 79.U)</title><text x="136.24" y="179.76" class="green" >T</text></g>
<g><title>80 (position.label in template: 80.C)</title><text x="140.64" y="173.61" class="black" >C</text></g>
<g><title>81 (position.label in template: 81.C)</title><text x="147.8" y="171.18" class="black" >C</text></g>
<g><line x1="149.84" y1="170.874" x2="158" y2="170.874" class="black" /></g>
<g><title>82 (position.label in template: 82.A)</title><text x="148.01" y="163.62" class="green" >A</text></g>
<g><line x1="150.05" y1="163.314" x2="158" y2="163.314" class="black" /></g>
<g><title>83 (position.label in template: 83.U)</title><text x="147.8" y="156.06" class="green" >T</text></g>
<g><line x1="149.84" y1="155.754" x2="157.79" y2="155.754" class="black" /></g>
<g><title>84 (position.label in template: 84.G)</title><text x="147.59" y="148.5" class="black" >G</text></g>
<g><line x1="149.63" y1="148.194" x2="158.21" y2="148.194" class="black" /></g>
<g><title>85 (position.label in template: 85.G)</title><text x="147.59" y="140.94" class="black" >G</text></g>
<g><line x1="149.63" y1="140.634" x2="158" y2="140.634" class="black" /></g>
<g><title>86 (position.label in template: 86.G)</title><text x="147.59" y="133.38" class="green" >G</text></g>
<g><line x1="149.63" y1="133.074" x2="158" y2="133.074" class="black" /></g>
<g><title>87 (position.label in template: 87.C)</title><text x="144.7" y="126.49" class="black" >C</text></g>
<g><title>88 (position.label in template: 88.U)</title><text x="147.8" y="119.59" class="green" >T</text></g>
<g><line x1="149.84" y1="119.284" x2="158.21" y2="119.284" class="black" /></g>
<g><title>89 (position.label in template: 89.G)</title><text x="147.59" y="112.03" class="green" >G</text></g>
<g><line x1="149.63" y1="111.724" x2="158" y2="111.724" class="black" /></g>
<g><title>90 (position.label in template: 90.U)</title><text x="147.8" y="104.47" class="green" >T</text></g>
<g><line x1="149.84" y1="104.164" x2="158.21" y2="104.164" class="black" /></g>
<g><title>91 (position.label in template: 91.G)</title><text x="147.59" y="96.91" class="black" >G</text></g>
<g><line x1="149.63" y1="96.604" x2="158" y2="96.604" class="black" /></g>
<g><title>92 (position.label in template: 92.G)</title><text x="147.59" y="89.35" class="black" >G</text></g>
<g><line x1="149.63" y1="89.044" x2="157.79" y2="89.044" class="black" /></g>
<g><title>93 (position.label in template: 93.C)</title><text x="147.8" y="81.79" class="black" >C</text></g>
<g><line x1="149.84" y1="81.484" x2="157.79" y2="81.484" class="black" /></g>
<g><title>94 (position.label in template: 94.C)</title><text x="143.54" y="75.55" class="black" >C</text></g>
<g><title>95 (position.label in template: 95.C)</title><text x="144.47" y="68.05" class="black" >C</text></g>
<g><title>96 (position.label in template: 96.U)</title><text x="150.14" y="63.04" class="green" >T</text></g>
<g><title>97 (position.label in template: 97.C)</title><text x="157.7" y="63.04" class="black" >C</text></g>
<g><title>98 (position.label in template: 98.A)</title><text x="163.58" y="68.05" class="black" >A</text></g>
<g><title>99 (position.label in template: 99.U)</title><text x="164.31" y="75.55" class="green" >T</text></g>
<g><title>100 (position.label in template: 100.G)</title><text x="159.83" y="81.79" class="black" >G</text></g>
<g><text x="166.379" y="83.9159" class="numbering-label sequential" >100</text></g>
<g><line x1="161.576" y1="82.3569" x2="163.625" y2="83.0219" class="numbering-line sequential" /></g>
<g><title>101 (position.label in template: 101.G)</title><text x="159.83" y="89.35" class="black" >G</text></g>
<g><title>102 (position.label in template: 102.C)</title><text x="160.04" y="96.91" class="black" >C</text></g>
<g><title>103 (position.label in template: 103.A)</title><text x="160.25" y="104.47" class="green" >A</text></g>
<g><title>104 (position.label in template: 104.U)</title><text x="160.04" y="112.03" class="green" >T</text></g>
<g><title>105 (position.label in template: 105.A)</title><text x="160.25" y="119.59" class="green" >A</text></g>
<g><title>106 (position.label in template: 106.G)</title><text x="162.93" y="126.49" class="black" >G</text></g>
<g><title>107 (position.label in template: 107.U)</title><text x="160.04" y="133.38" class="green" >T</text></g>
<g><title>108 (position.label in template: 108.C)</title><text x="160.04" y="140.94" class="black" >C</text></g>
<g><title>109 (position.label in template: 109.A)</title><text x="160.25" y="148.5" class="black" >A</text></g>
<g><title>110 (position.label in template: 110.G)</title><text x="159.83" y="156.06" class="green" >G</text></g>
<g><title>111 (position.label in template: 111.U)</title><text x="160.04" y="163.62" class="green" >T</text></g>
<g><title>112 (position.label in template: 112.C)</title><text x="160.04" y="171.18" class="black" >C</text></g>
<g><title>113 (position.label in template: 113.A)</title><text x="165.84" y="176.27" class="black" >A</text></g>
<g><title>114 (position.label in template: 114.C)</title><text x="167.71" y="183.54" class="black" >C</text></g>
<g><title>115 (position.label in template: 115.C)</title><text x="165.64" y="190.81" class="black" >C</text></g>
<g><title>116 (position.label in template: 116.A)</title><text x="160.25" y="195.89" class="green" >A</text></g>
<g><title>117 (position.label in template: 117.G)</title><text x="159.83" y="203.45" class="black" >G</text></g>
<g><title>118 (position.label in template: 118.G)</title><text x="159.83" y="211.01" class="black" >G</text></g>
<g><title>119 (position.label in template: 119.U)</title><text x="160.04" y="218.57" class="green" >T</text></g>
<g><title>120 (position.label in template: 120.U)</title><text x="160.04" y="226.13" class="green" >T</text></g>
<g><title>121 (position.label in template: 121.A)</title><text x="160.25" y="233.69" class="black" >A</text></g>
<g><title>122 (position.label in template: 122.G)</title><text x="159.83" y="241.25" class="black" >G</text></g>
<g><title>123 (position.label in template: 123.U)</title><text x="165.279" y="246.493" class="green" >T</text></g>
<g><title>124 (position.label in template: 124.G)</title><text x="172.841" y="246.493" class="black" >G</text></g>
<g><title>125 (position.label in template: 125.A)</title><text x="180.402" y="246.493" class="black" >A</text></g>
<g><title>126 (position.label in template: 126.C)</title><text x="187.964" y="246.493" class="black" >C</text></g>
<g><title>127 (position.label in template: 127.G)</title><text x="195.526" y="246.493" class="black" >G</text></g>
<g><title>128 (position.label in template: 128.U)</title><text x="203.087" y="246.493" class="green" >T</text></g>
<g><title>129 (position.label in template: 129.G)</title><text x="210.649" y="246.493" class="black" >G</text></g>
<g><title>130 (position.label in template: 130.C)</title><text x="218.211" y="246.493" class="black" >C</text></g>
<g><title>131 (position.label in template: 131.3')</title><text x="225.772" y="246.493" class="green" >3'</text></g>
<g><line x1="47.7657" y1="250.379" x2="50.1778" y2="247.868" class="gray" /></g>
<g><line x1="53.0045" y1="244.926" x2="55.4167" y2="242.415" class="gray" /></g>
<g><line x1="56.83" y1="238.904" x2="56.83" y2="235.424" class="gray" /></g>
<g><line x1="56.7734" y1="231.345" x2="56.6766" y2="227.863" class="gray" /></g>
<g><line x1="56.7332" y1="223.787" x2="56.9268" y2="220.301" class="gray" /></g>
<g><line x1="56.9268" y1="216.227" x2="56.7332" y2="212.741" class="gray" /></g>
<g><line x1="56.62" y1="208.664" x2="56.62" y2="205.184" class="gray" /></g>
<g><line x1="56.6766" y1="201.105" x2="56.7734" y2="197.623" class="gray" /></g>
<g><line x1="56.83" y1="193.544" x2="56.83" y2="190.064" class="gray" /></g>
<g><line x1="55.5264" y1="186.455" x2="53.2236" y2="183.683" class="gray" /></g>
<g><line x1="51.92" y1="180.074" x2="51.92" y2="176.594" class="gray" /></g>
<g><line x1="53.2545" y1="173.011" x2="55.7055" y2="170.177" class="gray" /></g>
<g><line x1="56.9268" y1="166.597" x2="56.7332" y2="163.111" class="gray" /></g>
<g><line x1="54.8678" y1="160.029" x2="52.0322" y2="158.339" class="gray" /></g>
<g><line x1="52.0469" y1="156.274" x2="55.0631" y2="154.534" class="gray" /></g>
<g><line x1="56.8866" y1="151.475" x2="56.9834" y2="147.993" class="gray" /></g>
<g><line x1="56.9834" y1="143.915" x2="56.8866" y2="140.433" class="gray" /></g>
<g><line x1="56.8866" y1="136.355" x2="56.9834" y2="132.873" class="gray" /></g>
<g><line x1="56.9834" y1="128.795" x2="56.8866" y2="125.313" class="gray" /></g>
<g><line x1="56.83" y1="121.234" x2="56.83" y2="117.754" class="gray" /></g>
<g><line x1="55.5599" y1="114.118" x2="53.3901" y2="111.39" class="gray" /></g>
<g><line x1="52.0661" y1="107.755" x2="51.9739" y2="104.273" class="gray" /></g>
<g><line x1="53.1898" y1="100.637" x2="55.3502" y2="97.9207" class="gray" /></g>
<g><line x1="56.62" y1="94.284" x2="56.62" y2="90.804" class="gray" /></g>
<g><line x1="56.6766" y1="86.7248" x2="56.7734" y2="83.2432" class="gray" /></g>
<g><line x1="56.8866" y1="79.1648" x2="56.9834" y2="75.6832" class="gray" /></g>
<g><line x1="55.5687" y1="72.2309" x2="52.9513" y2="69.7171" class="gray" /></g>
<g><line x1="51.081" y1="66.3034" x2="50.399" y2="62.8846" class="gray" /></g>
<g><line x1="50.8258" y1="59.0186" x2="52.2642" y2="55.7694" class="gray" /></g>
<g><line x1="54.7477" y1="52.7151" x2="57.3023" y2="50.8829" class="gray" /></g>
<g><line x1="61" y1="49.694" x2="64.69" y2="49.694" class="gray" /></g>
<g><line x1="68.4253" y1="50.8287" x2="71.3247" y2="52.7693" class="gray" /></g>
<g><line x1="73.8458" y1="55.7694" x2="75.2842" y2="59.0186" class="gray" /></g>
<g><line x1="75.657" y1="62.8731" x2="74.873" y2="66.3149" class="gray" /></g>
<g><line x1="72.9762" y1="69.7451" x2="70.5138" y2="72.2029" class="gray" /></g>
<g><line x1="69.0134" y1="75.6832" x2="68.9166" y2="79.1648" class="gray" /></g>
<g><line x1="68.9166" y1="83.2432" x2="69.0134" y2="86.7248" class="gray" /></g>
<g><line x1="69.07" y1="90.804" x2="69.07" y2="94.284" class="gray" /></g>
<g><line x1="70.3414" y1="97.9193" x2="72.5086" y2="100.639" class="gray" /></g>
<g><line x1="73.78" y1="104.274" x2="73.78" y2="107.754" class="gray" /></g>
<g><line x1="72.5455" y1="111.418" x2="70.5145" y2="114.09" class="gray" /></g>
<g><line x1="69.1668" y1="117.751" x2="68.9732" y2="121.237" class="gray" /></g>
<g><line x1="68.9166" y1="125.313" x2="69.0134" y2="128.795" class="gray" /></g>
<g><line x1="69.0134" y1="132.873" x2="68.9166" y2="136.355" class="gray" /></g>
<g><line x1="68.9166" y1="140.433" x2="69.0134" y2="143.915" class="gray" /></g>
<g><line x1="69.0134" y1="147.993" x2="68.9166" y2="151.475" class="gray" /></g>
<g><line x1="68.9166" y1="155.553" x2="69.0134" y2="159.035" class="gray" /></g>
<g><line x1="69.0134" y1="163.113" x2="68.9166" y2="166.595" class="gray" /></g>
<g><line x1="70.1945" y1="170.177" x2="72.6455" y2="173.011" class="gray" /></g>
<g><line x1="73.8695" y1="176.591" x2="73.6805" y2="180.077" class="gray" /></g>
<g><line x1="72.3716" y1="183.765" x2="70.4784" y2="186.373" class="gray" /></g>
<g><line x1="69.1668" y1="190.061" x2="68.9732" y2="193.547" class="gray" /></g>
<g><line x1="68.9166" y1="197.623" x2="69.0134" y2="201.105" class="gray" /></g>
<g><line x1="70.8369" y1="204.164" x2="73.8531" y2="205.904" class="gray" /></g>
<g><line x1="73.8531" y1="207.944" x2="70.8369" y2="209.684" class="gray" /></g>
<g><line x1="69.07" y1="212.744" x2="69.07" y2="216.224" class="gray" /></g>
<g><line x1="69.07" y1="220.304" x2="69.07" y2="223.784" class="gray" /></g>
<g><line x1="69.0134" y1="227.863" x2="68.9166" y2="231.345" class="gray" /></g>
<g><line x1="68.9732" y1="235.421" x2="69.1668" y2="238.907" class="gray" /></g>
<g><line x1="70.7211" y1="242.388" x2="73.1789" y2="244.85" class="gray" /></g>
<g><line x1="76.66" y1="246.294" x2="79.73" y2="246.294" class="gray" /></g>
<g><line x1="83.81" y1="246.294" x2="87.7" y2="246.294" class="gray" /></g>
<g><line x1="91.78" y1="246.294" x2="94.85" y2="246.294" class="gray" /></g>
<g><line x1="98.93" y1="246.294" x2="102.62" y2="246.294" class="gray" /></g>
<g><line x1="106.7" y1="246.294" x2="110.18" y2="246.294" class="gray" /></g>
<g><line x1="114.26" y1="246.294" x2="117.94" y2="246.294" class="gray" /></g>
<g><line x1="122.02" y1="246.294" x2="125.3" y2="246.294" class="gray" /></g>
<g><line x1="129.38" y1="246.294" x2="132.86" y2="246.294" class="gray" /></g>
<g><line x1="136.94" y1="246.294" x2="140.21" y2="246.294" class="gray" /></g>
<g><line x1="143.719" y1="244.878" x2="146.331" y2="242.36" class="gray" /></g>
<g><line x1="147.743" y1="238.905" x2="147.647" y2="235.423" class="gray" /></g>
<g><line x1="147.703" y1="231.347" x2="147.897" y2="227.861" class="gray" /></g>
<g><line x1="148.01" y1="223.784" x2="148.01" y2="220.304" class="gray" /></g>
<g><line x1="147.953" y1="216.225" x2="147.857" y2="212.743" class="gray" /></g>
<g><line x1="147.8" y1="208.664" x2="147.8" y2="205.184" class="gray" /></g>
<g><line x1="147.8" y1="201.104" x2="147.8" y2="197.624" class="gray" /></g>
<g><line x1="145.868" y1="194.928" x2="142.572" y2="193.81" class="gray" /></g>
<g><line x1="139.49" y1="191.469" x2="137.6" y2="188.699" class="gray" /></g>
<g><line x1="136.393" y1="184.975" x2="136.297" y2="181.493" class="gray" /></g>
<g><line x1="137.427" y1="177.795" x2="139.453" y2="174.963" class="gray" /></g>
<g><line x1="142.572" y1="172.648" x2="145.868" y2="171.53" class="gray" /></g>
<g><line x1="147.857" y1="168.835" x2="147.953" y2="165.353" class="gray" /></g>
<g><line x1="147.953" y1="161.275" x2="147.857" y2="157.793" class="gray" /></g>
<g><line x1="147.743" y1="153.715" x2="147.647" y2="150.233" class="gray" /></g>
<g><line x1="147.59" y1="146.154" x2="147.59" y2="142.674" class="gray" /></g>
<g><line x1="147.59" y1="138.594" x2="147.59" y2="135.114" class="gray" /></g>
<g><line x1="146.801" y1="131.193" x2="145.489" y2="128.065" class="gray" /></g>
<g><line x1="145.536" y1="124.323" x2="146.964" y2="121.145" class="gray" /></g>
<g><line x1="147.743" y1="117.245" x2="147.647" y2="113.763" class="gray" /></g>
<g><line x1="147.647" y1="109.685" x2="147.743" y2="106.203" class="gray" /></g>
<g><line x1="147.743" y1="102.125" x2="147.647" y2="98.6432" class="gray" /></g>
<g><line x1="147.59" y1="94.564" x2="147.59" y2="91.084" class="gray" /></g>
<g><line x1="147.647" y1="87.0048" x2="147.743" y2="83.5232" class="gray" /></g>
<g><line x1="146.65" y1="79.7992" x2="144.69" y2="76.9288" class="gray" /></g>
<g><line x1="143.791" y1="73.2195" x2="144.219" y2="69.7685" class="gray" /></g>
<g><line x1="145.999" y1="66.3932" x2="148.611" y2="64.0848" class="gray" /></g>
<g><line x1="152.18" y1="62.734" x2="155.66" y2="62.734" class="gray" /></g>
<g><line x1="159.253" y1="64.057" x2="162.027" y2="66.421" class="gray" /></g>
<g><line x1="163.778" y1="69.7744" x2="164.112" y2="73.2136" class="gray" /></g>
<g><line x1="163.12" y1="76.9011" x2="161.02" y2="79.8269" class="gray" /></g>
<g><line x1="159.83" y1="83.524" x2="159.83" y2="87.004" class="gray" /></g>
<g><line x1="159.887" y1="91.0832" x2="159.983" y2="94.5648" class="gray" /></g>
<g><line x1="160.097" y1="98.6432" x2="160.193" y2="102.125" class="gray" /></g>
<g><line x1="160.193" y1="106.203" x2="160.097" y2="109.685" class="gray" /></g>
<g><line x1="160.097" y1="113.763" x2="160.193" y2="117.245" class="gray" /></g>
<g><line x1="160.989" y1="121.186" x2="162.191" y2="124.282" class="gray" /></g>
<g><line x1="162.141" y1="128.065" x2="160.829" y2="131.193" class="gray" /></g>
<g><line x1="160.04" y1="135.114" x2="160.04" y2="138.594" class="gray" /></g>
<g><line x1="160.097" y1="142.673" x2="160.193" y2="146.155" class="gray" /></g>
<g><line x1="160.137" y1="150.231" x2="159.943" y2="153.717" class="gray" /></g>
<g><line x1="159.887" y1="157.793" x2="159.983" y2="161.275" class="gray" /></g>
<g><line x1="160.04" y1="165.354" x2="160.04" y2="168.834" class="gray" /></g>
<g><line x1="161.573" y1="172.22" x2="164.307" y2="174.618" class="gray" /></g>
<g><line x1="166.348" y1="177.94" x2="167.202" y2="181.258" class="gray" /></g>
<g><line x1="167.151" y1="185.196" x2="166.199" y2="188.542" class="gray" /></g>
<g><line x1="164.155" y1="191.903" x2="161.735" y2="194.185" class="gray" /></g>
<g><line x1="160.137" y1="197.621" x2="159.943" y2="201.107" class="gray" /></g>
<g><line x1="159.83" y1="205.184" x2="159.83" y2="208.664" class="gray" /></g>
<g><line x1="159.887" y1="212.743" x2="159.983" y2="216.225" class="gray" /></g>
<g><line x1="160.04" y1="220.304" x2="160.04" y2="223.784" class="gray" /></g>
<g><line x1="160.097" y1="227.863" x2="160.193" y2="231.345" class="gray" /></g>
<g><line x1="160.137" y1="235.421" x2="159.943" y2="238.907" class="gray" /></g>
<g><line x1="161.3" y1="242.358" x2="163.809" y2="244.773" class="gray" /></g>
<g><line x1="167.319" y1="246.187" x2="170.801" y2="246.187" class="gray" /></g>
<g><line x1="174.881" y1="246.187" x2="178.362" y2="246.187" class="gray" /></g>
<g><line x1="182.442" y1="246.187" x2="185.924" y2="246.187" class="gray" /></g>
<g><line x1="190.004" y1="246.187" x2="193.486" y2="246.187" class="gray" /></g>
<g><line x1="197.566" y1="246.187" x2="201.047" y2="246.187" class="gray" /></g>
<g><line x1="205.127" y1="246.187" x2="208.609" y2="246.187" class="gray" /></g>
<g><line x1="212.689" y1="246.187" x2="216.171" y2="246.187" class="gray" /></g>
<g><line x1="220.251" y1="246.187" x2="223.732" y2="246.187" class="gray" /></g>
</svg>
