<svg
	xmlns="http://www.w3.org/2000/svg"
	width="154.13"
	height="298.213">
<g><style type="text/css" >
<!-- create color definitions -->
<![CDATA[
circle.red {stroke: rgb(255, 0, 255); fill: none; }
circle.green {stroke: rgb(0, 255, 0); fill: none; }
circle.blue {stroke: rgb(0, 0, 255); fill: none; }
circle.black {stroke: rgb(0, 0, 0); fill: none; }
circle.gray {stroke: rgb(204, 204, 204); fill: none; }
circle.brown {stroke: rgb(211.65, 104.55, 30.6); fill: none; }
line.red {stroke: rgb(255, 0, 255); stroke-width: 0.384618; }
line.green {stroke: rgb(0, 255, 0); stroke-width: 0.384618; }
line.blue {stroke: rgb(0, 0, 255); stroke-width: 0.384618; }
line.black {stroke: rgb(0, 0, 0); stroke-width: 0.384618; }
line.gray {stroke: rgb(204, 204, 204); stroke-width: 0.384618; }
line.brown {stroke: rgb(211.65, 104.55, 30.6); stroke-width: 0.384618; }
line {stroke: rgb(0, 0, 0); }
text.red {fill: rgb(255, 0, 255); font-size: 3.076944px; font-weight: bold; font-family: Helvetica; }
text.green {fill: rgb(0, 255, 0); font-size: 3.076944px; font-weight: bold; font-family: Helvetica; }
text.blue {fill: rgb(0, 0, 255); font-size: 3.076944px; font-weight: bold; font-family: Helvetica; }
text.black {fill: rgb(0, 0, 0); font-size: 3.076944px; font-weight: bold; font-family: Helvetica; }
text.gray {fill: rgb(204, 204, 204); font-size: 3.076944px; font-weight: bold; font-family: Helvetica; }
text.brown {fill: rgb(211.65, 104.55, 30.6); font-size: 3.076944px; font-weight: bold; font-family: Helvetica; }
text {fill: rgb(0, 0, 0); font-size: 3.076944px; font-weight: bold; font-family: Helvetica; text-anchor: middle; alignment-baseline: middle; }

.pseudoknot_connection{stroke-linecap: round; stroke-opacity: 0.2; stroke-width: 1.5; }
.pseudoknot_segment1{stroke-linecap: round; stroke-opacity: 0.4; stroke-width: 3.07694; }
.pseudoknot_segment2{stroke-linecap: round; stroke-opacity: 0.4; stroke-width: 3.07694; }
line.numbering-line{stroke: rgb(204, 204, 204); stroke-width: 0.192309; }
line.predicted{stroke: rgb(0, 0, 0); stroke-dasharray: 2; }
polyline{fill: none; stroke-linejoin: round; }
template{visibility: hidden; }
text.numbering-label{fill: rgb(204, 204, 204); }
]]>
</style></g>
<g><title>0 (position.label in template: 0.5')</title><text x="73.88" y="250.529" class="green" >5'</text></g>
<g><title>1 (position.label in template: 1.A)</title><text x="73.68" y="242.97" class="green" >A</text></g>
<g><line x1="75.7313" y1="242.662" x2="83.6687" y2="242.662" class="black" /></g>
<g><title>2 (position.label in template: 2.C)</title><text x="73.48" y="235.41" class="black" >C</text></g>
<g><line x1="75.5313" y1="235.102" x2="83.4587" y2="235.102" class="black" /></g>
<g><title>3 (position.label in template: 3.U)</title><text x="73.48" y="227.85" class="green" >T</text></g>
<g><line x1="75.5313" y1="227.542" x2="83.8687" y2="227.542" class="black" /></g>
<g><title>4 (position.label in template: 4.G)</title><text x="73.27" y="220.29" class="black" >G</text></g>
<g><line x1="75.3213" y1="219.982" x2="83.6687" y2="219.982" class="black" /></g>
<g><title>5 (position.label in template: 5.U)</title><text x="73.48" y="212.73" class="green" >T</text></g>
<g><line x1="75.5313" y1="212.422" x2="83.4587" y2="212.422" class="black" /></g>
<g><title>6 (position.label in template: 6.G)</title><text x="67.67" y="207.64" class="black" >G</text></g>
<g><title>7 (position.label in template: 7.G)</title><text x="65.6" y="200.37" class="black" >G</text></g>
<g><title>8 (position.label in template: 8.A)</title><text x="68.09" y="193.1" class="black" >A</text></g>
<g><title>9 (position.label in template: 9.G)</title><text x="73.27" y="188.02" class="black" >G</text></g>
<g><line x1="75.3213" y1="187.712" x2="83.6687" y2="187.712" class="black" /></g>
<g><title>10 (position.label in template: 10.U)</title><text x="73.48" y="180.46" class="green" >T</text></g>
<g><line x1="75.5313" y1="180.152" x2="83.8687" y2="180.152" class="black" /></g>
<g><text x="66.5569" y="180.46" class="numbering-label sequential" >10</text></g>
<g><line x1="71.6338" y1="180.46" x2="68.403" y2="180.46" class="numbering-line sequential" /></g>
<g><title>11 (position.label in template: 11.G)</title><text x="73.27" y="172.9" class="black" >G</text></g>
<g><line x1="75.3213" y1="172.592" x2="83.6687" y2="172.592" class="black" /></g>
<g><title>12 (position.label in template: 12.U)</title><text x="73.48" y="165.34" class="green" >T</text></g>
<g><line x1="75.5313" y1="165.032" x2="83.8687" y2="165.032" class="black" /></g>
<g><title>13 (position.label in template: 13.A)</title><text x="73.68" y="157.78" class="green" >A</text></g>
<g><line x1="75.7313" y1="157.472" x2="83.6687" y2="157.472" class="black" /></g>
<g><title>14 (position.label in template: 14.C)</title><text x="69.03" y="163.89" class="black" >C</text></g>
<g><title>15 (position.label in template: 15.A)</title><text x="62.05" y="166.23" class="black" >A</text></g>
<g><title>16 (position.label in template: 16.C)</title><text x="54.65" y="163.89" class="black" >C</text></g>
<g><title>17 (position.label in template: 17.G)</title><text x="50" y="157.78" class="black" >G</text></g>
<g><title>18 (position.label in template: 18.A)</title><text x="50.42" y="150.22" class="black" >A</text></g>
<g><title>19 (position.label in template: 19.A)</title><text x="54.86" y="144.1" class="black" >A</text></g>
<g><title>20 (position.label in template: 20.C)</title><text x="61.84" y="141.76" class="black" >C</text></g>
<g><text x="61.84" y="134.837" class="numbering-label sequential" >20</text></g>
<g><line x1="61.84" y1="139.914" x2="61.84" y2="136.375" class="numbering-line sequential" /></g>
<g><title>21 (position.label in template: 21.U)</title><text x="69.03" y="144.1" class="green" >T</text></g>
<g><title>22 (position.label in template: 22.U)</title><text x="73.48" y="150.22" class="green" >T</text></g>
<g><line x1="75.5313" y1="149.912" x2="83.8687" y2="149.912" class="black" /></g>
<g><title>23 (position.label in template: 23.G)</title><text x="73.27" y="142.66" class="black" >G</text></g>
<g><line x1="75.3213" y1="142.352" x2="83.6687" y2="142.352" class="black" /></g>
<g><title>24 (position.label in template: 24.U)</title><text x="73.48" y="135.1" class="green" >T</text></g>
<g><line x1="75.5313" y1="134.792" x2="83.4587" y2="134.792" class="black" /></g>
<g><title>25 (position.label in template: 25.G)</title><text x="66.03" y="132.92" class="black" >G</text></g>
<g><title>26 (position.label in template: 26.A)</title><text x="61.2" y="127.47" class="black" >A</text></g>
<g><title>27 (position.label in template: 27.G)</title><text x="58.87" y="120.16" class="black" >G</text></g>
<g><title>28 (position.label in template: 28.U)</title><text x="60.99" y="112.85" class="green" >T</text></g>
<g><title>29 (position.label in template: 29.A)</title><text x="66.44" y="107.4" class="black" >A</text></g>
<g><title>30 (position.label in template: 30.G)</title><text x="73.27" y="105.22" class="black" >G</text></g>
<g><line x1="75.3213" y1="104.912" x2="83.6687" y2="104.912" class="black" /></g>
<g><text x="67.6591" y="101.164" class="numbering-label sequential" >30</text></g>
<g><line x1="71.7738" y1="104.139" x2="69.5053" y2="102.499" class="numbering-line sequential" /></g>
<g><title>31 (position.label in template: 31.C)</title><text x="73.48" y="97.66" class="black" >C</text></g>
<g><line x1="75.5313" y1="97.3523" x2="83.4587" y2="97.3523" class="black" /></g>
<g><title>32 (position.label in template: 32.G)</title><text x="73.27" y="90.1" class="black" >G</text></g>
<g><line x1="75.3213" y1="89.7923" x2="83.6687" y2="89.7923" class="black" /></g>
<g><title>33 (position.label in template: 33.U)</title><text x="66.59" y="86.99" class="green" >T</text></g>
<g><title>34 (position.label in template: 34.A)</title><text x="66.8" y="79.43" class="black" >A</text></g>
<g><title>35 (position.label in template: 35.U)</title><text x="73.48" y="76.31" class="green" >T</text></g>
<g><line x1="75.5313" y1="76.0023" x2="83.8687" y2="76.0023" class="black" /></g>
<g><title>36 (position.label in template: 36.U)</title><text x="73.48" y="68.75" class="green" >T</text></g>
<g><line x1="75.5313" y1="68.4423" x2="83.8687" y2="68.4423" class="black" /></g>
<g><title>37 (position.label in template: 37.G)</title><text x="69" y="62.51" class="black" >G</text></g>
<g><title>38 (position.label in template: 38.C)</title><text x="70.15" y="55.01" class="black" >C</text></g>
<g><title>39 (position.label in template: 39.U)</title><text x="75.82" y="50" class="green" >T</text></g>
<g><title>40 (position.label in template: 40.U)</title><text x="83.38" y="50" class="green" >T</text></g>
<g><title>41 (position.label in template: 41.G)</title><text x="88.83" y="55.01" class="black" >G</text></g>
<g><title>42 (position.label in template: 42.C)</title><text x="89.98" y="62.51" class="black" >C</text></g>
<g><title>43 (position.label in template: 43.A)</title><text x="85.92" y="68.75" class="green" >A</text></g>
<g><title>44 (position.label in template: 44.A)</title><text x="85.92" y="76.31" class="green" >A</text></g>
<g><title>45 (position.label in template: 45.U)</title><text x="88.82" y="83.21" class="green" >T</text></g>
<g><title>46 (position.label in template: 46.C)</title><text x="85.72" y="90.1" class="black" >C</text></g>
<g><title>47 (position.label in template: 47.G)</title><text x="85.51" y="97.66" class="black" >G</text></g>
<g><title>48 (position.label in template: 48.C)</title><text x="85.72" y="105.22" class="black" >C</text></g>
<g><title>49 (position.label in template: 49.C)</title><text x="91.85" y="109.65" class="black" >C</text></g>
<g><title>50 (position.label in template: 50.A)</title><text x="95.5" y="116.38" class="black" >A</text></g>
<g><text x="102.208" y="114.667" class="numbering-label sequential" >50</text></g>
<g><line x1="97.2887" y1="115.923" x2="100.362" y2="115.138" class="numbering-line sequential" /></g>
<g><title>51 (position.label in template: 51.A)</title><text x="95.5" y="123.94" class="black" >A</text></g>
<g><title>52 (position.label in template: 52.A)</title><text x="92.05" y="130.67" class="black" >A</text></g>
<g><title>53 (position.label in template: 53.G)</title><text x="85.51" y="135.1" class="green" >G</text></g>
<g><title>54 (position.label in template: 54.C)</title><text x="85.72" y="142.66" class="black" >C</text></g>
<g><title>55 (position.label in template: 55.A)</title><text x="85.92" y="150.22" class="green" >A</text></g>
<g><title>56 (position.label in template: 56.U)</title><text x="85.72" y="157.78" class="green" >T</text></g>
<g><title>57 (position.label in template: 57.A)</title><text x="85.92" y="165.34" class="green" >A</text></g>
<g><title>58 (position.label in template: 58.C)</title><text x="85.72" y="172.9" class="black" >C</text></g>
<g><title>59 (position.label in template: 59.A)</title><text x="85.92" y="180.46" class="green" >A</text></g>
<g><title>60 (position.label in template: 60.C)</title><text x="85.72" y="188.02" class="black" >C</text></g>
<g><title>61 (position.label in template: 61.A)</title><text x="93.42" y="187.02" class="black" >A</text></g>
<g><title>62 (position.label in template: 62.U)</title><text x="100.07" y="190.22" class="green" >T</text></g>
<g><title>63 (position.label in template: 63.C)</title><text x="104.13" y="196.59" class="black" >C</text></g>
<g><title>64 (position.label in template: 64.G)</title><text x="103.92" y="204.15" class="black" >G</text></g>
<g><title>65 (position.label in template: 65.A)</title><text x="100.27" y="210.53" class="black" >A</text></g>
<g><title>66 (position.label in template: 66.A)</title><text x="93.42" y="213.72" class="black" >A</text></g>
<g><title>67 (position.label in template: 67.G)</title><text x="85.51" y="212.73" class="green" >G</text></g>
<g><title>68 (position.label in template: 68.C)</title><text x="85.72" y="220.29" class="black" >C</text></g>
<g><title>69 (position.label in template: 69.A)</title><text x="85.92" y="227.85" class="green" >A</text></g>
<g><title>70 (position.label in template: 70.G)</title><text x="85.51" y="235.41" class="black" >G</text></g>
<g><title>71 (position.label in template: 71.U)</title><text x="85.72" y="242.97" class="green" >T</text></g>
<g><title>72 (position.label in template: 72.A)</title><text x="91.1689" y="248.213" class="black" >A</text></g>
<g><title>73 (position.label in template: 73.A)</title><text x="98.7304" y="248.213" class="black" >A</text></g>
<g><title>74 (position.label in template: 74.3')</title><text x="106.292" y="248.213" class="green" >3'</text></g>
<g><line x1="73.8257" y1="248.171" x2="73.7342" y2="244.713" class="gray" /></g>
<g><line x1="73.6258" y1="240.612" x2="73.5342" y2="237.153" class="gray" /></g>
<g><line x1="73.48" y1="233.051" x2="73.48" y2="229.594" class="gray" /></g>
<g><line x1="73.423" y1="225.492" x2="73.327" y2="222.033" class="gray" /></g>
<g><line x1="73.327" y1="217.932" x2="73.423" y2="214.473" class="gray" /></g>
<g><line x1="71.9371" y1="211.071" x2="69.2129" y2="208.684" class="gray" /></g>
<g><line x1="67.1083" y1="205.359" x2="66.1617" y2="202.035" class="gray" /></g>
<g><line x1="66.2647" y1="198.122" x2="67.4253" y2="194.733" class="gray" /></g>
<g><line x1="69.5546" y1="191.356" x2="71.8054" y2="189.149" class="gray" /></g>
<g><line x1="73.327" y1="185.662" x2="73.423" y2="182.203" class="gray" /></g>
<g><line x1="73.423" y1="178.102" x2="73.327" y2="174.643" class="gray" /></g>
<g><line x1="73.327" y1="170.542" x2="73.423" y2="167.083" class="gray" /></g>
<g><line x1="73.5342" y1="162.982" x2="73.6258" y2="159.523" class="gray" /></g>
<g><line x1="72.4377" y1="159.105" x2="70.2723" y2="161.95" class="gray" /></g>
<g><line x1="67.0851" y1="164.234" x2="63.9949" y2="165.27" class="gray" /></g>
<g><line x1="60.0942" y1="165.304" x2="56.6058" y2="164.201" class="gray" /></g>
<g><line x1="53.4077" y1="161.95" x2="51.2423" y2="159.105" class="gray" /></g>
<g><line x1="50.1138" y1="155.424" x2="50.3062" y2="151.96" class="gray" /></g>
<g><line x1="51.6246" y1="148.252" x2="53.6554" y2="145.453" class="gray" /></g>
<g><line x1="56.8049" y1="143.14" x2="59.8951" y2="142.104" class="gray" /></g>
<g><line x1="63.7906" y1="142.087" x2="67.0794" y2="143.157" class="gray" /></g>
<g><line x1="70.2364" y1="145.451" x2="72.2736" y2="148.253" class="gray" /></g>
<g><line x1="73.423" y1="147.862" x2="73.327" y2="144.403" class="gray" /></g>
<g><line x1="73.327" y1="140.302" x2="73.423" y2="136.843" class="gray" /></g>
<g><line x1="71.5113" y1="134.216" x2="67.9987" y2="133.188" class="gray" /></g>
<g><line x1="64.6695" y1="131.077" x2="62.5605" y2="128.697" class="gray" /></g>
<g><line x1="60.577" y1="125.208" x2="59.493" y2="121.807" class="gray" /></g>
<g><line x1="59.4414" y1="117.882" x2="60.4186" y2="114.512" class="gray" /></g>
<g><line x1="62.4405" y1="111.092" x2="64.9895" y2="108.543" class="gray" /></g>
<g><line x1="68.3942" y1="106.469" x2="71.3158" y2="105.536" class="gray" /></g>
<g><line x1="73.327" y1="102.862" x2="73.423" y2="99.4028" class="gray" /></g>
<g><line x1="73.423" y1="95.3018" x2="73.327" y2="91.8428" class="gray" /></g>
<g><line x1="71.4104" y1="88.9265" x2="68.4496" y2="87.5481" class="gray" /></g>
<g><line x1="66.647" y1="84.6318" x2="66.743" y2="81.1728" class="gray" /></g>
<g><line x1="68.6586" y1="78.2542" x2="71.6214" y2="76.8704" class="gray" /></g>
<g><line x1="73.48" y1="73.951" x2="73.48" y2="70.4936" class="gray" /></g>
<g><line x1="72.2837" y1="66.776" x2="70.1963" y2="63.8686" class="gray" /></g>
<g><line x1="69.3109" y1="60.1747" x2="69.8391" y2="56.7299" class="gray" /></g>
<g><line x1="71.6872" y1="53.344" x2="74.2828" y2="51.0506" class="gray" /></g>
<g><line x1="77.8713" y1="49.6923" x2="81.3287" y2="49.6923" class="gray" /></g>
<g><line x1="84.8902" y1="51.0805" x2="87.3198" y2="53.3141" class="gray" /></g>
<g><line x1="89.1409" y1="56.7299" x2="89.6691" y2="60.1747" class="gray" /></g>
<g><line x1="88.8613" y1="63.9217" x2="87.0387" y2="66.7229" class="gray" /></g>
<g><line x1="85.92" y1="70.4936" x2="85.92" y2="73.951" class="gray" /></g>
<g><line x1="86.7148" y1="77.8934" x2="88.0252" y2="81.0112" class="gray" /></g>
<g><line x1="87.9783" y1="84.773" x2="86.5617" y2="87.9216" class="gray" /></g>
<g><line x1="85.663" y1="91.8428" x2="85.567" y2="95.3018" class="gray" /></g>
<g><line x1="85.567" y1="99.4028" x2="85.663" y2="102.862" class="gray" /></g>
<g><line x1="87.3826" y1="106.114" x2="90.1874" y2="108.141" class="gray" /></g>
<g><line x1="92.8279" y1="111.145" x2="94.5221" y2="114.269" class="gray" /></g>
<g><line x1="95.5" y1="118.124" x2="95.5" y2="121.581" class="gray" /></g>
<g><line x1="94.5642" y1="125.458" x2="92.9858" y2="128.537" class="gray" /></g>
<g><line x1="90.3517" y1="131.513" x2="87.2083" y2="133.642" class="gray" /></g>
<g><line x1="85.567" y1="136.843" x2="85.663" y2="140.302" class="gray" /></g>
<g><line x1="85.7742" y1="144.403" x2="85.8658" y2="147.862" class="gray" /></g>
<g><line x1="85.8658" y1="151.963" x2="85.7742" y2="155.422" class="gray" /></g>
<g><line x1="85.7742" y1="159.523" x2="85.8658" y2="162.982" class="gray" /></g>
<g><line x1="85.8658" y1="167.083" x2="85.7742" y2="170.542" class="gray" /></g>
<g><line x1="85.7742" y1="174.643" x2="85.8658" y2="178.102" class="gray" /></g>
<g><line x1="85.8658" y1="182.203" x2="85.7742" y2="185.662" class="gray" /></g>
<g><line x1="87.7542" y1="187.448" x2="91.3858" y2="186.976" class="gray" /></g>
<g><line x1="95.2684" y1="187.602" x2="98.2216" y2="189.023" class="gray" /></g>
<g><line x1="101.173" y1="191.642" x2="103.027" y2="194.552" class="gray" /></g>
<g><line x1="104.073" y1="198.333" x2="103.977" y2="201.792" class="gray" /></g>
<g><line x1="102.901" y1="205.623" x2="101.289" y2="208.442" class="gray" /></g>
<g><line x1="98.4105" y1="211.088" x2="95.2795" y2="212.546" class="gray" /></g>
<g><line x1="91.3846" y1="213.158" x2="87.5454" y2="212.677" class="gray" /></g>
<g><line x1="85.567" y1="214.473" x2="85.663" y2="217.932" class="gray" /></g>
<g><line x1="85.7742" y1="222.033" x2="85.8658" y2="225.492" class="gray" /></g>
<g><line x1="85.8089" y1="229.591" x2="85.6211" y2="233.054" class="gray" /></g>
<g><line x1="85.567" y1="237.153" x2="85.663" y2="240.612" class="gray" /></g>
<g><line x1="87.1982" y1="244.085" x2="89.6907" y2="246.483" class="gray" /></g>
<g><line x1="93.2202" y1="247.905" x2="96.6791" y2="247.905" class="gray" /></g>
<g><line x1="100.782" y1="247.905" x2="104.241" y2="247.905" class="gray" /></g>
</svg>
