<svg
	xmlns="http://www.w3.org/2000/svg"
	width="207.733"
	height="205.699">
<g><style type="text/css" >
<!-- create color definitions -->
<![CDATA[
circle.red {stroke: rgb(255, 0, 255); fill: none; }
circle.green {stroke: rgb(0, 255, 0); fill: none; }
circle.blue {stroke: rgb(0, 0, 255); fill: none; }
circle.black {stroke: rgb(0, 0, 0); fill: none; }
circle.gray {stroke: rgb(204, 204, 204); fill: none; }
circle.brown {stroke: rgb(211.65, 104.55, 30.6); fill: none; }
line.red {stroke: rgb(255, 0, 255); stroke-width: 0.383437; }
line.green {stroke: rgb(0, 255, 0); stroke-width: 0.383437; }
line.blue {stroke: rgb(0, 0, 255); stroke-width: 0.383437; }
line.black {stroke: rgb(0, 0, 0); stroke-width: 0.383437; }
line.gray {stroke: rgb(204, 204, 204); stroke-width: 0.383437; }
line.brown {stroke: rgb(211.65, 104.55, 30.6); stroke-width: 0.383437; }
line {stroke: rgb(0, 0, 0); }
text.red {fill: rgb(255, 0, 255); font-size: 3.067500px; font-weight: bold; font-family: Helvetica; }
text.green {fill: rgb(0, 255, 0); font-size: 3.067500px; font-weight: bold; font-family: Helvetica; }
text.blue {fill: rgb(0, 0, 255); font-size: 3.067500px; font-weight: bold; font-family: Helvetica; }
text.black {fill: rgb(0, 0, 0); font-size: 3.067500px; font-weight: bold; font-family: Helvetica; }
text.gray {fill: rgb(204, 204, 204); font-size: 3.067500px; font-weight: bold; font-family: Helvetica; }
text.brown {fill: rgb(211.65, 104.55, 30.6); font-size: 3.067500px; font-weight: bold; font-family: Helvetica; }
text {fill: rgb(0, 0, 0); font-size: 3.067500px; font-weight: bold; font-family: Helvetica; text-anchor: middle; alignment-baseline: middle; }

.pseudoknot_connection{stroke-linecap: round; stroke-opacity: 0.2; stroke-width: 1.5; }
.pseudoknot_segment1{stroke-linecap: round; stroke-opacity: 0.4; stroke-width: 3.0675; }
.pseudoknot_segment2{stroke-linecap: round; stroke-opacity: 0.4; stroke-width: 3.0675; }
line.numbering-line{stroke: rgb(204, 204, 204); stroke-width: 0.191719; }
line.predicted{stroke: rgb(0, 0, 0); stroke-dasharray: 2; }
polyline{fill: none; stroke-linejoin: round; }
template{visibility: hidden; }
text.numbering-label{fill: rgb(204, 204, 204); }
]]>
</style></g>
<g><title>0 (position.label in template: 0.5')</title><text x="42.4401" y="155.699" class="green" >5'</text></g>
<g><title>1 (position.label in template: 1.G)</title><text x="50" y="155.699" class="black" >G</text></g>
<g><title>2 (position.label in template: 2.G)</title><text x="57.5599" y="155.699" class="black" >G</text></g>
<g><title>3 (position.label in template: 3.A)</title><text x="65.1197" y="155.699" class="black" >A</text></g>
<g><title>4 (position.label in template: 4.A)</title><text x="72.6796" y="155.699" class="black" >A</text></g>
<g><title>5 (position.label in template: 5.G)</title><text x="77.8025" y="150.14" class="black" >G</text></g>
<g><line x1="79.8475" y1="149.833" x2="88.2075" y2="149.833" class="black" /></g>
<g><title>6 (position.label in template: 6.C)</title><text x="78.0125" y="142.58" class="black" >C</text></g>
<g><line x1="80.0575" y1="142.273" x2="87.9975" y2="142.273" class="black" /></g>
<g><title>7 (position.label in template: 7.C)</title><text x="78.0125" y="135.02" class="black" >C</text></g>
<g><line x1="80.0575" y1="134.713" x2="87.9975" y2="134.713" class="black" /></g>
<g><title>8 (position.label in template: 8.G)</title><text x="77.8025" y="127.46" class="black" >G</text></g>
<g><line x1="79.8475" y1="127.153" x2="88.2075" y2="127.153" class="black" /></g>
<g><title>9 (position.label in template: 9.G)</title><text x="77.8025" y="119.91" class="black" >G</text></g>
<g><line x1="79.8475" y1="119.603" x2="88.2075" y2="119.603" class="black" /></g>
<g><title>10 (position.label in template: 10.U)</title><text x="73.1225" y="114.14" class="green" >T</text></g>
<g><text x="66.708" y="116.688" class="numbering-label sequential" >10</text></g>
<g><line x1="71.412" y1="114.819" x2="68.5485" y2="115.957" class="numbering-line sequential" /></g>
<g><title>11 (position.label in template: 11.G)</title><text x="72.5125" y="106.59" class="black" >G</text></g>
<g><title>12 (position.label in template: 12.A)</title><text x="77.1725" y="100.33" class="black" >A</text></g>
<g><title>13 (position.label in template: 13.A)</title><text x="84.3425" y="97.92" class="black" >A</text></g>
<g><title>14 (position.label in template: 14.A)</title><text x="91.5025" y="100.33" class="black" >A</text></g>
<g><title>15 (position.label in template: 15.A)</title><text x="95.7525" y="106.59" class="black" >A</text></g>
<g><title>16 (position.label in template: 16.U)</title><text x="95.1425" y="114.14" class="green" >T</text></g>
<g><title>17 (position.label in template: 17.C)</title><text x="90.2525" y="119.91" class="black" >C</text></g>
<g><title>18 (position.label in template: 18.C)</title><text x="90.2525" y="127.46" class="black" >C</text></g>
<g><title>19 (position.label in template: 19.G)</title><text x="90.0425" y="135.02" class="black" >G</text></g>
<g><title>20 (position.label in template: 20.G)</title><text x="90.0425" y="142.58" class="black" >G</text></g>
<g><text x="96.9437" y="142.484" class="numbering-label sequential" >20</text></g>
<g><line x1="91.8829" y1="142.554" x2="95.1032" y2="142.51" class="numbering-line sequential" /></g>
<g><title>21 (position.label in template: 21.C)</title><text x="90.2525" y="150.14" class="black" >C</text></g>
<g><title>22 (position.label in template: 22.G)</title><text x="95.3925" y="155.49" class="black" >G</text></g>
<g><title>23 (position.label in template: 23.C)</title><text x="103.163" y="155.49" class="black" >C</text></g>
<g><title>24 (position.label in template: 24.G)</title><text x="108.293" y="150.14" class="black" >G</text></g>
<g><line x1="110.338" y1="149.833" x2="118.698" y2="149.833" class="black" /></g>
<g><title>25 (position.label in template: 25.G)</title><text x="108.293" y="142.58" class="black" >G</text></g>
<g><line x1="110.338" y1="142.273" x2="118.698" y2="142.273" class="black" /></g>
<g><title>26 (position.label in template: 26.U)</title><text x="108.503" y="135.02" class="green" >T</text></g>
<g><line x1="110.548" y1="134.713" x2="118.488" y2="134.713" class="black" /></g>
<g><title>27 (position.label in template: 27.C)</title><text x="108.143" y="127.47" class="black" >C</text></g>
<g><title>28 (position.label in template: 28.G)</title><text x="114.413" y="123.59" class="black" >G</text></g>
<g><title>29 (position.label in template: 29.C)</title><text x="121.113" y="127.47" class="black" >C</text></g>
<g><title>30 (position.label in template: 30.G)</title><text x="120.533" y="135.02" class="green" >G</text></g>
<g><text x="127.432" y="135.189" class="numbering-label sequential" >30</text></g>
<g><line x1="122.372" y1="135.065" x2="125.592" y2="135.144" class="numbering-line sequential" /></g>
<g><title>31 (position.label in template: 31.C)</title><text x="120.743" y="142.58" class="black" >C</text></g>
<g><title>32 (position.label in template: 32.C)</title><text x="120.743" y="150.14" class="black" >C</text></g>
<g><title>33 (position.label in template: 33.A)</title><text x="126.293" y="155.49" class="black" >A</text></g>
<g><title>34 (position.label in template: 34.C)</title><text x="131.433" y="150.14" class="black" >C</text></g>
<g><line x1="133.478" y1="149.833" x2="141.418" y2="149.833" class="black" /></g>
<g><title>35 (position.label in template: 35.U)</title><text x="131.433" y="142.58" class="green" >T</text></g>
<g><line x1="133.478" y1="142.273" x2="141.838" y2="142.273" class="black" /></g>
<g><title>36 (position.label in template: 36.G)</title><text x="131.223" y="135.02" class="black" >G</text></g>
<g><line x1="133.268" y1="134.713" x2="141.628" y2="134.713" class="black" /></g>
<g><title>37 (position.label in template: 37.U)</title><text x="125.843" y="129.94" class="green" >T</text></g>
<g><title>38 (position.label in template: 38.G)</title><text x="123.563" y="122.67" class="black" >G</text></g>
<g><title>39 (position.label in template: 39.A)</title><text x="126.053" y="115.4" class="black" >A</text></g>
<g><title>40 (position.label in template: 40.C)</title><text x="131.433" y="110.32" class="black" >C</text></g>
<g><line x1="133.478" y1="110.013" x2="141.418" y2="110.013" class="black" /></g>
<g><title>41 (position.label in template: 41.C)</title><text x="128.333" y="103.42" class="black" >C</text></g>
<g><title>42 (position.label in template: 42.A)</title><text x="131.643" y="96.52" class="green" >A</text></g>
<g><line x1="133.688" y1="96.2133" x2="141.628" y2="96.2133" class="black" /></g>
<g><title>43 (position.label in template: 43.G)</title><text x="131.223" y="88.96" class="black" >G</text></g>
<g><line x1="133.268" y1="88.6533" x2="141.628" y2="88.6533" class="black" /></g>
<g><title>44 (position.label in template: 44.G)</title><text x="124.583" y="85.36" class="black" >G</text></g>
<g><title>45 (position.label in template: 45.A)</title><text x="120.153" y="79.55" class="black" >A</text></g>
<g><title>46 (position.label in template: 46.U)</title><text x="117.593" y="72.37" class="green" >T</text></g>
<g><title>47 (position.label in template: 47.G)</title><text x="117.833" y="64.82" class="black" >G</text></g>
<g><title>48 (position.label in template: 48.C)</title><text x="121.243" y="57.98" class="black" >C</text></g>
<g><title>49 (position.label in template: 49.G)</title><text x="126.543" y="52.79" class="black" >G</text></g>
<g><title>50 (position.label in template: 50.A)</title><text x="133.983" y="50" class="black" >A</text></g>
<g><text x="132.72" y="43.2145" class="numbering-label sequential" >50</text></g>
<g><line x1="133.646" y1="48.1905" x2="133.006" y2="44.7483" class="numbering-line sequential" /></g>
<g><title>51 (position.label in template: 51.A)</title><text x="141.543" y="50" class="black" >A</text></g>
<g><title>52 (position.label in template: 52.A)</title><text x="148.573" y="52.79" class="black" >A</text></g>
<g><title>53 (position.label in template: 53.G)</title><text x="153.653" y="57.98" class="black" >G</text></g>
<g><title>54 (position.label in template: 54.C)</title><text x="157.073" y="64.82" class="black" >C</text></g>
<g><title>55 (position.label in template: 55.A)</title><text x="157.733" y="72.37" class="black" >A</text></g>
<g><title>56 (position.label in template: 56.G)</title><text x="154.953" y="79.55" class="black" >G</text></g>
<g><title>57 (position.label in template: 57.G)</title><text x="150.113" y="85.36" class="black" >G</text></g>
<g><title>58 (position.label in template: 58.C)</title><text x="143.673" y="88.96" class="black" >C</text></g>
<g><title>59 (position.label in template: 59.U)</title><text x="143.673" y="96.52" class="green" >T</text></g>
<g><title>60 (position.label in template: 60.G)</title><text x="146.563" y="103.42" class="black" >G</text></g>
<g><title>61 (position.label in template: 61.G)</title><text x="143.463" y="110.32" class="black" >G</text></g>
<g><title>62 (position.label in template: 62.A)</title><text x="151.043" y="112.75" class="black" >A</text></g>
<g><title>63 (position.label in template: 63.A)</title><text x="155.443" y="118.89" class="black" >A</text></g>
<g><title>64 (position.label in template: 64.G)</title><text x="155.033" y="126.45" class="black" >G</text></g>
<g><title>65 (position.label in template: 65.U)</title><text x="150.833" y="132.6" class="green" >T</text></g>
<g><title>66 (position.label in template: 66.C)</title><text x="143.673" y="135.02" class="black" >C</text></g>
<g><title>67 (position.label in template: 67.A)</title><text x="143.883" y="142.58" class="green" >A</text></g>
<g><title>68 (position.label in template: 68.G)</title><text x="143.463" y="150.14" class="black" >G</text></g>
<g><title>69 (position.label in template: 69.A)</title><text x="149.006" y="155.28" class="black" >A</text></g>
<g><title>70 (position.label in template: 70.C)</title><text x="156.566" y="155.28" class="black" >C</text></g>
<g><title>71 (position.label in template: 71.3')</title><text x="164.126" y="155.28" class="green" >3'</text></g>
<g><line x1="44.4851" y1="155.393" x2="47.955" y2="155.393" class="gray" /></g>
<g><line x1="52.045" y1="155.393" x2="55.5149" y2="155.393" class="gray" /></g>
<g><line x1="59.6049" y1="155.393" x2="63.0747" y2="155.393" class="gray" /></g>
<g><line x1="67.1647" y1="155.393" x2="70.6346" y2="155.393" class="gray" /></g>
<g><line x1="74.0654" y1="153.889" x2="76.4167" y2="151.337" class="gray" /></g>
<g><line x1="77.8593" y1="147.789" x2="77.9558" y2="144.317" class="gray" /></g>
<g><line x1="78.0125" y1="140.228" x2="78.0125" y2="136.758" class="gray" /></g>
<g><line x1="77.9558" y1="132.669" x2="77.8593" y2="129.197" class="gray" /></g>
<g><line x1="77.8025" y1="125.108" x2="77.8025" y2="121.648" class="gray" /></g>
<g><line x1="76.5143" y1="118.015" x2="74.4108" y2="115.421" class="gray" /></g>
<g><line x1="72.9578" y1="111.795" x2="72.6772" y2="108.322" class="gray" /></g>
<g><line x1="73.7337" y1="104.643" x2="75.9514" y2="101.664" class="gray" /></g>
<g><line x1="79.111" y1="99.3717" x2="82.4041" y2="98.2648" class="gray" /></g>
<g><line x1="86.2807" y1="98.2656" x2="89.5644" y2="99.3709" class="gray" /></g>
<g><line x1="92.6512" y1="101.715" x2="94.6039" y2="104.591" class="gray" /></g>
<g><line x1="95.5878" y1="108.322" x2="95.3072" y2="111.795" class="gray" /></g>
<g><line x1="93.8204" y1="115.393" x2="91.5747" y2="118.043" class="gray" /></g>
<g><line x1="90.2525" y1="121.648" x2="90.2525" y2="125.108" class="gray" /></g>
<g><line x1="90.1958" y1="129.197" x2="90.0993" y2="132.669" class="gray" /></g>
<g><line x1="90.0425" y1="136.758" x2="90.0425" y2="140.228" class="gray" /></g>
<g><line x1="90.0993" y1="144.317" x2="90.1958" y2="147.789" class="gray" /></g>
<g><line x1="91.6693" y1="151.308" x2="93.9757" y2="153.709" class="gray" /></g>
<g><line x1="97.4375" y1="155.183" x2="101.118" y2="155.183" class="gray" /></g>
<g><line x1="104.578" y1="153.707" x2="106.877" y2="151.309" class="gray" /></g>
<g><line x1="108.293" y1="147.788" x2="108.293" y2="144.318" class="gray" /></g>
<g><line x1="108.349" y1="140.229" x2="108.446" y2="136.757" class="gray" /></g>
<g><line x1="108.405" y1="132.671" x2="108.24" y2="129.206" class="gray" /></g>
<g><line x1="109.882" y1="126.087" x2="112.674" y2="124.359" class="gray" /></g>
<g><line x1="116.182" y1="124.308" x2="119.343" y2="126.138" class="gray" /></g>
<g><line x1="120.956" y1="129.202" x2="120.689" y2="132.674" class="gray" /></g>
<g><line x1="120.589" y1="136.757" x2="120.686" y2="140.229" class="gray" /></g>
<g><line x1="120.743" y1="144.318" x2="120.743" y2="147.788" class="gray" /></g>
<g><line x1="122.215" y1="151.253" x2="124.82" y2="153.764" class="gray" /></g>
<g><line x1="127.709" y1="153.709" x2="130.016" y2="151.308" class="gray" /></g>
<g><line x1="131.433" y1="147.788" x2="131.433" y2="144.318" class="gray" /></g>
<g><line x1="131.376" y1="140.229" x2="131.279" y2="136.757" class="gray" /></g>
<g><line x1="129.736" y1="133.309" x2="127.329" y2="131.037" class="gray" /></g>
<g><line x1="125.231" y1="127.682" x2="124.174" y2="124.315" class="gray" /></g>
<g><line x1="124.225" y1="120.429" x2="125.39" y2="117.028" class="gray" /></g>
<g><line x1="127.539" y1="113.689" x2="129.946" y2="111.417" class="gray" /></g>
<g><line x1="130.594" y1="108.148" x2="129.171" y2="104.979" class="gray" /></g>
<g><line x1="129.217" y1="101.269" x2="130.758" y2="98.0571" class="gray" /></g>
<g><line x1="131.529" y1="94.1714" x2="131.336" y2="90.6951" class="gray" /></g>
<g><line x1="129.425" y1="87.6786" x2="126.38" y2="86.0279" class="gray" /></g>
<g><line x1="123.343" y1="83.427" x2="121.392" y2="80.8695" class="gray" /></g>
<g><line x1="119.466" y1="77.317" x2="118.279" y2="73.9895" class="gray" /></g>
<g><line x1="117.658" y1="70.0193" x2="117.768" y2="66.5572" class="gray" /></g>
<g><line x1="118.745" y1="62.6831" x2="120.33" y2="59.5034" class="gray" /></g>
<g><line x1="122.704" y1="56.2425" x2="125.081" y2="53.914" class="gray" /></g>
<g><line x1="128.457" y1="51.7652" x2="132.068" y2="50.4113" class="gray" /></g>
<g><line x1="136.028" y1="49.6933" x2="139.498" y2="49.6933" class="gray" /></g>
<g><line x1="143.443" y1="50.4476" x2="146.672" y2="51.7289" class="gray" /></g>
<g><line x1="150.003" y1="53.9447" x2="152.222" y2="56.2118" class="gray" /></g>
<g><line x1="154.567" y1="59.5024" x2="156.158" y2="62.6841" class="gray" /></g>
<g><line x1="157.251" y1="66.5505" x2="157.554" y2="70.026" class="gray" /></g>
<g><line x1="156.994" y1="73.9703" x2="155.691" y2="77.3362" class="gray" /></g>
<g><line x1="153.644" y1="80.8145" x2="151.421" y2="83.482" class="gray" /></g>
<g><line x1="148.328" y1="86.0511" x2="145.458" y2="87.6554" class="gray" /></g>
<g><line x1="143.673" y1="90.6983" x2="143.673" y2="94.1683" class="gray" /></g>
<g><line x1="144.463" y1="98.0995" x2="145.773" y2="101.227" class="gray" /></g>
<g><line x1="145.724" y1="104.979" x2="144.301" y2="108.148" class="gray" /></g>
<g><line x1="145.41" y1="110.638" x2="149.095" y2="111.819" class="gray" /></g>
<g><line x1="152.234" y1="114.106" x2="154.251" y2="116.921" class="gray" /></g>
<g><line x1="155.332" y1="120.625" x2="155.143" y2="124.101" class="gray" /></g>
<g><line x1="153.879" y1="127.832" x2="151.986" y2="130.604" class="gray" /></g>
<g><line x1="148.895" y1="132.948" x2="145.61" y2="134.058" class="gray" /></g>
<g><line x1="143.729" y1="136.757" x2="143.826" y2="140.229" class="gray" /></g>
<g><line x1="143.769" y1="144.315" x2="143.576" y2="147.791" class="gray" /></g>
<g><line x1="144.962" y1="151.224" x2="147.507" y2="153.583" class="gray" /></g>
<g><line x1="151.051" y1="154.973" x2="154.521" y2="154.973" class="gray" /></g>
<g><line x1="158.611" y1="154.973" x2="162.081" y2="154.973" class="gray" /></g>
</svg>
