<svg
	xmlns="http://www.w3.org/2000/svg"
	width="208.06"
	height="248.35">
<g><style type="text/css" >
<!-- create color definitions -->
<![CDATA[
circle.red {stroke: rgb(255, 0, 255); fill: none; }
circle.green {stroke: rgb(0, 255, 0); fill: none; }
circle.blue {stroke: rgb(0, 0, 255); fill: none; }
circle.black {stroke: rgb(0, 0, 0); fill: none; }
circle.gray {stroke: rgb(204, 204, 204); fill: none; }
circle.brown {stroke: rgb(211.65, 104.55, 30.6); fill: none; }
line.red {stroke: rgb(255, 0, 255); stroke-width: 0.381113; }
line.green {stroke: rgb(0, 255, 0); stroke-width: 0.381113; }
line.blue {stroke: rgb(0, 0, 255); stroke-width: 0.381113; }
line.black {stroke: rgb(0, 0, 0); stroke-width: 0.381113; }
line.gray {stroke: rgb(204, 204, 204); stroke-width: 0.381113; }
line.brown {stroke: rgb(211.65, 104.55, 30.6); stroke-width: 0.381113; }
line {stroke: rgb(0, 0, 0); }
text.red {fill: rgb(255, 0, 255); font-size: 3.048908px; font-weight: bold; font-family: Helvetica; }
text.green {fill: rgb(0, 255, 0); font-size: 3.048908px; font-weight: bold; font-family: Helvetica; }
text.blue {fill: rgb(0, 0, 255); font-size: 3.048908px; font-weight: bold; font-family: Helvetica; }
text.black {fill: rgb(0, 0, 0); font-size: 3.048908px; font-weight: bold; font-family: Helvetica; }
text.gray {fill: rgb(204, 204, 204); font-size: 3.048908px; font-weight: bold; font-family: Helvetica; }
text.brown {fill: rgb(211.65, 104.55, 30.6); font-size: 3.048908px; font-weight: bold; font-family: Helvetica; }
text {fill: rgb(0, 0, 0); font-size: 3.048908px; font-weight: bold; font-family: Helvetica; text-anchor: middle; alignment-baseline: middle; }

.pseudoknot_connection{stroke-linecap: round; stroke-opacity: 0.2; stroke-width: 1.5; }
.pseudoknot_segment1{stroke-linecap: round; stroke-opacity: 0.4; stroke-width: 3.04891; }
.pseudoknot_segment2{stroke-linecap: round; stroke-opacity: 0.4; stroke-width: 3.04891; }
line.numbering-line{stroke: rgb(204, 204, 204); stroke-width: 0.190557; }
line.predicted{stroke: rgb(0, 0, 0); stroke-dasharray: 2; }
polyline{fill: none; stroke-linejoin: round; }
template{visibility: hidden; }
text.numbering-label{fill: rgb(204, 204, 204); }
]]>
</style></g>
<g><title>0 (position.label in template: 0.5')</title><text x="123.49" y="198.35" class="green" >5'</text></g>
<g><title>1 (position.label in template: 1.A)</title><text x="130.49" y="198.35" class="black" >A</text></g>
<g><line x1="132.523" y1="198.045" x2="140.287" y2="198.045" class="black" /></g>
<g><title>2 (position.label in template: 2.U)</title><text x="130.29" y="190.79" class="green" >T</text></g>
<g><line x1="132.323" y1="190.485" x2="140.287" y2="190.485" class="black" /></g>
<g><title>3 (position.label in template: 3.G)</title><text x="130.08" y="183.23" class="green" >G</text></g>
<g><line x1="132.113" y1="182.925" x2="140.497" y2="182.925" class="black" /></g>
<g><title>4 (position.label in template: 4.G)</title><text x="130.08" y="175.67" class="green" >G</text></g>
<g><line x1="132.113" y1="175.365" x2="140.497" y2="175.365" class="black" /></g>
<g><title>5 (position.label in template: 5.U)</title><text x="124.69" y="170.58" class="green" >T</text></g>
<g><title>6 (position.label in template: 6.A)</title><text x="122.82" y="163.31" class="black" >A</text></g>
<g><title>7 (position.label in template: 7.A)</title><text x="124.9" y="156.04" class="black" >A</text></g>
<g><title>8 (position.label in template: 8.C)</title><text x="130.29" y="150.96" class="black" >C</text></g>
<g><line x1="132.323" y1="150.655" x2="140.287" y2="150.655" class="black" /></g>
<g><title>9 (position.label in template: 9.U)</title><text x="130.29" y="143.4" class="green" >T</text></g>
<g><line x1="132.323" y1="143.095" x2="140.697" y2="143.095" class="black" /></g>
<g><title>10 (position.label in template: 10.C)</title><text x="130.29" y="135.84" class="black" >C</text></g>
<g><line x1="132.323" y1="135.535" x2="140.287" y2="135.535" class="black" /></g>
<g><text x="123.43" y="135.84" class="numbering-label sequential" >10</text></g>
<g><line x1="128.461" y1="135.84" x2="125.259" y2="135.84" class="numbering-line sequential" /></g>
<g><title>11 (position.label in template: 11.C)</title><text x="130.29" y="128.28" class="black" >C</text></g>
<g><line x1="132.323" y1="127.975" x2="140.287" y2="127.975" class="black" /></g>
<g><title>12 (position.label in template: 12.G)</title><text x="123.65" y="124.29" class="black" >G</text></g>
<g><title>13 (position.label in template: 13.C)</title><text x="119.63" y="118.02" class="black" >C</text></g>
<g><title>14 (position.label in template: 14.C)</title><text x="118.34" y="110.58" class="black" >C</text></g>
<g><line x1="119.068" y1="108.377" x2="121.972" y2="100.813" class="black" /></g>
<g><title>15 (position.label in template: 15.U)</title><text x="111.32" y="107.75" class="green" >T</text></g>
<g><line x1="112.081" y1="105.56" x2="115.139" y2="97.98" class="black" /></g>
<g><title>16 (position.label in template: 16.G)</title><text x="104.1" y="104.92" class="black" >G</text></g>
<g><line x1="104.89" y1="102.742" x2="108.1" y2="95.1378" class="black" /></g>
<g><title>17 (position.label in template: 17.U)</title><text x="97.3" y="102.1" class="green" >T</text></g>
<g><line x1="98.0883" y1="99.9216" x2="101.292" y2="92.3086" class="black" /></g>
<g><title>18 (position.label in template: 18.A)</title><text x="90.5" y="99.27" class="green" >A</text></g>
<g><line x1="91.2303" y1="97.0682" x2="94.1397" y2="89.512" class="black" /></g>
<g><title>19 (position.label in template: 19.G)</title><text x="83.07" y="96.44" class="black" >G</text></g>
<g><line x1="83.8589" y1="94.2619" x2="87.0611" y2="86.6584" class="black" /></g>
<g><title>20 (position.label in template: 20.C)</title><text x="77.29" y="101.06" class="black" >C</text></g>
<g><text x="80.356" y="107.197" class="numbering-label sequential" >20</text></g>
<g><line x1="78.1076" y1="102.696" x2="79.5944" y2="105.672" class="numbering-line sequential" /></g>
<g><title>21 (position.label in template: 21.U)</title><text x="69.98" y="102.98" class="green" >T</text></g>
<g><title>22 (position.label in template: 22.C)</title><text x="62.5" y="101.88" class="black" >C</text></g>
<g><title>23 (position.label in template: 23.C)</title><text x="56.05" y="97.94" class="black" >C</text></g>
<g><title>24 (position.label in template: 24.U)</title><text x="51.65" y="91.79" class="green" >T</text></g>
<g><title>25 (position.label in template: 25.C)</title><text x="50" y="84.42" class="black" >C</text></g>
<g><title>26 (position.label in template: 26.C)</title><text x="51.37" y="76.98" class="black" >C</text></g>
<g><title>27 (position.label in template: 27.A)</title><text x="55.75" y="70.67" class="black" >A</text></g>
<g><title>28 (position.label in template: 28.G)</title><text x="61.63" y="66.5" class="black" >G</text></g>
<g><title>29 (position.label in template: 29.G)</title><text x="69.07" y="65.12" class="black" >G</text></g>
<g><title>30 (position.label in template: 30.G)</title><text x="76.45" y="66.76" class="black" >G</text></g>
<g><text x="79.2464" y="60.4958" class="numbering-label sequential" >30</text></g>
<g><line x1="77.1957" y1="65.0895" x2="78.5659" y2="62.0203" class="numbering-line sequential" /></g>
<g><title>31 (position.label in template: 31.G)</title><text x="82.6" y="71.16" class="black" >G</text></g>
<g><title>32 (position.label in template: 32.G)</title><text x="86.54" y="77.61" class="black" >G</text></g>
<g><title>33 (position.label in template: 33.C)</title><text x="87.85" y="85.09" class="black" >C</text></g>
<g><title>34 (position.label in template: 34.U)</title><text x="94.87" y="87.92" class="green" >T</text></g>
<g><title>35 (position.label in template: 35.A)</title><text x="102.08" y="90.74" class="green" >A</text></g>
<g><title>36 (position.label in template: 36.C)</title><text x="108.89" y="93.57" class="black" >C</text></g>
<g><title>37 (position.label in template: 37.U)</title><text x="115.9" y="96.4" class="green" >T</text></g>
<g><title>38 (position.label in template: 38.G)</title><text x="122.7" y="99.22" class="black" >G</text></g>
<g><title>39 (position.label in template: 39.C)</title><text x="129.01" y="94.76" class="black" >C</text></g>
<g><line x1="131.037" y1="94.2981" x2="138.983" y2="93.6822" class="black" /></g>
<g><title>40 (position.label in template: 40.C)</title><text x="128.44" y="87.22" class="black" >C</text></g>
<g><line x1="130.467" y1="86.7579" x2="138.403" y2="86.1423" class="black" /></g>
<g><title>41 (position.label in template: 41.G)</title><text x="127.66" y="79.68" class="black" >G</text></g>
<g><line x1="129.687" y1="79.2232" x2="138.043" y2="78.597" class="black" /></g>
<g><title>42 (position.label in template: 42.G)</title><text x="121.34" y="75.53" class="black" >G</text></g>
<g><title>43 (position.label in template: 43.U)</title><text x="117.98" y="68.86" class="green" >T</text></g>
<g><title>44 (position.label in template: 44.C)</title><text x="118.01" y="61.3" class="black" >C</text></g>
<g><title>45 (position.label in template: 45.C)</title><text x="121.65" y="54.68" class="black" >C</text></g>
<g><title>46 (position.label in template: 46.C)</title><text x="128" y="50.58" class="black" >C</text></g>
<g><title>47 (position.label in template: 47.A)</title><text x="135.74" y="50" class="black" >A</text></g>
<g><title>48 (position.label in template: 48.A)</title><text x="142.64" y="53.09" class="black" >A</text></g>
<g><title>49 (position.label in template: 49.G)</title><text x="146.82" y="59.1" class="black" >G</text></g>
<g><title>50 (position.label in template: 50.C)</title><text x="148.21" y="66.57" class="black" >C</text></g>
<g><text x="155.05" y="67.0997" class="numbering-label sequential" >50</text></g>
<g><line x1="150.034" y1="66.7113" x2="153.22" y2="66.958" class="numbering-line sequential" /></g>
<g><title>51 (position.label in template: 51.C)</title><text x="145.69" y="73.69" class="black" >C</text></g>
<g><title>52 (position.label in template: 52.C)</title><text x="140.07" y="78.75" class="black" >C</text></g>
<g><title>53 (position.label in template: 53.G)</title><text x="140.43" y="86.29" class="black" >G</text></g>
<g><title>54 (position.label in template: 54.G)</title><text x="141.01" y="93.83" class="black" >G</text></g>
<g><title>55 (position.label in template: 55.G)</title><text x="147.71" y="97.32" class="black" >G</text></g>
<g><title>56 (position.label in template: 56.U)</title><text x="152.62" y="103.25" class="green" >T</text></g>
<g><title>57 (position.label in template: 57.A)</title><text x="154.68" y="110.58" class="black" >A</text></g>
<g><title>58 (position.label in template: 58.A)</title><text x="153.38" y="118.02" class="black" >A</text></g>
<g><title>59 (position.label in template: 59.A)</title><text x="149.15" y="124.29" class="black" >A</text></g>
<g><title>60 (position.label in template: 60.G)</title><text x="142.32" y="128.28" class="black" >G</text></g>
<g><title>61 (position.label in template: 61.G)</title><text x="142.32" y="135.84" class="black" >G</text></g>
<g><title>62 (position.label in template: 62.A)</title><text x="142.73" y="143.4" class="green" >A</text></g>
<g><title>63 (position.label in template: 63.G)</title><text x="142.32" y="150.96" class="black" >G</text></g>
<g><title>64 (position.label in template: 64.G)</title><text x="149.86" y="151.43" class="black" >G</text></g>
<g><title>65 (position.label in template: 65.A)</title><text x="156.22" y="156.09" class="black" >A</text></g>
<g><title>66 (position.label in template: 66.G)</title><text x="158.06" y="163.31" class="black" >G</text></g>
<g><title>67 (position.label in template: 67.G)</title><text x="155.81" y="170.53" class="black" >G</text></g>
<g><title>68 (position.label in template: 68.G)</title><text x="149.86" y="175.2" class="black" >G</text></g>
<g><title>69 (position.label in template: 69.U)</title><text x="142.53" y="175.67" class="green" >T</text></g>
<g><title>70 (position.label in template: 70.U)</title><text x="142.53" y="183.23" class="green" >T</text></g>
<g><title>71 (position.label in template: 71.G)</title><text x="142.32" y="190.79" class="green" >G</text></g>
<g><title>72 (position.label in template: 72.G)</title><text x="142.32" y="198.35" class="black" >G</text></g>
<g><title>73 (position.label in template: 73.3')</title><text x="149.32" y="198.35" class="green" >3'</text></g>
<g><line x1="125.523" y1="198.045" x2="128.457" y2="198.045" class="gray" /></g>
<g><line x1="130.436" y1="196.013" x2="130.344" y2="192.517" class="gray" /></g>
<g><line x1="130.234" y1="188.453" x2="130.136" y2="184.957" class="gray" /></g>
<g><line x1="130.08" y1="180.893" x2="130.08" y2="177.398" class="gray" /></g>
<g><line x1="128.602" y1="173.97" x2="126.168" y2="171.671" class="gray" /></g>
<g><line x1="124.184" y1="168.307" x2="123.326" y2="164.974" class="gray" /></g>
<g><line x1="123.379" y1="161.051" x2="124.341" y2="157.689" class="gray" /></g>
<g><line x1="126.379" y1="154.341" x2="128.811" y2="152.049" class="gray" /></g>
<g><line x1="130.29" y1="148.623" x2="130.29" y2="145.128" class="gray" /></g>
<g><line x1="130.29" y1="141.063" x2="130.29" y2="137.568" class="gray" /></g>
<g><line x1="130.29" y1="133.503" x2="130.29" y2="130.008" class="gray" /></g>
<g><line x1="128.548" y1="126.928" x2="125.392" y2="125.032" class="gray" /></g>
<g><line x1="122.553" y1="122.274" x2="120.727" y2="119.426" class="gray" /></g>
<g><line x1="119.283" y1="115.712" x2="118.687" y2="112.278" class="gray" /></g>
<g><line x1="116.455" y1="109.515" x2="113.205" y2="108.205" class="gray" /></g>
<g><line x1="109.428" y1="106.703" x2="105.992" y2="105.357" class="gray" /></g>
<g><line x1="102.222" y1="103.836" x2="99.1776" y2="102.574" class="gray" /></g>
<g><line x1="95.4234" y1="101.014" x2="92.3766" y2="99.7461" class="gray" /></g>
<g><line x1="88.6005" y1="98.2416" x2="84.9695" y2="96.8586" class="gray" /></g>
<g><line x1="81.4823" y1="97.4042" x2="78.8777" y2="99.486" class="gray" /></g>
<g><line x1="75.3241" y1="101.271" x2="71.9459" y2="102.159" class="gray" /></g>
<g><line x1="67.969" y1="102.379" x2="64.511" y2="101.871" class="gray" /></g>
<g><line x1="60.7654" y1="100.516" x2="57.7846" y2="98.6947" class="gray" /></g>
<g><line x1="54.8673" y1="95.982" x2="52.8327" y2="93.1382" class="gray" /></g>
<g><line x1="51.2059" y1="89.5016" x2="50.4441" y2="86.0986" class="gray" /></g>
<g><line x1="50.3681" y1="82.1161" x2="51.0019" y2="78.6741" class="gray" /></g>
<g><line x1="52.529" y1="75.0053" x2="54.591" y2="72.0349" class="gray" /></g>
<g><line x1="57.408" y1="69.1893" x2="59.972" y2="67.3709" class="gray" /></g>
<g><line x1="63.6285" y1="65.8244" x2="67.0715" y2="65.1858" class="gray" /></g>
<g><line x1="71.0542" y1="65.256" x2="74.4658" y2="66.0142" class="gray" /></g>
<g><line x1="78.1031" y1="67.6378" x2="80.9469" y2="69.6724" class="gray" /></g>
<g><line x1="83.6596" y1="72.5897" x2="85.4804" y2="75.5705" class="gray" /></g>
<g><line x1="86.8906" y1="79.3072" x2="87.4994" y2="82.783" class="gray" /></g>
<g><line x1="89.7352" y1="85.5451" x2="92.9848" y2="86.8551" class="gray" /></g>
<g><line x1="96.763" y1="88.3555" x2="100.187" y2="89.6947" class="gray" /></g>
<g><line x1="103.957" y1="91.2151" x2="107.013" y2="92.4851" class="gray" /></g>
<g><line x1="110.775" y1="94.026" x2="114.015" y2="95.3342" class="gray" /></g>
<g><line x1="117.778" y1="96.8737" x2="120.822" y2="98.1365" class="gray" /></g>
<g><line x1="124.36" y1="97.7419" x2="127.35" y2="95.6283" class="gray" /></g>
<g><line x1="128.857" y1="92.4283" x2="128.593" y2="88.9419" class="gray" /></g>
<g><line x1="128.231" y1="84.8933" x2="127.869" y2="81.3969" class="gray" /></g>
<g><line x1="125.961" y1="78.2594" x2="123.039" y2="76.3408" class="gray" /></g>
<g><line x1="120.426" y1="73.4098" x2="118.894" y2="70.3704" class="gray" /></g>
<g><line x1="117.988" y1="66.5225" x2="118.002" y2="63.0277" class="gray" /></g>
<g><line x1="118.989" y1="59.214" x2="120.671" y2="56.1562" class="gray" /></g>
<g><line x1="123.358" y1="53.2726" x2="126.292" y2="51.3777" class="gray" /></g>
<g><line x1="130.027" y1="50.1232" x2="133.713" y2="49.847" class="gray" /></g>
<g><line x1="137.595" y1="50.5259" x2="140.785" y2="51.9544" class="gray" /></g>
<g><line x1="143.801" y1="54.4538" x2="145.659" y2="57.1264" class="gray" /></g>
<g><line x1="147.192" y1="60.7934" x2="147.838" y2="64.2668" class="gray" /></g>
<g><line x1="147.532" y1="68.1812" x2="146.368" y2="71.469" class="gray" /></g>
<g><line x1="144.179" y1="74.7451" x2="141.581" y2="77.0851" class="gray" /></g>
<g><line x1="140.167" y1="80.4754" x2="140.333" y2="83.9548" class="gray" /></g>
<g><line x1="140.586" y1="88.0117" x2="140.854" y2="91.4985" class="gray" /></g>
<g><line x1="142.813" y1="94.4641" x2="145.907" y2="96.0761" class="gray" /></g>
<g><line x1="149.006" y1="98.5807" x2="151.324" y2="101.38" class="gray" /></g>
<g><line x1="153.17" y1="104.902" x2="154.13" y2="108.318" class="gray" /></g>
<g><line x1="154.33" y1="112.277" x2="153.73" y2="115.713" class="gray" /></g>
<g><line x1="152.243" y1="119.4" x2="150.287" y2="122.3" class="gray" /></g>
<g><line x1="147.395" y1="125.01" x2="144.075" y2="126.95" class="gray" /></g>
<g><line x1="142.32" y1="130.008" x2="142.32" y2="133.503" class="gray" /></g>
<g><line x1="142.43" y1="137.565" x2="142.62" y2="141.065" class="gray" /></g>
<g><line x1="142.62" y1="145.125" x2="142.43" y2="148.625" class="gray" /></g>
<g><line x1="144.349" y1="150.782" x2="147.831" y2="150.999" class="gray" /></g>
<g><line x1="151.5" y1="152.326" x2="154.58" y2="154.584" class="gray" /></g>
<g><line x1="156.722" y1="157.755" x2="157.558" y2="161.035" class="gray" /></g>
<g><line x1="157.455" y1="164.946" x2="156.415" y2="168.285" class="gray" /></g>
<g><line x1="154.211" y1="171.48" x2="151.459" y2="173.64" class="gray" /></g>
<g><line x1="147.832" y1="175.025" x2="144.558" y2="175.235" class="gray" /></g>
<g><line x1="142.53" y1="177.398" x2="142.53" y2="180.893" class="gray" /></g>
<g><line x1="142.474" y1="184.957" x2="142.376" y2="188.453" class="gray" /></g>
<g><line x1="142.32" y1="192.518" x2="142.32" y2="196.013" class="gray" /></g>
<g><line x1="144.353" y1="198.045" x2="147.287" y2="198.045" class="gray" /></g>
</svg>
