<svg
	xmlns="http://www.w3.org/2000/svg"
	width="250.69"
	height="298.502">
<g><style type="text/css" >
<!-- create color definitions -->
<![CDATA[
circle.red {stroke: rgb(255, 0, 255); fill: none; }
circle.green {stroke: rgb(0, 255, 0); fill: none; }
circle.blue {stroke: rgb(0, 0, 255); fill: none; }
circle.black {stroke: rgb(0, 0, 0); fill: none; }
circle.gray {stroke: rgb(204, 204, 204); fill: none; }
circle.brown {stroke: rgb(211.65, 104.55, 30.6); fill: none; }
line.red {stroke: rgb(255, 0, 255); stroke-width: 0.382554; }
line.green {stroke: rgb(0, 255, 0); stroke-width: 0.382554; }
line.blue {stroke: rgb(0, 0, 255); stroke-width: 0.382554; }
line.black {stroke: rgb(0, 0, 0); stroke-width: 0.382554; }
line.gray {stroke: rgb(204, 204, 204); stroke-width: 0.382554; }
line.brown {stroke: rgb(211.65, 104.55, 30.6); stroke-width: 0.382554; }
line {stroke: rgb(0, 0, 0); }
text.red {fill: rgb(255, 0, 255); font-size: 3.060429px; font-weight: bold; font-family: Helvetica; }
text.green {fill: rgb(0, 255, 0); font-size: 3.060429px; font-weight: bold; font-family: Helvetica; }
text.blue {fill: rgb(0, 0, 255); font-size: 3.060429px; font-weight: bold; font-family: Helvetica; }
text.black {fill: rgb(0, 0, 0); font-size: 3.060429px; font-weight: bold; font-family: Helvetica; }
text.gray {fill: rgb(204, 204, 204); font-size: 3.060429px; font-weight: bold; font-family: Helvetica; }
text.brown {fill: rgb(211.65, 104.55, 30.6); font-size: 3.060429px; font-weight: bold; font-family: Helvetica; }
text {fill: rgb(0, 0, 0); font-size: 3.060429px; font-weight: bold; font-family: Helvetica; text-anchor: middle; alignment-baseline: middle; }

.pseudoknot_connection{stroke-linecap: round; stroke-opacity: 0.2; stroke-width: 1.5; }
.pseudoknot_segment1{stroke-linecap: round; stroke-opacity: 0.4; stroke-width: 3.06043; }
.pseudoknot_segment2{stroke-linecap: round; stroke-opacity: 0.4; stroke-width: 3.06043; }
line.numbering-line{stroke: rgb(204, 204, 204); stroke-width: 0.191277; }
line.predicted{stroke: rgb(0, 0, 0); stroke-dasharray: 2; }
polyline{fill: none; stroke-linejoin: round; }
template{visibility: hidden; }
text.numbering-label{fill: rgb(204, 204, 204); }
]]>
</style></g>
<g><title>0 (position.label in template: 0.5')</title><text x="107.504" y="248.502" class="green" >5'</text></g>
<g><title>1 (position.label in template: 1.A)</title><text x="115.071" y="248.502" class="black" >A</text></g>
<g><title>2 (position.label in template: 2.U)</title><text x="122.638" y="248.502" class="green" >T</text></g>
<g><title>3 (position.label in template: 3.C)</title><text x="130.205" y="248.502" class="black" >C</text></g>
<g><title>4 (position.label in template: 4.A)</title><text x="137.772" y="248.502" class="black" >A</text></g>
<g><title>5 (position.label in template: 5.C)</title><text x="143.02" y="243.05" class="black" >C</text></g>
<g><line x1="145.06" y1="242.744" x2="153.01" y2="242.744" class="black" /></g>
<g><title>6 (position.label in template: 6.G)</title><text x="142.81" y="235.49" class="black" >G</text></g>
<g><line x1="144.85" y1="235.184" x2="153.22" y2="235.184" class="black" /></g>
<g><title>7 (position.label in template: 7.C)</title><text x="143.02" y="227.93" class="black" >C</text></g>
<g><line x1="145.06" y1="227.624" x2="153.01" y2="227.624" class="black" /></g>
<g><title>8 (position.label in template: 8.G)</title><text x="142.81" y="220.36" class="black" >G</text></g>
<g><line x1="144.85" y1="220.054" x2="153.22" y2="220.054" class="black" /></g>
<g><title>9 (position.label in template: 9.U)</title><text x="143.02" y="212.8" class="green" >T</text></g>
<g><line x1="145.06" y1="212.494" x2="153.43" y2="212.494" class="black" /></g>
<g><title>10 (position.label in template: 10.C)</title><text x="143.02" y="205.24" class="black" >C</text></g>
<g><line x1="145.06" y1="204.934" x2="153.01" y2="204.934" class="black" /></g>
<g><text x="136.135" y="205.149" class="numbering-label sequential" >10</text></g>
<g><line x1="141.184" y1="205.216" x2="137.971" y2="205.173" class="numbering-line sequential" /></g>
<g><title>11 (position.label in template: 11.A)</title><text x="143.22" y="197.68" class="black" >A</text></g>
<g><line x1="145.26" y1="197.374" x2="153.22" y2="197.374" class="black" /></g>
<g><title>12 (position.label in template: 12.G)</title><text x="142.81" y="190.12" class="black" >G</text></g>
<g><line x1="144.85" y1="189.814" x2="153.22" y2="189.814" class="black" /></g>
<g><title>13 (position.label in template: 13.G)</title><text x="135.78" y="187.34" class="black" >G</text></g>
<g><title>14 (position.label in template: 14.A)</title><text x="130.24" y="182.68" class="black" >A</text></g>
<g><title>15 (position.label in template: 15.G)</title><text x="125.44" y="176.52" class="black" >G</text></g>
<g><title>16 (position.label in template: 16.A)</title><text x="123.39" y="169.38" class="black" >A</text></g>
<g><title>17 (position.label in template: 17.G)</title><text x="122.63" y="161.82" class="black" >G</text></g>
<g><title>18 (position.label in template: 18.C)</title><text x="124.66" y="154.48" class="black" >C</text></g>
<g><title>19 (position.label in template: 19.G)</title><text x="128.26" y="147.96" class="black" >G</text></g>
<g><line x1="129.879" y1="146.413" x2="136.491" y2="141.345" class="black" /></g>
<g><title>20 (position.label in template: 20.C)</title><text x="123.81" y="142.01" class="black" >C</text></g>
<g><line x1="125.403" y1="140.429" x2="131.647" y2="135.429" class="black" /></g>
<g><text x="118.387" y="146.254" class="numbering-label sequential" >20</text></g>
<g><line x1="122.364" y1="143.142" x2="120.343" y2="144.723" class="numbering-line sequential" /></g>
<g><title>21 (position.label in template: 21.G)</title><text x="118.94" y="136.05" class="black" >G</text></g>
<g><line x1="120.56" y1="134.504" x2="127.17" y2="129.444" class="black" /></g>
<g><title>22 (position.label in template: 22.U)</title><text x="114.49" y="130.1" class="green" >T</text></g>
<g><line x1="116.082" y1="128.518" x2="122.318" y2="123.52" class="black" /></g>
<g><title>23 (position.label in template: 23.G)</title><text x="107.42" y="133.27" class="black" >G</text></g>
<g><title>24 (position.label in template: 24.G)</title><text x="100.1" y="135.19" class="black" >G</text></g>
<g><title>25 (position.label in template: 25.C)</title><text x="92.78" y="135.8" class="black" >C</text></g>
<g><title>26 (position.label in template: 26.C)</title><text x="85.25" y="135.08" class="black" >C</text></g>
<g><title>27 (position.label in template: 27.G)</title><text x="77.76" y="133.04" class="black" >G</text></g>
<g><title>28 (position.label in template: 28.C)</title><text x="71.16" y="129.76" class="black" >C</text></g>
<g><title>29 (position.label in template: 29.U)</title><text x="65.03" y="125.34" class="green" >T</text></g>
<g><title>30 (position.label in template: 30.U)</title><text x="59.77" y="119.91" class="green" >T</text></g>
<g><text x="54.4198" y="124.245" class="numbering-label sequential" >30</text></g>
<g><line x1="58.3433" y1="121.066" x2="56.3084" y2="122.715" class="numbering-line sequential" /></g>
<g><title>31 (position.label in template: 31.C)</title><text x="55.55" y="113.64" class="black" >C</text></g>
<g><title>32 (position.label in template: 32.A)</title><text x="52.7" y="106.72" class="black" >A</text></g>
<g><title>33 (position.label in template: 33.U)</title><text x="50.69" y="99.38" class="green" >T</text></g>
<g><title>34 (position.label in template: 34.G)</title><text x="50" y="91.83" class="black" >G</text></g>
<g><title>35 (position.label in template: 35.A)</title><text x="51.27" y="84.32" class="black" >A</text></g>
<g><title>36 (position.label in template: 36.C)</title><text x="53.22" y="77.08" class="black" >C</text></g>
<g><title>37 (position.label in template: 37.A)</title><text x="56.81" y="70.32" class="black" >A</text></g>
<g><title>38 (position.label in template: 38.G)</title><text x="60.92" y="64.26" class="black" >G</text></g>
<g><title>39 (position.label in template: 39.C)</title><text x="66.65" y="59.1" class="black" >C</text></g>
<g><title>40 (position.label in template: 40.U)</title><text x="72.99" y="54.98" class="green" >T</text></g>
<g><title>41 (position.label in template: 41.C)</title><text x="79.96" y="52.04" class="black" >C</text></g>
<g><title>42 (position.label in template: 42.A)</title><text x="87.53" y="50.36" class="black" >A</text></g>
<g><title>43 (position.label in template: 43.U)</title><text x="94.88" y="50" class="green" >T</text></g>
<g><title>44 (position.label in template: 44.G)</title><text x="102.17" y="50.98" class="black" >G</text></g>
<g><title>45 (position.label in template: 45.U)</title><text x="109.59" y="53.26" class="green" >T</text></g>
<g><title>46 (position.label in template: 46.A)</title><text x="116.49" y="56.76" class="black" >A</text></g>
<g><title>47 (position.label in template: 47.A)</title><text x="122.47" y="61.39" class="black" >A</text></g>
<g><title>48 (position.label in template: 48.G)</title><text x="127.13" y="66.99" class="black" >G</text></g>
<g><title>49 (position.label in template: 49.C)</title><text x="131.35" y="73.4" class="black" >C</text></g>
<g><title>50 (position.label in template: 50.C)</title><text x="134.18" y="80.41" class="black" >C</text></g>
<g><text x="140.795" y="78.4959" class="numbering-label sequential" >50</text></g>
<g><line x1="135.944" y1="79.8996" x2="138.958" y2="79.0272" class="numbering-line sequential" /></g>
<g><title>51 (position.label in template: 51.G)</title><text x="135.52" y="87.81" class="black" >G</text></g>
<g><title>52 (position.label in template: 52.G)</title><text x="135.75" y="95.36" class="black" >G</text></g>
<g><title>53 (position.label in template: 53.G)</title><text x="134.65" y="102.84" class="black" >G</text></g>
<g><title>54 (position.label in template: 54.C)</title><text x="132.46" y="110.01" class="black" >C</text></g>
<g><title>55 (position.label in template: 55.C)</title><text x="128.85" y="116.65" class="black" >C</text></g>
<g><title>56 (position.label in template: 56.G)</title><text x="123.91" y="122.55" class="green" >G</text></g>
<g><title>57 (position.label in template: 57.C)</title><text x="128.79" y="128.51" class="black" >C</text></g>
<g><title>58 (position.label in template: 58.G)</title><text x="133.24" y="134.46" class="black" >G</text></g>
<g><title>59 (position.label in template: 59.C)</title><text x="138.11" y="140.41" class="black" >C</text></g>
<g><title>60 (position.label in template: 60.C)</title><text x="145.36" y="138.27" class="black" >C</text></g>
<g><title>61 (position.label in template: 61.G)</title><text x="152.71" y="138.27" class="black" >G</text></g>
<g><line x1="154.611" y1="138.704" x2="162.399" y2="141.734" class="black" /></g>
<g><title>62 (position.label in template: 62.C)</title><text x="155.7" y="131.24" class="black" >C</text></g>
<g><line x1="157.592" y1="131.698" x2="164.978" y2="134.68" class="black" /></g>
<g><title>63 (position.label in template: 63.C)</title><text x="158.49" y="124.21" class="black" >C</text></g>
<g><line x1="160.382" y1="124.668" x2="167.768" y2="127.65" class="black" /></g>
<g><title>64 (position.label in template: 64.G)</title><text x="161.06" y="117.19" class="black" >G</text></g>
<g><line x1="162.962" y1="117.622" x2="170.748" y2="120.645" class="black" /></g>
<g><title>65 (position.label in template: 65.A)</title><text x="164.27" y="110.16" class="green" >A</text></g>
<g><line x1="166.162" y1="110.618" x2="173.548" y2="113.6" class="black" /></g>
<g><title>66 (position.label in template: 66.A)</title><text x="157.24" y="107.37" class="black" >A</text></g>
<g><title>67 (position.label in template: 67.G)</title><text x="159.61" y="100.34" class="black" >G</text></g>
<g><title>68 (position.label in template: 68.G)</title><text x="166.63" y="103.13" class="black" >G</text></g>
<g><line x1="168.531" y1="103.564" x2="176.319" y2="106.594" class="black" /></g>
<g><title>69 (position.label in template: 69.G)</title><text x="169.42" y="96.1" class="green" >G</text></g>
<g><line x1="171.321" y1="96.5338" x2="179.109" y2="99.5641" class="black" /></g>
<g><title>70 (position.label in template: 70.G)</title><text x="172.2" y="89.07" class="black" >G</text></g>
<g><line x1="174.101" y1="89.5038" x2="181.889" y2="92.5341" class="black" /></g>
<g><title>71 (position.label in template: 71.C)</title><text x="169.09" y="82.28" class="black" >C</text></g>
<g><title>72 (position.label in template: 72.A)</title><text x="170.04" y="74.76" class="black" >A</text></g>
<g><title>73 (position.label in template: 73.U)</title><text x="174.44" y="68.77" class="green" >T</text></g>
<g><title>74 (position.label in template: 74.A)</title><text x="181.72" y="66.1" class="black" >A</text></g>
<g><line x1="183.607" y1="66.5698" x2="190.803" y2="69.5282" class="black" /></g>
<g><title>75 (position.label in template: 75.C)</title><text x="183.96" y="58.95" class="black" >C</text></g>
<g><title>76 (position.label in template: 76.C)</title><text x="191.42" y="57.72" class="black" >C</text></g>
<g><title>77 (position.label in template: 77.U)</title><text x="196.02" y="63.72" class="green" >T</text></g>
<g><title>78 (position.label in template: 78.G)</title><text x="192.69" y="70.61" class="black" >G</text></g>
<g><title>79 (position.label in template: 79.C)</title><text x="198.66" y="75.51" class="black" >C</text></g>
<g><title>80 (position.label in template: 80.A)</title><text x="200.69" y="82.84" class="black" >A</text></g>
<g><title>81 (position.label in template: 81.A)</title><text x="197.91" y="89.87" class="black" >A</text></g>
<g><title>82 (position.label in template: 82.A)</title><text x="191.55" y="93.96" class="black" >A</text></g>
<g><title>83 (position.label in template: 83.C)</title><text x="183.79" y="93.58" class="black" >C</text></g>
<g><title>84 (position.label in template: 84.U)</title><text x="181.01" y="100.61" class="green" >T</text></g>
<g><title>85 (position.label in template: 85.C)</title><text x="178.22" y="107.64" class="black" >C</text></g>
<g><title>86 (position.label in template: 86.U)</title><text x="175.44" y="114.67" class="green" >T</text></g>
<g><title>87 (position.label in template: 87.C)</title><text x="172.65" y="121.69" class="black" >C</text></g>
<g><title>88 (position.label in template: 88.A)</title><text x="177.55" y="127.62" class="black" >A</text></g>
<g><title>89 (position.label in template: 89.G)</title><text x="169.66" y="128.72" class="black" >G</text></g>
<g><title>90 (position.label in template: 90.G)</title><text x="166.87" y="135.75" class="black" >G</text></g>
<g><title>91 (position.label in template: 91.C)</title><text x="164.3" y="142.78" class="black" >C</text></g>
<g><title>92 (position.label in template: 92.A)</title><text x="170.01" y="147.96" class="black" >A</text></g>
<g><title>93 (position.label in template: 93.A)</title><text x="173.83" y="154.48" class="black" >A</text></g>
<g><title>94 (position.label in template: 94.A)</title><text x="175.64" y="161.82" class="black" >A</text></g>
<g><title>95 (position.label in template: 95.A)</title><text x="175.3" y="169.38" class="black" >A</text></g>
<g><title>96 (position.label in template: 96.G)</title><text x="172.42" y="176.52" class="black" >G</text></g>
<g><title>97 (position.label in template: 97.G)</title><text x="168.03" y="182.68" class="black" >G</text></g>
<g><title>98 (position.label in template: 98.A)</title><text x="162.49" y="187.34" class="black" >A</text></g>
<g><title>99 (position.label in template: 99.C)</title><text x="155.26" y="190.12" class="black" >C</text></g>
<g><title>100 (position.label in template: 100.C)</title><text x="155.26" y="197.68" class="black" >C</text></g>
<g><text x="162.145" y="197.776" class="numbering-label sequential" >100</text></g>
<g><line x1="157.096" y1="197.706" x2="159.391" y2="197.737" class="numbering-line sequential" /></g>
<g><title>101 (position.label in template: 101.G)</title><text x="155.05" y="205.24" class="black" >G</text></g>
<g><title>102 (position.label in template: 102.A)</title><text x="155.47" y="212.8" class="green" >A</text></g>
<g><title>103 (position.label in template: 103.C)</title><text x="155.26" y="220.36" class="black" >C</text></g>
<g><title>104 (position.label in template: 104.C)</title><text x="161.81" y="224.14" class="black" >C</text></g>
<g><title>105 (position.label in template: 105.G)</title><text x="155.05" y="227.93" class="black" >G</text></g>
<g><title>106 (position.label in template: 106.C)</title><text x="155.26" y="235.49" class="black" >C</text></g>
<g><title>107 (position.label in template: 107.G)</title><text x="155.05" y="243.05" class="black" >G</text></g>
<g><title>108 (position.label in template: 108.U)</title><text x="160.503" y="248.297" class="green" >T</text></g>
<g><title>109 (position.label in template: 109.C)</title><text x="168.07" y="248.297" class="black" >C</text></g>
<g><title>110 (position.label in template: 110.G)</title><text x="175.637" y="248.297" class="black" >G</text></g>
<g><title>111 (position.label in template: 111.G)</title><text x="183.204" y="248.297" class="black" >G</text></g>
<g><title>112 (position.label in template: 112.3')</title><text x="190.772" y="248.297" class="green" >3'</text></g>
<g><line x1="109.544" y1="248.196" x2="113.031" y2="248.196" class="gray" /></g>
<g><line x1="117.111" y1="248.196" x2="120.598" y2="248.196" class="gray" /></g>
<g><line x1="124.678" y1="248.196" x2="128.165" y2="248.196" class="gray" /></g>
<g><line x1="132.245" y1="248.196" x2="135.732" y2="248.196" class="gray" /></g>
<g><line x1="139.187" y1="246.726" x2="141.605" y2="244.214" class="gray" /></g>
<g><line x1="142.963" y1="240.704" x2="142.867" y2="237.223" class="gray" /></g>
<g><line x1="142.867" y1="233.144" x2="142.963" y2="229.663" class="gray" /></g>
<g><line x1="142.963" y1="225.584" x2="142.867" y2="222.093" class="gray" /></g>
<g><line x1="142.867" y1="218.014" x2="142.963" y2="214.533" class="gray" /></g>
<g><line x1="143.02" y1="210.454" x2="143.02" y2="206.974" class="gray" /></g>
<g><line x1="143.074" y1="202.894" x2="143.166" y2="199.414" class="gray" /></g>
<g><line x1="143.11" y1="195.337" x2="142.92" y2="191.851" class="gray" /></g>
<g><line x1="140.913" y1="189.064" x2="137.677" y2="187.784" class="gray" /></g>
<g><line x1="134.219" y1="185.721" x2="131.801" y2="183.687" class="gray" /></g>
<g><line x1="128.986" y1="180.765" x2="126.694" y2="177.823" class="gray" /></g>
<g><line x1="124.877" y1="174.253" x2="123.953" y2="171.035" class="gray" /></g>
<g><line x1="123.186" y1="167.044" x2="122.834" y2="163.544" class="gray" /></g>
<g><line x1="123.174" y1="159.547" x2="124.116" y2="156.14" class="gray" /></g>
<g><line x1="125.646" y1="152.388" x2="127.274" y2="149.44" class="gray" /></g>
<g><line x1="127.038" y1="146.02" x2="125.032" y2="143.338" class="gray" /></g>
<g><line x1="122.519" y1="140.124" x2="120.231" y2="137.324" class="gray" /></g>
<g><line x1="117.718" y1="134.11" x2="115.712" y2="131.428" class="gray" /></g>
<g><line x1="112.628" y1="130.629" x2="109.282" y2="132.129" class="gray" /></g>
<g><line x1="105.446" y1="133.482" x2="102.074" y2="134.366" class="gray" /></g>
<g><line x1="98.0668" y1="135.053" x2="94.8132" y2="135.325" class="gray" /></g>
<g><line x1="90.749" y1="135.3" x2="87.281" y2="134.968" class="gray" /></g>
<g><line x1="83.2814" y1="134.238" x2="79.7286" y2="133.27" class="gray" /></g>
<g><line x1="75.9329" y1="131.826" x2="72.9871" y2="130.362" class="gray" /></g>
<g><line x1="69.5051" y1="128.261" x2="66.6849" y2="126.227" class="gray" /></g>
<g><line x1="63.6104" y1="123.568" x2="61.1896" y2="121.069" class="gray" /></g>
<g><line x1="58.6308" y1="117.911" x2="56.6892" y2="115.027" class="gray" /></g>
<g><line x1="54.773" y1="111.447" x2="53.477" y2="108.301" class="gray" /></g>
<g><line x1="52.1611" y1="104.446" x2="51.2289" y2="101.042" class="gray" /></g>
<g><line x1="50.5043" y1="97.0421" x2="50.1857" y2="93.5558" class="gray" /></g>
<g><line x1="50.3402" y1="89.5122" x2="50.9298" y2="86.0257" class="gray" /></g>
<g><line x1="51.8006" y1="82.0439" x2="52.6894" y2="78.744" class="gray" /></g>
<g><line x1="54.177" y1="74.972" x2="55.853" y2="71.8159" class="gray" /></g>
<g><line x1="57.9552" y1="68.3254" x2="59.7748" y2="65.6425" class="gray" /></g>
<g><line x1="62.4361" y1="62.5886" x2="65.1339" y2="60.1593" class="gray" /></g>
<g><line x1="68.3608" y1="57.6822" x2="71.2792" y2="55.7857" class="gray" /></g>
<g><line x1="74.8699" y1="53.881" x2="78.0801" y2="52.5269" class="gray" /></g>
<g><line x1="81.9518" y1="51.2919" x2="85.5382" y2="50.496" class="gray" /></g>
<g><line x1="89.5678" y1="49.9541" x2="92.8422" y2="49.7938" class="gray" /></g>
<g><line x1="96.9021" y1="49.9658" x2="100.148" y2="50.4021" class="gray" /></g>
<g><line x1="104.12" y1="51.2732" x2="107.64" y2="52.3547" class="gray" /></g>
<g><line x1="111.41" y1="53.8769" x2="114.67" y2="55.531" class="gray" /></g>
<g><line x1="118.103" y1="57.703" x2="120.857" y2="59.8349" class="gray" /></g>
<g><line x1="123.775" y1="62.6523" x2="125.825" y2="65.1156" class="gray" /></g>
<g><line x1="128.252" y1="68.3881" x2="130.228" y2="71.3898" class="gray" /></g>
<g><line x1="132.114" y1="74.9859" x2="133.416" y2="78.212" class="gray" /></g>
<g><line x1="134.544" y1="82.1116" x2="135.156" y2="85.4963" class="gray" /></g>
<g><line x1="135.582" y1="89.5433" x2="135.688" y2="93.0146" class="gray" /></g>
<g><line x1="135.453" y1="97.0725" x2="134.947" y2="100.515" class="gray" /></g>
<g><line x1="134.054" y1="104.485" x2="133.056" y2="107.753" class="gray" /></g>
<g><line x1="131.485" y1="111.496" x2="129.825" y2="114.551" class="gray" /></g>
<g><line x1="127.54" y1="117.908" x2="125.22" y2="120.68" class="gray" /></g>
<g><line x1="125.203" y1="123.823" x2="127.497" y2="126.625" class="gray" /></g>
<g><line x1="130.012" y1="129.838" x2="132.018" y2="132.52" class="gray" /></g>
<g><line x1="134.532" y1="135.733" x2="136.818" y2="138.525" class="gray" /></g>
<g><line x1="140.067" y1="139.526" x2="143.403" y2="138.542" class="gray" /></g>
<g><line x1="147.4" y1="137.964" x2="150.67" y2="137.964" class="gray" /></g>
<g><line x1="153.509" y1="136.086" x2="154.901" y2="132.811" class="gray" /></g>
<g><line x1="156.453" y1="129.038" x2="157.737" y2="125.8" class="gray" /></g>
<g><line x1="159.191" y1="121.988" x2="160.359" y2="118.8" class="gray" /></g>
<g><line x1="161.907" y1="115.028" x2="163.423" y2="111.71" class="gray" /></g>
<g><line x1="162.374" y1="109.101" x2="159.136" y2="107.817" class="gray" /></g>
<g><line x1="157.892" y1="105.131" x2="158.958" y2="101.967" class="gray" /></g>
<g><line x1="161.506" y1="100.788" x2="164.734" y2="102.07" class="gray" /></g>
<g><line x1="167.383" y1="100.928" x2="168.667" y2="97.6904" class="gray" /></g>
<g><line x1="170.17" y1="93.8966" x2="171.45" y2="90.6613" class="gray" /></g>
<g><line x1="171.35" y1="86.909" x2="169.94" y2="83.8289" class="gray" /></g>
<g><line x1="169.346" y1="79.9498" x2="169.784" y2="76.4782" class="gray" /></g>
<g><line x1="171.248" y1="72.8096" x2="173.232" y2="70.1083" class="gray" /></g>
<g><line x1="176.356" y1="67.7614" x2="179.804" y2="66.4965" class="gray" /></g>
<g><line x1="182.33" y1="63.847" x2="183.35" y2="60.5909" class="gray" /></g>
<g><line x1="185.973" y1="58.312" x2="189.407" y2="57.7459" class="gray" /></g>
<g><line x1="192.661" y1="59.0331" x2="194.779" y2="61.7948" class="gray" /></g>
<g><line x1="195.132" y1="65.2509" x2="193.578" y2="68.467" class="gray" /></g>
<g><line x1="194.267" y1="71.5984" x2="197.083" y2="73.9095" class="gray" /></g>
<g><line x1="199.205" y1="77.1702" x2="200.145" y2="80.5677" class="gray" /></g>
<g><line x1="199.94" y1="84.4313" x2="198.66" y2="87.6666" class="gray" /></g>
<g><line x1="196.194" y1="90.6675" x2="193.266" y2="92.5504" class="gray" /></g>
<g><line x1="189.512" y1="93.5542" x2="185.828" y2="93.3737" class="gray" /></g>
<g><line x1="183.04" y1="95.1713" x2="181.76" y2="98.4066" class="gray" /></g>
<g><line x1="180.257" y1="102.2" x2="178.973" y2="105.438" class="gray" /></g>
<g><line x1="177.47" y1="109.231" x2="176.19" y2="112.467" class="gray" /></g>
<g><line x1="174.686" y1="116.26" x2="173.404" y2="119.488" class="gray" /></g>
<g><line x1="173.95" y1="122.957" x2="176.25" y2="125.741" class="gray" /></g>
<g><line x1="175.529" y1="127.596" x2="171.681" y2="128.132" class="gray" /></g>
<g><line x1="168.907" y1="130.31" x2="167.623" y2="133.548" class="gray" /></g>
<g><line x1="166.169" y1="137.36" x2="165.001" y2="140.558" class="gray" /></g>
<g><line x1="165.811" y1="143.845" x2="168.499" y2="146.283" class="gray" /></g>
<g><line x1="171.041" y1="149.414" x2="172.799" y2="152.414" class="gray" /></g>
<g><line x1="174.318" y1="156.155" x2="175.152" y2="159.533" class="gray" /></g>
<g><line x1="175.548" y1="163.552" x2="175.392" y2="167.036" class="gray" /></g>
<g><line x1="174.537" y1="170.966" x2="173.183" y2="174.322" class="gray" /></g>
<g><line x1="171.236" y1="177.875" x2="169.214" y2="180.712" class="gray" /></g>
<g><line x1="166.469" y1="183.687" x2="164.051" y2="185.721" class="gray" /></g>
<g><line x1="160.586" y1="187.766" x2="157.164" y2="189.082" class="gray" /></g>
<g><line x1="155.26" y1="191.854" x2="155.26" y2="195.334" class="gray" /></g>
<g><line x1="155.203" y1="199.413" x2="155.107" y2="202.894" class="gray" /></g>
<g><line x1="155.163" y1="206.971" x2="155.357" y2="210.457" class="gray" /></g>
<g><line x1="155.413" y1="214.533" x2="155.317" y2="218.014" class="gray" /></g>
<g><line x1="157.027" y1="221.074" x2="160.043" y2="222.814" class="gray" /></g>
<g><line x1="160.03" y1="224.832" x2="156.83" y2="226.626" class="gray" /></g>
<g><line x1="155.107" y1="229.663" x2="155.203" y2="233.144" class="gray" /></g>
<g><line x1="155.203" y1="237.223" x2="155.107" y2="240.704" class="gray" /></g>
<g><line x1="156.52" y1="244.159" x2="159.033" y2="246.576" class="gray" /></g>
<g><line x1="162.543" y1="247.991" x2="166.03" y2="247.991" class="gray" /></g>
<g><line x1="170.11" y1="247.991" x2="173.597" y2="247.991" class="gray" /></g>
<g><line x1="177.678" y1="247.991" x2="181.164" y2="247.991" class="gray" /></g>
<g><line x1="185.245" y1="247.991" x2="188.731" y2="247.991" class="gray" /></g>
</svg>
