<svg
	xmlns="http://www.w3.org/2000/svg"
	width="226.49"
	height="234.48">
<g><style type="text/css" >
<!-- create color definitions -->
<![CDATA[
circle.red {stroke: rgb(255, 0, 255); fill: none; }
circle.green {stroke: rgb(0, 255, 0); fill: none; }
circle.blue {stroke: rgb(0, 0, 255); fill: none; }
circle.black {stroke: rgb(0, 0, 0); fill: none; }
circle.gray {stroke: rgb(204, 204, 204); fill: none; }
circle.brown {stroke: rgb(211.65, 104.55, 30.6); fill: none; }
line.red {stroke: rgb(255, 0, 255); stroke-width: 0.383347; }
line.green {stroke: rgb(0, 255, 0); stroke-width: 0.383347; }
line.blue {stroke: rgb(0, 0, 255); stroke-width: 0.383347; }
line.black {stroke: rgb(0, 0, 0); stroke-width: 0.383347; }
line.gray {stroke: rgb(204, 204, 204); stroke-width: 0.383347; }
line.brown {stroke: rgb(211.65, 104.55, 30.6); stroke-width: 0.383347; }
line {stroke: rgb(0, 0, 0); }
text.red {fill: rgb(255, 0, 255); font-size: 3.066776px; font-weight: bold; font-family: Helvetica; }
text.green {fill: rgb(0, 255, 0); font-size: 3.066776px; font-weight: bold; font-family: Helvetica; }
text.blue {fill: rgb(0, 0, 255); font-size: 3.066776px; font-weight: bold; font-family: Helvetica; }
text.black {fill: rgb(0, 0, 0); font-size: 3.066776px; font-weight: bold; font-family: Helvetica; }
text.gray {fill: rgb(204, 204, 204); font-size: 3.066776px; font-weight: bold; font-family: Helvetica; }
text.brown {fill: rgb(211.65, 104.55, 30.6); font-size: 3.066776px; font-weight: bold; font-family: Helvetica; }
text {fill: rgb(0, 0, 0); font-size: 3.066776px; font-weight: bold; font-family: Helvetica; text-anchor: middle; alignment-baseline: middle; }

.pseudoknot_connection{stroke-linecap: round; stroke-opacity: 0.2; stroke-width: 1.5; }
.pseudoknot_segment1{stroke-linecap: round; stroke-opacity: 0.4; stroke-width: 3.06678; }
.pseudoknot_segment2{stroke-linecap: round; stroke-opacity: 0.4; stroke-width: 3.06678; }
line.numbering-line{stroke: rgb(204, 204, 204); stroke-width: 0.191673; }
line.predicted{stroke: rgb(0, 0, 0); stroke-dasharray: 2; }
polyline{fill: none; stroke-linejoin: round; }
template{visibility: hidden; }
text.numbering-label{fill: rgb(204, 204, 204); }
]]>
</style></g>
<g><title>0 (position.label in template: 0.5')</title><text x="99.6387" y="189.93" class="green" >5'</text></g>
<g><title>1 (position.label in template: 1.C)</title><text x="104.864" y="184.48" class="black" >C</text></g>
<g><title>2 (position.label in template: 2.G)</title><text x="110.09" y="179.03" class="black" >G</text></g>
<g><line x1="112.135" y1="178.723" x2="120.495" y2="178.723" class="black" /></g>
<g><title>3 (position.label in template: 3.C)</title><text x="110.3" y="171.47" class="black" >C</text></g>
<g><line x1="112.345" y1="171.163" x2="120.285" y2="171.163" class="black" /></g>
<g><title>4 (position.label in template: 4.G)</title><text x="110.09" y="163.91" class="black" >G</text></g>
<g><line x1="112.135" y1="163.603" x2="120.495" y2="163.603" class="black" /></g>
<g><title>5 (position.label in template: 5.G)</title><text x="110.09" y="156.35" class="black" >G</text></g>
<g><line x1="112.135" y1="156.043" x2="120.495" y2="156.043" class="black" /></g>
<g><title>6 (position.label in template: 6.G)</title><text x="110.09" y="148.79" class="black" >G</text></g>
<g><line x1="112.135" y1="148.483" x2="120.495" y2="148.483" class="black" /></g>
<g><title>7 (position.label in template: 7.G)</title><text x="110.09" y="141.23" class="black" >G</text></g>
<g><line x1="112.135" y1="140.923" x2="120.495" y2="140.923" class="black" /></g>
<g><title>8 (position.label in template: 8.U)</title><text x="103.48" y="137.97" class="green" >T</text></g>
<g><title>9 (position.label in template: 9.G)</title><text x="97.93" y="132.62" class="black" >G</text></g>
<g><title>10 (position.label in template: 10.G)</title><text x="94.66" y="125.8" class="black" >G</text></g>
<g><line x1="94.6951" y1="123.449" x2="94.8349" y2="115.298" class="black" /></g>
<g><text x="90.8786" y="131.572" class="numbering-label sequential" >10</text></g>
<g><line x1="93.6516" y1="127.339" x2="91.8832" y2="130.038" class="numbering-line sequential" /></g>
<g><title>11 (position.label in template: 11.A)</title><text x="87.52" y="125.8" class="green" >A</text></g>
<g><line x1="87.4849" y1="123.449" x2="87.3451" y2="115.298" class="black" /></g>
<g><title>12 (position.label in template: 12.G)</title><text x="79.54" y="125.8" class="black" >G</text></g>
<g><line x1="79.5751" y1="123.449" x2="79.7149" y2="115.298" class="black" /></g>
<g><title>13 (position.label in template: 13.C)</title><text x="72.19" y="125.8" class="black" >C</text></g>
<g><line x1="72.1549" y1="123.449" x2="72.0151" y2="115.298" class="black" /></g>
<g><title>14 (position.label in template: 14.A)</title><text x="66.63" y="130.69" class="black" >A</text></g>
<g><title>15 (position.label in template: 15.G)</title><text x="58.67" y="131.1" class="black" >G</text></g>
<g><title>16 (position.label in template: 16.U)</title><text x="52.62" y="126.85" class="green" >T</text></g>
<g><title>17 (position.label in template: 17.G)</title><text x="50" y="119.68" class="black" >G</text></g>
<g><title>18 (position.label in template: 18.G)</title><text x="52.41" y="112.52" class="black" >G</text></g>
<g><title>19 (position.label in template: 19.U)</title><text x="58.88" y="108.27" class="green" >T</text></g>
<g><title>20 (position.label in template: 20.A)</title><text x="66.63" y="108.68" class="black" >A</text></g>
<g><text x="69.2137" y="102.282" class="numbering-label sequential" >20</text></g>
<g><line x1="67.319" y1="106.974" x2="68.5945" y2="103.815" class="numbering-line sequential" /></g>
<g><title>21 (position.label in template: 21.G)</title><text x="71.98" y="113.56" class="black" >G</text></g>
<g><title>22 (position.label in template: 22.C)</title><text x="79.75" y="113.56" class="black" >C</text></g>
<g><title>23 (position.label in template: 23.U)</title><text x="87.31" y="113.56" class="green" >T</text></g>
<g><title>24 (position.label in template: 24.C)</title><text x="94.87" y="113.56" class="black" >C</text></g>
<g><title>25 (position.label in template: 25.G)</title><text x="97.93" y="106.75" class="black" >G</text></g>
<g><title>26 (position.label in template: 26.C)</title><text x="103.48" y="101.4" class="black" >C</text></g>
<g><line x1="105.404" y1="100.403" x2="112.896" y2="97.714" class="black" /></g>
<g><title>27 (position.label in template: 27.A)</title><text x="101.17" y="94.27" class="green" >A</text></g>
<g><line x1="103.094" y1="93.2727" x2="110.586" y2="90.584" class="black" /></g>
<g><title>28 (position.label in template: 28.A)</title><text x="98.66" y="87.14" class="green" >A</text></g>
<g><line x1="100.584" y1="86.1427" x2="108.076" y2="83.454" class="black" /></g>
<g><title>29 (position.label in template: 29.G)</title><text x="95.73" y="80.01" class="black" >G</text></g>
<g><line x1="97.6619" y1="79.0341" x2="105.548" y2="76.3025" class="black" /></g>
<g><title>30 (position.label in template: 30.G)</title><text x="93.21" y="72.88" class="black" >G</text></g>
<g><line x1="95.1421" y1="71.9047" x2="103.038" y2="69.172" class="black" /></g>
<g><text x="87.8405" y="77.2139" class="numbering-label sequential" >30</text></g>
<g><line x1="91.7781" y1="74.0357" x2="89.7403" y2="75.6805" class="numbering-line sequential" /></g>
<g><title>31 (position.label in template: 31.C)</title><text x="86.9" y="69.07" class="black" >C</text></g>
<g><title>32 (position.label in template: 32.U)</title><text x="84.01" y="62.08" class="green" >T</text></g>
<g><title>33 (position.label in template: 33.C)</title><text x="85.93" y="54.77" class="black" >C</text></g>
<g><title>34 (position.label in template: 34.A)</title><text x="92.09" y="50.11" class="black" >A</text></g>
<g><title>35 (position.label in template: 35.U)</title><text x="99.44" y="50" class="green" >T</text></g>
<g><title>36 (position.label in template: 36.A)</title><text x="105.73" y="54.49" class="black" >A</text></g>
<g><title>37 (position.label in template: 37.A)</title><text x="107.86" y="61.75" class="black" >A</text></g>
<g><title>38 (position.label in template: 38.C)</title><text x="104.97" y="68.81" class="black" >C</text></g>
<g><title>39 (position.label in template: 39.C)</title><text x="107.48" y="75.94" class="black" >C</text></g>
<g><title>40 (position.label in template: 40.U)</title><text x="110" y="83.07" class="green" >T</text></g>
<g><title>41 (position.label in template: 41.U)</title><text x="112.51" y="90.2" class="green" >T</text></g>
<g><title>42 (position.label in template: 42.G)</title><text x="114.82" y="97.33" class="black" >G</text></g>
<g><title>43 (position.label in template: 43.A)</title><text x="122.75" y="98.14" class="black" >A</text></g>
<g><title>44 (position.label in template: 44.G)</title><text x="129.15" y="101.4" class="black" >G</text></g>
<g><title>45 (position.label in template: 45.G)</title><text x="134.5" y="106.75" class="black" >G</text></g>
<g><title>46 (position.label in template: 46.U)</title><text x="137.97" y="113.56" class="green" >T</text></g>
<g><title>47 (position.label in template: 47.C)</title><text x="138.78" y="121.08" class="black" >C</text></g>
<g><title>48 (position.label in template: 48.A)</title><text x="137.25" y="128.44" class="green" >A</text></g>
<g><line x1="135.946" y1="129.708" x2="130.664" y2="136.088" class="black" /></g>
<g><title>49 (position.label in template: 49.G)</title><text x="142.72" y="133.18" class="black" >G</text></g>
<g><line x1="141.459" y1="134.482" x2="136.511" y2="140.794" class="black" /></g>
<g><title>50 (position.label in template: 50.C)</title><text x="148.82" y="137.93" class="black" >C</text></g>
<g><line x1="147.516" y1="139.198" x2="142.234" y2="145.578" class="black" /></g>
<g><text x="153.151" y="132.558" class="numbering-label sequential" >50</text></g>
<g><line x1="149.975" y1="136.498" x2="151.915" y2="134.092" class="numbering-line sequential" /></g>
<g><title>51 (position.label in template: 51.G)</title><text x="154.49" y="142.67" class="black" >G</text></g>
<g><line x1="153.229" y1="143.972" x2="148.281" y2="150.284" class="black" /></g>
<g><title>52 (position.label in template: 52.G)</title><text x="160.38" y="147.41" class="black" >G</text></g>
<g><line x1="159.119" y1="148.712" x2="154.171" y2="155.024" class="black" /></g>
<g><title>53 (position.label in template: 53.U)</title><text x="168.15" y="147.22" class="green" >T</text></g>
<g><title>54 (position.label in template: 54.U)</title><text x="174.28" y="151.65" class="green" >T</text></g>
<g><title>55 (position.label in template: 55.C)</title><text x="176.49" y="158.88" class="black" >C</text></g>
<g><title>56 (position.label in template: 56.G)</title><text x="173.66" y="165.97" class="black" >G</text></g>
<g><title>57 (position.label in template: 57.A)</title><text x="167.7" y="170.04" class="black" >A</text></g>
<g><title>58 (position.label in template: 58.G)</title><text x="159.75" y="169.42" class="black" >G</text></g>
<g><title>59 (position.label in template: 59.U)</title><text x="154.33" y="164.37" class="green" >T</text></g>
<g><title>60 (position.label in template: 60.C)</title><text x="152.91" y="156.94" class="black" >C</text></g>
<g><title>61 (position.label in template: 61.C)</title><text x="147.02" y="152.2" class="black" >C</text></g>
<g><title>62 (position.label in template: 62.G)</title><text x="140.93" y="147.46" class="black" >G</text></g>
<g><title>63 (position.label in template: 63.C)</title><text x="135.25" y="142.71" class="black" >C</text></g>
<g><title>64 (position.label in template: 64.U)</title><text x="129.36" y="137.97" class="green" >T</text></g>
<g><title>65 (position.label in template: 65.C)</title><text x="122.54" y="141.23" class="black" >C</text></g>
<g><title>66 (position.label in template: 66.C)</title><text x="122.54" y="148.79" class="black" >C</text></g>
<g><title>67 (position.label in template: 67.C)</title><text x="122.54" y="156.35" class="black" >C</text></g>
<g><title>68 (position.label in template: 68.C)</title><text x="122.54" y="163.91" class="black" >C</text></g>
<g><title>69 (position.label in template: 69.G)</title><text x="122.33" y="171.47" class="black" >G</text></g>
<g><title>70 (position.label in template: 70.C)</title><text x="122.54" y="179.03" class="black" >C</text></g>
<g><title>71 (position.label in template: 71.U)</title><text x="127.879" y="184.369" class="green" >T</text></g>
<g><title>72 (position.label in template: 72.A)</title><text x="135.429" y="184.369" class="black" >A</text></g>
<g><title>73 (position.label in template: 73.3')</title><text x="142.98" y="184.369" class="green" >3'</text></g>
<g><line x1="101.054" y1="188.147" x2="103.449" y2="185.649" class="gray" /></g>
<g><line x1="106.279" y1="182.697" x2="108.675" y2="180.199" class="gray" /></g>
<g><line x1="110.147" y1="176.68" x2="110.243" y2="173.207" class="gray" /></g>
<g><line x1="110.243" y1="169.12" x2="110.147" y2="165.647" class="gray" /></g>
<g><line x1="110.09" y1="161.559" x2="110.09" y2="158.088" class="gray" /></g>
<g><line x1="110.09" y1="153.999" x2="110.09" y2="150.528" class="gray" /></g>
<g><line x1="110.09" y1="146.439" x2="110.09" y2="142.968" class="gray" /></g>
<g><line x1="108.256" y1="140.019" x2="105.314" y2="138.568" class="gray" /></g>
<g><line x1="102.008" y1="136.244" x2="99.402" y2="133.732" class="gray" /></g>
<g><line x1="97.0461" y1="130.47" x2="95.5439" y2="127.337" class="gray" /></g>
<g><line x1="92.6155" y1="125.493" x2="89.5645" y2="125.493" class="gray" /></g>
<g><line x1="85.4755" y1="125.493" x2="81.5845" y2="125.493" class="gray" /></g>
<g><line x1="77.4955" y1="125.493" x2="74.2345" y2="125.493" class="gray" /></g>
<g><line x1="70.6548" y1="126.844" x2="68.1652" y2="129.033" class="gray" /></g>
<g><line x1="64.5882" y1="130.488" x2="60.7118" y2="130.688" class="gray" /></g>
<g><line x1="56.997" y1="129.618" x2="54.293" y2="127.719" class="gray" /></g>
<g><line x1="51.9183" y1="124.623" x2="50.7017" y2="121.294" class="gray" /></g>
<g><line x1="50.6522" y1="117.436" x2="51.7578" y2="114.151" class="gray" /></g>
<g><line x1="54.1188" y1="111.091" x2="57.1712" y2="109.086" class="gray" /></g>
<g><line x1="60.9217" y1="108.071" x2="64.5883" y2="108.265" class="gray" /></g>
<g><line x1="68.1405" y1="109.751" x2="70.4695" y2="111.876" class="gray" /></g>
<g><line x1="74.0245" y1="113.253" x2="77.7055" y2="113.253" class="gray" /></g>
<g><line x1="81.7945" y1="113.253" x2="85.2655" y2="113.253" class="gray" /></g>
<g><line x1="89.3545" y1="113.253" x2="92.8255" y2="113.253" class="gray" /></g>
<g><line x1="95.708" y1="111.388" x2="97.092" y2="108.308" class="gray" /></g>
<g><line x1="99.402" y1="105.024" x2="102.008" y2="102.512" class="gray" /></g>
<g><line x1="102.85" y1="99.1483" x2="101.8" y2="95.9083" class="gray" /></g>
<g><line x1="100.491" y1="92.0348" x2="99.3389" y2="88.7618" class="gray" /></g>
<g><line x1="97.8829" y1="84.9423" x2="96.5071" y2="81.5944" class="gray" /></g>
<g><line x1="95.0487" y1="77.7757" x2="93.8913" y2="74.501" class="gray" /></g>
<g><line x1="91.4598" y1="71.5165" x2="88.6502" y2="69.8201" class="gray" /></g>
<g><line x1="86.1188" y1="66.8739" x2="84.7912" y2="63.6627" class="gray" /></g>
<g><line x1="84.5294" y1="59.7959" x2="85.4106" y2="56.4408" class="gray" /></g>
<g><line x1="87.5605" y1="53.2298" x2="90.4595" y2="51.0368" class="gray" /></g>
<g><line x1="94.1343" y1="49.7727" x2="97.3957" y2="49.7239" class="gray" /></g>
<g><line x1="101.104" y1="50.8812" x2="104.066" y2="52.9955" class="gray" /></g>
<g><line x1="106.306" y1="56.1451" x2="107.284" y2="59.4815" class="gray" /></g>
<g><line x1="107.085" y1="63.3354" x2="105.745" y2="66.6112" class="gray" /></g>
<g><line x1="105.649" y1="70.4318" x2="106.801" y2="73.7048" class="gray" /></g>
<g><line x1="108.161" y1="77.561" x2="109.319" y2="80.8357" class="gray" /></g>
<g><line x1="110.679" y1="84.6918" x2="111.831" y2="87.9648" class="gray" /></g>
<g><line x1="113.14" y1="91.8383" x2="114.19" y2="95.0783" class="gray" /></g>
<g><line x1="116.854" y1="97.2311" x2="120.716" y2="97.6256" class="gray" /></g>
<g><line x1="124.572" y1="98.7613" x2="127.328" y2="100.165" class="gray" /></g>
<g><line x1="130.596" y1="102.539" x2="133.054" y2="104.998" class="gray" /></g>
<g><line x1="135.428" y1="108.265" x2="137.042" y2="111.432" class="gray" /></g>
<g><line x1="138.189" y1="115.286" x2="138.561" y2="118.741" class="gray" /></g>
<g><line x1="138.364" y1="122.775" x2="137.666" y2="126.132" class="gray" /></g>
<g><line x1="138.795" y1="129.472" x2="141.175" y2="131.534" class="gray" /></g>
<g><line x1="144.333" y1="134.129" x2="147.207" y2="136.367" class="gray" /></g>
<g><line x1="150.389" y1="138.935" x2="152.921" y2="141.052" class="gray" /></g>
<g><line x1="156.083" y1="143.645" x2="158.787" y2="145.822" class="gray" /></g>
<g><line x1="162.424" y1="147.053" x2="166.106" y2="146.963" class="gray" /></g>
<g><line x1="169.807" y1="148.111" x2="172.623" y2="150.146" class="gray" /></g>
<g><line x1="174.878" y1="153.299" x2="175.892" y2="156.618" class="gray" /></g>
<g><line x1="175.732" y1="160.472" x2="174.418" y2="163.764" class="gray" /></g>
<g><line x1="171.972" y1="166.816" x2="169.388" y2="168.58" class="gray" /></g>
<g><line x1="165.662" y1="169.574" x2="161.788" y2="169.272" class="gray" /></g>
<g><line x1="158.254" y1="167.72" x2="155.826" y2="165.457" class="gray" /></g>
<g><line x1="153.946" y1="162.055" x2="153.294" y2="158.641" class="gray" /></g>
<g><line x1="151.317" y1="155.352" x2="148.613" y2="153.175" class="gray" /></g>
<g><line x1="145.407" y1="150.638" x2="142.543" y2="148.409" class="gray" /></g>
<g><line x1="139.362" y1="145.842" x2="136.818" y2="143.715" class="gray" /></g>
<g><line x1="133.657" y1="141.122" x2="130.953" y2="138.945" class="gray" /></g>
<g><line x1="127.515" y1="138.545" x2="124.385" y2="140.042" class="gray" /></g>
<g><line x1="122.54" y1="142.968" x2="122.54" y2="146.439" class="gray" /></g>
<g><line x1="122.54" y1="150.528" x2="122.54" y2="153.999" class="gray" /></g>
<g><line x1="122.54" y1="158.088" x2="122.54" y2="161.559" class="gray" /></g>
<g><line x1="122.483" y1="165.647" x2="122.387" y2="169.12" class="gray" /></g>
<g><line x1="122.387" y1="173.207" x2="122.483" y2="176.68" class="gray" /></g>
<g><line x1="123.986" y1="180.169" x2="126.433" y2="182.617" class="gray" /></g>
<g><line x1="129.923" y1="184.062" x2="133.385" y2="184.062" class="gray" /></g>
<g><line x1="137.474" y1="184.062" x2="140.935" y2="184.062" class="gray" /></g>
</svg>
