<svg
	xmlns="http://www.w3.org/2000/svg"
	width="228.44"
	height="241.928">
<g><style type="text/css" >
<!-- create color definitions -->
<![CDATA[
circle.red {stroke: rgb(255, 0, 255); fill: none; }
circle.green {stroke: rgb(0, 255, 0); fill: none; }
circle.blue {stroke: rgb(0, 0, 255); fill: none; }
circle.black {stroke: rgb(0, 0, 0); fill: none; }
circle.gray {stroke: rgb(204, 204, 204); fill: none; }
circle.brown {stroke: rgb(211.65, 104.55, 30.6); fill: none; }
line.red {stroke: rgb(255, 0, 255); stroke-width: 0.381794; }
line.green {stroke: rgb(0, 255, 0); stroke-width: 0.381794; }
line.blue {stroke: rgb(0, 0, 255); stroke-width: 0.381794; }
line.black {stroke: rgb(0, 0, 0); stroke-width: 0.381794; }
line.gray {stroke: rgb(204, 204, 204); stroke-width: 0.381794; }
line.brown {stroke: rgb(211.65, 104.55, 30.6); stroke-width: 0.381794; }
line {stroke: rgb(0, 0, 0); }
text.red {fill: rgb(255, 0, 255); font-size: 3.054348px; font-weight: bold; font-family: Helvetica; }
text.green {fill: rgb(0, 255, 0); font-size: 3.054348px; font-weight: bold; font-family: Helvetica; }
text.blue {fill: rgb(0, 0, 255); font-size: 3.054348px; font-weight: bold; font-family: Helvetica; }
text.black {fill: rgb(0, 0, 0); font-size: 3.054348px; font-weight: bold; font-family: Helvetica; }
text.gray {fill: rgb(204, 204, 204); font-size: 3.054348px; font-weight: bold; font-family: Helvetica; }
text.brown {fill: rgb(211.65, 104.55, 30.6); font-size: 3.054348px; font-weight: bold; font-family: Helvetica; }
text {fill: rgb(0, 0, 0); font-size: 3.054348px; font-weight: bold; font-family: Helvetica; text-anchor: middle; alignment-baseline: middle; }

.pseudoknot_connection{stroke-linecap: round; stroke-opacity: 0.2; stroke-width: 1.5; }
.pseudoknot_segment1{stroke-linecap: round; stroke-opacity: 0.4; stroke-width: 3.05435; }
.pseudoknot_segment2{stroke-linecap: round; stroke-opacity: 0.4; stroke-width: 3.05435; }
line.numbering-line{stroke: rgb(204, 204, 204); stroke-width: 0.190897; }
line.predicted{stroke: rgb(0, 0, 0); stroke-dasharray: 2; }
polyline{fill: none; stroke-linejoin: round; }
template{visibility: hidden; }
text.numbering-label{fill: rgb(204, 204, 204); }
]]>
</style></g>
<g><title>0 (position.label in template: 0.5')</title><text x="112.26" y="194.133" class="green" >5'</text></g>
<g><title>1 (position.label in template: 1.U)</title><text x="112.26" y="186.59" class="green" >T</text></g>
<g><line x1="114.296" y1="186.285" x2="122.674" y2="186.285" class="black" /></g>
<g><title>2 (position.label in template: 2.C)</title><text x="112.26" y="179.03" class="black" >C</text></g>
<g><line x1="114.296" y1="178.725" x2="122.254" y2="178.725" class="black" /></g>
<g><title>3 (position.label in template: 3.C)</title><text x="112.26" y="171.47" class="black" >C</text></g>
<g><line x1="114.296" y1="171.165" x2="122.254" y2="171.165" class="black" /></g>
<g><title>4 (position.label in template: 4.C)</title><text x="112.26" y="163.91" class="black" >C</text></g>
<g><line x1="114.296" y1="163.605" x2="122.254" y2="163.605" class="black" /></g>
<g><title>5 (position.label in template: 5.U)</title><text x="112.26" y="156.35" class="green" >T</text></g>
<g><line x1="114.296" y1="156.045" x2="122.254" y2="156.045" class="black" /></g>
<g><title>6 (position.label in template: 6.G)</title><text x="112.05" y="148.79" class="black" >G</text></g>
<g><line x1="114.086" y1="148.485" x2="122.674" y2="148.485" class="black" /></g>
<g><title>7 (position.label in template: 7.G)</title><text x="112.05" y="141.23" class="black" >G</text></g>
<g><line x1="114.086" y1="140.925" x2="122.464" y2="140.925" class="black" /></g>
<g><title>8 (position.label in template: 8.U)</title><text x="105.44" y="137.97" class="green" >T</text></g>
<g><title>9 (position.label in template: 9.G)</title><text x="99.88" y="132.62" class="black" >G</text></g>
<g><title>10 (position.label in template: 10.G)</title><text x="96.62" y="125.8" class="green" >G</text></g>
<g><line x1="96.6549" y1="123.459" x2="96.7951" y2="115.29" class="black" /></g>
<g><text x="92.904" y="131.581" class="numbering-label sequential" >10</text></g>
<g><line x1="95.6291" y1="127.342" x2="93.8857" y2="130.054" class="numbering-line sequential" /></g>
<g><title>11 (position.label in template: 11.U)</title><text x="89.27" y="125.8" class="green" >T</text></g>
<g><line x1="89.3049" y1="123.459" x2="89.4451" y2="115.29" class="black" /></g>
<g><title>12 (position.label in template: 12.C)</title><text x="81.71" y="125.8" class="black" >C</text></g>
<g><line x1="81.6751" y1="123.459" x2="81.5349" y2="115.29" class="black" /></g>
<g><title>13 (position.label in template: 13.C)</title><text x="74.15" y="125.8" class="black" >C</text></g>
<g><line x1="74.1151" y1="123.459" x2="73.9749" y2="115.29" class="black" /></g>
<g><title>14 (position.label in template: 14.A)</title><text x="69.02" y="131.16" class="black" >A</text></g>
<g><title>15 (position.label in template: 15.G)</title><text x="61.19" y="132.64" class="black" >G</text></g>
<g><title>16 (position.label in template: 16.U)</title><text x="54.41" y="129.75" class="green" >T</text></g>
<g><title>17 (position.label in template: 17.G)</title><text x="50" y="123.46" class="black" >G</text></g>
<g><title>18 (position.label in template: 18.A)</title><text x="50.42" y="115.9" class="black" >A</text></g>
<g><title>19 (position.label in template: 19.U)</title><text x="54.41" y="109.62" class="green" >T</text></g>
<g><title>20 (position.label in template: 20.U)</title><text x="61.4" y="106.73" class="green" >T</text></g>
<g><text x="60.7398" y="99.8895" class="numbering-label sequential" >20</text></g>
<g><line x1="61.224" y1="104.906" x2="60.8872" y2="101.417" class="numbering-line sequential" /></g>
<g><title>21 (position.label in template: 21.A)</title><text x="69.02" y="108.21" class="black" >A</text></g>
<g><title>22 (position.label in template: 22.G)</title><text x="73.94" y="113.56" class="black" >G</text></g>
<g><title>23 (position.label in template: 23.G)</title><text x="81.5" y="113.56" class="black" >G</text></g>
<g><title>24 (position.label in template: 24.A)</title><text x="89.48" y="113.56" class="green" >A</text></g>
<g><title>25 (position.label in template: 25.U)</title><text x="96.83" y="113.56" class="green" >T</text></g>
<g><title>26 (position.label in template: 26.U)</title><text x="100.09" y="106.75" class="green" >T</text></g>
<g><title>27 (position.label in template: 27.C)</title><text x="105.44" y="101.4" class="black" >C</text></g>
<g><line x1="107.356" y1="100.406" x2="114.854" y2="97.713" class="black" /></g>
<g><title>28 (position.label in template: 28.C)</title><text x="102.92" y="94.27" class="black" >C</text></g>
<g><line x1="104.844" y1="93.2981" x2="112.746" y2="90.561" class="black" /></g>
<g><title>29 (position.label in template: 29.G)</title><text x="100.2" y="87.14" class="black" >G</text></g>
<g><line x1="102.124" y1="86.1681" x2="110.026" y2="83.431" class="black" /></g>
<g><title>30 (position.label in template: 30.C)</title><text x="97.9" y="80.01" class="black" >C</text></g>
<g><line x1="99.8163" y1="79.0162" x2="107.314" y2="76.323" class="black" /></g>
<g><text x="91.3609" y="82.124" class="numbering-label sequential" >30</text></g>
<g><line x1="96.1562" y1="80.5737" x2="93.1935" y2="81.5315" class="numbering-line sequential" /></g>
<g><title>31 (position.label in template: 31.A)</title><text x="95.59" y="72.88" class="green" >A</text></g>
<g><line x1="97.5063" y1="71.8862" x2="105.004" y2="69.193" class="black" /></g>
<g><title>32 (position.label in template: 32.U)</title><text x="88.85" y="69.07" class="green" >T</text></g>
<g><title>33 (position.label in template: 33.U)</title><text x="85.96" y="62.08" class="green" >T</text></g>
<g><title>34 (position.label in template: 34.U)</title><text x="87.88" y="54.77" class="green" >T</text></g>
<g><title>35 (position.label in template: 35.U)</title><text x="93.84" y="50.11" class="green" >T</text></g>
<g><title>36 (position.label in template: 36.C)</title><text x="101.4" y="50" class="black" >C</text></g>
<g><title>37 (position.label in template: 37.A)</title><text x="107.69" y="54.49" class="black" >A</text></g>
<g><title>38 (position.label in template: 38.C)</title><text x="109.61" y="61.75" class="black" >C</text></g>
<g><title>39 (position.label in template: 39.U)</title><text x="106.92" y="68.81" class="green" >T</text></g>
<g><title>40 (position.label in template: 40.G)</title><text x="109.23" y="75.94" class="black" >G</text></g>
<g><title>41 (position.label in template: 41.C)</title><text x="111.95" y="83.07" class="black" >C</text></g>
<g><title>42 (position.label in template: 42.A)</title><text x="114.67" y="90.2" class="black" >A</text></g>
<g><title>43 (position.label in template: 43.G)</title><text x="116.77" y="97.33" class="black" >G</text></g>
<g><title>44 (position.label in template: 44.G)</title><text x="124.29" y="98.14" class="black" >G</text></g>
<g><title>45 (position.label in template: 45.G)</title><text x="131.11" y="101.4" class="black" >G</text></g>
<g><title>46 (position.label in template: 46.A)</title><text x="136.87" y="106.75" class="black" >A</text></g>
<g><title>47 (position.label in template: 47.G)</title><text x="139.72" y="113.56" class="black" >G</text></g>
<g><title>48 (position.label in template: 48.C)</title><text x="140.74" y="121.08" class="black" >C</text></g>
<g><title>49 (position.label in template: 49.A)</title><text x="139.2" y="128.44" class="black" >A</text></g>
<g><line x1="137.923" y1="129.721" x2="132.807" y2="136.078" class="black" /></g>
<g><title>50 (position.label in template: 50.U)</title><text x="144.89" y="133.18" class="green" >T</text></g>
<g><line x1="143.591" y1="134.443" x2="138.299" y2="140.836" class="black" /></g>
<g><text x="149.296" y="127.906" class="numbering-label sequential" >50</text></g>
<g><line x1="146.065" y1="131.774" x2="148.02" y2="129.433" class="numbering-line sequential" /></g>
<g><title>51 (position.label in template: 51.G)</title><text x="150.56" y="137.93" class="green" >G</text></g>
<g><line x1="149.304" y1="139.227" x2="144.346" y2="145.552" class="black" /></g>
<g><title>52 (position.label in template: 52.G)</title><text x="156.45" y="142.67" class="black" >G</text></g>
<g><line x1="155.194" y1="143.967" x2="150.236" y2="150.292" class="black" /></g>
<g><title>53 (position.label in template: 53.G)</title><text x="162.34" y="147.41" class="black" >G</text></g>
<g><line x1="161.084" y1="148.707" x2="156.126" y2="155.032" class="black" /></g>
<g><title>54 (position.label in template: 54.U)</title><text x="170.1" y="147.22" class="green" >T</text></g>
<g><title>55 (position.label in template: 55.U)</title><text x="176.24" y="151.65" class="green" >T</text></g>
<g><title>56 (position.label in template: 56.C)</title><text x="178.44" y="158.88" class="black" >C</text></g>
<g><title>57 (position.label in template: 57.A)</title><text x="176.03" y="165.97" class="black" >A</text></g>
<g><title>58 (position.label in template: 58.A)</title><text x="169.66" y="170.04" class="black" >A</text></g>
<g><title>59 (position.label in template: 59.C)</title><text x="161.92" y="169.42" class="black" >C</text></g>
<g><title>60 (position.label in template: 60.C)</title><text x="156.29" y="164.37" class="black" >C</text></g>
<g><title>61 (position.label in template: 61.C)</title><text x="154.87" y="156.94" class="black" >C</text></g>
<g><title>62 (position.label in template: 62.C)</title><text x="148.98" y="152.2" class="black" >C</text></g>
<g><title>63 (position.label in template: 63.U)</title><text x="143.09" y="147.46" class="green" >T</text></g>
<g><title>64 (position.label in template: 64.G)</title><text x="137" y="142.71" class="green" >G</text></g>
<g><title>65 (position.label in template: 65.A)</title><text x="131.53" y="137.97" class="black" >A</text></g>
<g><title>66 (position.label in template: 66.C)</title><text x="124.5" y="141.23" class="black" >C</text></g>
<g><title>67 (position.label in template: 67.A)</title><text x="124.71" y="148.79" class="black" >A</text></g>
<g><title>68 (position.label in template: 68.G)</title><text x="124.29" y="156.35" class="green" >G</text></g>
<g><title>69 (position.label in template: 69.G)</title><text x="124.29" y="163.91" class="black" >G</text></g>
<g><title>70 (position.label in template: 70.G)</title><text x="124.29" y="171.47" class="black" >G</text></g>
<g><title>71 (position.label in template: 71.G)</title><text x="124.29" y="179.03" class="black" >G</text></g>
<g><title>72 (position.label in template: 72.A)</title><text x="124.71" y="186.59" class="green" >A</text></g>
<g><title>73 (position.label in template: 73.A)</title><text x="130.038" y="191.928" class="black" >A</text></g>
<g><title>74 (position.label in template: 74.3')</title><text x="124.836" y="197.39" class="green" >3'</text></g>
<g><line x1="112.26" y1="191.791" x2="112.26" y2="188.321" class="gray" /></g>
<g><line x1="112.26" y1="184.248" x2="112.26" y2="180.761" class="gray" /></g>
<g><line x1="112.26" y1="176.688" x2="112.26" y2="173.201" class="gray" /></g>
<g><line x1="112.26" y1="169.128" x2="112.26" y2="165.641" class="gray" /></g>
<g><line x1="112.26" y1="161.568" x2="112.26" y2="158.081" class="gray" /></g>
<g><line x1="112.203" y1="154.009" x2="112.107" y2="150.52" class="gray" /></g>
<g><line x1="112.05" y1="146.448" x2="112.05" y2="142.961" class="gray" /></g>
<g><line x1="110.224" y1="140.024" x2="107.266" y2="138.565" class="gray" /></g>
<g><line x1="103.973" y1="136.253" x2="101.347" y2="133.726" class="gray" /></g>
<g><line x1="99.0018" y1="130.477" x2="97.4982" y2="127.332" class="gray" /></g>
<g><line x1="94.5838" y1="125.495" x2="91.3062" y2="125.495" class="gray" /></g>
<g><line x1="87.2338" y1="125.495" x2="83.7462" y2="125.495" class="gray" /></g>
<g><line x1="79.6738" y1="125.495" x2="76.1862" y2="125.495" class="gray" /></g>
<g><line x1="72.7421" y1="126.966" x2="70.4279" y2="129.384" class="gray" /></g>
<g><line x1="67.0192" y1="131.233" x2="63.1908" y2="131.956" class="gray" /></g>
<g><line x1="59.3168" y1="131.536" x2="56.2832" y2="130.243" class="gray" /></g>
<g><line x1="53.2411" y1="127.777" x2="51.1689" y2="124.822" class="gray" /></g>
<g><line x1="50.1129" y1="121.121" x2="50.3071" y2="117.628" class="gray" /></g>
<g><line x1="51.512" y1="113.876" x2="53.318" y2="111.033" class="gray" /></g>
<g><line x1="56.2917" y1="108.537" x2="59.5183" y2="107.203" class="gray" /></g>
<g><line x1="63.3989" y1="106.813" x2="67.0211" y2="107.516" class="gray" /></g>
<g><line x1="70.3983" y1="109.403" x2="72.5617" y2="111.756" class="gray" /></g>
<g><line x1="75.9762" y1="113.255" x2="79.4638" y2="113.255" class="gray" /></g>
<g><line x1="83.5362" y1="113.255" x2="87.4438" y2="113.255" class="gray" /></g>
<g><line x1="91.5162" y1="113.255" x2="94.7938" y2="113.255" class="gray" /></g>
<g><line x1="97.7092" y1="111.418" x2="99.2108" y2="108.281" class="gray" /></g>
<g><line x1="101.53" y1="105.005" x2="104" y2="102.534" class="gray" /></g>
<g><line x1="104.761" y1="99.1747" x2="103.599" y2="95.8844" class="gray" /></g>
<g><line x1="102.194" y1="92.0621" x2="100.926" y2="88.7371" class="gray" /></g>
<g><line x1="99.5749" y1="84.8967" x2="98.5251" y2="81.6425" class="gray" /></g>
<g><line x1="97.2724" y1="77.7675" x2="96.2176" y2="74.5117" class="gray" /></g>
<g><line x1="93.8174" y1="71.5725" x2="90.6226" y2="69.7666" class="gray" /></g>
<g><line x1="88.072" y1="66.8828" x2="86.738" y2="63.6563" class="gray" /></g>
<g><line x1="86.4773" y1="59.8051" x2="87.3627" y2="56.434" class="gray" /></g>
<g><line x1="89.4841" y1="53.2103" x2="92.2359" y2="51.0588" class="gray" /></g>
<g><line x1="95.876" y1="49.7749" x2="99.364" y2="49.7242" class="gray" /></g>
<g><line x1="103.057" y1="50.8776" x2="106.033" y2="53.0015" class="gray" /></g>
<g><line x1="108.211" y1="56.1531" x2="109.089" y2="59.476" class="gray" /></g>
<g><line x1="108.885" y1="63.3474" x2="107.645" y2="66.6018" class="gray" /></g>
<g><line x1="107.548" y1="70.4417" x2="108.602" y2="73.6975" class="gray" /></g>
<g><line x1="109.956" y1="77.5371" x2="111.224" y2="80.8621" class="gray" /></g>
<g><line x1="112.676" y1="84.6671" x2="113.944" y2="87.9921" class="gray" /></g>
<g><line x1="115.245" y1="91.8478" x2="116.195" y2="95.0713" class="gray" /></g>
<g><line x1="118.795" y1="97.2426" x2="122.265" y2="97.6165" class="gray" /></g>
<g><line x1="126.127" y1="98.7127" x2="129.273" y2="100.216" class="gray" /></g>
<g><line x1="132.602" y1="102.48" x2="135.378" y2="105.059" class="gray" /></g>
<g><line x1="137.656" y1="108.323" x2="138.934" y2="111.376" class="gray" /></g>
<g><line x1="139.994" y1="115.272" x2="140.466" y2="118.757" class="gray" /></g>
<g><line x1="140.323" y1="122.768" x2="139.617" y2="126.141" class="gray" /></g>
<g><line x1="140.765" y1="129.438" x2="143.325" y2="131.571" class="gray" /></g>
<g><line x1="146.451" y1="134.182" x2="148.999" y2="136.317" class="gray" /></g>
<g><line x1="152.146" y1="138.901" x2="154.864" y2="141.088" class="gray" /></g>
<g><line x1="158.036" y1="143.641" x2="160.754" y2="145.828" class="gray" /></g>
<g><line x1="164.376" y1="147.055" x2="168.064" y2="146.964" class="gray" /></g>
<g><line x1="171.751" y1="148.106" x2="174.589" y2="150.153" class="gray" /></g>
<g><line x1="176.833" y1="153.293" x2="177.847" y2="156.627" class="gray" /></g>
<g><line x1="177.785" y1="160.502" x2="176.685" y2="163.737" class="gray" /></g>
<g><line x1="174.314" y1="166.761" x2="171.376" y2="168.638" class="gray" /></g>
<g><line x1="167.63" y1="169.572" x2="163.95" y2="169.277" class="gray" /></g>
<g><line x1="160.404" y1="167.755" x2="157.806" y2="165.424" class="gray" /></g>
<g><line x1="155.908" y1="162.065" x2="155.252" y2="158.635" class="gray" /></g>
<g><line x1="153.284" y1="155.358" x2="150.566" y2="153.171" class="gray" /></g>
<g><line x1="147.394" y1="150.618" x2="144.676" y2="148.431" class="gray" /></g>
<g><line x1="141.484" y1="145.902" x2="138.606" y2="143.657" class="gray" /></g>
<g><line x1="135.461" y1="141.071" x2="133.069" y2="138.998" class="gray" /></g>
<g><line x1="129.683" y1="138.521" x2="126.347" y2="140.068" class="gray" /></g>
<g><line x1="124.557" y1="142.96" x2="124.653" y2="146.449" class="gray" /></g>
<g><line x1="124.597" y1="150.518" x2="124.403" y2="154.011" class="gray" /></g>
<g><line x1="124.29" y1="158.081" x2="124.29" y2="161.568" class="gray" /></g>
<g><line x1="124.29" y1="165.641" x2="124.29" y2="169.128" class="gray" /></g>
<g><line x1="124.29" y1="173.201" x2="124.29" y2="176.688" class="gray" /></g>
<g><line x1="124.403" y1="180.758" x2="124.597" y2="184.251" class="gray" /></g>
<g><line x1="126.148" y1="187.726" x2="128.6" y2="190.182" class="gray" /></g>
<g><line x1="128.634" y1="193.097" x2="126.241" y2="195.61" class="gray" /></g>
</svg>
