<svg
	xmlns="http://www.w3.org/2000/svg"
	width="273.57"
	height="256.96">
<g><style type="text/css" >
<!-- create color definitions -->
<![CDATA[
circle.red {stroke: rgb(255, 0, 255); fill: none; }
circle.green {stroke: rgb(0, 255, 0); fill: none; }
circle.blue {stroke: rgb(0, 0, 255); fill: none; }
circle.black {stroke: rgb(0, 0, 0); fill: none; }
circle.gray {stroke: rgb(204, 204, 204); fill: none; }
circle.brown {stroke: rgb(211.65, 104.55, 30.6); fill: none; }
line.red {stroke: rgb(255, 0, 255); stroke-width: 0.38236; }
line.green {stroke: rgb(0, 255, 0); stroke-width: 0.38236; }
line.blue {stroke: rgb(0, 0, 255); stroke-width: 0.38236; }
line.black {stroke: rgb(0, 0, 0); stroke-width: 0.38236; }
line.gray {stroke: rgb(204, 204, 204); stroke-width: 0.38236; }
line.brown {stroke: rgb(211.65, 104.55, 30.6); stroke-width: 0.38236; }
line {stroke: rgb(0, 0, 0); }
text.red {fill: rgb(255, 0, 255); font-size: 3.058878px; font-weight: bold; font-family: Helvetica; }
text.green {fill: rgb(0, 255, 0); font-size: 3.058878px; font-weight: bold; font-family: Helvetica; }
text.blue {fill: rgb(0, 0, 255); font-size: 3.058878px; font-weight: bold; font-family: Helvetica; }
text.black {fill: rgb(0, 0, 0); font-size: 3.058878px; font-weight: bold; font-family: Helvetica; }
text.gray {fill: rgb(204, 204, 204); font-size: 3.058878px; font-weight: bold; font-family: Helvetica; }
text.brown {fill: rgb(211.65, 104.55, 30.6); font-size: 3.058878px; font-weight: bold; font-family: Helvetica; }
text {fill: rgb(0, 0, 0); font-size: 3.058878px; font-weight: bold; font-family: Helvetica; text-anchor: middle; alignment-baseline: middle; }

.pseudoknot_connection{stroke-linecap: round; stroke-opacity: 0.2; stroke-width: 1.5; }
.pseudoknot_segment1{stroke-linecap: round; stroke-opacity: 0.4; stroke-width: 3.05888; }
.pseudoknot_segment2{stroke-linecap: round; stroke-opacity: 0.4; stroke-width: 3.05888; }
line.numbering-line{stroke: rgb(204, 204, 204); stroke-width: 0.19118; }
line.predicted{stroke: rgb(0, 0, 0); stroke-dasharray: 2; }
polyline{fill: none; stroke-linejoin: round; }
template{visibility: hidden; }
text.numbering-label{fill: rgb(204, 204, 204); }
]]>
</style></g>
<g><title>0 (position.label in template: 0.5')</title><text x="79.553" y="147.094" class="green" >5'</text></g>
<g><title>1 (position.label in template: 1.G)</title><text x="87.1316" y="147.094" class="black" >G</text></g>
<g><title>2 (position.label in template: 2.A)</title><text x="94.7102" y="147.094" class="black" >A</text></g>
<g><title>3 (position.label in template: 3.A)</title><text x="102.289" y="147.094" class="black" >A</text></g>
<g><title>4 (position.label in template: 4.C)</title><text x="109.867" y="147.094" class="black" >C</text></g>
<g><title>5 (position.label in template: 5.A)</title><text x="117.446" y="147.094" class="black" >A</text></g>
<g><title>6 (position.label in template: 6.A)</title><text x="122.81" y="141.74" class="green" >A</text></g>
<g><line x1="124.849" y1="141.434" x2="132.801" y2="141.434" class="black" /></g>
<g><title>7 (position.label in template: 7.C)</title><text x="122.6" y="134.18" class="black" >C</text></g>
<g><line x1="124.639" y1="133.874" x2="132.591" y2="133.874" class="black" /></g>
<g><title>8 (position.label in template: 8.A)</title><text x="122.81" y="126.62" class="green" >A</text></g>
<g><line x1="124.849" y1="126.314" x2="132.801" y2="126.314" class="black" /></g>
<g><title>9 (position.label in template: 9.U)</title><text x="122.6" y="119.06" class="green" >T</text></g>
<g><line x1="124.639" y1="118.754" x2="133.011" y2="118.754" class="black" /></g>
<g><title>10 (position.label in template: 10.U)</title><text x="122.6" y="111.5" class="green" >T</text></g>
<g><line x1="124.639" y1="111.194" x2="133.011" y2="111.194" class="black" /></g>
<g><text x="116.538" y="114.759" class="numbering-label sequential" >10</text></g>
<g><line x1="120.984" y1="112.369" x2="118.373" y2="113.772" class="numbering-line sequential" /></g>
<g><title>11 (position.label in template: 11.A)</title><text x="116.39" y="107.51" class="green" >A</text></g>
<g><line x1="115.46" y1="105.389" x2="111.69" y2="98.0387" class="black" /></g>
<g><title>12 (position.label in template: 12.G)</title><text x="109.19" y="110.86" class="black" >G</text></g>
<g><line x1="108.316" y1="108.712" x2="104.854" y2="101.416" class="black" /></g>
<g><title>13 (position.label in template: 13.G)</title><text x="102.42" y="114.21" class="black" >G</text></g>
<g><line x1="101.544" y1="112.063" x2="98.0762" y2="104.776" class="black" /></g>
<g><title>14 (position.label in template: 14.G)</title><text x="95.64" y="117.56" class="black" >G</text></g>
<g><line x1="94.7651" y1="115.412" x2="91.3049" y2="108.126" class="black" /></g>
<g><title>15 (position.label in template: 15.G)</title><text x="90.83" y="123.39" class="black" >G</text></g>
<g><title>16 (position.label in template: 16.U)</title><text x="83.49" y="123.67" class="green" >T</text></g>
<g><line x1="82.5854" y1="121.536" x2="78.9646" y2="114.222" class="black" /></g>
<g><title>17 (position.label in template: 17.G)</title><text x="82.25" y="131.16" class="black" >G</text></g>
<g><line x1="80.9046" y1="132.387" x2="75.6154" y2="138.412" class="black" /></g>
<g><title>18 (position.label in template: 18.C)</title><text x="88.07" y="136.22" class="black" >C</text></g>
<g><line x1="86.686" y1="137.412" x2="81.054" y2="143.506" class="black" /></g>
<g><title>19 (position.label in template: 19.C)</title><text x="93.69" y="141.28" class="black" >C</text></g>
<g><line x1="92.306" y1="142.472" x2="86.674" y2="148.566" class="black" /></g>
<g><title>20 (position.label in template: 20.A)</title><text x="99.52" y="146.33" class="green" >A</text></g>
<g><line x1="98.1368" y1="147.523" x2="92.5032" y2="153.626" class="black" /></g>
<g><text x="104.123" y="141.213" class="numbering-label sequential" >20</text></g>
<g><line x1="100.747" y1="144.965" x2="102.747" y2="142.742" class="numbering-line sequential" /></g>
<g><title>21 (position.label in template: 21.U)</title><text x="104.93" y="151.39" class="green" >T</text></g>
<g><line x1="103.566" y1="152.6" x2="98.1042" y2="158.668" class="black" /></g>
<g><title>22 (position.label in template: 22.A)</title><text x="111.71" y="147.66" class="black" >A</text></g>
<g><title>23 (position.label in template: 23.U)</title><text x="118.79" y="145.64" class="green" >T</text></g>
<g><title>24 (position.label in template: 24.A)</title><text x="126.55" y="145.45" class="black" >A</text></g>
<g><title>25 (position.label in template: 25.U)</title><text x="133.72" y="147.1" class="green" >T</text></g>
<g><title>26 (position.label in template: 26.A)</title><text x="140.69" y="150.49" class="black" >A</text></g>
<g><title>27 (position.label in template: 27.G)</title><text x="146" y="155.42" class="black" >G</text></g>
<g><title>28 (position.label in template: 28.U)</title><text x="150.58" y="161.59" class="green" >T</text></g>
<g><title>29 (position.label in template: 29.U)</title><text x="153.32" y="168.64" class="green" >T</text></g>
<g><title>30 (position.label in template: 30.C)</title><text x="154.26" y="176.14" class="black" >C</text></g>
<g><text x="161.142" y="176.223" class="numbering-label sequential" >30</text></g>
<g><line x1="156.095" y1="176.162" x2="159.307" y2="176.201" class="numbering-line sequential" /></g>
<g><title>31 (position.label in template: 31.G)</title><text x="153.14" y="183.64" class="black" >G</text></g>
<g><title>32 (position.label in template: 32.U)</title><text x="150.65" y="190.7" class="green" >T</text></g>
<g><title>33 (position.label in template: 33.A)</title><text x="146.53" y="196.9" class="black" >A</text></g>
<g><title>34 (position.label in template: 34.G)</title><text x="140.4" y="201.86" class="black" >G</text></g>
<g><title>35 (position.label in template: 35.A)</title><text x="134.08" y="205.28" class="black" >A</text></g>
<g><title>36 (position.label in template: 36.C)</title><text x="126.5" y="206.96" class="black" >C</text></g>
<g><title>37 (position.label in template: 37.U)</title><text x="118.94" y="206.81" class="green" >T</text></g>
<g><title>38 (position.label in template: 38.A)</title><text x="111.86" y="204.83" class="black" >A</text></g>
<g><title>39 (position.label in template: 39.C)</title><text x="105.05" y="201.13" class="black" >C</text></g>
<g><title>40 (position.label in template: 40.G)</title><text x="99.34" y="195.94" class="black" >G</text></g>
<g><title>41 (position.label in template: 41.A)</title><text x="95.68" y="189.58" class="black" >A</text></g>
<g><title>42 (position.label in template: 42.U)</title><text x="93.07" y="182.41" class="green" >T</text></g>
<g><title>43 (position.label in template: 43.A)</title><text x="92.67" y="174.88" class="black" >A</text></g>
<g><title>44 (position.label in template: 44.U)</title><text x="93.72" y="167.42" class="green" >T</text></g>
<g><title>45 (position.label in template: 45.U)</title><text x="96.74" y="160.49" class="green" >T</text></g>
<g><title>46 (position.label in template: 46.U)</title><text x="91.12" y="155.43" class="green" >T</text></g>
<g><title>47 (position.label in template: 47.G)</title><text x="85.29" y="150.37" class="black" >G</text></g>
<g><title>48 (position.label in template: 48.G)</title><text x="79.67" y="145.31" class="black" >G</text></g>
<g><title>49 (position.label in template: 49.C)</title><text x="74.27" y="140.25" class="black" >C</text></g>
<g><title>50 (position.label in template: 50.U)</title><text x="66.92" y="142.06" class="green" >T</text></g>
<g><text x="67.0305" y="148.942" class="numbering-label sequential" >50</text></g>
<g><line x1="66.9495" y1="143.895" x2="67.0059" y2="147.412" class="numbering-line sequential" /></g>
<g><title>51 (position.label in template: 51.G)</title><text x="59.32" y="140.49" class="black" >G</text></g>
<g><title>52 (position.label in template: 52.A)</title><text x="53.77" y="135.85" class="black" >A</text></g>
<g><title>53 (position.label in template: 53.G)</title><text x="50" y="129.08" class="black" >G</text></g>
<g><title>54 (position.label in template: 54.A)</title><text x="50.36" y="121.52" class="black" >A</text></g>
<g><title>55 (position.label in template: 55.G)</title><text x="53.18" y="114.69" class="black" >G</text></g>
<g><title>56 (position.label in template: 56.G)</title><text x="59.08" y="109.95" class="black" >G</text></g>
<g><line x1="61.1129" y1="109.484" x2="69.4571" y2="108.825" class="black" /></g>
<g><title>57 (position.label in template: 57.A)</title><text x="58.88" y="102.42" class="green" >A</text></g>
<g><line x1="60.9123" y1="101.946" x2="68.8477" y2="101.292" class="black" /></g>
<g><title>58 (position.label in template: 58.U)</title><text x="58.07" y="94.88" class="green" >T</text></g>
<g><line x1="60.1029" y1="94.4136" x2="68.4471" y2="93.7546" class="black" /></g>
<g><title>59 (position.label in template: 59.G)</title><text x="62.04" y="88.58" class="black" >G</text></g>
<g><title>60 (position.label in template: 60.A)</title><text x="70.48" y="93.9" class="green" >A</text></g>
<g><title>61 (position.label in template: 61.U)</title><text x="70.88" y="101.43" class="green" >T</text></g>
<g><title>62 (position.label in template: 62.C)</title><text x="71.49" y="108.97" class="black" >C</text></g>
<g><title>63 (position.label in template: 63.C)</title><text x="78.06" y="112.7" class="green" >C</text></g>
<g><title>64 (position.label in template: 64.A)</title><text x="78.01" y="105.14" class="black" >A</text></g>
<g><title>65 (position.label in template: 65.A)</title><text x="84.79" y="101.79" class="black" >A</text></g>
<g><title>66 (position.label in template: 66.C)</title><text x="90.43" y="106.59" class="black" >C</text></g>
<g><title>67 (position.label in template: 67.C)</title><text x="97.2" y="103.24" class="black" >C</text></g>
<g><title>68 (position.label in template: 68.C)</title><text x="103.98" y="99.88" class="black" >C</text></g>
<g><title>69 (position.label in template: 69.U)</title><text x="110.76" y="96.53" class="green" >T</text></g>
<g><title>70 (position.label in template: 70.U)</title><text x="111.49" y="89.01" class="green" >T</text></g>
<g><title>71 (position.label in template: 71.U)</title><text x="115.23" y="82.44" class="green" >T</text></g>
<g><title>72 (position.label in template: 72.G)</title><text x="121.12" y="77.98" class="black" >G</text></g>
<g><title>73 (position.label in template: 73.A)</title><text x="128.93" y="76.4" class="black" >A</text></g>
<g><title>74 (position.label in template: 74.A)</title><text x="136.32" y="77.98" class="black" >A</text></g>
<g><title>75 (position.label in template: 75.C)</title><text x="142.22" y="82.44" class="black" >C</text></g>
<g><line x1="142.951" y1="84.0377" x2="145.849" y2="91.5805" class="black" /></g>
<g><title>76 (position.label in template: 76.C)</title><text x="149.23" y="79.61" class="black" >C</text></g>
<g><line x1="149.961" y1="81.208" x2="152.859" y2="88.7603" class="black" /></g>
<g><title>77 (position.label in template: 77.U)</title><text x="156.24" y="76.79" class="green" >T</text></g>
<g><line x1="157.031" y1="78.3635" x2="160.229" y2="85.9547" class="black" /></g>
<g><title>78 (position.label in template: 78.G)</title><text x="163.04" y="73.96" class="black" >G</text></g>
<g><line x1="163.803" y1="75.5452" x2="166.857" y2="83.113" class="black" /></g>
<g><title>79 (position.label in template: 79.A)</title><text x="167.19" y="67.38" class="black" >A</text></g>
<g><title>80 (position.label in template: 80.U)</title><text x="173.99" y="64.56" class="green" >T</text></g>
<g><title>81 (position.label in template: 81.C)</title><text x="181.24" y="66.71" class="black" >C</text></g>
<g><line x1="181.973" y1="68.3072" x2="184.877" y2="75.851" class="black" /></g>
<g><title>82 (position.label in template: 82.U)</title><text x="188.25" y="63.88" class="green" >T</text></g>
<g><line x1="189.041" y1="65.4537" x2="192.239" y2="73.0545" class="black" /></g>
<g><title>83 (position.label in template: 83.C)</title><text x="195.26" y="61.06" class="black" >C</text></g>
<g><line x1="195.993" y1="62.6572" x2="198.897" y2="70.201" class="black" /></g>
<g><title>84 (position.label in template: 84.A)</title><text x="202.48" y="58.23" class="green" >A</text></g>
<g><line x1="203.213" y1="59.8272" x2="206.117" y2="67.371" class="black" /></g>
<g><title>85 (position.label in template: 85.U)</title><text x="206.47" y="51.94" class="green" >T</text></g>
<g><title>86 (position.label in template: 86.U)</title><text x="213.78" y="50" class="green" >T</text></g>
<g><title>87 (position.label in template: 87.A)</title><text x="220.74" y="53.39" class="black" >A</text></g>
<g><title>88 (position.label in template: 88.A)</title><text x="223.57" y="60.4" class="black" >A</text></g>
<g><title>89 (position.label in template: 89.U)</title><text x="220.84" y="67.53" class="green" >T</text></g>
<g><title>90 (position.label in template: 90.C)</title><text x="214.24" y="71.2" class="black" >C</text></g>
<g><title>91 (position.label in template: 91.U)</title><text x="206.85" y="69.58" class="green" >T</text></g>
<g><title>92 (position.label in template: 92.G)</title><text x="199.63" y="72.41" class="black" >G</text></g>
<g><title>93 (position.label in template: 93.A)</title><text x="193.03" y="75.24" class="green" >A</text></g>
<g><title>94 (position.label in template: 94.G)</title><text x="185.61" y="78.06" class="black" >G</text></g>
<g><title>95 (position.label in template: 95.C)</title><text x="182.09" y="84.64" class="black" >C</text></g>
<g><title>96 (position.label in template: 96.G)</title><text x="174.87" y="87.47" class="black" >G</text></g>
<g><title>97 (position.label in template: 97.G)</title><text x="167.62" y="85.31" class="black" >G</text></g>
<g><title>98 (position.label in template: 98.A)</title><text x="161.02" y="88.14" class="green" >A</text></g>
<g><title>99 (position.label in template: 99.G)</title><text x="153.59" y="90.97" class="black" >G</text></g>
<g><title>100 (position.label in template: 100.G)</title><text x="146.58" y="93.79" class="black" >G</text></g>
<g><text x="152.038" y="97.983" class="numbering-label sequential" >100</text></g>
<g><line x1="148.035" y1="94.9081" x2="150.047" y2="96.4535" class="numbering-line sequential" /></g>
<g><title>101 (position.label in template: 101.A)</title><text x="145.7" y="101.24" class="black" >A</text></g>
<g><title>102 (position.label in template: 102.A)</title><text x="141.47" y="107.51" class="black" >A</text></g>
<g><title>103 (position.label in template: 103.A)</title><text x="135.05" y="111.5" class="green" >A</text></g>
<g><title>104 (position.label in template: 104.A)</title><text x="135.05" y="119.06" class="green" >A</text></g>
<g><title>105 (position.label in template: 105.U)</title><text x="134.84" y="126.62" class="green" >T</text></g>
<g><title>106 (position.label in template: 106.G)</title><text x="134.63" y="134.18" class="black" >G</text></g>
<g><title>107 (position.label in template: 107.U)</title><text x="134.84" y="141.74" class="green" >T</text></g>
<g><title>108 (position.label in template: 108.G)</title><text x="140.096" y="147.2" class="black" >G</text></g>
<g><title>109 (position.label in template: 109.U)</title><text x="147.674" y="147.2" class="green" >T</text></g>
<g><title>110 (position.label in template: 110.C)</title><text x="155.253" y="147.2" class="black" >C</text></g>
<g><title>111 (position.label in template: 111.U)</title><text x="162.832" y="147.2" class="green" >T</text></g>
<g><title>112 (position.label in template: 112.A)</title><text x="170.41" y="147.2" class="black" >A</text></g>
<g><title>113 (position.label in template: 113.U)</title><text x="177.989" y="147.2" class="green" >T</text></g>
<g><title>114 (position.label in template: 114.U)</title><text x="185.567" y="147.2" class="green" >T</text></g>
<g><title>115 (position.label in template: 115.G)</title><text x="193.146" y="147.2" class="black" >G</text></g>
<g><title>116 (position.label in template: 116.U)</title><text x="200.725" y="147.2" class="green" >T</text></g>
<g><title>117 (position.label in template: 117.C)</title><text x="208.303" y="147.2" class="black" >C</text></g>
<g><title>118 (position.label in template: 118.A)</title><text x="215.882" y="147.2" class="black" >A</text></g>
<g><title>119 (position.label in template: 119.U)</title><text x="223.46" y="147.2" class="green" >T</text></g>
<g><title>120 (position.label in template: 120.3')</title><text x="231.039" y="147.2" class="green" >3'</text></g>
<g><line x1="81.5923" y1="146.788" x2="85.0924" y2="146.788" class="gray" /></g>
<g><line x1="89.1709" y1="146.788" x2="92.671" y2="146.788" class="gray" /></g>
<g><line x1="96.7495" y1="146.788" x2="100.25" y2="146.788" class="gray" /></g>
<g><line x1="104.328" y1="146.788" x2="107.828" y2="146.788" class="gray" /></g>
<g><line x1="111.907" y1="146.788" x2="115.407" y2="146.788" class="gray" /></g>
<g><line x1="118.889" y1="145.347" x2="121.367" y2="142.875" class="gray" /></g>
<g><line x1="122.753" y1="139.396" x2="122.657" y2="135.913" class="gray" /></g>
<g><line x1="122.657" y1="131.836" x2="122.753" y2="128.353" class="gray" /></g>
<g><line x1="122.753" y1="124.276" x2="122.657" y2="120.793" class="gray" /></g>
<g><line x1="122.6" y1="116.715" x2="122.6" y2="113.233" class="gray" /></g>
<g><line x1="120.884" y1="110.092" x2="118.106" y2="108.306" class="gray" /></g>
<g><line x1="114.541" y1="108.064" x2="111.039" y2="109.694" class="gray" /></g>
<g><line x1="107.362" y1="111.459" x2="104.248" y2="113" class="gray" /></g>
<g><line x1="100.592" y1="114.807" x2="97.4683" y2="116.351" class="gray" /></g>
<g><line x1="94.3422" y1="118.827" x2="92.1278" y2="121.511" class="gray" /></g>
<g><line x1="88.7922" y1="123.162" x2="85.5278" y2="123.286" class="gray" /></g>
<g><line x1="83.1569" y1="125.376" x2="82.5831" y2="128.842" class="gray" /></g>
<g><line x1="83.7889" y1="132.192" x2="86.5311" y2="134.576" class="gray" /></g>
<g><line x1="89.5855" y1="137.279" x2="92.1745" y2="139.61" class="gray" /></g>
<g><line x1="95.2314" y1="142.309" x2="97.9786" y2="144.689" class="gray" /></g>
<g><line x1="101.009" y1="147.417" x2="103.441" y2="149.691" class="gray" /></g>
<g><line x1="106.717" y1="150.101" x2="109.923" y2="148.337" class="gray" /></g>
<g><line x1="113.671" y1="146.795" x2="116.829" y2="145.894" class="gray" /></g>
<g><line x1="120.829" y1="145.284" x2="124.511" y2="145.194" class="gray" /></g>
<g><line x1="128.537" y1="145.601" x2="131.733" y2="146.337" class="gray" /></g>
<g><line x1="135.554" y1="147.686" x2="138.856" y2="149.292" class="gray" /></g>
<g><line x1="142.184" y1="151.572" x2="144.506" y2="153.727" class="gray" /></g>
<g><line x1="147.215" y1="156.752" x2="149.365" y2="159.647" class="gray" /></g>
<g><line x1="151.319" y1="163.185" x2="152.581" y2="166.433" class="gray" /></g>
<g><line x1="153.574" y1="170.358" x2="154.006" y2="173.811" class="gray" /></g>
<g><line x1="153.959" y1="177.851" x2="153.441" y2="181.317" class="gray" /></g>
<g><line x1="152.462" y1="185.257" x2="151.328" y2="188.471" class="gray" /></g>
<g><line x1="149.521" y1="192.093" x2="147.659" y2="194.896" class="gray" /></g>
<g><line x1="144.945" y1="197.877" x2="141.985" y2="200.271" class="gray" /></g>
<g><line x1="138.607" y1="202.525" x2="135.873" y2="204.004" class="gray" /></g>
<g><line x1="132.089" y1="205.415" x2="128.491" y2="206.213" class="gray" /></g>
<g><line x1="124.461" y1="206.614" x2="120.979" y2="206.545" class="gray" /></g>
<g><line x1="116.976" y1="205.955" x2="113.824" y2="205.073" class="gray" /></g>
<g><line x1="110.068" y1="203.551" x2="106.842" y2="201.798" class="gray" /></g>
<g><line x1="103.541" y1="199.452" x2="100.849" y2="197.006" class="gray" /></g>
<g><line x1="98.3229" y1="193.867" x2="96.6971" y2="191.042" class="gray" /></g>
<g><line x1="94.9825" y1="187.358" x2="93.7675" y2="184.02" class="gray" /></g>
<g><line x1="92.9618" y1="180.068" x2="92.7782" y2="176.61" class="gray" /></g>
<g><line x1="92.9542" y1="172.555" x2="93.4358" y2="169.133" class="gray" /></g>
<g><line x1="94.5347" y1="165.245" x2="95.9253" y2="162.054" class="gray" /></g>
<g><line x1="95.2245" y1="158.82" x2="92.6355" y2="156.489" class="gray" /></g>
<g><line x1="89.5799" y1="153.787" x2="86.8301" y2="151.401" class="gray" /></g>
<g><line x1="83.7745" y1="148.7" x2="81.1855" y2="146.369" class="gray" /></g>
<g><line x1="78.1819" y1="143.61" x2="75.7581" y2="141.338" class="gray" /></g>
<g><line x1="72.2899" y1="140.432" x2="68.9001" y2="141.266" class="gray" /></g>
<g><line x1="64.9229" y1="141.342" x2="61.3171" y2="140.597" class="gray" /></g>
<g><line x1="57.7555" y1="138.876" x2="55.3345" y2="136.852" class="gray" /></g>
<g><line x1="52.7779" y1="133.762" x2="50.9921" y2="130.556" class="gray" /></g>
<g><line x1="50.097" y1="126.737" x2="50.263" y2="123.251" class="gray" /></g>
<g><line x1="51.1382" y1="119.329" x2="52.4018" y2="116.269" class="gray" /></g>
<g><line x1="54.7698" y1="113.107" x2="57.4902" y2="110.921" class="gray" /></g>
<g><line x1="59.0259" y1="107.606" x2="58.9341" y2="104.153" class="gray" /></g>
<g><line x1="58.6622" y1="100.087" x2="58.2878" y2="96.6017" class="gray" /></g>
<g><line x1="59.1572" y1="92.8488" x2="60.9528" y2="89.9994" class="gray" /></g>
<g><line x1="63.7651" y1="89.3615" x2="68.7549" y2="92.5067" class="gray" /></g>
<g><line x1="70.5882" y1="95.6305" x2="70.7718" y2="99.0877" class="gray" /></g>
<g><line x1="71.0444" y1="103.157" x2="71.3256" y2="106.632" class="gray" /></g>
<g><line x1="73.2634" y1="109.671" x2="76.2866" y2="111.387" class="gray" /></g>
<g><line x1="78.0465" y1="110.355" x2="78.0235" y2="106.873" class="gray" /></g>
<g><line x1="79.8383" y1="103.931" x2="82.9617" y2="102.387" class="gray" /></g>
<g><line x1="86.343" y1="102.806" x2="88.877" y2="104.962" class="gray" /></g>
<g><line x1="92.2577" y1="105.38" x2="95.3723" y2="103.839" class="gray" /></g>
<g><line x1="99.0272" y1="102.029" x2="102.153" y2="100.48" class="gray" /></g>
<g><line x1="105.808" y1="98.6708" x2="108.932" y2="97.1275" class="gray" /></g>
<g><line x1="110.957" y1="94.1944" x2="111.293" y2="90.7338" class="gray" /></g>
<g><line x1="112.499" y1="86.9319" x2="114.221" y2="83.9063" class="gray" /></g>
<g><line x1="116.856" y1="80.9031" x2="119.494" y2="78.9052" class="gray" /></g>
<g><line x1="123.119" y1="77.2698" x2="126.931" y2="76.4985" class="gray" /></g>
<g><line x1="130.924" y1="76.5205" x2="134.326" y2="77.2478" class="gray" /></g>
<g><line x1="137.947" y1="78.9038" x2="140.593" y2="80.9044" class="gray" /></g>
<g><line x1="144.111" y1="81.3707" x2="147.339" y2="80.0675" class="gray" /></g>
<g><line x1="151.122" y1="78.543" x2="154.348" y2="77.2452" class="gray" /></g>
<g><line x1="158.123" y1="75.7006" x2="161.157" y2="74.4377" class="gray" /></g>
<g><line x1="164.128" y1="71.9293" x2="166.102" y2="68.799" class="gray" /></g>
<g><line x1="169.074" y1="66.2929" x2="172.106" y2="65.0353" class="gray" /></g>
<g><line x1="175.945" y1="64.8339" x2="179.285" y2="65.8243" class="gray" /></g>
<g><line x1="183.131" y1="65.6407" x2="186.359" y2="64.3375" class="gray" /></g>
<g><line x1="190.142" y1="62.813" x2="193.368" y2="61.5152" class="gray" /></g>
<g><line x1="197.159" y1="60.0099" x2="200.581" y2="58.6683" class="gray" /></g>
<g><line x1="203.572" y1="56.2021" x2="205.378" y2="53.3561" class="gray" /></g>
<g><line x1="208.441" y1="51.111" x2="211.809" y2="50.2172" class="gray" /></g>
<g><line x1="215.613" y1="50.5871" x2="218.907" y2="52.1911" class="gray" /></g>
<g><line x1="221.503" y1="54.9751" x2="222.807" y2="58.2031" class="gray" /></g>
<g><line x1="222.841" y1="61.9985" x2="221.569" y2="65.3197" class="gray" /></g>
<g><line x1="219.058" y1="68.2151" x2="216.022" y2="69.9031" class="gray" /></g>
<g><line x1="212.248" y1="70.4574" x2="208.842" y2="69.7108" class="gray" /></g>
<g><line x1="204.951" y1="70.0183" x2="201.529" y2="71.3599" class="gray" /></g>
<g><line x1="197.756" y1="72.9078" x2="194.904" y2="74.1305" class="gray" /></g>
<g><line x1="191.124" y1="75.6586" x2="187.516" y2="77.0296" class="gray" /></g>
<g><line x1="184.648" y1="79.5522" x2="183.052" y2="82.536" class="gray" /></g>
<g><line x1="180.191" y1="85.0783" x2="176.769" y2="86.4199" class="gray" /></g>
<g><line x1="172.916" y1="86.5818" x2="169.574" y2="85.5864" class="gray" /></g>
<g><line x1="165.746" y1="85.8078" x2="162.894" y2="87.0305" class="gray" /></g>
<g><line x1="159.114" y1="88.56" x2="155.496" y2="89.9383" class="gray" /></g>
<g><line x1="151.698" y1="91.4252" x2="148.472" y2="92.723" class="gray" /></g>
<g><line x1="146.341" y1="95.5093" x2="145.939" y2="98.9089" class="gray" /></g>
<g><line x1="144.56" y1="102.625" x2="142.61" y2="105.514" class="gray" /></g>
<g><line x1="139.738" y1="108.281" x2="136.782" y2="110.118" class="gray" /></g>
<g><line x1="135.05" y1="113.233" x2="135.05" y2="116.715" class="gray" /></g>
<g><line x1="134.993" y1="120.793" x2="134.897" y2="124.276" class="gray" /></g>
<g><line x1="134.783" y1="128.353" x2="134.687" y2="131.836" class="gray" /></g>
<g><line x1="134.687" y1="135.913" x2="134.783" y2="139.396" class="gray" /></g>
<g><line x1="136.254" y1="142.903" x2="138.681" y2="145.425" class="gray" /></g>
<g><line x1="142.135" y1="146.894" x2="145.635" y2="146.894" class="gray" /></g>
<g><line x1="149.714" y1="146.894" x2="153.214" y2="146.894" class="gray" /></g>
<g><line x1="157.292" y1="146.894" x2="160.792" y2="146.894" class="gray" /></g>
<g><line x1="164.871" y1="146.894" x2="168.371" y2="146.894" class="gray" /></g>
<g><line x1="172.449" y1="146.894" x2="175.949" y2="146.894" class="gray" /></g>
<g><line x1="180.028" y1="146.894" x2="183.528" y2="146.894" class="gray" /></g>
<g><line x1="187.607" y1="146.894" x2="191.107" y2="146.894" class="gray" /></g>
<g><line x1="195.185" y1="146.894" x2="198.685" y2="146.894" class="gray" /></g>
<g><line x1="202.764" y1="146.894" x2="206.264" y2="146.894" class="gray" /></g>
<g><line x1="210.342" y1="146.894" x2="213.843" y2="146.894" class="gray" /></g>
<g><line x1="217.921" y1="146.894" x2="221.421" y2="146.894" class="gray" /></g>
<g><line x1="225.5" y1="146.894" x2="229" y2="146.894" class="gray" /></g>
</svg>
