<svg
	xmlns="http://www.w3.org/2000/svg"
	width="283.469"
	height="289.086">
<g><style type="text/css" >
<!-- create color definitions -->
<![CDATA[
circle.red {stroke: rgb(255, 0, 255); fill: none; }
circle.green {stroke: rgb(0, 255, 0); fill: none; }
circle.blue {stroke: rgb(0, 0, 255); fill: none; }
circle.black {stroke: rgb(0, 0, 0); fill: none; }
circle.gray {stroke: rgb(204, 204, 204); fill: none; }
circle.brown {stroke: rgb(211.65, 104.55, 30.6); fill: none; }
line.red {stroke: rgb(255, 0, 255); stroke-width: 0.383079; }
line.green {stroke: rgb(0, 255, 0); stroke-width: 0.383079; }
line.blue {stroke: rgb(0, 0, 255); stroke-width: 0.383079; }
line.black {stroke: rgb(0, 0, 0); stroke-width: 0.383079; }
line.gray {stroke: rgb(204, 204, 204); stroke-width: 0.383079; }
line.brown {stroke: rgb(211.65, 104.55, 30.6); stroke-width: 0.383079; }
line {stroke: rgb(0, 0, 0); }
text.red {fill: rgb(255, 0, 255); font-size: 3.064632px; font-weight: bold; font-family: Helvetica; }
text.green {fill: rgb(0, 255, 0); font-size: 3.064632px; font-weight: bold; font-family: Helvetica; }
text.blue {fill: rgb(0, 0, 255); font-size: 3.064632px; font-weight: bold; font-family: Helvetica; }
text.black {fill: rgb(0, 0, 0); font-size: 3.064632px; font-weight: bold; font-family: Helvetica; }
text.gray {fill: rgb(204, 204, 204); font-size: 3.064632px; font-weight: bold; font-family: Helvetica; }
text.brown {fill: rgb(211.65, 104.55, 30.6); font-size: 3.064632px; font-weight: bold; font-family: Helvetica; }
text {fill: rgb(0, 0, 0); font-size: 3.064632px; font-weight: bold; font-family: Helvetica; text-anchor: middle; alignment-baseline: middle; }

.pseudoknot_connection{stroke-linecap: round; stroke-opacity: 0.2; stroke-width: 1.5; }
.pseudoknot_segment1{stroke-linecap: round; stroke-opacity: 0.4; stroke-width: 3.06463; }
.pseudoknot_segment2{stroke-linecap: round; stroke-opacity: 0.4; stroke-width: 3.06463; }
line.numbering-line{stroke: rgb(204, 204, 204); stroke-width: 0.19154; }
line.predicted{stroke: rgb(0, 0, 0); stroke-dasharray: 2; }
polyline{fill: none; stroke-linejoin: round; }
template{visibility: hidden; }
text.numbering-label{fill: rgb(204, 204, 204); }
]]>
</style></g>
<g><title>0 (position.label in template: 0.5')</title><text x="53.9606" y="244.643" class="green" >5'</text></g>
<g><title>1 (position.label in template: 1.A)</title><text x="59.0903" y="239.086" class="black" >A</text></g>
<g><title>2 (position.label in template: 2.G)</title><text x="64.22" y="233.53" class="black" >G</text></g>
<g><line x1="66.2631" y1="233.224" x2="74.6269" y2="233.224" class="black" /></g>
<g><title>3 (position.label in template: 3.G)</title><text x="64.22" y="225.97" class="black" >G</text></g>
<g><line x1="66.2631" y1="225.664" x2="74.6269" y2="225.664" class="black" /></g>
<g><title>4 (position.label in template: 4.U)</title><text x="64.43" y="218.41" class="green" >T</text></g>
<g><line x1="66.4731" y1="218.104" x2="74.8369" y2="218.104" class="black" /></g>
<g><title>5 (position.label in template: 5.C)</title><text x="64.43" y="210.85" class="black" >C</text></g>
<g><line x1="66.4731" y1="210.544" x2="74.4169" y2="210.544" class="black" /></g>
<g><title>6 (position.label in template: 6.A)</title><text x="64.64" y="203.29" class="green" >A</text></g>
<g><line x1="66.6831" y1="202.984" x2="74.6269" y2="202.984" class="black" /></g>
<g><title>7 (position.label in template: 7.C)</title><text x="64.43" y="195.73" class="black" >C</text></g>
<g><line x1="66.4731" y1="195.424" x2="74.4169" y2="195.424" class="black" /></g>
<g><title>8 (position.label in template: 8.U)</title><text x="57.72" y="192.24" class="green" >T</text></g>
<g><title>9 (position.label in template: 9.U)</title><text x="52.69" y="186.6" class="green" >T</text></g>
<g><title>10 (position.label in template: 10.C)</title><text x="50" y="179.53" class="black" >C</text></g>
<g><text x="43.2016" y="180.682" class="numbering-label sequential" >10</text></g>
<g><line x1="48.1871" y1="179.837" x2="45.0403" y2="180.371" class="numbering-line sequential" /></g>
<g><title>11 (position.label in template: 11.A)</title><text x="50.21" y="171.97" class="black" >A</text></g>
<g><title>12 (position.label in template: 12.A)</title><text x="52.9" y="164.91" class="black" >A</text></g>
<g><title>13 (position.label in template: 13.A)</title><text x="57.93" y="159.26" class="black" >A</text></g>
<g><title>14 (position.label in template: 14.G)</title><text x="64.22" y="155.78" class="green" >G</text></g>
<g><line x1="66.2631" y1="155.474" x2="74.6269" y2="155.474" class="black" /></g>
<g><title>15 (position.label in template: 15.A)</title><text x="64.64" y="148.22" class="green" >A</text></g>
<g><line x1="66.6831" y1="147.914" x2="74.6269" y2="147.914" class="black" /></g>
<g><title>16 (position.label in template: 16.G)</title><text x="64.22" y="140.66" class="black" >G</text></g>
<g><line x1="66.2631" y1="140.354" x2="74.6269" y2="140.354" class="black" /></g>
<g><title>17 (position.label in template: 17.G)</title><text x="64.22" y="133.1" class="green" >G</text></g>
<g><line x1="66.2631" y1="132.794" x2="74.6269" y2="132.794" class="black" /></g>
<g><title>18 (position.label in template: 18.G)</title><text x="64.22" y="125.54" class="black" >G</text></g>
<g><line x1="66.2631" y1="125.234" x2="74.6269" y2="125.234" class="black" /></g>
<g><title>19 (position.label in template: 19.U)</title><text x="64.43" y="117.98" class="green" >T</text></g>
<g><line x1="66.4731" y1="117.674" x2="74.4169" y2="117.674" class="black" /></g>
<g><title>20 (position.label in template: 20.U)</title><text x="64.43" y="110.42" class="green" >T</text></g>
<g><line x1="66.4731" y1="110.114" x2="74.8369" y2="110.114" class="black" /></g>
<g><text x="57.5346" y="110.42" class="numbering-label sequential" >20</text></g>
<g><line x1="62.5912" y1="110.42" x2="59.3734" y2="110.42" class="numbering-line sequential" /></g>
<g><title>21 (position.label in template: 21.U)</title><text x="64.43" y="102.86" class="green" >T</text></g>
<g><line x1="66.4731" y1="102.554" x2="74.6269" y2="102.554" class="black" /></g>
<g><title>22 (position.label in template: 22.G)</title><text x="57.67" y="99.08" class="black" >G</text></g>
<g><title>23 (position.label in template: 23.C)</title><text x="64.43" y="95.3" class="black" >C</text></g>
<g><line x1="66.4731" y1="94.9935" x2="74.4169" y2="94.9935" class="black" /></g>
<g><title>24 (position.label in template: 24.A)</title><text x="57.75" y="92.18" class="black" >A</text></g>
<g><title>25 (position.label in template: 25.U)</title><text x="57.54" y="84.62" class="green" >T</text></g>
<g><title>26 (position.label in template: 26.G)</title><text x="64.22" y="81.51" class="black" >G</text></g>
<g><line x1="66.2631" y1="81.2035" x2="74.6269" y2="81.2035" class="black" /></g>
<g><title>27 (position.label in template: 27.G)</title><text x="64.22" y="73.95" class="black" >G</text></g>
<g><line x1="66.2631" y1="73.6435" x2="74.6269" y2="73.6435" class="black" /></g>
<g><title>28 (position.label in template: 28.C)</title><text x="59.08" y="68.61" class="black" >C</text></g>
<g><title>29 (position.label in template: 29.U)</title><text x="57.6" y="61.19" class="green" >T</text></g>
<g><title>30 (position.label in template: 30.G)</title><text x="60.28" y="54.21" class="black" >G</text></g>
<g><text x="54.9956" y="49.7803" class="numbering-label sequential" >30</text></g>
<g><line x1="58.8708" y1="53.0288" x2="56.8344" y2="51.3217" class="numbering-line sequential" /></g>
<g><title>31 (position.label in template: 31.A)</title><text x="66.98" y="50" class="black" >A</text></g>
<g><title>32 (position.label in template: 32.A)</title><text x="74.54" y="50" class="black" >A</text></g>
<g><title>33 (position.label in template: 33.A)</title><text x="80.82" y="54.21" class="black" >A</text></g>
<g><title>34 (position.label in template: 34.A)</title><text x="83.71" y="61.19" class="black" >A</text></g>
<g><title>35 (position.label in template: 35.A)</title><text x="82.23" y="68.61" class="black" >A</text></g>
<g><title>36 (position.label in template: 36.C)</title><text x="76.67" y="73.95" class="black" >C</text></g>
<g><title>37 (position.label in template: 37.C)</title><text x="76.67" y="81.51" class="black" >C</text></g>
<g><title>38 (position.label in template: 38.A)</title><text x="79.98" y="88.4" class="black" >A</text></g>
<g><title>39 (position.label in template: 39.G)</title><text x="76.46" y="95.3" class="black" >G</text></g>
<g><title>40 (position.label in template: 40.C)</title><text x="76.67" y="102.86" class="green" >C</text></g>
<g><title>41 (position.label in template: 41.A)</title><text x="76.88" y="110.42" class="green" >A</text></g>
<g><title>42 (position.label in template: 42.G)</title><text x="76.46" y="117.98" class="green" >G</text></g>
<g><title>43 (position.label in template: 43.C)</title><text x="76.67" y="125.54" class="black" >C</text></g>
<g><title>44 (position.label in template: 44.U)</title><text x="76.67" y="133.1" class="green" >T</text></g>
<g><title>45 (position.label in template: 45.C)</title><text x="76.67" y="140.66" class="black" >C</text></g>
<g><title>46 (position.label in template: 46.U)</title><text x="76.67" y="148.22" class="green" >T</text></g>
<g><title>47 (position.label in template: 47.U)</title><text x="76.67" y="155.78" class="green" >T</text></g>
<g><title>48 (position.label in template: 48.A)</title><text x="83.59" y="159.26" class="black" >A</text></g>
<g><title>49 (position.label in template: 49.A)</title><text x="88.61" y="164.91" class="black" >A</text></g>
<g><title>50 (position.label in template: 50.C)</title><text x="91.1" y="171.97" class="black" >C</text></g>
<g><text x="97.9131" y="170.907" class="numbering-label sequential" >50</text></g>
<g><line x1="92.9168" y1="171.687" x2="96.0743" y2="171.194" class="numbering-line sequential" /></g>
<g><title>51 (position.label in template: 51.G)</title><text x="90.89" y="179.53" class="black" >G</text></g>
<g><title>52 (position.label in template: 52.C)</title><text x="88.41" y="186.6" class="black" >C</text></g>
<g><title>53 (position.label in template: 53.G)</title><text x="83.17" y="192.24" class="black" >G</text></g>
<g><title>54 (position.label in template: 54.G)</title><text x="76.46" y="195.73" class="black" >G</text></g>
<g><title>55 (position.label in template: 55.U)</title><text x="76.67" y="203.29" class="green" >T</text></g>
<g><title>56 (position.label in template: 56.G)</title><text x="76.46" y="210.85" class="black" >G</text></g>
<g><title>57 (position.label in template: 57.A)</title><text x="76.88" y="218.41" class="green" >A</text></g>
<g><title>58 (position.label in template: 58.C)</title><text x="76.67" y="225.97" class="black" >C</text></g>
<g><title>59 (position.label in template: 59.C)</title><text x="76.67" y="233.53" class="black" >C</text></g>
<g><title>60 (position.label in template: 60.G)</title><text x="81.81" y="238.87" class="black" >G</text></g>
<g><title>61 (position.label in template: 61.C)</title><text x="89.58" y="238.87" class="black" >C</text></g>
<g><title>62 (position.label in template: 62.A)</title><text x="97.34" y="238.87" class="black" >A</text></g>
<g><title>63 (position.label in template: 63.U)</title><text x="104.7" y="238.87" class="green" >T</text></g>
<g><title>64 (position.label in template: 64.A)</title><text x="112.46" y="238.87" class="black" >A</text></g>
<g><title>65 (position.label in template: 65.U)</title><text x="119.82" y="238.87" class="green" >T</text></g>
<g><title>66 (position.label in template: 66.U)</title><text x="127.38" y="238.87" class="green" >T</text></g>
<g><title>67 (position.label in template: 67.G)</title><text x="134.73" y="238.87" class="black" >G</text></g>
<g><title>68 (position.label in template: 68.A)</title><text x="142.7" y="238.87" class="black" >A</text></g>
<g><title>69 (position.label in template: 69.A)</title><text x="150.26" y="238.87" class="black" >A</text></g>
<g><title>70 (position.label in template: 70.A)</title><text x="157.82" y="238.87" class="black" >A</text></g>
<g><title>71 (position.label in template: 71.U)</title><text x="165.18" y="238.87" class="green" >T</text></g>
<g><title>72 (position.label in template: 72.C)</title><text x="170.52" y="233.53" class="black" >C</text></g>
<g><line x1="172.563" y1="233.224" x2="180.507" y2="233.224" class="black" /></g>
<g><title>73 (position.label in template: 73.C)</title><text x="170.52" y="225.97" class="black" >C</text></g>
<g><line x1="172.563" y1="225.664" x2="180.507" y2="225.664" class="black" /></g>
<g><title>74 (position.label in template: 74.U)</title><text x="170.52" y="218.41" class="green" >T</text></g>
<g><line x1="172.563" y1="218.104" x2="180.927" y2="218.104" class="black" /></g>
<g><title>75 (position.label in template: 75.C)</title><text x="170.52" y="210.85" class="black" >C</text></g>
<g><line x1="172.563" y1="210.544" x2="180.507" y2="210.544" class="black" /></g>
<g><title>76 (position.label in template: 76.U)</title><text x="170.52" y="203.29" class="green" >T</text></g>
<g><line x1="172.563" y1="202.984" x2="180.717" y2="202.984" class="black" /></g>
<g><title>77 (position.label in template: 77.G)</title><text x="165.61" y="197.37" class="black" >G</text></g>
<g><title>78 (position.label in template: 78.C)</title><text x="165.82" y="189.81" class="black" >C</text></g>
<g><title>79 (position.label in template: 79.A)</title><text x="170.73" y="183.9" class="green" >A</text></g>
<g><line x1="172.773" y1="183.594" x2="180.717" y2="183.594" class="black" /></g>
<g><title>80 (position.label in template: 80.G)</title><text x="170.31" y="176.33" class="green" >G</text></g>
<g><line x1="172.353" y1="176.024" x2="180.717" y2="176.024" class="black" /></g>
<g><title>81 (position.label in template: 81.G)</title><text x="170.31" y="168.77" class="black" >G</text></g>
<g><line x1="172.353" y1="168.464" x2="180.927" y2="168.464" class="black" /></g>
<g><title>82 (position.label in template: 82.A)</title><text x="170.73" y="161.21" class="green" >A</text></g>
<g><line x1="172.773" y1="160.904" x2="180.717" y2="160.904" class="black" /></g>
<g><title>83 (position.label in template: 83.U)</title><text x="164.39" y="156.79" class="green" >T</text></g>
<g><title>84 (position.label in template: 84.G)</title><text x="160.74" y="150.06" class="black" >G</text></g>
<g><title>85 (position.label in template: 85.C)</title><text x="160.95" y="142.5" class="black" >C</text></g>
<g><title>86 (position.label in template: 86.C)</title><text x="164.39" y="135.77" class="black" >C</text></g>
<g><title>87 (position.label in template: 87.G)</title><text x="170.31" y="131.34" class="green" >G</text></g>
<g><line x1="172.353" y1="131.034" x2="180.717" y2="131.034" class="black" /></g>
<g><title>88 (position.label in template: 88.U)</title><text x="170.52" y="123.78" class="green" >T</text></g>
<g><line x1="172.563" y1="123.474" x2="180.927" y2="123.474" class="black" /></g>
<g><title>89 (position.label in template: 89.G)</title><text x="170.31" y="116.22" class="green" >G</text></g>
<g><line x1="172.353" y1="115.914" x2="180.717" y2="115.914" class="black" /></g>
<g><title>90 (position.label in template: 90.G)</title><text x="170.31" y="108.66" class="black" >G</text></g>
<g><line x1="172.353" y1="108.354" x2="180.717" y2="108.354" class="black" /></g>
<g><title>91 (position.label in template: 91.A)</title><text x="164.18" y="104.88" class="black" >A</text></g>
<g><title>92 (position.label in template: 92.C)</title><text x="170.52" y="101.1" class="black" >C</text></g>
<g><line x1="172.563" y1="100.794" x2="180.507" y2="100.794" class="black" /></g>
<g><title>93 (position.label in template: 93.A)</title><text x="170.73" y="93.54" class="green" >A</text></g>
<g><line x1="172.773" y1="93.2335" x2="180.717" y2="93.2335" class="black" /></g>
<g><title>94 (position.label in template: 94.C)</title><text x="170.52" y="85.98" class="black" >C</text></g>
<g><line x1="172.563" y1="85.6735" x2="180.507" y2="85.6735" class="black" /></g>
<g><title>95 (position.label in template: 95.U)</title><text x="170.52" y="78.42" class="green" >T</text></g>
<g><line x1="172.563" y1="78.1135" x2="180.507" y2="78.1135" class="black" /></g>
<g><title>96 (position.label in template: 96.U)</title><text x="168.35" y="71.18" class="green" >T</text></g>
<g><title>97 (position.label in template: 97.G)</title><text x="172.65" y="65.12" class="black" >G</text></g>
<g><title>98 (position.label in template: 98.G)</title><text x="180.21" y="65.12" class="black" >G</text></g>
<g><title>99 (position.label in template: 99.U)</title><text x="184.94" y="71.18" class="green" >T</text></g>
<g><title>100 (position.label in template: 100.G)</title><text x="182.55" y="78.42" class="green" >G</text></g>
<g><text x="188.96" y="75.8782" class="numbering-label sequential" >100</text></g>
<g><line x1="184.259" y1="77.7422" x2="186.202" y2="76.9719" class="numbering-line sequential" /></g>
<g><title>101 (position.label in template: 101.U)</title><text x="189.31" y="82.2" class="green" >T</text></g>
<g><title>102 (position.label in template: 102.G)</title><text x="182.55" y="85.98" class="black" >G</text></g>
<g><title>103 (position.label in template: 103.U)</title><text x="182.76" y="93.54" class="green" >T</text></g>
<g><title>104 (position.label in template: 104.G)</title><text x="182.55" y="101.1" class="black" >G</text></g>
<g><title>105 (position.label in template: 105.C)</title><text x="182.76" y="108.66" class="black" >C</text></g>
<g><title>106 (position.label in template: 106.U)</title><text x="182.76" y="116.22" class="green" >T</text></g>
<g><title>107 (position.label in template: 107.A)</title><text x="182.97" y="123.78" class="green" >A</text></g>
<g><title>108 (position.label in template: 108.U)</title><text x="182.76" y="131.34" class="green" >T</text></g>
<g><title>109 (position.label in template: 109.G)</title><text x="188.68" y="135.77" class="black" >G</text></g>
<g><title>110 (position.label in template: 110.G)</title><text x="192.12" y="142.5" class="black" >G</text></g>
<g><title>111 (position.label in template: 111.U)</title><text x="192.33" y="150.06" class="green" >T</text></g>
<g><title>112 (position.label in template: 112.C)</title><text x="188.89" y="156.79" class="black" >C</text></g>
<g><title>113 (position.label in template: 113.U)</title><text x="182.76" y="161.21" class="green" >T</text></g>
<g><title>114 (position.label in template: 114.A)</title><text x="182.97" y="168.77" class="black" >A</text></g>
<g><title>115 (position.label in template: 115.U)</title><text x="182.76" y="176.33" class="green" >T</text></g>
<g><title>116 (position.label in template: 116.U)</title><text x="182.76" y="183.9" class="green" >T</text></g>
<g><title>117 (position.label in template: 117.U)</title><text x="187.47" y="189.81" class="green" >T</text></g>
<g><title>118 (position.label in template: 118.A)</title><text x="187.67" y="197.37" class="black" >A</text></g>
<g><title>119 (position.label in template: 119.U)</title><text x="182.76" y="203.29" class="green" >T</text></g>
<g><title>120 (position.label in template: 120.G)</title><text x="182.55" y="210.85" class="black" >G</text></g>
<g><title>121 (position.label in template: 121.A)</title><text x="182.97" y="218.41" class="green" >A</text></g>
<g><title>122 (position.label in template: 122.G)</title><text x="182.55" y="225.97" class="black" >G</text></g>
<g><title>123 (position.label in template: 123.G)</title><text x="182.55" y="233.53" class="black" >G</text></g>
<g><title>124 (position.label in template: 124.A)</title><text x="188.096" y="238.671" class="black" >A</text></g>
<g><title>125 (position.label in template: 125.G)</title><text x="195.658" y="238.671" class="black" >G</text></g>
<g><title>126 (position.label in template: 126.A)</title><text x="203.22" y="238.671" class="black" >A</text></g>
<g><title>127 (position.label in template: 127.U)</title><text x="210.782" y="238.671" class="green" >T</text></g>
<g><title>128 (position.label in template: 128.A)</title><text x="218.344" y="238.671" class="black" >A</text></g>
<g><title>129 (position.label in template: 129.U)</title><text x="225.906" y="238.671" class="green" >T</text></g>
<g><title>130 (position.label in template: 130.G)</title><text x="233.469" y="238.671" class="black" >G</text></g>
<g><title>131 (position.label in template: 131.3')</title><text x="241.031" y="238.671" class="green" >3'</text></g>
<g><line x1="55.3465" y1="242.835" x2="57.7044" y2="240.281" class="gray" /></g>
<g><line x1="60.4762" y1="237.279" x2="62.8341" y2="234.725" class="gray" /></g>
<g><line x1="64.22" y1="231.18" x2="64.22" y2="227.707" class="gray" /></g>
<g><line x1="64.2767" y1="223.621" x2="64.3733" y2="220.146" class="gray" /></g>
<g><line x1="64.43" y1="216.06" x2="64.43" y2="212.587" class="gray" /></g>
<g><line x1="64.4867" y1="208.501" x2="64.5833" y2="205.026" class="gray" /></g>
<g><line x1="64.5833" y1="200.941" x2="64.4867" y2="197.466" class="gray" /></g>
<g><line x1="62.6174" y1="194.481" x2="59.5326" y2="192.876" class="gray" /></g>
<g><line x1="56.3601" y1="190.409" x2="54.0499" y2="187.818" class="gray" /></g>
<g><line x1="51.9635" y1="184.384" x2="50.7265" y2="181.133" class="gray" /></g>
<g><line x1="50.0567" y1="177.181" x2="50.1533" y2="173.706" class="gray" /></g>
<g><line x1="50.9374" y1="169.754" x2="52.1726" y2="166.513" class="gray" /></g>
<g><line x1="54.2585" y1="163.078" x2="56.5715" y2="160.48" class="gray" /></g>
<g><line x1="59.7177" y1="157.964" x2="62.4323" y2="156.463" class="gray" /></g>
<g><line x1="64.3333" y1="153.434" x2="64.5267" y2="149.953" class="gray" /></g>
<g><line x1="64.5267" y1="145.874" x2="64.3333" y2="142.393" class="gray" /></g>
<g><line x1="64.22" y1="138.31" x2="64.22" y2="134.837" class="gray" /></g>
<g><line x1="64.22" y1="130.75" x2="64.22" y2="127.277" class="gray" /></g>
<g><line x1="64.2767" y1="123.191" x2="64.3733" y2="119.716" class="gray" /></g>
<g><line x1="64.43" y1="115.63" x2="64.43" y2="112.157" class="gray" /></g>
<g><line x1="64.43" y1="108.07" x2="64.43" y2="104.597" class="gray" /></g>
<g><line x1="62.6468" y1="101.556" x2="59.4532" y2="99.7707" class="gray" /></g>
<g><line x1="59.4532" y1="97.7764" x2="62.6468" y2="95.9907" class="gray" /></g>
<g><line x1="62.5789" y1="94.1289" x2="59.6011" y2="92.7381" class="gray" /></g>
<g><line x1="57.6933" y1="89.8312" x2="57.5967" y2="86.3558" class="gray" /></g>
<g><line x1="59.3922" y1="83.4512" x2="62.3678" y2="82.0659" class="gray" /></g>
<g><line x1="64.22" y1="79.1604" x2="64.22" y2="75.6866" class="gray" /></g>
<g><line x1="62.8031" y1="72.1716" x2="60.4969" y2="69.7755" class="gray" /></g>
<g><line x1="58.6804" y1="66.2999" x2="57.9996" y2="62.8872" class="gray" /></g>
<g><line x1="58.3323" y1="58.9762" x2="59.5477" y2="55.8109" class="gray" /></g>
<g><line x1="62.0099" y1="52.8165" x2="65.2501" y2="50.7805" class="gray" /></g>
<g><line x1="69.0231" y1="49.6935" x2="72.4969" y2="49.6935" class="gray" /></g>
<g><line x1="76.237" y1="50.8312" x2="79.123" y2="52.7659" class="gray" /></g>
<g><line x1="81.6016" y1="55.7912" x2="82.9284" y2="58.9959" class="gray" /></g>
<g><line x1="83.3104" y1="62.8872" x2="82.6296" y2="66.2999" class="gray" /></g>
<g><line x1="80.7565" y1="69.7188" x2="78.1435" y2="72.2283" class="gray" /></g>
<g><line x1="76.67" y1="75.6866" x2="76.67" y2="79.1604" class="gray" /></g>
<g><line x1="77.5547" y1="83.0451" x2="79.0953" y2="86.2519" class="gray" /></g>
<g><line x1="79.0516" y1="89.9135" x2="77.3884" y2="93.1736" class="gray" /></g>
<g><line x1="76.5167" y1="97.0358" x2="76.6133" y2="100.511" class="gray" /></g>
<g><line x1="76.7267" y1="104.596" x2="76.8233" y2="108.071" class="gray" /></g>
<g><line x1="76.7667" y1="112.153" x2="76.5733" y2="115.634" class="gray" /></g>
<g><line x1="76.5167" y1="119.716" x2="76.6133" y2="123.191" class="gray" /></g>
<g><line x1="76.67" y1="127.277" x2="76.67" y2="130.75" class="gray" /></g>
<g><line x1="76.67" y1="134.837" x2="76.67" y2="138.31" class="gray" /></g>
<g><line x1="76.67" y1="142.397" x2="76.67" y2="145.87" class="gray" /></g>
<g><line x1="76.67" y1="149.957" x2="76.67" y2="153.43" class="gray" /></g>
<g><line x1="78.4953" y1="156.391" x2="81.7647" y2="158.036" class="gray" /></g>
<g><line x1="84.947" y1="160.481" x2="87.253" y2="163.076" class="gray" /></g>
<g><line x1="89.2896" y1="166.53" x2="90.4204" y2="169.737" class="gray" /></g>
<g><line x1="91.0433" y1="173.706" x2="90.9467" y2="177.181" class="gray" /></g>
<g><line x1="90.2137" y1="181.151" x2="89.0863" y2="184.366" class="gray" /></g>
<g><line x1="87.0194" y1="187.79" x2="84.5606" y2="190.437" class="gray" /></g>
<g><line x1="81.3574" y1="192.876" x2="78.2726" y2="194.481" class="gray" /></g>
<g><line x1="76.5167" y1="197.466" x2="76.6133" y2="200.941" class="gray" /></g>
<g><line x1="76.6133" y1="205.026" x2="76.5167" y2="208.501" class="gray" /></g>
<g><line x1="76.5733" y1="212.583" x2="76.7667" y2="216.064" class="gray" /></g>
<g><line x1="76.8233" y1="220.146" x2="76.7267" y2="223.621" class="gray" /></g>
<g><line x1="76.67" y1="227.707" x2="76.67" y2="231.18" class="gray" /></g>
<g><line x1="78.0869" y1="234.696" x2="80.3931" y2="237.092" class="gray" /></g>
<g><line x1="83.8531" y1="238.564" x2="87.5369" y2="238.564" class="gray" /></g>
<g><line x1="91.6231" y1="238.564" x2="95.2969" y2="238.564" class="gray" /></g>
<g><line x1="99.3831" y1="238.564" x2="102.657" y2="238.564" class="gray" /></g>
<g><line x1="106.743" y1="238.564" x2="110.417" y2="238.564" class="gray" /></g>
<g><line x1="114.503" y1="238.564" x2="117.777" y2="238.564" class="gray" /></g>
<g><line x1="121.863" y1="238.564" x2="125.337" y2="238.564" class="gray" /></g>
<g><line x1="129.423" y1="238.564" x2="132.687" y2="238.564" class="gray" /></g>
<g><line x1="136.773" y1="238.564" x2="140.657" y2="238.564" class="gray" /></g>
<g><line x1="144.743" y1="238.564" x2="148.217" y2="238.564" class="gray" /></g>
<g><line x1="152.303" y1="238.564" x2="155.777" y2="238.564" class="gray" /></g>
<g><line x1="159.863" y1="238.564" x2="163.137" y2="238.564" class="gray" /></g>
<g><line x1="166.625" y1="237.119" x2="169.075" y2="234.668" class="gray" /></g>
<g><line x1="170.52" y1="231.18" x2="170.52" y2="227.707" class="gray" /></g>
<g><line x1="170.52" y1="223.62" x2="170.52" y2="220.147" class="gray" /></g>
<g><line x1="170.52" y1="216.06" x2="170.52" y2="212.587" class="gray" /></g>
<g><line x1="170.52" y1="208.5" x2="170.52" y2="205.027" class="gray" /></g>
<g><line x1="169.216" y1="201.411" x2="166.914" y2="198.636" class="gray" /></g>
<g><line x1="165.667" y1="195.021" x2="165.763" y2="191.546" class="gray" /></g>
<g><line x1="167.126" y1="187.932" x2="169.424" y2="185.165" class="gray" /></g>
<g><line x1="170.617" y1="181.554" x2="170.423" y2="178.063" class="gray" /></g>
<g><line x1="170.31" y1="173.98" x2="170.31" y2="170.507" class="gray" /></g>
<g><line x1="170.423" y1="166.424" x2="170.617" y2="162.943" class="gray" /></g>
<g><line x1="169.054" y1="159.735" x2="166.066" y2="157.652" class="gray" /></g>
<g><line x1="163.416" y1="154.688" x2="161.714" y2="151.549" class="gray" /></g>
<g><line x1="160.797" y1="147.711" x2="160.893" y2="144.236" class="gray" /></g>
<g><line x1="161.88" y1="140.374" x2="163.46" y2="137.283" class="gray" /></g>
<g><line x1="166.026" y1="134.239" x2="168.674" y2="132.258" class="gray" /></g>
<g><line x1="170.367" y1="128.991" x2="170.463" y2="125.516" class="gray" /></g>
<g><line x1="170.463" y1="121.431" x2="170.367" y2="117.956" class="gray" /></g>
<g><line x1="170.31" y1="113.87" x2="170.31" y2="110.397" class="gray" /></g>
<g><line x1="168.571" y1="107.281" x2="165.919" y2="105.646" class="gray" /></g>
<g><line x1="165.935" y1="103.527" x2="168.765" y2="101.84" class="gray" /></g>
<g><line x1="170.577" y1="98.7512" x2="170.673" y2="95.2758" class="gray" /></g>
<g><line x1="170.673" y1="91.1912" x2="170.577" y2="87.7158" class="gray" /></g>
<g><line x1="170.52" y1="83.6304" x2="170.52" y2="80.1566" class="gray" /></g>
<g><line x1="169.933" y1="76.1565" x2="168.937" y2="72.8306" class="gray" /></g>
<g><line x1="169.532" y1="69.2073" x2="171.468" y2="66.4798" class="gray" /></g>
<g><line x1="174.693" y1="64.8135" x2="178.167" y2="64.8135" class="gray" /></g>
<g><line x1="181.467" y1="66.4241" x2="183.683" y2="69.263" class="gray" /></g>
<g><line x1="184.3" y1="72.8136" x2="183.19" y2="76.1734" class="gray" /></g>
<g><line x1="184.333" y1="79.1107" x2="187.527" y2="80.8964" class="gray" /></g>
<g><line x1="187.527" y1="82.8907" x2="184.333" y2="84.6764" class="gray" /></g>
<g><line x1="182.607" y1="87.7158" x2="182.703" y2="91.1912" class="gray" /></g>
<g><line x1="182.703" y1="95.2758" x2="182.607" y2="98.7512" class="gray" /></g>
<g><line x1="182.607" y1="102.836" x2="182.703" y2="106.311" class="gray" /></g>
<g><line x1="182.76" y1="110.397" x2="182.76" y2="113.87" class="gray" /></g>
<g><line x1="182.817" y1="117.956" x2="182.913" y2="121.431" class="gray" /></g>
<g><line x1="182.913" y1="125.516" x2="182.817" y2="128.991" class="gray" /></g>
<g><line x1="184.396" y1="132.258" x2="187.044" y2="134.239" class="gray" /></g>
<g><line x1="189.61" y1="137.283" x2="191.19" y2="140.374" class="gray" /></g>
<g><line x1="192.177" y1="144.236" x2="192.273" y2="147.711" class="gray" /></g>
<g><line x1="191.4" y1="151.573" x2="189.82" y2="154.664" class="gray" /></g>
<g><line x1="187.233" y1="157.678" x2="184.417" y2="159.709" class="gray" /></g>
<g><line x1="182.817" y1="162.946" x2="182.913" y2="166.421" class="gray" /></g>
<g><line x1="182.913" y1="170.506" x2="182.817" y2="173.981" class="gray" /></g>
<g><line x1="182.76" y1="178.067" x2="182.76" y2="181.55" class="gray" /></g>
<g><line x1="184.033" y1="185.191" x2="186.197" y2="187.906" class="gray" /></g>
<g><line x1="187.524" y1="191.546" x2="187.616" y2="195.021" class="gray" /></g>
<g><line x1="186.366" y1="198.636" x2="184.064" y2="201.411" class="gray" /></g>
<g><line x1="182.703" y1="205.026" x2="182.607" y2="208.501" class="gray" /></g>
<g><line x1="182.663" y1="212.583" x2="182.857" y2="216.064" class="gray" /></g>
<g><line x1="182.857" y1="220.143" x2="182.663" y2="223.624" class="gray" /></g>
<g><line x1="182.55" y1="227.707" x2="182.55" y2="231.18" class="gray" /></g>
<g><line x1="184.048" y1="234.613" x2="186.597" y2="236.976" class="gray" /></g>
<g><line x1="190.139" y1="238.365" x2="193.615" y2="238.365" class="gray" /></g>
<g><line x1="197.701" y1="238.365" x2="201.177" y2="238.365" class="gray" /></g>
<g><line x1="205.263" y1="238.365" x2="208.739" y2="238.365" class="gray" /></g>
<g><line x1="212.825" y1="238.365" x2="216.301" y2="238.365" class="gray" /></g>
<g><line x1="220.387" y1="238.365" x2="223.863" y2="238.365" class="gray" /></g>
<g><line x1="227.949" y1="238.365" x2="231.425" y2="238.365" class="gray" /></g>
<g><line x1="235.512" y1="238.365" x2="238.988" y2="238.365" class="gray" /></g>
</svg>
