<svg
	xmlns="http://www.w3.org/2000/svg"
	width="285.491"
	height="276.122">
<g><style type="text/css" >
<!-- create color definitions -->
<![CDATA[
circle.red {stroke: rgb(255, 0, 255); fill: none; }
circle.green {stroke: rgb(0, 255, 0); fill: none; }
circle.blue {stroke: rgb(0, 0, 255); fill: none; }
circle.black {stroke: rgb(0, 0, 0); fill: none; }
circle.gray {stroke: rgb(204, 204, 204); fill: none; }
circle.brown {stroke: rgb(211.65, 104.55, 30.6); fill: none; }
line.red {stroke: rgb(255, 0, 255); stroke-width: 0.382752; }
line.green {stroke: rgb(0, 255, 0); stroke-width: 0.382752; }
line.blue {stroke: rgb(0, 0, 255); stroke-width: 0.382752; }
line.black {stroke: rgb(0, 0, 0); stroke-width: 0.382752; }
line.gray {stroke: rgb(204, 204, 204); stroke-width: 0.382752; }
line.brown {stroke: rgb(211.65, 104.55, 30.6); stroke-width: 0.382752; }
line {stroke: rgb(0, 0, 0); }
text.red {fill: rgb(255, 0, 255); font-size: 3.062019px; font-weight: bold; font-family: Helvetica; }
text.green {fill: rgb(0, 255, 0); font-size: 3.062019px; font-weight: bold; font-family: Helvetica; }
text.blue {fill: rgb(0, 0, 255); font-size: 3.062019px; font-weight: bold; font-family: Helvetica; }
text.black {fill: rgb(0, 0, 0); font-size: 3.062019px; font-weight: bold; font-family: Helvetica; }
text.gray {fill: rgb(204, 204, 204); font-size: 3.062019px; font-weight: bold; font-family: Helvetica; }
text.brown {fill: rgb(211.65, 104.55, 30.6); font-size: 3.062019px; font-weight: bold; font-family: Helvetica; }
text {fill: rgb(0, 0, 0); font-size: 3.062019px; font-weight: bold; font-family: Helvetica; text-anchor: middle; alignment-baseline: middle; }

.pseudoknot_connection{stroke-linecap: round; stroke-opacity: 0.2; stroke-width: 1.5; }
.pseudoknot_segment1{stroke-linecap: round; stroke-opacity: 0.4; stroke-width: 3.06202; }
.pseudoknot_segment2{stroke-linecap: round; stroke-opacity: 0.4; stroke-width: 3.06202; }
line.numbering-line{stroke: rgb(204, 204, 204); stroke-width: 0.191376; }
line.predicted{stroke: rgb(0, 0, 0); stroke-dasharray: 2; }
polyline{fill: none; stroke-linejoin: round; }
template{visibility: hidden; }
text.numbering-label{fill: rgb(204, 204, 204); }
]]>
</style></g>
<g><title>0 (position.label in template: 0.5')</title><text x="53.4258" y="226.122" class="green" >5'</text></g>
<g><title>1 (position.label in template: 1.U)</title><text x="60.9871" y="226.122" class="green" >T</text></g>
<g><title>2 (position.label in template: 2.G)</title><text x="68.5484" y="226.122" class="black" >G</text></g>
<g><title>3 (position.label in template: 3.G)</title><text x="73.9" y="220.78" class="black" >G</text></g>
<g><line x1="75.9413" y1="220.474" x2="84.3087" y2="220.474" class="black" /></g>
<g><title>4 (position.label in template: 4.C)</title><text x="74.11" y="213.22" class="black" >C</text></g>
<g><line x1="76.1513" y1="212.914" x2="84.0987" y2="212.914" class="black" /></g>
<g><title>5 (position.label in template: 5.A)</title><text x="74.32" y="205.66" class="green" >A</text></g>
<g><line x1="76.3613" y1="205.354" x2="84.3087" y2="205.354" class="black" /></g>
<g><title>6 (position.label in template: 6.C)</title><text x="74.11" y="198.1" class="black" >C</text></g>
<g><line x1="76.1513" y1="197.794" x2="84.0987" y2="197.794" class="black" /></g>
<g><title>7 (position.label in template: 7.G)</title><text x="73.9" y="190.54" class="black" >G</text></g>
<g><line x1="75.9413" y1="190.234" x2="84.3087" y2="190.234" class="black" /></g>
<g><title>8 (position.label in template: 8.U)</title><text x="66.95" y="188.11" class="green" >T</text></g>
<g><title>9 (position.label in template: 9.U)</title><text x="60.61" y="183.99" class="green" >T</text></g>
<g><title>10 (position.label in template: 10.U)</title><text x="55.47" y="178.45" class="green" >T</text></g>
<g><text x="49.8709" y="182.464" class="numbering-label sequential" >10</text></g>
<g><line x1="53.9769" y1="179.521" x2="51.7081" y2="181.147" class="numbering-line sequential" /></g>
<g><title>11 (position.label in template: 11.C)</title><text x="51.87" y="171.8" class="black" >C</text></g>
<g><title>12 (position.label in template: 12.A)</title><text x="50.21" y="164.48" class="black" >A</text></g>
<g><title>13 (position.label in template: 13.U)</title><text x="50" y="156.92" class="green" >T</text></g>
<g><title>14 (position.label in template: 14.U)</title><text x="51.87" y="149.59" class="green" >T</text></g>
<g><title>15 (position.label in template: 15.G)</title><text x="55.26" y="142.94" class="black" >G</text></g>
<g><title>16 (position.label in template: 16.U)</title><text x="60.61" y="137.4" class="green" >T</text></g>
<g><title>17 (position.label in template: 17.C)</title><text x="66.95" y="133.28" class="black" >C</text></g>
<g><title>18 (position.label in template: 18.C)</title><text x="74.11" y="130.85" class="black" >C</text></g>
<g><line x1="76.1513" y1="130.544" x2="84.0987" y2="130.544" class="black" /></g>
<g><title>19 (position.label in template: 19.C)</title><text x="74.11" y="123.29" class="green" >C</text></g>
<g><line x1="76.1513" y1="122.984" x2="84.3087" y2="122.984" class="black" /></g>
<g><title>20 (position.label in template: 20.A)</title><text x="74.32" y="115.73" class="black" >A</text></g>
<g><line x1="76.3613" y1="115.424" x2="84.5187" y2="115.424" class="black" /></g>
<g><text x="67.4305" y="115.73" class="numbering-label sequential" >20</text></g>
<g><line x1="72.4828" y1="115.73" x2="69.2677" y2="115.73" class="numbering-line sequential" /></g>
<g><title>21 (position.label in template: 21.U)</title><text x="74.11" y="108.17" class="green" >T</text></g>
<g><line x1="76.1513" y1="107.864" x2="84.5187" y2="107.864" class="black" /></g>
<g><title>22 (position.label in template: 22.U)</title><text x="74.11" y="100.61" class="green" >T</text></g>
<g><line x1="76.1513" y1="100.304" x2="84.5187" y2="100.304" class="black" /></g>
<g><title>23 (position.label in template: 23.C)</title><text x="67.59" y="96.79" class="black" >C</text></g>
<g><title>24 (position.label in template: 24.U)</title><text x="63.08" y="90.73" class="green" >T</text></g>
<g><title>25 (position.label in template: 25.U)</title><text x="61.3" y="83.38" class="green" >T</text></g>
<g><title>26 (position.label in template: 26.U)</title><text x="62.54" y="75.92" class="green" >T</text></g>
<g><title>27 (position.label in template: 27.U)</title><text x="66.59" y="69.54" class="green" >T</text></g>
<g><title>28 (position.label in template: 28.C)</title><text x="72.82" y="65.25" class="black" >C</text></g>
<g><title>29 (position.label in template: 29.C)</title><text x="80.23" y="63.75" class="black" >C</text></g>
<g><title>30 (position.label in template: 30.U)</title><text x="87.64" y="65.25" class="green" >T</text></g>
<g><text x="90.3676" y="58.9234" class="numbering-label sequential" >30</text></g>
<g><line x1="88.3674" y1="63.5629" x2="89.7075" y2="60.4544" class="numbering-line sequential" /></g>
<g><title>31 (position.label in template: 31.G)</title><text x="93.66" y="69.54" class="black" >G</text></g>
<g><title>32 (position.label in template: 32.U)</title><text x="97.92" y="75.92" class="green" >T</text></g>
<g><title>33 (position.label in template: 33.A)</title><text x="99.37" y="83.38" class="black" >A</text></g>
<g><title>34 (position.label in template: 34.A)</title><text x="97.59" y="90.73" class="black" >A</text></g>
<g><title>35 (position.label in template: 35.G)</title><text x="92.66" y="96.79" class="black" >G</text></g>
<g><title>36 (position.label in template: 36.A)</title><text x="86.56" y="100.61" class="green" >A</text></g>
<g><title>37 (position.label in template: 37.A)</title><text x="86.56" y="108.17" class="green" >A</text></g>
<g><title>38 (position.label in template: 38.A)</title><text x="86.56" y="115.73" class="black" >A</text></g>
<g><title>39 (position.label in template: 39.U)</title><text x="86.35" y="123.29" class="green" >T</text></g>
<g><title>40 (position.label in template: 40.G)</title><text x="86.14" y="130.85" class="black" >G</text></g>
<g><title>41 (position.label in template: 41.A)</title><text x="94.11" y="131.24" class="black" >A</text></g>
<g><title>42 (position.label in template: 42.G)</title><text x="100.9" y="133.5" class="black" >G</text></g>
<g><title>43 (position.label in template: 43.A)</title><text x="107.73" y="137.51" class="black" >A</text></g>
<g><title>44 (position.label in template: 44.U)</title><text x="112.74" y="142.99" class="green" >T</text></g>
<g><title>45 (position.label in template: 45.A)</title><text x="116.61" y="149.6" class="black" >A</text></g>
<g><title>46 (position.label in template: 46.U)</title><text x="118.3" y="156.92" class="green" >T</text></g>
<g><title>47 (position.label in template: 47.U)</title><text x="118.3" y="164.48" class="green" >T</text></g>
<g><title>48 (position.label in template: 48.U)</title><text x="116.4" y="171.79" class="green" >T</text></g>
<g><title>49 (position.label in template: 49.C)</title><text x="112.74" y="178.4" class="black" >C</text></g>
<g><title>50 (position.label in template: 50.U)</title><text x="107.53" y="183.89" class="green" >T</text></g>
<g><text x="111.839" y="189.266" class="numbering-label sequential" >50</text></g>
<g><line x1="108.679" y1="185.324" x2="110.612" y2="187.735" class="numbering-line sequential" /></g>
<g><title>51 (position.label in template: 51.G)</title><text x="100.9" y="187.89" class="black" >G</text></g>
<g><title>52 (position.label in template: 52.A)</title><text x="94.11" y="190.15" class="black" >A</text></g>
<g><title>53 (position.label in template: 53.C)</title><text x="86.35" y="190.54" class="black" >C</text></g>
<g><title>54 (position.label in template: 54.G)</title><text x="86.14" y="198.1" class="black" >G</text></g>
<g><title>55 (position.label in template: 55.U)</title><text x="86.35" y="205.66" class="green" >T</text></g>
<g><title>56 (position.label in template: 56.G)</title><text x="86.14" y="213.22" class="black" >G</text></g>
<g><title>57 (position.label in template: 57.C)</title><text x="86.35" y="220.78" class="black" >C</text></g>
<g><title>58 (position.label in template: 58.U)</title><text x="91.7" y="226.12" class="green" >T</text></g>
<g><title>59 (position.label in template: 59.A)</title><text x="99.46" y="226.12" class="black" >A</text></g>
<g><title>60 (position.label in template: 60.G)</title><text x="106.61" y="226.12" class="black" >G</text></g>
<g><title>61 (position.label in template: 61.A)</title><text x="114.58" y="226.12" class="black" >A</text></g>
<g><title>62 (position.label in template: 62.U)</title><text x="121.94" y="226.12" class="green" >T</text></g>
<g><title>63 (position.label in template: 63.G)</title><text x="129.29" y="226.12" class="black" >G</text></g>
<g><title>64 (position.label in template: 64.A)</title><text x="137.26" y="226.12" class="black" >A</text></g>
<g><title>65 (position.label in template: 65.A)</title><text x="144.82" y="226.12" class="black" >A</text></g>
<g><title>66 (position.label in template: 66.C)</title><text x="152.18" y="226.12" class="black" >C</text></g>
<g><title>67 (position.label in template: 67.G)</title><text x="159.53" y="226.12" class="black" >G</text></g>
<g><title>68 (position.label in template: 68.U)</title><text x="167.3" y="226.12" class="green" >T</text></g>
<g><title>69 (position.label in template: 69.U)</title><text x="172.64" y="220.78" class="green" >T</text></g>
<g><line x1="174.681" y1="220.474" x2="182.629" y2="220.474" class="black" /></g>
<g><title>70 (position.label in template: 70.G)</title><text x="172.43" y="213.22" class="black" >G</text></g>
<g><line x1="174.471" y1="212.914" x2="182.839" y2="212.914" class="black" /></g>
<g><title>71 (position.label in template: 71.G)</title><text x="172.43" y="205.66" class="green" >G</text></g>
<g><line x1="174.471" y1="205.354" x2="182.839" y2="205.354" class="black" /></g>
<g><title>72 (position.label in template: 72.A)</title><text x="172.85" y="198.1" class="green" >A</text></g>
<g><line x1="174.891" y1="197.794" x2="182.839" y2="197.794" class="black" /></g>
<g><title>73 (position.label in template: 73.G)</title><text x="172.43" y="190.54" class="black" >G</text></g>
<g><line x1="174.471" y1="190.234" x2="182.839" y2="190.234" class="black" /></g>
<g><title>74 (position.label in template: 74.G)</title><text x="172.43" y="182.98" class="black" >G</text></g>
<g><line x1="174.471" y1="182.674" x2="182.839" y2="182.674" class="black" /></g>
<g><title>75 (position.label in template: 75.U)</title><text x="165.3" y="181.18" class="green" >T</text></g>
<g><title>76 (position.label in template: 76.A)</title><text x="159.35" y="176.79" class="black" >A</text></g>
<g><title>77 (position.label in template: 77.A)</title><text x="155.27" y="170.42" class="black" >A</text></g>
<g><title>78 (position.label in template: 78.A)</title><text x="153.84" y="163" class="black" >A</text></g>
<g><title>79 (position.label in template: 79.U)</title><text x="155.06" y="155.58" class="green" >T</text></g>
<g><title>80 (position.label in template: 80.U)</title><text x="159.15" y="149.21" class="green" >T</text></g>
<g><title>81 (position.label in template: 81.A)</title><text x="165.5" y="144.82" class="black" >A</text></g>
<g><title>82 (position.label in template: 82.G)</title><text x="172.43" y="143.02" class="black" >G</text></g>
<g><line x1="174.471" y1="142.714" x2="182.839" y2="142.714" class="black" /></g>
<g><title>83 (position.label in template: 83.C)</title><text x="172.64" y="135.46" class="black" >C</text></g>
<g><line x1="174.681" y1="135.154" x2="182.629" y2="135.154" class="black" /></g>
<g><title>84 (position.label in template: 84.A)</title><text x="172.85" y="127.9" class="green" >A</text></g>
<g><line x1="174.891" y1="127.594" x2="182.839" y2="127.594" class="black" /></g>
<g><title>85 (position.label in template: 85.G)</title><text x="172.43" y="120.34" class="black" >G</text></g>
<g><line x1="174.471" y1="120.034" x2="182.839" y2="120.034" class="black" /></g>
<g><title>86 (position.label in template: 86.G)</title><text x="172.43" y="112.78" class="green" >G</text></g>
<g><line x1="174.471" y1="112.474" x2="182.839" y2="112.474" class="black" /></g>
<g><title>87 (position.label in template: 87.A)</title><text x="172.85" y="105.22" class="green" >A</text></g>
<g><line x1="174.891" y1="104.914" x2="182.839" y2="104.914" class="black" /></g>
<g><title>88 (position.label in template: 88.U)</title><text x="172.64" y="97.66" class="green" >T</text></g>
<g><line x1="174.681" y1="97.3538" x2="182.629" y2="97.3538" class="black" /></g>
<g><title>89 (position.label in template: 89.G)</title><text x="169.33" y="90.77" class="black" >G</text></g>
<g><title>90 (position.label in template: 90.G)</title><text x="172.43" y="83.87" class="black" >G</text></g>
<g><line x1="174.471" y1="83.5638" x2="182.839" y2="83.5638" class="black" /></g>
<g><title>91 (position.label in template: 91.C)</title><text x="172.64" y="76.31" class="black" >C</text></g>
<g><line x1="174.681" y1="76.0038" x2="182.629" y2="76.0038" class="black" /></g>
<g><title>92 (position.label in template: 92.U)</title><text x="172.64" y="68.75" class="green" >T</text></g>
<g><line x1="174.681" y1="68.4438" x2="182.839" y2="68.4438" class="black" /></g>
<g><title>93 (position.label in template: 93.G)</title><text x="168.17" y="62.51" class="black" >G</text></g>
<g><title>94 (position.label in template: 94.C)</title><text x="169.31" y="55.01" class="black" >C</text></g>
<g><title>95 (position.label in template: 95.A)</title><text x="175.19" y="50" class="black" >A</text></g>
<g><title>96 (position.label in template: 96.A)</title><text x="182.75" y="50" class="black" >A</text></g>
<g><title>97 (position.label in template: 97.C)</title><text x="188.21" y="55.01" class="black" >C</text></g>
<g><title>98 (position.label in template: 98.G)</title><text x="188.94" y="62.51" class="black" >G</text></g>
<g><title>99 (position.label in template: 99.U)</title><text x="184.88" y="68.75" class="green" >T</text></g>
<g><title>100 (position.label in template: 100.G)</title><text x="184.67" y="76.31" class="black" >G</text></g>
<g><text x="191.56" y="76.31" class="numbering-label sequential" >100</text></g>
<g><line x1="186.507" y1="76.31" x2="188.804" y2="76.31" class="numbering-line sequential" /></g>
<g><title>101 (position.label in template: 101.C)</title><text x="184.88" y="83.87" class="black" >C</text></g>
<g><title>102 (position.label in template: 102.C)</title><text x="187.98" y="90.77" class="black" >C</text></g>
<g><title>103 (position.label in template: 103.G)</title><text x="184.67" y="97.66" class="green" >G</text></g>
<g><title>104 (position.label in template: 104.U)</title><text x="191.43" y="101.44" class="green" >T</text></g>
<g><title>105 (position.label in template: 105.U)</title><text x="184.88" y="105.22" class="green" >T</text></g>
<g><title>106 (position.label in template: 106.U)</title><text x="184.88" y="112.78" class="green" >T</text></g>
<g><title>107 (position.label in template: 107.C)</title><text x="184.88" y="120.34" class="black" >C</text></g>
<g><title>108 (position.label in template: 108.U)</title><text x="184.88" y="127.9" class="green" >T</text></g>
<g><title>109 (position.label in template: 109.G)</title><text x="184.67" y="135.46" class="black" >G</text></g>
<g><title>110 (position.label in template: 110.C)</title><text x="184.88" y="143.02" class="black" >C</text></g>
<g><title>111 (position.label in template: 111.C)</title><text x="191.59" y="146.51" class="black" >C</text></g>
<g><title>112 (position.label in template: 112.A)</title><text x="196.83" y="152.16" class="black" >A</text></g>
<g><title>113 (position.label in template: 113.G)</title><text x="199.1" y="159.22" class="black" >G</text></g>
<g><title>114 (position.label in template: 114.U)</title><text x="199.31" y="166.78" class="green" >T</text></g>
<g><title>115 (position.label in template: 115.C)</title><text x="196.62" y="173.84" class="black" >C</text></g>
<g><title>116 (position.label in template: 116.C)</title><text x="191.59" y="179.49" class="black" >C</text></g>
<g><title>117 (position.label in template: 117.C)</title><text x="184.88" y="182.98" class="black" >C</text></g>
<g><title>118 (position.label in template: 118.C)</title><text x="184.88" y="190.54" class="black" >C</text></g>
<g><title>119 (position.label in template: 119.U)</title><text x="184.88" y="198.1" class="green" >T</text></g>
<g><title>120 (position.label in template: 120.U)</title><text x="184.88" y="205.66" class="green" >T</text></g>
<g><title>121 (position.label in template: 121.C)</title><text x="184.88" y="213.22" class="black" >C</text></g>
<g><title>122 (position.label in template: 122.G)</title><text x="184.67" y="220.78" class="green" >G</text></g>
<g><title>123 (position.label in template: 123.C)</title><text x="190.123" y="226.018" class="black" >C</text></g>
<g><title>124 (position.label in template: 124.A)</title><text x="197.685" y="226.018" class="black" >A</text></g>
<g><title>125 (position.label in template: 125.C)</title><text x="205.246" y="226.018" class="black" >C</text></g>
<g><title>126 (position.label in template: 126.A)</title><text x="212.807" y="226.018" class="black" >A</text></g>
<g><title>127 (position.label in template: 127.C)</title><text x="220.369" y="226.018" class="black" >C</text></g>
<g><title>128 (position.label in template: 128.U)</title><text x="227.93" y="226.018" class="green" >T</text></g>
<g><title>129 (position.label in template: 129.C)</title><text x="235.491" y="226.018" class="black" >C</text></g>
<g><title>130 (position.label in template: 130.3')</title><text x="243.052" y="226.018" class="green" >3'</text></g>
<g><line x1="55.4672" y1="225.815" x2="58.9457" y2="225.815" class="gray" /></g>
<g><line x1="63.0284" y1="225.815" x2="66.507" y2="225.815" class="gray" /></g>
<g><line x1="69.9932" y1="224.373" x2="72.4552" y2="221.916" class="gray" /></g>
<g><line x1="73.9567" y1="218.433" x2="74.0533" y2="214.954" class="gray" /></g>
<g><line x1="74.1667" y1="210.873" x2="74.2633" y2="207.394" class="gray" /></g>
<g><line x1="74.2633" y1="203.313" x2="74.1667" y2="199.834" class="gray" /></g>
<g><line x1="74.0533" y1="195.753" x2="73.9567" y2="192.274" class="gray" /></g>
<g><line x1="71.973" y1="189.56" x2="68.877" y2="188.478" class="gray" /></g>
<g><line x1="65.2383" y1="186.691" x2="62.3217" y2="184.796" class="gray" /></g>
<g><line x1="59.2216" y1="182.187" x2="56.8584" y2="179.64" class="gray" /></g>
<g><line x1="54.4982" y1="176.349" x2="52.8418" y2="173.289" class="gray" /></g>
<g><line x1="51.4185" y1="169.503" x2="50.6615" y2="166.165" class="gray" /></g>
<g><line x1="50.1533" y1="162.133" x2="50.0567" y2="158.654" class="gray" /></g>
<g><line x1="50.5046" y1="154.636" x2="51.3654" y2="151.262" class="gray" /></g>
<g><line x1="52.7971" y1="147.465" x2="54.3329" y2="144.452" class="gray" /></g>
<g><line x1="56.678" y1="141.165" x2="59.192" y2="138.562" class="gray" /></g>
<g><line x1="62.3217" y1="135.981" x2="65.2383" y2="134.086" class="gray" /></g>
<g><line x1="68.8831" y1="132.318" x2="72.1769" y2="131.2" class="gray" /></g>
<g><line x1="74.11" y1="128.502" x2="74.11" y2="125.025" class="gray" /></g>
<g><line x1="74.1667" y1="120.943" x2="74.2633" y2="117.464" class="gray" /></g>
<g><line x1="74.2633" y1="113.383" x2="74.1667" y2="109.904" class="gray" /></g>
<g><line x1="74.11" y1="105.822" x2="74.11" y2="102.345" class="gray" /></g>
<g><line x1="72.3487" y1="99.2719" x2="69.3513" y2="97.5157" class="gray" /></g>
<g><line x1="66.3713" y1="94.8462" x2="64.2987" y2="92.0614" class="gray" /></g>
<g><line x1="62.5995" y1="88.4398" x2="61.7805" y2="85.0578" class="gray" /></g>
<g><line x1="61.6347" y1="81.0601" x2="62.2053" y2="77.6275" class="gray" /></g>
<g><line x1="63.634" y1="73.8904" x2="65.496" y2="70.9572" class="gray" /></g>
<g><line x1="68.2713" y1="68.0761" x2="71.1387" y2="66.1015" class="gray" /></g>
<g><line x1="74.8208" y1="64.5388" x2="78.2292" y2="63.8488" class="gray" /></g>
<g><line x1="82.2308" y1="63.8488" x2="85.6392" y2="64.5388" class="gray" /></g>
<g><line x1="89.3024" y1="66.1285" x2="91.9976" y2="68.0491" class="gray" /></g>
<g><line x1="94.7936" y1="70.9315" x2="96.7864" y2="73.9161" class="gray" /></g>
<g><line x1="98.3095" y1="77.6176" x2="98.9805" y2="81.07" class="gray" /></g>
<g><line x1="98.8895" y1="85.0578" x2="98.0705" y2="88.4398" class="gray" /></g>
<g><line x1="96.3018" y1="92.0073" x2="93.9482" y2="94.9003" class="gray" /></g>
<g><line x1="90.9299" y1="97.5672" x2="88.2901" y2="99.2204" class="gray" /></g>
<g><line x1="86.56" y1="102.345" x2="86.56" y2="105.822" class="gray" /></g>
<g><line x1="86.56" y1="109.905" x2="86.56" y2="113.382" class="gray" /></g>
<g><line x1="86.5033" y1="117.464" x2="86.4067" y2="120.943" class="gray" /></g>
<g><line x1="86.2933" y1="125.024" x2="86.1967" y2="128.503" class="gray" /></g>
<g><line x1="88.1789" y1="130.644" x2="92.0711" y2="130.834" class="gray" /></g>
<g><line x1="96.0469" y1="131.578" x2="98.9631" y2="132.549" class="gray" /></g>
<g><line x1="102.66" y1="134.227" x2="105.97" y2="136.17" class="gray" /></g>
<g><line x1="109.107" y1="138.71" x2="111.363" y2="141.177" class="gray" /></g>
<g><line x1="113.771" y1="144.445" x2="115.579" y2="147.532" class="gray" /></g>
<g><line x1="117.069" y1="151.283" x2="117.841" y2="154.625" class="gray" /></g>
<g><line x1="118.3" y1="158.655" x2="118.3" y2="162.132" class="gray" /></g>
<g><line x1="117.786" y1="166.149" x2="116.914" y2="169.508" class="gray" /></g>
<g><line x1="115.411" y1="173.27" x2="113.729" y2="176.308" class="gray" /></g>
<g><line x1="111.335" y1="179.575" x2="108.935" y2="182.103" class="gray" /></g>
<g><line x1="105.782" y1="184.638" x2="102.648" y2="186.529" class="gray" /></g>
<g><line x1="98.9631" y1="188.228" x2="96.0469" y2="189.199" class="gray" /></g>
<g><line x1="92.0712" y1="189.946" x2="88.3888" y2="190.131" class="gray" /></g>
<g><line x1="86.2933" y1="192.274" x2="86.1967" y2="195.753" class="gray" /></g>
<g><line x1="86.1967" y1="199.834" x2="86.2933" y2="203.313" class="gray" /></g>
<g><line x1="86.2933" y1="207.394" x2="86.1967" y2="210.873" class="gray" /></g>
<g><line x1="86.1967" y1="214.954" x2="86.2933" y2="218.433" class="gray" /></g>
<g><line x1="87.7948" y1="221.916" x2="90.2552" y2="224.372" class="gray" /></g>
<g><line x1="93.7413" y1="225.814" x2="97.4187" y2="225.814" class="gray" /></g>
<g><line x1="101.501" y1="225.814" x2="104.569" y2="225.814" class="gray" /></g>
<g><line x1="108.651" y1="225.814" x2="112.539" y2="225.814" class="gray" /></g>
<g><line x1="116.621" y1="225.814" x2="119.899" y2="225.814" class="gray" /></g>
<g><line x1="123.981" y1="225.814" x2="127.249" y2="225.814" class="gray" /></g>
<g><line x1="131.331" y1="225.814" x2="135.219" y2="225.814" class="gray" /></g>
<g><line x1="139.301" y1="225.814" x2="142.779" y2="225.814" class="gray" /></g>
<g><line x1="146.861" y1="225.814" x2="150.139" y2="225.814" class="gray" /></g>
<g><line x1="154.221" y1="225.814" x2="157.489" y2="225.814" class="gray" /></g>
<g><line x1="161.571" y1="225.814" x2="165.259" y2="225.814" class="gray" /></g>
<g><line x1="168.743" y1="224.37" x2="171.197" y2="221.917" class="gray" /></g>
<g><line x1="172.583" y1="218.433" x2="172.487" y2="214.954" class="gray" /></g>
<g><line x1="172.43" y1="210.872" x2="172.43" y2="207.395" class="gray" /></g>
<g><line x1="172.543" y1="203.316" x2="172.737" y2="199.832" class="gray" /></g>
<g><line x1="172.737" y1="195.756" x2="172.543" y2="192.272" class="gray" /></g>
<g><line x1="172.43" y1="188.192" x2="172.43" y2="184.715" class="gray" /></g>
<g><line x1="170.451" y1="182.174" x2="167.279" y2="181.373" class="gray" /></g>
<g><line x1="163.657" y1="179.662" x2="160.993" y2="177.696" class="gray" /></g>
<g><line x1="158.249" y1="174.765" x2="156.371" y2="171.833" class="gray" /></g>
<g><line x1="154.884" y1="168.109" x2="154.226" y2="164.698" class="gray" /></g>
<g><line x1="154.171" y1="160.679" x2="154.729" y2="157.288" class="gray" /></g>
<g><line x1="156.163" y1="153.556" x2="158.047" y2="150.622" class="gray" /></g>
<g><line x1="160.829" y1="147.743" x2="163.821" y2="145.675" class="gray" /></g>
<g><line x1="167.476" y1="144.001" x2="170.454" y2="143.227" class="gray" /></g>
<g><line x1="172.487" y1="140.673" x2="172.583" y2="137.194" class="gray" /></g>
<g><line x1="172.697" y1="133.113" x2="172.793" y2="129.634" class="gray" /></g>
<g><line x1="172.737" y1="125.556" x2="172.543" y2="122.072" class="gray" /></g>
<g><line x1="172.43" y1="117.992" x2="172.43" y2="114.515" class="gray" /></g>
<g><line x1="172.543" y1="110.436" x2="172.737" y2="106.952" class="gray" /></g>
<g><line x1="172.793" y1="102.873" x2="172.697" y2="99.3944" class="gray" /></g>
<g><line x1="171.756" y1="95.5138" x2="170.214" y2="92.3038" class="gray" /></g>
<g><line x1="170.167" y1="88.6017" x2="171.593" y2="85.4259" class="gray" /></g>
<g><line x1="172.487" y1="81.5232" x2="172.583" y2="78.0444" class="gray" /></g>
<g><line x1="172.64" y1="73.9625" x2="172.64" y2="70.4851" class="gray" /></g>
<g><line x1="171.451" y1="66.7843" x2="169.359" y2="63.8633" class="gray" /></g>
<g><line x1="168.477" y1="60.1856" x2="169.003" y2="56.722" class="gray" /></g>
<g><line x1="170.864" y1="53.3799" x2="173.636" y2="51.0177" class="gray" /></g>
<g><line x1="177.231" y1="49.6938" x2="180.709" y2="49.6938" class="gray" /></g>
<g><line x1="184.254" y1="51.0739" x2="186.706" y2="53.3237" class="gray" /></g>
<g><line x1="188.408" y1="56.7355" x2="188.742" y2="60.1721" class="gray" /></g>
<g><line x1="187.827" y1="63.9149" x2="185.993" y2="66.7327" class="gray" /></g>
<g><line x1="184.823" y1="70.4844" x2="184.727" y2="73.9632" class="gray" /></g>
<g><line x1="184.727" y1="78.0444" x2="184.823" y2="81.5232" class="gray" /></g>
<g><line x1="185.717" y1="85.4259" x2="187.143" y2="88.6017" class="gray" /></g>
<g><line x1="187.096" y1="92.3038" x2="185.554" y2="95.5138" class="gray" /></g>
<g><line x1="186.452" y1="98.3501" x2="189.648" y2="100.138" class="gray" /></g>
<g><line x1="189.662" y1="102.154" x2="186.648" y2="103.893" class="gray" /></g>
<g><line x1="184.88" y1="106.955" x2="184.88" y2="110.432" class="gray" /></g>
<g><line x1="184.88" y1="114.515" x2="184.88" y2="117.992" class="gray" /></g>
<g><line x1="184.88" y1="122.075" x2="184.88" y2="125.552" class="gray" /></g>
<g><line x1="184.823" y1="129.634" x2="184.727" y2="133.113" class="gray" /></g>
<g><line x1="184.727" y1="137.194" x2="184.823" y2="140.673" class="gray" /></g>
<g><line x1="186.691" y1="143.656" x2="189.779" y2="145.262" class="gray" /></g>
<g><line x1="192.978" y1="147.701" x2="195.442" y2="150.357" class="gray" /></g>
<g><line x1="197.455" y1="153.797" x2="198.475" y2="156.97" class="gray" /></g>
<g><line x1="199.157" y1="160.954" x2="199.253" y2="164.433" class="gray" /></g>
<g><line x1="198.583" y1="168.381" x2="197.347" y2="171.626" class="gray" /></g>
<g><line x1="195.263" y1="175.058" x2="192.947" y2="177.659" class="gray" /></g>
<g><line x1="189.779" y1="180.126" x2="186.691" y2="181.732" class="gray" /></g>
<g><line x1="184.88" y1="184.715" x2="184.88" y2="188.192" class="gray" /></g>
<g><line x1="184.88" y1="192.275" x2="184.88" y2="195.752" class="gray" /></g>
<g><line x1="184.88" y1="199.835" x2="184.88" y2="203.312" class="gray" /></g>
<g><line x1="184.88" y1="207.395" x2="184.88" y2="210.872" class="gray" /></g>
<g><line x1="184.823" y1="214.954" x2="184.727" y2="218.433" class="gray" /></g>
<g><line x1="186.142" y1="221.888" x2="188.651" y2="224.297" class="gray" /></g>
<g><line x1="192.165" y1="225.711" x2="195.643" y2="225.711" class="gray" /></g>
<g><line x1="199.726" y1="225.711" x2="203.205" y2="225.711" class="gray" /></g>
<g><line x1="207.287" y1="225.711" x2="210.766" y2="225.711" class="gray" /></g>
<g><line x1="214.849" y1="225.711" x2="218.327" y2="225.711" class="gray" /></g>
<g><line x1="222.41" y1="225.711" x2="225.888" y2="225.711" class="gray" /></g>
<g><line x1="229.971" y1="225.711" x2="233.45" y2="225.711" class="gray" /></g>
<g><line x1="237.532" y1="225.711" x2="241.011" y2="225.711" class="gray" /></g>
</svg>
