<svg
	xmlns="http://www.w3.org/2000/svg"
	width="278.81"
	height="199.8">
<g><style type="text/css" >
<!-- create color definitions -->
<![CDATA[
circle.red {stroke: rgb(255, 0, 255); fill: none; }
circle.green {stroke: rgb(0, 255, 0); fill: none; }
circle.blue {stroke: rgb(0, 0, 255); fill: none; }
circle.black {stroke: rgb(0, 0, 0); fill: none; }
circle.gray {stroke: rgb(204, 204, 204); fill: none; }
circle.brown {stroke: rgb(211.65, 104.55, 30.6); fill: none; }
line.red {stroke: rgb(255, 0, 255); stroke-width: 0.381423; }
line.green {stroke: rgb(0, 255, 0); stroke-width: 0.381423; }
line.blue {stroke: rgb(0, 0, 255); stroke-width: 0.381423; }
line.black {stroke: rgb(0, 0, 0); stroke-width: 0.381423; }
line.gray {stroke: rgb(204, 204, 204); stroke-width: 0.381423; }
line.brown {stroke: rgb(211.65, 104.55, 30.6); stroke-width: 0.381423; }
line {stroke: rgb(0, 0, 0); }
text.red {fill: rgb(255, 0, 255); font-size: 3.051381px; font-weight: bold; font-family: Helvetica; }
text.green {fill: rgb(0, 255, 0); font-size: 3.051381px; font-weight: bold; font-family: Helvetica; }
text.blue {fill: rgb(0, 0, 255); font-size: 3.051381px; font-weight: bold; font-family: Helvetica; }
text.black {fill: rgb(0, 0, 0); font-size: 3.051381px; font-weight: bold; font-family: Helvetica; }
text.gray {fill: rgb(204, 204, 204); font-size: 3.051381px; font-weight: bold; font-family: Helvetica; }
text.brown {fill: rgb(211.65, 104.55, 30.6); font-size: 3.051381px; font-weight: bold; font-family: Helvetica; }
text {fill: rgb(0, 0, 0); font-size: 3.051381px; font-weight: bold; font-family: Helvetica; text-anchor: middle; alignment-baseline: middle; }

.pseudoknot_connection{stroke-linecap: round; stroke-opacity: 0.2; stroke-width: 1.5; }
.pseudoknot_segment1{stroke-linecap: round; stroke-opacity: 0.4; stroke-width: 3.05138; }
.pseudoknot_segment2{stroke-linecap: round; stroke-opacity: 0.4; stroke-width: 3.05138; }
line.numbering-line{stroke: rgb(204, 204, 204); stroke-width: 0.190711; }
line.predicted{stroke: rgb(0, 0, 0); stroke-dasharray: 2; }
polyline{fill: none; stroke-linejoin: round; }
template{visibility: hidden; }
text.numbering-label{fill: rgb(204, 204, 204); }
]]>
</style></g>
<g><title>0 (position.label in template: 0.5')</title><text x="77.0453" y="129.18" class="green" >5'</text></g>
<g><title>1 (position.label in template: 1.A)</title><text x="84.603" y="129.18" class="black" >A</text></g>
<g><title>2 (position.label in template: 2.U)</title><text x="92.1607" y="129.18" class="green" >T</text></g>
<g><title>3 (position.label in template: 3.U)</title><text x="99.7184" y="129.18" class="green" >T</text></g>
<g><title>4 (position.label in template: 4.U)</title><text x="107.276" y="129.18" class="green" >T</text></g>
<g><title>5 (position.label in template: 5.C)</title><text x="114.834" y="129.18" class="black" >C</text></g>
<g><title>6 (position.label in template: 6.A)</title><text x="120.28" y="123.94" class="black" >A</text></g>
<g><line x1="122.314" y1="123.635" x2="130.066" y2="123.635" class="black" /></g>
<g><title>7 (position.label in template: 7.U)</title><text x="120.07" y="116.38" class="green" >T</text></g>
<g><line x1="122.104" y1="116.075" x2="130.066" y2="116.075" class="black" /></g>
<g><title>8 (position.label in template: 8.C)</title><text x="120.07" y="108.82" class="black" >C</text></g>
<g><line x1="122.104" y1="108.515" x2="130.276" y2="108.515" class="black" /></g>
<g><title>9 (position.label in template: 9.C)</title><text x="120.07" y="101.26" class="black" >C</text></g>
<g><line x1="122.104" y1="100.955" x2="130.066" y2="100.955" class="black" /></g>
<g><title>10 (position.label in template: 10.U)</title><text x="120.07" y="93.7" class="green" >T</text></g>
<g><line x1="122.104" y1="93.3949" x2="130.486" y2="93.3949" class="black" /></g>
<g><text x="114.232" y="97.3123" class="numbering-label sequential" >10</text></g>
<g><line x1="118.513" y1="94.6633" x2="116.062" y2="96.1796" class="numbering-line sequential" /></g>
<g><title>11 (position.label in template: 11.G)</title><text x="113.19" y="90.14" class="green" >G</text></g>
<g><line x1="112.079" y1="88.1305" x2="107.681" y2="81.3792" class="black" /></g>
<g><title>12 (position.label in template: 12.G)</title><text x="106.91" y="94.36" class="black" >G</text></g>
<g><line x1="105.801" y1="92.3497" x2="101.409" y2="85.6" class="black" /></g>
<g><title>13 (position.label in template: 13.G)</title><text x="100.64" y="98.57" class="black" >G</text></g>
<g><line x1="99.5295" y1="96.5605" x2="95.1305" y2="89.8092" class="black" /></g>
<g><title>14 (position.label in template: 14.G)</title><text x="94.36" y="102.79" class="black" >G</text></g>
<g><line x1="93.2506" y1="100.78" x2="88.8594" y2="94.03" class="black" /></g>
<g><title>15 (position.label in template: 15.G)</title><text x="90.37" y="109.2" class="black" >G</text></g>
<g><title>16 (position.label in template: 16.U)</title><text x="83.12" y="110.48" class="green" >T</text></g>
<g><line x1="81.9862" y1="108.486" x2="77.4338" y2="101.704" class="black" /></g>
<g><title>17 (position.label in template: 17.G)</title><text x="82.88" y="118.04" class="black" >G</text></g>
<g><line x1="81.7535" y1="119.429" x2="77.2965" y2="126.131" class="black" /></g>
<g><title>18 (position.label in template: 18.C)</title><text x="89.33" y="122.31" class="black" >C</text></g>
<g><line x1="88.1568" y1="123.667" x2="83.3732" y2="130.443" class="black" /></g>
<g><title>19 (position.label in template: 19.U)</title><text x="95.56" y="126.58" class="green" >T</text></g>
<g><line x1="94.4343" y1="127.969" x2="89.9757" y2="134.68" class="black" /></g>
<g><title>20 (position.label in template: 20.G)</title><text x="101.59" y="130.85" class="black" >G</text></g>
<g><line x1="100.464" y1="132.239" x2="96.0057" y2="138.95" class="black" /></g>
<g><text x="105.47" y="125.186" class="numbering-label sequential" >20</text></g>
<g><line x1="102.625" y1="129.34" x2="104.425" y2="126.712" class="numbering-line sequential" /></g>
<g><title>21 (position.label in template: 21.U)</title><text x="108.04" y="135.13" class="green" >T</text></g>
<g><line x1="106.866" y1="136.486" x2="102.084" y2="143.254" class="black" /></g>
<g><title>22 (position.label in template: 22.C)</title><text x="114.47" y="139.09" class="black" >C</text></g>
<g><title>23 (position.label in template: 23.C)</title><text x="114.01" y="146.64" class="black" >C</text></g>
<g><title>24 (position.label in template: 24.G)</title><text x="106.93" y="149.8" class="black" >G</text></g>
<g><title>25 (position.label in template: 25.G)</title><text x="100.91" y="145.22" class="green" >G</text></g>
<g><title>26 (position.label in template: 26.C)</title><text x="94.88" y="140.95" class="black" >C</text></g>
<g><title>27 (position.label in template: 27.A)</title><text x="88.85" y="136.68" class="green" >A</text></g>
<g><title>28 (position.label in template: 28.G)</title><text x="82.2" y="132.41" class="black" >G</text></g>
<g><title>29 (position.label in template: 29.C)</title><text x="76.17" y="128.13" class="black" >C</text></g>
<g><title>30 (position.label in template: 30.U)</title><text x="69.13" y="130.9" class="green" >T</text></g>
<g><text x="70.1318" y="137.692" class="numbering-label sequential" >30</text></g>
<g><line x1="69.3972" y1="132.711" x2="69.9068" y2="136.166" class="numbering-line sequential" /></g>
<g><title>31 (position.label in template: 31.G)</title><text x="61.39" y="130.31" class="black" >G</text></g>
<g><title>32 (position.label in template: 32.A)</title><text x="55.27" y="126.5" class="black" >A</text></g>
<g><title>33 (position.label in template: 33.G)</title><text x="50.64" y="120.23" class="black" >G</text></g>
<g><title>34 (position.label in template: 34.A)</title><text x="50" y="112.74" class="black" >A</text></g>
<g><title>35 (position.label in template: 35.G)</title><text x="51.9" y="105.54" class="black" >G</text></g>
<g><title>36 (position.label in template: 36.A)</title><text x="57.53" y="100.07" class="green" >A</text></g>
<g><line x1="59.517" y1="99.3289" x2="67.303" y2="97.6208" class="black" /></g>
<g><title>37 (position.label in template: 37.G)</title><text x="55.52" y="92.68" class="black" >G</text></g>
<g><line x1="57.51" y1="91.953" x2="65.7" y2="90.2167" class="black" /></g>
<g><title>38 (position.label in template: 38.G)</title><text x="53.92" y="85.3" class="green" >G</text></g>
<g><line x1="55.9097" y1="84.5714" x2="64.1003" y2="82.8283" class="black" /></g>
<g><title>39 (position.label in template: 39.C)</title><text x="52.53" y="77.91" class="black" >C</text></g>
<g><line x1="54.5166" y1="77.1673" x2="62.3034" y2="75.4524" class="black" /></g>
<g><title>40 (position.label in template: 40.G)</title><text x="50.73" y="70.52" class="green" >G</text></g>
<g><line x1="52.7197" y1="69.7914" x2="60.9103" y2="68.0483" class="black" /></g>
<g><title>41 (position.label in template: 41.U)</title><text x="51.7" y="63" class="green" >T</text></g>
<g><title>42 (position.label in template: 42.G)</title><text x="58.88" y="61.4" class="black" >G</text></g>
<g><title>43 (position.label in template: 43.U)</title><text x="62.9" y="67.93" class="green" >T</text></g>
<g><title>44 (position.label in template: 44.G)</title><text x="64.29" y="75.32" class="black" >G</text></g>
<g><title>45 (position.label in template: 45.U)</title><text x="66.09" y="82.71" class="green" >T</text></g>
<g><title>46 (position.label in template: 46.C)</title><text x="67.69" y="90.1" class="black" >C</text></g>
<g><title>47 (position.label in template: 47.U)</title><text x="69.29" y="97.49" class="green" >T</text></g>
<g><title>48 (position.label in template: 48.C)</title><text x="76.3" y="100.32" class="green" >C</text></g>
<g><title>49 (position.label in template: 49.A)</title><text x="75.25" y="92.86" class="black" >A</text></g>
<g><title>50 (position.label in template: 50.A)</title><text x="81.53" y="88.64" class="black" >A</text></g>
<g><text x="81.4037" y="81.7756" class="numbering-label sequential" >50</text></g>
<g><line x1="81.4963" y1="86.8095" x2="81.4318" y2="83.3012" class="numbering-line sequential" /></g>
<g><title>51 (position.label in template: 51.C)</title><text x="87.75" y="92.63" class="black" >C</text></g>
<g><title>52 (position.label in template: 52.C)</title><text x="94.02" y="88.41" class="black" >C</text></g>
<g><title>53 (position.label in template: 53.C)</title><text x="100.3" y="84.2" class="black" >C</text></g>
<g><title>54 (position.label in template: 54.U)</title><text x="106.57" y="79.98" class="green" >T</text></g>
<g><title>55 (position.label in template: 55.U)</title><text x="105.81" y="72.46" class="green" >T</text></g>
<g><title>56 (position.label in template: 56.A)</title><text x="108.03" y="65.17" class="black" >A</text></g>
<g><title>57 (position.label in template: 57.A)</title><text x="112.55" y="59.12" class="black" >A</text></g>
<g><title>58 (position.label in template: 58.C)</title><text x="118.76" y="55.12" class="black" >C</text></g>
<g><title>59 (position.label in template: 59.G)</title><text x="125.98" y="53.72" class="black" >G</text></g>
<g><title>60 (position.label in template: 60.G)</title><text x="133.41" y="55.12" class="black" >G</text></g>
<g><title>61 (position.label in template: 61.A)</title><text x="140.24" y="59.12" class="black" >A</text></g>
<g><title>62 (position.label in template: 62.C)</title><text x="144.56" y="65.17" class="black" >C</text></g>
<g><line x1="144.833" y1="66.8807" x2="145.927" y2="74.949" class="black" /></g>
<g><title>63 (position.label in template: 63.C)</title><text x="152.03" y="64.03" class="black" >C</text></g>
<g><line x1="152.303" y1="65.7407" x2="153.397" y2="73.809" class="black" /></g>
<g><title>64 (position.label in template: 64.U)</title><text x="159.51" y="62.88" class="green" >T</text></g>
<g><line x1="159.85" y1="64.5805" x2="161.22" y2="72.6692" class="black" /></g>
<g><title>65 (position.label in template: 65.G)</title><text x="166.77" y="61.74" class="black" >G</text></g>
<g><line x1="167.077" y1="63.4457" x2="168.313" y2="71.524" class="black" /></g>
<g><title>66 (position.label in template: 66.A)</title><text x="172.32" y="56.19" class="black" >A</text></g>
<g><title>67 (position.label in template: 67.U)</title><text x="179.59" y="55.05" class="green" >T</text></g>
<g><title>68 (position.label in template: 68.C)</title><text x="186.15" y="58.81" class="black" >C</text></g>
<g><line x1="186.423" y1="60.5207" x2="187.517" y2="68.5791" class="black" /></g>
<g><title>69 (position.label in template: 69.U)</title><text x="193.62" y="57.66" class="green" >T</text></g>
<g><line x1="193.961" y1="59.3603" x2="195.339" y2="67.4495" class="black" /></g>
<g><title>70 (position.label in template: 70.G)</title><text x="200.88" y="56.52" class="black" >G</text></g>
<g><line x1="201.223" y1="58.22" x2="202.607" y2="66.3097" class="black" /></g>
<g><title>71 (position.label in template: 71.G)</title><text x="208.36" y="55.37" class="black" >G</text></g>
<g><line x1="208.701" y1="57.0703" x2="210.079" y2="65.1595" class="black" /></g>
<g><title>72 (position.label in template: 72.A)</title><text x="214.3" y="50.21" class="black" >A</text></g>
<g><title>73 (position.label in template: 73.U)</title><text x="221.65" y="50" class="green" >T</text></g>
<g><title>74 (position.label in template: 74.U)</title><text x="227.46" y="54.85" class="green" >T</text></g>
<g><title>75 (position.label in template: 75.A)</title><text x="228.81" y="62.32" class="black" >A</text></g>
<g><title>76 (position.label in template: 76.U)</title><text x="224.51" y="68.68" class="green" >T</text></g>
<g><title>77 (position.label in template: 77.G)</title><text x="217.03" y="70.74" class="black" >G</text></g>
<g><title>78 (position.label in template: 78.C)</title><text x="210.42" y="67.47" class="black" >C</text></g>
<g><title>79 (position.label in template: 79.C)</title><text x="202.95" y="68.62" class="black" >C</text></g>
<g><title>80 (position.label in template: 80.A)</title><text x="195.68" y="69.76" class="green" >A</text></g>
<g><title>81 (position.label in template: 81.G)</title><text x="187.79" y="70.9" class="black" >G</text></g>
<g><title>82 (position.label in template: 82.C)</title><text x="182.87" y="76.45" class="black" >C</text></g>
<g><title>83 (position.label in template: 83.G)</title><text x="175.18" y="77.6" class="black" >G</text></g>
<g><title>84 (position.label in template: 84.G)</title><text x="168.62" y="73.84" class="black" >G</text></g>
<g><title>85 (position.label in template: 85.A)</title><text x="161.56" y="74.98" class="green" >A</text></g>
<g><title>86 (position.label in template: 86.G)</title><text x="153.67" y="76.13" class="black" >G</text></g>
<g><title>87 (position.label in template: 87.G)</title><text x="146.2" y="77.27" class="black" >G</text></g>
<g><title>88 (position.label in template: 88.G)</title><text x="143.7" y="84.4" class="black" >G</text></g>
<g><title>89 (position.label in template: 89.A)</title><text x="139.19" y="90.14" class="black" >A</text></g>
<g><title>90 (position.label in template: 90.A)</title><text x="132.52" y="93.7" class="green" >A</text></g>
<g><title>91 (position.label in template: 91.G)</title><text x="132.1" y="101.26" class="black" >G</text></g>
<g><title>92 (position.label in template: 92.C)</title><text x="132.31" y="108.82" class="black" >C</text></g>
<g><title>93 (position.label in template: 93.G)</title><text x="132.1" y="116.38" class="green" >G</text></g>
<g><title>94 (position.label in template: 94.G)</title><text x="132.1" y="123.94" class="black" >G</text></g>
<g><title>95 (position.label in template: 95.U)</title><text x="137.551" y="129.175" class="green" >T</text></g>
<g><title>96 (position.label in template: 96.G)</title><text x="145.109" y="129.175" class="black" >G</text></g>
<g><title>97 (position.label in template: 97.A)</title><text x="152.666" y="129.175" class="black" >A</text></g>
<g><title>98 (position.label in template: 98.A)</title><text x="160.224" y="129.175" class="black" >A</text></g>
<g><title>99 (position.label in template: 99.A)</title><text x="167.782" y="129.175" class="black" >A</text></g>
<g><title>100 (position.label in template: 100.A)</title><text x="175.339" y="129.175" class="black" >A</text></g>
<g><text x="175.339" y="136.041" class="numbering-label sequential" >100</text></g>
<g><line x1="175.339" y1="131.006" x2="175.339" y2="134.515" class="numbering-line sequential" /></g>
<g><title>101 (position.label in template: 101.A)</title><text x="182.897" y="129.175" class="black" >A</text></g>
<g><title>102 (position.label in template: 102.A)</title><text x="190.455" y="129.175" class="black" >A</text></g>
<g><title>103 (position.label in template: 103.A)</title><text x="198.013" y="129.175" class="black" >A</text></g>
<g><title>104 (position.label in template: 104.G)</title><text x="205.57" y="129.175" class="black" >G</text></g>
<g><title>105 (position.label in template: 105.C)</title><text x="213.128" y="129.175" class="black" >C</text></g>
<g><title>106 (position.label in template: 106.G)</title><text x="220.686" y="129.175" class="black" >G</text></g>
<g><title>107 (position.label in template: 107.3')</title><text x="228.243" y="129.175" class="green" >3'</text></g>
<g><line x1="79.0795" y1="128.875" x2="82.5687" y2="128.875" class="gray" /></g>
<g><line x1="86.6372" y1="128.875" x2="90.1264" y2="128.875" class="gray" /></g>
<g><line x1="94.1949" y1="128.875" x2="97.6842" y2="128.875" class="gray" /></g>
<g><line x1="101.753" y1="128.875" x2="105.242" y2="128.875" class="gray" /></g>
<g><line x1="109.31" y1="128.875" x2="112.8" y2="128.875" class="gray" /></g>
<g><line x1="116.3" y1="127.465" x2="118.814" y2="125.045" class="gray" /></g>
<g><line x1="120.224" y1="121.601" x2="120.126" y2="118.108" class="gray" /></g>
<g><line x1="120.07" y1="114.041" x2="120.07" y2="110.549" class="gray" /></g>
<g><line x1="120.07" y1="106.481" x2="120.07" y2="102.989" class="gray" /></g>
<g><line x1="120.07" y1="98.9206" x2="120.07" y2="95.4291" class="gray" /></g>
<g><line x1="118.263" y1="92.46" x2="114.997" y2="90.7697" class="gray" /></g>
<g><line x1="111.502" y1="90.9695" x2="108.598" y2="92.9203" class="gray" /></g>
<g><line x1="105.221" y1="95.1889" x2="102.329" y2="97.1309" class="gray" /></g>
<g><line x1="98.9515" y1="99.3995" x2="96.0485" y2="101.35" class="gray" /></g>
<g><line x1="93.285" y1="104.212" x2="91.445" y2="107.168" class="gray" /></g>
<g><line x1="88.3667" y1="109.249" x2="85.1233" y2="109.821" class="gray" /></g>
<g><line x1="83.0555" y1="112.208" x2="82.9445" y2="115.702" class="gray" /></g>
<g><line x1="84.5762" y1="118.858" x2="87.6338" y2="120.882" class="gray" /></g>
<g><line x1="91.008" y1="123.155" x2="93.882" y2="125.125" class="gray" /></g>
<g><line x1="97.2202" y1="127.45" x2="99.9298" y2="129.369" class="gray" /></g>
<g><line x1="103.285" y1="131.67" x2="106.345" y2="133.7" class="gray" /></g>
<g><line x1="109.772" y1="135.892" x2="112.738" y2="137.718" class="gray" /></g>
<g><line x1="114.346" y1="140.815" x2="114.134" y2="144.304" class="gray" /></g>
<g><line x1="112.152" y1="147.164" x2="108.788" y2="148.666" class="gray" /></g>
<g><line x1="105.311" y1="148.263" x2="102.529" y2="146.147" class="gray" /></g>
<g><line x1="99.2498" y1="143.739" x2="96.5402" y2="141.82" class="gray" /></g>
<g><line x1="93.2198" y1="139.469" x2="90.5102" y2="137.55" class="gray" /></g>
<g><line x1="87.1382" y1="135.276" x2="83.9118" y2="133.204" class="gray" /></g>
<g><line x1="80.5411" y1="130.927" x2="77.8289" y2="129.002" class="gray" /></g>
<g><line x1="74.277" y1="128.57" x2="71.023" y2="129.85" class="gray" /></g>
<g><line x1="67.1016" y1="130.44" x2="63.4184" y2="130.159" class="gray" /></g>
<g><line x1="59.6631" y1="128.93" x2="56.9969" y2="127.27" class="gray" /></g>
<g><line x1="54.0616" y1="124.558" x2="51.8484" y2="121.561" class="gray" /></g>
<g><line x1="50.4668" y1="117.898" x2="50.1732" y2="114.462" class="gray" /></g>
<g><line x1="50.519" y1="110.468" x2="51.381" y2="107.202" class="gray" /></g>
<g><line x1="53.359" y1="103.817" x2="56.071" y2="101.182" class="gray" /></g>
<g><line x1="56.9961" y1="97.8019" x2="56.0539" y2="94.3378" class="gray" /></g>
<g><line x1="55.089" y1="90.3868" x2="54.351" y2="86.9829" class="gray" /></g>
<g><line x1="53.544" y1="82.9957" x2="52.906" y2="79.6041" class="gray" /></g>
<g><line x1="52.0486" y1="75.6284" x2="51.2114" y2="72.1913" class="gray" /></g>
<g><line x1="50.9902" y1="68.1973" x2="51.4398" y2="64.7124" class="gray" /></g>
<g><line x1="53.6856" y1="62.2524" x2="56.8944" y2="61.5373" class="gray" /></g>
<g><line x1="59.9464" y1="62.8272" x2="61.8336" y2="65.8926" class="gray" /></g>
<g><line x1="63.276" y1="69.6241" x2="63.914" y2="73.0157" class="gray" /></g>
<g><line x1="64.7714" y1="76.9913" x2="65.6086" y2="80.4284" class="gray" /></g>
<g><line x1="66.5205" y1="84.3931" x2="67.2595" y2="87.8067" class="gray" /></g>
<g><line x1="68.1205" y1="91.7831" x2="68.8595" y2="95.1967" class="gray" /></g>
<g><line x1="71.1763" y1="97.9464" x2="74.4137" y2="99.2533" class="gray" /></g>
<g><line x1="76.0165" y1="98.0005" x2="75.5335" y2="94.5693" class="gray" /></g>
<g><line x1="76.9385" y1="91.4203" x2="79.8415" y2="89.4695" class="gray" /></g>
<g><line x1="83.2422" y1="89.4332" x2="86.0378" y2="91.2265" class="gray" /></g>
<g><line x1="89.4376" y1="91.189" x2="92.3324" y2="89.2407" class="gray" /></g>
<g><line x1="95.7097" y1="86.9721" x2="98.6103" y2="85.0276" class="gray" /></g>
<g><line x1="101.988" y1="82.759" x2="104.882" y2="80.8107" class="gray" /></g>
<g><line x1="106.365" y1="77.6509" x2="106.015" y2="74.1788" class="gray" /></g>
<g><line x1="106.403" y1="70.2088" x2="107.437" y2="66.8109" class="gray" /></g>
<g><line x1="109.248" y1="63.2352" x2="111.332" y2="60.4445" class="gray" /></g>
<g><line x1="114.26" y1="57.7133" x2="117.05" y2="55.9164" class="gray" /></g>
<g><line x1="120.757" y1="54.4276" x2="123.983" y2="53.8021" class="gray" /></g>
<g><line x1="127.979" y1="53.7915" x2="131.411" y2="54.4382" class="gray" /></g>
<g><line x1="135.165" y1="55.8429" x2="138.485" y2="57.7868" class="gray" /></g>
<g><line x1="141.422" y1="60.4704" x2="143.378" y2="63.2093" class="gray" /></g>
<g><line x1="146.571" y1="64.558" x2="150.019" y2="64.0318" class="gray" /></g>
<g><line x1="154.041" y1="63.4157" x2="157.499" y2="62.884" class="gray" /></g>
<g><line x1="161.52" y1="62.2593" x2="164.76" y2="61.7504" class="gray" /></g>
<g><line x1="168.208" y1="59.9964" x2="170.882" y2="57.3233" class="gray" /></g>
<g><line x1="174.33" y1="55.5697" x2="177.58" y2="55.06" class="gray" /></g>
<g><line x1="181.355" y1="55.7565" x2="184.385" y2="57.4933" class="gray" /></g>
<g><line x1="188.161" y1="58.1953" x2="191.609" y2="57.6644" class="gray" /></g>
<g><line x1="195.63" y1="57.0393" x2="198.87" y2="56.5304" class="gray" /></g>
<g><line x1="202.891" y1="55.9057" x2="206.349" y2="55.374" class="gray" /></g>
<g><line x1="209.896" y1="53.7308" x2="212.764" y2="51.2389" class="gray" /></g>
<g><line x1="216.333" y1="49.8468" x2="219.617" y2="49.753" class="gray" /></g>
<g><line x1="223.212" y1="50.9985" x2="225.898" y2="53.2412" class="gray" /></g>
<g><line x1="227.822" y1="56.5467" x2="228.448" y2="60.013" class="gray" /></g>
<g><line x1="227.671" y1="63.7001" x2="225.649" y2="66.6896" class="gray" /></g>
<g><line x1="222.549" y1="68.915" x2="218.991" y2="69.8947" class="gray" /></g>
<g><line x1="215.207" y1="69.5328" x2="212.243" y2="68.0669" class="gray" /></g>
<g><line x1="208.409" y1="67.4744" x2="204.961" y2="68.0053" class="gray" /></g>
<g><line x1="200.94" y1="68.63" x2="197.69" y2="69.1397" class="gray" /></g>
<g><line x1="193.667" y1="69.7458" x2="189.803" y2="70.304" class="gray" /></g>
<g><line x1="186.441" y1="72.1171" x2="184.219" y2="74.6226" class="gray" /></g>
<g><line x1="180.858" y1="76.4457" x2="177.192" y2="76.994" class="gray" /></g>
<g><line x1="173.415" y1="76.2833" x2="170.385" y2="74.5465" class="gray" /></g>
<g><line x1="166.612" y1="73.8591" x2="163.568" y2="74.3506" class="gray" /></g>
<g><line x1="159.547" y1="74.9683" x2="155.683" y2="75.5315" class="gray" /></g>
<g><line x1="151.659" y1="76.1318" x2="148.211" y2="76.658" class="gray" /></g>
<g><line x1="145.527" y1="78.8845" x2="144.373" y2="82.1752" class="gray" /></g>
<g><line x1="142.443" y1="85.6944" x2="140.447" y2="88.2353" class="gray" /></g>
<g><line x1="137.395" y1="90.7927" x2="134.315" y2="92.437" class="gray" /></g>
<g><line x1="132.407" y1="95.426" x2="132.213" y2="98.9237" class="gray" /></g>
<g><line x1="132.156" y1="102.988" x2="132.254" y2="106.481" class="gray" /></g>
<g><line x1="132.254" y1="110.548" x2="132.156" y2="114.041" class="gray" /></g>
<g><line x1="132.1" y1="118.109" x2="132.1" y2="121.601" class="gray" /></g>
<g><line x1="133.567" y1="125.044" x2="136.084" y2="127.461" class="gray" /></g>
<g><line x1="139.585" y1="128.87" x2="143.074" y2="128.87" class="gray" /></g>
<g><line x1="147.143" y1="128.87" x2="150.632" y2="128.87" class="gray" /></g>
<g><line x1="154.701" y1="128.87" x2="158.19" y2="128.87" class="gray" /></g>
<g><line x1="162.258" y1="128.87" x2="165.747" y2="128.87" class="gray" /></g>
<g><line x1="169.816" y1="128.87" x2="173.305" y2="128.87" class="gray" /></g>
<g><line x1="177.374" y1="128.87" x2="180.863" y2="128.87" class="gray" /></g>
<g><line x1="184.931" y1="128.87" x2="188.421" y2="128.87" class="gray" /></g>
<g><line x1="192.489" y1="128.87" x2="195.978" y2="128.87" class="gray" /></g>
<g><line x1="200.047" y1="128.87" x2="203.536" y2="128.87" class="gray" /></g>
<g><line x1="207.605" y1="128.87" x2="211.094" y2="128.87" class="gray" /></g>
<g><line x1="215.162" y1="128.87" x2="218.652" y2="128.87" class="gray" /></g>
<g><line x1="222.72" y1="128.87" x2="226.209" y2="128.87" class="gray" /></g>
</svg>
