<svg
	xmlns="http://www.w3.org/2000/svg"
	width="226.25"
	height="241.457">
<g><style type="text/css" >
<!-- create color definitions -->
<![CDATA[
circle.red {stroke: rgb(255, 0, 255); fill: none; }
circle.green {stroke: rgb(0, 255, 0); fill: none; }
circle.blue {stroke: rgb(0, 0, 255); fill: none; }
circle.black {stroke: rgb(0, 0, 0); fill: none; }
circle.gray {stroke: rgb(204, 204, 204); fill: none; }
circle.brown {stroke: rgb(211.65, 104.55, 30.6); fill: none; }
line.red {stroke: rgb(255, 0, 255); stroke-width: 0.383149; }
line.green {stroke: rgb(0, 255, 0); stroke-width: 0.383149; }
line.blue {stroke: rgb(0, 0, 255); stroke-width: 0.383149; }
line.black {stroke: rgb(0, 0, 0); stroke-width: 0.383149; }
line.gray {stroke: rgb(204, 204, 204); stroke-width: 0.383149; }
line.brown {stroke: rgb(211.65, 104.55, 30.6); stroke-width: 0.383149; }
line {stroke: rgb(0, 0, 0); }
text.red {fill: rgb(255, 0, 255); font-size: 3.065194px; font-weight: bold; font-family: Helvetica; }
text.green {fill: rgb(0, 255, 0); font-size: 3.065194px; font-weight: bold; font-family: Helvetica; }
text.blue {fill: rgb(0, 0, 255); font-size: 3.065194px; font-weight: bold; font-family: Helvetica; }
text.black {fill: rgb(0, 0, 0); font-size: 3.065194px; font-weight: bold; font-family: Helvetica; }
text.gray {fill: rgb(204, 204, 204); font-size: 3.065194px; font-weight: bold; font-family: Helvetica; }
text.brown {fill: rgb(211.65, 104.55, 30.6); font-size: 3.065194px; font-weight: bold; font-family: Helvetica; }
text {fill: rgb(0, 0, 0); font-size: 3.065194px; font-weight: bold; font-family: Helvetica; text-anchor: middle; alignment-baseline: middle; }

.pseudoknot_connection{stroke-linecap: round; stroke-opacity: 0.2; stroke-width: 1.5; }
.pseudoknot_segment1{stroke-linecap: round; stroke-opacity: 0.4; stroke-width: 3.06519; }
.pseudoknot_segment2{stroke-linecap: round; stroke-opacity: 0.4; stroke-width: 3.06519; }
line.numbering-line{stroke: rgb(204, 204, 204); stroke-width: 0.191575; }
line.predicted{stroke: rgb(0, 0, 0); stroke-dasharray: 2; }
polyline{fill: none; stroke-linejoin: round; }
template{visibility: hidden; }
text.numbering-label{fill: rgb(204, 204, 204); }
]]>
</style></g>
<g><title>0 (position.label in template: 0.5')</title><text x="110.23" y="193.777" class="green" >5'</text></g>
<g><title>1 (position.label in template: 1.G)</title><text x="110.44" y="186.22" class="black" >G</text></g>
<g><line x1="112.483" y1="185.913" x2="120.847" y2="185.913" class="black" /></g>
<g><title>2 (position.label in template: 2.C)</title><text x="110.65" y="178.66" class="black" >C</text></g>
<g><line x1="112.693" y1="178.353" x2="120.637" y2="178.353" class="black" /></g>
<g><title>3 (position.label in template: 3.G)</title><text x="110.44" y="171.1" class="black" >G</text></g>
<g><line x1="112.483" y1="170.793" x2="120.847" y2="170.793" class="black" /></g>
<g><title>4 (position.label in template: 4.G)</title><text x="110.44" y="163.54" class="black" >G</text></g>
<g><line x1="112.483" y1="163.233" x2="120.847" y2="163.233" class="black" /></g>
<g><title>5 (position.label in template: 5.G)</title><text x="110.44" y="155.98" class="black" >G</text></g>
<g><line x1="112.483" y1="155.673" x2="120.847" y2="155.673" class="black" /></g>
<g><title>6 (position.label in template: 6.C)</title><text x="110.65" y="148.42" class="black" >C</text></g>
<g><line x1="112.693" y1="148.113" x2="120.637" y2="148.113" class="black" /></g>
<g><title>7 (position.label in template: 7.G)</title><text x="110.44" y="140.86" class="black" >G</text></g>
<g><line x1="112.483" y1="140.553" x2="120.847" y2="140.553" class="black" /></g>
<g><title>8 (position.label in template: 8.U)</title><text x="103.79" y="137.7" class="green" >T</text></g>
<g><title>9 (position.label in template: 9.G)</title><text x="98.1" y="132.49" class="black" >G</text></g>
<g><title>10 (position.label in template: 10.G)</title><text x="94.58" y="125.8" class="black" >G</text></g>
<g><line x1="94.5099" y1="123.451" x2="94.2301" y2="115.306" class="black" /></g>
<g><text x="91.1193" y="131.766" class="numbering-label sequential" >10</text></g>
<g><line x1="93.6572" y1="127.391" x2="92.0084" y2="130.233" class="numbering-line sequential" /></g>
<g><title>11 (position.label in template: 11.U)</title><text x="87.24" y="126.19" class="green" >T</text></g>
<g><line x1="87.1699" y1="123.841" x2="86.8901" y2="115.696" class="black" /></g>
<g><title>12 (position.label in template: 12.G)</title><text x="79.48" y="126.58" class="black" >G</text></g>
<g><line x1="79.4098" y1="124.231" x2="79.1302" y2="116.096" class="black" /></g>
<g><title>13 (position.label in template: 13.G)</title><text x="75.18" y="132.79" class="black" >G</text></g>
<g><title>14 (position.label in template: 14.A)</title><text x="68.85" y="136.2" class="black" >A</text></g>
<g><title>15 (position.label in template: 15.A)</title><text x="61.29" y="135.99" class="black" >A</text></g>
<g><title>16 (position.label in template: 16.C)</title><text x="54.54" y="132.19" class="black" >C</text></g>
<g><title>17 (position.label in template: 17.G)</title><text x="50.39" y="125.74" class="black" >G</text></g>
<g><title>18 (position.label in template: 18.G)</title><text x="50" y="118.19" class="black" >G</text></g>
<g><title>19 (position.label in template: 19.U)</title><text x="53.46" y="111.37" class="green" >T</text></g>
<g><title>20 (position.label in template: 20.A)</title><text x="59.78" y="106.92" class="black" >A</text></g>
<g><text x="57.1817" y="100.531" class="numbering-label sequential" >20</text></g>
<g><line x1="59.0871" y1="105.216" x2="57.805" y2="102.064" class="numbering-line sequential" /></g>
<g><title>21 (position.label in template: 21.G)</title><text x="66.86" y="105.92" class="black" >G</text></g>
<g><title>22 (position.label in template: 22.A)</title><text x="74.34" y="108.62" class="black" >A</text></g>
<g><title>23 (position.label in template: 23.C)</title><text x="79.06" y="114.36" class="black" >C</text></g>
<g><title>24 (position.label in template: 24.A)</title><text x="86.82" y="113.96" class="green" >A</text></g>
<g><title>25 (position.label in template: 25.C)</title><text x="94.16" y="113.57" class="black" >C</text></g>
<g><title>26 (position.label in template: 26.A)</title><text x="97.17" y="106.55" class="black" >A</text></g>
<g><title>27 (position.label in template: 27.A)</title><text x="102.08" y="100.81" class="green" >A</text></g>
<g><line x1="103.93" y1="99.6353" x2="111.14" y2="96.2516" class="black" /></g>
<g><title>28 (position.label in template: 28.G)</title><text x="98.51" y="93.94" class="black" >G</text></g>
<g><line x1="100.372" y1="92.7914" x2="107.968" y2="89.3556" class="black" /></g>
<g><title>29 (position.label in template: 29.C)</title><text x="95.55" y="87.07" class="black" >C</text></g>
<g><line x1="97.3999" y1="85.8953" x2="104.61" y2="82.5116" class="black" /></g>
<g><title>30 (position.label in template: 30.G)</title><text x="92.18" y="80.21" class="black" >G</text></g>
<g><line x1="94.0422" y1="79.062" x2="101.648" y2="75.625" class="black" /></g>
<g><text x="85.8791" y="83.014" class="numbering-label sequential" >30</text></g>
<g><line x1="90.4997" y1="80.9577" x2="87.7182" y2="82.1956" class="numbering-line sequential" /></g>
<g><title>31 (position.label in template: 31.A)</title><text x="89.44" y="73.34" class="green" >A</text></g>
<g><line x1="91.2899" y1="72.1653" x2="98.5001" y2="68.7816" class="black" /></g>
<g><title>32 (position.label in template: 32.C)</title><text x="82.38" y="70.14" class="black" >C</text></g>
<g><title>33 (position.label in template: 33.U)</title><text x="78.85" y="63.46" class="green" >T</text></g>
<g><title>34 (position.label in template: 34.U)</title><text x="80.09" y="56" class="green" >T</text></g>
<g><title>35 (position.label in template: 35.A)</title><text x="85.8" y="50.81" class="black" >A</text></g>
<g><title>36 (position.label in template: 36.A)</title><text x="93.32" y="50" class="black" >A</text></g>
<g><title>37 (position.label in template: 37.A)</title><text x="99.79" y="53.91" class="black" >A</text></g>
<g><title>38 (position.label in template: 38.A)</title><text x="102.58" y="60.94" class="black" >A</text></g>
<g><title>39 (position.label in template: 39.U)</title><text x="100.35" y="68.22" class="green" >T</text></g>
<g><title>40 (position.label in template: 40.C)</title><text x="103.51" y="75.09" class="black" >C</text></g>
<g><title>41 (position.label in template: 41.G)</title><text x="106.46" y="81.95" class="black" >G</text></g>
<g><title>42 (position.label in template: 42.C)</title><text x="109.83" y="88.82" class="black" >C</text></g>
<g><title>43 (position.label in template: 43.U)</title><text x="112.99" y="95.69" class="green" >T</text></g>
<g><title>44 (position.label in template: 44.A)</title><text x="120.76" y="95.69" class="black" >A</text></g>
<g><title>45 (position.label in template: 45.G)</title><text x="127.5" y="98.12" class="black" >G</text></g>
<g><line x1="128.998" y1="99.203" x2="135.092" y2="104.854" class="black" /></g>
<g><title>46 (position.label in template: 46.G)</title><text x="132.71" y="92.64" class="black" >G</text></g>
<g><line x1="134.208" y1="93.7238" x2="140.292" y2="99.3731" class="black" /></g>
<g><title>47 (position.label in template: 47.G)</title><text x="137.91" y="87.16" class="black" >G</text></g>
<g><line x1="139.408" y1="88.243" x2="145.502" y2="93.894" class="black" /></g>
<g><title>48 (position.label in template: 48.C)</title><text x="140.31" y="79.92" class="black" >C</text></g>
<g><title>49 (position.label in template: 49.C)</title><text x="147.07" y="76.54" class="black" >C</text></g>
<g><title>50 (position.label in template: 50.U)</title><text x="154.17" y="79.15" class="green" >T</text></g>
<g><text x="158.971" y="74.1986" class="numbering-label sequential" >50</text></g>
<g><line x1="155.45" y1="77.8296" x2="157.485" y2="75.7312" class="numbering-line sequential" /></g>
<g><title>51 (position.label in template: 51.G)</title><text x="156.93" y="86.1" class="black" >G</text></g>
<g><title>52 (position.label in template: 52.G)</title><text x="153.91" y="93.03" class="black" >G</text></g>
<g><title>53 (position.label in template: 53.C)</title><text x="147" y="95.59" class="black" >C</text></g>
<g><title>54 (position.label in template: 54.C)</title><text x="141.79" y="101.07" class="black" >C</text></g>
<g><title>55 (position.label in template: 55.C)</title><text x="136.59" y="106.55" class="black" >C</text></g>
<g><title>56 (position.label in template: 56.G)</title><text x="139.18" y="113.57" class="black" >G</text></g>
<g><title>57 (position.label in template: 57.U)</title><text x="139.78" y="121.12" class="green" >T</text></g>
<g><title>58 (position.label in template: 58.G)</title><text x="137.51" y="128.4" class="black" >G</text></g>
<g><line x1="136.202" y1="129.663" x2="131.068" y2="135.824" class="black" /></g>
<g><title>59 (position.label in template: 59.C)</title><text x="143.46" y="133.31" class="black" >C</text></g>
<g><line x1="142.112" y1="134.54" x2="136.648" y2="140.767" class="black" /></g>
<g><title>60 (position.label in template: 60.G)</title><text x="149" y="138.23" class="black" >G</text></g>
<g><line x1="147.692" y1="139.493" x2="142.558" y2="145.654" class="black" /></g>
<g><title>61 (position.label in template: 61.G)</title><text x="154.74" y="143.14" class="black" >G</text></g>
<g><line x1="153.433" y1="144.404" x2="148.307" y2="150.563" class="black" /></g>
<g><title>62 (position.label in template: 62.G)</title><text x="160.49" y="148.06" class="black" >G</text></g>
<g><line x1="159.182" y1="149.323" x2="154.048" y2="155.484" class="black" /></g>
<g><title>63 (position.label in template: 63.U)</title><text x="168.26" y="148.09" class="green" >T</text></g>
<g><title>64 (position.label in template: 64.U)</title><text x="174.25" y="152.69" class="green" >T</text></g>
<g><title>65 (position.label in template: 65.C)</title><text x="176.25" y="159.99" class="black" >C</text></g>
<g><title>66 (position.label in template: 66.G)</title><text x="173.21" y="167" class="black" >G</text></g>
<g><title>67 (position.label in template: 67.A)</title><text x="167.14" y="170.87" class="black" >A</text></g>
<g><title>68 (position.label in template: 68.C)</title><text x="159.42" y="170.03" class="black" >C</text></g>
<g><title>69 (position.label in template: 69.U)</title><text x="153.94" y="164.82" class="green" >T</text></g>
<g><title>70 (position.label in template: 70.C)</title><text x="152.74" y="157.36" class="black" >C</text></g>
<g><title>71 (position.label in template: 71.C)</title><text x="147" y="152.44" class="black" >C</text></g>
<g><title>72 (position.label in template: 72.C)</title><text x="141.25" y="147.53" class="black" >C</text></g>
<g><title>73 (position.label in template: 73.G)</title><text x="135.3" y="142.61" class="black" >G</text></g>
<g><title>74 (position.label in template: 74.C)</title><text x="129.76" y="137.7" class="black" >C</text></g>
<g><title>75 (position.label in template: 75.C)</title><text x="122.89" y="140.86" class="black" >C</text></g>
<g><title>76 (position.label in template: 76.G)</title><text x="122.68" y="148.42" class="black" >G</text></g>
<g><title>77 (position.label in template: 77.C)</title><text x="122.89" y="155.98" class="black" >C</text></g>
<g><title>78 (position.label in template: 78.C)</title><text x="122.89" y="163.54" class="black" >C</text></g>
<g><title>79 (position.label in template: 79.C)</title><text x="122.89" y="171.1" class="black" >C</text></g>
<g><title>80 (position.label in template: 80.G)</title><text x="122.68" y="178.66" class="black" >G</text></g>
<g><title>81 (position.label in template: 81.C)</title><text x="122.89" y="186.22" class="black" >C</text></g>
<g><title>82 (position.label in template: 82.A)</title><text x="128.343" y="191.457" class="black" >A</text></g>
<g><title>83 (position.label in template: 83.3')</title><text x="123.104" y="196.908" class="green" >3'</text></g>
<g><line x1="110.287" y1="191.428" x2="110.383" y2="187.956" class="gray" /></g>
<g><line x1="110.497" y1="183.871" x2="110.593" y2="180.396" class="gray" /></g>
<g><line x1="110.593" y1="176.311" x2="110.497" y2="172.836" class="gray" /></g>
<g><line x1="110.44" y1="168.75" x2="110.44" y2="165.277" class="gray" /></g>
<g><line x1="110.44" y1="161.19" x2="110.44" y2="157.717" class="gray" /></g>
<g><line x1="110.497" y1="153.631" x2="110.593" y2="150.156" class="gray" /></g>
<g><line x1="110.593" y1="146.071" x2="110.497" y2="142.596" class="gray" /></g>
<g><line x1="108.594" y1="139.676" x2="105.636" y2="138.271" class="gray" /></g>
<g><line x1="102.283" y1="136.014" x2="99.6071" y2="133.563" class="gray" /></g>
<g><line x1="97.1485" y1="130.375" x2="95.5315" y2="127.302" class="gray" /></g>
<g><line x1="92.5394" y1="125.602" x2="89.2806" y2="125.775" class="gray" /></g>
<g><line x1="85.1991" y1="125.986" x2="81.5209" y2="126.171" class="gray" /></g>
<g><line x1="78.3167" y1="127.954" x2="76.3433" y2="130.803" class="gray" /></g>
<g><line x1="73.381" y1="133.453" x2="70.649" y2="134.924" class="gray" /></g>
<g><line x1="66.8073" y1="135.837" x2="63.3327" y2="135.74" class="gray" /></g>
<g><line x1="59.5093" y1="134.681" x2="56.3207" y2="132.886" class="gray" /></g>
<g><line x1="53.4343" y1="130.165" x2="51.4957" y2="127.152" class="gray" /></g>
<g><line x1="50.2846" y1="123.393" x2="50.1054" y2="119.924" class="gray" /></g>
<g><line x1="50.9245" y1="116.061" x2="52.5355" y2="112.886" class="gray" /></g>
<g><line x1="55.1308" y1="109.887" x2="58.1092" y2="107.79" class="gray" /></g>
<g><line x1="61.8034" y1="106.328" x2="64.8366" y2="105.899" class="gray" /></g>
<g><line x1="68.7821" y1="106.307" x2="72.4179" y2="107.62" class="gray" /></g>
<g><line x1="75.6379" y1="109.892" x2="77.7621" y2="112.475" class="gray" /></g>
<g><line x1="81.1008" y1="113.948" x2="84.7792" y2="113.759" class="gray" /></g>
<g><line x1="88.8606" y1="113.545" x2="92.1194" y2="113.372" class="gray" /></g>
<g><line x1="94.9653" y1="111.385" x2="96.3647" y2="108.122" class="gray" /></g>
<g><line x1="98.4983" y1="104.691" x2="100.752" y2="102.056" class="gray" /></g>
<g><line x1="101.138" y1="98.6902" x2="99.4523" y2="95.4467" class="gray" /></g>
<g><line x1="97.7014" y1="91.7568" x2="96.3586" y2="88.6402" class="gray" /></g>
<g><line x1="94.649" y1="84.9294" x2="93.081" y2="81.7376" class="gray" /></g>
<g><line x1="91.423" y1="78.0054" x2="90.197" y2="74.9315" class="gray" /></g>
<g><line x1="87.5788" y1="72.1899" x2="84.2412" y2="70.6771" class="gray" /></g>
<g><line x1="81.4253" y1="68.0268" x2="79.8047" y2="64.9602" class="gray" /></g>
<g><line x1="79.1851" y1="61.1377" x2="79.7549" y2="57.7093" class="gray" /></g>
<g><line x1="81.6022" y1="54.319" x2="84.2878" y2="51.8779" class="gray" /></g>
<g><line x1="87.8317" y1="50.2846" x2="91.2883" y2="49.9123" class="gray" /></g>
<g><line x1="95.0689" y1="50.7504" x2="98.0411" y2="52.5466" class="gray" /></g>
<g><line x1="100.544" y1="55.5028" x2="101.826" y2="58.7341" class="gray" /></g>
<g><line x1="101.981" y1="62.5873" x2="100.949" y2="65.9596" class="gray" /></g>
<g><line x1="101.204" y1="69.77" x2="102.656" y2="72.927" class="gray" /></g>
<g><line x1="104.317" y1="76.6607" x2="105.653" y2="79.7662" class="gray" /></g>
<g><line x1="107.36" y1="83.4781" x2="108.93" y2="86.6789" class="gray" /></g>
<g><line x1="110.684" y1="90.37" x2="112.136" y2="93.527" class="gray" /></g>
<g><line x1="115.033" y1="95.3835" x2="118.717" y2="95.3835" class="gray" /></g>
<g><line x1="122.682" y1="96.0766" x2="125.578" y2="97.1204" class="gray" /></g>
<g><line x1="128.908" y1="96.3325" x2="131.302" y2="93.8145" class="gray" /></g>
<g><line x1="134.117" y1="90.8512" x2="136.503" y2="88.3358" class="gray" /></g>
<g><line x1="138.553" y1="84.9138" x2="139.667" y2="81.5531" class="gray" /></g>
<g><line x1="142.138" y1="78.6996" x2="145.242" y2="77.1473" class="gray" /></g>
<g><line x1="148.988" y1="76.9385" x2="152.252" y2="78.1384" class="gray" /></g>
<g><line x1="154.924" y1="80.7427" x2="156.176" y2="83.8943" class="gray" /></g>
<g><line x1="156.114" y1="87.6668" x2="154.726" y2="90.8502" class="gray" /></g>
<g><line x1="151.994" y1="93.4334" x2="148.916" y2="94.5736" class="gray" /></g>
<g><line x1="145.592" y1="96.7645" x2="143.198" y2="99.2825" class="gray" /></g>
<g><line x1="140.383" y1="102.246" x2="137.997" y2="104.761" class="gray" /></g>
<g><line x1="137.297" y1="108.161" x2="138.473" y2="111.346" class="gray" /></g>
<g><line x1="139.342" y1="115.301" x2="139.618" y2="118.776" class="gray" /></g>
<g><line x1="139.172" y1="122.764" x2="138.118" y2="126.143" class="gray" /></g>
<g><line x1="139.086" y1="129.394" x2="141.884" y2="131.703" class="gray" /></g>
<g><line x1="144.988" y1="134.36" x2="147.472" y2="136.567" class="gray" /></g>
<g><line x1="150.553" y1="139.252" x2="153.187" y2="141.505" class="gray" /></g>
<g><line x1="156.293" y1="144.162" x2="158.937" y2="146.425" class="gray" /></g>
<g><line x1="162.533" y1="147.761" x2="166.217" y2="147.776" class="gray" /></g>
<g><line x1="169.881" y1="149.028" x2="172.629" y2="151.139" class="gray" /></g>
<g><line x1="174.79" y1="154.354" x2="175.71" y2="157.713" class="gray" /></g>
<g><line x1="175.437" y1="161.558" x2="174.023" y2="164.819" class="gray" /></g>
<g><line x1="171.487" y1="167.792" x2="168.863" y2="169.465" class="gray" /></g>
<g><line x1="165.109" y1="170.342" x2="161.451" y2="169.945" class="gray" /></g>
<g><line x1="157.939" y1="168.315" x2="155.421" y2="165.921" class="gray" /></g>
<g><line x1="153.615" y1="162.496" x2="153.065" y2="159.071" class="gray" /></g>
<g><line x1="151.188" y1="155.724" x2="148.552" y2="153.463" class="gray" /></g>
<g><line x1="145.446" y1="150.807" x2="142.804" y2="148.55" class="gray" /></g>
<g><line x1="139.675" y1="145.921" x2="136.875" y2="143.606" class="gray" /></g>
<g><line x1="133.771" y1="140.948" x2="131.289" y2="138.749" class="gray" /></g>
<g><line x1="127.904" y1="138.247" x2="124.746" y2="139.7" class="gray" /></g>
<g><line x1="122.833" y1="142.596" x2="122.737" y2="146.071" class="gray" /></g>
<g><line x1="122.737" y1="150.156" x2="122.833" y2="153.631" class="gray" /></g>
<g><line x1="122.89" y1="157.717" x2="122.89" y2="161.19" class="gray" /></g>
<g><line x1="122.89" y1="165.277" x2="122.89" y2="168.75" class="gray" /></g>
<g><line x1="122.833" y1="172.836" x2="122.737" y2="176.311" class="gray" /></g>
<g><line x1="122.737" y1="180.396" x2="122.833" y2="183.871" class="gray" /></g>
<g><line x1="124.364" y1="187.329" x2="126.869" y2="189.735" class="gray" /></g>
<g><line x1="126.927" y1="192.624" x2="124.52" y2="195.128" class="gray" /></g>
</svg>
