<svg
	xmlns="http://www.w3.org/2000/svg"
	width="205.44"
	height="248.35">
<g><style type="text/css" >
<!-- create color definitions -->
<![CDATA[
circle.red {stroke: rgb(255, 0, 255); fill: none; }
circle.green {stroke: rgb(0, 255, 0); fill: none; }
circle.blue {stroke: rgb(0, 0, 255); fill: none; }
circle.black {stroke: rgb(0, 0, 0); fill: none; }
circle.gray {stroke: rgb(204, 204, 204); fill: none; }
circle.brown {stroke: rgb(211.65, 104.55, 30.6); fill: none; }
line.red {stroke: rgb(255, 0, 255); stroke-width: 0.381138; }
line.green {stroke: rgb(0, 255, 0); stroke-width: 0.381138; }
line.blue {stroke: rgb(0, 0, 255); stroke-width: 0.381138; }
line.black {stroke: rgb(0, 0, 0); stroke-width: 0.381138; }
line.gray {stroke: rgb(204, 204, 204); stroke-width: 0.381138; }
line.brown {stroke: rgb(211.65, 104.55, 30.6); stroke-width: 0.381138; }
line {stroke: rgb(0, 0, 0); }
text.red {fill: rgb(255, 0, 255); font-size: 3.049107px; font-weight: bold; font-family: Helvetica; }
text.green {fill: rgb(0, 255, 0); font-size: 3.049107px; font-weight: bold; font-family: Helvetica; }
text.blue {fill: rgb(0, 0, 255); font-size: 3.049107px; font-weight: bold; font-family: Helvetica; }
text.black {fill: rgb(0, 0, 0); font-size: 3.049107px; font-weight: bold; font-family: Helvetica; }
text.gray {fill: rgb(204, 204, 204); font-size: 3.049107px; font-weight: bold; font-family: Helvetica; }
text.brown {fill: rgb(211.65, 104.55, 30.6); font-size: 3.049107px; font-weight: bold; font-family: Helvetica; }
text {fill: rgb(0, 0, 0); font-size: 3.049107px; font-weight: bold; font-family: Helvetica; text-anchor: middle; alignment-baseline: middle; }

.pseudoknot_connection{stroke-linecap: round; stroke-opacity: 0.2; stroke-width: 1.5; }
.pseudoknot_segment1{stroke-linecap: round; stroke-opacity: 0.4; stroke-width: 3.04911; }
.pseudoknot_segment2{stroke-linecap: round; stroke-opacity: 0.4; stroke-width: 3.04911; }
line.numbering-line{stroke: rgb(204, 204, 204); stroke-width: 0.190569; }
line.predicted{stroke: rgb(0, 0, 0); stroke-dasharray: 2; }
polyline{fill: none; stroke-linejoin: round; }
template{visibility: hidden; }
text.numbering-label{fill: rgb(204, 204, 204); }
]]>
</style></g>
<g><title>0 (position.label in template: 0.5')</title><text x="120.67" y="198.35" class="green" >5'</text></g>
<g><title>1 (position.label in template: 1.C)</title><text x="127.67" y="198.35" class="black" >C</text></g>
<g><line x1="129.703" y1="198.045" x2="137.667" y2="198.045" class="black" /></g>
<g><title>2 (position.label in template: 2.A)</title><text x="127.88" y="190.79" class="black" >A</text></g>
<g><line x1="129.913" y1="190.485" x2="137.667" y2="190.485" class="black" /></g>
<g><title>3 (position.label in template: 3.G)</title><text x="127.46" y="183.23" class="green" >G</text></g>
<g><line x1="129.493" y1="182.925" x2="137.877" y2="182.925" class="black" /></g>
<g><title>4 (position.label in template: 4.G)</title><text x="127.46" y="175.67" class="green" >G</text></g>
<g><line x1="129.493" y1="175.365" x2="137.877" y2="175.365" class="black" /></g>
<g><title>5 (position.label in template: 5.U)</title><text x="122.08" y="170.58" class="green" >T</text></g>
<g><title>6 (position.label in template: 6.A)</title><text x="120.21" y="163.31" class="black" >A</text></g>
<g><title>7 (position.label in template: 7.A)</title><text x="122.29" y="156.04" class="black" >A</text></g>
<g><title>8 (position.label in template: 8.C)</title><text x="127.67" y="150.96" class="black" >C</text></g>
<g><line x1="129.703" y1="150.655" x2="137.667" y2="150.655" class="black" /></g>
<g><title>9 (position.label in template: 9.U)</title><text x="127.67" y="143.4" class="green" >T</text></g>
<g><line x1="129.703" y1="143.095" x2="138.087" y2="143.095" class="black" /></g>
<g><title>10 (position.label in template: 10.C)</title><text x="127.67" y="135.84" class="black" >C</text></g>
<g><line x1="129.703" y1="135.535" x2="137.667" y2="135.535" class="black" /></g>
<g><text x="120.81" y="135.84" class="numbering-label sequential" >10</text></g>
<g><line x1="125.841" y1="135.84" x2="122.639" y2="135.84" class="numbering-line sequential" /></g>
<g><title>11 (position.label in template: 11.C)</title><text x="127.67" y="128.28" class="black" >C</text></g>
<g><line x1="129.703" y1="127.975" x2="137.667" y2="127.975" class="black" /></g>
<g><title>12 (position.label in template: 12.G)</title><text x="121.04" y="124.29" class="black" >G</text></g>
<g><title>13 (position.label in template: 13.C)</title><text x="117.02" y="118.02" class="black" >C</text></g>
<g><title>14 (position.label in template: 14.C)</title><text x="115.72" y="110.58" class="black" >C</text></g>
<g><line x1="116.45" y1="108.378" x2="119.36" y2="100.812" class="black" /></g>
<g><title>15 (position.label in template: 15.U)</title><text x="108.71" y="107.75" class="green" >T</text></g>
<g><line x1="109.471" y1="105.56" x2="112.529" y2="97.9801" class="black" /></g>
<g><title>16 (position.label in template: 16.G)</title><text x="101.49" y="104.92" class="black" >G</text></g>
<g><line x1="102.28" y1="102.742" x2="105.49" y2="95.1379" class="black" /></g>
<g><title>17 (position.label in template: 17.U)</title><text x="94.69" y="102.1" class="green" >T</text></g>
<g><line x1="95.4784" y1="99.9215" x2="98.6816" y2="92.3087" class="black" /></g>
<g><title>18 (position.label in template: 18.A)</title><text x="87.88" y="99.27" class="green" >A</text></g>
<g><line x1="88.6104" y1="97.0681" x2="91.5196" y2="89.5121" class="black" /></g>
<g><title>19 (position.label in template: 19.G)</title><text x="80.46" y="96.44" class="green" >G</text></g>
<g><line x1="81.249" y1="94.2617" x2="84.451" y2="86.6585" class="black" /></g>
<g><title>20 (position.label in template: 20.C)</title><text x="74.52" y="100.84" class="black" >C</text></g>
<g><text x="77.2678" y="107.126" class="numbering-label sequential" >20</text></g>
<g><line x1="75.2528" y1="102.516" x2="76.6014" y2="105.602" class="numbering-line sequential" /></g>
<g><title>21 (position.label in template: 21.U)</title><text x="67.1" y="102.28" class="green" >T</text></g>
<g><title>22 (position.label in template: 22.C)</title><text x="59.75" y="100.5" class="black" >C</text></g>
<g><title>23 (position.label in template: 23.C)</title><text x="53.81" y="95.83" class="black" >C</text></g>
<g><title>24 (position.label in template: 24.U)</title><text x="50.35" y="89.11" class="green" >T</text></g>
<g><title>25 (position.label in template: 25.C)</title><text x="50" y="81.56" class="black" >C</text></g>
<g><title>26 (position.label in template: 26.U)</title><text x="52.83" y="74.54" class="green" >T</text></g>
<g><title>27 (position.label in template: 27.G)</title><text x="58.1" y="69.35" class="black" >G</text></g>
<g><title>28 (position.label in template: 28.G)</title><text x="65.26" y="66.9" class="black" >G</text></g>
<g><title>29 (position.label in template: 29.G)</title><text x="72.78" y="67.65" class="black" >G</text></g>
<g><title>30 (position.label in template: 30.G)</title><text x="79.31" y="71.47" class="black" >G</text></g>
<g><text x="83.9574" y="66.4234" class="numbering-label sequential" >30</text></g>
<g><line x1="80.5493" y1="70.1242" x2="82.5534" y2="67.9479" class="numbering-line sequential" /></g>
<g><title>31 (position.label in template: 31.G)</title><text x="83.65" y="77.66" class="black" >G</text></g>
<g><title>32 (position.label in template: 32.U)</title><text x="85.24" y="85.09" class="green" >T</text></g>
<g><title>33 (position.label in template: 33.U)</title><text x="92.25" y="87.92" class="green" >T</text></g>
<g><title>34 (position.label in template: 34.A)</title><text x="99.47" y="90.74" class="green" >A</text></g>
<g><title>35 (position.label in template: 35.C)</title><text x="106.28" y="93.57" class="black" >C</text></g>
<g><title>36 (position.label in template: 36.U)</title><text x="113.29" y="96.4" class="green" >T</text></g>
<g><title>37 (position.label in template: 37.G)</title><text x="120.09" y="99.22" class="black" >G</text></g>
<g><title>38 (position.label in template: 38.C)</title><text x="126.4" y="94.76" class="black" >C</text></g>
<g><line x1="128.427" y1="94.298" x2="136.373" y2="93.6822" class="black" /></g>
<g><title>39 (position.label in template: 39.C)</title><text x="125.83" y="87.22" class="black" >C</text></g>
<g><line x1="127.857" y1="86.7579" x2="135.793" y2="86.1423" class="black" /></g>
<g><title>40 (position.label in template: 40.G)</title><text x="125.04" y="79.68" class="black" >G</text></g>
<g><line x1="127.067" y1="79.2233" x2="135.433" y2="78.5969" class="black" /></g>
<g><title>41 (position.label in template: 41.G)</title><text x="118.73" y="75.53" class="black" >G</text></g>
<g><title>42 (position.label in template: 42.U)</title><text x="115.37" y="68.86" class="green" >T</text></g>
<g><title>43 (position.label in template: 43.C)</title><text x="115.4" y="61.3" class="black" >C</text></g>
<g><title>44 (position.label in template: 44.C)</title><text x="119.03" y="54.68" class="black" >C</text></g>
<g><title>45 (position.label in template: 45.C)</title><text x="125.39" y="50.58" class="black" >C</text></g>
<g><title>46 (position.label in template: 46.A)</title><text x="133.13" y="50" class="black" >A</text></g>
<g><title>47 (position.label in template: 47.A)</title><text x="140.03" y="53.09" class="black" >A</text></g>
<g><title>48 (position.label in template: 48.G)</title><text x="144.21" y="59.1" class="black" >G</text></g>
<g><title>49 (position.label in template: 49.C)</title><text x="145.6" y="66.57" class="black" >C</text></g>
<g><title>50 (position.label in template: 50.C)</title><text x="143.07" y="73.69" class="black" >C</text></g>
<g><text x="148.774" y="77.502" class="numbering-label sequential" >50</text></g>
<g><line x1="144.591" y1="74.7065" x2="146.944" y2="76.2794" class="numbering-line sequential" /></g>
<g><title>51 (position.label in template: 51.C)</title><text x="137.46" y="78.75" class="black" >C</text></g>
<g><title>52 (position.label in template: 52.G)</title><text x="137.82" y="86.29" class="black" >G</text></g>
<g><title>53 (position.label in template: 53.G)</title><text x="138.4" y="93.83" class="black" >G</text></g>
<g><title>54 (position.label in template: 54.G)</title><text x="145.1" y="97.32" class="black" >G</text></g>
<g><title>55 (position.label in template: 55.U)</title><text x="150" y="103.25" class="green" >T</text></g>
<g><title>56 (position.label in template: 56.A)</title><text x="152.07" y="110.58" class="black" >A</text></g>
<g><title>57 (position.label in template: 57.A)</title><text x="150.77" y="118.02" class="black" >A</text></g>
<g><title>58 (position.label in template: 58.A)</title><text x="146.54" y="124.29" class="black" >A</text></g>
<g><title>59 (position.label in template: 59.G)</title><text x="139.7" y="128.28" class="black" >G</text></g>
<g><title>60 (position.label in template: 60.G)</title><text x="139.7" y="135.84" class="black" >G</text></g>
<g><title>61 (position.label in template: 61.A)</title><text x="140.12" y="143.4" class="green" >A</text></g>
<g><title>62 (position.label in template: 62.G)</title><text x="139.7" y="150.96" class="black" >G</text></g>
<g><title>63 (position.label in template: 63.G)</title><text x="147.25" y="151.43" class="black" >G</text></g>
<g><title>64 (position.label in template: 64.A)</title><text x="153.61" y="156.09" class="black" >A</text></g>
<g><title>65 (position.label in template: 65.G)</title><text x="155.44" y="163.31" class="black" >G</text></g>
<g><title>66 (position.label in template: 66.G)</title><text x="153.2" y="170.53" class="black" >G</text></g>
<g><title>67 (position.label in template: 67.G)</title><text x="147.25" y="175.2" class="black" >G</text></g>
<g><title>68 (position.label in template: 68.U)</title><text x="139.91" y="175.67" class="green" >T</text></g>
<g><title>69 (position.label in template: 69.U)</title><text x="139.91" y="183.23" class="green" >T</text></g>
<g><title>70 (position.label in template: 70.G)</title><text x="139.7" y="190.79" class="black" >G</text></g>
<g><title>71 (position.label in template: 71.G)</title><text x="139.7" y="198.35" class="black" >G</text></g>
<g><title>72 (position.label in template: 72.3')</title><text x="146.7" y="198.35" class="green" >3'</text></g>
<g><line x1="122.703" y1="198.045" x2="125.637" y2="198.045" class="gray" /></g>
<g><line x1="127.726" y1="196.013" x2="127.824" y2="192.517" class="gray" /></g>
<g><line x1="127.767" y1="188.455" x2="127.573" y2="184.955" class="gray" /></g>
<g><line x1="127.46" y1="180.892" x2="127.46" y2="177.398" class="gray" /></g>
<g><line x1="125.983" y1="173.968" x2="123.557" y2="171.672" class="gray" /></g>
<g><line x1="121.574" y1="168.306" x2="120.716" y2="164.974" class="gray" /></g>
<g><line x1="120.769" y1="161.051" x2="121.731" y2="157.689" class="gray" /></g>
<g><line x1="123.768" y1="154.34" x2="126.192" y2="152.051" class="gray" /></g>
<g><line x1="127.67" y1="148.622" x2="127.67" y2="145.128" class="gray" /></g>
<g><line x1="127.67" y1="141.062" x2="127.67" y2="137.568" class="gray" /></g>
<g><line x1="127.67" y1="133.502" x2="127.67" y2="130.008" class="gray" /></g>
<g><line x1="125.928" y1="126.927" x2="122.782" y2="125.033" class="gray" /></g>
<g><line x1="119.943" y1="122.274" x2="118.117" y2="119.426" class="gray" /></g>
<g><line x1="116.67" y1="115.713" x2="116.07" y2="112.277" class="gray" /></g>
<g><line x1="113.835" y1="109.514" x2="110.595" y2="108.206" class="gray" /></g>
<g><line x1="106.817" y1="106.703" x2="103.383" y2="105.357" class="gray" /></g>
<g><line x1="99.6123" y1="103.836" x2="96.5677" y2="102.574" class="gray" /></g>
<g><line x1="92.8129" y1="101.015" x2="89.7571" y2="99.7451" class="gray" /></g>
<g><line x1="85.9807" y1="98.2407" x2="82.3593" y2="96.8595" class="gray" /></g>
<g><line x1="78.8266" y1="97.345" x2="76.1534" y2="99.3251" class="gray" /></g>
<g><line x1="72.5245" y1="100.922" x2="69.0955" y2="101.588" class="gray" /></g>
<g><line x1="65.1244" y1="101.497" x2="61.7256" y2="100.674" class="gray" /></g>
<g><line x1="58.152" y1="98.9387" x2="55.408" y2="96.7814" class="gray" /></g>
<g><line x1="52.8795" y1="93.7178" x2="51.2805" y2="90.6123" class="gray" /></g>
<g><line x1="50.2559" y1="86.7745" x2="50.0941" y2="83.2856" class="gray" /></g>
<g><line x1="50.76" y1="79.3698" x2="52.07" y2="76.1204" class="gray" /></g>
<g><line x1="54.2783" y1="72.8088" x2="56.6517" y2="70.4714" class="gray" /></g>
<g><line x1="60.0233" y1="68.387" x2="63.3367" y2="67.2532" class="gray" /></g>
<g><line x1="67.2827" y1="66.7968" x2="70.7573" y2="67.1434" class="gray" /></g>
<g><line x1="74.5346" y1="68.3715" x2="77.5554" y2="70.1387" class="gray" /></g>
<g><line x1="80.477" y1="72.8295" x2="82.483" y2="75.6907" class="gray" /></g>
<g><line x1="84.0754" y1="79.3428" x2="84.8146" y2="82.7974" class="gray" /></g>
<g><line x1="87.1249" y1="85.5461" x2="90.3651" y2="86.8541" class="gray" /></g>
<g><line x1="94.1434" y1="88.3546" x2="97.5766" y2="89.6955" class="gray" /></g>
<g><line x1="101.347" y1="91.2151" x2="104.403" y2="92.485" class="gray" /></g>
<g><line x1="108.165" y1="94.0261" x2="111.405" y2="95.3341" class="gray" /></g>
<g><line x1="115.168" y1="96.8738" x2="118.212" y2="98.1364" class="gray" /></g>
<g><line x1="121.75" y1="97.7418" x2="124.74" y2="95.6284" class="gray" /></g>
<g><line x1="126.247" y1="92.4281" x2="125.983" y2="88.942" class="gray" /></g>
<g><line x1="125.618" y1="84.8934" x2="125.252" y2="81.3968" class="gray" /></g>
<g><line x1="123.342" y1="78.2581" x2="120.428" y2="76.3421" class="gray" /></g>
<g><line x1="117.815" y1="73.4097" x2="116.285" y2="70.3705" class="gray" /></g>
<g><line x1="115.378" y1="66.5224" x2="115.392" y2="63.0278" class="gray" /></g>
<g><line x1="116.377" y1="59.2127" x2="118.053" y2="56.1575" class="gray" /></g>
<g><line x1="120.738" y1="53.2737" x2="123.682" y2="51.3765" class="gray" /></g>
<g><line x1="127.417" y1="50.1232" x2="131.103" y2="49.847" class="gray" /></g>
<g><line x1="134.985" y1="50.5259" x2="138.175" y2="51.9543" class="gray" /></g>
<g><line x1="141.191" y1="54.4539" x2="143.049" y2="57.1263" class="gray" /></g>
<g><line x1="144.582" y1="60.7935" x2="145.228" y2="64.2667" class="gray" /></g>
<g><line x1="144.919" y1="68.1805" x2="143.751" y2="71.4697" class="gray" /></g>
<g><line x1="141.561" y1="74.7466" x2="138.969" y2="77.0836" class="gray" /></g>
<g><line x1="137.557" y1="80.4755" x2="137.723" y2="83.9547" class="gray" /></g>
<g><line x1="137.976" y1="88.0118" x2="138.244" y2="91.4983" class="gray" /></g>
<g><line x1="140.203" y1="94.4642" x2="143.297" y2="96.076" class="gray" /></g>
<g><line x1="146.395" y1="98.5821" x2="148.705" y2="101.378" class="gray" /></g>
<g><line x1="150.552" y1="104.901" x2="151.518" y2="108.319" class="gray" /></g>
<g><line x1="151.72" y1="112.277" x2="151.12" y2="115.713" class="gray" /></g>
<g><line x1="149.633" y1="119.4" x2="147.677" y2="122.3" class="gray" /></g>
<g><line x1="144.784" y1="125.009" x2="141.456" y2="126.951" class="gray" /></g>
<g><line x1="139.7" y1="130.008" x2="139.7" y2="133.502" class="gray" /></g>
<g><line x1="139.813" y1="137.565" x2="140.007" y2="141.065" class="gray" /></g>
<g><line x1="140.007" y1="145.125" x2="139.813" y2="148.625" class="gray" /></g>
<g><line x1="141.729" y1="150.781" x2="145.221" y2="150.999" class="gray" /></g>
<g><line x1="148.89" y1="152.327" x2="151.97" y2="154.584" class="gray" /></g>
<g><line x1="154.109" y1="157.756" x2="154.941" y2="161.035" class="gray" /></g>
<g><line x1="154.838" y1="164.947" x2="153.802" y2="168.284" class="gray" /></g>
<g><line x1="151.601" y1="171.48" x2="148.849" y2="173.64" class="gray" /></g>
<g><line x1="145.221" y1="175.025" x2="141.939" y2="175.235" class="gray" /></g>
<g><line x1="139.91" y1="177.398" x2="139.91" y2="180.892" class="gray" /></g>
<g><line x1="139.854" y1="184.957" x2="139.756" y2="188.453" class="gray" /></g>
<g><line x1="139.7" y1="192.518" x2="139.7" y2="196.012" class="gray" /></g>
<g><line x1="141.733" y1="198.045" x2="144.667" y2="198.045" class="gray" /></g>
</svg>
