<svg
	xmlns="http://www.w3.org/2000/svg"
	width="289.39"
	height="205.108">
<g><style type="text/css" >
<!-- create color definitions -->
<![CDATA[
circle.red {stroke: rgb(255, 0, 255); fill: none; }
circle.green {stroke: rgb(0, 255, 0); fill: none; }
circle.blue {stroke: rgb(0, 0, 255); fill: none; }
circle.black {stroke: rgb(0, 0, 0); fill: none; }
circle.gray {stroke: rgb(204, 204, 204); fill: none; }
circle.brown {stroke: rgb(211.65, 104.55, 30.6); fill: none; }
line.red {stroke: rgb(255, 0, 255); stroke-width: 0.386875; }
line.green {stroke: rgb(0, 255, 0); stroke-width: 0.386875; }
line.blue {stroke: rgb(0, 0, 255); stroke-width: 0.386875; }
line.black {stroke: rgb(0, 0, 0); stroke-width: 0.386875; }
line.gray {stroke: rgb(204, 204, 204); stroke-width: 0.386875; }
line.brown {stroke: rgb(211.65, 104.55, 30.6); stroke-width: 0.386875; }
line {stroke: rgb(0, 0, 0); }
text.red {fill: rgb(255, 0, 255); font-size: 3.095000px; font-weight: bold; font-family: Helvetica; }
text.green {fill: rgb(0, 255, 0); font-size: 3.095000px; font-weight: bold; font-family: Helvetica; }
text.blue {fill: rgb(0, 0, 255); font-size: 3.095000px; font-weight: bold; font-family: Helvetica; }
text.black {fill: rgb(0, 0, 0); font-size: 3.095000px; font-weight: bold; font-family: Helvetica; }
text.gray {fill: rgb(204, 204, 204); font-size: 3.095000px; font-weight: bold; font-family: Helvetica; }
text.brown {fill: rgb(211.65, 104.55, 30.6); font-size: 3.095000px; font-weight: bold; font-family: Helvetica; }
text {fill: rgb(0, 0, 0); font-size: 3.095000px; font-weight: bold; font-family: Helvetica; text-anchor: middle; alignment-baseline: middle; }

.pseudoknot_connection{stroke-linecap: round; stroke-opacity: 0.2; stroke-width: 1.5; }
.pseudoknot_segment1{stroke-linecap: round; stroke-opacity: 0.4; stroke-width: 3.095; }
.pseudoknot_segment2{stroke-linecap: round; stroke-opacity: 0.4; stroke-width: 3.095; }
line.numbering-line{stroke: rgb(204, 204, 204); stroke-width: 0.193437; }
line.predicted{stroke: rgb(0, 0, 0); stroke-dasharray: 2; }
polyline{fill: none; stroke-linejoin: round; }
template{visibility: hidden; }
text.numbering-label{fill: rgb(204, 204, 204); }
]]>
</style></g>
<g><title>0 (position.label in template: 0.5')</title><text x="42.4382" y="155.108" class="green" >5'</text></g>
<g><title>1 (position.label in template: 1.A)</title><text x="50" y="155.108" class="black" >A</text></g>
<g><title>2 (position.label in template: 2.A)</title><text x="57.5618" y="155.108" class="black" >A</text></g>
<g><title>3 (position.label in template: 3.U)</title><text x="65.1235" y="155.108" class="green" >T</text></g>
<g><title>4 (position.label in template: 4.G)</title><text x="72.6853" y="155.108" class="black" >G</text></g>
<g><title>5 (position.label in template: 5.C)</title><text x="80.2471" y="155.108" class="black" >C</text></g>
<g><title>6 (position.label in template: 6.A)</title><text x="87.8089" y="155.108" class="black" >A</text></g>
<g><title>7 (position.label in template: 7.C)</title><text x="95.3706" y="155.108" class="black" >C</text></g>
<g><title>8 (position.label in template: 8.A)</title><text x="102.932" y="155.108" class="black" >A</text></g>
<g><title>9 (position.label in template: 9.C)</title><text x="110.494" y="155.108" class="black" >C</text></g>
<g><title>10 (position.label in template: 10.G)</title><text x="118.056" y="155.108" class="black" >G</text></g>
<g><text x="118.056" y="162.072" class="numbering-label sequential" >10</text></g>
<g><line x1="118.056" y1="156.965" x2="118.056" y2="160.524" class="numbering-line sequential" /></g>
<g><title>11 (position.label in template: 11.G)</title><text x="125.618" y="155.108" class="black" >G</text></g>
<g><title>12 (position.label in template: 12.U)</title><text x="133.179" y="155.108" class="green" >T</text></g>
<g><title>13 (position.label in template: 13.G)</title><text x="140.741" y="155.108" class="black" >G</text></g>
<g><title>14 (position.label in template: 14.A)</title><text x="148.303" y="155.108" class="black" >A</text></g>
<g><title>15 (position.label in template: 15.U)</title><text x="155.865" y="155.108" class="green" >T</text></g>
<g><title>16 (position.label in template: 16.G)</title><text x="161.098" y="149.65" class="black" >G</text></g>
<g><line x1="163.162" y1="149.341" x2="171.485" y2="149.341" class="black" /></g>
<g><title>17 (position.label in template: 17.G)</title><text x="161.098" y="142.09" class="black" >G</text></g>
<g><line x1="163.162" y1="141.781" x2="171.485" y2="141.781" class="black" /></g>
<g><title>18 (position.label in template: 18.G)</title><text x="161.098" y="134.53" class="green" >G</text></g>
<g><line x1="163.162" y1="134.221" x2="171.485" y2="134.221" class="black" /></g>
<g><title>19 (position.label in template: 19.G)</title><text x="161.098" y="126.97" class="black" >G</text></g>
<g><line x1="163.162" y1="126.661" x2="171.485" y2="126.661" class="black" /></g>
<g><title>20 (position.label in template: 20.U)</title><text x="161.308" y="119.41" class="green" >T</text></g>
<g><line x1="163.372" y1="119.101" x2="171.695" y2="119.101" class="black" /></g>
<g><text x="154.345" y="119.41" class="numbering-label sequential" >20</text></g>
<g><line x1="159.451" y1="119.41" x2="156.202" y2="119.41" class="numbering-line sequential" /></g>
<g><title>21 (position.label in template: 21.G)</title><text x="161.098" y="111.85" class="black" >G</text></g>
<g><line x1="163.162" y1="111.541" x2="171.275" y2="111.541" class="black" /></g>
<g><title>22 (position.label in template: 22.C)</title><text x="157.488" y="118.38" class="black" >C</text></g>
<g><title>23 (position.label in template: 23.C)</title><text x="152.408" y="123.97" class="black" >C</text></g>
<g><title>24 (position.label in template: 24.A)</title><text x="146.478" y="128.38" class="black" >A</text></g>
<g><title>25 (position.label in template: 25.C)</title><text x="139.348" y="131.43" class="black" >C</text></g>
<g><title>26 (position.label in template: 26.C)</title><text x="131.948" y="132.97" class="black" >C</text></g>
<g><title>27 (position.label in template: 27.A)</title><text x="124.588" y="132.94" class="black" >A</text></g>
<g><title>28 (position.label in template: 28.G)</title><text x="116.788" y="131.35" class="black" >G</text></g>
<g><title>29 (position.label in template: 29.A)</title><text x="110.308" y="128.26" class="black" >A</text></g>
<g><title>30 (position.label in template: 30.A)</title><text x="104.198" y="123.8" class="black" >A</text></g>
<g><text x="99.5787" y="129.011" class="numbering-label sequential" >30</text></g>
<g><line x1="102.966" y1="125.19" x2="100.951" y2="127.463" class="numbering-line sequential" /></g>
<g><title>31 (position.label in template: 31.U)</title><text x="98.9384" y="118.18" class="green" >T</text></g>
<g><title>32 (position.label in template: 32.C)</title><text x="95.1684" y="111.62" class="black" >C</text></g>
<g><title>33 (position.label in template: 33.G)</title><text x="92.6284" y="104.43" class="black" >G</text></g>
<g><title>34 (position.label in template: 34.A)</title><text x="92.2584" y="96.91" class="black" >A</text></g>
<g><title>35 (position.label in template: 35.A)</title><text x="93.0384" y="89.4" class="black" >A</text></g>
<g><title>36 (position.label in template: 36.A)</title><text x="95.3784" y="82.2" class="black" >A</text></g>
<g><title>37 (position.label in template: 37.G)</title><text x="98.7284" y="75.65" class="black" >G</text></g>
<g><title>38 (position.label in template: 38.A)</title><text x="104.198" y="70.03" class="black" >A</text></g>
<g><title>39 (position.label in template: 39.U)</title><text x="110.098" y="65.57" class="green" >T</text></g>
<g><title>40 (position.label in template: 40.U)</title><text x="116.998" y="62.48" class="green" >T</text></g>
<g><title>41 (position.label in template: 41.C)</title><text x="124.388" y="60.88" class="black" >C</text></g>
<g><title>42 (position.label in template: 42.A)</title><text x="132.148" y="60.86" class="black" >A</text></g>
<g><title>43 (position.label in template: 43.A)</title><text x="139.558" y="62.4" class="black" >A</text></g>
<g><title>44 (position.label in template: 44.A)</title><text x="146.478" y="65.45" class="black" >A</text></g>
<g><title>45 (position.label in template: 45.C)</title><text x="152.408" y="69.86" class="black" >C</text></g>
<g><title>46 (position.label in template: 46.C)</title><text x="157.488" y="75.45" class="black" >C</text></g>
<g><title>47 (position.label in template: 47.G)</title><text x="161.098" y="81.98" class="black" >G</text></g>
<g><line x1="163.162" y1="81.6705" x2="171.485" y2="81.6705" class="black" /></g>
<g><title>48 (position.label in template: 48.C)</title><text x="161.308" y="74.42" class="black" >C</text></g>
<g><line x1="163.372" y1="74.1105" x2="171.275" y2="74.1105" class="black" /></g>
<g><title>49 (position.label in template: 49.U)</title><text x="161.308" y="66.86" class="green" >T</text></g>
<g><line x1="163.372" y1="66.5505" x2="171.695" y2="66.5505" class="black" /></g>
<g><title>50 (position.label in template: 50.U)</title><text x="157.908" y="60.11" class="green" >T</text></g>
<g><text x="150.957" y="60.5213" class="numbering-label sequential" >50</text></g>
<g><line x1="156.055" y1="60.2197" x2="152.814" y2="60.4114" class="numbering-line sequential" /></g>
<g><title>51 (position.label in template: 51.U)</title><text x="160.488" y="53" class="green" >T</text></g>
<g><title>52 (position.label in template: 52.U)</title><text x="167.428" y="50" class="green" >T</text></g>
<g><title>53 (position.label in template: 53.A)</title><text x="174.578" y="53" class="black" >A</text></g>
<g><title>54 (position.label in template: 54.C)</title><text x="176.948" y="60.11" class="black" >C</text></g>
<g><title>55 (position.label in template: 55.A)</title><text x="173.758" y="66.86" class="green" >A</text></g>
<g><title>56 (position.label in template: 56.G)</title><text x="173.338" y="74.42" class="black" >G</text></g>
<g><title>57 (position.label in template: 57.C)</title><text x="173.548" y="81.98" class="black" >C</text></g>
<g><title>58 (position.label in template: 58.U)</title><text x="179.678" y="86.4" class="green" >T</text></g>
<g><title>59 (position.label in template: 59.G)</title><text x="182.908" y="93.13" class="black" >G</text></g>
<g><title>60 (position.label in template: 60.A)</title><text x="183.328" y="100.69" class="black" >A</text></g>
<g><title>61 (position.label in template: 61.U)</title><text x="179.678" y="107.43" class="green" >T</text></g>
<g><title>62 (position.label in template: 62.G)</title><text x="173.338" y="111.85" class="black" >G</text></g>
<g><title>63 (position.label in template: 63.A)</title><text x="173.758" y="119.41" class="green" >A</text></g>
<g><title>64 (position.label in template: 64.C)</title><text x="173.548" y="126.97" class="black" >C</text></g>
<g><title>65 (position.label in template: 65.U)</title><text x="173.548" y="134.53" class="green" >T</text></g>
<g><title>66 (position.label in template: 66.C)</title><text x="173.548" y="142.09" class="black" >C</text></g>
<g><title>67 (position.label in template: 67.C)</title><text x="173.548" y="149.65" class="black" >C</text></g>
<g><title>68 (position.label in template: 68.U)</title><text x="178.895" y="154.997" class="green" >T</text></g>
<g><title>69 (position.label in template: 69.A)</title><text x="186.457" y="154.997" class="black" >A</text></g>
<g><title>70 (position.label in template: 70.C)</title><text x="194.019" y="154.997" class="black" >C</text></g>
<g><title>71 (position.label in template: 71.A)</title><text x="201.581" y="154.997" class="black" >A</text></g>
<g><title>72 (position.label in template: 72.G)</title><text x="209.142" y="154.997" class="black" >G</text></g>
<g><title>73 (position.label in template: 73.A)</title><text x="216.704" y="154.997" class="black" >A</text></g>
<g><title>74 (position.label in template: 74.A)</title><text x="224.266" y="154.997" class="black" >A</text></g>
<g><title>75 (position.label in template: 75.A)</title><text x="231.828" y="154.997" class="black" >A</text></g>
<g><title>76 (position.label in template: 76.C)</title><text x="239.39" y="154.997" class="black" >C</text></g>
<g><title>77 (position.label in template: 77.3')</title><text x="246.951" y="154.997" class="green" >3'</text></g>
<g><line x1="44.5016" y1="154.799" x2="47.9367" y2="154.799" class="gray" /></g>
<g><line x1="52.0633" y1="154.799" x2="55.4984" y2="154.799" class="gray" /></g>
<g><line x1="59.6251" y1="154.799" x2="63.0602" y2="154.799" class="gray" /></g>
<g><line x1="67.1869" y1="154.799" x2="70.622" y2="154.799" class="gray" /></g>
<g><line x1="74.7486" y1="154.799" x2="78.1837" y2="154.799" class="gray" /></g>
<g><line x1="82.3104" y1="154.799" x2="85.7455" y2="154.799" class="gray" /></g>
<g><line x1="89.8722" y1="154.799" x2="93.3073" y2="154.799" class="gray" /></g>
<g><line x1="97.434" y1="154.799" x2="100.869" y2="154.799" class="gray" /></g>
<g><line x1="104.996" y1="154.799" x2="108.431" y2="154.799" class="gray" /></g>
<g><line x1="112.557" y1="154.799" x2="115.993" y2="154.799" class="gray" /></g>
<g><line x1="120.119" y1="154.799" x2="123.554" y2="154.799" class="gray" /></g>
<g><line x1="127.681" y1="154.799" x2="131.116" y2="154.799" class="gray" /></g>
<g><line x1="135.243" y1="154.799" x2="138.678" y2="154.799" class="gray" /></g>
<g><line x1="142.805" y1="154.799" x2="146.24" y2="154.799" class="gray" /></g>
<g><line x1="150.366" y1="154.799" x2="153.801" y2="154.799" class="gray" /></g>
<g><line x1="157.293" y1="153.309" x2="159.67" y2="150.83" class="gray" /></g>
<g><line x1="161.098" y1="147.277" x2="161.098" y2="143.844" class="gray" /></g>
<g><line x1="161.098" y1="139.717" x2="161.098" y2="136.284" class="gray" /></g>
<g><line x1="161.098" y1="132.157" x2="161.098" y2="128.724" class="gray" /></g>
<g><line x1="161.156" y1="124.598" x2="161.251" y2="121.163" class="gray" /></g>
<g><line x1="161.251" y1="117.038" x2="161.156" y2="113.603" class="gray" /></g>
<g><line x1="160.1" y1="113.346" x2="158.487" y2="116.265" class="gray" /></g>
<g><line x1="156.101" y1="119.597" x2="153.796" y2="122.134" class="gray" /></g>
<g><line x1="150.753" y1="124.892" x2="148.134" y2="126.839" class="gray" /></g>
<g><line x1="144.581" y1="128.882" x2="141.245" y2="130.309" class="gray" /></g>
<g><line x1="137.328" y1="131.541" x2="133.968" y2="132.24" class="gray" /></g>
<g><line x1="129.885" y1="132.652" x2="126.652" y2="132.639" class="gray" /></g>
<g><line x1="122.567" y1="132.218" x2="118.81" y2="131.453" class="gray" /></g>
<g><line x1="114.926" y1="130.152" x2="112.171" y2="128.839" class="gray" /></g>
<g><line x1="108.642" y1="126.734" x2="105.865" y2="124.707" class="gray" /></g>
<g><line x1="102.788" y1="121.984" x2="100.348" y2="119.377" class="gray" /></g>
<g><line x1="97.9103" y1="116.082" x2="96.1965" y2="113.099" class="gray" /></g>
<g><line x1="94.4811" y1="109.365" x2="93.3156" y2="106.066" class="gray" /></g>
<g><line x1="92.527" y1="102.06" x2="92.3598" y2="98.6613" class="gray" /></g>
<g><line x1="92.4715" y1="94.5482" x2="92.8252" y2="91.1428" class="gray" /></g>
<g><line x1="93.6761" y1="87.1282" x2="94.7406" y2="83.8528" class="gray" /></g>
<g><line x1="96.3179" y1="80.0535" x2="97.7888" y2="77.1775" class="gray" /></g>
<g><line x1="100.167" y1="73.8619" x2="102.759" y2="71.1991" class="gray" /></g>
<g><line x1="105.844" y1="68.4763" x2="108.452" y2="66.5047" class="gray" /></g>
<g><line x1="111.981" y1="64.4172" x2="115.115" y2="63.0138" class="gray" /></g>
<g><line x1="119.015" y1="61.7339" x2="122.372" y2="61.0071" class="gray" /></g>
<g><line x1="126.452" y1="60.5652" x2="130.085" y2="60.5558" class="gray" /></g>
<g><line x1="134.169" y1="60.9703" x2="137.538" y2="61.6707" class="gray" /></g>
<g><line x1="141.446" y1="62.9227" x2="144.59" y2="64.3083" class="gray" /></g>
<g><line x1="148.134" y1="66.3718" x2="150.753" y2="68.3192" class="gray" /></g>
<g><line x1="153.796" y1="71.0775" x2="156.101" y2="73.6135" class="gray" /></g>
<g><line x1="158.487" y1="76.9463" x2="160.1" y2="79.8647" class="gray" /></g>
<g><line x1="161.156" y1="79.608" x2="161.251" y2="76.173" class="gray" /></g>
<g><line x1="161.308" y1="72.0472" x2="161.308" y2="68.6138" class="gray" /></g>
<g><line x1="160.38" y1="64.7077" x2="158.837" y2="61.6433" class="gray" /></g>
<g><line x1="158.612" y1="57.8609" x2="159.785" y2="54.6301" class="gray" /></g>
<g><line x1="162.382" y1="51.8718" x2="165.534" y2="50.5092" class="gray" /></g>
<g><line x1="169.331" y1="50.4888" x2="172.676" y2="51.8922" class="gray" /></g>
<g><line x1="175.231" y1="54.6479" x2="176.296" y2="57.8431" class="gray" /></g>
<g><line x1="176.067" y1="61.666" x2="174.64" y2="64.685" class="gray" /></g>
<g><line x1="173.644" y1="68.6107" x2="173.453" y2="72.0503" class="gray" /></g>
<g><line x1="173.396" y1="76.173" x2="173.491" y2="79.608" class="gray" /></g>
<g><line x1="175.222" y1="82.8773" x2="178.005" y2="84.8837" class="gray" /></g>
<g><line x1="180.571" y1="87.9507" x2="182.016" y2="90.9603" class="gray" /></g>
<g><line x1="183.023" y1="94.8807" x2="183.214" y2="98.3203" class="gray" /></g>
<g><line x1="182.346" y1="102.195" x2="180.661" y2="105.306" class="gray" /></g>
<g><line x1="177.986" y1="108.301" x2="175.031" y2="110.36" class="gray" /></g>
<g><line x1="173.453" y1="113.601" x2="173.644" y2="117.04" class="gray" /></g>
<g><line x1="173.701" y1="121.163" x2="173.606" y2="124.598" class="gray" /></g>
<g><line x1="173.548" y1="128.724" x2="173.548" y2="132.157" class="gray" /></g>
<g><line x1="173.548" y1="136.284" x2="173.548" y2="139.717" class="gray" /></g>
<g><line x1="173.548" y1="143.844" x2="173.548" y2="147.277" class="gray" /></g>
<g><line x1="175.007" y1="150.799" x2="177.436" y2="153.228" class="gray" /></g>
<g><line x1="180.959" y1="154.687" x2="184.394" y2="154.687" class="gray" /></g>
<g><line x1="188.52" y1="154.687" x2="191.956" y2="154.687" class="gray" /></g>
<g><line x1="196.082" y1="154.687" x2="199.517" y2="154.687" class="gray" /></g>
<g><line x1="203.644" y1="154.687" x2="207.079" y2="154.687" class="gray" /></g>
<g><line x1="211.206" y1="154.687" x2="214.641" y2="154.687" class="gray" /></g>
<g><line x1="218.768" y1="154.687" x2="222.203" y2="154.687" class="gray" /></g>
<g><line x1="226.329" y1="154.687" x2="229.764" y2="154.687" class="gray" /></g>
<g><line x1="233.891" y1="154.687" x2="237.326" y2="154.687" class="gray" /></g>
<g><line x1="241.453" y1="154.687" x2="244.888" y2="154.687" class="gray" /></g>
</svg>
