<svg
	xmlns="http://www.w3.org/2000/svg"
	width="225.5"
	height="241.05">
<g><style type="text/css" >
<!-- create color definitions -->
<![CDATA[
circle.red {stroke: rgb(255, 0, 255); fill: none; }
circle.green {stroke: rgb(0, 255, 0); fill: none; }
circle.blue {stroke: rgb(0, 0, 255); fill: none; }
circle.black {stroke: rgb(0, 0, 0); fill: none; }
circle.gray {stroke: rgb(204, 204, 204); fill: none; }
circle.brown {stroke: rgb(211.65, 104.55, 30.6); fill: none; }
line.red {stroke: rgb(255, 0, 255); stroke-width: 0.381961; }
line.green {stroke: rgb(0, 255, 0); stroke-width: 0.381961; }
line.blue {stroke: rgb(0, 0, 255); stroke-width: 0.381961; }
line.black {stroke: rgb(0, 0, 0); stroke-width: 0.381961; }
line.gray {stroke: rgb(204, 204, 204); stroke-width: 0.381961; }
line.brown {stroke: rgb(211.65, 104.55, 30.6); stroke-width: 0.381961; }
line {stroke: rgb(0, 0, 0); }
text.red {fill: rgb(255, 0, 255); font-size: 3.055686px; font-weight: bold; font-family: Helvetica; }
text.green {fill: rgb(0, 255, 0); font-size: 3.055686px; font-weight: bold; font-family: Helvetica; }
text.blue {fill: rgb(0, 0, 255); font-size: 3.055686px; font-weight: bold; font-family: Helvetica; }
text.black {fill: rgb(0, 0, 0); font-size: 3.055686px; font-weight: bold; font-family: Helvetica; }
text.gray {fill: rgb(204, 204, 204); font-size: 3.055686px; font-weight: bold; font-family: Helvetica; }
text.brown {fill: rgb(211.65, 104.55, 30.6); font-size: 3.055686px; font-weight: bold; font-family: Helvetica; }
text {fill: rgb(0, 0, 0); font-size: 3.055686px; font-weight: bold; font-family: Helvetica; text-anchor: middle; alignment-baseline: middle; }

.pseudoknot_connection{stroke-linecap: round; stroke-opacity: 0.2; stroke-width: 1.5; }
.pseudoknot_segment1{stroke-linecap: round; stroke-opacity: 0.4; stroke-width: 3.05569; }
.pseudoknot_segment2{stroke-linecap: round; stroke-opacity: 0.4; stroke-width: 3.05569; }
line.numbering-line{stroke: rgb(204, 204, 204); stroke-width: 0.19098; }
line.predicted{stroke: rgb(0, 0, 0); stroke-dasharray: 2; }
polyline{fill: none; stroke-linejoin: round; }
template{visibility: hidden; }
text.numbering-label{fill: rgb(204, 204, 204); }
]]>
</style></g>
<g><title>0 (position.label in template: 0.5')</title><text x="108.4" y="193.265" class="green" >5'</text></g>
<g><title>1 (position.label in template: 1.U)</title><text x="108.4" y="185.72" class="green" >T</text></g>
<g><line x1="110.437" y1="185.414" x2="118.803" y2="185.414" class="black" /></g>
<g><title>2 (position.label in template: 2.C)</title><text x="108.4" y="178.16" class="black" >C</text></g>
<g><line x1="110.437" y1="177.854" x2="118.393" y2="177.854" class="black" /></g>
<g><title>3 (position.label in template: 3.C)</title><text x="108.4" y="170.6" class="black" >C</text></g>
<g><line x1="110.437" y1="170.294" x2="118.393" y2="170.294" class="black" /></g>
<g><title>4 (position.label in template: 4.C)</title><text x="108.4" y="163.04" class="black" >C</text></g>
<g><line x1="110.437" y1="162.734" x2="118.393" y2="162.734" class="black" /></g>
<g><title>5 (position.label in template: 5.U)</title><text x="105.3" y="156.14" class="green" >T</text></g>
<g><title>6 (position.label in template: 6.G)</title><text x="108.19" y="149.25" class="green" >G</text></g>
<g><line x1="110.227" y1="148.944" x2="118.603" y2="148.944" class="black" /></g>
<g><title>7 (position.label in template: 7.G)</title><text x="108.19" y="141.69" class="black" >G</text></g>
<g><line x1="110.227" y1="141.384" x2="118.603" y2="141.384" class="black" /></g>
<g><title>8 (position.label in template: 8.U)</title><text x="101.66" y="138.25" class="green" >T</text></g>
<g><title>9 (position.label in template: 9.G)</title><text x="96.35" y="132.67" class="black" >G</text></g>
<g><title>10 (position.label in template: 10.G)</title><text x="93.53" y="125.66" class="green" >G</text></g>
<g><line x1="93.7477" y1="123.329" x2="94.6223" y2="115.19" class="black" /></g>
<g><text x="89.3755" y="131.138" class="numbering-label sequential" >10</text></g>
<g><line x1="92.4221" y1="127.121" x2="90.5342" y2="129.61" class="numbering-line sequential" /></g>
<g><title>11 (position.label in template: 11.C)</title><text x="86.21" y="124.98" class="black" >C</text></g>
<g><line x1="86.3583" y1="122.643" x2="86.9517" y2="114.516" class="black" /></g>
<g><title>12 (position.label in template: 12.U)</title><text x="78.68" y="124.3" class="green" >T</text></g>
<g><line x1="78.8977" y1="121.969" x2="79.7723" y2="113.83" class="black" /></g>
<g><title>13 (position.label in template: 13.C)</title><text x="73.55" y="129.85" class="black" >C</text></g>
<g><title>14 (position.label in template: 14.A)</title><text x="66.59" y="132.27" class="black" >A</text></g>
<g><title>15 (position.label in template: 15.G)</title><text x="58.72" y="130.99" class="black" >G</text></g>
<g><title>16 (position.label in template: 16.A)</title><text x="53.2" y="126.32" class="black" >A</text></g>
<g><title>17 (position.label in template: 17.U)</title><text x="50" y="119.38" class="green" >T</text></g>
<g><title>18 (position.label in template: 18.G)</title><text x="50.47" y="111.85" class="black" >G</text></g>
<g><title>19 (position.label in template: 19.G)</title><text x="54.65" y="105.55" class="black" >G</text></g>
<g><title>20 (position.label in template: 20.U)</title><text x="61.54" y="102.01" class="green" >T</text></g>
<g><text x="59.9554" y="95.3198" class="numbering-label sequential" >20</text></g>
<g><line x1="61.1174" y1="100.226" x2="60.3172" y2="96.8477" class="numbering-line sequential" /></g>
<g><title>21 (position.label in template: 21.A)</title><text x="69.3" y="102.08" class="black" >A</text></g>
<g><title>22 (position.label in template: 22.A)</title><text x="75.92" y="105.74" class="black" >A</text></g>
<g><title>23 (position.label in template: 23.A)</title><text x="79.99" y="112.11" class="green" >A</text></g>
<g><title>24 (position.label in template: 24.G)</title><text x="87.1" y="112.79" class="black" >G</text></g>
<g><title>25 (position.label in template: 25.U)</title><text x="94.84" y="113.47" class="green" >T</text></g>
<g><title>26 (position.label in template: 26.G)</title><text x="98.65" y="107.07" class="black" >G</text></g>
<g><title>27 (position.label in template: 27.U)</title><text x="104.88" y="102.48" class="green" >T</text></g>
<g><line x1="106.883" y1="101.805" x2="114.707" y2="100.364" class="black" /></g>
<g><title>28 (position.label in template: 28.C)</title><text x="103.53" y="95.05" class="black" >C</text></g>
<g><line x1="105.533" y1="94.3736" x2="113.357" y2="92.9252" class="black" /></g>
<g><title>29 (position.label in template: 29.U)</title><text x="102.18" y="87.61" class="green" >T</text></g>
<g><line x1="104.186" y1="86.9475" x2="112.424" y2="85.4813" class="black" /></g>
<g><title>30 (position.label in template: 30.G)</title><text x="100.63" y="80.17" class="black" >G</text></g>
<g><line x1="102.636" y1="79.5075" x2="110.874" y2="78.0413" class="black" /></g>
<g><text x="93.8644" y="81.3931" class="numbering-label sequential" >30</text></g>
<g><line x1="98.8258" y1="80.4962" x2="95.6978" y2="81.0616" class="numbering-line sequential" /></g>
<g><title>31 (position.label in template: 31.C)</title><text x="99.49" y="72.73" class="black" >C</text></g>
<g><line x1="101.493" y1="72.0553" x2="109.317" y2="70.6136" class="black" /></g>
<g><title>32 (position.label in template: 32.C)</title><text x="93.65" y="67.92" class="black" >C</text></g>
<g><title>33 (position.label in template: 33.U)</title><text x="91.91" y="60.57" class="green" >T</text></g>
<g><title>34 (position.label in template: 34.G)</title><text x="94.76" y="53.66" class="black" >G</text></g>
<g><title>35 (position.label in template: 35.C)</title><text x="101.59" y="50" class="black" >C</text></g>
<g><title>36 (position.label in template: 36.A)</title><text x="109.28" y="51.1" class="black" >A</text></g>
<g><title>37 (position.label in template: 37.A)</title><text x="114.57" y="56.5" class="black" >A</text></g>
<g><title>38 (position.label in template: 38.U)</title><text x="115.31" y="64" class="green" >T</text></g>
<g><title>39 (position.label in template: 39.G)</title><text x="111.32" y="70.55" class="black" >G</text></g>
<g><title>40 (position.label in template: 40.C)</title><text x="112.88" y="77.99" class="black" >C</text></g>
<g><title>41 (position.label in template: 41.A)</title><text x="114.43" y="85.43" class="green" >A</text></g>
<g><title>42 (position.label in template: 42.G)</title><text x="115.36" y="92.86" class="black" >G</text></g>
<g><title>43 (position.label in template: 43.G)</title><text x="116.71" y="100.3" class="green" >G</text></g>
<g><title>44 (position.label in template: 44.U)</title><text x="124.16" y="102.48" class="green" >T</text></g>
<g><title>45 (position.label in template: 45.G)</title><text x="129.96" y="107.07" class="black" >G</text></g>
<g><title>46 (position.label in template: 46.A)</title><text x="134.4" y="113.47" class="black" >A</text></g>
<g><title>47 (position.label in template: 47.C)</title><text x="135.72" y="120.87" class="black" >C</text></g>
<g><title>48 (position.label in template: 48.C)</title><text x="134.55" y="128.34" class="black" >C</text></g>
<g><line x1="133.332" y1="129.667" x2="128.378" y2="136.311" class="black" /></g>
<g><title>49 (position.label in template: 49.U)</title><text x="140.68" y="132.77" class="green" >T</text></g>
<g><line x1="139.462" y1="134.097" x2="134.498" y2="140.752" class="black" /></g>
<g><title>50 (position.label in template: 50.G)</title><text x="146.59" y="137.21" class="green" >G</text></g>
<g><line x1="145.418" y1="138.571" x2="140.792" y2="145.148" class="black" /></g>
<g><text x="150.673" y="131.678" class="numbering-label sequential" >50</text></g>
<g><line x1="147.679" y1="135.735" x2="149.545" y2="133.206" class="numbering-line sequential" /></g>
<g><title>51 (position.label in template: 51.G)</title><text x="152.71" y="141.65" class="black" >G</text></g>
<g><line x1="151.538" y1="143.011" x2="146.912" y2="149.588" class="black" /></g>
<g><title>52 (position.label in template: 52.G)</title><text x="158.83" y="146.08" class="black" >G</text></g>
<g><line x1="157.658" y1="147.441" x2="153.032" y2="154.018" class="black" /></g>
<g><title>53 (position.label in template: 53.U)</title><text x="166.58" y="145.51" class="green" >T</text></g>
<g><title>54 (position.label in template: 54.U)</title><text x="172.93" y="149.61" class="green" >T</text></g>
<g><title>55 (position.label in template: 55.C)</title><text x="175.5" y="156.72" class="black" >C</text></g>
<g><title>56 (position.label in template: 56.A)</title><text x="173.46" y="163.94" class="black" >A</text></g>
<g><title>57 (position.label in template: 57.A)</title><text x="167.3" y="168.33" class="black" >A</text></g>
<g><title>58 (position.label in template: 58.U)</title><text x="159.54" y="168.09" class="green" >T</text></g>
<g><title>59 (position.label in template: 59.C)</title><text x="153.66" y="163.34" class="black" >C</text></g>
<g><title>60 (position.label in template: 60.C)</title><text x="151.86" y="155.99" class="black" >C</text></g>
<g><title>61 (position.label in template: 61.C)</title><text x="145.74" y="151.56" class="black" >C</text></g>
<g><title>62 (position.label in template: 62.U)</title><text x="139.62" y="147.12" class="green" >T</text></g>
<g><title>63 (position.label in template: 63.G)</title><text x="133.28" y="142.69" class="green" >G</text></g>
<g><title>64 (position.label in template: 64.G)</title><text x="127.16" y="138.25" class="black" >G</text></g>
<g><title>65 (position.label in template: 65.C)</title><text x="120.64" y="141.69" class="black" >C</text></g>
<g><title>66 (position.label in template: 66.U)</title><text x="120.64" y="149.25" class="green" >T</text></g>
<g><title>67 (position.label in template: 67.U)</title><text x="123.74" y="156.14" class="green" >T</text></g>
<g><title>68 (position.label in template: 68.G)</title><text x="120.43" y="163.04" class="black" >G</text></g>
<g><title>69 (position.label in template: 69.G)</title><text x="120.43" y="170.6" class="black" >G</text></g>
<g><title>70 (position.label in template: 70.G)</title><text x="120.43" y="178.16" class="black" >G</text></g>
<g><title>71 (position.label in template: 71.A)</title><text x="120.84" y="185.72" class="green" >A</text></g>
<g><title>72 (position.label in template: 72.A)</title><text x="126.18" y="191.05" class="black" >A</text></g>
<g><title>73 (position.label in template: 73.3')</title><text x="126.707" y="198.577" class="green" >3'</text></g>
<g><line x1="108.4" y1="190.923" x2="108.4" y2="187.452" class="gray" /></g>
<g><line x1="108.4" y1="183.377" x2="108.4" y2="179.892" class="gray" /></g>
<g><line x1="108.4" y1="175.817" x2="108.4" y2="172.332" class="gray" /></g>
<g><line x1="108.4" y1="168.257" x2="108.4" y2="164.772" class="gray" /></g>
<g><line x1="107.565" y1="160.876" x2="106.135" y2="157.693" class="gray" /></g>
<g><line x1="106.088" y1="153.956" x2="107.402" y2="150.823" class="gray" /></g>
<g><line x1="108.19" y1="146.907" x2="108.19" y2="143.422" class="gray" /></g>
<g><line x1="106.388" y1="140.435" x2="103.462" y2="138.894" class="gray" /></g>
<g><line x1="100.256" y1="136.469" x2="97.7543" y2="133.84" class="gray" /></g>
<g><line x1="95.5897" y1="130.475" x2="94.2903" y2="127.244" class="gray" /></g>
<g><line x1="91.5016" y1="125.166" x2="88.2384" y2="124.863" class="gray" /></g>
<g><line x1="84.1811" y1="124.491" x2="80.7089" y2="124.178" class="gray" /></g>
<g><line x1="77.2973" y1="125.49" x2="74.9327" y2="128.048" class="gray" /></g>
<g><line x1="71.6259" y1="130.213" x2="68.5141" y2="131.295" class="gray" /></g>
<g><line x1="64.5793" y1="131.637" x2="60.7307" y2="131.011" class="gray" /></g>
<g><line x1="57.1648" y1="129.369" x2="54.7552" y2="127.33" class="gray" /></g>
<g><line x1="52.347" y1="124.164" x2="50.853" y2="120.924" class="gray" /></g>
<g><line x1="50.1269" y1="117.041" x2="50.3431" y2="113.578" class="gray" /></g>
<g><line x1="51.5963" y1="109.847" x2="53.5237" y2="106.942" class="gray" /></g>
<g><line x1="56.462" y1="104.313" x2="59.728" y2="102.635" class="gray" /></g>
<g><line x1="63.577" y1="101.723" x2="67.263" y2="101.756" class="gray" /></g>
<g><line x1="71.0828" y1="102.76" x2="74.1372" y2="104.449" class="gray" /></g>
<g><line x1="77.0168" y1="107.151" x2="78.8932" y2="110.088" class="gray" /></g>
<g><line x1="82.0179" y1="111.998" x2="85.0721" y2="112.29" class="gray" /></g>
<g><line x1="89.1293" y1="112.663" x2="92.8107" y2="112.986" class="gray" /></g>
<g><line x1="95.8821" y1="111.414" x2="97.6079" y2="108.515" class="gray" /></g>
<g><line x1="100.29" y1="105.556" x2="103.24" y2="103.383" class="gray" /></g>
<g><line x1="104.516" y1="100.17" x2="103.894" y2="96.7487" class="gray" /></g>
<g><line x1="103.166" y1="92.74" x2="102.544" y2="89.3088" class="gray" /></g>
<g><line x1="101.765" y1="85.3101" x2="101.045" y2="81.8587" class="gray" /></g>
<g><line x1="100.321" y1="77.8508" x2="99.7985" y2="74.4381" class="gray" /></g>
<g><line x1="97.9176" y1="71.1293" x2="95.2224" y2="68.9095" class="gray" /></g>
<g><line x1="93.1807" y1="65.6321" x2="92.3793" y2="62.2468" class="gray" /></g>
<g><line x1="92.6867" y1="58.3812" x2="93.9833" y2="55.2377" class="gray" /></g>
<g><line x1="96.5556" y1="52.3922" x2="99.7944" y2="50.6566" class="gray" /></g>
<g><line x1="103.607" y1="49.9829" x2="107.263" y2="50.506" class="gray" /></g>
<g><line x1="110.706" y1="52.2496" x2="113.144" y2="54.7392" class="gray" /></g>
<g><line x1="114.77" y1="58.2217" x2="115.11" y2="61.6672" class="gray" /></g>
<g><line x1="114.25" y1="65.4342" x2="112.38" y2="68.5047" class="gray" /></g>
<g><line x1="111.738" y1="72.2382" x2="112.462" y2="75.6907" class="gray" /></g>
<g><line x1="113.295" y1="79.6787" x2="114.015" y2="83.1301" class="gray" /></g>
<g><line x1="114.683" y1="87.1458" x2="115.107" y2="90.5331" class="gray" /></g>
<g><line x1="115.724" y1="94.5588" x2="116.346" y2="97.99" class="gray" /></g>
<g><line x1="118.665" y1="100.567" x2="122.205" y2="101.602" class="gray" /></g>
<g><line x1="125.757" y1="103.439" x2="128.363" y2="105.5" class="gray" /></g>
<g><line x1="131.121" y1="108.438" x2="133.239" y2="111.491" class="gray" /></g>
<g><line x1="134.758" y1="115.17" x2="135.362" y2="118.559" class="gray" /></g>
<g><line x1="135.405" y1="122.577" x2="134.865" y2="126.022" class="gray" /></g>
<g><line x1="136.201" y1="129.228" x2="139.029" y2="131.271" class="gray" /></g>
<g><line x1="142.309" y1="133.688" x2="144.961" y2="135.681" class="gray" /></g>
<g><line x1="148.239" y1="138.101" x2="151.061" y2="140.148" class="gray" /></g>
<g><line x1="154.36" y1="142.539" x2="157.18" y2="144.58" class="gray" /></g>
<g><line x1="160.862" y1="145.625" x2="164.548" y2="145.354" class="gray" /></g>
<g><line x1="168.291" y1="146.309" x2="171.219" y2="148.199" class="gray" /></g>
<g><line x1="173.622" y1="151.22" x2="174.808" y2="154.499" class="gray" /></g>
<g><line x1="174.946" y1="158.375" x2="174.014" y2="161.674" class="gray" /></g>
<g><line x1="171.801" y1="164.817" x2="168.959" y2="166.842" class="gray" /></g>
<g><line x1="165.264" y1="167.961" x2="161.576" y2="167.847" class="gray" /></g>
<g><line x1="157.955" y1="166.504" x2="155.245" y2="164.315" class="gray" /></g>
<g><line x1="153.175" y1="161.056" x2="152.345" y2="157.663" class="gray" /></g>
<g><line x1="150.21" y1="154.49" x2="147.39" y2="152.449" class="gray" /></g>
<g><line x1="144.091" y1="150.058" x2="141.269" y2="148.011" class="gray" /></g>
<g><line x1="137.95" y1="145.648" x2="134.95" y2="143.551" class="gray" /></g>
<g><line x1="131.631" y1="141.188" x2="128.809" y2="139.141" class="gray" /></g>
<g><line x1="125.358" y1="138.895" x2="122.442" y2="140.434" class="gray" /></g>
<g><line x1="120.64" y1="143.422" x2="120.64" y2="146.907" class="gray" /></g>
<g><line x1="121.476" y1="150.802" x2="122.904" y2="153.977" class="gray" /></g>
<g><line x1="122.859" y1="157.671" x2="121.311" y2="160.898" class="gray" /></g>
<g><line x1="120.43" y1="164.772" x2="120.43" y2="168.257" class="gray" /></g>
<g><line x1="120.43" y1="172.332" x2="120.43" y2="175.817" class="gray" /></g>
<g><line x1="120.54" y1="179.889" x2="120.73" y2="183.38" class="gray" /></g>
<g><line x1="122.282" y1="186.854" x2="124.739" y2="189.306" class="gray" /></g>
<g><line x1="126.322" y1="192.777" x2="126.564" y2="196.24" class="gray" /></g>
</svg>
