<svg
	xmlns="http://www.w3.org/2000/svg"
	width="227.78"
	height="234.821">
<g><style type="text/css" >
<!-- create color definitions -->
<![CDATA[
circle.red {stroke: rgb(255, 0, 255); fill: none; }
circle.green {stroke: rgb(0, 255, 0); fill: none; }
circle.blue {stroke: rgb(0, 0, 255); fill: none; }
circle.black {stroke: rgb(0, 0, 0); fill: none; }
circle.gray {stroke: rgb(204, 204, 204); fill: none; }
circle.brown {stroke: rgb(211.65, 104.55, 30.6); fill: none; }
line.red {stroke: rgb(255, 0, 255); stroke-width: 0.381418; }
line.green {stroke: rgb(0, 255, 0); stroke-width: 0.381418; }
line.blue {stroke: rgb(0, 0, 255); stroke-width: 0.381418; }
line.black {stroke: rgb(0, 0, 0); stroke-width: 0.381418; }
line.gray {stroke: rgb(204, 204, 204); stroke-width: 0.381418; }
line.brown {stroke: rgb(211.65, 104.55, 30.6); stroke-width: 0.381418; }
line {stroke: rgb(0, 0, 0); }
text.red {fill: rgb(255, 0, 255); font-size: 3.051346px; font-weight: bold; font-family: Helvetica; }
text.green {fill: rgb(0, 255, 0); font-size: 3.051346px; font-weight: bold; font-family: Helvetica; }
text.blue {fill: rgb(0, 0, 255); font-size: 3.051346px; font-weight: bold; font-family: Helvetica; }
text.black {fill: rgb(0, 0, 0); font-size: 3.051346px; font-weight: bold; font-family: Helvetica; }
text.gray {fill: rgb(204, 204, 204); font-size: 3.051346px; font-weight: bold; font-family: Helvetica; }
text.brown {fill: rgb(211.65, 104.55, 30.6); font-size: 3.051346px; font-weight: bold; font-family: Helvetica; }
text {fill: rgb(0, 0, 0); font-size: 3.051346px; font-weight: bold; font-family: Helvetica; text-anchor: middle; alignment-baseline: middle; }

.pseudoknot_connection{stroke-linecap: round; stroke-opacity: 0.2; stroke-width: 1.5; }
.pseudoknot_segment1{stroke-linecap: round; stroke-opacity: 0.4; stroke-width: 3.05135; }
.pseudoknot_segment2{stroke-linecap: round; stroke-opacity: 0.4; stroke-width: 3.05135; }
line.numbering-line{stroke: rgb(204, 204, 204); stroke-width: 0.190709; }
line.predicted{stroke: rgb(0, 0, 0); stroke-dasharray: 2; }
polyline{fill: none; stroke-linejoin: round; }
template{visibility: hidden; }
text.numbering-label{fill: rgb(204, 204, 204); }
]]>
</style></g>
<g><title>0 (position.label in template: 0.5')</title><text x="110.67" y="187.036" class="green" >5'</text></g>
<g><title>1 (position.label in template: 1.U)</title><text x="110.67" y="179.49" class="green" >T</text></g>
<g><line x1="112.704" y1="179.185" x2="121.086" y2="179.185" class="black" /></g>
<g><title>2 (position.label in template: 2.U)</title><text x="110.67" y="171.93" class="green" >T</text></g>
<g><line x1="112.704" y1="171.625" x2="120.666" y2="171.625" class="black" /></g>
<g><title>3 (position.label in template: 3.C)</title><text x="110.67" y="164.37" class="black" >C</text></g>
<g><line x1="112.704" y1="164.065" x2="120.666" y2="164.065" class="black" /></g>
<g><title>4 (position.label in template: 4.U)</title><text x="110.67" y="156.81" class="green" >T</text></g>
<g><line x1="112.704" y1="156.505" x2="120.666" y2="156.505" class="black" /></g>
<g><title>5 (position.label in template: 5.G)</title><text x="110.46" y="149.25" class="black" >G</text></g>
<g><line x1="112.494" y1="148.945" x2="120.876" y2="148.945" class="black" /></g>
<g><title>6 (position.label in template: 6.A)</title><text x="110.88" y="141.69" class="green" >A</text></g>
<g><line x1="112.914" y1="141.385" x2="120.876" y2="141.385" class="black" /></g>
<g><title>7 (position.label in template: 7.U)</title><text x="103.94" y="138.25" class="green" >T</text></g>
<g><title>8 (position.label in template: 8.G)</title><text x="98.63" y="132.67" class="black" >G</text></g>
<g><title>9 (position.label in template: 9.G)</title><text x="95.81" y="125.66" class="black" >G</text></g>
<g><line x1="96.0257" y1="123.332" x2="96.8943" y2="115.188" class="black" /></g>
<g><title>10 (position.label in template: 10.C)</title><text x="88.49" y="124.98" class="black" >C</text></g>
<g><line x1="88.6365" y1="122.646" x2="89.2235" y2="114.514" class="black" /></g>
<g><text x="87.8639" y="131.817" class="numbering-label sequential" >10</text></g>
<g><line x1="88.323" y1="126.803" x2="88.0036" y2="130.291" class="numbering-line sequential" /></g>
<g><title>11 (position.label in template: 11.U)</title><text x="80.96" y="124.3" class="green" >T</text></g>
<g><line x1="81.1757" y1="121.972" x2="82.0443" y2="113.828" class="black" /></g>
<g><title>12 (position.label in template: 12.C)</title><text x="73.43" y="123.63" class="black" >C</text></g>
<g><line x1="73.6457" y1="121.302" x2="74.5143" y2="113.158" class="black" /></g>
<g><title>13 (position.label in template: 13.A)</title><text x="67.84" y="128.48" class="black" >A</text></g>
<g><title>14 (position.label in template: 14.G)</title><text x="59.91" y="129.29" class="black" >G</text></g>
<g><title>15 (position.label in template: 15.A)</title><text x="53.62" y="125.79" class="black" >A</text></g>
<g><title>16 (position.label in template: 16.A)</title><text x="50" y="119.15" class="black" >A</text></g>
<g><title>17 (position.label in template: 17.G)</title><text x="50.26" y="111.63" class="black" >G</text></g>
<g><title>18 (position.label in template: 18.U)</title><text x="55.22" y="105.74" class="green" >T</text></g>
<g><title>19 (position.label in template: 19.U)</title><text x="62.43" y="103.49" class="green" >T</text></g>
<g><title>20 (position.label in template: 20.A)</title><text x="69.89" y="105.63" class="black" >A</text></g>
<g><text x="73.6168" y="99.864" class="numbering-label sequential" >20</text></g>
<g><line x1="70.8838" y1="104.092" x2="72.6307" y2="101.39" class="numbering-line sequential" /></g>
<g><title>21 (position.label in template: 21.A)</title><text x="74.73" y="111.44" class="black" >A</text></g>
<g><title>22 (position.label in template: 22.A)</title><text x="82.26" y="112.11" class="green" >A</text></g>
<g><title>23 (position.label in template: 23.G)</title><text x="89.37" y="112.79" class="black" >G</text></g>
<g><title>24 (position.label in template: 24.C)</title><text x="97.11" y="113.47" class="black" >C</text></g>
<g><title>25 (position.label in template: 25.G)</title><text x="100.93" y="107.07" class="black" >G</text></g>
<g><title>26 (position.label in template: 26.U)</title><text x="107.15" y="102.48" class="green" >T</text></g>
<g><line x1="109.151" y1="101.807" x2="116.989" y2="100.363" class="black" /></g>
<g><title>27 (position.label in template: 27.C)</title><text x="105.8" y="95.05" class="black" >C</text></g>
<g><line x1="107.8" y1="94.3749" x2="115.64" y2="92.9249" class="black" /></g>
<g><title>28 (position.label in template: 28.U)</title><text x="104.46" y="87.61" class="green" >T</text></g>
<g><line x1="106.463" y1="86.9485" x2="114.707" y2="85.4813" class="black" /></g>
<g><title>29 (position.label in template: 29.G)</title><text x="102.9" y="80.17" class="black" >G</text></g>
<g><line x1="104.903" y1="79.5085" x2="113.147" y2="78.0413" class="black" /></g>
<g><title>30 (position.label in template: 30.C)</title><text x="101.76" y="72.73" class="black" >C</text></g>
<g><line x1="103.761" y1="72.0565" x2="111.599" y2="70.6132" class="black" /></g>
<g><text x="95.7928" y="76.1252" class="numbering-label sequential" >30</text></g>
<g><line x1="100.169" y1="73.6354" x2="97.6236" y2="75.0835" class="numbering-line sequential" /></g>
<g><title>31 (position.label in template: 31.C)</title><text x="95.93" y="67.92" class="black" >C</text></g>
<g><title>32 (position.label in template: 32.U)</title><text x="94.18" y="60.57" class="green" >T</text></g>
<g><title>33 (position.label in template: 33.G)</title><text x="97.04" y="53.66" class="black" >G</text></g>
<g><title>34 (position.label in template: 34.C)</title><text x="103.87" y="50" class="black" >C</text></g>
<g><title>35 (position.label in template: 35.A)</title><text x="111.55" y="51.1" class="black" >A</text></g>
<g><title>36 (position.label in template: 36.A)</title><text x="116.85" y="56.5" class="black" >A</text></g>
<g><title>37 (position.label in template: 37.U)</title><text x="117.59" y="64" class="green" >T</text></g>
<g><title>38 (position.label in template: 38.G)</title><text x="113.6" y="70.55" class="black" >G</text></g>
<g><title>39 (position.label in template: 39.C)</title><text x="115.15" y="77.99" class="black" >C</text></g>
<g><title>40 (position.label in template: 40.A)</title><text x="116.71" y="85.43" class="green" >A</text></g>
<g><title>41 (position.label in template: 41.G)</title><text x="117.64" y="92.86" class="black" >G</text></g>
<g><title>42 (position.label in template: 42.G)</title><text x="118.99" y="100.3" class="green" >G</text></g>
<g><title>43 (position.label in template: 43.A)</title><text x="126.64" y="102.48" class="black" >A</text></g>
<g><title>44 (position.label in template: 44.G)</title><text x="132.24" y="107.07" class="black" >G</text></g>
<g><title>45 (position.label in template: 45.A)</title><text x="136.68" y="113.47" class="black" >A</text></g>
<g><title>46 (position.label in template: 46.C)</title><text x="138" y="120.87" class="black" >C</text></g>
<g><title>47 (position.label in template: 47.C)</title><text x="136.83" y="128.34" class="black" >C</text></g>
<g><line x1="135.614" y1="129.666" x2="130.656" y2="136.314" class="black" /></g>
<g><title>48 (position.label in template: 48.U)</title><text x="142.95" y="132.77" class="green" >T</text></g>
<g><line x1="141.735" y1="134.096" x2="136.775" y2="140.754" class="black" /></g>
<g><title>49 (position.label in template: 49.G)</title><text x="148.86" y="137.21" class="green" >G</text></g>
<g><line x1="147.69" y1="138.569" x2="143.06" y2="145.151" class="black" /></g>
<g><title>50 (position.label in template: 50.G)</title><text x="154.98" y="141.65" class="black" >G</text></g>
<g><line x1="153.81" y1="143.009" x2="149.18" y2="149.591" class="black" /></g>
<g><text x="159.006" y="136.089" class="numbering-label sequential" >50</text></g>
<g><line x1="156.054" y1="140.167" x2="157.902" y2="137.615" class="numbering-line sequential" /></g>
<g><title>51 (position.label in template: 51.G)</title><text x="161.11" y="146.08" class="black" >G</text></g>
<g><line x1="159.939" y1="147.438" x2="155.301" y2="154.022" class="black" /></g>
<g><title>52 (position.label in template: 52.U)</title><text x="168.85" y="145.51" class="green" >T</text></g>
<g><title>53 (position.label in template: 53.U)</title><text x="175.2" y="149.61" class="green" >T</text></g>
<g><title>54 (position.label in template: 54.C)</title><text x="177.78" y="156.72" class="black" >C</text></g>
<g><title>55 (position.label in template: 55.A)</title><text x="175.73" y="163.94" class="black" >A</text></g>
<g><title>56 (position.label in template: 56.A)</title><text x="169.58" y="168.33" class="black" >A</text></g>
<g><title>57 (position.label in template: 57.U)</title><text x="161.81" y="168.09" class="green" >T</text></g>
<g><title>58 (position.label in template: 58.C)</title><text x="155.94" y="163.34" class="black" >C</text></g>
<g><title>59 (position.label in template: 59.C)</title><text x="154.13" y="155.99" class="black" >C</text></g>
<g><title>60 (position.label in template: 60.C)</title><text x="148.01" y="151.56" class="black" >C</text></g>
<g><title>61 (position.label in template: 61.U)</title><text x="141.89" y="147.12" class="green" >T</text></g>
<g><title>62 (position.label in template: 62.G)</title><text x="135.56" y="142.69" class="green" >G</text></g>
<g><title>63 (position.label in template: 63.G)</title><text x="128.66" y="145.77" class="black" >G</text></g>
<g><title>64 (position.label in template: 64.G)</title><text x="129.44" y="138.25" class="black" >G</text></g>
<g><title>65 (position.label in template: 65.U)</title><text x="122.91" y="141.69" class="green" >T</text></g>
<g><title>66 (position.label in template: 66.C)</title><text x="122.91" y="149.25" class="black" >C</text></g>
<g><title>67 (position.label in template: 67.G)</title><text x="122.7" y="156.81" class="green" >G</text></g>
<g><title>68 (position.label in template: 68.G)</title><text x="122.7" y="164.37" class="black" >G</text></g>
<g><title>69 (position.label in template: 69.G)</title><text x="122.7" y="171.93" class="green" >G</text></g>
<g><title>70 (position.label in template: 70.A)</title><text x="123.12" y="179.49" class="green" >A</text></g>
<g><title>71 (position.label in template: 71.A)</title><text x="128.461" y="184.821" class="black" >A</text></g>
<g><title>72 (position.label in template: 72.3')</title><text x="128.423" y="192.367" class="green" >3'</text></g>
<g><line x1="110.67" y1="184.697" x2="110.67" y2="181.219" class="gray" /></g>
<g><line x1="110.67" y1="177.151" x2="110.67" y2="173.659" class="gray" /></g>
<g><line x1="110.67" y1="169.591" x2="110.67" y2="166.099" class="gray" /></g>
<g><line x1="110.67" y1="162.031" x2="110.67" y2="158.539" class="gray" /></g>
<g><line x1="110.614" y1="154.471" x2="110.516" y2="150.978" class="gray" /></g>
<g><line x1="110.573" y1="146.914" x2="110.767" y2="143.416" class="gray" /></g>
<g><line x1="109.057" y1="140.481" x2="105.763" y2="138.848" class="gray" /></g>
<g><line x1="102.538" y1="136.471" x2="100.032" y2="133.838" class="gray" /></g>
<g><line x1="97.8708" y1="130.478" x2="96.5692" y2="127.242" class="gray" /></g>
<g><line x1="93.7845" y1="125.167" x2="90.5155" y2="124.863" class="gray" /></g>
<g><line x1="86.464" y1="124.492" x2="82.986" y2="124.178" class="gray" /></g>
<g><line x1="78.9338" y1="123.815" x2="75.4562" y2="123.505" class="gray" /></g>
<g><line x1="71.8935" y1="124.658" x2="69.3765" y2="126.842" class="gray" /></g>
<g><line x1="65.8163" y1="128.382" x2="61.9337" y2="128.778" class="gray" /></g>
<g><line x1="58.1324" y1="127.996" x2="55.3976" y2="126.474" class="gray" /></g>
<g><line x1="52.6463" y1="123.699" x2="50.9737" y2="120.631" class="gray" /></g>
<g><line x1="50.0703" y1="116.812" x2="50.1897" y2="113.358" class="gray" /></g>
<g><line x1="51.5703" y1="109.769" x2="53.9097" y2="106.991" class="gray" /></g>
<g><line x1="57.1619" y1="104.829" x2="60.4881" y2="103.791" class="gray" /></g>
<g><line x1="64.3854" y1="103.746" x2="67.9346" y2="104.764" class="gray" /></g>
<g><line x1="71.192" y1="106.888" x2="73.428" y2="109.572" class="gray" /></g>
<g><line x1="76.7562" y1="111.315" x2="80.2338" y2="111.625" class="gray" /></g>
<g><line x1="84.285" y1="111.999" x2="87.345" y2="112.291" class="gray" /></g>
<g><line x1="91.3964" y1="112.663" x2="95.0836" y2="112.987" class="gray" /></g>
<g><line x1="98.1526" y1="111.418" x2="99.8874" y2="108.512" class="gray" /></g>
<g><line x1="102.567" y1="105.557" x2="105.513" y2="103.383" class="gray" /></g>
<g><line x1="106.786" y1="100.173" x2="106.164" y2="96.7463" class="gray" /></g>
<g><line x1="105.439" y1="92.7428" x2="104.821" y2="89.3069" class="gray" /></g>
<g><line x1="104.043" y1="85.3139" x2="103.317" y2="81.8558" class="gray" /></g>
<g><line x1="102.592" y1="77.8541" x2="102.068" y2="74.4356" class="gray" /></g>
<g><line x1="100.191" y1="71.1303" x2="97.4991" y2="68.9095" class="gray" /></g>
<g><line x1="95.4588" y1="65.636" x2="94.6512" y2="62.2438" class="gray" /></g>
<g><line x1="94.958" y1="58.3853" x2="96.262" y2="55.2345" class="gray" /></g>
<g><line x1="98.833" y1="52.394" x2="102.077" y2="50.6557" class="gray" /></g>
<g><line x1="105.884" y1="49.9833" x2="109.536" y2="50.5064" class="gray" /></g>
<g><line x1="112.975" y1="52.2467" x2="115.425" y2="54.7431" class="gray" /></g>
<g><line x1="117.05" y1="58.2193" x2="117.39" y2="61.6705" class="gray" /></g>
<g><line x1="116.532" y1="65.4321" x2="114.658" y2="68.5076" class="gray" /></g>
<g><line x1="114.015" y1="72.2363" x2="114.735" y2="75.6934" class="gray" /></g>
<g><line x1="115.567" y1="79.6758" x2="116.293" y2="83.1339" class="gray" /></g>
<g><line x1="116.963" y1="87.1433" x2="117.387" y2="90.5364" class="gray" /></g>
<g><line x1="118.003" y1="94.5564" x2="118.627" y2="97.9933" class="gray" /></g>
<g><line x1="120.946" y1="100.552" x2="124.684" y2="101.617" class="gray" /></g>
<g><line x1="128.213" y1="103.464" x2="130.667" y2="105.475" class="gray" /></g>
<g><line x1="133.4" y1="108.436" x2="135.52" y2="111.493" class="gray" /></g>
<g><line x1="137.037" y1="115.167" x2="137.643" y2="118.562" class="gray" /></g>
<g><line x1="137.685" y1="122.575" x2="137.145" y2="126.025" class="gray" /></g>
<g><line x1="138.478" y1="129.228" x2="141.302" y2="131.272" class="gray" /></g>
<g><line x1="144.576" y1="133.687" x2="147.234" y2="135.683" class="gray" /></g>
<g><line x1="150.507" y1="138.099" x2="153.333" y2="140.15" class="gray" /></g>
<g><line x1="156.629" y1="142.536" x2="159.461" y2="144.583" class="gray" /></g>
<g><line x1="163.139" y1="145.625" x2="166.821" y2="145.354" class="gray" /></g>
<g><line x1="170.559" y1="146.308" x2="173.491" y2="148.201" class="gray" /></g>
<g><line x1="175.894" y1="151.217" x2="177.086" y2="154.503" class="gray" /></g>
<g><line x1="177.224" y1="158.372" x2="176.286" y2="161.678" class="gray" /></g>
<g><line x1="174.074" y1="164.817" x2="171.236" y2="166.843" class="gray" /></g>
<g><line x1="167.547" y1="167.962" x2="163.843" y2="167.848" class="gray" /></g>
<g><line x1="160.229" y1="166.505" x2="157.521" y2="164.314" class="gray" /></g>
<g><line x1="155.454" y1="161.06" x2="154.616" y2="157.66" class="gray" /></g>
<g><line x1="152.482" y1="154.492" x2="149.658" y2="152.448" class="gray" /></g>
<g><line x1="146.363" y1="150.06" x2="143.537" y2="148.009" class="gray" /></g>
<g><line x1="140.223" y1="145.648" x2="137.227" y2="143.551" class="gray" /></g>
<g><line x1="133.702" y1="143.214" x2="130.518" y2="144.636" class="gray" /></g>
<g><line x1="128.87" y1="143.441" x2="129.23" y2="139.968" class="gray" /></g>
<g><line x1="127.64" y1="138.893" x2="124.71" y2="140.437" class="gray" /></g>
<g><line x1="122.91" y1="143.419" x2="122.91" y2="146.911" class="gray" /></g>
<g><line x1="122.854" y1="150.978" x2="122.756" y2="154.471" class="gray" /></g>
<g><line x1="122.7" y1="158.539" x2="122.7" y2="162.031" class="gray" /></g>
<g><line x1="122.7" y1="166.099" x2="122.7" y2="169.591" class="gray" /></g>
<g><line x1="122.813" y1="173.656" x2="123.007" y2="177.154" class="gray" /></g>
<g><line x1="124.56" y1="180.622" x2="127.021" y2="183.079" class="gray" /></g>
<g><line x1="128.451" y1="186.55" x2="128.433" y2="190.028" class="gray" /></g>
</svg>
