<svg
	xmlns="http://www.w3.org/2000/svg"
	width="294.444"
	height="255.731">
<g><style type="text/css" >
<!-- create color definitions -->
<![CDATA[
circle.red {stroke: rgb(255, 0, 255); fill: none; }
circle.green {stroke: rgb(0, 255, 0); fill: none; }
circle.blue {stroke: rgb(0, 0, 255); fill: none; }
circle.black {stroke: rgb(0, 0, 0); fill: none; }
circle.gray {stroke: rgb(204, 204, 204); fill: none; }
circle.brown {stroke: rgb(211.65, 104.55, 30.6); fill: none; }
line.red {stroke: rgb(255, 0, 255); stroke-width: 0.3825; }
line.green {stroke: rgb(0, 255, 0); stroke-width: 0.3825; }
line.blue {stroke: rgb(0, 0, 255); stroke-width: 0.3825; }
line.black {stroke: rgb(0, 0, 0); stroke-width: 0.3825; }
line.gray {stroke: rgb(204, 204, 204); stroke-width: 0.3825; }
line.brown {stroke: rgb(211.65, 104.55, 30.6); stroke-width: 0.3825; }
line {stroke: rgb(0, 0, 0); }
text.red {fill: rgb(255, 0, 255); font-size: 3.060000px; font-weight: bold; font-family: Helvetica; }
text.green {fill: rgb(0, 255, 0); font-size: 3.060000px; font-weight: bold; font-family: Helvetica; }
text.blue {fill: rgb(0, 0, 255); font-size: 3.060000px; font-weight: bold; font-family: Helvetica; }
text.black {fill: rgb(0, 0, 0); font-size: 3.060000px; font-weight: bold; font-family: Helvetica; }
text.gray {fill: rgb(204, 204, 204); font-size: 3.060000px; font-weight: bold; font-family: Helvetica; }
text.brown {fill: rgb(211.65, 104.55, 30.6); font-size: 3.060000px; font-weight: bold; font-family: Helvetica; }
text {fill: rgb(0, 0, 0); font-size: 3.060000px; font-weight: bold; font-family: Helvetica; text-anchor: middle; alignment-baseline: middle; }

.pseudoknot_connection{stroke-linecap: round; stroke-opacity: 0.2; stroke-width: 1.5; }
.pseudoknot_segment1{stroke-linecap: round; stroke-opacity: 0.4; stroke-width: 3.06; }
.pseudoknot_segment2{stroke-linecap: round; stroke-opacity: 0.4; stroke-width: 3.06; }
line.numbering-line{stroke: rgb(204, 204, 204); stroke-width: 0.19125; }
line.predicted{stroke: rgb(0, 0, 0); stroke-dasharray: 2; }
polyline{fill: none; stroke-linejoin: round; }
template{visibility: hidden; }
text.numbering-label{fill: rgb(204, 204, 204); }
]]>
</style></g>
<g><title>0 (position.label in template: 0.5')</title><text x="62.4008" y="205.622" class="green" >5'</text></g>
<g><title>1 (position.label in template: 1.A)</title><text x="69.9614" y="205.622" class="black" >A</text></g>
<g><title>2 (position.label in template: 2.G)</title><text x="77.522" y="205.622" class="black" >G</text></g>
<g><title>3 (position.label in template: 3.C)</title><text x="82.97" y="200.38" class="green" >C</text></g>
<g><line x1="85.01" y1="200.074" x2="93.17" y2="200.074" class="black" /></g>
<g><title>4 (position.label in template: 4.G)</title><text x="82.76" y="192.82" class="black" >G</text></g>
<g><line x1="84.8" y1="192.514" x2="92.96" y2="192.514" class="black" /></g>
<g><title>5 (position.label in template: 5.C)</title><text x="82.97" y="185.26" class="black" >C</text></g>
<g><line x1="85.01" y1="184.954" x2="93.17" y2="184.954" class="black" /></g>
<g><title>6 (position.label in template: 6.G)</title><text x="82.76" y="177.7" class="black" >G</text></g>
<g><line x1="84.8" y1="177.394" x2="93.17" y2="177.394" class="black" /></g>
<g><title>7 (position.label in template: 7.G)</title><text x="82.76" y="170.14" class="black" >G</text></g>
<g><line x1="84.8" y1="169.834" x2="93.17" y2="169.834" class="black" /></g>
<g><title>8 (position.label in template: 8.G)</title><text x="82.76" y="162.58" class="black" >G</text></g>
<g><line x1="84.8" y1="162.274" x2="93.17" y2="162.274" class="black" /></g>
<g><title>9 (position.label in template: 9.C)</title><text x="82.97" y="155.02" class="black" >C</text></g>
<g><line x1="85.01" y1="154.714" x2="92.96" y2="154.714" class="black" /></g>
<g><title>10 (position.label in template: 10.C)</title><text x="82.97" y="147.46" class="black" >C</text></g>
<g><line x1="85.01" y1="147.154" x2="92.96" y2="147.154" class="black" /></g>
<g><text x="76.0857" y="147.556" class="numbering-label sequential" >10</text></g>
<g><line x1="81.1342" y1="147.485" x2="77.9217" y2="147.53" class="numbering-line sequential" /></g>
<g><title>11 (position.label in template: 11.G)</title><text x="82.76" y="139.9" class="black" >G</text></g>
<g><line x1="84.8" y1="139.594" x2="93.17" y2="139.594" class="black" /></g>
<g><title>12 (position.label in template: 12.U)</title><text x="82.97" y="132.34" class="green" >T</text></g>
<g><line x1="85.01" y1="132.034" x2="92.96" y2="132.034" class="black" /></g>
<g><title>13 (position.label in template: 13.U)</title><text x="78.26" y="126.42" class="green" >T</text></g>
<g><title>14 (position.label in template: 14.A)</title><text x="78.47" y="118.86" class="black" >A</text></g>
<g><title>15 (position.label in template: 15.C)</title><text x="82.97" y="112.95" class="black" >C</text></g>
<g><line x1="85.01" y1="112.644" x2="92.96" y2="112.644" class="black" /></g>
<g><title>16 (position.label in template: 16.U)</title><text x="82.97" y="105.39" class="green" >T</text></g>
<g><line x1="85.01" y1="105.084" x2="92.96" y2="105.084" class="black" /></g>
<g><title>17 (position.label in template: 17.G)</title><text x="77.39" y="110.71" class="black" >G</text></g>
<g><title>18 (position.label in template: 18.G)</title><text x="70.3" y="113.33" class="black" >G</text></g>
<g><title>19 (position.label in template: 19.C)</title><text x="62.97" y="112.77" class="black" >C</text></g>
<g><title>20 (position.label in template: 20.G)</title><text x="56.13" y="109.13" class="black" >G</text></g>
<g><text x="51.616" y="114.329" class="numbering-label sequential" >20</text></g>
<g><line x1="54.9263" y1="110.516" x2="52.9445" y2="112.799" class="numbering-line sequential" /></g>
<g><title>21 (position.label in template: 21.C)</title><text x="51.81" y="103.08" class="black" >C</text></g>
<g><title>22 (position.label in template: 22.G)</title><text x="50" y="95.69" class="black" >G</text></g>
<g><title>23 (position.label in template: 23.U)</title><text x="51.81" y="88.3" class="green" >T</text></g>
<g><title>24 (position.label in template: 24.G)</title><text x="56.13" y="82.24" class="black" >G</text></g>
<g><title>25 (position.label in template: 25.G)</title><text x="62.76" y="78.61" class="black" >G</text></g>
<g><title>26 (position.label in template: 26.G)</title><text x="70.3" y="78.05" class="black" >G</text></g>
<g><title>27 (position.label in template: 27.G)</title><text x="77.39" y="80.67" class="black" >G</text></g>
<g><title>28 (position.label in template: 28.A)</title><text x="83.17" y="85.99" class="green" >A</text></g>
<g><line x1="85.21" y1="85.684" x2="93.17" y2="85.684" class="black" /></g>
<g><title>29 (position.label in template: 29.U)</title><text x="82.97" y="78.43" class="green" >T</text></g>
<g><line x1="85.01" y1="78.124" x2="93.37" y2="78.124" class="black" /></g>
<g><title>30 (position.label in template: 30.G)</title><text x="82.76" y="70.87" class="black" >G</text></g>
<g><line x1="84.8" y1="70.564" x2="93.17" y2="70.564" class="black" /></g>
<g><text x="75.8757" y="70.9656" class="numbering-label sequential" >30</text></g>
<g><line x1="80.9242" y1="70.8955" x2="77.7117" y2="70.9401" class="numbering-line sequential" /></g>
<g><title>31 (position.label in template: 31.G)</title><text x="82.76" y="63.31" class="black" >G</text></g>
<g><line x1="84.8" y1="63.004" x2="93.17" y2="63.004" class="black" /></g>
<g><title>32 (position.label in template: 32.A)</title><text x="81" y="56.07" class="black" >A</text></g>
<g><title>33 (position.label in template: 33.C)</title><text x="85.31" y="50" class="black" >C</text></g>
<g><title>34 (position.label in template: 34.A)</title><text x="93.07" y="50" class="black" >A</text></g>
<g><title>35 (position.label in template: 35.A)</title><text x="97.58" y="56.07" class="black" >A</text></g>
<g><title>36 (position.label in template: 36.C)</title><text x="95.21" y="63.31" class="black" >C</text></g>
<g><title>37 (position.label in template: 37.C)</title><text x="95.21" y="70.87" class="black" >C</text></g>
<g><title>38 (position.label in template: 38.A)</title><text x="95.41" y="78.43" class="green" >A</text></g>
<g><title>39 (position.label in template: 39.U)</title><text x="95.21" y="85.99" class="green" >T</text></g>
<g><title>40 (position.label in template: 40.C)</title><text x="99.91" y="91.91" class="black" >C</text></g>
<g><title>41 (position.label in template: 41.A)</title><text x="100.12" y="99.47" class="black" >A</text></g>
<g><title>42 (position.label in template: 42.G)</title><text x="95" y="105.39" class="green" >G</text></g>
<g><title>43 (position.label in template: 43.G)</title><text x="95" y="112.95" class="black" >G</text></g>
<g><title>44 (position.label in template: 44.G)</title><text x="99.7" y="118.86" class="black" >G</text></g>
<g><title>45 (position.label in template: 45.A)</title><text x="100.12" y="126.42" class="black" >A</text></g>
<g><title>46 (position.label in template: 46.G)</title><text x="95" y="132.34" class="green" >G</text></g>
<g><title>47 (position.label in template: 47.C)</title><text x="95.21" y="139.9" class="black" >C</text></g>
<g><title>48 (position.label in template: 48.G)</title><text x="95" y="147.46" class="black" >G</text></g>
<g><title>49 (position.label in template: 49.G)</title><text x="95" y="155.02" class="black" >G</text></g>
<g><title>50 (position.label in template: 50.C)</title><text x="95.21" y="162.58" class="black" >C</text></g>
<g><text x="102.094" y="162.484" class="numbering-label sequential" >50</text></g>
<g><line x1="97.0458" y1="162.555" x2="100.258" y2="162.51" class="numbering-line sequential" /></g>
<g><title>51 (position.label in template: 51.C)</title><text x="95.21" y="170.14" class="black" >C</text></g>
<g><title>52 (position.label in template: 52.C)</title><text x="95.21" y="177.7" class="black" >C</text></g>
<g><title>53 (position.label in template: 53.C)</title><text x="95.21" y="185.26" class="black" >C</text></g>
<g><title>54 (position.label in template: 54.G)</title><text x="95" y="192.82" class="black" >G</text></g>
<g><title>55 (position.label in template: 55.U)</title><text x="95.21" y="200.38" class="green" >T</text></g>
<g><title>56 (position.label in template: 56.C)</title><text x="100.55" y="205.73" class="black" >C</text></g>
<g><title>57 (position.label in template: 57.A)</title><text x="108.32" y="205.73" class="black" >A</text></g>
<g><title>58 (position.label in template: 58.C)</title><text x="115.67" y="205.73" class="black" >C</text></g>
<g><title>59 (position.label in template: 59.G)</title><text x="123.02" y="205.73" class="black" >G</text></g>
<g><title>60 (position.label in template: 60.A)</title><text x="131" y="205.73" class="black" >A</text></g>
<g><title>61 (position.label in template: 61.G)</title><text x="138.14" y="205.73" class="black" >G</text></g>
<g><title>62 (position.label in template: 62.G)</title><text x="145.7" y="205.73" class="black" >G</text></g>
<g><title>63 (position.label in template: 63.A)</title><text x="153.68" y="205.73" class="black" >A</text></g>
<g><title>64 (position.label in template: 64.C)</title><text x="161.03" y="205.73" class="black" >C</text></g>
<g><title>65 (position.label in template: 65.G)</title><text x="168.38" y="205.73" class="black" >G</text></g>
<g><title>66 (position.label in template: 66.U)</title><text x="176.15" y="205.73" class="green" >T</text></g>
<g><title>67 (position.label in template: 67.U)</title><text x="183.71" y="205.73" class="green" >T</text></g>
<g><title>68 (position.label in template: 68.U)</title><text x="191.27" y="205.73" class="green" >T</text></g>
<g><title>69 (position.label in template: 69.U)</title><text x="196.62" y="200.38" class="green" >T</text></g>
<g><line x1="198.66" y1="200.074" x2="206.82" y2="200.074" class="black" /></g>
<g><title>70 (position.label in template: 70.U)</title><text x="196.62" y="192.82" class="green" >T</text></g>
<g><line x1="198.66" y1="192.514" x2="206.82" y2="192.514" class="black" /></g>
<g><title>71 (position.label in template: 71.G)</title><text x="196.41" y="185.26" class="black" >G</text></g>
<g><line x1="198.45" y1="184.954" x2="206.82" y2="184.954" class="black" /></g>
<g><title>72 (position.label in template: 72.C)</title><text x="196.62" y="177.7" class="black" >C</text></g>
<g><line x1="198.66" y1="177.394" x2="206.61" y2="177.394" class="black" /></g>
<g><title>73 (position.label in template: 73.C)</title><text x="196.62" y="170.14" class="black" >C</text></g>
<g><line x1="198.66" y1="169.834" x2="206.61" y2="169.834" class="black" /></g>
<g><title>74 (position.label in template: 74.G)</title><text x="190.7" y="165.18" class="black" >G</text></g>
<g><title>75 (position.label in template: 75.A)</title><text x="188.76" y="157.99" class="black" >A</text></g>
<g><title>76 (position.label in template: 76.G)</title><text x="190.02" y="150.62" class="black" >G</text></g>
<g><title>77 (position.label in template: 77.C)</title><text x="195.45" y="145.15" class="black" >C</text></g>
<g><title>78 (position.label in template: 78.G)</title><text x="202.53" y="143.14" class="black" >G</text></g>
<g><title>79 (position.label in template: 79.C)</title><text x="210.02" y="145.15" class="black" >C</text></g>
<g><title>80 (position.label in template: 80.C)</title><text x="215.24" y="150.62" class="black" >C</text></g>
<g><title>81 (position.label in template: 81.U)</title><text x="216.91" y="157.99" class="green" >T</text></g>
<g><title>82 (position.label in template: 82.G)</title><text x="214.35" y="165.18" class="black" >G</text></g>
<g><title>83 (position.label in template: 83.G)</title><text x="208.65" y="170.14" class="black" >G</text></g>
<g><title>84 (position.label in template: 84.G)</title><text x="208.65" y="177.7" class="black" >G</text></g>
<g><title>85 (position.label in template: 85.C)</title><text x="208.86" y="185.26" class="black" >C</text></g>
<g><title>86 (position.label in template: 86.C)</title><text x="208.86" y="192.82" class="green" >C</text></g>
<g><title>87 (position.label in template: 87.U)</title><text x="208.86" y="200.38" class="green" >T</text></g>
<g><title>88 (position.label in template: 88.U)</title><text x="214.201" y="205.731" class="green" >T</text></g>
<g><title>89 (position.label in template: 89.C)</title><text x="221.762" y="205.731" class="black" >C</text></g>
<g><title>90 (position.label in template: 90.C)</title><text x="229.322" y="205.731" class="black" >C</text></g>
<g><title>91 (position.label in template: 91.G)</title><text x="236.883" y="205.731" class="black" >G</text></g>
<g><title>92 (position.label in template: 92.C)</title><text x="244.444" y="205.731" class="black" >C</text></g>
<g><title>93 (position.label in template: 93.3')</title><text x="252.004" y="205.731" class="green" >3'</text></g>
<g><line x1="64.4408" y1="205.316" x2="67.9214" y2="205.316" class="gray" /></g>
<g><line x1="72.0014" y1="205.316" x2="75.482" y2="205.316" class="gray" /></g>
<g><line x1="78.9919" y1="203.902" x2="81.5" y2="201.488" class="gray" /></g>
<g><line x1="82.9134" y1="198.035" x2="82.8166" y2="194.553" class="gray" /></g>
<g><line x1="82.8166" y1="190.475" x2="82.9134" y2="186.993" class="gray" /></g>
<g><line x1="82.9134" y1="182.915" x2="82.8166" y2="179.433" class="gray" /></g>
<g><line x1="82.76" y1="175.354" x2="82.76" y2="171.874" class="gray" /></g>
<g><line x1="82.76" y1="167.794" x2="82.76" y2="164.314" class="gray" /></g>
<g><line x1="82.8166" y1="160.235" x2="82.9134" y2="156.753" class="gray" /></g>
<g><line x1="82.97" y1="152.674" x2="82.97" y2="149.194" class="gray" /></g>
<g><line x1="82.9134" y1="145.115" x2="82.8166" y2="141.633" class="gray" /></g>
<g><line x1="82.8166" y1="137.555" x2="82.9134" y2="134.073" class="gray" /></g>
<g><line x1="81.6999" y1="130.438" x2="79.5301" y2="127.71" class="gray" /></g>
<g><line x1="78.3166" y1="124.075" x2="78.4134" y2="120.593" class="gray" /></g>
<g><line x1="79.7058" y1="116.931" x2="81.7342" y2="114.267" class="gray" /></g>
<g><line x1="82.97" y1="110.604" x2="82.97" y2="107.124" class="gray" /></g>
<g><line x1="81.4935" y1="106.492" x2="78.8665" y2="108.996" class="gray" /></g>
<g><line x1="75.4765" y1="111.111" x2="72.2135" y2="112.317" class="gray" /></g>
<g><line x1="68.2659" y1="112.869" x2="65.0041" y2="112.619" class="gray" /></g>
<g><line x1="61.1691" y1="111.506" x2="57.9309" y2="109.782" class="gray" /></g>
<g><line x1="54.9445" y1="107.164" x2="52.9955" y2="104.434" class="gray" /></g>
<g><line x1="51.3247" y1="100.793" x2="50.4853" y2="97.3654" class="gray" /></g>
<g><line x1="50.4853" y1="93.4026" x2="51.3247" y2="89.9754" class="gray" /></g>
<g><line x1="52.9942" y1="86.3329" x2="54.9458" y2="83.5951" class="gray" /></g>
<g><line x1="57.9194" y1="80.9543" x2="60.9706" y2="79.2837" class="gray" /></g>
<g><line x1="64.7944" y1="78.1529" x2="68.2656" y2="77.8951" class="gray" /></g>
<g><line x1="72.2135" y1="78.4511" x2="75.4765" y2="79.6569" class="gray" /></g>
<g><line x1="78.891" y1="81.7455" x2="81.669" y2="84.3025" class="gray" /></g>
<g><line x1="83.1161" y1="83.6447" x2="83.0239" y2="80.1633" class="gray" /></g>
<g><line x1="82.9134" y1="76.0848" x2="82.8166" y2="72.6032" class="gray" /></g>
<g><line x1="82.76" y1="68.524" x2="82.76" y2="65.044" class="gray" /></g>
<g><line x1="82.2781" y1="61.0217" x2="81.4819" y2="57.7463" class="gray" /></g>
<g><line x1="82.1811" y1="54.1007" x2="84.1289" y2="51.3573" class="gray" /></g>
<g><line x1="87.35" y1="49.694" x2="91.03" y2="49.694" class="gray" /></g>
<g><line x1="94.2866" y1="51.3315" x2="96.3634" y2="54.1265" class="gray" /></g>
<g><line x1="96.9453" y1="57.7028" x2="95.8447" y2="61.0652" class="gray" /></g>
<g><line x1="95.21" y1="65.044" x2="95.21" y2="68.524" class="gray" /></g>
<g><line x1="95.2639" y1="72.6033" x2="95.3561" y2="76.0847" class="gray" /></g>
<g><line x1="95.3561" y1="80.1633" x2="95.2639" y2="83.6447" class="gray" /></g>
<g><line x1="96.4784" y1="87.2817" x2="98.6416" y2="90.0063" class="gray" /></g>
<g><line x1="99.9666" y1="93.6432" x2="100.063" y2="97.1248" class="gray" /></g>
<g><line x1="98.7855" y1="100.707" x2="96.3345" y2="103.541" class="gray" /></g>
<g><line x1="95" y1="107.124" x2="95" y2="110.604" class="gray" /></g>
<g><line x1="96.2698" y1="114.241" x2="98.4302" y2="116.957" class="gray" /></g>
<g><line x1="99.8132" y1="120.591" x2="100.007" y2="124.077" class="gray" /></g>
<g><line x1="98.7855" y1="127.657" x2="96.3345" y2="130.491" class="gray" /></g>
<g><line x1="95.0566" y1="134.073" x2="95.1534" y2="137.555" class="gray" /></g>
<g><line x1="95.1534" y1="141.633" x2="95.0566" y2="145.115" class="gray" /></g>
<g><line x1="95" y1="149.194" x2="95" y2="152.674" class="gray" /></g>
<g><line x1="95.0566" y1="156.753" x2="95.1534" y2="160.235" class="gray" /></g>
<g><line x1="95.21" y1="164.314" x2="95.21" y2="167.794" class="gray" /></g>
<g><line x1="95.21" y1="171.874" x2="95.21" y2="175.354" class="gray" /></g>
<g><line x1="95.21" y1="179.434" x2="95.21" y2="182.914" class="gray" /></g>
<g><line x1="95.1534" y1="186.993" x2="95.0566" y2="190.475" class="gray" /></g>
<g><line x1="95.0566" y1="194.553" x2="95.1534" y2="198.035" class="gray" /></g>
<g><line x1="96.6511" y1="201.518" x2="99.1089" y2="203.98" class="gray" /></g>
<g><line x1="102.59" y1="205.424" x2="106.28" y2="205.424" class="gray" /></g>
<g><line x1="110.36" y1="205.424" x2="113.63" y2="205.424" class="gray" /></g>
<g><line x1="117.71" y1="205.424" x2="120.98" y2="205.424" class="gray" /></g>
<g><line x1="125.06" y1="205.424" x2="128.96" y2="205.424" class="gray" /></g>
<g><line x1="133.04" y1="205.424" x2="136.1" y2="205.424" class="gray" /></g>
<g><line x1="140.18" y1="205.424" x2="143.66" y2="205.424" class="gray" /></g>
<g><line x1="147.74" y1="205.424" x2="151.64" y2="205.424" class="gray" /></g>
<g><line x1="155.72" y1="205.424" x2="158.99" y2="205.424" class="gray" /></g>
<g><line x1="163.07" y1="205.424" x2="166.34" y2="205.424" class="gray" /></g>
<g><line x1="170.42" y1="205.424" x2="174.11" y2="205.424" class="gray" /></g>
<g><line x1="178.19" y1="205.424" x2="181.67" y2="205.424" class="gray" /></g>
<g><line x1="185.75" y1="205.424" x2="189.23" y2="205.424" class="gray" /></g>
<g><line x1="192.712" y1="203.982" x2="195.178" y2="201.516" class="gray" /></g>
<g><line x1="196.62" y1="198.034" x2="196.62" y2="194.554" class="gray" /></g>
<g><line x1="196.563" y1="190.475" x2="196.467" y2="186.993" class="gray" /></g>
<g><line x1="196.467" y1="182.915" x2="196.563" y2="179.433" class="gray" /></g>
<g><line x1="196.62" y1="175.354" x2="196.62" y2="171.874" class="gray" /></g>
<g><line x1="195.056" y1="168.524" x2="192.264" y2="166.184" class="gray" /></g>
<g><line x1="190.169" y1="162.904" x2="189.291" y2="159.654" class="gray" /></g>
<g><line x1="189.104" y1="155.673" x2="189.676" y2="152.325" class="gray" /></g>
<g><line x1="191.457" y1="148.866" x2="194.013" y2="146.292" class="gray" /></g>
<g><line x1="197.412" y1="144.287" x2="200.568" y2="143.391" class="gray" /></g>
<g><line x1="204.5" y1="143.363" x2="208.05" y2="144.315" class="gray" /></g>
<g><line x1="211.428" y1="146.32" x2="213.832" y2="148.838" class="gray" /></g>
<g><line x1="215.691" y1="152.304" x2="216.459" y2="155.694" class="gray" /></g>
<g><line x1="216.226" y1="159.606" x2="215.034" y2="162.952" class="gray" /></g>
<g><line x1="212.811" y1="166.213" x2="210.189" y2="168.495" class="gray" /></g>
<g><line x1="208.65" y1="171.874" x2="208.65" y2="175.354" class="gray" /></g>
<g><line x1="208.707" y1="179.433" x2="208.803" y2="182.915" class="gray" /></g>
<g><line x1="208.86" y1="186.994" x2="208.86" y2="190.474" class="gray" /></g>
<g><line x1="208.86" y1="194.554" x2="208.86" y2="198.034" class="gray" /></g>
<g><line x1="210.301" y1="201.518" x2="212.76" y2="203.981" class="gray" /></g>
<g><line x1="216.241" y1="205.425" x2="219.722" y2="205.425" class="gray" /></g>
<g><line x1="223.802" y1="205.425" x2="227.282" y2="205.425" class="gray" /></g>
<g><line x1="231.362" y1="205.425" x2="234.843" y2="205.425" class="gray" /></g>
<g><line x1="238.923" y1="205.425" x2="242.404" y2="205.425" class="gray" /></g>
<g><line x1="246.484" y1="205.425" x2="249.964" y2="205.425" class="gray" /></g>
</svg>
