<svg
	xmlns="http://www.w3.org/2000/svg"
	width="225.91"
	height="242.606">
<g><style type="text/css" >
<!-- create color definitions -->
<![CDATA[
circle.red {stroke: rgb(255, 0, 255); fill: none; }
circle.green {stroke: rgb(0, 255, 0); fill: none; }
circle.blue {stroke: rgb(0, 0, 255); fill: none; }
circle.black {stroke: rgb(0, 0, 0); fill: none; }
circle.gray {stroke: rgb(204, 204, 204); fill: none; }
circle.brown {stroke: rgb(211.65, 104.55, 30.6); fill: none; }
line.red {stroke: rgb(255, 0, 255); stroke-width: 0.384583; }
line.green {stroke: rgb(0, 255, 0); stroke-width: 0.384583; }
line.blue {stroke: rgb(0, 0, 255); stroke-width: 0.384583; }
line.black {stroke: rgb(0, 0, 0); stroke-width: 0.384583; }
line.gray {stroke: rgb(204, 204, 204); stroke-width: 0.384583; }
line.brown {stroke: rgb(211.65, 104.55, 30.6); stroke-width: 0.384583; }
line {stroke: rgb(0, 0, 0); }
text.red {fill: rgb(255, 0, 255); font-size: 3.076667px; font-weight: bold; font-family: Helvetica; }
text.green {fill: rgb(0, 255, 0); font-size: 3.076667px; font-weight: bold; font-family: Helvetica; }
text.blue {fill: rgb(0, 0, 255); font-size: 3.076667px; font-weight: bold; font-family: Helvetica; }
text.black {fill: rgb(0, 0, 0); font-size: 3.076667px; font-weight: bold; font-family: Helvetica; }
text.gray {fill: rgb(204, 204, 204); font-size: 3.076667px; font-weight: bold; font-family: Helvetica; }
text.brown {fill: rgb(211.65, 104.55, 30.6); font-size: 3.076667px; font-weight: bold; font-family: Helvetica; }
text {fill: rgb(0, 0, 0); font-size: 3.076667px; font-weight: bold; font-family: Helvetica; text-anchor: middle; alignment-baseline: middle; }

.pseudoknot_connection{stroke-linecap: round; stroke-opacity: 0.2; stroke-width: 1.5; }
.pseudoknot_segment1{stroke-linecap: round; stroke-opacity: 0.4; stroke-width: 3.07667; }
.pseudoknot_segment2{stroke-linecap: round; stroke-opacity: 0.4; stroke-width: 3.07667; }
line.numbering-line{stroke: rgb(204, 204, 204); stroke-width: 0.192292; }
line.predicted{stroke: rgb(0, 0, 0); stroke-dasharray: 2; }
polyline{fill: none; stroke-linejoin: round; }
template{visibility: hidden; }
text.numbering-label{fill: rgb(204, 204, 204); }
]]>
</style></g>
<g><title>0 (position.label in template: 0.5')</title><text x="109.01" y="194.609" class="green" >5'</text></g>
<g><title>1 (position.label in template: 1.U)</title><text x="108.8" y="187.05" class="green" >T</text></g>
<g><line x1="110.851" y1="186.742" x2="119.199" y2="186.742" class="black" /></g>
<g><title>2 (position.label in template: 2.G)</title><text x="108.59" y="179.49" class="black" >G</text></g>
<g><line x1="110.641" y1="179.182" x2="118.989" y2="179.182" class="black" /></g>
<g><title>3 (position.label in template: 3.G)</title><text x="108.59" y="171.93" class="black" >G</text></g>
<g><line x1="110.641" y1="171.622" x2="118.989" y2="171.622" class="black" /></g>
<g><title>4 (position.label in template: 4.G)</title><text x="108.59" y="164.37" class="black" >G</text></g>
<g><line x1="110.641" y1="164.062" x2="118.989" y2="164.062" class="black" /></g>
<g><title>5 (position.label in template: 5.G)</title><text x="108.59" y="156.81" class="black" >G</text></g>
<g><line x1="110.641" y1="156.502" x2="118.989" y2="156.502" class="black" /></g>
<g><title>6 (position.label in template: 6.G)</title><text x="108.59" y="149.25" class="black" >G</text></g>
<g><line x1="110.641" y1="148.942" x2="118.989" y2="148.942" class="black" /></g>
<g><title>7 (position.label in template: 7.A)</title><text x="109.01" y="141.69" class="green" >A</text></g>
<g><line x1="111.061" y1="141.382" x2="118.989" y2="141.382" class="black" /></g>
<g><title>8 (position.label in template: 8.U)</title><text x="102.07" y="138.25" class="green" >T</text></g>
<g><title>9 (position.label in template: 9.C)</title><text x="96.97" y="132.67" class="black" >C</text></g>
<g><title>10 (position.label in template: 10.G)</title><text x="93.94" y="125.66" class="black" >G</text></g>
<g><line x1="94.1575" y1="123.313" x2="95.0225" y2="115.202" class="black" /></g>
<g><text x="89.8115" y="131.217" class="numbering-label sequential" >10</text></g>
<g><line x1="92.8391" y1="127.142" x2="90.9544" y2="129.678" class="numbering-line sequential" /></g>
<g><title>11 (position.label in template: 11.U)</title><text x="86.62" y="124.98" class="green" >T</text></g>
<g><line x1="86.8375" y1="122.633" x2="87.7025" y2="114.522" class="black" /></g>
<g><title>12 (position.label in template: 12.C)</title><text x="79.09" y="124.3" class="black" >C</text></g>
<g><line x1="79.2377" y1="121.947" x2="79.8223" y2="113.848" class="black" /></g>
<g><title>13 (position.label in template: 13.U)</title><text x="71.56" y="123.63" class="green" >T</text></g>
<g><line x1="71.7077" y1="121.277" x2="72.2923" y2="113.178" class="black" /></g>
<g><title>14 (position.label in template: 14.A)</title><text x="65.58" y="127.98" class="black" >A</text></g>
<g><title>15 (position.label in template: 15.G)</title><text x="57.61" y="127.71" class="black" >G</text></g>
<g><title>16 (position.label in template: 16.C)</title><text x="51.97" y="122.92" class="black" >C</text></g>
<g><title>17 (position.label in template: 17.G)</title><text x="50" y="115.56" class="black" >G</text></g>
<g><title>18 (position.label in template: 18.G)</title><text x="53.04" y="108.64" class="black" >G</text></g>
<g><title>19 (position.label in template: 19.C)</title><text x="59.86" y="104.98" class="black" >C</text></g>
<g><title>20 (position.label in template: 20.A)</title><text x="67.55" y="106.05" class="black" >A</text></g>
<g><text x="70.7122" y="99.892" class="numbering-label sequential" >20</text></g>
<g><line x1="68.3933" y1="104.408" x2="69.9223" y2="101.43" class="numbering-line sequential" /></g>
<g><title>21 (position.label in template: 21.G)</title><text x="72.44" y="111.44" class="green" >G</text></g>
<g><title>22 (position.label in template: 22.G)</title><text x="79.97" y="112.11" class="black" >G</text></g>
<g><title>23 (position.label in template: 23.A)</title><text x="87.92" y="112.79" class="green" >A</text></g>
<g><title>24 (position.label in template: 24.C)</title><text x="95.24" y="113.47" class="black" >C</text></g>
<g><title>25 (position.label in template: 25.G)</title><text x="99.06" y="107.07" class="black" >G</text></g>
<g><title>26 (position.label in template: 26.A)</title><text x="105.49" y="102.48" class="green" >A</text></g>
<g><line x1="107.507" y1="101.801" x2="115.313" y2="100.364" class="black" /></g>
<g><title>27 (position.label in template: 27.C)</title><text x="103.93" y="95.05" class="black" >C</text></g>
<g><line x1="105.947" y1="94.3693" x2="113.753" y2="92.9254" class="black" /></g>
<g><title>28 (position.label in template: 28.G)</title><text x="102.38" y="87.61" class="black" >G</text></g>
<g><line x1="104.399" y1="86.943" x2="112.611" y2="85.4817" class="black" /></g>
<g><title>29 (position.label in template: 29.G)</title><text x="101.03" y="80.17" class="black" >G</text></g>
<g><line x1="103.049" y1="79.503" x2="111.261" y2="78.0417" class="black" /></g>
<g><title>30 (position.label in template: 30.G)</title><text x="99.68" y="72.73" class="black" >G</text></g>
<g><line x1="101.699" y1="72.0632" x2="109.921" y2="70.6014" class="black" /></g>
<g><text x="93.6633" y="76.1534" class="numbering-label sequential" >30</text></g>
<g><line x1="98.0755" y1="73.6429" x2="95.5093" y2="75.1031" class="numbering-line sequential" /></g>
<g><title>31 (position.label in template: 31.U)</title><text x="94.06" y="67.92" class="green" >T</text></g>
<g><title>32 (position.label in template: 32.U)</title><text x="92.31" y="60.57" class="green" >T</text></g>
<g><title>33 (position.label in template: 33.C)</title><text x="95.38" y="53.66" class="black" >C</text></g>
<g><title>34 (position.label in template: 34.U)</title><text x="102" y="50" class="green" >T</text></g>
<g><title>35 (position.label in template: 35.G)</title><text x="109.27" y="51.1" class="black" >G</text></g>
<g><title>36 (position.label in template: 36.G)</title><text x="114.56" y="56.5" class="black" >G</text></g>
<g><title>37 (position.label in template: 37.C)</title><text x="115.72" y="64" class="black" >C</text></g>
<g><title>38 (position.label in template: 38.C)</title><text x="111.94" y="70.55" class="black" >C</text></g>
<g><title>39 (position.label in template: 39.C)</title><text x="113.28" y="77.99" class="black" >C</text></g>
<g><title>40 (position.label in template: 40.C)</title><text x="114.63" y="85.43" class="black" >C</text></g>
<g><title>41 (position.label in template: 41.G)</title><text x="115.77" y="92.86" class="black" >G</text></g>
<g><title>42 (position.label in template: 42.U)</title><text x="117.33" y="100.3" class="green" >T</text></g>
<g><title>43 (position.label in template: 43.U)</title><text x="124.56" y="102.48" class="green" >T</text></g>
<g><title>44 (position.label in template: 44.A)</title><text x="130.78" y="107.07" class="black" >A</text></g>
<g><title>45 (position.label in template: 45.A)</title><text x="134.81" y="113.47" class="black" >A</text></g>
<g><title>46 (position.label in template: 46.C)</title><text x="136.13" y="120.87" class="black" >C</text></g>
<g><title>47 (position.label in template: 47.C)</title><text x="134.96" y="128.34" class="black" >C</text></g>
<g><line x1="133.734" y1="129.677" x2="128.796" y2="136.298" class="black" /></g>
<g><title>48 (position.label in template: 48.A)</title><text x="141.29" y="132.77" class="green" >A</text></g>
<g><line x1="140.065" y1="134.107" x2="135.125" y2="140.737" class="black" /></g>
<g><title>49 (position.label in template: 49.A)</title><text x="147.41" y="137.21" class="green" >A</text></g>
<g><line x1="146.184" y1="138.547" x2="141.246" y2="145.168" class="black" /></g>
<g><title>50 (position.label in template: 50.G)</title><text x="153.11" y="141.65" class="black" >G</text></g>
<g><line x1="151.93" y1="143.02" x2="147.32" y2="149.575" class="black" /></g>
<g><text x="157.263" y="136.111" class="numbering-label sequential" >50</text></g>
<g><line x1="154.217" y1="140.173" x2="156.109" y2="137.65" class="numbering-line sequential" /></g>
<g><title>51 (position.label in template: 51.G)</title><text x="159.24" y="146.08" class="black" >G</text></g>
<g><line x1="158.059" y1="147.449" x2="153.441" y2="154.005" class="black" /></g>
<g><title>52 (position.label in template: 52.U)</title><text x="166.98" y="145.51" class="green" >T</text></g>
<g><title>53 (position.label in template: 53.U)</title><text x="173.33" y="149.61" class="green" >T</text></g>
<g><title>54 (position.label in template: 54.C)</title><text x="175.91" y="156.72" class="black" >C</text></g>
<g><title>55 (position.label in template: 55.G)</title><text x="173.45" y="163.94" class="black" >G</text></g>
<g><title>56 (position.label in template: 56.A)</title><text x="167.7" y="168.33" class="black" >A</text></g>
<g><title>57 (position.label in template: 57.A)</title><text x="160.15" y="168.09" class="black" >A</text></g>
<g><title>58 (position.label in template: 58.U)</title><text x="154.07" y="163.34" class="green" >T</text></g>
<g><title>59 (position.label in template: 59.C)</title><text x="152.26" y="155.99" class="black" >C</text></g>
<g><title>60 (position.label in template: 60.C)</title><text x="146.14" y="151.56" class="black" >C</text></g>
<g><title>61 (position.label in template: 61.U)</title><text x="140.02" y="147.12" class="green" >T</text></g>
<g><title>62 (position.label in template: 62.U)</title><text x="133.9" y="142.69" class="green" >T</text></g>
<g><title>63 (position.label in template: 63.G)</title><text x="127.57" y="138.25" class="black" >G</text></g>
<g><title>64 (position.label in template: 64.U)</title><text x="121.04" y="141.69" class="green" >T</text></g>
<g><title>65 (position.label in template: 65.C)</title><text x="121.04" y="149.25" class="black" >C</text></g>
<g><title>66 (position.label in template: 66.C)</title><text x="121.04" y="156.81" class="black" >C</text></g>
<g><title>67 (position.label in template: 67.C)</title><text x="121.04" y="164.37" class="black" >C</text></g>
<g><title>68 (position.label in template: 68.C)</title><text x="121.04" y="171.93" class="black" >C</text></g>
<g><title>69 (position.label in template: 69.C)</title><text x="121.04" y="179.49" class="black" >C</text></g>
<g><title>70 (position.label in template: 70.A)</title><text x="121.25" y="187.05" class="green" >A</text></g>
<g><title>71 (position.label in template: 71.G)</title><text x="126.38" y="192.606" class="black" >G</text></g>
<g><title>72 (position.label in template: 72.3')</title><text x="121.182" y="198.1" class="green" >3'</text></g>
<g><line x1="108.953" y1="192.251" x2="108.857" y2="188.793" class="gray" /></g>
<g><line x1="108.743" y1="184.692" x2="108.647" y2="181.233" class="gray" /></g>
<g><line x1="108.59" y1="177.131" x2="108.59" y2="173.673" class="gray" /></g>
<g><line x1="108.59" y1="169.571" x2="108.59" y2="166.113" class="gray" /></g>
<g><line x1="108.59" y1="162.011" x2="108.59" y2="158.553" class="gray" /></g>
<g><line x1="108.59" y1="154.451" x2="108.59" y2="150.993" class="gray" /></g>
<g><line x1="108.704" y1="146.894" x2="108.896" y2="143.43" class="gray" /></g>
<g><line x1="107.172" y1="140.471" x2="103.908" y2="138.853" class="gray" /></g>
<g><line x1="100.686" y1="136.428" x2="98.3538" y2="133.876" class="gray" /></g>
<g><line x1="96.1562" y1="130.48" x2="94.7538" y2="127.235" class="gray" /></g>
<g><line x1="91.8977" y1="125.163" x2="88.6623" y2="124.862" class="gray" /></g>
<g><line x1="84.5772" y1="124.488" x2="81.1328" y2="124.177" class="gray" /></g>
<g><line x1="77.047" y1="123.811" x2="73.603" y2="123.504" class="gray" /></g>
<g><line x1="69.9013" y1="124.529" x2="67.2387" y2="126.466" class="gray" /></g>
<g><line x1="63.5301" y1="127.603" x2="59.6599" y2="127.472" class="gray" /></g>
<g><line x1="56.0466" y1="126.075" x2="53.5334" y2="123.94" class="gray" /></g>
<g><line x1="51.4397" y1="120.631" x2="50.5303" y2="117.234" class="gray" /></g>
<g><line x1="50.825" y1="113.374" x2="52.215" y2="110.21" class="gray" /></g>
<g><line x1="54.8473" y1="107.362" x2="58.0527" y2="105.642" class="gray" /></g>
<g><line x1="61.8915" y1="104.955" x2="65.5185" y2="105.46" class="gray" /></g>
<g><line x1="68.9282" y1="107.261" x2="71.0618" y2="109.613" class="gray" /></g>
<g><line x1="74.483" y1="111.314" x2="77.927" y2="111.621" class="gray" /></g>
<g><line x1="82.0136" y1="111.977" x2="85.8764" y2="112.308" class="gray" /></g>
<g><line x1="89.9623" y1="112.672" x2="93.1977" y2="112.973" class="gray" /></g>
<g><line x1="96.2912" y1="111.401" x2="98.0088" y2="108.524" class="gray" /></g>
<g><line x1="100.729" y1="105.571" x2="103.821" y2="103.364" class="gray" /></g>
<g><line x1="105.069" y1="100.165" x2="104.351" y2="96.7497" class="gray" /></g>
<g><line x1="103.512" y1="92.7343" x2="102.798" y2="89.3103" class="gray" /></g>
<g><line x1="102.014" y1="85.2842" x2="101.396" y2="81.8805" class="gray" /></g>
<g><line x1="100.664" y1="77.8442" x2="100.046" y2="74.4405" class="gray" /></g>
<g><line x1="98.1217" y1="71.0886" x2="95.6183" y2="68.946" class="gray" /></g>
<g><line x1="93.5849" y1="65.617" x2="92.7851" y2="62.2577" class="gray" /></g>
<g><line x1="93.1428" y1="58.3879" x2="94.5472" y2="55.2268" class="gray" /></g>
<g><line x1="97.175" y1="52.3599" x2="100.205" y2="50.6848" class="gray" /></g>
<g><line x1="104.028" y1="49.9992" x2="107.242" y2="50.4855" class="gray" /></g>
<g><line x1="110.705" y1="52.2575" x2="113.125" y2="54.7271" class="gray" /></g>
<g><line x1="114.874" y1="58.2193" x2="115.406" y2="61.6653" class="gray" /></g>
<g><line x1="114.695" y1="65.4688" x2="112.965" y2="68.4658" class="gray" /></g>
<g><line x1="112.304" y1="72.261" x2="112.916" y2="75.6637" class="gray" /></g>
<g><line x1="113.646" y1="79.7005" x2="114.264" y2="83.1042" class="gray" /></g>
<g><line x1="114.941" y1="87.1497" x2="115.459" y2="90.5249" class="gray" /></g>
<g><line x1="116.191" y1="94.5598" x2="116.909" y2="97.9849" class="gray" /></g>
<g><line x1="119.294" y1="100.584" x2="122.596" y2="101.58" class="gray" /></g>
<g><line x1="126.21" y1="103.39" x2="129.13" y2="105.544" class="gray" /></g>
<g><line x1="131.873" y1="108.498" x2="133.717" y2="111.427" class="gray" /></g>
<g><line x1="135.17" y1="115.182" x2="135.77" y2="118.543" class="gray" /></g>
<g><line x1="135.813" y1="122.589" x2="135.277" y2="126.006" class="gray" /></g>
<g><line x1="136.64" y1="129.208" x2="139.61" y2="131.286" class="gray" /></g>
<g><line x1="142.95" y1="133.667" x2="145.75" y2="135.698" class="gray" /></g>
<g><line x1="149.028" y1="138.163" x2="151.492" y2="140.082" class="gray" /></g>
<g><line x1="154.772" y1="142.544" x2="157.578" y2="144.571" class="gray" /></g>
<g><line x1="161.286" y1="145.622" x2="164.934" y2="145.353" class="gray" /></g>
<g><line x1="168.703" y1="146.315" x2="171.607" y2="148.19" class="gray" /></g>
<g><line x1="174.03" y1="151.23" x2="175.21" y2="154.484" class="gray" /></g>
<g><line x1="175.248" y1="158.354" x2="174.112" y2="161.691" class="gray" /></g>
<g><line x1="171.82" y1="164.877" x2="169.33" y2="166.778" class="gray" /></g>
<g><line x1="165.65" y1="167.957" x2="162.2" y2="167.848" class="gray" /></g>
<g><line x1="158.534" y1="166.52" x2="155.686" y2="164.295" class="gray" /></g>
<g><line x1="153.58" y1="161.041" x2="152.75" y2="157.674" class="gray" /></g>
<g><line x1="150.598" y1="154.48" x2="147.802" y2="152.455" class="gray" /></g>
<g><line x1="144.48" y1="150.048" x2="141.68" y2="148.017" class="gray" /></g>
<g><line x1="138.358" y1="145.61" x2="135.562" y2="143.585" class="gray" /></g>
<g><line x1="132.221" y1="141.204" x2="129.249" y2="139.12" class="gray" /></g>
<g><line x1="125.755" y1="138.898" x2="122.855" y2="140.426" class="gray" /></g>
<g><line x1="121.04" y1="143.433" x2="121.04" y2="146.891" class="gray" /></g>
<g><line x1="121.04" y1="150.993" x2="121.04" y2="154.451" class="gray" /></g>
<g><line x1="121.04" y1="158.553" x2="121.04" y2="162.011" class="gray" /></g>
<g><line x1="121.04" y1="166.113" x2="121.04" y2="169.571" class="gray" /></g>
<g><line x1="121.04" y1="173.673" x2="121.04" y2="177.131" class="gray" /></g>
<g><line x1="121.097" y1="181.233" x2="121.193" y2="184.692" class="gray" /></g>
<g><line x1="122.641" y1="188.249" x2="124.988" y2="190.792" class="gray" /></g>
<g><line x1="124.97" y1="193.789" x2="122.592" y2="196.302" class="gray" /></g>
</svg>
