<svg
	xmlns="http://www.w3.org/2000/svg"
	width="228.19"
	height="237.427">
<g><style type="text/css" >
<!-- create color definitions -->
<![CDATA[
circle.red {stroke: rgb(255, 0, 255); fill: none; }
circle.green {stroke: rgb(0, 255, 0); fill: none; }
circle.blue {stroke: rgb(0, 0, 255); fill: none; }
circle.black {stroke: rgb(0, 0, 0); fill: none; }
circle.gray {stroke: rgb(204, 204, 204); fill: none; }
circle.brown {stroke: rgb(211.65, 104.55, 30.6); fill: none; }
line.red {stroke: rgb(255, 0, 255); stroke-width: 0.38169; }
line.green {stroke: rgb(0, 255, 0); stroke-width: 0.38169; }
line.blue {stroke: rgb(0, 0, 255); stroke-width: 0.38169; }
line.black {stroke: rgb(0, 0, 0); stroke-width: 0.38169; }
line.gray {stroke: rgb(204, 204, 204); stroke-width: 0.38169; }
line.brown {stroke: rgb(211.65, 104.55, 30.6); stroke-width: 0.38169; }
line {stroke: rgb(0, 0, 0); }
text.red {fill: rgb(255, 0, 255); font-size: 3.053524px; font-weight: bold; font-family: Helvetica; }
text.green {fill: rgb(0, 255, 0); font-size: 3.053524px; font-weight: bold; font-family: Helvetica; }
text.blue {fill: rgb(0, 0, 255); font-size: 3.053524px; font-weight: bold; font-family: Helvetica; }
text.black {fill: rgb(0, 0, 0); font-size: 3.053524px; font-weight: bold; font-family: Helvetica; }
text.gray {fill: rgb(204, 204, 204); font-size: 3.053524px; font-weight: bold; font-family: Helvetica; }
text.brown {fill: rgb(211.65, 104.55, 30.6); font-size: 3.053524px; font-weight: bold; font-family: Helvetica; }
text {fill: rgb(0, 0, 0); font-size: 3.053524px; font-weight: bold; font-family: Helvetica; text-anchor: middle; alignment-baseline: middle; }

.pseudoknot_connection{stroke-linecap: round; stroke-opacity: 0.2; stroke-width: 1.5; }
.pseudoknot_segment1{stroke-linecap: round; stroke-opacity: 0.4; stroke-width: 3.05352; }
.pseudoknot_segment2{stroke-linecap: round; stroke-opacity: 0.4; stroke-width: 3.05352; }
line.numbering-line{stroke: rgb(204, 204, 204); stroke-width: 0.190845; }
line.predicted{stroke: rgb(0, 0, 0); stroke-dasharray: 2; }
polyline{fill: none; stroke-linejoin: round; }
template{visibility: hidden; }
text.numbering-label{fill: rgb(204, 204, 204); }
]]>
</style></g>
<g><title>0 (position.label in template: 0.5')</title><text x="111.51" y="189.537" class="green" >5'</text></g>
<g><title>1 (position.label in template: 1.A)</title><text x="111.3" y="181.98" class="black" >A</text></g>
<g><line x1="113.336" y1="181.675" x2="121.294" y2="181.675" class="black" /></g>
<g><title>2 (position.label in template: 2.C)</title><text x="111.09" y="174.42" class="black" >C</text></g>
<g><line x1="113.126" y1="174.115" x2="121.084" y2="174.115" class="black" /></g>
<g><title>3 (position.label in template: 3.C)</title><text x="111.09" y="166.86" class="black" >C</text></g>
<g><line x1="113.126" y1="166.555" x2="121.084" y2="166.555" class="black" /></g>
<g><title>4 (position.label in template: 4.U)</title><text x="111.09" y="159.3" class="green" >T</text></g>
<g><line x1="113.126" y1="158.995" x2="121.504" y2="158.995" class="black" /></g>
<g><title>5 (position.label in template: 5.U)</title><text x="111.09" y="151.74" class="green" >T</text></g>
<g><line x1="113.126" y1="151.435" x2="121.504" y2="151.435" class="black" /></g>
<g><title>6 (position.label in template: 6.U)</title><text x="111.09" y="144.18" class="green" >T</text></g>
<g><line x1="113.126" y1="143.875" x2="121.084" y2="143.875" class="black" /></g>
<g><title>7 (position.label in template: 7.G)</title><text x="110.88" y="136.62" class="black" >G</text></g>
<g><line x1="112.916" y1="136.315" x2="121.294" y2="136.315" class="black" /></g>
<g><title>8 (position.label in template: 8.U)</title><text x="104.36" y="133.18" class="green" >T</text></g>
<g><title>9 (position.label in template: 9.G)</title><text x="99.04" y="127.6" class="black" >G</text></g>
<g><title>10 (position.label in template: 10.G)</title><text x="96.22" y="120.59" class="black" >G</text></g>
<g><line x1="96.4375" y1="118.261" x2="97.3125" y2="110.119" class="black" /></g>
<g><text x="92.0658" y="126.062" class="numbering-label sequential" >10</text></g>
<g><line x1="95.1122" y1="122.049" x2="93.2248" y2="124.536" class="numbering-line sequential" /></g>
<g><title>11 (position.label in template: 11.U)</title><text x="88.91" y="119.91" class="green" >T</text></g>
<g><line x1="89.1259" y1="117.58" x2="89.9941" y2="109.439" class="black" /></g>
<g><title>12 (position.label in template: 12.G)</title><text x="81.17" y="119.23" class="black" >G</text></g>
<g><line x1="81.3859" y1="116.9" x2="82.2541" y2="108.759" class="black" /></g>
<g><title>13 (position.label in template: 13.U)</title><text x="73.85" y="118.56" class="green" >T</text></g>
<g><line x1="73.9966" y1="116.224" x2="74.5834" y2="108.095" class="black" /></g>
<g><title>14 (position.label in template: 14.A)</title><text x="68.26" y="123.41" class="black" >A</text></g>
<g><title>15 (position.label in template: 15.G)</title><text x="60.32" y="124.22" class="black" >G</text></g>
<g><title>16 (position.label in template: 16.U)</title><text x="53.83" y="120.72" class="green" >T</text></g>
<g><title>17 (position.label in template: 17.G)</title><text x="50" y="114.08" class="black" >G</text></g>
<g><title>18 (position.label in template: 18.G)</title><text x="50.68" y="106.55" class="black" >G</text></g>
<g><title>19 (position.label in template: 19.U)</title><text x="55.63" y="100.67" class="green" >T</text></g>
<g><title>20 (position.label in template: 20.C)</title><text x="62.85" y="98.42" class="black" >C</text></g>
<g><text x="62.7985" y="91.5498" class="numbering-label sequential" >20</text></g>
<g><line x1="62.8363" y1="96.5879" x2="62.81" y2="93.0765" class="numbering-line sequential" /></g>
<g><title>21 (position.label in template: 21.A)</title><text x="70.31" y="100.56" class="black" >A</text></g>
<g><title>22 (position.label in template: 22.G)</title><text x="74.73" y="106.37" class="green" >G</text></g>
<g><title>23 (position.label in template: 23.C)</title><text x="82.47" y="107.04" class="black" >C</text></g>
<g><title>24 (position.label in template: 24.A)</title><text x="90.21" y="107.72" class="green" >A</text></g>
<g><title>25 (position.label in template: 25.C)</title><text x="97.53" y="108.4" class="black" >C</text></g>
<g><title>26 (position.label in template: 26.U)</title><text x="101.55" y="102" class="green" >T</text></g>
<g><title>27 (position.label in template: 27.C)</title><text x="107.57" y="97.41" class="black" >C</text></g>
<g><line x1="109.572" y1="96.7357" x2="117.398" y2="95.2936" class="black" /></g>
<g><title>28 (position.label in template: 28.U)</title><text x="106.22" y="89.98" class="green" >T</text></g>
<g><line x1="108.224" y1="89.3164" x2="116.466" y2="87.8429" class="black" /></g>
<g><title>29 (position.label in template: 29.C)</title><text x="104.87" y="82.54" class="black" >C</text></g>
<g><line x1="106.872" y1="81.866" x2="114.708" y2="80.4233" class="black" /></g>
<g><title>30 (position.label in template: 30.C)</title><text x="98" y="79.39" class="black" >C</text></g>
<g><text x="93.7386" y="84.7792" class="numbering-label sequential" >30</text></g>
<g><line x1="96.8636" y1="80.8271" x2="94.9459" y2="83.2525" class="numbering-line sequential" /></g>
<g><title>31 (position.label in template: 31.A)</title><text x="93.45" y="73.51" class="black" >A</text></g>
<g><title>32 (position.label in template: 32.C)</title><text x="91.59" y="66.14" class="black" >C</text></g>
<g><title>33 (position.label in template: 33.G)</title><text x="93.18" y="58.79" class="black" >G</text></g>
<g><title>34 (position.label in template: 34.C)</title><text x="98.27" y="53.01" class="black" >C</text></g>
<g><title>35 (position.label in template: 35.G)</title><text x="104.99" y="50" class="black" >G</text></g>
<g><title>36 (position.label in template: 36.U)</title><text x="112.75" y="50.39" class="green" >T</text></g>
<g><title>37 (position.label in template: 37.A)</title><text x="119.55" y="54.09" class="black" >A</text></g>
<g><title>38 (position.label in template: 38.A)</title><text x="123.81" y="60.34" class="black" >A</text></g>
<g><title>39 (position.label in template: 39.C)</title><text x="124.65" y="67.83" class="black" >C</text></g>
<g><title>40 (position.label in template: 40.C)</title><text x="122.25" y="75" class="black" >C</text></g>
<g><title>41 (position.label in template: 41.G)</title><text x="116.71" y="80.36" class="black" >G</text></g>
<g><title>42 (position.label in template: 42.A)</title><text x="118.47" y="87.79" class="green" >A</text></g>
<g><title>43 (position.label in template: 43.G)</title><text x="119.4" y="95.23" class="black" >G</text></g>
<g><title>44 (position.label in template: 44.A)</title><text x="127.06" y="97.41" class="black" >A</text></g>
<g><title>45 (position.label in template: 45.G)</title><text x="132.65" y="102" class="black" >G</text></g>
<g><title>46 (position.label in template: 46.G)</title><text x="136.68" y="108.4" class="black" >G</text></g>
<g><title>47 (position.label in template: 47.U)</title><text x="138.41" y="115.8" class="green" >T</text></g>
<g><title>48 (position.label in template: 48.C)</title><text x="137.25" y="123.27" class="black" >C</text></g>
<g><line x1="136.032" y1="124.596" x2="131.068" y2="131.244" class="black" /></g>
<g><title>49 (position.label in template: 49.C)</title><text x="143.37" y="127.71" class="black" >C</text></g>
<g><line x1="142.153" y1="129.037" x2="137.197" y2="135.683" class="black" /></g>
<g><title>50 (position.label in template: 50.G)</title><text x="149.28" y="132.14" class="black" >G</text></g>
<g><line x1="148.109" y1="133.5" x2="143.481" y2="140.08" class="black" /></g>
<g><text x="149.989" y="125.306" class="numbering-label sequential" >50</text></g>
<g><line x1="149.469" y1="130.318" x2="149.83" y2="126.833" class="numbering-line sequential" /></g>
<g><title>51 (position.label in template: 51.U)</title><text x="156.39" y="129.06" class="green" >T</text></g>
<g><title>52 (position.label in template: 52.G)</title><text x="155.4" y="136.58" class="black" >G</text></g>
<g><line x1="154.229" y1="137.94" x2="149.601" y2="144.52" class="black" /></g>
<g><title>53 (position.label in template: 53.G)</title><text x="161.52" y="141.01" class="black" >G</text></g>
<g><line x1="160.35" y1="142.37" x2="155.72" y2="148.959" class="black" /></g>
<g><title>54 (position.label in template: 54.U)</title><text x="169.27" y="140.44" class="green" >T</text></g>
<g><title>55 (position.label in template: 55.U)</title><text x="175.62" y="144.54" class="green" >T</text></g>
<g><title>56 (position.label in template: 56.C)</title><text x="178.19" y="151.65" class="black" >C</text></g>
<g><title>57 (position.label in template: 57.G)</title><text x="175.73" y="158.87" class="black" >G</text></g>
<g><title>58 (position.label in template: 58.A)</title><text x="169.99" y="163.26" class="black" >A</text></g>
<g><title>59 (position.label in template: 59.U)</title><text x="162.23" y="163.02" class="green" >T</text></g>
<g><title>60 (position.label in template: 60.U)</title><text x="156.35" y="158.27" class="green" >T</text></g>
<g><title>61 (position.label in template: 61.C)</title><text x="154.55" y="150.93" class="black" >C</text></g>
<g><title>62 (position.label in template: 62.C)</title><text x="148.43" y="146.49" class="black" >C</text></g>
<g><title>63 (position.label in template: 63.C)</title><text x="142.31" y="142.05" class="black" >C</text></g>
<g><title>64 (position.label in template: 64.G)</title><text x="135.98" y="137.62" class="black" >G</text></g>
<g><title>65 (position.label in template: 65.G)</title><text x="129.85" y="133.18" class="black" >G</text></g>
<g><title>66 (position.label in template: 66.C)</title><text x="123.33" y="136.62" class="black" >C</text></g>
<g><title>67 (position.label in template: 67.G)</title><text x="123.12" y="144.18" class="green" >G</text></g>
<g><title>68 (position.label in template: 68.A)</title><text x="123.54" y="151.74" class="green" >A</text></g>
<g><title>69 (position.label in template: 69.A)</title><text x="123.54" y="159.3" class="green" >A</text></g>
<g><title>70 (position.label in template: 70.G)</title><text x="123.12" y="166.86" class="black" >G</text></g>
<g><title>71 (position.label in template: 71.G)</title><text x="123.12" y="174.42" class="black" >G</text></g>
<g><title>72 (position.label in template: 72.C)</title><text x="123.33" y="181.98" class="black" >C</text></g>
<g><title>73 (position.label in template: 73.G)</title><text x="128.573" y="187.427" class="black" >G</text></g>
<g><title>74 (position.label in template: 74.3')</title><text x="123.358" y="192.9" class="green" >3'</text></g>
<g><line x1="111.453" y1="187.197" x2="111.357" y2="183.71" class="gray" /></g>
<g><line x1="111.243" y1="179.64" x2="111.147" y2="176.15" class="gray" /></g>
<g><line x1="111.09" y1="172.079" x2="111.09" y2="168.59" class="gray" /></g>
<g><line x1="111.09" y1="164.519" x2="111.09" y2="161.03" class="gray" /></g>
<g><line x1="111.09" y1="156.959" x2="111.09" y2="153.47" class="gray" /></g>
<g><line x1="111.09" y1="149.399" x2="111.09" y2="145.91" class="gray" /></g>
<g><line x1="111.033" y1="141.84" x2="110.937" y2="138.35" class="gray" /></g>
<g><line x1="109.08" y1="135.365" x2="106.16" y2="133.825" class="gray" /></g>
<g><line x1="102.955" y1="131.401" x2="100.445" y2="128.768" class="gray" /></g>
<g><line x1="98.2803" y1="125.406" x2="96.9797" y2="122.173" class="gray" /></g>
<g><line x1="94.1931" y1="120.096" x2="90.9369" y2="119.793" class="gray" /></g>
<g><line x1="86.8821" y1="119.426" x2="83.1979" y2="119.103" class="gray" /></g>
<g><line x1="79.1428" y1="118.739" x2="75.8772" y2="118.44" class="gray" /></g>
<g><line x1="72.3124" y1="119.589" x2="69.7976" y2="121.771" class="gray" /></g>
<g><line x1="66.2348" y1="123.311" x2="62.3452" y2="123.708" class="gray" /></g>
<g><line x1="58.5283" y1="122.948" x2="55.6217" y2="121.381" class="gray" /></g>
<g><line x1="52.8129" y1="118.651" x2="51.0171" y2="115.538" class="gray" /></g>
<g><line x1="50.1831" y1="111.747" x2="50.4969" y2="108.272" class="gray" /></g>
<g><line x1="51.991" y1="104.687" x2="54.319" y2="101.922" class="gray" /></g>
<g><line x1="57.5735" y1="99.759" x2="60.9065" y2="98.7203" class="gray" /></g>
<g><line x1="64.8068" y1="98.676" x2="68.3532" y2="99.6933" class="gray" /></g>
<g><line x1="71.5425" y1="101.875" x2="73.4975" y2="104.445" class="gray" /></g>
<g><line x1="76.7581" y1="106.24" x2="80.4419" y2="106.559" class="gray" /></g>
<g><line x1="84.4979" y1="106.913" x2="88.1821" y2="107.236" class="gray" /></g>
<g><line x1="92.237" y1="107.603" x2="95.503" y2="107.906" class="gray" /></g>
<g><line x1="98.6128" y1="106.371" x2="100.467" y2="103.418" class="gray" /></g>
<g><line x1="103.169" y1="100.46" x2="105.951" y2="98.3389" class="gray" /></g>
<g><line x1="107.206" y1="95.1018" x2="106.584" y2="91.6775" class="gray" /></g>
<g><line x1="105.857" y1="87.6717" x2="105.233" y2="84.2376" class="gray" /></g>
<g><line x1="103.02" y1="81.3862" x2="99.8504" y2="79.9331" class="gray" /></g>
<g><line x1="96.7542" y1="77.4747" x2="94.6958" y2="74.8146" class="gray" /></g>
<g><line x1="92.9519" y1="71.2309" x2="92.0881" y2="67.8084" class="gray" /></g>
<g><line x1="92.0204" y1="63.845" x2="92.7496" y2="60.4743" class="gray" /></g>
<g><line x1="94.5254" y1="56.9569" x2="96.9246" y2="54.2324" class="gray" /></g>
<g><line x1="100.128" y1="51.8725" x2="103.132" y2="50.5268" class="gray" /></g>
<g><line x1="107.023" y1="49.7968" x2="110.717" y2="49.9825" class="gray" /></g>
<g><line x1="114.538" y1="51.0576" x2="117.762" y2="52.8117" class="gray" /></g>
<g><line x1="120.697" y1="55.4668" x2="122.663" y2="58.3525" class="gray" /></g>
<g><line x1="124.037" y1="62.0576" x2="124.423" y2="65.5016" class="gray" /></g>
<g><line x1="124.004" y1="69.4551" x2="122.896" y2="72.7642" class="gray" /></g>
<g><line x1="120.787" y1="76.1101" x2="118.173" y2="78.6392" class="gray" /></g>
<g><line x1="117.179" y1="82.0355" x2="118.001" y2="85.5038" class="gray" /></g>
<g><line x1="118.722" y1="89.5046" x2="119.148" y2="92.9047" class="gray" /></g>
<g><line x1="121.358" y1="95.4819" x2="125.102" y2="96.5474" class="gray" /></g>
<g><line x1="128.633" y1="98.3965" x2="131.077" y2="100.403" class="gray" /></g>
<g><line x1="133.735" y1="103.417" x2="135.595" y2="106.372" class="gray" /></g>
<g><line x1="137.143" y1="110.077" x2="137.947" y2="113.512" class="gray" /></g>
<g><line x1="138.098" y1="117.506" x2="137.562" y2="120.953" class="gray" /></g>
<g><line x1="138.898" y1="124.16" x2="141.722" y2="126.209" class="gray" /></g>
<g><line x1="144.999" y1="128.626" x2="147.651" y2="130.614" class="gray" /></g>
<g><line x1="151.148" y1="131.025" x2="154.522" y2="129.564" class="gray" /></g>
<g><line x1="156.124" y1="130.773" x2="155.666" y2="134.256" class="gray" /></g>
<g><line x1="157.049" y1="137.468" x2="159.871" y2="139.511" class="gray" /></g>
<g><line x1="163.55" y1="140.555" x2="167.24" y2="140.284" class="gray" /></g>
<g><line x1="170.98" y1="141.239" x2="173.91" y2="143.13" class="gray" /></g>
<g><line x1="176.312" y1="146.149" x2="177.498" y2="149.43" class="gray" /></g>
<g><line x1="177.533" y1="153.272" x2="176.387" y2="156.638" class="gray" /></g>
<g><line x1="174.113" y1="159.801" x2="171.607" y2="161.718" class="gray" /></g>
<g><line x1="167.955" y1="162.892" x2="164.265" y2="162.778" class="gray" /></g>
<g><line x1="160.646" y1="161.435" x2="157.934" y2="159.244" class="gray" /></g>
<g><line x1="155.865" y1="155.988" x2="155.035" y2="152.602" class="gray" /></g>
<g><line x1="152.902" y1="149.429" x2="150.078" y2="147.38" class="gray" /></g>
<g><line x1="146.782" y1="144.989" x2="143.958" y2="142.94" class="gray" /></g>
<g><line x1="140.642" y1="140.577" x2="137.648" y2="138.482" class="gray" /></g>
<g><line x1="134.331" y1="136.121" x2="131.499" y2="134.069" class="gray" /></g>
<g><line x1="128.05" y1="133.825" x2="125.13" y2="135.365" class="gray" /></g>
<g><line x1="123.273" y1="138.35" x2="123.177" y2="141.84" class="gray" /></g>
<g><line x1="123.233" y1="145.907" x2="123.427" y2="149.402" class="gray" /></g>
<g><line x1="123.54" y1="153.47" x2="123.54" y2="156.959" class="gray" /></g>
<g><line x1="123.427" y1="161.027" x2="123.233" y2="164.522" class="gray" /></g>
<g><line x1="123.12" y1="168.59" x2="123.12" y2="172.079" class="gray" /></g>
<g><line x1="123.177" y1="176.15" x2="123.273" y2="179.64" class="gray" /></g>
<g><line x1="124.742" y1="183.141" x2="127.161" y2="185.655" class="gray" /></g>
<g><line x1="127.169" y1="188.595" x2="124.762" y2="191.121" class="gray" /></g>
</svg>
