<svg
	xmlns="http://www.w3.org/2000/svg"
	width="215.59"
	height="267.923">
<g><style type="text/css" >
<!-- create color definitions -->
<![CDATA[
circle.red {stroke: rgb(255, 0, 255); fill: none; }
circle.green {stroke: rgb(0, 255, 0); fill: none; }
circle.blue {stroke: rgb(0, 0, 255); fill: none; }
circle.black {stroke: rgb(0, 0, 0); fill: none; }
circle.gray {stroke: rgb(204, 204, 204); fill: none; }
circle.brown {stroke: rgb(211.65, 104.55, 30.6); fill: none; }
line.red {stroke: rgb(255, 0, 255); stroke-width: 0.379709; }
line.green {stroke: rgb(0, 255, 0); stroke-width: 0.379709; }
line.blue {stroke: rgb(0, 0, 255); stroke-width: 0.379709; }
line.black {stroke: rgb(0, 0, 0); stroke-width: 0.379709; }
line.gray {stroke: rgb(204, 204, 204); stroke-width: 0.379709; }
line.brown {stroke: rgb(211.65, 104.55, 30.6); stroke-width: 0.379709; }
line {stroke: rgb(0, 0, 0); }
text.red {fill: rgb(255, 0, 255); font-size: 3.037671px; font-weight: bold; font-family: Helvetica; }
text.green {fill: rgb(0, 255, 0); font-size: 3.037671px; font-weight: bold; font-family: Helvetica; }
text.blue {fill: rgb(0, 0, 255); font-size: 3.037671px; font-weight: bold; font-family: Helvetica; }
text.black {fill: rgb(0, 0, 0); font-size: 3.037671px; font-weight: bold; font-family: Helvetica; }
text.gray {fill: rgb(204, 204, 204); font-size: 3.037671px; font-weight: bold; font-family: Helvetica; }
text.brown {fill: rgb(211.65, 104.55, 30.6); font-size: 3.037671px; font-weight: bold; font-family: Helvetica; }
text {fill: rgb(0, 0, 0); font-size: 3.037671px; font-weight: bold; font-family: Helvetica; text-anchor: middle; alignment-baseline: middle; }

.pseudoknot_connection{stroke-linecap: round; stroke-opacity: 0.2; stroke-width: 1.5; }
.pseudoknot_segment1{stroke-linecap: round; stroke-opacity: 0.4; stroke-width: 3.03767; }
.pseudoknot_segment2{stroke-linecap: round; stroke-opacity: 0.4; stroke-width: 3.03767; }
line.numbering-line{stroke: rgb(204, 204, 204); stroke-width: 0.189854; }
line.predicted{stroke: rgb(0, 0, 0); stroke-dasharray: 2; }
polyline{fill: none; stroke-linejoin: round; }
template{visibility: hidden; }
text.numbering-label{fill: rgb(204, 204, 204); }
]]>
</style></g>
<g><title>0 (position.label in template: 0.5')</title><text x="42.4369" y="217.923" class="green" >5'</text></g>
<g><title>1 (position.label in template: 1.U)</title><text x="50" y="217.923" class="green" >T</text></g>
<g><title>2 (position.label in template: 2.G)</title><text x="57.5631" y="217.923" class="black" >G</text></g>
<g><title>3 (position.label in template: 3.C)</title><text x="65.1261" y="217.923" class="black" >C</text></g>
<g><title>4 (position.label in template: 4.U)</title><text x="72.6892" y="217.923" class="green" >T</text></g>
<g><title>5 (position.label in template: 5.U)</title><text x="80.2522" y="217.923" class="green" >T</text></g>
<g><title>6 (position.label in template: 6.U)</title><text x="87.8153" y="217.923" class="green" >T</text></g>
<g><title>7 (position.label in template: 7.G)</title><text x="95.3783" y="217.923" class="black" >G</text></g>
<g><title>8 (position.label in template: 8.A)</title><text x="102.941" y="217.923" class="black" >A</text></g>
<g><title>9 (position.label in template: 9.G)</title><text x="110.504" y="217.923" class="black" >G</text></g>
<g><title>10 (position.label in template: 10.U)</title><text x="118.067" y="217.923" class="green" >T</text></g>
<g><text x="120.686" y="224.236" class="numbering-label sequential" >10</text></g>
<g><line x1="118.766" y1="219.606" x2="120.056" y2="222.717" class="numbering-line sequential" /></g>
<g><title>11 (position.label in template: 11.C)</title><text x="123.41" y="212.57" class="black" >C</text></g>
<g><line x1="125.435" y1="212.266" x2="133.415" y2="212.266" class="black" /></g>
<g><title>12 (position.label in template: 12.C)</title><text x="123.41" y="205.01" class="black" >C</text></g>
<g><line x1="125.435" y1="204.706" x2="133.415" y2="204.706" class="black" /></g>
<g><title>13 (position.label in template: 13.U)</title><text x="123.41" y="197.45" class="green" >T</text></g>
<g><line x1="125.435" y1="197.146" x2="133.835" y2="197.146" class="black" /></g>
<g><title>14 (position.label in template: 14.A)</title><text x="123.62" y="189.89" class="black" >A</text></g>
<g><line x1="125.645" y1="189.586" x2="133.415" y2="189.586" class="black" /></g>
<g><title>15 (position.label in template: 15.C)</title><text x="123.41" y="182.33" class="black" >C</text></g>
<g><line x1="125.435" y1="182.026" x2="133.415" y2="182.026" class="black" /></g>
<g><title>16 (position.label in template: 16.C)</title><text x="123.41" y="174.77" class="black" >C</text></g>
<g><line x1="125.435" y1="174.466" x2="133.415" y2="174.466" class="black" /></g>
<g><title>17 (position.label in template: 17.C)</title><text x="123.41" y="167.21" class="black" >C</text></g>
<g><line x1="125.435" y1="166.906" x2="133.415" y2="166.906" class="black" /></g>
<g><title>18 (position.label in template: 18.U)</title><text x="123.41" y="159.65" class="green" >T</text></g>
<g><line x1="125.435" y1="159.346" x2="133.415" y2="159.346" class="black" /></g>
<g><title>19 (position.label in template: 19.A)</title><text x="123.62" y="152.09" class="black" >A</text></g>
<g><line x1="125.645" y1="151.786" x2="133.625" y2="151.786" class="black" /></g>
<g><title>20 (position.label in template: 20.A)</title><text x="116.41" y="149.81" class="green" >A</text></g>
<g><line x1="114.744" y1="148.356" x2="107.867" y2="143.607" class="black" /></g>
<g><text x="118.56" y="156.298" class="numbering-label sequential" >20</text></g>
<g><line x1="116.984" y1="151.54" x2="118.057" y2="154.779" class="numbering-line sequential" /></g>
<g><title>21 (position.label in template: 21.C)</title><text x="111.85" y="155.99" class="black" >C</text></g>
<g><line x1="110.183" y1="154.536" x2="103.297" y2="149.786" class="black" /></g>
<g><title>22 (position.label in template: 22.C)</title><text x="107.5" y="162.17" class="black" >C</text></g>
<g><line x1="105.833" y1="160.716" x2="98.9473" y2="155.966" class="black" /></g>
<g><title>23 (position.label in template: 23.U)</title><text x="108.17" y="169.7" class="green" >T</text></g>
<g><title>24 (position.label in template: 24.C)</title><text x="104.15" y="176.1" class="black" >C</text></g>
<g><title>25 (position.label in template: 25.C)</title><text x="97.0804" y="178.77" class="black" >C</text></g>
<g><title>26 (position.label in template: 26.A)</title><text x="90.0404" y="176.62" class="black" >A</text></g>
<g><title>27 (position.label in template: 27.C)</title><text x="85.3604" y="170.52" class="black" >C</text></g>
<g><title>28 (position.label in template: 28.G)</title><text x="85.2904" y="162.96" class="black" >G</text></g>
<g><title>29 (position.label in template: 29.U)</title><text x="90.1704" y="157.02" class="green" >T</text></g>
<g><title>30 (position.label in template: 30.G)</title><text x="97.2804" y="155.12" class="black" >G</text></g>
<g><text x="93.342" y="149.534" class="numbering-label sequential" >30</text></g>
<g><line x1="96.2301" y1="153.63" x2="94.4128" y2="151.053" class="numbering-line sequential" /></g>
<g><title>31 (position.label in template: 31.G)</title><text x="101.63" y="148.94" class="black" >G</text></g>
<g><title>32 (position.label in template: 32.U)</title><text x="106.2" y="142.76" class="green" >T</text></g>
<g><title>33 (position.label in template: 33.G)</title><text x="101.41" y="136.74" class="black" >G</text></g>
<g><title>34 (position.label in template: 34.C)</title><text x="98.5604" y="129.83" class="black" >C</text></g>
<g><title>35 (position.label in template: 35.U)</title><text x="97.1904" y="122.4" class="green" >T</text></g>
<g><title>36 (position.label in template: 36.G)</title><text x="97.3704" y="114.85" class="black" >G</text></g>
<g><title>37 (position.label in template: 37.A)</title><text x="99.9104" y="107.59" class="black" >A</text></g>
<g><title>38 (position.label in template: 38.C)</title><text x="103.45" y="101.02" class="black" >C</text></g>
<g><title>39 (position.label in template: 39.U)</title><text x="108.62" y="95.51" class="green" >T</text></g>
<g><title>40 (position.label in template: 40.G)</title><text x="114.71" y="91.33" class="black" >G</text></g>
<g><title>41 (position.label in template: 41.G)</title><text x="121.81" y="88.74" class="black" >G</text></g>
<g><title>42 (position.label in template: 42.A)</title><text x="129.74" y="87.86" class="black" >A</text></g>
<g><title>43 (position.label in template: 43.A)</title><text x="137.24" y="88.74" class="green" >A</text></g>
<g><line x1="139.081" y1="89.2809" x2="146.36" y2="92.6215" class="black" /></g>
<g><title>44 (position.label in template: 44.A)</title><text x="140.35" y="81.85" class="black" >A</text></g>
<g><line x1="142.185" y1="82.4045" x2="149.266" y2="85.718" class="black" /></g>
<g><title>45 (position.label in template: 45.U)</title><text x="143.26" y="74.96" class="green" >T</text></g>
<g><line x1="145.1" y1="75.5022" x2="152.36" y2="78.8403" class="black" /></g>
<g><title>46 (position.label in template: 46.G)</title><text x="146.15" y="68.06" class="black" >G</text></g>
<g><line x1="148.002" y1="68.5769" x2="155.669" y2="71.9756" class="black" /></g>
<g><title>47 (position.label in template: 47.G)</title><text x="149.26" y="61.17" class="black" >G</text></g>
<g><line x1="151.112" y1="61.6869" x2="158.779" y2="65.0856" class="black" /></g>
<g><title>48 (position.label in template: 48.A)</title><text x="150.68" y="53.68" class="black" >A</text></g>
<g><title>49 (position.label in template: 49.A)</title><text x="157.28" y="50" class="black" >A</text></g>
<g><title>50 (position.label in template: 50.U)</title><text x="163.97" y="53.11" class="green" >T</text></g>
<g><text x="169.33" y="48.8684" class="numbering-label sequential" >50</text></g>
<g><line x1="165.4" y1="51.9789" x2="167.411" y2="50.3873" class="numbering-line sequential" /></g>
<g><title>51 (position.label in template: 51.U)</title><text x="165.59" y="60.5" class="green" >T</text></g>
<g><title>52 (position.label in template: 52.C)</title><text x="160.63" y="66.21" class="black" >C</text></g>
<g><title>53 (position.label in template: 53.C)</title><text x="157.52" y="73.1" class="black" >C</text></g>
<g><title>54 (position.label in template: 54.G)</title><text x="154.2" y="79.99" class="green" >G</text></g>
<g><title>55 (position.label in template: 55.G)</title><text x="151.1" y="86.88" class="black" >G</text></g>
<g><title>56 (position.label in template: 56.U)</title><text x="148.2" y="93.77" class="green" >T</text></g>
<g><title>57 (position.label in template: 57.U)</title><text x="153.83" y="98.82" class="green" >T</text></g>
<g><title>58 (position.label in template: 58.C)</title><text x="158.13" y="105.03" class="black" >C</text></g>
<g><title>59 (position.label in template: 59.C)</title><text x="160.89" y="112.07" class="black" >C</text></g>
<g><title>60 (position.label in template: 60.G)</title><text x="161.72" y="119.56" class="black" >G</text></g>
<g><title>61 (position.label in template: 61.G)</title><text x="161.01" y="127.08" class="black" >G</text></g>
<g><title>62 (position.label in template: 62.C)</title><text x="158.78" y="134.24" class="black" >C</text></g>
<g><title>63 (position.label in template: 63.C)</title><text x="154.74" y="140.63" class="black" >C</text></g>
<g><title>64 (position.label in template: 64.A)</title><text x="149.55" y="145.92" class="black" >A</text></g>
<g><title>65 (position.label in template: 65.A)</title><text x="143.06" y="149.81" class="black" >A</text></g>
<g><title>66 (position.label in template: 66.C)</title><text x="135.65" y="152.09" class="black" >C</text></g>
<g><title>67 (position.label in template: 67.G)</title><text x="135.44" y="159.65" class="green" >G</text></g>
<g><title>68 (position.label in template: 68.G)</title><text x="135.44" y="167.21" class="black" >G</text></g>
<g><title>69 (position.label in template: 69.G)</title><text x="135.44" y="174.77" class="black" >G</text></g>
<g><title>70 (position.label in template: 70.G)</title><text x="135.44" y="182.33" class="black" >G</text></g>
<g><title>71 (position.label in template: 71.G)</title><text x="135.44" y="189.89" class="black" >G</text></g>
<g><title>72 (position.label in template: 72.A)</title><text x="135.86" y="197.45" class="green" >A</text></g>
<g><title>73 (position.label in template: 73.G)</title><text x="135.44" y="205.01" class="black" >G</text></g>
<g><title>74 (position.label in template: 74.G)</title><text x="135.44" y="212.57" class="black" >G</text></g>
<g><title>75 (position.label in template: 75.3')</title><text x="142.668" y="210.343" class="green" >3'</text></g>
<g><line x1="44.4621" y1="217.619" x2="47.9749" y2="217.619" class="gray" /></g>
<g><line x1="52.0251" y1="217.619" x2="55.5379" y2="217.619" class="gray" /></g>
<g><line x1="59.5882" y1="217.619" x2="63.101" y2="217.619" class="gray" /></g>
<g><line x1="67.1512" y1="217.619" x2="70.6641" y2="217.619" class="gray" /></g>
<g><line x1="74.7143" y1="217.619" x2="78.2271" y2="217.619" class="gray" /></g>
<g><line x1="82.2773" y1="217.619" x2="85.7902" y2="217.619" class="gray" /></g>
<g><line x1="89.8404" y1="217.619" x2="93.3532" y2="217.619" class="gray" /></g>
<g><line x1="97.4034" y1="217.619" x2="100.916" y2="217.619" class="gray" /></g>
<g><line x1="104.967" y1="217.619" x2="108.479" y2="217.619" class="gray" /></g>
<g><line x1="112.53" y1="217.619" x2="116.042" y2="217.619" class="gray" /></g>
<g><line x1="119.498" y1="216.186" x2="121.98" y2="213.7" class="gray" /></g>
<g><line x1="123.41" y1="210.241" x2="123.41" y2="206.731" class="gray" /></g>
<g><line x1="123.41" y1="202.681" x2="123.41" y2="199.171" class="gray" /></g>
<g><line x1="123.467" y1="195.122" x2="123.564" y2="191.611" class="gray" /></g>
<g><line x1="123.564" y1="187.562" x2="123.467" y2="184.051" class="gray" /></g>
<g><line x1="123.41" y1="180.001" x2="123.41" y2="176.491" class="gray" /></g>
<g><line x1="123.41" y1="172.441" x2="123.41" y2="168.931" class="gray" /></g>
<g><line x1="123.41" y1="164.881" x2="123.41" y2="161.371" class="gray" /></g>
<g><line x1="123.467" y1="157.322" x2="123.564" y2="153.811" class="gray" /></g>
<g><line x1="121.69" y1="151.176" x2="118.341" y2="150.117" class="gray" /></g>
<g><line x1="115.208" y1="151.136" x2="113.053" y2="154.057" class="gray" /></g>
<g><line x1="110.685" y1="157.342" x2="108.666" y2="160.21" class="gray" /></g>
<g><line x1="107.68" y1="163.883" x2="107.991" y2="167.379" class="gray" /></g>
<g><line x1="107.093" y1="171.111" x2="105.228" y2="174.081" class="gray" /></g>
<g><line x1="102.256" y1="176.512" x2="98.9749" y2="177.751" class="gray" /></g>
<g><line x1="95.1436" y1="177.875" x2="91.9772" y2="176.908" class="gray" /></g>
<g><line x1="88.8077" y1="174.71" x2="86.5931" y2="171.823" class="gray" /></g>
<g><line x1="85.3416" y1="168.191" x2="85.3091" y2="164.681" class="gray" /></g>
<g><line x1="86.5759" y1="161.091" x2="88.8848" y2="158.281" class="gray" /></g>
<g><line x1="92.1268" y1="156.193" x2="95.3239" y2="155.339" class="gray" /></g>
<g><line x1="98.446" y1="153.16" x2="100.465" y2="150.292" class="gray" /></g>
<g><line x1="102.834" y1="147.008" x2="104.996" y2="144.085" class="gray" /></g>
<g><line x1="104.939" y1="140.872" x2="102.671" y2="138.021" class="gray" /></g>
<g><line x1="100.638" y1="134.564" x2="99.3325" y2="131.398" class="gray" /></g>
<g><line x1="98.1932" y1="127.535" x2="97.5576" y2="124.088" class="gray" /></g>
<g><line x1="97.2386" y1="120.072" x2="97.3221" y2="116.571" class="gray" /></g>
<g><line x1="98.0391" y1="112.635" x2="99.2416" y2="109.198" class="gray" /></g>
<g><line x1="100.871" y1="105.503" x2="102.49" y2="102.499" class="gray" /></g>
<g><line x1="104.836" y1="99.2394" x2="107.235" y2="96.683" class="gray" /></g>
<g><line x1="110.29" y1="94.0602" x2="113.041" y2="92.1722" class="gray" /></g>
<g><line x1="116.613" y1="90.3322" x2="119.908" y2="89.1302" class="gray" /></g>
<g><line x1="123.823" y1="88.2129" x2="127.728" y2="87.7796" class="gray" /></g>
<g><line x1="131.752" y1="87.7922" x2="135.229" y2="88.2002" class="gray" /></g>
<g><line x1="138.074" y1="86.5904" x2="139.517" y2="83.392" class="gray" /></g>
<g><line x1="141.138" y1="79.6807" x2="142.472" y2="76.5218" class="gray" /></g>
<g><line x1="144.043" y1="72.7883" x2="145.368" y2="69.6241" class="gray" /></g>
<g><line x1="146.984" y1="65.9104" x2="148.427" y2="62.712" class="gray" /></g>
<g><line x1="149.638" y1="58.8766" x2="150.303" y2="55.3659" class="gray" /></g>
<g><line x1="152.449" y1="52.39" x2="155.512" y2="50.6824" class="gray" /></g>
<g><line x1="159.117" y1="50.5499" x2="162.134" y2="51.9525" class="gray" /></g>
<g><line x1="164.404" y1="54.7844" x2="165.157" y2="58.2181" class="gray" /></g>
<g><line x1="164.262" y1="61.7251" x2="161.958" y2="64.3774" class="gray" /></g>
<g><line x1="159.797" y1="67.752" x2="158.354" y2="70.9504" class="gray" /></g>
<g><line x1="156.641" y1="74.6206" x2="155.079" y2="77.8619" class="gray" /></g>
<g><line x1="153.369" y1="81.533" x2="151.931" y2="84.7294" class="gray" /></g>
<g><line x1="150.315" y1="88.4428" x2="148.986" y2="91.5997" class="gray" /></g>
<g><line x1="149.708" y1="94.8184" x2="152.323" y2="97.164" class="gray" /></g>
<g><line x1="154.983" y1="100.181" x2="156.978" y2="103.061" class="gray" /></g>
<g><line x1="158.87" y1="106.612" x2="160.151" y2="109.881" class="gray" /></g>
<g><line x1="161.113" y1="113.779" x2="161.497" y2="117.243" class="gray" /></g>
<g><line x1="161.53" y1="121.272" x2="161.201" y2="124.76" class="gray" /></g>
<g><line x1="160.408" y1="128.71" x2="159.383" y2="132.003" class="gray" /></g>
<g><line x1="157.698" y1="135.648" x2="155.823" y2="138.615" class="gray" /></g>
<g><line x1="153.322" y1="141.772" x2="150.969" y2="144.171" class="gray" /></g>
<g><line x1="147.813" y1="146.657" x2="144.797" y2="148.465" class="gray" /></g>
<g><line x1="141.125" y1="150.102" x2="137.586" y2="151.191" class="gray" /></g>
<g><line x1="135.594" y1="153.811" x2="135.497" y2="157.322" class="gray" /></g>
<g><line x1="135.44" y1="161.371" x2="135.44" y2="164.881" class="gray" /></g>
<g><line x1="135.44" y1="168.931" x2="135.44" y2="172.441" class="gray" /></g>
<g><line x1="135.44" y1="176.491" x2="135.44" y2="180.001" class="gray" /></g>
<g><line x1="135.44" y1="184.051" x2="135.44" y2="187.561" class="gray" /></g>
<g><line x1="135.553" y1="191.608" x2="135.748" y2="195.124" class="gray" /></g>
<g><line x1="135.748" y1="199.168" x2="135.553" y2="202.684" class="gray" /></g>
<g><line x1="135.44" y1="206.731" x2="135.44" y2="210.241" class="gray" /></g>
<g><line x1="137.376" y1="211.67" x2="140.733" y2="210.636" class="gray" /></g>
</svg>
