<svg
	xmlns="http://www.w3.org/2000/svg"
	width="276.02"
	height="287.131">
<g><style type="text/css" >
<!-- create color definitions -->
<![CDATA[
circle.red {stroke: rgb(255, 0, 255); fill: none; }
circle.green {stroke: rgb(0, 255, 0); fill: none; }
circle.blue {stroke: rgb(0, 0, 255); fill: none; }
circle.black {stroke: rgb(0, 0, 0); fill: none; }
circle.gray {stroke: rgb(204, 204, 204); fill: none; }
circle.brown {stroke: rgb(211.65, 104.55, 30.6); fill: none; }
line.red {stroke: rgb(255, 0, 255); stroke-width: 0.382699; }
line.green {stroke: rgb(0, 255, 0); stroke-width: 0.382699; }
line.blue {stroke: rgb(0, 0, 255); stroke-width: 0.382699; }
line.black {stroke: rgb(0, 0, 0); stroke-width: 0.382699; }
line.gray {stroke: rgb(204, 204, 204); stroke-width: 0.382699; }
line.brown {stroke: rgb(211.65, 104.55, 30.6); stroke-width: 0.382699; }
line {stroke: rgb(0, 0, 0); }
text.red {fill: rgb(255, 0, 255); font-size: 3.061591px; font-weight: bold; font-family: Helvetica; }
text.green {fill: rgb(0, 255, 0); font-size: 3.061591px; font-weight: bold; font-family: Helvetica; }
text.blue {fill: rgb(0, 0, 255); font-size: 3.061591px; font-weight: bold; font-family: Helvetica; }
text.black {fill: rgb(0, 0, 0); font-size: 3.061591px; font-weight: bold; font-family: Helvetica; }
text.gray {fill: rgb(204, 204, 204); font-size: 3.061591px; font-weight: bold; font-family: Helvetica; }
text.brown {fill: rgb(211.65, 104.55, 30.6); font-size: 3.061591px; font-weight: bold; font-family: Helvetica; }
text {fill: rgb(0, 0, 0); font-size: 3.061591px; font-weight: bold; font-family: Helvetica; text-anchor: middle; alignment-baseline: middle; }

.pseudoknot_connection{stroke-linecap: round; stroke-opacity: 0.2; stroke-width: 1.5; }
.pseudoknot_segment1{stroke-linecap: round; stroke-opacity: 0.4; stroke-width: 3.06159; }
.pseudoknot_segment2{stroke-linecap: round; stroke-opacity: 0.4; stroke-width: 3.06159; }
line.numbering-line{stroke: rgb(204, 204, 204); stroke-width: 0.191349; }
line.predicted{stroke: rgb(0, 0, 0); stroke-dasharray: 2; }
polyline{fill: none; stroke-linejoin: round; }
template{visibility: hidden; }
text.numbering-label{fill: rgb(204, 204, 204); }
]]>
</style></g>
<g><title>0 (position.label in template: 0.5')</title><text x="53.9715" y="242.692" class="green" >5'</text></g>
<g><title>1 (position.label in template: 1.A)</title><text x="59.0957" y="237.131" class="black" >A</text></g>
<g><title>2 (position.label in template: 2.G)</title><text x="64.22" y="231.57" class="black" >G</text></g>
<g><line x1="66.2611" y1="231.264" x2="74.6289" y2="231.264" class="black" /></g>
<g><title>3 (position.label in template: 3.G)</title><text x="64.22" y="224.01" class="black" >G</text></g>
<g><line x1="66.2611" y1="223.704" x2="74.6289" y2="223.704" class="black" /></g>
<g><title>4 (position.label in template: 4.U)</title><text x="64.43" y="216.45" class="green" >T</text></g>
<g><line x1="66.4711" y1="216.144" x2="74.8389" y2="216.144" class="black" /></g>
<g><title>5 (position.label in template: 5.C)</title><text x="64.43" y="208.89" class="black" >C</text></g>
<g><line x1="66.4711" y1="208.584" x2="74.4189" y2="208.584" class="black" /></g>
<g><title>6 (position.label in template: 6.A)</title><text x="64.64" y="201.33" class="green" >A</text></g>
<g><line x1="66.6811" y1="201.024" x2="74.6289" y2="201.024" class="black" /></g>
<g><title>7 (position.label in template: 7.U)</title><text x="64.43" y="193.77" class="green" >T</text></g>
<g><line x1="66.4711" y1="193.464" x2="74.4189" y2="193.464" class="black" /></g>
<g><title>8 (position.label in template: 8.U)</title><text x="57.72" y="190.29" class="green" >T</text></g>
<g><title>9 (position.label in template: 9.U)</title><text x="52.69" y="184.64" class="green" >T</text></g>
<g><title>10 (position.label in template: 10.C)</title><text x="50" y="177.58" class="black" >C</text></g>
<g><text x="43.2084" y="178.732" class="numbering-label sequential" >10</text></g>
<g><line x1="48.1889" y1="177.887" x2="45.0454" y2="178.42" class="numbering-line sequential" /></g>
<g><title>11 (position.label in template: 11.A)</title><text x="50.21" y="170.02" class="black" >A</text></g>
<g><title>12 (position.label in template: 12.A)</title><text x="52.9" y="162.95" class="black" >A</text></g>
<g><title>13 (position.label in template: 13.A)</title><text x="57.93" y="157.31" class="black" >A</text></g>
<g><title>14 (position.label in template: 14.G)</title><text x="64.22" y="153.82" class="green" >G</text></g>
<g><line x1="66.2611" y1="153.514" x2="74.6289" y2="153.514" class="black" /></g>
<g><title>15 (position.label in template: 15.A)</title><text x="64.64" y="146.26" class="green" >A</text></g>
<g><line x1="66.6811" y1="145.954" x2="74.6289" y2="145.954" class="black" /></g>
<g><title>16 (position.label in template: 16.G)</title><text x="64.22" y="138.7" class="black" >G</text></g>
<g><line x1="66.2611" y1="138.394" x2="74.6289" y2="138.394" class="black" /></g>
<g><title>17 (position.label in template: 17.G)</title><text x="64.22" y="131.14" class="green" >G</text></g>
<g><line x1="66.2611" y1="130.834" x2="74.6289" y2="130.834" class="black" /></g>
<g><title>18 (position.label in template: 18.G)</title><text x="64.22" y="123.58" class="black" >G</text></g>
<g><line x1="66.2611" y1="123.274" x2="74.6289" y2="123.274" class="black" /></g>
<g><title>19 (position.label in template: 19.C)</title><text x="64.43" y="116.02" class="black" >C</text></g>
<g><line x1="66.4711" y1="115.714" x2="74.4189" y2="115.714" class="black" /></g>
<g><title>20 (position.label in template: 20.U)</title><text x="64.43" y="108.46" class="green" >T</text></g>
<g><line x1="66.4711" y1="108.154" x2="74.8389" y2="108.154" class="black" /></g>
<g><text x="57.5414" y="108.46" class="numbering-label sequential" >20</text></g>
<g><line x1="62.593" y1="108.46" x2="59.3784" y2="108.46" class="numbering-line sequential" /></g>
<g><title>21 (position.label in template: 21.U)</title><text x="64.43" y="100.9" class="green" >T</text></g>
<g><line x1="66.4711" y1="100.594" x2="74.4189" y2="100.594" class="black" /></g>
<g><title>22 (position.label in template: 22.A)</title><text x="58.09" y="97.12" class="black" >A</text></g>
<g><title>23 (position.label in template: 23.U)</title><text x="64.43" y="93.34" class="green" >T</text></g>
<g><line x1="66.4711" y1="93.0338" x2="74.4189" y2="93.0338" class="black" /></g>
<g><title>24 (position.label in template: 24.G)</title><text x="59.52" y="87.42" class="black" >G</text></g>
<g><title>25 (position.label in template: 25.G)</title><text x="59.52" y="79.86" class="black" >G</text></g>
<g><title>26 (position.label in template: 26.G)</title><text x="64.22" y="73.95" class="black" >G</text></g>
<g><line x1="66.2611" y1="73.6438" x2="74.6289" y2="73.6438" class="black" /></g>
<g><title>27 (position.label in template: 27.A)</title><text x="59.28" y="68.61" class="black" >A</text></g>
<g><title>28 (position.label in template: 28.C)</title><text x="57.6" y="61.19" class="black" >C</text></g>
<g><title>29 (position.label in template: 29.C)</title><text x="60.49" y="54.21" class="black" >C</text></g>
<g><title>30 (position.label in template: 30.A)</title><text x="66.98" y="50" class="black" >A</text></g>
<g><text x="65.0027" y="43.4013" class="numbering-label sequential" >30</text></g>
<g><line x1="66.4527" y1="48.2403" x2="65.4614" y2="44.9321" class="numbering-line sequential" /></g>
<g><title>31 (position.label in template: 31.A)</title><text x="74.54" y="50" class="black" >A</text></g>
<g><title>32 (position.label in template: 32.A)</title><text x="80.82" y="54.21" class="black" >A</text></g>
<g><title>33 (position.label in template: 33.A)</title><text x="83.71" y="61.19" class="black" >A</text></g>
<g><title>34 (position.label in template: 34.C)</title><text x="82.02" y="68.61" class="black" >C</text></g>
<g><title>35 (position.label in template: 35.C)</title><text x="76.67" y="73.95" class="black" >C</text></g>
<g><title>36 (position.label in template: 36.C)</title><text x="81.38" y="79.86" class="black" >C</text></g>
<g><title>37 (position.label in template: 37.A)</title><text x="81.58" y="87.42" class="black" >A</text></g>
<g><title>38 (position.label in template: 38.G)</title><text x="76.46" y="93.34" class="green" >G</text></g>
<g><title>39 (position.label in template: 39.G)</title><text x="76.46" y="100.9" class="green" >G</text></g>
<g><title>40 (position.label in template: 40.A)</title><text x="76.88" y="108.46" class="green" >A</text></g>
<g><title>41 (position.label in template: 41.G)</title><text x="76.46" y="116.02" class="black" >G</text></g>
<g><title>42 (position.label in template: 42.C)</title><text x="76.67" y="123.58" class="black" >C</text></g>
<g><title>43 (position.label in template: 43.U)</title><text x="76.67" y="131.14" class="green" >T</text></g>
<g><title>44 (position.label in template: 44.C)</title><text x="76.67" y="138.7" class="black" >C</text></g>
<g><title>45 (position.label in template: 45.U)</title><text x="76.67" y="146.26" class="green" >T</text></g>
<g><title>46 (position.label in template: 46.U)</title><text x="76.67" y="153.82" class="green" >T</text></g>
<g><title>47 (position.label in template: 47.A)</title><text x="83.59" y="157.31" class="black" >A</text></g>
<g><title>48 (position.label in template: 48.A)</title><text x="88.61" y="162.95" class="black" >A</text></g>
<g><title>49 (position.label in template: 49.C)</title><text x="91.1" y="170.02" class="black" >C</text></g>
<g><title>50 (position.label in template: 50.G)</title><text x="90.89" y="177.58" class="black" >G</text></g>
<g><text x="97.6649" y="178.827" class="numbering-label sequential" >50</text></g>
<g><line x1="92.6966" y1="177.912" x2="95.8279" y2="178.489" class="numbering-line sequential" /></g>
<g><title>51 (position.label in template: 51.C)</title><text x="88.41" y="184.64" class="black" >C</text></g>
<g><title>52 (position.label in template: 52.U)</title><text x="83.38" y="190.29" class="green" >T</text></g>
<g><title>53 (position.label in template: 53.G)</title><text x="76.46" y="193.77" class="green" >G</text></g>
<g><title>54 (position.label in template: 54.U)</title><text x="76.67" y="201.33" class="green" >T</text></g>
<g><title>55 (position.label in template: 55.G)</title><text x="76.46" y="208.89" class="black" >G</text></g>
<g><title>56 (position.label in template: 56.A)</title><text x="76.88" y="216.45" class="green" >A</text></g>
<g><title>57 (position.label in template: 57.C)</title><text x="76.67" y="224.01" class="black" >C</text></g>
<g><title>58 (position.label in template: 58.C)</title><text x="76.67" y="231.57" class="black" >C</text></g>
<g><title>59 (position.label in template: 59.A)</title><text x="82.22" y="236.92" class="black" >A</text></g>
<g><title>60 (position.label in template: 60.A)</title><text x="89.78" y="236.92" class="black" >A</text></g>
<g><title>61 (position.label in template: 61.A)</title><text x="97.34" y="236.92" class="black" >A</text></g>
<g><title>62 (position.label in template: 62.G)</title><text x="104.49" y="236.92" class="black" >G</text></g>
<g><title>63 (position.label in template: 63.A)</title><text x="112.46" y="236.92" class="black" >A</text></g>
<g><title>64 (position.label in template: 64.U)</title><text x="119.82" y="236.92" class="green" >T</text></g>
<g><title>65 (position.label in template: 65.U)</title><text x="127.38" y="236.92" class="green" >T</text></g>
<g><title>66 (position.label in template: 66.G)</title><text x="134.73" y="236.92" class="black" >G</text></g>
<g><title>67 (position.label in template: 67.A)</title><text x="142.7" y="236.92" class="black" >A</text></g>
<g><title>68 (position.label in template: 68.G)</title><text x="149.85" y="236.92" class="black" >G</text></g>
<g><title>69 (position.label in template: 69.U)</title><text x="157.62" y="236.92" class="green" >T</text></g>
<g><title>70 (position.label in template: 70.U)</title><text x="162.96" y="231.57" class="green" >T</text></g>
<g><line x1="165.001" y1="231.264" x2="173.369" y2="231.264" class="black" /></g>
<g><title>71 (position.label in template: 71.C)</title><text x="162.96" y="224.01" class="black" >C</text></g>
<g><line x1="165.001" y1="223.704" x2="172.949" y2="223.704" class="black" /></g>
<g><title>72 (position.label in template: 72.U)</title><text x="162.96" y="216.45" class="green" >T</text></g>
<g><line x1="165.001" y1="216.144" x2="173.369" y2="216.144" class="black" /></g>
<g><title>73 (position.label in template: 73.U)</title><text x="162.96" y="208.89" class="green" >T</text></g>
<g><line x1="165.001" y1="208.584" x2="172.949" y2="208.584" class="black" /></g>
<g><title>74 (position.label in template: 74.C)</title><text x="162.96" y="201.33" class="black" >C</text></g>
<g><line x1="165.001" y1="201.024" x2="172.949" y2="201.024" class="black" /></g>
<g><title>75 (position.label in template: 75.A)</title><text x="158.46" y="195.42" class="black" >A</text></g>
<g><title>76 (position.label in template: 76.U)</title><text x="158.26" y="187.86" class="green" >T</text></g>
<g><title>77 (position.label in template: 77.U)</title><text x="162.96" y="181.94" class="green" >T</text></g>
<g><line x1="165.001" y1="181.634" x2="173.159" y2="181.634" class="black" /></g>
<g><title>78 (position.label in template: 78.G)</title><text x="162.75" y="174.38" class="black" >G</text></g>
<g><line x1="164.791" y1="174.074" x2="173.159" y2="174.074" class="black" /></g>
<g><title>79 (position.label in template: 79.G)</title><text x="162.75" y="166.82" class="black" >G</text></g>
<g><line x1="164.791" y1="166.514" x2="173.159" y2="166.514" class="black" /></g>
<g><title>80 (position.label in template: 80.U)</title><text x="162.96" y="159.26" class="green" >T</text></g>
<g><line x1="165.001" y1="158.954" x2="173.159" y2="158.954" class="black" /></g>
<g><title>81 (position.label in template: 81.U)</title><text x="156.83" y="154.83" class="green" >T</text></g>
<g><title>82 (position.label in template: 82.G)</title><text x="153.18" y="148.1" class="black" >G</text></g>
<g><title>83 (position.label in template: 83.U)</title><text x="153.39" y="140.54" class="green" >T</text></g>
<g><title>84 (position.label in template: 84.A)</title><text x="157.04" y="133.81" class="black" >A</text></g>
<g><title>85 (position.label in template: 85.A)</title><text x="163.17" y="129.39" class="green" >A</text></g>
<g><line x1="165.211" y1="129.084" x2="173.159" y2="129.084" class="black" /></g>
<g><title>86 (position.label in template: 86.U)</title><text x="162.96" y="121.83" class="green" >T</text></g>
<g><line x1="165.001" y1="121.524" x2="173.369" y2="121.524" class="black" /></g>
<g><title>87 (position.label in template: 87.A)</title><text x="163.17" y="114.27" class="green" >A</text></g>
<g><line x1="165.211" y1="113.964" x2="173.159" y2="113.964" class="black" /></g>
<g><title>88 (position.label in template: 88.G)</title><text x="162.75" y="106.71" class="black" >G</text></g>
<g><line x1="164.791" y1="106.404" x2="173.159" y2="106.404" class="black" /></g>
<g><title>89 (position.label in template: 89.U)</title><text x="156.41" y="102.93" class="green" >T</text></g>
<g><title>90 (position.label in template: 90.C)</title><text x="162.96" y="99.15" class="black" >C</text></g>
<g><line x1="165.001" y1="98.8438" x2="172.949" y2="98.8438" class="black" /></g>
<g><title>91 (position.label in template: 91.A)</title><text x="163.17" y="91.59" class="green" >A</text></g>
<g><line x1="165.211" y1="91.2838" x2="173.159" y2="91.2838" class="black" /></g>
<g><title>92 (position.label in template: 92.C)</title><text x="162.96" y="84.03" class="black" >C</text></g>
<g><line x1="165.001" y1="83.7238" x2="172.949" y2="83.7238" class="black" /></g>
<g><title>93 (position.label in template: 93.U)</title><text x="162.96" y="76.47" class="green" >T</text></g>
<g><line x1="165.001" y1="76.1638" x2="173.369" y2="76.1638" class="black" /></g>
<g><title>94 (position.label in template: 94.C)</title><text x="160.79" y="69.23" class="black" >C</text></g>
<g><title>95 (position.label in template: 95.A)</title><text x="165.51" y="63.16" class="black" >A</text></g>
<g><title>96 (position.label in template: 96.A)</title><text x="173.07" y="63.16" class="black" >A</text></g>
<g><title>97 (position.label in template: 97.U)</title><text x="177.38" y="69.23" class="green" >T</text></g>
<g><title>98 (position.label in template: 98.A)</title><text x="175.41" y="76.47" class="green" >A</text></g>
<g><title>99 (position.label in template: 99.G)</title><text x="174.99" y="84.03" class="black" >G</text></g>
<g><title>100 (position.label in template: 100.U)</title><text x="175.2" y="91.59" class="green" >T</text></g>
<g><text x="182.089" y="91.59" class="numbering-label sequential" >100</text></g>
<g><line x1="177.037" y1="91.59" x2="179.333" y2="91.59" class="numbering-line sequential" /></g>
<g><title>101 (position.label in template: 101.G)</title><text x="174.99" y="99.15" class="black" >G</text></g>
<g><title>102 (position.label in template: 102.C)</title><text x="175.2" y="106.71" class="black" >C</text></g>
<g><title>103 (position.label in template: 103.U)</title><text x="175.2" y="114.27" class="green" >T</text></g>
<g><title>104 (position.label in template: 104.A)</title><text x="175.41" y="121.83" class="green" >A</text></g>
<g><title>105 (position.label in template: 105.U)</title><text x="175.2" y="129.39" class="green" >T</text></g>
<g><title>106 (position.label in template: 106.G)</title><text x="181.12" y="133.81" class="black" >G</text></g>
<g><title>107 (position.label in template: 107.U)</title><text x="184.77" y="140.54" class="green" >T</text></g>
<g><title>108 (position.label in template: 108.U)</title><text x="184.77" y="148.1" class="green" >T</text></g>
<g><title>109 (position.label in template: 109.U)</title><text x="181.33" y="154.83" class="green" >T</text></g>
<g><title>110 (position.label in template: 110.U)</title><text x="175.2" y="159.26" class="green" >T</text></g>
<g><title>111 (position.label in template: 111.C)</title><text x="175.2" y="166.82" class="black" >C</text></g>
<g><title>112 (position.label in template: 112.C)</title><text x="175.2" y="174.38" class="black" >C</text></g>
<g><title>113 (position.label in template: 113.U)</title><text x="175.2" y="181.94" class="green" >T</text></g>
<g><title>114 (position.label in template: 114.A)</title><text x="182.46" y="184.67" class="black" >A</text></g>
<g><title>115 (position.label in template: 115.A)</title><text x="185.4" y="191.64" class="black" >A</text></g>
<g><title>116 (position.label in template: 116.U)</title><text x="182.25" y="198.6" class="green" >T</text></g>
<g><title>117 (position.label in template: 117.G)</title><text x="174.99" y="201.33" class="black" >G</text></g>
<g><title>118 (position.label in template: 118.G)</title><text x="174.99" y="208.89" class="green" >G</text></g>
<g><title>119 (position.label in template: 119.A)</title><text x="175.41" y="216.45" class="green" >A</text></g>
<g><title>120 (position.label in template: 120.G)</title><text x="174.99" y="224.01" class="black" >G</text></g>
<g><title>121 (position.label in template: 121.A)</title><text x="175.41" y="231.57" class="green" >A</text></g>
<g><title>122 (position.label in template: 122.C)</title><text x="180.649" y="237.023" class="black" >C</text></g>
<g><title>123 (position.label in template: 123.A)</title><text x="188.211" y="237.023" class="black" >A</text></g>
<g><title>124 (position.label in template: 124.C)</title><text x="195.773" y="237.023" class="black" >C</text></g>
<g><title>125 (position.label in template: 125.A)</title><text x="203.334" y="237.023" class="black" >A</text></g>
<g><title>126 (position.label in template: 126.A)</title><text x="210.896" y="237.023" class="black" >A</text></g>
<g><title>127 (position.label in template: 127.G)</title><text x="218.458" y="237.023" class="black" >G</text></g>
<g><title>128 (position.label in template: 128.A)</title><text x="226.02" y="237.023" class="black" >A</text></g>
<g><title>129 (position.label in template: 129.3')</title><text x="233.582" y="237.023" class="green" >3'</text></g>
<g><line x1="55.3546" y1="240.885" x2="57.7126" y2="238.326" class="gray" /></g>
<g><line x1="60.4789" y1="235.324" x2="62.8369" y2="232.765" class="gray" /></g>
<g><line x1="64.22" y1="229.223" x2="64.22" y2="225.745" class="gray" /></g>
<g><line x1="64.2767" y1="221.664" x2="64.3733" y2="218.184" class="gray" /></g>
<g><line x1="64.43" y1="214.103" x2="64.43" y2="210.625" class="gray" /></g>
<g><line x1="64.4867" y1="206.544" x2="64.5833" y2="203.064" class="gray" /></g>
<g><line x1="64.5833" y1="198.984" x2="64.4867" y2="195.504" class="gray" /></g>
<g><line x1="62.6181" y1="192.524" x2="59.5319" y2="190.924" class="gray" /></g>
<g><line x1="56.3628" y1="188.459" x2="54.0472" y2="185.858" class="gray" /></g>
<g><line x1="51.9633" y1="182.427" x2="50.7267" y2="179.181" class="gray" /></g>
<g><line x1="50.0567" y1="175.234" x2="50.1533" y2="171.754" class="gray" /></g>
<g><line x1="50.9358" y1="167.806" x2="52.1742" y2="164.551" class="gray" /></g>
<g><line x1="54.2585" y1="161.121" x2="56.5715" y2="158.527" class="gray" /></g>
<g><line x1="59.7147" y1="156.014" x2="62.4353" y2="154.504" class="gray" /></g>
<g><line x1="64.3332" y1="151.476" x2="64.5268" y2="147.992" class="gray" /></g>
<g><line x1="64.5268" y1="143.916" x2="64.3332" y2="140.432" class="gray" /></g>
<g><line x1="64.22" y1="136.353" x2="64.22" y2="132.875" class="gray" /></g>
<g><line x1="64.22" y1="128.793" x2="64.22" y2="125.315" class="gray" /></g>
<g><line x1="64.2767" y1="121.234" x2="64.3733" y2="117.754" class="gray" /></g>
<g><line x1="64.43" y1="113.673" x2="64.43" y2="110.195" class="gray" /></g>
<g><line x1="64.43" y1="106.113" x2="64.43" y2="102.635" class="gray" /></g>
<g><line x1="62.6769" y1="99.5486" x2="59.8431" y2="97.8591" class="gray" /></g>
<g><line x1="59.8431" y1="95.7686" x2="62.6769" y2="94.0791" class="gray" /></g>
<g><line x1="63.127" y1="91.4628" x2="60.823" y2="88.6849" class="gray" /></g>
<g><line x1="59.52" y1="85.0728" x2="59.52" y2="81.5949" class="gray" /></g>
<g><line x1="60.7904" y1="77.9564" x2="62.9496" y2="75.2413" class="gray" /></g>
<g><line x1="62.834" y1="72.1456" x2="60.666" y2="69.8021" class="gray" /></g>
<g><line x1="58.8293" y1="66.3132" x2="58.0507" y2="62.8745" class="gray" /></g>
<g><line x1="58.3808" y1="58.998" x2="59.7092" y2="55.7897" class="gray" /></g>
<g><line x1="62.2023" y1="52.7931" x2="65.2677" y2="50.8046" class="gray" /></g>
<g><line x1="69.0211" y1="49.6938" x2="72.4989" y2="49.6938" class="gray" /></g>
<g><line x1="76.2354" y1="50.8304" x2="79.1246" y2="52.7673" class="gray" /></g>
<g><line x1="81.6008" y1="55.7897" x2="82.9292" y2="58.998" class="gray" /></g>
<g><line x1="83.2567" y1="62.8739" x2="82.4733" y2="66.3137" class="gray" /></g>
<g><line x1="80.5754" y1="69.7457" x2="78.1146" y2="72.2019" class="gray" /></g>
<g><line x1="77.9421" y1="75.24" x2="80.1079" y2="77.9577" class="gray" /></g>
<g><line x1="81.434" y1="81.5942" x2="81.526" y2="85.0735" class="gray" /></g>
<g><line x1="80.2448" y1="88.6576" x2="77.7952" y2="91.4901" class="gray" /></g>
<g><line x1="76.46" y1="95.0749" x2="76.46" y2="98.5528" class="gray" /></g>
<g><line x1="76.5732" y1="102.632" x2="76.7668" y2="106.116" class="gray" /></g>
<g><line x1="76.7668" y1="110.192" x2="76.5732" y2="113.676" class="gray" /></g>
<g><line x1="76.5167" y1="117.754" x2="76.6133" y2="121.234" class="gray" /></g>
<g><line x1="76.67" y1="125.315" x2="76.67" y2="128.793" class="gray" /></g>
<g><line x1="76.67" y1="132.875" x2="76.67" y2="136.353" class="gray" /></g>
<g><line x1="76.67" y1="140.435" x2="76.67" y2="143.913" class="gray" /></g>
<g><line x1="76.67" y1="147.995" x2="76.67" y2="151.473" class="gray" /></g>
<g><line x1="78.4924" y1="154.433" x2="81.7676" y2="156.085" class="gray" /></g>
<g><line x1="84.947" y1="158.528" x2="87.253" y2="161.119" class="gray" /></g>
<g><line x1="89.288" y1="164.569" x2="90.422" y2="167.789" class="gray" /></g>
<g><line x1="91.0433" y1="171.754" x2="90.9467" y2="175.234" class="gray" /></g>
<g><line x1="90.2135" y1="179.2" x2="89.0865" y2="182.408" class="gray" /></g>
<g><line x1="87.0528" y1="185.858" x2="84.7372" y2="188.459" class="gray" /></g>
<g><line x1="81.5565" y1="190.901" x2="78.2835" y2="192.547" class="gray" /></g>
<g><line x1="76.5167" y1="195.504" x2="76.6133" y2="198.984" class="gray" /></g>
<g><line x1="76.6133" y1="203.064" x2="76.5167" y2="206.544" class="gray" /></g>
<g><line x1="76.5732" y1="210.622" x2="76.7668" y2="214.106" class="gray" /></g>
<g><line x1="76.8233" y1="218.184" x2="76.7267" y2="221.664" class="gray" /></g>
<g><line x1="76.67" y1="225.745" x2="76.67" y2="229.223" class="gray" /></g>
<g><line x1="78.1395" y1="232.68" x2="80.7505" y2="235.197" class="gray" /></g>
<g><line x1="84.2611" y1="236.614" x2="87.7389" y2="236.614" class="gray" /></g>
<g><line x1="91.8211" y1="236.614" x2="95.2989" y2="236.614" class="gray" /></g>
<g><line x1="99.3811" y1="236.614" x2="102.449" y2="236.614" class="gray" /></g>
<g><line x1="106.531" y1="236.614" x2="110.419" y2="236.614" class="gray" /></g>
<g><line x1="114.501" y1="236.614" x2="117.779" y2="236.614" class="gray" /></g>
<g><line x1="121.861" y1="236.614" x2="125.339" y2="236.614" class="gray" /></g>
<g><line x1="129.421" y1="236.614" x2="132.689" y2="236.614" class="gray" /></g>
<g><line x1="136.771" y1="236.614" x2="140.659" y2="236.614" class="gray" /></g>
<g><line x1="144.741" y1="236.614" x2="147.809" y2="236.614" class="gray" /></g>
<g><line x1="151.891" y1="236.614" x2="155.579" y2="236.614" class="gray" /></g>
<g><line x1="159.062" y1="235.169" x2="161.518" y2="232.708" class="gray" /></g>
<g><line x1="162.96" y1="229.223" x2="162.96" y2="225.745" class="gray" /></g>
<g><line x1="162.96" y1="221.663" x2="162.96" y2="218.185" class="gray" /></g>
<g><line x1="162.96" y1="214.103" x2="162.96" y2="210.625" class="gray" /></g>
<g><line x1="162.96" y1="206.543" x2="162.96" y2="203.065" class="gray" /></g>
<g><line x1="161.724" y1="199.4" x2="159.696" y2="196.738" class="gray" /></g>
<g><line x1="158.406" y1="193.073" x2="158.314" y2="189.594" class="gray" /></g>
<g><line x1="159.529" y1="185.955" x2="161.691" y2="183.232" class="gray" /></g>
<g><line x1="162.903" y1="179.594" x2="162.807" y2="176.114" class="gray" /></g>
<g><line x1="162.75" y1="172.033" x2="162.75" y2="168.555" class="gray" /></g>
<g><line x1="162.807" y1="164.474" x2="162.903" y2="160.994" class="gray" /></g>
<g><line x1="161.306" y1="157.758" x2="158.484" y2="155.719" class="gray" /></g>
<g><line x1="155.857" y1="152.73" x2="154.153" y2="149.588" class="gray" /></g>
<g><line x1="153.237" y1="145.754" x2="153.333" y2="142.274" class="gray" /></g>
<g><line x1="154.363" y1="138.44" x2="156.067" y2="135.298" class="gray" /></g>
<g><line x1="158.696" y1="132.31" x2="161.514" y2="130.278" class="gray" /></g>
<g><line x1="163.113" y1="127.044" x2="163.017" y2="123.564" class="gray" /></g>
<g><line x1="163.017" y1="119.484" x2="163.113" y2="116.004" class="gray" /></g>
<g><line x1="163.057" y1="111.926" x2="162.863" y2="108.442" class="gray" /></g>
<g><line x1="160.997" y1="105.359" x2="158.163" y2="103.669" class="gray" /></g>
<g><line x1="158.178" y1="101.604" x2="161.192" y2="99.864" class="gray" /></g>
<g><line x1="163.017" y1="96.8036" x2="163.113" y2="93.3241" class="gray" /></g>
<g><line x1="163.113" y1="89.2436" x2="163.017" y2="85.7641" class="gray" /></g>
<g><line x1="162.96" y1="81.6828" x2="162.96" y2="78.2049" class="gray" /></g>
<g><line x1="162.374" y1="74.2087" x2="161.376" y2="70.879" class="gray" /></g>
<g><line x1="162.043" y1="67.3126" x2="164.257" y2="64.4651" class="gray" /></g>
<g><line x1="167.551" y1="62.8538" x2="171.029" y2="62.8538" class="gray" /></g>
<g><line x1="174.252" y1="64.518" x2="176.198" y2="67.2596" class="gray" /></g>
<g><line x1="176.844" y1="70.8933" x2="175.946" y2="74.1944" class="gray" /></g>
<g><line x1="175.297" y1="78.2018" x2="175.103" y2="81.6859" class="gray" /></g>
<g><line x1="175.047" y1="85.7641" x2="175.143" y2="89.2436" class="gray" /></g>
<g><line x1="175.143" y1="93.3241" x2="175.047" y2="96.8036" class="gray" /></g>
<g><line x1="175.047" y1="100.884" x2="175.143" y2="104.364" class="gray" /></g>
<g><line x1="175.2" y1="108.445" x2="175.2" y2="111.923" class="gray" /></g>
<g><line x1="175.257" y1="116.004" x2="175.353" y2="119.484" class="gray" /></g>
<g><line x1="175.353" y1="123.564" x2="175.257" y2="127.044" class="gray" /></g>
<g><line x1="176.835" y1="130.305" x2="179.485" y2="132.283" class="gray" /></g>
<g><line x1="182.093" y1="135.298" x2="183.797" y2="138.44" class="gray" /></g>
<g><line x1="184.77" y1="142.275" x2="184.77" y2="145.753" class="gray" /></g>
<g><line x1="183.841" y1="149.611" x2="182.259" y2="152.706" class="gray" /></g>
<g><line x1="179.676" y1="155.719" x2="176.854" y2="157.758" class="gray" /></g>
<g><line x1="175.2" y1="160.995" x2="175.2" y2="164.473" class="gray" /></g>
<g><line x1="175.2" y1="168.555" x2="175.2" y2="172.033" class="gray" /></g>
<g><line x1="175.2" y1="176.115" x2="175.2" y2="179.593" class="gray" /></g>
<g><line x1="177.11" y1="182.352" x2="180.55" y2="183.645" class="gray" /></g>
<g><line x1="183.253" y1="186.244" x2="184.607" y2="189.453" class="gray" /></g>
<g><line x1="184.558" y1="193.193" x2="183.092" y2="196.434" class="gray" /></g>
<g><line x1="180.34" y1="199.012" x2="176.9" y2="200.305" class="gray" /></g>
<g><line x1="174.99" y1="203.065" x2="174.99" y2="206.543" class="gray" /></g>
<g><line x1="175.103" y1="210.622" x2="175.297" y2="214.106" class="gray" /></g>
<g><line x1="175.297" y1="218.182" x2="175.103" y2="221.666" class="gray" /></g>
<g><line x1="175.103" y1="225.742" x2="175.297" y2="229.226" class="gray" /></g>
<g><line x1="176.824" y1="232.736" x2="179.235" y2="235.245" class="gray" /></g>
<g><line x1="182.69" y1="236.717" x2="186.17" y2="236.717" class="gray" /></g>
<g><line x1="190.252" y1="236.717" x2="193.731" y2="236.717" class="gray" /></g>
<g><line x1="197.814" y1="236.717" x2="201.293" y2="236.717" class="gray" /></g>
<g><line x1="205.375" y1="236.717" x2="208.855" y2="236.717" class="gray" /></g>
<g><line x1="212.937" y1="236.717" x2="216.417" y2="236.717" class="gray" /></g>
<g><line x1="220.499" y1="236.717" x2="223.979" y2="236.717" class="gray" /></g>
<g><line x1="228.061" y1="236.717" x2="231.541" y2="236.717" class="gray" /></g>
</svg>
