<svg
	xmlns="http://www.w3.org/2000/svg"
	width="203.28"
	height="248.35">
<g><style type="text/css" >
<!-- create color definitions -->
<![CDATA[
circle.red {stroke: rgb(255, 0, 255); fill: none; }
circle.green {stroke: rgb(0, 255, 0); fill: none; }
circle.blue {stroke: rgb(0, 0, 255); fill: none; }
circle.black {stroke: rgb(0, 0, 0); fill: none; }
circle.gray {stroke: rgb(204, 204, 204); fill: none; }
circle.brown {stroke: rgb(211.65, 104.55, 30.6); fill: none; }
line.red {stroke: rgb(255, 0, 255); stroke-width: 0.379618; }
line.green {stroke: rgb(0, 255, 0); stroke-width: 0.379618; }
line.blue {stroke: rgb(0, 0, 255); stroke-width: 0.379618; }
line.black {stroke: rgb(0, 0, 0); stroke-width: 0.379618; }
line.gray {stroke: rgb(204, 204, 204); stroke-width: 0.379618; }
line.brown {stroke: rgb(211.65, 104.55, 30.6); stroke-width: 0.379618; }
line {stroke: rgb(0, 0, 0); }
text.red {fill: rgb(255, 0, 255); font-size: 3.036941px; font-weight: bold; font-family: Helvetica; }
text.green {fill: rgb(0, 255, 0); font-size: 3.036941px; font-weight: bold; font-family: Helvetica; }
text.blue {fill: rgb(0, 0, 255); font-size: 3.036941px; font-weight: bold; font-family: Helvetica; }
text.black {fill: rgb(0, 0, 0); font-size: 3.036941px; font-weight: bold; font-family: Helvetica; }
text.gray {fill: rgb(204, 204, 204); font-size: 3.036941px; font-weight: bold; font-family: Helvetica; }
text.brown {fill: rgb(211.65, 104.55, 30.6); font-size: 3.036941px; font-weight: bold; font-family: Helvetica; }
text {fill: rgb(0, 0, 0); font-size: 3.036941px; font-weight: bold; font-family: Helvetica; text-anchor: middle; alignment-baseline: middle; }

.pseudoknot_connection{stroke-linecap: round; stroke-opacity: 0.2; stroke-width: 1.5; }
.pseudoknot_segment1{stroke-linecap: round; stroke-opacity: 0.4; stroke-width: 3.03694; }
.pseudoknot_segment2{stroke-linecap: round; stroke-opacity: 0.4; stroke-width: 3.03694; }
line.numbering-line{stroke: rgb(204, 204, 204); stroke-width: 0.189809; }
line.predicted{stroke: rgb(0, 0, 0); stroke-dasharray: 2; }
polyline{fill: none; stroke-linejoin: round; }
template{visibility: hidden; }
text.numbering-label{fill: rgb(204, 204, 204); }
]]>
</style></g>
<g><title>0 (position.label in template: 0.5')</title><text x="118.71" y="198.35" class="green" >5'</text></g>
<g><title>1 (position.label in template: 1.A)</title><text x="125.71" y="198.35" class="black" >A</text></g>
<g><line x1="127.735" y1="198.046" x2="135.515" y2="198.046" class="black" /></g>
<g><title>2 (position.label in template: 2.A)</title><text x="125.71" y="190.79" class="black" >A</text></g>
<g><line x1="127.735" y1="190.486" x2="135.515" y2="190.486" class="black" /></g>
<g><title>3 (position.label in template: 3.A)</title><text x="125.71" y="183.23" class="green" >A</text></g>
<g><line x1="127.735" y1="182.926" x2="135.725" y2="182.926" class="black" /></g>
<g><title>4 (position.label in template: 4.U)</title><text x="125.51" y="175.67" class="green" >T</text></g>
<g><line x1="127.535" y1="175.366" x2="135.725" y2="175.366" class="black" /></g>
<g><title>5 (position.label in template: 5.U)</title><text x="119.91" y="170.58" class="green" >T</text></g>
<g><title>6 (position.label in template: 6.A)</title><text x="118.05" y="163.31" class="black" >A</text></g>
<g><title>7 (position.label in template: 7.A)</title><text x="120.12" y="156.04" class="black" >A</text></g>
<g><title>8 (position.label in template: 8.C)</title><text x="125.51" y="150.96" class="black" >C</text></g>
<g><line x1="127.535" y1="150.656" x2="135.515" y2="150.656" class="black" /></g>
<g><title>9 (position.label in template: 9.U)</title><text x="125.51" y="143.4" class="green" >T</text></g>
<g><line x1="127.535" y1="143.096" x2="135.925" y2="143.096" class="black" /></g>
<g><title>10 (position.label in template: 10.C)</title><text x="125.51" y="135.84" class="black" >C</text></g>
<g><line x1="127.535" y1="135.536" x2="135.515" y2="135.536" class="black" /></g>
<g><text x="118.677" y="135.84" class="numbering-label sequential" >10</text></g>
<g><line x1="123.688" y1="135.84" x2="120.499" y2="135.84" class="numbering-line sequential" /></g>
<g><title>11 (position.label in template: 11.C)</title><text x="125.51" y="128.28" class="black" >C</text></g>
<g><line x1="127.535" y1="127.976" x2="135.515" y2="127.976" class="black" /></g>
<g><title>12 (position.label in template: 12.G)</title><text x="118.88" y="124.29" class="black" >G</text></g>
<g><title>13 (position.label in template: 13.U)</title><text x="114.86" y="118.02" class="green" >T</text></g>
<g><title>14 (position.label in template: 14.C)</title><text x="113.56" y="110.58" class="black" >C</text></g>
<g><line x1="114.285" y1="108.386" x2="117.195" y2="100.806" class="black" /></g>
<g><title>15 (position.label in template: 15.U)</title><text x="106.55" y="107.75" class="green" >T</text></g>
<g><line x1="107.306" y1="105.568" x2="110.364" y2="97.9744" class="black" /></g>
<g><title>16 (position.label in template: 16.G)</title><text x="99.32" y="104.92" class="black" >G</text></g>
<g><line x1="100.107" y1="102.751" x2="103.323" y2="95.1316" class="black" /></g>
<g><title>17 (position.label in template: 17.U)</title><text x="92.52" y="102.1" class="green" >T</text></g>
<g><line x1="93.3052" y1="99.9302" x2="96.5148" y2="92.3025" class="black" /></g>
<g><title>18 (position.label in template: 18.A)</title><text x="85.72" y="99.27" class="green" >A</text></g>
<g><line x1="86.4475" y1="97.0769" x2="89.3625" y2="89.5057" class="black" /></g>
<g><title>19 (position.label in template: 19.G)</title><text x="78.29" y="96.44" class="green" >G</text></g>
<g><line x1="79.0758" y1="94.2704" x2="82.2842" y2="86.6522" class="black" /></g>
<g><title>20 (position.label in template: 20.C)</title><text x="72.17" y="100.58" class="black" >C</text></g>
<g><text x="74.5357" y="106.991" class="numbering-label sequential" >20</text></g>
<g><line x1="72.8009" y1="102.289" x2="73.9754" y2="105.472" class="numbering-line sequential" /></g>
<g><title>21 (position.label in template: 21.U)</title><text x="64.66" y="101.47" class="green" >T</text></g>
<g><title>22 (position.label in template: 22.C)</title><text x="57.54" y="98.93" class="black" >C</text></g>
<g><title>23 (position.label in template: 23.U)</title><text x="52.29" y="93.5" class="green" >T</text></g>
<g><title>24 (position.label in template: 24.U)</title><text x="50" y="86.29" class="green" >T</text></g>
<g><title>25 (position.label in template: 25.C)</title><text x="51.15" y="78.82" class="black" >C</text></g>
<g><title>26 (position.label in template: 26.U)</title><text x="55.5" y="72.64" class="green" >T</text></g>
<g><title>27 (position.label in template: 27.A)</title><text x="62.36" y="69.03" class="black" >A</text></g>
<g><title>28 (position.label in template: 28.G)</title><text x="69.5" y="68.76" class="black" >G</text></g>
<g><title>29 (position.label in template: 29.A)</title><text x="76.8" y="71.87" class="black" >A</text></g>
<g><title>30 (position.label in template: 30.G)</title><text x="81.17" y="77.72" class="black" >G</text></g>
<g><text x="87.3439" y="74.7918" class="numbering-label sequential" >30</text></g>
<g><line x1="82.8164" y1="76.9392" x2="85.5218" y2="75.656" class="numbering-line sequential" /></g>
<g><title>31 (position.label in template: 31.U)</title><text x="83.07" y="85.09" class="green" >T</text></g>
<g><title>32 (position.label in template: 32.U)</title><text x="90.09" y="87.92" class="green" >T</text></g>
<g><title>33 (position.label in template: 33.A)</title><text x="97.3" y="90.74" class="green" >A</text></g>
<g><title>34 (position.label in template: 34.C)</title><text x="104.11" y="93.57" class="black" >C</text></g>
<g><title>35 (position.label in template: 35.U)</title><text x="111.12" y="96.4" class="green" >T</text></g>
<g><title>36 (position.label in template: 36.G)</title><text x="117.92" y="99.22" class="black" >G</text></g>
<g><title>37 (position.label in template: 37.C)</title><text x="124.23" y="94.76" class="black" >C</text></g>
<g><line x1="126.249" y1="94.2999" x2="134.211" y2="93.6827" class="black" /></g>
<g><title>38 (position.label in template: 38.C)</title><text x="123.66" y="87.22" class="black" >C</text></g>
<g><line x1="125.679" y1="86.7599" x2="133.641" y2="86.1427" class="black" /></g>
<g><title>39 (position.label in template: 39.G)</title><text x="122.88" y="79.68" class="black" >G</text></g>
<g><line x1="124.899" y1="79.225" x2="133.271" y2="78.5976" class="black" /></g>
<g><title>40 (position.label in template: 40.G)</title><text x="116.56" y="75.53" class="black" >G</text></g>
<g><title>41 (position.label in template: 41.U)</title><text x="113.2" y="68.86" class="green" >T</text></g>
<g><title>42 (position.label in template: 42.C)</title><text x="113.23" y="61.3" class="black" >C</text></g>
<g><title>43 (position.label in template: 43.C)</title><text x="116.87" y="54.68" class="black" >C</text></g>
<g><title>44 (position.label in template: 44.C)</title><text x="123.22" y="50.58" class="black" >C</text></g>
<g><title>45 (position.label in template: 45.A)</title><text x="130.96" y="50" class="black" >A</text></g>
<g><title>46 (position.label in template: 46.A)</title><text x="137.87" y="53.09" class="black" >A</text></g>
<g><title>47 (position.label in template: 47.G)</title><text x="142.04" y="59.1" class="black" >G</text></g>
<g><title>48 (position.label in template: 48.C)</title><text x="143.43" y="66.57" class="black" >C</text></g>
<g><title>49 (position.label in template: 49.C)</title><text x="140.91" y="73.69" class="black" >C</text></g>
<g><title>50 (position.label in template: 50.C)</title><text x="135.29" y="78.75" class="black" >C</text></g>
<g><text x="141.597" y="81.3781" class="numbering-label sequential" >50</text></g>
<g><line x1="136.972" y1="79.4508" x2="139.775" y2="80.6189" class="numbering-line sequential" /></g>
<g><title>51 (position.label in template: 51.G)</title><text x="135.66" y="86.29" class="black" >G</text></g>
<g><title>52 (position.label in template: 52.G)</title><text x="136.23" y="93.83" class="black" >G</text></g>
<g><title>53 (position.label in template: 53.G)</title><text x="142.94" y="97.32" class="black" >G</text></g>
<g><title>54 (position.label in template: 54.U)</title><text x="147.84" y="103.25" class="green" >T</text></g>
<g><title>55 (position.label in template: 55.A)</title><text x="149.9" y="110.58" class="black" >A</text></g>
<g><title>56 (position.label in template: 56.A)</title><text x="148.61" y="118.02" class="black" >A</text></g>
<g><title>57 (position.label in template: 57.A)</title><text x="144.38" y="124.29" class="black" >A</text></g>
<g><title>58 (position.label in template: 58.G)</title><text x="137.54" y="128.28" class="black" >G</text></g>
<g><title>59 (position.label in template: 59.G)</title><text x="137.54" y="135.84" class="black" >G</text></g>
<g><title>60 (position.label in template: 60.A)</title><text x="137.95" y="143.4" class="green" >A</text></g>
<g><title>61 (position.label in template: 61.G)</title><text x="137.54" y="150.96" class="black" >G</text></g>
<g><title>62 (position.label in template: 62.G)</title><text x="145.08" y="151.43" class="black" >G</text></g>
<g><title>63 (position.label in template: 63.A)</title><text x="151.45" y="156.09" class="black" >A</text></g>
<g><title>64 (position.label in template: 64.G)</title><text x="153.28" y="163.31" class="black" >G</text></g>
<g><title>65 (position.label in template: 65.G)</title><text x="151.03" y="170.53" class="black" >G</text></g>
<g><title>66 (position.label in template: 66.G)</title><text x="145.08" y="175.2" class="black" >G</text></g>
<g><title>67 (position.label in template: 67.U)</title><text x="137.75" y="175.67" class="green" >T</text></g>
<g><title>68 (position.label in template: 68.U)</title><text x="137.75" y="183.23" class="green" >T</text></g>
<g><title>69 (position.label in template: 69.G)</title><text x="137.54" y="190.79" class="black" >G</text></g>
<g><title>70 (position.label in template: 70.G)</title><text x="137.54" y="198.35" class="black" >G</text></g>
<g><title>71 (position.label in template: 71.3')</title><text x="144.54" y="198.35" class="green" >3'</text></g>
<g><line x1="120.735" y1="198.046" x2="123.685" y2="198.046" class="gray" /></g>
<g><line x1="125.71" y1="196.022" x2="125.71" y2="192.511" class="gray" /></g>
<g><line x1="125.71" y1="188.462" x2="125.71" y2="184.951" class="gray" /></g>
<g><line x1="125.656" y1="180.902" x2="125.564" y2="177.39" class="gray" /></g>
<g><line x1="124.012" y1="174.005" x2="121.408" y2="171.638" class="gray" /></g>
<g><line x1="119.408" y1="168.315" x2="118.552" y2="164.968" class="gray" /></g>
<g><line x1="118.604" y1="161.059" x2="119.566" y2="157.684" class="gray" /></g>
<g><line x1="121.593" y1="154.348" x2="124.037" y2="152.045" class="gray" /></g>
<g><line x1="125.51" y1="148.632" x2="125.51" y2="145.121" class="gray" /></g>
<g><line x1="125.51" y1="141.072" x2="125.51" y2="137.561" class="gray" /></g>
<g><line x1="125.51" y1="133.512" x2="125.51" y2="130.001" class="gray" /></g>
<g><line x1="123.775" y1="126.932" x2="120.615" y2="125.03" class="gray" /></g>
<g><line x1="117.787" y1="122.282" x2="115.953" y2="119.421" class="gray" /></g>
<g><line x1="114.512" y1="115.722" x2="113.908" y2="112.271" class="gray" /></g>
<g><line x1="111.683" y1="109.518" x2="108.427" y2="108.204" class="gray" /></g>
<g><line x1="104.665" y1="106.708" x2="101.205" y2="105.354" class="gray" /></g>
<g><line x1="97.4498" y1="103.841" x2="94.3902" y2="102.572" class="gray" /></g>
<g><line x1="90.6508" y1="101.018" x2="87.5892" y2="99.7442" class="gray" /></g>
<g><line x1="83.828" y1="98.2457" x2="80.182" y2="96.857" class="gray" /></g>
<g><line x1="76.613" y1="97.2707" x2="73.847" y2="99.1419" class="gray" /></g>
<g><line x1="70.1594" y1="100.515" x2="66.6706" y2="100.928" class="gray" /></g>
<g><line x1="62.7531" y1="100.486" x2="59.4469" y2="99.3066" class="gray" /></g>
<g><line x1="56.1327" y1="97.1708" x2="53.6973" y2="94.6519" class="gray" /></g>
<g><line x1="51.6771" y1="91.2667" x2="50.6129" y2="87.9159" class="gray" /></g>
<g><line x1="50.3081" y1="83.9853" x2="50.8419" y2="80.5174" class="gray" /></g>
<g><line x1="52.3154" y1="76.8607" x2="54.3346" y2="73.9919" class="gray" /></g>
<g><line x1="57.2917" y1="71.3935" x2="60.5683" y2="69.6692" class="gray" /></g>
<g><line x1="64.3832" y1="68.6498" x2="67.4768" y2="68.5328" class="gray" /></g>
<g><line x1="71.3626" y1="69.2498" x2="74.9374" y2="70.7728" class="gray" /></g>
<g><line x1="78.0117" y1="73.1883" x2="79.9583" y2="75.7943" class="gray" /></g>
<g><line x1="81.6754" y1="79.3768" x2="82.5646" y2="82.8258" class="gray" /></g>
<g><line x1="84.9478" y1="85.5433" x2="88.2122" y2="86.8593" class="gray" /></g>
<g><line x1="91.9755" y1="88.3538" x2="95.4145" y2="89.6988" class="gray" /></g>
<g><line x1="99.1696" y1="91.2133" x2="102.24" y2="92.4894" class="gray" /></g>
<g><line x1="105.987" y1="94.0242" x2="109.243" y2="95.3384" class="gray" /></g>
<g><line x1="112.99" y1="96.8719" x2="116.05" y2="98.1407" class="gray" /></g>
<g><line x1="119.573" y1="97.7477" x2="122.577" y2="95.6249" class="gray" /></g>
<g><line x1="124.077" y1="92.4374" x2="123.813" y2="88.9352" class="gray" /></g>
<g><line x1="123.452" y1="84.9024" x2="123.088" y2="81.3902" class="gray" /></g>
<g><line x1="121.188" y1="78.265" x2="118.252" y2="76.3376" class="gray" /></g>
<g><line x1="115.649" y1="73.4181" x2="114.111" y2="70.3645" class="gray" /></g>
<g><line x1="113.208" y1="66.5317" x2="113.222" y2="63.0209" class="gray" /></g>
<g><line x1="114.205" y1="59.2222" x2="115.895" y2="56.1504" class="gray" /></g>
<g><line x1="118.571" y1="53.2781" x2="121.519" y2="51.3745" class="gray" /></g>
<g><line x1="125.239" y1="50.125" x2="128.941" y2="49.8476" class="gray" /></g>
<g><line x1="132.808" y1="50.5228" x2="136.022" y2="51.9598" class="gray" /></g>
<g><line x1="139.024" y1="54.4497" x2="140.886" y2="57.1329" class="gray" /></g>
<g><line x1="142.41" y1="60.7868" x2="143.06" y2="64.2758" class="gray" /></g>
<g><line x1="142.754" y1="68.1749" x2="141.586" y2="71.4777" class="gray" /></g>
<g><line x1="139.405" y1="74.741" x2="136.795" y2="77.0916" class="gray" /></g>
<g><line x1="135.389" y1="80.4685" x2="135.561" y2="83.9641" class="gray" /></g>
<g><line x1="135.813" y1="88.0052" x2="136.077" y2="91.5074" class="gray" /></g>
<g><line x1="138.026" y1="94.4605" x2="141.144" y2="96.0821" class="gray" /></g>
<g><line x1="144.23" y1="98.577" x2="146.55" y2="101.386" class="gray" /></g>
<g><line x1="148.388" y1="104.895" x2="149.352" y2="108.327" class="gray" /></g>
<g><line x1="149.554" y1="112.271" x2="148.956" y2="115.721" class="gray" /></g>
<g><line x1="147.478" y1="119.395" x2="145.512" y2="122.308" class="gray" /></g>
<g><line x1="142.631" y1="125.006" x2="139.289" y2="126.956" class="gray" /></g>
<g><line x1="137.54" y1="130.001" x2="137.54" y2="133.512" class="gray" /></g>
<g><line x1="137.65" y1="137.558" x2="137.84" y2="141.075" class="gray" /></g>
<g><line x1="137.84" y1="145.118" x2="137.65" y2="148.635" class="gray" /></g>
<g><line x1="139.561" y1="150.782" x2="143.059" y2="151" class="gray" /></g>
<g><line x1="146.714" y1="152.322" x2="149.816" y2="154.591" class="gray" /></g>
<g><line x1="151.947" y1="157.749" x2="152.783" y2="161.044" class="gray" /></g>
<g><line x1="152.678" y1="164.939" x2="151.632" y2="168.293" class="gray" /></g>
<g><line x1="149.437" y1="171.476" x2="146.673" y2="173.646" class="gray" /></g>
<g><line x1="143.06" y1="175.026" x2="139.77" y2="175.237" class="gray" /></g>
<g><line x1="137.75" y1="177.391" x2="137.75" y2="180.902" class="gray" /></g>
<g><line x1="137.694" y1="184.95" x2="137.596" y2="188.462" class="gray" /></g>
<g><line x1="137.54" y1="192.511" x2="137.54" y2="196.022" class="gray" /></g>
<g><line x1="139.565" y1="198.046" x2="142.515" y2="198.046" class="gray" /></g>
</svg>
