<svg
	xmlns="http://www.w3.org/2000/svg"
	width="154.33"
	height="271.418">
<g><style type="text/css" >
<!-- create color definitions -->
<![CDATA[
circle.red {stroke: rgb(255, 0, 255); fill: none; }
circle.green {stroke: rgb(0, 255, 0); fill: none; }
circle.blue {stroke: rgb(0, 0, 255); fill: none; }
circle.black {stroke: rgb(0, 0, 0); fill: none; }
circle.gray {stroke: rgb(204, 204, 204); fill: none; }
circle.brown {stroke: rgb(211.65, 104.55, 30.6); fill: none; }
line.red {stroke: rgb(255, 0, 255); stroke-width: 0.384902; }
line.green {stroke: rgb(0, 255, 0); stroke-width: 0.384902; }
line.blue {stroke: rgb(0, 0, 255); stroke-width: 0.384902; }
line.black {stroke: rgb(0, 0, 0); stroke-width: 0.384902; }
line.gray {stroke: rgb(204, 204, 204); stroke-width: 0.384902; }
line.brown {stroke: rgb(211.65, 104.55, 30.6); stroke-width: 0.384902; }
line {stroke: rgb(0, 0, 0); }
text.red {fill: rgb(255, 0, 255); font-size: 3.079219px; font-weight: bold; font-family: Helvetica; }
text.green {fill: rgb(0, 255, 0); font-size: 3.079219px; font-weight: bold; font-family: Helvetica; }
text.blue {fill: rgb(0, 0, 255); font-size: 3.079219px; font-weight: bold; font-family: Helvetica; }
text.black {fill: rgb(0, 0, 0); font-size: 3.079219px; font-weight: bold; font-family: Helvetica; }
text.gray {fill: rgb(204, 204, 204); font-size: 3.079219px; font-weight: bold; font-family: Helvetica; }
text.brown {fill: rgb(211.65, 104.55, 30.6); font-size: 3.079219px; font-weight: bold; font-family: Helvetica; }
text {fill: rgb(0, 0, 0); font-size: 3.079219px; font-weight: bold; font-family: Helvetica; text-anchor: middle; alignment-baseline: middle; }

.pseudoknot_connection{stroke-linecap: round; stroke-opacity: 0.2; stroke-width: 1.5; }
.pseudoknot_segment1{stroke-linecap: round; stroke-opacity: 0.4; stroke-width: 3.07922; }
.pseudoknot_segment2{stroke-linecap: round; stroke-opacity: 0.4; stroke-width: 3.07922; }
line.numbering-line{stroke: rgb(204, 204, 204); stroke-width: 0.192451; }
line.predicted{stroke: rgb(0, 0, 0); stroke-dasharray: 2; }
polyline{fill: none; stroke-linejoin: round; }
template{visibility: hidden; }
text.numbering-label{fill: rgb(204, 204, 204); }
]]>
</style></g>
<g><title>0 (position.label in template: 0.5')</title><text x="73.88" y="223.729" class="green" >5'</text></g>
<g><title>1 (position.label in template: 1.A)</title><text x="73.68" y="216.17" class="green" >A</text></g>
<g><line x1="75.7328" y1="215.862" x2="83.6672" y2="215.862" class="black" /></g>
<g><title>2 (position.label in template: 2.C)</title><text x="73.48" y="208.61" class="black" >C</text></g>
<g><line x1="75.5328" y1="208.302" x2="83.4572" y2="208.302" class="black" /></g>
<g><title>3 (position.label in template: 3.U)</title><text x="73.48" y="201.05" class="green" >T</text></g>
<g><line x1="75.5328" y1="200.742" x2="83.8672" y2="200.742" class="black" /></g>
<g><title>4 (position.label in template: 4.G)</title><text x="73.27" y="193.49" class="black" >G</text></g>
<g><line x1="75.3228" y1="193.182" x2="83.6672" y2="193.182" class="black" /></g>
<g><title>5 (position.label in template: 5.U)</title><text x="73.48" y="185.93" class="green" >T</text></g>
<g><line x1="75.5328" y1="185.622" x2="83.4572" y2="185.622" class="black" /></g>
<g><title>6 (position.label in template: 6.G)</title><text x="67.67" y="180.85" class="black" >G</text></g>
<g><title>7 (position.label in template: 7.G)</title><text x="65.6" y="173.58" class="black" >G</text></g>
<g><title>8 (position.label in template: 8.A)</title><text x="68.09" y="166.31" class="black" >A</text></g>
<g><title>9 (position.label in template: 9.G)</title><text x="73.27" y="161.22" class="black" >G</text></g>
<g><line x1="75.3228" y1="160.912" x2="83.6672" y2="160.912" class="black" /></g>
<g><title>10 (position.label in template: 10.U)</title><text x="73.48" y="153.66" class="green" >T</text></g>
<g><line x1="75.5328" y1="153.352" x2="83.8672" y2="153.352" class="black" /></g>
<g><text x="66.5518" y="153.66" class="numbering-label sequential" >10</text></g>
<g><line x1="71.6325" y1="153.66" x2="68.3993" y2="153.66" class="numbering-line sequential" /></g>
<g><title>11 (position.label in template: 11.G)</title><text x="73.27" y="146.1" class="black" >G</text></g>
<g><line x1="75.3228" y1="145.792" x2="83.6672" y2="145.792" class="black" /></g>
<g><title>12 (position.label in template: 12.U)</title><text x="73.48" y="138.54" class="green" >T</text></g>
<g><line x1="75.5328" y1="138.232" x2="83.8672" y2="138.232" class="black" /></g>
<g><title>13 (position.label in template: 13.A)</title><text x="73.68" y="130.98" class="green" >A</text></g>
<g><line x1="75.7328" y1="130.672" x2="83.6672" y2="130.672" class="black" /></g>
<g><title>14 (position.label in template: 14.C)</title><text x="69.03" y="137.1" class="black" >C</text></g>
<g><title>15 (position.label in template: 15.A)</title><text x="62.05" y="139.44" class="black" >A</text></g>
<g><title>16 (position.label in template: 16.A)</title><text x="54.86" y="137.1" class="black" >A</text></g>
<g><title>17 (position.label in template: 17.G)</title><text x="50" y="130.98" class="black" >G</text></g>
<g><title>18 (position.label in template: 18.A)</title><text x="50.42" y="123.42" class="black" >A</text></g>
<g><title>19 (position.label in template: 19.A)</title><text x="54.86" y="117.31" class="black" >A</text></g>
<g><title>20 (position.label in template: 20.C)</title><text x="61.84" y="114.97" class="black" >C</text></g>
<g><text x="61.84" y="108.042" class="numbering-label sequential" >20</text></g>
<g><line x1="61.84" y1="113.122" x2="61.84" y2="109.581" class="numbering-line sequential" /></g>
<g><title>21 (position.label in template: 21.U)</title><text x="69.03" y="117.31" class="green" >T</text></g>
<g><title>22 (position.label in template: 22.U)</title><text x="73.48" y="123.42" class="green" >T</text></g>
<g><line x1="75.5328" y1="123.112" x2="83.8672" y2="123.112" class="black" /></g>
<g><title>23 (position.label in template: 23.G)</title><text x="73.27" y="115.86" class="black" >G</text></g>
<g><line x1="75.3228" y1="115.552" x2="83.6672" y2="115.552" class="black" /></g>
<g><title>24 (position.label in template: 24.U)</title><text x="73.48" y="108.3" class="green" >T</text></g>
<g><line x1="75.5328" y1="107.992" x2="83.4572" y2="107.992" class="black" /></g>
<g><title>25 (position.label in template: 25.G)</title><text x="66.03" y="106.12" class="black" >G</text></g>
<g><title>26 (position.label in template: 26.A)</title><text x="61.2" y="100.68" class="black" >A</text></g>
<g><title>27 (position.label in template: 27.G)</title><text x="58.87" y="93.37" class="black" >G</text></g>
<g><title>28 (position.label in template: 28.U)</title><text x="60.99" y="86.05" class="green" >T</text></g>
<g><title>29 (position.label in template: 29.A)</title><text x="66.44" y="80.61" class="black" >A</text></g>
<g><title>30 (position.label in template: 30.G)</title><text x="73.27" y="78.43" class="black" >G</text></g>
<g><line x1="75.3228" y1="78.1221" x2="83.6672" y2="78.1221" class="black" /></g>
<g><text x="67.6549" y="74.3715" class="numbering-label sequential" >30</text></g>
<g><line x1="71.7727" y1="77.3477" x2="69.5025" y2="75.7069" class="numbering-line sequential" /></g>
<g><title>31 (position.label in template: 31.U)</title><text x="73.48" y="70.87" class="green" >T</text></g>
<g><line x1="75.5328" y1="70.5621" x2="83.8672" y2="70.5621" class="black" /></g>
<g><title>32 (position.label in template: 32.G)</title><text x="73.27" y="63.31" class="black" >G</text></g>
<g><line x1="75.3228" y1="63.0021" x2="83.6672" y2="63.0021" class="black" /></g>
<g><title>33 (position.label in template: 33.G)</title><text x="71.09" y="56.07" class="black" >G</text></g>
<g><title>34 (position.label in template: 34.G)</title><text x="75.61" y="50" class="black" >G</text></g>
<g><title>35 (position.label in template: 35.A)</title><text x="83.58" y="50" class="black" >A</text></g>
<g><title>36 (position.label in template: 36.A)</title><text x="88.1" y="56.07" class="black" >A</text></g>
<g><title>37 (position.label in template: 37.C)</title><text x="85.72" y="63.31" class="black" >C</text></g>
<g><title>38 (position.label in template: 38.A)</title><text x="85.92" y="70.87" class="green" >A</text></g>
<g><title>39 (position.label in template: 39.C)</title><text x="85.72" y="78.43" class="black" >C</text></g>
<g><title>40 (position.label in template: 40.A)</title><text x="92.05" y="82.86" class="black" >A</text></g>
<g><title>41 (position.label in template: 41.A)</title><text x="95.5" y="89.59" class="black" >A</text></g>
<g><title>42 (position.label in template: 42.A)</title><text x="95.5" y="97.15" class="black" >A</text></g>
<g><title>43 (position.label in template: 43.A)</title><text x="92.05" y="103.88" class="black" >A</text></g>
<g><title>44 (position.label in template: 44.G)</title><text x="85.51" y="108.3" class="green" >G</text></g>
<g><title>45 (position.label in template: 45.C)</title><text x="85.72" y="115.86" class="black" >C</text></g>
<g><title>46 (position.label in template: 46.A)</title><text x="85.92" y="123.42" class="green" >A</text></g>
<g><title>47 (position.label in template: 47.U)</title><text x="85.72" y="130.98" class="green" >T</text></g>
<g><title>48 (position.label in template: 48.A)</title><text x="85.92" y="138.54" class="green" >A</text></g>
<g><title>49 (position.label in template: 49.C)</title><text x="85.72" y="146.1" class="black" >C</text></g>
<g><title>50 (position.label in template: 50.A)</title><text x="85.92" y="153.66" class="green" >A</text></g>
<g><text x="92.8482" y="153.66" class="numbering-label sequential" >50</text></g>
<g><line x1="87.7675" y1="153.66" x2="91.0007" y2="153.66" class="numbering-line sequential" /></g>
<g><title>51 (position.label in template: 51.C)</title><text x="85.72" y="161.22" class="black" >C</text></g>
<g><title>52 (position.label in template: 52.G)</title><text x="93" y="160.23" class="black" >G</text></g>
<g><title>53 (position.label in template: 53.A)</title><text x="100.27" y="163.42" class="black" >A</text></g>
<g><title>54 (position.label in template: 54.A)</title><text x="104.33" y="169.8" class="black" >A</text></g>
<g><title>55 (position.label in template: 55.G)</title><text x="103.92" y="177.36" class="black" >G</text></g>
<g><title>56 (position.label in template: 56.A)</title><text x="100.27" y="183.73" class="black" >A</text></g>
<g><title>57 (position.label in template: 57.A)</title><text x="93.42" y="186.93" class="black" >A</text></g>
<g><title>58 (position.label in template: 58.G)</title><text x="85.51" y="185.93" class="green" >G</text></g>
<g><title>59 (position.label in template: 59.C)</title><text x="85.72" y="193.49" class="black" >C</text></g>
<g><title>60 (position.label in template: 60.A)</title><text x="85.92" y="201.05" class="green" >A</text></g>
<g><title>61 (position.label in template: 61.G)</title><text x="85.51" y="208.61" class="black" >G</text></g>
<g><title>62 (position.label in template: 62.U)</title><text x="85.72" y="216.17" class="green" >T</text></g>
<g><title>63 (position.label in template: 63.A)</title><text x="91.1644" y="221.418" class="black" >A</text></g>
<g><title>64 (position.label in template: 64.A)</title><text x="98.7265" y="221.418" class="black" >A</text></g>
<g><title>65 (position.label in template: 65.3')</title><text x="106.289" y="221.418" class="green" >3'</text></g>
<g><line x1="73.8257" y1="221.369" x2="73.7343" y2="217.914" class="gray" /></g>
<g><line x1="73.6257" y1="213.81" x2="73.5343" y2="210.354" class="gray" /></g>
<g><line x1="73.48" y1="206.249" x2="73.48" y2="202.795" class="gray" /></g>
<g><line x1="73.423" y1="198.69" x2="73.327" y2="195.234" class="gray" /></g>
<g><line x1="73.327" y1="191.13" x2="73.423" y2="187.674" class="gray" /></g>
<g><line x1="71.9346" y1="184.271" x2="69.2154" y2="181.893" class="gray" /></g>
<g><line x1="67.1078" y1="178.568" x2="66.1622" y2="175.246" class="gray" /></g>
<g><line x1="66.2652" y1="171.33" x2="67.4248" y2="167.944" class="gray" /></g>
<g><line x1="69.5542" y1="164.563" x2="71.8058" y2="162.351" class="gray" /></g>
<g><line x1="73.327" y1="158.86" x2="73.423" y2="155.404" class="gray" /></g>
<g><line x1="73.423" y1="151.3" x2="73.327" y2="147.844" class="gray" /></g>
<g><line x1="73.327" y1="143.74" x2="73.423" y2="140.284" class="gray" /></g>
<g><line x1="73.5343" y1="136.18" x2="73.6257" y2="132.724" class="gray" /></g>
<g><line x1="72.4381" y1="132.307" x2="70.2719" y2="135.158" class="gray" /></g>
<g><line x1="67.0836" y1="137.445" x2="63.9964" y2="138.48" class="gray" /></g>
<g><line x1="60.098" y1="138.497" x2="56.812" y2="137.427" class="gray" /></g>
<g><line x1="53.5834" y1="135.184" x2="51.2766" y2="132.28" class="gray" /></g>
<g><line x1="50.1139" y1="128.622" x2="50.3061" y2="125.162" class="gray" /></g>
<g><line x1="51.6268" y1="121.451" x2="53.6532" y2="118.663" class="gray" /></g>
<g><line x1="56.8064" y1="116.35" x2="59.8936" y2="115.315" class="gray" /></g>
<g><line x1="63.792" y1="115.297" x2="67.078" y2="116.367" class="gray" /></g>
<g><line x1="70.2385" y1="118.661" x2="72.2715" y2="121.453" class="gray" /></g>
<g><line x1="73.423" y1="121.06" x2="73.327" y2="117.604" class="gray" /></g>
<g><line x1="73.327" y1="113.5" x2="73.423" y2="110.044" class="gray" /></g>
<g><line x1="71.5098" y1="107.416" x2="68.0002" y2="106.389" class="gray" /></g>
<g><line x1="64.6671" y1="104.277" x2="62.5629" y2="101.907" class="gray" /></g>
<g><line x1="60.5766" y1="98.4162" x2="59.4934" y2="95.0179" class="gray" /></g>
<g><line x1="59.4411" y1="91.0903" x2="60.4189" y2="87.7139" class="gray" /></g>
<g><line x1="62.4429" y1="84.2919" x2="64.9871" y2="81.7523" class="gray" /></g>
<g><line x1="68.3956" y1="79.6779" x2="71.3144" y2="78.7463" class="gray" /></g>
<g><line x1="73.327" y1="76.0701" x2="73.423" y2="72.6141" class="gray" /></g>
<g><line x1="73.423" y1="68.5101" x2="73.327" y2="65.0541" class="gray" /></g>
<g><line x1="72.6781" y1="61.0364" x2="71.6819" y2="57.7277" class="gray" /></g>
<g><line x1="72.316" y1="54.1156" x2="74.384" y2="51.3385" class="gray" /></g>
<g><line x1="77.6628" y1="49.6921" x2="81.5272" y2="49.6921" class="gray" /></g>
<g><line x1="84.806" y1="51.3385" x2="86.874" y2="54.1156" class="gray" /></g>
<g><line x1="87.4589" y1="57.7122" x2="86.3611" y2="61.0519" class="gray" /></g>
<g><line x1="85.7743" y1="65.0542" x2="85.8657" y2="68.51" class="gray" /></g>
<g><line x1="85.8657" y1="72.6142" x2="85.7743" y2="76.07" class="gray" /></g>
<g><line x1="87.4019" y1="79.2991" x2="90.3681" y2="81.375" class="gray" /></g>
<g><line x1="92.9865" y1="84.3788" x2="94.5635" y2="87.4553" class="gray" /></g>
<g><line x1="95.5" y1="91.3349" x2="95.5" y2="94.7893" class="gray" /></g>
<g><line x1="94.5635" y1="98.6688" x2="92.9865" y2="101.745" class="gray" /></g>
<g><line x1="90.3492" y1="104.722" x2="87.2108" y2="106.843" class="gray" /></g>
<g><line x1="85.567" y1="110.044" x2="85.663" y2="113.5" class="gray" /></g>
<g><line x1="85.7743" y1="117.604" x2="85.8657" y2="121.06" class="gray" /></g>
<g><line x1="85.8657" y1="125.164" x2="85.7743" y2="128.62" class="gray" /></g>
<g><line x1="85.7743" y1="132.724" x2="85.8657" y2="136.18" class="gray" /></g>
<g><line x1="85.8657" y1="140.284" x2="85.7743" y2="143.74" class="gray" /></g>
<g><line x1="85.7743" y1="147.844" x2="85.8657" y2="151.3" class="gray" /></g>
<g><line x1="85.8657" y1="155.404" x2="85.7743" y2="158.86" class="gray" /></g>
<g><line x1="87.7541" y1="160.635" x2="90.9659" y2="160.199" class="gray" /></g>
<g><line x1="94.8798" y1="160.747" x2="98.3902" y2="162.287" class="gray" /></g>
<g><line x1="101.372" y1="164.844" x2="103.228" y2="167.76" class="gray" /></g>
<g><line x1="104.219" y1="171.542" x2="104.031" y2="175.002" class="gray" /></g>
<g><line x1="102.899" y1="178.833" x2="101.291" y2="181.641" class="gray" /></g>
<g><line x1="98.4101" y1="184.291" x2="95.2799" y2="185.753" class="gray" /></g>
<g><line x1="91.3834" y1="186.365" x2="87.5466" y2="185.88" class="gray" /></g>
<g><line x1="85.567" y1="187.674" x2="85.663" y2="191.13" class="gray" /></g>
<g><line x1="85.7743" y1="195.234" x2="85.8657" y2="198.69" class="gray" /></g>
<g><line x1="85.8088" y1="202.792" x2="85.6212" y2="206.252" class="gray" /></g>
<g><line x1="85.567" y1="210.354" x2="85.663" y2="213.81" class="gray" /></g>
<g><line x1="87.1979" y1="217.287" x2="89.6865" y2="219.686" class="gray" /></g>
<g><line x1="93.2172" y1="221.11" x2="96.6737" y2="221.11" class="gray" /></g>
<g><line x1="100.779" y1="221.11" x2="104.236" y2="221.11" class="gray" /></g>
</svg>
