<svg
	xmlns="http://www.w3.org/2000/svg"
	width="237.44"
	height="239.763">
<g><style type="text/css" >
<!-- create color definitions -->
<![CDATA[
circle.red {stroke: rgb(255, 0, 255); fill: none; }
circle.green {stroke: rgb(0, 255, 0); fill: none; }
circle.blue {stroke: rgb(0, 0, 255); fill: none; }
circle.black {stroke: rgb(0, 0, 0); fill: none; }
circle.gray {stroke: rgb(204, 204, 204); fill: none; }
circle.brown {stroke: rgb(211.65, 104.55, 30.6); fill: none; }
line.red {stroke: rgb(255, 0, 255); stroke-width: 0.383379; }
line.green {stroke: rgb(0, 255, 0); stroke-width: 0.383379; }
line.blue {stroke: rgb(0, 0, 255); stroke-width: 0.383379; }
line.black {stroke: rgb(0, 0, 0); stroke-width: 0.383379; }
line.gray {stroke: rgb(204, 204, 204); stroke-width: 0.383379; }
line.brown {stroke: rgb(211.65, 104.55, 30.6); stroke-width: 0.383379; }
line {stroke: rgb(0, 0, 0); }
text.red {fill: rgb(255, 0, 255); font-size: 3.067034px; font-weight: bold; font-family: Helvetica; }
text.green {fill: rgb(0, 255, 0); font-size: 3.067034px; font-weight: bold; font-family: Helvetica; }
text.blue {fill: rgb(0, 0, 255); font-size: 3.067034px; font-weight: bold; font-family: Helvetica; }
text.black {fill: rgb(0, 0, 0); font-size: 3.067034px; font-weight: bold; font-family: Helvetica; }
text.gray {fill: rgb(204, 204, 204); font-size: 3.067034px; font-weight: bold; font-family: Helvetica; }
text.brown {fill: rgb(211.65, 104.55, 30.6); font-size: 3.067034px; font-weight: bold; font-family: Helvetica; }
text {fill: rgb(0, 0, 0); font-size: 3.067034px; font-weight: bold; font-family: Helvetica; text-anchor: middle; alignment-baseline: middle; }

.pseudoknot_connection{stroke-linecap: round; stroke-opacity: 0.2; stroke-width: 1.5; }
.pseudoknot_segment1{stroke-linecap: round; stroke-opacity: 0.4; stroke-width: 3.06703; }
.pseudoknot_segment2{stroke-linecap: round; stroke-opacity: 0.4; stroke-width: 3.06703; }
line.numbering-line{stroke: rgb(204, 204, 204); stroke-width: 0.19169; }
line.predicted{stroke: rgb(0, 0, 0); stroke-dasharray: 2; }
polyline{fill: none; stroke-linejoin: round; }
template{visibility: hidden; }
text.numbering-label{fill: rgb(204, 204, 204); }
]]>
</style></g>
<g><title>0 (position.label in template: 0.5')</title><text x="111.351" y="192.07" class="green" >5'</text></g>
<g><title>1 (position.label in template: 1.G)</title><text x="111.76" y="184.52" class="black" >G</text></g>
<g><line x1="113.805" y1="184.213" x2="122.165" y2="184.213" class="black" /></g>
<g><title>2 (position.label in template: 2.A)</title><text x="112.17" y="176.96" class="green" >A</text></g>
<g><line x1="114.215" y1="176.653" x2="122.165" y2="176.653" class="black" /></g>
<g><title>3 (position.label in template: 3.G)</title><text x="111.76" y="169.4" class="green" >G</text></g>
<g><line x1="113.805" y1="169.093" x2="122.165" y2="169.093" class="black" /></g>
<g><title>4 (position.label in template: 4.G)</title><text x="111.76" y="161.84" class="green" >G</text></g>
<g><line x1="113.805" y1="161.533" x2="122.165" y2="161.533" class="black" /></g>
<g><title>5 (position.label in template: 5.G)</title><text x="111.76" y="154.28" class="black" >G</text></g>
<g><line x1="113.805" y1="153.973" x2="122.165" y2="153.973" class="black" /></g>
<g><title>6 (position.label in template: 6.U)</title><text x="111.97" y="146.72" class="green" >T</text></g>
<g><line x1="114.015" y1="146.413" x2="122.365" y2="146.413" class="black" /></g>
<g><title>7 (position.label in template: 7.A)</title><text x="105.22" y="143.75" class="black" >A</text></g>
<g><title>8 (position.label in template: 8.U)</title><text x="99.27" y="138.83" class="green" >T</text></g>
<g><title>9 (position.label in template: 9.A)</title><text x="95.49" y="132.41" class="black" >A</text></g>
<g><title>10 (position.label in template: 10.G)</title><text x="93.21" y="125.09" class="black" >G</text></g>
<g><line x1="93.5564" y1="122.768" x2="94.9436" y2="114.698" class="black" /></g>
<g><text x="88.6253" y="130.248" class="numbering-label sequential" >10</text></g>
<g><line x1="91.9874" y1="126.465" x2="89.9885" y2="128.714" class="numbering-line sequential" /></g>
<g><title>11 (position.label in template: 11.C)</title><text x="85.95" y="123.93" class="black" >C</text></g>
<g><line x1="86.2265" y1="121.597" x2="87.3235" y2="113.559" class="black" /></g>
<g><title>12 (position.label in template: 12.U)</title><text x="78.48" y="122.78" class="green" >T</text></g>
<g><line x1="78.8248" y1="120.458" x2="80.2052" y2="112.389" class="black" /></g>
<g><title>13 (position.label in template: 13.C)</title><text x="71" y="121.63" class="black" >C</text></g>
<g><line x1="71.2779" y1="119.298" x2="72.3821" y2="111.249" class="black" /></g>
<g><title>14 (position.label in template: 14.A)</title><text x="64.76" y="125.58" class="black" >A</text></g>
<g><title>15 (position.label in template: 15.G)</title><text x="56.83" y="124.82" class="black" >G</text></g>
<g><title>16 (position.label in template: 16.U)</title><text x="51.5" y="119.67" class="green" >T</text></g>
<g><title>17 (position.label in template: 17.G)</title><text x="50" y="112.23" class="black" >G</text></g>
<g><title>18 (position.label in template: 18.G)</title><text x="53.48" y="105.51" class="black" >G</text></g>
<g><title>19 (position.label in template: 19.G)</title><text x="60.31" y="102.27" class="black" >G</text></g>
<g><title>20 (position.label in template: 20.A)</title><text x="68.12" y="103.82" class="black" >A</text></g>
<g><text x="71.6172" y="97.871" class="numbering-label sequential" >20</text></g>
<g><line x1="69.0526" y1="102.234" x2="70.7157" y2="99.4045" class="numbering-line sequential" /></g>
<g><title>21 (position.label in template: 21.G)</title><text x="72.66" y="109.53" class="black" >G</text></g>
<g><title>22 (position.label in template: 22.A)</title><text x="80.55" y="110.68" class="green" >A</text></g>
<g><title>23 (position.label in template: 23.G)</title><text x="87.6" y="111.84" class="black" >G</text></g>
<g><title>24 (position.label in template: 24.C)</title><text x="95.29" y="112.99" class="black" >C</text></g>
<g><title>25 (position.label in template: 25.A)</title><text x="99.48" y="106.57" class="black" >A</text></g>
<g><title>26 (position.label in template: 26.C)</title><text x="105.01" y="101.65" class="black" >C</text></g>
<g><line x1="106.956" y1="100.717" x2="114.524" y2="98.28" class="black" /></g>
<g><title>27 (position.label in template: 27.A)</title><text x="102.94" y="94.44" class="green" >A</text></g>
<g><line x1="104.886" y1="93.5066" x2="112.454" y2="91.07" class="black" /></g>
<g><title>28 (position.label in template: 28.U)</title><text x="100.45" y="87.23" class="green" >T</text></g>
<g><line x1="102.403" y1="86.3168" x2="110.377" y2="83.8398" class="black" /></g>
<g><title>29 (position.label in template: 29.G)</title><text x="97.97" y="80.02" class="black" >G</text></g>
<g><line x1="99.9227" y1="79.1068" x2="107.897" y2="76.6298" class="black" /></g>
<g><title>30 (position.label in template: 30.C)</title><text x="95.9" y="72.81" class="black" >C</text></g>
<g><line x1="97.8463" y1="71.8766" x2="105.414" y2="69.44" class="black" /></g>
<g><text x="90.3905" y="76.9654" class="numbering-label sequential" >30</text></g>
<g><line x1="94.4308" y1="73.9181" x2="92.4238" y2="75.4319" class="numbering-line sequential" /></g>
<g><title>31 (position.label in template: 31.U)</title><text x="89.5" y="68.79" class="green" >T</text></g>
<g><title>32 (position.label in template: 32.U)</title><text x="86.84" y="61.71" class="green" >T</text></g>
<g><title>33 (position.label in template: 33.A)</title><text x="89.21" y="54.47" class="black" >A</text></g>
<g><title>34 (position.label in template: 34.G)</title><text x="94.89" y="50" class="black" >G</text></g>
<g><title>35 (position.label in template: 35.C)</title><text x="102.66" y="50.15" class="black" >C</text></g>
<g><title>36 (position.label in template: 36.A)</title><text x="108.8" y="54.83" class="black" >A</text></g>
<g><title>37 (position.label in template: 37.U)</title><text x="110.49" y="62.15" class="green" >T</text></g>
<g><title>38 (position.label in template: 38.G)</title><text x="107.36" y="69.12" class="black" >G</text></g>
<g><title>39 (position.label in template: 39.C)</title><text x="109.85" y="76.33" class="black" >C</text></g>
<g><title>40 (position.label in template: 40.A)</title><text x="112.33" y="83.54" class="green" >A</text></g>
<g><title>41 (position.label in template: 41.U)</title><text x="114.4" y="90.75" class="green" >T</text></g>
<g><title>42 (position.label in template: 42.G)</title><text x="116.47" y="97.96" class="black" >G</text></g>
<g><title>43 (position.label in template: 43.A)</title><text x="124.41" y="98.68" class="black" >A</text></g>
<g><title>44 (position.label in template: 44.G)</title><text x="130.95" y="101.65" class="black" >G</text></g>
<g><title>45 (position.label in template: 45.G)</title><text x="136.69" y="106.57" class="black" >G</text></g>
<g><title>46 (position.label in template: 46.U)</title><text x="140.89" y="112.99" class="green" >T</text></g>
<g><title>47 (position.label in template: 47.C)</title><text x="142.76" y="120.31" class="black" >C</text></g>
<g><title>48 (position.label in template: 48.C)</title><text x="142.33" y="127.86" class="black" >C</text></g>
<g><line x1="141.395" y1="129.372" x2="137.625" y2="136.705" class="black" /></g>
<g><title>49 (position.label in template: 49.U)</title><text x="149.11" y="131.21" class="green" >T</text></g>
<g><line x1="148.176" y1="132.722" x2="144.404" y2="140.065" class="black" /></g>
<g><title>50 (position.label in template: 50.G)</title><text x="155.67" y="134.57" class="black" >G</text></g>
<g><line x1="154.793" y1="136.11" x2="151.337" y2="143.386" class="black" /></g>
<g><text x="158.771" y="128.405" class="numbering-label sequential" >50</text></g>
<g><line x1="156.497" y1="132.926" x2="158" y2="129.939" class="numbering-line sequential" /></g>
<g><title>51 (position.label in template: 51.G)</title><text x="162.45" y="137.92" class="black" >G</text></g>
<g><line x1="161.571" y1="139.46" x2="158.109" y2="146.737" class="black" /></g>
<g><title>52 (position.label in template: 52.G)</title><text x="169.22" y="141.27" class="black" >G</text></g>
<g><line x1="168.343" y1="142.81" x2="164.887" y2="150.086" class="black" /></g>
<g><title>53 (position.label in template: 53.U)</title><text x="176.77" y="139.45" class="green" >T</text></g>
<g><title>54 (position.label in template: 54.U)</title><text x="183.72" y="142.43" class="green" >T</text></g>
<g><title>55 (position.label in template: 55.C)</title><text x="187.44" y="149.01" class="black" >C</text></g>
<g><title>56 (position.label in template: 56.A)</title><text x="186.63" y="156.5" class="black" >A</text></g>
<g><title>57 (position.label in template: 57.A)</title><text x="181.29" y="161.85" class="black" >A</text></g>
<g><title>58 (position.label in template: 58.U)</title><text x="173.6" y="162.89" class="green" >T</text></g>
<g><title>59 (position.label in template: 59.C)</title><text x="167.01" y="159.18" class="black" >C</text></g>
<g><title>60 (position.label in template: 60.C)</title><text x="164.01" y="152.24" class="black" >C</text></g>
<g><title>61 (position.label in template: 61.C)</title><text x="157.23" y="148.89" class="black" >C</text></g>
<g><title>62 (position.label in template: 62.C)</title><text x="150.46" y="145.54" class="black" >C</text></g>
<g><title>63 (position.label in template: 63.G)</title><text x="143.47" y="142.19" class="green" >G</text></g>
<g><title>64 (position.label in template: 64.G)</title><text x="136.69" y="138.83" class="black" >G</text></g>
<g><title>65 (position.label in template: 65.C)</title><text x="131.16" y="143.75" class="black" >C</text></g>
<g><title>66 (position.label in template: 66.A)</title><text x="124.41" y="146.72" class="green" >A</text></g>
<g><title>67 (position.label in template: 67.C)</title><text x="124.21" y="154.28" class="black" >C</text></g>
<g><title>68 (position.label in template: 68.U)</title><text x="124.21" y="161.84" class="green" >T</text></g>
<g><title>69 (position.label in template: 69.U)</title><text x="124.21" y="169.4" class="green" >T</text></g>
<g><title>70 (position.label in template: 70.U)</title><text x="124.21" y="176.96" class="green" >T</text></g>
<g><title>71 (position.label in template: 71.C)</title><text x="124.21" y="184.52" class="black" >C</text></g>
<g><title>72 (position.label in template: 72.A)</title><text x="129.659" y="189.763" class="black" >A</text></g>
<g><title>73 (position.label in template: 73.3')</title><text x="129.412" y="197.32" class="green" >3'</text></g>
<g><line x1="111.461" y1="189.722" x2="111.649" y2="186.255" class="gray" /></g>
<g><line x1="111.871" y1="182.172" x2="112.059" y2="178.695" class="gray" /></g>
<g><line x1="112.059" y1="174.612" x2="111.871" y2="171.135" class="gray" /></g>
<g><line x1="111.76" y1="167.049" x2="111.76" y2="163.578" class="gray" /></g>
<g><line x1="111.76" y1="159.489" x2="111.76" y2="156.018" class="gray" /></g>
<g><line x1="111.817" y1="151.929" x2="111.913" y2="148.457" class="gray" /></g>
<g><line x1="110.098" y1="145.59" x2="107.092" y2="144.267" class="gray" /></g>
<g><line x1="103.644" y1="142.14" x2="100.846" y2="139.826" class="gray" /></g>
<g><line x1="98.2326" y1="136.761" x2="96.5274" y2="133.865" class="gray" /></g>
<g><line x1="94.8819" y1="130.151" x2="93.8181" y2="126.735" class="gray" /></g>
<g><line x1="91.1909" y1="124.461" x2="87.9691" y2="123.946" class="gray" /></g>
<g><line x1="83.9291" y1="123.312" x2="80.5009" y2="122.784" class="gray" /></g>
<g><line x1="76.4591" y1="122.163" x2="73.0209" y2="121.634" class="gray" /></g>
<g><line x1="69.2724" y1="122.417" x2="66.4876" y2="124.18" class="gray" /></g>
<g><line x1="62.7246" y1="125.078" x2="58.8654" y2="124.708" class="gray" /></g>
<g><line x1="55.3596" y1="123.093" x2="52.9704" y2="120.784" class="gray" /></g>
<g><line x1="51.0959" y1="117.359" x2="50.4041" y2="113.928" class="gray" /></g>
<g><line x1="50.9403" y1="110.108" x2="52.5397" y2="107.019" class="gray" /></g>
<g><line x1="55.3274" y1="104.327" x2="58.4626" y2="102.84" class="gray" /></g>
<g><line x1="62.3156" y1="102.361" x2="66.1144" y2="103.115" class="gray" /></g>
<g><line x1="69.3925" y1="105.114" x2="71.3875" y2="107.623" class="gray" /></g>
<g><line x1="74.6833" y1="109.518" x2="78.5267" y2="110.078" class="gray" /></g>
<g><line x1="82.5676" y1="110.705" x2="85.5824" y2="111.201" class="gray" /></g>
<g><line x1="89.6222" y1="111.836" x2="93.2678" y2="112.381" class="gray" /></g>
<g><line x1="96.4075" y1="110.971" x2="98.3625" y2="107.976" class="gray" /></g>
<g><line x1="101.008" y1="104.904" x2="103.482" y2="102.702" class="gray" /></g>
<g><line x1="104.446" y1="99.378" x2="103.504" y2="96.0986" class="gray" /></g>
<g><line x1="102.273" y1="92.2006" x2="101.117" y2="88.856" class="gray" /></g>
<g><line x1="99.7849" y1="84.9898" x2="98.6351" y2="81.6468" class="gray" /></g>
<g><line x1="97.4058" y1="77.748" x2="96.4642" y2="74.4686" class="gray" /></g>
<g><line x1="94.1685" y1="71.4157" x2="91.2315" y2="69.5709" class="gray" /></g>
<g><line x1="88.7809" y1="66.5692" x2="87.5591" y2="63.3174" class="gray" /></g>
<g><line x1="87.4761" y1="59.4601" x2="88.5739" y2="56.1065" class="gray" /></g>
<g><line x1="90.8168" y1="52.8988" x2="93.2832" y2="50.9578" class="gray" /></g>
<g><line x1="96.9343" y1="49.7328" x2="100.616" y2="49.8038" class="gray" /></g>
<g><line x1="104.286" y1="51.0828" x2="107.174" y2="53.2838" class="gray" /></g>
<g><line x1="109.26" y1="56.5156" x2="110.03" y2="59.851" class="gray" /></g>
<g><line x1="109.652" y1="63.7085" x2="108.198" y2="66.948" class="gray" /></g>
<g><line x1="108.027" y1="70.746" x2="109.183" y2="74.0906" class="gray" /></g>
<g><line x1="110.515" y1="77.9568" x2="111.665" y2="81.2998" class="gray" /></g>
<g><line x1="112.894" y1="85.1986" x2="113.836" y2="88.478" class="gray" /></g>
<g><line x1="114.964" y1="92.4086" x2="115.906" y2="95.688" class="gray" /></g>
<g><line x1="118.506" y1="97.838" x2="122.374" y2="98.1886" class="gray" /></g>
<g><line x1="126.272" y1="99.2188" x2="129.088" y2="100.498" class="gray" /></g>
<g><line x1="132.502" y1="102.674" x2="135.138" y2="104.933" class="gray" /></g>
<g><line x1="137.809" y1="107.974" x2="139.771" y2="110.972" class="gray" /></g>
<g><line x1="141.396" y1="114.664" x2="142.254" y2="118.022" class="gray" /></g>
<g><line x1="142.644" y1="122.045" x2="142.446" y2="125.512" class="gray" /></g>
<g><line x1="144.163" y1="128.459" x2="147.277" y2="129.998" class="gray" /></g>
<g><line x1="150.93" y1="131.835" x2="153.85" y2="133.331" class="gray" /></g>
<g><line x1="157.503" y1="135.169" x2="160.617" y2="136.708" class="gray" /></g>
<g><line x1="164.283" y1="138.52" x2="167.387" y2="140.056" class="gray" /></g>
<g><line x1="171.208" y1="140.484" x2="174.782" y2="139.622" class="gray" /></g>
<g><line x1="178.649" y1="139.949" x2="181.841" y2="141.318" class="gray" /></g>
<g><line x1="184.726" y1="143.903" x2="186.434" y2="146.923" class="gray" /></g>
<g><line x1="187.22" y1="150.736" x2="186.85" y2="154.16" class="gray" /></g>
<g><line x1="185.186" y1="157.64" x2="182.734" y2="160.096" class="gray" /></g>
<g><line x1="179.264" y1="161.817" x2="175.626" y2="162.309" class="gray" /></g>
<g><line x1="171.818" y1="161.58" x2="168.792" y2="159.876" class="gray" /></g>
<g><line x1="166.199" y1="156.996" x2="164.821" y2="153.81" class="gray" /></g>
<g><line x1="162.177" y1="151.028" x2="159.063" y2="149.489" class="gray" /></g>
<g><line x1="155.397" y1="147.676" x2="152.293" y2="146.14" class="gray" /></g>
<g><line x1="148.616" y1="144.35" x2="145.314" y2="142.767" class="gray" /></g>
<g><line x1="141.638" y1="140.975" x2="138.522" y2="139.431" class="gray" /></g>
<g><line x1="135.162" y1="139.882" x2="132.688" y2="142.084" class="gray" /></g>
<g><line x1="129.288" y1="144.267" x2="126.282" y2="145.59" class="gray" /></g>
<g><line x1="124.356" y1="148.457" x2="124.264" y2="151.929" class="gray" /></g>
<g><line x1="124.21" y1="156.018" x2="124.21" y2="159.489" class="gray" /></g>
<g><line x1="124.21" y1="163.578" x2="124.21" y2="167.049" class="gray" /></g>
<g><line x1="124.21" y1="171.138" x2="124.21" y2="174.609" class="gray" /></g>
<g><line x1="124.21" y1="178.698" x2="124.21" y2="182.169" class="gray" /></g>
<g><line x1="125.683" y1="185.631" x2="128.185" y2="188.038" class="gray" /></g>
<g><line x1="129.592" y1="191.5" x2="129.479" y2="194.97" class="gray" /></g>
</svg>
