<svg
	xmlns="http://www.w3.org/2000/svg"
	width="231.5"
	height="241.834">
<g><style type="text/css" >
<!-- create color definitions -->
<![CDATA[
circle.red {stroke: rgb(255, 0, 255); fill: none; }
circle.green {stroke: rgb(0, 255, 0); fill: none; }
circle.blue {stroke: rgb(0, 0, 255); fill: none; }
circle.black {stroke: rgb(0, 0, 0); fill: none; }
circle.gray {stroke: rgb(204, 204, 204); fill: none; }
circle.brown {stroke: rgb(211.65, 104.55, 30.6); fill: none; }
line.red {stroke: rgb(255, 0, 255); stroke-width: 0.381116; }
line.green {stroke: rgb(0, 255, 0); stroke-width: 0.381116; }
line.blue {stroke: rgb(0, 0, 255); stroke-width: 0.381116; }
line.black {stroke: rgb(0, 0, 0); stroke-width: 0.381116; }
line.gray {stroke: rgb(204, 204, 204); stroke-width: 0.381116; }
line.brown {stroke: rgb(211.65, 104.55, 30.6); stroke-width: 0.381116; }
line {stroke: rgb(0, 0, 0); }
text.red {fill: rgb(255, 0, 255); font-size: 3.048930px; font-weight: bold; font-family: Helvetica; }
text.green {fill: rgb(0, 255, 0); font-size: 3.048930px; font-weight: bold; font-family: Helvetica; }
text.blue {fill: rgb(0, 0, 255); font-size: 3.048930px; font-weight: bold; font-family: Helvetica; }
text.black {fill: rgb(0, 0, 0); font-size: 3.048930px; font-weight: bold; font-family: Helvetica; }
text.gray {fill: rgb(204, 204, 204); font-size: 3.048930px; font-weight: bold; font-family: Helvetica; }
text.brown {fill: rgb(211.65, 104.55, 30.6); font-size: 3.048930px; font-weight: bold; font-family: Helvetica; }
text {fill: rgb(0, 0, 0); font-size: 3.048930px; font-weight: bold; font-family: Helvetica; text-anchor: middle; alignment-baseline: middle; }

.pseudoknot_connection{stroke-linecap: round; stroke-opacity: 0.2; stroke-width: 1.5; }
.pseudoknot_segment1{stroke-linecap: round; stroke-opacity: 0.4; stroke-width: 3.04893; }
.pseudoknot_segment2{stroke-linecap: round; stroke-opacity: 0.4; stroke-width: 3.04893; }
line.numbering-line{stroke: rgb(204, 204, 204); stroke-width: 0.190558; }
line.predicted{stroke: rgb(0, 0, 0); stroke-dasharray: 2; }
polyline{fill: none; stroke-linejoin: round; }
template{visibility: hidden; }
text.numbering-label{fill: rgb(204, 204, 204); }
]]>
</style></g>
<g><title>0 (position.label in template: 0.5')</title><text x="114.9" y="194.144" class="green" >5'</text></g>
<g><title>1 (position.label in template: 1.G)</title><text x="115.11" y="186.59" class="black" >G</text></g>
<g><line x1="117.143" y1="186.285" x2="125.527" y2="186.285" class="black" /></g>
<g><title>2 (position.label in template: 2.C)</title><text x="115.32" y="179.03" class="black" >C</text></g>
<g><line x1="117.353" y1="178.725" x2="125.317" y2="178.725" class="black" /></g>
<g><title>3 (position.label in template: 3.C)</title><text x="115.32" y="171.47" class="black" >C</text></g>
<g><line x1="117.353" y1="171.165" x2="125.317" y2="171.165" class="black" /></g>
<g><title>4 (position.label in template: 4.C)</title><text x="115.32" y="163.91" class="black" >C</text></g>
<g><line x1="117.353" y1="163.605" x2="125.317" y2="163.605" class="black" /></g>
<g><title>5 (position.label in template: 5.C)</title><text x="115.32" y="156.35" class="black" >C</text></g>
<g><line x1="117.353" y1="156.045" x2="125.317" y2="156.045" class="black" /></g>
<g><title>6 (position.label in template: 6.U)</title><text x="115.32" y="148.79" class="green" >T</text></g>
<g><line x1="117.353" y1="148.485" x2="125.727" y2="148.485" class="black" /></g>
<g><title>7 (position.label in template: 7.G)</title><text x="115.11" y="141.23" class="black" >G</text></g>
<g><line x1="117.143" y1="140.925" x2="125.527" y2="140.925" class="black" /></g>
<g><title>8 (position.label in template: 8.U)</title><text x="108.5" y="137.97" class="green" >T</text></g>
<g><title>9 (position.label in template: 9.A)</title><text x="103.36" y="132.62" class="black" >A</text></g>
<g><title>10 (position.label in template: 10.G)</title><text x="99.68" y="125.8" class="black" >G</text></g>
<g><line x1="99.7149" y1="123.463" x2="99.8551" y2="115.287" class="black" /></g>
<g><text x="96.0723" y="131.635" class="numbering-label sequential" >10</text></g>
<g><line x1="98.7179" y1="127.356" x2="97.0149" y2="130.11" class="numbering-line sequential" /></g>
<g><title>11 (position.label in template: 11.C)</title><text x="92.33" y="125.8" class="black" >C</text></g>
<g><line x1="92.2951" y1="123.463" x2="92.1549" y2="115.287" class="black" /></g>
<g><title>12 (position.label in template: 12.U)</title><text x="84.77" y="125.8" class="green" >T</text></g>
<g><line x1="84.8049" y1="123.463" x2="84.9451" y2="115.287" class="black" /></g>
<g><title>13 (position.label in template: 13.C)</title><text x="77.21" y="125.8" class="black" >C</text></g>
<g><line x1="77.1751" y1="123.463" x2="77.0349" y2="115.287" class="black" /></g>
<g><title>14 (position.label in template: 14.A)</title><text x="72.46" y="131.51" class="black" >A</text></g>
<g><title>15 (position.label in template: 15.G)</title><text x="64.86" y="133.86" class="black" >G</text></g>
<g><title>16 (position.label in template: 16.U)</title><text x="57.69" y="132.19" class="green" >T</text></g>
<g><title>17 (position.label in template: 17.U)</title><text x="52.22" y="126.97" class="green" >T</text></g>
<g><title>18 (position.label in template: 18.G)</title><text x="50" y="119.68" class="black" >G</text></g>
<g><title>19 (position.label in template: 19.G)</title><text x="52.01" y="112.4" class="black" >G</text></g>
<g><title>20 (position.label in template: 20.A)</title><text x="57.9" y="107.18" class="black" >A</text></g>
<g><text x="54.699" y="101.113" class="numbering-label sequential" >20</text></g>
<g><line x1="57.0464" y1="105.562" x2="55.5033" y2="102.637" class="numbering-line sequential" /></g>
<g><title>21 (position.label in template: 21.U)</title><text x="65.07" y="105.51" class="green" >T</text></g>
<g><title>22 (position.label in template: 22.A)</title><text x="72.46" y="107.86" class="black" >A</text></g>
<g><title>23 (position.label in template: 23.G)</title><text x="77" y="113.56" class="black" >G</text></g>
<g><title>24 (position.label in template: 24.A)</title><text x="84.98" y="113.56" class="green" >A</text></g>
<g><title>25 (position.label in template: 25.G)</title><text x="92.12" y="113.56" class="black" >G</text></g>
<g><title>26 (position.label in template: 26.C)</title><text x="99.89" y="113.56" class="black" >C</text></g>
<g><title>27 (position.label in template: 27.G)</title><text x="102.94" y="106.75" class="black" >G</text></g>
<g><title>28 (position.label in template: 28.C)</title><text x="108.5" y="101.4" class="black" >C</text></g>
<g><line x1="110.413" y1="100.408" x2="117.917" y2="97.7123" class="black" /></g>
<g><title>29 (position.label in template: 29.C)</title><text x="105.98" y="94.27" class="black" >C</text></g>
<g><line x1="107.893" y1="93.2785" x2="115.407" y2="90.5817" class="black" /></g>
<g><title>30 (position.label in template: 30.G)</title><text x="103.26" y="87.14" class="black" >G</text></g>
<g><line x1="105.181" y1="86.1698" x2="113.089" y2="83.4304" class="black" /></g>
<g><text x="96.7906" y="89.422" class="numbering-label sequential" >30</text></g>
<g><line x1="101.535" y1="87.7485" x2="98.6199" y2="88.7767" class="numbering-line sequential" /></g>
<g><title>31 (position.label in template: 31.U)</title><text x="100.95" y="80.01" class="green" >T</text></g>
<g><line x1="102.863" y1="79.0185" x2="110.377" y2="76.3217" class="black" /></g>
<g><title>32 (position.label in template: 32.A)</title><text x="98.64" y="72.88" class="green" >A</text></g>
<g><line x1="100.553" y1="71.8885" x2="108.067" y2="69.1917" class="black" /></g>
<g><title>33 (position.label in template: 33.C)</title><text x="91.91" y="69.07" class="black" >C</text></g>
<g><title>34 (position.label in template: 34.U)</title><text x="89.02" y="62.08" class="green" >T</text></g>
<g><title>35 (position.label in template: 35.U)</title><text x="90.94" y="54.77" class="green" >T</text></g>
<g><title>36 (position.label in template: 36.A)</title><text x="97.1" y="50.11" class="black" >A</text></g>
<g><title>37 (position.label in template: 37.U)</title><text x="104.46" y="50" class="green" >T</text></g>
<g><title>38 (position.label in template: 38.A)</title><text x="110.75" y="54.49" class="black" >A</text></g>
<g><title>39 (position.label in template: 39.A)</title><text x="112.88" y="61.75" class="black" >A</text></g>
<g><title>40 (position.label in template: 40.U)</title><text x="109.98" y="68.81" class="green" >T</text></g>
<g><title>41 (position.label in template: 41.G)</title><text x="112.29" y="75.94" class="green" >G</text></g>
<g><title>42 (position.label in template: 42.C)</title><text x="115.01" y="83.07" class="black" >C</text></g>
<g><title>43 (position.label in template: 43.G)</title><text x="117.32" y="90.2" class="black" >G</text></g>
<g><title>44 (position.label in template: 44.G)</title><text x="119.83" y="97.33" class="black" >G</text></g>
<g><title>45 (position.label in template: 45.C)</title><text x="127.56" y="98.14" class="black" >C</text></g>
<g><title>46 (position.label in template: 46.G)</title><text x="134.17" y="101.4" class="black" >G</text></g>
<g><title>47 (position.label in template: 47.G)</title><text x="139.51" y="106.75" class="black" >G</text></g>
<g><title>48 (position.label in template: 48.U)</title><text x="142.99" y="113.56" class="green" >T</text></g>
<g><title>49 (position.label in template: 49.C)</title><text x="143.79" y="121.08" class="black" >C</text></g>
<g><title>50 (position.label in template: 50.G)</title><text x="141.85" y="128.44" class="black" >G</text></g>
<g><line x1="140.596" y1="129.735" x2="135.634" y2="136.065" class="black" /></g>
<g><text x="148.304" y="126.114" class="numbering-label sequential" >50</text></g>
<g><line x1="143.571" y1="127.82" x2="146.475" y2="126.774" class="numbering-line sequential" /></g>
<g><title>51 (position.label in template: 51.A)</title><text x="148.15" y="133.18" class="green" >A</text></g>
<g><line x1="146.854" y1="134.441" x2="141.556" y2="140.839" class="black" /></g>
<g><title>52 (position.label in template: 52.G)</title><text x="153.62" y="137.93" class="black" >G</text></g>
<g><line x1="152.366" y1="139.225" x2="147.404" y2="145.555" class="black" /></g>
<g><title>53 (position.label in template: 53.A)</title><text x="159.92" y="142.67" class="green" >A</text></g>
<g><line x1="158.625" y1="143.932" x2="153.335" y2="150.329" class="black" /></g>
<g><title>54 (position.label in template: 54.G)</title><text x="165.39" y="147.41" class="black" >G</text></g>
<g><line x1="164.136" y1="148.705" x2="159.174" y2="155.035" class="black" /></g>
<g><title>55 (position.label in template: 55.U)</title><text x="173.16" y="147.22" class="green" >T</text></g>
<g><title>56 (position.label in template: 56.U)</title><text x="179.29" y="151.65" class="green" >T</text></g>
<g><title>57 (position.label in template: 57.C)</title><text x="181.5" y="158.88" class="black" >C</text></g>
<g><title>58 (position.label in template: 58.G)</title><text x="178.67" y="165.97" class="black" >G</text></g>
<g><title>59 (position.label in template: 59.A)</title><text x="172.72" y="170.04" class="black" >A</text></g>
<g><title>60 (position.label in template: 60.G)</title><text x="164.77" y="169.42" class="black" >G</text></g>
<g><title>61 (position.label in template: 61.C)</title><text x="159.35" y="164.37" class="black" >C</text></g>
<g><title>62 (position.label in template: 62.C)</title><text x="157.92" y="156.94" class="black" >C</text></g>
<g><title>63 (position.label in template: 63.U)</title><text x="152.04" y="152.2" class="green" >T</text></g>
<g><title>64 (position.label in template: 64.C)</title><text x="146.15" y="147.46" class="black" >C</text></g>
<g><title>65 (position.label in template: 65.U)</title><text x="140.26" y="142.71" class="green" >T</text></g>
<g><title>66 (position.label in template: 66.C)</title><text x="134.38" y="137.97" class="black" >C</text></g>
<g><title>67 (position.label in template: 67.C)</title><text x="127.56" y="141.23" class="black" >C</text></g>
<g><title>68 (position.label in template: 68.A)</title><text x="127.76" y="148.79" class="green" >A</text></g>
<g><title>69 (position.label in template: 69.G)</title><text x="127.35" y="156.35" class="black" >G</text></g>
<g><title>70 (position.label in template: 70.G)</title><text x="127.35" y="163.91" class="black" >G</text></g>
<g><title>71 (position.label in template: 71.G)</title><text x="127.35" y="171.47" class="black" >G</text></g>
<g><title>72 (position.label in template: 72.G)</title><text x="127.35" y="179.03" class="black" >G</text></g>
<g><title>73 (position.label in template: 73.C)</title><text x="127.56" y="186.59" class="black" >C</text></g>
<g><title>74 (position.label in template: 74.A)</title><text x="133" y="191.834" class="black" >A</text></g>
<g><title>75 (position.label in template: 75.3')</title><text x="127.769" y="197.287" class="green" >3'</text></g>
<g><line x1="114.957" y1="191.807" x2="115.054" y2="188.317" class="gray" /></g>
<g><line x1="115.166" y1="184.253" x2="115.264" y2="180.757" class="gray" /></g>
<g><line x1="115.32" y1="176.692" x2="115.32" y2="173.198" class="gray" /></g>
<g><line x1="115.32" y1="169.132" x2="115.32" y2="165.638" class="gray" /></g>
<g><line x1="115.32" y1="161.572" x2="115.32" y2="158.078" class="gray" /></g>
<g><line x1="115.32" y1="154.012" x2="115.32" y2="150.518" class="gray" /></g>
<g><line x1="115.264" y1="146.453" x2="115.166" y2="142.957" class="gray" /></g>
<g><line x1="113.287" y1="140.026" x2="110.323" y2="138.564" class="gray" /></g>
<g><line x1="107.092" y1="136.199" x2="104.768" y2="133.781" class="gray" /></g>
<g><line x1="102.395" y1="130.526" x2="100.645" y2="127.284" class="gray" /></g>
<g><line x1="97.6474" y1="125.495" x2="94.3626" y2="125.495" class="gray" /></g>
<g><line x1="90.2974" y1="125.495" x2="86.8026" y2="125.495" class="gray" /></g>
<g><line x1="82.7374" y1="125.495" x2="79.2426" y2="125.495" class="gray" /></g>
<g><line x1="75.9101" y1="127.058" x2="73.7599" y2="129.642" class="gray" /></g>
<g><line x1="70.5181" y1="131.806" x2="66.8019" y2="132.955" class="gray" /></g>
<g><line x1="62.8804" y1="133.094" x2="59.6696" y2="132.346" class="gray" /></g>
<g><line x1="56.2195" y1="130.482" x2="53.6905" y2="128.068" class="gray" /></g>
<g><line x1="51.6279" y1="124.721" x2="50.5921" y2="121.32" class="gray" /></g>
<g><line x1="50.541" y1="117.416" x2="51.469" y2="114.054" class="gray" /></g>
<g><line x1="53.5312" y1="110.747" x2="56.3788" y2="108.223" class="gray" /></g>
<g><line x1="59.8796" y1="106.414" x2="63.0904" y2="105.666" class="gray" /></g>
<g><line x1="67.007" y1="105.821" x2="70.523" y2="106.939" class="gray" /></g>
<g><line x1="73.7264" y1="109.145" x2="75.7336" y2="111.665" class="gray" /></g>
<g><line x1="79.0326" y1="113.255" x2="82.9474" y2="113.255" class="gray" /></g>
<g><line x1="87.0126" y1="113.255" x2="90.0874" y2="113.255" class="gray" /></g>
<g><line x1="94.1526" y1="113.255" x2="97.8574" y2="113.255" class="gray" /></g>
<g><line x1="100.721" y1="111.4" x2="102.109" y2="108.3" class="gray" /></g>
<g><line x1="104.405" y1="105.036" x2="107.035" y2="102.504" class="gray" /></g>
<g><line x1="107.823" y1="99.1787" x2="106.657" y2="95.8816" class="gray" /></g>
<g><line x1="105.256" y1="92.066" x2="103.984" y2="88.7342" class="gray" /></g>
<g><line x1="102.634" y1="84.9014" x2="101.576" y2="81.6388" class="gray" /></g>
<g><line x1="100.324" y1="77.7714" x2="99.2665" y2="74.5088" class="gray" /></g>
<g><line x1="96.8712" y1="71.5737" x2="93.6788" y2="69.7665" class="gray" /></g>
<g><line x1="91.1334" y1="66.8867" x2="89.7966" y2="63.6535" class="gray" /></g>
<g><line x1="89.5364" y1="59.8092" x2="90.4236" y2="56.431" class="gray" /></g>
<g><line x1="92.561" y1="53.2388" x2="95.479" y2="51.0314" class="gray" /></g>
<g><line x1="99.1324" y1="49.7747" x2="102.428" y2="49.7255" class="gray" /></g>
<g><line x1="106.114" y1="50.876" x2="109.096" y2="53.0042" class="gray" /></g>
<g><line x1="111.322" y1="56.1355" x2="112.308" y2="59.4947" class="gray" /></g>
<g><line x1="112.108" y1="63.3253" x2="110.752" y2="66.6249" class="gray" /></g>
<g><line x1="110.606" y1="70.4388" x2="111.664" y2="73.7014" class="gray" /></g>
<g><line x1="113.014" y1="77.5342" x2="114.286" y2="80.866" class="gray" /></g>
<g><line x1="115.636" y1="84.6988" x2="116.694" y2="87.9614" class="gray" /></g>
<g><line x1="117.995" y1="91.8124" x2="119.155" y2="95.1078" class="gray" /></g>
<g><line x1="121.852" y1="97.2369" x2="125.538" y2="97.6233" class="gray" /></g>
<g><line x1="129.383" y1="98.7342" x2="132.347" y2="100.196" class="gray" /></g>
<g><line x1="135.606" y1="102.534" x2="138.074" y2="105.006" class="gray" /></g>
<g><line x1="140.435" y1="108.255" x2="142.065" y2="111.445" class="gray" /></g>
<g><line x1="143.205" y1="115.276" x2="143.575" y2="118.754" class="gray" /></g>
<g><line x1="143.272" y1="122.741" x2="142.368" y2="126.17" class="gray" /></g>
<g><line x1="143.474" y1="129.357" x2="146.526" y2="131.653" class="gray" /></g>
<g><line x1="149.685" y1="134.208" x2="152.085" y2="136.292" class="gray" /></g>
<g><line x1="155.244" y1="138.847" x2="158.296" y2="141.143" class="gray" /></g>
<g><line x1="161.456" y1="143.696" x2="163.854" y2="145.774" class="gray" /></g>
<g><line x1="167.422" y1="147.055" x2="171.128" y2="146.965" class="gray" /></g>
<g><line x1="174.807" y1="148.106" x2="177.643" y2="150.155" class="gray" /></g>
<g><line x1="179.884" y1="153.289" x2="180.906" y2="156.631" class="gray" /></g>
<g><line x1="180.746" y1="160.463" x2="179.424" y2="163.777" class="gray" /></g>
<g><line x1="176.992" y1="166.813" x2="174.398" y2="168.588" class="gray" /></g>
<g><line x1="170.694" y1="169.577" x2="166.796" y2="169.273" class="gray" /></g>
<g><line x1="163.283" y1="167.729" x2="160.837" y2="165.451" class="gray" /></g>
<g><line x1="158.966" y1="162.069" x2="158.304" y2="158.631" class="gray" /></g>
<g><line x1="156.338" y1="155.359" x2="153.622" y2="153.171" class="gray" /></g>
<g><line x1="150.456" y1="150.621" x2="147.734" y2="148.429" class="gray" /></g>
<g><line x1="144.568" y1="145.879" x2="141.842" y2="143.681" class="gray" /></g>
<g><line x1="138.678" y1="141.129" x2="135.962" y2="138.941" class="gray" /></g>
<g><line x1="132.546" y1="138.542" x2="129.394" y2="140.049" class="gray" /></g>
<g><line x1="127.614" y1="142.957" x2="127.706" y2="146.453" class="gray" /></g>
<g><line x1="127.65" y1="150.515" x2="127.46" y2="154.015" class="gray" /></g>
<g><line x1="127.35" y1="158.078" x2="127.35" y2="161.572" class="gray" /></g>
<g><line x1="127.35" y1="165.638" x2="127.35" y2="169.132" class="gray" /></g>
<g><line x1="127.35" y1="173.198" x2="127.35" y2="176.692" class="gray" /></g>
<g><line x1="127.406" y1="180.757" x2="127.504" y2="184.253" class="gray" /></g>
<g><line x1="129.023" y1="187.696" x2="131.537" y2="190.119" class="gray" /></g>
<g><line x1="131.593" y1="192.996" x2="129.176" y2="195.515" class="gray" /></g>
</svg>
