<svg
	xmlns="http://www.w3.org/2000/svg"
	width="228.44"
	height="239.86">
<g><style type="text/css" >
<!-- create color definitions -->
<![CDATA[
circle.red {stroke: rgb(255, 0, 255); fill: none; }
circle.green {stroke: rgb(0, 255, 0); fill: none; }
circle.blue {stroke: rgb(0, 0, 255); fill: none; }
circle.black {stroke: rgb(0, 0, 0); fill: none; }
circle.gray {stroke: rgb(204, 204, 204); fill: none; }
circle.brown {stroke: rgb(211.65, 104.55, 30.6); fill: none; }
line.red {stroke: rgb(255, 0, 255); stroke-width: 0.382695; }
line.green {stroke: rgb(0, 255, 0); stroke-width: 0.382695; }
line.blue {stroke: rgb(0, 0, 255); stroke-width: 0.382695; }
line.black {stroke: rgb(0, 0, 0); stroke-width: 0.382695; }
line.gray {stroke: rgb(204, 204, 204); stroke-width: 0.382695; }
line.brown {stroke: rgb(211.65, 104.55, 30.6); stroke-width: 0.382695; }
line {stroke: rgb(0, 0, 0); }
text.red {fill: rgb(255, 0, 255); font-size: 3.061560px; font-weight: bold; font-family: Helvetica; }
text.green {fill: rgb(0, 255, 0); font-size: 3.061560px; font-weight: bold; font-family: Helvetica; }
text.blue {fill: rgb(0, 0, 255); font-size: 3.061560px; font-weight: bold; font-family: Helvetica; }
text.black {fill: rgb(0, 0, 0); font-size: 3.061560px; font-weight: bold; font-family: Helvetica; }
text.gray {fill: rgb(204, 204, 204); font-size: 3.061560px; font-weight: bold; font-family: Helvetica; }
text.brown {fill: rgb(211.65, 104.55, 30.6); font-size: 3.061560px; font-weight: bold; font-family: Helvetica; }
text {fill: rgb(0, 0, 0); font-size: 3.061560px; font-weight: bold; font-family: Helvetica; text-anchor: middle; alignment-baseline: middle; }

.pseudoknot_connection{stroke-linecap: round; stroke-opacity: 0.2; stroke-width: 1.5; }
.pseudoknot_segment1{stroke-linecap: round; stroke-opacity: 0.4; stroke-width: 3.06156; }
.pseudoknot_segment2{stroke-linecap: round; stroke-opacity: 0.4; stroke-width: 3.06156; }
line.numbering-line{stroke: rgb(204, 204, 204); stroke-width: 0.191348; }
line.predicted{stroke: rgb(0, 0, 0); stroke-dasharray: 2; }
polyline{fill: none; stroke-linejoin: round; }
template{visibility: hidden; }
text.numbering-label{fill: rgb(204, 204, 204); }
]]>
</style></g>
<g><title>0 (position.label in template: 0.5')</title><text x="111.63" y="192.162" class="green" >5'</text></g>
<g><title>1 (position.label in template: 1.G)</title><text x="112.05" y="184.61" class="green" >G</text></g>
<g><line x1="114.091" y1="184.304" x2="122.459" y2="184.304" class="black" /></g>
<g><title>2 (position.label in template: 2.A)</title><text x="112.47" y="177.05" class="green" >A</text></g>
<g><line x1="114.511" y1="176.744" x2="122.459" y2="176.744" class="black" /></g>
<g><title>3 (position.label in template: 3.G)</title><text x="112.05" y="169.49" class="black" >G</text></g>
<g><line x1="114.091" y1="169.184" x2="122.459" y2="169.184" class="black" /></g>
<g><title>4 (position.label in template: 4.A)</title><text x="112.47" y="161.93" class="green" >A</text></g>
<g><line x1="114.511" y1="161.624" x2="122.459" y2="161.624" class="black" /></g>
<g><title>5 (position.label in template: 5.G)</title><text x="112.05" y="154.37" class="black" >G</text></g>
<g><line x1="114.091" y1="154.064" x2="122.459" y2="154.064" class="black" /></g>
<g><title>6 (position.label in template: 6.U)</title><text x="112.26" y="146.81" class="green" >T</text></g>
<g><line x1="114.301" y1="146.504" x2="122.669" y2="146.504" class="black" /></g>
<g><title>7 (position.label in template: 7.U)</title><text x="112.26" y="139.25" class="green" >T</text></g>
<g><line x1="114.301" y1="138.944" x2="122.669" y2="138.944" class="black" /></g>
<g><title>8 (position.label in template: 8.U)</title><text x="105.44" y="135.99" class="green" >T</text></g>
<g><title>9 (position.label in template: 9.A)</title><text x="100.3" y="130.64" class="black" >A</text></g>
<g><title>10 (position.label in template: 10.A)</title><text x="97.04" y="123.82" class="green" >A</text></g>
<g><line x1="97.005" y1="121.473" x2="96.865" y2="113.315" class="black" /></g>
<g><text x="93.4173" y="129.679" class="numbering-label sequential" >10</text></g>
<g><line x1="96.0739" y1="125.382" x2="94.3638" y2="128.148" class="numbering-line sequential" /></g>
<g><title>11 (position.label in template: 11.C)</title><text x="89.27" y="123.82" class="black" >C</text></g>
<g><line x1="89.235" y1="121.473" x2="89.095" y2="113.315" class="black" /></g>
<g><title>12 (position.label in template: 12.U)</title><text x="81.71" y="123.82" class="green" >T</text></g>
<g><line x1="81.745" y1="121.473" x2="81.885" y2="113.315" class="black" /></g>
<g><title>13 (position.label in template: 13.C)</title><text x="74.15" y="123.82" class="black" >C</text></g>
<g><line x1="74.115" y1="121.473" x2="73.975" y2="113.315" class="black" /></g>
<g><title>14 (position.label in template: 14.A)</title><text x="69.02" y="129.17" class="black" >A</text></g>
<g><title>15 (position.label in template: 15.G)</title><text x="61.19" y="130.66" class="black" >G</text></g>
<g><title>16 (position.label in template: 16.U)</title><text x="54.41" y="127.77" class="green" >T</text></g>
<g><title>17 (position.label in template: 17.A)</title><text x="50.42" y="121.48" class="black" >A</text></g>
<g><title>18 (position.label in template: 18.G)</title><text x="50" y="113.92" class="black" >G</text></g>
<g><title>19 (position.label in template: 19.G)</title><text x="54.2" y="107.64" class="black" >G</text></g>
<g><title>20 (position.label in template: 20.C)</title><text x="61.4" y="104.75" class="black" >C</text></g>
<g><text x="60.7476" y="97.8925" class="numbering-label sequential" >20</text></g>
<g><line x1="61.226" y1="102.921" x2="60.8932" y2="99.4232" class="numbering-line sequential" /></g>
<g><title>21 (position.label in template: 21.A)</title><text x="69.02" y="106.23" class="black" >A</text></g>
<g><title>22 (position.label in template: 22.G)</title><text x="73.94" y="111.58" class="black" >G</text></g>
<g><title>23 (position.label in template: 23.A)</title><text x="81.92" y="111.58" class="green" >A</text></g>
<g><title>24 (position.label in template: 24.G)</title><text x="89.06" y="111.58" class="black" >G</text></g>
<g><title>25 (position.label in template: 25.U)</title><text x="96.83" y="111.58" class="green" >T</text></g>
<g><title>26 (position.label in template: 26.G)</title><text x="99.88" y="104.76" class="black" >G</text></g>
<g><title>27 (position.label in template: 27.A)</title><text x="105.65" y="99.42" class="green" >A</text></g>
<g><line x1="107.57" y1="98.4223" x2="115.06" y2="95.7254" class="black" /></g>
<g><title>28 (position.label in template: 28.A)</title><text x="103.13" y="92.29" class="green" >A</text></g>
<g><line x1="105.051" y1="91.2929" x2="112.549" y2="88.5948" class="black" /></g>
<g><title>29 (position.label in template: 29.U)</title><text x="100.41" y="85.16" class="green" >T</text></g>
<g><line x1="102.339" y1="84.1858" x2="110.231" y2="81.4519" class="black" /></g>
<g><title>30 (position.label in template: 30.A)</title><text x="98.1" y="78.03" class="green" >A</text></g>
<g><line x1="100.021" y1="77.0344" x2="107.519" y2="74.3433" class="black" /></g>
<g><text x="93.0871" y="82.7546" class="numbering-label sequential" >30</text></g>
<g><line x1="96.7632" y1="79.2899" x2="94.7113" y2="81.2238" class="numbering-line sequential" /></g>
<g><title>31 (position.label in template: 31.A)</title><text x="91.07" y="75.25" class="black" >A</text></g>
<g><title>32 (position.label in template: 32.U)</title><text x="86.26" y="69.26" class="green" >T</text></g>
<g><title>33 (position.label in template: 33.U)</title><text x="85.38" y="61.75" class="green" >T</text></g>
<g><title>34 (position.label in template: 34.U)</title><text x="88.48" y="54.85" class="green" >T</text></g>
<g><title>35 (position.label in template: 35.U)</title><text x="94.69" y="50.53" class="green" >T</text></g>
<g><title>36 (position.label in template: 36.U)</title><text x="102.23" y="50" class="green" >T</text></g>
<g><title>37 (position.label in template: 37.A)</title><text x="109.17" y="53.43" class="black" >A</text></g>
<g><title>38 (position.label in template: 38.A)</title><text x="113.2" y="59.82" class="black" >A</text></g>
<g><title>39 (position.label in template: 39.C)</title><text x="113.17" y="67.38" class="black" >C</text></g>
<g><title>40 (position.label in template: 40.U)</title><text x="109.44" y="73.96" class="green" >T</text></g>
<g><title>41 (position.label in template: 41.A)</title><text x="112.16" y="81.09" class="green" >A</text></g>
<g><title>42 (position.label in template: 42.U)</title><text x="114.47" y="88.21" class="green" >T</text></g>
<g><title>43 (position.label in template: 43.U)</title><text x="116.98" y="95.34" class="green" >T</text></g>
<g><title>44 (position.label in template: 44.U)</title><text x="124.5" y="96.15" class="green" >T</text></g>
<g><title>45 (position.label in template: 45.G)</title><text x="131.11" y="99.42" class="black" >G</text></g>
<g><title>46 (position.label in template: 46.G)</title><text x="136.45" y="104.76" class="black" >G</text></g>
<g><title>47 (position.label in template: 47.C)</title><text x="139.93" y="111.58" class="black" >C</text></g>
<g><title>48 (position.label in template: 48.C)</title><text x="140.74" y="119.1" class="black" >C</text></g>
<g><title>49 (position.label in template: 49.A)</title><text x="139.2" y="126.46" class="green" >A</text></g>
<g><line x1="137.899" y1="127.727" x2="132.621" y2="134.111" class="black" /></g>
<g><title>50 (position.label in template: 50.U)</title><text x="144.89" y="131.2" class="green" >T</text></g>
<g><line x1="143.63" y1="132.499" x2="138.67" y2="138.818" class="black" /></g>
<g><text x="149.209" y="125.833" class="numbering-label sequential" >50</text></g>
<g><line x1="146.042" y1="129.769" x2="147.977" y2="127.364" class="numbering-line sequential" /></g>
<g><title>51 (position.label in template: 51.A)</title><text x="150.98" y="135.94" class="green" >A</text></g>
<g><line x1="149.678" y1="137.206" x2="144.392" y2="143.592" class="black" /></g>
<g><title>52 (position.label in template: 52.G)</title><text x="156.45" y="140.69" class="black" >G</text></g>
<g><line x1="155.191" y1="141.99" x2="150.239" y2="148.307" class="black" /></g>
<g><title>53 (position.label in template: 53.G)</title><text x="162.34" y="145.43" class="black" >G</text></g>
<g><line x1="161.081" y1="146.73" x2="156.129" y2="153.047" class="black" /></g>
<g><title>54 (position.label in template: 54.U)</title><text x="170.1" y="145.24" class="green" >T</text></g>
<g><title>55 (position.label in template: 55.U)</title><text x="176.24" y="149.66" class="green" >T</text></g>
<g><title>56 (position.label in template: 56.C)</title><text x="178.44" y="156.9" class="black" >C</text></g>
<g><title>57 (position.label in template: 57.G)</title><text x="175.62" y="163.99" class="black" >G</text></g>
<g><title>58 (position.label in template: 58.A)</title><text x="169.66" y="168.05" class="black" >A</text></g>
<g><title>59 (position.label in template: 59.U)</title><text x="161.92" y="167.43" class="green" >T</text></g>
<g><title>60 (position.label in template: 60.U)</title><text x="156.29" y="162.38" class="green" >T</text></g>
<g><title>61 (position.label in template: 61.C)</title><text x="154.87" y="154.96" class="black" >C</text></g>
<g><title>62 (position.label in template: 62.C)</title><text x="148.98" y="150.22" class="black" >C</text></g>
<g><title>63 (position.label in template: 63.U)</title><text x="143.09" y="145.47" class="green" >T</text></g>
<g><title>64 (position.label in template: 64.A)</title><text x="137.41" y="140.73" class="green" >A</text></g>
<g><title>65 (position.label in template: 65.U)</title><text x="131.32" y="135.99" class="green" >T</text></g>
<g><title>66 (position.label in template: 66.A)</title><text x="124.71" y="139.25" class="green" >A</text></g>
<g><title>67 (position.label in template: 67.A)</title><text x="124.71" y="146.81" class="green" >A</text></g>
<g><title>68 (position.label in template: 68.C)</title><text x="124.5" y="154.37" class="black" >C</text></g>
<g><title>69 (position.label in template: 69.U)</title><text x="124.5" y="161.93" class="green" >T</text></g>
<g><title>70 (position.label in template: 70.C)</title><text x="124.5" y="169.49" class="black" >C</text></g>
<g><title>71 (position.label in template: 71.U)</title><text x="124.5" y="177.05" class="green" >T</text></g>
<g><title>72 (position.label in template: 72.U)</title><text x="124.5" y="184.61" class="green" >T</text></g>
<g><title>73 (position.label in template: 73.A)</title><text x="129.946" y="189.86" class="black" >A</text></g>
<g><title>74 (position.label in template: 74.3')</title><text x="124.711" y="195.32" class="green" >3'</text></g>
<g><line x1="111.744" y1="189.818" x2="111.937" y2="186.342" class="gray" /></g>
<g><line x1="112.163" y1="182.266" x2="112.357" y2="178.782" class="gray" /></g>
<g><line x1="112.357" y1="174.706" x2="112.163" y2="171.222" class="gray" /></g>
<g><line x1="112.163" y1="167.146" x2="112.357" y2="163.662" class="gray" /></g>
<g><line x1="112.357" y1="159.586" x2="112.163" y2="156.102" class="gray" /></g>
<g><line x1="112.107" y1="152.024" x2="112.203" y2="148.544" class="gray" /></g>
<g><line x1="112.26" y1="144.463" x2="112.26" y2="140.985" class="gray" /></g>
<g><line x1="110.419" y1="138.064" x2="107.281" y2="136.564" class="gray" /></g>
<g><line x1="104.026" y1="134.212" x2="101.714" y2="131.806" class="gray" /></g>
<g><line x1="99.4198" y1="128.492" x2="97.9202" y2="125.355" class="gray" /></g>
<g><line x1="94.999" y1="123.514" x2="91.311" y2="123.514" class="gray" /></g>
<g><line x1="87.229" y1="123.514" x2="83.751" y2="123.514" class="gray" /></g>
<g><line x1="79.669" y1="123.514" x2="76.191" y2="123.514" class="gray" /></g>
<g><line x1="72.7374" y1="124.987" x2="70.4326" y2="127.391" class="gray" /></g>
<g><line x1="67.0149" y1="129.245" x2="63.1951" y2="129.972" class="gray" /></g>
<g><line x1="59.3124" y1="129.554" x2="56.2876" y2="128.264" class="gray" /></g>
<g><line x1="53.3167" y1="125.74" x2="51.5133" y2="122.897" class="gray" /></g>
<g><line x1="50.3068" y1="119.136" x2="50.1132" y2="115.652" class="gray" /></g>
<g><line x1="51.1347" y1="111.917" x2="53.0653" y2="109.03" class="gray" /></g>
<g><line x1="56.0941" y1="106.574" x2="59.5059" y2="105.204" class="gray" /></g>
<g><line x1="63.4036" y1="104.833" x2="67.0164" y2="105.535" class="gray" /></g>
<g><line x1="70.4016" y1="107.426" x2="72.5584" y2="109.771" class="gray" /></g>
<g><line x1="75.981" y1="111.274" x2="79.879" y2="111.274" class="gray" /></g>
<g><line x1="83.961" y1="111.274" x2="87.019" y2="111.274" class="gray" /></g>
<g><line x1="91.101" y1="111.274" x2="94.789" y2="111.274" class="gray" /></g>
<g><line x1="97.6633" y1="109.411" x2="99.0467" y2="106.317" class="gray" /></g>
<g><line x1="101.378" y1="103.068" x2="104.152" y2="100.5" class="gray" /></g>
<g><line x1="104.97" y1="97.1895" x2="103.81" y2="93.9082" class="gray" /></g>
<g><line x1="102.403" y1="90.0769" x2="101.137" y2="86.7608" class="gray" /></g>
<g><line x1="99.7809" y1="82.9122" x2="98.7291" y2="79.6655" class="gray" /></g>
<g><line x1="96.202" y1="76.9733" x2="92.968" y2="75.6944" class="gray" /></g>
<g><line x1="89.7921" y1="73.3524" x2="87.5379" y2="70.5453" class="gray" /></g>
<g><line x1="86.0225" y1="66.9267" x2="85.6175" y2="63.471" class="gray" /></g>
<g><line x1="86.2164" y1="59.5821" x2="87.6436" y2="56.4056" class="gray" /></g>
<g><line x1="90.1555" y1="53.3783" x2="93.0145" y2="51.3894" class="gray" /></g>
<g><line x1="96.726" y1="50.0807" x2="100.194" y2="49.837" class="gray" /></g>
<g><line x1="104.06" y1="50.5982" x2="107.34" y2="52.2195" class="gray" /></g>
<g><line x1="110.259" y1="54.8502" x2="112.111" y2="57.7875" class="gray" /></g>
<g><line x1="113.192" y1="61.5549" x2="113.178" y2="65.0328" class="gray" /></g>
<g><line x1="112.163" y1="68.8494" x2="110.447" y2="71.8782" class="gray" /></g>
<g><line x1="110.167" y1="75.5608" x2="111.433" y2="78.8769" class="gray" /></g>
<g><line x1="112.79" y1="82.7253" x2="113.84" y2="85.9624" class="gray" /></g>
<g><line x1="115.148" y1="89.8291" x2="116.302" y2="93.1086" class="gray" /></g>
<g><line x1="119.009" y1="95.2524" x2="122.471" y2="95.6253" class="gray" /></g>
<g><line x1="126.329" y1="96.7489" x2="129.281" y2="98.2088" class="gray" /></g>
<g><line x1="132.553" y1="100.557" x2="135.007" y2="103.011" class="gray" /></g>
<g><line x1="137.378" y1="106.272" x2="139.002" y2="109.456" class="gray" /></g>
<g><line x1="140.149" y1="113.303" x2="140.521" y2="116.765" class="gray" /></g>
<g><line x1="140.322" y1="120.792" x2="139.618" y2="124.156" class="gray" /></g>
<g><line x1="140.768" y1="127.46" x2="143.322" y2="129.587" class="gray" /></g>
<g><line x1="146.501" y1="132.147" x2="149.369" y2="134.38" class="gray" /></g>
<g><line x1="152.521" y1="136.972" x2="154.909" y2="139.046" class="gray" /></g>
<g><line x1="158.04" y1="141.663" x2="160.75" y2="143.844" class="gray" /></g>
<g><line x1="164.38" y1="145.074" x2="168.06" y2="144.984" class="gray" /></g>
<g><line x1="171.756" y1="146.126" x2="174.584" y2="148.161" class="gray" /></g>
<g><line x1="176.833" y1="151.307" x2="177.847" y2="154.641" class="gray" /></g>
<g><line x1="177.686" y1="158.49" x2="176.374" y2="161.787" class="gray" /></g>
<g><line x1="173.933" y1="164.833" x2="171.347" y2="166.595" class="gray" /></g>
<g><line x1="167.625" y1="167.581" x2="163.955" y2="167.287" class="gray" /></g>
<g><line x1="160.401" y1="165.761" x2="157.809" y2="163.437" class="gray" /></g>
<g><line x1="155.906" y1="160.069" x2="155.254" y2="156.659" class="gray" /></g>
<g><line x1="153.28" y1="153.374" x2="150.57" y2="151.193" class="gray" /></g>
<g><line x1="147.391" y1="148.633" x2="144.679" y2="146.445" class="gray" /></g>
<g><line x1="141.523" y1="143.856" x2="138.977" y2="141.732" class="gray" /></g>
<g><line x1="135.799" y1="139.17" x2="132.931" y2="136.937" class="gray" /></g>
<g><line x1="129.489" y1="136.587" x2="126.541" y2="138.041" class="gray" /></g>
<g><line x1="124.71" y1="140.985" x2="124.71" y2="144.463" class="gray" /></g>
<g><line x1="124.653" y1="148.544" x2="124.557" y2="152.024" class="gray" /></g>
<g><line x1="124.5" y1="156.105" x2="124.5" y2="159.583" class="gray" /></g>
<g><line x1="124.5" y1="163.665" x2="124.5" y2="167.143" class="gray" /></g>
<g><line x1="124.5" y1="171.225" x2="124.5" y2="174.703" class="gray" /></g>
<g><line x1="124.5" y1="178.785" x2="124.5" y2="182.263" class="gray" /></g>
<g><line x1="125.969" y1="185.72" x2="128.476" y2="188.137" class="gray" /></g>
<g><line x1="128.533" y1="191.027" x2="126.124" y2="193.54" class="gray" /></g>
</svg>
