<svg
	xmlns="http://www.w3.org/2000/svg"
	width="215.83"
	height="235.64">
<g><style type="text/css" >
<!-- create color definitions -->
<![CDATA[
circle.red {stroke: rgb(255, 0, 255); fill: none; }
circle.green {stroke: rgb(0, 255, 0); fill: none; }
circle.blue {stroke: rgb(0, 0, 255); fill: none; }
circle.black {stroke: rgb(0, 0, 0); fill: none; }
circle.gray {stroke: rgb(204, 204, 204); fill: none; }
circle.brown {stroke: rgb(211.65, 104.55, 30.6); fill: none; }
line.red {stroke: rgb(255, 0, 255); stroke-width: 0.381962; }
line.green {stroke: rgb(0, 255, 0); stroke-width: 0.381962; }
line.blue {stroke: rgb(0, 0, 255); stroke-width: 0.381962; }
line.black {stroke: rgb(0, 0, 0); stroke-width: 0.381962; }
line.gray {stroke: rgb(204, 204, 204); stroke-width: 0.381962; }
line.brown {stroke: rgb(211.65, 104.55, 30.6); stroke-width: 0.381962; }
line {stroke: rgb(0, 0, 0); }
text.red {fill: rgb(255, 0, 255); font-size: 3.055694px; font-weight: bold; font-family: Helvetica; }
text.green {fill: rgb(0, 255, 0); font-size: 3.055694px; font-weight: bold; font-family: Helvetica; }
text.blue {fill: rgb(0, 0, 255); font-size: 3.055694px; font-weight: bold; font-family: Helvetica; }
text.black {fill: rgb(0, 0, 0); font-size: 3.055694px; font-weight: bold; font-family: Helvetica; }
text.gray {fill: rgb(204, 204, 204); font-size: 3.055694px; font-weight: bold; font-family: Helvetica; }
text.brown {fill: rgb(211.65, 104.55, 30.6); font-size: 3.055694px; font-weight: bold; font-family: Helvetica; }
text {fill: rgb(0, 0, 0); font-size: 3.055694px; font-weight: bold; font-family: Helvetica; text-anchor: middle; alignment-baseline: middle; }

.pseudoknot_connection{stroke-linecap: round; stroke-opacity: 0.2; stroke-width: 1.5; }
.pseudoknot_segment1{stroke-linecap: round; stroke-opacity: 0.4; stroke-width: 3.05569; }
.pseudoknot_segment2{stroke-linecap: round; stroke-opacity: 0.4; stroke-width: 3.05569; }
line.numbering-line{stroke: rgb(204, 204, 204); stroke-width: 0.190981; }
line.predicted{stroke: rgb(0, 0, 0); stroke-dasharray: 2; }
polyline{fill: none; stroke-linejoin: round; }
template{visibility: hidden; }
text.numbering-label{fill: rgb(204, 204, 204); }
]]>
</style></g>
<g><title>0 (position.label in template: 0.5')</title><text x="102.22" y="182.14" class="green" >5'</text></g>
<g><title>1 (position.label in template: 1.G)</title><text x="102.22" y="174.58" class="green" >G</text></g>
<g><line x1="104.257" y1="174.274" x2="112.633" y2="174.274" class="black" /></g>
<g><title>2 (position.label in template: 2.G)</title><text x="102.22" y="167.02" class="black" >G</text></g>
<g><line x1="104.257" y1="166.714" x2="112.633" y2="166.714" class="black" /></g>
<g><title>3 (position.label in template: 3.U)</title><text x="102.43" y="159.46" class="green" >T</text></g>
<g><line x1="104.467" y1="159.154" x2="112.833" y2="159.154" class="black" /></g>
<g><title>4 (position.label in template: 4.A)</title><text x="102.63" y="151.9" class="green" >A</text></g>
<g><line x1="104.667" y1="151.594" x2="112.633" y2="151.594" class="black" /></g>
<g><title>5 (position.label in template: 5.A)</title><text x="95.62" y="149.07" class="black" >A</text></g>
<g><title>6 (position.label in template: 6.U)</title><text x="89.52" y="144.34" class="green" >T</text></g>
<g><title>7 (position.label in template: 7.A)</title><text x="85.44" y="138.11" class="black" >A</text></g>
<g><title>8 (position.label in template: 8.G)</title><text x="82.71" y="130.91" class="black" >G</text></g>
<g><title>9 (position.label in template: 9.C)</title><text x="82.78" y="123.36" class="black" >C</text></g>
<g><line x1="83.4762" y1="121.14" x2="86.2438" y2="113.529" class="black" /></g>
<g><title>10 (position.label in template: 10.U)</title><text x="75.72" y="120.66" class="green" >T</text></g>
<g><line x1="76.4757" y1="118.463" x2="79.5343" y2="110.806" class="black" /></g>
<g><text x="73.2641" y="127.082" class="numbering-label sequential" >10</text></g>
<g><line x1="75.0651" y1="122.372" x2="73.8484" y2="125.554" class="numbering-line sequential" /></g>
<g><title>11 (position.label in template: 11.C)</title><text x="68.66" y="117.96" class="black" >C</text></g>
<g><line x1="69.3562" y1="115.74" x2="72.1238" y2="108.129" class="black" /></g>
<g><title>12 (position.label in template: 12.A)</title><text x="61.73" y="120.46" class="black" >A</text></g>
<g><title>13 (position.label in template: 13.G)</title><text x="54.12" y="118.15" class="black" >G</text></g>
<g><title>14 (position.label in template: 14.U)</title><text x="50" y="111.95" class="green" >T</text></g>
<g><title>15 (position.label in template: 15.G)</title><text x="50.09" y="104.39" class="black" >G</text></g>
<g><title>16 (position.label in template: 16.G)</title><text x="54.91" y="98.56" class="black" >G</text></g>
<g><title>17 (position.label in template: 17.U)</title><text x="62.47" y="96.83" class="green" >T</text></g>
<g><title>18 (position.label in template: 18.A)</title><text x="69.59" y="99.9" class="black" >A</text></g>
<g><title>19 (position.label in template: 19.G)</title><text x="72.82" y="106.52" class="black" >G</text></g>
<g><title>20 (position.label in template: 20.A)</title><text x="80.29" y="109.22" class="green" >A</text></g>
<g><text x="82.7459" y="102.798" class="numbering-label sequential" >20</text></g>
<g><line x1="80.9449" y1="107.508" x2="82.1616" y2="104.326" class="numbering-line sequential" /></g>
<g><title>21 (position.label in template: 21.G)</title><text x="86.94" y="111.92" class="black" >G</text></g>
<g><title>22 (position.label in template: 22.A)</title><text x="92.5" y="106.39" class="black" >A</text></g>
<g><title>23 (position.label in template: 23.G)</title><text x="98.61" y="102.56" class="black" >G</text></g>
<g><title>24 (position.label in template: 24.C)</title><text x="106.17" y="100.78" class="black" >C</text></g>
<g><line x1="108.185" y1="100.776" x2="116.055" y2="101.953" class="black" /></g>
<g><title>25 (position.label in template: 25.A)</title><text x="107.47" y="93.3" class="green" >A</text></g>
<g><line x1="109.485" y1="93.2955" x2="117.365" y2="94.4733" class="black" /></g>
<g><title>26 (position.label in template: 26.U)</title><text x="108.37" y="85.82" class="green" >T</text></g>
<g><line x1="110.386" y1="85.8076" x2="118.664" y2="87.0113" class="black" /></g>
<g><title>27 (position.label in template: 27.G)</title><text x="109.26" y="78.34" class="black" >G</text></g>
<g><line x1="111.276" y1="78.3273" x2="119.564" y2="79.5315" class="black" /></g>
<g><title>28 (position.label in template: 28.C)</title><text x="110.57" y="70.87" class="black" >C</text></g>
<g><line x1="112.585" y1="70.8658" x2="120.455" y2="72.0431" class="black" /></g>
<g><title>29 (position.label in template: 29.A)</title><text x="106.78" y="64.45" class="black" >A</text></g>
<g><title>30 (position.label in template: 30.U)</title><text x="107.27" y="56.92" class="green" >T</text></g>
<g><text x="100.985" y="54.1326" class="numbering-label sequential" >30</text></g>
<g><line x1="105.594" y1="56.1767" x2="102.819" y2="54.9457" class="numbering-line sequential" /></g>
<g><title>31 (position.label in template: 31.A)</title><text x="112.59" y="51.35" class="black" >A</text></g>
<g><title>32 (position.label in template: 32.G)</title><text x="119.61" y="50" class="black" >G</text></g>
<g><title>33 (position.label in template: 33.C)</title><text x="126.56" y="53.43" class="black" >C</text></g>
<g><title>34 (position.label in template: 34.A)</title><text x="130.05" y="60.24" class="black" >A</text></g>
<g><title>35 (position.label in template: 35.U)</title><text x="128.35" y="67.65" class="green" >T</text></g>
<g><title>36 (position.label in template: 36.G)</title><text x="122.47" y="72.65" class="black" >G</text></g>
<g><title>37 (position.label in template: 37.C)</title><text x="121.58" y="80.13" class="black" >C</text></g>
<g><title>38 (position.label in template: 38.A)</title><text x="120.68" y="87.61" class="green" >A</text></g>
<g><title>39 (position.label in template: 39.U)</title><text x="119.38" y="95.08" class="green" >T</text></g>
<g><title>40 (position.label in template: 40.G)</title><text x="118.07" y="102.56" class="black" >G</text></g>
<g><title>41 (position.label in template: 41.A)</title><text x="125.01" y="106.39" class="black" >A</text></g>
<g><title>42 (position.label in template: 42.G)</title><text x="129.74" y="111.92" class="black" >G</text></g>
<g><title>43 (position.label in template: 43.G)</title><text x="133.07" y="118.71" class="black" >G</text></g>
<g><title>44 (position.label in template: 44.U)</title><text x="134.52" y="126.16" class="green" >T</text></g>
<g><title>45 (position.label in template: 45.C)</title><text x="133.56" y="133.66" class="black" >C</text></g>
<g><title>46 (position.label in template: 46.C)</title><text x="130.48" y="140.57" class="black" >C</text></g>
<g><line x1="128.998" y1="141.662" x2="122.952" y2="147.367" class="black" /></g>
<g><title>47 (position.label in template: 47.U)</title><text x="135.73" y="146.01" class="green" >T</text></g>
<g><line x1="134.281" y1="147.136" x2="128.579" y2="152.772" class="black" /></g>
<g><title>48 (position.label in template: 48.G)</title><text x="140.77" y="151.45" class="black" >G</text></g>
<g><line x1="139.322" y1="152.577" x2="133.628" y2="158.212" class="black" /></g>
<g><title>49 (position.label in template: 49.G)</title><text x="146.03" y="156.89" class="black" >G</text></g>
<g><line x1="144.581" y1="158.016" x2="138.879" y2="163.652" class="black" /></g>
<g><title>50 (position.label in template: 50.G)</title><text x="151.28" y="162.33" class="black" >G</text></g>
<g><line x1="149.831" y1="163.456" x2="144.129" y2="169.092" class="black" /></g>
<g><text x="154.239" y="156.124" class="numbering-label sequential" >50</text></g>
<g><line x1="152.069" y1="160.675" x2="153.511" y2="157.652" class="numbering-line sequential" /></g>
<g><title>51 (position.label in template: 51.U)</title><text x="159.01" y="163.08" class="green" >T</text></g>
<g><title>52 (position.label in template: 52.U)</title><text x="164.54" y="168.24" class="green" >T</text></g>
<g><title>53 (position.label in template: 53.C)</title><text x="165.83" y="175.68" class="black" >C</text></g>
<g><title>54 (position.label in template: 54.A)</title><text x="162.56" y="182.4" class="black" >A</text></g>
<g><title>55 (position.label in template: 55.A)</title><text x="155.72" y="185.64" class="black" >A</text></g>
<g><title>56 (position.label in template: 56.U)</title><text x="148.12" y="184.08" class="green" >T</text></g>
<g><title>57 (position.label in template: 57.U)</title><text x="143.17" y="178.37" class="green" >T</text></g>
<g><title>58 (position.label in template: 58.C)</title><text x="142.68" y="170.83" class="black" >C</text></g>
<g><title>59 (position.label in template: 59.C)</title><text x="137.43" y="165.39" class="black" >C</text></g>
<g><title>60 (position.label in template: 60.C)</title><text x="132.18" y="159.95" class="black" >C</text></g>
<g><title>61 (position.label in template: 61.A)</title><text x="127.13" y="154.51" class="green" >A</text></g>
<g><title>62 (position.label in template: 62.G)</title><text x="121.47" y="149.07" class="black" >G</text></g>
<g><title>63 (position.label in template: 63.U)</title><text x="114.67" y="151.9" class="green" >T</text></g>
<g><title>64 (position.label in template: 64.A)</title><text x="114.87" y="159.46" class="green" >A</text></g>
<g><title>65 (position.label in template: 65.C)</title><text x="114.67" y="167.02" class="black" >C</text></g>
<g><title>66 (position.label in template: 66.U)</title><text x="114.67" y="174.58" class="green" >T</text></g>
<g><title>67 (position.label in template: 67.C)</title><text x="120.011" y="179.931" class="black" >C</text></g>
<g><title>68 (position.label in template: 68.C)</title><text x="127.571" y="179.931" class="black" >C</text></g>
<g><title>69 (position.label in template: 69.C)</title><text x="135.132" y="179.931" class="black" >C</text></g>
<g><title>70 (position.label in template: 70.A)</title><text x="142.692" y="179.931" class="black" >A</text></g>
<g><title>71 (position.label in template: 71.3')</title><text x="150.253" y="179.931" class="green" >3'</text></g>
<g><line x1="102.22" y1="179.798" x2="102.22" y2="176.312" class="gray" /></g>
<g><line x1="102.22" y1="172.237" x2="102.22" y2="168.752" class="gray" /></g>
<g><line x1="102.277" y1="164.678" x2="102.373" y2="161.191" class="gray" /></g>
<g><line x1="102.484" y1="157.118" x2="102.576" y2="153.631" class="gray" /></g>
<g><line x1="100.741" y1="150.832" x2="97.509" y2="149.527" class="gray" /></g>
<g><line x1="94.0101" y1="147.516" x2="91.1299" y2="145.283" class="gray" /></g>
<g><line x1="88.4039" y1="142.33" x2="86.5561" y2="139.509" class="gray" /></g>
<g><line x1="84.7178" y1="135.9" x2="83.4322" y2="132.509" class="gray" /></g>
<g><line x1="82.7289" y1="128.567" x2="82.7611" y2="125.091" class="gray" /></g>
<g><line x1="80.8773" y1="122.327" x2="77.6227" y2="121.082" class="gray" /></g>
<g><line x1="73.8173" y1="119.627" x2="70.5627" y2="118.382" class="gray" /></g>
<g><line x1="66.7437" y1="118.346" x2="63.6463" y2="119.463" class="gray" /></g>
<g><line x1="59.7807" y1="119.563" x2="56.0693" y2="118.436" class="gray" /></g>
<g><line x1="52.9925" y1="116.148" x2="51.1275" y2="113.341" class="gray" /></g>
<g><line x1="50.0242" y1="109.607" x2="50.0658" y2="106.121" class="gray" /></g>
<g><line x1="51.388" y1="102.514" x2="53.612" y2="99.8245" class="gray" /></g>
<g><line x1="56.8958" y1="97.8" x2="60.4842" y2="96.9789" class="gray" /></g>
<g><line x1="64.3406" y1="97.331" x2="67.7194" y2="98.7878" class="gray" /></g>
<g><line x1="70.4833" y1="101.425" x2="71.9267" y2="104.384" class="gray" /></g>
<g><line x1="74.7358" y1="106.907" x2="78.3742" y2="108.222" class="gray" /></g>
<g><line x1="82.1775" y1="109.681" x2="85.0525" y2="110.848" class="gray" /></g>
<g><line x1="88.3844" y1="110.178" x2="91.0556" y2="107.521" class="gray" /></g>
<g><line x1="94.2261" y1="105.002" x2="96.8839" y2="103.336" class="gray" /></g>
<g><line x1="100.593" y1="101.788" x2="104.187" y2="100.941" class="gray" /></g>
<g><line x1="106.519" y1="98.4674" x2="107.121" y2="95.0015" class="gray" /></g>
<g><line x1="107.713" y1="90.9719" x2="108.127" y2="87.537" class="gray" /></g>
<g><line x1="108.611" y1="83.4916" x2="109.019" y2="80.0573" class="gray" /></g>
<g><line x1="109.612" y1="76.0279" x2="110.218" y2="72.5709" class="gray" /></g>
<g><line x1="109.534" y1="68.8102" x2="107.816" y2="65.8987" class="gray" /></g>
<g><line x1="106.912" y1="62.1116" x2="107.138" y2="58.6473" class="gray" /></g>
<g><line x1="108.677" y1="55.1413" x2="111.183" y2="52.5176" class="gray" /></g>
<g><line x1="114.59" y1="50.6597" x2="117.61" y2="50.0791" class="gray" /></g>
<g><line x1="121.437" y1="50.596" x2="124.733" y2="52.2229" class="gray" /></g>
<g><line x1="127.489" y1="54.9374" x2="129.121" y2="58.1215" class="gray" /></g>
<g><line x1="129.594" y1="61.92" x2="128.806" y2="65.3589" class="gray" /></g>
<g><line x1="126.798" y1="68.6641" x2="124.022" y2="71.0248" class="gray" /></g>
<g><line x1="122.229" y1="74.3673" x2="121.821" y2="77.8016" class="gray" /></g>
<g><line x1="121.337" y1="81.847" x2="120.923" y2="85.2819" class="gray" /></g>
<g><line x1="120.331" y1="89.3114" x2="119.729" y2="92.7675" class="gray" /></g>
<g><line x1="119.029" y1="96.781" x2="118.421" y2="100.248" class="gray" /></g>
<g><line x1="119.854" y1="103.239" x2="123.226" y2="105.1" class="gray" /></g>
<g><line x1="126.334" y1="107.633" x2="128.416" y2="110.066" class="gray" /></g>
<g><line x1="130.637" y1="113.443" x2="132.173" y2="116.575" class="gray" /></g>
<g><line x1="133.459" y1="120.404" x2="134.131" y2="123.855" class="gray" /></g>
<g><line x1="134.261" y1="127.875" x2="133.819" y2="131.334" class="gray" /></g>
<g><line x1="132.731" y1="135.215" x2="131.309" y2="138.404" class="gray" /></g>
<g><line x1="131.895" y1="141.73" x2="134.315" y2="144.239" class="gray" /></g>
<g><line x1="137.114" y1="147.199" x2="139.386" y2="149.65" class="gray" /></g>
<g><line x1="142.186" y1="152.609" x2="144.614" y2="155.12" class="gray" /></g>
<g><line x1="147.445" y1="158.05" x2="149.865" y2="160.559" class="gray" /></g>
<g><line x1="153.308" y1="162.221" x2="156.982" y2="162.578" class="gray" /></g>
<g><line x1="160.499" y1="164.164" x2="163.051" y2="166.545" class="gray" /></g>
<g><line x1="164.888" y1="169.942" x2="165.482" y2="173.367" class="gray" /></g>
<g><line x1="164.939" y1="177.206" x2="163.451" y2="180.263" class="gray" /></g>
<g><line x1="160.719" y1="182.966" x2="157.561" y2="184.462" class="gray" /></g>
<g><line x1="153.724" y1="184.925" x2="150.116" y2="184.184" class="gray" /></g>
<g><line x1="146.786" y1="182.235" x2="144.504" y2="179.604" class="gray" /></g>
<g><line x1="143.038" y1="176.032" x2="142.812" y2="172.557" class="gray" /></g>
<g><line x1="141.265" y1="169.059" x2="138.845" y2="166.55" class="gray" /></g>
<g><line x1="136.015" y1="163.619" x2="133.595" y2="161.11" class="gray" /></g>
<g><line x1="130.794" y1="158.151" x2="128.516" y2="155.697" class="gray" /></g>
<g><line x1="125.661" y1="152.793" x2="122.939" y2="150.176" class="gray" /></g>
<g><line x1="119.589" y1="149.547" x2="116.551" y2="150.812" class="gray" /></g>
<g><line x1="114.724" y1="153.631" x2="114.816" y2="157.118" class="gray" /></g>
<g><line x1="114.816" y1="161.191" x2="114.724" y2="164.678" class="gray" /></g>
<g><line x1="114.67" y1="168.752" x2="114.67" y2="172.237" class="gray" /></g>
<g><line x1="116.109" y1="175.716" x2="118.572" y2="178.184" class="gray" /></g>
<g><line x1="122.048" y1="179.625" x2="125.534" y2="179.625" class="gray" /></g>
<g><line x1="129.609" y1="179.625" x2="133.095" y2="179.625" class="gray" /></g>
<g><line x1="137.169" y1="179.625" x2="140.655" y2="179.625" class="gray" /></g>
<g><line x1="144.729" y1="179.625" x2="148.215" y2="179.625" class="gray" /></g>
</svg>
