<svg
	xmlns="http://www.w3.org/2000/svg"
	width="225.95"
	height="240.601">
<g><style type="text/css" >
<!-- create color definitions -->
<![CDATA[
circle.red {stroke: rgb(255, 0, 255); fill: none; }
circle.green {stroke: rgb(0, 255, 0); fill: none; }
circle.blue {stroke: rgb(0, 0, 255); fill: none; }
circle.black {stroke: rgb(0, 0, 0); fill: none; }
circle.gray {stroke: rgb(204, 204, 204); fill: none; }
circle.brown {stroke: rgb(211.65, 104.55, 30.6); fill: none; }
line.red {stroke: rgb(255, 0, 255); stroke-width: 0.383588; }
line.green {stroke: rgb(0, 255, 0); stroke-width: 0.383588; }
line.blue {stroke: rgb(0, 0, 255); stroke-width: 0.383588; }
line.black {stroke: rgb(0, 0, 0); stroke-width: 0.383588; }
line.gray {stroke: rgb(204, 204, 204); stroke-width: 0.383588; }
line.brown {stroke: rgb(211.65, 104.55, 30.6); stroke-width: 0.383588; }
line {stroke: rgb(0, 0, 0); }
text.red {fill: rgb(255, 0, 255); font-size: 3.068707px; font-weight: bold; font-family: Helvetica; }
text.green {fill: rgb(0, 255, 0); font-size: 3.068707px; font-weight: bold; font-family: Helvetica; }
text.blue {fill: rgb(0, 0, 255); font-size: 3.068707px; font-weight: bold; font-family: Helvetica; }
text.black {fill: rgb(0, 0, 0); font-size: 3.068707px; font-weight: bold; font-family: Helvetica; }
text.gray {fill: rgb(204, 204, 204); font-size: 3.068707px; font-weight: bold; font-family: Helvetica; }
text.brown {fill: rgb(211.65, 104.55, 30.6); font-size: 3.068707px; font-weight: bold; font-family: Helvetica; }
text {fill: rgb(0, 0, 0); font-size: 3.068707px; font-weight: bold; font-family: Helvetica; text-anchor: middle; alignment-baseline: middle; }

.pseudoknot_connection{stroke-linecap: round; stroke-opacity: 0.2; stroke-width: 1.5; }
.pseudoknot_segment1{stroke-linecap: round; stroke-opacity: 0.4; stroke-width: 3.06871; }
.pseudoknot_segment2{stroke-linecap: round; stroke-opacity: 0.4; stroke-width: 3.06871; }
line.numbering-line{stroke: rgb(204, 204, 204); stroke-width: 0.191794; }
line.predicted{stroke: rgb(0, 0, 0); stroke-dasharray: 2; }
polyline{fill: none; stroke-linejoin: round; }
template{visibility: hidden; }
text.numbering-label{fill: rgb(204, 204, 204); }
]]>
</style></g>
<g><title>0 (position.label in template: 0.5')</title><text x="112.304" y="192.289" class="green" >5'</text></g>
<g><title>1 (position.label in template: 1.G)</title><text x="109.56" y="185.26" class="black" >G</text></g>
<g><line x1="111.606" y1="184.953" x2="119.964" y2="184.953" class="black" /></g>
<g><title>2 (position.label in template: 2.A)</title><text x="106.87" y="178.37" class="black" >A</text></g>
<g><title>3 (position.label in template: 3.G)</title><text x="109.56" y="171.47" class="green" >G</text></g>
<g><line x1="111.606" y1="171.163" x2="119.964" y2="171.163" class="black" /></g>
<g><title>4 (position.label in template: 4.G)</title><text x="109.56" y="163.91" class="black" >G</text></g>
<g><line x1="111.606" y1="163.603" x2="119.964" y2="163.603" class="black" /></g>
<g><title>5 (position.label in template: 5.G)</title><text x="109.56" y="156.35" class="black" >G</text></g>
<g><line x1="111.606" y1="156.043" x2="119.964" y2="156.043" class="black" /></g>
<g><title>6 (position.label in template: 6.U)</title><text x="109.77" y="148.79" class="green" >T</text></g>
<g><line x1="111.816" y1="148.483" x2="120.164" y2="148.483" class="black" /></g>
<g><title>7 (position.label in template: 7.G)</title><text x="109.56" y="141.23" class="black" >G</text></g>
<g><line x1="111.606" y1="140.923" x2="119.964" y2="140.923" class="black" /></g>
<g><title>8 (position.label in template: 8.U)</title><text x="102.95" y="137.97" class="green" >T</text></g>
<g><title>9 (position.label in template: 9.A)</title><text x="97.81" y="132.62" class="black" >A</text></g>
<g><title>10 (position.label in template: 10.G)</title><text x="94.13" y="125.8" class="green" >G</text></g>
<g><line x1="94.1651" y1="123.448" x2="94.3049" y2="115.299" class="black" /></g>
<g><text x="90.4989" y="131.673" class="numbering-label sequential" >10</text></g>
<g><line x1="93.1617" y1="127.366" x2="91.4476" y2="130.138" class="numbering-line sequential" /></g>
<g><title>11 (position.label in template: 11.C)</title><text x="86.78" y="125.8" class="black" >C</text></g>
<g><line x1="86.7449" y1="123.448" x2="86.6051" y2="115.299" class="black" /></g>
<g><title>12 (position.label in template: 12.U)</title><text x="79.22" y="125.8" class="green" >T</text></g>
<g><line x1="79.2551" y1="123.448" x2="79.3949" y2="115.299" class="black" /></g>
<g><title>13 (position.label in template: 13.C)</title><text x="74.6" y="131.79" class="black" >C</text></g>
<g><title>14 (position.label in template: 14.A)</title><text x="67.89" y="134.85" class="black" >A</text></g>
<g><title>15 (position.label in template: 15.A)</title><text x="60.35" y="134.24" class="black" >A</text></g>
<g><title>16 (position.label in template: 16.U)</title><text x="53.81" y="130.11" class="green" >T</text></g>
<g><title>17 (position.label in template: 17.U)</title><text x="50.21" y="123.46" class="green" >T</text></g>
<g><title>18 (position.label in template: 18.G)</title><text x="50" y="115.9" class="black" >G</text></g>
<g><title>19 (position.label in template: 19.G)</title><text x="53.6" y="109.26" class="black" >G</text></g>
<g><title>20 (position.label in template: 20.U)</title><text x="60.15" y="105.13" class="green" >T</text></g>
<g><text x="57.9762" y="98.5765" class="numbering-label sequential" >20</text></g>
<g><line x1="59.5703" y1="103.382" x2="58.4852" y2="100.111" class="numbering-line sequential" /></g>
<g><title>21 (position.label in template: 21.A)</title><text x="67.89" y="104.52" class="black" >A</text></g>
<g><title>22 (position.label in template: 22.A)</title><text x="74.8" y="107.58" class="black" >A</text></g>
<g><title>23 (position.label in template: 23.A)</title><text x="79.43" y="113.56" class="green" >A</text></g>
<g><title>24 (position.label in template: 24.G)</title><text x="86.57" y="113.56" class="black" >G</text></g>
<g><title>25 (position.label in template: 25.U)</title><text x="94.34" y="113.56" class="green" >T</text></g>
<g><title>26 (position.label in template: 26.G)</title><text x="97.39" y="106.75" class="black" >G</text></g>
<g><title>27 (position.label in template: 27.C)</title><text x="102.95" y="101.4" class="black" >C</text></g>
<g><line x1="104.875" y1="100.401" x2="112.355" y2="97.7148" class="black" /></g>
<g><title>28 (position.label in template: 28.A)</title><text x="100.64" y="94.27" class="green" >A</text></g>
<g><line x1="102.566" y1="93.272" x2="110.054" y2="90.5842" class="black" /></g>
<g><title>29 (position.label in template: 29.U)</title><text x="97.92" y="87.14" class="green" >T</text></g>
<g><line x1="99.8531" y1="86.1635" x2="107.737" y2="83.4327" class="black" /></g>
<g><title>30 (position.label in template: 30.G)</title><text x="95.19" y="80.01" class="black" >G</text></g>
<g><line x1="97.1233" y1="79.034" x2="105.017" y2="76.3022" class="black" /></g>
<g><text x="88.6786" y="82.3068" class="numbering-label sequential" >30</text></g>
<g><line x1="93.4536" y1="80.6225" x2="90.5198" y2="81.6573" class="numbering-line sequential" /></g>
<g><title>31 (position.label in template: 31.C)</title><text x="92.89" y="72.88" class="black" >C</text></g>
<g><line x1="94.8153" y1="71.8815" x2="102.295" y2="69.1948" class="black" /></g>
<g><title>32 (position.label in template: 32.U)</title><text x="86.36" y="69.07" class="green" >T</text></g>
<g><title>33 (position.label in template: 33.U)</title><text x="83.47" y="62.08" class="green" >T</text></g>
<g><title>34 (position.label in template: 34.A)</title><text x="85.6" y="54.77" class="black" >A</text></g>
<g><title>35 (position.label in template: 35.G)</title><text x="91.14" y="50.11" class="black" >G</text></g>
<g><title>36 (position.label in template: 36.C)</title><text x="98.91" y="50" class="black" >C</text></g>
<g><title>37 (position.label in template: 37.A)</title><text x="105.2" y="54.49" class="black" >A</text></g>
<g><title>38 (position.label in template: 38.C)</title><text x="107.12" y="61.75" class="black" >C</text></g>
<g><title>39 (position.label in template: 39.G)</title><text x="104.22" y="68.81" class="black" >G</text></g>
<g><title>40 (position.label in template: 40.C)</title><text x="106.95" y="75.94" class="black" >C</text></g>
<g><title>41 (position.label in template: 41.A)</title><text x="109.67" y="83.07" class="green" >A</text></g>
<g><title>42 (position.label in template: 42.U)</title><text x="111.98" y="90.2" class="green" >T</text></g>
<g><title>43 (position.label in template: 43.G)</title><text x="114.28" y="97.33" class="black" >G</text></g>
<g><title>44 (position.label in template: 44.A)</title><text x="122.21" y="98.14" class="black" >A</text></g>
<g><title>45 (position.label in template: 45.G)</title><text x="128.62" y="101.4" class="black" >G</text></g>
<g><title>46 (position.label in template: 46.G)</title><text x="133.96" y="106.75" class="black" >G</text></g>
<g><title>47 (position.label in template: 47.U)</title><text x="137.44" y="113.56" class="green" >T</text></g>
<g><title>48 (position.label in template: 48.C)</title><text x="138.24" y="121.08" class="black" >C</text></g>
<g><title>49 (position.label in template: 49.C)</title><text x="136.51" y="128.44" class="black" >C</text></g>
<g><line x1="135.205" y1="129.709" x2="129.925" y2="136.087" class="black" /></g>
<g><title>50 (position.label in template: 50.U)</title><text x="142.39" y="133.18" class="green" >T</text></g>
<g><line x1="141.128" y1="134.483" x2="136.182" y2="140.793" class="black" /></g>
<g><text x="146.771" y="127.843" class="numbering-label sequential" >50</text></g>
<g><line x1="143.558" y1="131.757" x2="145.511" y2="129.378" class="numbering-line sequential" /></g>
<g><title>51 (position.label in template: 51.G)</title><text x="148.07" y="137.93" class="black" >G</text></g>
<g><line x1="146.808" y1="139.233" x2="141.862" y2="145.543" class="black" /></g>
<g><title>52 (position.label in template: 52.G)</title><text x="153.96" y="142.67" class="black" >G</text></g>
<g><line x1="152.698" y1="143.973" x2="147.752" y2="150.283" class="black" /></g>
<g><title>53 (position.label in template: 53.G)</title><text x="159.84" y="147.41" class="black" >G</text></g>
<g><line x1="158.579" y1="148.714" x2="153.641" y2="155.022" class="black" /></g>
<g><title>54 (position.label in template: 54.U)</title><text x="167.61" y="147.22" class="green" >T</text></g>
<g><title>55 (position.label in template: 55.U)</title><text x="173.74" y="151.65" class="green" >T</text></g>
<g><title>56 (position.label in template: 56.C)</title><text x="175.95" y="158.88" class="black" >C</text></g>
<g><title>57 (position.label in template: 57.A)</title><text x="173.54" y="165.97" class="black" >A</text></g>
<g><title>58 (position.label in template: 58.A)</title><text x="167.17" y="170.04" class="black" >A</text></g>
<g><title>59 (position.label in template: 59.U)</title><text x="159.42" y="169.42" class="green" >T</text></g>
<g><title>60 (position.label in template: 60.C)</title><text x="153.8" y="164.37" class="black" >C</text></g>
<g><title>61 (position.label in template: 61.C)</title><text x="152.38" y="156.94" class="black" >C</text></g>
<g><title>62 (position.label in template: 62.C)</title><text x="146.49" y="152.2" class="black" >C</text></g>
<g><title>63 (position.label in template: 63.C)</title><text x="140.6" y="147.46" class="black" >C</text></g>
<g><title>64 (position.label in template: 64.A)</title><text x="134.92" y="142.71" class="green" >A</text></g>
<g><title>65 (position.label in template: 65.G)</title><text x="128.62" y="137.97" class="black" >G</text></g>
<g><title>66 (position.label in template: 66.C)</title><text x="122.01" y="141.23" class="black" >C</text></g>
<g><title>67 (position.label in template: 67.A)</title><text x="122.21" y="148.79" class="green" >A</text></g>
<g><title>68 (position.label in template: 68.C)</title><text x="122.01" y="156.35" class="black" >C</text></g>
<g><title>69 (position.label in template: 69.C)</title><text x="122.01" y="163.91" class="black" >C</text></g>
<g><title>70 (position.label in template: 70.U)</title><text x="122.01" y="171.47" class="green" >T</text></g>
<g><title>71 (position.label in template: 71.C)</title><text x="125.11" y="178.37" class="black" >C</text></g>
<g><title>72 (position.label in template: 72.C)</title><text x="122.01" y="185.26" class="black" >C</text></g>
<g><title>73 (position.label in template: 73.U)</title><text x="127.341" y="190.601" class="green" >T</text></g>
<g><title>74 (position.label in template: 74.3')</title><text x="128.695" y="198.024" class="green" >3'</text></g>
<g><line x1="111.56" y1="190.077" x2="110.304" y2="186.859" class="gray" /></g>
<g><line x1="108.816" y1="183.047" x2="107.614" y2="179.969" class="gray" /></g>
<g><line x1="107.613" y1="176.157" x2="108.817" y2="173.069" class="gray" /></g>
<g><line x1="109.56" y1="169.117" x2="109.56" y2="165.649" class="gray" /></g>
<g><line x1="109.56" y1="161.557" x2="109.56" y2="158.089" class="gray" /></g>
<g><line x1="109.617" y1="153.998" x2="109.713" y2="150.528" class="gray" /></g>
<g><line x1="109.713" y1="146.438" x2="109.617" y2="142.968" class="gray" /></g>
<g><line x1="107.725" y1="140.018" x2="104.785" y2="138.568" class="gray" /></g>
<g><line x1="101.533" y1="136.188" x2="99.2274" y2="133.788" class="gray" /></g>
<g><line x1="96.8385" y1="130.513" x2="95.1015" y2="127.294" class="gray" /></g>
<g><line x1="92.0842" y1="125.493" x2="88.8258" y2="125.493" class="gray" /></g>
<g><line x1="84.7342" y1="125.493" x2="81.2658" y2="125.493" class="gray" /></g>
<g><line x1="77.9706" y1="127.113" x2="75.8494" y2="129.863" class="gray" /></g>
<g><line x1="72.7386" y1="132.332" x2="69.7514" y2="133.694" class="gray" /></g>
<g><line x1="65.8509" y1="134.378" x2="62.3891" y2="134.098" class="gray" /></g>
<g><line x1="58.6202" y1="132.841" x2="55.5398" y2="130.895" class="gray" /></g>
<g><line x1="52.8361" y1="128.004" x2="51.1839" y2="124.952" class="gray" /></g>
<g><line x1="50.1532" y1="121.108" x2="50.0568" y2="117.638" class="gray" /></g>
<g><line x1="50.9751" y1="113.795" x2="52.6249" y2="110.752" class="gray" /></g>
<g><line x1="55.3305" y1="107.862" x2="58.4195" y2="105.914" class="gray" /></g>
<g><line x1="62.1895" y1="104.662" x2="65.8505" y2="104.374" class="gray" /></g>
<g><line x1="69.7606" y1="105.041" x2="72.9294" y2="106.445" class="gray" /></g>
<g><line x1="76.0524" y1="108.891" x2="78.1776" y2="111.636" class="gray" /></g>
<g><line x1="81.4758" y1="113.253" x2="84.5242" y2="113.253" class="gray" /></g>
<g><line x1="88.6158" y1="113.253" x2="92.2942" y2="113.253" class="gray" /></g>
<g><line x1="95.1762" y1="111.386" x2="96.5538" y2="108.31" class="gray" /></g>
<g><line x1="98.8642" y1="105.025" x2="101.476" y2="102.512" class="gray" /></g>
<g><line x1="102.319" y1="99.1469" x2="101.271" y2="95.9093" class="gray" /></g>
<g><line x1="99.9108" y1="92.0517" x2="98.6492" y2="88.7446" class="gray" /></g>
<g><line x1="97.1885" y1="84.9226" x2="95.9215" y2="81.6137" class="gray" /></g>
<g><line x1="94.5619" y1="77.7561" x2="93.5181" y2="74.5201" class="gray" /></g>
<g><line x1="91.123" y1="71.5421" x2="88.127" y2="69.7941" class="gray" /></g>
<g><line x1="85.5783" y1="66.8725" x2="84.2517" y2="63.6637" class="gray" /></g>
<g><line x1="84.0423" y1="59.809" x2="85.0277" y2="56.4273" class="gray" /></g>
<g><line x1="87.1656" y1="53.1462" x2="89.5744" y2="51.12" class="gray" /></g>
<g><line x1="93.1856" y1="49.7742" x2="96.8644" y2="49.7221" class="gray" /></g>
<g><line x1="100.575" y1="50.8817" x2="103.535" y2="52.9945" class="gray" /></g>
<g><line x1="105.723" y1="56.1609" x2="106.597" y2="59.4653" class="gray" /></g>
<g><line x1="106.343" y1="63.3355" x2="104.997" y2="66.6108" class="gray" /></g>
<g><line x1="104.952" y1="70.4137" x2="106.218" y2="73.7226" class="gray" /></g>
<g><line x1="107.679" y1="77.5446" x2="108.941" y2="80.8517" class="gray" /></g>
<g><line x1="110.301" y1="84.7093" x2="111.349" y2="87.9469" class="gray" /></g>
<g><line x1="112.608" y1="91.8401" x2="113.652" y2="95.0761" class="gray" /></g>
<g><line x1="116.315" y1="97.231" x2="120.175" y2="97.6252" class="gray" /></g>
<g><line x1="124.034" y1="98.7605" x2="126.796" y2="100.166" class="gray" /></g>
<g><line x1="130.065" y1="102.541" x2="132.515" y2="104.995" class="gray" /></g>
<g><line x1="134.891" y1="108.265" x2="136.509" y2="111.431" class="gray" /></g>
<g><line x1="137.656" y1="115.287" x2="138.024" y2="118.739" class="gray" /></g>
<g><line x1="137.772" y1="122.765" x2="136.978" y2="126.142" class="gray" /></g>
<g><line x1="138.103" y1="129.417" x2="140.797" y2="131.589" class="gray" /></g>
<g><line x1="143.959" y1="134.186" x2="146.501" y2="136.311" class="gray" /></g>
<g><line x1="149.664" y1="138.906" x2="152.366" y2="141.081" class="gray" /></g>
<g><line x1="155.553" y1="143.647" x2="158.247" y2="145.819" class="gray" /></g>
<g><line x1="161.885" y1="147.053" x2="165.565" y2="146.963" class="gray" /></g>
<g><line x1="169.268" y1="148.111" x2="172.082" y2="150.145" class="gray" /></g>
<g><line x1="174.338" y1="153.3" x2="175.352" y2="156.617" class="gray" /></g>
<g><line x1="175.292" y1="160.51" x2="174.198" y2="163.726" class="gray" /></g>
<g><line x1="171.816" y1="166.765" x2="168.894" y2="168.632" class="gray" /></g>
<g><line x1="165.131" y1="169.57" x2="161.459" y2="169.276" class="gray" /></g>
<g><line x1="157.898" y1="167.746" x2="155.322" y2="165.431" class="gray" /></g>
<g><line x1="153.416" y1="162.054" x2="152.764" y2="158.643" class="gray" /></g>
<g><line x1="150.786" y1="155.351" x2="148.084" y2="153.176" class="gray" /></g>
<g><line x1="144.896" y1="150.611" x2="142.194" y2="148.436" class="gray" /></g>
<g><line x1="139.031" y1="145.841" x2="136.489" y2="143.716" class="gray" /></g>
<g><line x1="133.285" y1="141.173" x2="130.255" y2="138.893" class="gray" /></g>
<g><line x1="126.785" y1="138.568" x2="123.845" y2="140.018" class="gray" /></g>
<g><line x1="122.064" y1="142.968" x2="122.156" y2="146.438" class="gray" /></g>
<g><line x1="122.156" y1="150.528" x2="122.064" y2="153.998" class="gray" /></g>
<g><line x1="122.01" y1="158.089" x2="122.01" y2="161.557" class="gray" /></g>
<g><line x1="122.01" y1="165.649" x2="122.01" y2="169.117" class="gray" /></g>
<g><line x1="122.848" y1="173.029" x2="124.272" y2="176.197" class="gray" /></g>
<g><line x1="124.271" y1="179.929" x2="122.849" y2="183.087" class="gray" /></g>
<g><line x1="123.455" y1="186.401" x2="125.895" y2="188.846" class="gray" /></g>
<g><line x1="127.708" y1="192.306" x2="128.328" y2="195.705" class="gray" /></g>
</svg>
