<svg
	xmlns="http://www.w3.org/2000/svg"
	width="228.23"
	height="241.939">
<g><style type="text/css" >
<!-- create color definitions -->
<![CDATA[
circle.red {stroke: rgb(255, 0, 255); fill: none; }
circle.green {stroke: rgb(0, 255, 0); fill: none; }
circle.blue {stroke: rgb(0, 0, 255); fill: none; }
circle.black {stroke: rgb(0, 0, 0); fill: none; }
circle.gray {stroke: rgb(204, 204, 204); fill: none; }
circle.brown {stroke: rgb(211.65, 104.55, 30.6); fill: none; }
line.red {stroke: rgb(255, 0, 255); stroke-width: 0.384042; }
line.green {stroke: rgb(0, 255, 0); stroke-width: 0.384042; }
line.blue {stroke: rgb(0, 0, 255); stroke-width: 0.384042; }
line.black {stroke: rgb(0, 0, 0); stroke-width: 0.384042; }
line.gray {stroke: rgb(204, 204, 204); stroke-width: 0.384042; }
line.brown {stroke: rgb(211.65, 104.55, 30.6); stroke-width: 0.384042; }
line {stroke: rgb(0, 0, 0); }
text.red {fill: rgb(255, 0, 255); font-size: 3.072334px; font-weight: bold; font-family: Helvetica; }
text.green {fill: rgb(0, 255, 0); font-size: 3.072334px; font-weight: bold; font-family: Helvetica; }
text.blue {fill: rgb(0, 0, 255); font-size: 3.072334px; font-weight: bold; font-family: Helvetica; }
text.black {fill: rgb(0, 0, 0); font-size: 3.072334px; font-weight: bold; font-family: Helvetica; }
text.gray {fill: rgb(204, 204, 204); font-size: 3.072334px; font-weight: bold; font-family: Helvetica; }
text.brown {fill: rgb(211.65, 104.55, 30.6); font-size: 3.072334px; font-weight: bold; font-family: Helvetica; }
text {fill: rgb(0, 0, 0); font-size: 3.072334px; font-weight: bold; font-family: Helvetica; text-anchor: middle; alignment-baseline: middle; }

.pseudoknot_connection{stroke-linecap: round; stroke-opacity: 0.2; stroke-width: 1.5; }
.pseudoknot_segment1{stroke-linecap: round; stroke-opacity: 0.4; stroke-width: 3.07233; }
.pseudoknot_segment2{stroke-linecap: round; stroke-opacity: 0.4; stroke-width: 3.07233; }
line.numbering-line{stroke: rgb(204, 204, 204); stroke-width: 0.192021; }
line.predicted{stroke: rgb(0, 0, 0); stroke-dasharray: 2; }
polyline{fill: none; stroke-linejoin: round; }
template{visibility: hidden; }
text.numbering-label{fill: rgb(204, 204, 204); }
]]>
</style></g>
<g><title>0 (position.label in template: 0.5')</title><text x="111.84" y="194.155" class="green" >5'</text></g>
<g><title>1 (position.label in template: 1.G)</title><text x="111.84" y="186.59" class="black" >G</text></g>
<g><line x1="113.888" y1="186.283" x2="122.242" y2="186.283" class="black" /></g>
<g><title>2 (position.label in template: 2.G)</title><text x="111.84" y="179.03" class="black" >G</text></g>
<g><line x1="113.888" y1="178.723" x2="122.242" y2="178.723" class="black" /></g>
<g><title>3 (position.label in template: 3.C)</title><text x="112.05" y="171.47" class="green" >C</text></g>
<g><line x1="114.098" y1="171.163" x2="122.242" y2="171.163" class="black" /></g>
<g><title>4 (position.label in template: 4.C)</title><text x="112.05" y="163.91" class="black" >C</text></g>
<g><line x1="114.098" y1="163.603" x2="122.032" y2="163.603" class="black" /></g>
<g><title>5 (position.label in template: 5.G)</title><text x="111.84" y="156.35" class="black" >G</text></g>
<g><line x1="113.888" y1="156.043" x2="122.452" y2="156.043" class="black" /></g>
<g><title>6 (position.label in template: 6.G)</title><text x="111.84" y="148.79" class="black" >G</text></g>
<g><line x1="113.888" y1="148.483" x2="122.242" y2="148.483" class="black" /></g>
<g><title>7 (position.label in template: 7.U)</title><text x="112.05" y="141.23" class="green" >T</text></g>
<g><line x1="114.098" y1="140.923" x2="122.242" y2="140.923" class="black" /></g>
<g><title>8 (position.label in template: 8.U)</title><text x="105.23" y="137.97" class="green" >T</text></g>
<g><title>9 (position.label in template: 9.A)</title><text x="100.09" y="132.62" class="black" >A</text></g>
<g><title>10 (position.label in template: 10.G)</title><text x="96.41" y="125.8" class="black" >G</text></g>
<g><line x1="96.4451" y1="123.445" x2="96.5849" y2="115.301" class="black" /></g>
<g><text x="92.7746" y="131.68" class="numbering-label sequential" >10</text></g>
<g><line x1="95.4405" y1="127.368" x2="93.7244" y2="130.143" class="numbering-line sequential" /></g>
<g><title>11 (position.label in template: 11.C)</title><text x="89.06" y="125.8" class="black" >C</text></g>
<g><line x1="89.0249" y1="123.445" x2="88.8851" y2="115.301" class="black" /></g>
<g><title>12 (position.label in template: 12.U)</title><text x="81.5" y="125.8" class="green" >T</text></g>
<g><line x1="81.5351" y1="123.445" x2="81.6749" y2="115.301" class="black" /></g>
<g><title>13 (position.label in template: 13.C)</title><text x="73.94" y="125.8" class="black" >C</text></g>
<g><line x1="73.9049" y1="123.445" x2="73.7651" y2="115.301" class="black" /></g>
<g><title>14 (position.label in template: 14.A)</title><text x="68.81" y="131.16" class="black" >A</text></g>
<g><title>15 (position.label in template: 15.G)</title><text x="60.98" y="132.64" class="black" >G</text></g>
<g><title>16 (position.label in template: 16.U)</title><text x="54.2" y="129.75" class="green" >T</text></g>
<g><title>17 (position.label in template: 17.C)</title><text x="50" y="123.46" class="black" >C</text></g>
<g><title>18 (position.label in template: 18.A)</title><text x="50.21" y="115.9" class="black" >A</text></g>
<g><title>19 (position.label in template: 19.G)</title><text x="53.99" y="109.62" class="black" >G</text></g>
<g><title>20 (position.label in template: 20.U)</title><text x="61.19" y="106.73" class="green" >T</text></g>
<g><text x="60.5259" y="99.8492" class="numbering-label sequential" >20</text></g>
<g><line x1="61.0129" y1="104.895" x2="60.6742" y2="101.385" class="numbering-line sequential" /></g>
<g><title>21 (position.label in template: 21.U)</title><text x="68.6" y="108.21" class="green" >T</text></g>
<g><title>22 (position.label in template: 22.G)</title><text x="73.73" y="113.56" class="black" >G</text></g>
<g><title>23 (position.label in template: 23.A)</title><text x="81.71" y="113.56" class="green" >A</text></g>
<g><title>24 (position.label in template: 24.G)</title><text x="88.85" y="113.56" class="black" >G</text></g>
<g><title>25 (position.label in template: 25.C)</title><text x="96.62" y="113.56" class="black" >C</text></g>
<g><title>26 (position.label in template: 26.A)</title><text x="100.09" y="106.75" class="black" >A</text></g>
<g><title>27 (position.label in template: 27.U)</title><text x="105.23" y="101.4" class="green" >T</text></g>
<g><line x1="107.165" y1="100.422" x2="115.045" y2="97.6932" class="black" /></g>
<g><title>28 (position.label in template: 28.G)</title><text x="102.5" y="94.27" class="green" >G</text></g>
<g><line x1="104.436" y1="93.2929" x2="112.324" y2="90.5626" class="black" /></g>
<g><title>29 (position.label in template: 29.G)</title><text x="99.99" y="87.14" class="black" >G</text></g>
<g><line x1="101.925" y1="86.1624" x2="109.805" y2="83.4332" class="black" /></g>
<g><title>30 (position.label in template: 30.C)</title><text x="97.69" y="80.01" class="black" >C</text></g>
<g><line x1="99.6176" y1="79.0103" x2="107.092" y2="76.3252" class="black" /></g>
<g><text x="91.1709" y="82.3095" class="numbering-label sequential" >30</text></g>
<g><line x1="95.9516" y1="80.6232" x2="93.0143" y2="81.6593" class="numbering-line sequential" /></g>
<g><title>31 (position.label in template: 31.G)</title><text x="94.96" y="72.88" class="black" >G</text></g>
<g><line x1="96.8954" y1="71.9024" x2="104.775" y2="69.1732" class="black" /></g>
<g><title>32 (position.label in template: 32.U)</title><text x="88.64" y="69.07" class="green" >T</text></g>
<g><title>33 (position.label in template: 33.U)</title><text x="85.75" y="62.08" class="green" >T</text></g>
<g><title>34 (position.label in template: 34.A)</title><text x="87.88" y="54.77" class="black" >A</text></g>
<g><title>35 (position.label in template: 35.A)</title><text x="93.83" y="50.11" class="black" >A</text></g>
<g><title>36 (position.label in template: 36.C)</title><text x="101.19" y="50" class="black" >C</text></g>
<g><title>37 (position.label in template: 37.A)</title><text x="107.48" y="54.49" class="black" >A</text></g>
<g><title>38 (position.label in template: 38.A)</title><text x="109.61" y="61.75" class="black" >A</text></g>
<g><title>39 (position.label in template: 39.C)</title><text x="106.71" y="68.81" class="black" >C</text></g>
<g><title>40 (position.label in template: 40.G)</title><text x="109.02" y="75.94" class="black" >G</text></g>
<g><title>41 (position.label in template: 41.C)</title><text x="111.74" y="83.07" class="black" >C</text></g>
<g><title>42 (position.label in template: 42.U)</title><text x="114.26" y="90.2" class="green" >T</text></g>
<g><title>43 (position.label in template: 43.A)</title><text x="116.98" y="97.33" class="green" >A</text></g>
<g><title>44 (position.label in template: 44.A)</title><text x="124.5" y="98.14" class="black" >A</text></g>
<g><title>45 (position.label in template: 45.G)</title><text x="130.9" y="101.4" class="black" >G</text></g>
<g><title>46 (position.label in template: 46.G)</title><text x="136.24" y="106.75" class="black" >G</text></g>
<g><title>47 (position.label in template: 47.U)</title><text x="139.72" y="113.56" class="green" >T</text></g>
<g><title>48 (position.label in template: 48.C)</title><text x="140.53" y="121.08" class="black" >C</text></g>
<g><title>49 (position.label in template: 49.G)</title><text x="138.58" y="128.44" class="green" >G</text></g>
<g><line x1="137.316" y1="129.745" x2="132.374" y2="136.051" class="black" /></g>
<g><title>50 (position.label in template: 50.C)</title><text x="144.67" y="133.18" class="black" >C</text></g>
<g><line x1="143.365" y1="134.451" x2="138.095" y2="140.824" class="black" /></g>
<g><text x="149.009" y="127.799" class="numbering-label sequential" >50</text></g>
<g><line x1="145.827" y1="131.745" x2="147.77" y2="129.335" class="numbering-line sequential" /></g>
<g><title>51 (position.label in template: 51.G)</title><text x="150.35" y="137.93" class="black" >G</text></g>
<g><line x1="149.086" y1="139.235" x2="144.144" y2="145.541" class="black" /></g>
<g><title>52 (position.label in template: 52.G)</title><text x="156.24" y="142.67" class="black" >G</text></g>
<g><line x1="154.976" y1="143.975" x2="150.034" y2="150.281" class="black" /></g>
<g><title>53 (position.label in template: 53.G)</title><text x="162.13" y="147.41" class="black" >G</text></g>
<g><line x1="160.866" y1="148.715" x2="155.924" y2="155.021" class="black" /></g>
<g><title>54 (position.label in template: 54.U)</title><text x="169.89" y="147.22" class="green" >T</text></g>
<g><title>55 (position.label in template: 55.U)</title><text x="176.03" y="151.65" class="green" >T</text></g>
<g><title>56 (position.label in template: 56.C)</title><text x="178.23" y="158.88" class="black" >C</text></g>
<g><title>57 (position.label in template: 57.G)</title><text x="175.41" y="165.97" class="black" >G</text></g>
<g><title>58 (position.label in template: 58.A)</title><text x="169.45" y="170.04" class="black" >A</text></g>
<g><title>59 (position.label in template: 59.U)</title><text x="161.71" y="169.42" class="green" >T</text></g>
<g><title>60 (position.label in template: 60.U)</title><text x="156.08" y="164.37" class="green" >T</text></g>
<g><title>61 (position.label in template: 61.C)</title><text x="154.66" y="156.94" class="black" >C</text></g>
<g><title>62 (position.label in template: 62.C)</title><text x="148.77" y="152.2" class="black" >C</text></g>
<g><title>63 (position.label in template: 63.C)</title><text x="142.88" y="147.46" class="black" >C</text></g>
<g><title>64 (position.label in template: 64.G)</title><text x="136.79" y="142.71" class="black" >G</text></g>
<g><title>65 (position.label in template: 65.U)</title><text x="131.11" y="137.97" class="green" >T</text></g>
<g><title>66 (position.label in template: 66.U)</title><text x="124.29" y="141.23" class="green" >T</text></g>
<g><title>67 (position.label in template: 67.C)</title><text x="124.29" y="148.79" class="black" >C</text></g>
<g><title>68 (position.label in template: 68.A)</title><text x="124.5" y="156.35" class="black" >A</text></g>
<g><title>69 (position.label in template: 69.G)</title><text x="124.08" y="163.91" class="black" >G</text></g>
<g><title>70 (position.label in template: 70.U)</title><text x="124.29" y="171.47" class="green" >T</text></g>
<g><title>71 (position.label in template: 71.C)</title><text x="124.29" y="179.03" class="black" >C</text></g>
<g><title>72 (position.label in template: 72.C)</title><text x="124.29" y="186.59" class="black" >C</text></g>
<g><title>73 (position.label in template: 73.C)</title><text x="129.639" y="191.939" class="black" >C</text></g>
<g><title>74 (position.label in template: 74.3')</title><text x="124.403" y="197.399" class="green" >3'</text></g>
<g><line x1="111.84" y1="191.799" x2="111.84" y2="188.331" class="gray" /></g>
<g><line x1="111.84" y1="184.235" x2="111.84" y2="180.771" class="gray" /></g>
<g><line x1="111.897" y1="176.675" x2="111.993" y2="173.21" class="gray" /></g>
<g><line x1="112.05" y1="169.115" x2="112.05" y2="165.651" class="gray" /></g>
<g><line x1="111.993" y1="161.555" x2="111.897" y2="158.09" class="gray" /></g>
<g><line x1="111.84" y1="153.995" x2="111.84" y2="150.531" class="gray" /></g>
<g><line x1="111.897" y1="146.435" x2="111.993" y2="142.97" class="gray" /></g>
<g><line x1="110.202" y1="140.039" x2="107.078" y2="138.546" class="gray" /></g>
<g><line x1="103.811" y1="136.186" x2="101.509" y2="133.79" class="gray" /></g>
<g><line x1="99.1174" y1="130.51" x2="97.3826" y2="127.295" class="gray" /></g>
<g><line x1="94.3618" y1="125.493" x2="91.1082" y2="125.493" class="gray" /></g>
<g><line x1="87.0118" y1="125.493" x2="83.5482" y2="125.493" class="gray" /></g>
<g><line x1="79.4518" y1="125.493" x2="75.9882" y2="125.493" class="gray" /></g>
<g><line x1="72.5238" y1="126.972" x2="70.2262" y2="129.373" class="gray" /></g>
<g><line x1="66.7974" y1="131.233" x2="62.9926" y2="131.952" class="gray" /></g>
<g><line x1="59.0958" y1="131.53" x2="56.0842" y2="130.246" class="gray" /></g>
<g><line x1="53.0626" y1="127.739" x2="51.1374" y2="124.856" class="gray" /></g>
<g><line x1="50.0569" y1="121.105" x2="50.1531" y2="117.64" class="gray" /></g>
<g><line x1="51.2663" y1="113.838" x2="52.9337" y2="111.068" class="gray" /></g>
<g><line x1="55.8908" y1="108.55" x2="59.2892" y2="107.186" class="gray" /></g>
<g><line x1="63.1986" y1="106.824" x2="66.5914" y2="107.502" class="gray" /></g>
<g><line x1="70.0176" y1="109.381" x2="72.3124" y2="111.774" class="gray" /></g>
<g><line x1="75.7782" y1="113.253" x2="79.6618" y2="113.253" class="gray" /></g>
<g><line x1="83.7582" y1="113.253" x2="86.8018" y2="113.253" class="gray" /></g>
<g><line x1="90.8982" y1="113.253" x2="94.5718" y2="113.253" class="gray" /></g>
<g><line x1="97.5499" y1="111.428" x2="99.1601" y2="108.268" class="gray" /></g>
<g><line x1="101.509" y1="104.966" x2="103.811" y2="102.57" class="gray" /></g>
<g><line x1="104.498" y1="99.18" x2="103.232" y2="95.8756" class="gray" /></g>
<g><line x1="101.82" y1="92.0308" x2="100.67" y2="88.7648" class="gray" /></g>
<g><line x1="99.3612" y1="84.8835" x2="98.3188" y2="81.6521" class="gray" /></g>
<g><line x1="96.9576" y1="77.79" x2="95.6924" y2="74.4856" class="gray" /></g>
<g><line x1="93.2059" y1="71.5153" x2="90.3941" y2="69.8202" class="gray" /></g>
<g><line x1="87.8574" y1="66.8699" x2="86.5326" y2="63.6656" class="gray" /></g>
<g><line x1="86.323" y1="59.8063" x2="87.307" y2="56.4292" class="gray" /></g>
<g><line x1="89.4925" y1="53.1998" x2="92.2175" y2="51.0657" class="gray" /></g>
<g><line x1="95.878" y1="49.7722" x2="99.142" y2="49.7234" class="gray" /></g>
<g><line x1="102.857" y1="50.8828" x2="105.813" y2="52.9928" class="gray" /></g>
<g><line x1="108.057" y1="56.1481" x2="109.033" y2="59.4774" class="gray" /></g>
<g><line x1="108.832" y1="63.3374" x2="107.488" y2="66.6082" class="gray" /></g>
<g><line x1="107.341" y1="70.4513" x2="108.389" y2="73.6843" class="gray" /></g>
<g><line x1="109.75" y1="77.5465" x2="111.01" y2="80.8491" class="gray" /></g>
<g><line x1="112.423" y1="84.6939" x2="113.577" y2="87.9616" class="gray" /></g>
<g><line x1="114.99" y1="91.8065" x2="116.25" y2="95.1091" class="gray" /></g>
<g><line x1="119.016" y1="97.2421" x2="122.464" y2="97.6134" class="gray" /></g>
<g><line x1="126.325" y1="98.7624" x2="129.075" y2="100.163" class="gray" /></g>
<g><line x1="132.347" y1="102.542" x2="134.793" y2="104.993" class="gray" /></g>
<g><line x1="137.172" y1="108.267" x2="138.788" y2="111.429" class="gray" /></g>
<g><line x1="139.939" y1="115.289" x2="140.311" y2="118.736" class="gray" /></g>
<g><line x1="140.005" y1="122.753" x2="139.105" y2="126.153" class="gray" /></g>
<g><line x1="140.196" y1="129.391" x2="143.054" y2="131.615" class="gray" /></g>
<g><line x1="146.241" y1="134.187" x2="148.779" y2="136.309" class="gray" /></g>
<g><line x1="151.946" y1="138.907" x2="154.644" y2="141.079" class="gray" /></g>
<g><line x1="157.836" y1="143.647" x2="160.534" y2="145.819" class="gray" /></g>
<g><line x1="164.178" y1="147.053" x2="167.842" y2="146.963" class="gray" /></g>
<g><line x1="171.551" y1="148.111" x2="174.369" y2="150.144" class="gray" /></g>
<g><line x1="176.626" y1="153.302" x2="177.634" y2="156.613" class="gray" /></g>
<g><line x1="177.473" y1="160.476" x2="176.167" y2="163.76" class="gray" /></g>
<g><line x1="173.719" y1="166.818" x2="171.141" y2="168.578" class="gray" /></g>
<g><line x1="167.408" y1="169.569" x2="163.752" y2="169.276" class="gray" /></g>
<g><line x1="160.185" y1="167.745" x2="157.605" y2="165.43" class="gray" /></g>
<g><line x1="155.696" y1="162.051" x2="155.044" y2="158.645" class="gray" /></g>
<g><line x1="153.064" y1="155.349" x2="150.366" y2="153.177" class="gray" /></g>
<g><line x1="147.174" y1="150.609" x2="144.476" y2="148.437" class="gray" /></g>
<g><line x1="141.265" y1="145.893" x2="138.405" y2="143.662" class="gray" /></g>
<g><line x1="135.217" y1="141.09" x2="132.683" y2="138.975" class="gray" /></g>
<g><line x1="129.262" y1="138.546" x2="126.138" y2="140.039" class="gray" /></g>
<g><line x1="124.29" y1="142.971" x2="124.29" y2="146.435" class="gray" /></g>
<g><line x1="124.347" y1="150.53" x2="124.443" y2="153.995" class="gray" /></g>
<g><line x1="124.386" y1="158.088" x2="124.194" y2="161.558" class="gray" /></g>
<g><line x1="124.137" y1="165.65" x2="124.233" y2="169.115" class="gray" /></g>
<g><line x1="124.29" y1="173.211" x2="124.29" y2="176.675" class="gray" /></g>
<g><line x1="124.29" y1="180.771" x2="124.29" y2="184.235" class="gray" /></g>
<g><line x1="125.738" y1="187.731" x2="128.191" y2="190.183" class="gray" /></g>
<g><line x1="128.221" y1="193.11" x2="125.821" y2="195.613" class="gray" /></g>
</svg>
