<svg
	xmlns="http://www.w3.org/2000/svg"
	width="249.73"
	height="236.242">
<g><style type="text/css" >
<!-- create color definitions -->
<![CDATA[
circle.red {stroke: rgb(255, 0, 255); fill: none; }
circle.green {stroke: rgb(0, 255, 0); fill: none; }
circle.blue {stroke: rgb(0, 0, 255); fill: none; }
circle.black {stroke: rgb(0, 0, 0); fill: none; }
circle.gray {stroke: rgb(204, 204, 204); fill: none; }
circle.brown {stroke: rgb(211.65, 104.55, 30.6); fill: none; }
line.red {stroke: rgb(255, 0, 255); stroke-width: 0.381281; }
line.green {stroke: rgb(0, 255, 0); stroke-width: 0.381281; }
line.blue {stroke: rgb(0, 0, 255); stroke-width: 0.381281; }
line.black {stroke: rgb(0, 0, 0); stroke-width: 0.381281; }
line.gray {stroke: rgb(204, 204, 204); stroke-width: 0.381281; }
line.brown {stroke: rgb(211.65, 104.55, 30.6); stroke-width: 0.381281; }
line {stroke: rgb(0, 0, 0); }
text.red {fill: rgb(255, 0, 255); font-size: 3.050249px; font-weight: bold; font-family: Helvetica; }
text.green {fill: rgb(0, 255, 0); font-size: 3.050249px; font-weight: bold; font-family: Helvetica; }
text.blue {fill: rgb(0, 0, 255); font-size: 3.050249px; font-weight: bold; font-family: Helvetica; }
text.black {fill: rgb(0, 0, 0); font-size: 3.050249px; font-weight: bold; font-family: Helvetica; }
text.gray {fill: rgb(204, 204, 204); font-size: 3.050249px; font-weight: bold; font-family: Helvetica; }
text.brown {fill: rgb(211.65, 104.55, 30.6); font-size: 3.050249px; font-weight: bold; font-family: Helvetica; }
text {fill: rgb(0, 0, 0); font-size: 3.050249px; font-weight: bold; font-family: Helvetica; text-anchor: middle; alignment-baseline: middle; }

.pseudoknot_connection{stroke-linecap: round; stroke-opacity: 0.2; stroke-width: 1.5; }
.pseudoknot_segment1{stroke-linecap: round; stroke-opacity: 0.4; stroke-width: 3.05025; }
.pseudoknot_segment2{stroke-linecap: round; stroke-opacity: 0.4; stroke-width: 3.05025; }
line.numbering-line{stroke: rgb(204, 204, 204); stroke-width: 0.190641; }
line.predicted{stroke: rgb(0, 0, 0); stroke-dasharray: 2; }
polyline{fill: none; stroke-linejoin: round; }
template{visibility: hidden; }
text.numbering-label{fill: rgb(204, 204, 204); }
]]>
</style></g>
<g><title>0 (position.label in template: 0.5')</title><text x="112.011" y="188.556" class="green" >5'</text></g>
<g><title>1 (position.label in template: 1.G)</title><text x="112.22" y="181.02" class="black" >G</text></g>
<g><line x1="114.253" y1="180.715" x2="122.637" y2="180.715" class="black" /></g>
<g><title>2 (position.label in template: 2.U)</title><text x="112.43" y="173.46" class="green" >T</text></g>
<g><line x1="114.463" y1="173.155" x2="122.847" y2="173.155" class="black" /></g>
<g><title>3 (position.label in template: 3.U)</title><text x="112.43" y="165.9" class="green" >T</text></g>
<g><line x1="114.463" y1="165.595" x2="122.847" y2="165.595" class="black" /></g>
<g><title>4 (position.label in template: 4.U)</title><text x="109.33" y="159" class="green" >T</text></g>
<g><title>5 (position.label in template: 5.A)</title><text x="112.64" y="152.11" class="green" >A</text></g>
<g><line x1="114.673" y1="151.805" x2="122.637" y2="151.805" class="black" /></g>
<g><title>6 (position.label in template: 6.G)</title><text x="112.22" y="144.55" class="black" >G</text></g>
<g><line x1="114.253" y1="144.245" x2="122.637" y2="144.245" class="black" /></g>
<g><title>7 (position.label in template: 7.A)</title><text x="112.64" y="136.99" class="green" >A</text></g>
<g><line x1="114.673" y1="136.685" x2="122.637" y2="136.685" class="black" /></g>
<g><title>8 (position.label in template: 8.U)</title><text x="105.44" y="134.11" class="green" >T</text></g>
<g><title>9 (position.label in template: 9.G)</title><text x="99.39" y="129.31" class="black" >G</text></g>
<g><title>10 (position.label in template: 10.G)</title><text x="95.21" y="123.01" class="green" >G</text></g>
<g><line x1="94.8501" y1="120.704" x2="93.4099" y2="112.696" class="black" /></g>
<g><text x="92.5286" y="129.328" class="numbering-label sequential" >10</text></g>
<g><line x1="94.495" y1="124.695" x2="93.1759" y2="127.802" class="numbering-line sequential" /></g>
<g><title>11 (position.label in template: 11.C)</title><text x="88.01" y="124.48" class="black" >C</text></g>
<g><line x1="87.5813" y1="122.187" x2="85.8487" y2="114.153" class="black" /></g>
<g><title>12 (position.label in template: 12.C)</title><text x="80.59" y="125.95" class="black" >C</text></g>
<g><line x1="80.1613" y1="123.657" x2="78.4287" y2="115.623" class="black" /></g>
<g><title>13 (position.label in template: 13.G)</title><text x="77.01" y="132.71" class="black" >G</text></g>
<g><title>14 (position.label in template: 14.A)</title><text x="71.23" y="137.05" class="black" >A</text></g>
<g><title>15 (position.label in template: 15.G)</title><text x="63.31" y="137.92" class="black" >G</text></g>
<g><title>16 (position.label in template: 16.U)</title><text x="56.5" y="135.1" class="green" >T</text></g>
<g><title>17 (position.label in template: 17.U)</title><text x="51.68" y="129.28" class="green" >T</text></g>
<g><title>18 (position.label in template: 18.G)</title><text x="50" y="121.86" class="black" >G</text></g>
<g><title>19 (position.label in template: 19.G)</title><text x="52.24" y="114.64" class="black" >G</text></g>
<g><title>20 (position.label in template: 20.U)</title><text x="57.87" y="109.37" class="green" >T</text></g>
<g><text x="54.4794" y="103.403" class="numbering-label sequential" >20</text></g>
<g><line x1="56.9658" y1="107.779" x2="55.346" y2="104.928" class="numbering-line sequential" /></g>
<g><title>21 (position.label in template: 21.C)</title><text x="65.14" y="107.31" class="black" >C</text></g>
<g><title>22 (position.label in template: 22.A)</title><text x="72.73" y="108.97" class="black" >A</text></g>
<g><title>23 (position.label in template: 23.G)</title><text x="78" y="113.94" class="black" >G</text></g>
<g><title>24 (position.label in template: 24.G)</title><text x="85.42" y="112.47" class="black" >G</text></g>
<g><title>25 (position.label in template: 25.U)</title><text x="93.05" y="111" class="green" >T</text></g>
<g><title>26 (position.label in template: 26.G)</title><text x="94.3" y="103.59" class="black" >G</text></g>
<g><title>27 (position.label in template: 27.C)</title><text x="98.09" y="96.93" class="black" >C</text></g>
<g><line x1="99.6471" y1="95.317" x2="105.783" y2="90.1629" class="black" /></g>
<g><title>28 (position.label in template: 28.C)</title><text x="93.29" y="91.09" class="black" >C</text></g>
<g><line x1="94.8471" y1="89.477" x2="100.983" y2="84.3229" class="black" /></g>
<g><title>29 (position.label in template: 29.A)</title><text x="88.7" y="85.24" class="green" >A</text></g>
<g><line x1="90.2571" y1="83.627" x2="96.3929" y2="78.4729" class="black" /></g>
<g><title>30 (position.label in template: 30.G)</title><text x="83.48" y="79.4" class="black" >G</text></g>
<g><line x1="85.0652" y1="77.8213" x2="91.5648" y2="72.5987" class="black" /></g>
<g><text x="78.178" y="83.7578" class="numbering-label sequential" >30</text></g>
<g><line x1="82.0661" y1="80.5621" x2="80.0336" y2="82.2327" class="numbering-line sequential" /></g>
<g><title>31 (position.label in template: 31.A)</title><text x="79.1" y="73.56" class="green" >A</text></g>
<g><line x1="80.6571" y1="71.947" x2="86.7929" y2="66.7929" class="black" /></g>
<g><title>32 (position.label in template: 32.U)</title><text x="71.45" y="72.21" class="green" >T</text></g>
<g><title>33 (position.label in template: 33.U)</title><text x="66.35" y="66.63" class="green" >T</text></g>
<g><title>34 (position.label in template: 34.A)</title><text x="65.87" y="59.1" class="black" >A</text></g>
<g><title>35 (position.label in template: 35.A)</title><text x="69.87" y="52.69" class="black" >A</text></g>
<g><title>36 (position.label in template: 36.G)</title><text x="76.52" y="50" class="black" >G</text></g>
<g><title>37 (position.label in template: 37.G)</title><text x="83.77" y="52.14" class="black" >G</text></g>
<g><title>38 (position.label in template: 38.U)</title><text x="88.46" y="58.23" class="green" >T</text></g>
<g><title>39 (position.label in template: 39.U)</title><text x="88.35" y="65.79" class="green" >T</text></g>
<g><title>40 (position.label in template: 40.C)</title><text x="93.15" y="71.63" class="black" >C</text></g>
<g><title>41 (position.label in template: 41.U)</title><text x="97.95" y="77.47" class="green" >T</text></g>
<g><title>42 (position.label in template: 42.G)</title><text x="102.54" y="83.32" class="black" >G</text></g>
<g><title>43 (position.label in template: 43.G)</title><text x="107.34" y="89.16" class="black" >G</text></g>
<g><title>44 (position.label in template: 44.U)</title><text x="114.77" y="86.94" class="green" >T</text></g>
<g><title>45 (position.label in template: 45.C)</title><text x="122.33" y="86.94" class="black" >C</text></g>
<g><line x1="124.205" y1="87.4215" x2="131.565" y2="90.5084" class="black" /></g>
<g><title>46 (position.label in template: 46.C)</title><text x="125.21" y="79.95" class="black" >C</text></g>
<g><line x1="127.085" y1="80.4315" x2="134.445" y2="83.5184" class="black" /></g>
<g><title>47 (position.label in template: 47.A)</title><text x="126.17" y="72.43" class="black" >A</text></g>
<g><title>48 (position.label in template: 48.A)</title><text x="132.65" y="68.54" class="black" >A</text></g>
<g><title>49 (position.label in template: 49.A)</title><text x="139.64" y="71.42" class="black" >A</text></g>
<g><title>50 (position.label in template: 50.A)</title><text x="141.5" y="78.74" class="black" >A</text></g>
<g><text x="148.155" y="80.4152" class="numbering-label sequential" >50</text></g>
<g><line x1="143.275" y1="79.1867" x2="146.325" y2="79.9546" class="numbering-line sequential" /></g>
<g><title>51 (position.label in template: 51.G)</title><text x="136.32" y="84.61" class="black" >G</text></g>
<g><title>52 (position.label in template: 52.G)</title><text x="133.44" y="91.6" class="black" >G</text></g>
<g><title>53 (position.label in template: 53.G)</title><text x="138.81" y="96.93" class="black" >G</text></g>
<g><title>54 (position.label in template: 54.C)</title><text x="142.59" y="103.59" class="black" >C</text></g>
<g><title>55 (position.label in template: 55.U)</title><text x="144.06" y="111" class="green" >T</text></g>
<g><title>56 (position.label in template: 56.U)</title><text x="143.29" y="118.53" class="green" >T</text></g>
<g><line x1="142.355" y1="120.031" x2="138.645" y2="127.199" class="black" /></g>
<g><title>57 (position.label in template: 57.G)</title><text x="149.75" y="122.1" class="black" >G</text></g>
<g><line x1="148.815" y1="123.601" x2="145.105" y2="130.769" class="black" /></g>
<g><title>58 (position.label in template: 58.G)</title><text x="156.41" y="125.67" class="black" >G</text></g>
<g><line x1="155.476" y1="127.171" x2="151.764" y2="134.349" class="black" /></g>
<g><title>59 (position.label in template: 59.G)</title><text x="163.07" y="129.25" class="black" >G</text></g>
<g><line x1="162.135" y1="130.751" x2="158.425" y2="137.919" class="black" /></g>
<g><title>60 (position.label in template: 60.U)</title><text x="169.48" y="124.92" class="green" >T</text></g>
<g><title>61 (position.label in template: 61.U)</title><text x="176.8" y="123.03" class="green" >T</text></g>
<g><title>62 (position.label in template: 62.C)</title><text x="184.32" y="123.81" class="black" >C</text></g>
<g><title>63 (position.label in template: 63.A)</title><text x="191.3" y="127.17" class="black" >A</text></g>
<g><title>64 (position.label in template: 64.A)</title><text x="196.48" y="132.68" class="black" >A</text></g>
<g><title>65 (position.label in template: 65.A)</title><text x="199.41" y="139.64" class="black" >A</text></g>
<g><title>66 (position.label in template: 66.A)</title><text x="199.73" y="147.2" class="black" >A</text></g>
<g><title>67 (position.label in template: 67.C)</title><text x="197.18" y="154.39" class="black" >C</text></g>
<g><title>68 (position.label in template: 68.C)</title><text x="192.49" y="160.31" class="black" >C</text></g>
<g><title>69 (position.label in template: 69.U)</title><text x="186.02" y="164.22" class="green" >T</text></g>
<g><title>70 (position.label in template: 70.C)</title><text x="178.59" y="165.63" class="black" >C</text></g>
<g><title>71 (position.label in template: 71.A)</title><text x="171.34" y="164.36" class="black" >A</text></g>
<g><title>72 (position.label in template: 72.A)</title><text x="164.8" y="160.57" class="black" >A</text></g>
<g><title>73 (position.label in template: 73.A)</title><text x="159.99" y="154.74" class="black" >A</text></g>
<g><title>74 (position.label in template: 74.U)</title><text x="157.31" y="147.59" class="green" >T</text></g>
<g><title>75 (position.label in template: 75.C)</title><text x="157.49" y="140.03" class="black" >C</text></g>
<g><title>76 (position.label in template: 76.C)</title><text x="150.83" y="136.46" class="black" >C</text></g>
<g><title>77 (position.label in template: 77.C)</title><text x="144.17" y="132.88" class="black" >C</text></g>
<g><title>78 (position.label in template: 78.A)</title><text x="137.71" y="129.31" class="green" >A</text></g>
<g><title>79 (position.label in template: 79.C)</title><text x="131.66" y="134.11" class="black" >C</text></g>
<g><title>80 (position.label in template: 80.U)</title><text x="124.67" y="136.99" class="green" >T</text></g>
<g><title>81 (position.label in template: 81.C)</title><text x="124.67" y="144.55" class="black" >C</text></g>
<g><title>82 (position.label in template: 82.U)</title><text x="124.67" y="152.11" class="green" >T</text></g>
<g><title>83 (position.label in template: 83.C)</title><text x="127.77" y="159" class="black" >C</text></g>
<g><title>84 (position.label in template: 84.A)</title><text x="124.88" y="165.9" class="green" >A</text></g>
<g><title>85 (position.label in template: 85.A)</title><text x="124.88" y="173.46" class="green" >A</text></g>
<g><title>86 (position.label in template: 86.C)</title><text x="124.67" y="181.02" class="black" >C</text></g>
<g><title>87 (position.label in template: 87.A)</title><text x="130.107" y="186.242" class="black" >A</text></g>
<g><title>88 (position.label in template: 88.3')</title><text x="130.752" y="193.754" class="green" >3'</text></g>
<g><line x1="112.067" y1="186.219" x2="112.164" y2="182.748" class="gray" /></g>
<g><line x1="112.276" y1="178.682" x2="112.374" y2="175.188" class="gray" /></g>
<g><line x1="112.43" y1="171.121" x2="112.43" y2="167.628" class="gray" /></g>
<g><line x1="111.597" y1="163.74" x2="110.163" y2="160.55" class="gray" /></g>
<g><line x1="110.211" y1="156.862" x2="111.759" y2="153.638" class="gray" /></g>
<g><line x1="112.527" y1="149.775" x2="112.333" y2="146.275" class="gray" /></g>
<g><line x1="112.333" y1="142.215" x2="112.527" y2="138.715" class="gray" /></g>
<g><line x1="110.752" y1="135.93" x2="107.328" y2="134.56" class="gray" /></g>
<g><line x1="103.847" y1="132.541" x2="100.983" y2="130.269" class="gray" /></g>
<g><line x1="98.2657" y1="127.311" x2="96.3343" y2="124.399" class="gray" /></g>
<g><line x1="93.2176" y1="123.112" x2="90.0024" y2="123.768" class="gray" /></g>
<g><line x1="86.0153" y1="124.57" x2="82.5847" y2="125.25" class="gray" /></g>
<g><line x1="79.6383" y1="127.442" x2="77.9617" y2="130.608" class="gray" /></g>
<g><line x1="75.3839" y1="133.626" x2="72.8561" y2="135.524" class="gray" /></g>
<g><line x1="69.2087" y1="136.967" x2="65.3313" y2="137.393" class="gray" /></g>
<g><line x1="61.4312" y1="136.837" x2="58.3788" y2="135.573" class="gray" /></g>
<g><line x1="55.203" y1="133.229" x2="52.977" y2="130.541" class="gray" /></g>
<g><line x1="51.231" y1="126.992" x2="50.449" y2="123.538" class="gray" /></g>
<g><line x1="50.6026" y1="119.613" x2="51.6374" y2="116.277" class="gray" /></g>
<g><line x1="53.7246" y1="112.945" x2="56.3854" y2="110.455" class="gray" /></g>
<g><line x1="59.8265" y1="108.511" x2="63.1835" y2="107.559" class="gray" /></g>
<g><line x1="67.1265" y1="107.439" x2="70.7435" y2="108.231" class="gray" /></g>
<g><line x1="74.2094" y1="110.06" x2="76.5206" y2="112.24" class="gray" /></g>
<g><line x1="79.9947" y1="113.24" x2="83.4253" y2="112.56" class="gray" /></g>
<g><line x1="87.4168" y1="111.78" x2="91.0532" y2="111.08" class="gray" /></g>
<g><line x1="93.3883" y1="108.69" x2="93.9617" y2="105.29" class="gray" /></g>
<g><line x1="95.3058" y1="101.518" x2="97.0842" y2="98.3923" class="gray" /></g>
<g><line x1="96.7988" y1="95.054" x2="94.5812" y2="92.3559" class="gray" /></g>
<g><line x1="92.0347" y1="89.1851" x2="89.9553" y2="86.5348" class="gray" /></g>
<g><line x1="87.3448" y1="83.4188" x2="84.8352" y2="80.6111" class="gray" /></g>
<g><line x1="82.2599" y1="77.4682" x2="80.3201" y2="74.8818" class="gray" /></g>
<g><line x1="77.0974" y1="72.9016" x2="73.4526" y2="72.2584" class="gray" /></g>
<g><line x1="70.0781" y1="70.404" x2="67.7219" y2="67.826" class="gray" /></g>
<g><line x1="66.2206" y1="64.2956" x2="65.9994" y2="60.8244" class="gray" /></g>
<g><line x1="66.9465" y1="57.0698" x2="68.7935" y2="54.1101" class="gray" /></g>
<g><line x1="71.7551" y1="51.6224" x2="74.6349" y2="50.4575" class="gray" /></g>
<g><line x1="78.4703" y1="50.2707" x2="81.8197" y2="51.2593" class="gray" /></g>
<g><line x1="85.0107" y1="53.4461" x2="87.2193" y2="56.3139" class="gray" /></g>
<g><line x1="88.4304" y1="59.9583" x2="88.3796" y2="63.4517" class="gray" /></g>
<g><line x1="89.6412" y1="67.0559" x2="91.8588" y2="69.754" class="gray" /></g>
<g><line x1="94.4412" y1="72.8959" x2="96.6588" y2="75.594" class="gray" /></g>
<g><line x1="99.2053" y1="78.7648" x2="101.285" y2="81.4151" class="gray" /></g>
<g><line x1="103.831" y1="84.5859" x2="106.049" y2="87.284" class="gray" /></g>
<g><line x1="109.288" y1="88.2728" x2="112.822" y2="87.2171" class="gray" /></g>
<g><line x1="116.803" y1="86.635" x2="120.297" y2="86.635" class="gray" /></g>
<g><line x1="123.105" y1="84.7548" x2="124.435" y2="81.5251" class="gray" /></g>
<g><line x1="125.468" y1="77.6278" x2="125.912" y2="74.1421" class="gray" /></g>
<g><line x1="127.913" y1="71.0784" x2="130.907" y2="69.2816" class="gray" /></g>
<g><line x1="134.53" y1="69.0096" x2="137.76" y2="70.3403" class="gray" /></g>
<g><line x1="140.141" y1="73.0858" x2="140.999" y2="76.4641" class="gray" /></g>
<g><line x1="140.155" y1="79.9597" x2="137.665" y2="82.7803" class="gray" /></g>
<g><line x1="135.545" y1="86.1851" x2="134.215" y2="89.4148" class="gray" /></g>
<g><line x1="134.883" y1="92.7275" x2="137.367" y2="95.1925" class="gray" /></g>
<g><line x1="139.814" y1="98.3935" x2="141.586" y2="101.516" class="gray" /></g>
<g><line x1="142.986" y1="105.28" x2="143.664" y2="108.7" class="gray" /></g>
<g><line x1="143.853" y1="112.718" x2="143.497" y2="116.202" class="gray" /></g>
<g><line x1="145.07" y1="119.209" x2="147.97" y2="120.811" class="gray" /></g>
<g><line x1="151.542" y1="122.756" x2="154.618" y2="124.404" class="gray" /></g>
<g><line x1="158.201" y1="126.328" x2="161.279" y2="127.982" class="gray" /></g>
<g><line x1="164.755" y1="127.807" x2="167.795" y2="125.753" class="gray" /></g>
<g><line x1="171.449" y1="124.107" x2="174.831" y2="123.233" class="gray" /></g>
<g><line x1="178.823" y1="122.935" x2="182.297" y2="123.295" class="gray" /></g>
<g><line x1="186.152" y1="124.387" x2="189.468" y2="125.983" class="gray" /></g>
<g><line x1="192.693" y1="128.347" x2="195.087" y2="130.893" class="gray" /></g>
<g><line x1="197.269" y1="134.249" x2="198.621" y2="137.461" class="gray" /></g>
<g><line x1="199.496" y1="141.367" x2="199.644" y2="144.863" class="gray" /></g>
<g><line x1="199.05" y1="148.812" x2="197.86" y2="152.168" class="gray" /></g>
<g><line x1="195.917" y1="155.679" x2="193.753" y2="158.411" class="gray" /></g>
<g><line x1="190.75" y1="161.057" x2="187.76" y2="162.863" class="gray" /></g>
<g><line x1="184.022" y1="164.294" x2="180.588" y2="164.946" class="gray" /></g>
<g><line x1="176.587" y1="164.974" x2="173.343" y2="164.406" class="gray" /></g>
<g><line x1="169.581" y1="163.035" x2="166.559" y2="161.285" class="gray" /></g>
<g><line x1="163.506" y1="158.696" x2="161.284" y2="156.004" class="gray" /></g>
<g><line x1="159.276" y1="152.531" x2="158.024" y2="149.189" class="gray" /></g>
<g><line x1="157.358" y1="145.252" x2="157.442" y2="141.758" class="gray" /></g>
<g><line x1="155.698" y1="138.764" x2="152.622" y2="137.116" class="gray" /></g>
<g><line x1="149.039" y1="135.192" x2="145.961" y2="133.538" class="gray" /></g>
<g><line x1="142.39" y1="131.591" x2="139.49" y2="129.989" class="gray" /></g>
<g><line x1="136.117" y1="130.269" x2="133.253" y2="132.541" class="gray" /></g>
<g><line x1="129.78" y1="134.58" x2="126.55" y2="135.91" class="gray" /></g>
<g><line x1="124.67" y1="138.718" x2="124.67" y2="142.211" class="gray" /></g>
<g><line x1="124.67" y1="146.278" x2="124.67" y2="149.771" class="gray" /></g>
<g><line x1="125.504" y1="153.659" x2="126.936" y2="156.841" class="gray" /></g>
<g><line x1="126.984" y1="160.571" x2="125.666" y2="163.719" class="gray" /></g>
<g><line x1="124.88" y1="167.628" x2="124.88" y2="171.121" class="gray" /></g>
<g><line x1="124.824" y1="175.188" x2="124.726" y2="178.682" class="gray" /></g>
<g><line x1="126.137" y1="182.124" x2="128.641" y2="184.529" class="gray" /></g>
<g><line x1="130.281" y1="187.963" x2="130.578" y2="191.423" class="gray" /></g>
</svg>
