<svg
	xmlns="http://www.w3.org/2000/svg"
	width="289.368"
	height="205.107">
<g><style type="text/css" >
<!-- create color definitions -->
<![CDATA[
circle.red {stroke: rgb(255, 0, 255); fill: none; }
circle.green {stroke: rgb(0, 255, 0); fill: none; }
circle.blue {stroke: rgb(0, 0, 255); fill: none; }
circle.black {stroke: rgb(0, 0, 0); fill: none; }
circle.gray {stroke: rgb(204, 204, 204); fill: none; }
circle.brown {stroke: rgb(211.65, 104.55, 30.6); fill: none; }
line.red {stroke: rgb(255, 0, 255); stroke-width: 0.387604; }
line.green {stroke: rgb(0, 255, 0); stroke-width: 0.387604; }
line.blue {stroke: rgb(0, 0, 255); stroke-width: 0.387604; }
line.black {stroke: rgb(0, 0, 0); stroke-width: 0.387604; }
line.gray {stroke: rgb(204, 204, 204); stroke-width: 0.387604; }
line.brown {stroke: rgb(211.65, 104.55, 30.6); stroke-width: 0.387604; }
line {stroke: rgb(0, 0, 0); }
text.red {fill: rgb(255, 0, 255); font-size: 3.100833px; font-weight: bold; font-family: Helvetica; }
text.green {fill: rgb(0, 255, 0); font-size: 3.100833px; font-weight: bold; font-family: Helvetica; }
text.blue {fill: rgb(0, 0, 255); font-size: 3.100833px; font-weight: bold; font-family: Helvetica; }
text.black {fill: rgb(0, 0, 0); font-size: 3.100833px; font-weight: bold; font-family: Helvetica; }
text.gray {fill: rgb(204, 204, 204); font-size: 3.100833px; font-weight: bold; font-family: Helvetica; }
text.brown {fill: rgb(211.65, 104.55, 30.6); font-size: 3.100833px; font-weight: bold; font-family: Helvetica; }
text {fill: rgb(0, 0, 0); font-size: 3.100833px; font-weight: bold; font-family: Helvetica; text-anchor: middle; alignment-baseline: middle; }

.pseudoknot_connection{stroke-linecap: round; stroke-opacity: 0.2; stroke-width: 1.5; }
.pseudoknot_segment1{stroke-linecap: round; stroke-opacity: 0.4; stroke-width: 3.10083; }
.pseudoknot_segment2{stroke-linecap: round; stroke-opacity: 0.4; stroke-width: 3.10083; }
line.numbering-line{stroke: rgb(204, 204, 204); stroke-width: 0.193802; }
line.predicted{stroke: rgb(0, 0, 0); stroke-dasharray: 2; }
polyline{fill: none; stroke-linejoin: round; }
template{visibility: hidden; }
text.numbering-label{fill: rgb(204, 204, 204); }
]]>
</style></g>
<g><title>0 (position.label in template: 0.5')</title><text x="42.4392" y="155.107" class="green" >5'</text></g>
<g><title>1 (position.label in template: 1.A)</title><text x="50" y="155.107" class="black" >A</text></g>
<g><title>2 (position.label in template: 2.A)</title><text x="57.5608" y="155.107" class="black" >A</text></g>
<g><title>3 (position.label in template: 3.C)</title><text x="65.1217" y="155.107" class="black" >C</text></g>
<g><title>4 (position.label in template: 4.U)</title><text x="72.6825" y="155.107" class="green" >T</text></g>
<g><title>5 (position.label in template: 5.G)</title><text x="80.2433" y="155.107" class="black" >G</text></g>
<g><title>6 (position.label in template: 6.C)</title><text x="87.8042" y="155.107" class="black" >C</text></g>
<g><title>7 (position.label in template: 7.U)</title><text x="95.365" y="155.107" class="green" >T</text></g>
<g><title>8 (position.label in template: 8.C)</title><text x="102.926" y="155.107" class="black" >C</text></g>
<g><title>9 (position.label in template: 9.A)</title><text x="110.487" y="155.107" class="black" >A</text></g>
<g><title>10 (position.label in template: 10.G)</title><text x="118.047" y="155.107" class="black" >G</text></g>
<g><text x="118.047" y="162.084" class="numbering-label sequential" >10</text></g>
<g><line x1="118.047" y1="156.968" x2="118.047" y2="160.534" class="numbering-line sequential" /></g>
<g><title>11 (position.label in template: 11.G)</title><text x="125.608" y="155.107" class="black" >G</text></g>
<g><title>12 (position.label in template: 12.G)</title><text x="133.169" y="155.107" class="black" >G</text></g>
<g><title>13 (position.label in template: 13.A)</title><text x="140.73" y="155.107" class="black" >A</text></g>
<g><title>14 (position.label in template: 14.A)</title><text x="148.291" y="155.107" class="black" >A</text></g>
<g><title>15 (position.label in template: 15.U)</title><text x="155.852" y="155.107" class="green" >T</text></g>
<g><title>16 (position.label in template: 16.G)</title><text x="161.085" y="149.65" class="black" >G</text></g>
<g><line x1="163.152" y1="149.34" x2="171.467" y2="149.34" class="black" /></g>
<g><title>17 (position.label in template: 17.G)</title><text x="161.085" y="142.09" class="black" >G</text></g>
<g><line x1="163.152" y1="141.78" x2="171.467" y2="141.78" class="black" /></g>
<g><title>18 (position.label in template: 18.G)</title><text x="161.085" y="134.53" class="green" >G</text></g>
<g><line x1="163.152" y1="134.22" x2="171.467" y2="134.22" class="black" /></g>
<g><title>19 (position.label in template: 19.G)</title><text x="161.085" y="126.97" class="black" >G</text></g>
<g><line x1="163.152" y1="126.66" x2="171.467" y2="126.66" class="black" /></g>
<g><title>20 (position.label in template: 20.U)</title><text x="161.295" y="119.41" class="green" >T</text></g>
<g><line x1="163.362" y1="119.1" x2="171.677" y2="119.1" class="black" /></g>
<g><text x="154.318" y="119.313" class="numbering-label sequential" >20</text></g>
<g><line x1="159.434" y1="119.384" x2="156.179" y2="119.339" class="numbering-line sequential" /></g>
<g><title>21 (position.label in template: 21.U)</title><text x="161.295" y="111.85" class="green" >T</text></g>
<g><line x1="163.362" y1="111.54" x2="171.677" y2="111.54" class="black" /></g>
<g><title>22 (position.label in template: 22.U)</title><text x="154.775" y="115.68" class="green" >T</text></g>
<g><title>23 (position.label in template: 23.C)</title><text x="147.305" y="116.8" class="black" >C</text></g>
<g><title>24 (position.label in template: 24.C)</title><text x="139.945" y="115.05" class="black" >C</text></g>
<g><title>25 (position.label in template: 25.C)</title><text x="133.775" y="110.69" class="black" >C</text></g>
<g><title>26 (position.label in template: 26.U)</title><text x="129.675" y="104.34" class="green" >T</text></g>
<g><title>27 (position.label in template: 27.U)</title><text x="128.235" y="96.91" class="green" >T</text></g>
<g><title>28 (position.label in template: 28.U)</title><text x="129.675" y="89.49" class="green" >T</text></g>
<g><title>29 (position.label in template: 29.A)</title><text x="133.975" y="83.14" class="black" >A</text></g>
<g><title>30 (position.label in template: 30.A)</title><text x="140.155" y="78.78" class="black" >A</text></g>
<g><text x="137.247" y="72.4376" class="numbering-label sequential" >30</text></g>
<g><line x1="139.379" y1="77.0887" x2="137.958" y2="73.9881" class="numbering-line sequential" /></g>
<g><title>31 (position.label in template: 31.C)</title><text x="147.305" y="77.03" class="black" >C</text></g>
<g><title>32 (position.label in template: 32.C)</title><text x="154.775" y="78.15" class="black" >C</text></g>
<g><title>33 (position.label in template: 33.G)</title><text x="161.085" y="81.98" class="black" >G</text></g>
<g><line x1="163.152" y1="81.6699" x2="171.467" y2="81.6699" class="black" /></g>
<g><title>34 (position.label in template: 34.C)</title><text x="161.295" y="74.42" class="black" >C</text></g>
<g><line x1="163.362" y1="74.1099" x2="171.257" y2="74.1099" class="black" /></g>
<g><title>35 (position.label in template: 35.U)</title><text x="161.295" y="66.86" class="green" >T</text></g>
<g><line x1="163.362" y1="66.5499" x2="171.677" y2="66.5499" class="black" /></g>
<g><title>36 (position.label in template: 36.U)</title><text x="157.895" y="60.11" class="green" >T</text></g>
<g><title>37 (position.label in template: 37.G)</title><text x="160.265" y="53" class="black" >G</text></g>
<g><title>38 (position.label in template: 38.U)</title><text x="167.415" y="50" class="green" >T</text></g>
<g><title>39 (position.label in template: 39.A)</title><text x="174.565" y="53" class="black" >A</text></g>
<g><title>40 (position.label in template: 40.A)</title><text x="177.145" y="60.11" class="black" >A</text></g>
<g><title>41 (position.label in template: 41.A)</title><text x="173.745" y="66.86" class="green" >A</text></g>
<g><title>42 (position.label in template: 42.G)</title><text x="173.325" y="74.42" class="black" >G</text></g>
<g><title>43 (position.label in template: 43.C)</title><text x="173.535" y="81.98" class="black" >C</text></g>
<g><title>44 (position.label in template: 44.U)</title><text x="179.665" y="86.4" class="green" >T</text></g>
<g><title>45 (position.label in template: 45.G)</title><text x="182.895" y="93.13" class="black" >G</text></g>
<g><title>46 (position.label in template: 46.A)</title><text x="183.315" y="100.69" class="black" >A</text></g>
<g><title>47 (position.label in template: 47.U)</title><text x="179.665" y="107.43" class="green" >T</text></g>
<g><title>48 (position.label in template: 48.A)</title><text x="173.745" y="111.85" class="green" >A</text></g>
<g><title>49 (position.label in template: 49.A)</title><text x="173.745" y="119.41" class="green" >A</text></g>
<g><title>50 (position.label in template: 50.C)</title><text x="173.535" y="126.97" class="black" >C</text></g>
<g><text x="180.511" y="127.067" class="numbering-label sequential" >50</text></g>
<g><line x1="175.395" y1="126.996" x2="178.65" y2="127.041" class="numbering-line sequential" /></g>
<g><title>51 (position.label in template: 51.U)</title><text x="173.535" y="134.53" class="green" >T</text></g>
<g><title>52 (position.label in template: 52.C)</title><text x="173.535" y="142.09" class="black" >C</text></g>
<g><title>53 (position.label in template: 53.C)</title><text x="173.535" y="149.65" class="black" >C</text></g>
<g><title>54 (position.label in template: 54.U)</title><text x="178.881" y="154.996" class="green" >T</text></g>
<g><title>55 (position.label in template: 55.G)</title><text x="186.442" y="154.996" class="black" >G</text></g>
<g><title>56 (position.label in template: 56.G)</title><text x="194.003" y="154.996" class="black" >G</text></g>
<g><title>57 (position.label in template: 57.U)</title><text x="201.563" y="154.996" class="green" >T</text></g>
<g><title>58 (position.label in template: 58.U)</title><text x="209.124" y="154.996" class="green" >T</text></g>
<g><title>59 (position.label in template: 59.G)</title><text x="216.685" y="154.996" class="black" >G</text></g>
<g><title>60 (position.label in template: 60.A)</title><text x="224.246" y="154.996" class="black" >A</text></g>
<g><title>61 (position.label in template: 61.G)</title><text x="231.807" y="154.996" class="black" >G</text></g>
<g><title>62 (position.label in template: 62.A)</title><text x="239.368" y="154.996" class="black" >A</text></g>
<g><title>63 (position.label in template: 63.3')</title><text x="246.928" y="154.996" class="green" >3'</text></g>
<g><line x1="44.5064" y1="154.797" x2="47.9328" y2="154.797" class="gray" /></g>
<g><line x1="52.0672" y1="154.797" x2="55.4936" y2="154.797" class="gray" /></g>
<g><line x1="59.6281" y1="154.797" x2="63.0544" y2="154.797" class="gray" /></g>
<g><line x1="67.1889" y1="154.797" x2="70.6153" y2="154.797" class="gray" /></g>
<g><line x1="74.7497" y1="154.797" x2="78.1761" y2="154.797" class="gray" /></g>
<g><line x1="82.3106" y1="154.797" x2="85.7369" y2="154.797" class="gray" /></g>
<g><line x1="89.8714" y1="154.797" x2="93.2978" y2="154.797" class="gray" /></g>
<g><line x1="97.4322" y1="154.797" x2="100.859" y2="154.797" class="gray" /></g>
<g><line x1="104.993" y1="154.797" x2="108.419" y2="154.797" class="gray" /></g>
<g><line x1="112.554" y1="154.797" x2="115.98" y2="154.797" class="gray" /></g>
<g><line x1="120.115" y1="154.797" x2="123.541" y2="154.797" class="gray" /></g>
<g><line x1="127.676" y1="154.797" x2="131.102" y2="154.797" class="gray" /></g>
<g><line x1="135.236" y1="154.797" x2="138.663" y2="154.797" class="gray" /></g>
<g><line x1="142.797" y1="154.797" x2="146.224" y2="154.797" class="gray" /></g>
<g><line x1="150.358" y1="154.797" x2="153.784" y2="154.797" class="gray" /></g>
<g><line x1="157.282" y1="153.305" x2="159.654" y2="150.832" class="gray" /></g>
<g><line x1="161.085" y1="147.273" x2="161.085" y2="143.847" class="gray" /></g>
<g><line x1="161.085" y1="139.713" x2="161.085" y2="136.287" class="gray" /></g>
<g><line x1="161.085" y1="132.153" x2="161.085" y2="128.727" class="gray" /></g>
<g><line x1="161.142" y1="124.593" x2="161.237" y2="121.166" class="gray" /></g>
<g><line x1="161.295" y1="117.033" x2="161.295" y2="113.607" class="gray" /></g>
<g><line x1="159.512" y1="112.587" x2="156.557" y2="114.323" class="gray" /></g>
<g><line x1="152.73" y1="115.676" x2="149.349" y2="116.183" class="gray" /></g>
<g><line x1="145.293" y1="116.012" x2="141.956" y2="115.218" class="gray" /></g>
<g><line x1="138.256" y1="113.547" x2="135.463" y2="111.573" class="gray" /></g>
<g><line x1="132.653" y1="108.643" x2="130.796" y2="105.767" class="gray" /></g>
<g><line x1="129.281" y1="102" x2="128.628" y2="98.6294" class="gray" /></g>
<g><line x1="128.628" y1="94.5706" x2="129.281" y2="91.2093" class="gray" /></g>
<g><line x1="130.834" y1="87.4682" x2="132.815" y2="84.5416" class="gray" /></g>
<g><line x1="135.664" y1="81.6382" x2="138.465" y2="79.6616" class="gray" /></g>
<g><line x1="142.163" y1="77.9785" x2="145.297" y2="77.2114" class="gray" /></g>
<g><line x1="149.349" y1="77.0264" x2="152.73" y2="77.5334" class="gray" /></g>
<g><line x1="156.542" y1="78.9125" x2="159.317" y2="80.5973" class="gray" /></g>
<g><line x1="161.142" y1="79.6035" x2="161.237" y2="76.1763" class="gray" /></g>
<g><line x1="161.295" y1="72.0427" x2="161.295" y2="68.6171" class="gray" /></g>
<g><line x1="160.365" y1="64.7037" x2="158.825" y2="61.6462" class="gray" /></g>
<g><line x1="158.548" y1="57.8388" x2="159.611" y2="54.6511" class="gray" /></g>
<g><line x1="162.171" y1="51.8901" x2="165.508" y2="50.4897" class="gray" /></g>
<g><line x1="169.321" y1="50.4897" x2="172.658" y2="51.8901" class="gray" /></g>
<g><line x1="175.27" y1="54.6332" x2="176.439" y2="57.8567" class="gray" /></g>
<g><line x1="176.215" y1="61.6462" x2="174.675" y2="64.7037" class="gray" /></g>
<g><line x1="173.63" y1="68.614" x2="173.439" y2="72.0459" class="gray" /></g>
<g><line x1="173.382" y1="76.1763" x2="173.477" y2="79.6035" class="gray" /></g>
<g><line x1="175.211" y1="82.879" x2="177.988" y2="84.8809" class="gray" /></g>
<g><line x1="180.559" y1="87.9536" x2="182" y2="90.9562" class="gray" /></g>
<g><line x1="183.009" y1="94.884" x2="183.2" y2="98.3159" class="gray" /></g>
<g><line x1="182.33" y1="102.198" x2="180.649" y2="105.302" class="gray" /></g>
<g><line x1="178.008" y1="108.357" x2="175.401" y2="110.303" class="gray" /></g>
<g><line x1="173.745" y1="113.607" x2="173.745" y2="117.033" class="gray" /></g>
<g><line x1="173.687" y1="121.166" x2="173.592" y2="124.593" class="gray" /></g>
<g><line x1="173.535" y1="128.727" x2="173.535" y2="132.153" class="gray" /></g>
<g><line x1="173.535" y1="136.287" x2="173.535" y2="139.713" class="gray" /></g>
<g><line x1="173.535" y1="143.847" x2="173.535" y2="147.273" class="gray" /></g>
<g><line x1="174.996" y1="150.802" x2="177.419" y2="153.224" class="gray" /></g>
<g><line x1="180.948" y1="154.686" x2="184.375" y2="154.686" class="gray" /></g>
<g><line x1="188.509" y1="154.686" x2="191.935" y2="154.686" class="gray" /></g>
<g><line x1="196.07" y1="154.686" x2="199.496" y2="154.686" class="gray" /></g>
<g><line x1="203.631" y1="154.686" x2="207.057" y2="154.686" class="gray" /></g>
<g><line x1="211.191" y1="154.686" x2="214.618" y2="154.686" class="gray" /></g>
<g><line x1="218.752" y1="154.686" x2="222.179" y2="154.686" class="gray" /></g>
<g><line x1="226.313" y1="154.686" x2="229.74" y2="154.686" class="gray" /></g>
<g><line x1="233.874" y1="154.686" x2="237.3" y2="154.686" class="gray" /></g>
<g><line x1="241.435" y1="154.686" x2="244.861" y2="154.686" class="gray" /></g>
</svg>
