<svg
	xmlns="http://www.w3.org/2000/svg"
	width="225.91"
	height="242.185">
<g><style type="text/css" >
<!-- create color definitions -->
<![CDATA[
circle.red {stroke: rgb(255, 0, 255); fill: none; }
circle.green {stroke: rgb(0, 255, 0); fill: none; }
circle.blue {stroke: rgb(0, 0, 255); fill: none; }
circle.black {stroke: rgb(0, 0, 0); fill: none; }
circle.gray {stroke: rgb(204, 204, 204); fill: none; }
circle.brown {stroke: rgb(211.65, 104.55, 30.6); fill: none; }
line.red {stroke: rgb(255, 0, 255); stroke-width: 0.383225; }
line.green {stroke: rgb(0, 255, 0); stroke-width: 0.383225; }
line.blue {stroke: rgb(0, 0, 255); stroke-width: 0.383225; }
line.black {stroke: rgb(0, 0, 0); stroke-width: 0.383225; }
line.gray {stroke: rgb(204, 204, 204); stroke-width: 0.383225; }
line.brown {stroke: rgb(211.65, 104.55, 30.6); stroke-width: 0.383225; }
line {stroke: rgb(0, 0, 0); }
text.red {fill: rgb(255, 0, 255); font-size: 3.065801px; font-weight: bold; font-family: Helvetica; }
text.green {fill: rgb(0, 255, 0); font-size: 3.065801px; font-weight: bold; font-family: Helvetica; }
text.blue {fill: rgb(0, 0, 255); font-size: 3.065801px; font-weight: bold; font-family: Helvetica; }
text.black {fill: rgb(0, 0, 0); font-size: 3.065801px; font-weight: bold; font-family: Helvetica; }
text.gray {fill: rgb(204, 204, 204); font-size: 3.065801px; font-weight: bold; font-family: Helvetica; }
text.brown {fill: rgb(211.65, 104.55, 30.6); font-size: 3.065801px; font-weight: bold; font-family: Helvetica; }
text {fill: rgb(0, 0, 0); font-size: 3.065801px; font-weight: bold; font-family: Helvetica; text-anchor: middle; alignment-baseline: middle; }

.pseudoknot_connection{stroke-linecap: round; stroke-opacity: 0.2; stroke-width: 1.5; }
.pseudoknot_segment1{stroke-linecap: round; stroke-opacity: 0.4; stroke-width: 3.0658; }
.pseudoknot_segment2{stroke-linecap: round; stroke-opacity: 0.4; stroke-width: 3.0658; }
line.numbering-line{stroke: rgb(204, 204, 204); stroke-width: 0.191613; }
line.predicted{stroke: rgb(0, 0, 0); stroke-dasharray: 2; }
polyline{fill: none; stroke-linejoin: round; }
template{visibility: hidden; }
text.numbering-label{fill: rgb(204, 204, 204); }
]]>
</style></g>
<g><title>0 (position.label in template: 0.5')</title><text x="109.01" y="194.607" class="green" >5'</text></g>
<g><title>1 (position.label in template: 1.C)</title><text x="108.8" y="187.05" class="black" >C</text></g>
<g><line x1="110.844" y1="186.743" x2="118.786" y2="186.743" class="black" /></g>
<g><title>2 (position.label in template: 2.G)</title><text x="108.59" y="179.49" class="black" >G</text></g>
<g><line x1="110.634" y1="179.183" x2="118.996" y2="179.183" class="black" /></g>
<g><title>3 (position.label in template: 3.G)</title><text x="108.59" y="171.93" class="black" >G</text></g>
<g><line x1="110.634" y1="171.623" x2="118.996" y2="171.623" class="black" /></g>
<g><title>4 (position.label in template: 4.G)</title><text x="108.59" y="164.37" class="black" >G</text></g>
<g><line x1="110.634" y1="164.063" x2="118.996" y2="164.063" class="black" /></g>
<g><title>5 (position.label in template: 5.C)</title><text x="108.8" y="156.81" class="black" >C</text></g>
<g><line x1="110.844" y1="156.503" x2="118.786" y2="156.503" class="black" /></g>
<g><title>6 (position.label in template: 6.U)</title><text x="108.8" y="149.25" class="green" >T</text></g>
<g><line x1="110.844" y1="148.943" x2="119.206" y2="148.943" class="black" /></g>
<g><title>7 (position.label in template: 7.G)</title><text x="108.59" y="141.69" class="black" >G</text></g>
<g><line x1="110.634" y1="141.383" x2="118.996" y2="141.383" class="black" /></g>
<g><title>8 (position.label in template: 8.U)</title><text x="102.07" y="138.25" class="green" >T</text></g>
<g><title>9 (position.label in template: 9.C)</title><text x="96.97" y="132.67" class="black" >C</text></g>
<g><title>10 (position.label in template: 10.G)</title><text x="93.94" y="125.66" class="black" >G</text></g>
<g><line x1="94.1567" y1="123.321" x2="95.0233" y2="115.196" class="black" /></g>
<g><text x="89.826" y="131.197" class="numbering-label sequential" >10</text></g>
<g><line x1="92.8429" y1="127.137" x2="90.965" y2="129.664" class="numbering-line sequential" /></g>
<g><title>11 (position.label in template: 11.U)</title><text x="86.62" y="124.98" class="green" >T</text></g>
<g><line x1="86.8367" y1="122.641" x2="87.7033" y2="114.516" class="black" /></g>
<g><title>12 (position.label in template: 12.A)</title><text x="79.3" y="124.3" class="green" >A</text></g>
<g><line x1="79.4472" y1="121.955" x2="80.0328" y2="113.842" class="black" /></g>
<g><title>13 (position.label in template: 13.U)</title><text x="71.56" y="123.63" class="green" >T</text></g>
<g><line x1="71.7072" y1="121.285" x2="72.2928" y2="113.172" class="black" /></g>
<g><title>14 (position.label in template: 14.A)</title><text x="65.58" y="127.98" class="black" >A</text></g>
<g><title>15 (position.label in template: 15.C)</title><text x="57.82" y="127.71" class="black" >C</text></g>
<g><title>16 (position.label in template: 16.U)</title><text x="51.97" y="122.92" class="green" >T</text></g>
<g><title>17 (position.label in template: 17.G)</title><text x="50" y="115.56" class="black" >G</text></g>
<g><title>18 (position.label in template: 18.G)</title><text x="53.04" y="108.64" class="black" >G</text></g>
<g><title>19 (position.label in template: 19.C)</title><text x="59.86" y="104.98" class="black" >C</text></g>
<g><title>20 (position.label in template: 20.A)</title><text x="67.55" y="106.05" class="black" >A</text></g>
<g><text x="70.7011" y="99.9137" class="numbering-label sequential" >20</text></g>
<g><line x1="68.3903" y1="104.414" x2="69.9139" y2="101.447" class="numbering-line sequential" /></g>
<g><title>21 (position.label in template: 21.G)</title><text x="72.44" y="111.44" class="green" >G</text></g>
<g><title>22 (position.label in template: 22.U)</title><text x="80.18" y="112.11" class="green" >T</text></g>
<g><title>23 (position.label in template: 23.A)</title><text x="87.92" y="112.79" class="green" >A</text></g>
<g><title>24 (position.label in template: 24.C)</title><text x="95.24" y="113.47" class="black" >C</text></g>
<g><title>25 (position.label in template: 25.G)</title><text x="99.06" y="107.07" class="black" >G</text></g>
<g><title>26 (position.label in template: 26.C)</title><text x="105.28" y="102.48" class="black" >C</text></g>
<g><line x1="107.29" y1="101.803" x2="115.11" y2="100.364" class="black" /></g>
<g><title>27 (position.label in template: 27.G)</title><text x="103.72" y="95.05" class="black" >G</text></g>
<g><line x1="105.732" y1="94.384" x2="113.968" y2="92.9128" class="black" /></g>
<g><title>28 (position.label in template: 28.U)</title><text x="102.59" y="87.61" class="green" >T</text></g>
<g><line x1="104.602" y1="86.9453" x2="112.828" y2="85.4815" class="black" /></g>
<g><title>29 (position.label in template: 29.G)</title><text x="101.03" y="80.17" class="black" >G</text></g>
<g><line x1="103.042" y1="79.5053" x2="111.268" y2="78.0415" class="black" /></g>
<g><title>30 (position.label in template: 30.C)</title><text x="99.89" y="72.73" class="black" >C</text></g>
<g><line x1="101.9" y1="72.0533" x2="109.72" y2="70.6135" class="black" /></g>
<g><text x="93.8945" y="76.1413" class="numbering-label sequential" >30</text></g>
<g><line x1="98.2912" y1="73.6397" x2="95.734" y2="75.0947" class="numbering-line sequential" /></g>
<g><title>31 (position.label in template: 31.U)</title><text x="94.06" y="67.92" class="green" >T</text></g>
<g><title>32 (position.label in template: 32.U)</title><text x="92.31" y="60.57" class="green" >T</text></g>
<g><title>33 (position.label in template: 33.U)</title><text x="95.38" y="53.66" class="green" >T</text></g>
<g><title>34 (position.label in template: 34.G)</title><text x="101.79" y="50" class="black" >G</text></g>
<g><title>35 (position.label in template: 35.G)</title><text x="109.27" y="51.1" class="black" >G</text></g>
<g><title>36 (position.label in template: 36.G)</title><text x="114.56" y="56.5" class="black" >G</text></g>
<g><title>37 (position.label in template: 37.A)</title><text x="115.92" y="64" class="black" >A</text></g>
<g><title>38 (position.label in template: 38.G)</title><text x="111.73" y="70.55" class="black" >G</text></g>
<g><title>39 (position.label in template: 39.C)</title><text x="113.28" y="77.99" class="black" >C</text></g>
<g><title>40 (position.label in template: 40.A)</title><text x="114.84" y="85.43" class="green" >A</text></g>
<g><title>41 (position.label in template: 41.C)</title><text x="115.98" y="92.86" class="black" >C</text></g>
<g><title>42 (position.label in template: 42.G)</title><text x="117.12" y="100.3" class="black" >G</text></g>
<g><title>43 (position.label in template: 43.U)</title><text x="124.56" y="102.48" class="green" >T</text></g>
<g><title>44 (position.label in template: 44.U)</title><text x="130.58" y="107.07" class="green" >T</text></g>
<g><title>45 (position.label in template: 45.G)</title><text x="134.39" y="113.47" class="black" >G</text></g>
<g><title>46 (position.label in template: 46.A)</title><text x="136.33" y="120.87" class="black" >A</text></g>
<g><title>47 (position.label in template: 47.C)</title><text x="134.96" y="128.34" class="black" >C</text></g>
<g><line x1="133.738" y1="129.672" x2="128.792" y2="136.305" class="black" /></g>
<g><title>48 (position.label in template: 48.U)</title><text x="141.08" y="132.77" class="green" >T</text></g>
<g><line x1="139.905" y1="134.136" x2="135.285" y2="140.711" class="black" /></g>
<g><title>49 (position.label in template: 49.G)</title><text x="146.99" y="137.21" class="black" >G</text></g>
<g><line x1="145.814" y1="138.575" x2="141.196" y2="145.142" class="black" /></g>
<g><title>50 (position.label in template: 50.G)</title><text x="153.11" y="141.65" class="black" >G</text></g>
<g><line x1="151.934" y1="143.015" x2="147.316" y2="149.582" class="black" /></g>
<g><text x="157.156" y="136.063" class="numbering-label sequential" >50</text></g>
<g><line x1="154.189" y1="140.16" x2="156.046" y2="137.596" class="numbering-line sequential" /></g>
<g><title>51 (position.label in template: 51.G)</title><text x="159.24" y="146.08" class="black" >G</text></g>
<g><line x1="158.063" y1="147.444" x2="153.437" y2="154.012" class="black" /></g>
<g><title>52 (position.label in template: 52.U)</title><text x="166.98" y="145.51" class="green" >T</text></g>
<g><title>53 (position.label in template: 53.U)</title><text x="173.33" y="149.61" class="green" >T</text></g>
<g><title>54 (position.label in template: 54.C)</title><text x="175.91" y="156.72" class="black" >C</text></g>
<g><title>55 (position.label in template: 55.G)</title><text x="173.45" y="163.94" class="black" >G</text></g>
<g><title>56 (position.label in template: 56.A)</title><text x="167.7" y="168.33" class="black" >A</text></g>
<g><title>57 (position.label in template: 57.U)</title><text x="159.94" y="168.09" class="green" >T</text></g>
<g><title>58 (position.label in template: 58.U)</title><text x="154.07" y="163.34" class="green" >T</text></g>
<g><title>59 (position.label in template: 59.C)</title><text x="152.26" y="155.99" class="black" >C</text></g>
<g><title>60 (position.label in template: 60.C)</title><text x="146.14" y="151.56" class="black" >C</text></g>
<g><title>61 (position.label in template: 61.C)</title><text x="140.02" y="147.12" class="black" >C</text></g>
<g><title>62 (position.label in template: 62.A)</title><text x="134.11" y="142.69" class="green" >A</text></g>
<g><title>63 (position.label in template: 63.G)</title><text x="127.57" y="138.25" class="black" >G</text></g>
<g><title>64 (position.label in template: 64.C)</title><text x="121.04" y="141.69" class="black" >C</text></g>
<g><title>65 (position.label in template: 65.A)</title><text x="121.25" y="149.25" class="green" >A</text></g>
<g><title>66 (position.label in template: 66.G)</title><text x="120.83" y="156.81" class="black" >G</text></g>
<g><title>67 (position.label in template: 67.C)</title><text x="121.04" y="164.37" class="black" >C</text></g>
<g><title>68 (position.label in template: 68.C)</title><text x="121.04" y="171.93" class="black" >C</text></g>
<g><title>69 (position.label in template: 69.C)</title><text x="121.04" y="179.49" class="black" >C</text></g>
<g><title>70 (position.label in template: 70.G)</title><text x="120.83" y="187.05" class="black" >G</text></g>
<g><title>71 (position.label in template: 71.A)</title><text x="126.379" y="192.185" class="black" >A</text></g>
<g><title>72 (position.label in template: 72.3')</title><text x="121.143" y="197.639" class="green" >3'</text></g>
<g><line x1="108.953" y1="192.258" x2="108.857" y2="188.786" class="gray" /></g>
<g><line x1="108.743" y1="184.7" x2="108.647" y2="181.226" class="gray" /></g>
<g><line x1="108.59" y1="177.14" x2="108.59" y2="173.667" class="gray" /></g>
<g><line x1="108.59" y1="169.58" x2="108.59" y2="166.107" class="gray" /></g>
<g><line x1="108.647" y1="162.02" x2="108.743" y2="158.546" class="gray" /></g>
<g><line x1="108.8" y1="154.46" x2="108.8" y2="150.987" class="gray" /></g>
<g><line x1="108.743" y1="146.9" x2="108.647" y2="143.426" class="gray" /></g>
<g><line x1="106.782" y1="140.43" x2="103.878" y2="138.897" class="gray" /></g>
<g><line x1="100.691" y1="136.435" x2="98.3489" y2="133.872" class="gray" /></g>
<g><line x1="96.1591" y1="130.487" x2="94.7509" y2="127.23" class="gray" /></g>
<g><line x1="91.9049" y1="125.164" x2="88.6551" y2="124.862" class="gray" /></g>
<g><line x1="84.5849" y1="124.484" x2="81.3351" y2="124.182" class="gray" /></g>
<g><line x1="77.2637" y1="123.817" x2="73.5963" y2="123.5" class="gray" /></g>
<g><line x1="69.9072" y1="124.526" x2="67.2328" y2="126.471" class="gray" /></g>
<g><line x1="63.5374" y1="127.602" x2="59.8626" y2="127.474" class="gray" /></g>
<g><line x1="56.2386" y1="126.109" x2="53.5514" y2="123.908" class="gray" /></g>
<g><line x1="51.4415" y1="120.639" x2="50.5285" y2="117.228" class="gray" /></g>
<g><line x1="50.8221" y1="113.382" x2="52.2179" y2="110.205" class="gray" /></g>
<g><line x1="54.8409" y1="107.367" x2="58.0591" y2="105.64" class="gray" /></g>
<g><line x1="61.8844" y1="104.955" x2="65.5256" y2="105.462" class="gray" /></g>
<g><line x1="68.9233" y1="107.257" x2="71.0667" y2="109.62" class="gray" /></g>
<g><line x1="74.4763" y1="111.31" x2="78.1437" y2="111.627" class="gray" /></g>
<g><line x1="82.216" y1="111.982" x2="85.884" y2="112.305" class="gray" /></g>
<g><line x1="89.9551" y1="112.672" x2="93.2049" y2="112.974" class="gray" /></g>
<g><line x1="96.2875" y1="111.408" x2="98.0125" y2="108.518" class="gray" /></g>
<g><line x1="100.705" y1="105.55" x2="103.635" y2="103.387" class="gray" /></g>
<g><line x1="104.86" y1="100.173" x2="104.14" y2="96.7437" class="gray" /></g>
<g><line x1="103.413" y1="92.7227" x2="102.897" y2="89.3241" class="gray" /></g>
<g><line x1="102.171" y1="85.3031" x2="101.449" y2="81.8638" class="gray" /></g>
<g><line x1="100.72" y1="77.8431" x2="100.2" y2="74.4437" class="gray" /></g>
<g><line x1="98.3134" y1="71.1227" x2="95.6366" y2="68.9141" class="gray" /></g>
<g><line x1="93.5866" y1="65.6251" x2="92.7834" y2="62.2517" class="gray" /></g>
<g><line x1="93.1398" y1="58.3956" x2="94.5502" y2="55.2212" class="gray" /></g>
<g><line x1="97.1549" y1="52.34" x2="100.015" y2="50.7069" class="gray" /></g>
<g><line x1="103.812" y1="49.9908" x2="107.248" y2="50.496" class="gray" /></g>
<g><line x1="110.7" y1="52.2534" x2="113.13" y2="54.7334" class="gray" /></g>
<g><line x1="114.925" y1="58.2045" x2="115.555" y2="61.6823" class="gray" /></g>
<g><line x1="114.819" y1="65.4151" x2="112.831" y2="68.5217" class="gray" /></g>
<g><line x1="112.147" y1="72.2443" x2="112.863" y2="75.6825" class="gray" /></g>
<g><line x1="113.699" y1="79.6838" x2="114.421" y2="83.1231" class="gray" /></g>
<g><line x1="115.15" y1="87.1436" x2="115.67" y2="90.5332" class="gray" /></g>
<g><line x1="116.29" y1="94.5737" x2="116.81" y2="97.9731" class="gray" /></g>
<g><line x1="119.081" y1="100.568" x2="122.599" y2="101.599" class="gray" /></g>
<g><line x1="126.185" y1="103.413" x2="128.955" y2="105.524" class="gray" /></g>
<g><line x1="131.626" y1="108.52" x2="133.344" y2="111.407" class="gray" /></g>
<g><line x1="134.908" y1="115.14" x2="135.812" y2="118.586" class="gray" /></g>
<g><line x1="135.961" y1="122.574" x2="135.329" y2="126.023" class="gray" /></g>
<g><line x1="136.616" y1="129.232" x2="139.424" y2="131.265" class="gray" /></g>
<g><line x1="142.714" y1="133.691" x2="145.356" y2="135.676" class="gray" /></g>
<g><line x1="148.644" y1="138.104" x2="151.456" y2="140.143" class="gray" /></g>
<g><line x1="154.767" y1="142.541" x2="157.583" y2="144.576" class="gray" /></g>
<g><line x1="161.278" y1="145.623" x2="164.942" y2="145.354" class="gray" /></g>
<g><line x1="168.697" y1="146.312" x2="171.613" y2="148.195" class="gray" /></g>
<g><line x1="174.027" y1="151.225" x2="175.213" y2="154.492" class="gray" /></g>
<g><line x1="175.251" y1="158.348" x2="174.109" y2="161.699" class="gray" /></g>
<g><line x1="171.825" y1="164.874" x2="169.325" y2="166.783" class="gray" /></g>
<g><line x1="165.657" y1="167.96" x2="161.983" y2="167.847" class="gray" /></g>
<g><line x1="158.351" y1="166.498" x2="155.659" y2="164.319" class="gray" /></g>
<g><line x1="153.581" y1="161.049" x2="152.749" y2="157.668" class="gray" /></g>
<g><line x1="150.604" y1="154.485" x2="147.796" y2="152.452" class="gray" /></g>
<g><line x1="144.486" y1="150.053" x2="141.674" y2="148.014" class="gray" /></g>
<g><line x1="138.385" y1="145.588" x2="135.745" y2="143.609" class="gray" /></g>
<g><line x1="132.419" y1="141.235" x2="129.261" y2="139.091" class="gray" /></g>
<g><line x1="125.762" y1="138.896" x2="122.848" y2="140.431" class="gray" /></g>
<g><line x1="121.097" y1="143.426" x2="121.193" y2="146.9" class="gray" /></g>
<g><line x1="121.137" y1="150.984" x2="120.943" y2="154.463" class="gray" /></g>
<g><line x1="120.887" y1="158.546" x2="120.983" y2="162.02" class="gray" /></g>
<g><line x1="121.04" y1="166.107" x2="121.04" y2="169.58" class="gray" /></g>
<g><line x1="121.04" y1="173.667" x2="121.04" y2="177.14" class="gray" /></g>
<g><line x1="120.983" y1="181.226" x2="120.887" y2="184.7" class="gray" /></g>
<g><line x1="122.33" y1="188.132" x2="124.879" y2="190.49" class="gray" /></g>
<g><line x1="124.963" y1="193.353" x2="122.558" y2="195.858" class="gray" /></g>
</svg>
