<svg
	xmlns="http://www.w3.org/2000/svg"
	width="226.49"
	height="240.502">
<g><style type="text/css" >
<!-- create color definitions -->
<![CDATA[
circle.red {stroke: rgb(255, 0, 255); fill: none; }
circle.green {stroke: rgb(0, 255, 0); fill: none; }
circle.blue {stroke: rgb(0, 0, 255); fill: none; }
circle.black {stroke: rgb(0, 0, 0); fill: none; }
circle.gray {stroke: rgb(204, 204, 204); fill: none; }
circle.brown {stroke: rgb(211.65, 104.55, 30.6); fill: none; }
line.red {stroke: rgb(255, 0, 255); stroke-width: 0.383936; }
line.green {stroke: rgb(0, 255, 0); stroke-width: 0.383936; }
line.blue {stroke: rgb(0, 0, 255); stroke-width: 0.383936; }
line.black {stroke: rgb(0, 0, 0); stroke-width: 0.383936; }
line.gray {stroke: rgb(204, 204, 204); stroke-width: 0.383936; }
line.brown {stroke: rgb(211.65, 104.55, 30.6); stroke-width: 0.383936; }
line {stroke: rgb(0, 0, 0); }
text.red {fill: rgb(255, 0, 255); font-size: 3.071491px; font-weight: bold; font-family: Helvetica; }
text.green {fill: rgb(0, 255, 0); font-size: 3.071491px; font-weight: bold; font-family: Helvetica; }
text.blue {fill: rgb(0, 0, 255); font-size: 3.071491px; font-weight: bold; font-family: Helvetica; }
text.black {fill: rgb(0, 0, 0); font-size: 3.071491px; font-weight: bold; font-family: Helvetica; }
text.gray {fill: rgb(204, 204, 204); font-size: 3.071491px; font-weight: bold; font-family: Helvetica; }
text.brown {fill: rgb(211.65, 104.55, 30.6); font-size: 3.071491px; font-weight: bold; font-family: Helvetica; }
text {fill: rgb(0, 0, 0); font-size: 3.071491px; font-weight: bold; font-family: Helvetica; text-anchor: middle; alignment-baseline: middle; }

.pseudoknot_connection{stroke-linecap: round; stroke-opacity: 0.2; stroke-width: 1.5; }
.pseudoknot_segment1{stroke-linecap: round; stroke-opacity: 0.4; stroke-width: 3.07149; }
.pseudoknot_segment2{stroke-linecap: round; stroke-opacity: 0.4; stroke-width: 3.07149; }
line.numbering-line{stroke: rgb(204, 204, 204); stroke-width: 0.191968; }
line.predicted{stroke: rgb(0, 0, 0); stroke-dasharray: 2; }
polyline{fill: none; stroke-linejoin: round; }
template{visibility: hidden; }
text.numbering-label{fill: rgb(204, 204, 204); }
]]>
</style></g>
<g><title>0 (position.label in template: 0.5')</title><text x="113.014" y="192.232" class="green" >5'</text></g>
<g><title>1 (position.label in template: 1.G)</title><text x="110.09" y="185.26" class="black" >G</text></g>
<g><line x1="112.138" y1="184.953" x2="120.492" y2="184.953" class="black" /></g>
<g><title>2 (position.label in template: 2.U)</title><text x="107.2" y="178.37" class="green" >T</text></g>
<g><title>3 (position.label in template: 3.G)</title><text x="110.09" y="171.47" class="green" >G</text></g>
<g><line x1="112.138" y1="171.163" x2="120.492" y2="171.163" class="black" /></g>
<g><title>4 (position.label in template: 4.G)</title><text x="110.09" y="163.91" class="black" >G</text></g>
<g><line x1="112.138" y1="163.603" x2="120.492" y2="163.603" class="black" /></g>
<g><title>5 (position.label in template: 5.G)</title><text x="110.09" y="156.35" class="black" >G</text></g>
<g><line x1="112.138" y1="156.043" x2="120.492" y2="156.043" class="black" /></g>
<g><title>6 (position.label in template: 6.U)</title><text x="110.3" y="148.79" class="green" >T</text></g>
<g><line x1="112.348" y1="148.483" x2="120.702" y2="148.483" class="black" /></g>
<g><title>7 (position.label in template: 7.A)</title><text x="110.51" y="141.23" class="green" >A</text></g>
<g><line x1="112.558" y1="140.923" x2="120.492" y2="140.923" class="black" /></g>
<g><title>8 (position.label in template: 8.C)</title><text x="103.48" y="137.97" class="black" >C</text></g>
<g><title>9 (position.label in template: 9.A)</title><text x="98.34" y="132.62" class="black" >A</text></g>
<g><title>10 (position.label in template: 10.G)</title><text x="94.66" y="125.8" class="black" >G</text></g>
<g><line x1="94.6951" y1="123.445" x2="94.8349" y2="115.3" class="black" /></g>
<g><text x="91.0256" y="131.678" class="numbering-label sequential" >10</text></g>
<g><line x1="93.6908" y1="127.367" x2="91.9751" y2="130.142" class="numbering-line sequential" /></g>
<g><title>11 (position.label in template: 11.C)</title><text x="87.31" y="125.8" class="black" >C</text></g>
<g><line x1="87.2749" y1="123.445" x2="87.1351" y2="115.3" class="black" /></g>
<g><title>12 (position.label in template: 12.U)</title><text x="79.75" y="125.8" class="green" >T</text></g>
<g><line x1="79.7851" y1="123.445" x2="79.9249" y2="115.3" class="black" /></g>
<g><title>13 (position.label in template: 13.C)</title><text x="72.19" y="125.8" class="black" >C</text></g>
<g><line x1="72.1549" y1="123.445" x2="72.0151" y2="115.3" class="black" /></g>
<g><title>14 (position.label in template: 14.A)</title><text x="66.63" y="130.69" class="black" >A</text></g>
<g><title>15 (position.label in template: 15.G)</title><text x="58.67" y="131.1" class="black" >G</text></g>
<g><title>16 (position.label in template: 16.U)</title><text x="52.62" y="126.85" class="green" >T</text></g>
<g><title>17 (position.label in template: 17.G)</title><text x="50" y="119.68" class="black" >G</text></g>
<g><title>18 (position.label in template: 18.G)</title><text x="52.41" y="112.52" class="black" >G</text></g>
<g><title>19 (position.label in template: 19.U)</title><text x="58.88" y="108.27" class="green" >T</text></g>
<g><title>20 (position.label in template: 20.A)</title><text x="66.63" y="108.68" class="black" >A</text></g>
<g><text x="69.2177" y="102.272" class="numbering-label sequential" >20</text></g>
<g><line x1="67.3201" y1="106.971" x2="68.5975" y2="103.808" class="numbering-line sequential" /></g>
<g><title>21 (position.label in template: 21.G)</title><text x="71.98" y="113.56" class="black" >G</text></g>
<g><title>22 (position.label in template: 22.A)</title><text x="79.96" y="113.56" class="green" >A</text></g>
<g><title>23 (position.label in template: 23.G)</title><text x="87.1" y="113.56" class="black" >G</text></g>
<g><title>24 (position.label in template: 24.C)</title><text x="94.87" y="113.56" class="black" >C</text></g>
<g><title>25 (position.label in template: 25.A)</title><text x="98.34" y="106.75" class="black" >A</text></g>
<g><title>26 (position.label in template: 26.C)</title><text x="103.48" y="101.4" class="black" >C</text></g>
<g><line x1="105.407" y1="100.401" x2="112.893" y2="97.7146" class="black" /></g>
<g><title>27 (position.label in template: 27.G)</title><text x="100.76" y="94.27" class="green" >G</text></g>
<g><line x1="102.695" y1="93.2926" x2="110.575" y2="90.5631" class="black" /></g>
<g><title>28 (position.label in template: 28.U)</title><text x="98.45" y="87.14" class="green" >T</text></g>
<g><line x1="100.385" y1="86.1626" x2="108.265" y2="83.4331" class="black" /></g>
<g><title>29 (position.label in template: 29.G)</title><text x="95.73" y="80.01" class="black" >G</text></g>
<g><line x1="97.6649" y1="79.0326" x2="105.545" y2="76.3031" class="black" /></g>
<g><title>30 (position.label in template: 30.C)</title><text x="93.42" y="72.88" class="black" >C</text></g>
<g><line x1="95.3473" y1="71.8811" x2="102.833" y2="69.1946" class="black" /></g>
<g><text x="88.0423" y="77.2205" class="numbering-label sequential" >30</text></g>
<g><line x1="91.9859" y1="74.0375" x2="89.945" y2="75.6848" class="numbering-line sequential" /></g>
<g><title>31 (position.label in template: 31.U)</title><text x="86.9" y="69.07" class="green" >T</text></g>
<g><title>32 (position.label in template: 32.U)</title><text x="84.01" y="62.08" class="green" >T</text></g>
<g><title>33 (position.label in template: 33.A)</title><text x="86.13" y="54.77" class="black" >A</text></g>
<g><title>34 (position.label in template: 34.G)</title><text x="91.67" y="50.11" class="black" >G</text></g>
<g><title>35 (position.label in template: 35.C)</title><text x="99.44" y="50" class="black" >C</text></g>
<g><title>36 (position.label in template: 36.A)</title><text x="105.73" y="54.49" class="black" >A</text></g>
<g><title>37 (position.label in template: 37.U)</title><text x="107.66" y="61.75" class="green" >T</text></g>
<g><title>38 (position.label in template: 38.G)</title><text x="104.76" y="68.81" class="black" >G</text></g>
<g><title>39 (position.label in template: 39.C)</title><text x="107.48" y="75.94" class="black" >C</text></g>
<g><title>40 (position.label in template: 40.A)</title><text x="110.2" y="83.07" class="green" >A</text></g>
<g><title>41 (position.label in template: 41.U)</title><text x="112.51" y="90.2" class="green" >T</text></g>
<g><title>42 (position.label in template: 42.G)</title><text x="114.82" y="97.33" class="black" >G</text></g>
<g><title>43 (position.label in template: 43.A)</title><text x="122.75" y="98.14" class="black" >A</text></g>
<g><title>44 (position.label in template: 44.G)</title><text x="129.15" y="101.4" class="black" >G</text></g>
<g><title>45 (position.label in template: 45.G)</title><text x="134.5" y="106.75" class="black" >G</text></g>
<g><title>46 (position.label in template: 46.U)</title><text x="137.97" y="113.56" class="green" >T</text></g>
<g><title>47 (position.label in template: 47.C)</title><text x="138.78" y="121.08" class="black" >C</text></g>
<g><title>48 (position.label in template: 48.C)</title><text x="137.04" y="128.44" class="black" >C</text></g>
<g><line x1="135.734" y1="129.71" x2="130.456" y2="136.086" class="black" /></g>
<g><title>49 (position.label in template: 49.U)</title><text x="142.93" y="133.18" class="green" >T</text></g>
<g><line x1="141.624" y1="134.45" x2="136.346" y2="140.826" class="black" /></g>
<g><title>50 (position.label in template: 50.G)</title><text x="148.61" y="137.93" class="black" >G</text></g>
<g><line x1="147.347" y1="139.234" x2="142.403" y2="145.541" class="black" /></g>
<g><text x="152.995" y="132.589" class="numbering-label sequential" >50</text></g>
<g><line x1="149.779" y1="136.506" x2="151.734" y2="134.124" class="numbering-line sequential" /></g>
<g><title>51 (position.label in template: 51.G)</title><text x="154.49" y="142.67" class="black" >G</text></g>
<g><line x1="153.227" y1="143.974" x2="148.283" y2="150.281" class="black" /></g>
<g><title>52 (position.label in template: 52.G)</title><text x="160.38" y="147.41" class="black" >G</text></g>
<g><line x1="159.117" y1="148.714" x2="154.173" y2="155.021" class="black" /></g>
<g><title>53 (position.label in template: 53.U)</title><text x="168.15" y="147.22" class="green" >T</text></g>
<g><title>54 (position.label in template: 54.U)</title><text x="174.28" y="151.65" class="green" >T</text></g>
<g><title>55 (position.label in template: 55.C)</title><text x="176.49" y="158.88" class="black" >C</text></g>
<g><title>56 (position.label in template: 56.A)</title><text x="174.07" y="165.97" class="black" >A</text></g>
<g><title>57 (position.label in template: 57.A)</title><text x="167.7" y="170.04" class="black" >A</text></g>
<g><title>58 (position.label in template: 58.U)</title><text x="159.96" y="169.42" class="green" >T</text></g>
<g><title>59 (position.label in template: 59.C)</title><text x="154.33" y="164.37" class="black" >C</text></g>
<g><title>60 (position.label in template: 60.C)</title><text x="152.91" y="156.94" class="black" >C</text></g>
<g><title>61 (position.label in template: 61.C)</title><text x="147.02" y="152.2" class="black" >C</text></g>
<g><title>62 (position.label in template: 62.C)</title><text x="141.14" y="147.46" class="black" >C</text></g>
<g><title>63 (position.label in template: 63.G)</title><text x="135.04" y="142.71" class="green" >G</text></g>
<g><title>64 (position.label in template: 64.G)</title><text x="129.15" y="137.97" class="black" >G</text></g>
<g><title>65 (position.label in template: 65.U)</title><text x="122.54" y="141.23" class="green" >T</text></g>
<g><title>66 (position.label in template: 66.A)</title><text x="122.75" y="148.79" class="green" >A</text></g>
<g><title>67 (position.label in template: 67.C)</title><text x="122.54" y="156.35" class="black" >C</text></g>
<g><title>68 (position.label in template: 68.C)</title><text x="122.54" y="163.91" class="black" >C</text></g>
<g><title>69 (position.label in template: 69.U)</title><text x="122.54" y="171.47" class="green" >T</text></g>
<g><title>70 (position.label in template: 70.C)</title><text x="125.64" y="178.37" class="black" >C</text></g>
<g><title>71 (position.label in template: 71.C)</title><text x="122.54" y="185.26" class="black" >C</text></g>
<g><title>72 (position.label in template: 72.A)</title><text x="127.988" y="190.502" class="black" >A</text></g>
<g><title>73 (position.label in template: 73.3')</title><text x="129.425" y="197.925" class="green" >3'</text></g>
<g><line x1="112.222" y1="190.037" x2="110.882" y2="186.841" class="gray" /></g>
<g><line x1="109.298" y1="183.065" x2="107.992" y2="179.951" class="gray" /></g>
<g><line x1="107.991" y1="176.174" x2="109.299" y2="173.052" class="gray" /></g>
<g><line x1="110.09" y1="169.115" x2="110.09" y2="165.651" class="gray" /></g>
<g><line x1="110.09" y1="161.555" x2="110.09" y2="158.091" class="gray" /></g>
<g><line x1="110.147" y1="153.996" x2="110.243" y2="150.53" class="gray" /></g>
<g><line x1="110.357" y1="146.436" x2="110.453" y2="142.97" class="gray" /></g>
<g><line x1="108.652" y1="140.061" x2="105.338" y2="138.524" class="gray" /></g>
<g><line x1="102.061" y1="136.186" x2="99.7586" y2="133.789" class="gray" /></g>
<g><line x1="97.3676" y1="130.511" x2="95.6324" y2="127.295" class="gray" /></g>
<g><line x1="92.6123" y1="125.493" x2="89.3577" y2="125.493" class="gray" /></g>
<g><line x1="85.2623" y1="125.493" x2="81.7977" y2="125.493" class="gray" /></g>
<g><line x1="77.7023" y1="125.493" x2="74.2377" y2="125.493" class="gray" /></g>
<g><line x1="70.6524" y1="126.845" x2="68.1676" y2="129.031" class="gray" /></g>
<g><line x1="64.5851" y1="130.488" x2="60.7149" y2="130.688" class="gray" /></g>
<g><line x1="56.9944" y1="129.616" x2="54.2956" y2="127.72" class="gray" /></g>
<g><line x1="51.9172" y1="124.62" x2="50.7028" y2="121.296" class="gray" /></g>
<g><line x1="50.6532" y1="117.432" x2="51.7568" y2="114.154" class="gray" /></g>
<g><line x1="54.1214" y1="111.089" x2="57.1686" y2="109.087" class="gray" /></g>
<g><line x1="60.9248" y1="108.071" x2="64.5852" y2="108.265" class="gray" /></g>
<g><line x1="68.1428" y1="109.753" x2="70.4672" y2="111.873" class="gray" /></g>
<g><line x1="74.0277" y1="113.253" x2="77.9123" y2="113.253" class="gray" /></g>
<g><line x1="82.0077" y1="113.253" x2="85.0523" y2="113.253" class="gray" /></g>
<g><line x1="89.1477" y1="113.253" x2="92.8223" y2="113.253" class="gray" /></g>
<g><line x1="95.7996" y1="111.428" x2="97.4104" y2="108.267" class="gray" /></g>
<g><line x1="99.7586" y1="104.966" x2="102.061" y2="102.569" class="gray" /></g>
<g><line x1="102.75" y1="99.1797" x2="101.49" y2="95.876" class="gray" /></g>
<g><line x1="100.129" y1="92.0149" x2="99.0811" y2="88.7808" class="gray" /></g>
<g><line x1="97.7201" y1="84.9197" x2="96.4599" y2="81.616" class="gray" /></g>
<g><line x1="95.0989" y1="77.7549" x2="94.0511" y2="74.5208" class="gray" /></g>
<g><line x1="91.6521" y1="71.5397" x2="88.6679" y2="69.796" class="gray" /></g>
<g><line x1="86.1176" y1="66.8705" x2="84.7924" y2="63.6652" class="gray" /></g>
<g><line x1="84.5803" y1="59.8062" x2="85.5597" y2="56.4295" class="gray" /></g>
<g><line x1="87.697" y1="53.1448" x2="90.103" y2="51.121" class="gray" /></g>
<g><line x1="93.7175" y1="49.7739" x2="97.3925" y2="49.7218" class="gray" /></g>
<g><line x1="101.107" y1="50.8825" x2="104.063" y2="52.9932" class="gray" /></g>
<g><line x1="106.256" y1="56.1618" x2="107.134" y2="59.4639" class="gray" /></g>
<g><line x1="106.882" y1="63.3369" x2="105.538" y2="66.6088" class="gray" /></g>
<g><line x1="105.49" y1="70.416" x2="106.75" y2="73.7197" class="gray" /></g>
<g><line x1="108.21" y1="77.546" x2="109.47" y2="80.8497" class="gray" /></g>
<g><line x1="110.831" y1="84.7108" x2="111.879" y2="87.9449" class="gray" /></g>
<g><line x1="113.141" y1="91.8408" x2="114.189" y2="95.0749" class="gray" /></g>
<g><line x1="116.857" y1="97.2309" x2="120.713" y2="97.6248" class="gray" /></g>
<g><line x1="124.575" y1="98.7623" x2="127.325" y2="100.163" class="gray" /></g>
<g><line x1="130.598" y1="102.541" x2="133.052" y2="104.995" class="gray" /></g>
<g><line x1="135.43" y1="108.267" x2="137.04" y2="111.428" class="gray" /></g>
<g><line x1="138.189" y1="115.289" x2="138.561" y2="118.737" class="gray" /></g>
<g><line x1="138.309" y1="122.766" x2="137.511" y2="126.14" class="gray" /></g>
<g><line x1="138.635" y1="129.417" x2="141.335" y2="131.589" class="gray" /></g>
<g><line x1="144.501" y1="134.186" x2="147.039" y2="136.309" class="gray" /></g>
<g><line x1="150.204" y1="138.908" x2="152.896" y2="141.078" class="gray" /></g>
<g><line x1="156.085" y1="143.647" x2="158.785" y2="145.819" class="gray" /></g>
<g><line x1="162.427" y1="147.053" x2="166.103" y2="146.963" class="gray" /></g>
<g><line x1="169.81" y1="148.112" x2="172.62" y2="150.143" class="gray" /></g>
<g><line x1="174.879" y1="153.301" x2="175.891" y2="156.615" class="gray" /></g>
<g><line x1="175.829" y1="160.511" x2="174.731" y2="163.725" class="gray" /></g>
<g><line x1="172.344" y1="166.765" x2="169.426" y2="168.63" class="gray" /></g>
<g><line x1="165.659" y1="169.569" x2="162.001" y2="169.276" class="gray" /></g>
<g><line x1="158.436" y1="167.746" x2="155.854" y2="165.43" class="gray" /></g>
<g><line x1="153.946" y1="162.052" x2="153.294" y2="158.644" class="gray" /></g>
<g><line x1="151.315" y1="155.349" x2="148.615" y2="153.177" class="gray" /></g>
<g><line x1="145.426" y1="150.608" x2="142.734" y2="148.438" class="gray" /></g>
<g><line x1="139.524" y1="145.895" x2="136.656" y2="143.661" class="gray" /></g>
<g><line x1="133.445" y1="141.119" x2="130.745" y2="138.947" class="gray" /></g>
<g><line x1="127.314" y1="138.569" x2="124.376" y2="140.017" class="gray" /></g>
<g><line x1="122.597" y1="142.97" x2="122.693" y2="146.436" class="gray" /></g>
<g><line x1="122.693" y1="150.53" x2="122.597" y2="153.996" class="gray" /></g>
<g><line x1="122.54" y1="158.091" x2="122.54" y2="161.555" class="gray" /></g>
<g><line x1="122.54" y1="165.651" x2="122.54" y2="169.115" class="gray" /></g>
<g><line x1="123.379" y1="173.031" x2="124.801" y2="176.195" class="gray" /></g>
<g><line x1="124.8" y1="179.93" x2="123.38" y2="183.085" class="gray" /></g>
<g><line x1="124.016" y1="186.373" x2="126.513" y2="188.775" class="gray" /></g>
<g><line x1="128.377" y1="192.206" x2="129.036" y2="195.608" class="gray" /></g>
</svg>
