<svg
	xmlns="http://www.w3.org/2000/svg"
	width="228.44"
	height="242.043">
<g><style type="text/css" >
<!-- create color definitions -->
<![CDATA[
circle.red {stroke: rgb(255, 0, 255); fill: none; }
circle.green {stroke: rgb(0, 255, 0); fill: none; }
circle.blue {stroke: rgb(0, 0, 255); fill: none; }
circle.black {stroke: rgb(0, 0, 0); fill: none; }
circle.gray {stroke: rgb(204, 204, 204); fill: none; }
circle.brown {stroke: rgb(211.65, 104.55, 30.6); fill: none; }
line.red {stroke: rgb(255, 0, 255); stroke-width: 0.380682; }
line.green {stroke: rgb(0, 255, 0); stroke-width: 0.380682; }
line.blue {stroke: rgb(0, 0, 255); stroke-width: 0.380682; }
line.black {stroke: rgb(0, 0, 0); stroke-width: 0.380682; }
line.gray {stroke: rgb(204, 204, 204); stroke-width: 0.380682; }
line.brown {stroke: rgb(211.65, 104.55, 30.6); stroke-width: 0.380682; }
line {stroke: rgb(0, 0, 0); }
text.red {fill: rgb(255, 0, 255); font-size: 3.045453px; font-weight: bold; font-family: Helvetica; }
text.green {fill: rgb(0, 255, 0); font-size: 3.045453px; font-weight: bold; font-family: Helvetica; }
text.blue {fill: rgb(0, 0, 255); font-size: 3.045453px; font-weight: bold; font-family: Helvetica; }
text.black {fill: rgb(0, 0, 0); font-size: 3.045453px; font-weight: bold; font-family: Helvetica; }
text.gray {fill: rgb(204, 204, 204); font-size: 3.045453px; font-weight: bold; font-family: Helvetica; }
text.brown {fill: rgb(211.65, 104.55, 30.6); font-size: 3.045453px; font-weight: bold; font-family: Helvetica; }
text {fill: rgb(0, 0, 0); font-size: 3.045453px; font-weight: bold; font-family: Helvetica; text-anchor: middle; alignment-baseline: middle; }

.pseudoknot_connection{stroke-linecap: round; stroke-opacity: 0.2; stroke-width: 1.5; }
.pseudoknot_segment1{stroke-linecap: round; stroke-opacity: 0.4; stroke-width: 3.04545; }
.pseudoknot_segment2{stroke-linecap: round; stroke-opacity: 0.4; stroke-width: 3.04545; }
line.numbering-line{stroke: rgb(204, 204, 204); stroke-width: 0.190341; }
line.predicted{stroke: rgb(0, 0, 0); stroke-dasharray: 2; }
polyline{fill: none; stroke-linejoin: round; }
template{visibility: hidden; }
text.numbering-label{fill: rgb(204, 204, 204); }
]]>
</style></g>
<g><title>0 (position.label in template: 0.5')</title><text x="111.84" y="194.149" class="green" >5'</text></g>
<g><title>1 (position.label in template: 1.G)</title><text x="112.05" y="186.59" class="black" >G</text></g>
<g><line x1="114.08" y1="186.285" x2="122.47" y2="186.285" class="black" /></g>
<g><title>2 (position.label in template: 2.C)</title><text x="112.26" y="179.03" class="black" >C</text></g>
<g><line x1="114.29" y1="178.725" x2="122.26" y2="178.725" class="black" /></g>
<g><title>3 (position.label in template: 3.C)</title><text x="112.26" y="171.47" class="black" >C</text></g>
<g><line x1="114.29" y1="171.165" x2="122.26" y2="171.165" class="black" /></g>
<g><title>4 (position.label in template: 4.U)</title><text x="112.26" y="163.91" class="green" >T</text></g>
<g><line x1="114.29" y1="163.605" x2="122.26" y2="163.605" class="black" /></g>
<g><title>5 (position.label in template: 5.A)</title><text x="112.47" y="156.35" class="black" >A</text></g>
<g><line x1="114.5" y1="156.045" x2="122.26" y2="156.045" class="black" /></g>
<g><title>6 (position.label in template: 6.G)</title><text x="112.05" y="148.79" class="black" >G</text></g>
<g><line x1="114.08" y1="148.485" x2="122.47" y2="148.485" class="black" /></g>
<g><title>7 (position.label in template: 7.U)</title><text x="112.26" y="141.23" class="green" >T</text></g>
<g><line x1="114.29" y1="140.925" x2="122.47" y2="140.925" class="black" /></g>
<g><title>8 (position.label in template: 8.U)</title><text x="105.44" y="137.97" class="green" >T</text></g>
<g><title>9 (position.label in template: 9.A)</title><text x="100.3" y="132.62" class="black" >A</text></g>
<g><title>10 (position.label in template: 10.G)</title><text x="96.62" y="125.8" class="black" >G</text></g>
<g><line x1="96.6548" y1="123.465" x2="96.7952" y2="115.285" class="black" /></g>
<g><text x="93.0164" y="131.628" class="numbering-label sequential" >10</text></g>
<g><line x1="95.659" y1="127.354" x2="93.9579" y2="130.105" class="numbering-line sequential" /></g>
<g><title>11 (position.label in template: 11.C)</title><text x="89.27" y="125.8" class="black" >C</text></g>
<g><line x1="89.2352" y1="123.465" x2="89.0948" y2="115.285" class="black" /></g>
<g><title>12 (position.label in template: 12.U)</title><text x="81.71" y="125.8" class="green" >T</text></g>
<g><line x1="81.71" y1="123.465" x2="81.71" y2="115.286" class="black" /></g>
<g><title>13 (position.label in template: 13.U)</title><text x="74.15" y="125.8" class="green" >T</text></g>
<g><line x1="74.1152" y1="123.465" x2="73.9748" y2="115.285" class="black" /></g>
<g><title>14 (position.label in template: 14.A)</title><text x="69.02" y="131.16" class="black" >A</text></g>
<g><title>15 (position.label in template: 15.G)</title><text x="61.19" y="132.64" class="black" >G</text></g>
<g><title>16 (position.label in template: 16.U)</title><text x="54.41" y="129.75" class="green" >T</text></g>
<g><title>17 (position.label in template: 17.U)</title><text x="50.21" y="123.46" class="green" >T</text></g>
<g><title>18 (position.label in template: 18.G)</title><text x="50" y="115.9" class="black" >G</text></g>
<g><title>19 (position.label in template: 19.G)</title><text x="54.2" y="109.62" class="black" >G</text></g>
<g><title>20 (position.label in template: 20.U)</title><text x="61.4" y="106.73" class="green" >T</text></g>
<g><text x="60.7418" y="99.9094" class="numbering-label sequential" >20</text></g>
<g><line x1="61.2245" y1="104.911" x2="60.8887" y2="101.432" class="numbering-line sequential" /></g>
<g><title>21 (position.label in template: 21.U)</title><text x="68.81" y="108.21" class="green" >T</text></g>
<g><title>22 (position.label in template: 22.G)</title><text x="73.94" y="113.56" class="green" >G</text></g>
<g><title>23 (position.label in template: 23.U)</title><text x="81.71" y="113.56" class="green" >T</text></g>
<g><title>24 (position.label in template: 24.G)</title><text x="89.06" y="113.56" class="black" >G</text></g>
<g><title>25 (position.label in template: 25.C)</title><text x="96.83" y="113.56" class="black" >C</text></g>
<g><title>26 (position.label in template: 26.G)</title><text x="99.88" y="106.75" class="black" >G</text></g>
<g><title>27 (position.label in template: 27.U)</title><text x="105.44" y="101.4" class="green" >T</text></g>
<g><line x1="107.355" y1="100.42" x2="115.065" y2="97.7007" class="black" /></g>
<g><title>28 (position.label in template: 28.C)</title><text x="102.92" y="94.27" class="black" >C</text></g>
<g><line x1="104.835" y1="93.2907" x2="112.555" y2="90.5702" class="black" /></g>
<g><title>29 (position.label in template: 29.U)</title><text x="100.41" y="87.14" class="green" >T</text></g>
<g><line x1="102.321" y1="86.1491" x2="109.829" y2="83.4518" class="black" /></g>
<g><title>30 (position.label in template: 30.G)</title><text x="97.69" y="80.01" class="black" >G</text></g>
<g><line x1="99.6085" y1="79.0409" x2="107.522" y2="76.3" class="black" /></g>
<g><text x="91.228" y="82.2894" class="numbering-label sequential" >30</text></g>
<g><line x1="95.9668" y1="80.6178" x2="93.0552" y2="81.6448" class="numbering-line sequential" /></g>
<g><title>31 (position.label in template: 31.C)</title><text x="95.38" y="72.88" class="black" >C</text></g>
<g><line x1="97.2908" y1="71.8891" x2="104.799" y2="69.1918" class="black" /></g>
<g><title>32 (position.label in template: 32.C)</title><text x="88.85" y="69.07" class="black" >C</text></g>
<g><title>33 (position.label in template: 33.U)</title><text x="85.96" y="62.08" class="green" >T</text></g>
<g><title>34 (position.label in template: 34.U)</title><text x="87.88" y="54.77" class="green" >T</text></g>
<g><title>35 (position.label in template: 35.G)</title><text x="93.63" y="50.11" class="black" >G</text></g>
<g><title>36 (position.label in template: 36.U)</title><text x="101.4" y="50" class="green" >T</text></g>
<g><title>37 (position.label in template: 37.A)</title><text x="107.69" y="54.49" class="black" >A</text></g>
<g><title>38 (position.label in template: 38.A)</title><text x="109.82" y="61.75" class="black" >A</text></g>
<g><title>39 (position.label in template: 39.G)</title><text x="106.71" y="68.81" class="black" >G</text></g>
<g><title>40 (position.label in template: 40.C)</title><text x="109.44" y="75.94" class="black" >C</text></g>
<g><title>41 (position.label in template: 41.G)</title><text x="111.74" y="83.07" class="green" >G</text></g>
<g><title>42 (position.label in template: 42.C)</title><text x="114.47" y="90.2" class="black" >C</text></g>
<g><title>43 (position.label in template: 43.U)</title><text x="116.98" y="97.33" class="green" >T</text></g>
<g><title>44 (position.label in template: 44.A)</title><text x="124.71" y="98.14" class="black" >A</text></g>
<g><title>45 (position.label in template: 45.G)</title><text x="131.11" y="101.4" class="black" >G</text></g>
<g><title>46 (position.label in template: 46.G)</title><text x="136.45" y="106.75" class="black" >G</text></g>
<g><title>47 (position.label in template: 47.C)</title><text x="139.93" y="113.56" class="black" >C</text></g>
<g><title>48 (position.label in template: 48.C)</title><text x="140.74" y="121.08" class="black" >C</text></g>
<g><title>49 (position.label in template: 49.G)</title><text x="138.79" y="128.44" class="black" >G</text></g>
<g><line x1="137.537" y1="129.733" x2="132.573" y2="136.068" class="black" /></g>
<g><title>50 (position.label in template: 50.C)</title><text x="144.89" y="133.18" class="black" >C</text></g>
<g><line x1="143.595" y1="134.439" x2="138.295" y2="140.842" class="black" /></g>
<g><text x="149.191" y="127.846" class="numbering-label sequential" >50</text></g>
<g><line x1="146.037" y1="131.758" x2="147.963" y2="129.368" class="numbering-line sequential" /></g>
<g><title>51 (position.label in template: 51.G)</title><text x="150.56" y="137.93" class="black" >G</text></g>
<g><line x1="149.307" y1="139.223" x2="144.343" y2="145.558" class="black" /></g>
<g><title>52 (position.label in template: 52.G)</title><text x="156.45" y="142.67" class="black" >G</text></g>
<g><line x1="155.197" y1="143.963" x2="150.233" y2="150.298" class="black" /></g>
<g><title>53 (position.label in template: 53.G)</title><text x="162.34" y="147.41" class="black" >G</text></g>
<g><line x1="161.087" y1="148.703" x2="156.123" y2="155.038" class="black" /></g>
<g><title>54 (position.label in template: 54.U)</title><text x="170.1" y="147.22" class="green" >T</text></g>
<g><title>55 (position.label in template: 55.U)</title><text x="176.24" y="151.65" class="green" >T</text></g>
<g><title>56 (position.label in template: 56.C)</title><text x="178.44" y="158.88" class="black" >C</text></g>
<g><title>57 (position.label in template: 57.G)</title><text x="175.62" y="165.97" class="black" >G</text></g>
<g><title>58 (position.label in template: 58.A)</title><text x="169.66" y="170.04" class="black" >A</text></g>
<g><title>59 (position.label in template: 59.U)</title><text x="161.92" y="169.42" class="green" >T</text></g>
<g><title>60 (position.label in template: 60.U)</title><text x="156.29" y="164.37" class="green" >T</text></g>
<g><title>61 (position.label in template: 61.C)</title><text x="154.87" y="156.94" class="black" >C</text></g>
<g><title>62 (position.label in template: 62.C)</title><text x="148.98" y="152.2" class="black" >C</text></g>
<g><title>63 (position.label in template: 63.C)</title><text x="143.09" y="147.46" class="black" >C</text></g>
<g><title>64 (position.label in template: 64.G)</title><text x="137" y="142.71" class="black" >G</text></g>
<g><title>65 (position.label in template: 65.C)</title><text x="131.32" y="137.97" class="black" >C</text></g>
<g><title>66 (position.label in template: 66.C)</title><text x="124.5" y="141.23" class="green" >C</text></g>
<g><title>67 (position.label in template: 67.C)</title><text x="124.5" y="148.79" class="black" >C</text></g>
<g><title>68 (position.label in template: 68.G)</title><text x="124.29" y="156.35" class="black" >G</text></g>
<g><title>69 (position.label in template: 69.G)</title><text x="124.29" y="163.91" class="green" >G</text></g>
<g><title>70 (position.label in template: 70.G)</title><text x="124.29" y="171.47" class="black" >G</text></g>
<g><title>71 (position.label in template: 71.G)</title><text x="124.29" y="179.03" class="black" >G</text></g>
<g><title>72 (position.label in template: 72.C)</title><text x="124.5" y="186.59" class="black" >C</text></g>
<g><title>73 (position.label in template: 73.G)</title><text x="129.739" y="192.043" class="black" >G</text></g>
<g><title>74 (position.label in template: 74.3')</title><text x="124.504" y="197.5" class="green" >3'</text></g>
<g><line x1="111.896" y1="191.815" x2="111.994" y2="188.315" class="gray" /></g>
<g><line x1="112.106" y1="184.256" x2="112.204" y2="180.755" class="gray" /></g>
<g><line x1="112.26" y1="176.695" x2="112.26" y2="173.196" class="gray" /></g>
<g><line x1="112.26" y1="169.135" x2="112.26" y2="165.636" class="gray" /></g>
<g><line x1="112.316" y1="161.576" x2="112.414" y2="158.075" class="gray" /></g>
<g><line x1="112.357" y1="154.018" x2="112.163" y2="150.513" class="gray" /></g>
<g><line x1="112.106" y1="146.456" x2="112.204" y2="142.955" class="gray" /></g>
<g><line x1="110.428" y1="140.05" x2="107.272" y2="138.541" class="gray" /></g>
<g><line x1="104.033" y1="136.201" x2="101.707" y2="133.78" class="gray" /></g>
<g><line x1="99.3359" y1="130.529" x2="97.5841" y2="127.282" class="gray" /></g>
<g><line x1="94.5897" y1="125.495" x2="91.3003" y2="125.495" class="gray" /></g>
<g><line x1="87.2397" y1="125.495" x2="83.7403" y2="125.495" class="gray" /></g>
<g><line x1="79.6797" y1="125.495" x2="76.1803" y2="125.495" class="gray" /></g>
<g><line x1="72.7462" y1="126.962" x2="70.4238" y2="129.389" class="gray" /></g>
<g><line x1="67.025" y1="131.233" x2="63.185" y2="131.958" class="gray" /></g>
<g><line x1="59.3223" y1="131.539" x2="56.2777" y2="130.242" class="gray" /></g>
<g><line x1="53.2826" y1="127.757" x2="51.3374" y2="124.844" class="gray" /></g>
<g><line x1="50.1536" y1="121.126" x2="50.0564" y2="117.625" class="gray" /></g>
<g><line x1="51.1287" y1="113.908" x2="53.0713" y2="111.003" class="gray" /></g>
<g><line x1="56.0842" y1="108.559" x2="59.5158" y2="107.182" class="gray" /></g>
<g><line x1="63.391" y1="106.823" x2="66.819" y2="107.508" class="gray" /></g>
<g><line x1="70.2152" y1="109.371" x2="72.5348" y2="111.79" class="gray" /></g>
<g><line x1="75.9703" y1="113.255" x2="79.6797" y2="113.255" class="gray" /></g>
<g><line x1="83.7403" y1="113.255" x2="87.0297" y2="113.255" class="gray" /></g>
<g><line x1="91.0903" y1="113.255" x2="94.7997" y2="113.255" class="gray" /></g>
<g><line x1="97.6599" y1="111.403" x2="99.0501" y2="108.298" class="gray" /></g>
<g><line x1="101.343" y1="105.038" x2="103.977" y2="102.503" class="gray" /></g>
<g><line x1="104.763" y1="99.1812" x2="103.597" y2="95.8797" class="gray" /></g>
<g><line x1="102.246" y1="92.0504" x2="101.084" y2="88.7506" class="gray" /></g>
<g><line x1="99.6863" y1="84.9385" x2="98.4137" y2="81.6024" class="gray" /></g>
<g><line x1="97.0642" y1="77.774" x2="96.0058" y2="74.5069" class="gray" /></g>
<g><line x1="93.6264" y1="71.5523" x2="90.6036" y2="69.7886" class="gray" /></g>
<g><line x1="88.0743" y1="66.8892" x2="86.7357" y2="63.6517" class="gray" /></g>
<g><line x1="86.4758" y1="59.8118" x2="87.3642" y2="56.4292" class="gray" /></g>
<g><line x1="89.4573" y1="53.1871" x2="92.0527" y2="51.0838" class="gray" /></g>
<g><line x1="95.6601" y1="49.7767" x2="99.3699" y2="49.7242" class="gray" /></g>
<g><line x1="103.052" y1="50.875" x2="106.038" y2="53.0059" class="gray" /></g>
<g><line x1="108.262" y1="56.1336" x2="109.248" y2="59.4973" class="gray" /></g>
<g><line x1="109.002" y1="63.3035" x2="107.528" y2="66.6474" class="gray" /></g>
<g><line x1="107.436" y1="70.4015" x2="108.714" y2="73.7394" class="gray" /></g>
<g><line x1="110.063" y1="77.5677" x2="111.117" y2="80.8332" class="gray" /></g>
<g><line x1="112.466" y1="84.6615" x2="113.744" y2="87.9994" class="gray" /></g>
<g><line x1="115.144" y1="91.8106" x2="116.306" y2="95.1104" class="gray" /></g>
<g><line x1="118.999" y1="97.237" x2="122.691" y2="97.6239" class="gray" /></g>
<g><line x1="126.519" y1="98.757" x2="129.301" y2="100.174" class="gray" /></g>
<g><line x1="132.544" y1="102.532" x2="135.016" y2="105.008" class="gray" /></g>
<g><line x1="137.374" y1="108.253" x2="139.006" y2="111.448" class="gray" /></g>
<g><line x1="140.147" y1="115.274" x2="140.523" y2="118.757" class="gray" /></g>
<g><line x1="140.22" y1="122.738" x2="139.31" y2="126.173" class="gray" /></g>
<g><line x1="140.393" y1="129.381" x2="143.287" y2="131.63" class="gray" /></g>
<g><line x1="146.446" y1="134.179" x2="149.004" y2="136.322" class="gray" /></g>
<g><line x1="152.142" y1="138.898" x2="154.868" y2="141.093" class="gray" /></g>
<g><line x1="158.032" y1="143.638" x2="160.758" y2="145.833" class="gray" /></g>
<g><line x1="164.37" y1="147.056" x2="168.07" y2="146.965" class="gray" /></g>
<g><line x1="171.746" y1="148.103" x2="174.594" y2="150.158" class="gray" /></g>
<g><line x1="176.831" y1="153.288" x2="177.849" y2="156.633" class="gray" /></g>
<g><line x1="177.69" y1="160.462" x2="176.37" y2="163.779" class="gray" /></g>
<g><line x1="173.943" y1="166.81" x2="171.337" y2="168.59" class="gray" /></g>
<g><line x1="167.636" y1="169.573" x2="163.944" y2="169.278" class="gray" /></g>
<g><line x1="160.409" y1="167.76" x2="157.801" y2="165.421" class="gray" /></g>
<g><line x1="155.909" y1="162.071" x2="155.251" y2="158.63" class="gray" /></g>
<g><line x1="153.288" y1="155.363" x2="150.562" y2="153.168" class="gray" /></g>
<g><line x1="147.398" y1="150.623" x2="144.672" y2="148.428" class="gray" /></g>
<g><line x1="141.489" y1="145.907" x2="138.601" y2="143.654" class="gray" /></g>
<g><line x1="135.441" y1="141.105" x2="132.879" y2="138.966" class="gray" /></g>
<g><line x1="129.488" y1="138.541" x2="126.332" y2="140.05" class="gray" /></g>
<g><line x1="124.5" y1="142.956" x2="124.5" y2="146.455" class="gray" /></g>
<g><line x1="124.444" y1="150.515" x2="124.346" y2="154.016" class="gray" /></g>
<g><line x1="124.29" y1="158.076" x2="124.29" y2="161.575" class="gray" /></g>
<g><line x1="124.29" y1="165.636" x2="124.29" y2="169.135" class="gray" /></g>
<g><line x1="124.29" y1="173.196" x2="124.29" y2="176.695" class="gray" /></g>
<g><line x1="124.346" y1="180.755" x2="124.444" y2="184.256" class="gray" /></g>
<g><line x1="125.907" y1="187.75" x2="128.333" y2="190.275" class="gray" /></g>
<g><line x1="128.334" y1="193.204" x2="125.909" y2="195.731" class="gray" /></g>
</svg>
