<svg
	xmlns="http://www.w3.org/2000/svg"
	width="273.02"
	height="276.4">
<g><style type="text/css" >
<!-- create color definitions -->
<![CDATA[
circle.red {stroke: rgb(255, 0, 255); fill: none; }
circle.green {stroke: rgb(0, 255, 0); fill: none; }
circle.blue {stroke: rgb(0, 0, 255); fill: none; }
circle.black {stroke: rgb(0, 0, 0); fill: none; }
circle.gray {stroke: rgb(204, 204, 204); fill: none; }
circle.brown {stroke: rgb(211.65, 104.55, 30.6); fill: none; }
line.red {stroke: rgb(255, 0, 255); stroke-width: 0.381074; }
line.green {stroke: rgb(0, 255, 0); stroke-width: 0.381074; }
line.blue {stroke: rgb(0, 0, 255); stroke-width: 0.381074; }
line.black {stroke: rgb(0, 0, 0); stroke-width: 0.381074; }
line.gray {stroke: rgb(204, 204, 204); stroke-width: 0.381074; }
line.brown {stroke: rgb(211.65, 104.55, 30.6); stroke-width: 0.381074; }
line {stroke: rgb(0, 0, 0); }
text.red {fill: rgb(255, 0, 255); font-size: 3.048593px; font-weight: bold; font-family: Helvetica; }
text.green {fill: rgb(0, 255, 0); font-size: 3.048593px; font-weight: bold; font-family: Helvetica; }
text.blue {fill: rgb(0, 0, 255); font-size: 3.048593px; font-weight: bold; font-family: Helvetica; }
text.black {fill: rgb(0, 0, 0); font-size: 3.048593px; font-weight: bold; font-family: Helvetica; }
text.gray {fill: rgb(204, 204, 204); font-size: 3.048593px; font-weight: bold; font-family: Helvetica; }
text.brown {fill: rgb(211.65, 104.55, 30.6); font-size: 3.048593px; font-weight: bold; font-family: Helvetica; }
text {fill: rgb(0, 0, 0); font-size: 3.048593px; font-weight: bold; font-family: Helvetica; text-anchor: middle; alignment-baseline: middle; }

.pseudoknot_connection{stroke-linecap: round; stroke-opacity: 0.2; stroke-width: 1.5; }
.pseudoknot_segment1{stroke-linecap: round; stroke-opacity: 0.4; stroke-width: 3.04859; }
.pseudoknot_segment2{stroke-linecap: round; stroke-opacity: 0.4; stroke-width: 3.04859; }
line.numbering-line{stroke: rgb(204, 204, 204); stroke-width: 0.190537; }
line.predicted{stroke: rgb(0, 0, 0); stroke-dasharray: 2; }
polyline{fill: none; stroke-linejoin: round; }
template{visibility: hidden; }
text.numbering-label{fill: rgb(204, 204, 204); }
]]>
</style></g>
<g><title>0 (position.label in template: 0.5')</title><text x="114.25" y="225.45" class="green" >5'</text></g>
<g><title>1 (position.label in template: 1.A)</title><text x="121.25" y="225.45" class="black" >A</text></g>
<g><line x1="123.282" y1="225.145" x2="131.038" y2="225.145" class="black" /></g>
<g><title>2 (position.label in template: 2.U)</title><text x="121.04" y="217.89" class="green" >T</text></g>
<g><line x1="123.072" y1="217.585" x2="131.458" y2="217.585" class="black" /></g>
<g><title>3 (position.label in template: 3.C)</title><text x="121.04" y="210.33" class="black" >C</text></g>
<g><line x1="123.072" y1="210.025" x2="131.038" y2="210.025" class="black" /></g>
<g><title>4 (position.label in template: 4.U)</title><text x="121.04" y="202.77" class="green" >T</text></g>
<g><line x1="123.072" y1="202.465" x2="131.458" y2="202.465" class="black" /></g>
<g><title>5 (position.label in template: 5.U)</title><text x="121.04" y="195.21" class="green" >T</text></g>
<g><line x1="123.072" y1="194.905" x2="131.038" y2="194.905" class="black" /></g>
<g><title>6 (position.label in template: 6.A)</title><text x="121.25" y="187.64" class="green" >A</text></g>
<g><line x1="123.282" y1="187.335" x2="131.248" y2="187.335" class="black" /></g>
<g><title>7 (position.label in template: 7.U)</title><text x="121.04" y="180.08" class="green" >T</text></g>
<g><line x1="123.072" y1="179.775" x2="131.458" y2="179.775" class="black" /></g>
<g><title>8 (position.label in template: 8.C)</title><text x="121.04" y="172.52" class="black" >C</text></g>
<g><line x1="123.072" y1="172.215" x2="131.038" y2="172.215" class="black" /></g>
<g><title>9 (position.label in template: 9.A)</title><text x="114.51" y="169.09" class="black" >A</text></g>
<g><title>10 (position.label in template: 10.A)</title><text x="109.41" y="163.51" class="black" >A</text></g>
<g><text x="103.688" y="167.293" class="numbering-label sequential" >10</text></g>
<g><line x1="107.884" y1="164.519" x2="105.517" y2="166.084" class="numbering-line sequential" /></g>
<g><title>11 (position.label in template: 11.G)</title><text x="106.18" y="156.49" class="black" >G</text></g>
<g><title>12 (position.label in template: 12.A)</title><text x="106.41" y="148.94" class="black" >A</text></g>
<g><title>13 (position.label in template: 13.G)</title><text x="108.48" y="141.8" class="black" >G</text></g>
<g><line x1="109.962" y1="140.105" x2="116.038" y2="134.406" class="black" /></g>
<g><title>14 (position.label in template: 14.A)</title><text x="103.66" y="136.34" class="green" >A</text></g>
<g><line x1="105.111" y1="134.612" x2="110.839" y2="128.989" class="black" /></g>
<g><title>15 (position.label in template: 15.A)</title><text x="98.43" y="130.88" class="green" >A</text></g>
<g><line x1="99.8805" y1="129.152" x2="105.609" y2="123.529" class="black" /></g>
<g><title>16 (position.label in template: 16.G)</title><text x="92.78" y="125.43" class="black" >G</text></g>
<g><line x1="94.2623" y1="123.735" x2="100.338" y2="118.036" class="black" /></g>
<g><title>17 (position.label in template: 17.C)</title><text x="87.76" y="119.97" class="black" >C</text></g>
<g><line x1="89.2097" y1="118.241" x2="94.9303" y2="112.62" class="black" /></g>
<g><title>18 (position.label in template: 18.U)</title><text x="80.2" y="120.17" class="green" >T</text></g>
<g><title>19 (position.label in template: 19.G)</title><text x="73.46" y="116.36" class="black" >G</text></g>
<g><title>20 (position.label in template: 20.A)</title><text x="70.34" y="109.68" class="black" >A</text></g>
<g><text x="63.6303" y="111.105" class="numbering-label sequential" >20</text></g>
<g><line x1="68.5508" y1="110.06" x2="65.4595" y2="110.717" class="numbering-line sequential" /></g>
<g><title>21 (position.label in template: 21.G)</title><text x="70.44" y="102.14" class="black" >G</text></g>
<g><line x1="71.9231" y1="100.446" x2="77.9969" y2="94.7547" class="black" /></g>
<g><title>22 (position.label in template: 22.G)</title><text x="65.21" y="96.68" class="black" >G</text></g>
<g><line x1="66.6931" y1="94.9855" x2="72.7669" y2="89.2947" class="black" /></g>
<g><title>23 (position.label in template: 23.G)</title><text x="59.97" y="91.23" class="black" >G</text></g>
<g><line x1="61.4531" y1="89.5355" x2="67.5369" y2="83.8348" class="black" /></g>
<g><title>24 (position.label in template: 24.A)</title><text x="53.26" y="88.71" class="black" >A</text></g>
<g><title>25 (position.label in template: 25.C)</title><text x="50" y="81.79" class="black" >C</text></g>
<g><title>26 (position.label in template: 26.U)</title><text x="52.94" y="74.83" class="green" >T</text></g>
<g><title>27 (position.label in template: 27.G)</title><text x="59.81" y="72.18" class="black" >G</text></g>
<g><title>28 (position.label in template: 28.G)</title><text x="66.59" y="75.53" class="black" >G</text></g>
<g><title>29 (position.label in template: 29.C)</title><text x="69.02" y="82.75" class="black" >C</text></g>
<g><title>30 (position.label in template: 30.C)</title><text x="74.25" y="88.21" class="black" >C</text></g>
<g><text x="79.2035" y="83.4652" class="numbering-label sequential" >30</text></g>
<g><line x1="75.5709" y1="86.9447" x2="77.6122" y2="84.9895" class="numbering-line sequential" /></g>
<g><title>31 (position.label in template: 31.C)</title><text x="79.48" y="93.67" class="black" >C</text></g>
<g><title>32 (position.label in template: 32.G)</title><text x="84" y="87.76" class="black" >G</text></g>
<g><title>33 (position.label in template: 33.U)</title><text x="91.36" y="85.32" class="green" >T</text></g>
<g><title>34 (position.label in template: 34.C)</title><text x="98.71" y="87.11" class="black" >C</text></g>
<g><title>35 (position.label in template: 35.G)</title><text x="103.73" y="92.57" class="black" >G</text></g>
<g><title>36 (position.label in template: 36.A)</title><text x="105.63" y="99.98" class="black" >A</text></g>
<g><title>37 (position.label in template: 37.C)</title><text x="102.68" y="107.03" class="black" >C</text></g>
<g><title>38 (position.label in template: 38.G)</title><text x="96.38" y="111.5" class="black" >G</text></g>
<g><title>39 (position.label in template: 39.C)</title><text x="101.82" y="116.95" class="black" >C</text></g>
<g><title>40 (position.label in template: 40.U)</title><text x="107.06" y="122.41" class="green" >T</text></g>
<g><title>41 (position.label in template: 41.U)</title><text x="112.29" y="127.87" class="green" >T</text></g>
<g><title>42 (position.label in template: 42.C)</title><text x="117.52" y="133.32" class="black" >C</text></g>
<g><title>43 (position.label in template: 43.A)</title><text x="124.97" y="131.14" class="green" >A</text></g>
<g><line x1="126.969" y1="131.203" x2="134.801" y2="132.647" class="black" /></g>
<g><title>44 (position.label in template: 44.G)</title><text x="125.9" y="123.7" class="black" >G</text></g>
<g><line x1="127.901" y1="123.751" x2="136.149" y2="125.219" class="black" /></g>
<g><title>45 (position.label in template: 45.C)</title><text x="127.45" y="116.26" class="black" >C</text></g>
<g><line x1="129.449" y1="116.323" x2="137.291" y2="117.767" class="black" /></g>
<g><title>46 (position.label in template: 46.A)</title><text x="129.01" y="108.82" class="green" >A</text></g>
<g><line x1="131.008" y1="108.885" x2="138.852" y2="110.335" class="black" /></g>
<g><title>47 (position.label in template: 47.A)</title><text x="123.24" y="103.94" class="black" >A</text></g>
<g><title>48 (position.label in template: 48.C)</title><text x="130.15" y="101.39" class="black" >C</text></g>
<g><line x1="132.149" y1="101.453" x2="139.981" y2="102.897" class="black" /></g>
<g><title>49 (position.label in template: 49.C)</title><text x="131.5" y="93.95" class="black" >C</text></g>
<g><line x1="133.499" y1="94.0135" x2="141.331" y2="95.4568" class="black" /></g>
<g><title>50 (position.label in template: 50.A)</title><text x="129.88" y="86.61" class="black" >A</text></g>
<g><text x="123.112" y="85.4928" class="numbering-label sequential" >50</text></g>
<g><line x1="128.075" y1="86.3121" x2="124.941" y2="85.7948" class="numbering-line sequential" /></g>
<g><title>51 (position.label in template: 51.G)</title><text x="133.74" y="80.38" class="black" >G</text></g>
<g><line x1="135.741" y1="80.4309" x2="143.999" y2="81.8993" class="black" /></g>
<g><title>52 (position.label in template: 52.C)</title><text x="135.3" y="72.94" class="black" >C</text></g>
<g><line x1="137.299" y1="73.0032" x2="145.141" y2="74.4471" class="black" /></g>
<g><title>53 (position.label in template: 53.C)</title><text x="136.65" y="65.5" class="black" >C</text></g>
<g><line x1="138.649" y1="65.5635" x2="146.481" y2="67.0068" class="black" /></g>
<g><title>54 (position.label in template: 54.A)</title><text x="134.71" y="58.25" class="black" >A</text></g>
<g><title>55 (position.label in template: 55.U)</title><text x="138.31" y="51.72" class="green" >T</text></g>
<g><title>56 (position.label in template: 56.U)</title><text x="145.67" y="50" class="green" >T</text></g>
<g><title>57 (position.label in template: 57.U)</title><text x="151.97" y="54.19" class="green" >T</text></g>
<g><title>58 (position.label in template: 58.A)</title><text x="153.45" y="61.64" class="black" >A</text></g>
<g><title>59 (position.label in template: 59.G)</title><text x="148.48" y="67.68" class="black" >G</text></g>
<g><title>60 (position.label in template: 60.G)</title><text x="147.14" y="75.12" class="black" >G</text></g>
<g><title>61 (position.label in template: 61.C)</title><text x="146" y="82.56" class="black" >C</text></g>
<g><title>62 (position.label in template: 62.A)</title><text x="152.43" y="86.85" class="black" >A</text></g>
<g><title>63 (position.label in template: 63.A)</title><text x="151.08" y="94.29" class="black" >A</text></g>
<g><title>64 (position.label in template: 64.G)</title><text x="143.33" y="96.13" class="black" >G</text></g>
<g><title>65 (position.label in template: 65.G)</title><text x="141.98" y="103.57" class="black" >G</text></g>
<g><title>66 (position.label in template: 66.U)</title><text x="140.85" y="111.01" class="green" >T</text></g>
<g><title>67 (position.label in template: 67.G)</title><text x="139.29" y="118.44" class="black" >G</text></g>
<g><title>68 (position.label in template: 68.C)</title><text x="138.15" y="125.88" class="black" >C</text></g>
<g><title>69 (position.label in template: 69.U)</title><text x="136.8" y="133.32" class="green" >T</text></g>
<g><title>70 (position.label in template: 70.A)</title><text x="143.02" y="137.9" class="black" >A</text></g>
<g><title>71 (position.label in template: 71.C)</title><text x="146.84" y="144.3" class="black" >C</text></g>
<g><title>72 (position.label in template: 72.U)</title><text x="148.37" y="151.71" class="green" >T</text></g>
<g><title>73 (position.label in template: 73.U)</title><text x="147.2" y="159.18" class="green" >T</text></g>
<g><line x1="146.03" y1="160.537" x2="141.39" y2="167.124" class="black" /></g>
<g><title>74 (position.label in template: 74.C)</title><text x="153.37" y="154.81" class="black" >C</text></g>
<g><title>75 (position.label in template: 75.C)</title><text x="160.93" y="154.85" class="black" >C</text></g>
<g><title>76 (position.label in template: 76.A)</title><text x="167.25" y="159.28" class="black" >A</text></g>
<g><title>77 (position.label in template: 77.G)</title><text x="169.23" y="166.45" class="black" >G</text></g>
<g><title>78 (position.label in template: 78.C)</title><text x="167.21" y="173.68" class="black" >C</text></g>
<g><line x1="165.994" y1="175.004" x2="161.026" y2="181.657" class="black" /></g>
<g><title>79 (position.label in template: 79.A)</title><text x="173.53" y="178.11" class="green" >A</text></g>
<g><line x1="172.316" y1="179.435" x2="167.364" y2="186.085" class="black" /></g>
<g><title>80 (position.label in template: 80.G)</title><text x="179.24" y="182.55" class="black" >G</text></g>
<g><line x1="178.071" y1="183.908" x2="173.439" y2="190.493" class="black" /></g>
<g><title>81 (position.label in template: 81.U)</title><text x="185.57" y="186.98" class="green" >T</text></g>
<g><line x1="184.402" y1="188.338" x2="179.768" y2="194.932" class="black" /></g>
<g><title>82 (position.label in template: 82.A)</title><text x="191.9" y="191.42" class="green" >A</text></g>
<g><line x1="190.685" y1="192.744" x2="185.725" y2="199.396" class="black" /></g>
<g><title>83 (position.label in template: 83.U)</title><text x="197.81" y="195.86" class="green" >T</text></g>
<g><line x1="196.641" y1="197.218" x2="192.009" y2="203.803" class="black" /></g>
<g><title>84 (position.label in template: 84.G)</title><text x="204.75" y="193.37" class="black" >G</text></g>
<g><title>85 (position.label in template: 85.U)</title><text x="212.46" y="194.32" class="green" >T</text></g>
<g><title>86 (position.label in template: 86.G)</title><text x="218.54" y="198.5" class="black" >G</text></g>
<g><title>87 (position.label in template: 87.A)</title><text x="222.74" y="205.04" class="black" >A</text></g>
<g><title>88 (position.label in template: 88.U)</title><text x="223.02" y="212.59" class="green" >T</text></g>
<g><title>89 (position.label in template: 89.G)</title><text x="219.89" y="219.56" class="black" >G</text></g>
<g><title>90 (position.label in template: 90.U)</title><text x="214.38" y="224.51" class="green" >T</text></g>
<g><title>91 (position.label in template: 91.U)</title><text x="207.06" y="226.4" class="green" >T</text></g>
<g><title>92 (position.label in template: 92.G)</title><text x="199.45" y="224.84" class="black" >G</text></g>
<g><title>93 (position.label in template: 93.U)</title><text x="193.73" y="220.16" class="green" >T</text></g>
<g><title>94 (position.label in template: 94.C)</title><text x="190.49" y="213.33" class="black" >C</text></g>
<g><title>95 (position.label in template: 95.A)</title><text x="190.84" y="205.77" class="green" >A</text></g>
<g><title>96 (position.label in template: 96.U)</title><text x="184.51" y="201.33" class="green" >T</text></g>
<g><title>97 (position.label in template: 97.A)</title><text x="178.6" y="196.9" class="green" >A</text></g>
<g><title>98 (position.label in template: 98.C)</title><text x="172.27" y="192.46" class="black" >C</text></g>
<g><title>99 (position.label in template: 99.U)</title><text x="166.15" y="188.02" class="green" >T</text></g>
<g><title>100 (position.label in template: 100.G)</title><text x="159.81" y="183.59" class="black" >G</text></g>
<g><text x="158.356" y="190.293" class="numbering-label sequential" >100</text></g>
<g><line x1="159.422" y1="185.378" x2="158.686" y2="188.769" class="numbering-line sequential" /></g>
<g><title>101 (position.label in template: 101.A)</title><text x="152.83" y="185.13" class="black" >A</text></g>
<g><title>102 (position.label in template: 102.A)</title><text x="145.73" y="182.55" class="black" >A</text></g>
<g><title>103 (position.label in template: 103.A)</title><text x="141.06" y="176.6" class="black" >A</text></g>
<g><title>104 (position.label in template: 104.A)</title><text x="140.22" y="169.09" class="green" >A</text></g>
<g><title>105 (position.label in template: 105.G)</title><text x="133.07" y="172.52" class="black" >G</text></g>
<g><title>106 (position.label in template: 106.A)</title><text x="133.49" y="180.08" class="green" >A</text></g>
<g><title>107 (position.label in template: 107.U)</title><text x="133.28" y="187.64" class="green" >T</text></g>
<g><title>108 (position.label in template: 108.G)</title><text x="133.07" y="195.21" class="green" >G</text></g>
<g><title>109 (position.label in template: 109.A)</title><text x="133.49" y="202.77" class="green" >A</text></g>
<g><title>110 (position.label in template: 110.G)</title><text x="133.07" y="210.33" class="black" >G</text></g>
<g><title>111 (position.label in template: 111.A)</title><text x="133.49" y="217.89" class="green" >A</text></g>
<g><title>112 (position.label in template: 112.G)</title><text x="133.07" y="225.45" class="black" >G</text></g>
<g><title>113 (position.label in template: 113.3')</title><text x="140.07" y="225.45" class="green" >3'</text></g>
<g><line x1="116.282" y1="225.145" x2="119.218" y2="225.145" class="gray" /></g>
<g><line x1="121.194" y1="223.114" x2="121.096" y2="219.617" class="gray" /></g>
<g><line x1="121.04" y1="215.553" x2="121.04" y2="212.058" class="gray" /></g>
<g><line x1="121.04" y1="207.993" x2="121.04" y2="204.498" class="gray" /></g>
<g><line x1="121.04" y1="200.433" x2="121.04" y2="196.938" class="gray" /></g>
<g><line x1="121.096" y1="192.874" x2="121.194" y2="189.367" class="gray" /></g>
<g><line x1="121.194" y1="185.304" x2="121.096" y2="181.807" class="gray" /></g>
<g><line x1="121.04" y1="177.743" x2="121.04" y2="174.248" class="gray" /></g>
<g><line x1="119.241" y1="171.27" x2="116.309" y2="169.73" class="gray" /></g>
<g><line x1="113.139" y1="167.285" x2="110.781" y2="164.705" class="gray" /></g>
<g><line x1="108.56" y1="161.359" x2="107.03" y2="158.031" class="gray" /></g>
<g><line x1="106.242" y1="154.154" x2="106.348" y2="150.667" class="gray" /></g>
<g><line x1="106.976" y1="146.683" x2="107.914" y2="143.447" class="gray" /></g>
<g><line x1="107.135" y1="139.971" x2="105.005" y2="137.559" class="gray" /></g>
<g><line x1="102.254" y1="134.567" x2="99.8359" y2="132.043" class="gray" /></g>
<g><line x1="96.9672" y1="129.164" x2="94.2428" y2="126.536" class="gray" /></g>
<g><line x1="91.4044" y1="123.629" x2="89.1356" y2="121.161" class="gray" /></g>
<g><line x1="85.7283" y1="119.719" x2="82.2317" y2="119.811" class="gray" /></g>
<g><line x1="78.4307" y1="118.865" x2="75.2293" y2="117.055" class="gray" /></g>
<g><line x1="72.5999" y1="114.214" x2="71.2001" y2="111.217" class="gray" /></g>
<g><line x1="70.367" y1="107.343" x2="70.413" y2="103.867" class="gray" /></g>
<g><line x1="69.0341" y1="100.367" x2="66.6159" y2="97.8428" class="gray" /></g>
<g><line x1="63.8014" y1="94.9101" x2="61.3786" y2="92.3902" class="gray" /></g>
<g><line x1="58.0674" y1="90.2106" x2="55.1626" y2="89.1197" class="gray" /></g>
<g><line x1="52.3938" y1="86.5666" x2="50.8662" y2="83.3237" class="gray" /></g>
<g><line x1="50.7908" y1="79.6129" x2="52.1492" y2="76.3974" class="gray" /></g>
<g><line x1="54.8362" y1="73.7937" x2="57.9138" y2="72.6066" class="gray" /></g>
<g><line x1="61.6321" y1="72.7754" x2="64.7679" y2="74.3248" class="gray" /></g>
<g><line x1="67.2383" y1="77.1514" x2="68.3717" y2="80.5189" class="gray" /></g>
<g><line x1="70.4259" y1="83.9128" x2="72.8441" y2="86.4374" class="gray" /></g>
<g><line x1="75.6559" y1="89.3728" x2="78.0741" y2="91.8974" class="gray" /></g>
<g><line x1="80.7147" y1="91.7508" x2="82.7653" y2="89.0695" class="gray" /></g>
<g><line x1="85.9291" y1="86.8156" x2="89.4309" y2="85.6547" class="gray" /></g>
<g><line x1="93.3347" y1="85.496" x2="96.7353" y2="86.3242" class="gray" /></g>
<g><line x1="100.086" y1="88.3013" x2="102.354" y2="90.769" class="gray" /></g>
<g><line x1="104.235" y1="94.2338" x2="105.125" y2="97.7064" class="gray" /></g>
<g><line x1="104.845" y1="101.55" x2="103.465" y2="104.85" class="gray" /></g>
<g><line x1="101.022" y1="107.901" x2="98.0376" y2="110.019" class="gray" /></g>
<g><line x1="97.8158" y1="112.634" x2="100.384" y2="115.207" class="gray" /></g>
<g><line x1="103.227" y1="118.111" x2="105.653" y2="120.639" class="gray" /></g>
<g><line x1="108.466" y1="123.573" x2="110.884" y2="126.097" class="gray" /></g>
<g><line x1="113.697" y1="129.032" x2="116.113" y2="131.549" class="gray" /></g>
<g><line x1="119.471" y1="132.444" x2="123.019" y2="131.406" class="gray" /></g>
<g><line x1="125.222" y1="128.818" x2="125.648" y2="125.412" class="gray" /></g>
<g><line x1="126.315" y1="121.405" x2="127.035" y2="117.945" class="gray" /></g>
<g><line x1="127.867" y1="113.966" x2="128.593" y2="110.504" class="gray" /></g>
<g><line x1="127.458" y1="107.203" x2="124.792" y2="104.948" class="gray" /></g>
<g><line x1="125.147" y1="102.932" x2="128.243" y2="101.789" class="gray" /></g>
<g><line x1="130.513" y1="99.0854" x2="131.137" y2="95.6449" class="gray" /></g>
<g><line x1="131.062" y1="91.6605" x2="130.318" y2="88.2898" class="gray" /></g>
<g><line x1="130.95" y1="84.5775" x2="132.67" y2="81.8028" class="gray" /></g>
<g><line x1="134.157" y1="78.086" x2="134.883" y2="74.6243" class="gray" /></g>
<g><line x1="135.663" y1="70.6354" x2="136.287" y2="67.1949" class="gray" /></g>
<g><line x1="136.125" y1="63.2318" x2="135.235" y2="59.9085" class="gray" /></g>
<g><line x1="135.691" y1="56.1653" x2="137.329" y2="53.195" class="gray" /></g>
<g><line x1="140.289" y1="50.9526" x2="143.691" y2="50.1576" class="gray" /></g>
<g><line x1="147.362" y1="50.8207" x2="150.278" y2="52.7596" class="gray" /></g>
<g><line x1="152.366" y1="55.8786" x2="153.054" y2="59.3417" class="gray" /></g>
<g><line x1="152.159" y1="62.9045" x2="149.771" y2="65.8057" class="gray" /></g>
<g><line x1="148.12" y1="69.3754" x2="147.5" y2="72.8149" class="gray" /></g>
<g><line x1="146.832" y1="76.8241" x2="146.308" y2="80.2462" class="gray" /></g>
<g><line x1="147.691" y1="83.3831" x2="150.739" y2="85.4172" class="gray" /></g>
<g><line x1="152.067" y1="88.5449" x2="151.443" y2="91.9854" class="gray" /></g>
<g><line x1="149.103" y1="94.4546" x2="145.307" y2="95.3557" class="gray" /></g>
<g><line x1="142.967" y1="97.8249" x2="142.343" y2="101.265" class="gray" /></g>
<g><line x1="141.675" y1="105.274" x2="141.155" y2="108.696" class="gray" /></g>
<g><line x1="140.432" y1="112.694" x2="139.708" y2="116.146" class="gray" /></g>
<g><line x1="138.982" y1="120.144" x2="138.458" y2="123.566" class="gray" /></g>
<g><line x1="137.787" y1="127.575" x2="137.163" y2="131.015" class="gray" /></g>
<g><line x1="138.437" y1="134.22" x2="141.383" y2="136.39" class="gray" /></g>
<g><line x1="144.062" y1="139.34" x2="145.798" y2="142.25" class="gray" /></g>
<g><line x1="147.251" y1="145.986" x2="147.959" y2="149.415" class="gray" /></g>
<g><line x1="148.056" y1="153.413" x2="147.514" y2="156.867" class="gray" /></g>
<g><line x1="148.859" y1="157.7" x2="151.711" y2="155.68" class="gray" /></g>
<g><line x1="155.402" y1="154.516" x2="158.898" y2="154.534" class="gray" /></g>
<g><line x1="162.594" y1="155.712" x2="165.586" y2="157.809" class="gray" /></g>
<g><line x1="167.791" y1="160.934" x2="168.689" y2="164.186" class="gray" /></g>
<g><line x1="168.683" y1="168.103" x2="167.757" y2="171.418" class="gray" /></g>
<g><line x1="168.874" y1="174.542" x2="171.866" y2="176.639" class="gray" /></g>
<g><line x1="175.134" y1="179.053" x2="177.636" y2="180.998" class="gray" /></g>
<g><line x1="180.905" y1="183.41" x2="183.905" y2="185.51" class="gray" /></g>
<g><line x1="187.234" y1="187.842" x2="190.236" y2="189.948" class="gray" /></g>
<g><line x1="193.525" y1="192.336" x2="196.185" y2="194.334" class="gray" /></g>
<g><line x1="199.723" y1="194.869" x2="202.837" y2="193.752" class="gray" /></g>
<g><line x1="206.767" y1="193.314" x2="210.443" y2="193.767" class="gray" /></g>
<g><line x1="214.135" y1="195.167" x2="216.865" y2="197.044" class="gray" /></g>
<g><line x1="219.638" y1="199.905" x2="221.642" y2="203.025" class="gray" /></g>
<g><line x1="222.815" y1="206.766" x2="222.945" y2="210.254" class="gray" /></g>
<g><line x1="222.187" y1="214.139" x2="220.723" y2="217.401" class="gray" /></g>
<g><line x1="218.378" y1="220.613" x2="215.892" y2="222.847" class="gray" /></g>
<g><line x1="212.412" y1="224.713" x2="209.028" y2="225.587" class="gray" /></g>
<g><line x1="205.069" y1="225.687" x2="201.441" y2="224.943" class="gray" /></g>
<g><line x1="197.877" y1="223.248" x2="195.303" y2="221.142" class="gray" /></g>
<g><line x1="192.859" y1="218.019" x2="191.361" y2="214.861" class="gray" /></g>
<g><line x1="190.584" y1="210.995" x2="190.746" y2="207.495" class="gray" /></g>
<g><line x1="189.176" y1="204.298" x2="186.174" y2="202.192" class="gray" /></g>
<g><line x1="182.884" y1="199.806" x2="180.226" y2="197.814" class="gray" /></g>
<g><line x1="176.936" y1="195.428" x2="173.934" y2="193.322" class="gray" /></g>
<g><line x1="170.625" y1="190.962" x2="167.795" y2="188.909" class="gray" /></g>
<g><line x1="164.484" y1="186.551" x2="161.476" y2="184.449" class="gray" /></g>
<g><line x1="157.825" y1="183.723" x2="154.815" y2="184.387" class="gray" /></g>
<g><line x1="150.92" y1="184.131" x2="147.64" y2="182.939" class="gray" /></g>
<g><line x1="144.475" y1="180.646" x2="142.315" y2="177.894" class="gray" /></g>
<g><line x1="140.834" y1="174.275" x2="140.446" y2="170.805" class="gray" /></g>
<g><line x1="138.388" y1="169.664" x2="134.902" y2="171.336" class="gray" /></g>
<g><line x1="133.183" y1="174.244" x2="133.377" y2="177.746" class="gray" /></g>
<g><line x1="133.434" y1="181.807" x2="133.336" y2="185.304" class="gray" /></g>
<g><line x1="133.224" y1="189.367" x2="133.126" y2="192.874" class="gray" /></g>
<g><line x1="133.183" y1="196.934" x2="133.377" y2="200.436" class="gray" /></g>
<g><line x1="133.377" y1="204.494" x2="133.183" y2="207.996" class="gray" /></g>
<g><line x1="133.183" y1="212.054" x2="133.377" y2="215.556" class="gray" /></g>
<g><line x1="133.377" y1="219.614" x2="133.183" y2="223.116" class="gray" /></g>
<g><line x1="135.102" y1="225.145" x2="138.038" y2="225.145" class="gray" /></g>
</svg>
