<svg
	xmlns="http://www.w3.org/2000/svg"
	width="297.521"
	height="277.792">
<g><style type="text/css" >
<!-- create color definitions -->
<![CDATA[
circle.red {stroke: rgb(255, 0, 255); fill: none; }
circle.green {stroke: rgb(0, 255, 0); fill: none; }
circle.blue {stroke: rgb(0, 0, 255); fill: none; }
circle.black {stroke: rgb(0, 0, 0); fill: none; }
circle.gray {stroke: rgb(204, 204, 204); fill: none; }
circle.brown {stroke: rgb(211.65, 104.55, 30.6); fill: none; }
line.red {stroke: rgb(255, 0, 255); stroke-width: 0.382381; }
line.green {stroke: rgb(0, 255, 0); stroke-width: 0.382381; }
line.blue {stroke: rgb(0, 0, 255); stroke-width: 0.382381; }
line.black {stroke: rgb(0, 0, 0); stroke-width: 0.382381; }
line.gray {stroke: rgb(204, 204, 204); stroke-width: 0.382381; }
line.brown {stroke: rgb(211.65, 104.55, 30.6); stroke-width: 0.382381; }
line {stroke: rgb(0, 0, 0); }
text.red {fill: rgb(255, 0, 255); font-size: 3.059048px; font-weight: bold; font-family: Helvetica; }
text.green {fill: rgb(0, 255, 0); font-size: 3.059048px; font-weight: bold; font-family: Helvetica; }
text.blue {fill: rgb(0, 0, 255); font-size: 3.059048px; font-weight: bold; font-family: Helvetica; }
text.black {fill: rgb(0, 0, 0); font-size: 3.059048px; font-weight: bold; font-family: Helvetica; }
text.gray {fill: rgb(204, 204, 204); font-size: 3.059048px; font-weight: bold; font-family: Helvetica; }
text.brown {fill: rgb(211.65, 104.55, 30.6); font-size: 3.059048px; font-weight: bold; font-family: Helvetica; }
text {fill: rgb(0, 0, 0); font-size: 3.059048px; font-weight: bold; font-family: Helvetica; text-anchor: middle; alignment-baseline: middle; }

.pseudoknot_connection{stroke-linecap: round; stroke-opacity: 0.2; stroke-width: 1.5; }
.pseudoknot_segment1{stroke-linecap: round; stroke-opacity: 0.4; stroke-width: 3.05905; }
.pseudoknot_segment2{stroke-linecap: round; stroke-opacity: 0.4; stroke-width: 3.05905; }
line.numbering-line{stroke: rgb(204, 204, 204); stroke-width: 0.191191; }
line.predicted{stroke: rgb(0, 0, 0); stroke-dasharray: 2; }
polyline{fill: none; stroke-linejoin: round; }
template{visibility: hidden; }
text.numbering-label{fill: rgb(204, 204, 204); }
]]>
</style></g>
<g><title>0 (position.label in template: 0.5')</title><text x="42.4246" y="227.792" class="green" >5'</text></g>
<g><title>1 (position.label in template: 1.C)</title><text x="50" y="227.792" class="black" >C</text></g>
<g><title>2 (position.label in template: 2.A)</title><text x="57.5754" y="227.792" class="black" >A</text></g>
<g><title>3 (position.label in template: 3.U)</title><text x="65.1508" y="227.792" class="green" >T</text></g>
<g><title>4 (position.label in template: 4.U)</title><text x="72.7261" y="227.792" class="green" >T</text></g>
<g><title>5 (position.label in template: 5.G)</title><text x="80.3015" y="227.792" class="black" >G</text></g>
<g><title>6 (position.label in template: 6.G)</title><text x="87.8769" y="227.792" class="black" >G</text></g>
<g><title>7 (position.label in template: 7.C)</title><text x="95.4523" y="227.792" class="black" >C</text></g>
<g><title>8 (position.label in template: 8.A)</title><text x="103.028" y="227.792" class="black" >A</text></g>
<g><title>9 (position.label in template: 9.A)</title><text x="110.603" y="227.792" class="black" >A</text></g>
<g><title>10 (position.label in template: 10.A)</title><text x="118.178" y="227.792" class="black" >A</text></g>
<g><text x="118.178" y="234.674" class="numbering-label sequential" >10</text></g>
<g><line x1="118.178" y1="229.627" x2="118.178" y2="233.145" class="numbering-line sequential" /></g>
<g><title>11 (position.label in template: 11.A)</title><text x="125.754" y="227.792" class="black" >A</text></g>
<g><title>12 (position.label in template: 12.U)</title><text x="133.329" y="227.792" class="green" >T</text></g>
<g><title>13 (position.label in template: 13.C)</title><text x="138.691" y="222.44" class="black" >C</text></g>
<g><line x1="140.73" y1="222.134" x2="148.681" y2="222.134" class="black" /></g>
<g><title>14 (position.label in template: 14.U)</title><text x="138.691" y="214.88" class="green" >T</text></g>
<g><line x1="140.73" y1="214.574" x2="148.681" y2="214.574" class="black" /></g>
<g><title>15 (position.label in template: 15.U)</title><text x="138.691" y="207.32" class="green" >T</text></g>
<g><line x1="140.73" y1="207.014" x2="149.101" y2="207.014" class="black" /></g>
<g><title>16 (position.label in template: 16.A)</title><text x="138.901" y="199.76" class="black" >A</text></g>
<g><line x1="140.94" y1="199.454" x2="149.101" y2="199.454" class="black" /></g>
<g><title>17 (position.label in template: 17.U)</title><text x="138.691" y="192.2" class="green" >T</text></g>
<g><line x1="140.73" y1="191.894" x2="148.681" y2="191.894" class="black" /></g>
<g><title>18 (position.label in template: 18.C)</title><text x="138.691" y="184.64" class="black" >C</text></g>
<g><line x1="140.73" y1="184.334" x2="148.681" y2="184.334" class="black" /></g>
<g><title>19 (position.label in template: 19.C)</title><text x="138.691" y="177.08" class="black" >C</text></g>
<g><line x1="140.73" y1="176.774" x2="148.681" y2="176.774" class="black" /></g>
<g><title>20 (position.label in template: 20.C)</title><text x="138.691" y="169.52" class="black" >C</text></g>
<g><line x1="140.73" y1="169.214" x2="149.101" y2="169.214" class="black" /></g>
<g><text x="131.808" y="169.52" class="numbering-label sequential" >20</text></g>
<g><line x1="136.855" y1="169.52" x2="133.643" y2="169.52" class="numbering-line sequential" /></g>
<g><title>21 (position.label in template: 21.U)</title><text x="138.691" y="161.96" class="green" >T</text></g>
<g><line x1="140.73" y1="161.654" x2="148.891" y2="161.654" class="black" /></g>
<g><title>22 (position.label in template: 22.A)</title><text x="131.871" y="159.17" class="green" >A</text></g>
<g><line x1="130.368" y1="157.485" x2="124.243" y2="151.863" class="black" /></g>
<g><title>23 (position.label in template: 23.C)</title><text x="126.481" y="164.68" class="black" >C</text></g>
<g><line x1="124.979" y1="162.994" x2="118.862" y2="157.374" class="black" /></g>
<g><title>24 (position.label in template: 24.C)</title><text x="121.311" y="170.19" class="black" >C</text></g>
<g><line x1="119.809" y1="168.504" x2="113.682" y2="162.874" class="black" /></g>
<g><title>25 (position.label in template: 25.U)</title><text x="120.921" y="177.74" class="green" >T</text></g>
<g><title>26 (position.label in template: 26.C)</title><text x="116.041" y="183.51" class="black" >C</text></g>
<g><title>27 (position.label in template: 27.C)</title><text x="108.661" y="185.16" class="black" >C</text></g>
<g><title>28 (position.label in template: 28.U)</title><text x="101.791" y="182.01" class="green" >T</text></g>
<g><title>29 (position.label in template: 29.C)</title><text x="98.2208" y="175.35" class="black" >C</text></g>
<g><title>30 (position.label in template: 30.G)</title><text x="99.2008" y="167.88" class="black" >G</text></g>
<g><text x="93.1063" y="164.681" class="numbering-label sequential" >30</text></g>
<g><line x1="97.5756" y1="167.027" x2="94.9417" y2="165.645" class="numbering-line sequential" /></g>
<g><title>31 (position.label in template: 31.U)</title><text x="104.881" y="162.66" class="green" >T</text></g>
<g><title>32 (position.label in template: 32.G)</title><text x="112.181" y="161.8" class="black" >G</text></g>
<g><title>33 (position.label in template: 33.G)</title><text x="117.361" y="156.3" class="black" >G</text></g>
<g><title>34 (position.label in template: 34.U)</title><text x="122.741" y="150.79" class="green" >T</text></g>
<g><title>35 (position.label in template: 35.G)</title><text x="119.321" y="143.94" class="black" >G</text></g>
<g><title>36 (position.label in template: 36.C)</title><text x="118.391" y="136.47" class="black" >C</text></g>
<g><title>37 (position.label in template: 37.U)</title><text x="119.411" y="128.98" class="green" >T</text></g>
<g><title>38 (position.label in template: 38.G)</title><text x="122.301" y="122.09" class="black" >G</text></g>
<g><title>39 (position.label in template: 39.G)</title><text x="127.221" y="116.35" class="black" >G</text></g>
<g><title>40 (position.label in template: 40.C)</title><text x="133.781" y="112.24" class="black" >C</text></g>
<g><title>41 (position.label in template: 41.G)</title><text x="140.821" y="110.1" class="black" >G</text></g>
<g><title>42 (position.label in template: 42.G)</title><text x="148.381" y="110.1" class="black" >G</text></g>
<g><title>43 (position.label in template: 43.A)</title><text x="156.051" y="112.24" class="black" >A</text></g>
<g><title>44 (position.label in template: 44.U)</title><text x="162.191" y="116.35" class="green" >T</text></g>
<g><line x1="163.397" y1="117.689" x2="168.295" y2="124.369" class="black" /></g>
<g><title>45 (position.label in template: 45.A)</title><text x="159.451" y="109.39" class="black" >A</text></g>
<g><title>46 (position.label in template: 46.G)</title><text x="157.281" y="102.03" class="black" >G</text></g>
<g><title>47 (position.label in template: 47.G)</title><text x="156.781" y="94.49" class="black" >G</text></g>
<g><title>48 (position.label in template: 48.G)</title><text x="157.541" y="86.97" class="black" >G</text></g>
<g><title>49 (position.label in template: 49.C)</title><text x="159.751" y="79.68" class="black" >C</text></g>
<g><title>50 (position.label in template: 50.A)</title><text x="163.141" y="72.82" class="black" >A</text></g>
<g><text x="157.163" y="69.4086" class="numbering-label sequential" >50</text></g>
<g><line x1="161.547" y1="71.9103" x2="158.998" y2="70.456" class="numbering-line sequential" /></g>
<g><title>51 (position.label in template: 51.U)</title><text x="167.221" y="66.59" class="green" >T</text></g>
<g><title>52 (position.label in template: 52.G)</title><text x="172.261" y="61.15" class="black" >G</text></g>
<g><title>53 (position.label in template: 53.C)</title><text x="178.561" y="56.67" class="black" >C</text></g>
<g><title>54 (position.label in template: 54.U)</title><text x="185.301" y="53.26" class="green" >T</text></g>
<g><title>55 (position.label in template: 55.G)</title><text x="192.321" y="51.02" class="black" >G</text></g>
<g><title>56 (position.label in template: 56.A)</title><text x="200.221" y="50" class="black" >A</text></g>
<g><title>57 (position.label in template: 57.G)</title><text x="207.361" y="50.25" class="black" >G</text></g>
<g><title>58 (position.label in template: 58.U)</title><text x="214.981" y="51.76" class="green" >T</text></g>
<g><title>59 (position.label in template: 59.C)</title><text x="222.041" y="54.47" class="black" >C</text></g>
<g><title>60 (position.label in template: 60.U)</title><text x="228.551" y="58.32" class="green" >T</text></g>
<g><title>61 (position.label in template: 61.C)</title><text x="234.321" y="63.19" class="black" >C</text></g>
<g><title>62 (position.label in template: 62.A)</title><text x="239.421" y="68.96" class="black" >A</text></g>
<g><title>63 (position.label in template: 63.C)</title><text x="243.071" y="75.46" class="black" >C</text></g>
<g><title>64 (position.label in template: 64.U)</title><text x="245.791" y="82.51" class="green" >T</text></g>
<g><title>65 (position.label in template: 65.A)</title><text x="247.521" y="89.92" class="black" >A</text></g>
<g><title>66 (position.label in template: 66.G)</title><text x="247.361" y="97.47" class="black" >G</text></g>
<g><title>67 (position.label in template: 67.C)</title><text x="246.581" y="104.97" class="black" >C</text></g>
<g><title>68 (position.label in template: 68.U)</title><text x="244.351" y="112.19" class="green" >T</text></g>
<g><title>69 (position.label in template: 69.C)</title><text x="240.951" y="118.95" class="black" >C</text></g>
<g><title>70 (position.label in template: 70.A)</title><text x="236.681" y="125.04" class="black" >A</text></g>
<g><title>71 (position.label in template: 71.G)</title><text x="230.841" y="130.31" class="black" >G</text></g>
<g><title>72 (position.label in template: 72.U)</title><text x="224.831" y="134.6" class="green" >T</text></g>
<g><title>73 (position.label in template: 73.A)</title><text x="218.181" y="137.79" class="black" >A</text></g>
<g><title>74 (position.label in template: 74.U)</title><text x="210.691" y="139.8" class="green" >T</text></g>
<g><title>75 (position.label in template: 75.G)</title><text x="202.961" y="140.58" class="black" >G</text></g>
<g><title>76 (position.label in template: 76.C)</title><text x="195.621" y="140.09" class="black" >C</text></g>
<g><title>77 (position.label in template: 77.C)</title><text x="188.261" y="138.36" class="black" >C</text></g>
<g><title>78 (position.label in template: 78.U)</title><text x="181.301" y="135.42" class="green" >T</text></g>
<g><title>79 (position.label in template: 79.G)</title><text x="174.701" y="131.37" class="black" >G</text></g>
<g><title>80 (position.label in template: 80.A)</title><text x="169.501" y="126.32" class="green" >A</text></g>
<g><title>81 (position.label in template: 81.A)</title><text x="171.311" y="133.66" class="black" >A</text></g>
<g><title>82 (position.label in template: 82.C)</title><text x="170.761" y="141.21" class="black" >C</text></g>
<g><title>83 (position.label in template: 83.U)</title><text x="168.301" y="148.35" class="green" >T</text></g>
<g><title>84 (position.label in template: 84.A)</title><text x="164.121" y="154.51" class="black" >A</text></g>
<g><title>85 (position.label in template: 85.A)</title><text x="158.171" y="159.17" class="black" >A</text></g>
<g><title>86 (position.label in template: 86.C)</title><text x="150.931" y="161.96" class="green" >C</text></g>
<g><title>87 (position.label in template: 87.A)</title><text x="151.141" y="169.52" class="black" >A</text></g>
<g><title>88 (position.label in template: 88.G)</title><text x="150.721" y="177.08" class="black" >G</text></g>
<g><title>89 (position.label in template: 89.G)</title><text x="150.721" y="184.64" class="black" >G</text></g>
<g><title>90 (position.label in template: 90.G)</title><text x="150.721" y="192.2" class="green" >G</text></g>
<g><title>91 (position.label in template: 91.A)</title><text x="151.141" y="199.76" class="black" >A</text></g>
<g><title>92 (position.label in template: 92.A)</title><text x="151.141" y="207.32" class="green" >A</text></g>
<g><title>93 (position.label in template: 93.G)</title><text x="150.721" y="214.88" class="green" >G</text></g>
<g><title>94 (position.label in template: 94.G)</title><text x="150.721" y="222.44" class="black" >G</text></g>
<g><title>95 (position.label in template: 95.3')</title><text x="157.961" y="220.212" class="green" >3'</text></g>
<g><line x1="44.464" y1="227.486" x2="47.9606" y2="227.486" class="gray" /></g>
<g><line x1="52.0394" y1="227.486" x2="55.536" y2="227.486" class="gray" /></g>
<g><line x1="59.6147" y1="227.486" x2="63.1114" y2="227.486" class="gray" /></g>
<g><line x1="67.1901" y1="227.486" x2="70.6868" y2="227.486" class="gray" /></g>
<g><line x1="74.7655" y1="227.486" x2="78.2622" y2="227.486" class="gray" /></g>
<g><line x1="82.3409" y1="227.486" x2="85.8375" y2="227.486" class="gray" /></g>
<g><line x1="89.9163" y1="227.486" x2="93.4129" y2="227.486" class="gray" /></g>
<g><line x1="97.4916" y1="227.486" x2="100.988" y2="227.486" class="gray" /></g>
<g><line x1="105.067" y1="227.486" x2="108.564" y2="227.486" class="gray" /></g>
<g><line x1="112.642" y1="227.486" x2="116.139" y2="227.486" class="gray" /></g>
<g><line x1="120.218" y1="227.486" x2="123.714" y2="227.486" class="gray" /></g>
<g><line x1="127.793" y1="227.486" x2="131.29" y2="227.486" class="gray" /></g>
<g><line x1="134.773" y1="226.045" x2="137.247" y2="223.575" class="gray" /></g>
<g><line x1="138.691" y1="220.095" x2="138.691" y2="216.613" class="gray" /></g>
<g><line x1="138.691" y1="212.535" x2="138.691" y2="209.053" class="gray" /></g>
<g><line x1="138.747" y1="204.976" x2="138.844" y2="201.493" class="gray" /></g>
<g><line x1="138.844" y1="197.416" x2="138.747" y2="193.933" class="gray" /></g>
<g><line x1="138.691" y1="189.855" x2="138.691" y2="186.373" class="gray" /></g>
<g><line x1="138.691" y1="182.295" x2="138.691" y2="178.813" class="gray" /></g>
<g><line x1="138.691" y1="174.735" x2="138.691" y2="171.253" class="gray" /></g>
<g><line x1="138.691" y1="167.175" x2="138.691" y2="163.693" class="gray" /></g>
<g><line x1="136.803" y1="160.882" x2="133.758" y2="159.636" class="gray" /></g>
<g><line x1="130.445" y1="160.322" x2="127.907" y2="162.916" class="gray" /></g>
<g><line x1="125.085" y1="165.861" x2="122.706" y2="168.397" class="gray" /></g>
<g><line x1="121.206" y1="171.921" x2="121.026" y2="175.397" class="gray" /></g>
<g><line x1="119.604" y1="178.991" x2="117.358" y2="181.647" class="gray" /></g>
<g><line x1="114.051" y1="183.649" x2="110.651" y2="184.409" class="gray" /></g>
<g><line x1="106.807" y1="184.004" x2="103.645" y2="182.554" class="gray" /></g>
<g><line x1="100.827" y1="179.907" x2="99.1843" y2="176.842" class="gray" /></g>
<g><line x1="98.4861" y1="173.022" x2="98.9355" y2="169.596" class="gray" /></g>
<g><line x1="100.702" y1="166.194" x2="103.379" y2="163.734" class="gray" /></g>
<g><line x1="106.906" y1="162.115" x2="110.155" y2="161.733" class="gray" /></g>
<g><line x1="113.579" y1="160.01" x2="115.963" y2="157.479" class="gray" /></g>
<g><line x1="118.786" y1="154.535" x2="121.316" y2="151.943" class="gray" /></g>
<g><line x1="121.83" y1="148.659" x2="120.232" y2="145.459" class="gray" /></g>
<g><line x1="119.069" y1="141.61" x2="118.643" y2="138.188" class="gray" /></g>
<g><line x1="118.666" y1="134.143" x2="119.136" y2="130.695" class="gray" /></g>
<g><line x1="120.2" y1="126.793" x2="121.512" y2="123.665" class="gray" /></g>
<g><line x1="123.628" y1="120.236" x2="125.894" y2="117.592" class="gray" /></g>
<g><line x1="128.949" y1="114.961" x2="132.053" y2="113.017" class="gray" /></g>
<g><line x1="135.732" y1="111.341" x2="138.87" y2="110.387" class="gray" /></g>
<g><line x1="142.86" y1="109.794" x2="146.341" y2="109.794" class="gray" /></g>
<g><line x1="150.345" y1="110.342" x2="154.086" y2="111.386" class="gray" /></g>
<g><line x1="157.746" y1="113.069" x2="160.496" y2="114.91" class="gray" /></g>
<g><line x1="161.444" y1="114.146" x2="160.198" y2="110.982" class="gray" /></g>
<g><line x1="158.874" y1="107.128" x2="157.858" y2="103.68" class="gray" /></g>
<g><line x1="157.146" y1="99.6892" x2="156.916" y2="96.219" class="gray" /></g>
<g><line x1="156.986" y1="92.1551" x2="157.336" y2="88.6931" class="gray" /></g>
<g><line x1="158.132" y1="84.7124" x2="159.159" y2="81.3258" class="gray" /></g>
<g><line x1="160.654" y1="77.5458" x2="162.237" y2="74.3424" class="gray" /></g>
<g><line x1="164.258" y1="70.808" x2="166.103" y2="67.9902" class="gray" /></g>
<g><line x1="168.607" y1="64.7881" x2="170.875" y2="62.3401" class="gray" /></g>
<g><line x1="173.923" y1="59.6622" x2="176.899" y2="57.546" class="gray" /></g>
<g><line x1="180.381" y1="55.4434" x2="183.481" y2="53.8748" class="gray" /></g>
<g><line x1="187.244" y1="52.3342" x2="190.378" y2="51.334" class="gray" /></g>
<g><line x1="194.343" y1="50.453" x2="198.198" y2="49.9552" class="gray" /></g>
<g><line x1="202.259" y1="49.7655" x2="205.323" y2="49.8727" class="gray" /></g>
<g><line x1="209.361" y1="50.3405" x2="212.98" y2="51.0577" class="gray" /></g>
<g><line x1="216.885" y1="52.1849" x2="220.137" y2="53.4333" class="gray" /></g>
<g><line x1="223.796" y1="55.2022" x2="226.795" y2="56.976" class="gray" /></g>
<g><line x1="230.109" y1="59.3295" x2="232.762" y2="61.5687" class="gray" /></g>
<g><line x1="235.671" y1="64.4121" x2="238.07" y2="67.1261" class="gray" /></g>
<g><line x1="240.419" y1="70.4323" x2="242.072" y2="73.3759" class="gray" /></g>
<g><line x1="243.805" y1="77.0568" x2="245.057" y2="80.3014" class="gray" /></g>
<g><line x1="246.254" y1="84.1901" x2="247.057" y2="87.6281" class="gray" /></g>
<g><line x1="247.478" y1="91.653" x2="247.404" y2="95.1252" class="gray" /></g>
<g><line x1="247.15" y1="99.1925" x2="246.792" y2="102.636" class="gray" /></g>
<g><line x1="245.979" y1="106.613" x2="244.953" y2="109.936" class="gray" /></g>
<g><line x1="243.434" y1="113.706" x2="241.867" y2="116.822" class="gray" /></g>
<g><line x1="239.78" y1="120.314" x2="237.852" y2="123.064" class="gray" /></g>
<g><line x1="235.167" y1="126.1" x2="232.355" y2="128.638" class="gray" /></g>
<g><line x1="229.181" y1="131.189" x2="226.491" y2="133.109" class="gray" /></g>
<g><line x1="222.992" y1="135.176" x2="220.02" y2="136.602" class="gray" /></g>
<g><line x1="216.211" y1="138.013" x2="212.66" y2="138.966" class="gray" /></g>
<g><line x1="208.662" y1="139.699" x2="204.99" y2="140.069" class="gray" /></g>
<g><line x1="200.926" y1="140.138" x2="197.656" y2="139.92" class="gray" /></g>
<g><line x1="193.636" y1="139.317" x2="190.246" y2="138.521" class="gray" /></g>
<g><line x1="186.382" y1="137.261" x2="183.179" y2="135.908" class="gray" /></g>
<g><line x1="179.563" y1="134.047" x2="176.439" y2="132.131" class="gray" /></g>
<g><line x1="173.238" y1="129.643" x2="170.964" y2="127.435" class="gray" /></g>
<g><line x1="169.989" y1="127.994" x2="170.823" y2="131.374" class="gray" /></g>
<g><line x1="171.163" y1="135.388" x2="170.909" y2="138.87" class="gray" /></g>
<g><line x1="170.096" y1="142.832" x2="168.965" y2="146.116" class="gray" /></g>
<g><line x1="167.156" y1="149.732" x2="165.266" y2="152.517" class="gray" /></g>
<g><line x1="162.515" y1="155.462" x2="159.776" y2="157.607" class="gray" /></g>
<g><line x1="156.268" y1="159.597" x2="152.834" y2="160.921" class="gray" /></g>
<g><line x1="150.987" y1="163.693" x2="151.084" y2="167.176" class="gray" /></g>
<g><line x1="151.028" y1="171.25" x2="150.834" y2="174.738" class="gray" /></g>
<g><line x1="150.721" y1="178.813" x2="150.721" y2="182.295" class="gray" /></g>
<g><line x1="150.721" y1="186.373" x2="150.721" y2="189.855" class="gray" /></g>
<g><line x1="150.834" y1="193.93" x2="151.028" y2="197.418" class="gray" /></g>
<g><line x1="151.141" y1="201.493" x2="151.141" y2="204.975" class="gray" /></g>
<g><line x1="151.028" y1="209.05" x2="150.834" y2="212.538" class="gray" /></g>
<g><line x1="150.721" y1="216.613" x2="150.721" y2="220.095" class="gray" /></g>
<g><line x1="152.67" y1="221.534" x2="156.012" y2="220.506" class="gray" /></g>
</svg>
