<svg
	xmlns="http://www.w3.org/2000/svg"
	width="208.398"
	height="255.73">
<g><style type="text/css" >
<!-- create color definitions -->
<![CDATA[
circle.red {stroke: rgb(255, 0, 255); fill: none; }
circle.green {stroke: rgb(0, 255, 0); fill: none; }
circle.blue {stroke: rgb(0, 0, 255); fill: none; }
circle.black {stroke: rgb(0, 0, 0); fill: none; }
circle.gray {stroke: rgb(204, 204, 204); fill: none; }
circle.brown {stroke: rgb(211.65, 104.55, 30.6); fill: none; }
line.red {stroke: rgb(255, 0, 255); stroke-width: 0.381563; }
line.green {stroke: rgb(0, 255, 0); stroke-width: 0.381563; }
line.blue {stroke: rgb(0, 0, 255); stroke-width: 0.381563; }
line.black {stroke: rgb(0, 0, 0); stroke-width: 0.381563; }
line.gray {stroke: rgb(204, 204, 204); stroke-width: 0.381563; }
line.brown {stroke: rgb(211.65, 104.55, 30.6); stroke-width: 0.381563; }
line {stroke: rgb(0, 0, 0); }
text.red {fill: rgb(255, 0, 255); font-size: 3.052500px; font-weight: bold; font-family: Helvetica; }
text.green {fill: rgb(0, 255, 0); font-size: 3.052500px; font-weight: bold; font-family: Helvetica; }
text.blue {fill: rgb(0, 0, 255); font-size: 3.052500px; font-weight: bold; font-family: Helvetica; }
text.black {fill: rgb(0, 0, 0); font-size: 3.052500px; font-weight: bold; font-family: Helvetica; }
text.gray {fill: rgb(204, 204, 204); font-size: 3.052500px; font-weight: bold; font-family: Helvetica; }
text.brown {fill: rgb(211.65, 104.55, 30.6); font-size: 3.052500px; font-weight: bold; font-family: Helvetica; }
text {fill: rgb(0, 0, 0); font-size: 3.052500px; font-weight: bold; font-family: Helvetica; text-anchor: middle; alignment-baseline: middle; }

.pseudoknot_connection{stroke-linecap: round; stroke-opacity: 0.2; stroke-width: 1.5; }
.pseudoknot_segment1{stroke-linecap: round; stroke-opacity: 0.4; stroke-width: 3.0525; }
.pseudoknot_segment2{stroke-linecap: round; stroke-opacity: 0.4; stroke-width: 3.0525; }
line.numbering-line{stroke: rgb(204, 204, 204); stroke-width: 0.190781; }
line.predicted{stroke: rgb(0, 0, 0); stroke-dasharray: 2; }
polyline{fill: none; stroke-linejoin: round; }
template{visibility: hidden; }
text.numbering-label{fill: rgb(204, 204, 204); }
]]>
</style></g>
<g><title>0 (position.label in template: 0.5')</title><text x="67.1729" y="205.726" class="green" >5'</text></g>
<g><title>1 (position.label in template: 1.U)</title><text x="74.7334" y="205.726" class="green" >T</text></g>
<g><title>2 (position.label in template: 2.C)</title><text x="82.2939" y="205.726" class="black" >C</text></g>
<g><title>3 (position.label in template: 3.C)</title><text x="87.64" y="200.38" class="black" >C</text></g>
<g><line x1="89.675" y1="200.075" x2="97.635" y2="200.075" class="black" /></g>
<g><title>4 (position.label in template: 4.G)</title><text x="87.43" y="192.82" class="green" >G</text></g>
<g><line x1="89.465" y1="192.515" x2="97.845" y2="192.515" class="black" /></g>
<g><title>5 (position.label in template: 5.C)</title><text x="87.64" y="185.26" class="black" >C</text></g>
<g><line x1="89.675" y1="184.955" x2="97.635" y2="184.955" class="black" /></g>
<g><title>6 (position.label in template: 6.G)</title><text x="87.43" y="177.7" class="black" >G</text></g>
<g><line x1="89.465" y1="177.395" x2="97.845" y2="177.395" class="black" /></g>
<g><title>7 (position.label in template: 7.U)</title><text x="87.64" y="170.14" class="green" >T</text></g>
<g><line x1="89.675" y1="169.835" x2="97.845" y2="169.835" class="black" /></g>
<g><title>8 (position.label in template: 8.C)</title><text x="87.64" y="162.58" class="black" >C</text></g>
<g><line x1="89.675" y1="162.275" x2="97.635" y2="162.275" class="black" /></g>
<g><title>9 (position.label in template: 9.A)</title><text x="87.85" y="155.02" class="black" >A</text></g>
<g><line x1="89.885" y1="154.715" x2="97.845" y2="154.715" class="black" /></g>
<g><title>10 (position.label in template: 10.C)</title><text x="87.64" y="147.46" class="green" >C</text></g>
<g><line x1="89.675" y1="147.155" x2="97.845" y2="147.155" class="black" /></g>
<g><text x="80.7745" y="147.651" class="numbering-label sequential" >10</text></g>
<g><line x1="85.8092" y1="147.511" x2="82.606" y2="147.6" class="numbering-line sequential" /></g>
<g><title>11 (position.label in template: 11.G)</title><text x="87.43" y="139.9" class="black" >G</text></g>
<g><line x1="89.465" y1="139.595" x2="97.845" y2="139.595" class="black" /></g>
<g><title>12 (position.label in template: 12.C)</title><text x="87.64" y="132.34" class="black" >C</text></g>
<g><line x1="89.675" y1="132.035" x2="97.635" y2="132.035" class="black" /></g>
<g><title>13 (position.label in template: 13.G)</title><text x="82.72" y="126.42" class="black" >G</text></g>
<g><title>14 (position.label in template: 14.A)</title><text x="83.14" y="118.86" class="black" >A</text></g>
<g><title>15 (position.label in template: 15.C)</title><text x="87.64" y="112.95" class="black" >C</text></g>
<g><line x1="89.675" y1="112.645" x2="97.635" y2="112.645" class="black" /></g>
<g><title>16 (position.label in template: 16.U)</title><text x="87.64" y="105.39" class="green" >T</text></g>
<g><line x1="89.675" y1="105.085" x2="97.635" y2="105.085" class="black" /></g>
<g><title>17 (position.label in template: 17.G)</title><text x="82.62" y="111.21" class="black" >G</text></g>
<g><title>18 (position.label in template: 18.G)</title><text x="75.99" y="114.86" class="black" >G</text></g>
<g><title>19 (position.label in template: 19.C)</title><text x="68.7" y="115.81" class="black" >C</text></g>
<g><title>20 (position.label in template: 20.G)</title><text x="61.17" y="113.94" class="black" >G</text></g>
<g><text x="58.2881" y="120.174" class="numbering-label sequential" >20</text></g>
<g><line x1="60.4015" y1="115.602" x2="58.9936" y2="118.648" class="numbering-line sequential" /></g>
<g><title>21 (position.label in template: 21.G)</title><text x="55.05" y="109.5" class="black" >G</text></g>
<g><title>22 (position.label in template: 22.C)</title><text x="51.21" y="103.11" class="black" >C</text></g>
<g><title>23 (position.label in template: 23.A)</title><text x="50" y="95.69" class="black" >A</text></g>
<g><title>24 (position.label in template: 24.U)</title><text x="51.21" y="88.26" class="green" >T</text></g>
<g><title>25 (position.label in template: 25.C)</title><text x="55.26" y="81.88" class="black" >C</text></g>
<g><title>26 (position.label in template: 26.G)</title><text x="61.17" y="77.44" class="black" >G</text></g>
<g><title>27 (position.label in template: 27.A)</title><text x="68.91" y="75.56" class="black" >A</text></g>
<g><title>28 (position.label in template: 28.G)</title><text x="75.99" y="76.51" class="black" >G</text></g>
<g><title>29 (position.label in template: 29.G)</title><text x="82.62" y="80.16" class="black" >G</text></g>
<g><title>30 (position.label in template: 30.A)</title><text x="87.85" y="85.99" class="green" >A</text></g>
<g><line x1="89.885" y1="85.6848" x2="97.845" y2="85.6848" class="black" /></g>
<g><text x="92.1056" y="77.2589" class="numbering-label sequential" >30</text></g>
<g><line x1="87.2533" y1="84.2584" x2="91.3617" y2="78.7851" class="numbering-line sequential" /></g>
<g><title>31 (position.label in template: 31.U)</title><text x="87.64" y="78.43" class="green" >T</text></g>
<g><line x1="89.675" y1="78.1248" x2="98.055" y2="78.1248" class="black" /></g>
<g><title>32 (position.label in template: 32.G)</title><text x="87.43" y="70.87" class="black" >G</text></g>
<g><line x1="89.465" y1="70.5648" x2="97.845" y2="70.5648" class="black" /></g>
<g><title>33 (position.label in template: 33.G)</title><text x="87.43" y="63.31" class="black" >G</text></g>
<g><line x1="89.465" y1="63.0048" x2="97.845" y2="63.0048" class="black" /></g>
<g><title>34 (position.label in template: 34.A)</title><text x="85.67" y="56.07" class="black" >A</text></g>
<g><title>35 (position.label in template: 35.C)</title><text x="89.98" y="50" class="black" >C</text></g>
<g><title>36 (position.label in template: 36.C)</title><text x="97.54" y="50" class="black" >C</text></g>
<g><title>37 (position.label in template: 37.A)</title><text x="102.26" y="56.07" class="black" >A</text></g>
<g><title>38 (position.label in template: 38.C)</title><text x="99.88" y="63.31" class="black" >C</text></g>
<g><title>39 (position.label in template: 39.C)</title><text x="99.88" y="70.87" class="black" >C</text></g>
<g><title>40 (position.label in template: 40.A)</title><text x="100.09" y="78.43" class="green" >A</text></g>
<g><title>41 (position.label in template: 41.U)</title><text x="99.88" y="85.99" class="green" >T</text></g>
<g><title>42 (position.label in template: 42.C)</title><text x="104.59" y="91.91" class="black" >C</text></g>
<g><title>43 (position.label in template: 43.G)</title><text x="104.38" y="99.47" class="black" >G</text></g>
<g><title>44 (position.label in template: 44.G)</title><text x="99.67" y="105.39" class="green" >G</text></g>
<g><title>45 (position.label in template: 45.G)</title><text x="99.67" y="112.95" class="black" >G</text></g>
<g><title>46 (position.label in template: 46.G)</title><text x="104.38" y="118.86" class="black" >G</text></g>
<g><title>47 (position.label in template: 47.A)</title><text x="104.79" y="126.42" class="black" >A</text></g>
<g><title>48 (position.label in template: 48.G)</title><text x="99.67" y="132.34" class="black" >G</text></g>
<g><title>49 (position.label in template: 49.C)</title><text x="99.88" y="139.9" class="black" >C</text></g>
<g><title>50 (position.label in template: 50.U)</title><text x="99.88" y="147.46" class="green" >T</text></g>
<g><text x="106.748" y="147.46" class="numbering-label sequential" >50</text></g>
<g><line x1="101.712" y1="147.46" x2="104.917" y2="147.46" class="numbering-line sequential" /></g>
<g><title>51 (position.label in template: 51.C)</title><text x="99.88" y="155.02" class="black" >C</text></g>
<g><title>52 (position.label in template: 52.G)</title><text x="99.67" y="162.58" class="black" >G</text></g>
<g><title>53 (position.label in template: 53.U)</title><text x="99.88" y="170.14" class="green" >T</text></g>
<g><title>54 (position.label in template: 54.C)</title><text x="99.88" y="177.7" class="black" >C</text></g>
<g><title>55 (position.label in template: 55.G)</title><text x="99.67" y="185.26" class="black" >G</text></g>
<g><title>56 (position.label in template: 56.U)</title><text x="99.88" y="192.82" class="green" >T</text></g>
<g><title>57 (position.label in template: 57.G)</title><text x="99.67" y="200.38" class="black" >G</text></g>
<g><title>58 (position.label in template: 58.G)</title><text x="105.02" y="205.73" class="black" >G</text></g>
<g><title>59 (position.label in template: 59.G)</title><text x="110.36" y="200.38" class="black" >G</text></g>
<g><line x1="112.395" y1="200.075" x2="120.775" y2="200.075" class="black" /></g>
<g><title>60 (position.label in template: 60.C)</title><text x="110.57" y="192.82" class="black" >C</text></g>
<g><line x1="112.605" y1="192.515" x2="120.565" y2="192.515" class="black" /></g>
<g><title>61 (position.label in template: 61.G)</title><text x="110.36" y="185.26" class="green" >G</text></g>
<g><line x1="112.395" y1="184.955" x2="120.775" y2="184.955" class="black" /></g>
<g><title>62 (position.label in template: 62.C)</title><text x="110.57" y="177.7" class="black" >C</text></g>
<g><line x1="112.605" y1="177.395" x2="120.565" y2="177.395" class="black" /></g>
<g><title>63 (position.label in template: 63.C)</title><text x="110.57" y="170.14" class="black" >C</text></g>
<g><line x1="112.605" y1="169.835" x2="120.565" y2="169.835" class="black" /></g>
<g><title>64 (position.label in template: 64.G)</title><text x="104.65" y="165.18" class="black" >G</text></g>
<g><title>65 (position.label in template: 65.U)</title><text x="102.51" y="157.99" class="green" >T</text></g>
<g><title>66 (position.label in template: 66.C)</title><text x="104.18" y="150.62" class="black" >C</text></g>
<g><title>67 (position.label in template: 67.C)</title><text x="109.4" y="145.15" class="black" >C</text></g>
<g><title>68 (position.label in template: 68.G)</title><text x="116.48" y="143.14" class="black" >G</text></g>
<g><title>69 (position.label in template: 69.C)</title><text x="123.98" y="145.15" class="black" >C</text></g>
<g><title>70 (position.label in template: 70.C)</title><text x="129.2" y="150.62" class="black" >C</text></g>
<g><title>71 (position.label in template: 71.U)</title><text x="130.87" y="157.99" class="green" >T</text></g>
<g><title>72 (position.label in template: 72.G)</title><text x="128.31" y="165.18" class="black" >G</text></g>
<g><title>73 (position.label in template: 73.G)</title><text x="122.6" y="170.14" class="black" >G</text></g>
<g><title>74 (position.label in template: 74.G)</title><text x="122.6" y="177.7" class="black" >G</text></g>
<g><title>75 (position.label in template: 75.U)</title><text x="122.81" y="185.26" class="green" >T</text></g>
<g><title>76 (position.label in template: 76.G)</title><text x="122.6" y="192.82" class="black" >G</text></g>
<g><title>77 (position.label in template: 77.C)</title><text x="122.81" y="200.38" class="black" >C</text></g>
<g><title>78 (position.label in template: 78.C)</title><text x="128.156" y="205.726" class="black" >C</text></g>
<g><title>79 (position.label in template: 79.C)</title><text x="135.717" y="205.726" class="black" >C</text></g>
<g><title>80 (position.label in template: 80.A)</title><text x="143.277" y="205.726" class="black" >A</text></g>
<g><title>81 (position.label in template: 81.C)</title><text x="150.838" y="205.726" class="black" >C</text></g>
<g><title>82 (position.label in template: 82.G)</title><text x="158.398" y="205.726" class="black" >G</text></g>
<g><title>83 (position.label in template: 83.3')</title><text x="165.959" y="205.726" class="green" >3'</text></g>
<g><line x1="69.2079" y1="205.421" x2="72.6984" y2="205.421" class="gray" /></g>
<g><line x1="76.7684" y1="205.421" x2="80.2589" y2="205.421" class="gray" /></g>
<g><line x1="83.7329" y1="203.982" x2="86.201" y2="201.514" class="gray" /></g>
<g><line x1="87.5835" y1="198.041" x2="87.4865" y2="194.549" class="gray" /></g>
<g><line x1="87.4865" y1="190.481" x2="87.5835" y2="186.989" class="gray" /></g>
<g><line x1="87.5835" y1="182.921" x2="87.4865" y2="179.429" class="gray" /></g>
<g><line x1="87.4865" y1="175.361" x2="87.5835" y2="171.869" class="gray" /></g>
<g><line x1="87.64" y1="167.8" x2="87.64" y2="164.31" class="gray" /></g>
<g><line x1="87.6965" y1="160.241" x2="87.7935" y2="156.749" class="gray" /></g>
<g><line x1="87.7935" y1="152.681" x2="87.6965" y2="149.189" class="gray" /></g>
<g><line x1="87.5835" y1="145.121" x2="87.4865" y2="141.629" class="gray" /></g>
<g><line x1="87.4865" y1="137.561" x2="87.5835" y2="134.069" class="gray" /></g>
<g><line x1="86.3393" y1="130.47" x2="84.0207" y2="127.68" class="gray" /></g>
<g><line x1="82.8329" y1="124.083" x2="83.0271" y2="120.587" class="gray" /></g>
<g><line x1="84.3728" y1="116.936" x2="86.4072" y2="114.264" class="gray" /></g>
<g><line x1="87.64" y1="110.61" x2="87.64" y2="107.12" class="gray" /></g>
<g><line x1="86.3108" y1="106.626" x2="83.9492" y2="109.364" class="gray" /></g>
<g><line x1="80.8373" y1="111.886" x2="77.7727" y2="113.573" class="gray" /></g>
<g><line x1="73.9721" y1="114.818" x2="70.7179" y2="115.242" class="gray" /></g>
<g><line x1="66.725" y1="115.014" x2="63.145" y2="114.125" class="gray" /></g>
<g><line x1="59.5228" y1="112.44" x2="56.6972" y2="110.39" class="gray" /></g>
<g><line x1="54.0018" y1="107.45" x2="52.2582" y2="104.549" class="gray" /></g>
<g><line x1="50.8825" y1="100.796" x2="50.3275" y2="97.3932" class="gray" /></g>
<g><line x1="50.3271" y1="93.3762" x2="50.8829" y2="89.9633" class="gray" /></g>
<g><line x1="52.3006" y1="86.2367" x2="54.1694" y2="83.2928" class="gray" /></g>
<g><line x1="56.887" y1="80.3524" x2="59.543" y2="78.3571" class="gray" /></g>
<g><line x1="63.1475" y1="76.6544" x2="66.9325" y2="75.7351" class="gray" /></g>
<g><line x1="70.9269" y1="75.5254" x2="73.9731" y2="75.9341" class="gray" /></g>
<g><line x1="77.7727" y1="77.1862" x2="80.8373" y2="78.8733" class="gray" /></g>
<g><line x1="83.9789" y1="81.3695" x2="86.4911" y2="84.17" class="gray" /></g>
<g><line x1="87.7935" y1="83.6505" x2="87.6965" y2="80.159" class="gray" /></g>
<g><line x1="87.5835" y1="76.0905" x2="87.4865" y2="72.599" class="gray" /></g>
<g><line x1="87.43" y1="68.5298" x2="87.43" y2="65.0397" class="gray" /></g>
<g><line x1="86.9493" y1="61.0273" x2="86.1507" y2="57.7422" class="gray" /></g>
<g><line x1="86.8482" y1="54.1055" x2="88.8018" y2="51.354" class="gray" /></g>
<g><line x1="92.015" y1="49.6947" x2="95.505" y2="49.6947" class="gray" /></g>
<g><line x1="98.7892" y1="51.3012" x2="101.011" y2="54.1583" class="gray" /></g>
<g><line x1="101.624" y1="57.698" x2="100.516" y2="61.0715" class="gray" /></g>
<g><line x1="99.88" y1="65.0397" x2="99.88" y2="68.5298" class="gray" /></g>
<g><line x1="99.9365" y1="72.599" x2="100.033" y2="76.0905" class="gray" /></g>
<g><line x1="100.033" y1="80.159" x2="99.9365" y2="83.6505" class="gray" /></g>
<g><line x1="101.147" y1="87.2772" x2="103.323" y2="90.0123" class="gray" /></g>
<g><line x1="104.533" y1="93.639" x2="104.437" y2="97.1305" class="gray" /></g>
<g><line x1="103.113" y1="100.757" x2="100.937" y2="103.492" class="gray" /></g>
<g><line x1="99.67" y1="107.12" x2="99.67" y2="110.61" class="gray" /></g>
<g><line x1="100.938" y1="114.236" x2="103.112" y2="116.963" class="gray" /></g>
<g><line x1="104.49" y1="120.587" x2="104.68" y2="124.083" class="gray" /></g>
<g><line x1="103.459" y1="127.654" x2="101.001" y2="130.496" class="gray" /></g>
<g><line x1="99.7265" y1="134.069" x2="99.8235" y2="137.561" class="gray" /></g>
<g><line x1="99.88" y1="141.63" x2="99.88" y2="145.12" class="gray" /></g>
<g><line x1="99.88" y1="149.19" x2="99.88" y2="152.68" class="gray" /></g>
<g><line x1="99.8235" y1="156.749" x2="99.7265" y2="160.241" class="gray" /></g>
<g><line x1="99.7265" y1="164.309" x2="99.8235" y2="167.801" class="gray" /></g>
<g><line x1="99.88" y1="171.87" x2="99.88" y2="175.36" class="gray" /></g>
<g><line x1="99.8235" y1="179.429" x2="99.7265" y2="182.921" class="gray" /></g>
<g><line x1="99.7265" y1="186.989" x2="99.8235" y2="190.481" class="gray" /></g>
<g><line x1="99.8235" y1="194.549" x2="99.7265" y2="198.041" class="gray" /></g>
<g><line x1="101.109" y1="201.514" x2="103.581" y2="203.986" class="gray" /></g>
<g><line x1="106.458" y1="203.984" x2="108.922" y2="201.515" class="gray" /></g>
<g><line x1="110.417" y1="198.041" x2="110.513" y2="194.549" class="gray" /></g>
<g><line x1="110.513" y1="190.481" x2="110.417" y2="186.989" class="gray" /></g>
<g><line x1="110.417" y1="182.921" x2="110.513" y2="179.429" class="gray" /></g>
<g><line x1="110.57" y1="175.36" x2="110.57" y2="171.87" class="gray" /></g>
<g><line x1="109.01" y1="168.528" x2="106.21" y2="166.182" class="gray" /></g>
<g><line x1="104.069" y1="162.924" x2="103.091" y2="159.635" class="gray" /></g>
<g><line x1="102.96" y1="155.7" x2="103.73" y2="152.299" class="gray" /></g>
<g><line x1="105.585" y1="148.843" x2="107.995" y2="146.317" class="gray" /></g>
<g><line x1="111.358" y1="144.289" x2="114.522" y2="143.391" class="gray" /></g>
<g><line x1="118.446" y1="143.362" x2="122.014" y2="144.318" class="gray" /></g>
<g><line x1="125.385" y1="146.317" x2="127.795" y2="148.843" class="gray" /></g>
<g><line x1="129.65" y1="152.299" x2="130.42" y2="155.7" class="gray" /></g>
<g><line x1="130.187" y1="159.602" x2="128.993" y2="162.958" class="gray" /></g>
<g><line x1="126.774" y1="166.209" x2="124.136" y2="168.5" class="gray" /></g>
<g><line x1="122.6" y1="171.87" x2="122.6" y2="175.36" class="gray" /></g>
<g><line x1="122.657" y1="179.429" x2="122.753" y2="182.921" class="gray" /></g>
<g><line x1="122.753" y1="186.989" x2="122.657" y2="190.481" class="gray" /></g>
<g><line x1="122.657" y1="194.549" x2="122.753" y2="198.041" class="gray" /></g>
<g><line x1="124.249" y1="201.514" x2="126.717" y2="203.982" class="gray" /></g>
<g><line x1="130.191" y1="205.421" x2="133.682" y2="205.421" class="gray" /></g>
<g><line x1="137.752" y1="205.421" x2="141.242" y2="205.421" class="gray" /></g>
<g><line x1="145.312" y1="205.421" x2="148.803" y2="205.421" class="gray" /></g>
<g><line x1="152.873" y1="205.421" x2="156.363" y2="205.421" class="gray" /></g>
<g><line x1="160.433" y1="205.421" x2="163.924" y2="205.421" class="gray" /></g>
</svg>
