<svg
	xmlns="http://www.w3.org/2000/svg"
	width="203.28"
	height="248.35">
<g><style type="text/css" >
<!-- create color definitions -->
<![CDATA[
circle.red {stroke: rgb(255, 0, 255); fill: none; }
circle.green {stroke: rgb(0, 255, 0); fill: none; }
circle.blue {stroke: rgb(0, 0, 255); fill: none; }
circle.black {stroke: rgb(0, 0, 0); fill: none; }
circle.gray {stroke: rgb(204, 204, 204); fill: none; }
circle.brown {stroke: rgb(211.65, 104.55, 30.6); fill: none; }
line.red {stroke: rgb(255, 0, 255); stroke-width: 0.379985; }
line.green {stroke: rgb(0, 255, 0); stroke-width: 0.379985; }
line.blue {stroke: rgb(0, 0, 255); stroke-width: 0.379985; }
line.black {stroke: rgb(0, 0, 0); stroke-width: 0.379985; }
line.gray {stroke: rgb(204, 204, 204); stroke-width: 0.379985; }
line.brown {stroke: rgb(211.65, 104.55, 30.6); stroke-width: 0.379985; }
line {stroke: rgb(0, 0, 0); }
text.red {fill: rgb(255, 0, 255); font-size: 3.039882px; font-weight: bold; font-family: Helvetica; }
text.green {fill: rgb(0, 255, 0); font-size: 3.039882px; font-weight: bold; font-family: Helvetica; }
text.blue {fill: rgb(0, 0, 255); font-size: 3.039882px; font-weight: bold; font-family: Helvetica; }
text.black {fill: rgb(0, 0, 0); font-size: 3.039882px; font-weight: bold; font-family: Helvetica; }
text.gray {fill: rgb(204, 204, 204); font-size: 3.039882px; font-weight: bold; font-family: Helvetica; }
text.brown {fill: rgb(211.65, 104.55, 30.6); font-size: 3.039882px; font-weight: bold; font-family: Helvetica; }
text {fill: rgb(0, 0, 0); font-size: 3.039882px; font-weight: bold; font-family: Helvetica; text-anchor: middle; alignment-baseline: middle; }

.pseudoknot_connection{stroke-linecap: round; stroke-opacity: 0.2; stroke-width: 1.5; }
.pseudoknot_segment1{stroke-linecap: round; stroke-opacity: 0.4; stroke-width: 3.03988; }
.pseudoknot_segment2{stroke-linecap: round; stroke-opacity: 0.4; stroke-width: 3.03988; }
line.numbering-line{stroke: rgb(204, 204, 204); stroke-width: 0.189993; }
line.predicted{stroke: rgb(0, 0, 0); stroke-dasharray: 2; }
polyline{fill: none; stroke-linejoin: round; }
template{visibility: hidden; }
text.numbering-label{fill: rgb(204, 204, 204); }
]]>
</style></g>
<g><title>0 (position.label in template: 0.5')</title><text x="118.51" y="198.35" class="green" >5'</text></g>
<g><title>1 (position.label in template: 1.C)</title><text x="125.51" y="198.35" class="black" >C</text></g>
<g><line x1="127.537" y1="198.046" x2="135.513" y2="198.046" class="black" /></g>
<g><title>2 (position.label in template: 2.A)</title><text x="125.71" y="190.79" class="black" >A</text></g>
<g><line x1="127.737" y1="190.486" x2="135.513" y2="190.486" class="black" /></g>
<g><title>3 (position.label in template: 3.C)</title><text x="125.51" y="183.23" class="green" >C</text></g>
<g><line x1="127.537" y1="182.926" x2="135.723" y2="182.926" class="black" /></g>
<g><title>4 (position.label in template: 4.A)</title><text x="125.71" y="175.67" class="green" >A</text></g>
<g><line x1="127.737" y1="175.366" x2="135.723" y2="175.366" class="black" /></g>
<g><title>5 (position.label in template: 5.U)</title><text x="119.91" y="170.58" class="green" >T</text></g>
<g><title>6 (position.label in template: 6.A)</title><text x="118.05" y="163.31" class="black" >A</text></g>
<g><title>7 (position.label in template: 7.A)</title><text x="120.12" y="156.04" class="black" >A</text></g>
<g><title>8 (position.label in template: 8.C)</title><text x="125.51" y="150.96" class="black" >C</text></g>
<g><line x1="127.537" y1="150.656" x2="135.513" y2="150.656" class="black" /></g>
<g><title>9 (position.label in template: 9.U)</title><text x="125.51" y="143.4" class="green" >T</text></g>
<g><line x1="127.537" y1="143.096" x2="135.923" y2="143.096" class="black" /></g>
<g><title>10 (position.label in template: 10.C)</title><text x="125.51" y="135.84" class="black" >C</text></g>
<g><line x1="127.537" y1="135.536" x2="135.513" y2="135.536" class="black" /></g>
<g><text x="118.67" y="135.84" class="numbering-label sequential" >10</text></g>
<g><line x1="123.686" y1="135.84" x2="120.494" y2="135.84" class="numbering-line sequential" /></g>
<g><title>11 (position.label in template: 11.C)</title><text x="125.51" y="128.28" class="black" >C</text></g>
<g><line x1="127.537" y1="127.976" x2="135.513" y2="127.976" class="black" /></g>
<g><title>12 (position.label in template: 12.G)</title><text x="118.88" y="124.29" class="black" >G</text></g>
<g><title>13 (position.label in template: 13.C)</title><text x="114.86" y="118.02" class="black" >C</text></g>
<g><title>14 (position.label in template: 14.C)</title><text x="113.56" y="110.58" class="black" >C</text></g>
<g><line x1="114.286" y1="108.384" x2="117.194" y2="100.808" class="black" /></g>
<g><title>15 (position.label in template: 15.U)</title><text x="106.55" y="107.75" class="green" >T</text></g>
<g><line x1="107.307" y1="105.566" x2="110.363" y2="97.9759" class="black" /></g>
<g><title>16 (position.label in template: 16.G)</title><text x="99.32" y="104.92" class="black" >G</text></g>
<g><line x1="100.108" y1="102.749" x2="103.322" y2="95.1331" class="black" /></g>
<g><title>17 (position.label in template: 17.U)</title><text x="92.52" y="102.1" class="green" >T</text></g>
<g><line x1="93.306" y1="99.9281" x2="96.514" y2="92.304" class="black" /></g>
<g><title>18 (position.label in template: 18.A)</title><text x="85.72" y="99.27" class="green" >A</text></g>
<g><line x1="86.4482" y1="97.0748" x2="89.3618" y2="89.5073" class="black" /></g>
<g><title>19 (position.label in template: 19.G)</title><text x="78.29" y="96.44" class="green" >G</text></g>
<g><line x1="79.0766" y1="94.2683" x2="82.2834" y2="86.6537" class="black" /></g>
<g><title>20 (position.label in template: 20.C)</title><text x="72.17" y="100.58" class="black" >C</text></g>
<g><text x="74.538" y="106.997" class="numbering-label sequential" >20</text></g>
<g><line x1="72.8015" y1="102.291" x2="73.9771" y2="105.477" class="numbering-line sequential" /></g>
<g><title>21 (position.label in template: 21.U)</title><text x="64.66" y="101.47" class="green" >T</text></g>
<g><title>22 (position.label in template: 22.C)</title><text x="57.54" y="98.93" class="black" >C</text></g>
<g><title>23 (position.label in template: 23.U)</title><text x="52.29" y="93.5" class="green" >T</text></g>
<g><title>24 (position.label in template: 24.U)</title><text x="50" y="86.29" class="green" >T</text></g>
<g><title>25 (position.label in template: 25.A)</title><text x="51.36" y="78.82" class="black" >A</text></g>
<g><title>26 (position.label in template: 26.U)</title><text x="55.5" y="72.64" class="green" >T</text></g>
<g><title>27 (position.label in template: 27.A)</title><text x="62.36" y="69.03" class="black" >A</text></g>
<g><title>28 (position.label in template: 28.G)</title><text x="69.5" y="68.76" class="black" >G</text></g>
<g><title>29 (position.label in template: 29.G)</title><text x="76.39" y="71.87" class="black" >G</text></g>
<g><title>30 (position.label in template: 30.G)</title><text x="81.17" y="77.72" class="black" >G</text></g>
<g><text x="87.2747" y="74.6353" class="numbering-label sequential" >30</text></g>
<g><line x1="82.7979" y1="76.8974" x2="85.4507" y2="75.557" class="numbering-line sequential" /></g>
<g><title>31 (position.label in template: 31.U)</title><text x="83.07" y="85.09" class="green" >T</text></g>
<g><title>32 (position.label in template: 32.U)</title><text x="90.09" y="87.92" class="green" >T</text></g>
<g><title>33 (position.label in template: 33.A)</title><text x="97.3" y="90.74" class="green" >A</text></g>
<g><title>34 (position.label in template: 34.C)</title><text x="104.11" y="93.57" class="black" >C</text></g>
<g><title>35 (position.label in template: 35.U)</title><text x="111.12" y="96.4" class="green" >T</text></g>
<g><title>36 (position.label in template: 36.G)</title><text x="117.92" y="99.22" class="black" >G</text></g>
<g><title>37 (position.label in template: 37.C)</title><text x="124.23" y="94.76" class="black" >C</text></g>
<g><line x1="126.251" y1="94.2994" x2="134.209" y2="93.6826" class="black" /></g>
<g><title>38 (position.label in template: 38.C)</title><text x="123.66" y="87.22" class="black" >C</text></g>
<g><line x1="125.681" y1="86.7594" x2="133.639" y2="86.1426" class="black" /></g>
<g><title>39 (position.label in template: 39.G)</title><text x="122.88" y="79.68" class="black" >G</text></g>
<g><line x1="124.901" y1="79.2246" x2="133.269" y2="78.5975" class="black" /></g>
<g><title>40 (position.label in template: 40.G)</title><text x="116.56" y="75.53" class="black" >G</text></g>
<g><title>41 (position.label in template: 41.U)</title><text x="113.2" y="68.86" class="green" >T</text></g>
<g><title>42 (position.label in template: 42.C)</title><text x="113.23" y="61.3" class="black" >C</text></g>
<g><title>43 (position.label in template: 43.C)</title><text x="116.87" y="54.68" class="black" >C</text></g>
<g><title>44 (position.label in template: 44.C)</title><text x="123.22" y="50.58" class="black" >C</text></g>
<g><title>45 (position.label in template: 45.A)</title><text x="130.96" y="50" class="black" >A</text></g>
<g><title>46 (position.label in template: 46.A)</title><text x="137.87" y="53.09" class="black" >A</text></g>
<g><title>47 (position.label in template: 47.G)</title><text x="142.04" y="59.1" class="black" >G</text></g>
<g><title>48 (position.label in template: 48.C)</title><text x="143.43" y="66.57" class="black" >C</text></g>
<g><title>49 (position.label in template: 49.C)</title><text x="140.91" y="73.69" class="black" >C</text></g>
<g><title>50 (position.label in template: 50.C)</title><text x="135.29" y="78.75" class="black" >C</text></g>
<g><text x="141.604" y="81.3807" class="numbering-label sequential" >50</text></g>
<g><line x1="136.974" y1="79.4515" x2="139.78" y2="80.6207" class="numbering-line sequential" /></g>
<g><title>51 (position.label in template: 51.G)</title><text x="135.66" y="86.29" class="black" >G</text></g>
<g><title>52 (position.label in template: 52.G)</title><text x="136.23" y="93.83" class="black" >G</text></g>
<g><title>53 (position.label in template: 53.G)</title><text x="142.94" y="97.32" class="black" >G</text></g>
<g><title>54 (position.label in template: 54.U)</title><text x="147.84" y="103.25" class="green" >T</text></g>
<g><title>55 (position.label in template: 55.A)</title><text x="149.9" y="110.58" class="black" >A</text></g>
<g><title>56 (position.label in template: 56.A)</title><text x="148.61" y="118.02" class="black" >A</text></g>
<g><title>57 (position.label in template: 57.A)</title><text x="144.38" y="124.29" class="black" >A</text></g>
<g><title>58 (position.label in template: 58.G)</title><text x="137.54" y="128.28" class="black" >G</text></g>
<g><title>59 (position.label in template: 59.G)</title><text x="137.54" y="135.84" class="black" >G</text></g>
<g><title>60 (position.label in template: 60.A)</title><text x="137.95" y="143.4" class="green" >A</text></g>
<g><title>61 (position.label in template: 61.G)</title><text x="137.54" y="150.96" class="black" >G</text></g>
<g><title>62 (position.label in template: 62.G)</title><text x="145.08" y="151.43" class="black" >G</text></g>
<g><title>63 (position.label in template: 63.A)</title><text x="151.45" y="156.09" class="black" >A</text></g>
<g><title>64 (position.label in template: 64.G)</title><text x="153.28" y="163.31" class="black" >G</text></g>
<g><title>65 (position.label in template: 65.G)</title><text x="151.03" y="170.53" class="black" >G</text></g>
<g><title>66 (position.label in template: 66.G)</title><text x="145.08" y="175.2" class="black" >G</text></g>
<g><title>67 (position.label in template: 67.U)</title><text x="137.75" y="175.67" class="green" >T</text></g>
<g><title>68 (position.label in template: 68.U)</title><text x="137.75" y="183.23" class="green" >T</text></g>
<g><title>69 (position.label in template: 69.G)</title><text x="137.54" y="190.79" class="black" >G</text></g>
<g><title>70 (position.label in template: 70.G)</title><text x="137.54" y="198.35" class="black" >G</text></g>
<g><title>71 (position.label in template: 71.3')</title><text x="144.54" y="198.35" class="green" >3'</text></g>
<g><line x1="120.537" y1="198.046" x2="123.483" y2="198.046" class="gray" /></g>
<g><line x1="125.564" y1="196.02" x2="125.656" y2="192.512" class="gray" /></g>
<g><line x1="125.656" y1="188.46" x2="125.564" y2="184.952" class="gray" /></g>
<g><line x1="125.564" y1="180.9" x2="125.656" y2="177.392" class="gray" /></g>
<g><line x1="124.187" y1="174.029" x2="121.433" y2="171.613" class="gray" /></g>
<g><line x1="119.408" y1="168.313" x2="118.552" y2="164.969" class="gray" /></g>
<g><line x1="118.605" y1="161.057" x2="119.565" y2="157.685" class="gray" /></g>
<g><line x1="121.595" y1="154.346" x2="124.035" y2="152.046" class="gray" /></g>
<g><line x1="125.51" y1="148.629" x2="125.51" y2="145.123" class="gray" /></g>
<g><line x1="125.51" y1="141.069" x2="125.51" y2="137.563" class="gray" /></g>
<g><line x1="125.51" y1="133.509" x2="125.51" y2="130.003" class="gray" /></g>
<g><line x1="123.774" y1="126.931" x2="120.616" y2="125.031" class="gray" /></g>
<g><line x1="117.786" y1="122.28" x2="115.954" y2="119.422" class="gray" /></g>
<g><line x1="114.511" y1="115.72" x2="113.909" y2="112.272" class="gray" /></g>
<g><line x1="111.681" y1="109.517" x2="108.429" y2="108.205" class="gray" /></g>
<g><line x1="104.663" y1="106.707" x2="101.207" y2="105.355" class="gray" /></g>
<g><line x1="97.448" y1="103.84" x2="94.392" y2="102.572" class="gray" /></g>
<g><line x1="90.649" y1="101.017" x2="87.591" y2="99.7447" class="gray" /></g>
<g><line x1="83.8261" y1="98.2447" x2="80.1839" y2="96.8574" class="gray" /></g>
<g><line x1="76.6114" y1="97.2715" x2="73.8486" y2="99.1405" class="gray" /></g>
<g><line x1="70.1575" y1="100.515" x2="66.6725" y2="100.928" class="gray" /></g>
<g><line x1="62.7512" y1="100.485" x2="59.4488" y2="99.3069" class="gray" /></g>
<g><line x1="56.1313" y1="97.1691" x2="53.6987" y2="94.653" class="gray" /></g>
<g><line x1="51.6765" y1="91.2645" x2="50.6135" y2="87.9175" class="gray" /></g>
<g><line x1="50.363" y1="83.9922" x2="50.997" y2="80.5098" class="gray" /></g>
<g><line x1="52.4879" y1="76.8323" x2="54.3721" y2="74.0197" class="gray" /></g>
<g><line x1="57.2934" y1="71.3922" x2="60.5666" y2="69.6698" class="gray" /></g>
<g><line x1="64.3851" y1="68.6494" x2="67.4749" y2="68.5326" class="gray" /></g>
<g><line x1="71.3471" y1="69.2898" x2="74.5429" y2="70.7323" class="gray" /></g>
<g><line x1="77.6723" y1="73.1353" x2="79.8877" y2="75.8467" class="gray" /></g>
<g><line x1="81.6759" y1="79.3784" x2="82.5641" y2="82.8236" class="gray" /></g>
<g><line x1="84.9496" y1="85.5437" x2="88.2104" y2="86.8583" class="gray" /></g>
<g><line x1="91.9774" y1="88.3542" x2="95.4126" y2="89.6978" class="gray" /></g>
<g><line x1="99.1714" y1="91.2137" x2="102.239" y2="92.4883" class="gray" /></g>
<g><line x1="105.989" y1="94.0247" x2="109.241" y2="95.3374" class="gray" /></g>
<g><line x1="112.992" y1="96.8723" x2="116.048" y2="98.1397" class="gray" /></g>
<g><line x1="119.575" y1="97.7463" x2="122.575" y2="95.6257" class="gray" /></g>
<g><line x1="124.077" y1="92.4352" x2="123.813" y2="88.9368" class="gray" /></g>
<g><line x1="123.451" y1="84.9002" x2="123.089" y2="81.3918" class="gray" /></g>
<g><line x1="121.186" y1="78.2636" x2="118.254" y2="76.3384" class="gray" /></g>
<g><line x1="115.648" y1="73.4161" x2="114.112" y2="70.3659" class="gray" /></g>
<g><line x1="113.208" y1="66.5294" x2="113.222" y2="63.0226" class="gray" /></g>
<g><line x1="114.206" y1="59.2202" x2="115.894" y2="56.1519" class="gray" /></g>
<g><line x1="118.573" y1="53.2767" x2="121.517" y2="51.3753" class="gray" /></g>
<g><line x1="125.241" y1="50.1246" x2="128.939" y2="49.8475" class="gray" /></g>
<g><line x1="132.81" y1="50.5233" x2="136.02" y2="51.9587" class="gray" /></g>
<g><line x1="139.025" y1="54.4511" x2="140.885" y2="57.131" class="gray" /></g>
<g><line x1="142.411" y1="60.7884" x2="143.059" y2="64.2736" class="gray" /></g>
<g><line x1="142.754" y1="68.1765" x2="141.586" y2="71.4756" class="gray" /></g>
<g><line x1="139.404" y1="74.742" x2="136.796" y2="77.09" class="gray" /></g>
<g><line x1="135.389" y1="80.4702" x2="135.561" y2="83.9619" class="gray" /></g>
<g><line x1="135.813" y1="88.0068" x2="136.077" y2="91.5052" class="gray" /></g>
<g><line x1="138.028" y1="94.4612" x2="141.142" y2="96.0809" class="gray" /></g>
<g><line x1="144.231" y1="98.5783" x2="146.549" y2="101.384" class="gray" /></g>
<g><line x1="148.388" y1="104.897" x2="149.352" y2="108.325" class="gray" /></g>
<g><line x1="149.554" y1="112.273" x2="148.956" y2="115.719" class="gray" /></g>
<g><line x1="147.477" y1="119.396" x2="145.513" y2="122.306" class="gray" /></g>
<g><line x1="142.629" y1="125.007" x2="139.291" y2="126.955" class="gray" /></g>
<g><line x1="137.54" y1="130.003" x2="137.54" y2="133.509" class="gray" /></g>
<g><line x1="137.65" y1="137.56" x2="137.84" y2="141.072" class="gray" /></g>
<g><line x1="137.84" y1="145.12" x2="137.65" y2="148.632" class="gray" /></g>
<g><line x1="139.563" y1="150.782" x2="143.057" y2="151" class="gray" /></g>
<g><line x1="146.716" y1="152.323" x2="149.814" y2="154.589" class="gray" /></g>
<g><line x1="151.948" y1="157.75" x2="152.782" y2="161.042" class="gray" /></g>
<g><line x1="152.677" y1="164.941" x2="151.633" y2="168.291" class="gray" /></g>
<g><line x1="149.436" y1="171.477" x2="146.674" y2="173.645" class="gray" /></g>
<g><line x1="143.058" y1="175.026" x2="139.772" y2="175.236" class="gray" /></g>
<g><line x1="137.75" y1="177.393" x2="137.75" y2="180.899" class="gray" /></g>
<g><line x1="137.694" y1="184.952" x2="137.596" y2="188.46" class="gray" /></g>
<g><line x1="137.54" y1="192.513" x2="137.54" y2="196.019" class="gray" /></g>
<g><line x1="139.567" y1="198.046" x2="142.513" y2="198.046" class="gray" /></g>
</svg>
