<svg
	xmlns="http://www.w3.org/2000/svg"
	width="283.96"
	height="192.004">
<g><style type="text/css" >
<!-- create color definitions -->
<![CDATA[
circle.red {stroke: rgb(255, 0, 255); fill: none; }
circle.green {stroke: rgb(0, 255, 0); fill: none; }
circle.blue {stroke: rgb(0, 0, 255); fill: none; }
circle.black {stroke: rgb(0, 0, 0); fill: none; }
circle.gray {stroke: rgb(204, 204, 204); fill: none; }
circle.brown {stroke: rgb(211.65, 104.55, 30.6); fill: none; }
line.red {stroke: rgb(255, 0, 255); stroke-width: 0.381778; }
line.green {stroke: rgb(0, 255, 0); stroke-width: 0.381778; }
line.blue {stroke: rgb(0, 0, 255); stroke-width: 0.381778; }
line.black {stroke: rgb(0, 0, 0); stroke-width: 0.381778; }
line.gray {stroke: rgb(204, 204, 204); stroke-width: 0.381778; }
line.brown {stroke: rgb(211.65, 104.55, 30.6); stroke-width: 0.381778; }
line {stroke: rgb(0, 0, 0); }
text.red {fill: rgb(255, 0, 255); font-size: 3.054226px; font-weight: bold; font-family: Helvetica; }
text.green {fill: rgb(0, 255, 0); font-size: 3.054226px; font-weight: bold; font-family: Helvetica; }
text.blue {fill: rgb(0, 0, 255); font-size: 3.054226px; font-weight: bold; font-family: Helvetica; }
text.black {fill: rgb(0, 0, 0); font-size: 3.054226px; font-weight: bold; font-family: Helvetica; }
text.gray {fill: rgb(204, 204, 204); font-size: 3.054226px; font-weight: bold; font-family: Helvetica; }
text.brown {fill: rgb(211.65, 104.55, 30.6); font-size: 3.054226px; font-weight: bold; font-family: Helvetica; }
text {fill: rgb(0, 0, 0); font-size: 3.054226px; font-weight: bold; font-family: Helvetica; text-anchor: middle; alignment-baseline: middle; }

.pseudoknot_connection{stroke-linecap: round; stroke-opacity: 0.2; stroke-width: 1.5; }
.pseudoknot_segment1{stroke-linecap: round; stroke-opacity: 0.4; stroke-width: 3.05423; }
.pseudoknot_segment2{stroke-linecap: round; stroke-opacity: 0.4; stroke-width: 3.05423; }
line.numbering-line{stroke: rgb(204, 204, 204); stroke-width: 0.190889; }
line.predicted{stroke: rgb(0, 0, 0); stroke-dasharray: 2; }
polyline{fill: none; stroke-linejoin: round; }
template{visibility: hidden; }
text.numbering-label{fill: rgb(204, 204, 204); }
]]>
</style></g>
<g><title>0 (position.label in template: 0.5')</title><text x="111.094" y="142.004" class="green" >5'</text></g>
<g><title>1 (position.label in template: 1.C)</title><text x="118.642" y="142.004" class="black" >C</text></g>
<g><title>2 (position.label in template: 2.A)</title><text x="126.191" y="142.004" class="black" >A</text></g>
<g><title>3 (position.label in template: 3.U)</title><text x="133.74" y="142.004" class="green" >T</text></g>
<g><title>4 (position.label in template: 4.U)</title><text x="141.288" y="142.004" class="green" >T</text></g>
<g><title>5 (position.label in template: 5.A)</title><text x="148.837" y="142.004" class="black" >A</text></g>
<g><title>6 (position.label in template: 6.A)</title><text x="156.386" y="142.004" class="black" >A</text></g>
<g><title>7 (position.label in template: 7.C)</title><text x="163.934" y="142.004" class="black" >C</text></g>
<g><title>8 (position.label in template: 8.G)</title><text x="171.483" y="142.004" class="black" >G</text></g>
<g><title>9 (position.label in template: 9.A)</title><text x="179.032" y="142.004" class="black" >A</text></g>
<g><title>10 (position.label in template: 10.U)</title><text x="186.58" y="142.004" class="green" >T</text></g>
<g><text x="189.274" y="148.326" class="numbering-label sequential" >10</text></g>
<g><line x1="187.299" y1="143.69" x2="188.623" y2="146.799" class="numbering-line sequential" /></g>
<g><title>11 (position.label in template: 11.G)</title><text x="191.81" y="136.56" class="green" >G</text></g>
<g><line x1="193.846" y1="136.255" x2="202.224" y2="136.255" class="black" /></g>
<g><title>12 (position.label in template: 12.C)</title><text x="192.02" y="129" class="black" >C</text></g>
<g><line x1="194.056" y1="128.695" x2="202.014" y2="128.695" class="black" /></g>
<g><title>13 (position.label in template: 13.C)</title><text x="192.02" y="121.44" class="black" >C</text></g>
<g><line x1="194.056" y1="121.135" x2="202.014" y2="121.135" class="black" /></g>
<g><title>14 (position.label in template: 14.G)</title><text x="188.71" y="114.54" class="black" >G</text></g>
<g><title>15 (position.label in template: 15.A)</title><text x="192.23" y="107.65" class="green" >A</text></g>
<g><line x1="194.266" y1="107.345" x2="202.224" y2="107.345" class="black" /></g>
<g><title>16 (position.label in template: 16.C)</title><text x="192.02" y="100.09" class="black" >C</text></g>
<g><line x1="194.056" y1="99.7846" x2="202.014" y2="99.7846" class="black" /></g>
<g><title>17 (position.label in template: 17.C)</title><text x="185.97" y="95.56" class="black" >C</text></g>
<g><title>18 (position.label in template: 18.A)</title><text x="182.94" y="88.73" class="green" >A</text></g>
<g><line x1="183.31" y1="86.4224" x2="184.79" y2="78.4268" class="black" /></g>
<g><title>19 (position.label in template: 19.G)</title><text x="175.11" y="87.22" class="black" >G</text></g>
<g><line x1="175.548" y1="84.9261" x2="177.312" y2="76.9131" class="black" /></g>
<g><title>20 (position.label in template: 20.G)</title><text x="167.7" y="85.72" class="black" >G</text></g>
<g><line x1="168.138" y1="83.4261" x2="169.902" y2="75.4131" class="black" /></g>
<g><text x="168.634" y="92.5282" class="numbering-label sequential" >20</text></g>
<g><line x1="167.949" y1="87.5355" x2="168.425" y2="91.0011" class="numbering-line sequential" /></g>
<g><title>21 (position.label in template: 21.G)</title><text x="160.97" y="89.16" class="black" >G</text></g>
<g><title>22 (position.label in template: 22.A)</title><text x="153.98" y="87.66" class="black" >A</text></g>
<g><title>23 (position.label in template: 23.U)</title><text x="148.91" y="81.87" class="green" >T</text></g>
<g><line x1="149.281" y1="79.5625" x2="150.759" y2="71.5767" class="black" /></g>
<g><title>24 (position.label in template: 24.C)</title><text x="141.5" y="80.37" class="black" >C</text></g>
<g><line x1="141.871" y1="78.0625" x2="143.349" y2="70.0767" class="black" /></g>
<g><title>25 (position.label in template: 25.A)</title><text x="134.29" y="78.87" class="green" >A</text></g>
<g><line x1="134.662" y1="76.5627" x2="136.148" y2="68.5665" class="black" /></g>
<g><title>26 (position.label in template: 26.G)</title><text x="126.47" y="77.37" class="black" >G</text></g>
<g><line x1="126.907" y1="75.076" x2="128.673" y2="67.0532" class="black" /></g>
<g><title>27 (position.label in template: 27.C)</title><text x="119.27" y="75.87" class="black" >C</text></g>
<g><line x1="119.64" y1="73.5624" x2="121.12" y2="65.5668" class="black" /></g>
<g><title>28 (position.label in template: 28.A)</title><text x="112.07" y="74.37" class="black" >A</text></g>
<g><line x1="112.44" y1="72.0624" x2="113.92" y2="64.0668" class="black" /></g>
<g><title>29 (position.label in template: 29.G)</title><text x="104.24" y="72.87" class="black" >G</text></g>
<g><line x1="104.677" y1="70.576" x2="106.443" y2="62.5532" class="black" /></g>
<g><title>30 (position.label in template: 30.A)</title><text x="97.25" y="71.36" class="green" >A</text></g>
<g><line x1="97.6207" y1="69.0525" x2="99.0993" y2="61.0667" class="black" /></g>
<g><text x="99.4679" y="77.8643" class="numbering-label sequential" >30</text></g>
<g><line x1="97.8414" y1="73.0945" x2="98.9471" y2="76.3372" class="numbering-line sequential" /></g>
<g><title>31 (position.label in template: 31.U)</title><text x="92.04" y="77.03" class="green" >T</text></g>
<g><title>32 (position.label in template: 32.G)</title><text x="89.42" y="69.86" class="black" >G</text></g>
<g><line x1="89.8578" y1="67.5661" x2="91.6222" y2="59.5531" class="black" /></g>
<g><title>33 (position.label in template: 33.U)</title><text x="82.22" y="68.36" class="green" >T</text></g>
<g><line x1="82.6578" y1="66.0661" x2="84.4222" y2="58.0531" class="black" /></g>
<g><title>34 (position.label in template: 34.U)</title><text x="74.81" y="66.86" class="green" >T</text></g>
<g><line x1="75.1804" y1="64.5524" x2="76.6596" y2="56.5568" class="black" /></g>
<g><title>35 (position.label in template: 35.G)</title><text x="69.6" y="72.53" class="black" >G</text></g>
<g><title>36 (position.label in template: 36.C)</title><text x="67.4" y="65.36" class="black" >C</text></g>
<g><line x1="67.7704" y1="63.0524" x2="69.2496" y2="55.0568" class="black" /></g>
<g><title>37 (position.label in template: 37.U)</title><text x="59.99" y="63.86" class="green" >T</text></g>
<g><line x1="60.4275" y1="61.566" x2="62.1925" y2="53.5432" class="black" /></g>
<g><title>38 (position.label in template: 38.U)</title><text x="52.52" y="62.72" class="green" >T</text></g>
<g><title>39 (position.label in template: 39.U)</title><text x="50" y="55.59" class="green" >T</text></g>
<g><title>40 (position.label in template: 40.U)</title><text x="55.1" y="50" class="green" >T</text></g>
<g><title>41 (position.label in template: 41.A)</title><text x="62.63" y="51.86" class="green" >A</text></g>
<g><title>42 (position.label in template: 42.G)</title><text x="69.62" y="53.36" class="black" >G</text></g>
<g><title>43 (position.label in template: 43.G)</title><text x="77.03" y="54.86" class="green" >G</text></g>
<g><title>44 (position.label in template: 44.A)</title><text x="84.86" y="56.37" class="green" >A</text></g>
<g><title>45 (position.label in template: 45.C)</title><text x="92.06" y="57.87" class="black" >C</text></g>
<g><title>46 (position.label in template: 46.U)</title><text x="99.47" y="59.37" class="green" >T</text></g>
<g><title>47 (position.label in template: 47.C)</title><text x="106.88" y="60.87" class="black" >C</text></g>
<g><title>48 (position.label in template: 48.C)</title><text x="114.29" y="62.37" class="black" >C</text></g>
<g><title>49 (position.label in template: 49.G)</title><text x="121.49" y="63.87" class="black" >G</text></g>
<g><title>50 (position.label in template: 50.C)</title><text x="129.11" y="65.37" class="black" >C</text></g>
<g><text x="130.455" y="58.6309" class="numbering-label sequential" >50</text></g>
<g><line x1="129.469" y1="63.5729" x2="130.15" y2="60.158" class="numbering-line sequential" /></g>
<g><title>51 (position.label in template: 51.U)</title><text x="136.52" y="66.87" class="green" >T</text></g>
<g><title>52 (position.label in template: 52.G)</title><text x="143.72" y="68.38" class="black" >G</text></g>
<g><title>53 (position.label in template: 53.G)</title><text x="151.13" y="69.88" class="green" >G</text></g>
<g><title>54 (position.label in template: 54.C)</title><text x="158.07" y="66.44" class="black" >C</text></g>
<g><title>55 (position.label in template: 55.A)</title><text x="165.69" y="67.94" class="black" >A</text></g>
<g><title>56 (position.label in template: 56.C)</title><text x="170.34" y="73.73" class="black" >C</text></g>
<g><title>57 (position.label in template: 57.C)</title><text x="177.75" y="75.23" class="black" >C</text></g>
<g><title>58 (position.label in template: 58.U)</title><text x="185.16" y="76.73" class="green" >T</text></g>
<g><title>59 (position.label in template: 59.U)</title><text x="190.81" y="71.7" class="green" >T</text></g>
<g><title>60 (position.label in template: 60.A)</title><text x="198.35" y="69.88" class="black" >A</text></g>
<g><title>61 (position.label in template: 61.U)</title><text x="205.48" y="71.7" class="green" >T</text></g>
<g><line x1="206.79" y1="72.9532" x2="212.13" y2="79.3059" class="black" /></g>
<g><title>62 (position.label in template: 62.G)</title><text x="211.12" y="66.91" class="black" >G</text></g>
<g><line x1="212.429" y1="68.1639" x2="217.771" y2="74.5252" class="black" /></g>
<g><title>63 (position.label in template: 63.A)</title><text x="217.39" y="62.13" class="green" >A</text></g>
<g><line x1="218.659" y1="63.4167" x2="223.671" y2="69.7025" class="black" /></g>
<g><title>64 (position.label in template: 64.G)</title><text x="221.21" y="55.86" class="black" >G</text></g>
<g><title>65 (position.label in template: 65.A)</title><text x="229.18" y="55.51" class="black" >A</text></g>
<g><title>66 (position.label in template: 66.A)</title><text x="233.96" y="61.37" class="black" >A</text></g>
<g><title>67 (position.label in template: 67.A)</title><text x="232.12" y="68.7" class="black" >A</text></g>
<g><title>68 (position.label in template: 68.U)</title><text x="224.94" y="71.6" class="green" >T</text></g>
<g><title>69 (position.label in template: 69.C)</title><text x="219.08" y="76.39" class="black" >C</text></g>
<g><title>70 (position.label in template: 70.A)</title><text x="213.44" y="81.17" class="green" >A</text></g>
<g><title>71 (position.label in template: 71.A)</title><text x="213.76" y="88.73" class="black" >A</text></g>
<g><title>72 (position.label in template: 72.A)</title><text x="210.52" y="95.56" class="black" >A</text></g>
<g><title>73 (position.label in template: 73.G)</title><text x="204.05" y="100.09" class="black" >G</text></g>
<g><title>74 (position.label in template: 74.U)</title><text x="204.26" y="107.65" class="green" >T</text></g>
<g><title>75 (position.label in template: 75.U)</title><text x="211.23" y="104.7" class="green" >T</text></g>
<g><title>76 (position.label in template: 76.U)</title><text x="218.22" y="107.56" class="green" >T</text></g>
<g><title>77 (position.label in template: 77.U)</title><text x="221.13" y="114.54" class="green" >T</text></g>
<g><title>78 (position.label in template: 78.U)</title><text x="218.22" y="121.52" class="green" >T</text></g>
<g><title>79 (position.label in template: 79.G)</title><text x="211.02" y="124.38" class="black" >G</text></g>
<g><title>80 (position.label in template: 80.G)</title><text x="204.05" y="121.44" class="black" >G</text></g>
<g><title>81 (position.label in template: 81.G)</title><text x="204.05" y="129" class="black" >G</text></g>
<g><title>82 (position.label in template: 82.U)</title><text x="204.26" y="136.56" class="green" >T</text></g>
<g><title>83 (position.label in template: 83.3')</title><text x="211.474" y="134.339" class="green" >3'</text></g>
<g><line x1="113.13" y1="141.698" x2="116.606" y2="141.698" class="gray" /></g>
<g><line x1="120.679" y1="141.698" x2="124.155" y2="141.698" class="gray" /></g>
<g><line x1="128.227" y1="141.698" x2="131.704" y2="141.698" class="gray" /></g>
<g><line x1="135.776" y1="141.698" x2="139.252" y2="141.698" class="gray" /></g>
<g><line x1="143.325" y1="141.698" x2="146.801" y2="141.698" class="gray" /></g>
<g><line x1="150.873" y1="141.698" x2="154.35" y2="141.698" class="gray" /></g>
<g><line x1="158.422" y1="141.698" x2="161.898" y2="141.698" class="gray" /></g>
<g><line x1="165.971" y1="141.698" x2="169.447" y2="141.698" class="gray" /></g>
<g><line x1="173.519" y1="141.698" x2="176.996" y2="141.698" class="gray" /></g>
<g><line x1="181.068" y1="141.698" x2="184.544" y2="141.698" class="gray" /></g>
<g><line x1="187.991" y1="140.23" x2="190.399" y2="137.723" class="gray" /></g>
<g><line x1="191.867" y1="134.219" x2="191.963" y2="130.73" class="gray" /></g>
<g><line x1="192.02" y1="126.658" x2="192.02" y2="123.171" class="gray" /></g>
<g><line x1="191.139" y1="119.299" x2="189.591" y2="116.07" class="gray" /></g>
<g><line x1="189.636" y1="112.421" x2="191.304" y2="109.158" class="gray" /></g>
<g><line x1="192.173" y1="105.309" x2="192.077" y2="101.82" class="gray" /></g>
<g><line x1="190.39" y1="98.5642" x2="187.6" y2="96.475" class="gray" /></g>
<g><line x1="185.144" y1="93.3934" x2="183.766" y2="90.2858" class="gray" /></g>
<g><line x1="180.941" y1="88.039" x2="177.109" y2="87.3001" class="gray" /></g>
<g><line x1="173.114" y1="86.5106" x2="169.696" y2="85.8186" class="gray" /></g>
<g><line x1="165.887" y1="86.3413" x2="162.783" y2="87.9279" class="gray" /></g>
<g><line x1="158.979" y1="88.4274" x2="155.971" y2="87.7818" class="gray" /></g>
<g><line x1="152.639" y1="85.8227" x2="150.251" y2="83.0964" class="gray" /></g>
<g><line x1="146.914" y1="81.1606" x2="143.496" y2="80.4686" class="gray" /></g>
<g><line x1="139.507" y1="79.6498" x2="136.283" y2="78.9793" class="gray" /></g>
<g><line x1="132.29" y1="78.181" x2="128.47" y2="77.4482" class="gray" /></g>
<g><line x1="124.477" y1="76.6493" x2="121.263" y2="75.9799" class="gray" /></g>
<g><line x1="117.277" y1="75.1493" x2="114.063" y2="74.4799" class="gray" /></g>
<g><line x1="110.07" y1="73.6815" x2="106.24" y2="72.9477" class="gray" /></g>
<g><line x1="102.25" y1="72.1346" x2="99.2402" y2="71.4845" class="gray" /></g>
<g><line x1="95.8723" y1="72.5539" x2="93.4177" y2="75.2253" class="gray" /></g>
<g><line x1="91.3412" y1="74.8121" x2="90.1188" y2="71.467" class="gray" /></g>
<g><line x1="87.4266" y1="69.1393" x2="84.2134" y2="68.4699" class="gray" /></g>
<g><line x1="80.2243" y1="67.6506" x2="76.8057" y2="66.9586" class="gray" /></g>
<g><line x1="73.4323" y1="68.0539" x2="70.9777" y2="70.7253" class="gray" /></g>
<g><line x1="69.0027" y1="70.278" x2="67.9973" y2="67.0012" class="gray" /></g>
<g><line x1="65.4043" y1="64.6506" x2="61.9857" y2="63.9586" class="gray" /></g>
<g><line x1="57.9772" y1="63.2474" x2="54.5328" y2="62.7218" class="gray" /></g>
<g><line x1="51.8415" y1="60.4948" x2="50.6785" y2="57.2043" class="gray" /></g>
<g><line x1="51.3723" y1="53.7804" x2="53.7277" y2="51.1988" class="gray" /></g>
<g><line x1="57.0767" y1="50.1829" x2="60.6533" y2="51.0663" class="gray" /></g>
<g><line x1="64.6208" y1="51.9818" x2="67.6292" y2="52.6274" class="gray" /></g>
<g><line x1="71.6157" y1="53.4586" x2="75.0343" y2="54.1506" class="gray" /></g>
<g><line x1="79.0293" y1="54.9401" x2="82.8607" y2="55.679" class="gray" /></g>
<g><line x1="86.8534" y1="56.4799" x2="90.0666" y2="57.1493" class="gray" /></g>
<g><line x1="94.0557" y1="57.9686" x2="97.4743" y2="58.6606" class="gray" /></g>
<g><line x1="101.466" y1="59.4686" x2="104.884" y2="60.1606" class="gray" /></g>
<g><line x1="108.876" y1="60.9686" x2="112.294" y2="61.6606" class="gray" /></g>
<g><line x1="116.283" y1="62.4799" x2="119.497" y2="63.1493" class="gray" /></g>
<g><line x1="123.488" y1="63.9578" x2="127.112" y2="64.6713" class="gray" /></g>
<g><line x1="131.106" y1="65.4686" x2="134.524" y2="66.1606" class="gray" /></g>
<g><line x1="138.513" y1="66.9825" x2="141.727" y2="67.6566" class="gray" /></g>
<g><line x1="145.716" y1="68.4786" x2="149.134" y2="69.1706" class="gray" /></g>
<g><line x1="152.954" y1="68.6703" x2="156.246" y2="67.0389" class="gray" /></g>
<g><line x1="160.068" y1="66.5278" x2="163.692" y2="67.2413" class="gray" /></g>
<g><line x1="166.965" y1="69.2221" x2="169.065" y2="71.837" class="gray" /></g>
<g><line x1="172.336" y1="73.8286" x2="175.754" y2="74.5206" class="gray" /></g>
<g><line x1="179.746" y1="75.3286" x2="183.164" y2="76.0206" class="gray" /></g>
<g><line x1="186.681" y1="75.0707" x2="189.289" y2="72.7485" class="gray" /></g>
<g><line x1="192.789" y1="70.9168" x2="196.371" y2="70.0523" class="gray" /></g>
<g><line x1="200.323" y1="70.0782" x2="203.507" y2="70.891" class="gray" /></g>
<g><line x1="207.032" y1="70.0765" x2="209.568" y2="67.9226" class="gray" /></g>
<g><line x1="212.739" y1="65.3701" x2="215.771" y2="63.059" class="gray" /></g>
<g><line x1="218.449" y1="60.0857" x2="220.151" y2="57.2934" class="gray" /></g>
<g><line x1="223.244" y1="55.4652" x2="227.146" y2="55.2939" class="gray" /></g>
<g><line x1="230.467" y1="56.7824" x2="232.673" y2="59.4868" class="gray" /></g>
<g><line x1="233.464" y1="63.0395" x2="232.616" y2="66.4197" class="gray" /></g>
<g><line x1="230.232" y1="69.1571" x2="226.828" y2="70.532" class="gray" /></g>
<g><line x1="223.364" y1="72.5832" x2="220.656" y2="74.7959" class="gray" /></g>
<g><line x1="217.527" y1="77.401" x2="214.993" y2="79.5481" class="gray" /></g>
<g><line x1="213.526" y1="82.8989" x2="213.674" y2="86.3902" class="gray" /></g>
<g><line x1="212.887" y1="90.2642" x2="211.393" y2="93.4149" class="gray" /></g>
<g><line x1="208.852" y1="96.4224" x2="205.718" y2="98.6167" class="gray" /></g>
<g><line x1="204.107" y1="101.82" x2="204.203" y2="105.309" class="gray" /></g>
<g><line x1="206.135" y1="106.551" x2="209.355" y2="105.188" class="gray" /></g>
<g><line x1="213.115" y1="105.166" x2="216.335" y2="106.484" class="gray" /></g>
<g><line x1="219.004" y1="109.134" x2="220.346" y2="112.355" class="gray" /></g>
<g><line x1="220.346" y1="116.114" x2="219.004" y2="119.335" class="gray" /></g>
<g><line x1="216.328" y1="121.966" x2="212.912" y2="123.323" class="gray" /></g>
<g><line x1="209.144" y1="123.283" x2="205.926" y2="121.926" class="gray" /></g>
<g><line x1="204.05" y1="123.171" x2="204.05" y2="126.658" class="gray" /></g>
<g><line x1="204.107" y1="130.73" x2="204.203" y2="134.219" class="gray" /></g>
<g><line x1="206.206" y1="135.655" x2="209.528" y2="134.632" class="gray" /></g>
</svg>
