<svg
	xmlns="http://www.w3.org/2000/svg"
	width="289.387"
	height="207.003">
<g><style type="text/css" >
<!-- create color definitions -->
<![CDATA[
circle.red {stroke: rgb(255, 0, 255); fill: none; }
circle.green {stroke: rgb(0, 255, 0); fill: none; }
circle.blue {stroke: rgb(0, 0, 255); fill: none; }
circle.black {stroke: rgb(0, 0, 0); fill: none; }
circle.gray {stroke: rgb(204, 204, 204); fill: none; }
circle.brown {stroke: rgb(211.65, 104.55, 30.6); fill: none; }
line.red {stroke: rgb(255, 0, 255); stroke-width: 0.381771; }
line.green {stroke: rgb(0, 255, 0); stroke-width: 0.381771; }
line.blue {stroke: rgb(0, 0, 255); stroke-width: 0.381771; }
line.black {stroke: rgb(0, 0, 0); stroke-width: 0.381771; }
line.gray {stroke: rgb(204, 204, 204); stroke-width: 0.381771; }
line.brown {stroke: rgb(211.65, 104.55, 30.6); stroke-width: 0.381771; }
line {stroke: rgb(0, 0, 0); }
text.red {fill: rgb(255, 0, 255); font-size: 3.054167px; font-weight: bold; font-family: Helvetica; }
text.green {fill: rgb(0, 255, 0); font-size: 3.054167px; font-weight: bold; font-family: Helvetica; }
text.blue {fill: rgb(0, 0, 255); font-size: 3.054167px; font-weight: bold; font-family: Helvetica; }
text.black {fill: rgb(0, 0, 0); font-size: 3.054167px; font-weight: bold; font-family: Helvetica; }
text.gray {fill: rgb(204, 204, 204); font-size: 3.054167px; font-weight: bold; font-family: Helvetica; }
text.brown {fill: rgb(211.65, 104.55, 30.6); font-size: 3.054167px; font-weight: bold; font-family: Helvetica; }
text {fill: rgb(0, 0, 0); font-size: 3.054167px; font-weight: bold; font-family: Helvetica; text-anchor: middle; alignment-baseline: middle; }

.pseudoknot_connection{stroke-linecap: round; stroke-opacity: 0.2; stroke-width: 1.5; }
.pseudoknot_segment1{stroke-linecap: round; stroke-opacity: 0.4; stroke-width: 3.05417; }
.pseudoknot_segment2{stroke-linecap: round; stroke-opacity: 0.4; stroke-width: 3.05417; }
line.numbering-line{stroke: rgb(204, 204, 204); stroke-width: 0.190885; }
line.predicted{stroke: rgb(0, 0, 0); stroke-dasharray: 2; }
polyline{fill: none; stroke-linejoin: round; }
template{visibility: hidden; }
text.numbering-label{fill: rgb(204, 204, 204); }
]]>
</style></g>
<g><title>0 (position.label in template: 0.5')</title><text x="42.4388" y="157.003" class="green" >5'</text></g>
<g><title>1 (position.label in template: 1.C)</title><text x="50" y="157.003" class="black" >C</text></g>
<g><title>2 (position.label in template: 2.U)</title><text x="57.5612" y="157.003" class="green" >T</text></g>
<g><title>3 (position.label in template: 3.G)</title><text x="65.1225" y="157.003" class="black" >G</text></g>
<g><title>4 (position.label in template: 4.A)</title><text x="72.6837" y="157.003" class="black" >A</text></g>
<g><title>5 (position.label in template: 5.A)</title><text x="80.245" y="157.003" class="black" >A</text></g>
<g><title>6 (position.label in template: 6.U)</title><text x="87.8062" y="157.003" class="green" >T</text></g>
<g><title>7 (position.label in template: 7.A)</title><text x="95.3675" y="157.003" class="black" >A</text></g>
<g><title>8 (position.label in template: 8.C)</title><text x="102.929" y="157.003" class="black" >C</text></g>
<g><title>9 (position.label in template: 9.A)</title><text x="110.49" y="157.003" class="black" >A</text></g>
<g><title>10 (position.label in template: 10.G)</title><text x="118.051" y="157.003" class="black" >G</text></g>
<g><text x="118.051" y="163.875" class="numbering-label sequential" >10</text></g>
<g><line x1="118.051" y1="158.835" x2="118.051" y2="162.348" class="numbering-line sequential" /></g>
<g><title>11 (position.label in template: 11.G)</title><text x="125.612" y="157.003" class="black" >G</text></g>
<g><title>12 (position.label in template: 12.C)</title><text x="133.174" y="157.003" class="black" >C</text></g>
<g><title>13 (position.label in template: 13.G)</title><text x="140.735" y="157.003" class="black" >G</text></g>
<g><title>14 (position.label in template: 14.A)</title><text x="148.296" y="157.003" class="black" >A</text></g>
<g><title>15 (position.label in template: 15.U)</title><text x="155.857" y="157.003" class="green" >T</text></g>
<g><title>16 (position.label in template: 16.G)</title><text x="161.096" y="151.55" class="black" >G</text></g>
<g><line x1="163.132" y1="151.245" x2="171.51" y2="151.245" class="black" /></g>
<g><title>17 (position.label in template: 17.A)</title><text x="161.516" y="143.99" class="green" >A</text></g>
<g><line x1="163.552" y1="143.685" x2="171.51" y2="143.685" class="black" /></g>
<g><title>18 (position.label in template: 18.A)</title><text x="161.516" y="136.43" class="green" >A</text></g>
<g><line x1="163.552" y1="136.125" x2="171.51" y2="136.125" class="black" /></g>
<g><title>19 (position.label in template: 19.G)</title><text x="161.096" y="128.86" class="black" >G</text></g>
<g><line x1="163.132" y1="128.555" x2="171.51" y2="128.555" class="black" /></g>
<g><title>20 (position.label in template: 20.C)</title><text x="161.306" y="121.31" class="black" >C</text></g>
<g><line x1="163.342" y1="121.005" x2="171.3" y2="121.005" class="black" /></g>
<g><text x="154.435" y="121.215" class="numbering-label sequential" >20</text></g>
<g><line x1="159.473" y1="121.285" x2="156.267" y2="121.24" class="numbering-line sequential" /></g>
<g><title>21 (position.label in template: 21.U)</title><text x="161.306" y="113.75" class="green" >T</text></g>
<g><line x1="163.342" y1="113.445" x2="171.72" y2="113.445" class="black" /></g>
<g><title>22 (position.label in template: 22.C)</title><text x="154.506" y="117.05" class="black" >C</text></g>
<g><title>23 (position.label in template: 23.G)</title><text x="146.746" y="117.4" class="black" >G</text></g>
<g><title>24 (position.label in template: 24.C)</title><text x="139.866" y="114.76" class="black" >C</text></g>
<g><title>25 (position.label in template: 25.C)</title><text x="134.396" y="109.54" class="black" >C</text></g>
<g><title>26 (position.label in template: 26.U)</title><text x="131.426" y="102.59" class="green" >T</text></g>
<g><title>27 (position.label in template: 27.U)</title><text x="131.426" y="95.03" class="green" >T</text></g>
<g><title>28 (position.label in template: 28.A)</title><text x="134.606" y="88.08" class="black" >A</text></g>
<g><title>29 (position.label in template: 29.A)</title><text x="140.076" y="82.86" class="black" >A</text></g>
<g><title>30 (position.label in template: 30.G)</title><text x="146.746" y="80.22" class="black" >G</text></g>
<g><text x="145.669" y="73.4331" class="numbering-label sequential" >30</text></g>
<g><line x1="146.459" y1="78.4101" x2="145.911" y2="74.9601" class="numbering-line sequential" /></g>
<g><title>31 (position.label in template: 31.C)</title><text x="154.506" y="80.57" class="black" >C</text></g>
<g><title>32 (position.label in template: 32.G)</title><text x="161.096" y="83.87" class="black" >G</text></g>
<g><line x1="163.132" y1="83.5646" x2="171.51" y2="83.5646" class="black" /></g>
<g><title>33 (position.label in template: 33.C)</title><text x="161.306" y="76.31" class="black" >C</text></g>
<g><line x1="163.342" y1="76.0046" x2="171.3" y2="76.0046" class="black" /></g>
<g><title>34 (position.label in template: 34.C)</title><text x="161.306" y="68.75" class="black" >C</text></g>
<g><line x1="163.342" y1="68.4446" x2="171.3" y2="68.4446" class="black" /></g>
<g><title>35 (position.label in template: 35.G)</title><text x="156.836" y="62.51" class="black" >G</text></g>
<g><title>36 (position.label in template: 36.C)</title><text x="157.976" y="55.01" class="black" >C</text></g>
<g><title>37 (position.label in template: 37.A)</title><text x="163.856" y="50" class="black" >A</text></g>
<g><title>38 (position.label in template: 38.C)</title><text x="171.206" y="50" class="black" >C</text></g>
<g><title>39 (position.label in template: 39.A)</title><text x="177.076" y="55.01" class="black" >A</text></g>
<g><title>40 (position.label in template: 40.A)</title><text x="178.016" y="62.51" class="black" >A</text></g>
<g><title>41 (position.label in template: 41.G)</title><text x="173.336" y="68.75" class="black" >G</text></g>
<g><title>42 (position.label in template: 42.G)</title><text x="173.336" y="76.31" class="black" >G</text></g>
<g><title>43 (position.label in template: 43.C)</title><text x="173.546" y="83.87" class="black" >C</text></g>
<g><title>44 (position.label in template: 44.U)</title><text x="179.676" y="88.3" class="green" >T</text></g>
<g><title>45 (position.label in template: 45.G)</title><text x="182.906" y="95.03" class="black" >G</text></g>
<g><title>46 (position.label in template: 46.A)</title><text x="183.326" y="102.59" class="black" >A</text></g>
<g><title>47 (position.label in template: 47.U)</title><text x="179.676" y="109.32" class="green" >T</text></g>
<g><title>48 (position.label in template: 48.A)</title><text x="173.756" y="113.75" class="green" >A</text></g>
<g><title>49 (position.label in template: 49.G)</title><text x="173.336" y="121.31" class="black" >G</text></g>
<g><title>50 (position.label in template: 50.C)</title><text x="173.546" y="128.86" class="black" >C</text></g>
<g><text x="180.417" y="128.765" class="numbering-label sequential" >50</text></g>
<g><line x1="175.378" y1="128.835" x2="178.585" y2="128.79" class="numbering-line sequential" /></g>
<g><title>51 (position.label in template: 51.U)</title><text x="173.546" y="136.43" class="green" >T</text></g>
<g><title>52 (position.label in template: 52.U)</title><text x="173.546" y="143.99" class="green" >T</text></g>
<g><title>53 (position.label in template: 53.C)</title><text x="173.546" y="151.55" class="black" >C</text></g>
<g><title>54 (position.label in template: 54.U)</title><text x="178.897" y="156.892" class="green" >T</text></g>
<g><title>55 (position.label in template: 55.A)</title><text x="186.459" y="156.892" class="black" >A</text></g>
<g><title>56 (position.label in template: 56.C)</title><text x="194.02" y="156.892" class="black" >C</text></g>
<g><title>57 (position.label in template: 57.C)</title><text x="201.581" y="156.892" class="black" >C</text></g>
<g><title>58 (position.label in template: 58.A)</title><text x="209.142" y="156.892" class="black" >A</text></g>
<g><title>59 (position.label in template: 59.A)</title><text x="216.704" y="156.892" class="black" >A</text></g>
<g><title>60 (position.label in template: 60.G)</title><text x="224.265" y="156.892" class="black" >G</text></g>
<g><title>61 (position.label in template: 61.A)</title><text x="231.826" y="156.892" class="black" >A</text></g>
<g><title>62 (position.label in template: 62.U)</title><text x="239.387" y="156.892" class="green" >T</text></g>
<g><title>63 (position.label in template: 63.3')</title><text x="246.949" y="156.892" class="green" >3'</text></g>
<g><line x1="44.4749" y1="156.697" x2="47.9639" y2="156.697" class="gray" /></g>
<g><line x1="52.0361" y1="156.697" x2="55.5251" y2="156.697" class="gray" /></g>
<g><line x1="59.5974" y1="156.697" x2="63.0864" y2="156.697" class="gray" /></g>
<g><line x1="67.1586" y1="156.697" x2="70.6476" y2="156.697" class="gray" /></g>
<g><line x1="74.7199" y1="156.697" x2="78.2089" y2="156.697" class="gray" /></g>
<g><line x1="82.2811" y1="156.697" x2="85.7701" y2="156.697" class="gray" /></g>
<g><line x1="89.8424" y1="156.697" x2="93.3314" y2="156.697" class="gray" /></g>
<g><line x1="97.4036" y1="156.697" x2="100.893" y2="156.697" class="gray" /></g>
<g><line x1="104.965" y1="156.697" x2="108.454" y2="156.697" class="gray" /></g>
<g><line x1="112.526" y1="156.697" x2="116.015" y2="156.697" class="gray" /></g>
<g><line x1="120.087" y1="156.697" x2="123.576" y2="156.697" class="gray" /></g>
<g><line x1="127.649" y1="156.697" x2="131.138" y2="156.697" class="gray" /></g>
<g><line x1="135.21" y1="156.697" x2="138.699" y2="156.697" class="gray" /></g>
<g><line x1="142.771" y1="156.697" x2="146.26" y2="156.697" class="gray" /></g>
<g><line x1="150.332" y1="156.697" x2="153.821" y2="156.697" class="gray" /></g>
<g><line x1="157.268" y1="155.229" x2="159.685" y2="152.713" class="gray" /></g>
<g><line x1="161.209" y1="149.212" x2="161.403" y2="145.718" class="gray" /></g>
<g><line x1="161.516" y1="141.648" x2="161.516" y2="138.161" class="gray" /></g>
<g><line x1="161.403" y1="134.092" x2="161.209" y2="130.588" class="gray" /></g>
<g><line x1="161.152" y1="126.519" x2="161.249" y2="123.04" class="gray" /></g>
<g><line x1="161.306" y1="118.968" x2="161.306" y2="115.481" class="gray" /></g>
<g><line x1="159.474" y1="114.334" x2="156.338" y2="115.856" class="gray" /></g>
<g><line x1="152.472" y1="116.836" x2="148.78" y2="117.003" class="gray" /></g>
<g><line x1="144.845" y1="116.365" x2="141.767" y2="115.184" class="gray" /></g>
<g><line x1="138.393" y1="113.049" x2="135.869" y2="110.64" class="gray" /></g>
<g><line x1="133.596" y1="107.362" x2="132.226" y2="104.157" class="gray" /></g>
<g><line x1="131.426" y1="100.248" x2="131.426" y2="96.7607" class="gray" /></g>
<g><line x1="132.273" y1="92.8731" x2="133.759" y2="89.6261" class="gray" /></g>
<g><line x1="136.079" y1="86.3689" x2="138.603" y2="83.9603" class="gray" /></g>
<g><line x1="141.969" y1="81.8052" x2="144.853" y2="80.6639" class="gray" /></g>
<g><line x1="148.78" y1="80.0063" x2="152.472" y2="80.1728" class="gray" /></g>
<g><line x1="156.326" y1="81.1763" x2="159.275" y2="82.6529" class="gray" /></g>
<g><line x1="161.152" y1="81.5293" x2="161.249" y2="78.0399" class="gray" /></g>
<g><line x1="161.306" y1="73.9685" x2="161.306" y2="70.4807" class="gray" /></g>
<g><line x1="160.12" y1="66.7893" x2="158.022" y2="63.8598" class="gray" /></g>
<g><line x1="157.142" y1="60.1916" x2="157.67" y2="56.7176" class="gray" /></g>
<g><line x1="159.526" y1="53.3841" x2="162.306" y2="51.0151" class="gray" /></g>
<g><line x1="165.892" y1="49.6946" x2="169.17" y2="49.6946" class="gray" /></g>
<g><line x1="172.755" y1="51.0164" x2="175.527" y2="53.3828" class="gray" /></g>
<g><line x1="177.329" y1="56.7249" x2="177.763" y2="60.1843" class="gray" /></g>
<g><line x1="176.794" y1="63.8335" x2="174.557" y2="66.8157" class="gray" /></g>
<g><line x1="173.336" y1="70.4807" x2="173.336" y2="73.9685" class="gray" /></g>
<g><line x1="173.392" y1="78.0399" x2="173.489" y2="81.5293" class="gray" /></g>
<g><line x1="175.196" y1="84.7572" x2="178.026" y2="86.802" class="gray" /></g>
<g><line x1="180.557" y1="89.8302" x2="182.025" y2="92.8889" class="gray" /></g>
<g><line x1="183.019" y1="96.7576" x2="183.213" y2="100.252" class="gray" /></g>
<g><line x1="182.355" y1="104.074" x2="180.647" y2="107.225" class="gray" /></g>
<g><line x1="178.046" y1="110.234" x2="175.386" y2="112.225" class="gray" /></g>
<g><line x1="173.643" y1="115.478" x2="173.449" y2="118.972" class="gray" /></g>
<g><line x1="173.392" y1="123.04" x2="173.489" y2="126.519" class="gray" /></g>
<g><line x1="173.546" y1="130.591" x2="173.546" y2="134.088" class="gray" /></g>
<g><line x1="173.546" y1="138.161" x2="173.546" y2="141.648" class="gray" /></g>
<g><line x1="173.546" y1="145.721" x2="173.546" y2="149.208" class="gray" /></g>
<g><line x1="174.987" y1="152.683" x2="177.456" y2="155.148" class="gray" /></g>
<g><line x1="180.934" y1="156.586" x2="184.423" y2="156.586" class="gray" /></g>
<g><line x1="188.495" y1="156.586" x2="191.984" y2="156.586" class="gray" /></g>
<g><line x1="196.056" y1="156.586" x2="199.545" y2="156.586" class="gray" /></g>
<g><line x1="203.617" y1="156.586" x2="207.106" y2="156.586" class="gray" /></g>
<g><line x1="211.179" y1="156.586" x2="214.668" y2="156.586" class="gray" /></g>
<g><line x1="218.74" y1="156.586" x2="222.229" y2="156.586" class="gray" /></g>
<g><line x1="226.301" y1="156.586" x2="229.79" y2="156.586" class="gray" /></g>
<g><line x1="233.862" y1="156.586" x2="237.351" y2="156.586" class="gray" /></g>
<g><line x1="241.424" y1="156.586" x2="244.913" y2="156.586" class="gray" /></g>
</svg>
