<svg
	xmlns="http://www.w3.org/2000/svg"
	width="227.76"
	height="255.9">
<g><style type="text/css" >
<!-- create color definitions -->
<![CDATA[
circle.red {stroke: rgb(255, 0, 255); fill: none; }
circle.green {stroke: rgb(0, 255, 0); fill: none; }
circle.blue {stroke: rgb(0, 0, 255); fill: none; }
circle.black {stroke: rgb(0, 0, 0); fill: none; }
circle.gray {stroke: rgb(204, 204, 204); fill: none; }
circle.brown {stroke: rgb(211.65, 104.55, 30.6); fill: none; }
line.red {stroke: rgb(255, 0, 255); stroke-width: 0.385239; }
line.green {stroke: rgb(0, 255, 0); stroke-width: 0.385239; }
line.blue {stroke: rgb(0, 0, 255); stroke-width: 0.385239; }
line.black {stroke: rgb(0, 0, 0); stroke-width: 0.385239; }
line.gray {stroke: rgb(204, 204, 204); stroke-width: 0.385239; }
line.brown {stroke: rgb(211.65, 104.55, 30.6); stroke-width: 0.385239; }
line {stroke: rgb(0, 0, 0); }
text.red {fill: rgb(255, 0, 255); font-size: 3.081914px; font-weight: bold; font-family: Helvetica; }
text.green {fill: rgb(0, 255, 0); font-size: 3.081914px; font-weight: bold; font-family: Helvetica; }
text.blue {fill: rgb(0, 0, 255); font-size: 3.081914px; font-weight: bold; font-family: Helvetica; }
text.black {fill: rgb(0, 0, 0); font-size: 3.081914px; font-weight: bold; font-family: Helvetica; }
text.gray {fill: rgb(204, 204, 204); font-size: 3.081914px; font-weight: bold; font-family: Helvetica; }
text.brown {fill: rgb(211.65, 104.55, 30.6); font-size: 3.081914px; font-weight: bold; font-family: Helvetica; }
text {fill: rgb(0, 0, 0); font-size: 3.081914px; font-weight: bold; font-family: Helvetica; text-anchor: middle; alignment-baseline: middle; }

.pseudoknot_connection{stroke-linecap: round; stroke-opacity: 0.2; stroke-width: 1.5; }
.pseudoknot_segment1{stroke-linecap: round; stroke-opacity: 0.4; stroke-width: 3.08191; }
.pseudoknot_segment2{stroke-linecap: round; stroke-opacity: 0.4; stroke-width: 3.08191; }
line.numbering-line{stroke: rgb(204, 204, 204); stroke-width: 0.19262; }
line.predicted{stroke: rgb(0, 0, 0); stroke-dasharray: 2; }
polyline{fill: none; stroke-linejoin: round; }
template{visibility: hidden; }
text.numbering-label{fill: rgb(204, 204, 204); }
]]>
</style></g>
<g><title>0 (position.label in template: 0.5')</title><text x="105.17" y="205.9" class="green" >5'</text></g>
<g><title>1 (position.label in template: 1.G)</title><text x="112.17" y="205.9" class="green" >G</text></g>
<g><line x1="114.225" y1="205.592" x2="122.565" y2="205.592" class="black" /></g>
<g><title>2 (position.label in template: 2.U)</title><text x="112.38" y="198.34" class="green" >T</text></g>
<g><line x1="114.435" y1="198.032" x2="122.775" y2="198.032" class="black" /></g>
<g><title>3 (position.label in template: 3.A)</title><text x="112.59" y="190.78" class="green" >A</text></g>
<g><line x1="114.645" y1="190.472" x2="122.565" y2="190.472" class="black" /></g>
<g><title>4 (position.label in template: 4.U)</title><text x="112.38" y="183.22" class="green" >T</text></g>
<g><line x1="114.435" y1="182.912" x2="122.775" y2="182.912" class="black" /></g>
<g><title>5 (position.label in template: 5.U)</title><text x="112.38" y="175.66" class="green" >T</text></g>
<g><line x1="114.435" y1="175.352" x2="122.775" y2="175.352" class="black" /></g>
<g><title>6 (position.label in template: 6.G)</title><text x="112.17" y="168.1" class="black" >G</text></g>
<g><line x1="114.225" y1="167.792" x2="122.565" y2="167.792" class="black" /></g>
<g><title>7 (position.label in template: 7.A)</title><text x="108.14" y="174.21" class="black" >A</text></g>
<g><title>8 (position.label in template: 8.A)</title><text x="100.95" y="176.55" class="black" >A</text></g>
<g><title>9 (position.label in template: 9.G)</title><text x="93.35" y="174.21" class="black" >G</text></g>
<g><title>10 (position.label in template: 10.U)</title><text x="89.11" y="168.1" class="green" >T</text></g>
<g><text x="82.4587" y="170.061" class="numbering-label sequential" >10</text></g>
<g><line x1="87.3363" y1="168.623" x2="84.3079" y2="169.516" class="numbering-line sequential" /></g>
<g><title>11 (position.label in template: 11.A)</title><text x="89.32" y="160.54" class="black" >A</text></g>
<g><title>12 (position.label in template: 12.C)</title><text x="93.56" y="154.42" class="black" >C</text></g>
<g><title>13 (position.label in template: 13.U)</title><text x="100.75" y="152.09" class="green" >T</text></g>
<g><title>14 (position.label in template: 14.U)</title><text x="107.94" y="154.42" class="green" >T</text></g>
<g><title>15 (position.label in template: 15.G)</title><text x="112.17" y="160.54" class="black" >G</text></g>
<g><line x1="114.225" y1="160.232" x2="122.565" y2="160.232" class="black" /></g>
<g><title>16 (position.label in template: 16.G)</title><text x="112.17" y="152.98" class="black" >G</text></g>
<g><line x1="114.225" y1="152.672" x2="122.565" y2="152.672" class="black" /></g>
<g><title>17 (position.label in template: 17.U)</title><text x="112.38" y="145.42" class="green" >T</text></g>
<g><line x1="114.435" y1="145.112" x2="122.775" y2="145.112" class="black" /></g>
<g><title>18 (position.label in template: 18.G)</title><text x="112.17" y="137.86" class="black" >G</text></g>
<g><line x1="114.225" y1="137.552" x2="122.565" y2="137.552" class="black" /></g>
<g><title>19 (position.label in template: 19.G)</title><text x="112.17" y="130.3" class="black" >G</text></g>
<g><line x1="114.225" y1="129.992" x2="122.565" y2="129.992" class="black" /></g>
<g><title>20 (position.label in template: 20.G)</title><text x="105.11" y="127.59" class="black" >G</text></g>
<g><text x="101.747" y="133.654" class="numbering-label sequential" >20</text></g>
<g><line x1="104.213" y1="129.207" x2="102.601" y2="132.113" class="numbering-line sequential" /></g>
<g><title>21 (position.label in template: 21.G)</title><text x="99.08" y="123.04" class="black" >G</text></g>
<g><title>22 (position.label in template: 22.A)</title><text x="94.94" y="117" class="black" >A</text></g>
<g><title>23 (position.label in template: 23.A)</title><text x="92.23" y="109.94" class="black" >A</text></g>
<g><title>24 (position.label in template: 24.U)</title><text x="91.36" y="102.41" class="green" >T</text></g>
<g><title>25 (position.label in template: 25.C)</title><text x="92.8" y="94.99" class="black" >C</text></g>
<g><line x1="93.8636" y1="92.9239" x2="98.0164" y2="86.0597" class="black" /></g>
<g><title>26 (position.label in template: 26.A)</title><text x="86.6" y="90.99" class="green" >A</text></g>
<g><line x1="87.6616" y1="88.9227" x2="91.8084" y2="82.0509" class="black" /></g>
<g><title>27 (position.label in template: 27.A)</title><text x="80.19" y="86.98" class="green" >A</text></g>
<g><line x1="81.2523" y1="84.9131" x2="85.3977" y2="78.0505" class="black" /></g>
<g><title>28 (position.label in template: 28.U)</title><text x="73.57" y="82.98" class="green" >T</text></g>
<g><line x1="74.6831" y1="80.9448" x2="79.1469" y2="74.0188" class="black" /></g>
<g><title>29 (position.label in template: 29.G)</title><text x="66.94" y="78.97" class="black" >G</text></g>
<g><line x1="68.0542" y1="76.9356" x2="72.5258" y2="70.008" class="black" /></g>
<g><title>30 (position.label in template: 30.U)</title><text x="59.67" y="80.06" class="green" >T</text></g>
<g><text x="58.4304" y="86.8826" class="numbering-label sequential" >30</text></g>
<g><line x1="59.3394" y1="81.8794" x2="58.7104" y2="85.3417" class="numbering-line sequential" /></g>
<g><title>31 (position.label in template: 31.G)</title><text x="52.85" y="76.41" class="black" >G</text></g>
<g><title>32 (position.label in template: 32.C)</title><text x="50" y="69.49" class="black" >C</text></g>
<g><title>33 (position.label in template: 33.A)</title><text x="51.95" y="62.14" class="black" >A</text></g>
<g><title>34 (position.label in template: 34.A)</title><text x="57.8" y="57.34" class="black" >A</text></g>
<g><title>35 (position.label in template: 35.U)</title><text x="65.14" y="57.05" class="green" >T</text></g>
<g><title>36 (position.label in template: 36.U)</title><text x="71.33" y="61.39" class="green" >T</text></g>
<g><title>37 (position.label in template: 37.C)</title><text x="73.64" y="68.59" class="black" >C</text></g>
<g><title>38 (position.label in template: 38.A)</title><text x="80.26" y="72.6" class="green" >A</text></g>
<g><title>39 (position.label in template: 39.U)</title><text x="86.46" y="76.6" class="green" >T</text></g>
<g><title>40 (position.label in template: 40.U)</title><text x="92.87" y="80.6" class="green" >T</text></g>
<g><title>41 (position.label in template: 41.G)</title><text x="99.08" y="84.61" class="black" >G</text></g>
<g><title>42 (position.label in template: 42.G)</title><text x="105.11" y="80.06" class="black" >G</text></g>
<g><title>43 (position.label in template: 43.C)</title><text x="112.38" y="77.35" class="black" >C</text></g>
<g><title>44 (position.label in template: 44.U)</title><text x="119.91" y="76.69" class="green" >T</text></g>
<g><line x1="121.888" y1="76.9382" x2="129.912" y2="79.1954" class="black" /></g>
<g><title>45 (position.label in template: 45.G)</title><text x="121.79" y="69.42" class="black" >G</text></g>
<g><line x1="123.768" y1="69.6686" x2="131.782" y2="71.925" class="black" /></g>
<g><title>46 (position.label in template: 46.U)</title><text x="124.08" y="62.15" class="green" >T</text></g>
<g><line x1="126.052" y1="62.4173" x2="133.658" y2="64.6363" class="black" /></g>
<g><title>47 (position.label in template: 47.A)</title><text x="124.19" y="54.59" class="black" >A</text></g>
<g><title>48 (position.label in template: 48.C)</title><text x="129.99" y="50" class="black" >C</text></g>
<g><title>49 (position.label in template: 49.C)</title><text x="137.26" y="52.09" class="black" >C</text></g>
<g><title>50 (position.label in template: 50.U)</title><text x="139.93" y="59.16" class="green" >T</text></g>
<g><text x="146.814" y="59.9955" class="numbering-label sequential" >50</text></g>
<g><line x1="141.766" y1="59.3828" x2="144.965" y2="59.7711" class="numbering-line sequential" /></g>
<g><title>51 (position.label in template: 51.G)</title><text x="135.63" y="65.52" class="green" >G</text></g>
<g><title>52 (position.label in template: 52.C)</title><text x="133.76" y="72.79" class="black" >C</text></g>
<g><title>53 (position.label in template: 53.A)</title><text x="131.89" y="80.06" class="green" >A</text></g>
<g><title>54 (position.label in template: 54.A)</title><text x="137.92" y="84.61" class="black" >A</text></g>
<g><title>55 (position.label in template: 55.C)</title><text x="142.27" y="90.65" class="black" >C</text></g>
<g><line x1="142.803" y1="92.326" x2="144.897" y2="100.118" class="black" /></g>
<g><title>56 (position.label in template: 56.C)</title><text x="149.53" y="88.56" class="black" >C</text></g>
<g><line x1="150.064" y1="90.2357" x2="152.166" y2="98.0379" class="black" /></g>
<g><title>57 (position.label in template: 57.G)</title><text x="156.59" y="86.48" class="black" >G</text></g>
<g><line x1="157.188" y1="88.1375" x2="159.572" y2="95.9761" class="black" /></g>
<g><title>58 (position.label in template: 58.U)</title><text x="161.63" y="80.66" class="green" >T</text></g>
<g><title>59 (position.label in template: 59.A)</title><text x="169.3" y="79.5" class="black" >A</text></g>
<g><title>60 (position.label in template: 60.A)</title><text x="175.68" y="83.56" class="black" >A</text></g>
<g><title>61 (position.label in template: 61.A)</title><text x="177.76" y="90.83" class="black" >A</text></g>
<g><title>62 (position.label in template: 62.G)</title><text x="174.09" y="97.66" class="black" >G</text></g>
<g><title>63 (position.label in template: 63.U)</title><text x="167.35" y="100.63" class="green" >T</text></g>
<g><title>64 (position.label in template: 64.C)</title><text x="160.17" y="98.25" class="black" >C</text></g>
<g><title>65 (position.label in template: 65.G)</title><text x="152.7" y="100.33" class="black" >G</text></g>
<g><title>66 (position.label in template: 66.G)</title><text x="145.43" y="102.41" class="black" >G</text></g>
<g><title>67 (position.label in template: 67.A)</title><text x="145.18" y="109.94" class="black" >A</text></g>
<g><title>68 (position.label in template: 68.G)</title><text x="142.06" y="117" class="black" >G</text></g>
<g><title>69 (position.label in template: 69.U)</title><text x="137.72" y="123.04" class="green" >T</text></g>
<g><title>70 (position.label in template: 70.G)</title><text x="131.47" y="127.59" class="black" >G</text></g>
<g><title>71 (position.label in template: 71.C)</title><text x="124.62" y="130.3" class="black" >C</text></g>
<g><title>72 (position.label in template: 72.C)</title><text x="124.62" y="137.86" class="black" >C</text></g>
<g><title>73 (position.label in template: 73.A)</title><text x="124.83" y="145.42" class="green" >A</text></g>
<g><title>74 (position.label in template: 74.C)</title><text x="124.62" y="152.98" class="black" >C</text></g>
<g><title>75 (position.label in template: 75.C)</title><text x="124.62" y="160.54" class="black" >C</text></g>
<g><title>76 (position.label in template: 76.C)</title><text x="124.62" y="168.1" class="black" >C</text></g>
<g><title>77 (position.label in template: 77.A)</title><text x="124.83" y="175.66" class="green" >A</text></g>
<g><title>78 (position.label in template: 78.A)</title><text x="124.83" y="183.22" class="green" >A</text></g>
<g><title>79 (position.label in template: 79.U)</title><text x="124.62" y="190.78" class="green" >T</text></g>
<g><title>80 (position.label in template: 80.A)</title><text x="124.83" y="198.34" class="green" >A</text></g>
<g><title>81 (position.label in template: 81.U)</title><text x="124.62" y="205.9" class="green" >T</text></g>
<g><title>82 (position.label in template: 82.3')</title><text x="131.62" y="205.9" class="green" >3'</text></g>
<g><line x1="107.225" y1="205.592" x2="110.115" y2="205.592" class="gray" /></g>
<g><line x1="112.227" y1="203.538" x2="112.323" y2="200.086" class="gray" /></g>
<g><line x1="112.437" y1="195.978" x2="112.533" y2="192.526" class="gray" /></g>
<g><line x1="112.533" y1="188.418" x2="112.437" y2="184.966" class="gray" /></g>
<g><line x1="112.38" y1="180.857" x2="112.38" y2="177.406" class="gray" /></g>
<g><line x1="112.323" y1="173.298" x2="112.227" y2="169.846" class="gray" /></g>
<g><line x1="111.039" y1="169.507" x2="109.271" y2="172.187" class="gray" /></g>
<g><line x1="106.186" y1="174.538" x2="102.904" y2="175.606" class="gray" /></g>
<g><line x1="98.9864" y1="175.637" x2="95.3136" y2="174.506" class="gray" /></g>
<g><line x1="92.1786" y1="172.214" x2="90.2814" y2="169.48" class="gray" /></g>
<g><line x1="89.1671" y1="165.738" x2="89.2629" y2="162.286" class="gray" /></g>
<g><line x1="90.4901" y1="158.543" x2="92.3899" y2="155.801" class="gray" /></g>
<g><line x1="95.5145" y1="153.478" x2="98.7955" y2="152.415" class="gray" /></g>
<g><line x1="102.705" y1="152.415" x2="105.985" y2="153.478" class="gray" /></g>
<g><line x1="109.108" y1="155.802" x2="111.002" y2="158.542" class="gray" /></g>
<g><line x1="112.17" y1="158.177" x2="112.17" y2="154.726" class="gray" /></g>
<g><line x1="112.227" y1="150.618" x2="112.323" y2="147.166" class="gray" /></g>
<g><line x1="112.323" y1="143.058" x2="112.227" y2="139.606" class="gray" /></g>
<g><line x1="112.17" y1="135.497" x2="112.17" y2="132.046" class="gray" /></g>
<g><line x1="110.252" y1="129.256" x2="107.028" y2="128.018" class="gray" /></g>
<g><line x1="103.47" y1="126.044" x2="100.72" y2="123.969" class="gray" /></g>
<g><line x1="97.9184" y1="121.037" x2="96.1016" y2="118.387" class="gray" /></g>
<g><line x1="94.2037" y1="114.774" x2="92.9663" y2="111.55" class="gray" /></g>
<g><line x1="91.9942" y1="107.591" x2="91.5958" y2="104.143" class="gray" /></g>
<g><line x1="91.7514" y1="100.085" x2="92.4086" y2="96.6988" class="gray" /></g>
<g><line x1="91.0735" y1="93.5679" x2="88.3265" y2="91.7957" class="gray" /></g>
<g><line x1="84.8582" y1="89.5921" x2="81.9318" y2="87.7615" class="gray" /></g>
<g><line x1="78.4315" y1="85.6093" x2="75.3285" y2="83.7344" class="gray" /></g>
<g><line x1="71.8119" y1="81.6085" x2="68.6981" y2="79.7251" class="gray" /></g>
<g><line x1="64.9081" y1="78.9665" x2="61.7019" y2="79.4472" class="gray" /></g>
<g><line x1="57.8585" y1="78.7823" x2="54.6615" y2="77.0713" class="gray" /></g>
<g><line x1="52.0676" y1="74.202" x2="50.7824" y2="71.0816" class="gray" /></g>
<g><line x1="50.5269" y1="67.1959" x2="51.4231" y2="63.8177" class="gray" /></g>
<g><line x1="53.5384" y1="60.5285" x2="56.2116" y2="58.3351" class="gray" /></g>
<g><line x1="59.853" y1="56.9507" x2="63.087" y2="56.8229" class="gray" /></g>
<g><line x1="66.8223" y1="57.9213" x2="69.6477" y2="59.9023" class="gray" /></g>
<g><line x1="71.9577" y1="63.0382" x2="73.0123" y2="66.3254" class="gray" /></g>
<g><line x1="75.3973" y1="69.3463" x2="78.5027" y2="71.2273" class="gray" /></g>
<g><line x1="81.9865" y1="73.4057" x2="84.7335" y2="75.1779" class="gray" /></g>
<g><line x1="88.2031" y1="77.3795" x2="91.1269" y2="79.2041" class="gray" /></g>
<g><line x1="94.596" y1="81.4064" x2="97.354" y2="83.1873" class="gray" /></g>
<g><line x1="100.72" y1="83.0643" x2="103.47" y2="80.9894" class="gray" /></g>
<g><line x1="107.035" y1="79.0342" x2="110.455" y2="77.7595" class="gray" /></g>
<g><line x1="114.427" y1="76.8624" x2="117.863" y2="76.5612" class="gray" /></g>
<g><line x1="120.424" y1="74.3926" x2="121.276" y2="71.101" class="gray" /></g>
<g><line x1="122.407" y1="67.1521" x2="123.463" y2="63.8015" class="gray" /></g>
<g><line x1="124.11" y1="59.7874" x2="124.16" y2="56.3362" class="gray" /></g>
<g><line x1="125.801" y1="53.0068" x2="128.379" y2="50.9668" class="gray" /></g>
<g><line x1="131.965" y1="50.2595" x2="135.285" y2="51.2141" class="gray" /></g>
<g><line x1="137.986" y1="53.7039" x2="139.204" y2="56.9297" class="gray" /></g>
<g><line x1="138.779" y1="60.5539" x2="136.781" y2="63.5097" class="gray" /></g>
<g><line x1="135.118" y1="67.2016" x2="134.272" y2="70.492" class="gray" /></g>
<g><line x1="133.248" y1="74.4716" x2="132.402" y2="77.762" class="gray" /></g>
<g><line x1="133.53" y1="80.9894" x2="136.28" y2="83.0643" class="gray" /></g>
<g><line x1="139.121" y1="85.969" x2="141.069" y2="88.6746" class="gray" /></g>
<g><line x1="144.244" y1="89.7734" x2="147.556" y2="88.8202" class="gray" /></g>
<g><line x1="151.501" y1="87.6712" x2="154.619" y2="86.7525" class="gray" /></g>
<g><line x1="157.935" y1="84.6186" x2="160.285" y2="81.905" class="gray" /></g>
<g><line x1="163.662" y1="80.0446" x2="167.268" y2="79.4991" class="gray" /></g>
<g><line x1="171.033" y1="80.2949" x2="173.947" y2="82.1487" class="gray" /></g>
<g><line x1="176.245" y1="85.2272" x2="177.195" y2="88.5465" class="gray" /></g>
<g><line x1="176.787" y1="92.3317" x2="175.063" y2="95.5419" class="gray" /></g>
<g><line x1="172.21" y1="98.1803" x2="169.23" y2="99.4933" class="gray" /></g>
<g><line x1="165.4" y1="99.6753" x2="162.12" y2="98.5883" class="gray" /></g>
<g><line x1="158.191" y1="98.4929" x2="154.679" y2="99.4707" class="gray" /></g>
<g><line x1="150.725" y1="100.587" x2="147.405" y2="101.537" class="gray" /></g>
<g><line x1="145.362" y1="104.155" x2="145.248" y2="107.578" class="gray" /></g>
<g><line x1="144.349" y1="111.511" x2="142.891" y2="114.813" class="gray" /></g>
<g><line x1="140.861" y1="118.36" x2="138.919" y2="121.063" class="gray" /></g>
<g><line x1="136.059" y1="123.941" x2="133.131" y2="126.073" class="gray" /></g>
<g><line x1="129.559" y1="128.038" x2="126.531" y2="129.236" class="gray" /></g>
<g><line x1="124.62" y1="132.046" x2="124.62" y2="135.497" class="gray" /></g>
<g><line x1="124.677" y1="139.606" x2="124.773" y2="143.058" class="gray" /></g>
<g><line x1="124.773" y1="147.166" x2="124.677" y2="150.618" class="gray" /></g>
<g><line x1="124.62" y1="154.726" x2="124.62" y2="158.177" class="gray" /></g>
<g><line x1="124.62" y1="162.286" x2="124.62" y2="165.737" class="gray" /></g>
<g><line x1="124.677" y1="169.846" x2="124.773" y2="173.298" class="gray" /></g>
<g><line x1="124.83" y1="177.406" x2="124.83" y2="180.857" class="gray" /></g>
<g><line x1="124.773" y1="184.966" x2="124.677" y2="188.418" class="gray" /></g>
<g><line x1="124.677" y1="192.526" x2="124.773" y2="195.978" class="gray" /></g>
<g><line x1="124.773" y1="200.086" x2="124.677" y2="203.538" class="gray" /></g>
<g><line x1="126.675" y1="205.592" x2="129.565" y2="205.592" class="gray" /></g>
</svg>
