<svg
	xmlns="http://www.w3.org/2000/svg"
	width="256.4"
	height="289.762">
<g><style type="text/css" >
<!-- create color definitions -->
<![CDATA[
circle.red {stroke: rgb(255, 0, 255); fill: none; }
circle.green {stroke: rgb(0, 255, 0); fill: none; }
circle.blue {stroke: rgb(0, 0, 255); fill: none; }
circle.black {stroke: rgb(0, 0, 0); fill: none; }
circle.gray {stroke: rgb(204, 204, 204); fill: none; }
circle.brown {stroke: rgb(211.65, 104.55, 30.6); fill: none; }
line.red {stroke: rgb(255, 0, 255); stroke-width: 0.379297; }
line.green {stroke: rgb(0, 255, 0); stroke-width: 0.379297; }
line.blue {stroke: rgb(0, 0, 255); stroke-width: 0.379297; }
line.black {stroke: rgb(0, 0, 0); stroke-width: 0.379297; }
line.gray {stroke: rgb(204, 204, 204); stroke-width: 0.379297; }
line.brown {stroke: rgb(211.65, 104.55, 30.6); stroke-width: 0.379297; }
line {stroke: rgb(0, 0, 0); }
text.red {fill: rgb(255, 0, 255); font-size: 3.034375px; font-weight: bold; font-family: Helvetica; }
text.green {fill: rgb(0, 255, 0); font-size: 3.034375px; font-weight: bold; font-family: Helvetica; }
text.blue {fill: rgb(0, 0, 255); font-size: 3.034375px; font-weight: bold; font-family: Helvetica; }
text.black {fill: rgb(0, 0, 0); font-size: 3.034375px; font-weight: bold; font-family: Helvetica; }
text.gray {fill: rgb(204, 204, 204); font-size: 3.034375px; font-weight: bold; font-family: Helvetica; }
text.brown {fill: rgb(211.65, 104.55, 30.6); font-size: 3.034375px; font-weight: bold; font-family: Helvetica; }
text {fill: rgb(0, 0, 0); font-size: 3.034375px; font-weight: bold; font-family: Helvetica; text-anchor: middle; alignment-baseline: middle; }

.pseudoknot_connection{stroke-linecap: round; stroke-opacity: 0.2; stroke-width: 1.5; }
.pseudoknot_segment1{stroke-linecap: round; stroke-opacity: 0.4; stroke-width: 3.03438; }
.pseudoknot_segment2{stroke-linecap: round; stroke-opacity: 0.4; stroke-width: 3.03438; }
line.numbering-line{stroke: rgb(204, 204, 204); stroke-width: 0.189648; }
line.predicted{stroke: rgb(0, 0, 0); stroke-dasharray: 2; }
polyline{fill: none; stroke-linejoin: round; }
template{visibility: hidden; }
text.numbering-label{fill: rgb(204, 204, 204); }
]]>
</style></g>
<g><title>0 (position.label in template: 0.5')</title><text x="107.45" y="241.968" class="green" >5'</text></g>
<g><title>1 (position.label in template: 1.G)</title><text x="107.66" y="234.41" class="green" >G</text></g>
<g><line x1="109.683" y1="234.107" x2="118.087" y2="234.107" class="black" /></g>
<g><title>2 (position.label in template: 2.C)</title><text x="107.87" y="226.85" class="black" >C</text></g>
<g><line x1="109.893" y1="226.547" x2="117.877" y2="226.547" class="black" /></g>
<g><title>3 (position.label in template: 3.C)</title><text x="107.87" y="219.29" class="black" >C</text></g>
<g><line x1="109.893" y1="218.987" x2="117.877" y2="218.987" class="black" /></g>
<g><title>4 (position.label in template: 4.A)</title><text x="108.07" y="211.73" class="green" >A</text></g>
<g><line x1="110.093" y1="211.427" x2="118.087" y2="211.427" class="black" /></g>
<g><title>5 (position.label in template: 5.A)</title><text x="100.6" y="210.57" class="black" >A</text></g>
<g><title>6 (position.label in template: 6.A)</title><text x="93.32" y="208.53" class="black" >A</text></g>
<g><title>7 (position.label in template: 7.U)</title><text x="86.12" y="205.65" class="green" >T</text></g>
<g><title>8 (position.label in template: 8.G)</title><text x="79.31" y="201.97" class="black" >G</text></g>
<g><title>9 (position.label in template: 9.A)</title><text x="73.61" y="197.54" class="black" >A</text></g>
<g><title>10 (position.label in template: 10.U)</title><text x="67.84" y="192.41" class="green" >T</text></g>
<g><text x="63.019" y="197.244" class="numbering-label sequential" >10</text></g>
<g><line x1="66.5544" y1="193.699" x2="64.532" y2="195.727" class="numbering-line sequential" /></g>
<g><title>11 (position.label in template: 11.G)</title><text x="62.71" y="186.67" class="black" >G</text></g>
<g><title>12 (position.label in template: 12.U)</title><text x="58.72" y="180.39" class="green" >T</text></g>
<g><title>13 (position.label in template: 13.C)</title><text x="55.28" y="173.65" class="black" >C</text></g>
<g><title>14 (position.label in template: 14.A)</title><text x="52.86" y="166.56" class="black" >A</text></g>
<g><title>15 (position.label in template: 15.G)</title><text x="50.68" y="159.21" class="black" >G</text></g>
<g><title>16 (position.label in template: 16.U)</title><text x="50" y="151.71" class="green" >T</text></g>
<g><title>17 (position.label in template: 17.U)</title><text x="50" y="144.15" class="green" >T</text></g>
<g><title>18 (position.label in template: 18.A)</title><text x="51.1" y="136.64" class="black" >A</text></g>
<g><title>19 (position.label in template: 19.G)</title><text x="52.45" y="129.29" class="black" >G</text></g>
<g><title>20 (position.label in template: 20.A)</title><text x="55.49" y="122.2" class="black" >A</text></g>
<g><text x="49.2718" y="119.381" class="numbering-label sequential" >20</text></g>
<g><line x1="53.8318" y1="121.448" x2="51.0925" y2="120.206" class="numbering-line sequential" /></g>
<g><title>21 (position.label in template: 21.U)</title><text x="58.72" y="115.46" class="green" >T</text></g>
<g><title>22 (position.label in template: 22.G)</title><text x="62.71" y="109.18" class="black" >G</text></g>
<g><title>23 (position.label in template: 23.G)</title><text x="67.63" y="103.44" class="black" >G</text></g>
<g><title>24 (position.label in template: 24.C)</title><text x="73.4" y="98.32" class="black" >C</text></g>
<g><title>25 (position.label in template: 25.A)</title><text x="79.73" y="93.88" class="black" >A</text></g>
<g><title>26 (position.label in template: 26.U)</title><text x="86.12" y="90.2" class="green" >T</text></g>
<g><title>27 (position.label in template: 27.U)</title><text x="93.12" y="87.32" class="green" >T</text></g>
<g><title>28 (position.label in template: 28.A)</title><text x="100.6" y="85.29" class="black" >A</text></g>
<g><title>29 (position.label in template: 29.G)</title><text x="107.66" y="84.12" class="black" >G</text></g>
<g><line x1="109.683" y1="83.8166" x2="118.087" y2="83.8166" class="black" /></g>
<g><title>30 (position.label in template: 30.C)</title><text x="107.87" y="76.56" class="black" >C</text></g>
<g><line x1="109.893" y1="76.2566" x2="117.877" y2="76.2566" class="black" /></g>
<g><text x="101.045" y="76.3749" class="numbering-label sequential" >30</text></g>
<g><line x1="106.05" y1="76.5106" x2="102.866" y2="76.4243" class="numbering-line sequential" /></g>
<g><title>31 (position.label in template: 31.A)</title><text x="108.07" y="69" class="green" >A</text></g>
<g><line x1="110.093" y1="68.6966" x2="118.087" y2="68.6966" class="black" /></g>
<g><title>32 (position.label in template: 32.C)</title><text x="107.87" y="61.44" class="black" >C</text></g>
<g><line x1="109.893" y1="61.1366" x2="117.877" y2="61.1366" class="black" /></g>
<g><title>33 (position.label in template: 33.U)</title><text x="107.5" y="53.89" class="green" >T</text></g>
<g><title>34 (position.label in template: 34.C)</title><text x="113.99" y="50" class="black" >C</text></g>
<g><title>35 (position.label in template: 35.A)</title><text x="120.68" y="53.89" class="black" >A</text></g>
<g><title>36 (position.label in template: 36.G)</title><text x="119.9" y="61.44" class="black" >G</text></g>
<g><title>37 (position.label in template: 37.U)</title><text x="120.11" y="69" class="green" >T</text></g>
<g><title>38 (position.label in template: 38.G)</title><text x="119.9" y="76.56" class="black" >G</text></g>
<g><title>39 (position.label in template: 39.C)</title><text x="120.11" y="84.12" class="black" >C</text></g>
<g><title>40 (position.label in template: 40.A)</title><text x="127.65" y="82.31" class="black" >A</text></g>
<g><title>41 (position.label in template: 41.A)</title><text x="135.15" y="81.34" class="black" >A</text></g>
<g><title>42 (position.label in template: 42.A)</title><text x="142.71" y="81.22" class="black" >A</text></g>
<g><title>43 (position.label in template: 43.G)</title><text x="149.82" y="81.96" class="black" >G</text></g>
<g><title>44 (position.label in template: 44.A)</title><text x="157.62" y="83.55" class="black" >A</text></g>
<g><title>45 (position.label in template: 45.U)</title><text x="164.58" y="85.96" class="green" >T</text></g>
<g><title>46 (position.label in template: 46.G)</title><text x="171.22" y="89.16" class="black" >G</text></g>
<g><title>47 (position.label in template: 47.A)</title><text x="178.08" y="93.12" class="black" >A</text></g>
<g><title>48 (position.label in template: 48.C)</title><text x="183.82" y="97.78" class="black" >C</text></g>
<g><title>49 (position.label in template: 49.C)</title><text x="189.21" y="103.08" class="black" >C</text></g>
<g><title>50 (position.label in template: 50.U)</title><text x="193.96" y="108.96" class="green" >T</text></g>
<g><text x="199.504" y="104.976" class="numbering-label sequential" >50</text></g>
<g><line x1="195.438" y1="107.898" x2="197.684" y2="106.284" class="numbering-line sequential" /></g>
<g><title>51 (position.label in template: 51.U)</title><text x="198.02" y="115.34" class="green" >T</text></g>
<g><title>52 (position.label in template: 52.C)</title><text x="201.33" y="122.14" class="black" >C</text></g>
<g><title>53 (position.label in template: 53.A)</title><text x="204.06" y="129.27" class="black" >A</text></g>
<g><title>54 (position.label in template: 54.U)</title><text x="205.55" y="136.63" class="green" >T</text></g>
<g><title>55 (position.label in template: 55.C)</title><text x="206.4" y="144.15" class="black" >C</text></g>
<g><title>56 (position.label in template: 56.U)</title><text x="206.4" y="151.71" class="green" >T</text></g>
<g><title>57 (position.label in template: 57.G)</title><text x="205.34" y="159.22" class="black" >G</text></g>
<g><title>58 (position.label in template: 58.U)</title><text x="203.85" y="166.58" class="green" >T</text></g>
<g><title>59 (position.label in template: 59.C)</title><text x="201.33" y="173.71" class="black" >C</text></g>
<g><title>60 (position.label in template: 60.A)</title><text x="198.23" y="180.51" class="black" >A</text></g>
<g><title>61 (position.label in template: 61.C)</title><text x="193.96" y="186.89" class="black" >C</text></g>
<g><title>62 (position.label in template: 62.C)</title><text x="189.21" y="192.77" class="black" >C</text></g>
<g><title>63 (position.label in template: 63.C)</title><text x="183.82" y="198.07" class="black" >C</text></g>
<g><title>64 (position.label in template: 64.C)</title><text x="177.87" y="202.73" class="black" >C</text></g>
<g><title>65 (position.label in template: 65.A)</title><text x="171.64" y="206.69" class="black" >A</text></g>
<g><title>66 (position.label in template: 66.G)</title><text x="164.37" y="209.9" class="black" >G</text></g>
<g><title>67 (position.label in template: 67.G)</title><text x="157.21" y="212.31" class="black" >G</text></g>
<g><title>68 (position.label in template: 68.C)</title><text x="150.03" y="213.89" class="black" >C</text></g>
<g><title>69 (position.label in template: 69.U)</title><text x="142.5" y="214.63" class="green" >T</text></g>
<g><title>70 (position.label in template: 70.G)</title><text x="134.73" y="214.51" class="black" >G</text></g>
<g><title>71 (position.label in template: 71.A)</title><text x="127.65" y="213.54" class="black" >A</text></g>
<g><title>72 (position.label in template: 72.U)</title><text x="120.11" y="211.73" class="green" >T</text></g>
<g><title>73 (position.label in template: 73.G)</title><text x="119.9" y="219.29" class="black" >G</text></g>
<g><title>74 (position.label in template: 74.G)</title><text x="119.9" y="226.85" class="black" >G</text></g>
<g><title>75 (position.label in template: 75.U)</title><text x="120.11" y="234.41" class="green" >T</text></g>
<g><title>76 (position.label in template: 76.U)</title><text x="125.452" y="239.762" class="green" >T</text></g>
<g><title>77 (position.label in template: 77.3')</title><text x="124.82" y="247.297" class="green" >3'</text></g>
<g><line x1="107.506" y1="239.643" x2="107.604" y2="236.129" class="gray" /></g>
<g><line x1="107.716" y1="232.084" x2="107.814" y2="228.569" class="gray" /></g>
<g><line x1="107.87" y1="224.524" x2="107.87" y2="221.009" class="gray" /></g>
<g><line x1="107.923" y1="216.964" x2="108.017" y2="213.449" class="gray" /></g>
<g><line x1="106.071" y1="211.116" x2="102.599" y2="210.577" class="gray" /></g>
<g><line x1="98.6521" y1="209.721" x2="95.2679" y2="208.772" class="gray" /></g>
<g><line x1="91.4418" y1="207.475" x2="87.9982" y2="206.098" class="gray" /></g>
<g><line x1="84.3403" y1="204.385" x2="81.0897" y2="202.628" class="gray" /></g>
<g><line x1="77.7128" y1="200.425" x2="75.2072" y2="198.478" class="gray" /></g>
<g><line x1="72.0982" y1="195.892" x2="69.3518" y2="193.451" class="gray" /></g>
<g><line x1="66.492" y1="190.598" x2="64.058" y2="187.875" class="gray" /></g>
<g><line x1="61.6252" y1="184.659" x2="59.8048" y2="181.794" class="gray" /></g>
<g><line x1="57.8004" y1="178.285" x2="56.1996" y2="175.148" class="gray" /></g>
<g><line x1="54.6265" y1="171.432" x2="53.5135" y2="168.171" class="gray" /></g>
<g><line x1="52.2848" y1="164.317" x2="51.2552" y2="160.846" class="gray" /></g>
<g><line x1="50.4973" y1="156.892" x2="50.1827" y2="153.421" class="gray" /></g>
<g><line x1="50" y1="149.384" x2="50" y2="145.869" class="gray" /></g>
<g><line x1="50.2932" y1="141.845" x2="50.8068" y2="138.338" class="gray" /></g>
<g><line x1="51.4654" y1="134.347" x2="52.0846" y2="130.976" class="gray" /></g>
<g><line x1="53.2472" y1="127.127" x2="54.6928" y2="123.756" class="gray" /></g>
<g><line x1="56.3642" y1="120.072" x2="57.8458" y2="116.981" class="gray" /></g>
<g><line x1="59.8048" y1="113.449" x2="61.6252" y2="110.584" class="gray" /></g>
<g><line x1="64.0265" y1="107.341" x2="66.3135" y2="104.672" class="gray" /></g>
<g><line x1="69.1431" y1="101.794" x2="71.8869" y2="99.3592" class="gray" /></g>
<g><line x1="75.0561" y1="96.8549" x2="78.0739" y2="94.7382" class="gray" /></g>
<g><line x1="81.483" y1="92.567" x2="84.367" y2="90.9061" class="gray" /></g>
<g><line x1="87.9908" y1="89.1269" x2="91.2492" y2="87.7862" class="gray" /></g>
<g><line x1="95.0723" y1="86.4867" x2="98.6477" y2="85.5164" class="gray" /></g>
<g><line x1="102.596" y1="84.6558" x2="105.664" y2="84.1473" class="gray" /></g>
<g><line x1="107.716" y1="81.7944" x2="107.814" y2="78.2787" class="gray" /></g>
<g><line x1="107.923" y1="74.2344" x2="108.017" y2="70.7188" class="gray" /></g>
<g><line x1="108.017" y1="66.6744" x2="107.923" y2="63.1588" class="gray" /></g>
<g><line x1="107.771" y1="59.1161" x2="107.599" y2="55.6071" class="gray" /></g>
<g><line x1="109.235" y1="52.5466" x2="112.255" y2="50.7366" class="gray" /></g>
<g><line x1="115.739" y1="50.7134" x2="118.931" y2="52.5697" class="gray" /></g>
<g><line x1="120.472" y1="55.5988" x2="120.108" y2="59.1244" class="gray" /></g>
<g><line x1="119.956" y1="63.1587" x2="120.054" y2="66.6744" class="gray" /></g>
<g><line x1="120.054" y1="70.7187" x2="119.956" y2="74.2344" class="gray" /></g>
<g><line x1="119.956" y1="78.2787" x2="120.054" y2="81.7944" class="gray" /></g>
<g><line x1="122.077" y1="83.3444" x2="125.683" y2="82.4788" class="gray" /></g>
<g><line x1="129.656" y1="81.7471" x2="133.144" y2="81.296" class="gray" /></g>
<g><line x1="137.173" y1="81.0045" x2="140.687" y2="80.9487" class="gray" /></g>
<g><line x1="144.722" y1="81.126" x2="147.808" y2="81.4472" class="gray" /></g>
<g><line x1="151.802" y1="82.0606" x2="155.638" y2="82.8425" class="gray" /></g>
<g><line x1="159.532" y1="83.9085" x2="162.668" y2="84.9947" class="gray" /></g>
<g><line x1="166.402" y1="86.5348" x2="169.398" y2="87.9783" class="gray" /></g>
<g><line x1="172.972" y1="89.8679" x2="176.328" y2="91.8052" class="gray" /></g>
<g><line x1="179.651" y1="94.0916" x2="182.249" y2="96.2015" class="gray" /></g>
<g><line x1="185.262" y1="98.8949" x2="187.768" y2="101.358" class="gray" /></g>
<g><line x1="190.481" y1="104.35" x2="192.689" y2="107.083" class="gray" /></g>
<g><line x1="195.046" y1="110.363" x2="196.934" y2="113.33" class="gray" /></g>
<g><line x1="198.905" y1="116.855" x2="200.445" y2="120.018" class="gray" /></g>
<g><line x1="202.053" y1="123.726" x2="203.337" y2="127.077" class="gray" /></g>
<g><line x1="204.461" y1="130.949" x2="205.149" y2="134.344" class="gray" /></g>
<g><line x1="205.777" y1="138.337" x2="206.173" y2="141.836" class="gray" /></g>
<g><line x1="206.4" y1="145.869" x2="206.4" y2="149.384" class="gray" /></g>
<g><line x1="206.117" y1="153.41" x2="205.623" y2="156.913" class="gray" /></g>
<g><line x1="204.939" y1="160.899" x2="204.251" y2="164.294" class="gray" /></g>
<g><line x1="203.176" y1="168.184" x2="202.004" y2="171.499" class="gray" /></g>
<g><line x1="200.491" y1="175.247" x2="199.069" y2="178.366" class="gray" /></g>
<g><line x1="197.105" y1="181.888" x2="195.085" y2="184.905" class="gray" /></g>
<g><line x1="192.689" y1="188.16" x2="190.481" y2="190.893" class="gray" /></g>
<g><line x1="187.768" y1="193.885" x2="185.262" y2="196.348" class="gray" /></g>
<g><line x1="182.227" y1="199.014" x2="179.463" y2="201.179" class="gray" /></g>
<g><line x1="176.163" y1="203.512" x2="173.347" y2="205.301" class="gray" /></g>
<g><line x1="169.789" y1="207.204" x2="166.221" y2="208.779" class="gray" /></g>
<g><line x1="162.453" y1="210.242" x2="159.127" y2="211.361" class="gray" /></g>
<g><line x1="155.234" y1="212.441" x2="152.006" y2="213.152" class="gray" /></g>
<g><line x1="148.017" y1="213.784" x2="144.513" y2="214.129" class="gray" /></g>
<g><line x1="140.477" y1="214.295" x2="136.753" y2="214.238" class="gray" /></g>
<g><line x1="132.726" y1="213.932" x2="129.654" y2="213.511" class="gray" /></g>
<g><line x1="125.683" y1="212.764" x2="122.077" y2="211.899" class="gray" /></g>
<g><line x1="120.054" y1="213.449" x2="119.956" y2="216.964" class="gray" /></g>
<g><line x1="119.9" y1="221.009" x2="119.9" y2="224.524" class="gray" /></g>
<g><line x1="119.956" y1="228.569" x2="120.054" y2="232.084" class="gray" /></g>
<g><line x1="121.539" y1="235.538" x2="124.023" y2="238.027" class="gray" /></g>
<g><line x1="125.283" y1="241.474" x2="124.989" y2="244.977" class="gray" /></g>
</svg>
