<svg
	xmlns="http://www.w3.org/2000/svg"
	width="195.029"
	height="237.11">
<g><style type="text/css" >
<!-- create color definitions -->
<![CDATA[
circle.red {stroke: rgb(255, 0, 255); fill: none; }
circle.green {stroke: rgb(0, 255, 0); fill: none; }
circle.blue {stroke: rgb(0, 0, 255); fill: none; }
circle.black {stroke: rgb(0, 0, 0); fill: none; }
circle.gray {stroke: rgb(204, 204, 204); fill: none; }
circle.brown {stroke: rgb(211.65, 104.55, 30.6); fill: none; }
line.red {stroke: rgb(255, 0, 255); stroke-width: 0.382626; }
line.green {stroke: rgb(0, 255, 0); stroke-width: 0.382626; }
line.blue {stroke: rgb(0, 0, 255); stroke-width: 0.382626; }
line.black {stroke: rgb(0, 0, 0); stroke-width: 0.382626; }
line.gray {stroke: rgb(204, 204, 204); stroke-width: 0.382626; }
line.brown {stroke: rgb(211.65, 104.55, 30.6); stroke-width: 0.382626; }
line {stroke: rgb(0, 0, 0); }
text.red {fill: rgb(255, 0, 255); font-size: 3.061008px; font-weight: bold; font-family: Helvetica; }
text.green {fill: rgb(0, 255, 0); font-size: 3.061008px; font-weight: bold; font-family: Helvetica; }
text.blue {fill: rgb(0, 0, 255); font-size: 3.061008px; font-weight: bold; font-family: Helvetica; }
text.black {fill: rgb(0, 0, 0); font-size: 3.061008px; font-weight: bold; font-family: Helvetica; }
text.gray {fill: rgb(204, 204, 204); font-size: 3.061008px; font-weight: bold; font-family: Helvetica; }
text.brown {fill: rgb(211.65, 104.55, 30.6); font-size: 3.061008px; font-weight: bold; font-family: Helvetica; }
text {fill: rgb(0, 0, 0); font-size: 3.061008px; font-weight: bold; font-family: Helvetica; text-anchor: middle; alignment-baseline: middle; }

.pseudoknot_connection{stroke-linecap: round; stroke-opacity: 0.2; stroke-width: 1.5; }
.pseudoknot_segment1{stroke-linecap: round; stroke-opacity: 0.4; stroke-width: 3.06101; }
.pseudoknot_segment2{stroke-linecap: round; stroke-opacity: 0.4; stroke-width: 3.06101; }
line.numbering-line{stroke: rgb(204, 204, 204); stroke-width: 0.191313; }
line.predicted{stroke: rgb(0, 0, 0); stroke-dasharray: 2; }
polyline{fill: none; stroke-linejoin: round; }
template{visibility: hidden; }
text.numbering-label{fill: rgb(204, 204, 204); }
]]>
</style></g>
<g><title>0 (position.label in template: 0.5')</title><text x="88.8988" y="153.624" class="green" >5'</text></g>
<g><title>1 (position.label in template: 1.G)</title><text x="81.79" y="151.06" class="black" >G</text></g>
<g><line x1="83.8307" y1="150.754" x2="92.1993" y2="150.754" class="black" /></g>
<g><title>2 (position.label in template: 2.U)</title><text x="74.86" y="148.56" class="green" >T</text></g>
<g><title>3 (position.label in template: 3.C)</title><text x="68.6" y="144.33" class="black" >C</text></g>
<g><title>4 (position.label in template: 4.C)</title><text x="63.6" y="138.66" class="black" >C</text></g>
<g><title>5 (position.label in template: 5.A)</title><text x="60.42" y="131.9" class="black" >A</text></g>
<g><title>6 (position.label in template: 6.C)</title><text x="58.65" y="124.5" class="black" >C</text></g>
<g><title>7 (position.label in template: 7.A)</title><text x="59.22" y="116.95" class="black" >A</text></g>
<g><title>8 (position.label in template: 8.U)</title><text x="61.28" y="109.74" class="green" >T</text></g>
<g><title>9 (position.label in template: 9.G)</title><text x="65.09" y="103.34" class="black" >G</text></g>
<g><title>10 (position.label in template: 10.G)</title><text x="70.6" y="98.16" class="black" >G</text></g>
<g><line x1="72.4712" y1="97.0397" x2="80.1288" y2="93.708" class="black" /></g>
<g><text x="63.8736" y="96.6801" class="numbering-label sequential" >10</text></g>
<g><line x1="68.8063" y1="97.7654" x2="65.7102" y2="97.0842" class="numbering-line sequential" /></g>
<g><title>11 (position.label in template: 11.U)</title><text x="67.75" y="91.25" class="green" >T</text></g>
<g><line x1="69.621" y1="90.1291" x2="77.269" y2="86.7986" class="black" /></g>
<g><title>12 (position.label in template: 12.G)</title><text x="64.48" y="84.34" class="black" >G</text></g>
<g><line x1="66.3512" y1="83.2197" x2="74.0088" y2="79.888" class="black" /></g>
<g><title>13 (position.label in template: 13.U)</title><text x="61.62" y="77.43" class="green" >T</text></g>
<g><line x1="63.4797" y1="76.2838" x2="70.7403" y2="73.004" class="black" /></g>
<g><title>14 (position.label in template: 14.A)</title><text x="54.77" y="74.71" class="black" >A</text></g>
<g><title>15 (position.label in template: 15.G)</title><text x="50" y="68.53" class="black" >G</text></g>
<g><title>16 (position.label in template: 16.C)</title><text x="50.02" y="60.98" class="black" >C</text></g>
<g><title>17 (position.label in template: 17.G)</title><text x="53.86" y="54.59" class="black" >G</text></g>
<g><title>18 (position.label in template: 18.A)</title><text x="61.18" y="51.53" class="black" >A</text></g>
<g><title>19 (position.label in template: 19.U)</title><text x="68.43" y="52.82" class="green" >T</text></g>
<g><title>20 (position.label in template: 20.U)</title><text x="73.9" y="58.04" class="green" >T</text></g>
<g><text x="79.8552" y="54.5803" class="numbering-label sequential" >20</text></g>
<g><line x1="75.4881" y1="57.1174" x2="78.0186" y2="55.6473" class="numbering-line sequential" /></g>
<g><title>21 (position.label in template: 21.A)</title><text x="75.75" y="65.42" class="black" >A</text></g>
<g><title>22 (position.label in template: 22.G)</title><text x="72.6" y="72.47" class="green" >G</text></g>
<g><title>23 (position.label in template: 23.C)</title><text x="75.88" y="79.38" class="black" >C</text></g>
<g><title>24 (position.label in template: 24.A)</title><text x="79.14" y="86.29" class="green" >A</text></g>
<g><title>25 (position.label in template: 25.C)</title><text x="82" y="93.2" class="black" >C</text></g>
<g><title>26 (position.label in template: 26.G)</title><text x="89.33" y="92.6" class="black" >G</text></g>
<g><title>27 (position.label in template: 27.C)</title><text x="96.98" y="93.92" class="black" >C</text></g>
<g><line x1="98.749" y1="94.6313" x2="105.661" y2="98.6065" class="black" /></g>
<g><title>28 (position.label in template: 28.C)</title><text x="100.69" y="87.33" class="black" >C</text></g>
<g><line x1="102.459" y1="88.0413" x2="109.371" y2="92.0165" class="black" /></g>
<g><title>29 (position.label in template: 29.C)</title><text x="104.4" y="80.75" class="black" >C</text></g>
<g><line x1="106.17" y1="81.46" x2="113.08" y2="85.4278" class="black" /></g>
<g><title>30 (position.label in template: 30.G)</title><text x="107.9" y="74.16" class="green" >G</text></g>
<g><line x1="109.686" y1="74.8413" x2="116.984" y2="78.8765" class="black" /></g>
<g><text x="101.898" y="70.7813" class="numbering-label sequential" >30</text></g>
<g><line x1="106.3" y1="73.259" x2="103.735" y2="71.8152" class="numbering-line sequential" /></g>
<g><title>31 (position.label in template: 31.U)</title><text x="111.82" y="67.57" class="green" >T</text></g>
<g><line x1="113.606" y1="68.2513" x2="120.904" y2="72.2865" class="black" /></g>
<g><title>32 (position.label in template: 32.C)</title><text x="110.39" y="60.15" class="black" >C</text></g>
<g><title>33 (position.label in template: 33.U)</title><text x="113.74" y="53.37" class="green" >T</text></g>
<g><title>34 (position.label in template: 34.G)</title><text x="120.3" y="50" class="black" >G</text></g>
<g><title>35 (position.label in template: 35.G)</title><text x="127.72" y="51.42" class="black" >G</text></g>
<g><title>36 (position.label in template: 36.C)</title><text x="132.99" y="57.04" class="black" >C</text></g>
<g><title>37 (position.label in template: 37.A)</title><text x="133.83" y="64.57" class="black" >A</text></g>
<g><title>38 (position.label in template: 38.G)</title><text x="129.36" y="70.95" class="black" >G</text></g>
<g><title>39 (position.label in template: 39.A)</title><text x="122.69" y="73.58" class="green" >A</text></g>
<g><title>40 (position.label in template: 40.U)</title><text x="118.77" y="80.17" class="green" >T</text></g>
<g><title>41 (position.label in template: 41.G)</title><text x="114.85" y="86.75" class="black" >G</text></g>
<g><title>42 (position.label in template: 42.G)</title><text x="111.14" y="93.34" class="black" >G</text></g>
<g><title>43 (position.label in template: 43.G)</title><text x="107.43" y="99.93" class="black" >G</text></g>
<g><title>44 (position.label in template: 44.A)</title><text x="112.84" y="105.6" class="black" >A</text></g>
<g><title>45 (position.label in template: 45.G)</title><text x="115.82" y="112.36" class="black" >G</text></g>
<g><title>46 (position.label in template: 46.A)</title><text x="117.8" y="119.76" class="black" >A</text></g>
<g><title>47 (position.label in template: 47.U)</title><text x="117.23" y="127.31" class="green" >T</text></g>
<g><title>48 (position.label in template: 48.U)</title><text x="114.96" y="134.52" class="green" >T</text></g>
<g><title>49 (position.label in template: 49.U)</title><text x="110.94" y="140.93" class="green" >T</text></g>
<g><line x1="109.358" y1="141.913" x2="103.162" y2="146.965" class="black" /></g>
<g><title>50 (position.label in template: 50.C)</title><text x="117.67" y="144.38" class="black" >C</text></g>
<g><text x="123.003" y="140.022" class="numbering-label sequential" >50</text></g>
<g><line x1="119.092" y1="143.218" x2="121.13" y2="141.552" class="numbering-line sequential" /></g>
<g><title>51 (position.label in template: 51.A)</title><text x="119.75" y="151.71" class="green" >A</text></g>
<g><line x1="118.142" y1="152.66" x2="111.588" y2="157.778" class="black" /></g>
<g><title>52 (position.label in template: 52.G)</title><text x="124.05" y="157.61" class="black" >G</text></g>
<g><line x1="122.469" y1="158.594" x2="116.271" y2="163.654" class="black" /></g>
<g><title>53 (position.label in template: 53.G)</title><text x="128.76" y="163.52" class="black" >G</text></g>
<g><line x1="127.18" y1="164.505" x2="120.99" y2="169.563" class="black" /></g>
<g><title>54 (position.label in template: 54.U)</title><text x="136.39" y="164.99" class="green" >T</text></g>
<g><title>55 (position.label in template: 55.U)</title><text x="141.41" y="170.64" class="green" >T</text></g>
<g><title>56 (position.label in template: 56.C)</title><text x="142" y="178.17" class="black" >C</text></g>
<g><title>57 (position.label in template: 57.G)</title><text x="137.69" y="184.53" class="black" >G</text></g>
<g><title>58 (position.label in template: 58.A)</title><text x="131" y="187.11" class="black" >A</text></g>
<g><title>59 (position.label in template: 59.U)</title><text x="123.58" y="184.87" class="green" >T</text></g>
<g><title>60 (position.label in template: 60.U)</title><text x="119.18" y="178.71" class="green" >T</text></g>
<g><title>61 (position.label in template: 61.C)</title><text x="119.41" y="171.16" class="black" >C</text></g>
<g><title>62 (position.label in template: 62.C)</title><text x="114.69" y="165.25" class="black" >C</text></g>
<g><title>63 (position.label in template: 63.U)</title><text x="109.98" y="159.34" class="green" >T</text></g>
<g><title>64 (position.label in template: 64.U)</title><text x="103.25" y="155.88" class="green" >T</text></g>
<g><title>65 (position.label in template: 65.A)</title><text x="101.58" y="148.56" class="green" >A</text></g>
<g><title>66 (position.label in template: 66.C)</title><text x="94.24" y="151.06" class="black" >C</text></g>
<g><title>67 (position.label in template: 67.A)</title><text x="99.6858" y="156.3" class="black" >A</text></g>
<g><title>68 (position.label in template: 68.G)</title><text x="107.243" y="156.3" class="black" >G</text></g>
<g><title>69 (position.label in template: 69.A)</title><text x="114.8" y="156.3" class="black" >A</text></g>
<g><title>70 (position.label in template: 70.G)</title><text x="122.357" y="156.3" class="black" >G</text></g>
<g><title>71 (position.label in template: 71.A)</title><text x="129.915" y="156.3" class="black" >A</text></g>
<g><title>72 (position.label in template: 72.C)</title><text x="137.472" y="156.3" class="black" >C</text></g>
<g><title>73 (position.label in template: 73.A)</title><text x="145.029" y="156.3" class="black" >A</text></g>
<g><title>74 (position.label in template: 74.3')</title><text x="152.586" y="156.3" class="green" >3'</text></g>
<g><line x1="86.9792" y1="152.626" x2="83.7096" y2="151.446" class="gray" /></g>
<g><line x1="79.8704" y1="150.061" x2="76.7796" y2="148.946" class="gray" /></g>
<g><line x1="73.1692" y1="147.111" x2="70.2908" y2="145.166" class="gray" /></g>
<g><line x1="67.2503" y1="142.493" x2="64.9497" y2="139.884" class="gray" /></g>
<g><line x1="62.7314" y1="136.507" x2="61.2886" y2="133.44" class="gray" /></g>
<g><line x1="59.9453" y1="129.609" x2="59.1247" y2="126.179" class="gray" /></g>
<g><line x1="58.8036" y1="122.159" x2="59.0664" y2="118.679" class="gray" /></g>
<g><line x1="59.7806" y1="114.682" x2="60.7194" y2="111.396" class="gray" /></g>
<g><line x1="62.3239" y1="107.68" x2="64.0461" y2="104.787" class="gray" /></g>
<g><line x1="66.5768" y1="101.636" x2="69.1132" y2="99.2517" class="gray" /></g>
<g><line x1="69.8219" y1="95.9674" x2="68.5281" y2="92.8304" class="gray" /></g>
<g><line x1="66.8771" y1="89.0993" x2="65.3529" y2="85.8785" class="gray" /></g>
<g><line x1="63.6996" y1="82.1484" x2="62.4004" y2="79.0094" class="gray" /></g>
<g><line x1="59.7234" y1="76.3708" x2="56.6666" y2="75.157" class="gray" /></g>
<g><line x1="53.5231" y1="72.7885" x2="51.2469" y2="69.8393" class="gray" /></g>
<g><line x1="50.0054" y1="66.1832" x2="50.0146" y2="62.7146" class="gray" /></g>
<g><line x1="51.0711" y1="58.9248" x2="52.8089" y2="56.033" class="gray" /></g>
<g><line x1="55.7428" y1="53.4968" x2="59.2972" y2="52.011" class="gray" /></g>
<g><line x1="63.1891" y1="51.5814" x2="66.4209" y2="52.1564" class="gray" /></g>
<g><line x1="69.9063" y1="53.9227" x2="72.4237" y2="56.3251" class="gray" /></g>
<g><line x1="74.3962" y1="59.7133" x2="75.2538" y2="63.1345" class="gray" /></g>
<g><line x1="74.9175" y1="66.9771" x2="73.4325" y2="70.3007" class="gray" /></g>
<g><line x1="73.4751" y1="74.0074" x2="75.0049" y2="77.2304" class="gray" /></g>
<g><line x1="76.7507" y1="80.9195" x2="78.2693" y2="84.1383" class="gray" /></g>
<g><line x1="79.9204" y1="87.8694" x2="81.2196" y2="91.0084" class="gray" /></g>
<g><line x1="84.0339" y1="92.7274" x2="87.2961" y2="92.4604" class="gray" /></g>
<g><line x1="91.341" y1="92.6409" x2="94.969" y2="93.2669" class="gray" /></g>
<g><line x1="97.9811" y1="91.8357" x2="99.6889" y2="88.8021" class="gray" /></g>
<g><line x1="101.692" y1="85.2463" x2="103.398" y2="82.2215" class="gray" /></g>
<g><line x1="105.357" y1="78.6416" x2="106.943" y2="75.6562" class="gray" /></g>
<g><line x1="108.943" y1="72.1001" x2="110.777" y2="69.0177" class="gray" /></g>
<g><line x1="111.434" y1="65.2601" x2="110.776" y2="61.8477" class="gray" /></g>
<g><line x1="111.294" y1="58.0144" x2="112.836" y2="54.8934" class="gray" /></g>
<g><line x1="115.555" y1="52.1314" x2="118.485" y2="50.6264" class="gray" /></g>
<g><line x1="122.304" y1="50.0775" x2="125.716" y2="50.7303" class="gray" /></g>
<g><line x1="129.116" y1="52.6025" x2="131.594" y2="55.2453" class="gray" /></g>
<g><line x1="133.216" y1="58.762" x2="133.604" y2="62.2358" class="gray" /></g>
<g><line x1="132.659" y1="65.9352" x2="130.531" y2="68.9726" class="gray" /></g>
<g><line x1="127.462" y1="71.3925" x2="124.588" y2="72.5253" class="gray" /></g>
<g><line x1="121.647" y1="75.0277" x2="119.813" y2="78.1101" class="gray" /></g>
<g><line x1="117.726" y1="81.617" x2="115.894" y2="84.6908" class="gray" /></g>
<g><line x1="113.849" y1="88.2221" x2="112.141" y2="91.2557" class="gray" /></g>
<g><line x1="110.139" y1="94.8121" x2="108.431" y2="97.8457" class="gray" /></g>
<g><line x1="108.839" y1="101.1" x2="111.431" y2="103.817" class="gray" /></g>
<g><line x1="113.663" y1="107.161" x2="114.997" y2="110.187" class="gray" /></g>
<g><line x1="116.347" y1="114.025" x2="117.273" y2="117.483" class="gray" /></g>
<g><line x1="117.646" y1="121.489" x2="117.384" y2="124.969" class="gray" /></g>
<g><line x1="116.617" y1="128.95" x2="115.573" y2="132.267" class="gray" /></g>
<g><line x1="113.876" y1="135.943" x2="112.024" y2="138.895" class="gray" /></g>
<g><line x1="112.756" y1="141.555" x2="115.854" y2="143.143" class="gray" /></g>
<g><line x1="118.227" y1="146.037" x2="119.193" y2="149.441" class="gray" /></g>
<g><line x1="120.952" y1="153.053" x2="122.848" y2="155.655" class="gray" /></g>
<g><line x1="125.322" y1="158.9" x2="127.488" y2="161.618" class="gray" /></g>
<g><line x1="130.764" y1="163.6" x2="134.386" y2="164.298" class="gray" /></g>
<g><line x1="137.745" y1="166.209" x2="140.055" y2="168.808" class="gray" /></g>
<g><line x1="141.569" y1="172.368" x2="141.841" y2="175.829" class="gray" /></g>
<g><line x1="140.855" y1="179.553" x2="138.835" y2="182.535" class="gray" /></g>
<g><line x1="135.786" y1="184.958" x2="132.904" y2="186.07" class="gray" /></g>
<g><line x1="129.046" y1="186.214" x2="125.534" y2="185.154" class="gray" /></g>
<g><line x1="122.394" y1="182.903" x2="120.366" y2="180.064" class="gray" /></g>
<g><line x1="119.242" y1="176.364" x2="119.348" y2="172.894" class="gray" /></g>
<g><line x1="118.137" y1="169.259" x2="115.963" y2="166.538" class="gray" /></g>
<g><line x1="113.418" y1="163.348" x2="111.252" y2="160.63" class="gray" /></g>
<g><line x1="108.165" y1="158.101" x2="105.065" y2="156.507" class="gray" /></g>
<g><line x1="102.796" y1="153.584" x2="102.034" y2="150.243" class="gray" /></g>
<g><line x1="99.6483" y1="148.912" x2="96.1717" y2="150.096" class="gray" /></g>
<g><line x1="95.7105" y1="152.169" x2="98.2153" y2="154.579" class="gray" /></g>
<g><line x1="101.726" y1="155.994" x2="105.202" y2="155.994" class="gray" /></g>
<g><line x1="109.284" y1="155.994" x2="112.759" y2="155.994" class="gray" /></g>
<g><line x1="116.841" y1="155.994" x2="120.317" y2="155.994" class="gray" /></g>
<g><line x1="124.398" y1="155.994" x2="127.874" y2="155.994" class="gray" /></g>
<g><line x1="131.955" y1="155.994" x2="135.431" y2="155.994" class="gray" /></g>
<g><line x1="139.512" y1="155.994" x2="142.988" y2="155.994" class="gray" /></g>
<g><line x1="147.07" y1="155.994" x2="150.545" y2="155.994" class="gray" /></g>
</svg>
