<svg
	xmlns="http://www.w3.org/2000/svg"
	width="238.59"
	height="223.67">
<g><style type="text/css" >
<!-- create color definitions -->
<![CDATA[
circle.red {stroke: rgb(255, 0, 255); fill: none; }
circle.green {stroke: rgb(0, 255, 0); fill: none; }
circle.blue {stroke: rgb(0, 0, 255); fill: none; }
circle.black {stroke: rgb(0, 0, 0); fill: none; }
circle.gray {stroke: rgb(204, 204, 204); fill: none; }
circle.brown {stroke: rgb(211.65, 104.55, 30.6); fill: none; }
line.red {stroke: rgb(255, 0, 255); stroke-width: 0.382571; }
line.green {stroke: rgb(0, 255, 0); stroke-width: 0.382571; }
line.blue {stroke: rgb(0, 0, 255); stroke-width: 0.382571; }
line.black {stroke: rgb(0, 0, 0); stroke-width: 0.382571; }
line.gray {stroke: rgb(204, 204, 204); stroke-width: 0.382571; }
line.brown {stroke: rgb(211.65, 104.55, 30.6); stroke-width: 0.382571; }
line {stroke: rgb(0, 0, 0); }
text.red {fill: rgb(255, 0, 255); font-size: 3.060566px; font-weight: bold; font-family: Helvetica; }
text.green {fill: rgb(0, 255, 0); font-size: 3.060566px; font-weight: bold; font-family: Helvetica; }
text.blue {fill: rgb(0, 0, 255); font-size: 3.060566px; font-weight: bold; font-family: Helvetica; }
text.black {fill: rgb(0, 0, 0); font-size: 3.060566px; font-weight: bold; font-family: Helvetica; }
text.gray {fill: rgb(204, 204, 204); font-size: 3.060566px; font-weight: bold; font-family: Helvetica; }
text.brown {fill: rgb(211.65, 104.55, 30.6); font-size: 3.060566px; font-weight: bold; font-family: Helvetica; }
text {fill: rgb(0, 0, 0); font-size: 3.060566px; font-weight: bold; font-family: Helvetica; text-anchor: middle; alignment-baseline: middle; }

.pseudoknot_connection{stroke-linecap: round; stroke-opacity: 0.2; stroke-width: 1.5; }
.pseudoknot_segment1{stroke-linecap: round; stroke-opacity: 0.4; stroke-width: 3.06057; }
.pseudoknot_segment2{stroke-linecap: round; stroke-opacity: 0.4; stroke-width: 3.06057; }
line.numbering-line{stroke: rgb(204, 204, 204); stroke-width: 0.191285; }
line.predicted{stroke: rgb(0, 0, 0); stroke-dasharray: 2; }
polyline{fill: none; stroke-linejoin: round; }
template{visibility: hidden; }
text.numbering-label{fill: rgb(204, 204, 204); }
]]>
</style></g>
<g><title>0 (position.label in template: 0.5')</title><text x="131.201" y="175.875" class="green" >5'</text></g>
<g><title>1 (position.label in template: 1.G)</title><text x="131.41" y="168.34" class="black" >G</text></g>
<g><line x1="133.45" y1="168.034" x2="141.82" y2="168.034" class="black" /></g>
<g><title>2 (position.label in template: 2.C)</title><text x="131.62" y="160.78" class="black" >C</text></g>
<g><line x1="133.66" y1="160.474" x2="141.61" y2="160.474" class="black" /></g>
<g><title>3 (position.label in template: 3.C)</title><text x="131.62" y="153.22" class="black" >C</text></g>
<g><line x1="133.66" y1="152.914" x2="141.61" y2="152.914" class="black" /></g>
<g><title>4 (position.label in template: 4.U)</title><text x="131.62" y="145.66" class="green" >T</text></g>
<g><line x1="133.66" y1="145.354" x2="142.02" y2="145.354" class="black" /></g>
<g><title>5 (position.label in template: 5.G)</title><text x="131.41" y="138.1" class="black" >G</text></g>
<g><line x1="133.45" y1="137.794" x2="141.82" y2="137.794" class="black" /></g>
<g><title>6 (position.label in template: 6.G)</title><text x="131.41" y="130.54" class="green" >G</text></g>
<g><line x1="133.45" y1="130.234" x2="141.82" y2="130.234" class="black" /></g>
<g><title>7 (position.label in template: 7.G)</title><text x="131.41" y="122.98" class="black" >G</text></g>
<g><line x1="133.45" y1="122.674" x2="142.02" y2="122.674" class="black" /></g>
<g><title>8 (position.label in template: 8.U)</title><text x="124.33" y="120.96" class="green" >T</text></g>
<g><title>9 (position.label in template: 9.G)</title><text x="117.41" y="117.49" class="black" >G</text></g>
<g><title>10 (position.label in template: 10.G)</title><text x="111.54" y="112.73" class="black" >G</text></g>
<g><line x1="110.381" y1="110.745" x2="105.809" y2="104.123" class="black" /></g>
<g><text x="111.319" y="119.613" class="numbering-label sequential" >10</text></g>
<g><line x1="111.481" y1="114.565" x2="111.368" y2="118.082" class="numbering-line sequential" /></g>
<g><title>11 (position.label in template: 11.C)</title><text x="105.59" y="117.11" class="black" >C</text></g>
<g><line x1="104.384" y1="115.158" x2="99.4857" y2="108.47" class="black" /></g>
<g><title>12 (position.label in template: 12.U)</title><text x="99.43" y="121.49" class="green" >T</text></g>
<g><line x1="98.2708" y1="119.505" x2="93.6992" y2="112.883" class="black" /></g>
<g><title>13 (position.label in template: 13.C)</title><text x="93.26" y="125.87" class="black" >C</text></g>
<g><line x1="92.1019" y1="123.884" x2="87.5381" y2="117.264" class="black" /></g>
<g><title>14 (position.label in template: 14.A)</title><text x="92.22" y="133.32" class="black" >A</text></g>
<g><title>15 (position.label in template: 15.G)</title><text x="86.62" y="138.83" class="black" >G</text></g>
<g><title>16 (position.label in template: 16.U)</title><text x="79.46" y="140.52" class="green" >T</text></g>
<g><title>17 (position.label in template: 17.G)</title><text x="72.19" y="137.83" class="black" >G</text></g>
<g><title>18 (position.label in template: 18.A)</title><text x="68.22" y="131.67" class="black" >A</text></g>
<g><title>19 (position.label in template: 19.G)</title><text x="67.59" y="124.12" class="black" >G</text></g>
<g><title>20 (position.label in template: 20.U)</title><text x="71.82" y="117.71" class="green" >T</text></g>
<g><text x="67.3521" y="112.47" class="numbering-label sequential" >20</text></g>
<g><line x1="70.6285" y1="116.313" x2="68.6569" y2="114" class="numbering-line sequential" /></g>
<g><title>21 (position.label in template: 21.U)</title><text x="78.72" y="114.63" class="green" >T</text></g>
<g><title>22 (position.label in template: 22.A)</title><text x="86.38" y="115.89" class="black" >A</text></g>
<g><title>23 (position.label in template: 23.A)</title><text x="92.54" y="111.51" class="green" >A</text></g>
<g><title>24 (position.label in template: 24.G)</title><text x="98.28" y="107.13" class="black" >G</text></g>
<g><title>25 (position.label in template: 25.C)</title><text x="104.65" y="102.75" class="black" >C</text></g>
<g><title>26 (position.label in template: 26.A)</title><text x="102.28" y="95.64" class="black" >A</text></g>
<g><title>27 (position.label in template: 27.U)</title><text x="101.01" y="88.16" class="green" >T</text></g>
<g><line x1="101.237" y1="85.8263" x2="102.143" y2="77.7416" class="black" /></g>
<g><title>28 (position.label in template: 28.C)</title><text x="93.51" y="87.19" class="black" >C</text></g>
<g><line x1="93.7372" y1="84.8563" x2="94.6428" y2="76.7716" class="black" /></g>
<g><title>29 (position.label in template: 29.C)</title><text x="86.01" y="86.22" class="black" >C</text></g>
<g><line x1="86.306" y1="83.8952" x2="87.494" y2="75.7927" class="black" /></g>
<g><title>30 (position.label in template: 30.G)</title><text x="78.31" y="85.25" class="black" >G</text></g>
<g><line x1="78.606" y1="82.9252" x2="79.794" y2="74.8227" class="black" /></g>
<g><text x="77.4138" y="92.0777" class="numbering-label sequential" >30</text></g>
<g><line x1="78.071" y1="87.0707" x2="77.6147" y2="90.5474" class="numbering-line sequential" /></g>
<g><title>31 (position.label in template: 31.A)</title><text x="71.23" y="84.28" class="green" >A</text></g>
<g><line x1="71.4572" y1="81.9463" x2="72.3628" y2="73.8616" class="black" /></g>
<g><title>32 (position.label in template: 32.C)</title><text x="64.67" y="88.39" class="black" >C</text></g>
<g><title>33 (position.label in template: 33.U)</title><text x="57.13" y="87.82" class="green" >T</text></g>
<g><title>34 (position.label in template: 34.U)</title><text x="51.47" y="82.81" class="green" >T</text></g>
<g><title>35 (position.label in template: 35.C)</title><text x="50" y="75.4" class="black" >C</text></g>
<g><title>36 (position.label in template: 36.G)</title><text x="53.1" y="68.6" class="black" >G</text></g>
<g><title>37 (position.label in template: 37.G)</title><text x="59.85" y="65.19" class="black" >G</text></g>
<g><title>38 (position.label in template: 38.C)</title><text x="67.49" y="66.56" class="black" >C</text></g>
<g><title>39 (position.label in template: 39.U)</title><text x="72.59" y="72.14" class="green" >T</text></g>
<g><title>40 (position.label in template: 40.C)</title><text x="80.09" y="73.11" class="black" >C</text></g>
<g><title>41 (position.label in template: 41.A)</title><text x="87.79" y="74.08" class="black" >A</text></g>
<g><title>42 (position.label in template: 42.G)</title><text x="94.87" y="75.05" class="black" >G</text></g>
<g><title>43 (position.label in template: 43.G)</title><text x="102.37" y="76.02" class="green" >G</text></g>
<g><title>44 (position.label in template: 44.U)</title><text x="105.51" y="69.05" class="green" >T</text></g>
<g><title>45 (position.label in template: 45.C)</title><text x="109.81" y="62.83" class="black" >C</text></g>
<g><title>46 (position.label in template: 46.A)</title><text x="115.5" y="57.63" class="black" >A</text></g>
<g><title>47 (position.label in template: 47.U)</title><text x="121.72" y="53.65" class="green" >T</text></g>
<g><title>48 (position.label in template: 48.G)</title><text x="128.62" y="51.07" class="black" >G</text></g>
<g><title>49 (position.label in template: 49.A)</title><text x="136.52" y="50" class="black" >A</text></g>
<g><title>50 (position.label in template: 50.U)</title><text x="143.86" y="50.49" class="green" >T</text></g>
<g><text x="145.025" y="43.703" class="numbering-label sequential" >50</text></g>
<g><line x1="144.171" y1="48.6801" x2="144.762" y2="45.2333" class="numbering-line sequential" /></g>
<g><title>51 (position.label in template: 51.C)</title><text x="151.14" y="52.51" class="black" >C</text></g>
<g><title>52 (position.label in template: 52.U)</title><text x="157.86" y="55.98" class="green" >T</text></g>
<g><title>53 (position.label in template: 53.C)</title><text x="163.73" y="60.74" class="black" >C</text></g>
<g><title>54 (position.label in template: 54.A)</title><text x="168.7" y="66.61" class="black" >A</text></g>
<g><title>55 (position.label in template: 55.C)</title><text x="171.96" y="73.33" class="black" >C</text></g>
<g><title>56 (position.label in template: 56.A)</title><text x="174.19" y="80.61" class="black" >A</text></g>
<g><title>57 (position.label in template: 57.G)</title><text x="174.26" y="88.16" class="black" >G</text></g>
<g><title>58 (position.label in template: 58.U)</title><text x="173.4" y="95.64" class="green" >T</text></g>
<g><title>59 (position.label in template: 59.U)</title><text x="170.82" y="102.75" class="green" >T</text></g>
<g><title>60 (position.label in template: 60.C)</title><text x="166.85" y="109.18" class="black" >C</text></g>
<g><title>61 (position.label in template: 61.G)</title><text x="161.43" y="114.66" class="black" >G</text></g>
<g><line x1="159.69" y1="115.419" x2="152.88" y2="119.589" class="black" /></g>
<g><title>62 (position.label in template: 62.U)</title><text x="165.53" y="121.14" class="green" >T</text></g>
<g><line x1="163.772" y1="121.869" x2="156.588" y2="126.099" class="black" /></g>
<g><title>63 (position.label in template: 63.G)</title><text x="169.21" y="127.62" class="black" >G</text></g>
<g><line x1="167.47" y1="128.38" x2="160.67" y2="132.548" class="black" /></g>
<g><title>64 (position.label in template: 64.G)</title><text x="173.1" y="134.11" class="black" >G</text></g>
<g><line x1="171.36" y1="134.87" x2="164.56" y2="139.038" class="black" /></g>
<g><title>65 (position.label in template: 65.G)</title><text x="176.99" y="140.59" class="black" >G</text></g>
<g><line x1="175.25" y1="141.35" x2="168.45" y2="145.518" class="black" /></g>
<g><title>66 (position.label in template: 66.U)</title><text x="184.36" y="143.02" class="green" >T</text></g>
<g><title>67 (position.label in template: 67.U)</title><text x="188.59" y="149.28" class="green" >T</text></g>
<g><title>68 (position.label in template: 68.C)</title><text x="188.17" y="156.83" class="black" >C</text></g>
<g><title>69 (position.label in template: 69.G)</title><text x="183.06" y="162.59" class="black" >G</text></g>
<g><title>70 (position.label in template: 70.A)</title><text x="176.09" y="164.21" class="black" >A</text></g>
<g><title>71 (position.label in template: 71.G)</title><text x="168.81" y="161.03" class="black" >G</text></g>
<g><title>72 (position.label in template: 72.C)</title><text x="165.48" y="154.35" class="black" >C</text></g>
<g><title>73 (position.label in template: 73.C)</title><text x="166.71" y="146.89" class="black" >C</text></g>
<g><title>74 (position.label in template: 74.C)</title><text x="162.82" y="140.41" class="black" >C</text></g>
<g><title>75 (position.label in template: 75.C)</title><text x="158.93" y="133.92" class="black" >C</text></g>
<g><title>76 (position.label in template: 76.G)</title><text x="154.83" y="127.44" class="green" >G</text></g>
<g><title>77 (position.label in template: 77.C)</title><text x="151.14" y="120.96" class="black" >C</text></g>
<g><title>78 (position.label in template: 78.A)</title><text x="144.06" y="122.98" class="black" >A</text></g>
<g><title>79 (position.label in template: 79.U)</title><text x="143.86" y="130.54" class="green" >T</text></g>
<g><title>80 (position.label in template: 80.C)</title><text x="143.86" y="138.1" class="black" >C</text></g>
<g><title>81 (position.label in template: 81.A)</title><text x="144.06" y="145.66" class="green" >A</text></g>
<g><title>82 (position.label in template: 82.G)</title><text x="143.65" y="153.22" class="black" >G</text></g>
<g><title>83 (position.label in template: 83.G)</title><text x="143.65" y="160.78" class="black" >G</text></g>
<g><title>84 (position.label in template: 84.C)</title><text x="143.86" y="168.34" class="black" >C</text></g>
<g><title>85 (position.label in template: 85.U)</title><text x="149.19" y="173.67" class="green" >T</text></g>
<g><title>86 (position.label in template: 86.3')</title><text x="144.331" y="179.434" class="green" >3'</text></g>
<g><line x1="131.257" y1="173.53" x2="131.353" y2="170.074" class="gray" /></g>
<g><line x1="131.467" y1="165.994" x2="131.563" y2="162.514" class="gray" /></g>
<g><line x1="131.62" y1="158.434" x2="131.62" y2="154.954" class="gray" /></g>
<g><line x1="131.62" y1="150.874" x2="131.62" y2="147.394" class="gray" /></g>
<g><line x1="131.563" y1="143.314" x2="131.467" y2="139.834" class="gray" /></g>
<g><line x1="131.41" y1="135.754" x2="131.41" y2="132.274" class="gray" /></g>
<g><line x1="131.41" y1="128.194" x2="131.41" y2="124.714" class="gray" /></g>
<g><line x1="129.448" y1="122.114" x2="126.292" y2="121.214" class="gray" /></g>
<g><line x1="122.506" y1="119.739" x2="119.234" y2="118.099" class="gray" /></g>
<g><line x1="115.825" y1="115.899" x2="113.125" y2="113.709" class="gray" /></g>
<g><line x1="109.897" y1="113.634" x2="107.233" y2="115.594" class="gray" /></g>
<g><line x1="103.927" y1="117.986" x2="101.093" y2="120.002" class="gray" /></g>
<g><line x1="97.7662" y1="122.365" x2="94.9238" y2="124.383" class="gray" /></g>
<g><line x1="92.9779" y1="127.585" x2="92.5021" y2="130.993" class="gray" /></g>
<g><line x1="90.7656" y1="134.445" x2="88.0744" y2="137.093" class="gray" /></g>
<g><line x1="84.6342" y1="138.993" x2="81.4458" y2="139.745" class="gray" /></g>
<g><line x1="77.5464" y1="139.506" x2="74.1036" y2="138.232" class="gray" /></g>
<g><line x1="71.0847" y1="135.809" x2="69.3253" y2="133.079" class="gray" /></g>
<g><line x1="68.0503" y1="129.331" x2="67.7597" y2="125.847" class="gray" /></g>
<g><line x1="68.7138" y1="122.111" x2="70.6962" y2="119.107" class="gray" /></g>
<g><line x1="73.6832" y1="116.572" x2="76.8568" y2="115.156" class="gray" /></g>
<g><line x1="80.7333" y1="114.655" x2="84.3667" y2="115.253" class="gray" /></g>
<g><line x1="88.0429" y1="114.402" x2="90.8771" y2="112.386" class="gray" /></g>
<g><line x1="94.1621" y1="109.966" x2="96.6579" y2="108.062" class="gray" /></g>
<g><line x1="99.9613" y1="105.668" x2="102.969" y2="103.6" class="gray" /></g>
<g><line x1="104.005" y1="100.508" x2="102.925" y2="97.2696" class="gray" /></g>
<g><line x1="101.938" y1="93.3224" x2="101.352" y2="89.8655" class="gray" /></g>
<g><line x1="98.9865" y1="87.5922" x2="95.5335" y2="87.1457" class="gray" /></g>
<g><line x1="91.4865" y1="86.6222" x2="88.0335" y2="86.1757" class="gray" /></g>
<g><line x1="83.9856" y1="85.6589" x2="80.3344" y2="85.199" class="gray" /></g>
<g><line x1="76.2885" y1="84.667" x2="73.2515" y2="84.2509" class="gray" /></g>
<g><line x1="69.5009" y1="85.0572" x2="66.3991" y2="87.0007" class="gray" /></g>
<g><line x1="62.6354" y1="87.9301" x2="59.1646" y2="87.6678" class="gray" /></g>
<g><line x1="55.6022" y1="86.1616" x2="52.9978" y2="83.8563" class="gray" /></g>
<g><line x1="51.073" y1="80.5026" x2="50.397" y2="77.0953" class="gray" /></g>
<g><line x1="50.8464" y1="73.2374" x2="52.2536" y2="70.1505" class="gray" /></g>
<g><line x1="54.9212" y1="67.3739" x2="58.0288" y2="65.804" class="gray" /></g>
<g><line x1="61.8583" y1="65.2441" x2="65.4817" y2="65.8938" class="gray" /></g>
<g><line x1="68.8665" y1="67.76" x2="71.2135" y2="70.3279" class="gray" /></g>
<g><line x1="74.6135" y1="72.0957" x2="78.0665" y2="72.5422" class="gray" /></g>
<g><line x1="82.1144" y1="73.059" x2="85.7656" y2="73.5189" class="gray" /></g>
<g><line x1="89.8115" y1="74.0509" x2="92.8485" y2="74.467" class="gray" /></g>
<g><line x1="96.8935" y1="75.0057" x2="100.346" y2="75.4522" class="gray" /></g>
<g><line x1="103.208" y1="73.8536" x2="104.672" y2="70.6043" class="gray" /></g>
<g><line x1="106.67" y1="67.0656" x2="108.65" y2="64.2023" class="gray" /></g>
<g><line x1="111.316" y1="61.1475" x2="113.994" y2="58.7004" class="gray" /></g>
<g><line x1="117.219" y1="56.2242" x2="120.001" y2="54.4437" class="gray" /></g>
<g><line x1="123.631" y1="52.6293" x2="126.709" y2="51.4785" class="gray" /></g>
<g><line x1="130.642" y1="50.4901" x2="134.498" y2="49.9678" class="gray" /></g>
<g><line x1="138.556" y1="49.8299" x2="141.824" y2="50.048" class="gray" /></g>
<g><line x1="145.826" y1="50.7295" x2="149.174" y2="51.6584" class="gray" /></g>
<g><line x1="152.953" y1="53.1401" x2="156.047" y2="54.7378" class="gray" /></g>
<g><line x1="159.445" y1="56.9591" x2="162.145" y2="59.1488" class="gray" /></g>
<g><line x1="165.048" y1="61.9911" x2="167.382" y2="64.7467" class="gray" /></g>
<g><line x1="169.591" y1="68.1397" x2="171.069" y2="71.1882" class="gray" /></g>
<g><line x1="172.558" y1="74.9748" x2="173.592" y2="78.353" class="gray" /></g>
<g><line x1="174.209" y1="82.3442" x2="174.241" y2="85.8137" class="gray" /></g>
<g><line x1="174.027" y1="89.881" x2="173.633" y2="93.3069" class="gray" /></g>
<g><line x1="172.704" y1="97.2519" x2="171.516" y2="100.526" class="gray" /></g>
<g><line x1="169.748" y1="104.18" x2="167.922" y2="107.138" class="gray" /></g>
<g><line x1="165.415" y1="110.325" x2="162.865" y2="112.903" class="gray" /></g>
<g><line x1="162.521" y1="116.078" x2="164.439" y2="119.11" class="gray" /></g>
<g><line x1="166.538" y1="122.608" x2="168.202" y2="125.54" class="gray" /></g>
<g><line x1="170.259" y1="129.064" x2="172.051" y2="132.054" class="gray" /></g>
<g><line x1="174.15" y1="135.553" x2="175.94" y2="138.535" class="gray" /></g>
<g><line x1="178.928" y1="140.923" x2="182.422" y2="142.075" class="gray" /></g>
<g><line x1="185.502" y1="144.405" x2="187.448" y2="147.283" class="gray" /></g>
<g><line x1="188.477" y1="151.011" x2="188.283" y2="154.487" class="gray" /></g>
<g><line x1="186.816" y1="158.05" x2="184.414" y2="160.758" class="gray" /></g>
<g><line x1="181.073" y1="162.746" x2="178.077" y2="163.442" class="gray" /></g>
<g><line x1="174.22" y1="163.087" x2="170.68" y2="161.541" class="gray" /></g>
<g><line x1="167.9" y1="158.898" x2="166.39" y2="155.87" class="gray" /></g>
<g><line x1="165.812" y1="152.031" x2="166.378" y2="148.597" class="gray" /></g>
<g><line x1="165.66" y1="144.835" x2="163.87" y2="141.853" class="gray" /></g>
<g><line x1="161.771" y1="138.354" x2="159.979" y2="135.364" class="gray" /></g>
<g><line x1="157.839" y1="131.89" x2="155.921" y2="128.858" class="gray" /></g>
<g><line x1="153.82" y1="125.361" x2="152.15" y2="122.427" class="gray" /></g>
<g><line x1="149.178" y1="121.214" x2="146.022" y2="122.114" class="gray" /></g>
<g><line x1="144.006" y1="124.714" x2="143.914" y2="128.194" class="gray" /></g>
<g><line x1="143.86" y1="132.274" x2="143.86" y2="135.754" class="gray" /></g>
<g><line x1="143.914" y1="139.834" x2="144.006" y2="143.314" class="gray" /></g>
<g><line x1="143.95" y1="147.391" x2="143.76" y2="150.877" class="gray" /></g>
<g><line x1="143.65" y1="154.954" x2="143.65" y2="158.434" class="gray" /></g>
<g><line x1="143.707" y1="162.514" x2="143.803" y2="165.994" class="gray" /></g>
<g><line x1="145.303" y1="169.477" x2="147.748" y2="171.922" class="gray" /></g>
<g><line x1="147.875" y1="174.924" x2="145.646" y2="177.568" class="gray" /></g>
</svg>
