<svg
	xmlns="http://www.w3.org/2000/svg"
	width="203.28"
	height="248.35">
<g><style type="text/css" >
<!-- create color definitions -->
<![CDATA[
circle.red {stroke: rgb(255, 0, 255); fill: none; }
circle.green {stroke: rgb(0, 255, 0); fill: none; }
circle.blue {stroke: rgb(0, 0, 255); fill: none; }
circle.black {stroke: rgb(0, 0, 0); fill: none; }
circle.gray {stroke: rgb(204, 204, 204); fill: none; }
circle.brown {stroke: rgb(211.65, 104.55, 30.6); fill: none; }
line.red {stroke: rgb(255, 0, 255); stroke-width: 0.380353; }
line.green {stroke: rgb(0, 255, 0); stroke-width: 0.380353; }
line.blue {stroke: rgb(0, 0, 255); stroke-width: 0.380353; }
line.black {stroke: rgb(0, 0, 0); stroke-width: 0.380353; }
line.gray {stroke: rgb(204, 204, 204); stroke-width: 0.380353; }
line.brown {stroke: rgb(211.65, 104.55, 30.6); stroke-width: 0.380353; }
line {stroke: rgb(0, 0, 0); }
text.red {fill: rgb(255, 0, 255); font-size: 3.042823px; font-weight: bold; font-family: Helvetica; }
text.green {fill: rgb(0, 255, 0); font-size: 3.042823px; font-weight: bold; font-family: Helvetica; }
text.blue {fill: rgb(0, 0, 255); font-size: 3.042823px; font-weight: bold; font-family: Helvetica; }
text.black {fill: rgb(0, 0, 0); font-size: 3.042823px; font-weight: bold; font-family: Helvetica; }
text.gray {fill: rgb(204, 204, 204); font-size: 3.042823px; font-weight: bold; font-family: Helvetica; }
text.brown {fill: rgb(211.65, 104.55, 30.6); font-size: 3.042823px; font-weight: bold; font-family: Helvetica; }
text {fill: rgb(0, 0, 0); font-size: 3.042823px; font-weight: bold; font-family: Helvetica; text-anchor: middle; alignment-baseline: middle; }

.pseudoknot_connection{stroke-linecap: round; stroke-opacity: 0.2; stroke-width: 1.5; }
.pseudoknot_segment1{stroke-linecap: round; stroke-opacity: 0.4; stroke-width: 3.04282; }
.pseudoknot_segment2{stroke-linecap: round; stroke-opacity: 0.4; stroke-width: 3.04282; }
line.numbering-line{stroke: rgb(204, 204, 204); stroke-width: 0.190176; }
line.predicted{stroke: rgb(0, 0, 0); stroke-dasharray: 2; }
polyline{fill: none; stroke-linejoin: round; }
template{visibility: hidden; }
text.numbering-label{fill: rgb(204, 204, 204); }
]]>
</style></g>
<g><title>0 (position.label in template: 0.5')</title><text x="118.71" y="198.35" class="green" >5'</text></g>
<g><title>1 (position.label in template: 1.A)</title><text x="125.71" y="198.35" class="black" >A</text></g>
<g><line x1="127.739" y1="198.046" x2="135.511" y2="198.046" class="black" /></g>
<g><title>2 (position.label in template: 2.C)</title><text x="125.51" y="190.79" class="black" >C</text></g>
<g><line x1="127.539" y1="190.486" x2="135.511" y2="190.486" class="black" /></g>
<g><title>3 (position.label in template: 3.U)</title><text x="125.51" y="183.23" class="green" >T</text></g>
<g><line x1="127.539" y1="182.926" x2="135.721" y2="182.926" class="black" /></g>
<g><title>4 (position.label in template: 4.U)</title><text x="125.51" y="175.67" class="green" >T</text></g>
<g><line x1="127.539" y1="175.366" x2="135.721" y2="175.366" class="black" /></g>
<g><title>5 (position.label in template: 5.U)</title><text x="119.91" y="170.58" class="green" >T</text></g>
<g><title>6 (position.label in template: 6.A)</title><text x="118.05" y="163.31" class="black" >A</text></g>
<g><title>7 (position.label in template: 7.A)</title><text x="120.12" y="156.04" class="black" >A</text></g>
<g><title>8 (position.label in template: 8.C)</title><text x="125.51" y="150.96" class="black" >C</text></g>
<g><line x1="127.539" y1="150.656" x2="135.511" y2="150.656" class="black" /></g>
<g><title>9 (position.label in template: 9.U)</title><text x="125.51" y="143.4" class="green" >T</text></g>
<g><line x1="127.539" y1="143.096" x2="135.921" y2="143.096" class="black" /></g>
<g><title>10 (position.label in template: 10.C)</title><text x="125.51" y="135.84" class="black" >C</text></g>
<g><line x1="127.539" y1="135.536" x2="135.511" y2="135.536" class="black" /></g>
<g><text x="118.664" y="135.84" class="numbering-label sequential" >10</text></g>
<g><line x1="123.684" y1="135.84" x2="120.489" y2="135.84" class="numbering-line sequential" /></g>
<g><title>11 (position.label in template: 11.C)</title><text x="125.51" y="128.28" class="black" >C</text></g>
<g><line x1="127.539" y1="127.976" x2="135.511" y2="127.976" class="black" /></g>
<g><title>12 (position.label in template: 12.G)</title><text x="118.88" y="124.29" class="black" >G</text></g>
<g><title>13 (position.label in template: 13.C)</title><text x="114.86" y="118.02" class="black" >C</text></g>
<g><title>14 (position.label in template: 14.C)</title><text x="113.56" y="110.58" class="black" >C</text></g>
<g><line x1="114.287" y1="108.382" x2="117.193" y2="100.81" class="black" /></g>
<g><title>15 (position.label in template: 15.U)</title><text x="106.55" y="107.75" class="green" >T</text></g>
<g><line x1="107.308" y1="105.564" x2="110.362" y2="97.9775" class="black" /></g>
<g><title>16 (position.label in template: 16.G)</title><text x="99.32" y="104.92" class="black" >G</text></g>
<g><line x1="100.109" y1="102.747" x2="103.321" y2="95.1346" class="black" /></g>
<g><title>17 (position.label in template: 17.U)</title><text x="92.52" y="102.1" class="green" >T</text></g>
<g><line x1="93.3068" y1="99.9259" x2="96.5132" y2="92.3055" class="black" /></g>
<g><title>18 (position.label in template: 18.A)</title><text x="85.72" y="99.27" class="green" >A</text></g>
<g><line x1="86.4489" y1="97.0726" x2="89.3611" y2="89.5088" class="black" /></g>
<g><title>19 (position.label in template: 19.G)</title><text x="78.29" y="96.44" class="green" >G</text></g>
<g><line x1="79.0773" y1="94.2662" x2="82.2827" y2="86.6552" class="black" /></g>
<g><title>20 (position.label in template: 20.C)</title><text x="72.17" y="100.58" class="black" >C</text></g>
<g><text x="74.5403" y="107.003" class="numbering-label sequential" >20</text></g>
<g><line x1="72.8021" y1="102.293" x2="73.9789" y2="105.482" class="numbering-line sequential" /></g>
<g><title>21 (position.label in template: 21.U)</title><text x="64.66" y="101.47" class="green" >T</text></g>
<g><title>22 (position.label in template: 22.C)</title><text x="57.54" y="98.93" class="black" >C</text></g>
<g><title>23 (position.label in template: 23.U)</title><text x="52.29" y="93.5" class="green" >T</text></g>
<g><title>24 (position.label in template: 24.U)</title><text x="50" y="86.29" class="green" >T</text></g>
<g><title>25 (position.label in template: 25.C)</title><text x="51.15" y="78.82" class="black" >C</text></g>
<g><title>26 (position.label in template: 26.U)</title><text x="55.5" y="72.64" class="green" >T</text></g>
<g><title>27 (position.label in template: 27.A)</title><text x="62.36" y="69.03" class="black" >A</text></g>
<g><title>28 (position.label in template: 28.G)</title><text x="69.5" y="68.76" class="black" >G</text></g>
<g><title>29 (position.label in template: 29.A)</title><text x="76.8" y="71.87" class="black" >A</text></g>
<g><title>30 (position.label in template: 30.G)</title><text x="81.17" y="77.72" class="black" >G</text></g>
<g><text x="87.3559" y="74.7862" class="numbering-label sequential" >30</text></g>
<g><line x1="82.8196" y1="76.9376" x2="85.5302" y2="75.652" class="numbering-line sequential" /></g>
<g><title>31 (position.label in template: 31.U)</title><text x="83.07" y="85.09" class="green" >T</text></g>
<g><title>32 (position.label in template: 32.U)</title><text x="90.09" y="87.92" class="green" >T</text></g>
<g><title>33 (position.label in template: 33.A)</title><text x="97.3" y="90.74" class="green" >A</text></g>
<g><title>34 (position.label in template: 34.C)</title><text x="104.11" y="93.57" class="black" >C</text></g>
<g><title>35 (position.label in template: 35.U)</title><text x="111.12" y="96.4" class="green" >T</text></g>
<g><title>36 (position.label in template: 36.G)</title><text x="117.92" y="99.22" class="black" >G</text></g>
<g><title>37 (position.label in template: 37.C)</title><text x="124.23" y="94.76" class="black" >C</text></g>
<g><line x1="126.252" y1="94.299" x2="134.208" y2="93.6825" class="black" /></g>
<g><title>38 (position.label in template: 38.C)</title><text x="123.66" y="87.22" class="black" >C</text></g>
<g><line x1="125.682" y1="86.759" x2="133.638" y2="86.1425" class="black" /></g>
<g><title>39 (position.label in template: 39.G)</title><text x="122.88" y="79.68" class="black" >G</text></g>
<g><line x1="124.903" y1="79.2241" x2="133.267" y2="78.5973" class="black" /></g>
<g><title>40 (position.label in template: 40.G)</title><text x="116.56" y="75.53" class="black" >G</text></g>
<g><title>41 (position.label in template: 41.U)</title><text x="113.2" y="68.86" class="green" >T</text></g>
<g><title>42 (position.label in template: 42.C)</title><text x="113.23" y="61.3" class="black" >C</text></g>
<g><title>43 (position.label in template: 43.C)</title><text x="116.87" y="54.68" class="black" >C</text></g>
<g><title>44 (position.label in template: 44.C)</title><text x="123.22" y="50.58" class="black" >C</text></g>
<g><title>45 (position.label in template: 45.A)</title><text x="130.96" y="50" class="black" >A</text></g>
<g><title>46 (position.label in template: 46.A)</title><text x="137.87" y="53.09" class="black" >A</text></g>
<g><title>47 (position.label in template: 47.G)</title><text x="142.04" y="59.1" class="black" >G</text></g>
<g><title>48 (position.label in template: 48.C)</title><text x="143.43" y="66.57" class="black" >C</text></g>
<g><title>49 (position.label in template: 49.C)</title><text x="140.91" y="73.69" class="black" >C</text></g>
<g><title>50 (position.label in template: 50.C)</title><text x="135.29" y="78.75" class="black" >C</text></g>
<g><text x="141.61" y="81.3832" class="numbering-label sequential" >50</text></g>
<g><line x1="136.975" y1="79.4522" x2="139.784" y2="80.6225" class="numbering-line sequential" /></g>
<g><title>51 (position.label in template: 51.G)</title><text x="135.66" y="86.29" class="black" >G</text></g>
<g><title>52 (position.label in template: 52.G)</title><text x="136.23" y="93.83" class="black" >G</text></g>
<g><title>53 (position.label in template: 53.G)</title><text x="142.94" y="97.32" class="black" >G</text></g>
<g><title>54 (position.label in template: 54.U)</title><text x="147.84" y="103.25" class="green" >T</text></g>
<g><title>55 (position.label in template: 55.A)</title><text x="149.9" y="110.58" class="black" >A</text></g>
<g><title>56 (position.label in template: 56.A)</title><text x="148.61" y="118.02" class="black" >A</text></g>
<g><title>57 (position.label in template: 57.A)</title><text x="144.38" y="124.29" class="black" >A</text></g>
<g><title>58 (position.label in template: 58.G)</title><text x="137.54" y="128.28" class="black" >G</text></g>
<g><title>59 (position.label in template: 59.G)</title><text x="137.54" y="135.84" class="black" >G</text></g>
<g><title>60 (position.label in template: 60.A)</title><text x="137.95" y="143.4" class="green" >A</text></g>
<g><title>61 (position.label in template: 61.G)</title><text x="137.54" y="150.96" class="black" >G</text></g>
<g><title>62 (position.label in template: 62.G)</title><text x="145.08" y="151.43" class="black" >G</text></g>
<g><title>63 (position.label in template: 63.A)</title><text x="151.45" y="156.09" class="black" >A</text></g>
<g><title>64 (position.label in template: 64.G)</title><text x="153.28" y="163.31" class="black" >G</text></g>
<g><title>65 (position.label in template: 65.G)</title><text x="151.03" y="170.53" class="black" >G</text></g>
<g><title>66 (position.label in template: 66.G)</title><text x="145.08" y="175.2" class="black" >G</text></g>
<g><title>67 (position.label in template: 67.U)</title><text x="137.75" y="175.67" class="green" >T</text></g>
<g><title>68 (position.label in template: 68.U)</title><text x="137.75" y="183.23" class="green" >T</text></g>
<g><title>69 (position.label in template: 69.G)</title><text x="137.54" y="190.79" class="black" >G</text></g>
<g><title>70 (position.label in template: 70.G)</title><text x="137.54" y="198.35" class="black" >G</text></g>
<g><title>71 (position.label in template: 71.3')</title><text x="144.54" y="198.35" class="green" >3'</text></g>
<g><line x1="120.739" y1="198.046" x2="123.681" y2="198.046" class="gray" /></g>
<g><line x1="125.656" y1="196.018" x2="125.564" y2="192.514" class="gray" /></g>
<g><line x1="125.51" y1="188.457" x2="125.51" y2="184.954" class="gray" /></g>
<g><line x1="125.51" y1="180.897" x2="125.51" y2="177.394" class="gray" /></g>
<g><line x1="124.009" y1="174.001" x2="121.411" y2="171.64" class="gray" /></g>
<g><line x1="119.407" y1="168.31" x2="118.553" y2="164.971" class="gray" /></g>
<g><line x1="118.606" y1="161.055" x2="119.564" y2="157.687" class="gray" /></g>
<g><line x1="121.596" y1="154.344" x2="124.034" y2="152.047" class="gray" /></g>
<g><line x1="125.51" y1="148.627" x2="125.51" y2="145.124" class="gray" /></g>
<g><line x1="125.51" y1="141.067" x2="125.51" y2="137.564" class="gray" /></g>
<g><line x1="125.51" y1="133.507" x2="125.51" y2="130.004" class="gray" /></g>
<g><line x1="123.772" y1="126.93" x2="120.618" y2="125.032" class="gray" /></g>
<g><line x1="117.785" y1="122.278" x2="115.955" y2="119.423" class="gray" /></g>
<g><line x1="114.511" y1="115.717" x2="113.909" y2="112.274" class="gray" /></g>
<g><line x1="111.679" y1="109.516" x2="108.431" y2="108.205" class="gray" /></g>
<g><line x1="104.661" y1="106.706" x2="101.209" y2="105.355" class="gray" /></g>
<g><line x1="97.4462" y1="103.839" x2="94.3938" y2="102.573" class="gray" /></g>
<g><line x1="90.6472" y1="101.016" x2="87.5928" y2="99.7451" class="gray" /></g>
<g><line x1="83.8243" y1="98.2437" x2="80.1857" y2="96.8578" class="gray" /></g>
<g><line x1="76.6098" y1="97.2723" x2="73.8502" y2="99.1391" class="gray" /></g>
<g><line x1="70.1555" y1="100.514" x2="66.6745" y2="100.927" class="gray" /></g>
<g><line x1="62.7494" y1="100.484" x2="59.4506" y2="99.3073" class="gray" /></g>
<g><line x1="56.13" y1="97.1673" x2="53.7" y2="94.6541" class="gray" /></g>
<g><line x1="51.6759" y1="91.2623" x2="50.6141" y2="87.9191" class="gray" /></g>
<g><line x1="50.3087" y1="83.9808" x2="50.8413" y2="80.5206" class="gray" /></g>
<g><line x1="52.3176" y1="76.8569" x2="54.3324" y2="73.9945" class="gray" /></g>
<g><line x1="57.2952" y1="71.391" x2="60.5648" y2="69.6704" class="gray" /></g>
<g><line x1="64.3871" y1="68.6491" x2="67.4729" y2="68.5324" class="gray" /></g>
<g><line x1="71.3662" y1="69.2508" x2="74.9338" y2="70.7706" class="gray" /></g>
<g><line x1="78.014" y1="73.1909" x2="79.956" y2="75.7905" class="gray" /></g>
<g><line x1="81.6764" y1="79.38" x2="82.5636" y2="82.8214" class="gray" /></g>
<g><line x1="84.9514" y1="85.5442" x2="88.2086" y2="86.8573" class="gray" /></g>
<g><line x1="91.9792" y1="88.3546" x2="95.4108" y2="89.6968" class="gray" /></g>
<g><line x1="99.1732" y1="91.2142" x2="102.237" y2="92.4873" class="gray" /></g>
<g><line x1="105.991" y1="94.0251" x2="109.239" y2="95.3363" class="gray" /></g>
<g><line x1="112.994" y1="96.8728" x2="116.046" y2="98.1386" class="gray" /></g>
<g><line x1="119.577" y1="97.7449" x2="122.573" y2="95.6266" class="gray" /></g>
<g><line x1="124.077" y1="92.4329" x2="123.813" y2="88.9385" class="gray" /></g>
<g><line x1="123.451" y1="84.8979" x2="123.089" y2="81.3935" class="gray" /></g>
<g><line x1="121.184" y1="78.2623" x2="118.256" y2="76.3392" class="gray" /></g>
<g><line x1="115.647" y1="73.4141" x2="114.113" y2="70.3674" class="gray" /></g>
<g><line x1="113.208" y1="66.5272" x2="113.222" y2="63.0243" class="gray" /></g>
<g><line x1="114.207" y1="59.2182" x2="115.893" y2="56.1533" class="gray" /></g>
<g><line x1="118.574" y1="53.2754" x2="121.516" y2="51.3761" class="gray" /></g>
<g><line x1="125.243" y1="50.1241" x2="128.937" y2="49.8473" class="gray" /></g>
<g><line x1="132.812" y1="50.5238" x2="136.018" y2="51.9576" class="gray" /></g>
<g><line x1="139.026" y1="54.4524" x2="140.884" y2="57.1291" class="gray" /></g>
<g><line x1="142.411" y1="60.79" x2="143.059" y2="64.2714" class="gray" /></g>
<g><line x1="142.753" y1="68.178" x2="141.587" y2="71.4734" class="gray" /></g>
<g><line x1="139.402" y1="74.743" x2="136.798" y2="77.0884" class="gray" /></g>
<g><line x1="135.389" y1="80.4718" x2="135.561" y2="83.9596" class="gray" /></g>
<g><line x1="135.813" y1="88.0085" x2="136.077" y2="91.5029" class="gray" /></g>
<g><line x1="138.03" y1="94.4618" x2="141.14" y2="96.0797" class="gray" /></g>
<g><line x1="144.232" y1="98.5795" x2="146.548" y2="101.382" class="gray" /></g>
<g><line x1="148.389" y1="104.899" x2="149.351" y2="108.323" class="gray" /></g>
<g><line x1="149.553" y1="112.274" x2="148.957" y2="115.717" class="gray" /></g>
<g><line x1="147.475" y1="119.397" x2="145.515" y2="122.304" class="gray" /></g>
<g><line x1="142.628" y1="125.008" x2="139.292" y2="126.954" class="gray" /></g>
<g><line x1="137.54" y1="130.004" x2="137.54" y2="133.507" class="gray" /></g>
<g><line x1="137.65" y1="137.561" x2="137.84" y2="141.07" class="gray" /></g>
<g><line x1="137.84" y1="145.121" x2="137.65" y2="148.63" class="gray" /></g>
<g><line x1="139.565" y1="150.782" x2="143.055" y2="151" class="gray" /></g>
<g><line x1="146.717" y1="152.323" x2="149.813" y2="154.588" class="gray" /></g>
<g><line x1="151.948" y1="157.752" x2="152.782" y2="161.039" class="gray" /></g>
<g><line x1="152.676" y1="164.942" x2="151.634" y2="168.289" class="gray" /></g>
<g><line x1="149.434" y1="171.478" x2="146.676" y2="173.643" class="gray" /></g>
<g><line x1="143.056" y1="175.026" x2="139.774" y2="175.236" class="gray" /></g>
<g><line x1="137.75" y1="177.394" x2="137.75" y2="180.897" class="gray" /></g>
<g><line x1="137.694" y1="184.953" x2="137.596" y2="188.458" class="gray" /></g>
<g><line x1="137.54" y1="192.514" x2="137.54" y2="196.017" class="gray" /></g>
<g><line x1="139.569" y1="198.046" x2="142.511" y2="198.046" class="gray" /></g>
</svg>
