<svg
	xmlns="http://www.w3.org/2000/svg"
	width="258.27"
	height="285.768">
<g><style type="text/css" >
<!-- create color definitions -->
<![CDATA[
circle.red {stroke: rgb(255, 0, 255); fill: none; }
circle.green {stroke: rgb(0, 255, 0); fill: none; }
circle.blue {stroke: rgb(0, 0, 255); fill: none; }
circle.black {stroke: rgb(0, 0, 0); fill: none; }
circle.gray {stroke: rgb(204, 204, 204); fill: none; }
circle.brown {stroke: rgb(211.65, 104.55, 30.6); fill: none; }
line.red {stroke: rgb(255, 0, 255); stroke-width: 0.384141; }
line.green {stroke: rgb(0, 255, 0); stroke-width: 0.384141; }
line.blue {stroke: rgb(0, 0, 255); stroke-width: 0.384141; }
line.black {stroke: rgb(0, 0, 0); stroke-width: 0.384141; }
line.gray {stroke: rgb(204, 204, 204); stroke-width: 0.384141; }
line.brown {stroke: rgb(211.65, 104.55, 30.6); stroke-width: 0.384141; }
line {stroke: rgb(0, 0, 0); }
text.red {fill: rgb(255, 0, 255); font-size: 3.073125px; font-weight: bold; font-family: Helvetica; }
text.green {fill: rgb(0, 255, 0); font-size: 3.073125px; font-weight: bold; font-family: Helvetica; }
text.blue {fill: rgb(0, 0, 255); font-size: 3.073125px; font-weight: bold; font-family: Helvetica; }
text.black {fill: rgb(0, 0, 0); font-size: 3.073125px; font-weight: bold; font-family: Helvetica; }
text.gray {fill: rgb(204, 204, 204); font-size: 3.073125px; font-weight: bold; font-family: Helvetica; }
text.brown {fill: rgb(211.65, 104.55, 30.6); font-size: 3.073125px; font-weight: bold; font-family: Helvetica; }
text {fill: rgb(0, 0, 0); font-size: 3.073125px; font-weight: bold; font-family: Helvetica; text-anchor: middle; alignment-baseline: middle; }

.pseudoknot_connection{stroke-linecap: round; stroke-opacity: 0.2; stroke-width: 1.5; }
.pseudoknot_segment1{stroke-linecap: round; stroke-opacity: 0.4; stroke-width: 3.07313; }
.pseudoknot_segment2{stroke-linecap: round; stroke-opacity: 0.4; stroke-width: 3.07313; }
line.numbering-line{stroke: rgb(204, 204, 204); stroke-width: 0.19207; }
line.predicted{stroke: rgb(0, 0, 0); stroke-dasharray: 2; }
polyline{fill: none; stroke-linejoin: round; }
template{visibility: hidden; }
text.numbering-label{fill: rgb(204, 204, 204); }
]]>
</style></g>
<g><title>0 (position.label in template: 0.5')</title><text x="112.524" y="241.116" class="green" >5'</text></g>
<g><title>1 (position.label in template: 1.A)</title><text x="117.872" y="235.768" class="black" >A</text></g>
<g><title>2 (position.label in template: 2.A)</title><text x="123.22" y="230.42" class="black" >A</text></g>
<g><line x1="125.269" y1="230.113" x2="133.411" y2="230.113" class="black" /></g>
<g><title>3 (position.label in template: 3.G)</title><text x="122.81" y="222.86" class="black" >G</text></g>
<g><line x1="124.859" y1="222.553" x2="133.211" y2="222.553" class="black" /></g>
<g><title>4 (position.label in template: 4.C)</title><text x="123.02" y="215.3" class="black" >C</text></g>
<g><line x1="125.069" y1="214.993" x2="133.411" y2="214.993" class="black" /></g>
<g><title>5 (position.label in template: 5.A)</title><text x="123.22" y="207.74" class="green" >A</text></g>
<g><line x1="125.269" y1="207.433" x2="133.211" y2="207.433" class="black" /></g>
<g><title>6 (position.label in template: 6.A)</title><text x="115.72" y="206.79" class="black" >A</text></g>
<g><title>7 (position.label in template: 7.A)</title><text x="108.35" y="205.13" class="black" >A</text></g>
<g><title>8 (position.label in template: 8.U)</title><text x="100.96" y="202.78" class="green" >T</text></g>
<g><title>9 (position.label in template: 9.G)</title><text x="93.82" y="199.74" class="black" >G</text></g>
<g><title>10 (position.label in template: 10.A)</title><text x="87.63" y="196.06" class="black" >A</text></g>
<g><text x="83.9358" y="201.905" class="numbering-label sequential" >10</text></g>
<g><line x1="86.6449" y1="197.619" x2="84.9069" y2="200.368" class="numbering-line sequential" /></g>
<g><title>11 (position.label in template: 11.U)</title><text x="81.21" y="191.77" class="green" >T</text></g>
<g><title>12 (position.label in template: 12.G)</title><text x="75.21" y="186.9" class="black" >G</text></g>
<g><title>13 (position.label in template: 13.A)</title><text x="70.34" y="181.5" class="black" >A</text></g>
<g><title>14 (position.label in template: 14.G)</title><text x="65.17" y="175.62" class="black" >G</text></g>
<g><title>15 (position.label in template: 15.U)</title><text x="61.22" y="169.31" class="green" >T</text></g>
<g><title>16 (position.label in template: 16.U)</title><text x="57.67" y="162.63" class="green" >T</text></g>
<g><title>17 (position.label in template: 17.A)</title><text x="54.99" y="155.64" class="black" >A</text></g>
<g><title>18 (position.label in template: 18.C)</title><text x="52.58" y="148.41" class="black" >C</text></g>
<g><title>19 (position.label in template: 19.U)</title><text x="51.07" y="141.01" class="green" >T</text></g>
<g><title>20 (position.label in template: 20.C)</title><text x="50.28" y="133.49" class="black" >C</text></g>
<g><text x="43.3828" y="133.979" class="numbering-label sequential" >20</text></g>
<g><line x1="48.4407" y1="133.621" x2="45.2267" y2="133.849" class="numbering-line sequential" /></g>
<g><title>21 (position.label in template: 21.G)</title><text x="50" y="125.93" class="black" >G</text></g>
<g><title>22 (position.label in template: 22.G)</title><text x="50.65" y="118.4" class="black" >G</text></g>
<g><title>23 (position.label in template: 23.A)</title><text x="52.44" y="110.96" class="black" >A</text></g>
<g><title>24 (position.label in template: 24.U)</title><text x="54.31" y="103.69" class="green" >T</text></g>
<g><title>25 (position.label in template: 25.U)</title><text x="57.07" y="96.65" class="green" >T</text></g>
<g><title>26 (position.label in template: 26.C)</title><text x="60.49" y="89.91" class="black" >C</text></g>
<g><title>27 (position.label in template: 27.C)</title><text x="64.54" y="83.53" class="black" >C</text></g>
<g><title>28 (position.label in template: 28.C)</title><text x="69.19" y="77.56" class="black" >C</text></g>
<g><title>29 (position.label in template: 29.C)</title><text x="74.38" y="72.07" class="black" >C</text></g>
<g><title>30 (position.label in template: 30.U)</title><text x="80.07" y="67.09" class="green" >T</text></g>
<g><text x="75.774" y="61.6719" class="numbering-label sequential" >30</text></g>
<g><line x1="78.9244" y1="65.6452" x2="76.9924" y2="63.2085" class="numbering-line sequential" /></g>
<g><title>31 (position.label in template: 31.U)</title><text x="86.21" y="62.69" class="green" >T</text></g>
<g><title>32 (position.label in template: 32.C)</title><text x="92.75" y="58.89" class="black" >C</text></g>
<g><title>33 (position.label in template: 33.U)</title><text x="99.62" y="55.73" class="green" >T</text></g>
<g><title>34 (position.label in template: 34.A)</title><text x="106.96" y="53.24" class="black" >A</text></g>
<g><title>35 (position.label in template: 35.G)</title><text x="113.89" y="51.45" class="black" >G</text></g>
<g><title>36 (position.label in template: 36.A)</title><text x="121.79" y="50.37" class="black" >A</text></g>
<g><title>37 (position.label in template: 37.C)</title><text x="129.14" y="50" class="black" >C</text></g>
<g><title>38 (position.label in template: 38.A)</title><text x="136.89" y="50.37" class="black" >A</text></g>
<g><title>39 (position.label in template: 39.U)</title><text x="144.17" y="51.45" class="green" >T</text></g>
<g><title>40 (position.label in template: 40.C)</title><text x="151.51" y="53.24" class="black" >C</text></g>
<g><title>41 (position.label in template: 41.A)</title><text x="158.86" y="55.73" class="black" >A</text></g>
<g><title>42 (position.label in template: 42.U)</title><text x="165.52" y="58.89" class="green" >T</text></g>
<g><title>43 (position.label in template: 43.G)</title><text x="171.85" y="62.69" class="black" >G</text></g>
<g><title>44 (position.label in template: 44.G)</title><text x="177.99" y="67.09" class="black" >G</text></g>
<g><title>45 (position.label in template: 45.G)</title><text x="183.68" y="72.07" class="black" >G</text></g>
<g><title>46 (position.label in template: 46.U)</title><text x="189.08" y="77.56" class="green" >T</text></g>
<g><title>47 (position.label in template: 47.G)</title><text x="193.52" y="83.53" class="black" >G</text></g>
<g><title>48 (position.label in template: 48.A)</title><text x="197.98" y="89.91" class="black" >A</text></g>
<g><title>49 (position.label in template: 49.U)</title><text x="201.2" y="96.65" class="green" >T</text></g>
<g><title>50 (position.label in template: 50.G)</title><text x="203.75" y="103.69" class="black" >G</text></g>
<g><text x="210.301" y="101.479" class="numbering-label sequential" >50</text></g>
<g><line x1="205.497" y1="103.1" x2="208.458" y2="102.101" class="numbering-line sequential" /></g>
<g><title>51 (position.label in template: 51.C)</title><text x="206.03" y="110.96" class="black" >C</text></g>
<g><title>52 (position.label in template: 52.A)</title><text x="207.61" y="118.4" class="black" >A</text></g>
<g><title>53 (position.label in template: 53.A)</title><text x="208.27" y="125.93" class="black" >A</text></g>
<g><title>54 (position.label in template: 54.A)</title><text x="208.2" y="133.49" class="black" >A</text></g>
<g><title>55 (position.label in template: 55.A)</title><text x="207.41" y="141.01" class="black" >A</text></g>
<g><title>56 (position.label in template: 56.A)</title><text x="205.9" y="148.41" class="black" >A</text></g>
<g><title>57 (position.label in template: 57.C)</title><text x="203.49" y="155.64" class="black" >C</text></g>
<g><title>58 (position.label in template: 58.C)</title><text x="200.6" y="162.63" class="black" >C</text></g>
<g><title>59 (position.label in template: 59.G)</title><text x="196.84" y="169.31" class="black" >G</text></g>
<g><title>60 (position.label in template: 60.A)</title><text x="193.09" y="175.62" class="black" >A</text></g>
<g><title>61 (position.label in template: 61.G)</title><text x="187.93" y="181.5" class="black" >G</text></g>
<g><title>62 (position.label in template: 62.U)</title><text x="182.85" y="186.9" class="green" >T</text></g>
<g><title>63 (position.label in template: 63.U)</title><text x="177.07" y="191.77" class="green" >T</text></g>
<g><title>64 (position.label in template: 64.U)</title><text x="170.84" y="196.06" class="green" >T</text></g>
<g><title>65 (position.label in template: 65.C)</title><text x="164.24" y="199.74" class="black" >C</text></g>
<g><title>66 (position.label in template: 66.U)</title><text x="157.31" y="202.78" class="green" >T</text></g>
<g><title>67 (position.label in template: 67.G)</title><text x="149.92" y="205.13" class="black" >G</text></g>
<g><title>68 (position.label in template: 68.A)</title><text x="142.96" y="206.79" class="black" >A</text></g>
<g><title>69 (position.label in template: 69.U)</title><text x="135.26" y="207.74" class="green" >T</text></g>
<g><title>70 (position.label in template: 70.A)</title><text x="135.46" y="215.3" class="black" >A</text></g>
<g><title>71 (position.label in template: 71.C)</title><text x="135.26" y="222.86" class="black" >C</text></g>
<g><title>72 (position.label in template: 72.A)</title><text x="135.46" y="230.42" class="black" >A</text></g>
<g><title>73 (position.label in template: 73.3')</title><text x="142.696" y="228.22" class="green" >3'</text></g>
<g><line x1="113.973" y1="239.36" x2="116.423" y2="236.909" class="gray" /></g>
<g><line x1="119.321" y1="234.012" x2="121.771" y2="231.561" class="gray" /></g>
<g><line x1="123.109" y1="228.067" x2="122.921" y2="224.598" class="gray" /></g>
<g><line x1="122.867" y1="220.505" x2="122.963" y2="217.041" class="gray" /></g>
<g><line x1="123.074" y1="212.945" x2="123.166" y2="209.481" class="gray" /></g>
<g><line x1="121.187" y1="207.175" x2="117.753" y2="206.74" class="gray" /></g>
<g><line x1="113.721" y1="206.033" x2="110.349" y2="205.273" class="gray" /></g>
<g><line x1="106.398" y1="204.202" x2="102.912" y2="203.094" class="gray" /></g>
<g><line x1="99.075" y1="201.67" x2="95.705" y2="200.235" class="gray" /></g>
<g><line x1="92.059" y1="198.386" x2="89.391" y2="196.8" class="gray" /></g>
<g><line x1="85.9266" y1="194.614" x2="82.9134" y2="192.601" class="gray" /></g>
<g><line x1="79.6193" y1="190.172" x2="76.8007" y2="187.884" class="gray" /></g>
<g><line x1="73.8379" y1="185.071" x2="71.7121" y2="182.714" class="gray" /></g>
<g><line x1="68.9872" y1="179.654" x2="66.5228" y2="176.851" class="gray" /></g>
<g><line x1="64.0829" y1="173.576" x2="62.3071" y2="170.739" class="gray" /></g>
<g><line x1="60.2586" y1="167.194" x2="58.6314" y2="164.132" class="gray" /></g>
<g><line x1="56.9366" y1="160.41" x2="55.7234" y2="157.246" class="gray" /></g>
<g><line x1="54.3421" y1="153.389" x2="53.2279" y2="150.046" class="gray" /></g>
<g><line x1="52.1704" y1="146.095" x2="51.4796" y2="142.71" class="gray" /></g>
<g><line x1="50.856" y1="138.665" x2="50.494" y2="135.22" class="gray" /></g>
<g><line x1="50.2042" y1="131.135" x2="50.0758" y2="127.67" class="gray" /></g>
<g><line x1="50.1762" y1="123.582" x2="50.4738" y2="120.134" class="gray" /></g>
<g><line x1="51.1292" y1="116.101" x2="51.9608" y2="112.645" class="gray" /></g>
<g><line x1="52.9504" y1="108.669" x2="53.7996" y2="105.367" class="gray" /></g>
<g><line x1="55.0578" y1="101.475" x2="56.3222" y2="98.2501" class="gray" /></g>
<g><line x1="57.9971" y1="94.5157" x2="59.5629" y2="91.4297" class="gray" /></g>
<g><line x1="61.588" y1="87.873" x2="63.442" y2="84.9524" class="gray" /></g>
<g><line x1="65.7989" y1="81.6064" x2="67.9311" y2="78.869" class="gray" /></g>
<g><line x1="70.5974" y1="75.7639" x2="72.9726" y2="73.2515" class="gray" /></g>
<g><line x1="75.9217" y1="70.4134" x2="78.5283" y2="68.132" class="gray" /></g>
<g><line x1="81.7353" y1="65.5893" x2="84.5447" y2="63.5761" class="gray" /></g>
<g><line x1="87.9814" y1="61.3534" x2="90.9786" y2="59.612" class="gray" /></g>
<g><line x1="94.6113" y1="57.7265" x2="97.7587" y2="56.2788" class="gray" /></g>
<g><line x1="101.56" y1="54.7645" x2="105.02" y2="53.5909" class="gray" /></g>
<g><line x1="108.944" y1="52.4203" x2="111.906" y2="51.6551" class="gray" /></g>
<g><line x1="115.92" y1="50.8652" x2="119.76" y2="50.3402" class="gray" /></g>
<g><line x1="123.836" y1="49.9597" x2="127.094" y2="49.7957" class="gray" /></g>
<g><line x1="131.186" y1="49.7904" x2="134.844" y2="49.965" class="gray" /></g>
<g><line x1="138.917" y1="50.3633" x2="142.143" y2="50.842" class="gray" /></g>
<g><line x1="146.16" y1="51.6281" x2="149.52" y2="52.4473" class="gray" /></g>
<g><line x1="153.45" y1="53.5901" x2="156.92" y2="54.7653" class="gray" /></g>
<g><line x1="160.711" y1="56.3009" x2="163.669" y2="57.7045" class="gray" /></g>
<g><line x1="167.277" y1="59.6372" x2="170.093" y2="61.3282" class="gray" /></g>
<g><line x1="173.515" y1="63.5761" x2="176.325" y2="65.5893" class="gray" /></g>
<g><line x1="179.532" y1="68.132" x2="182.138" y2="70.4134" class="gray" /></g>
<g><line x1="185.117" y1="73.2233" x2="187.643" y2="75.7921" class="gray" /></g>
<g><line x1="190.303" y1="78.8966" x2="192.297" y2="81.5787" class="gray" /></g>
<g><line x1="194.694" y1="84.9018" x2="196.806" y2="87.9235" class="gray" /></g>
<g><line x1="198.863" y1="91.4513" x2="200.317" y2="94.4941" class="gray" /></g>
<g><line x1="201.898" y1="98.269" x2="203.052" y2="101.456" class="gray" /></g>
<g><line x1="204.363" y1="105.338" x2="205.417" y2="108.698" class="gray" /></g>
<g><line x1="206.456" y1="112.657" x2="207.184" y2="116.089" class="gray" /></g>
<g><line x1="207.789" y1="120.134" x2="208.091" y2="123.582" class="gray" /></g>
<g><line x1="208.251" y1="127.671" x2="208.219" y2="131.134" class="gray" /></g>
<g><line x1="207.986" y1="135.22" x2="207.624" y2="138.665" class="gray" /></g>
<g><line x1="207" y1="142.71" x2="206.31" y2="146.095" class="gray" /></g>
<g><line x1="205.252" y1="150.046" x2="204.138" y2="153.389" class="gray" /></g>
<g><line x1="202.707" y1="157.226" x2="201.383" y2="160.429" class="gray" /></g>
<g><line x1="199.595" y1="164.108" x2="197.845" y2="167.217" class="gray" /></g>
<g><line x1="195.793" y1="170.764" x2="194.137" y2="173.551" class="gray" /></g>
<g><line x1="191.739" y1="176.853" x2="189.281" y2="179.653" class="gray" /></g>
<g><line x1="186.526" y1="182.685" x2="184.254" y2="185.1" class="gray" /></g>
<g><line x1="181.283" y1="187.913" x2="178.637" y2="190.143" class="gray" /></g>
<g><line x1="175.383" y1="192.625" x2="172.527" y2="194.591" class="gray" /></g>
<g><line x1="169.051" y1="196.75" x2="166.029" y2="198.435" class="gray" /></g>
<g><line x1="162.364" y1="200.256" x2="159.186" y2="201.65" class="gray" /></g>
<g><line x1="155.358" y1="203.094" x2="151.872" y2="204.202" class="gray" /></g>
<g><line x1="147.927" y1="205.298" x2="144.953" y2="206.007" class="gray" /></g>
<g><line x1="140.927" y1="206.734" x2="137.293" y2="207.182" class="gray" /></g>
<g><line x1="135.314" y1="209.481" x2="135.406" y2="212.945" class="gray" /></g>
<g><line x1="135.406" y1="217.041" x2="135.314" y2="220.505" class="gray" /></g>
<g><line x1="135.314" y1="224.601" x2="135.406" y2="228.065" class="gray" /></g>
<g><line x1="137.42" y1="229.517" x2="140.736" y2="228.509" class="gray" /></g>
</svg>
