<svg
	xmlns="http://www.w3.org/2000/svg"
	width="297.081"
	height="294.447">
<g><style type="text/css" >
<!-- create color definitions -->
<![CDATA[
circle.red {stroke: rgb(255, 0, 255); fill: none; }
circle.green {stroke: rgb(0, 255, 0); fill: none; }
circle.blue {stroke: rgb(0, 0, 255); fill: none; }
circle.black {stroke: rgb(0, 0, 0); fill: none; }
circle.gray {stroke: rgb(204, 204, 204); fill: none; }
circle.brown {stroke: rgb(211.65, 104.55, 30.6); fill: none; }
line.red {stroke: rgb(255, 0, 255); stroke-width: 0.3825; }
line.green {stroke: rgb(0, 255, 0); stroke-width: 0.3825; }
line.blue {stroke: rgb(0, 0, 255); stroke-width: 0.3825; }
line.black {stroke: rgb(0, 0, 0); stroke-width: 0.3825; }
line.gray {stroke: rgb(204, 204, 204); stroke-width: 0.3825; }
line.brown {stroke: rgb(211.65, 104.55, 30.6); stroke-width: 0.3825; }
line {stroke: rgb(0, 0, 0); }
text.red {fill: rgb(255, 0, 255); font-size: 3.060000px; font-weight: bold; font-family: Helvetica; }
text.green {fill: rgb(0, 255, 0); font-size: 3.060000px; font-weight: bold; font-family: Helvetica; }
text.blue {fill: rgb(0, 0, 255); font-size: 3.060000px; font-weight: bold; font-family: Helvetica; }
text.black {fill: rgb(0, 0, 0); font-size: 3.060000px; font-weight: bold; font-family: Helvetica; }
text.gray {fill: rgb(204, 204, 204); font-size: 3.060000px; font-weight: bold; font-family: Helvetica; }
text.brown {fill: rgb(211.65, 104.55, 30.6); font-size: 3.060000px; font-weight: bold; font-family: Helvetica; }
text {fill: rgb(0, 0, 0); font-size: 3.060000px; font-weight: bold; font-family: Helvetica; text-anchor: middle; alignment-baseline: middle; }

.pseudoknot_connection{stroke-linecap: round; stroke-opacity: 0.2; stroke-width: 1.5; }
.pseudoknot_segment1{stroke-linecap: round; stroke-opacity: 0.4; stroke-width: 3.06; }
.pseudoknot_segment2{stroke-linecap: round; stroke-opacity: 0.4; stroke-width: 3.06; }
line.numbering-line{stroke: rgb(204, 204, 204); stroke-width: 0.19125; }
line.predicted{stroke: rgb(0, 0, 0); stroke-dasharray: 2; }
polyline{fill: none; stroke-linejoin: round; }
template{visibility: hidden; }
text.numbering-label{fill: rgb(204, 204, 204); }
]]>
</style></g>
<g><title>0 (position.label in template: 0.5')</title><text x="42.4385" y="244.442" class="green" >5'</text></g>
<g><title>1 (position.label in template: 1.G)</title><text x="50" y="244.442" class="black" >G</text></g>
<g><title>2 (position.label in template: 2.A)</title><text x="57.5615" y="244.442" class="black" >A</text></g>
<g><title>3 (position.label in template: 3.A)</title><text x="65.1231" y="244.442" class="black" >A</text></g>
<g><title>4 (position.label in template: 4.A)</title><text x="72.6846" y="244.442" class="black" >A</text></g>
<g><title>5 (position.label in template: 5.A)</title><text x="78.0364" y="239.1" class="green" >A</text></g>
<g><line x1="80.0764" y1="238.794" x2="88.0264" y2="238.794" class="black" /></g>
<g><title>6 (position.label in template: 6.A)</title><text x="78.0364" y="231.54" class="black" >A</text></g>
<g><line x1="80.0764" y1="231.234" x2="88.0264" y2="231.234" class="black" /></g>
<g><title>7 (position.label in template: 7.G)</title><text x="77.6164" y="223.98" class="black" >G</text></g>
<g><line x1="79.6564" y1="223.674" x2="88.0264" y2="223.674" class="black" /></g>
<g><title>8 (position.label in template: 8.C)</title><text x="72.2364" y="218.89" class="black" >C</text></g>
<g><title>9 (position.label in template: 9.A)</title><text x="70.3664" y="211.62" class="black" >A</text></g>
<g><title>10 (position.label in template: 10.G)</title><text x="72.0264" y="204.35" class="black" >G</text></g>
<g><text x="66.1331" y="200.79" class="numbering-label sequential" >10</text></g>
<g><line x1="70.4549" y1="203.401" x2="67.9691" y2="201.899" class="numbering-line sequential" /></g>
<g><title>11 (position.label in template: 11.C)</title><text x="77.8264" y="199.27" class="black" >C</text></g>
<g><line x1="79.8664" y1="198.964" x2="88.2364" y2="198.964" class="black" /></g>
<g><title>12 (position.label in template: 12.G)</title><text x="77.6164" y="191.71" class="black" >G</text></g>
<g><line x1="79.6564" y1="191.404" x2="88.0264" y2="191.404" class="black" /></g>
<g><title>13 (position.label in template: 13.A)</title><text x="74.9364" y="184.81" class="black" >A</text></g>
<g><title>14 (position.label in template: 14.U)</title><text x="77.8264" y="177.92" class="green" >T</text></g>
<g><line x1="79.8664" y1="177.614" x2="87.8164" y2="177.614" class="black" /></g>
<g><title>15 (position.label in template: 15.C)</title><text x="77.8264" y="170.36" class="black" >C</text></g>
<g><line x1="79.8664" y1="170.054" x2="87.8164" y2="170.054" class="black" /></g>
<g><title>16 (position.label in template: 16.U)</title><text x="77.8264" y="162.8" class="green" >T</text></g>
<g><line x1="79.8664" y1="162.494" x2="88.0264" y2="162.494" class="black" /></g>
<g><title>17 (position.label in template: 17.G)</title><text x="77.6164" y="155.24" class="black" >G</text></g>
<g><line x1="79.6564" y1="154.934" x2="88.0264" y2="154.934" class="black" /></g>
<g><title>18 (position.label in template: 18.U)</title><text x="71.3064" y="151.42" class="green" >T</text></g>
<g><title>19 (position.label in template: 19.U)</title><text x="66.7964" y="145.35" class="green" >T</text></g>
<g><title>20 (position.label in template: 20.U)</title><text x="65.0164" y="138" class="green" >T</text></g>
<g><text x="58.136" y="138.251" class="numbering-label sequential" >20</text></g>
<g><line x1="63.1816" y1="138.067" x2="59.972" y2="138.184" class="numbering-line sequential" /></g>
<g><title>21 (position.label in template: 21.C)</title><text x="66.2564" y="130.54" class="black" >C</text></g>
<g><title>22 (position.label in template: 22.U)</title><text x="70.3064" y="124.16" class="green" >T</text></g>
<g><title>23 (position.label in template: 23.C)</title><text x="76.5364" y="119.88" class="black" >C</text></g>
<g><title>24 (position.label in template: 24.U)</title><text x="83.9464" y="118.37" class="green" >T</text></g>
<g><title>25 (position.label in template: 25.U)</title><text x="91.3564" y="119.88" class="green" >T</text></g>
<g><title>26 (position.label in template: 26.A)</title><text x="97.7864" y="124.16" class="black" >A</text></g>
<g><title>27 (position.label in template: 27.A)</title><text x="101.846" y="130.54" class="black" >A</text></g>
<g><title>28 (position.label in template: 28.G)</title><text x="102.666" y="138" class="black" >G</text></g>
<g><title>29 (position.label in template: 29.A)</title><text x="101.306" y="145.35" class="black" >A</text></g>
<g><title>30 (position.label in template: 30.C)</title><text x="96.5864" y="151.42" class="black" >C</text></g>
<g><text x="101.135" y="156.589" class="numbering-label sequential" >30</text></g>
<g><line x1="97.7992" y1="152.798" x2="99.7883" y2="155.059" class="numbering-line sequential" /></g>
<g><title>31 (position.label in template: 31.C)</title><text x="90.0664" y="155.24" class="black" >C</text></g>
<g><title>32 (position.label in template: 32.C)</title><text x="90.0664" y="162.8" class="green" >C</text></g>
<g><title>33 (position.label in template: 33.G)</title><text x="89.8564" y="170.36" class="black" >G</text></g>
<g><title>34 (position.label in template: 34.G)</title><text x="89.8564" y="177.92" class="green" >G</text></g>
<g><title>35 (position.label in template: 35.C)</title><text x="93.1664" y="184.81" class="black" >C</text></g>
<g><title>36 (position.label in template: 36.C)</title><text x="90.0664" y="191.71" class="black" >C</text></g>
<g><title>37 (position.label in template: 37.A)</title><text x="90.2764" y="199.27" class="black" >A</text></g>
<g><title>38 (position.label in template: 38.C)</title><text x="97.0264" y="196.32" class="black" >C</text></g>
<g><title>39 (position.label in template: 39.U)</title><text x="104.556" y="197.01" class="green" >T</text></g>
<g><title>40 (position.label in template: 40.C)</title><text x="110.856" y="201.18" class="black" >C</text></g>
<g><title>41 (position.label in template: 41.G)</title><text x="114.226" y="207.84" class="black" >G</text></g>
<g><title>42 (position.label in template: 42.U)</title><text x="114.436" y="215.4" class="green" >T</text></g>
<g><title>43 (position.label in template: 43.A)</title><text x="111.066" y="222.06" class="black" >A</text></g>
<g><title>44 (position.label in template: 44.A)</title><text x="104.766" y="226.24" class="black" >A</text></g>
<g><title>45 (position.label in template: 45.G)</title><text x="96.8164" y="226.93" class="black" >G</text></g>
<g><title>46 (position.label in template: 46.C)</title><text x="90.0664" y="223.98" class="black" >C</text></g>
<g><title>47 (position.label in template: 47.C)</title><text x="90.0664" y="231.54" class="black" >C</text></g>
<g><title>48 (position.label in template: 48.U)</title><text x="90.0664" y="239.1" class="green" >T</text></g>
<g><title>49 (position.label in template: 49.A)</title><text x="95.6164" y="244.44" class="black" >A</text></g>
<g><title>50 (position.label in template: 50.A)</title><text x="103.176" y="244.44" class="black" >A</text></g>
<g><text x="103.176" y="251.325" class="numbering-label sequential" >50</text></g>
<g><line x1="103.176" y1="246.276" x2="103.176" y2="249.795" class="numbering-line sequential" /></g>
<g><title>51 (position.label in template: 51.G)</title><text x="110.326" y="244.44" class="black" >G</text></g>
<g><title>52 (position.label in template: 52.G)</title><text x="117.886" y="244.44" class="black" >G</text></g>
<g><title>53 (position.label in template: 53.G)</title><text x="125.446" y="244.44" class="black" >G</text></g>
<g><title>54 (position.label in template: 54.A)</title><text x="133.416" y="244.44" class="black" >A</text></g>
<g><title>55 (position.label in template: 55.A)</title><text x="140.976" y="244.44" class="black" >A</text></g>
<g><title>56 (position.label in template: 56.A)</title><text x="148.536" y="244.44" class="black" >A</text></g>
<g><title>57 (position.label in template: 57.U)</title><text x="155.896" y="244.44" class="green" >T</text></g>
<g><title>58 (position.label in template: 58.U)</title><text x="163.456" y="244.44" class="green" >T</text></g>
<g><title>59 (position.label in template: 59.C)</title><text x="171.016" y="244.44" class="black" >C</text></g>
<g><title>60 (position.label in template: 60.A)</title><text x="178.776" y="244.44" class="black" >A</text></g>
<g><title>61 (position.label in template: 61.G)</title><text x="185.926" y="244.44" class="black" >G</text></g>
<g><title>62 (position.label in template: 62.U)</title><text x="191.476" y="239.1" class="green" >T</text></g>
<g><line x1="193.516" y1="238.794" x2="201.886" y2="238.794" class="black" /></g>
<g><title>63 (position.label in template: 63.G)</title><text x="191.266" y="231.54" class="black" >G</text></g>
<g><line x1="193.306" y1="231.234" x2="201.676" y2="231.234" class="black" /></g>
<g><title>64 (position.label in template: 64.C)</title><text x="191.476" y="223.98" class="black" >C</text></g>
<g><line x1="193.516" y1="223.674" x2="201.466" y2="223.674" class="black" /></g>
<g><title>65 (position.label in template: 65.A)</title><text x="191.686" y="216.42" class="green" >A</text></g>
<g><line x1="193.726" y1="216.114" x2="201.676" y2="216.114" class="black" /></g>
<g><title>66 (position.label in template: 66.U)</title><text x="191.476" y="208.86" class="green" >T</text></g>
<g><line x1="193.516" y1="208.554" x2="201.466" y2="208.554" class="black" /></g>
<g><title>67 (position.label in template: 67.U)</title><text x="191.476" y="201.3" class="green" >T</text></g>
<g><line x1="193.516" y1="200.994" x2="201.886" y2="200.994" class="black" /></g>
<g><title>68 (position.label in template: 68.A)</title><text x="191.686" y="193.74" class="green" >A</text></g>
<g><line x1="193.726" y1="193.434" x2="201.676" y2="193.434" class="black" /></g>
<g><title>69 (position.label in template: 69.U)</title><text x="191.476" y="186.18" class="green" >T</text></g>
<g><line x1="193.516" y1="185.874" x2="201.886" y2="185.874" class="black" /></g>
<g><title>70 (position.label in template: 70.U)</title><text x="191.476" y="178.62" class="green" >T</text></g>
<g><line x1="193.516" y1="178.314" x2="201.886" y2="178.314" class="black" /></g>
<g><title>71 (position.label in template: 71.A)</title><text x="184.186" y="179.61" class="black" >A</text></g>
<g><title>72 (position.label in template: 72.U)</title><text x="177.126" y="176.42" class="green" >T</text></g>
<g><title>73 (position.label in template: 73.U)</title><text x="173.066" y="170.04" class="green" >T</text></g>
<g><title>74 (position.label in template: 74.G)</title><text x="172.856" y="162.48" class="black" >G</text></g>
<g><title>75 (position.label in template: 75.G)</title><text x="176.916" y="156.11" class="black" >G</text></g>
<g><title>76 (position.label in template: 76.G)</title><text x="183.776" y="152.92" class="black" >G</text></g>
<g><title>77 (position.label in template: 77.U)</title><text x="191.476" y="153.91" class="green" >T</text></g>
<g><line x1="193.516" y1="153.604" x2="201.886" y2="153.604" class="black" /></g>
<g><title>78 (position.label in template: 78.G)</title><text x="191.266" y="146.35" class="black" >G</text></g>
<g><line x1="193.306" y1="146.044" x2="201.676" y2="146.044" class="black" /></g>
<g><title>79 (position.label in template: 79.A)</title><text x="191.686" y="138.79" class="green" >A</text></g>
<g><line x1="193.726" y1="138.484" x2="201.676" y2="138.484" class="black" /></g>
<g><title>80 (position.label in template: 80.A)</title><text x="191.686" y="131.23" class="green" >A</text></g>
<g><line x1="193.726" y1="130.924" x2="201.676" y2="130.924" class="black" /></g>
<g><title>81 (position.label in template: 81.C)</title><text x="191.476" y="123.67" class="black" >C</text></g>
<g><line x1="193.516" y1="123.364" x2="201.466" y2="123.364" class="black" /></g>
<g><title>82 (position.label in template: 82.C)</title><text x="191.476" y="116.11" class="black" >C</text></g>
<g><line x1="193.516" y1="115.804" x2="201.466" y2="115.804" class="black" /></g>
<g><title>83 (position.label in template: 83.U)</title><text x="191.476" y="108.55" class="green" >T</text></g>
<g><line x1="193.516" y1="108.244" x2="201.886" y2="108.244" class="black" /></g>
<g><title>84 (position.label in template: 84.C)</title><text x="184.336" y="106.06" class="black" >C</text></g>
<g><title>85 (position.label in template: 85.U)</title><text x="178.056" y="101.86" class="green" >T</text></g>
<g><title>86 (position.label in template: 86.G)</title><text x="172.836" y="96.2" class="black" >G</text></g>
<g><title>87 (position.label in template: 87.U)</title><text x="169.616" y="89.46" class="green" >T</text></g>
<g><title>88 (position.label in template: 88.A)</title><text x="168.206" y="82.07" class="black" >A</text></g>
<g><title>89 (position.label in template: 89.U)</title><text x="168.306" y="74.52" class="green" >T</text></g>
<g><title>90 (position.label in template: 90.U)</title><text x="170.506" y="67.29" class="green" >T</text></g>
<g><title>91 (position.label in template: 91.U)</title><text x="174.456" y="60.84" class="green" >T</text></g>
<g><title>92 (position.label in template: 92.G)</title><text x="179.696" y="55.61" class="black" >G</text></g>
<g><title>93 (position.label in template: 93.U)</title><text x="186.506" y="51.91" class="green" >T</text></g>
<g><title>94 (position.label in template: 94.G)</title><text x="193.606" y="50" class="black" >G</text></g>
<g><title>95 (position.label in template: 95.C)</title><text x="201.376" y="50" class="black" >C</text></g>
<g><title>96 (position.label in template: 96.U)</title><text x="208.696" y="51.91" class="green" >T</text></g>
<g><title>97 (position.label in template: 97.G)</title><text x="215.076" y="55.61" class="black" >G</text></g>
<g><title>98 (position.label in template: 98.A)</title><text x="220.946" y="60.84" class="black" >A</text></g>
<g><title>99 (position.label in template: 99.U)</title><text x="224.696" y="67.29" class="green" >T</text></g>
<g><title>100 (position.label in template: 100.U)</title><text x="226.896" y="74.52" class="green" >T</text></g>
<g><text x="233.685" y="73.3717" class="numbering-label sequential" >100</text></g>
<g><line x1="228.707" y1="74.2138" x2="230.931" y2="73.8376" class="numbering-line sequential" /></g>
<g><title>101 (position.label in template: 101.C)</title><text x="227.196" y="82.07" class="black" >C</text></g>
<g><title>102 (position.label in template: 102.C)</title><text x="225.586" y="89.46" class="black" >C</text></g>
<g><title>103 (position.label in template: 103.A)</title><text x="222.356" y="96.2" class="black" >A</text></g>
<g><title>104 (position.label in template: 104.A)</title><text x="217.346" y="101.86" class="black" >A</text></g>
<g><title>105 (position.label in template: 105.A)</title><text x="211.066" y="106.06" class="black" >A</text></g>
<g><title>106 (position.label in template: 106.A)</title><text x="203.926" y="108.55" class="green" >A</text></g>
<g><title>107 (position.label in template: 107.G)</title><text x="203.506" y="116.11" class="black" >G</text></g>
<g><title>108 (position.label in template: 108.G)</title><text x="203.506" y="123.67" class="black" >G</text></g>
<g><title>109 (position.label in template: 109.U)</title><text x="203.716" y="131.23" class="green" >T</text></g>
<g><title>110 (position.label in template: 110.U)</title><text x="203.716" y="138.79" class="green" >T</text></g>
<g><title>111 (position.label in template: 111.C)</title><text x="203.716" y="146.35" class="black" >C</text></g>
<g><title>112 (position.label in template: 112.A)</title><text x="203.926" y="153.91" class="green" >A</text></g>
<g><title>113 (position.label in template: 113.G)</title><text x="209.106" y="158.99" class="black" >G</text></g>
<g><title>114 (position.label in template: 114.U)</title><text x="211.386" y="166.26" class="green" >T</text></g>
<g><title>115 (position.label in template: 115.A)</title><text x="209.516" y="173.53" class="black" >A</text></g>
<g><title>116 (position.label in template: 116.A)</title><text x="203.926" y="178.62" class="green" >A</text></g>
<g><title>117 (position.label in template: 117.A)</title><text x="203.926" y="186.18" class="green" >A</text></g>
<g><title>118 (position.label in template: 118.U)</title><text x="203.716" y="193.74" class="green" >T</text></g>
<g><title>119 (position.label in template: 119.A)</title><text x="203.926" y="201.3" class="green" >A</text></g>
<g><title>120 (position.label in template: 120.G)</title><text x="203.506" y="208.86" class="green" >G</text></g>
<g><title>121 (position.label in template: 121.U)</title><text x="203.716" y="216.42" class="green" >T</text></g>
<g><title>122 (position.label in template: 122.G)</title><text x="203.506" y="223.98" class="black" >G</text></g>
<g><title>123 (position.label in template: 123.C)</title><text x="203.716" y="231.54" class="black" >C</text></g>
<g><title>124 (position.label in template: 124.A)</title><text x="203.926" y="239.1" class="green" >A</text></g>
<g><title>125 (position.label in template: 125.A)</title><text x="209.273" y="244.447" class="black" >A</text></g>
<g><title>126 (position.label in template: 126.C)</title><text x="216.835" y="244.447" class="black" >C</text></g>
<g><title>127 (position.label in template: 127.A)</title><text x="224.396" y="244.447" class="black" >A</text></g>
<g><title>128 (position.label in template: 128.C)</title><text x="231.958" y="244.447" class="black" >C</text></g>
<g><title>129 (position.label in template: 129.U)</title><text x="239.519" y="244.447" class="green" >T</text></g>
<g><title>130 (position.label in template: 130.U)</title><text x="247.081" y="244.447" class="green" >T</text></g>
<g><title>131 (position.label in template: 131.3')</title><text x="254.642" y="244.447" class="green" >3'</text></g>
<g><line x1="44.4785" y1="244.136" x2="47.96" y2="244.136" class="gray" /></g>
<g><line x1="52.04" y1="244.136" x2="55.5215" y2="244.136" class="gray" /></g>
<g><line x1="59.6015" y1="244.136" x2="63.0831" y2="244.136" class="gray" /></g>
<g><line x1="67.1631" y1="244.136" x2="70.6446" y2="244.136" class="gray" /></g>
<g><line x1="74.1284" y1="242.695" x2="76.5926" y2="240.235" class="gray" /></g>
<g><line x1="78.0364" y1="236.754" x2="78.0364" y2="233.274" class="gray" /></g>
<g><line x1="77.9232" y1="229.197" x2="77.7296" y2="225.711" class="gray" /></g>
<g><line x1="76.1345" y1="222.272" x2="73.7183" y2="219.986" class="gray" /></g>
<g><line x1="71.7282" y1="216.608" x2="70.8746" y2="213.29" class="gray" /></g>
<g><line x1="70.8205" y1="209.325" x2="71.5723" y2="206.033" class="gray" /></g>
<g><line x1="73.561" y1="202.7" x2="76.2918" y2="200.308" class="gray" /></g>
<g><line x1="77.7698" y1="196.925" x2="77.673" y2="193.443" class="gray" /></g>
<g><line x1="76.8778" y1="189.502" x2="75.675" y2="186.406" class="gray" /></g>
<g><line x1="75.7255" y1="182.623" x2="77.0373" y2="179.495" class="gray" /></g>
<g><line x1="77.8264" y1="175.574" x2="77.8264" y2="172.094" class="gray" /></g>
<g><line x1="77.8264" y1="168.014" x2="77.8264" y2="164.534" class="gray" /></g>
<g><line x1="77.7698" y1="160.455" x2="77.673" y2="156.973" class="gray" /></g>
<g><line x1="75.8713" y1="153.878" x2="73.0515" y2="152.17" class="gray" /></g>
<g><line x1="70.0898" y1="149.477" x2="68.0131" y2="146.681" class="gray" /></g>
<g><line x1="66.3162" y1="143.061" x2="65.4966" y2="139.677" class="gray" /></g>
<g><line x1="65.3509" y1="135.682" x2="65.9219" y2="132.246" class="gray" /></g>
<g><line x1="67.3497" y1="128.512" x2="69.2131" y2="125.576" class="gray" /></g>
<g><line x1="71.9878" y1="122.699" x2="74.855" y2="120.729" class="gray" /></g>
<g><line x1="78.5353" y1="119.167" x2="81.9475" y2="118.471" class="gray" /></g>
<g><line x1="85.9453" y1="118.471" x2="89.3575" y2="119.167" class="gray" /></g>
<g><line x1="93.0546" y1="120.704" x2="96.0882" y2="122.724" class="gray" /></g>
<g><line x1="98.8816" y1="125.575" x2="100.751" y2="128.513" class="gray" /></g>
<g><line x1="102.069" y1="132.262" x2="102.444" y2="135.666" class="gray" /></g>
<g><line x1="102.295" y1="139.7" x2="101.678" y2="143.038" class="gray" /></g>
<g><line x1="100.054" y1="146.654" x2="97.8387" y2="149.504" class="gray" /></g>
<g><line x1="94.8263" y1="152.145" x2="91.8265" y2="153.903" class="gray" /></g>
<g><line x1="90.0664" y1="156.974" x2="90.0664" y2="160.454" class="gray" /></g>
<g><line x1="90.0098" y1="164.533" x2="89.913" y2="168.015" class="gray" /></g>
<g><line x1="89.8564" y1="172.094" x2="89.8564" y2="175.574" class="gray" /></g>
<g><line x1="90.7398" y1="179.453" x2="92.283" y2="182.665" class="gray" /></g>
<g><line x1="92.3304" y1="186.365" x2="90.9024" y2="189.543" class="gray" /></g>
<g><line x1="90.123" y1="193.443" x2="90.2198" y2="196.925" class="gray" /></g>
<g><line x1="92.1457" y1="198.147" x2="95.1571" y2="196.831" class="gray" /></g>
<g><line x1="99.0579" y1="196.2" x2="102.525" y2="196.518" class="gray" /></g>
<g><line x1="106.258" y1="197.83" x2="109.155" y2="199.748" class="gray" /></g>
<g><line x1="111.777" y1="202.694" x2="113.305" y2="205.714" class="gray" /></g>
<g><line x1="114.283" y1="209.573" x2="114.38" y2="213.055" class="gray" /></g>
<g><line x1="113.515" y1="216.914" x2="111.987" y2="219.934" class="gray" /></g>
<g><line x1="109.367" y1="222.882" x2="106.466" y2="224.806" class="gray" /></g>
<g><line x1="102.734" y1="226.11" x2="98.8488" y2="226.448" class="gray" /></g>
<g><line x1="94.9471" y1="225.807" x2="91.9357" y2="224.491" class="gray" /></g>
<g><line x1="90.0664" y1="225.714" x2="90.0664" y2="229.194" class="gray" /></g>
<g><line x1="90.0664" y1="233.274" x2="90.0664" y2="236.754" class="gray" /></g>
<g><line x1="91.5364" y1="240.208" x2="94.1464" y2="242.72" class="gray" /></g>
<g><line x1="97.6564" y1="244.134" x2="101.136" y2="244.134" class="gray" /></g>
<g><line x1="105.216" y1="244.134" x2="108.286" y2="244.134" class="gray" /></g>
<g><line x1="112.366" y1="244.134" x2="115.846" y2="244.134" class="gray" /></g>
<g><line x1="119.926" y1="244.134" x2="123.406" y2="244.134" class="gray" /></g>
<g><line x1="127.486" y1="244.134" x2="131.376" y2="244.134" class="gray" /></g>
<g><line x1="135.456" y1="244.134" x2="138.936" y2="244.134" class="gray" /></g>
<g><line x1="143.016" y1="244.134" x2="146.496" y2="244.134" class="gray" /></g>
<g><line x1="150.576" y1="244.134" x2="153.856" y2="244.134" class="gray" /></g>
<g><line x1="157.936" y1="244.134" x2="161.416" y2="244.134" class="gray" /></g>
<g><line x1="165.496" y1="244.134" x2="168.976" y2="244.134" class="gray" /></g>
<g><line x1="173.056" y1="244.134" x2="176.736" y2="244.134" class="gray" /></g>
<g><line x1="180.816" y1="244.134" x2="183.886" y2="244.134" class="gray" /></g>
<g><line x1="187.396" y1="242.72" x2="190.006" y2="240.208" class="gray" /></g>
<g><line x1="191.42" y1="236.755" x2="191.323" y2="233.273" class="gray" /></g>
<g><line x1="191.323" y1="229.195" x2="191.42" y2="225.713" class="gray" /></g>
<g><line x1="191.533" y1="221.635" x2="191.63" y2="218.153" class="gray" /></g>
<g><line x1="191.63" y1="214.075" x2="191.533" y2="210.593" class="gray" /></g>
<g><line x1="191.476" y1="206.514" x2="191.476" y2="203.034" class="gray" /></g>
<g><line x1="191.533" y1="198.955" x2="191.63" y2="195.473" class="gray" /></g>
<g><line x1="191.63" y1="191.395" x2="191.533" y2="187.913" class="gray" /></g>
<g><line x1="191.476" y1="183.834" x2="191.476" y2="180.354" class="gray" /></g>
<g><line x1="189.455" y1="178.589" x2="186.208" y2="179.029" class="gray" /></g>
<g><line x1="182.327" y1="178.464" x2="178.985" y2="176.954" class="gray" /></g>
<g><line x1="176.031" y1="174.393" x2="174.162" y2="171.455" class="gray" /></g>
<g><line x1="173.01" y1="167.695" x2="172.913" y2="164.213" class="gray" /></g>
<g><line x1="173.953" y1="160.454" x2="175.82" y2="157.524" class="gray" /></g>
<g><line x1="178.766" y1="154.944" x2="181.927" y2="153.474" class="gray" /></g>
<g><line x1="185.8" y1="152.874" x2="189.453" y2="153.344" class="gray" /></g>
<g><line x1="191.42" y1="151.565" x2="191.323" y2="148.083" class="gray" /></g>
<g><line x1="191.38" y1="144.007" x2="191.573" y2="140.521" class="gray" /></g>
<g><line x1="191.686" y1="136.444" x2="191.686" y2="132.964" class="gray" /></g>
<g><line x1="191.63" y1="128.885" x2="191.533" y2="125.403" class="gray" /></g>
<g><line x1="191.476" y1="121.324" x2="191.476" y2="117.844" class="gray" /></g>
<g><line x1="191.476" y1="113.764" x2="191.476" y2="110.284" class="gray" /></g>
<g><line x1="189.55" y1="107.572" x2="186.263" y2="106.426" class="gray" /></g>
<g><line x1="182.641" y1="104.62" x2="179.752" y2="102.688" class="gray" /></g>
<g><line x1="176.673" y1="100.054" x2="174.219" y2="97.3936" class="gray" /></g>
<g><line x1="171.957" y1="94.0533" x2="170.496" y2="90.9947" class="gray" /></g>
<g><line x1="169.234" y1="87.1501" x2="168.589" y2="83.7679" class="gray" /></g>
<g><line x1="168.233" y1="79.7242" x2="168.279" y2="76.2538" class="gray" /></g>
<g><line x1="168.9" y1="72.2624" x2="169.913" y2="68.9356" class="gray" /></g>
<g><line x1="171.572" y1="65.2443" x2="173.391" y2="62.2737" class="gray" /></g>
<g><line x1="175.9" y1="59.0929" x2="178.253" y2="56.7451" class="gray" /></g>
<g><line x1="181.489" y1="54.3301" x2="184.714" y2="52.5779" class="gray" /></g>
<g><line x1="188.476" y1="51.0741" x2="191.636" y2="50.2239" class="gray" /></g>
<g><line x1="195.646" y1="49.694" x2="199.336" y2="49.694" class="gray" /></g>
<g><line x1="203.35" y1="50.2091" x2="206.722" y2="51.0889" class="gray" /></g>
<g><line x1="210.461" y1="52.6274" x2="213.312" y2="54.2806" class="gray" /></g>
<g><line x1="216.6" y1="56.6611" x2="219.423" y2="59.1769" class="gray" /></g>
<g><line x1="221.972" y1="62.2976" x2="223.671" y2="65.2204" class="gray" /></g>
<g><line x1="225.29" y1="68.9356" x2="226.303" y2="72.2624" class="gray" /></g>
<g><line x1="226.977" y1="76.2524" x2="227.115" y2="79.7256" class="gray" /></g>
<g><line x1="226.762" y1="83.7572" x2="226.021" y2="87.1608" class="gray" /></g>
<g><line x1="224.705" y1="90.9937" x2="223.238" y2="94.0543" class="gray" /></g>
<g><line x1="221.004" y1="97.4215" x2="218.699" y2="100.026" class="gray" /></g>
<g><line x1="215.651" y1="102.688" x2="212.762" y2="104.62" class="gray" /></g>
<g><line x1="209.14" y1="106.426" x2="205.853" y2="107.572" class="gray" /></g>
<g><line x1="203.813" y1="110.281" x2="203.62" y2="113.767" class="gray" /></g>
<g><line x1="203.506" y1="117.844" x2="203.506" y2="121.324" class="gray" /></g>
<g><line x1="203.563" y1="125.403" x2="203.66" y2="128.885" class="gray" /></g>
<g><line x1="203.716" y1="132.964" x2="203.716" y2="136.444" class="gray" /></g>
<g><line x1="203.716" y1="140.524" x2="203.716" y2="144.004" class="gray" /></g>
<g><line x1="203.773" y1="148.083" x2="203.87" y2="151.565" class="gray" /></g>
<g><line x1="205.383" y1="155.032" x2="207.65" y2="157.256" class="gray" /></g>
<g><line x1="209.717" y1="160.631" x2="210.776" y2="164.007" class="gray" /></g>
<g><line x1="210.878" y1="167.93" x2="210.025" y2="171.248" class="gray" /></g>
<g><line x1="208.008" y1="174.597" x2="205.435" y2="176.941" class="gray" /></g>
<g><line x1="203.926" y1="180.354" x2="203.926" y2="183.834" class="gray" /></g>
<g><line x1="203.87" y1="187.913" x2="203.773" y2="191.395" class="gray" /></g>
<g><line x1="203.773" y1="195.473" x2="203.87" y2="198.955" class="gray" /></g>
<g><line x1="203.813" y1="203.031" x2="203.62" y2="206.517" class="gray" /></g>
<g><line x1="203.563" y1="210.593" x2="203.66" y2="214.075" class="gray" /></g>
<g><line x1="203.66" y1="218.153" x2="203.563" y2="221.635" class="gray" /></g>
<g><line x1="203.563" y1="225.713" x2="203.66" y2="229.195" class="gray" /></g>
<g><line x1="203.773" y1="233.273" x2="203.87" y2="236.755" class="gray" /></g>
<g><line x1="205.369" y1="240.236" x2="207.831" y2="242.698" class="gray" /></g>
<g><line x1="211.313" y1="244.141" x2="214.795" y2="244.141" class="gray" /></g>
<g><line x1="218.875" y1="244.141" x2="222.356" y2="244.141" class="gray" /></g>
<g><line x1="226.436" y1="244.141" x2="229.918" y2="244.141" class="gray" /></g>
<g><line x1="233.998" y1="244.141" x2="237.479" y2="244.141" class="gray" /></g>
<g><line x1="241.559" y1="244.141" x2="245.041" y2="244.141" class="gray" /></g>
<g><line x1="249.121" y1="244.141" x2="252.602" y2="244.141" class="gray" /></g>
</svg>
