<svg
	xmlns="http://www.w3.org/2000/svg"
	width="225.95"
	height="241.941">
<g><style type="text/css" >
<!-- create color definitions -->
<![CDATA[
circle.red {stroke: rgb(255, 0, 255); fill: none; }
circle.green {stroke: rgb(0, 255, 0); fill: none; }
circle.blue {stroke: rgb(0, 0, 255); fill: none; }
circle.black {stroke: rgb(0, 0, 0); fill: none; }
circle.gray {stroke: rgb(204, 204, 204); fill: none; }
circle.brown {stroke: rgb(211.65, 104.55, 30.6); fill: none; }
line.red {stroke: rgb(255, 0, 255); stroke-width: 0.382772; }
line.green {stroke: rgb(0, 255, 0); stroke-width: 0.382772; }
line.blue {stroke: rgb(0, 0, 255); stroke-width: 0.382772; }
line.black {stroke: rgb(0, 0, 0); stroke-width: 0.382772; }
line.gray {stroke: rgb(204, 204, 204); stroke-width: 0.382772; }
line.brown {stroke: rgb(211.65, 104.55, 30.6); stroke-width: 0.382772; }
line {stroke: rgb(0, 0, 0); }
text.red {fill: rgb(255, 0, 255); font-size: 3.062179px; font-weight: bold; font-family: Helvetica; }
text.green {fill: rgb(0, 255, 0); font-size: 3.062179px; font-weight: bold; font-family: Helvetica; }
text.blue {fill: rgb(0, 0, 255); font-size: 3.062179px; font-weight: bold; font-family: Helvetica; }
text.black {fill: rgb(0, 0, 0); font-size: 3.062179px; font-weight: bold; font-family: Helvetica; }
text.gray {fill: rgb(204, 204, 204); font-size: 3.062179px; font-weight: bold; font-family: Helvetica; }
text.brown {fill: rgb(211.65, 104.55, 30.6); font-size: 3.062179px; font-weight: bold; font-family: Helvetica; }
text {fill: rgb(0, 0, 0); font-size: 3.062179px; font-weight: bold; font-family: Helvetica; text-anchor: middle; alignment-baseline: middle; }

.pseudoknot_connection{stroke-linecap: round; stroke-opacity: 0.2; stroke-width: 1.5; }
.pseudoknot_segment1{stroke-linecap: round; stroke-opacity: 0.4; stroke-width: 3.06218; }
.pseudoknot_segment2{stroke-linecap: round; stroke-opacity: 0.4; stroke-width: 3.06218; }
line.numbering-line{stroke: rgb(204, 204, 204); stroke-width: 0.191386; }
line.predicted{stroke: rgb(0, 0, 0); stroke-dasharray: 2; }
polyline{fill: none; stroke-linejoin: round; }
template{visibility: hidden; }
text.numbering-label{fill: rgb(204, 204, 204); }
]]>
</style></g>
<g><title>0 (position.label in template: 0.5')</title><text x="109.35" y="194.148" class="green" >5'</text></g>
<g><title>1 (position.label in template: 1.G)</title><text x="109.56" y="186.59" class="black" >G</text></g>
<g><line x1="111.601" y1="186.284" x2="119.969" y2="186.284" class="black" /></g>
<g><title>2 (position.label in template: 2.C)</title><text x="109.77" y="179.03" class="black" >C</text></g>
<g><line x1="111.811" y1="178.724" x2="119.759" y2="178.724" class="black" /></g>
<g><title>3 (position.label in template: 3.G)</title><text x="109.56" y="171.47" class="black" >G</text></g>
<g><line x1="111.601" y1="171.164" x2="119.969" y2="171.164" class="black" /></g>
<g><title>4 (position.label in template: 4.G)</title><text x="109.56" y="163.91" class="black" >G</text></g>
<g><line x1="111.601" y1="163.604" x2="119.969" y2="163.604" class="black" /></g>
<g><title>5 (position.label in template: 5.A)</title><text x="109.97" y="156.35" class="green" >A</text></g>
<g><line x1="112.011" y1="156.044" x2="119.969" y2="156.044" class="black" /></g>
<g><title>6 (position.label in template: 6.U)</title><text x="109.77" y="148.79" class="green" >T</text></g>
<g><line x1="111.811" y1="148.484" x2="120.169" y2="148.484" class="black" /></g>
<g><title>7 (position.label in template: 7.G)</title><text x="109.56" y="141.23" class="black" >G</text></g>
<g><line x1="111.601" y1="140.924" x2="119.969" y2="140.924" class="black" /></g>
<g><title>8 (position.label in template: 8.U)</title><text x="102.95" y="137.97" class="green" >T</text></g>
<g><title>9 (position.label in template: 9.G)</title><text x="97.39" y="132.62" class="black" >G</text></g>
<g><title>10 (position.label in template: 10.G)</title><text x="94.13" y="125.8" class="black" >G</text></g>
<g><line x1="94.165" y1="123.453" x2="94.305" y2="115.295" class="black" /></g>
<g><text x="90.4045" y="131.596" class="numbering-label sequential" >10</text></g>
<g><line x1="93.1365" y1="127.346" x2="91.3887" y2="130.065" class="numbering-line sequential" /></g>
<g><title>11 (position.label in template: 11.C)</title><text x="86.78" y="125.8" class="black" >C</text></g>
<g><line x1="86.745" y1="123.453" x2="86.605" y2="115.295" class="black" /></g>
<g><title>12 (position.label in template: 12.G)</title><text x="79.01" y="125.8" class="black" >G</text></g>
<g><line x1="79.045" y1="123.453" x2="79.185" y2="115.295" class="black" /></g>
<g><title>13 (position.label in template: 13.A)</title><text x="74.8" y="131.79" class="black" >A</text></g>
<g><title>14 (position.label in template: 14.A)</title><text x="67.89" y="134.85" class="black" >A</text></g>
<g><title>15 (position.label in template: 15.G)</title><text x="59.94" y="134.24" class="black" >G</text></g>
<g><title>16 (position.label in template: 16.U)</title><text x="53.81" y="130.11" class="green" >T</text></g>
<g><title>17 (position.label in template: 17.G)</title><text x="50" y="123.46" class="black" >G</text></g>
<g><title>18 (position.label in template: 18.G)</title><text x="50" y="115.9" class="black" >G</text></g>
<g><title>19 (position.label in template: 19.U)</title><text x="53.81" y="109.26" class="green" >T</text></g>
<g><title>20 (position.label in template: 20.U)</title><text x="60.15" y="105.13" class="green" >T</text></g>
<g><text x="57.9518" y="98.6002" class="numbering-label sequential" >20</text></g>
<g><line x1="59.5638" y1="103.389" x2="58.4672" y2="100.131" class="numbering-line sequential" /></g>
<g><title>21 (position.label in template: 21.A)</title><text x="67.89" y="104.52" class="black" >A</text></g>
<g><title>22 (position.label in template: 22.A)</title><text x="74.8" y="107.58" class="black" >A</text></g>
<g><title>23 (position.label in template: 23.C)</title><text x="79.22" y="113.56" class="black" >C</text></g>
<g><title>24 (position.label in template: 24.G)</title><text x="86.57" y="113.56" class="black" >G</text></g>
<g><title>25 (position.label in template: 25.C)</title><text x="94.34" y="113.56" class="black" >C</text></g>
<g><title>26 (position.label in template: 26.A)</title><text x="97.81" y="106.75" class="black" >A</text></g>
<g><title>27 (position.label in template: 27.U)</title><text x="102.95" y="101.4" class="green" >T</text></g>
<g><line x1="104.879" y1="100.426" x2="112.771" y2="97.692" class="black" /></g>
<g><title>28 (position.label in template: 28.C)</title><text x="100.43" y="94.27" class="black" >C</text></g>
<g><line x1="102.351" y1="93.2742" x2="109.849" y2="90.5834" class="black" /></g>
<g><title>29 (position.label in template: 29.G)</title><text x="97.71" y="87.14" class="black" >G</text></g>
<g><line x1="99.639" y1="86.1656" x2="107.531" y2="83.432" class="black" /></g>
<g><title>30 (position.label in template: 30.G)</title><text x="95.19" y="80.01" class="black" >G</text></g>
<g><line x1="97.1192" y1="79.0361" x2="105.021" y2="76.3015" class="black" /></g>
<g><text x="88.6342" y="82.1294" class="numbering-label sequential" >30</text></g>
<g><line x1="93.4418" y1="80.5752" x2="90.4715" y2="81.5354" class="numbering-line sequential" /></g>
<g><title>31 (position.label in template: 31.A)</title><text x="93.1" y="72.88" class="green" >A</text></g>
<g><line x1="95.0213" y1="71.8836" x2="102.509" y2="69.1939" class="black" /></g>
<g><title>32 (position.label in template: 32.U)</title><text x="86.36" y="69.07" class="green" >T</text></g>
<g><title>33 (position.label in template: 33.U)</title><text x="83.47" y="62.08" class="green" >T</text></g>
<g><title>34 (position.label in template: 34.G)</title><text x="85.18" y="54.77" class="black" >G</text></g>
<g><title>35 (position.label in template: 35.U)</title><text x="91.35" y="50.11" class="green" >T</text></g>
<g><title>36 (position.label in template: 36.G)</title><text x="98.7" y="50" class="black" >G</text></g>
<g><title>37 (position.label in template: 37.G)</title><text x="104.78" y="54.49" class="black" >G</text></g>
<g><title>38 (position.label in template: 38.U)</title><text x="107.12" y="61.75" class="green" >T</text></g>
<g><title>39 (position.label in template: 39.U)</title><text x="104.43" y="68.81" class="green" >T</text></g>
<g><title>40 (position.label in template: 40.C)</title><text x="106.95" y="75.94" class="black" >C</text></g>
<g><title>41 (position.label in template: 41.C)</title><text x="109.46" y="83.07" class="black" >C</text></g>
<g><title>42 (position.label in template: 42.G)</title><text x="111.77" y="90.2" class="black" >G</text></g>
<g><title>43 (position.label in template: 43.A)</title><text x="114.7" y="97.33" class="green" >A</text></g>
<g><title>44 (position.label in template: 44.C)</title><text x="122.01" y="98.14" class="black" >C</text></g>
<g><title>45 (position.label in template: 45.A)</title><text x="129.03" y="101.4" class="black" >A</text></g>
<g><title>46 (position.label in template: 46.U)</title><text x="134.17" y="106.75" class="green" >T</text></g>
<g><title>47 (position.label in template: 47.U)</title><text x="137.44" y="113.56" class="green" >T</text></g>
<g><title>48 (position.label in template: 48.C)</title><text x="138.24" y="121.08" class="black" >C</text></g>
<g><title>49 (position.label in template: 49.G)</title><text x="136.3" y="128.44" class="green" >G</text></g>
<g><line x1="135.041" y1="129.74" x2="130.089" y2="136.057" class="black" /></g>
<g><title>50 (position.label in template: 50.U)</title><text x="142.39" y="133.18" class="green" >T</text></g>
<g><line x1="141.131" y1="134.48" x2="136.179" y2="140.797" class="black" /></g>
<g><text x="146.715" y="127.816" class="numbering-label sequential" >50</text></g>
<g><line x1="143.543" y1="131.75" x2="145.48" y2="129.347" class="numbering-line sequential" /></g>
<g><title>51 (position.label in template: 51.G)</title><text x="148.07" y="137.93" class="black" >G</text></g>
<g><line x1="146.811" y1="139.23" x2="141.859" y2="145.547" class="black" /></g>
<g><title>52 (position.label in template: 52.G)</title><text x="153.96" y="142.67" class="black" >G</text></g>
<g><line x1="152.701" y1="143.97" x2="147.749" y2="150.287" class="black" /></g>
<g><title>53 (position.label in template: 53.G)</title><text x="159.84" y="147.41" class="black" >G</text></g>
<g><line x1="158.582" y1="148.711" x2="153.638" y2="155.026" class="black" /></g>
<g><title>54 (position.label in template: 54.U)</title><text x="167.61" y="147.22" class="green" >T</text></g>
<g><title>55 (position.label in template: 55.U)</title><text x="173.74" y="151.65" class="green" >T</text></g>
<g><title>56 (position.label in template: 56.C)</title><text x="175.95" y="158.88" class="black" >C</text></g>
<g><title>57 (position.label in template: 57.G)</title><text x="173.12" y="165.97" class="black" >G</text></g>
<g><title>58 (position.label in template: 58.A)</title><text x="167.17" y="170.04" class="black" >A</text></g>
<g><title>59 (position.label in template: 59.U)</title><text x="159.42" y="169.42" class="green" >T</text></g>
<g><title>60 (position.label in template: 60.U)</title><text x="153.8" y="164.37" class="green" >T</text></g>
<g><title>61 (position.label in template: 61.C)</title><text x="152.38" y="156.94" class="black" >C</text></g>
<g><title>62 (position.label in template: 62.C)</title><text x="146.49" y="152.2" class="black" >C</text></g>
<g><title>63 (position.label in template: 63.C)</title><text x="140.6" y="147.46" class="black" >C</text></g>
<g><title>64 (position.label in template: 64.A)</title><text x="134.92" y="142.71" class="green" >A</text></g>
<g><title>65 (position.label in template: 65.U)</title><text x="128.83" y="137.97" class="green" >T</text></g>
<g><title>66 (position.label in template: 66.C)</title><text x="122.01" y="141.23" class="black" >C</text></g>
<g><title>67 (position.label in template: 67.A)</title><text x="122.21" y="148.79" class="green" >A</text></g>
<g><title>68 (position.label in template: 68.U)</title><text x="122.01" y="156.35" class="green" >T</text></g>
<g><title>69 (position.label in template: 69.C)</title><text x="122.01" y="163.91" class="black" >C</text></g>
<g><title>70 (position.label in template: 70.C)</title><text x="122.01" y="171.47" class="black" >C</text></g>
<g><title>71 (position.label in template: 71.G)</title><text x="121.8" y="179.03" class="black" >G</text></g>
<g><title>72 (position.label in template: 72.C)</title><text x="122.01" y="186.59" class="black" >C</text></g>
<g><title>73 (position.label in template: 73.C)</title><text x="127.351" y="191.941" class="black" >C</text></g>
<g><title>74 (position.label in template: 74.3')</title><text x="122.117" y="197.397" class="green" >3'</text></g>
<g><line x1="109.407" y1="191.801" x2="109.503" y2="188.324" class="gray" /></g>
<g><line x1="109.617" y1="184.243" x2="109.713" y2="180.764" class="gray" /></g>
<g><line x1="109.713" y1="176.683" x2="109.617" y2="173.204" class="gray" /></g>
<g><line x1="109.56" y1="169.122" x2="109.56" y2="165.645" class="gray" /></g>
<g><line x1="109.671" y1="161.565" x2="109.859" y2="158.082" class="gray" /></g>
<g><line x1="109.916" y1="154.003" x2="109.824" y2="150.525" class="gray" /></g>
<g><line x1="109.713" y1="146.443" x2="109.617" y2="142.964" class="gray" /></g>
<g><line x1="107.729" y1="140.021" x2="104.781" y2="138.567" class="gray" /></g>
<g><line x1="101.479" y1="136.248" x2="98.861" y2="133.729" class="gray" /></g>
<g><line x1="96.5096" y1="130.472" x2="95.0104" y2="127.336" class="gray" /></g>
<g><line x1="92.0885" y1="125.494" x2="88.8215" y2="125.494" class="gray" /></g>
<g><line x1="84.7385" y1="125.494" x2="81.0515" y2="125.494" class="gray" /></g>
<g><line x1="77.8361" y1="127.164" x2="75.9739" y2="129.814" class="gray" /></g>
<g><line x1="72.9334" y1="132.31" x2="69.7566" y2="133.717" class="gray" /></g>
<g><line x1="65.8545" y1="134.388" x2="61.9755" y2="134.09" class="gray" /></g>
<g><line x1="58.247" y1="132.793" x2="55.503" y2="130.944" class="gray" /></g>
<g><line x1="52.7951" y1="128.032" x2="51.0149" y2="124.925" class="gray" /></g>
<g><line x1="50" y1="121.112" x2="50" y2="117.635" class="gray" /></g>
<g><line x1="51.016" y1="113.823" x2="52.794" y2="110.724" class="gray" /></g>
<g><line x1="55.5205" y1="107.84" x2="58.4395" y2="105.938" class="gray" /></g>
<g><line x1="62.1851" y1="104.663" x2="65.8549" y2="104.374" class="gray" /></g>
<g><line x1="69.7566" y1="105.04" x2="72.9334" y2="106.447" class="gray" /></g>
<g><line x1="76.0134" y1="108.915" x2="78.0066" y2="111.612" class="gray" /></g>
<g><line x1="81.2615" y1="113.254" x2="84.5285" y2="113.254" class="gray" /></g>
<g><line x1="88.6115" y1="113.254" x2="92.2985" y2="113.254" class="gray" /></g>
<g><line x1="95.2668" y1="111.435" x2="96.8832" y2="108.263" class="gray" /></g>
<g><line x1="99.2243" y1="104.972" x2="101.536" y2="102.566" class="gray" /></g>
<g><line x1="102.27" y1="99.169" x2="101.11" y2="95.8886" class="gray" /></g>
<g><line x1="99.7024" y1="92.0564" x2="98.4376" y2="88.7412" class="gray" /></g>
<g><line x1="97.0297" y1="84.909" x2="95.8703" y2="81.6286" class="gray" /></g>
<g><line x1="94.6158" y1="77.7448" x2="93.6742" y2="74.5328" class="gray" /></g>
<g><line x1="91.3228" y1="71.5692" x2="88.1372" y2="69.7684" class="gray" /></g>
<g><line x1="85.58" y1="66.8772" x2="84.25" y2="63.6603" class="gray" /></g>
<g><line x1="83.935" y1="59.786" x2="84.715" y2="56.4516" class="gray" /></g>
<g><line x1="86.809" y1="53.2334" x2="89.721" y2="51.0341" class="gray" /></g>
<g><line x1="93.3912" y1="49.7732" x2="96.6588" y2="49.7243" class="gray" /></g>
<g><line x1="100.342" y1="50.9065" x2="103.138" y2="52.971" class="gray" /></g>
<g><line x1="105.406" y1="56.1268" x2="106.494" y2="59.5008" class="gray" /></g>
<g><line x1="106.393" y1="63.3515" x2="105.157" y2="66.5961" class="gray" /></g>
<g><line x1="105.11" y1="70.4286" x2="106.27" y2="73.709" class="gray" /></g>
<g><line x1="107.628" y1="77.5594" x2="108.782" y2="80.8382" class="gray" /></g>
<g><line x1="110.089" y1="84.7059" x2="111.141" y2="87.9517" class="gray" /></g>
<g><line x1="112.546" y1="91.782" x2="113.924" y2="95.1355" class="gray" /></g>
<g><line x1="116.729" y1="97.2486" x2="119.981" y2="97.609" class="gray" /></g>
<g><line x1="123.862" y1="98.6936" x2="127.178" y2="100.234" class="gray" /></g>
<g><line x1="130.444" y1="102.566" x2="132.756" y2="104.972" class="gray" /></g>
<g><line x1="135.054" y1="108.284" x2="136.556" y2="111.413" class="gray" /></g>
<g><line x1="137.656" y1="115.284" x2="138.024" y2="118.744" class="gray" /></g>
<g><line x1="137.72" y1="122.748" x2="136.82" y2="126.16" class="gray" /></g>
<g><line x1="137.911" y1="129.388" x2="140.779" y2="131.62" class="gray" /></g>
<g><line x1="143.956" y1="134.183" x2="146.504" y2="136.314" class="gray" /></g>
<g><line x1="149.66" y1="138.904" x2="152.37" y2="141.084" class="gray" /></g>
<g><line x1="155.549" y1="143.645" x2="158.251" y2="145.823" class="gray" /></g>
<g><line x1="161.881" y1="147.054" x2="165.569" y2="146.964" class="gray" /></g>
<g><line x1="169.265" y1="148.11" x2="172.085" y2="150.148" class="gray" /></g>
<g><line x1="174.337" y1="153.296" x2="175.353" y2="156.621" class="gray" /></g>
<g><line x1="175.193" y1="160.47" x2="173.877" y2="163.768" class="gray" /></g>
<g><line x1="171.435" y1="166.816" x2="168.855" y2="168.581" class="gray" /></g>
<g><line x1="165.135" y1="169.571" x2="161.455" y2="169.277" class="gray" /></g>
<g><line x1="157.902" y1="167.749" x2="155.318" y2="165.428" class="gray" /></g>
<g><line x1="153.417" y1="162.059" x2="152.763" y2="158.639" class="gray" /></g>
<g><line x1="150.79" y1="155.354" x2="148.08" y2="153.174" class="gray" /></g>
<g><line x1="144.9" y1="150.614" x2="142.19" y2="148.434" class="gray" /></g>
<g><line x1="139.034" y1="145.844" x2="136.486" y2="143.713" class="gray" /></g>
<g><line x1="133.309" y1="141.15" x2="130.441" y2="138.918" class="gray" /></g>
<g><line x1="126.988" y1="138.544" x2="123.852" y2="140.043" class="gray" /></g>
<g><line x1="122.064" y1="142.965" x2="122.156" y2="146.443" class="gray" /></g>
<g><line x1="122.156" y1="150.525" x2="122.064" y2="154.003" class="gray" /></g>
<g><line x1="122.01" y1="158.085" x2="122.01" y2="161.562" class="gray" /></g>
<g><line x1="122.01" y1="165.645" x2="122.01" y2="169.122" class="gray" /></g>
<g><line x1="121.953" y1="173.204" x2="121.857" y2="176.683" class="gray" /></g>
<g><line x1="121.857" y1="180.764" x2="121.953" y2="184.243" class="gray" /></g>
<g><line x1="123.452" y1="187.729" x2="125.909" y2="190.19" class="gray" /></g>
<g><line x1="125.938" y1="193.108" x2="123.53" y2="195.618" class="gray" /></g>
</svg>
