<svg
	xmlns="http://www.w3.org/2000/svg"
	width="226.49"
	height="239.386">
<g><style type="text/css" >
<!-- create color definitions -->
<![CDATA[
circle.red {stroke: rgb(255, 0, 255); fill: none; }
circle.green {stroke: rgb(0, 255, 0); fill: none; }
circle.blue {stroke: rgb(0, 0, 255); fill: none; }
circle.black {stroke: rgb(0, 0, 0); fill: none; }
circle.gray {stroke: rgb(204, 204, 204); fill: none; }
circle.brown {stroke: rgb(211.65, 104.55, 30.6); fill: none; }
line.red {stroke: rgb(255, 0, 255); stroke-width: 0.383869; }
line.green {stroke: rgb(0, 255, 0); stroke-width: 0.383869; }
line.blue {stroke: rgb(0, 0, 255); stroke-width: 0.383869; }
line.black {stroke: rgb(0, 0, 0); stroke-width: 0.383869; }
line.gray {stroke: rgb(204, 204, 204); stroke-width: 0.383869; }
line.brown {stroke: rgb(211.65, 104.55, 30.6); stroke-width: 0.383869; }
line {stroke: rgb(0, 0, 0); }
text.red {fill: rgb(255, 0, 255); font-size: 3.070953px; font-weight: bold; font-family: Helvetica; }
text.green {fill: rgb(0, 255, 0); font-size: 3.070953px; font-weight: bold; font-family: Helvetica; }
text.blue {fill: rgb(0, 0, 255); font-size: 3.070953px; font-weight: bold; font-family: Helvetica; }
text.black {fill: rgb(0, 0, 0); font-size: 3.070953px; font-weight: bold; font-family: Helvetica; }
text.gray {fill: rgb(204, 204, 204); font-size: 3.070953px; font-weight: bold; font-family: Helvetica; }
text.brown {fill: rgb(211.65, 104.55, 30.6); font-size: 3.070953px; font-weight: bold; font-family: Helvetica; }
text {fill: rgb(0, 0, 0); font-size: 3.070953px; font-weight: bold; font-family: Helvetica; text-anchor: middle; alignment-baseline: middle; }

.pseudoknot_connection{stroke-linecap: round; stroke-opacity: 0.2; stroke-width: 1.5; }
.pseudoknot_segment1{stroke-linecap: round; stroke-opacity: 0.4; stroke-width: 3.07095; }
.pseudoknot_segment2{stroke-linecap: round; stroke-opacity: 0.4; stroke-width: 3.07095; }
line.numbering-line{stroke: rgb(204, 204, 204); stroke-width: 0.191935; }
line.predicted{stroke: rgb(0, 0, 0); stroke-dasharray: 2; }
polyline{fill: none; stroke-linejoin: round; }
template{visibility: hidden; }
text.numbering-label{fill: rgb(204, 204, 204); }
]]>
</style></g>
<g><title>0 (position.label in template: 0.5')</title><text x="112.833" y="190.982" class="green" >5'</text></g>
<g><title>1 (position.label in template: 1.G)</title><text x="110.09" y="183.93" class="black" >G</text></g>
<g><line x1="112.137" y1="183.623" x2="120.493" y2="183.623" class="black" /></g>
<g><title>2 (position.label in template: 2.A)</title><text x="107.41" y="177.04" class="black" >A</text></g>
<g><title>3 (position.label in template: 3.G)</title><text x="110.09" y="170.14" class="green" >G</text></g>
<g><line x1="112.137" y1="169.833" x2="120.493" y2="169.833" class="black" /></g>
<g><title>4 (position.label in template: 4.A)</title><text x="107.41" y="163.25" class="black" >A</text></g>
<g><title>5 (position.label in template: 5.G)</title><text x="110.09" y="156.35" class="black" >G</text></g>
<g><line x1="112.137" y1="156.043" x2="120.493" y2="156.043" class="black" /></g>
<g><title>6 (position.label in template: 6.U)</title><text x="110.3" y="148.79" class="green" >T</text></g>
<g><line x1="112.347" y1="148.483" x2="120.703" y2="148.483" class="black" /></g>
<g><title>7 (position.label in template: 7.A)</title><text x="110.51" y="141.23" class="green" >A</text></g>
<g><line x1="112.557" y1="140.923" x2="120.493" y2="140.923" class="black" /></g>
<g><title>8 (position.label in template: 8.U)</title><text x="103.48" y="137.97" class="green" >T</text></g>
<g><title>9 (position.label in template: 9.A)</title><text x="98.34" y="132.62" class="black" >A</text></g>
<g><title>10 (position.label in template: 10.G)</title><text x="94.66" y="125.8" class="green" >G</text></g>
<g><line x1="94.6951" y1="123.446" x2="94.8349" y2="115.3" class="black" /></g>
<g><text x="91.0262" y="131.677" class="numbering-label sequential" >10</text></g>
<g><line x1="93.691" y1="127.367" x2="91.9756" y2="130.141" class="numbering-line sequential" /></g>
<g><title>11 (position.label in template: 11.C)</title><text x="87.31" y="125.8" class="black" >C</text></g>
<g><line x1="87.2749" y1="123.446" x2="87.1351" y2="115.3" class="black" /></g>
<g><title>12 (position.label in template: 12.U)</title><text x="79.75" y="125.8" class="green" >T</text></g>
<g><line x1="79.7851" y1="123.446" x2="79.9249" y2="115.3" class="black" /></g>
<g><title>13 (position.label in template: 13.U)</title><text x="72.19" y="125.8" class="green" >T</text></g>
<g><line x1="72.1549" y1="123.446" x2="72.0151" y2="115.3" class="black" /></g>
<g><title>14 (position.label in template: 14.G)</title><text x="66.22" y="130.69" class="black" >G</text></g>
<g><title>15 (position.label in template: 15.G)</title><text x="58.67" y="131.1" class="black" >G</text></g>
<g><title>16 (position.label in template: 16.U)</title><text x="52.62" y="126.85" class="green" >T</text></g>
<g><title>17 (position.label in template: 17.G)</title><text x="50" y="119.68" class="black" >G</text></g>
<g><title>18 (position.label in template: 18.G)</title><text x="52.41" y="112.52" class="black" >G</text></g>
<g><title>19 (position.label in template: 19.U)</title><text x="58.88" y="108.27" class="green" >T</text></g>
<g><title>20 (position.label in template: 20.A)</title><text x="66.63" y="108.68" class="black" >A</text></g>
<g><text x="69.2172" y="102.273" class="numbering-label sequential" >20</text></g>
<g><line x1="67.3199" y1="106.971" x2="68.5972" y2="103.808" class="numbering-line sequential" /></g>
<g><title>21 (position.label in template: 21.G)</title><text x="71.98" y="113.56" class="green" >G</text></g>
<g><title>22 (position.label in template: 22.A)</title><text x="79.96" y="113.56" class="green" >A</text></g>
<g><title>23 (position.label in template: 23.G)</title><text x="87.1" y="113.56" class="black" >G</text></g>
<g><title>24 (position.label in template: 24.U)</title><text x="94.87" y="113.56" class="green" >T</text></g>
<g><title>25 (position.label in template: 25.G)</title><text x="97.93" y="106.75" class="black" >G</text></g>
<g><title>26 (position.label in template: 26.U)</title><text x="103.48" y="101.4" class="green" >T</text></g>
<g><line x1="105.415" y1="100.423" x2="113.295" y2="97.693" class="black" /></g>
<g><title>27 (position.label in template: 27.G)</title><text x="100.76" y="94.27" class="black" >G</text></g>
<g><line x1="102.695" y1="93.2928" x2="110.575" y2="90.563" class="black" /></g>
<g><title>28 (position.label in template: 28.U)</title><text x="98.45" y="87.14" class="green" >T</text></g>
<g><line x1="100.385" y1="86.1628" x2="108.265" y2="83.433" class="black" /></g>
<g><title>29 (position.label in template: 29.G)</title><text x="95.73" y="80.01" class="black" >G</text></g>
<g><line x1="97.6645" y1="79.0328" x2="105.545" y2="76.303" class="black" /></g>
<g><title>30 (position.label in template: 30.C)</title><text x="93.42" y="72.88" class="black" >C</text></g>
<g><line x1="95.347" y1="71.8813" x2="102.833" y2="69.1945" class="black" /></g>
<g><text x="88.0432" y="77.2198" class="numbering-label sequential" >30</text></g>
<g><line x1="91.9862" y1="74.0373" x2="89.9456" y2="75.6843" class="numbering-line sequential" /></g>
<g><title>31 (position.label in template: 31.U)</title><text x="86.9" y="69.07" class="green" >T</text></g>
<g><title>32 (position.label in template: 32.U)</title><text x="84.01" y="62.08" class="green" >T</text></g>
<g><title>33 (position.label in template: 33.A)</title><text x="86.13" y="54.77" class="black" >A</text></g>
<g><title>34 (position.label in template: 34.G)</title><text x="91.67" y="50.11" class="black" >G</text></g>
<g><title>35 (position.label in template: 35.C)</title><text x="99.44" y="50" class="black" >C</text></g>
<g><title>36 (position.label in template: 36.A)</title><text x="105.73" y="54.49" class="black" >A</text></g>
<g><title>37 (position.label in template: 37.U)</title><text x="107.66" y="61.75" class="green" >T</text></g>
<g><title>38 (position.label in template: 38.G)</title><text x="104.76" y="68.81" class="black" >G</text></g>
<g><title>39 (position.label in template: 39.C)</title><text x="107.48" y="75.94" class="black" >C</text></g>
<g><title>40 (position.label in template: 40.A)</title><text x="110.2" y="83.07" class="green" >A</text></g>
<g><title>41 (position.label in template: 41.C)</title><text x="112.51" y="90.2" class="black" >C</text></g>
<g><title>42 (position.label in template: 42.A)</title><text x="115.23" y="97.33" class="green" >A</text></g>
<g><title>43 (position.label in template: 43.A)</title><text x="122.75" y="98.14" class="black" >A</text></g>
<g><title>44 (position.label in template: 44.G)</title><text x="129.15" y="101.4" class="black" >G</text></g>
<g><title>45 (position.label in template: 45.G)</title><text x="134.5" y="106.75" class="black" >G</text></g>
<g><title>46 (position.label in template: 46.U)</title><text x="137.97" y="113.56" class="green" >T</text></g>
<g><title>47 (position.label in template: 47.C)</title><text x="138.78" y="121.08" class="black" >C</text></g>
<g><title>48 (position.label in template: 48.C)</title><text x="137.04" y="128.44" class="black" >C</text></g>
<g><line x1="135.734" y1="129.71" x2="130.456" y2="136.086" class="black" /></g>
<g><title>49 (position.label in template: 49.U)</title><text x="142.93" y="133.18" class="green" >T</text></g>
<g><line x1="141.667" y1="134.484" x2="136.723" y2="140.792" class="black" /></g>
<g><title>50 (position.label in template: 50.G)</title><text x="148.61" y="137.93" class="black" >G</text></g>
<g><line x1="147.347" y1="139.234" x2="142.403" y2="145.542" class="black" /></g>
<g><text x="152.994" y="132.589" class="numbering-label sequential" >50</text></g>
<g><line x1="149.779" y1="136.506" x2="151.734" y2="134.125" class="numbering-line sequential" /></g>
<g><title>51 (position.label in template: 51.G)</title><text x="154.49" y="142.67" class="black" >G</text></g>
<g><line x1="153.227" y1="143.974" x2="148.283" y2="150.282" class="black" /></g>
<g><title>52 (position.label in template: 52.G)</title><text x="160.38" y="147.41" class="black" >G</text></g>
<g><line x1="159.117" y1="148.714" x2="154.173" y2="155.022" class="black" /></g>
<g><title>53 (position.label in template: 53.U)</title><text x="168.15" y="147.22" class="green" >T</text></g>
<g><title>54 (position.label in template: 54.U)</title><text x="174.28" y="151.65" class="green" >T</text></g>
<g><title>55 (position.label in template: 55.C)</title><text x="176.49" y="158.88" class="black" >C</text></g>
<g><title>56 (position.label in template: 56.A)</title><text x="174.07" y="165.97" class="black" >A</text></g>
<g><title>57 (position.label in template: 57.G)</title><text x="167.28" y="170.04" class="black" >G</text></g>
<g><title>58 (position.label in template: 58.U)</title><text x="159.96" y="169.42" class="green" >T</text></g>
<g><title>59 (position.label in template: 59.C)</title><text x="154.33" y="164.37" class="black" >C</text></g>
<g><title>60 (position.label in template: 60.C)</title><text x="152.91" y="156.94" class="black" >C</text></g>
<g><title>61 (position.label in template: 61.C)</title><text x="147.02" y="152.2" class="black" >C</text></g>
<g><title>62 (position.label in template: 62.C)</title><text x="141.14" y="147.46" class="black" >C</text></g>
<g><title>63 (position.label in template: 63.A)</title><text x="135.46" y="142.71" class="green" >A</text></g>
<g><title>64 (position.label in template: 64.G)</title><text x="129.15" y="137.97" class="black" >G</text></g>
<g><title>65 (position.label in template: 65.U)</title><text x="122.54" y="141.23" class="green" >T</text></g>
<g><title>66 (position.label in template: 66.A)</title><text x="122.75" y="148.79" class="green" >A</text></g>
<g><title>67 (position.label in template: 67.C)</title><text x="122.54" y="156.35" class="black" >C</text></g>
<g><title>68 (position.label in template: 68.C)</title><text x="125.64" y="163.25" class="black" >C</text></g>
<g><title>69 (position.label in template: 69.U)</title><text x="122.54" y="170.14" class="green" >T</text></g>
<g><title>70 (position.label in template: 70.C)</title><text x="125.64" y="177.04" class="black" >C</text></g>
<g><title>71 (position.label in template: 71.C)</title><text x="122.54" y="183.93" class="black" >C</text></g>
<g><title>72 (position.label in template: 72.G)</title><text x="127.782" y="189.386" class="black" >G</text></g>
<g><title>73 (position.label in template: 73.3')</title><text x="129.076" y="196.841" class="green" >3'</text></g>
<g><line x1="112.091" y1="188.767" x2="110.832" y2="185.531" class="gray" /></g>
<g><line x1="109.348" y1="181.715" x2="108.152" y2="178.641" class="gray" /></g>
<g><line x1="108.151" y1="174.824" x2="109.349" y2="171.741" class="gray" /></g>
<g><line x1="109.348" y1="167.925" x2="108.152" y2="164.851" class="gray" /></g>
<g><line x1="108.151" y1="161.034" x2="109.349" y2="157.951" class="gray" /></g>
<g><line x1="110.147" y1="153.996" x2="110.243" y2="150.529" class="gray" /></g>
<g><line x1="110.357" y1="146.436" x2="110.453" y2="142.969" class="gray" /></g>
<g><line x1="108.653" y1="140.062" x2="105.337" y2="138.524" class="gray" /></g>
<g><line x1="102.062" y1="136.187" x2="99.7584" y2="133.789" class="gray" /></g>
<g><line x1="97.3678" y1="130.511" x2="95.6322" y2="127.295" class="gray" /></g>
<g><line x1="92.6127" y1="125.493" x2="89.3573" y2="125.493" class="gray" /></g>
<g><line x1="85.2627" y1="125.493" x2="81.7973" y2="125.493" class="gray" /></g>
<g><line x1="77.7027" y1="125.493" x2="74.2373" y2="125.493" class="gray" /></g>
<g><line x1="70.6062" y1="126.79" x2="67.8038" y2="129.086" class="gray" /></g>
<g><line x1="64.1757" y1="130.494" x2="60.7143" y2="130.682" class="gray" /></g>
<g><line x1="56.9947" y1="129.616" x2="54.2953" y2="127.72" class="gray" /></g>
<g><line x1="51.9173" y1="124.62" x2="50.7027" y2="121.296" class="gray" /></g>
<g><line x1="50.6531" y1="117.433" x2="51.7569" y2="114.153" class="gray" /></g>
<g><line x1="54.1211" y1="111.089" x2="57.1689" y2="109.087" class="gray" /></g>
<g><line x1="60.9244" y1="108.071" x2="64.5856" y2="108.265" class="gray" /></g>
<g><line x1="68.1426" y1="109.753" x2="70.4674" y2="111.873" class="gray" /></g>
<g><line x1="74.0273" y1="113.253" x2="77.9127" y2="113.253" class="gray" /></g>
<g><line x1="82.0073" y1="113.253" x2="85.0527" y2="113.253" class="gray" /></g>
<g><line x1="89.1473" y1="113.253" x2="92.8227" y2="113.253" class="gray" /></g>
<g><line x1="95.7091" y1="111.385" x2="97.0909" y2="108.31" class="gray" /></g>
<g><line x1="99.404" y1="105.022" x2="102.006" y2="102.514" class="gray" /></g>
<g><line x1="102.75" y1="99.1801" x2="101.49" y2="95.8757" class="gray" /></g>
<g><line x1="100.129" y1="92.0153" x2="99.081" y2="88.7805" class="gray" /></g>
<g><line x1="97.7203" y1="84.9201" x2="96.4597" y2="81.6157" class="gray" /></g>
<g><line x1="95.099" y1="77.7553" x2="94.051" y2="74.5205" class="gray" /></g>
<g><line x1="91.6524" y1="71.54" x2="88.6676" y2="69.7958" class="gray" /></g>
<g><line x1="86.1178" y1="66.8709" x2="84.7922" y2="63.6649" class="gray" /></g>
<g><line x1="84.5802" y1="59.8066" x2="85.5598" y2="56.4292" class="gray" /></g>
<g><line x1="87.6967" y1="53.145" x2="90.1033" y2="51.1208" class="gray" /></g>
<g><line x1="93.7171" y1="49.7739" x2="97.3929" y2="49.7219" class="gray" /></g>
<g><line x1="101.106" y1="50.8824" x2="104.064" y2="52.9934" class="gray" /></g>
<g><line x1="106.256" y1="56.1615" x2="107.134" y2="59.4643" class="gray" /></g>
<g><line x1="106.882" y1="63.3367" x2="105.538" y2="66.6091" class="gray" /></g>
<g><line x1="105.49" y1="70.4157" x2="106.75" y2="73.7201" class="gray" /></g>
<g><line x1="108.21" y1="77.5457" x2="109.47" y2="80.8501" class="gray" /></g>
<g><line x1="110.831" y1="84.7105" x2="111.879" y2="87.9453" class="gray" /></g>
<g><line x1="113.24" y1="91.8057" x2="114.5" y2="95.1101" class="gray" /></g>
<g><line x1="117.266" y1="97.2422" x2="120.714" y2="97.6137" class="gray" /></g>
<g><line x1="124.574" y1="98.7621" x2="127.326" y2="100.164" class="gray" /></g>
<g><line x1="130.598" y1="102.541" x2="133.052" y2="104.995" class="gray" /></g>
<g><line x1="135.429" y1="108.267" x2="137.041" y2="111.429" class="gray" /></g>
<g><line x1="138.189" y1="115.288" x2="138.561" y2="118.737" class="gray" /></g>
<g><line x1="138.309" y1="122.765" x2="137.511" y2="126.141" class="gray" /></g>
<g><line x1="138.635" y1="129.416" x2="141.335" y2="131.589" class="gray" /></g>
<g><line x1="144.501" y1="134.186" x2="147.039" y2="136.31" class="gray" /></g>
<g><line x1="150.204" y1="138.908" x2="152.896" y2="141.078" class="gray" /></g>
<g><line x1="156.085" y1="143.646" x2="158.785" y2="145.819" class="gray" /></g>
<g><line x1="162.427" y1="147.053" x2="166.103" y2="146.963" class="gray" /></g>
<g><line x1="169.809" y1="148.112" x2="172.621" y2="150.144" class="gray" /></g>
<g><line x1="174.878" y1="153.301" x2="175.892" y2="156.615" class="gray" /></g>
<g><line x1="175.829" y1="160.51" x2="174.731" y2="163.725" class="gray" /></g>
<g><line x1="172.314" y1="166.715" x2="169.036" y2="168.68" class="gray" /></g>
<g><line x1="165.24" y1="169.56" x2="162" y2="169.286" class="gray" /></g>
<g><line x1="158.436" y1="167.746" x2="155.854" y2="165.43" class="gray" /></g>
<g><line x1="153.946" y1="162.052" x2="153.294" y2="158.644" class="gray" /></g>
<g><line x1="151.315" y1="155.349" x2="148.615" y2="153.176" class="gray" /></g>
<g><line x1="145.426" y1="150.608" x2="142.734" y2="148.438" class="gray" /></g>
<g><line x1="139.569" y1="145.84" x2="137.031" y2="143.716" class="gray" /></g>
<g><line x1="133.823" y1="141.173" x2="130.787" y2="138.893" class="gray" /></g>
<g><line x1="127.314" y1="138.568" x2="124.376" y2="140.017" class="gray" /></g>
<g><line x1="122.597" y1="142.969" x2="122.693" y2="146.436" class="gray" /></g>
<g><line x1="122.693" y1="150.529" x2="122.597" y2="153.996" class="gray" /></g>
<g><line x1="123.379" y1="157.91" x2="124.801" y2="161.075" class="gray" /></g>
<g><line x1="124.8" y1="164.81" x2="123.38" y2="167.966" class="gray" /></g>
<g><line x1="123.379" y1="171.7" x2="124.801" y2="174.865" class="gray" /></g>
<g><line x1="124.8" y1="178.6" x2="123.38" y2="181.756" class="gray" /></g>
<g><line x1="123.958" y1="185.099" x2="126.364" y2="187.603" class="gray" /></g>
<g><line x1="128.132" y1="191.096" x2="128.726" y2="194.517" class="gray" /></g>
</svg>
