<svg
	xmlns="http://www.w3.org/2000/svg"
	width="276.696"
	height="185.27">
<g><style type="text/css" >
<!-- create color definitions -->
<![CDATA[
circle.red {stroke: rgb(255, 0, 255); fill: none; }
circle.green {stroke: rgb(0, 255, 0); fill: none; }
circle.blue {stroke: rgb(0, 0, 255); fill: none; }
circle.black {stroke: rgb(0, 0, 0); fill: none; }
circle.gray {stroke: rgb(204, 204, 204); fill: none; }
circle.brown {stroke: rgb(211.65, 104.55, 30.6); fill: none; }
line.red {stroke: rgb(255, 0, 255); stroke-width: 0.378966; }
line.green {stroke: rgb(0, 255, 0); stroke-width: 0.378966; }
line.blue {stroke: rgb(0, 0, 255); stroke-width: 0.378966; }
line.black {stroke: rgb(0, 0, 0); stroke-width: 0.378966; }
line.gray {stroke: rgb(204, 204, 204); stroke-width: 0.378966; }
line.brown {stroke: rgb(211.65, 104.55, 30.6); stroke-width: 0.378966; }
line {stroke: rgb(0, 0, 0); }
text.red {fill: rgb(255, 0, 255); font-size: 3.031731px; font-weight: bold; font-family: Helvetica; }
text.green {fill: rgb(0, 255, 0); font-size: 3.031731px; font-weight: bold; font-family: Helvetica; }
text.blue {fill: rgb(0, 0, 255); font-size: 3.031731px; font-weight: bold; font-family: Helvetica; }
text.black {fill: rgb(0, 0, 0); font-size: 3.031731px; font-weight: bold; font-family: Helvetica; }
text.gray {fill: rgb(204, 204, 204); font-size: 3.031731px; font-weight: bold; font-family: Helvetica; }
text.brown {fill: rgb(211.65, 104.55, 30.6); font-size: 3.031731px; font-weight: bold; font-family: Helvetica; }
text {fill: rgb(0, 0, 0); font-size: 3.031731px; font-weight: bold; font-family: Helvetica; text-anchor: middle; alignment-baseline: middle; }

.pseudoknot_connection{stroke-linecap: round; stroke-opacity: 0.2; stroke-width: 1.5; }
.pseudoknot_segment1{stroke-linecap: round; stroke-opacity: 0.4; stroke-width: 3.03173; }
.pseudoknot_segment2{stroke-linecap: round; stroke-opacity: 0.4; stroke-width: 3.03173; }
line.numbering-line{stroke: rgb(204, 204, 204); stroke-width: 0.189483; }
line.predicted{stroke: rgb(0, 0, 0); stroke-dasharray: 2; }
polyline{fill: none; stroke-linejoin: round; }
template{visibility: hidden; }
text.numbering-label{fill: rgb(204, 204, 204); }
]]>
</style></g>
<g><title>0 (position.label in template: 0.5')</title><text x="42.4377" y="135.267" class="green" >5'</text></g>
<g><title>1 (position.label in template: 1.A)</title><text x="50" y="135.267" class="black" >A</text></g>
<g><title>2 (position.label in template: 2.A)</title><text x="57.5623" y="135.267" class="black" >A</text></g>
<g><title>3 (position.label in template: 3.A)</title><text x="65.1247" y="135.267" class="black" >A</text></g>
<g><title>4 (position.label in template: 4.C)</title><text x="72.687" y="135.267" class="black" >C</text></g>
<g><title>5 (position.label in template: 5.G)</title><text x="80.2493" y="135.267" class="black" >G</text></g>
<g><title>6 (position.label in template: 6.U)</title><text x="87.8117" y="135.267" class="green" >T</text></g>
<g><title>7 (position.label in template: 7.U)</title><text x="95.374" y="135.267" class="green" >T</text></g>
<g><title>8 (position.label in template: 8.C)</title><text x="102.936" y="135.267" class="black" >C</text></g>
<g><title>9 (position.label in template: 9.A)</title><text x="110.499" y="135.267" class="black" >A</text></g>
<g><title>10 (position.label in template: 10.A)</title><text x="115.846" y="129.92" class="black" >A</text></g>
<g><line x1="117.867" y1="129.617" x2="125.855" y2="129.617" class="black" /></g>
<g><text x="109.508" y="127.397" class="numbering-label sequential" >10</text></g>
<g><line x1="114.156" y1="129.247" x2="111.327" y2="128.121" class="numbering-line sequential" /></g>
<g><title>11 (position.label in template: 11.C)</title><text x="115.636" y="122.36" class="black" >C</text></g>
<g><line x1="117.657" y1="122.057" x2="125.645" y2="122.057" class="black" /></g>
<g><title>12 (position.label in template: 12.U)</title><text x="115.636" y="114.8" class="green" >T</text></g>
<g><line x1="117.657" y1="114.497" x2="126.065" y2="114.497" class="black" /></g>
<g><title>13 (position.label in template: 13.C)</title><text x="115.636" y="107.24" class="black" >C</text></g>
<g><line x1="117.657" y1="106.937" x2="125.645" y2="106.937" class="black" /></g>
<g><title>14 (position.label in template: 14.A)</title><text x="115.846" y="99.68" class="green" >A</text></g>
<g><line x1="117.867" y1="99.3768" x2="125.855" y2="99.3768" class="black" /></g>
<g><title>15 (position.label in template: 15.U)</title><text x="110.286" y="94.34" class="green" >T</text></g>
<g><title>16 (position.label in template: 16.U)</title><text x="108.806" y="86.93" class="green" >T</text></g>
<g><title>17 (position.label in template: 17.A)</title><text x="111.896" y="79.95" class="black" >A</text></g>
<g><title>18 (position.label in template: 18.A)</title><text x="118.186" y="75.74" class="black" >A</text></g>
<g><title>19 (position.label in template: 19.A)</title><text x="125.746" y="75.74" class="black" >A</text></g>
<g><title>20 (position.label in template: 20.U)</title><text x="131.826" y="79.95" class="green" >T</text></g>
<g><text x="137.2" y="75.7481" class="numbering-label sequential" >20</text></g>
<g><line x1="133.259" y1="78.8295" x2="135.261" y2="77.264" class="numbering-line sequential" /></g>
<g><title>21 (position.label in template: 21.G)</title><text x="134.496" y="86.93" class="black" >G</text></g>
<g><title>22 (position.label in template: 22.A)</title><text x="133.436" y="94.34" class="black" >A</text></g>
<g><title>23 (position.label in template: 23.U)</title><text x="127.876" y="99.68" class="green" >T</text></g>
<g><title>24 (position.label in template: 24.G)</title><text x="127.666" y="107.24" class="black" >G</text></g>
<g><title>25 (position.label in template: 25.A)</title><text x="128.086" y="114.8" class="green" >A</text></g>
<g><title>26 (position.label in template: 26.G)</title><text x="127.666" y="122.36" class="black" >G</text></g>
<g><title>27 (position.label in template: 27.C)</title><text x="127.876" y="129.92" class="black" >C</text></g>
<g><title>28 (position.label in template: 28.C)</title><text x="133.226" y="135.27" class="black" >C</text></g>
<g><title>29 (position.label in template: 29.G)</title><text x="140.576" y="135.27" class="black" >G</text></g>
<g><title>30 (position.label in template: 30.C)</title><text x="148.346" y="135.27" class="black" >C</text></g>
<g><text x="148.346" y="142.091" class="numbering-label sequential" >30</text></g>
<g><line x1="148.346" y1="137.089" x2="148.346" y2="140.576" class="numbering-line sequential" /></g>
<g><title>31 (position.label in template: 31.A)</title><text x="156.106" y="135.27" class="black" >A</text></g>
<g><title>32 (position.label in template: 32.G)</title><text x="163.256" y="135.27" class="black" >G</text></g>
<g><title>33 (position.label in template: 33.U)</title><text x="171.026" y="135.27" class="green" >T</text></g>
<g><title>34 (position.label in template: 34.U)</title><text x="178.586" y="135.27" class="green" >T</text></g>
<g><title>35 (position.label in template: 35.U)</title><text x="186.146" y="135.27" class="green" >T</text></g>
<g><title>36 (position.label in template: 36.G)</title><text x="193.496" y="135.27" class="black" >G</text></g>
<g><title>37 (position.label in template: 37.A)</title><text x="201.466" y="135.27" class="black" >A</text></g>
<g><title>38 (position.label in template: 38.C)</title><text x="206.606" y="129.92" class="black" >C</text></g>
<g><line x1="208.627" y1="129.617" x2="216.615" y2="129.617" class="black" /></g>
<g><title>39 (position.label in template: 39.U)</title><text x="206.606" y="122.36" class="green" >T</text></g>
<g><line x1="208.627" y1="122.057" x2="217.035" y2="122.057" class="black" /></g>
<g><title>40 (position.label in template: 40.C)</title><text x="206.606" y="114.8" class="black" >C</text></g>
<g><line x1="208.627" y1="114.497" x2="216.615" y2="114.497" class="black" /></g>
<g><title>41 (position.label in template: 41.A)</title><text x="206.816" y="107.24" class="green" >A</text></g>
<g><line x1="208.837" y1="106.937" x2="216.825" y2="106.937" class="black" /></g>
<g><title>42 (position.label in template: 42.A)</title><text x="206.816" y="99.68" class="green" >A</text></g>
<g><line x1="208.837" y1="99.3768" x2="216.825" y2="99.3768" class="black" /></g>
<g><title>43 (position.label in template: 43.G)</title><text x="206.396" y="92.12" class="black" >G</text></g>
<g><line x1="208.417" y1="91.8168" x2="216.825" y2="91.8168" class="black" /></g>
<g><title>44 (position.label in template: 44.C)</title><text x="206.606" y="84.56" class="black" >C</text></g>
<g><line x1="208.627" y1="84.2568" x2="216.615" y2="84.2568" class="black" /></g>
<g><title>45 (position.label in template: 45.C)</title><text x="206.606" y="77" class="black" >C</text></g>
<g><line x1="208.627" y1="76.6968" x2="216.615" y2="76.6968" class="black" /></g>
<g><title>46 (position.label in template: 46.A)</title><text x="201.106" y="72.05" class="black" >A</text></g>
<g><title>47 (position.label in template: 47.A)</title><text x="198.756" y="64.86" class="black" >A</text></g>
<g><title>48 (position.label in template: 48.G)</title><text x="200.016" y="57.49" class="black" >G</text></g>
<g><title>49 (position.label in template: 49.G)</title><text x="205.236" y="52.02" class="black" >G</text></g>
<g><title>50 (position.label in template: 50.A)</title><text x="212.936" y="50" class="black" >A</text></g>
<g><text x="212.936" y="43.1786" class="numbering-label sequential" >50</text></g>
<g><line x1="212.936" y1="48.181" x2="212.936" y2="44.6945" class="numbering-line sequential" /></g>
<g><title>51 (position.label in template: 51.A)</title><text x="220.226" y="52.02" class="black" >A</text></g>
<g><title>52 (position.label in template: 52.C)</title><text x="225.236" y="57.49" class="black" >C</text></g>
<g><title>53 (position.label in template: 53.G)</title><text x="226.696" y="64.86" class="black" >G</text></g>
<g><title>54 (position.label in template: 54.G)</title><text x="224.346" y="72.05" class="black" >G</text></g>
<g><title>55 (position.label in template: 55.G)</title><text x="218.636" y="77" class="black" >G</text></g>
<g><title>56 (position.label in template: 56.G)</title><text x="218.636" y="84.56" class="black" >G</text></g>
<g><title>57 (position.label in template: 57.A)</title><text x="225.606" y="88.34" class="black" >A</text></g>
<g><title>58 (position.label in template: 58.C)</title><text x="218.846" y="92.12" class="black" >C</text></g>
<g><title>59 (position.label in template: 59.U)</title><text x="218.846" y="99.68" class="green" >T</text></g>
<g><title>60 (position.label in template: 60.U)</title><text x="218.846" y="107.24" class="green" >T</text></g>
<g><title>61 (position.label in template: 61.G)</title><text x="218.636" y="114.8" class="black" >G</text></g>
<g><title>62 (position.label in template: 62.A)</title><text x="219.056" y="122.36" class="green" >A</text></g>
<g><title>63 (position.label in template: 63.G)</title><text x="218.636" y="129.92" class="black" >G</text></g>
<g><title>64 (position.label in template: 64.3')</title><text x="225.856" y="127.67" class="green" >3'</text></g>
<g><line x1="44.4588" y1="134.964" x2="47.9788" y2="134.964" class="gray" /></g>
<g><line x1="52.0212" y1="134.964" x2="55.5412" y2="134.964" class="gray" /></g>
<g><line x1="59.5835" y1="134.964" x2="63.1035" y2="134.964" class="gray" /></g>
<g><line x1="67.1458" y1="134.964" x2="70.6658" y2="134.964" class="gray" /></g>
<g><line x1="74.7082" y1="134.964" x2="78.2282" y2="134.964" class="gray" /></g>
<g><line x1="82.2705" y1="134.964" x2="85.7905" y2="134.964" class="gray" /></g>
<g><line x1="89.8328" y1="134.964" x2="93.3528" y2="134.964" class="gray" /></g>
<g><line x1="97.3952" y1="134.964" x2="100.915" y2="134.964" class="gray" /></g>
<g><line x1="104.957" y1="134.964" x2="108.478" y2="134.964" class="gray" /></g>
<g><line x1="111.928" y1="133.535" x2="114.417" y2="131.046" class="gray" /></g>
<g><line x1="115.79" y1="127.596" x2="115.692" y2="124.077" class="gray" /></g>
<g><line x1="115.636" y1="120.036" x2="115.636" y2="116.518" class="gray" /></g>
<g><line x1="115.636" y1="112.476" x2="115.636" y2="108.958" class="gray" /></g>
<g><line x1="115.692" y1="104.916" x2="115.79" y2="101.397" class="gray" /></g>
<g><line x1="114.388" y1="97.9768" x2="111.744" y2="95.4369" class="gray" /></g>
<g><line x1="109.89" y1="92.0548" x2="109.202" y2="88.6088" class="gray" /></g>
<g><line x1="109.624" y1="84.7787" x2="111.078" y2="81.495" class="gray" /></g>
<g><line x1="113.576" y1="78.5226" x2="116.506" y2="76.561" class="gray" /></g>
<g><line x1="120.207" y1="75.4368" x2="123.725" y2="75.4368" class="gray" /></g>
<g><line x1="127.408" y1="76.5874" x2="130.164" y2="78.4962" class="gray" /></g>
<g><line x1="132.548" y1="81.5346" x2="133.774" y2="84.7391" class="gray" /></g>
<g><line x1="134.21" y1="88.6276" x2="133.722" y2="92.036" class="gray" /></g>
<g><line x1="131.978" y1="95.4369" x2="129.334" y2="97.9768" class="gray" /></g>
<g><line x1="127.82" y1="101.397" x2="127.722" y2="104.916" class="gray" /></g>
<g><line x1="127.778" y1="108.955" x2="127.974" y2="112.479" class="gray" /></g>
<g><line x1="127.974" y1="116.515" x2="127.778" y2="120.039" class="gray" /></g>
<g><line x1="127.722" y1="124.077" x2="127.82" y2="127.596" class="gray" /></g>
<g><line x1="129.305" y1="131.046" x2="131.797" y2="133.538" class="gray" /></g>
<g><line x1="135.247" y1="134.967" x2="138.555" y2="134.967" class="gray" /></g>
<g><line x1="142.597" y1="134.967" x2="146.325" y2="134.967" class="gray" /></g>
<g><line x1="150.367" y1="134.967" x2="154.085" y2="134.967" class="gray" /></g>
<g><line x1="158.127" y1="134.967" x2="161.235" y2="134.967" class="gray" /></g>
<g><line x1="165.277" y1="134.967" x2="169.005" y2="134.967" class="gray" /></g>
<g><line x1="173.047" y1="134.967" x2="176.565" y2="134.967" class="gray" /></g>
<g><line x1="180.607" y1="134.967" x2="184.125" y2="134.967" class="gray" /></g>
<g><line x1="188.167" y1="134.967" x2="191.475" y2="134.967" class="gray" /></g>
<g><line x1="195.517" y1="134.967" x2="199.445" y2="134.967" class="gray" /></g>
<g><line x1="202.866" y1="133.509" x2="205.206" y2="131.074" class="gray" /></g>
<g><line x1="206.606" y1="127.596" x2="206.606" y2="124.078" class="gray" /></g>
<g><line x1="206.606" y1="120.036" x2="206.606" y2="116.518" class="gray" /></g>
<g><line x1="206.662" y1="112.476" x2="206.76" y2="108.957" class="gray" /></g>
<g><line x1="206.816" y1="104.916" x2="206.816" y2="101.398" class="gray" /></g>
<g><line x1="206.704" y1="97.3588" x2="206.508" y2="93.8349" class="gray" /></g>
<g><line x1="206.452" y1="89.7965" x2="206.55" y2="86.2772" class="gray" /></g>
<g><line x1="206.606" y1="82.2357" x2="206.606" y2="78.718" class="gray" /></g>
<g><line x1="205.104" y1="75.3447" x2="202.608" y2="73.0989" class="gray" /></g>
<g><line x1="200.478" y1="69.8257" x2="199.384" y2="66.478" class="gray" /></g>
<g><line x1="199.097" y1="62.5646" x2="199.675" y2="59.1791" class="gray" /></g>
<g><line x1="201.411" y1="55.7246" x2="203.841" y2="53.179" class="gray" /></g>
<g><line x1="207.191" y1="51.204" x2="210.981" y2="50.2097" class="gray" /></g>
<g><line x1="214.884" y1="50.2365" x2="218.278" y2="51.1771" class="gray" /></g>
<g><line x1="221.591" y1="53.2073" x2="223.871" y2="55.6964" class="gray" /></g>
<g><line x1="225.629" y1="59.1695" x2="226.303" y2="62.5742" class="gray" /></g>
<g><line x1="226.068" y1="66.478" x2="224.974" y2="69.8257" class="gray" /></g>
<g><line x1="222.819" y1="73.0707" x2="220.163" y2="75.3729" class="gray" /></g>
<g><line x1="218.636" y1="78.718" x2="218.636" y2="82.2357" class="gray" /></g>
<g><line x1="220.413" y1="85.2204" x2="223.829" y2="87.0733" class="gray" /></g>
<g><line x1="223.842" y1="89.0233" x2="220.61" y2="90.8304" class="gray" /></g>
<g><line x1="218.846" y1="93.838" x2="218.846" y2="97.3557" class="gray" /></g>
<g><line x1="218.846" y1="101.398" x2="218.846" y2="104.916" class="gray" /></g>
<g><line x1="218.79" y1="108.957" x2="218.692" y2="112.476" class="gray" /></g>
<g><line x1="218.748" y1="116.515" x2="218.944" y2="120.039" class="gray" /></g>
<g><line x1="218.944" y1="124.075" x2="218.748" y2="127.599" class="gray" /></g>
<g><line x1="220.566" y1="129.016" x2="223.926" y2="127.968" class="gray" /></g>
</svg>
