<svg
	xmlns="http://www.w3.org/2000/svg"
	width="225.91"
	height="242.497">
<g><style type="text/css" >
<!-- create color definitions -->
<![CDATA[
circle.red {stroke: rgb(255, 0, 255); fill: none; }
circle.green {stroke: rgb(0, 255, 0); fill: none; }
circle.blue {stroke: rgb(0, 0, 255); fill: none; }
circle.black {stroke: rgb(0, 0, 0); fill: none; }
circle.gray {stroke: rgb(204, 204, 204); fill: none; }
circle.brown {stroke: rgb(211.65, 104.55, 30.6); fill: none; }
line.red {stroke: rgb(255, 0, 255); stroke-width: 0.382275; }
line.green {stroke: rgb(0, 255, 0); stroke-width: 0.382275; }
line.blue {stroke: rgb(0, 0, 255); stroke-width: 0.382275; }
line.black {stroke: rgb(0, 0, 0); stroke-width: 0.382275; }
line.gray {stroke: rgb(204, 204, 204); stroke-width: 0.382275; }
line.brown {stroke: rgb(211.65, 104.55, 30.6); stroke-width: 0.382275; }
line {stroke: rgb(0, 0, 0); }
text.red {fill: rgb(255, 0, 255); font-size: 3.058197px; font-weight: bold; font-family: Helvetica; }
text.green {fill: rgb(0, 255, 0); font-size: 3.058197px; font-weight: bold; font-family: Helvetica; }
text.blue {fill: rgb(0, 0, 255); font-size: 3.058197px; font-weight: bold; font-family: Helvetica; }
text.black {fill: rgb(0, 0, 0); font-size: 3.058197px; font-weight: bold; font-family: Helvetica; }
text.gray {fill: rgb(204, 204, 204); font-size: 3.058197px; font-weight: bold; font-family: Helvetica; }
text.brown {fill: rgb(211.65, 104.55, 30.6); font-size: 3.058197px; font-weight: bold; font-family: Helvetica; }
text {fill: rgb(0, 0, 0); font-size: 3.058197px; font-weight: bold; font-family: Helvetica; text-anchor: middle; alignment-baseline: middle; }

.pseudoknot_connection{stroke-linecap: round; stroke-opacity: 0.2; stroke-width: 1.5; }
.pseudoknot_segment1{stroke-linecap: round; stroke-opacity: 0.4; stroke-width: 3.0582; }
.pseudoknot_segment2{stroke-linecap: round; stroke-opacity: 0.4; stroke-width: 3.0582; }
line.numbering-line{stroke: rgb(204, 204, 204); stroke-width: 0.191137; }
line.predicted{stroke: rgb(0, 0, 0); stroke-dasharray: 2; }
polyline{fill: none; stroke-linejoin: round; }
template{visibility: hidden; }
text.numbering-label{fill: rgb(204, 204, 204); }
]]>
</style></g>
<g><title>0 (position.label in template: 0.5')</title><text x="109.429" y="194.599" class="green" >5'</text></g>
<g><title>1 (position.label in template: 1.A)</title><text x="109.01" y="187.05" class="green" >A</text></g>
<g><line x1="111.049" y1="186.744" x2="119.001" y2="186.744" class="black" /></g>
<g><title>2 (position.label in template: 2.G)</title><text x="108.59" y="179.49" class="black" >G</text></g>
<g><line x1="110.629" y1="179.184" x2="119.001" y2="179.184" class="black" /></g>
<g><title>3 (position.label in template: 3.G)</title><text x="108.59" y="171.93" class="black" >G</text></g>
<g><line x1="110.629" y1="171.624" x2="119.001" y2="171.624" class="black" /></g>
<g><title>4 (position.label in template: 4.G)</title><text x="108.59" y="164.37" class="black" >G</text></g>
<g><line x1="110.629" y1="164.064" x2="119.001" y2="164.064" class="black" /></g>
<g><title>5 (position.label in template: 5.G)</title><text x="108.59" y="156.81" class="black" >G</text></g>
<g><line x1="110.629" y1="156.504" x2="119.001" y2="156.504" class="black" /></g>
<g><title>6 (position.label in template: 6.C)</title><text x="108.8" y="149.25" class="black" >C</text></g>
<g><line x1="110.839" y1="148.944" x2="118.791" y2="148.944" class="black" /></g>
<g><title>7 (position.label in template: 7.A)</title><text x="109.01" y="141.69" class="green" >A</text></g>
<g><line x1="111.049" y1="141.384" x2="119.001" y2="141.384" class="black" /></g>
<g><title>8 (position.label in template: 8.U)</title><text x="102.07" y="138.25" class="green" >T</text></g>
<g><title>9 (position.label in template: 9.A)</title><text x="97.17" y="132.67" class="black" >A</text></g>
<g><title>10 (position.label in template: 10.G)</title><text x="93.94" y="125.66" class="black" >G</text></g>
<g><line x1="94.1562" y1="123.327" x2="95.0238" y2="115.191" class="black" /></g>
<g><text x="89.8869" y="131.221" class="numbering-label sequential" >10</text></g>
<g><line x1="92.8592" y1="127.143" x2="91.0014" y2="129.691" class="numbering-line sequential" /></g>
<g><title>11 (position.label in template: 11.U)</title><text x="86.62" y="124.98" class="green" >T</text></g>
<g><line x1="86.8362" y1="122.647" x2="87.7038" y2="114.511" class="black" /></g>
<g><title>12 (position.label in template: 12.U)</title><text x="79.09" y="124.3" class="green" >T</text></g>
<g><line x1="79.3062" y1="121.967" x2="80.1738" y2="113.831" class="black" /></g>
<g><title>13 (position.label in template: 13.U)</title><text x="71.56" y="123.63" class="green" >T</text></g>
<g><line x1="71.7068" y1="121.291" x2="72.2932" y2="113.168" class="black" /></g>
<g><title>14 (position.label in template: 14.A)</title><text x="65.58" y="127.98" class="black" >A</text></g>
<g><title>15 (position.label in template: 15.A)</title><text x="58.03" y="127.71" class="black" >A</text></g>
<g><title>16 (position.label in template: 16.C)</title><text x="51.97" y="122.92" class="black" >C</text></g>
<g><title>17 (position.label in template: 17.G)</title><text x="50" y="115.56" class="black" >G</text></g>
<g><title>18 (position.label in template: 18.G)</title><text x="53.04" y="108.64" class="black" >G</text></g>
<g><title>19 (position.label in template: 19.U)</title><text x="59.86" y="104.98" class="green" >T</text></g>
<g><title>20 (position.label in template: 20.A)</title><text x="67.55" y="106.05" class="black" >A</text></g>
<g><text x="70.6932" y="99.9289" class="numbering-label sequential" >20</text></g>
<g><line x1="68.3882" y1="104.418" x2="69.908" y2="101.458" class="numbering-line sequential" /></g>
<g><title>21 (position.label in template: 21.G)</title><text x="72.44" y="111.44" class="green" >G</text></g>
<g><title>22 (position.label in template: 22.A)</title><text x="80.39" y="112.11" class="green" >A</text></g>
<g><title>23 (position.label in template: 23.A)</title><text x="87.92" y="112.79" class="green" >A</text></g>
<g><title>24 (position.label in template: 24.C)</title><text x="95.24" y="113.47" class="black" >C</text></g>
<g><title>25 (position.label in template: 25.A)</title><text x="99.47" y="107.07" class="black" >A</text></g>
<g><title>26 (position.label in template: 26.A)</title><text x="105.49" y="102.48" class="green" >A</text></g>
<g><line x1="107.495" y1="101.805" x2="115.325" y2="100.363" class="black" /></g>
<g><title>27 (position.label in template: 27.A)</title><text x="104.14" y="95.05" class="green" >A</text></g>
<g><line x1="106.145" y1="94.3734" x2="113.975" y2="92.925" class="black" /></g>
<g><title>28 (position.label in template: 28.G)</title><text x="102.38" y="87.61" class="black" >G</text></g>
<g><line x1="104.387" y1="86.947" x2="112.623" y2="85.4814" class="black" /></g>
<g><title>29 (position.label in template: 29.G)</title><text x="101.03" y="80.17" class="black" >G</text></g>
<g><line x1="103.037" y1="79.507" x2="111.273" y2="78.0414" class="black" /></g>
<g><title>30 (position.label in template: 30.U)</title><text x="99.89" y="72.73" class="green" >T</text></g>
<g><line x1="101.897" y1="72.067" x2="110.133" y2="70.6014" class="black" /></g>
<g><text x="93.9094" y="76.1329" class="numbering-label sequential" >30</text></g>
<g><line x1="98.2952" y1="73.6374" x2="95.7443" y2="75.0888" class="numbering-line sequential" /></g>
<g><title>31 (position.label in template: 31.C)</title><text x="94.06" y="67.92" class="black" >C</text></g>
<g><title>32 (position.label in template: 32.U)</title><text x="92.31" y="60.57" class="green" >T</text></g>
<g><title>33 (position.label in template: 33.C)</title><text x="95.38" y="53.66" class="black" >C</text></g>
<g><title>34 (position.label in template: 34.C)</title><text x="102" y="50" class="black" >C</text></g>
<g><title>35 (position.label in template: 35.A)</title><text x="109.68" y="51.1" class="black" >A</text></g>
<g><title>36 (position.label in template: 36.A)</title><text x="114.98" y="56.5" class="black" >A</text></g>
<g><title>37 (position.label in template: 37.A)</title><text x="115.92" y="64" class="black" >A</text></g>
<g><title>38 (position.label in template: 38.A)</title><text x="112.14" y="70.55" class="green" >A</text></g>
<g><title>39 (position.label in template: 39.C)</title><text x="113.28" y="77.99" class="black" >C</text></g>
<g><title>40 (position.label in template: 40.C)</title><text x="114.63" y="85.43" class="black" >C</text></g>
<g><title>41 (position.label in template: 41.U)</title><text x="115.98" y="92.86" class="green" >T</text></g>
<g><title>42 (position.label in template: 42.U)</title><text x="117.33" y="100.3" class="green" >T</text></g>
<g><title>43 (position.label in template: 43.U)</title><text x="124.56" y="102.48" class="green" >T</text></g>
<g><title>44 (position.label in template: 44.G)</title><text x="130.37" y="107.07" class="black" >G</text></g>
<g><title>45 (position.label in template: 45.G)</title><text x="134.39" y="113.47" class="black" >G</text></g>
<g><title>46 (position.label in template: 46.C)</title><text x="136.13" y="120.87" class="black" >C</text></g>
<g><title>47 (position.label in template: 47.G)</title><text x="134.75" y="128.34" class="black" >G</text></g>
<g><line x1="133.577" y1="129.702" x2="128.953" y2="136.277" class="black" /></g>
<g><title>48 (position.label in template: 48.U)</title><text x="141.08" y="132.77" class="green" >T</text></g>
<g><line x1="139.908" y1="134.132" x2="135.282" y2="140.716" class="black" /></g>
<g><title>49 (position.label in template: 49.G)</title><text x="146.99" y="137.21" class="green" >G</text></g>
<g><line x1="145.817" y1="138.572" x2="141.193" y2="145.147" class="black" /></g>
<g><title>50 (position.label in template: 50.G)</title><text x="153.11" y="141.65" class="black" >G</text></g>
<g><line x1="151.937" y1="143.012" x2="147.313" y2="149.587" class="black" /></g>
<g><text x="157.146" y="136.077" class="numbering-label sequential" >50</text></g>
<g><line x1="154.186" y1="140.164" x2="156.038" y2="137.606" class="numbering-line sequential" /></g>
<g><title>51 (position.label in template: 51.G)</title><text x="159.24" y="146.08" class="black" >G</text></g>
<g><line x1="158.066" y1="147.441" x2="153.434" y2="154.017" class="black" /></g>
<g><title>52 (position.label in template: 52.U)</title><text x="166.98" y="145.51" class="green" >T</text></g>
<g><title>53 (position.label in template: 53.U)</title><text x="173.33" y="149.61" class="green" >T</text></g>
<g><title>54 (position.label in template: 54.C)</title><text x="175.91" y="156.72" class="black" >C</text></g>
<g><title>55 (position.label in template: 55.G)</title><text x="173.45" y="163.94" class="black" >G</text></g>
<g><title>56 (position.label in template: 56.A)</title><text x="167.7" y="168.33" class="black" >A</text></g>
<g><title>57 (position.label in template: 57.U)</title><text x="159.94" y="168.09" class="green" >T</text></g>
<g><title>58 (position.label in template: 58.U)</title><text x="154.07" y="163.34" class="green" >T</text></g>
<g><title>59 (position.label in template: 59.C)</title><text x="152.26" y="155.99" class="black" >C</text></g>
<g><title>60 (position.label in template: 60.C)</title><text x="146.14" y="151.56" class="black" >C</text></g>
<g><title>61 (position.label in template: 61.U)</title><text x="140.02" y="147.12" class="green" >T</text></g>
<g><title>62 (position.label in template: 62.A)</title><text x="134.11" y="142.69" class="green" >A</text></g>
<g><title>63 (position.label in template: 63.C)</title><text x="127.78" y="138.25" class="black" >C</text></g>
<g><title>64 (position.label in template: 64.U)</title><text x="121.04" y="141.69" class="green" >T</text></g>
<g><title>65 (position.label in template: 65.G)</title><text x="120.83" y="149.25" class="black" >G</text></g>
<g><title>66 (position.label in template: 66.C)</title><text x="121.04" y="156.81" class="black" >C</text></g>
<g><title>67 (position.label in template: 67.C)</title><text x="121.04" y="164.37" class="black" >C</text></g>
<g><title>68 (position.label in template: 68.C)</title><text x="121.04" y="171.93" class="black" >C</text></g>
<g><title>69 (position.label in template: 69.C)</title><text x="121.04" y="179.49" class="black" >C</text></g>
<g><title>70 (position.label in template: 70.U)</title><text x="121.04" y="187.05" class="green" >T</text></g>
<g><title>71 (position.label in template: 71.G)</title><text x="126.283" y="192.497" class="black" >G</text></g>
<g><title>72 (position.label in template: 72.3')</title><text x="121.067" y="197.97" class="green" >3'</text></g>
<g><line x1="109.316" y1="192.257" x2="109.123" y2="188.78" class="gray" /></g>
<g><line x1="108.897" y1="184.709" x2="108.703" y2="181.22" class="gray" /></g>
<g><line x1="108.59" y1="177.145" x2="108.59" y2="173.663" class="gray" /></g>
<g><line x1="108.59" y1="169.585" x2="108.59" y2="166.103" class="gray" /></g>
<g><line x1="108.59" y1="162.025" x2="108.59" y2="158.543" class="gray" /></g>
<g><line x1="108.647" y1="154.466" x2="108.743" y2="150.982" class="gray" /></g>
<g><line x1="108.857" y1="146.906" x2="108.953" y2="143.422" class="gray" /></g>
<g><line x1="107.183" y1="140.479" x2="103.897" y2="138.85" class="gray" /></g>
<g><line x1="100.725" y1="136.412" x2="98.5153" y2="133.896" class="gray" /></g>
<g><line x1="96.3168" y1="130.512" x2="94.7932" y2="127.206" class="gray" /></g>
<g><line x1="91.9099" y1="125.166" x2="88.6501" y2="124.863" class="gray" /></g>
<g><line x1="84.5895" y1="124.491" x2="81.1205" y2="124.178" class="gray" /></g>
<g><line x1="77.0592" y1="123.813" x2="73.5908" y2="123.505" class="gray" /></g>
<g><line x1="69.9113" y1="124.524" x2="67.2287" y2="126.475" class="gray" /></g>
<g><line x1="63.5425" y1="127.601" x2="60.0675" y2="127.477" class="gray" /></g>
<g><line x1="56.4305" y1="126.14" x2="53.5695" y2="123.878" class="gray" /></g>
<g><line x1="51.4428" y1="120.645" x2="50.5272" y2="117.224" class="gray" /></g>
<g><line x1="50.82" y1="113.388" x2="52.22" y2="110.201" class="gray" /></g>
<g><line x1="54.8365" y1="107.37" x2="58.0635" y2="105.638" class="gray" /></g>
<g><line x1="61.8793" y1="104.955" x2="65.5307" y2="105.463" class="gray" /></g>
<g><line x1="68.9199" y1="107.254" x2="71.0701" y2="109.624" class="gray" /></g>
<g><line x1="74.4716" y1="111.305" x2="78.3584" y2="111.633" class="gray" /></g>
<g><line x1="82.4205" y1="111.988" x2="85.8895" y2="112.301" class="gray" /></g>
<g><line x1="89.9501" y1="112.673" x2="93.2099" y2="112.976" class="gray" /></g>
<g><line x1="96.3642" y1="111.463" x2="98.3458" y2="108.465" class="gray" /></g>
<g><line x1="101.091" y1="105.528" x2="103.869" y2="103.41" class="gray" /></g>
<g><line x1="105.126" y1="100.168" x2="104.504" y2="96.7501" class="gray" /></g>
<g><line x1="103.671" y1="92.7601" x2="102.849" y2="89.2882" class="gray" /></g>
<g><line x1="102.016" y1="85.2981" x2="101.394" y2="81.8702" class="gray" /></g>
<g><line x1="100.721" y1="77.8489" x2="100.199" y2="74.4395" class="gray" /></g>
<g><line x1="98.3174" y1="71.1267" x2="95.6326" y2="68.9117" class="gray" /></g>
<g><line x1="93.5878" y1="65.6308" x2="92.7822" y2="62.2475" class="gray" /></g>
<g><line x1="93.1378" y1="58.401" x2="94.5522" y2="55.2174" class="gray" /></g>
<g><line x1="97.1643" y1="52.3677" x2="100.216" y2="50.6806" class="gray" /></g>
<g><line x1="104.018" y1="49.9832" x2="107.662" y2="50.5051" class="gray" /></g>
<g><line x1="111.108" y1="52.2492" x2="113.552" y2="54.7391" class="gray" /></g>
<g><line x1="115.234" y1="58.2172" x2="115.666" y2="61.6712" class="gray" /></g>
<g><line x1="114.901" y1="65.46" x2="113.159" y2="68.4783" class="gray" /></g>
<g><line x1="112.449" y1="72.2595" x2="112.971" y2="75.6689" class="gray" /></g>
<g><line x1="113.644" y1="79.6902" x2="114.266" y2="83.1181" class="gray" /></g>
<g><line x1="114.994" y1="87.1301" x2="115.616" y2="90.5482" class="gray" /></g>
<g><line x1="116.344" y1="94.5602" x2="116.966" y2="97.9881" class="gray" /></g>
<g><line x1="119.282" y1="100.583" x2="122.608" y2="101.586" class="gray" /></g>
<g><line x1="126.16" y1="103.438" x2="128.77" y2="105.5" class="gray" /></g>
<g><line x1="131.454" y1="108.491" x2="133.306" y2="111.438" class="gray" /></g>
<g><line x1="134.857" y1="115.149" x2="135.663" y2="118.58" class="gray" /></g>
<g><line x1="135.76" y1="122.569" x2="135.12" y2="126.029" class="gray" /></g>
<g><line x1="136.42" y1="129.203" x2="139.41" y2="131.295" class="gray" /></g>
<g><line x1="142.71" y1="133.689" x2="145.36" y2="135.68" class="gray" /></g>
<g><line x1="148.64" y1="138.101" x2="151.46" y2="140.147" class="gray" /></g>
<g><line x1="154.762" y1="142.538" x2="157.588" y2="144.58" class="gray" /></g>
<g><line x1="161.273" y1="145.624" x2="164.947" y2="145.354" class="gray" /></g>
<g><line x1="168.693" y1="146.31" x2="171.617" y2="148.198" class="gray" /></g>
<g><line x1="174.025" y1="151.221" x2="175.215" y2="154.498" class="gray" /></g>
<g><line x1="175.252" y1="158.344" x2="174.108" y2="161.704" class="gray" /></g>
<g><line x1="171.83" y1="164.871" x2="169.32" y2="166.787" class="gray" /></g>
<g><line x1="165.662" y1="167.961" x2="161.978" y2="167.847" class="gray" /></g>
<g><line x1="158.355" y1="166.502" x2="155.655" y2="164.317" class="gray" /></g>
<g><line x1="153.582" y1="161.055" x2="152.748" y2="157.664" class="gray" /></g>
<g><line x1="150.608" y1="154.489" x2="147.792" y2="152.45" class="gray" /></g>
<g><line x1="144.49" y1="150.057" x2="141.67" y2="148.011" class="gray" /></g>
<g><line x1="138.389" y1="145.591" x2="135.741" y2="143.607" class="gray" /></g>
<g><line x1="132.441" y1="141.213" x2="129.449" y2="139.115" class="gray" /></g>
<g><line x1="125.964" y1="138.871" x2="122.856" y2="140.457" class="gray" /></g>
<g><line x1="120.983" y1="143.422" x2="120.887" y2="146.906" class="gray" /></g>
<g><line x1="120.887" y1="150.982" x2="120.983" y2="154.466" class="gray" /></g>
<g><line x1="121.04" y1="158.543" x2="121.04" y2="162.025" class="gray" /></g>
<g><line x1="121.04" y1="166.103" x2="121.04" y2="169.585" class="gray" /></g>
<g><line x1="121.04" y1="173.663" x2="121.04" y2="177.145" class="gray" /></g>
<g><line x1="121.04" y1="181.223" x2="121.04" y2="184.705" class="gray" /></g>
<g><line x1="122.454" y1="188.213" x2="124.869" y2="190.722" class="gray" /></g>
<g><line x1="124.876" y1="193.667" x2="122.474" y2="196.188" class="gray" /></g>
</svg>
