<svg
	xmlns="http://www.w3.org/2000/svg"
	width="278.485"
	height="259.983">
<g><style type="text/css" >
<!-- create color definitions -->
<![CDATA[
circle.red {stroke: rgb(255, 0, 255); fill: none; }
circle.green {stroke: rgb(0, 255, 0); fill: none; }
circle.blue {stroke: rgb(0, 0, 255); fill: none; }
circle.black {stroke: rgb(0, 0, 0); fill: none; }
circle.gray {stroke: rgb(204, 204, 204); fill: none; }
circle.brown {stroke: rgb(211.65, 104.55, 30.6); fill: none; }
line.red {stroke: rgb(255, 0, 255); stroke-width: 0.383272; }
line.green {stroke: rgb(0, 255, 0); stroke-width: 0.383272; }
line.blue {stroke: rgb(0, 0, 255); stroke-width: 0.383272; }
line.black {stroke: rgb(0, 0, 0); stroke-width: 0.383272; }
line.gray {stroke: rgb(204, 204, 204); stroke-width: 0.383272; }
line.brown {stroke: rgb(211.65, 104.55, 30.6); stroke-width: 0.383272; }
line {stroke: rgb(0, 0, 0); }
text.red {fill: rgb(255, 0, 255); font-size: 3.066176px; font-weight: bold; font-family: Helvetica; }
text.green {fill: rgb(0, 255, 0); font-size: 3.066176px; font-weight: bold; font-family: Helvetica; }
text.blue {fill: rgb(0, 0, 255); font-size: 3.066176px; font-weight: bold; font-family: Helvetica; }
text.black {fill: rgb(0, 0, 0); font-size: 3.066176px; font-weight: bold; font-family: Helvetica; }
text.gray {fill: rgb(204, 204, 204); font-size: 3.066176px; font-weight: bold; font-family: Helvetica; }
text.brown {fill: rgb(211.65, 104.55, 30.6); font-size: 3.066176px; font-weight: bold; font-family: Helvetica; }
text {fill: rgb(0, 0, 0); font-size: 3.066176px; font-weight: bold; font-family: Helvetica; text-anchor: middle; alignment-baseline: middle; }

.pseudoknot_connection{stroke-linecap: round; stroke-opacity: 0.2; stroke-width: 1.5; }
.pseudoknot_segment1{stroke-linecap: round; stroke-opacity: 0.4; stroke-width: 3.06618; }
.pseudoknot_segment2{stroke-linecap: round; stroke-opacity: 0.4; stroke-width: 3.06618; }
line.numbering-line{stroke: rgb(204, 204, 204); stroke-width: 0.191636; }
line.predicted{stroke: rgb(0, 0, 0); stroke-dasharray: 2; }
polyline{fill: none; stroke-linejoin: round; }
template{visibility: hidden; }
text.numbering-label{fill: rgb(204, 204, 204); }
]]>
</style></g>
<g><title>0 (position.label in template: 0.5')</title><text x="42.4386" y="209.983" class="green" >5'</text></g>
<g><title>1 (position.label in template: 1.C)</title><text x="50" y="209.983" class="black" >C</text></g>
<g><title>2 (position.label in template: 2.U)</title><text x="57.5614" y="209.983" class="green" >T</text></g>
<g><title>3 (position.label in template: 3.C)</title><text x="65.1228" y="209.983" class="black" >C</text></g>
<g><title>4 (position.label in template: 4.U)</title><text x="72.6842" y="209.983" class="green" >T</text></g>
<g><title>5 (position.label in template: 5.A)</title><text x="80.2456" y="209.983" class="black" >A</text></g>
<g><title>6 (position.label in template: 6.C)</title><text x="87.807" y="209.983" class="black" >C</text></g>
<g><title>7 (position.label in template: 7.G)</title><text x="95.3684" y="209.983" class="black" >G</text></g>
<g><title>8 (position.label in template: 8.G)</title><text x="102.93" y="209.983" class="black" >G</text></g>
<g><title>9 (position.label in template: 9.C)</title><text x="110.491" y="209.983" class="black" >C</text></g>
<g><title>10 (position.label in template: 10.C)</title><text x="118.053" y="209.983" class="black" >C</text></g>
<g><text x="118.053" y="216.882" class="numbering-label sequential" >10</text></g>
<g><line x1="118.053" y1="211.822" x2="118.053" y2="215.348" class="numbering-line sequential" /></g>
<g><title>11 (position.label in template: 11.A)</title><text x="125.614" y="209.983" class="black" >A</text></g>
<g><title>12 (position.label in template: 12.U)</title><text x="133.175" y="209.983" class="green" >T</text></g>
<g><title>13 (position.label in template: 13.A)</title><text x="140.737" y="209.983" class="black" >A</text></g>
<g><title>14 (position.label in template: 14.U)</title><text x="145.975" y="204.53" class="green" >T</text></g>
<g><line x1="148.02" y1="204.223" x2="156.381" y2="204.223" class="black" /></g>
<g><title>15 (position.label in template: 15.C)</title><text x="145.975" y="196.97" class="black" >C</text></g>
<g><line x1="148.02" y1="196.663" x2="156.381" y2="196.663" class="black" /></g>
<g><title>16 (position.label in template: 16.A)</title><text x="146.185" y="189.41" class="green" >A</text></g>
<g><line x1="148.23" y1="189.103" x2="156.171" y2="189.103" class="black" /></g>
<g><title>17 (position.label in template: 17.C)</title><text x="145.975" y="181.85" class="black" >C</text></g>
<g><line x1="148.02" y1="181.543" x2="155.961" y2="181.543" class="black" /></g>
<g><title>18 (position.label in template: 18.G)</title><text x="145.765" y="174.29" class="black" >G</text></g>
<g><line x1="147.81" y1="173.983" x2="156.171" y2="173.983" class="black" /></g>
<g><title>19 (position.label in template: 19.U)</title><text x="145.975" y="166.73" class="green" >T</text></g>
<g><line x1="148.02" y1="166.423" x2="155.961" y2="166.423" class="black" /></g>
<g><title>20 (position.label in template: 20.U)</title><text x="145.975" y="159.17" class="green" >T</text></g>
<g><line x1="148.02" y1="158.863" x2="156.381" y2="158.863" class="black" /></g>
<g><text x="139.077" y="159.266" class="numbering-label sequential" >20</text></g>
<g><line x1="144.136" y1="159.196" x2="140.917" y2="159.24" class="numbering-line sequential" /></g>
<g><title>21 (position.label in template: 21.G)</title><text x="145.765" y="151.61" class="green" >G</text></g>
<g><line x1="147.81" y1="151.303" x2="156.171" y2="151.303" class="black" /></g>
<g><title>22 (position.label in template: 22.A)</title><text x="139.305" y="148.47" class="black" >A</text></g>
<g><title>23 (position.label in template: 23.A)</title><text x="133.805" y="143.29" class="black" >A</text></g>
<g><title>24 (position.label in template: 24.A)</title><text x="130.255" y="136.61" class="black" >A</text></g>
<g><title>25 (position.label in template: 25.A)</title><text x="129.025" y="129.15" class="black" >A</text></g>
<g><title>26 (position.label in template: 26.C)</title><text x="130.045" y="121.69" class="black" >C</text></g>
<g><title>27 (position.label in template: 27.A)</title><text x="133.805" y="115.02" class="black" >A</text></g>
<g><title>28 (position.label in template: 28.C)</title><text x="139.105" y="109.84" class="black" >C</text></g>
<g><title>29 (position.label in template: 29.C)</title><text x="145.975" y="106.69" class="black" >C</text></g>
<g><line x1="148.02" y1="106.383" x2="155.961" y2="106.383" class="black" /></g>
<g><title>30 (position.label in template: 30.G)</title><text x="145.765" y="99.13" class="green" >G</text></g>
<g><line x1="147.81" y1="98.8234" x2="156.171" y2="98.8234" class="black" /></g>
<g><text x="138.867" y="99.2258" class="numbering-label sequential" >30</text></g>
<g><line x1="143.926" y1="99.1555" x2="140.707" y2="99.2003" class="numbering-line sequential" /></g>
<g><title>31 (position.label in template: 31.G)</title><text x="145.765" y="91.57" class="black" >G</text></g>
<g><line x1="147.81" y1="91.2634" x2="156.171" y2="91.2634" class="black" /></g>
<g><title>32 (position.label in template: 32.U)</title><text x="145.975" y="84.01" class="green" >T</text></g>
<g><line x1="148.02" y1="83.7034" x2="156.171" y2="83.7034" class="black" /></g>
<g><title>33 (position.label in template: 33.U)</title><text x="139.595" y="79.95" class="green" >T</text></g>
<g><title>34 (position.label in template: 34.C)</title><text x="135.485" y="73.61" class="black" >C</text></g>
<g><title>35 (position.label in template: 35.U)</title><text x="134.385" y="66.13" class="green" >T</text></g>
<g><title>36 (position.label in template: 36.C)</title><text x="136.495" y="58.87" class="black" >C</text></g>
<g><title>37 (position.label in template: 37.G)</title><text x="141.235" y="53.15" class="black" >G</text></g>
<g><title>38 (position.label in template: 38.U)</title><text x="148.315" y="50" class="green" >T</text></g>
<g><title>39 (position.label in template: 39.U)</title><text x="155.875" y="50" class="green" >T</text></g>
<g><title>40 (position.label in template: 40.C)</title><text x="162.745" y="53.15" class="black" >C</text></g>
<g><title>41 (position.label in template: 41.G)</title><text x="167.485" y="58.87" class="black" >G</text></g>
<g><title>42 (position.label in template: 42.A)</title><text x="170.015" y="66.13" class="black" >A</text></g>
<g><title>43 (position.label in template: 43.U)</title><text x="168.705" y="73.61" class="green" >T</text></g>
<g><title>44 (position.label in template: 44.C)</title><text x="164.595" y="79.95" class="black" >C</text></g>
<g><title>45 (position.label in template: 45.C)</title><text x="158.215" y="84.01" class="green" >C</text></g>
<g><title>46 (position.label in template: 46.C)</title><text x="158.215" y="91.57" class="black" >C</text></g>
<g><title>47 (position.label in template: 47.U)</title><text x="158.215" y="99.13" class="green" >T</text></g>
<g><title>48 (position.label in template: 48.G)</title><text x="158.005" y="106.69" class="black" >G</text></g>
<g><title>49 (position.label in template: 49.A)</title><text x="165.795" y="108.34" class="black" >A</text></g>
<g><title>50 (position.label in template: 50.A)</title><text x="172.215" y="112.34" class="black" >A</text></g>
<g><text x="176.894" y="107.27" class="numbering-label sequential" >50</text></g>
<g><line x1="173.463" y1="110.988" x2="175.479" y2="108.803" class="numbering-line sequential" /></g>
<g><title>51 (position.label in template: 51.G)</title><text x="176.525" y="118.24" class="black" >G</text></g>
<g><title>52 (position.label in template: 52.U)</title><text x="179.245" y="125.37" class="green" >T</text></g>
<g><title>53 (position.label in template: 53.U)</title><text x="179.245" y="132.93" class="green" >T</text></g>
<g><title>54 (position.label in template: 54.A)</title><text x="176.945" y="140.07" class="black" >A</text></g>
<g><title>55 (position.label in template: 55.A)</title><text x="172.215" y="145.96" class="black" >A</text></g>
<g><title>56 (position.label in template: 56.G)</title><text x="165.385" y="149.96" class="black" >G</text></g>
<g><title>57 (position.label in template: 57.U)</title><text x="158.215" y="151.61" class="green" >T</text></g>
<g><title>58 (position.label in template: 58.A)</title><text x="158.425" y="159.17" class="green" >A</text></g>
<g><title>59 (position.label in template: 59.G)</title><text x="158.005" y="166.73" class="green" >G</text></g>
<g><title>60 (position.label in template: 60.C)</title><text x="158.215" y="174.29" class="black" >C</text></g>
<g><title>61 (position.label in template: 61.G)</title><text x="158.005" y="181.85" class="black" >G</text></g>
<g><title>62 (position.label in template: 62.U)</title><text x="158.215" y="189.41" class="green" >T</text></g>
<g><title>63 (position.label in template: 63.C)</title><text x="164.765" y="193.19" class="black" >C</text></g>
<g><title>64 (position.label in template: 64.A)</title><text x="158.425" y="196.97" class="black" >A</text></g>
<g><title>65 (position.label in template: 65.A)</title><text x="158.425" y="204.53" class="green" >A</text></g>
<g><title>66 (position.label in template: 66.A)</title><text x="163.765" y="209.88" class="black" >A</text></g>
<g><title>67 (position.label in template: 67.C)</title><text x="168.905" y="204.53" class="black" >C</text></g>
<g><line x1="170.95" y1="204.223" x2="178.891" y2="204.223" class="black" /></g>
<g><title>68 (position.label in template: 68.U)</title><text x="168.905" y="196.97" class="green" >T</text></g>
<g><line x1="170.95" y1="196.663" x2="179.311" y2="196.663" class="black" /></g>
<g><title>69 (position.label in template: 69.A)</title><text x="169.115" y="189.41" class="black" >A</text></g>
<g><line x1="171.16" y1="189.103" x2="179.101" y2="189.103" class="black" /></g>
<g><title>70 (position.label in template: 70.C)</title><text x="168.905" y="181.85" class="black" >C</text></g>
<g><line x1="170.95" y1="181.543" x2="178.891" y2="181.543" class="black" /></g>
<g><title>71 (position.label in template: 71.U)</title><text x="168.905" y="174.29" class="green" >T</text></g>
<g><line x1="170.95" y1="173.983" x2="179.311" y2="173.983" class="black" /></g>
<g><title>72 (position.label in template: 72.U)</title><text x="161.475" y="172.91" class="green" >T</text></g>
<g><title>73 (position.label in template: 73.A)</title><text x="154.515" y="170.49" class="black" >A</text></g>
<g><title>74 (position.label in template: 74.A)</title><text x="147.765" y="167.09" class="black" >A</text></g>
<g><title>75 (position.label in template: 75.G)</title><text x="141.135" y="162.78" class="black" >G</text></g>
<g><title>76 (position.label in template: 76.U)</title><text x="135.805" y="157.64" class="green" >T</text></g>
<g><title>77 (position.label in template: 77.U)</title><text x="131.035" y="151.77" class="green" >T</text></g>
<g><title>78 (position.label in template: 78.A)</title><text x="127.355" y="145.29" class="black" >A</text></g>
<g><title>79 (position.label in template: 79.A)</title><text x="124.405" y="138.33" class="black" >A</text></g>
<g><title>80 (position.label in template: 80.G)</title><text x="122.045" y="131.02" class="black" >G</text></g>
<g><title>81 (position.label in template: 81.G)</title><text x="121.145" y="123.52" class="black" >G</text></g>
<g><title>82 (position.label in template: 82.U)</title><text x="121.525" y="115.96" class="green" >T</text></g>
<g><title>83 (position.label in template: 83.G)</title><text x="122.535" y="108.5" class="black" >G</text></g>
<g><title>84 (position.label in template: 84.U)</title><text x="125.005" y="101.28" class="green" >T</text></g>
<g><title>85 (position.label in template: 85.U)</title><text x="128.255" y="94.46" class="green" >T</text></g>
<g><title>86 (position.label in template: 86.G)</title><text x="132.225" y="88.16" class="black" >G</text></g>
<g><title>87 (position.label in template: 87.C)</title><text x="137.455" y="82.5" class="black" >C</text></g>
<g><title>88 (position.label in template: 88.A)</title><text x="143.415" y="77.61" class="black" >A</text></g>
<g><title>89 (position.label in template: 89.A)</title><text x="149.815" y="73.57" class="black" >A</text></g>
<g><title>90 (position.label in template: 90.A)</title><text x="156.705" y="70.47" class="black" >A</text></g>
<g><title>91 (position.label in template: 91.C)</title><text x="163.765" y="68.37" class="black" >C</text></g>
<g><title>92 (position.label in template: 92.A)</title><text x="171.455" y="67.31" class="black" >A</text></g>
<g><title>93 (position.label in template: 93.U)</title><text x="178.805" y="67.31" class="green" >T</text></g>
<g><title>94 (position.label in template: 94.C)</title><text x="186.295" y="68.37" class="black" >C</text></g>
<g><title>95 (position.label in template: 95.U)</title><text x="193.555" y="70.47" class="green" >T</text></g>
<g><title>96 (position.label in template: 96.U)</title><text x="200.455" y="73.57" class="green" >T</text></g>
<g><title>97 (position.label in template: 97.A)</title><text x="207.045" y="77.61" class="black" >A</text></g>
<g><title>98 (position.label in template: 98.A)</title><text x="212.815" y="82.5" class="black" >A</text></g>
<g><title>99 (position.label in template: 99.A)</title><text x="217.825" y="88.16" class="black" >A</text></g>
<g><title>100 (position.label in template: 100.U)</title><text x="221.795" y="94.46" class="green" >T</text></g>
<g><text x="227.84" y="91.1339" class="numbering-label sequential" >100</text></g>
<g><line x1="223.407" y1="93.573" x2="225.054" y2="92.667" class="numbering-line sequential" /></g>
<g><title>101 (position.label in template: 101.U)</title><text x="225.045" y="101.28" class="green" >T</text></g>
<g><title>102 (position.label in template: 102.A)</title><text x="227.515" y="108.5" class="black" >A</text></g>
<g><title>103 (position.label in template: 103.G)</title><text x="228.325" y="115.96" class="black" >G</text></g>
<g><title>104 (position.label in template: 104.G)</title><text x="228.485" y="123.52" class="black" >G</text></g>
<g><title>105 (position.label in template: 105.C)</title><text x="227.795" y="131.02" class="black" >C</text></g>
<g><title>106 (position.label in template: 106.G)</title><text x="225.645" y="138.33" class="black" >G</text></g>
<g><title>107 (position.label in template: 107.C)</title><text x="222.915" y="145.29" class="black" >C</text></g>
<g><title>108 (position.label in template: 108.A)</title><text x="219.225" y="151.77" class="black" >A</text></g>
<g><title>109 (position.label in template: 109.G)</title><text x="214.035" y="157.64" class="black" >G</text></g>
<g><title>110 (position.label in template: 110.G)</title><text x="208.495" y="162.78" class="black" >G</text></g>
<g><title>111 (position.label in template: 111.C)</title><text x="202.495" y="167.09" class="black" >C</text></g>
<g><title>112 (position.label in template: 112.A)</title><text x="195.945" y="170.49" class="black" >A</text></g>
<g><title>113 (position.label in template: 113.U)</title><text x="188.575" y="172.91" class="green" >T</text></g>
<g><title>114 (position.label in template: 114.A)</title><text x="181.355" y="174.29" class="green" >A</text></g>
<g><title>115 (position.label in template: 115.G)</title><text x="180.935" y="181.85" class="black" >G</text></g>
<g><title>116 (position.label in template: 116.C)</title><text x="181.145" y="189.41" class="black" >C</text></g>
<g><title>117 (position.label in template: 117.A)</title><text x="181.355" y="196.97" class="green" >A</text></g>
<g><title>118 (position.label in template: 118.G)</title><text x="180.935" y="204.53" class="black" >G</text></g>
<g><title>119 (position.label in template: 119.3')</title><text x="188.155" y="202.281" class="green" >3'</text></g>
<g><line x1="44.4827" y1="209.676" x2="47.9559" y2="209.676" class="gray" /></g>
<g><line x1="52.0441" y1="209.676" x2="55.5173" y2="209.676" class="gray" /></g>
<g><line x1="59.6055" y1="209.676" x2="63.0787" y2="209.676" class="gray" /></g>
<g><line x1="67.1669" y1="209.676" x2="70.6401" y2="209.676" class="gray" /></g>
<g><line x1="74.7283" y1="209.676" x2="78.2015" y2="209.676" class="gray" /></g>
<g><line x1="82.2897" y1="209.676" x2="85.7629" y2="209.676" class="gray" /></g>
<g><line x1="89.8511" y1="209.676" x2="93.3243" y2="209.676" class="gray" /></g>
<g><line x1="97.4125" y1="209.676" x2="100.886" y2="209.676" class="gray" /></g>
<g><line x1="104.974" y1="209.676" x2="108.447" y2="209.676" class="gray" /></g>
<g><line x1="112.535" y1="209.676" x2="116.009" y2="209.676" class="gray" /></g>
<g><line x1="120.097" y1="209.676" x2="123.57" y2="209.676" class="gray" /></g>
<g><line x1="127.658" y1="209.676" x2="131.131" y2="209.676" class="gray" /></g>
<g><line x1="135.22" y1="209.676" x2="138.693" y2="209.676" class="gray" /></g>
<g><line x1="142.153" y1="208.202" x2="144.559" y2="205.697" class="gray" /></g>
<g><line x1="145.975" y1="202.179" x2="145.975" y2="198.707" class="gray" /></g>
<g><line x1="146.032" y1="194.62" x2="146.129" y2="191.147" class="gray" /></g>
<g><line x1="146.129" y1="187.06" x2="146.032" y2="183.587" class="gray" /></g>
<g><line x1="145.919" y1="179.5" x2="145.822" y2="176.027" class="gray" /></g>
<g><line x1="145.822" y1="171.94" x2="145.919" y2="168.467" class="gray" /></g>
<g><line x1="145.975" y1="164.379" x2="145.975" y2="160.907" class="gray" /></g>
<g><line x1="145.919" y1="156.82" x2="145.822" y2="153.347" class="gray" /></g>
<g><line x1="143.927" y1="150.41" x2="141.144" y2="149.057" class="gray" /></g>
<g><line x1="137.817" y1="146.762" x2="135.294" y2="144.385" class="gray" /></g>
<g><line x1="132.846" y1="141.178" x2="131.215" y2="138.108" class="gray" /></g>
<g><line x1="129.923" y1="134.286" x2="129.358" y2="130.86" class="gray" /></g>
<g><line x1="129.302" y1="126.818" x2="129.769" y2="123.409" class="gray" /></g>
<g><line x1="131.049" y1="119.603" x2="132.802" y2="116.494" class="gray" /></g>
<g><line x1="135.267" y1="113.285" x2="137.644" y2="110.962" class="gray" /></g>
<g><line x1="140.964" y1="108.681" x2="144.117" y2="107.235" class="gray" /></g>
<g><line x1="145.919" y1="104.34" x2="145.822" y2="100.867" class="gray" /></g>
<g><line x1="145.765" y1="96.7793" x2="145.765" y2="93.3075" class="gray" /></g>
<g><line x1="145.822" y1="89.2201" x2="145.919" y2="85.7467" class="gray" /></g>
<g><line x1="144.251" y1="82.6059" x2="141.32" y2="80.7408" class="gray" /></g>
<g><line x1="138.484" y1="77.9281" x2="136.597" y2="75.0186" class="gray" /></g>
<g><line x1="135.188" y1="71.281" x2="134.683" y2="67.8457" class="gray" /></g>
<g><line x1="134.956" y1="63.8605" x2="135.925" y2="60.5263" class="gray" /></g>
<g><line x1="137.8" y1="56.9894" x2="139.931" y2="54.4173" class="gray" /></g>
<g><line x1="143.103" y1="52.0125" x2="146.448" y2="50.5243" class="gray" /></g>
<g><line x1="150.36" y1="49.6934" x2="153.831" y2="49.6934" class="gray" /></g>
<g><line x1="157.734" y1="50.5454" x2="160.887" y2="51.9914" class="gray" /></g>
<g><line x1="164.05" y1="54.4173" x2="166.181" y2="56.9894" class="gray" /></g>
<g><line x1="168.158" y1="60.4937" x2="169.343" y2="63.8931" class="gray" /></g>
<g><line x1="169.663" y1="67.8369" x2="169.058" y2="71.2899" class="gray" /></g>
<g><line x1="167.594" y1="75.0186" x2="165.707" y2="77.9281" class="gray" /></g>
<g><line x1="162.871" y1="80.7408" x2="159.94" y2="82.6059" class="gray" /></g>
<g><line x1="158.215" y1="85.7475" x2="158.215" y2="89.2193" class="gray" /></g>
<g><line x1="158.215" y1="93.3075" x2="158.215" y2="96.7793" class="gray" /></g>
<g><line x1="158.159" y1="100.867" x2="158.062" y2="104.34" class="gray" /></g>
<g><line x1="160.005" y1="106.807" x2="163.796" y2="107.61" class="gray" /></g>
<g><line x1="167.53" y1="109.114" x2="170.481" y2="110.952" class="gray" /></g>
<g><line x1="173.421" y1="113.684" x2="175.32" y2="116.283" class="gray" /></g>
<g><line x1="177.254" y1="119.843" x2="178.517" y2="123.154" class="gray" /></g>
<g><line x1="179.245" y1="127.107" x2="179.245" y2="130.579" class="gray" /></g>
<g><line x1="178.619" y1="134.569" x2="177.572" y2="137.818" class="gray" /></g>
<g><line x1="175.666" y1="141.357" x2="173.495" y2="144.06" class="gray" /></g>
<g><line x1="170.452" y1="146.686" x2="167.149" y2="148.62" class="gray" /></g>
<g><line x1="163.393" y1="150.112" x2="160.208" y2="150.845" class="gray" /></g>
<g><line x1="158.272" y1="153.347" x2="158.369" y2="156.82" class="gray" /></g>
<g><line x1="158.312" y1="160.904" x2="158.119" y2="164.382" class="gray" /></g>
<g><line x1="158.062" y1="168.467" x2="158.159" y2="171.94" class="gray" /></g>
<g><line x1="158.159" y1="176.027" x2="158.062" y2="179.5" class="gray" /></g>
<g><line x1="158.062" y1="183.587" x2="158.159" y2="187.06" class="gray" /></g>
<g><line x1="159.986" y1="190.125" x2="162.995" y2="191.862" class="gray" /></g>
<g><line x1="163.01" y1="193.93" x2="160.181" y2="195.617" class="gray" /></g>
<g><line x1="158.425" y1="198.707" x2="158.425" y2="202.179" class="gray" /></g>
<g><line x1="159.87" y1="205.67" x2="162.321" y2="208.127" class="gray" /></g>
<g><line x1="165.182" y1="208.099" x2="167.489" y2="205.697" class="gray" /></g>
<g><line x1="168.905" y1="202.179" x2="168.905" y2="198.707" class="gray" /></g>
<g><line x1="168.962" y1="194.62" x2="169.059" y2="191.147" class="gray" /></g>
<g><line x1="169.059" y1="187.06" x2="168.962" y2="183.587" class="gray" /></g>
<g><line x1="168.905" y1="179.499" x2="168.905" y2="176.028" class="gray" /></g>
<g><line x1="166.896" y1="173.61" x2="163.485" y2="172.977" class="gray" /></g>
<g><line x1="159.545" y1="171.932" x2="156.446" y2="170.855" class="gray" /></g>
<g><line x1="152.69" y1="169.264" x2="149.591" y2="167.703" class="gray" /></g>
<g><line x1="146.052" y1="165.669" x2="142.849" y2="163.587" class="gray" /></g>
<g><line x1="139.664" y1="161.054" x2="137.277" y2="158.752" class="gray" /></g>
<g><line x1="134.516" y1="155.747" x2="132.325" y2="153.05" class="gray" /></g>
<g><line x1="130.026" y1="149.686" x2="128.365" y2="146.761" class="gray" /></g>
<g><line x1="126.558" y1="143.101" x2="125.203" y2="139.905" class="gray" /></g>
<g><line x1="123.777" y1="136.078" x2="122.673" y2="132.659" class="gray" /></g>
<g><line x1="121.802" y1="128.684" x2="121.389" y2="125.243" class="gray" /></g>
<g><line x1="121.248" y1="121.172" x2="121.423" y2="117.695" class="gray" /></g>
<g><line x1="121.8" y1="113.628" x2="122.261" y2="110.219" class="gray" /></g>
<g><line x1="123.197" y1="106.259" x2="124.344" y2="102.907" class="gray" /></g>
<g><line x1="125.885" y1="99.1281" x2="127.376" y2="95.9987" class="gray" /></g>
<g><line x1="129.345" y1="92.424" x2="131.136" y2="89.5828" class="gray" /></g>
<g><line x1="133.613" y1="86.3521" x2="136.068" y2="83.6947" class="gray" /></g>
<g><line x1="139.036" y1="80.8968" x2="141.835" y2="78.6" class="gray" /></g>
<g><line x1="145.144" y1="76.2122" x2="148.087" y2="74.3545" class="gray" /></g>
<g><line x1="151.68" y1="72.4247" x2="154.841" y2="71.0021" class="gray" /></g>
<g><line x1="158.665" y1="69.5806" x2="161.806" y2="68.6462" class="gray" /></g>
<g><line x1="165.79" y1="67.7843" x2="169.43" y2="67.2825" class="gray" /></g>
<g><line x1="173.5" y1="67.0034" x2="176.761" y2="67.0034" class="gray" /></g>
<g><line x1="180.829" y1="67.2898" x2="184.272" y2="67.7769" class="gray" /></g>
<g><line x1="188.259" y1="68.6314" x2="191.592" y2="69.5954" class="gray" /></g>
<g><line x1="195.42" y1="71.0011" x2="198.591" y2="72.4257" class="gray" /></g>
<g><line x1="202.198" y1="74.3317" x2="205.303" y2="76.235" class="gray" /></g>
<g><line x1="208.605" y1="78.625" x2="211.256" y2="80.8718" class="gray" /></g>
<g><line x1="214.17" y1="83.724" x2="216.471" y2="86.3228" class="gray" /></g>
<g><line x1="218.915" y1="89.5828" x2="220.706" y2="92.424" class="gray" /></g>
<g><line x1="222.675" y1="95.9987" x2="224.166" y2="99.1281" class="gray" /></g>
<g><line x1="225.707" y1="102.907" x2="226.854" y2="106.259" class="gray" /></g>
<g><line x1="227.736" y1="110.226" x2="228.105" y2="113.621" class="gray" /></g>
<g><line x1="228.369" y1="117.697" x2="228.442" y2="121.17" class="gray" /></g>
<g><line x1="228.298" y1="125.249" x2="227.983" y2="128.678" class="gray" /></g>
<g><line x1="227.219" y1="132.674" x2="226.222" y2="136.062" class="gray" /></g>
<g><line x1="224.899" y1="139.926" x2="223.662" y2="143.08" class="gray" /></g>
<g><line x1="221.904" y1="146.76" x2="220.237" y2="149.687" class="gray" /></g>
<g><line x1="217.871" y1="152.995" x2="215.389" y2="155.802" class="gray" /></g>
<g><line x1="212.537" y1="158.724" x2="209.994" y2="161.083" class="gray" /></g>
<g><line x1="206.835" y1="163.666" x2="204.156" y2="165.591" class="gray" /></g>
<g><line x1="200.681" y1="167.725" x2="197.76" y2="169.242" class="gray" /></g>
<g><line x1="194.003" y1="170.821" x2="190.518" y2="171.966" class="gray" /></g>
<g><line x1="186.568" y1="172.987" x2="183.363" y2="173.6" class="gray" /></g>
<g><line x1="181.242" y1="176.024" x2="181.049" y2="179.502" class="gray" /></g>
<g><line x1="180.992" y1="183.587" x2="181.089" y2="187.06" class="gray" /></g>
<g><line x1="181.202" y1="191.147" x2="181.299" y2="194.62" class="gray" /></g>
<g><line x1="181.242" y1="198.704" x2="181.049" y2="202.182" class="gray" /></g>
<g><line x1="182.887" y1="203.615" x2="186.203" y2="202.582" class="gray" /></g>
</svg>
