<svg
	xmlns="http://www.w3.org/2000/svg"
	width="287.12"
	height="253.19">
<g><style type="text/css" >
<!-- create color definitions -->
<![CDATA[
circle.red {stroke: rgb(255, 0, 255); fill: none; }
circle.green {stroke: rgb(0, 255, 0); fill: none; }
circle.blue {stroke: rgb(0, 0, 255); fill: none; }
circle.black {stroke: rgb(0, 0, 0); fill: none; }
circle.gray {stroke: rgb(204, 204, 204); fill: none; }
circle.brown {stroke: rgb(211.65, 104.55, 30.6); fill: none; }
line.red {stroke: rgb(255, 0, 255); stroke-width: 0.382511; }
line.green {stroke: rgb(0, 255, 0); stroke-width: 0.382511; }
line.blue {stroke: rgb(0, 0, 255); stroke-width: 0.382511; }
line.black {stroke: rgb(0, 0, 0); stroke-width: 0.382511; }
line.gray {stroke: rgb(204, 204, 204); stroke-width: 0.382511; }
line.brown {stroke: rgb(211.65, 104.55, 30.6); stroke-width: 0.382511; }
line {stroke: rgb(0, 0, 0); }
text.red {fill: rgb(255, 0, 255); font-size: 3.060088px; font-weight: bold; font-family: Helvetica; }
text.green {fill: rgb(0, 255, 0); font-size: 3.060088px; font-weight: bold; font-family: Helvetica; }
text.blue {fill: rgb(0, 0, 255); font-size: 3.060088px; font-weight: bold; font-family: Helvetica; }
text.black {fill: rgb(0, 0, 0); font-size: 3.060088px; font-weight: bold; font-family: Helvetica; }
text.gray {fill: rgb(204, 204, 204); font-size: 3.060088px; font-weight: bold; font-family: Helvetica; }
text.brown {fill: rgb(211.65, 104.55, 30.6); font-size: 3.060088px; font-weight: bold; font-family: Helvetica; }
text {fill: rgb(0, 0, 0); font-size: 3.060088px; font-weight: bold; font-family: Helvetica; text-anchor: middle; alignment-baseline: middle; }

.pseudoknot_connection{stroke-linecap: round; stroke-opacity: 0.2; stroke-width: 1.5; }
.pseudoknot_segment1{stroke-linecap: round; stroke-opacity: 0.4; stroke-width: 3.06009; }
.pseudoknot_segment2{stroke-linecap: round; stroke-opacity: 0.4; stroke-width: 3.06009; }
line.numbering-line{stroke: rgb(204, 204, 204); stroke-width: 0.191256; }
line.predicted{stroke: rgb(0, 0, 0); stroke-dasharray: 2; }
polyline{fill: none; stroke-linejoin: round; }
template{visibility: hidden; }
text.numbering-label{fill: rgb(204, 204, 204); }
]]>
</style></g>
<g><title>0 (position.label in template: 0.5')</title><text x="93.3667" y="170.425" class="green" >5'</text></g>
<g><title>1 (position.label in template: 1.C)</title><text x="100.931" y="170.425" class="black" >C</text></g>
<g><title>2 (position.label in template: 2.C)</title><text x="108.496" y="170.425" class="black" >C</text></g>
<g><title>3 (position.label in template: 3.G)</title><text x="116.06" y="170.425" class="black" >G</text></g>
<g><title>4 (position.label in template: 4.G)</title><text x="123.625" y="170.425" class="black" >G</text></g>
<g><title>5 (position.label in template: 5.A)</title><text x="131.189" y="170.425" class="black" >A</text></g>
<g><title>6 (position.label in template: 6.C)</title><text x="136.43" y="164.97" class="black" >C</text></g>
<g><line x1="138.47" y1="164.664" x2="146.42" y2="164.664" class="black" /></g>
<g><title>7 (position.label in template: 7.A)</title><text x="136.64" y="157.41" class="green" >A</text></g>
<g><line x1="138.68" y1="157.104" x2="146.63" y2="157.104" class="black" /></g>
<g><title>8 (position.label in template: 8.C)</title><text x="136.43" y="149.85" class="black" >C</text></g>
<g><line x1="138.47" y1="149.544" x2="146.42" y2="149.544" class="black" /></g>
<g><title>9 (position.label in template: 9.C)</title><text x="136.43" y="142.29" class="black" >C</text></g>
<g><line x1="138.47" y1="141.984" x2="146.42" y2="141.984" class="black" /></g>
<g><title>10 (position.label in template: 10.G)</title><text x="136.22" y="134.73" class="black" >G</text></g>
<g><line x1="138.26" y1="134.424" x2="146.63" y2="134.424" class="black" /></g>
<g><text x="130.311" y="138.264" class="numbering-label sequential" >10</text></g>
<g><line x1="134.644" y1="135.672" x2="132.147" y2="137.166" class="numbering-line sequential" /></g>
<g><title>11 (position.label in template: 11.G)</title><text x="129.66" y="130.97" class="black" >G</text></g>
<g><line x1="128.656" y1="128.888" x2="124.694" y2="121.88" class="black" /></g>
<g><title>12 (position.label in template: 12.G)</title><text x="123.14" y="134.79" class="black" >G</text></g>
<g><line x1="122.136" y1="132.708" x2="118.174" y2="125.7" class="black" /></g>
<g><title>13 (position.label in template: 13.G)</title><text x="116.61" y="138.61" class="black" >G</text></g>
<g><line x1="115.606" y1="136.528" x2="111.644" y2="129.52" class="black" /></g>
<g><title>14 (position.label in template: 14.G)</title><text x="110.09" y="142.43" class="black" >G</text></g>
<g><line x1="109.087" y1="140.348" x2="105.123" y2="133.33" class="black" /></g>
<g><title>15 (position.label in template: 15.G)</title><text x="110.6" y="149.97" class="black" >G</text></g>
<g><title>16 (position.label in template: 16.A)</title><text x="108.9" y="157.23" class="black" >A</text></g>
<g><title>17 (position.label in template: 17.G)</title><text x="104" y="163.32" class="black" >G</text></g>
<g><line x1="102.192" y1="163.959" x2="95.1281" y2="167.649" class="black" /></g>
<g><title>18 (position.label in template: 18.C)</title><text x="107.66" y="170.04" class="black" >C</text></g>
<g><line x1="105.838" y1="170.652" x2="98.3821" y2="174.406" class="black" /></g>
<g><title>19 (position.label in template: 19.C)</title><text x="111.11" y="176.77" class="black" >C</text></g>
<g><line x1="109.288" y1="177.382" x2="101.832" y2="181.136" class="black" /></g>
<g><title>20 (position.label in template: 20.C)</title><text x="114.56" y="183.5" class="black" >C</text></g>
<g><line x1="112.737" y1="184.11" x2="105.283" y2="187.858" class="black" /></g>
<g><text x="120.647" y="180.282" class="numbering-label sequential" >20</text></g>
<g><line x1="116.183" y1="182.642" x2="118.811" y2="181.253" class="numbering-line sequential" /></g>
<g><title>21 (position.label in template: 21.A)</title><text x="118.22" y="190.22" class="black" >A</text></g>
<g><line x1="116.398" y1="190.832" x2="108.942" y2="194.586" class="black" /></g>
<g><title>22 (position.label in template: 22.U)</title><text x="121.78" y="196.77" class="green" >T</text></g>
<g><title>23 (position.label in template: 23.U)</title><text x="117.78" y="203.19" class="green" >T</text></g>
<g><title>24 (position.label in template: 24.U)</title><text x="110.24" y="202.7" class="green" >T</text></g>
<g><title>25 (position.label in template: 25.C)</title><text x="107.12" y="195.81" class="black" >C</text></g>
<g><title>26 (position.label in template: 26.G)</title><text x="103.46" y="189.08" class="black" >G</text></g>
<g><title>27 (position.label in template: 27.G)</title><text x="100.01" y="182.36" class="black" >G</text></g>
<g><title>28 (position.label in template: 28.G)</title><text x="96.56" y="175.63" class="black" >G</text></g>
<g><title>29 (position.label in template: 29.C)</title><text x="93.32" y="168.9" class="black" >C</text></g>
<g><title>30 (position.label in template: 30.U)</title><text x="85.76" y="168.99" class="green" >T</text></g>
<g><text x="84.6562" y="175.786" class="numbering-label sequential" >30</text></g>
<g><line x1="85.4657" y1="170.802" x2="84.9047" y2="174.256" class="numbering-line sequential" /></g>
<g><title>31 (position.label in template: 31.G)</title><text x="78.42" y="166.48" class="black" >G</text></g>
<g><title>32 (position.label in template: 32.A)</title><text x="73.01" y="161.66" class="black" >A</text></g>
<g><title>33 (position.label in template: 33.G)</title><text x="68.77" y="155.14" class="black" >G</text></g>
<g><title>34 (position.label in template: 34.A)</title><text x="67.85" y="147.7" class="black" >A</text></g>
<g><title>35 (position.label in template: 35.G)</title><text x="68.73" y="140.25" class="black" >G</text></g>
<g><title>36 (position.label in template: 36.G)</title><text x="72.51" y="133.7" class="black" >G</text></g>
<g><line x1="74.221" y1="132.283" x2="81.209" y2="127.745" class="black" /></g>
<g><title>37 (position.label in template: 37.C)</title><text x="68.54" y="127.4" class="black" >C</text></g>
<g><line x1="70.2301" y1="125.951" x2="76.8499" y2="121.477" class="black" /></g>
<g><title>38 (position.label in template: 38.G)</title><text x="64.16" y="121.1" class="black" >G</text></g>
<g><line x1="65.871" y1="119.683" x2="72.859" y2="115.145" class="black" /></g>
<g><title>39 (position.label in template: 39.G)</title><text x="59.98" y="114.79" class="black" >G</text></g>
<g><line x1="61.6914" y1="113.374" x2="68.6886" y2="108.834" class="black" /></g>
<g><title>40 (position.label in template: 40.G)</title><text x="55.81" y="108.49" class="black" >G</text></g>
<g><line x1="57.521" y1="107.073" x2="64.509" y2="102.535" class="black" /></g>
<g><title>41 (position.label in template: 41.G)</title><text x="50" y="103.65" class="black" >G</text></g>
<g><title>42 (position.label in template: 42.C)</title><text x="50.62" y="96.1" class="black" >C</text></g>
<g><title>43 (position.label in template: 43.A)</title><text x="57.13" y="91.93" class="black" >A</text></g>
<g><title>44 (position.label in template: 44.A)</title><text x="64.24" y="94.49" class="black" >A</text></g>
<g><title>45 (position.label in template: 45.C)</title><text x="66.22" y="101.73" class="black" >C</text></g>
<g><title>46 (position.label in template: 46.C)</title><text x="70.4" y="108.03" class="black" >C</text></g>
<g><title>47 (position.label in template: 47.C)</title><text x="74.57" y="114.34" class="black" >C</text></g>
<g><title>48 (position.label in template: 48.G)</title><text x="78.54" y="120.64" class="black" >G</text></g>
<g><title>49 (position.label in template: 49.C)</title><text x="82.92" y="126.94" class="black" >C</text></g>
<g><title>50 (position.label in template: 50.G)</title><text x="90.22" y="126.02" class="black" >G</text></g>
<g><text x="90.5802" y="119.144" class="numbering-label sequential" >50</text></g>
<g><line x1="90.3161" y1="124.186" x2="90.5" y2="120.674" class="numbering-line sequential" /></g>
<g><title>51 (position.label in template: 51.A)</title><text x="98" y="127.73" class="black" >A</text></g>
<g><title>52 (position.label in template: 52.C)</title><text x="104.12" y="131.86" class="black" >C</text></g>
<g><title>53 (position.label in template: 53.C)</title><text x="110.64" y="128.05" class="black" >C</text></g>
<g><title>54 (position.label in template: 54.C)</title><text x="117.17" y="124.23" class="black" >C</text></g>
<g><title>55 (position.label in template: 55.C)</title><text x="123.69" y="120.41" class="black" >C</text></g>
<g><title>56 (position.label in template: 56.U)</title><text x="123.63" y="112.85" class="green" >T</text></g>
<g><title>57 (position.label in template: 57.G)</title><text x="126.26" y="105.85" class="black" >G</text></g>
<g><title>58 (position.label in template: 58.G)</title><text x="131.58" y="100.48" class="black" >G</text></g>
<g><title>59 (position.label in template: 59.A)</title><text x="138.98" y="97.57" class="black" >A</text></g>
<g><title>60 (position.label in template: 60.A)</title><text x="146.54" y="97.57" class="black" >A</text></g>
<g><title>61 (position.label in template: 61.C)</title><text x="153.31" y="100.48" class="black" >C</text></g>
<g><line x1="154.531" y1="101.808" x2="159.339" y2="108.24" class="black" /></g>
<g><title>62 (position.label in template: 62.C)</title><text x="159.31" y="95.87" class="black" >C</text></g>
<g><line x1="160.53" y1="97.1989" x2="165.33" y2="103.629" class="black" /></g>
<g><title>63 (position.label in template: 63.U)</title><text x="165.3" y="91.26" class="green" >T</text></g>
<g><line x1="166.564" y1="92.5557" x2="171.696" y2="99.0623" class="black" /></g>
<g><title>64 (position.label in template: 64.G)</title><text x="171.08" y="86.66" class="green" >G</text></g>
<g><line x1="172.345" y1="87.9542" x2="177.485" y2="94.4538" class="black" /></g>
<g><title>65 (position.label in template: 65.A)</title><text x="173.32" y="79.32" class="black" >A</text></g>
<g><title>66 (position.label in template: 66.C)</title><text x="179.11" y="74.71" class="black" >C</text></g>
<g><title>67 (position.label in template: 67.C)</title><text x="186.67" y="74.84" class="black" >C</text></g>
<g><line x1="187.891" y1="76.1681" x2="192.699" y2="82.5999" class="black" /></g>
<g><title>68 (position.label in template: 68.C)</title><text x="192.67" y="70.23" class="black" >C</text></g>
<g><line x1="193.889" y1="71.5595" x2="198.691" y2="77.9985" class="black" /></g>
<g><title>69 (position.label in template: 69.G)</title><text x="198.45" y="65.63" class="black" >G</text></g>
<g><line x1="199.715" y1="66.9242" x2="204.855" y2="73.4238" class="black" /></g>
<g><title>70 (position.label in template: 70.G)</title><text x="204.44" y="61.02" class="black" >G</text></g>
<g><line x1="205.705" y1="62.3142" x2="210.845" y2="68.8138" class="black" /></g>
<g><title>71 (position.label in template: 71.U)</title><text x="207.01" y="53.83" class="green" >T</text></g>
<g><title>72 (position.label in template: 72.U)</title><text x="213.53" y="50" class="green" >T</text></g>
<g><title>73 (position.label in template: 73.C)</title><text x="220.95" y="51.45" class="black" >C</text></g>
<g><title>74 (position.label in template: 74.G)</title><text x="225.34" y="57.44" class="black" >G</text></g>
<g><title>75 (position.label in template: 75.G)</title><text x="224.83" y="64.99" class="black" >G</text></g>
<g><title>76 (position.label in template: 76.A)</title><text x="219.87" y="70.3" class="black" >A</text></g>
<g><title>77 (position.label in template: 77.C)</title><text x="212.11" y="70.72" class="black" >C</text></g>
<g><title>78 (position.label in template: 78.C)</title><text x="206.12" y="75.33" class="black" >C</text></g>
<g><title>79 (position.label in template: 79.G)</title><text x="199.91" y="79.94" class="black" >G</text></g>
<g><title>80 (position.label in template: 80.G)</title><text x="193.92" y="84.54" class="black" >G</text></g>
<g><title>81 (position.label in template: 81.C)</title><text x="192.31" y="91.88" class="black" >C</text></g>
<g><title>82 (position.label in template: 82.G)</title><text x="186.1" y="96.49" class="black" >G</text></g>
<g><title>83 (position.label in template: 83.U)</title><text x="178.75" y="96.36" class="green" >T</text></g>
<g><title>84 (position.label in template: 84.A)</title><text x="172.96" y="100.97" class="green" >A</text></g>
<g><title>85 (position.label in template: 85.G)</title><text x="166.55" y="105.57" class="black" >G</text></g>
<g><title>86 (position.label in template: 86.G)</title><text x="160.56" y="110.18" class="black" >G</text></g>
<g><title>87 (position.label in template: 87.G)</title><text x="161.57" y="117.67" class="black" >G</text></g>
<g><title>88 (position.label in template: 88.A)</title><text x="160.04" y="124.98" class="black" >A</text></g>
<g><title>89 (position.label in template: 89.U)</title><text x="155.23" y="130.97" class="green" >T</text></g>
<g><title>90 (position.label in template: 90.C)</title><text x="148.67" y="134.73" class="black" >C</text></g>
<g><title>91 (position.label in template: 91.G)</title><text x="148.46" y="142.29" class="black" >G</text></g>
<g><title>92 (position.label in template: 92.G)</title><text x="148.46" y="149.85" class="black" >G</text></g>
<g><title>93 (position.label in template: 93.U)</title><text x="148.67" y="157.41" class="green" >T</text></g>
<g><title>94 (position.label in template: 94.G)</title><text x="148.46" y="164.97" class="black" >G</text></g>
<g><title>95 (position.label in template: 95.C)</title><text x="153.911" y="170.215" class="black" >C</text></g>
<g><title>96 (position.label in template: 96.U)</title><text x="161.475" y="170.215" class="green" >T</text></g>
<g><title>97 (position.label in template: 97.U)</title><text x="169.04" y="170.215" class="green" >T</text></g>
<g><title>98 (position.label in template: 98.C)</title><text x="176.604" y="170.215" class="black" >C</text></g>
<g><title>99 (position.label in template: 99.A)</title><text x="184.169" y="170.215" class="black" >A</text></g>
<g><title>100 (position.label in template: 100.G)</title><text x="191.733" y="170.215" class="black" >G</text></g>
<g><text x="191.733" y="177.1" class="numbering-label sequential" >100</text></g>
<g><line x1="191.733" y1="172.051" x2="191.733" y2="175.57" class="numbering-line sequential" /></g>
<g><title>101 (position.label in template: 101.A)</title><text x="199.298" y="170.215" class="black" >A</text></g>
<g><title>102 (position.label in template: 102.C)</title><text x="206.862" y="170.215" class="black" >C</text></g>
<g><title>103 (position.label in template: 103.G)</title><text x="214.427" y="170.215" class="black" >G</text></g>
<g><title>104 (position.label in template: 104.G)</title><text x="221.991" y="170.215" class="black" >G</text></g>
<g><title>105 (position.label in template: 105.U)</title><text x="229.556" y="170.215" class="green" >T</text></g>
<g><title>106 (position.label in template: 106.G)</title><text x="237.12" y="170.215" class="black" >G</text></g>
<g><title>107 (position.label in template: 107.3')</title><text x="244.685" y="170.215" class="green" >3'</text></g>
<g><line x1="95.4068" y1="170.119" x2="98.8911" y2="170.119" class="gray" /></g>
<g><line x1="102.971" y1="170.119" x2="106.456" y2="170.119" class="gray" /></g>
<g><line x1="110.536" y1="170.119" x2="114.02" y2="170.119" class="gray" /></g>
<g><line x1="118.1" y1="170.119" x2="121.585" y2="170.119" class="gray" /></g>
<g><line x1="125.665" y1="170.119" x2="129.149" y2="170.119" class="gray" /></g>
<g><line x1="132.603" y1="168.648" x2="135.017" y2="166.135" class="gray" /></g>
<g><line x1="136.487" y1="162.625" x2="136.583" y2="159.143" class="gray" /></g>
<g><line x1="136.583" y1="155.065" x2="136.487" y2="151.583" class="gray" /></g>
<g><line x1="136.43" y1="147.504" x2="136.43" y2="144.024" class="gray" /></g>
<g><line x1="136.373" y1="139.945" x2="136.277" y2="136.463" class="gray" /></g>
<g><line x1="134.45" y1="133.41" x2="131.43" y2="131.678" class="gray" /></g>
<g><line x1="127.9" y1="131.695" x2="124.9" y2="133.453" class="gray" /></g>
<g><line x1="121.379" y1="135.514" x2="118.371" y2="137.274" class="gray" /></g>
<g><line x1="114.85" y1="139.335" x2="111.85" y2="141.093" class="gray" /></g>
<g><line x1="110.228" y1="144.159" x2="110.462" y2="147.629" class="gray" /></g>
<g><line x1="110.135" y1="151.65" x2="109.365" y2="154.938" class="gray" /></g>
<g><line x1="107.621" y1="158.513" x2="105.279" y2="161.425" class="gray" /></g>
<g><line x1="104.976" y1="164.806" x2="106.684" y2="167.942" class="gray" /></g>
<g><line x1="108.591" y1="171.549" x2="110.179" y2="174.649" class="gray" /></g>
<g><line x1="112.041" y1="178.279" x2="113.629" y2="181.379" class="gray" /></g>
<g><line x1="115.536" y1="184.986" x2="117.244" y2="188.122" class="gray" /></g>
<g><line x1="119.194" y1="191.706" x2="120.806" y2="194.672" class="gray" /></g>
<g><line x1="120.701" y1="198.195" x2="118.859" y2="201.153" class="gray" /></g>
<g><line x1="115.744" y1="202.752" x2="112.276" y2="202.526" class="gray" /></g>
<g><line x1="109.398" y1="200.536" x2="107.962" y2="197.362" class="gray" /></g>
<g><line x1="106.145" y1="193.712" x2="104.435" y2="190.566" class="gray" /></g>
<g><line x1="102.528" y1="186.959" x2="100.942" y2="183.869" class="gray" /></g>
<g><line x1="99.0794" y1="180.239" x2="97.4906" y2="177.139" class="gray" /></g>
<g><line x1="95.6751" y1="173.486" x2="94.2049" y2="170.432" class="gray" /></g>
<g><line x1="91.2801" y1="168.618" x2="87.7999" y2="168.66" class="gray" /></g>
<g><line x1="83.8297" y1="168.024" x2="80.3503" y2="166.834" class="gray" /></g>
<g><line x1="76.8968" y1="164.817" x2="74.5332" y2="162.711" class="gray" /></g>
<g><line x1="71.8978" y1="159.644" x2="69.8822" y2="156.544" class="gray" /></g>
<g><line x1="68.5196" y1="152.809" x2="68.1004" y2="149.419" class="gray" /></g>
<g><line x1="68.0893" y1="145.368" x2="68.4907" y2="141.97" class="gray" /></g>
<g><line x1="69.7497" y1="138.177" x2="71.4903" y2="135.161" class="gray" /></g>
<g><line x1="71.4224" y1="131.668" x2="69.6276" y2="128.82" class="gray" /></g>
<g><line x1="67.3755" y1="125.419" x2="65.3245" y2="122.469" class="gray" /></g>
<g><line x1="63.0334" y1="119.093" x2="61.1066" y2="116.185" class="gray" /></g>
<g><line x1="58.854" y1="112.783" x2="56.936" y2="109.885" class="gray" /></g>
<g><line x1="54.2426" y1="106.878" x2="51.5674" y2="104.65" class="gray" /></g>
<g><line x1="50.167" y1="101.311" x2="50.453" y2="97.8272" class="gray" /></g>
<g><line x1="52.3379" y1="94.6936" x2="55.4121" y2="92.7244" class="gray" /></g>
<g><line x1="59.0494" y1="92.3151" x2="62.3206" y2="93.4929" class="gray" /></g>
<g><line x1="64.7782" y1="96.1518" x2="65.6818" y2="99.4562" class="gray" /></g>
<g><line x1="67.3479" y1="103.124" x2="69.2721" y2="106.024" class="gray" /></g>
<g><line x1="71.5248" y1="109.426" x2="73.4452" y2="112.332" class="gray" /></g>
<g><line x1="75.6576" y1="115.76" x2="77.4524" y2="118.608" class="gray" /></g>
<g><line x1="79.7045" y1="122.009" x2="81.7555" y2="124.959" class="gray" /></g>
<g><line x1="84.944" y1="126.379" x2="88.196" y2="125.969" class="gray" /></g>
<g><line x1="92.2125" y1="126.152" x2="96.0075" y2="126.986" class="gray" /></g>
<g><line x1="99.691" y1="128.565" x2="102.429" y2="130.413" class="gray" /></g>
<g><line x1="105.881" y1="130.525" x2="108.879" y2="128.773" class="gray" /></g>
<g><line x1="112.401" y1="126.714" x2="115.409" y2="124.954" class="gray" /></g>
<g><line x1="118.93" y1="122.893" x2="121.93" y2="121.135" class="gray" /></g>
<g><line x1="123.674" y1="118.064" x2="123.646" y2="114.584" class="gray" /></g>
<g><line x1="124.348" y1="110.634" x2="125.542" y2="107.454" class="gray" /></g>
<g><line x1="127.696" y1="104.095" x2="130.144" y2="101.623" class="gray" /></g>
<g><line x1="133.479" y1="99.4274" x2="137.081" y2="98.0106" class="gray" /></g>
<g><line x1="141.02" y1="97.264" x2="144.5" y2="97.264" class="gray" /></g>
<g><line x1="148.414" y1="98.0696" x2="151.436" y2="99.3684" class="gray" /></g>
<g><line x1="154.928" y1="98.9311" x2="157.692" y2="96.8069" class="gray" /></g>
<g><line x1="160.927" y1="94.3198" x2="163.683" y2="92.1982" class="gray" /></g>
<g><line x1="166.896" y1="89.6836" x2="169.484" y2="87.6244" class="gray" /></g>
<g><line x1="171.675" y1="84.4028" x2="172.725" y2="80.9652" class="gray" /></g>
<g><line x1="174.916" y1="77.7433" x2="177.514" y2="75.6747" class="gray" /></g>
<g><line x1="181.15" y1="74.4391" x2="184.63" y2="74.4989" class="gray" /></g>
<g><line x1="188.288" y1="73.2911" x2="191.052" y2="71.1669" class="gray" /></g>
<g><line x1="194.266" y1="68.6536" x2="196.854" y2="66.5944" class="gray" /></g>
<g><line x1="200.067" y1="64.0798" x2="202.823" y2="61.9582" class="gray" /></g>
<g><line x1="205.127" y1="58.793" x2="206.323" y2="55.445" class="gray" /></g>
<g><line x1="208.769" y1="52.4907" x2="211.771" y2="50.7273" class="gray" /></g>
<g><line x1="215.532" y1="50.0853" x2="218.948" y2="50.7527" class="gray" /></g>
<g><line x1="222.156" y1="52.7895" x2="224.134" y2="55.4885" class="gray" /></g>
<g><line x1="225.203" y1="59.1694" x2="224.967" y2="62.6486" class="gray" /></g>
<g><line x1="223.437" y1="66.1748" x2="221.263" y2="68.5032" class="gray" /></g>
<g><line x1="217.833" y1="70.1042" x2="214.147" y2="70.3037" class="gray" /></g>
<g><line x1="210.493" y1="71.6582" x2="207.737" y2="73.7798" class="gray" /></g>
<g><line x1="204.482" y1="76.24" x2="201.548" y2="78.418" class="gray" /></g>
<g><line x1="198.292" y1="80.8765" x2="195.538" y2="82.9915" class="gray" /></g>
<g><line x1="193.483" y1="86.2267" x2="192.747" y2="89.5813" class="gray" /></g>
<g><line x1="190.672" y1="92.79" x2="187.738" y2="94.968" class="gray" /></g>
<g><line x1="184.06" y1="96.1479" x2="180.79" y2="96.0901" class="gray" /></g>
<g><line x1="177.154" y1="97.3247" x2="174.556" y2="99.3933" class="gray" /></g>
<g><line x1="171.303" y1="101.853" x2="168.207" y2="104.075" class="gray" /></g>
<g><line x1="164.933" y1="106.508" x2="162.177" y2="108.63" class="gray" /></g>
<g><line x1="160.833" y1="111.896" x2="161.297" y2="115.342" class="gray" /></g>
<g><line x1="161.152" y1="119.361" x2="160.458" y2="122.677" class="gray" /></g>
<g><line x1="158.763" y1="126.265" x2="156.507" y2="129.073" class="gray" /></g>
<g><line x1="153.46" y1="131.678" x2="150.44" y2="133.41" class="gray" /></g>
<g><line x1="148.613" y1="136.463" x2="148.517" y2="139.945" class="gray" /></g>
<g><line x1="148.46" y1="144.024" x2="148.46" y2="147.504" class="gray" /></g>
<g><line x1="148.517" y1="151.583" x2="148.613" y2="155.065" class="gray" /></g>
<g><line x1="148.613" y1="159.143" x2="148.517" y2="162.625" class="gray" /></g>
<g><line x1="149.93" y1="166.079" x2="152.441" y2="168.494" class="gray" /></g>
<g><line x1="155.951" y1="169.909" x2="159.435" y2="169.909" class="gray" /></g>
<g><line x1="163.515" y1="169.909" x2="167" y2="169.909" class="gray" /></g>
<g><line x1="171.08" y1="169.909" x2="174.564" y2="169.909" class="gray" /></g>
<g><line x1="178.644" y1="169.909" x2="182.129" y2="169.909" class="gray" /></g>
<g><line x1="186.209" y1="169.909" x2="189.693" y2="169.909" class="gray" /></g>
<g><line x1="193.773" y1="169.909" x2="197.258" y2="169.909" class="gray" /></g>
<g><line x1="201.338" y1="169.909" x2="204.822" y2="169.909" class="gray" /></g>
<g><line x1="208.902" y1="169.909" x2="212.387" y2="169.909" class="gray" /></g>
<g><line x1="216.467" y1="169.909" x2="219.951" y2="169.909" class="gray" /></g>
<g><line x1="224.031" y1="169.909" x2="227.516" y2="169.909" class="gray" /></g>
<g><line x1="231.596" y1="169.909" x2="235.08" y2="169.909" class="gray" /></g>
<g><line x1="239.16" y1="169.909" x2="242.645" y2="169.909" class="gray" /></g>
</svg>
