<svg
	xmlns="http://www.w3.org/2000/svg"
	width="287.984"
	height="282.15">
<g><style type="text/css" >
<!-- create color definitions -->
<![CDATA[
circle.red {stroke: rgb(255, 0, 255); fill: none; }
circle.green {stroke: rgb(0, 255, 0); fill: none; }
circle.blue {stroke: rgb(0, 0, 255); fill: none; }
circle.black {stroke: rgb(0, 0, 0); fill: none; }
circle.gray {stroke: rgb(204, 204, 204); fill: none; }
circle.brown {stroke: rgb(211.65, 104.55, 30.6); fill: none; }
line.red {stroke: rgb(255, 0, 255); stroke-width: 0.381728; }
line.green {stroke: rgb(0, 255, 0); stroke-width: 0.381728; }
line.blue {stroke: rgb(0, 0, 255); stroke-width: 0.381728; }
line.black {stroke: rgb(0, 0, 0); stroke-width: 0.381728; }
line.gray {stroke: rgb(204, 204, 204); stroke-width: 0.381728; }
line.brown {stroke: rgb(211.65, 104.55, 30.6); stroke-width: 0.381728; }
line {stroke: rgb(0, 0, 0); }
text.red {fill: rgb(255, 0, 255); font-size: 3.053824px; font-weight: bold; font-family: Helvetica; }
text.green {fill: rgb(0, 255, 0); font-size: 3.053824px; font-weight: bold; font-family: Helvetica; }
text.blue {fill: rgb(0, 0, 255); font-size: 3.053824px; font-weight: bold; font-family: Helvetica; }
text.black {fill: rgb(0, 0, 0); font-size: 3.053824px; font-weight: bold; font-family: Helvetica; }
text.gray {fill: rgb(204, 204, 204); font-size: 3.053824px; font-weight: bold; font-family: Helvetica; }
text.brown {fill: rgb(211.65, 104.55, 30.6); font-size: 3.053824px; font-weight: bold; font-family: Helvetica; }
text {fill: rgb(0, 0, 0); font-size: 3.053824px; font-weight: bold; font-family: Helvetica; text-anchor: middle; alignment-baseline: middle; }

.pseudoknot_connection{stroke-linecap: round; stroke-opacity: 0.2; stroke-width: 1.5; }
.pseudoknot_segment1{stroke-linecap: round; stroke-opacity: 0.4; stroke-width: 3.05382; }
.pseudoknot_segment2{stroke-linecap: round; stroke-opacity: 0.4; stroke-width: 3.05382; }
line.numbering-line{stroke: rgb(204, 204, 204); stroke-width: 0.190864; }
line.predicted{stroke: rgb(0, 0, 0); stroke-dasharray: 2; }
polyline{fill: none; stroke-linejoin: round; }
template{visibility: hidden; }
text.numbering-label{fill: rgb(204, 204, 204); }
]]>
</style></g>
<g><title>0 (position.label in template: 0.5')</title><text x="68.6201" y="234.368" class="green" >5'</text></g>
<g><title>1 (position.label in template: 1.G)</title><text x="68.83" y="226.81" class="black" >G</text></g>
<g><line x1="70.8659" y1="226.505" x2="79.2441" y2="226.505" class="black" /></g>
<g><title>2 (position.label in template: 2.C)</title><text x="69.04" y="219.25" class="black" >C</text></g>
<g><line x1="71.0759" y1="218.945" x2="79.0341" y2="218.945" class="black" /></g>
<g><title>3 (position.label in template: 3.A)</title><text x="69.25" y="211.69" class="black" >A</text></g>
<g><line x1="71.2859" y1="211.385" x2="79.0341" y2="211.385" class="black" /></g>
<g><title>4 (position.label in template: 4.U)</title><text x="69.04" y="204.13" class="green" >T</text></g>
<g><line x1="71.0759" y1="203.825" x2="79.4541" y2="203.825" class="black" /></g>
<g><title>5 (position.label in template: 5.G)</title><text x="68.83" y="196.57" class="black" >G</text></g>
<g><line x1="70.8659" y1="196.265" x2="79.2441" y2="196.265" class="black" /></g>
<g><title>6 (position.label in template: 6.G)</title><text x="68.83" y="189.01" class="black" >G</text></g>
<g><line x1="70.8659" y1="188.705" x2="79.2441" y2="188.705" class="black" /></g>
<g><title>7 (position.label in template: 7.G)</title><text x="68.83" y="181.45" class="black" >G</text></g>
<g><line x1="70.8659" y1="181.145" x2="79.2441" y2="181.145" class="black" /></g>
<g><title>8 (position.label in template: 8.U)</title><text x="69.04" y="173.89" class="green" >T</text></g>
<g><line x1="71.0759" y1="173.585" x2="79.0341" y2="173.585" class="black" /></g>
<g><title>9 (position.label in template: 9.U)</title><text x="62.56" y="177.77" class="green" >T</text></g>
<g><title>10 (position.label in template: 10.U)</title><text x="55.1" y="176.54" class="green" >T</text></g>
<g><text x="51.755" y="182.542" class="numbering-label sequential" >10</text></g>
<g><line x1="54.208" y1="178.141" x2="52.606" y2="181.015" class="numbering-line sequential" /></g>
<g><title>11 (position.label in template: 11.G)</title><text x="50" y="170.77" class="black" >G</text></g>
<g><title>12 (position.label in template: 12.G)</title><text x="50" y="163.21" class="black" >G</text></g>
<g><title>13 (position.label in template: 13.A)</title><text x="55.31" y="157.45" class="black" >A</text></g>
<g><title>14 (position.label in template: 14.U)</title><text x="62.56" y="156.21" class="green" >T</text></g>
<g><title>15 (position.label in template: 15.U)</title><text x="69.04" y="160.1" class="green" >T</text></g>
<g><line x1="71.0759" y1="159.795" x2="79.4541" y2="159.795" class="black" /></g>
<g><title>16 (position.label in template: 16.G)</title><text x="62.29" y="156.32" class="black" >G</text></g>
<g><title>17 (position.label in template: 17.A)</title><text x="69.25" y="152.54" class="green" >A</text></g>
<g><line x1="71.2859" y1="152.235" x2="79.2441" y2="152.235" class="black" /></g>
<g><title>18 (position.label in template: 18.U)</title><text x="69.04" y="144.98" class="green" >T</text></g>
<g><line x1="71.0759" y1="144.675" x2="79.4541" y2="144.675" class="black" /></g>
<g><title>19 (position.label in template: 19.G)</title><text x="68.83" y="137.42" class="black" >G</text></g>
<g><line x1="70.8659" y1="137.115" x2="79.2441" y2="137.115" class="black" /></g>
<g><title>20 (position.label in template: 20.G)</title><text x="68.83" y="129.86" class="black" >G</text></g>
<g><line x1="70.8659" y1="129.555" x2="79.0341" y2="129.555" class="black" /></g>
<g><text x="62.0913" y="131.202" class="numbering-label sequential" >20</text></g>
<g><line x1="67.033" y1="130.218" x2="63.9236" y2="130.837" class="numbering-line sequential" /></g>
<g><title>21 (position.label in template: 21.C)</title><text x="65.95" y="122.96" class="black" >C</text></g>
<g><title>22 (position.label in template: 22.A)</title><text x="69.25" y="116.07" class="green" >A</text></g>
<g><line x1="71.2859" y1="115.765" x2="79.2441" y2="115.765" class="black" /></g>
<g><title>23 (position.label in template: 23.G)</title><text x="68.83" y="108.51" class="black" >G</text></g>
<g><line x1="70.8659" y1="108.205" x2="79.2441" y2="108.205" class="black" /></g>
<g><title>24 (position.label in template: 24.G)</title><text x="68.83" y="100.95" class="green" >G</text></g>
<g><line x1="70.8659" y1="100.645" x2="79.2441" y2="100.645" class="black" /></g>
<g><title>25 (position.label in template: 25.C)</title><text x="69.04" y="93.39" class="black" >C</text></g>
<g><line x1="71.0759" y1="93.0846" x2="79.0341" y2="93.0846" class="black" /></g>
<g><title>26 (position.label in template: 26.C)</title><text x="69.04" y="85.83" class="black" >C</text></g>
<g><line x1="71.0759" y1="85.5246" x2="79.0341" y2="85.5246" class="black" /></g>
<g><title>27 (position.label in template: 27.U)</title><text x="63.34" y="80.87" class="green" >T</text></g>
<g><title>28 (position.label in template: 28.G)</title><text x="60.78" y="73.68" class="black" >G</text></g>
<g><title>29 (position.label in template: 29.U)</title><text x="62.66" y="66.31" class="green" >T</text></g>
<g><title>30 (position.label in template: 30.C)</title><text x="67.88" y="60.84" class="black" >C</text></g>
<g><text x="64.3518" y="54.9439" class="numbering-label sequential" >30</text></g>
<g><line x1="66.9391" y1="59.2677" x2="65.2655" y2="56.4708" class="numbering-line sequential" /></g>
<g><title>31 (position.label in template: 31.C)</title><text x="75.16" y="58.83" class="black" >C</text></g>
<g><title>32 (position.label in template: 32.C)</title><text x="82.45" y="60.84" class="black" >C</text></g>
<g><title>33 (position.label in template: 33.C)</title><text x="87.67" y="66.31" class="black" >C</text></g>
<g><title>34 (position.label in template: 34.C)</title><text x="89.34" y="73.68" class="black" >C</text></g>
<g><title>35 (position.label in template: 35.A)</title><text x="87.2" y="80.87" class="black" >A</text></g>
<g><title>36 (position.label in template: 36.G)</title><text x="81.07" y="85.83" class="black" >G</text></g>
<g><title>37 (position.label in template: 37.G)</title><text x="81.07" y="93.39" class="black" >G</text></g>
<g><title>38 (position.label in template: 38.G)</title><text x="87.62" y="97.17" class="black" >G</text></g>
<g><title>39 (position.label in template: 39.U)</title><text x="81.28" y="100.95" class="green" >T</text></g>
<g><title>40 (position.label in template: 40.C)</title><text x="81.28" y="108.51" class="black" >C</text></g>
<g><title>41 (position.label in template: 41.U)</title><text x="81.28" y="116.07" class="green" >T</text></g>
<g><title>42 (position.label in template: 42.C)</title><text x="84.38" y="122.96" class="black" >C</text></g>
<g><title>43 (position.label in template: 43.G)</title><text x="81.07" y="129.86" class="black" >G</text></g>
<g><title>44 (position.label in template: 44.C)</title><text x="81.28" y="137.42" class="black" >C</text></g>
<g><title>45 (position.label in template: 45.A)</title><text x="81.49" y="144.98" class="green" >A</text></g>
<g><title>46 (position.label in template: 46.U)</title><text x="81.28" y="152.54" class="green" >T</text></g>
<g><title>47 (position.label in template: 47.A)</title><text x="81.49" y="160.1" class="green" >A</text></g>
<g><title>48 (position.label in template: 48.U)</title><text x="84.38" y="166.99" class="green" >T</text></g>
<g><title>49 (position.label in template: 49.G)</title><text x="81.07" y="173.89" class="green" >G</text></g>
<g><title>50 (position.label in template: 50.C)</title><text x="81.28" y="181.45" class="black" >C</text></g>
<g><text x="88.1504" y="181.355" class="numbering-label sequential" >50</text></g>
<g><line x1="83.1121" y1="181.425" x2="86.3181" y2="181.38" class="numbering-line sequential" /></g>
<g><title>51 (position.label in template: 51.C)</title><text x="81.28" y="189.01" class="black" >C</text></g>
<g><title>52 (position.label in template: 52.C)</title><text x="81.28" y="196.57" class="black" >C</text></g>
<g><title>53 (position.label in template: 53.C)</title><text x="87.83" y="200.35" class="black" >C</text></g>
<g><title>54 (position.label in template: 54.A)</title><text x="81.49" y="204.13" class="green" >A</text></g>
<g><title>55 (position.label in template: 55.G)</title><text x="81.07" y="211.69" class="black" >G</text></g>
<g><title>56 (position.label in template: 56.G)</title><text x="81.07" y="219.25" class="black" >G</text></g>
<g><title>57 (position.label in template: 57.C)</title><text x="81.28" y="226.81" class="black" >C</text></g>
<g><title>58 (position.label in template: 58.C)</title><text x="86.63" y="232.15" class="black" >C</text></g>
<g><title>59 (position.label in template: 59.A)</title><text x="94.4" y="232.15" class="black" >A</text></g>
<g><title>60 (position.label in template: 60.G)</title><text x="101.54" y="232.15" class="black" >G</text></g>
<g><title>61 (position.label in template: 61.A)</title><text x="109.52" y="232.15" class="black" >A</text></g>
<g><title>62 (position.label in template: 62.G)</title><text x="116.66" y="232.15" class="black" >G</text></g>
<g><title>63 (position.label in template: 63.C)</title><text x="124.43" y="232.15" class="black" >C</text></g>
<g><title>64 (position.label in template: 64.A)</title><text x="132.2" y="232.15" class="black" >A</text></g>
<g><title>65 (position.label in template: 65.C)</title><text x="139.55" y="232.15" class="black" >C</text></g>
<g><title>66 (position.label in template: 66.G)</title><text x="146.9" y="232.15" class="black" >G</text></g>
<g><title>67 (position.label in template: 67.C)</title><text x="154.67" y="232.15" class="black" >C</text></g>
<g><title>68 (position.label in template: 68.U)</title><text x="162.23" y="232.15" class="green" >T</text></g>
<g><title>69 (position.label in template: 69.G)</title><text x="169.58" y="232.15" class="black" >G</text></g>
<g><title>70 (position.label in template: 70.C)</title><text x="175.14" y="226.81" class="black" >C</text></g>
<g><line x1="177.176" y1="226.505" x2="185.134" y2="226.505" class="black" /></g>
<g><title>71 (position.label in template: 71.A)</title><text x="175.34" y="219.25" class="green" >A</text></g>
<g><line x1="177.376" y1="218.945" x2="185.344" y2="218.945" class="black" /></g>
<g><title>72 (position.label in template: 72.G)</title><text x="174.93" y="211.69" class="green" >G</text></g>
<g><line x1="176.966" y1="211.385" x2="185.344" y2="211.385" class="black" /></g>
<g><title>73 (position.label in template: 73.C)</title><text x="175.14" y="204.13" class="black" >C</text></g>
<g><line x1="177.176" y1="203.825" x2="185.134" y2="203.825" class="black" /></g>
<g><title>74 (position.label in template: 74.C)</title><text x="175.14" y="196.57" class="black" >C</text></g>
<g><line x1="177.176" y1="196.265" x2="185.134" y2="196.265" class="black" /></g>
<g><title>75 (position.label in template: 75.U)</title><text x="175.14" y="189.01" class="green" >T</text></g>
<g><line x1="177.176" y1="188.705" x2="185.544" y2="188.705" class="black" /></g>
<g><title>76 (position.label in template: 76.U)</title><text x="167.9" y="186.83" class="green" >T</text></g>
<g><title>77 (position.label in template: 77.G)</title><text x="162.44" y="181.39" class="black" >G</text></g>
<g><title>78 (position.label in template: 78.A)</title><text x="160.94" y="174.07" class="black" >A</text></g>
<g><title>79 (position.label in template: 79.A)</title><text x="162.86" y="166.76" class="black" >A</text></g>
<g><title>80 (position.label in template: 80.C)</title><text x="167.9" y="161.31" class="black" >C</text></g>
<g><title>81 (position.label in template: 81.C)</title><text x="175.14" y="159.14" class="black" >C</text></g>
<g><line x1="177.176" y1="158.835" x2="185.134" y2="158.835" class="black" /></g>
<g><title>82 (position.label in template: 82.A)</title><text x="175.34" y="151.58" class="black" >A</text></g>
<g><line x1="177.376" y1="151.275" x2="185.344" y2="151.275" class="black" /></g>
<g><title>83 (position.label in template: 83.C)</title><text x="169.54" y="146.49" class="black" >C</text></g>
<g><title>84 (position.label in template: 84.U)</title><text x="167.47" y="139.22" class="green" >T</text></g>
<g><title>85 (position.label in template: 85.G)</title><text x="169.33" y="131.95" class="black" >G</text></g>
<g><title>86 (position.label in template: 86.C)</title><text x="175.14" y="126.87" class="black" >C</text></g>
<g><line x1="177.176" y1="126.565" x2="185.134" y2="126.565" class="black" /></g>
<g><title>87 (position.label in template: 87.C)</title><text x="175.14" y="119.31" class="black" >C</text></g>
<g><line x1="177.176" y1="119.005" x2="185.134" y2="119.005" class="black" /></g>
<g><title>88 (position.label in template: 88.C)</title><text x="175.14" y="111.75" class="black" >C</text></g>
<g><line x1="177.176" y1="111.445" x2="185.134" y2="111.445" class="black" /></g>
<g><title>89 (position.label in template: 89.G)</title><text x="174.93" y="104.19" class="green" >G</text></g>
<g><line x1="176.966" y1="103.885" x2="185.344" y2="103.885" class="black" /></g>
<g><title>90 (position.label in template: 90.G)</title><text x="174.93" y="96.63" class="black" >G</text></g>
<g><line x1="176.966" y1="96.3246" x2="185.344" y2="96.3246" class="black" /></g>
<g><title>91 (position.label in template: 91.C)</title><text x="175.14" y="89.07" class="black" >C</text></g>
<g><line x1="177.176" y1="88.7646" x2="185.134" y2="88.7646" class="black" /></g>
<g><title>92 (position.label in template: 92.C)</title><text x="175.14" y="81.51" class="black" >C</text></g>
<g><line x1="177.176" y1="81.2046" x2="185.134" y2="81.2046" class="black" /></g>
<g><title>93 (position.label in template: 93.U)</title><text x="175.14" y="73.95" class="green" >T</text></g>
<g><line x1="177.176" y1="73.6446" x2="185.544" y2="73.6446" class="black" /></g>
<g><title>94 (position.label in template: 94.C)</title><text x="169.78" y="68.61" class="black" >C</text></g>
<g><title>95 (position.label in template: 95.U)</title><text x="168.3" y="61.19" class="green" >T</text></g>
<g><title>96 (position.label in template: 96.G)</title><text x="170.98" y="54.21" class="black" >G</text></g>
<g><title>97 (position.label in template: 97.C)</title><text x="177.48" y="50" class="black" >C</text></g>
<g><title>98 (position.label in template: 98.U)</title><text x="185.04" y="50" class="green" >T</text></g>
<g><title>99 (position.label in template: 99.C)</title><text x="191.32" y="54.21" class="black" >C</text></g>
<g><title>100 (position.label in template: 100.A)</title><text x="194.42" y="61.19" class="black" >A</text></g>
<g><text x="201.258" y="60.5204" class="numbering-label sequential" >100</text></g>
<g><line x1="196.244" y1="61.0114" x2="198.51" y2="60.7895" class="numbering-line sequential" /></g>
<g><title>101 (position.label in template: 101.U)</title><text x="192.73" y="68.61" class="green" >T</text></g>
<g><title>102 (position.label in template: 102.A)</title><text x="187.58" y="73.95" class="green" >A</text></g>
<g><title>103 (position.label in template: 103.G)</title><text x="187.17" y="81.51" class="black" >G</text></g>
<g><title>104 (position.label in template: 104.G)</title><text x="187.17" y="89.07" class="black" >G</text></g>
<g><title>105 (position.label in template: 105.C)</title><text x="187.38" y="96.63" class="black" >C</text></g>
<g><title>106 (position.label in template: 106.U)</title><text x="187.38" y="104.19" class="green" >T</text></g>
<g><title>107 (position.label in template: 107.G)</title><text x="187.17" y="111.75" class="black" >G</text></g>
<g><title>108 (position.label in template: 108.C)</title><text x="194.94" y="111.75" class="black" >C</text></g>
<g><title>109 (position.label in template: 109.A)</title><text x="195.14" y="119.31" class="black" >A</text></g>
<g><title>110 (position.label in template: 110.G)</title><text x="187.17" y="119.31" class="black" >G</text></g>
<g><title>111 (position.label in template: 111.G)</title><text x="187.17" y="126.87" class="black" >G</text></g>
<g><title>112 (position.label in template: 112.A)</title><text x="193.18" y="131.95" class="black" >A</text></g>
<g><title>113 (position.label in template: 113.A)</title><text x="195.25" y="139.22" class="black" >A</text></g>
<g><title>114 (position.label in template: 114.C)</title><text x="192.97" y="146.49" class="black" >C</text></g>
<g><title>115 (position.label in template: 115.C)</title><text x="187.38" y="151.58" class="black" >C</text></g>
<g><title>116 (position.label in template: 116.G)</title><text x="187.17" y="159.14" class="black" >G</text></g>
<g><title>117 (position.label in template: 117.A)</title><text x="193.71" y="163.56" class="black" >A</text></g>
<g><title>118 (position.label in template: 118.A)</title><text x="197.16" y="170.29" class="black" >A</text></g>
<g><title>119 (position.label in template: 119.G)</title><text x="196.74" y="177.85" class="black" >G</text></g>
<g><title>120 (position.label in template: 120.C)</title><text x="193.51" y="184.58" class="black" >C</text></g>
<g><title>121 (position.label in template: 121.A)</title><text x="187.58" y="189.01" class="green" >A</text></g>
<g><title>122 (position.label in template: 122.G)</title><text x="187.17" y="196.57" class="black" >G</text></g>
<g><title>123 (position.label in template: 123.G)</title><text x="187.17" y="204.13" class="black" >G</text></g>
<g><title>124 (position.label in template: 124.U)</title><text x="187.38" y="211.69" class="green" >T</text></g>
<g><title>125 (position.label in template: 125.U)</title><text x="187.38" y="219.25" class="green" >T</text></g>
<g><title>126 (position.label in template: 126.G)</title><text x="187.17" y="226.81" class="black" >G</text></g>
<g><title>127 (position.label in template: 127.C)</title><text x="192.618" y="232.052" class="black" >C</text></g>
<g><title>128 (position.label in template: 128.A)</title><text x="200.179" y="232.052" class="black" >A</text></g>
<g><title>129 (position.label in template: 129.C)</title><text x="207.74" y="232.052" class="black" >C</text></g>
<g><title>130 (position.label in template: 130.A)</title><text x="215.301" y="232.052" class="black" >A</text></g>
<g><title>131 (position.label in template: 131.G)</title><text x="222.862" y="232.052" class="black" >G</text></g>
<g><title>132 (position.label in template: 132.U)</title><text x="230.423" y="232.052" class="green" >T</text></g>
<g><title>133 (position.label in template: 133.G)</title><text x="237.984" y="232.052" class="black" >G</text></g>
<g><title>134 (position.label in template: 134.3')</title><text x="245.545" y="232.052" class="green" >3'</text></g>
<g><line x1="68.6766" y1="232.028" x2="68.7735" y2="228.54" class="gray" /></g>
<g><line x1="68.8865" y1="224.47" x2="68.9835" y2="220.98" class="gray" /></g>
<g><line x1="69.0965" y1="216.91" x2="69.1935" y2="213.42" class="gray" /></g>
<g><line x1="69.1935" y1="209.35" x2="69.0965" y2="205.86" class="gray" /></g>
<g><line x1="68.9835" y1="201.79" x2="68.8865" y2="198.3" class="gray" /></g>
<g><line x1="68.83" y1="194.229" x2="68.83" y2="190.74" class="gray" /></g>
<g><line x1="68.83" y1="186.669" x2="68.83" y2="183.18" class="gray" /></g>
<g><line x1="68.8865" y1="179.11" x2="68.9835" y2="175.62" class="gray" /></g>
<g><line x1="67.2933" y1="174.63" x2="64.3067" y2="176.419" class="gray" /></g>
<g><line x1="60.5512" y1="177.133" x2="57.1088" y2="176.566" class="gray" /></g>
<g><line x1="53.7517" y1="174.709" x2="51.3483" y2="171.99" class="gray" /></g>
<g><line x1="50" y1="168.429" x2="50" y2="164.94" class="gray" /></g>
<g><line x1="51.3799" y1="161.408" x2="53.9301" y2="158.641" class="gray" /></g>
<g><line x1="57.3167" y1="156.801" x2="60.5533" y2="156.248" class="gray" /></g>
<g><line x1="64.3055" y1="156.952" x2="67.2945" y2="158.747" class="gray" /></g>
<g><line x1="67.2637" y1="158.8" x2="64.0663" y2="157.009" class="gray" /></g>
<g><line x1="64.0791" y1="155.043" x2="67.4609" y2="153.206" class="gray" /></g>
<g><line x1="69.1935" y1="150.2" x2="69.0965" y2="146.71" class="gray" /></g>
<g><line x1="68.9835" y1="142.64" x2="68.8865" y2="139.15" class="gray" /></g>
<g><line x1="68.83" y1="135.079" x2="68.83" y2="131.59" class="gray" /></g>
<g><line x1="68.0458" y1="127.676" x2="66.7342" y2="124.533" class="gray" /></g>
<g><line x1="66.8294" y1="120.818" x2="68.3706" y2="117.601" class="gray" /></g>
<g><line x1="69.1371" y1="113.732" x2="68.9429" y2="110.237" class="gray" /></g>
<g><line x1="68.83" y1="106.169" x2="68.83" y2="102.68" class="gray" /></g>
<g><line x1="68.8865" y1="98.6095" x2="68.9835" y2="95.1197" class="gray" /></g>
<g><line x1="69.04" y1="91.0487" x2="69.04" y2="87.5605" class="gray" /></g>
<g><line x1="67.5042" y1="84.1882" x2="64.8758" y2="81.9011" class="gray" /></g>
<g><line x1="62.6571" y1="78.6467" x2="61.4629" y2="75.2926" class="gray" /></g>
<g><line x1="61.2832" y1="71.4019" x2="62.1568" y2="67.9773" class="gray" /></g>
<g><line x1="64.0655" y1="64.5318" x2="66.4745" y2="62.0075" class="gray" /></g>
<g><line x1="69.8425" y1="59.9928" x2="73.1975" y2="59.0664" class="gray" /></g>
<g><line x1="77.1226" y1="59.0658" x2="80.4874" y2="59.9935" class="gray" /></g>
<g><line x1="83.8555" y1="62.0075" x2="86.2645" y2="64.5318" class="gray" /></g>
<g><line x1="88.1199" y1="67.9902" x2="88.8901" y2="71.3891" class="gray" /></g>
<g><line x1="88.7592" y1="75.3259" x2="87.7808" y2="78.6133" class="gray" /></g>
<g><line x1="85.6173" y1="81.8452" x2="82.6527" y2="84.244" class="gray" /></g>
<g><line x1="81.07" y1="87.5605" x2="81.07" y2="91.0487" class="gray" /></g>
<g><line x1="82.8333" y1="94.1022" x2="85.8567" y2="95.847" class="gray" /></g>
<g><line x1="85.8713" y1="97.9072" x2="83.0287" y2="99.602" class="gray" /></g>
<g><line x1="81.28" y1="102.68" x2="81.28" y2="106.169" class="gray" /></g>
<g><line x1="81.28" y1="110.24" x2="81.28" y2="113.729" class="gray" /></g>
<g><line x1="82.1153" y1="117.621" x2="83.5447" y2="120.798" class="gray" /></g>
<g><line x1="83.4994" y1="124.49" x2="81.9506" y2="127.719" class="gray" /></g>
<g><line x1="81.1265" y1="131.59" x2="81.2235" y2="135.08" class="gray" /></g>
<g><line x1="81.3365" y1="139.15" x2="81.4335" y2="142.64" class="gray" /></g>
<g><line x1="81.4335" y1="146.71" x2="81.3365" y2="150.2" class="gray" /></g>
<g><line x1="81.3365" y1="154.27" x2="81.4335" y2="157.76" class="gray" /></g>
<g><line x1="82.2775" y1="161.672" x2="83.5925" y2="164.807" class="gray" /></g>
<g><line x1="83.4994" y1="168.52" x2="81.9506" y2="171.749" class="gray" /></g>
<g><line x1="81.1265" y1="175.62" x2="81.2235" y2="179.11" class="gray" /></g>
<g><line x1="81.28" y1="183.18" x2="81.28" y2="186.669" class="gray" /></g>
<g><line x1="81.28" y1="190.74" x2="81.28" y2="194.229" class="gray" /></g>
<g><line x1="83.0433" y1="197.282" x2="86.0667" y2="199.027" class="gray" /></g>
<g><line x1="86.0813" y1="201.087" x2="83.2387" y2="202.782" class="gray" /></g>
<g><line x1="81.3771" y1="205.857" x2="81.1829" y2="209.352" class="gray" /></g>
<g><line x1="81.07" y1="213.42" x2="81.07" y2="216.909" class="gray" /></g>
<g><line x1="81.1265" y1="220.98" x2="81.2235" y2="224.47" class="gray" /></g>
<g><line x1="82.7209" y1="227.943" x2="85.1891" y2="230.406" class="gray" /></g>
<g><line x1="88.6659" y1="231.845" x2="92.3641" y2="231.845" class="gray" /></g>
<g><line x1="96.4359" y1="231.845" x2="99.5041" y2="231.845" class="gray" /></g>
<g><line x1="103.576" y1="231.845" x2="107.484" y2="231.845" class="gray" /></g>
<g><line x1="111.556" y1="231.845" x2="114.624" y2="231.845" class="gray" /></g>
<g><line x1="118.696" y1="231.845" x2="122.394" y2="231.845" class="gray" /></g>
<g><line x1="126.466" y1="231.845" x2="130.164" y2="231.845" class="gray" /></g>
<g><line x1="134.236" y1="231.845" x2="137.514" y2="231.845" class="gray" /></g>
<g><line x1="141.586" y1="231.845" x2="144.864" y2="231.845" class="gray" /></g>
<g><line x1="148.936" y1="231.845" x2="152.634" y2="231.845" class="gray" /></g>
<g><line x1="156.706" y1="231.845" x2="160.194" y2="231.845" class="gray" /></g>
<g><line x1="164.266" y1="231.845" x2="167.544" y2="231.845" class="gray" /></g>
<g><line x1="171.048" y1="230.434" x2="173.672" y2="227.915" class="gray" /></g>
<g><line x1="175.194" y1="224.469" x2="175.286" y2="220.98" class="gray" /></g>
<g><line x1="175.23" y1="216.912" x2="175.04" y2="213.418" class="gray" /></g>
<g><line x1="174.987" y1="209.35" x2="175.083" y2="205.86" class="gray" /></g>
<g><line x1="175.14" y1="201.789" x2="175.14" y2="198.3" class="gray" /></g>
<g><line x1="175.14" y1="194.229" x2="175.14" y2="190.74" class="gray" /></g>
<g><line x1="173.191" y1="188.118" x2="169.849" y2="187.112" class="gray" /></g>
<g><line x1="166.458" y1="185.088" x2="163.882" y2="182.522" class="gray" /></g>
<g><line x1="162.031" y1="179.09" x2="161.349" y2="175.759" class="gray" /></g>
<g><line x1="161.457" y1="171.796" x2="162.343" y2="168.424" class="gray" /></g>
<g><line x1="164.242" y1="164.96" x2="166.518" y2="162.499" class="gray" /></g>
<g><line x1="169.85" y1="160.42" x2="173.19" y2="159.419" class="gray" /></g>
<g><line x1="175.194" y1="156.799" x2="175.286" y2="153.31" class="gray" /></g>
<g><line x1="173.81" y1="149.932" x2="171.07" y2="147.527" class="gray" /></g>
<g><line x1="168.982" y1="144.227" x2="168.028" y2="140.873" class="gray" /></g>
<g><line x1="167.975" y1="136.942" x2="168.825" y2="133.617" class="gray" /></g>
<g><line x1="170.863" y1="130.305" x2="173.607" y2="127.905" class="gray" /></g>
<g><line x1="175.14" y1="124.529" x2="175.14" y2="121.04" class="gray" /></g>
<g><line x1="175.14" y1="116.969" x2="175.14" y2="113.48" class="gray" /></g>
<g><line x1="175.083" y1="109.41" x2="174.987" y2="105.92" class="gray" /></g>
<g><line x1="174.93" y1="101.849" x2="174.93" y2="98.3605" class="gray" /></g>
<g><line x1="174.987" y1="94.2895" x2="175.083" y2="90.7997" class="gray" /></g>
<g><line x1="175.14" y1="86.7287" x2="175.14" y2="83.2405" class="gray" /></g>
<g><line x1="175.14" y1="79.1687" x2="175.14" y2="75.6805" class="gray" /></g>
<g><line x1="173.698" y1="72.2077" x2="171.222" y2="69.7415" class="gray" /></g>
<g><line x1="169.382" y1="66.3081" x2="168.698" y2="62.8812" class="gray" /></g>
<g><line x1="169.03" y1="58.984" x2="170.25" y2="55.8052" class="gray" /></g>
<g><line x1="172.689" y1="52.7979" x2="175.771" y2="50.8014" class="gray" /></g>
<g><line x1="179.516" y1="49.6946" x2="183.004" y2="49.6946" class="gray" /></g>
<g><line x1="186.731" y1="50.8283" x2="189.629" y2="52.771" class="gray" /></g>
<g><line x1="192.146" y1="55.7653" x2="193.594" y2="59.024" class="gray" /></g>
<g><line x1="193.968" y1="62.8697" x2="193.182" y2="66.3196" class="gray" /></g>
<g><line x1="191.317" y1="69.77" x2="188.993" y2="72.1792" class="gray" /></g>
<g><line x1="187.47" y1="75.6775" x2="187.28" y2="79.1717" class="gray" /></g>
<g><line x1="187.17" y1="83.2405" x2="187.17" y2="86.7287" class="gray" /></g>
<g><line x1="187.227" y1="90.7997" x2="187.323" y2="94.2895" class="gray" /></g>
<g><line x1="187.38" y1="98.3605" x2="187.38" y2="101.849" class="gray" /></g>
<g><line x1="187.323" y1="105.92" x2="187.227" y2="109.41" class="gray" /></g>
<g><line x1="189.206" y1="111.445" x2="192.904" y2="111.445" class="gray" /></g>
<g><line x1="194.994" y1="113.48" x2="195.086" y2="116.969" class="gray" /></g>
<g><line x1="193.104" y1="119.005" x2="189.206" y2="119.005" class="gray" /></g>
<g><line x1="187.17" y1="121.04" x2="187.17" y2="124.529" class="gray" /></g>
<g><line x1="188.725" y1="127.879" x2="191.625" y2="130.33" class="gray" /></g>
<g><line x1="193.738" y1="133.603" x2="194.692" y2="136.957" class="gray" /></g>
<g><line x1="194.641" y1="140.857" x2="193.579" y2="144.242" class="gray" /></g>
<g><line x1="191.465" y1="147.555" x2="188.885" y2="149.904" class="gray" /></g>
<g><line x1="187.323" y1="153.31" x2="187.227" y2="156.8" class="gray" /></g>
<g><line x1="188.857" y1="159.975" x2="192.023" y2="162.115" class="gray" /></g>
<g><line x1="194.639" y1="165.066" x2="196.231" y2="168.173" class="gray" /></g>
<g><line x1="197.047" y1="172.017" x2="196.853" y2="175.512" class="gray" /></g>
<g><line x1="195.859" y1="179.38" x2="194.391" y2="182.439" class="gray" /></g>
<g><line x1="191.879" y1="185.493" x2="189.211" y2="187.486" class="gray" /></g>
<g><line x1="187.47" y1="190.738" x2="187.28" y2="194.232" class="gray" /></g>
<g><line x1="187.17" y1="198.3" x2="187.17" y2="201.789" class="gray" /></g>
<g><line x1="187.227" y1="205.86" x2="187.323" y2="209.35" class="gray" /></g>
<g><line x1="187.38" y1="213.42" x2="187.38" y2="216.909" class="gray" /></g>
<g><line x1="187.323" y1="220.98" x2="187.227" y2="224.47" class="gray" /></g>
<g><line x1="188.637" y1="227.916" x2="191.151" y2="230.335" class="gray" /></g>
<g><line x1="194.654" y1="231.747" x2="198.143" y2="231.747" class="gray" /></g>
<g><line x1="202.215" y1="231.747" x2="205.704" y2="231.747" class="gray" /></g>
<g><line x1="209.776" y1="231.747" x2="213.265" y2="231.747" class="gray" /></g>
<g><line x1="217.337" y1="231.747" x2="220.826" y2="231.747" class="gray" /></g>
<g><line x1="224.898" y1="231.747" x2="228.387" y2="231.747" class="gray" /></g>
<g><line x1="232.459" y1="231.747" x2="235.948" y2="231.747" class="gray" /></g>
<g><line x1="240.02" y1="231.747" x2="243.509" y2="231.747" class="gray" /></g>
</svg>
