<svg
	xmlns="http://www.w3.org/2000/svg"
	width="289.391"
	height="209.118">
<g><style type="text/css" >
<!-- create color definitions -->
<![CDATA[
circle.red {stroke: rgb(255, 0, 255); fill: none; }
circle.green {stroke: rgb(0, 255, 0); fill: none; }
circle.blue {stroke: rgb(0, 0, 255); fill: none; }
circle.black {stroke: rgb(0, 0, 0); fill: none; }
circle.gray {stroke: rgb(204, 204, 204); fill: none; }
circle.brown {stroke: rgb(211.65, 104.55, 30.6); fill: none; }
line.red {stroke: rgb(255, 0, 255); stroke-width: 0.381187; }
line.green {stroke: rgb(0, 255, 0); stroke-width: 0.381187; }
line.blue {stroke: rgb(0, 0, 255); stroke-width: 0.381187; }
line.black {stroke: rgb(0, 0, 0); stroke-width: 0.381187; }
line.gray {stroke: rgb(204, 204, 204); stroke-width: 0.381187; }
line.brown {stroke: rgb(211.65, 104.55, 30.6); stroke-width: 0.381187; }
line {stroke: rgb(0, 0, 0); }
text.red {fill: rgb(255, 0, 255); font-size: 3.049500px; font-weight: bold; font-family: Helvetica; }
text.green {fill: rgb(0, 255, 0); font-size: 3.049500px; font-weight: bold; font-family: Helvetica; }
text.blue {fill: rgb(0, 0, 255); font-size: 3.049500px; font-weight: bold; font-family: Helvetica; }
text.black {fill: rgb(0, 0, 0); font-size: 3.049500px; font-weight: bold; font-family: Helvetica; }
text.gray {fill: rgb(204, 204, 204); font-size: 3.049500px; font-weight: bold; font-family: Helvetica; }
text.brown {fill: rgb(211.65, 104.55, 30.6); font-size: 3.049500px; font-weight: bold; font-family: Helvetica; }
text {fill: rgb(0, 0, 0); font-size: 3.049500px; font-weight: bold; font-family: Helvetica; text-anchor: middle; alignment-baseline: middle; }

.pseudoknot_connection{stroke-linecap: round; stroke-opacity: 0.2; stroke-width: 1.5; }
.pseudoknot_segment1{stroke-linecap: round; stroke-opacity: 0.4; stroke-width: 3.0495; }
.pseudoknot_segment2{stroke-linecap: round; stroke-opacity: 0.4; stroke-width: 3.0495; }
line.numbering-line{stroke: rgb(204, 204, 204); stroke-width: 0.190594; }
line.predicted{stroke: rgb(0, 0, 0); stroke-dasharray: 2; }
polyline{fill: none; stroke-linejoin: round; }
template{visibility: hidden; }
text.numbering-label{fill: rgb(204, 204, 204); }
]]>
</style></g>
<g><title>0 (position.label in template: 0.5')</title><text x="42.4382" y="159.118" class="green" >5'</text></g>
<g><title>1 (position.label in template: 1.U)</title><text x="50" y="159.118" class="green" >T</text></g>
<g><title>2 (position.label in template: 2.C)</title><text x="57.5618" y="159.118" class="black" >C</text></g>
<g><title>3 (position.label in template: 3.U)</title><text x="65.1236" y="159.118" class="green" >T</text></g>
<g><title>4 (position.label in template: 4.C)</title><text x="72.6855" y="159.118" class="black" >C</text></g>
<g><title>5 (position.label in template: 5.C)</title><text x="80.2473" y="159.118" class="black" >C</text></g>
<g><title>6 (position.label in template: 6.A)</title><text x="87.8091" y="159.118" class="black" >A</text></g>
<g><title>7 (position.label in template: 7.A)</title><text x="95.3709" y="159.118" class="black" >A</text></g>
<g><title>8 (position.label in template: 8.A)</title><text x="102.933" y="159.118" class="black" >A</text></g>
<g><title>9 (position.label in template: 9.C)</title><text x="110.495" y="159.118" class="black" >C</text></g>
<g><title>10 (position.label in template: 10.G)</title><text x="118.056" y="159.118" class="black" >G</text></g>
<g><text x="118.056" y="165.979" class="numbering-label sequential" >10</text></g>
<g><line x1="118.056" y1="160.948" x2="118.056" y2="164.455" class="numbering-line sequential" /></g>
<g><title>11 (position.label in template: 11.G)</title><text x="125.618" y="159.118" class="black" >G</text></g>
<g><title>12 (position.label in template: 12.U)</title><text x="133.18" y="159.118" class="green" >T</text></g>
<g><title>13 (position.label in template: 13.G)</title><text x="140.742" y="159.118" class="black" >G</text></g>
<g><title>14 (position.label in template: 14.A)</title><text x="148.304" y="159.118" class="black" >A</text></g>
<g><title>15 (position.label in template: 15.U)</title><text x="155.866" y="159.118" class="green" >T</text></g>
<g><title>16 (position.label in template: 16.G)</title><text x="161.099" y="153.66" class="black" >G</text></g>
<g><line x1="163.132" y1="153.355" x2="171.516" y2="153.355" class="black" /></g>
<g><title>17 (position.label in template: 17.G)</title><text x="161.099" y="146.1" class="black" >G</text></g>
<g><line x1="163.132" y1="145.795" x2="171.516" y2="145.795" class="black" /></g>
<g><title>18 (position.label in template: 18.A)</title><text x="161.519" y="138.54" class="green" >A</text></g>
<g><line x1="163.552" y1="138.235" x2="171.516" y2="138.235" class="black" /></g>
<g><title>19 (position.label in template: 19.G)</title><text x="161.099" y="130.98" class="black" >G</text></g>
<g><line x1="163.132" y1="130.675" x2="171.516" y2="130.675" class="black" /></g>
<g><title>20 (position.label in template: 20.U)</title><text x="161.309" y="123.42" class="green" >T</text></g>
<g><line x1="163.342" y1="123.115" x2="171.726" y2="123.115" class="black" /></g>
<g><text x="154.448" y="123.325" class="numbering-label sequential" >20</text></g>
<g><line x1="159.48" y1="123.395" x2="156.278" y2="123.35" class="numbering-line sequential" /></g>
<g><title>21 (position.label in template: 21.U)</title><text x="161.309" y="115.86" class="green" >T</text></g>
<g><line x1="163.342" y1="115.555" x2="171.306" y2="115.555" class="black" /></g>
<g><title>22 (position.label in template: 22.C)</title><text x="155.329" y="120.49" class="black" >C</text></g>
<g><title>23 (position.label in template: 23.A)</title><text x="148.359" y="122.84" class="black" >A</text></g>
<g><title>24 (position.label in template: 24.C)</title><text x="140.589" y="122.64" class="black" >C</text></g>
<g><title>25 (position.label in template: 25.C)</title><text x="133.539" y="119.9" class="black" >C</text></g>
<g><title>26 (position.label in template: 26.G)</title><text x="127.619" y="114.96" class="black" >G</text></g>
<g><title>27 (position.label in template: 27.G)</title><text x="123.889" y="108.38" class="black" >G</text></g>
<g><title>28 (position.label in template: 28.A)</title><text x="123.019" y="100.93" class="black" >A</text></g>
<g><title>29 (position.label in template: 29.A)</title><text x="124.309" y="93.48" class="black" >A</text></g>
<g><title>30 (position.label in template: 30.A)</title><text x="128.029" y="86.9" class="black" >A</text></g>
<g><text x="122.72" y="82.5534" class="numbering-label sequential" >30</text></g>
<g><line x1="126.613" y1="85.7409" x2="124.55" y2="84.0514" class="numbering-line sequential" /></g>
<g><title>31 (position.label in template: 31.A)</title><text x="133.749" y="81.95" class="black" >A</text></g>
<g><title>32 (position.label in template: 32.A)</title><text x="140.799" y="79.22" class="black" >A</text></g>
<g><title>33 (position.label in template: 33.C)</title><text x="148.149" y="79.01" class="black" >C</text></g>
<g><title>34 (position.label in template: 34.C)</title><text x="155.329" y="81.36" class="black" >C</text></g>
<g><title>35 (position.label in template: 35.A)</title><text x="161.519" y="85.99" class="green" >A</text></g>
<g><line x1="163.552" y1="85.6851" x2="171.516" y2="85.6851" class="black" /></g>
<g><title>36 (position.label in template: 36.C)</title><text x="161.309" y="78.43" class="black" >C</text></g>
<g><line x1="163.342" y1="78.1251" x2="171.306" y2="78.1251" class="black" /></g>
<g><title>37 (position.label in template: 37.C)</title><text x="161.309" y="70.87" class="black" >C</text></g>
<g><line x1="163.342" y1="70.5651" x2="171.306" y2="70.5651" class="black" /></g>
<g><title>38 (position.label in template: 38.C)</title><text x="161.309" y="63.31" class="black" >C</text></g>
<g><line x1="163.342" y1="63.0051" x2="171.306" y2="63.0051" class="black" /></g>
<g><title>39 (position.label in template: 39.G)</title><text x="158.929" y="56.07" class="black" >G</text></g>
<g><title>40 (position.label in template: 40.U)</title><text x="163.649" y="50" class="green" >T</text></g>
<g><title>41 (position.label in template: 41.A)</title><text x="171.419" y="50" class="black" >A</text></g>
<g><title>42 (position.label in template: 42.A)</title><text x="175.929" y="56.07" class="black" >A</text></g>
<g><title>43 (position.label in template: 43.G)</title><text x="173.339" y="63.31" class="black" >G</text></g>
<g><title>44 (position.label in template: 44.G)</title><text x="173.339" y="70.87" class="black" >G</text></g>
<g><title>45 (position.label in template: 45.G)</title><text x="173.339" y="78.43" class="black" >G</text></g>
<g><title>46 (position.label in template: 46.U)</title><text x="173.549" y="85.99" class="green" >T</text></g>
<g><title>47 (position.label in template: 47.U)</title><text x="179.679" y="90.42" class="green" >T</text></g>
<g><title>48 (position.label in template: 48.G)</title><text x="182.909" y="97.15" class="black" >G</text></g>
<g><title>49 (position.label in template: 49.A)</title><text x="183.329" y="104.71" class="black" >A</text></g>
<g><title>50 (position.label in template: 50.U)</title><text x="179.679" y="111.44" class="green" >T</text></g>
<g><text x="184.789" y="116.019" class="numbering-label sequential" >50</text></g>
<g><line x1="181.042" y1="112.661" x2="183.088" y2="114.494" class="numbering-line sequential" /></g>
<g><title>51 (position.label in template: 51.G)</title><text x="173.339" y="115.86" class="green" >G</text></g>
<g><title>52 (position.label in template: 52.A)</title><text x="173.759" y="123.42" class="green" >A</text></g>
<g><title>53 (position.label in template: 53.C)</title><text x="173.549" y="130.98" class="black" >C</text></g>
<g><title>54 (position.label in template: 54.U)</title><text x="173.549" y="138.54" class="green" >T</text></g>
<g><title>55 (position.label in template: 55.C)</title><text x="173.549" y="146.1" class="black" >C</text></g>
<g><title>56 (position.label in template: 56.C)</title><text x="173.549" y="153.66" class="black" >C</text></g>
<g><title>57 (position.label in template: 57.U)</title><text x="178.896" y="159.007" class="green" >T</text></g>
<g><title>58 (position.label in template: 58.A)</title><text x="186.458" y="159.007" class="black" >A</text></g>
<g><title>59 (position.label in template: 59.C)</title><text x="194.02" y="159.007" class="black" >C</text></g>
<g><title>60 (position.label in template: 60.C)</title><text x="201.582" y="159.007" class="black" >C</text></g>
<g><title>61 (position.label in template: 61.A)</title><text x="209.143" y="159.007" class="black" >A</text></g>
<g><title>62 (position.label in template: 62.A)</title><text x="216.705" y="159.007" class="black" >A</text></g>
<g><title>63 (position.label in template: 63.G)</title><text x="224.267" y="159.007" class="black" >G</text></g>
<g><title>64 (position.label in template: 64.G)</title><text x="231.829" y="159.007" class="black" >G</text></g>
<g><title>65 (position.label in template: 65.A)</title><text x="239.391" y="159.007" class="black" >A</text></g>
<g><title>66 (position.label in template: 66.3')</title><text x="246.953" y="159.007" class="green" >3'</text></g>
<g><line x1="44.4712" y1="158.813" x2="47.967" y2="158.813" class="gray" /></g>
<g><line x1="52.033" y1="158.813" x2="55.5288" y2="158.813" class="gray" /></g>
<g><line x1="59.5948" y1="158.813" x2="63.0906" y2="158.813" class="gray" /></g>
<g><line x1="67.1566" y1="158.813" x2="70.6525" y2="158.813" class="gray" /></g>
<g><line x1="74.7185" y1="158.813" x2="78.2143" y2="158.813" class="gray" /></g>
<g><line x1="82.2803" y1="158.813" x2="85.7761" y2="158.813" class="gray" /></g>
<g><line x1="89.8421" y1="158.813" x2="93.3379" y2="158.813" class="gray" /></g>
<g><line x1="97.4039" y1="158.813" x2="100.9" y2="158.813" class="gray" /></g>
<g><line x1="104.966" y1="158.813" x2="108.462" y2="158.813" class="gray" /></g>
<g><line x1="112.528" y1="158.813" x2="116.023" y2="158.813" class="gray" /></g>
<g><line x1="120.089" y1="158.813" x2="123.585" y2="158.813" class="gray" /></g>
<g><line x1="127.651" y1="158.813" x2="131.147" y2="158.813" class="gray" /></g>
<g><line x1="135.213" y1="158.813" x2="138.709" y2="158.813" class="gray" /></g>
<g><line x1="142.775" y1="158.813" x2="146.271" y2="158.813" class="gray" /></g>
<g><line x1="150.337" y1="158.813" x2="153.833" y2="158.813" class="gray" /></g>
<g><line x1="157.273" y1="157.346" x2="159.692" y2="154.822" class="gray" /></g>
<g><line x1="161.099" y1="151.322" x2="161.099" y2="147.828" class="gray" /></g>
<g><line x1="161.212" y1="143.765" x2="161.406" y2="140.265" class="gray" /></g>
<g><line x1="161.406" y1="136.205" x2="161.212" y2="132.705" class="gray" /></g>
<g><line x1="161.156" y1="128.643" x2="161.253" y2="125.147" class="gray" /></g>
<g><line x1="161.309" y1="121.082" x2="161.309" y2="117.588" class="gray" /></g>
<g><line x1="159.702" y1="116.8" x2="156.937" y2="118.94" class="gray" /></g>
<g><line x1="153.403" y1="120.835" x2="150.286" y2="121.886" class="gray" /></g>
<g><line x1="146.327" y1="122.483" x2="142.621" y2="122.387" class="gray" /></g>
<g><line x1="138.694" y1="121.599" x2="135.434" y2="120.332" class="gray" /></g>
<g><line x1="131.978" y1="118.293" x2="129.18" y2="115.958" class="gray" /></g>
<g><line x1="126.617" y1="112.886" x2="124.892" y2="109.844" class="gray" /></g>
<g><line x1="123.653" y1="106.056" x2="123.255" y2="102.644" class="gray" /></g>
<g><line x1="123.366" y1="98.6219" x2="123.962" y2="95.1782" class="gray" /></g>
<g><line x1="125.31" y1="91.4053" x2="127.029" y2="88.3648" class="gray" /></g>
<g><line x1="129.566" y1="85.2647" x2="132.212" y2="82.9754" class="gray" /></g>
<g><line x1="135.645" y1="80.9109" x2="138.903" y2="79.6492" class="gray" /></g>
<g><line x1="142.831" y1="78.857" x2="146.117" y2="78.7631" class="gray" /></g>
<g><line x1="150.081" y1="79.3374" x2="153.397" y2="80.4227" class="gray" /></g>
<g><line x1="156.957" y1="82.2727" x2="159.891" y2="84.4674" class="gray" /></g>
<g><line x1="161.463" y1="83.6528" x2="161.366" y2="80.1573" class="gray" /></g>
<g><line x1="161.309" y1="76.0921" x2="161.309" y2="72.5981" class="gray" /></g>
<g><line x1="161.309" y1="68.532" x2="161.309" y2="65.038" class="gray" /></g>
<g><line x1="160.674" y1="61.0737" x2="159.564" y2="57.6964" class="gray" /></g>
<g><line x1="160.177" y1="54.1602" x2="162.401" y2="51.2999" class="gray" /></g>
<g><line x1="165.682" y1="49.6951" x2="169.386" y2="49.6951" class="gray" /></g>
<g><line x1="172.632" y1="51.3269" x2="174.717" y2="54.1332" class="gray" /></g>
<g><line x1="175.244" y1="57.6793" x2="174.024" y2="61.0908" class="gray" /></g>
<g><line x1="173.339" y1="65.038" x2="173.339" y2="68.532" class="gray" /></g>
<g><line x1="173.339" y1="72.5981" x2="173.339" y2="76.0921" class="gray" /></g>
<g><line x1="173.396" y1="80.1573" x2="173.493" y2="83.6528" class="gray" /></g>
<g><line x1="175.197" y1="86.8758" x2="178.031" y2="88.9243" class="gray" /></g>
<g><line x1="180.559" y1="91.9479" x2="182.029" y2="95.0122" class="gray" /></g>
<g><line x1="183.022" y1="98.8749" x2="183.216" y2="102.375" class="gray" /></g>
<g><line x1="182.36" y1="106.192" x2="180.648" y2="109.348" class="gray" /></g>
<g><line x1="178.011" y1="112.298" x2="175.007" y2="114.392" class="gray" /></g>
<g><line x1="173.452" y1="117.585" x2="173.646" y2="121.085" class="gray" /></g>
<g><line x1="173.703" y1="125.147" x2="173.606" y2="128.643" class="gray" /></g>
<g><line x1="173.549" y1="132.708" x2="173.549" y2="136.202" class="gray" /></g>
<g><line x1="173.549" y1="140.268" x2="173.549" y2="143.762" class="gray" /></g>
<g><line x1="173.549" y1="147.828" x2="173.549" y2="151.322" class="gray" /></g>
<g><line x1="174.987" y1="154.793" x2="177.459" y2="157.265" class="gray" /></g>
<g><line x1="180.929" y1="158.702" x2="184.425" y2="158.702" class="gray" /></g>
<g><line x1="188.491" y1="158.702" x2="191.987" y2="158.702" class="gray" /></g>
<g><line x1="196.053" y1="158.702" x2="199.549" y2="158.702" class="gray" /></g>
<g><line x1="203.615" y1="158.702" x2="207.11" y2="158.702" class="gray" /></g>
<g><line x1="211.176" y1="158.702" x2="214.672" y2="158.702" class="gray" /></g>
<g><line x1="218.738" y1="158.702" x2="222.234" y2="158.702" class="gray" /></g>
<g><line x1="226.3" y1="158.702" x2="229.796" y2="158.702" class="gray" /></g>
<g><line x1="233.862" y1="158.702" x2="237.358" y2="158.702" class="gray" /></g>
<g><line x1="241.424" y1="158.702" x2="244.92" y2="158.702" class="gray" /></g>
</svg>
