<svg
	xmlns="http://www.w3.org/2000/svg"
	width="261.7"
	height="279.29">
<g><style type="text/css" >
<!-- create color definitions -->
<![CDATA[
circle.red {stroke: rgb(255, 0, 255); fill: none; }
circle.green {stroke: rgb(0, 255, 0); fill: none; }
circle.blue {stroke: rgb(0, 0, 255); fill: none; }
circle.black {stroke: rgb(0, 0, 0); fill: none; }
circle.gray {stroke: rgb(204, 204, 204); fill: none; }
circle.brown {stroke: rgb(211.65, 104.55, 30.6); fill: none; }
line.red {stroke: rgb(255, 0, 255); stroke-width: 0.383342; }
line.green {stroke: rgb(0, 255, 0); stroke-width: 0.383342; }
line.blue {stroke: rgb(0, 0, 255); stroke-width: 0.383342; }
line.black {stroke: rgb(0, 0, 0); stroke-width: 0.383342; }
line.gray {stroke: rgb(204, 204, 204); stroke-width: 0.383342; }
line.brown {stroke: rgb(211.65, 104.55, 30.6); stroke-width: 0.383342; }
line {stroke: rgb(0, 0, 0); }
text.red {fill: rgb(255, 0, 255); font-size: 3.066737px; font-weight: bold; font-family: Helvetica; }
text.green {fill: rgb(0, 255, 0); font-size: 3.066737px; font-weight: bold; font-family: Helvetica; }
text.blue {fill: rgb(0, 0, 255); font-size: 3.066737px; font-weight: bold; font-family: Helvetica; }
text.black {fill: rgb(0, 0, 0); font-size: 3.066737px; font-weight: bold; font-family: Helvetica; }
text.gray {fill: rgb(204, 204, 204); font-size: 3.066737px; font-weight: bold; font-family: Helvetica; }
text.brown {fill: rgb(211.65, 104.55, 30.6); font-size: 3.066737px; font-weight: bold; font-family: Helvetica; }
text {fill: rgb(0, 0, 0); font-size: 3.066737px; font-weight: bold; font-family: Helvetica; text-anchor: middle; alignment-baseline: middle; }

.pseudoknot_connection{stroke-linecap: round; stroke-opacity: 0.2; stroke-width: 1.5; }
.pseudoknot_segment1{stroke-linecap: round; stroke-opacity: 0.4; stroke-width: 3.06674; }
.pseudoknot_segment2{stroke-linecap: round; stroke-opacity: 0.4; stroke-width: 3.06674; }
line.numbering-line{stroke: rgb(204, 204, 204); stroke-width: 0.191671; }
line.predicted{stroke: rgb(0, 0, 0); stroke-dasharray: 2; }
polyline{fill: none; stroke-linejoin: round; }
template{visibility: hidden; }
text.numbering-label{fill: rgb(204, 204, 204); }
]]>
</style></g>
<g><title>0 (position.label in template: 0.5')</title><text x="115.98" y="229.29" class="green" >5'</text></g>
<g><title>1 (position.label in template: 1.A)</title><text x="122.98" y="229.29" class="black" >A</text></g>
<g><line x1="125.024" y1="228.983" x2="133.176" y2="228.983" class="black" /></g>
<g><title>2 (position.label in template: 2.U)</title><text x="122.77" y="221.73" class="green" >T</text></g>
<g><line x1="124.814" y1="221.423" x2="133.176" y2="221.423" class="black" /></g>
<g><title>3 (position.label in template: 3.G)</title><text x="122.56" y="214.17" class="black" >G</text></g>
<g><line x1="124.604" y1="213.863" x2="132.966" y2="213.863" class="black" /></g>
<g><title>4 (position.label in template: 4.U)</title><text x="122.77" y="206.61" class="green" >T</text></g>
<g><line x1="124.814" y1="206.303" x2="133.176" y2="206.303" class="black" /></g>
<g><title>5 (position.label in template: 5.U)</title><text x="122.77" y="199.05" class="green" >T</text></g>
<g><line x1="124.814" y1="198.743" x2="133.176" y2="198.743" class="black" /></g>
<g><title>6 (position.label in template: 6.A)</title><text x="122.98" y="191.49" class="green" >A</text></g>
<g><line x1="125.024" y1="191.183" x2="132.966" y2="191.183" class="black" /></g>
<g><title>7 (position.label in template: 7.U)</title><text x="122.77" y="183.93" class="green" >T</text></g>
<g><line x1="124.814" y1="183.623" x2="133.176" y2="183.623" class="black" /></g>
<g><title>8 (position.label in template: 8.C)</title><text x="122.77" y="176.37" class="black" >C</text></g>
<g><line x1="124.814" y1="176.063" x2="132.756" y2="176.063" class="black" /></g>
<g><title>9 (position.label in template: 9.A)</title><text x="116.25" y="172.93" class="black" >A</text></g>
<g><title>10 (position.label in template: 10.A)</title><text x="111.14" y="167.36" class="black" >A</text></g>
<g><text x="105.387" y="171.171" class="numbering-label sequential" >10</text></g>
<g><line x1="109.606" y1="168.376" x2="107.228" y2="169.952" class="numbering-line sequential" /></g>
<g><title>11 (position.label in template: 11.G)</title><text x="107.91" y="160.34" class="black" >G</text></g>
<g><title>12 (position.label in template: 12.A)</title><text x="108.14" y="152.78" class="black" >A</text></g>
<g><title>13 (position.label in template: 13.A)</title><text x="110.62" y="145.64" class="green" >A</text></g>
<g><line x1="112.079" y1="143.901" x2="117.791" y2="138.295" class="black" /></g>
<g><title>14 (position.label in template: 14.A)</title><text x="105.39" y="140.19" class="green" >A</text></g>
<g><line x1="106.848" y1="138.45" x2="112.562" y2="132.836" class="black" /></g>
<g><title>15 (position.label in template: 15.G)</title><text x="99.74" y="134.73" class="black" >G</text></g>
<g><line x1="101.233" y1="133.026" x2="107.297" y2="127.35" class="black" /></g>
<g><title>16 (position.label in template: 16.G)</title><text x="94.51" y="129.27" class="black" >G</text></g>
<g><line x1="96.0019" y1="127.565" x2="102.058" y2="121.891" class="black" /></g>
<g><title>17 (position.label in template: 17.U)</title><text x="89.49" y="123.82" class="green" >T</text></g>
<g><line x1="90.9475" y1="122.08" x2="96.6525" y2="116.467" class="black" /></g>
<g><title>18 (position.label in template: 18.G)</title><text x="81.72" y="124.02" class="black" >G</text></g>
<g><title>19 (position.label in template: 19.A)</title><text x="75.61" y="120.21" class="black" >A</text></g>
<g><title>20 (position.label in template: 20.A)</title><text x="72.07" y="113.53" class="black" >A</text></g>
<g><text x="65.363" y="115.151" class="numbering-label sequential" >20</text></g>
<g><line x1="70.2815" y1="113.962" x2="67.2031" y2="114.707" class="numbering-line sequential" /></g>
<g><title>21 (position.label in template: 21.G)</title><text x="72.17" y="105.98" class="black" >G</text></g>
<g><line x1="73.6627" y1="104.276" x2="79.7273" y2="98.6004" class="black" /></g>
<g><title>22 (position.label in template: 22.G)</title><text x="66.94" y="100.53" class="black" >G</text></g>
<g><line x1="68.4319" y1="98.8255" x2="74.4881" y2="93.1512" class="black" /></g>
<g><title>23 (position.label in template: 23.G)</title><text x="61.71" y="95.07" class="black" >G</text></g>
<g><line x1="63.2019" y1="93.3655" x2="69.2581" y2="87.6912" class="black" /></g>
<g><title>24 (position.label in template: 24.A)</title><text x="54.72" y="93.52" class="black" >A</text></g>
<g><title>25 (position.label in template: 25.U)</title><text x="50" y="87.46" class="green" >T</text></g>
<g><title>26 (position.label in template: 26.U)</title><text x="50.63" y="79.92" class="green" >T</text></g>
<g><title>27 (position.label in template: 27.A)</title><text x="56.29" y="74.69" class="black" >A</text></g>
<g><title>28 (position.label in template: 28.G)</title><text x="63.43" y="74.38" class="black" >G</text></g>
<g><title>29 (position.label in template: 29.A)</title><text x="69.71" y="79.14" class="black" >A</text></g>
<g><title>30 (position.label in template: 30.C)</title><text x="70.75" y="86.6" class="black" >C</text></g>
<g><text x="76.9578" y="83.5874" class="numbering-label sequential" >30</text></g>
<g><line x1="72.4054" y1="85.7966" x2="75.1177" y2="84.4804" class="numbering-line sequential" /></g>
<g><title>31 (position.label in template: 31.C)</title><text x="75.98" y="92.06" class="black" >C</text></g>
<g><title>32 (position.label in template: 32.C)</title><text x="81.22" y="97.51" class="black" >C</text></g>
<g><title>33 (position.label in template: 33.G)</title><text x="85.73" y="91.61" class="black" >G</text></g>
<g><title>34 (position.label in template: 34.A)</title><text x="93.3" y="89.17" class="black" >A</text></g>
<g><title>35 (position.label in template: 35.U)</title><text x="100.44" y="90.96" class="green" >T</text></g>
<g><title>36 (position.label in template: 36.G)</title><text x="105.46" y="96.41" class="black" >G</text></g>
<g><title>37 (position.label in template: 37.A)</title><text x="107.36" y="103.83" class="black" >A</text></g>
<g><title>38 (position.label in template: 38.A)</title><text x="104.62" y="110.87" class="black" >A</text></g>
<g><title>39 (position.label in template: 39.G)</title><text x="98.11" y="115.34" class="green" >G</text></g>
<g><title>40 (position.label in template: 40.C)</title><text x="103.55" y="120.8" class="black" >C</text></g>
<g><title>41 (position.label in template: 41.C)</title><text x="108.79" y="126.26" class="black" >C</text></g>
<g><title>42 (position.label in template: 42.U)</title><text x="114.02" y="131.71" class="green" >T</text></g>
<g><title>43 (position.label in template: 43.U)</title><text x="119.25" y="137.17" class="green" >T</text></g>
<g><title>44 (position.label in template: 44.A)</title><text x="126.7" y="134.99" class="green" >A</text></g>
<g><line x1="128.711" y1="135.054" x2="136.519" y2="136.493" class="black" /></g>
<g><title>45 (position.label in template: 45.G)</title><text x="127.63" y="127.55" class="black" >G</text></g>
<g><line x1="129.643" y1="127.602" x2="137.867" y2="129.065" class="black" /></g>
<g><title>46 (position.label in template: 46.C)</title><text x="129.19" y="120.11" class="black" >C</text></g>
<g><line x1="131.201" y1="120.174" x2="139.009" y2="121.613" class="black" /></g>
<g><title>47 (position.label in template: 47.A)</title><text x="130.74" y="112.67" class="green" >A</text></g>
<g><line x1="132.751" y1="112.734" x2="140.569" y2="114.173" class="black" /></g>
<g><title>48 (position.label in template: 48.A)</title><text x="124.97" y="107.78" class="black" >A</text></g>
<g><title>49 (position.label in template: 49.C)</title><text x="131.88" y="105.23" class="black" >C</text></g>
<g><line x1="133.891" y1="105.294" x2="141.699" y2="106.733" class="black" /></g>
<g><title>50 (position.label in template: 50.C)</title><text x="133.23" y="97.79" class="black" >C</text></g>
<g><line x1="135.241" y1="97.8538" x2="143.049" y2="99.2928" class="black" /></g>
<g><text x="126.44" y="96.5625" class="numbering-label sequential" >50</text></g>
<g><line x1="131.419" y1="97.4627" x2="128.28" y2="96.8951" class="numbering-line sequential" /></g>
<g><title>51 (position.label in template: 51.C)</title><text x="134.57" y="90.35" class="black" >C</text></g>
<g><line x1="136.581" y1="90.4135" x2="144.399" y2="91.8531" class="black" /></g>
<g><title>52 (position.label in template: 52.U)</title><text x="135.92" y="82.91" class="green" >T</text></g>
<g><line x1="137.933" y1="82.9631" x2="146.157" y2="84.4335" class="black" /></g>
<g><title>53 (position.label in template: 53.U)</title><text x="137.27" y="75.48" class="green" >T</text></g>
<g><line x1="139.283" y1="75.5315" x2="147.507" y2="76.9951" class="black" /></g>
<g><title>54 (position.label in template: 54.U)</title><text x="138.62" y="68.04" class="green" >T</text></g>
<g><line x1="140.633" y1="68.0915" x2="148.857" y2="69.5551" class="black" /></g>
<g><title>55 (position.label in template: 55.A)</title><text x="135.74" y="61.13" class="black" >A</text></g>
<g><title>56 (position.label in template: 56.G)</title><text x="137.58" y="53.92" class="black" >G</text></g>
<g><title>57 (position.label in template: 57.A)</title><text x="144.47" y="50" class="black" >A</text></g>
<g><title>58 (position.label in template: 58.A)</title><text x="151.91" y="51.35" class="black" >A</text></g>
<g><title>59 (position.label in template: 59.A)</title><text x="156.59" y="57.29" class="black" >A</text></g>
<g><title>60 (position.label in template: 60.U)</title><text x="155.97" y="64.83" class="green" >T</text></g>
<g><title>61 (position.label in template: 61.A)</title><text x="150.87" y="70.22" class="green" >A</text></g>
<g><title>62 (position.label in template: 62.A)</title><text x="149.52" y="77.66" class="green" >A</text></g>
<g><title>63 (position.label in template: 63.A)</title><text x="148.17" y="85.1" class="green" >A</text></g>
<g><title>64 (position.label in template: 64.G)</title><text x="146.41" y="92.53" class="black" >G</text></g>
<g><title>65 (position.label in template: 65.A)</title><text x="154.26" y="93.88" class="black" >A</text></g>
<g><title>66 (position.label in template: 66.A)</title><text x="152.92" y="101.32" class="black" >A</text></g>
<g><title>67 (position.label in template: 67.G)</title><text x="145.06" y="99.97" class="black" >G</text></g>
<g><title>68 (position.label in template: 68.G)</title><text x="143.71" y="107.41" class="black" >G</text></g>
<g><title>69 (position.label in template: 69.U)</title><text x="142.58" y="114.85" class="green" >T</text></g>
<g><title>70 (position.label in template: 70.G)</title><text x="141.02" y="122.29" class="black" >G</text></g>
<g><title>71 (position.label in template: 71.C)</title><text x="139.88" y="129.73" class="black" >C</text></g>
<g><title>72 (position.label in template: 72.U)</title><text x="138.53" y="137.17" class="green" >T</text></g>
<g><title>73 (position.label in template: 73.A)</title><text x="144.75" y="141.75" class="black" >A</text></g>
<g><title>74 (position.label in template: 74.C)</title><text x="148.57" y="148.15" class="black" >C</text></g>
<g><title>75 (position.label in template: 75.A)</title><text x="150.3" y="155.55" class="black" >A</text></g>
<g><title>76 (position.label in template: 76.U)</title><text x="148.93" y="163.02" class="green" >T</text></g>
<g><line x1="147.753" y1="164.385" x2="143.127" y2="170.952" class="black" /></g>
<g><title>77 (position.label in template: 77.U)</title><text x="152.31" y="156.26" class="green" >T</text></g>
<g><title>78 (position.label in template: 78.C)</title><text x="159.23" y="153.22" class="black" >C</text></g>
<g><title>79 (position.label in template: 79.U)</title><text x="166.49" y="155.31" class="green" >T</text></g>
<g><title>80 (position.label in template: 80.A)</title><text x="170.95" y="161.56" class="black" >A</text></g>
<g><title>81 (position.label in template: 81.C)</title><text x="170.01" y="169.09" class="black" >C</text></g>
<g><title>82 (position.label in template: 82.C)</title><text x="164.63" y="174.4" class="black" >C</text></g>
<g><line x1="163.408" y1="175.732" x2="158.462" y2="182.364" class="black" /></g>
<g><title>83 (position.label in template: 83.U)</title><text x="170.75" y="178.84" class="green" >T</text></g>
<g><line x1="169.528" y1="180.172" x2="164.582" y2="186.804" class="black" /></g>
<g><title>84 (position.label in template: 84.A)</title><text x="177.08" y="183.27" class="green" >A</text></g>
<g><line x1="175.859" y1="184.603" x2="170.911" y2="191.244" class="black" /></g>
<g><title>85 (position.label in template: 85.A)</title><text x="183.21" y="187.71" class="green" >A</text></g>
<g><line x1="181.988" y1="189.042" x2="177.042" y2="195.674" class="black" /></g>
<g><title>86 (position.label in template: 86.A)</title><text x="189.33" y="192.15" class="green" >A</text></g>
<g><line x1="188.108" y1="193.482" x2="183.162" y2="200.114" class="black" /></g>
<g><title>87 (position.label in template: 87.U)</title><text x="195.24" y="196.58" class="green" >T</text></g>
<g><line x1="194.064" y1="197.946" x2="189.446" y2="204.511" class="black" /></g>
<g><title>88 (position.label in template: 88.A)</title><text x="202.99" y="196.01" class="black" >A</text></g>
<g><title>89 (position.label in template: 89.U)</title><text x="209.13" y="200.11" class="green" >T</text></g>
<g><title>90 (position.label in template: 90.U)</title><text x="211.7" y="207.22" class="green" >T</text></g>
<g><title>91 (position.label in template: 91.U)</title><text x="209.45" y="214.44" class="green" >T</text></g>
<g><title>92 (position.label in template: 92.U)</title><text x="203.29" y="218.83" class="green" >T</text></g>
<g><title>93 (position.label in template: 93.G)</title><text x="195.53" y="218.59" class="black" >G</text></g>
<g><title>94 (position.label in template: 94.U)</title><text x="189.86" y="213.84" class="green" >T</text></g>
<g><title>95 (position.label in template: 95.A)</title><text x="188.27" y="206.49" class="green" >A</text></g>
<g><title>96 (position.label in template: 96.U)</title><text x="181.94" y="202.06" class="green" >T</text></g>
<g><title>97 (position.label in template: 97.U)</title><text x="175.82" y="197.62" class="green" >T</text></g>
<g><title>98 (position.label in template: 98.U)</title><text x="169.69" y="193.19" class="green" >T</text></g>
<g><title>99 (position.label in template: 99.G)</title><text x="163.36" y="188.75" class="green" >G</text></g>
<g><title>100 (position.label in template: 100.G)</title><text x="157.24" y="184.31" class="black" >G</text></g>
<g><text x="155.2" y="190.902" class="numbering-label sequential" >100</text></g>
<g><line x1="156.696" y1="186.068" x2="155.675" y2="189.368" class="numbering-line sequential" /></g>
<g><title>101 (position.label in template: 101.A)</title><text x="150.11" y="184.65" class="black" >A</text></g>
<g><title>102 (position.label in template: 102.U)</title><text x="143.78" y="180.22" class="green" >T</text></g>
<g><title>103 (position.label in template: 103.A)</title><text x="141.95" y="172.93" class="green" >A</text></g>
<g><title>104 (position.label in template: 104.G)</title><text x="134.8" y="176.37" class="black" >G</text></g>
<g><title>105 (position.label in template: 105.A)</title><text x="135.22" y="183.93" class="green" >A</text></g>
<g><title>106 (position.label in template: 106.U)</title><text x="135.01" y="191.49" class="green" >T</text></g>
<g><title>107 (position.label in template: 107.A)</title><text x="135.22" y="199.05" class="green" >A</text></g>
<g><title>108 (position.label in template: 108.A)</title><text x="135.22" y="206.61" class="green" >A</text></g>
<g><title>109 (position.label in template: 109.C)</title><text x="135.01" y="214.17" class="black" >C</text></g>
<g><title>110 (position.label in template: 110.A)</title><text x="135.22" y="221.73" class="green" >A</text></g>
<g><title>111 (position.label in template: 111.A)</title><text x="135.22" y="229.29" class="black" >A</text></g>
<g><title>112 (position.label in template: 112.3')</title><text x="142.22" y="229.29" class="green" >3'</text></g>
<g><line x1="118.024" y1="228.983" x2="120.936" y2="228.983" class="gray" /></g>
<g><line x1="122.923" y1="226.94" x2="122.827" y2="223.467" class="gray" /></g>
<g><line x1="122.713" y1="219.38" x2="122.617" y2="215.907" class="gray" /></g>
<g><line x1="122.617" y1="211.82" x2="122.713" y2="208.347" class="gray" /></g>
<g><line x1="122.77" y1="204.259" x2="122.77" y2="200.788" class="gray" /></g>
<g><line x1="122.827" y1="196.7" x2="122.923" y2="193.227" class="gray" /></g>
<g><line x1="122.923" y1="189.14" x2="122.827" y2="185.667" class="gray" /></g>
<g><line x1="122.77" y1="181.579" x2="122.77" y2="178.108" class="gray" /></g>
<g><line x1="120.962" y1="175.109" x2="118.058" y2="173.577" class="gray" /></g>
<g><line x1="114.868" y1="171.117" x2="112.522" y2="168.56" class="gray" /></g>
<g><line x1="110.285" y1="165.196" x2="108.765" y2="161.891" class="gray" /></g>
<g><line x1="107.972" y1="157.99" x2="108.078" y2="154.517" class="gray" /></g>
<g><line x1="108.811" y1="150.542" x2="109.949" y2="147.265" class="gray" /></g>
<g><line x1="109.204" y1="143.858" x2="106.806" y2="141.358" class="gray" /></g>
<g><line x1="103.92" y1="138.463" x2="101.21" y2="135.844" class="gray" /></g>
<g><line x1="98.3258" y1="132.947" x2="95.9242" y2="130.44" class="gray" /></g>
<g><line x1="93.1249" y1="127.46" x2="90.8751" y2="125.017" class="gray" /></g>
<g><line x1="87.4462" y1="123.566" x2="83.7638" y2="123.661" class="gray" /></g>
<g><line x1="79.9852" y1="122.632" x2="77.3448" y2="120.985" class="gray" /></g>
<g><line x1="74.6527" y1="118.097" x2="73.0273" y2="115.03" class="gray" /></g>
<g><line x1="72.0971" y1="111.179" x2="72.1429" y2="107.718" class="gray" /></g>
<g><line x1="70.7544" y1="104.198" x2="68.3556" y2="101.698" class="gray" /></g>
<g><line x1="65.5258" y1="98.7469" x2="63.1242" y2="96.2398" class="gray" /></g>
<g><line x1="59.714" y1="94.3207" x2="56.716" y2="93.6559" class="gray" /></g>
<g><line x1="53.4637" y1="91.6004" x2="51.2563" y2="88.7663" class="gray" /></g>
<g><line x1="50.1702" y1="85.1159" x2="50.4598" y2="81.6507" class="gray" /></g>
<g><line x1="52.1316" y1="78.2258" x2="54.7884" y2="75.7708" class="gray" /></g>
<g><line x1="58.3326" y1="74.2946" x2="61.3874" y2="74.162" class="gray" /></g>
<g><line x1="65.0593" y1="75.3083" x2="68.0807" y2="77.5983" class="gray" /></g>
<g><line x1="69.9923" y1="80.8582" x2="70.4677" y2="84.2684" class="gray" /></g>
<g><line x1="72.1642" y1="87.7698" x2="74.5658" y2="90.2769" class="gray" /></g>
<g><line x1="77.397" y1="93.2271" x2="79.803" y2="95.7295" class="gray" /></g>
<g><line x1="82.4616" y1="95.579" x2="84.4884" y2="92.9276" class="gray" /></g>
<g><line x1="87.6759" y1="90.6761" x2="91.3541" y2="89.4905" class="gray" /></g>
<g><line x1="95.2831" y1="89.3605" x2="98.4569" y2="90.1562" class="gray" /></g>
<g><line x1="101.825" y1="92.1571" x2="104.075" y2="94.5995" class="gray" /></g>
<g><line x1="105.967" y1="98.0839" x2="106.853" y2="101.543" class="gray" /></g>
<g><line x1="106.618" y1="105.429" x2="105.362" y2="108.658" class="gray" /></g>
<g><line x1="102.935" y1="111.721" x2="99.7954" y2="113.876" class="gray" /></g>
<g><line x1="99.553" y1="116.482" x2="102.107" y2="119.045" class="gray" /></g>
<g><line x1="104.966" y1="121.968" x2="107.374" y2="124.478" class="gray" /></g>
<g><line x1="110.206" y1="127.428" x2="112.604" y2="129.928" class="gray" /></g>
<g><line x1="115.434" y1="132.88" x2="117.836" y2="135.387" class="gray" /></g>
<g><line x1="121.212" y1="136.289" x2="124.738" y2="135.258" class="gray" /></g>
<g><line x1="126.954" y1="132.655" x2="127.376" y2="129.272" class="gray" /></g>
<g><line x1="128.05" y1="125.242" x2="128.77" y2="121.804" class="gray" /></g>
<g><line x1="129.607" y1="117.802" x2="130.323" y2="114.365" class="gray" /></g>
<g><line x1="129.18" y1="111.041" x2="126.53" y2="108.795" class="gray" /></g>
<g><line x1="126.888" y1="106.766" x2="129.962" y2="105.631" class="gray" /></g>
<g><line x1="132.245" y1="102.912" x2="132.865" y2="99.495" class="gray" /></g>
<g><line x1="133.592" y1="95.4712" x2="134.208" y2="92.0554" class="gray" /></g>
<g><line x1="134.935" y1="88.0317" x2="135.555" y2="84.615" class="gray" /></g>
<g><line x1="136.285" y1="80.5918" x2="136.905" y2="77.1849" class="gray" /></g>
<g><line x1="137.635" y1="73.1617" x2="138.255" y2="69.745" class="gray" /></g>
<g><line x1="137.833" y1="65.8462" x2="136.527" y2="62.7105" class="gray" /></g>
<g><line x1="136.246" y1="58.8423" x2="137.074" y2="55.5943" class="gray" /></g>
<g><line x1="139.357" y1="52.6023" x2="142.693" y2="50.7043" class="gray" /></g>
<g><line x1="146.482" y1="50.0583" x2="149.898" y2="50.6783" class="gray" /></g>
<g><line x1="153.175" y1="52.6493" x2="155.325" y2="55.3774" class="gray" /></g>
<g><line x1="156.422" y1="59.0209" x2="156.138" y2="62.4857" class="gray" /></g>
<g><line x1="154.565" y1="66.0084" x2="152.275" y2="68.4283" class="gray" /></g>
<g><line x1="150.505" y1="71.925" x2="149.885" y2="75.3417" class="gray" /></g>
<g><line x1="149.155" y1="79.365" x2="148.535" y2="82.7817" class="gray" /></g>
<g><line x1="147.699" y1="86.7828" x2="146.881" y2="90.2339" class="gray" /></g>
<g><line x1="148.425" y1="92.5698" x2="152.245" y2="93.2268" class="gray" /></g>
<g><line x1="153.898" y1="95.5854" x2="153.282" y2="99.0012" class="gray" /></g>
<g><line x1="150.905" y1="100.667" x2="147.075" y2="100.009" class="gray" /></g>
<g><line x1="144.695" y1="101.675" x2="144.075" y2="105.092" class="gray" /></g>
<g><line x1="143.403" y1="109.125" x2="142.887" y2="112.522" class="gray" /></g>
<g><line x1="142.16" y1="116.544" x2="141.44" y2="119.982" class="gray" /></g>
<g><line x1="140.71" y1="124.004" x2="140.19" y2="127.402" class="gray" /></g>
<g><line x1="139.515" y1="131.435" x2="138.895" y2="134.852" class="gray" /></g>
<g><line x1="140.176" y1="138.076" x2="143.104" y2="140.231" class="gray" /></g>
<g><line x1="145.798" y1="143.199" x2="147.522" y2="146.088" class="gray" /></g>
<g><line x1="149.035" y1="149.834" x2="149.835" y2="153.253" class="gray" /></g>
<g><line x1="149.931" y1="157.254" x2="149.299" y2="160.702" class="gray" /></g>
<g><line x1="149.844" y1="160.885" x2="151.396" y2="157.782" class="gray" /></g>
<g><line x1="154.182" y1="155.131" x2="157.358" y2="153.736" class="gray" /></g>
<g><line x1="161.195" y1="153.479" x2="164.525" y2="154.438" class="gray" /></g>
<g><line x1="167.678" y1="156.668" x2="169.762" y2="159.589" class="gray" /></g>
<g><line x1="170.697" y1="163.282" x2="170.263" y2="166.755" class="gray" /></g>
<g><line x1="168.555" y1="170.22" x2="166.085" y2="172.657" class="gray" /></g>
<g><line x1="166.285" y1="175.294" x2="169.095" y2="177.333" class="gray" /></g>
<g><line x1="172.425" y1="179.706" x2="175.405" y2="181.791" class="gray" /></g>
<g><line x1="178.736" y1="184.163" x2="181.554" y2="186.204" class="gray" /></g>
<g><line x1="184.865" y1="188.604" x2="187.675" y2="190.643" class="gray" /></g>
<g><line x1="190.966" y1="193.07" x2="193.604" y2="195.047" class="gray" /></g>
<g><line x1="197.279" y1="196.123" x2="200.951" y2="195.853" class="gray" /></g>
<g><line x1="204.69" y1="196.839" x2="207.43" y2="198.668" class="gray" /></g>
<g><line x1="209.825" y1="201.726" x2="211.005" y2="204.991" class="gray" /></g>
<g><line x1="211.092" y1="208.865" x2="210.058" y2="212.181" class="gray" /></g>
<g><line x1="207.785" y1="215.32" x2="204.955" y2="217.337" class="gray" /></g>
<g><line x1="201.246" y1="218.46" x2="197.574" y2="218.347" class="gray" /></g>
<g><line x1="193.963" y1="216.97" x2="191.427" y2="214.846" class="gray" /></g>
<g><line x1="189.428" y1="211.535" x2="188.702" y2="208.182" class="gray" /></g>
<g><line x1="186.595" y1="205.011" x2="183.615" y2="202.926" class="gray" /></g>
<g><line x1="180.285" y1="200.553" x2="177.475" y2="198.514" class="gray" /></g>
<g><line x1="174.163" y1="196.116" x2="171.347" y2="194.081" class="gray" /></g>
<g><line x1="168.016" y1="191.709" x2="165.034" y2="189.617" class="gray" /></g>
<g><line x1="161.705" y1="187.243" x2="158.895" y2="185.204" class="gray" /></g>
<g><line x1="155.198" y1="184.101" x2="152.152" y2="184.246" class="gray" /></g>
<g><line x1="148.435" y1="183.171" x2="145.455" y2="181.086" class="gray" /></g>
<g><line x1="143.282" y1="177.93" x2="142.448" y2="174.606" class="gray" /></g>
<g><line x1="140.108" y1="173.51" x2="136.642" y2="175.177" class="gray" /></g>
<g><line x1="134.913" y1="178.105" x2="135.107" y2="181.582" class="gray" /></g>
<g><line x1="135.163" y1="185.667" x2="135.067" y2="189.14" class="gray" /></g>
<g><line x1="135.067" y1="193.227" x2="135.163" y2="196.7" class="gray" /></g>
<g><line x1="135.22" y1="200.788" x2="135.22" y2="204.259" class="gray" /></g>
<g><line x1="135.163" y1="208.347" x2="135.067" y2="211.82" class="gray" /></g>
<g><line x1="135.067" y1="215.907" x2="135.163" y2="219.38" class="gray" /></g>
<g><line x1="135.22" y1="223.468" x2="135.22" y2="226.939" class="gray" /></g>
<g><line x1="137.264" y1="228.983" x2="140.176" y2="228.983" class="gray" /></g>
</svg>
