<svg
	xmlns="http://www.w3.org/2000/svg"
	width="293.22"
	height="238.6">
<g><style type="text/css" >
<!-- create color definitions -->
<![CDATA[
circle.red {stroke: rgb(255, 0, 255); fill: none; }
circle.green {stroke: rgb(0, 255, 0); fill: none; }
circle.blue {stroke: rgb(0, 0, 255); fill: none; }
circle.black {stroke: rgb(0, 0, 0); fill: none; }
circle.gray {stroke: rgb(204, 204, 204); fill: none; }
circle.brown {stroke: rgb(211.65, 104.55, 30.6); fill: none; }
line.red {stroke: rgb(255, 0, 255); stroke-width: 0.381019; }
line.green {stroke: rgb(0, 255, 0); stroke-width: 0.381019; }
line.blue {stroke: rgb(0, 0, 255); stroke-width: 0.381019; }
line.black {stroke: rgb(0, 0, 0); stroke-width: 0.381019; }
line.gray {stroke: rgb(204, 204, 204); stroke-width: 0.381019; }
line.brown {stroke: rgb(211.65, 104.55, 30.6); stroke-width: 0.381019; }
line {stroke: rgb(0, 0, 0); }
text.red {fill: rgb(255, 0, 255); font-size: 3.048155px; font-weight: bold; font-family: Helvetica; }
text.green {fill: rgb(0, 255, 0); font-size: 3.048155px; font-weight: bold; font-family: Helvetica; }
text.blue {fill: rgb(0, 0, 255); font-size: 3.048155px; font-weight: bold; font-family: Helvetica; }
text.black {fill: rgb(0, 0, 0); font-size: 3.048155px; font-weight: bold; font-family: Helvetica; }
text.gray {fill: rgb(204, 204, 204); font-size: 3.048155px; font-weight: bold; font-family: Helvetica; }
text.brown {fill: rgb(211.65, 104.55, 30.6); font-size: 3.048155px; font-weight: bold; font-family: Helvetica; }
text {fill: rgb(0, 0, 0); font-size: 3.048155px; font-weight: bold; font-family: Helvetica; text-anchor: middle; alignment-baseline: middle; }

.pseudoknot_connection{stroke-linecap: round; stroke-opacity: 0.2; stroke-width: 1.5; }
.pseudoknot_segment1{stroke-linecap: round; stroke-opacity: 0.4; stroke-width: 3.04816; }
.pseudoknot_segment2{stroke-linecap: round; stroke-opacity: 0.4; stroke-width: 3.04816; }
line.numbering-line{stroke: rgb(204, 204, 204); stroke-width: 0.19051; }
line.predicted{stroke: rgb(0, 0, 0); stroke-dasharray: 2; }
polyline{fill: none; stroke-linejoin: round; }
template{visibility: hidden; }
text.numbering-label{fill: rgb(204, 204, 204); }
]]>
</style></g>
<g><title>0 (position.label in template: 0.5')</title><text x="99.124" y="163.115" class="green" >5'</text></g>
<g><title>1 (position.label in template: 1.A)</title><text x="106.69" y="163.115" class="black" >A</text></g>
<g><title>2 (position.label in template: 2.A)</title><text x="114.256" y="163.115" class="black" >A</text></g>
<g><title>3 (position.label in template: 3.A)</title><text x="121.823" y="163.115" class="black" >A</text></g>
<g><title>4 (position.label in template: 4.G)</title><text x="129.389" y="163.115" class="black" >G</text></g>
<g><title>5 (position.label in template: 5.C)</title><text x="136.955" y="163.115" class="black" >C</text></g>
<g><title>6 (position.label in template: 6.C)</title><text x="142.3" y="157.76" class="black" >C</text></g>
<g><line x1="144.332" y1="157.455" x2="152.718" y2="157.455" class="black" /></g>
<g><title>7 (position.label in template: 7.U)</title><text x="142.3" y="150.2" class="green" >T</text></g>
<g><line x1="144.332" y1="149.895" x2="152.298" y2="149.895" class="black" /></g>
<g><title>8 (position.label in template: 8.A)</title><text x="142.51" y="142.64" class="green" >A</text></g>
<g><line x1="144.542" y1="142.335" x2="152.508" y2="142.335" class="black" /></g>
<g><title>9 (position.label in template: 9.C)</title><text x="142.3" y="135.08" class="black" >C</text></g>
<g><line x1="144.332" y1="134.775" x2="152.298" y2="134.775" class="black" /></g>
<g><title>10 (position.label in template: 10.A)</title><text x="142.51" y="127.52" class="black" >A</text></g>
<g><line x1="144.542" y1="127.215" x2="152.508" y2="127.215" class="black" /></g>
<g><text x="136.624" y="131.04" class="numbering-label sequential" >10</text></g>
<g><line x1="140.94" y1="128.459" x2="138.453" y2="129.946" class="numbering-line sequential" /></g>
<g><title>11 (position.label in template: 11.G)</title><text x="135.53" y="123.76" class="green" >G</text></g>
<g><line x1="134.53" y1="121.686" x2="130.56" y2="114.664" class="black" /></g>
<g><title>12 (position.label in template: 12.G)</title><text x="129.01" y="127.58" class="black" >G</text></g>
<g><line x1="128.01" y1="125.506" x2="124.04" y2="118.484" class="black" /></g>
<g><title>13 (position.label in template: 13.G)</title><text x="122.48" y="131.4" class="black" >G</text></g>
<g><line x1="121.481" y1="129.326" x2="117.509" y2="122.295" class="black" /></g>
<g><title>14 (position.label in template: 14.G)</title><text x="115.96" y="135.22" class="black" >G</text></g>
<g><line x1="114.961" y1="133.146" x2="110.989" y2="126.115" class="black" /></g>
<g><title>15 (position.label in template: 15.G)</title><text x="116.47" y="142.76" class="black" >G</text></g>
<g><title>16 (position.label in template: 16.A)</title><text x="114.77" y="150.02" class="black" >A</text></g>
<g><title>17 (position.label in template: 17.G)</title><text x="109.87" y="156.11" class="black" >G</text></g>
<g><line x1="108.069" y1="156.746" x2="100.991" y2="160.444" class="black" /></g>
<g><title>18 (position.label in template: 18.C)</title><text x="113.53" y="162.83" class="black" >C</text></g>
<g><line x1="111.715" y1="163.439" x2="104.245" y2="167.201" class="black" /></g>
<g><title>19 (position.label in template: 19.C)</title><text x="116.98" y="169.56" class="black" >C</text></g>
<g><line x1="115.164" y1="170.168" x2="107.696" y2="173.922" class="black" /></g>
<g><title>20 (position.label in template: 20.G)</title><text x="120.22" y="176.28" class="green" >G</text></g>
<g><line x1="118.42" y1="176.918" x2="111.34" y2="180.623" class="black" /></g>
<g><text x="126.322" y="173.15" class="numbering-label sequential" >20</text></g>
<g><line x1="121.847" y1="175.445" x2="124.493" y2="174.088" class="numbering-line sequential" /></g>
<g><title>21 (position.label in template: 21.U)</title><text x="123.88" y="183.01" class="green" >T</text></g>
<g><line x1="122.072" y1="183.633" x2="114.798" y2="187.367" class="black" /></g>
<g><title>22 (position.label in template: 22.U)</title><text x="112.99" y="188.6" class="green" >T</text></g>
<g><title>23 (position.label in template: 23.U)</title><text x="109.54" y="181.87" class="green" >T</text></g>
<g><title>24 (position.label in template: 24.G)</title><text x="105.88" y="175.14" class="black" >G</text></g>
<g><title>25 (position.label in template: 25.G)</title><text x="102.43" y="168.42" class="black" >G</text></g>
<g><title>26 (position.label in template: 26.C)</title><text x="99.19" y="161.69" class="black" >C</text></g>
<g><title>27 (position.label in template: 27.U)</title><text x="91.63" y="161.78" class="green" >T</text></g>
<g><title>28 (position.label in template: 28.G)</title><text x="84.29" y="159.26" class="black" >G</text></g>
<g><title>29 (position.label in template: 29.A)</title><text x="78.88" y="154.45" class="black" >A</text></g>
<g><title>30 (position.label in template: 30.G)</title><text x="74.64" y="147.93" class="black" >G</text></g>
<g><text x="68.207" y="150.308" class="numbering-label sequential" >30</text></g>
<g><line x1="72.9245" y1="148.564" x2="70.0359" y2="149.632" class="numbering-line sequential" /></g>
<g><title>31 (position.label in template: 31.A)</title><text x="73.72" y="140.49" class="black" >A</text></g>
<g><title>32 (position.label in template: 32.G)</title><text x="74.6" y="133.04" class="black" >G</text></g>
<g><title>33 (position.label in template: 33.U)</title><text x="78.59" y="126.49" class="green" >T</text></g>
<g><line x1="80.2943" y1="125.078" x2="87.2957" y2="120.532" class="black" /></g>
<g><title>34 (position.label in template: 34.G)</title><text x="74.2" y="120.19" class="black" >G</text></g>
<g><line x1="75.9048" y1="118.779" x2="82.9152" y2="114.231" class="black" /></g>
<g><title>35 (position.label in template: 35.A)</title><text x="70.45" y="113.89" class="green" >A</text></g>
<g><line x1="72.133" y1="112.446" x2="78.757" y2="107.964" class="black" /></g>
<g><title>36 (position.label in template: 36.A)</title><text x="66.27" y="107.58" class="green" >A</text></g>
<g><line x1="67.9535" y1="106.137" x2="74.5865" y2="101.653" class="black" /></g>
<g><title>37 (position.label in template: 37.C)</title><text x="61.89" y="101.28" class="black" >C</text></g>
<g><line x1="63.573" y1="99.8363" x2="70.197" y2="95.354" class="black" /></g>
<g><title>38 (position.label in template: 38.A)</title><text x="54.84" y="99.17" class="black" >A</text></g>
<g><title>39 (position.label in template: 39.A)</title><text x="50.33" y="93.1" class="black" >A</text></g>
<g><title>40 (position.label in template: 40.G)</title><text x="50" y="85.54" class="black" >G</text></g>
<g><title>41 (position.label in template: 41.U)</title><text x="54.85" y="79.57" class="green" >T</text></g>
<g><title>42 (position.label in template: 42.A)</title><text x="62.36" y="77.63" class="black" >A</text></g>
<g><title>43 (position.label in template: 43.U)</title><text x="69.15" y="80.5" class="green" >T</text></g>
<g><title>44 (position.label in template: 44.U)</title><text x="72.98" y="87.01" class="green" >T</text></g>
<g><title>45 (position.label in template: 45.G)</title><text x="71.88" y="94.52" class="black" >G</text></g>
<g><title>46 (position.label in template: 46.U)</title><text x="76.27" y="100.82" class="green" >T</text></g>
<g><title>47 (position.label in template: 47.U)</title><text x="80.44" y="107.13" class="green" >T</text></g>
<g><title>48 (position.label in template: 48.C)</title><text x="84.62" y="113.43" class="black" >C</text></g>
<g><title>49 (position.label in template: 49.A)</title><text x="89" y="119.73" class="green" >A</text></g>
<g><title>50 (position.label in template: 50.G)</title><text x="96.09" y="118.8" class="black" >G</text></g>
<g><text x="96.4493" y="111.951" class="numbering-label sequential" >50</text></g>
<g><line x1="96.1858" y1="116.974" x2="96.3693" y2="113.475" class="numbering-line sequential" /></g>
<g><title>51 (position.label in template: 51.A)</title><text x="103.87" y="120.51" class="black" >A</text></g>
<g><title>52 (position.label in template: 52.C)</title><text x="109.99" y="124.65" class="black" >C</text></g>
<g><title>53 (position.label in template: 53.C)</title><text x="116.51" y="120.83" class="black" >C</text></g>
<g><title>54 (position.label in template: 54.C)</title><text x="123.04" y="117.02" class="black" >C</text></g>
<g><title>55 (position.label in template: 55.U)</title><text x="129.56" y="113.2" class="green" >T</text></g>
<g><title>56 (position.label in template: 56.U)</title><text x="129.49" y="105.64" class="green" >T</text></g>
<g><title>57 (position.label in template: 57.U)</title><text x="132.34" y="98.63" class="green" >T</text></g>
<g><title>58 (position.label in template: 58.G)</title><text x="137.45" y="93.27" class="black" >G</text></g>
<g><title>59 (position.label in template: 59.A)</title><text x="144.85" y="90.36" class="black" >A</text></g>
<g><title>60 (position.label in template: 60.A)</title><text x="152.41" y="90.36" class="black" >A</text></g>
<g><title>61 (position.label in template: 61.C)</title><text x="159.18" y="93.27" class="black" >C</text></g>
<g><line x1="160.397" y1="94.5929" x2="165.213" y2="101.037" class="black" /></g>
<g><title>62 (position.label in template: 62.C)</title><text x="165.17" y="88.66" class="black" >C</text></g>
<g><line x1="166.387" y1="89.9829" x2="171.203" y2="96.4275" class="black" /></g>
<g><title>63 (position.label in template: 63.U)</title><text x="171.17" y="84.05" class="green" >T</text></g>
<g><line x1="172.429" y1="85.3406" x2="177.571" y2="91.8598" class="black" /></g>
<g><title>64 (position.label in template: 64.G)</title><text x="176.95" y="79.45" class="green" >G</text></g>
<g><line x1="178.21" y1="80.7392" x2="183.36" y2="87.2512" class="black" /></g>
<g><title>65 (position.label in template: 65.U)</title><text x="183.16" y="74.84" class="green" >T</text></g>
<g><line x1="184.377" y1="76.1629" x2="189.193" y2="82.6075" class="black" /></g>
<g><title>66 (position.label in template: 66.U)</title><text x="189.15" y="70.23" class="green" >T</text></g>
<g><line x1="190.41" y1="71.5198" x2="195.56" y2="78.0406" class="black" /></g>
<g><title>67 (position.label in template: 67.A)</title><text x="195.35" y="65.63" class="green" >A</text></g>
<g><line x1="196.567" y1="66.9529" x2="201.383" y2="73.3975" class="black" /></g>
<g><title>68 (position.label in template: 68.G)</title><text x="200.93" y="61.02" class="black" >G</text></g>
<g><line x1="202.19" y1="62.3092" x2="207.34" y2="68.8212" class="black" /></g>
<g><title>69 (position.label in template: 69.U)</title><text x="203.49" y="53.83" class="green" >T</text></g>
<g><title>70 (position.label in template: 70.U)</title><text x="210.01" y="50" class="green" >T</text></g>
<g><title>71 (position.label in template: 71.A)</title><text x="217.64" y="51.45" class="black" >A</text></g>
<g><title>72 (position.label in template: 72.A)</title><text x="222.25" y="57.44" class="black" >A</text></g>
<g><title>73 (position.label in template: 73.U)</title><text x="221.53" y="64.99" class="green" >T</text></g>
<g><title>74 (position.label in template: 74.A)</title><text x="216.35" y="70.3" class="black" >A</text></g>
<g><title>75 (position.label in template: 75.C)</title><text x="208.6" y="70.72" class="black" >C</text></g>
<g><title>76 (position.label in template: 76.U)</title><text x="202.6" y="75.33" class="green" >T</text></g>
<g><title>77 (position.label in template: 77.A)</title><text x="196.82" y="79.94" class="green" >A</text></g>
<g><title>78 (position.label in template: 78.G)</title><text x="190.41" y="84.54" class="green" >G</text></g>
<g><title>79 (position.label in template: 79.C)</title><text x="195.22" y="90.54" class="black" >C</text></g>
<g><title>80 (position.label in template: 80.G)</title><text x="189.02" y="95.14" class="black" >G</text></g>
<g><title>81 (position.label in template: 81.U)</title><text x="184.62" y="89.15" class="green" >T</text></g>
<g><title>82 (position.label in template: 82.A)</title><text x="178.83" y="93.76" class="green" >A</text></g>
<g><title>83 (position.label in template: 83.G)</title><text x="172.42" y="98.36" class="black" >G</text></g>
<g><title>84 (position.label in template: 84.G)</title><text x="166.43" y="102.97" class="black" >G</text></g>
<g><title>85 (position.label in template: 85.G)</title><text x="167.44" y="110.46" class="black" >G</text></g>
<g><title>86 (position.label in template: 86.A)</title><text x="165.91" y="117.77" class="black" >A</text></g>
<g><title>87 (position.label in template: 87.U)</title><text x="161.1" y="123.76" class="green" >T</text></g>
<g><title>88 (position.label in template: 88.C)</title><text x="154.54" y="127.52" class="black" >C</text></g>
<g><title>89 (position.label in template: 89.G)</title><text x="154.33" y="135.08" class="black" >G</text></g>
<g><title>90 (position.label in template: 90.U)</title><text x="154.54" y="142.64" class="green" >T</text></g>
<g><title>91 (position.label in template: 91.G)</title><text x="154.33" y="150.2" class="green" >G</text></g>
<g><title>92 (position.label in template: 92.A)</title><text x="154.75" y="157.76" class="black" >A</text></g>
<g><title>93 (position.label in template: 93.C)</title><text x="159.992" y="163.216" class="black" >C</text></g>
<g><title>94 (position.label in template: 94.U)</title><text x="167.558" y="163.216" class="green" >T</text></g>
<g><title>95 (position.label in template: 95.U)</title><text x="175.124" y="163.216" class="green" >T</text></g>
<g><title>96 (position.label in template: 96.U)</title><text x="182.691" y="163.216" class="green" >T</text></g>
<g><title>97 (position.label in template: 97.U)</title><text x="190.257" y="163.216" class="green" >T</text></g>
<g><title>98 (position.label in template: 98.U)</title><text x="197.823" y="163.216" class="green" >T</text></g>
<g><title>99 (position.label in template: 99.U)</title><text x="205.389" y="163.216" class="green" >T</text></g>
<g><title>100 (position.label in template: 100.G)</title><text x="212.955" y="163.216" class="black" >G</text></g>
<g><text x="212.955" y="170.074" class="numbering-label sequential" >100</text></g>
<g><line x1="212.955" y1="165.045" x2="212.955" y2="168.55" class="numbering-line sequential" /></g>
<g><title>101 (position.label in template: 101.A)</title><text x="220.521" y="163.216" class="black" >A</text></g>
<g><title>102 (position.label in template: 102.U)</title><text x="228.088" y="163.216" class="green" >T</text></g>
<g><title>103 (position.label in template: 103.G)</title><text x="235.654" y="163.216" class="black" >G</text></g>
<g><title>104 (position.label in template: 104.G)</title><text x="243.22" y="163.216" class="black" >G</text></g>
<g><title>105 (position.label in template: 105.3')</title><text x="250.786" y="163.216" class="green" >3'</text></g>
<g><line x1="101.156" y1="162.81" x2="104.658" y2="162.81" class="gray" /></g>
<g><line x1="108.722" y1="162.81" x2="112.224" y2="162.81" class="gray" /></g>
<g><line x1="116.288" y1="162.81" x2="119.79" y2="162.81" class="gray" /></g>
<g><line x1="123.855" y1="162.81" x2="127.357" y2="162.81" class="gray" /></g>
<g><line x1="131.421" y1="162.81" x2="134.923" y2="162.81" class="gray" /></g>
<g><line x1="138.39" y1="161.372" x2="140.864" y2="158.893" class="gray" /></g>
<g><line x1="142.3" y1="155.423" x2="142.3" y2="151.927" class="gray" /></g>
<g><line x1="142.356" y1="147.864" x2="142.454" y2="144.367" class="gray" /></g>
<g><line x1="142.454" y1="140.304" x2="142.356" y2="136.807" class="gray" /></g>
<g><line x1="142.356" y1="132.744" x2="142.454" y2="129.247" class="gray" /></g>
<g><line x1="140.721" y1="126.251" x2="137.319" y2="124.419" class="gray" /></g>
<g><line x1="133.777" y1="124.482" x2="130.763" y2="126.248" class="gray" /></g>
<g><line x1="127.256" y1="128.301" x2="124.234" y2="130.069" class="gray" /></g>
<g><line x1="120.727" y1="132.122" x2="117.713" y2="133.888" class="gray" /></g>
<g><line x1="116.097" y1="136.943" x2="116.333" y2="140.428" class="gray" /></g>
<g><line x1="116.007" y1="144.434" x2="115.233" y2="147.737" class="gray" /></g>
<g><line x1="113.496" y1="151.298" x2="111.144" y2="154.222" class="gray" /></g>
<g><line x1="110.842" y1="157.59" x2="112.558" y2="160.741" class="gray" /></g>
<g><line x1="114.457" y1="164.334" x2="116.053" y2="167.447" class="gray" /></g>
<g><line x1="117.863" y1="171.086" x2="119.337" y2="174.145" class="gray" /></g>
<g><line x1="121.191" y1="177.76" x2="122.909" y2="180.92" class="gray" /></g>
<g><line x1="122.072" y1="183.633" x2="114.798" y2="187.367" class="gray" /></g>
<g><line x1="112.063" y1="186.487" x2="110.467" y2="183.374" class="gray" /></g>
<g><line x1="108.569" y1="179.78" x2="106.851" y2="176.62" class="gray" /></g>
<g><line x1="104.952" y1="173.027" x2="103.358" y2="169.923" class="gray" /></g>
<g><line x1="101.549" y1="166.284" x2="100.071" y2="163.216" class="gray" /></g>
<g><line x1="97.158" y1="161.409" x2="93.662" y2="161.451" class="gray" /></g>
<g><line x1="89.708" y1="160.815" x2="86.212" y2="159.615" class="gray" /></g>
<g><line x1="82.7713" y1="157.605" x2="80.3987" y2="155.495" class="gray" /></g>
<g><line x1="77.7722" y1="152.442" x2="75.7478" y2="149.329" class="gray" /></g>
<g><line x1="74.3906" y1="145.608" x2="73.9694" y2="142.202" class="gray" /></g>
<g><line x1="73.9584" y1="138.167" x2="74.3616" y2="134.753" class="gray" /></g>
<g><line x1="75.6572" y1="131" x2="77.5328" y2="127.921" class="gray" /></g>
<g><line x1="77.4282" y1="124.518" x2="75.3618" y2="121.552" class="gray" /></g>
<g><line x1="73.1606" y1="118.139" x2="71.4894" y2="115.331" class="gray" /></g>
<g><line x1="69.3278" y1="111.891" x2="67.3922" y2="108.969" class="gray" /></g>
<g><line x1="65.11" y1="105.607" x2="63.05" y2="102.644" class="gray" /></g>
<g><line x1="59.9432" y1="100.393" x2="56.7868" y2="99.4478" class="gray" /></g>
<g><line x1="53.6281" y1="97.234" x2="51.5419" y2="94.4263" class="gray" /></g>
<g><line x1="50.2414" y1="90.765" x2="50.0886" y2="87.2654" class="gray" /></g>
<g><line x1="51.2813" y1="83.658" x2="53.5687" y2="80.8424" class="gray" /></g>
<g><line x1="56.8175" y1="78.7569" x2="60.3925" y2="77.8334" class="gray" /></g>
<g><line x1="64.2318" y1="78.1163" x2="67.2782" y2="79.404" class="gray" /></g>
<g><line x1="70.1804" y1="81.9467" x2="71.9496" y2="84.9537" class="gray" /></g>
<g><line x1="72.6855" y1="88.7158" x2="72.1745" y2="92.2045" class="gray" /></g>
<g><line x1="73.0418" y1="95.8824" x2="75.1082" y2="98.8479" class="gray" /></g>
<g><line x1="77.3904" y1="102.211" x2="79.3196" y2="105.13" class="gray" /></g>
<g><line x1="81.5635" y1="108.518" x2="83.4965" y2="111.432" class="gray" /></g>
<g><line x1="85.78" y1="114.794" x2="87.84" y2="117.757" class="gray" /></g>
<g><line x1="91.0148" y1="119.161" x2="94.0752" y2="118.759" class="gray" /></g>
<g><line x1="98.0747" y1="118.931" x2="101.885" y2="119.769" class="gray" /></g>
<g><line x1="105.553" y1="121.344" x2="108.307" y2="123.207" class="gray" /></g>
<g><line x1="111.743" y1="123.318" x2="114.757" y2="121.552" class="gray" /></g>
<g><line x1="118.265" y1="119.501" x2="121.285" y2="117.739" class="gray" /></g>
<g><line x1="124.793" y1="115.688" x2="127.807" y2="113.922" class="gray" /></g>
<g><line x1="129.541" y1="110.863" x2="129.509" y2="107.367" class="gray" /></g>
<g><line x1="130.255" y1="103.453" x2="131.575" y2="100.208" class="gray" /></g>
<g><line x1="133.742" y1="96.8544" x2="136.048" y2="94.436" class="gray" /></g>
<g><line x1="139.341" y1="92.2215" x2="142.959" y2="90.7989" class="gray" /></g>
<g><line x1="146.882" y1="90.0552" x2="150.378" y2="90.0552" class="gray" /></g>
<g><line x1="154.277" y1="90.8577" x2="157.313" y2="92.1627" class="gray" /></g>
<g><line x1="160.79" y1="91.7258" x2="163.56" y2="89.5946" class="gray" /></g>
<g><line x1="166.781" y1="87.1171" x2="169.559" y2="84.9833" class="gray" /></g>
<g><line x1="172.76" y1="82.4798" x2="175.36" y2="80.4106" class="gray" /></g>
<g><line x1="178.582" y1="77.9339" x2="181.528" y2="75.7464" class="gray" /></g>
<g><line x1="184.77" y1="73.2958" x2="187.54" y2="71.1646" class="gray" /></g>
<g><line x1="190.782" y1="68.7144" x2="193.718" y2="66.536" class="gray" /></g>
<g><line x1="196.917" y1="64.0309" x2="199.363" y2="62.0095" class="gray" /></g>
<g><line x1="201.612" y1="58.8008" x2="202.808" y2="55.4396" class="gray" /></g>
<g><line x1="205.242" y1="52.4959" x2="208.258" y2="50.7244" class="gray" /></g>
<g><line x1="212.006" y1="50.0746" x2="215.644" y2="50.7658" class="gray" /></g>
<g><line x1="218.879" y1="52.7556" x2="221.011" y2="55.5248" class="gray" /></g>
<g><line x1="222.057" y1="59.1581" x2="221.723" y2="62.6623" class="gray" /></g>
<g><line x1="220.111" y1="66.1398" x2="217.769" y2="68.5406" class="gray" /></g>
<g><line x1="214.321" y1="70.1052" x2="210.629" y2="70.3052" class="gray" /></g>
<g><line x1="206.989" y1="71.6533" x2="204.211" y2="73.7871" class="gray" /></g>
<g><line x1="201.011" y1="76.2923" x2="198.409" y2="78.3681" class="gray" /></g>
<g><line x1="195.169" y1="80.82" x2="192.061" y2="83.0504" class="gray" /></g>
<g><line x1="191.681" y1="85.8207" x2="193.949" y2="88.6497" class="gray" /></g>
<g><line x1="193.588" y1="91.446" x2="190.652" y2="93.6244" class="gray" /></g>
<g><line x1="187.817" y1="93.1974" x2="185.823" y2="90.4829" class="gray" /></g>
<g><line x1="183.03" y1="90.1109" x2="180.42" y2="92.1894" class="gray" /></g>
<g><line x1="177.179" y1="94.64" x2="174.071" y2="96.8704" class="gray" /></g>
<g><line x1="170.81" y1="99.2946" x2="168.04" y2="101.426" class="gray" /></g>
<g><line x1="166.702" y1="104.679" x2="167.168" y2="108.141" class="gray" /></g>
<g><line x1="167.024" y1="112.144" x2="166.326" y2="115.476" class="gray" /></g>
<g><line x1="164.638" y1="119.05" x2="162.372" y2="121.871" class="gray" /></g>
<g><line x1="159.337" y1="124.466" x2="156.303" y2="126.205" class="gray" /></g>
<g><line x1="154.484" y1="129.247" x2="154.386" y2="132.744" class="gray" /></g>
<g><line x1="154.386" y1="136.807" x2="154.484" y2="140.304" class="gray" /></g>
<g><line x1="154.484" y1="144.367" x2="154.386" y2="147.864" class="gray" /></g>
<g><line x1="154.443" y1="151.924" x2="154.637" y2="155.426" class="gray" /></g>
<g><line x1="156.158" y1="158.921" x2="158.584" y2="161.446" class="gray" /></g>
<g><line x1="162.024" y1="162.911" x2="165.526" y2="162.911" class="gray" /></g>
<g><line x1="169.59" y1="162.911" x2="173.092" y2="162.911" class="gray" /></g>
<g><line x1="177.156" y1="162.911" x2="180.658" y2="162.911" class="gray" /></g>
<g><line x1="184.723" y1="162.911" x2="188.225" y2="162.911" class="gray" /></g>
<g><line x1="192.289" y1="162.911" x2="195.791" y2="162.911" class="gray" /></g>
<g><line x1="199.855" y1="162.911" x2="203.357" y2="162.911" class="gray" /></g>
<g><line x1="207.421" y1="162.911" x2="210.923" y2="162.911" class="gray" /></g>
<g><line x1="214.987" y1="162.911" x2="218.489" y2="162.911" class="gray" /></g>
<g><line x1="222.554" y1="162.911" x2="226.056" y2="162.911" class="gray" /></g>
<g><line x1="230.12" y1="162.911" x2="233.622" y2="162.911" class="gray" /></g>
<g><line x1="237.686" y1="162.911" x2="241.188" y2="162.911" class="gray" /></g>
<g><line x1="245.252" y1="162.911" x2="248.754" y2="162.911" class="gray" /></g>
</svg>
