<svg
	xmlns="http://www.w3.org/2000/svg"
	width="230.4"
	height="242.328">
<g><style type="text/css" >
<!-- create color definitions -->
<![CDATA[
circle.red {stroke: rgb(255, 0, 255); fill: none; }
circle.green {stroke: rgb(0, 255, 0); fill: none; }
circle.blue {stroke: rgb(0, 0, 255); fill: none; }
circle.black {stroke: rgb(0, 0, 0); fill: none; }
circle.gray {stroke: rgb(204, 204, 204); fill: none; }
circle.brown {stroke: rgb(211.65, 104.55, 30.6); fill: none; }
line.red {stroke: rgb(255, 0, 255); stroke-width: 0.382812; }
line.green {stroke: rgb(0, 255, 0); stroke-width: 0.382812; }
line.blue {stroke: rgb(0, 0, 255); stroke-width: 0.382812; }
line.black {stroke: rgb(0, 0, 0); stroke-width: 0.382812; }
line.gray {stroke: rgb(204, 204, 204); stroke-width: 0.382812; }
line.brown {stroke: rgb(211.65, 104.55, 30.6); stroke-width: 0.382812; }
line {stroke: rgb(0, 0, 0); }
text.red {fill: rgb(255, 0, 255); font-size: 3.062496px; font-weight: bold; font-family: Helvetica; }
text.green {fill: rgb(0, 255, 0); font-size: 3.062496px; font-weight: bold; font-family: Helvetica; }
text.blue {fill: rgb(0, 0, 255); font-size: 3.062496px; font-weight: bold; font-family: Helvetica; }
text.black {fill: rgb(0, 0, 0); font-size: 3.062496px; font-weight: bold; font-family: Helvetica; }
text.gray {fill: rgb(204, 204, 204); font-size: 3.062496px; font-weight: bold; font-family: Helvetica; }
text.brown {fill: rgb(211.65, 104.55, 30.6); font-size: 3.062496px; font-weight: bold; font-family: Helvetica; }
text {fill: rgb(0, 0, 0); font-size: 3.062496px; font-weight: bold; font-family: Helvetica; text-anchor: middle; alignment-baseline: middle; }

.pseudoknot_connection{stroke-linecap: round; stroke-opacity: 0.2; stroke-width: 1.5; }
.pseudoknot_segment1{stroke-linecap: round; stroke-opacity: 0.4; stroke-width: 3.0625; }
.pseudoknot_segment2{stroke-linecap: round; stroke-opacity: 0.4; stroke-width: 3.0625; }
line.numbering-line{stroke: rgb(204, 204, 204); stroke-width: 0.191406; }
line.predicted{stroke: rgb(0, 0, 0); stroke-dasharray: 2; }
polyline{fill: none; stroke-linejoin: round; }
template{visibility: hidden; }
text.numbering-label{fill: rgb(204, 204, 204); }
]]>
</style></g>
<g><title>0 (position.label in template: 0.5')</title><text x="112.01" y="194.439" class="green" >5'</text></g>
<g><title>1 (position.label in template: 1.G)</title><text x="112.01" y="186.87" class="black" >G</text></g>
<g><line x1="114.052" y1="186.564" x2="122.418" y2="186.564" class="black" /></g>
<g><title>2 (position.label in template: 2.G)</title><text x="112.01" y="179.31" class="black" >G</text></g>
<g><line x1="114.052" y1="179.004" x2="122.418" y2="179.004" class="black" /></g>
<g><title>3 (position.label in template: 3.A)</title><text x="112.43" y="171.75" class="green" >A</text></g>
<g><line x1="114.472" y1="171.444" x2="122.418" y2="171.444" class="black" /></g>
<g><title>4 (position.label in template: 4.G)</title><text x="112.01" y="164.19" class="black" >G</text></g>
<g><line x1="114.052" y1="163.884" x2="122.418" y2="163.884" class="black" /></g>
<g><title>5 (position.label in template: 5.A)</title><text x="112.43" y="156.63" class="green" >A</text></g>
<g><line x1="114.472" y1="156.324" x2="122.418" y2="156.324" class="black" /></g>
<g><title>6 (position.label in template: 6.G)</title><text x="112.01" y="149.07" class="black" >G</text></g>
<g><line x1="114.052" y1="148.764" x2="122.418" y2="148.764" class="black" /></g>
<g><title>7 (position.label in template: 7.G)</title><text x="112.01" y="141.51" class="black" >G</text></g>
<g><line x1="114.052" y1="141.204" x2="122.418" y2="141.204" class="black" /></g>
<g><title>8 (position.label in template: 8.U)</title><text x="105.43" y="138.19" class="green" >T</text></g>
<g><title>9 (position.label in template: 9.G)</title><text x="99.96" y="132.76" class="black" >G</text></g>
<g><title>10 (position.label in template: 10.A)</title><text x="97.27" y="125.87" class="green" >A</text></g>
<g><line x1="97.3" y1="123.522" x2="97.42" y2="115.365" class="black" /></g>
<g><text x="93.3864" y="131.562" class="numbering-label sequential" >10</text></g>
<g><line x1="96.2344" y1="127.388" x2="94.4312" y2="130.031" class="numbering-line sequential" /></g>
<g><title>11 (position.label in template: 11.C)</title><text x="89.51" y="125.63" class="black" >C</text></g>
<g><line x1="89.54" y1="123.282" x2="89.66" y2="115.125" class="black" /></g>
<g><title>12 (position.label in template: 12.U)</title><text x="81.95" y="125.39" class="green" >T</text></g>
<g><line x1="81.98" y1="123.042" x2="82.1" y2="114.885" class="black" /></g>
<g><title>13 (position.label in template: 13.G)</title><text x="77.22" y="131.45" class="black" >G</text></g>
<g><title>14 (position.label in template: 14.A)</title><text x="70.9" y="134.87" class="black" >A</text></g>
<g><title>15 (position.label in template: 15.G)</title><text x="62.92" y="134.94" class="black" >G</text></g>
<g><title>16 (position.label in template: 16.U)</title><text x="56.33" y="131.64" class="green" >T</text></g>
<g><title>17 (position.label in template: 17.G)</title><text x="51.49" y="125.67" class="black" >G</text></g>
<g><title>18 (position.label in template: 18.G)</title><text x="50" y="118.25" class="black" >G</text></g>
<g><title>19 (position.label in template: 19.C)</title><text x="52.17" y="110.95" class="black" >C</text></g>
<g><title>20 (position.label in template: 20.C)</title><text x="57.17" y="105.28" class="black" >C</text></g>
<g><text x="53.1309" y="99.6973" class="numbering-label sequential" >20</text></g>
<g><line x1="56.0929" y1="103.791" x2="54.2388" y2="101.229" class="numbering-line sequential" /></g>
<g><title>21 (position.label in template: 21.G)</title><text x="63.96" y="102.42" class="black" >G</text></g>
<g><title>22 (position.label in template: 22.A)</title><text x="71.91" y="102.97" class="black" >A</text></g>
<g><title>23 (position.label in template: 23.A)</title><text x="78.42" y="106.82" class="black" >A</text></g>
<g><title>24 (position.label in template: 24.G)</title><text x="82.13" y="113.15" class="green" >G</text></g>
<g><title>25 (position.label in template: 25.G)</title><text x="89.69" y="113.39" class="black" >G</text></g>
<g><title>26 (position.label in template: 26.U)</title><text x="97.45" y="113.63" class="green" >T</text></g>
<g><title>27 (position.label in template: 27.G)</title><text x="100.78" y="106.95" class="black" >G</text></g>
<g><title>28 (position.label in template: 28.C)</title><text x="106.59" y="101.87" class="black" >C</text></g>
<g><line x1="108.548" y1="100.985" x2="116.172" y2="98.7323" class="black" /></g>
<g><title>29 (position.label in template: 29.U)</title><text x="104.48" y="94.61" class="green" >T</text></g>
<g><line x1="106.443" y1="93.7439" x2="114.477" y2="91.4536" class="black" /></g>
<g><title>30 (position.label in template: 30.G)</title><text x="102.16" y="87.35" class="black" >G</text></g>
<g><line x1="104.123" y1="86.4829" x2="112.167" y2="84.1846" class="black" /></g>
<g><text x="95.5416" y="89.2677" class="numbering-label sequential" >30</text></g>
<g><line x1="100.395" y1="87.8614" x2="97.3791" y2="88.7352" class="numbering-line sequential" /></g>
<g><title>31 (position.label in template: 31.C)</title><text x="100.27" y="80.08" class="black" >C</text></g>
<g><line x1="102.228" y1="79.1952" x2="109.852" y2="76.9423" class="black" /></g>
<g><title>32 (position.label in template: 32.A)</title><text x="98.37" y="72.82" class="green" >A</text></g>
<g><line x1="100.328" y1="71.9356" x2="107.962" y2="69.6819" class="black" /></g>
<g><title>33 (position.label in template: 33.C)</title><text x="91.86" y="68.65" class="black" >C</text></g>
<g><title>34 (position.label in template: 34.U)</title><text x="89.37" y="61.51" class="green" >T</text></g>
<g><title>35 (position.label in template: 35.C)</title><text x="91.7" y="54.32" class="black" >C</text></g>
<g><title>36 (position.label in template: 36.G)</title><text x="97.7" y="50" class="black" >G</text></g>
<g><title>37 (position.label in template: 37.A)</title><text x="105.67" y="50.33" class="black" >A</text></g>
<g><title>38 (position.label in template: 38.A)</title><text x="111.49" y="55.15" class="black" >A</text></g>
<g><title>39 (position.label in template: 39.A)</title><text x="113.21" y="62.51" class="black" >A</text></g>
<g><title>40 (position.label in template: 40.U)</title><text x="109.92" y="69.41" class="green" >T</text></g>
<g><title>41 (position.label in template: 41.G)</title><text x="111.81" y="76.67" class="black" >G</text></g>
<g><title>42 (position.label in template: 42.C)</title><text x="114.13" y="83.93" class="black" >C</text></g>
<g><title>43 (position.label in template: 43.A)</title><text x="116.44" y="91.2" class="green" >A</text></g>
<g><title>44 (position.label in template: 44.G)</title><text x="118.13" y="98.46" class="black" >G</text></g>
<g><title>45 (position.label in template: 45.U)</title><text x="125.79" y="99.76" class="green" >T</text></g>
<g><title>46 (position.label in template: 46.G)</title><text x="132.14" y="103.51" class="black" >G</text></g>
<g><line x1="133.311" y1="104.876" x2="138.059" y2="111.652" class="black" /></g>
<g><title>47 (position.label in template: 47.U)</title><text x="138.61" y="99.26" class="green" >T</text></g>
<g><line x1="139.78" y1="100.627" x2="144.52" y2="107.41" class="black" /></g>
<g><title>48 (position.label in template: 48.G)</title><text x="144.65" y="95.01" class="black" >G</text></g>
<g><line x1="145.821" y1="96.3764" x2="150.569" y2="103.161" class="black" /></g>
<g><title>49 (position.label in template: 49.C)</title><text x="151.12" y="90.77" class="black" >C</text></g>
<g><line x1="152.242" y1="92.1692" x2="156.658" y2="98.8783" class="black" /></g>
<g><title>50 (position.label in template: 50.G)</title><text x="157.16" y="86.52" class="black" >G</text></g>
<g><line x1="158.331" y1="87.8859" x2="163.079" y2="94.6616" class="black" /></g>
<g><text x="153.243" y="80.8513" class="numbering-label sequential" >50</text></g>
<g><line x1="156.115" y1="85.0083" x2="154.301" y2="82.3825" class="numbering-line sequential" /></g>
<g><title>51 (position.label in template: 51.G)</title><text x="163.42" y="82.27" class="black" >G</text></g>
<g><line x1="164.59" y1="83.6372" x2="169.33" y2="90.4203" class="black" /></g>
<g><title>52 (position.label in template: 52.G)</title><text x="168.18" y="76.41" class="black" >G</text></g>
<g><title>53 (position.label in template: 53.A)</title><text x="176.15" y="76.73" class="black" >A</text></g>
<g><title>54 (position.label in template: 54.A)</title><text x="180.4" y="82.99" class="black" >A</text></g>
<g><title>55 (position.label in template: 55.A)</title><text x="177.92" y="90.13" class="black" >A</text></g>
<g><title>56 (position.label in template: 56.C)</title><text x="170.5" y="92.4" class="black" >C</text></g>
<g><title>57 (position.label in template: 57.C)</title><text x="164.25" y="96.64" class="black" >C</text></g>
<g><title>58 (position.label in template: 58.G)</title><text x="157.78" y="100.89" class="black" >G</text></g>
<g><title>59 (position.label in template: 59.C)</title><text x="151.74" y="105.14" class="black" >C</text></g>
<g><title>60 (position.label in template: 60.A)</title><text x="145.69" y="109.39" class="green" >A</text></g>
<g><title>61 (position.label in template: 61.C)</title><text x="139.23" y="113.63" class="black" >C</text></g>
<g><title>62 (position.label in template: 62.C)</title><text x="140.29" y="121.12" class="black" >C</text></g>
<g><title>63 (position.label in template: 63.G)</title><text x="138.55" y="128.52" class="black" >G</text></g>
<g><line x1="137.32" y1="129.843" x2="132.48" y2="136.254" class="black" /></g>
<g><title>64 (position.label in template: 64.U)</title><text x="144.73" y="133.16" class="green" >T</text></g>
<g><line x1="143.499" y1="134.483" x2="138.661" y2="140.885" class="black" /></g>
<g><title>65 (position.label in template: 65.G)</title><text x="150.49" y="137.79" class="black" >G</text></g>
<g><line x1="149.26" y1="139.113" x2="144.42" y2="145.524" class="black" /></g>
<g><title>66 (position.label in template: 66.G)</title><text x="156.46" y="142.43" class="black" >G</text></g>
<g><line x1="155.231" y1="143.754" x2="150.399" y2="150.163" class="black" /></g>
<g><title>67 (position.label in template: 67.G)</title><text x="162.43" y="147.06" class="black" >G</text></g>
<g><line x1="161.201" y1="148.384" x2="156.369" y2="154.793" class="black" /></g>
<g><title>68 (position.label in template: 68.U)</title><text x="170.2" y="146.74" class="green" >T</text></g>
<g><title>69 (position.label in template: 69.U)</title><text x="176.41" y="151.05" class="green" >T</text></g>
<g><title>70 (position.label in template: 70.C)</title><text x="178.75" y="158.24" class="black" >C</text></g>
<g><title>71 (position.label in template: 71.G)</title><text x="176.05" y="165.38" class="black" >G</text></g>
<g><title>72 (position.label in template: 72.A)</title><text x="170.17" y="169.56" class="black" >A</text></g>
<g><title>73 (position.label in template: 73.C)</title><text x="162.41" y="169.08" class="black" >C</text></g>
<g><title>74 (position.label in template: 74.U)</title><text x="156.7" y="164.13" class="green" >T</text></g>
<g><title>75 (position.label in template: 75.C)</title><text x="155.14" y="156.73" class="black" >C</text></g>
<g><title>76 (position.label in template: 76.C)</title><text x="149.17" y="152.1" class="black" >C</text></g>
<g><title>77 (position.label in template: 77.C)</title><text x="143.19" y="147.46" class="black" >C</text></g>
<g><title>78 (position.label in template: 78.A)</title><text x="137.43" y="142.82" class="green" >A</text></g>
<g><title>79 (position.label in template: 79.C)</title><text x="131.25" y="138.19" class="black" >C</text></g>
<g><title>80 (position.label in template: 80.C)</title><text x="124.46" y="141.51" class="black" >C</text></g>
<g><title>81 (position.label in template: 81.C)</title><text x="124.46" y="149.07" class="black" >C</text></g>
<g><title>82 (position.label in template: 82.U)</title><text x="124.46" y="156.63" class="green" >T</text></g>
<g><title>83 (position.label in template: 83.C)</title><text x="124.46" y="164.19" class="black" >C</text></g>
<g><title>84 (position.label in template: 84.U)</title><text x="124.46" y="171.75" class="green" >T</text></g>
<g><title>85 (position.label in template: 85.C)</title><text x="124.46" y="179.31" class="black" >C</text></g>
<g><title>86 (position.label in template: 86.C)</title><text x="124.46" y="186.87" class="black" >C</text></g>
<g><title>87 (position.label in template: 87.G)</title><text x="129.704" y="192.328" class="black" >G</text></g>
<g><title>88 (position.label in template: 88.3')</title><text x="124.47" y="197.795" class="green" >3'</text></g>
<g><line x1="112.01" y1="192.091" x2="112.01" y2="188.605" class="gray" /></g>
<g><line x1="112.01" y1="184.522" x2="112.01" y2="181.045" class="gray" /></g>
<g><line x1="112.123" y1="176.965" x2="112.317" y2="173.482" class="gray" /></g>
<g><line x1="112.317" y1="169.405" x2="112.123" y2="165.922" class="gray" /></g>
<g><line x1="112.123" y1="161.845" x2="112.317" y2="158.362" class="gray" /></g>
<g><line x1="112.317" y1="154.285" x2="112.123" y2="150.802" class="gray" /></g>
<g><line x1="112.01" y1="146.722" x2="112.01" y2="143.245" class="gray" /></g>
<g><line x1="110.187" y1="140.284" x2="107.253" y2="138.803" class="gray" /></g>
<g><line x1="103.981" y1="136.445" x2="101.409" y2="133.892" class="gray" /></g>
<g><line x1="99.2175" y1="130.552" x2="98.0125" y2="127.466" class="gray" /></g>
<g><line x1="95.2293" y1="125.501" x2="91.5507" y2="125.387" class="gray" /></g>
<g><line x1="87.4694" y1="125.259" x2="83.9906" y2="125.149" class="gray" /></g>
<g><line x1="80.6938" y1="126.693" x2="78.4762" y2="129.534" class="gray" /></g>
<g><line x1="75.4244" y1="132.115" x2="72.6956" y2="133.592" class="gray" /></g>
<g><line x1="68.8584" y1="134.582" x2="64.9616" y2="134.616" class="gray" /></g>
<g><line x1="61.0944" y1="133.72" x2="58.1556" y2="132.248" class="gray" /></g>
<g><line x1="55.0442" y1="129.748" x2="52.7758" y2="126.95" class="gray" /></g>
<g><line x1="51.088" y1="123.362" x2="50.402" y2="119.945" class="gray" /></g>
<g><line x1="50.5817" y1="115.987" x2="51.5883" y2="112.601" class="gray" /></g>
<g><line x1="53.5204" y1="109.112" x2="55.8196" y2="106.505" class="gray" /></g>
<g><line x1="59.0516" y1="104.181" x2="62.0784" y2="102.906" class="gray" /></g>
<g><line x1="65.9968" y1="102.255" x2="69.8732" y2="102.523" class="gray" /></g>
<g><line x1="73.6673" y1="103.703" x2="76.6627" y2="105.474" class="gray" /></g>
<g><line x1="79.4524" y1="108.275" x2="81.0976" y2="111.082" class="gray" /></g>
<g><line x1="84.1706" y1="112.909" x2="87.6494" y2="113.019" class="gray" /></g>
<g><line x1="91.7307" y1="113.147" x2="95.4093" y2="113.261" class="gray" /></g>
<g><line x1="98.3609" y1="111.497" x2="99.8691" y2="108.471" class="gray" /></g>
<g><line x1="102.317" y1="105.3" x2="105.053" y2="102.908" class="gray" /></g>
<g><line x1="106.02" y1="99.6032" x2="105.05" y2="96.2643" class="gray" /></g>
<g><line x1="103.859" y1="92.359" x2="102.781" y2="88.9885" class="gray" /></g>
<g><line x1="101.646" y1="85.0678" x2="100.784" y2="81.7497" class="gray" /></g>
<g><line x1="99.7531" y1="77.7986" x2="98.8869" y2="74.4889" class="gray" /></g>
<g><line x1="96.6508" y1="71.4125" x2="93.5792" y2="69.445" class="gray" /></g>
<g><line x1="91.1877" y1="66.416" x2="90.0423" y2="63.1315" class="gray" /></g>
<g><line x1="89.9994" y1="59.2615" x2="91.0706" y2="55.956" class="gray" /></g>
<g><line x1="93.3569" y1="52.8208" x2="96.0431" y2="50.8867" class="gray" /></g>
<g><line x1="99.7399" y1="49.7782" x2="103.63" y2="49.9393" class="gray" /></g>
<g><line x1="107.242" y1="51.326" x2="109.918" y2="53.5415" class="gray" /></g>
<g><line x1="111.955" y1="56.8318" x2="112.745" y2="60.2157" class="gray" /></g>
<g><line x1="112.331" y1="64.0466" x2="110.799" y2="67.2609" class="gray" /></g>
<g><line x1="110.434" y1="71.0796" x2="111.296" y2="74.3879" class="gray" /></g>
<g><line x1="112.431" y1="78.3085" x2="113.509" y2="81.679" class="gray" /></g>
<g><line x1="114.748" y1="85.5696" x2="115.822" y2="88.9479" class="gray" /></g>
<g><line x1="116.903" y1="92.8822" x2="117.667" y2="96.1653" class="gray" /></g>
<g><line x1="120.143" y1="98.4954" x2="123.777" y2="99.1121" class="gray" /></g>
<g><line x1="127.548" y1="100.492" x2="130.382" y2="102.166" class="gray" /></g>
<g><line x1="133.846" y1="102.083" x2="136.904" y2="100.075" class="gray" /></g>
<g><line x1="140.28" y1="97.7789" x2="142.98" y2="95.8786" class="gray" /></g>
<g><line x1="146.358" y1="93.5847" x2="149.412" y2="91.5828" class="gray" /></g>
<g><line x1="152.79" y1="89.2889" x2="155.49" y2="87.3886" class="gray" /></g>
<g><line x1="158.849" y1="85.067" x2="161.731" y2="83.1105" class="gray" /></g>
<g><line x1="164.707" y1="80.379" x2="166.893" y2="77.6885" class="gray" /></g>
<g><line x1="170.22" y1="76.1857" x2="174.11" y2="76.3418" class="gray" /></g>
<g><line x1="177.297" y1="78.1129" x2="179.253" y2="80.9946" class="gray" /></g>
<g><line x1="179.73" y1="84.6124" x2="178.59" y2="87.8951" class="gray" /></g>
<g><line x1="175.968" y1="90.421" x2="172.452" y2="91.4965" class="gray" /></g>
<g><line x1="168.81" y1="93.2399" x2="165.94" y2="95.1876" class="gray" /></g>
<g><line x1="162.544" y1="97.4547" x2="159.486" y2="99.4628" class="gray" /></g>
<g><line x1="156.11" y1="101.759" x2="153.41" y2="103.659" class="gray" /></g>
<g><line x1="150.069" y1="106.007" x2="147.361" y2="107.91" class="gray" /></g>
<g><line x1="143.983" y1="110.204" x2="140.937" y2="112.203" class="gray" /></g>
<g><line x1="139.516" y1="115.345" x2="140.004" y2="118.792" class="gray" /></g>
<g><line x1="139.823" y1="122.801" x2="139.017" y2="126.226" class="gray" /></g>
<g><line x1="140.183" y1="129.44" x2="143.097" y2="131.628" class="gray" /></g>
<g><line x1="146.321" y1="134.133" x2="148.899" y2="136.205" class="gray" /></g>
<g><line x1="152.102" y1="138.737" x2="154.848" y2="140.871" class="gray" /></g>
<g><line x1="158.073" y1="143.375" x2="160.817" y2="145.503" class="gray" /></g>
<g><line x1="164.47" y1="146.67" x2="168.16" y2="146.518" class="gray" /></g>
<g><line x1="171.877" y1="147.598" x2="174.733" y2="149.58" class="gray" /></g>
<g><line x1="177.042" y1="152.685" x2="178.118" y2="155.992" class="gray" /></g>
<g><line x1="178.028" y1="159.843" x2="176.772" y2="163.164" class="gray" /></g>
<g><line x1="174.386" y1="166.257" x2="171.834" y2="168.071" class="gray" /></g>
<g><line x1="168.132" y1="169.128" x2="164.448" y2="168.9" class="gray" /></g>
<g><line x1="160.867" y1="167.436" x2="158.243" y2="165.161" class="gray" /></g>
<g><line x1="156.279" y1="161.826" x2="155.561" y2="158.422" class="gray" /></g>
<g><line x1="153.527" y1="155.173" x2="150.783" y2="153.045" class="gray" /></g>
<g><line x1="147.557" y1="150.542" x2="144.803" y2="148.405" class="gray" /></g>
<g><line x1="141.6" y1="145.873" x2="139.02" y2="143.795" class="gray" /></g>
<g><line x1="135.796" y1="141.29" x2="132.884" y2="139.108" class="gray" /></g>
<g><line x1="129.416" y1="138.781" x2="126.294" y2="140.307" class="gray" /></g>
<g><line x1="124.46" y1="143.245" x2="124.46" y2="146.722" class="gray" /></g>
<g><line x1="124.46" y1="150.805" x2="124.46" y2="154.282" class="gray" /></g>
<g><line x1="124.46" y1="158.365" x2="124.46" y2="161.842" class="gray" /></g>
<g><line x1="124.46" y1="165.925" x2="124.46" y2="169.402" class="gray" /></g>
<g><line x1="124.46" y1="173.485" x2="124.46" y2="176.962" class="gray" /></g>
<g><line x1="124.46" y1="181.045" x2="124.46" y2="184.522" class="gray" /></g>
<g><line x1="125.874" y1="188.036" x2="128.289" y2="190.549" class="gray" /></g>
<g><line x1="128.292" y1="193.496" x2="125.881" y2="196.014" class="gray" /></g>
</svg>
