<svg
	xmlns="http://www.w3.org/2000/svg"
	width="297.134"
	height="206.765">
<g><style type="text/css" >
<!-- create color definitions -->
<![CDATA[
circle.red {stroke: rgb(255, 0, 255); fill: none; }
circle.green {stroke: rgb(0, 255, 0); fill: none; }
circle.blue {stroke: rgb(0, 0, 255); fill: none; }
circle.black {stroke: rgb(0, 0, 0); fill: none; }
circle.gray {stroke: rgb(204, 204, 204); fill: none; }
circle.brown {stroke: rgb(211.65, 104.55, 30.6); fill: none; }
line.red {stroke: rgb(255, 0, 255); stroke-width: 0.382672; }
line.green {stroke: rgb(0, 255, 0); stroke-width: 0.382672; }
line.blue {stroke: rgb(0, 0, 255); stroke-width: 0.382672; }
line.black {stroke: rgb(0, 0, 0); stroke-width: 0.382672; }
line.gray {stroke: rgb(204, 204, 204); stroke-width: 0.382672; }
line.brown {stroke: rgb(211.65, 104.55, 30.6); stroke-width: 0.382672; }
line {stroke: rgb(0, 0, 0); }
text.red {fill: rgb(255, 0, 255); font-size: 3.061377px; font-weight: bold; font-family: Helvetica; }
text.green {fill: rgb(0, 255, 0); font-size: 3.061377px; font-weight: bold; font-family: Helvetica; }
text.blue {fill: rgb(0, 0, 255); font-size: 3.061377px; font-weight: bold; font-family: Helvetica; }
text.black {fill: rgb(0, 0, 0); font-size: 3.061377px; font-weight: bold; font-family: Helvetica; }
text.gray {fill: rgb(204, 204, 204); font-size: 3.061377px; font-weight: bold; font-family: Helvetica; }
text.brown {fill: rgb(211.65, 104.55, 30.6); font-size: 3.061377px; font-weight: bold; font-family: Helvetica; }
text {fill: rgb(0, 0, 0); font-size: 3.061377px; font-weight: bold; font-family: Helvetica; text-anchor: middle; alignment-baseline: middle; }

.pseudoknot_connection{stroke-linecap: round; stroke-opacity: 0.2; stroke-width: 1.5; }
.pseudoknot_segment1{stroke-linecap: round; stroke-opacity: 0.4; stroke-width: 3.06138; }
.pseudoknot_segment2{stroke-linecap: round; stroke-opacity: 0.4; stroke-width: 3.06138; }
line.numbering-line{stroke: rgb(204, 204, 204); stroke-width: 0.191336; }
line.predicted{stroke: rgb(0, 0, 0); stroke-dasharray: 2; }
polyline{fill: none; stroke-linejoin: round; }
template{visibility: hidden; }
text.numbering-label{fill: rgb(204, 204, 204); }
]]>
</style></g>
<g><title>0 (position.label in template: 0.5')</title><text x="102.92" y="156.659" class="green" >5'</text></g>
<g><title>1 (position.label in template: 1.U)</title><text x="110.493" y="156.659" class="green" >T</text></g>
<g><title>2 (position.label in template: 2.U)</title><text x="118.065" y="156.659" class="green" >T</text></g>
<g><title>3 (position.label in template: 3.U)</title><text x="125.637" y="156.659" class="green" >T</text></g>
<g><title>4 (position.label in template: 4.G)</title><text x="133.209" y="156.659" class="black" >G</text></g>
<g><title>5 (position.label in template: 5.U)</title><text x="140.781" y="156.659" class="green" >T</text></g>
<g><title>6 (position.label in template: 6.C)</title><text x="146.14" y="151.31" class="black" >C</text></g>
<g><line x1="148.181" y1="151.004" x2="156.549" y2="151.004" class="black" /></g>
<g><title>7 (position.label in template: 7.A)</title><text x="146.35" y="143.75" class="green" >A</text></g>
<g><line x1="148.391" y1="143.444" x2="156.339" y2="143.444" class="black" /></g>
<g><title>8 (position.label in template: 8.A)</title><text x="146.35" y="136.19" class="green" >A</text></g>
<g><line x1="148.391" y1="135.884" x2="156.339" y2="135.884" class="black" /></g>
<g><title>9 (position.label in template: 9.U)</title><text x="146.14" y="128.63" class="green" >T</text></g>
<g><line x1="148.181" y1="128.324" x2="156.549" y2="128.324" class="black" /></g>
<g><title>10 (position.label in template: 10.U)</title><text x="146.14" y="121.07" class="green" >T</text></g>
<g><line x1="148.181" y1="120.764" x2="156.549" y2="120.764" class="black" /></g>
<g><text x="140.009" y="124.211" class="numbering-label sequential" >10</text></g>
<g><line x1="144.505" y1="121.907" x2="141.846" y2="123.27" class="numbering-line sequential" /></g>
<g><title>11 (position.label in template: 11.A)</title><text x="140.09" y="116.82" class="green" >A</text></g>
<g><line x1="139.306" y1="114.629" x2="136.144" y2="107.028" class="black" /></g>
<g><title>12 (position.label in template: 12.G)</title><text x="132.65" y="119.62" class="black" >G</text></g>
<g><line x1="131.927" y1="117.405" x2="129.063" y2="109.842" class="black" /></g>
<g><title>13 (position.label in template: 13.G)</title><text x="125.63" y="122.41" class="black" >G</text></g>
<g><line x1="124.905" y1="120.196" x2="122.035" y2="112.642" class="black" /></g>
<g><title>14 (position.label in template: 14.G)</title><text x="118.6" y="125.21" class="black" >G</text></g>
<g><line x1="117.877" y1="122.995" x2="115.013" y2="115.432" class="black" /></g>
<g><title>15 (position.label in template: 15.G)</title><text x="113.34" y="130.64" class="black" >G</text></g>
<g><title>16 (position.label in template: 16.U)</title><text x="106" y="130.3" class="green" >T</text></g>
<g><line x1="105.275" y1="128.086" x2="102.405" y2="120.532" class="black" /></g>
<g><title>17 (position.label in template: 17.G)</title><text x="98.76" y="133.1" class="green" >G</text></g>
<g><line x1="98.0366" y1="130.885" x2="95.1734" y2="123.332" class="black" /></g>
<g><title>18 (position.label in template: 18.C)</title><text x="91.95" y="135.89" class="black" >C</text></g>
<g><line x1="91.1647" y1="133.7" x2="87.9953" y2="126.098" class="black" /></g>
<g><title>19 (position.label in template: 19.U)</title><text x="84.92" y="138.69" class="green" >T</text></g>
<g><line x1="84.1951" y1="136.476" x2="81.3249" y2="128.922" class="black" /></g>
<g><title>20 (position.label in template: 20.G)</title><text x="77.69" y="141.48" class="black" >G</text></g>
<g><line x1="76.9651" y1="139.266" x2="74.0949" y2="131.712" class="black" /></g>
<g><text x="80.2364" y="147.88" class="numbering-label sequential" >20</text></g>
<g><line x1="78.369" y1="143.187" x2="79.6274" y2="146.349" class="numbering-line sequential" /></g>
<g><title>21 (position.label in template: 21.C)</title><text x="70.87" y="144.28" class="black" >C</text></g>
<g><line x1="70.0861" y1="142.089" x2="66.9239" y2="134.488" class="black" /></g>
<g><title>22 (position.label in template: 22.C)</title><text x="66.65" y="150.55" class="black" >C</text></g>
<g><title>23 (position.label in template: 23.U)</title><text x="59.33" y="152.45" class="green" >T</text></g>
<g><title>24 (position.label in template: 24.G)</title><text x="52.38" y="149.03" class="black" >G</text></g>
<g><title>25 (position.label in template: 25.A)</title><text x="50" y="142.01" class="black" >A</text></g>
<g><title>26 (position.label in template: 26.C)</title><text x="52.35" y="134.89" class="black" >C</text></g>
<g><title>27 (position.label in template: 27.A)</title><text x="59.18" y="131.25" class="black" >A</text></g>
<g><title>28 (position.label in template: 28.G)</title><text x="66.14" y="132.91" class="black" >G</text></g>
<g><title>29 (position.label in template: 29.C)</title><text x="73.37" y="130.11" class="black" >C</text></g>
<g><title>30 (position.label in template: 30.A)</title><text x="80.6" y="127.32" class="green" >A</text></g>
<g><text x="78.0204" y="120.933" class="numbering-label sequential" >30</text></g>
<g><line x1="79.9121" y1="125.617" x2="78.6386" y2="122.464" class="numbering-line sequential" /></g>
<g><title>31 (position.label in template: 31.G)</title><text x="87.21" y="124.52" class="black" >G</text></g>
<g><title>32 (position.label in template: 32.U)</title><text x="94.45" y="121.73" class="green" >T</text></g>
<g><title>33 (position.label in template: 33.U)</title><text x="87.27" y="119.35" class="green" >T</text></g>
<g><title>34 (position.label in template: 34.G)</title><text x="83.09" y="112.92" class="black" >G</text></g>
<g><title>35 (position.label in template: 35.A)</title><text x="84.6" y="105.44" class="black" >A</text></g>
<g><title>36 (position.label in template: 36.G)</title><text x="89.83" y="100.41" class="black" >G</text></g>
<g><title>37 (position.label in template: 37.A)</title><text x="97.8" y="100.19" class="black" >A</text></g>
<g><title>38 (position.label in template: 38.U)</title><text x="103.52" y="104.87" class="green" >T</text></g>
<g><title>39 (position.label in template: 39.A)</title><text x="105.26" y="112.28" class="black" >A</text></g>
<g><title>40 (position.label in template: 40.A)</title><text x="101.68" y="118.93" class="green" >A</text></g>
<g><title>41 (position.label in template: 41.U)</title><text x="101.82" y="111.38" class="green" >T</text></g>
<g><title>42 (position.label in template: 42.A)</title><text x="109.05" y="108.59" class="black" >A</text></g>
<g><title>43 (position.label in template: 43.C)</title><text x="114.29" y="113.83" class="black" >C</text></g>
<g><title>44 (position.label in template: 44.C)</title><text x="121.31" y="111.04" class="black" >C</text></g>
<g><title>45 (position.label in template: 45.C)</title><text x="128.34" y="108.24" class="black" >C</text></g>
<g><title>46 (position.label in template: 46.U)</title><text x="135.36" y="105.45" class="green" >T</text></g>
<g><title>47 (position.label in template: 47.U)</title><text x="136.99" y="98.07" class="green" >T</text></g>
<g><title>48 (position.label in template: 48.G)</title><text x="141.47" y="92.14" class="black" >G</text></g>
<g><title>49 (position.label in template: 49.A)</title><text x="148.69" y="88.84" class="black" >A</text></g>
<g><title>50 (position.label in template: 50.A)</title><text x="156.25" y="88.84" class="black" >A</text></g>
<g><text x="157.814" y="82.1319" class="numbering-label sequential" >50</text></g>
<g><line x1="156.667" y1="87.0512" x2="157.457" y2="83.6626" class="numbering-line sequential" /></g>
<g><title>51 (position.label in template: 51.C)</title><text x="162.84" y="92.14" class="black" >C</text></g>
<g><line x1="163.834" y1="93.6164" x2="167.756" y2="100.651" class="black" /></g>
<g><title>52 (position.label in template: 52.C)</title><text x="169.39" y="88.36" class="black" >C</text></g>
<g><line x1="170.384" y1="89.8364" x2="174.306" y2="96.8713" class="black" /></g>
<g><title>53 (position.label in template: 53.U)</title><text x="175.94" y="84.58" class="green" >T</text></g>
<g><line x1="176.985" y1="86.0268" x2="181.215" y2="93.1209" class="black" /></g>
<g><title>54 (position.label in template: 54.G)</title><text x="182.28" y="80.8" class="green" >G</text></g>
<g><line x1="183.326" y1="82.2461" x2="187.564" y2="89.3416" class="black" /></g>
<g><title>55 (position.label in template: 55.A)</title><text x="185.46" y="73.76" class="black" >A</text></g>
<g><title>56 (position.label in template: 56.U)</title><text x="191.8" y="69.98" class="green" >T</text></g>
<g><title>57 (position.label in template: 57.C)</title><text x="199.28" y="71.1" class="black" >C</text></g>
<g><line x1="200.274" y1="72.5764" x2="204.196" y2="79.6113" class="black" /></g>
<g><title>58 (position.label in template: 58.U)</title><text x="205.83" y="67.32" class="green" >T</text></g>
<g><line x1="206.876" y1="68.7661" x2="211.114" y2="75.8616" class="black" /></g>
<g><title>59 (position.label in template: 59.G)</title><text x="212.16" y="63.54" class="black" >G</text></g>
<g><line x1="213.208" y1="64.9854" x2="217.452" y2="72.0823" class="black" /></g>
<g><title>60 (position.label in template: 60.G)</title><text x="218.71" y="59.76" class="black" >G</text></g>
<g><line x1="219.756" y1="61.2061" x2="223.994" y2="68.3016" class="black" /></g>
<g><title>61 (position.label in template: 61.A)</title><text x="222.4" y="52.95" class="black" >A</text></g>
<g><title>62 (position.label in template: 62.U)</title><text x="229.16" y="50" class="green" >T</text></g>
<g><title>63 (position.label in template: 63.A)</title><text x="236.54" y="52.41" class="black" >A</text></g>
<g><title>64 (position.label in template: 64.A)</title><text x="240.32" y="58.96" class="black" >A</text></g>
<g><title>65 (position.label in template: 65.U)</title><text x="238.61" y="66.37" class="green" >T</text></g>
<g><title>66 (position.label in template: 66.G)</title><text x="232.37" y="70.93" class="black" >G</text></g>
<g><title>67 (position.label in template: 67.C)</title><text x="225.04" y="70.36" class="black" >C</text></g>
<g><title>68 (position.label in template: 68.C)</title><text x="218.5" y="74.14" class="black" >C</text></g>
<g><title>69 (position.label in template: 69.A)</title><text x="212.16" y="77.92" class="green" >A</text></g>
<g><title>70 (position.label in template: 70.G)</title><text x="205.19" y="81.7" class="black" >G</text></g>
<g><title>71 (position.label in template: 71.C)</title><text x="202.63" y="88.73" class="black" >C</text></g>
<g><title>72 (position.label in template: 72.G)</title><text x="195.87" y="92.51" class="black" >G</text></g>
<g><title>73 (position.label in template: 73.U)</title><text x="188.61" y="91.4" class="green" >T</text></g>
<g><title>74 (position.label in template: 74.A)</title><text x="182.26" y="95.18" class="green" >A</text></g>
<g><title>75 (position.label in template: 75.G)</title><text x="175.3" y="98.96" class="black" >G</text></g>
<g><title>76 (position.label in template: 76.G)</title><text x="168.75" y="102.74" class="black" >G</text></g>
<g><title>77 (position.label in template: 77.A)</title><text x="168.62" y="110.28" class="black" >A</text></g>
<g><title>78 (position.label in template: 78.A)</title><text x="164.84" y="116.82" class="black" >A</text></g>
<g><title>79 (position.label in template: 79.A)</title><text x="158.59" y="121.07" class="green" >A</text></g>
<g><title>80 (position.label in template: 80.A)</title><text x="158.59" y="128.63" class="green" >A</text></g>
<g><title>81 (position.label in template: 81.U)</title><text x="158.38" y="136.19" class="green" >T</text></g>
<g><title>82 (position.label in template: 82.U)</title><text x="158.38" y="143.75" class="green" >T</text></g>
<g><title>83 (position.label in template: 83.A)</title><text x="158.59" y="151.31" class="black" >A</text></g>
<g><title>84 (position.label in template: 84.U)</title><text x="163.841" y="156.765" class="green" >T</text></g>
<g><title>85 (position.label in template: 85.A)</title><text x="171.413" y="156.765" class="black" >A</text></g>
<g><title>86 (position.label in template: 86.U)</title><text x="178.985" y="156.765" class="green" >T</text></g>
<g><title>87 (position.label in template: 87.U)</title><text x="186.557" y="156.765" class="green" >T</text></g>
<g><title>88 (position.label in template: 88.A)</title><text x="194.129" y="156.765" class="black" >A</text></g>
<g><title>89 (position.label in template: 89.U)</title><text x="201.701" y="156.765" class="green" >T</text></g>
<g><title>90 (position.label in template: 90.A)</title><text x="209.273" y="156.765" class="black" >A</text></g>
<g><title>91 (position.label in template: 91.A)</title><text x="216.845" y="156.765" class="black" >A</text></g>
<g><title>92 (position.label in template: 92.G)</title><text x="224.418" y="156.765" class="black" >G</text></g>
<g><title>93 (position.label in template: 93.C)</title><text x="231.99" y="156.765" class="black" >C</text></g>
<g><title>94 (position.label in template: 94.C)</title><text x="239.562" y="156.765" class="black" >C</text></g>
<g><title>95 (position.label in template: 95.A)</title><text x="247.134" y="156.765" class="black" >A</text></g>
<g><title>96 (position.label in template: 96.3')</title><text x="254.706" y="156.765" class="green" >3'</text></g>
<g><line x1="104.961" y1="156.353" x2="108.452" y2="156.353" class="gray" /></g>
<g><line x1="112.533" y1="156.353" x2="116.024" y2="156.353" class="gray" /></g>
<g><line x1="120.105" y1="156.353" x2="123.596" y2="156.353" class="gray" /></g>
<g><line x1="127.678" y1="156.353" x2="131.168" y2="156.353" class="gray" /></g>
<g><line x1="135.25" y1="156.353" x2="138.74" y2="156.353" class="gray" /></g>
<g><line x1="142.225" y1="154.911" x2="144.696" y2="152.446" class="gray" /></g>
<g><line x1="146.197" y1="148.964" x2="146.293" y2="145.484" class="gray" /></g>
<g><line x1="146.35" y1="141.403" x2="146.35" y2="137.925" class="gray" /></g>
<g><line x1="146.293" y1="133.844" x2="146.197" y2="130.364" class="gray" /></g>
<g><line x1="146.14" y1="126.283" x2="146.14" y2="122.805" class="gray" /></g>
<g><line x1="144.47" y1="119.591" x2="141.76" y2="117.687" class="gray" /></g>
<g><line x1="138.18" y1="117.233" x2="134.56" y2="118.595" class="gray" /></g>
<g><line x1="130.753" y1="120.068" x2="127.527" y2="121.35" class="gray" /></g>
<g><line x1="123.734" y1="122.859" x2="120.496" y2="124.149" class="gray" /></g>
<g><line x1="117.18" y1="126.37" x2="114.76" y2="128.868" class="gray" /></g>
<g><line x1="111.301" y1="130.239" x2="108.039" y2="130.088" class="gray" /></g>
<g><line x1="104.096" y1="130.73" x2="100.664" y2="132.058" class="gray" /></g>
<g><line x1="96.8714" y1="133.568" x2="93.8386" y2="134.81" class="gray" /></g>
<g><line x1="90.0539" y1="136.339" x2="86.8161" y2="137.629" class="gray" /></g>
<g><line x1="83.0159" y1="139.119" x2="79.5941" y2="140.439" class="gray" /></g>
<g><line x1="75.802" y1="141.949" x2="72.758" y2="143.199" class="gray" /></g>
<g><line x1="69.7304" y1="145.667" x2="67.7896" y2="148.551" class="gray" /></g>
<g><line x1="64.6745" y1="150.757" x2="61.3055" y2="151.631" class="gray" /></g>
<g><line x1="57.4988" y1="151.243" x2="54.2112" y2="149.625" class="gray" /></g>
<g><line x1="51.7247" y1="146.791" x2="50.6553" y2="143.637" class="gray" /></g>
<g><line x1="50.6397" y1="139.766" x2="51.7103" y2="136.522" class="gray" /></g>
<g><line x1="54.1511" y1="133.624" x2="57.3789" y2="131.904" class="gray" /></g>
<g><line x1="61.1652" y1="131.417" x2="64.1548" y2="132.13" class="gray" /></g>
<g><line x1="68.0432" y1="131.867" x2="71.4668" y2="130.541" class="gray" /></g>
<g><line x1="75.2741" y1="129.069" x2="78.6959" y2="127.749" class="gray" /></g>
<g><line x1="82.4793" y1="126.218" x2="85.3307" y2="125.01" class="gray" /></g>
<g><line x1="89.1144" y1="123.48" x2="92.5456" y2="122.158" class="gray" /></g>
<g><line x1="92.5127" y1="120.782" x2="89.2073" y2="119.686" class="gray" /></g>
<g><line x1="86.1576" y1="117.333" x2="84.2024" y2="114.325" class="gray" /></g>
<g><line x1="83.4939" y1="110.613" x2="84.1961" y2="107.134" class="gray" /></g>
<g><line x1="86.071" y1="103.719" x2="88.359" y2="101.519" class="gray" /></g>
<g><line x1="91.8701" y1="100.048" x2="95.7599" y2="99.9402" class="gray" /></g>
<g><line x1="99.3796" y1="101.176" x2="101.94" y2="103.271" class="gray" /></g>
<g><line x1="103.987" y1="106.551" x2="104.793" y2="109.987" class="gray" /></g>
<g><line x1="104.293" y1="113.771" x2="102.647" y2="116.827" class="gray" /></g>
<g><line x1="101.718" y1="116.583" x2="101.782" y2="113.114" class="gray" /></g>
<g><line x1="103.724" y1="110.339" x2="107.146" y2="109.019" class="gray" /></g>
<g><line x1="110.493" y1="109.727" x2="112.847" y2="112.081" class="gray" /></g>
<g><line x1="116.187" y1="112.77" x2="119.413" y2="111.488" class="gray" /></g>
<g><line x1="123.206" y1="109.979" x2="126.444" y2="108.689" class="gray" /></g>
<g><line x1="130.237" y1="107.18" x2="133.463" y2="105.898" class="gray" /></g>
<g><line x1="135.8" y1="103.151" x2="136.55" y2="99.7568" class="gray" /></g>
<g><line x1="138.22" y1="96.1354" x2="140.24" y2="93.4623" class="gray" /></g>
<g><line x1="143.326" y1="90.9855" x2="146.834" y2="89.3823" class="gray" /></g>
<g><line x1="150.731" y1="88.5339" x2="154.209" y2="88.5339" class="gray" /></g>
<g><line x1="158.075" y1="89.4477" x2="161.015" y2="90.92" class="gray" /></g>
<g><line x1="164.608" y1="90.8137" x2="167.622" y2="89.074" class="gray" /></g>
<g><line x1="171.158" y1="87.0337" x2="174.172" y2="85.294" class="gray" /></g>
<g><line x1="177.693" y1="83.2287" x2="180.527" y2="81.539" class="gray" /></g>
<g><line x1="183.12" y1="78.6339" x2="184.62" y2="75.3138" class="gray" /></g>
<g><line x1="187.213" y1="72.4087" x2="190.047" y2="70.719" class="gray" /></g>
<g><line x1="193.818" y1="69.9761" x2="197.262" y2="70.4916" class="gray" /></g>
<g><line x1="201.048" y1="69.7737" x2="204.062" y2="68.034" class="gray" /></g>
<g><line x1="207.582" y1="65.9675" x2="210.408" y2="64.2802" class="gray" /></g>
<g><line x1="213.928" y1="62.2137" x2="216.942" y2="60.474" class="gray" /></g>
<g><line x1="219.682" y1="57.6594" x2="221.428" y2="54.4383" class="gray" /></g>
<g><line x1="224.271" y1="51.8276" x2="227.289" y2="50.5102" class="gray" /></g>
<g><line x1="231.1" y1="50.3274" x2="234.6" y2="51.4703" class="gray" /></g>
<g><line x1="237.56" y1="53.8715" x2="239.3" y2="56.8862" class="gray" /></g>
<g><line x1="239.861" y1="60.6425" x2="239.069" y2="64.0752" class="gray" /></g>
<g><line x1="236.962" y1="67.268" x2="234.018" y2="69.4197" class="gray" /></g>
<g><line x1="230.335" y1="70.4656" x2="227.075" y2="70.2121" class="gray" /></g>
<g><line x1="223.273" y1="71.0752" x2="220.267" y2="72.8126" class="gray" /></g>
<g><line x1="216.747" y1="74.879" x2="213.913" y2="76.5687" class="gray" /></g>
<g><line x1="210.366" y1="78.5868" x2="206.984" y2="80.4209" class="gray" /></g>
<g><line x1="204.492" y1="83.3116" x2="203.328" y2="86.5061" class="gray" /></g>
<g><line x1="200.849" y1="89.4199" x2="197.651" y2="91.2078" class="gray" /></g>
<g><line x1="193.853" y1="91.8954" x2="190.627" y2="91.4023" class="gray" /></g>
<g><line x1="186.856" y1="92.1378" x2="184.014" y2="93.8299" class="gray" /></g>
<g><line x1="180.467" y1="95.8479" x2="177.093" y2="97.6798" class="gray" /></g>
<g><line x1="173.532" y1="99.674" x2="170.518" y2="101.414" class="gray" /></g>
<g><line x1="168.715" y1="104.474" x2="168.655" y2="107.933" class="gray" /></g>
<g><line x1="167.599" y1="111.741" x2="165.861" y2="114.747" class="gray" /></g>
<g><line x1="163.152" y1="117.661" x2="160.278" y2="119.616" class="gray" /></g>
<g><line x1="158.59" y1="122.805" x2="158.59" y2="126.283" class="gray" /></g>
<g><line x1="158.533" y1="130.364" x2="158.437" y2="133.844" class="gray" /></g>
<g><line x1="158.38" y1="137.925" x2="158.38" y2="141.403" class="gray" /></g>
<g><line x1="158.437" y1="145.484" x2="158.533" y2="148.964" class="gray" /></g>
<g><line x1="160.005" y1="152.474" x2="162.426" y2="154.989" class="gray" /></g>
<g><line x1="165.882" y1="156.459" x2="169.372" y2="156.459" class="gray" /></g>
<g><line x1="173.454" y1="156.459" x2="176.944" y2="156.459" class="gray" /></g>
<g><line x1="181.026" y1="156.459" x2="184.516" y2="156.459" class="gray" /></g>
<g><line x1="188.598" y1="156.459" x2="192.088" y2="156.459" class="gray" /></g>
<g><line x1="196.17" y1="156.459" x2="199.66" y2="156.459" class="gray" /></g>
<g><line x1="203.742" y1="156.459" x2="207.233" y2="156.459" class="gray" /></g>
<g><line x1="211.314" y1="156.459" x2="214.805" y2="156.459" class="gray" /></g>
<g><line x1="218.886" y1="156.459" x2="222.377" y2="156.459" class="gray" /></g>
<g><line x1="226.458" y1="156.459" x2="229.949" y2="156.459" class="gray" /></g>
<g><line x1="234.031" y1="156.459" x2="237.521" y2="156.459" class="gray" /></g>
<g><line x1="241.603" y1="156.459" x2="245.093" y2="156.459" class="gray" /></g>
<g><line x1="249.175" y1="156.459" x2="252.665" y2="156.459" class="gray" /></g>
</svg>
