<svg
	xmlns="http://www.w3.org/2000/svg"
	width="154.33"
	height="285.306">
<g><style type="text/css" >
<!-- create color definitions -->
<![CDATA[
circle.red {stroke: rgb(255, 0, 255); fill: none; }
circle.green {stroke: rgb(0, 255, 0); fill: none; }
circle.blue {stroke: rgb(0, 0, 255); fill: none; }
circle.black {stroke: rgb(0, 0, 0); fill: none; }
circle.gray {stroke: rgb(204, 204, 204); fill: none; }
circle.brown {stroke: rgb(211.65, 104.55, 30.6); fill: none; }
line.red {stroke: rgb(255, 0, 255); stroke-width: 0.384236; }
line.green {stroke: rgb(0, 255, 0); stroke-width: 0.384236; }
line.blue {stroke: rgb(0, 0, 255); stroke-width: 0.384236; }
line.black {stroke: rgb(0, 0, 0); stroke-width: 0.384236; }
line.gray {stroke: rgb(204, 204, 204); stroke-width: 0.384236; }
line.brown {stroke: rgb(211.65, 104.55, 30.6); stroke-width: 0.384236; }
line {stroke: rgb(0, 0, 0); }
text.red {fill: rgb(255, 0, 255); font-size: 3.073889px; font-weight: bold; font-family: Helvetica; }
text.green {fill: rgb(0, 255, 0); font-size: 3.073889px; font-weight: bold; font-family: Helvetica; }
text.blue {fill: rgb(0, 0, 255); font-size: 3.073889px; font-weight: bold; font-family: Helvetica; }
text.black {fill: rgb(0, 0, 0); font-size: 3.073889px; font-weight: bold; font-family: Helvetica; }
text.gray {fill: rgb(204, 204, 204); font-size: 3.073889px; font-weight: bold; font-family: Helvetica; }
text.brown {fill: rgb(211.65, 104.55, 30.6); font-size: 3.073889px; font-weight: bold; font-family: Helvetica; }
text {fill: rgb(0, 0, 0); font-size: 3.073889px; font-weight: bold; font-family: Helvetica; text-anchor: middle; alignment-baseline: middle; }

.pseudoknot_connection{stroke-linecap: round; stroke-opacity: 0.2; stroke-width: 1.5; }
.pseudoknot_segment1{stroke-linecap: round; stroke-opacity: 0.4; stroke-width: 3.07389; }
.pseudoknot_segment2{stroke-linecap: round; stroke-opacity: 0.4; stroke-width: 3.07389; }
line.numbering-line{stroke: rgb(204, 204, 204); stroke-width: 0.192118; }
line.predicted{stroke: rgb(0, 0, 0); stroke-dasharray: 2; }
polyline{fill: none; stroke-linejoin: round; }
template{visibility: hidden; }
text.numbering-label{fill: rgb(204, 204, 204); }
]]>
</style></g>
<g><title>0 (position.label in template: 0.5')</title><text x="73.48" y="237.722" class="green" >5'</text></g>
<g><title>1 (position.label in template: 1.C)</title><text x="73.48" y="230.16" class="black" >C</text></g>
<g><line x1="75.5293" y1="229.853" x2="83.4607" y2="229.853" class="black" /></g>
<g><title>2 (position.label in template: 2.C)</title><text x="73.48" y="222.6" class="black" >C</text></g>
<g><line x1="75.5293" y1="222.293" x2="83.4607" y2="222.293" class="black" /></g>
<g><title>3 (position.label in template: 3.U)</title><text x="73.48" y="215.04" class="green" >T</text></g>
<g><line x1="75.5293" y1="214.733" x2="83.8707" y2="214.733" class="black" /></g>
<g><title>4 (position.label in template: 4.G)</title><text x="73.27" y="207.48" class="black" >G</text></g>
<g><line x1="75.3193" y1="207.173" x2="83.6707" y2="207.173" class="black" /></g>
<g><title>5 (position.label in template: 5.U)</title><text x="73.48" y="199.92" class="green" >T</text></g>
<g><line x1="75.5293" y1="199.613" x2="83.4607" y2="199.613" class="black" /></g>
<g><title>6 (position.label in template: 6.G)</title><text x="67.67" y="194.84" class="black" >G</text></g>
<g><title>7 (position.label in template: 7.G)</title><text x="65.6" y="187.57" class="black" >G</text></g>
<g><title>8 (position.label in template: 8.A)</title><text x="68.09" y="180.3" class="black" >A</text></g>
<g><title>9 (position.label in template: 9.G)</title><text x="73.27" y="175.21" class="black" >G</text></g>
<g><line x1="75.3193" y1="174.903" x2="83.6707" y2="174.903" class="black" /></g>
<g><title>10 (position.label in template: 10.U)</title><text x="73.48" y="167.65" class="green" >T</text></g>
<g><line x1="75.5293" y1="167.343" x2="83.8707" y2="167.343" class="black" /></g>
<g><text x="66.5638" y="167.65" class="numbering-label sequential" >10</text></g>
<g><line x1="71.6357" y1="167.65" x2="68.4081" y2="167.65" class="numbering-line sequential" /></g>
<g><title>11 (position.label in template: 11.G)</title><text x="73.27" y="160.09" class="black" >G</text></g>
<g><line x1="75.3193" y1="159.783" x2="83.6707" y2="159.783" class="black" /></g>
<g><title>12 (position.label in template: 12.U)</title><text x="73.48" y="152.53" class="green" >T</text></g>
<g><line x1="75.5293" y1="152.223" x2="83.8707" y2="152.223" class="black" /></g>
<g><title>13 (position.label in template: 13.U)</title><text x="73.48" y="144.97" class="green" >T</text></g>
<g><line x1="75.5293" y1="144.663" x2="83.4607" y2="144.663" class="black" /></g>
<g><title>14 (position.label in template: 14.A)</title><text x="69.24" y="151.09" class="black" >A</text></g>
<g><title>15 (position.label in template: 15.C)</title><text x="61.84" y="153.43" class="black" >C</text></g>
<g><title>16 (position.label in template: 16.A)</title><text x="54.86" y="151.09" class="black" >A</text></g>
<g><title>17 (position.label in template: 17.G)</title><text x="50" y="144.97" class="black" >G</text></g>
<g><title>18 (position.label in template: 18.C)</title><text x="50.21" y="137.41" class="black" >C</text></g>
<g><title>19 (position.label in template: 19.A)</title><text x="54.86" y="131.3" class="black" >A</text></g>
<g><title>20 (position.label in template: 20.A)</title><text x="62.05" y="128.96" class="black" >A</text></g>
<g><text x="62.05" y="122.044" class="numbering-label sequential" >20</text></g>
<g><line x1="62.05" y1="127.116" x2="62.05" y2="123.581" class="numbering-line sequential" /></g>
<g><title>21 (position.label in template: 21.A)</title><text x="69.24" y="131.3" class="black" >A</text></g>
<g><title>22 (position.label in template: 22.C)</title><text x="73.48" y="137.41" class="black" >C</text></g>
<g><line x1="75.5293" y1="137.103" x2="83.4607" y2="137.103" class="black" /></g>
<g><title>23 (position.label in template: 23.U)</title><text x="73.48" y="129.85" class="green" >T</text></g>
<g><line x1="75.5293" y1="129.543" x2="83.8707" y2="129.543" class="black" /></g>
<g><title>24 (position.label in template: 24.G)</title><text x="73.27" y="122.29" class="black" >G</text></g>
<g><line x1="75.3193" y1="121.983" x2="83.6707" y2="121.983" class="black" /></g>
<g><title>25 (position.label in template: 25.U)</title><text x="66.24" y="120.11" class="green" >T</text></g>
<g><title>26 (position.label in template: 26.A)</title><text x="61.2" y="114.67" class="black" >A</text></g>
<g><title>27 (position.label in template: 27.G)</title><text x="58.87" y="107.36" class="black" >G</text></g>
<g><title>28 (position.label in template: 28.U)</title><text x="60.99" y="100.04" class="green" >T</text></g>
<g><title>29 (position.label in template: 29.A)</title><text x="66.44" y="94.6" class="black" >A</text></g>
<g><title>30 (position.label in template: 30.G)</title><text x="73.27" y="92.42" class="black" >G</text></g>
<g><line x1="75.3193" y1="92.1126" x2="83.6707" y2="92.1126" class="black" /></g>
<g><text x="67.6647" y="88.3685" class="numbering-label sequential" >30</text></g>
<g><line x1="71.7752" y1="91.3396" x2="69.509" y2="89.7016" class="numbering-line sequential" /></g>
<g><title>31 (position.label in template: 31.C)</title><text x="73.48" y="84.86" class="black" >C</text></g>
<g><line x1="75.5293" y1="84.5526" x2="83.4607" y2="84.5526" class="black" /></g>
<g><title>32 (position.label in template: 32.G)</title><text x="73.27" y="77.3" class="black" >G</text></g>
<g><line x1="75.3193" y1="76.9926" x2="83.4607" y2="76.9926" class="black" /></g>
<g><title>33 (position.label in template: 33.A)</title><text x="70.58" y="70.41" class="black" >A</text></g>
<g><title>34 (position.label in template: 34.G)</title><text x="73.27" y="63.51" class="green" >G</text></g>
<g><line x1="75.3193" y1="63.2026" x2="83.6707" y2="63.2026" class="black" /></g>
<g><title>35 (position.label in template: 35.U)</title><text x="73.48" y="55.95" class="green" >T</text></g>
<g><line x1="75.5293" y1="55.6426" x2="83.8707" y2="55.6426" class="black" /></g>
<g><title>36 (position.label in template: 36.G)</title><text x="77.94" y="50" class="black" >G</text></g>
<g><title>37 (position.label in template: 37.A)</title><text x="85.92" y="55.95" class="green" >A</text></g>
<g><title>38 (position.label in template: 38.U)</title><text x="85.72" y="63.51" class="green" >T</text></g>
<g><title>39 (position.label in template: 39.U)</title><text x="88.82" y="70.41" class="green" >T</text></g>
<g><title>40 (position.label in template: 40.G)</title><text x="85.51" y="77.3" class="black" >G</text></g>
<g><title>41 (position.label in template: 41.G)</title><text x="85.51" y="84.86" class="black" >G</text></g>
<g><title>42 (position.label in template: 42.C)</title><text x="85.72" y="92.42" class="black" >C</text></g>
<g><title>43 (position.label in template: 43.G)</title><text x="91.64" y="96.85" class="black" >G</text></g>
<g><title>44 (position.label in template: 44.A)</title><text x="95.5" y="103.58" class="black" >A</text></g>
<g><title>45 (position.label in template: 45.G)</title><text x="95.08" y="111.14" class="black" >G</text></g>
<g><title>46 (position.label in template: 46.A)</title><text x="92.05" y="117.87" class="black" >A</text></g>
<g><title>47 (position.label in template: 47.C)</title><text x="85.72" y="122.29" class="black" >C</text></g>
<g><title>48 (position.label in template: 48.A)</title><text x="85.92" y="129.85" class="green" >A</text></g>
<g><title>49 (position.label in template: 49.G)</title><text x="85.51" y="137.41" class="black" >G</text></g>
<g><title>50 (position.label in template: 50.G)</title><text x="85.51" y="144.97" class="green" >G</text></g>
<g><text x="92.4237" y="144.783" class="numbering-label sequential" >50</text></g>
<g><line x1="87.3537" y1="144.92" x2="90.5794" y2="144.833" class="numbering-line sequential" /></g>
<g><title>51 (position.label in template: 51.A)</title><text x="85.92" y="152.53" class="green" >A</text></g>
<g><title>52 (position.label in template: 52.C)</title><text x="85.72" y="160.09" class="black" >C</text></g>
<g><title>53 (position.label in template: 53.A)</title><text x="85.92" y="167.65" class="green" >A</text></g>
<g><title>54 (position.label in template: 54.C)</title><text x="85.72" y="175.21" class="black" >C</text></g>
<g><title>55 (position.label in template: 55.G)</title><text x="93" y="174.22" class="black" >G</text></g>
<g><title>56 (position.label in template: 56.U)</title><text x="100.07" y="177.41" class="green" >T</text></g>
<g><title>57 (position.label in template: 57.A)</title><text x="104.33" y="183.79" class="black" >A</text></g>
<g><title>58 (position.label in template: 58.G)</title><text x="103.92" y="191.35" class="black" >G</text></g>
<g><title>59 (position.label in template: 59.A)</title><text x="100.27" y="197.72" class="black" >A</text></g>
<g><title>60 (position.label in template: 60.A)</title><text x="93.42" y="200.91" class="black" >A</text></g>
<g><title>61 (position.label in template: 61.G)</title><text x="85.51" y="199.92" class="green" >G</text></g>
<g><title>62 (position.label in template: 62.C)</title><text x="85.72" y="207.48" class="black" >C</text></g>
<g><title>63 (position.label in template: 63.A)</title><text x="85.92" y="215.04" class="green" >A</text></g>
<g><title>64 (position.label in template: 64.G)</title><text x="85.51" y="222.6" class="black" >G</text></g>
<g><title>65 (position.label in template: 65.G)</title><text x="85.51" y="230.16" class="black" >G</text></g>
<g><title>66 (position.label in template: 66.A)</title><text x="91.0507" y="235.306" class="black" >A</text></g>
<g><title>67 (position.label in template: 67.A)</title><text x="98.6127" y="235.306" class="black" >A</text></g>
<g><title>68 (position.label in template: 68.3')</title><text x="106.175" y="235.306" class="green" >3'</text></g>
<g><line x1="73.48" y1="235.365" x2="73.48" y2="231.902" class="gray" /></g>
<g><line x1="73.48" y1="227.803" x2="73.48" y2="224.342" class="gray" /></g>
<g><line x1="73.48" y1="220.243" x2="73.48" y2="216.782" class="gray" /></g>
<g><line x1="73.4231" y1="212.684" x2="73.3269" y2="209.221" class="gray" /></g>
<g><line x1="73.3269" y1="205.124" x2="73.4231" y2="201.661" class="gray" /></g>
<g><line x1="71.9373" y1="198.264" x2="69.2127" y2="195.881" class="gray" /></g>
<g><line x1="67.1088" y1="192.562" x2="66.1612" y2="189.234" class="gray" /></g>
<g><line x1="66.264" y1="185.324" x2="67.426" y2="181.931" class="gray" /></g>
<g><line x1="69.5517" y1="178.556" x2="71.8083" y2="176.339" class="gray" /></g>
<g><line x1="73.3269" y1="172.854" x2="73.4231" y2="169.391" class="gray" /></g>
<g><line x1="73.4231" y1="165.294" x2="73.3269" y2="161.831" class="gray" /></g>
<g><line x1="73.3269" y1="157.734" x2="73.4231" y2="154.271" class="gray" /></g>
<g><line x1="73.48" y1="150.173" x2="73.48" y2="146.712" class="gray" /></g>
<g><line x1="72.313" y1="146.347" x2="70.407" y2="149.098" class="gray" /></g>
<g><line x1="67.2861" y1="151.4" x2="63.7939" y2="152.505" class="gray" /></g>
<g><line x1="59.897" y1="152.471" x2="56.803" y2="151.434" class="gray" /></g>
<g><line x1="53.5856" y1="149.178" x2="51.2744" y2="146.267" class="gray" /></g>
<g><line x1="50.0569" y1="142.614" x2="50.1531" y2="139.151" class="gray" /></g>
<g><line x1="51.4511" y1="135.472" x2="53.6189" y2="132.623" class="gray" /></g>
<g><line x1="56.8087" y1="130.358" x2="60.1013" y2="129.287" class="gray" /></g>
<g><line x1="63.9987" y1="129.287" x2="67.2913" y2="130.358" class="gray" /></g>
<g><line x1="70.4083" y1="132.676" x2="72.3117" y2="135.419" class="gray" /></g>
<g><line x1="73.48" y1="135.053" x2="73.48" y2="131.592" class="gray" /></g>
<g><line x1="73.4231" y1="127.494" x2="73.3269" y2="124.031" class="gray" /></g>
<g><line x1="71.3127" y1="121.376" x2="68.1973" y2="120.41" class="gray" /></g>
<g><line x1="64.8473" y1="118.299" x2="62.5927" y2="115.866" class="gray" /></g>
<g><line x1="60.5777" y1="112.41" x2="59.4923" y2="109.005" class="gray" /></g>
<g><line x1="59.4401" y1="105.084" x2="60.4199" y2="101.701" class="gray" /></g>
<g><line x1="62.4404" y1="98.2849" x2="64.9896" y2="95.7403" class="gray" /></g>
<g><line x1="68.3922" y1="93.6695" x2="71.3178" y2="92.7357" class="gray" /></g>
<g><line x1="73.3269" y1="90.0641" x2="73.4231" y2="86.6011" class="gray" /></g>
<g><line x1="73.4231" y1="82.5041" x2="73.3269" y2="79.0411" class="gray" /></g>
<g><line x1="72.5247" y1="75.0837" x2="71.3253" y2="72.0115" class="gray" /></g>
<g><line x1="71.3243" y1="68.1933" x2="72.5257" y2="65.1119" class="gray" /></g>
<g><line x1="73.3269" y1="61.1541" x2="73.4231" y2="57.6911" class="gray" /></g>
<g><line x1="74.7091" y1="54.0029" x2="76.7109" y2="51.3323" class="gray" /></g>
<g><line x1="79.5829" y1="50.9176" x2="84.2771" y2="54.4177" class="gray" /></g>
<g><line x1="85.8658" y1="57.6912" x2="85.7742" y2="61.1541" class="gray" /></g>
<g><line x1="86.5598" y1="65.0719" x2="87.9802" y2="68.2333" class="gray" /></g>
<g><line x1="87.9326" y1="71.9498" x2="86.3974" y2="75.1454" class="gray" /></g>
<g><line x1="85.51" y1="79.0419" x2="85.51" y2="82.5034" class="gray" /></g>
<g><line x1="85.5669" y1="86.6011" x2="85.6631" y2="90.0641" class="gray" /></g>
<g><line x1="87.3607" y1="93.3404" x2="89.9993" y2="95.3148" class="gray" /></g>
<g><line x1="92.6596" y1="98.3202" x2="94.4804" y2="101.495" class="gray" /></g>
<g><line x1="95.3863" y1="105.319" x2="95.1937" y2="108.787" class="gray" /></g>
<g><line x1="94.2387" y1="112.701" x2="92.8913" y2="115.694" class="gray" /></g>
<g><line x1="90.3698" y1="118.736" x2="87.4002" y2="120.809" class="gray" /></g>
<g><line x1="85.7742" y1="124.031" x2="85.8658" y2="127.494" class="gray" /></g>
<g><line x1="85.809" y1="131.589" x2="85.621" y2="135.056" class="gray" /></g>
<g><line x1="85.51" y1="139.152" x2="85.51" y2="142.613" class="gray" /></g>
<g><line x1="85.621" y1="146.709" x2="85.809" y2="150.176" class="gray" /></g>
<g><line x1="85.8658" y1="154.271" x2="85.7742" y2="157.734" class="gray" /></g>
<g><line x1="85.7742" y1="161.831" x2="85.8658" y2="165.294" class="gray" /></g>
<g><line x1="85.8658" y1="169.391" x2="85.7742" y2="172.854" class="gray" /></g>
<g><line x1="87.7506" y1="174.626" x2="90.9694" y2="174.189" class="gray" /></g>
<g><line x1="94.8679" y1="174.755" x2="98.2021" y2="176.26" class="gray" /></g>
<g><line x1="101.208" y1="178.807" x2="103.192" y2="181.778" class="gray" /></g>
<g><line x1="104.219" y1="185.529" x2="104.031" y2="188.996" class="gray" /></g>
<g><line x1="102.901" y1="192.821" x2="101.289" y2="195.635" class="gray" /></g>
<g><line x1="98.4123" y1="198.278" x2="95.2777" y2="199.737" class="gray" /></g>
<g><line x1="91.3866" y1="200.348" x2="87.5434" y2="199.867" class="gray" /></g>
<g><line x1="85.5669" y1="201.661" x2="85.6631" y2="205.124" class="gray" /></g>
<g><line x1="85.7742" y1="209.221" x2="85.8658" y2="212.684" class="gray" /></g>
<g><line x1="85.809" y1="216.779" x2="85.621" y2="220.246" class="gray" /></g>
<g><line x1="85.51" y1="224.342" x2="85.51" y2="227.803" class="gray" /></g>
<g><line x1="87.0115" y1="231.247" x2="89.5492" y2="233.604" class="gray" /></g>
<g><line x1="93.0999" y1="234.999" x2="96.5634" y2="234.999" class="gray" /></g>
<g><line x1="100.662" y1="234.999" x2="104.125" y2="234.999" class="gray" /></g>
</svg>
