<svg
	xmlns="http://www.w3.org/2000/svg"
	width="228.44"
	height="242.046">
<g><style type="text/css" >
<!-- create color definitions -->
<![CDATA[
circle.red {stroke: rgb(255, 0, 255); fill: none; }
circle.green {stroke: rgb(0, 255, 0); fill: none; }
circle.blue {stroke: rgb(0, 0, 255); fill: none; }
circle.black {stroke: rgb(0, 0, 0); fill: none; }
circle.gray {stroke: rgb(204, 204, 204); fill: none; }
circle.brown {stroke: rgb(211.65, 104.55, 30.6); fill: none; }
line.red {stroke: rgb(255, 0, 255); stroke-width: 0.383471; }
line.green {stroke: rgb(0, 255, 0); stroke-width: 0.383471; }
line.blue {stroke: rgb(0, 0, 255); stroke-width: 0.383471; }
line.black {stroke: rgb(0, 0, 0); stroke-width: 0.383471; }
line.gray {stroke: rgb(204, 204, 204); stroke-width: 0.383471; }
line.brown {stroke: rgb(211.65, 104.55, 30.6); stroke-width: 0.383471; }
line {stroke: rgb(0, 0, 0); }
text.red {fill: rgb(255, 0, 255); font-size: 3.067768px; font-weight: bold; font-family: Helvetica; }
text.green {fill: rgb(0, 255, 0); font-size: 3.067768px; font-weight: bold; font-family: Helvetica; }
text.blue {fill: rgb(0, 0, 255); font-size: 3.067768px; font-weight: bold; font-family: Helvetica; }
text.black {fill: rgb(0, 0, 0); font-size: 3.067768px; font-weight: bold; font-family: Helvetica; }
text.gray {fill: rgb(204, 204, 204); font-size: 3.067768px; font-weight: bold; font-family: Helvetica; }
text.brown {fill: rgb(211.65, 104.55, 30.6); font-size: 3.067768px; font-weight: bold; font-family: Helvetica; }
text {fill: rgb(0, 0, 0); font-size: 3.067768px; font-weight: bold; font-family: Helvetica; text-anchor: middle; alignment-baseline: middle; }

.pseudoknot_connection{stroke-linecap: round; stroke-opacity: 0.2; stroke-width: 1.5; }
.pseudoknot_segment1{stroke-linecap: round; stroke-opacity: 0.4; stroke-width: 3.06777; }
.pseudoknot_segment2{stroke-linecap: round; stroke-opacity: 0.4; stroke-width: 3.06777; }
line.numbering-line{stroke: rgb(204, 204, 204); stroke-width: 0.191736; }
line.predicted{stroke: rgb(0, 0, 0); stroke-dasharray: 2; }
polyline{fill: none; stroke-linejoin: round; }
template{visibility: hidden; }
text.numbering-label{fill: rgb(204, 204, 204); }
]]>
</style></g>
<g><title>0 (position.label in template: 0.5')</title><text x="111.63" y="194.144" class="green" >5'</text></g>
<g><title>1 (position.label in template: 1.G)</title><text x="112.05" y="186.59" class="black" >G</text></g>
<g><line x1="114.095" y1="186.283" x2="122.455" y2="186.283" class="black" /></g>
<g><title>2 (position.label in template: 2.A)</title><text x="112.47" y="179.03" class="black" >A</text></g>
<g><line x1="114.515" y1="178.723" x2="122.665" y2="178.723" class="black" /></g>
<g><title>3 (position.label in template: 3.G)</title><text x="112.05" y="171.47" class="green" >G</text></g>
<g><line x1="114.095" y1="171.163" x2="122.455" y2="171.163" class="black" /></g>
<g><title>4 (position.label in template: 4.G)</title><text x="112.05" y="163.91" class="black" >G</text></g>
<g><line x1="114.095" y1="163.603" x2="122.455" y2="163.603" class="black" /></g>
<g><title>5 (position.label in template: 5.G)</title><text x="112.05" y="156.35" class="black" >G</text></g>
<g><line x1="114.095" y1="156.043" x2="122.455" y2="156.043" class="black" /></g>
<g><title>6 (position.label in template: 6.U)</title><text x="112.26" y="148.79" class="green" >T</text></g>
<g><line x1="114.305" y1="148.483" x2="122.665" y2="148.483" class="black" /></g>
<g><title>7 (position.label in template: 7.A)</title><text x="112.47" y="141.23" class="green" >A</text></g>
<g><line x1="114.515" y1="140.923" x2="122.455" y2="140.923" class="black" /></g>
<g><title>8 (position.label in template: 8.U)</title><text x="105.44" y="137.97" class="green" >T</text></g>
<g><title>9 (position.label in template: 9.A)</title><text x="100.3" y="132.62" class="black" >A</text></g>
<g><title>10 (position.label in template: 10.G)</title><text x="96.62" y="125.8" class="black" >G</text></g>
<g><line x1="96.6551" y1="123.448" x2="96.7949" y2="115.298" class="black" /></g>
<g><text x="92.99" y="131.671" class="numbering-label sequential" >10</text></g>
<g><line x1="95.652" y1="127.366" x2="93.9384" y2="130.137" class="numbering-line sequential" /></g>
<g><title>11 (position.label in template: 11.C)</title><text x="89.27" y="125.8" class="black" >C</text></g>
<g><line x1="89.2349" y1="123.448" x2="89.0951" y2="115.298" class="black" /></g>
<g><title>12 (position.label in template: 12.U)</title><text x="81.71" y="125.8" class="green" >T</text></g>
<g><line x1="81.7451" y1="123.448" x2="81.8849" y2="115.298" class="black" /></g>
<g><title>13 (position.label in template: 13.C)</title><text x="74.15" y="125.8" class="black" >C</text></g>
<g><line x1="74.1149" y1="123.448" x2="73.9751" y2="115.298" class="black" /></g>
<g><title>14 (position.label in template: 14.A)</title><text x="69.02" y="131.16" class="black" >A</text></g>
<g><title>15 (position.label in template: 15.A)</title><text x="61.6" y="132.64" class="black" >A</text></g>
<g><title>16 (position.label in template: 16.G)</title><text x="54.2" y="129.75" class="black" >G</text></g>
<g><title>17 (position.label in template: 17.U)</title><text x="50.21" y="123.46" class="green" >T</text></g>
<g><title>18 (position.label in template: 18.G)</title><text x="50" y="115.9" class="black" >G</text></g>
<g><title>19 (position.label in template: 19.G)</title><text x="54.2" y="109.62" class="black" >G</text></g>
<g><title>20 (position.label in template: 20.U)</title><text x="61.4" y="106.73" class="green" >T</text></g>
<g><text x="60.7462" y="99.8586" class="numbering-label sequential" >20</text></g>
<g><line x1="61.2257" y1="104.898" x2="60.8922" y2="101.392" class="numbering-line sequential" /></g>
<g><title>21 (position.label in template: 21.A)</title><text x="69.02" y="108.21" class="black" >A</text></g>
<g><title>22 (position.label in template: 22.G)</title><text x="73.94" y="113.56" class="black" >G</text></g>
<g><title>23 (position.label in template: 23.A)</title><text x="81.92" y="113.56" class="green" >A</text></g>
<g><title>24 (position.label in template: 24.G)</title><text x="89.06" y="113.56" class="black" >G</text></g>
<g><title>25 (position.label in template: 25.C)</title><text x="96.83" y="113.56" class="black" >C</text></g>
<g><title>26 (position.label in template: 26.A)</title><text x="100.3" y="106.75" class="black" >A</text></g>
<g><title>27 (position.label in template: 27.C)</title><text x="105.44" y="101.4" class="black" >C</text></g>
<g><line x1="107.373" y1="100.424" x2="115.257" y2="97.6926" class="black" /></g>
<g><title>28 (position.label in template: 28.A)</title><text x="103.13" y="94.27" class="black" >A</text></g>
<g><line x1="105.055" y1="93.2723" x2="112.545" y2="90.5841" class="black" /></g>
<g><title>29 (position.label in template: 29.U)</title><text x="100.41" y="87.14" class="green" >T</text></g>
<g><line x1="102.343" y1="86.1638" x2="110.227" y2="83.4326" class="black" /></g>
<g><title>30 (position.label in template: 30.G)</title><text x="97.69" y="80.01" class="black" >G</text></g>
<g><line x1="99.6225" y1="79.0338" x2="107.507" y2="76.3026" class="black" /></g>
<g><text x="91.1806" y="82.3061" class="numbering-label sequential" >30</text></g>
<g><line x1="95.9542" y1="80.6223" x2="93.0213" y2="81.6568" class="numbering-line sequential" /></g>
<g><title>31 (position.label in template: 31.U)</title><text x="95.38" y="72.88" class="green" >T</text></g>
<g><line x1="97.3048" y1="71.8818" x2="104.785" y2="69.1946" class="black" /></g>
<g><title>32 (position.label in template: 32.U)</title><text x="88.85" y="69.07" class="green" >T</text></g>
<g><title>33 (position.label in template: 33.U)</title><text x="85.96" y="62.08" class="green" >T</text></g>
<g><title>34 (position.label in template: 34.A)</title><text x="88.09" y="54.77" class="black" >A</text></g>
<g><title>35 (position.label in template: 35.A)</title><text x="94.04" y="50.11" class="black" >A</text></g>
<g><title>36 (position.label in template: 36.U)</title><text x="101.4" y="50" class="green" >T</text></g>
<g><title>37 (position.label in template: 37.A)</title><text x="107.69" y="54.49" class="black" >A</text></g>
<g><title>38 (position.label in template: 38.U)</title><text x="109.61" y="61.75" class="green" >T</text></g>
<g><title>39 (position.label in template: 39.G)</title><text x="106.71" y="68.81" class="green" >G</text></g>
<g><title>40 (position.label in template: 40.C)</title><text x="109.44" y="75.94" class="black" >C</text></g>
<g><title>41 (position.label in template: 41.A)</title><text x="112.16" y="83.07" class="green" >A</text></g>
<g><title>42 (position.label in template: 42.C)</title><text x="114.47" y="90.2" class="black" >C</text></g>
<g><title>43 (position.label in template: 43.A)</title><text x="117.19" y="97.33" class="black" >A</text></g>
<g><title>44 (position.label in template: 44.G)</title><text x="124.29" y="98.14" class="black" >G</text></g>
<g><title>45 (position.label in template: 45.G)</title><text x="131.11" y="101.4" class="black" >G</text></g>
<g><title>46 (position.label in template: 46.G)</title><text x="136.45" y="106.75" class="black" >G</text></g>
<g><title>47 (position.label in template: 47.U)</title><text x="139.93" y="113.56" class="green" >T</text></g>
<g><title>48 (position.label in template: 48.C)</title><text x="140.74" y="121.08" class="black" >C</text></g>
<g><title>49 (position.label in template: 49.C)</title><text x="139" y="128.44" class="black" >C</text></g>
<g><line x1="137.696" y1="129.709" x2="132.414" y2="136.088" class="black" /></g>
<g><title>50 (position.label in template: 50.U)</title><text x="144.89" y="133.18" class="green" >T</text></g>
<g><line x1="143.627" y1="134.482" x2="138.673" y2="140.794" class="black" /></g>
<g><text x="149.27" y="127.845" class="numbering-label sequential" >50</text></g>
<g><line x1="146.058" y1="131.757" x2="148.01" y2="129.379" class="numbering-line sequential" /></g>
<g><title>51 (position.label in template: 51.G)</title><text x="150.56" y="137.93" class="black" >G</text></g>
<g><line x1="149.298" y1="139.233" x2="144.352" y2="145.544" class="black" /></g>
<g><title>52 (position.label in template: 52.G)</title><text x="156.45" y="142.67" class="green" >G</text></g>
<g><line x1="155.188" y1="143.973" x2="150.242" y2="150.284" class="black" /></g>
<g><title>53 (position.label in template: 53.G)</title><text x="162.34" y="147.41" class="black" >G</text></g>
<g><line x1="161.078" y1="148.713" x2="156.132" y2="155.024" class="black" /></g>
<g><title>54 (position.label in template: 54.U)</title><text x="170.1" y="147.22" class="green" >T</text></g>
<g><title>55 (position.label in template: 55.U)</title><text x="176.24" y="151.65" class="green" >T</text></g>
<g><title>56 (position.label in template: 56.C)</title><text x="178.44" y="158.88" class="black" >C</text></g>
<g><title>57 (position.label in template: 57.A)</title><text x="176.03" y="165.97" class="black" >A</text></g>
<g><title>58 (position.label in template: 58.A)</title><text x="169.66" y="170.04" class="black" >A</text></g>
<g><title>59 (position.label in template: 59.U)</title><text x="161.92" y="169.42" class="green" >T</text></g>
<g><title>60 (position.label in template: 60.C)</title><text x="156.29" y="164.37" class="black" >C</text></g>
<g><title>61 (position.label in template: 61.C)</title><text x="154.87" y="156.94" class="black" >C</text></g>
<g><title>62 (position.label in template: 62.U)</title><text x="148.98" y="152.2" class="green" >T</text></g>
<g><title>63 (position.label in template: 63.C)</title><text x="143.09" y="147.46" class="black" >C</text></g>
<g><title>64 (position.label in template: 64.A)</title><text x="137.41" y="142.71" class="green" >A</text></g>
<g><title>65 (position.label in template: 65.G)</title><text x="131.11" y="137.97" class="black" >G</text></g>
<g><title>66 (position.label in template: 66.U)</title><text x="124.5" y="141.23" class="green" >T</text></g>
<g><title>67 (position.label in template: 67.A)</title><text x="124.71" y="148.79" class="green" >A</text></g>
<g><title>68 (position.label in template: 68.C)</title><text x="124.5" y="156.35" class="black" >C</text></g>
<g><title>69 (position.label in template: 69.C)</title><text x="124.5" y="163.91" class="black" >C</text></g>
<g><title>70 (position.label in template: 70.U)</title><text x="124.5" y="171.47" class="green" >T</text></g>
<g><title>71 (position.label in template: 71.A)</title><text x="124.71" y="179.03" class="black" >A</text></g>
<g><title>72 (position.label in template: 72.C)</title><text x="124.5" y="186.59" class="black" >C</text></g>
<g><title>73 (position.label in template: 73.G)</title><text x="129.741" y="192.046" class="black" >G</text></g>
<g><title>74 (position.label in template: 74.3')</title><text x="124.504" y="197.505" class="green" >3'</text></g>
<g><line x1="111.744" y1="191.795" x2="111.937" y2="188.325" class="gray" /></g>
<g><line x1="112.163" y1="184.241" x2="112.357" y2="180.765" class="gray" /></g>
<g><line x1="112.357" y1="176.681" x2="112.163" y2="173.205" class="gray" /></g>
<g><line x1="112.05" y1="169.118" x2="112.05" y2="165.648" class="gray" /></g>
<g><line x1="112.05" y1="161.558" x2="112.05" y2="158.088" class="gray" /></g>
<g><line x1="112.107" y1="153.999" x2="112.203" y2="150.528" class="gray" /></g>
<g><line x1="112.317" y1="146.439" x2="112.413" y2="142.968" class="gray" /></g>
<g><line x1="110.615" y1="140.063" x2="107.295" y2="138.524" class="gray" /></g>
<g><line x1="104.023" y1="136.188" x2="101.717" y2="133.788" class="gray" /></g>
<g><line x1="99.3288" y1="130.513" x2="97.5912" y2="127.293" class="gray" /></g>
<g><line x1="94.5748" y1="125.493" x2="91.3152" y2="125.493" class="gray" /></g>
<g><line x1="87.2248" y1="125.493" x2="83.7552" y2="125.493" class="gray" /></g>
<g><line x1="79.6648" y1="125.493" x2="76.1952" y2="125.493" class="gray" /></g>
<g><line x1="72.7359" y1="126.971" x2="70.4341" y2="129.376" class="gray" /></g>
<g><line x1="67.0143" y1="131.253" x2="63.6057" y2="131.933" class="gray" /></g>
<g><line x1="59.6949" y1="131.589" x2="56.1051" y2="130.187" class="gray" /></g>
<g><line x1="53.1045" y1="127.716" x2="51.3055" y2="124.88" class="gray" /></g>
<g><line x1="50.1532" y1="121.109" x2="50.0568" y2="117.638" class="gray" /></g>
<g><line x1="51.137" y1="113.893" x2="53.063" y2="111.013" class="gray" /></g>
<g><line x1="56.098" y1="108.551" x2="59.502" y2="107.185" class="gray" /></g>
<g><line x1="63.4077" y1="106.813" x2="67.0123" y2="107.513" class="gray" /></g>
<g><line x1="70.4044" y1="109.409" x2="72.5556" y2="111.748" class="gray" /></g>
<g><line x1="75.9852" y1="113.253" x2="79.8748" y2="113.253" class="gray" /></g>
<g><line x1="83.9652" y1="113.253" x2="87.0148" y2="113.253" class="gray" /></g>
<g><line x1="91.1052" y1="113.253" x2="94.7848" y2="113.253" class="gray" /></g>
<g><line x1="97.7585" y1="111.431" x2="99.3715" y2="108.265" class="gray" /></g>
<g><line x1="101.717" y1="104.968" x2="104.023" y2="102.568" class="gray" /></g>
<g><line x1="104.81" y1="99.1476" x2="103.76" y2="95.9088" class="gray" /></g>
<g><line x1="102.401" y1="92.0524" x2="101.139" y2="88.7441" class="gray" /></g>
<g><line x1="99.681" y1="84.9224" x2="98.419" y2="81.6141" class="gray" /></g>
<g><line x1="97.0597" y1="77.7576" x2="96.0103" y2="74.5188" class="gray" /></g>
<g><line x1="93.6135" y1="71.5425" x2="90.6165" y2="69.7939" class="gray" /></g>
<g><line x1="88.0686" y1="66.8732" x2="86.7414" y2="63.6632" class="gray" /></g>
<g><line x1="86.5321" y1="59.8097" x2="87.5179" y2="56.4267" class="gray" /></g>
<g><line x1="89.7001" y1="53.2022" x2="92.4299" y2="51.0643" class="gray" /></g>
<g><line x1="96.085" y1="49.7727" x2="99.355" y2="49.7238" class="gray" /></g>
<g><line x1="103.065" y1="50.8815" x2="106.025" y2="52.995" class="gray" /></g>
<g><line x1="108.213" y1="56.1604" x2="109.087" y2="59.466" class="gray" /></g>
<g><line x1="108.833" y1="63.335" x2="107.487" y2="66.6114" class="gray" /></g>
<g><line x1="107.441" y1="70.4132" x2="108.709" y2="73.7233" class="gray" /></g>
<g><line x1="110.169" y1="77.5441" x2="111.431" y2="80.8524" class="gray" /></g>
<g><line x1="112.79" y1="84.7088" x2="113.84" y2="87.9476" class="gray" /></g>
<g><line x1="115.199" y1="91.8041" x2="116.461" y2="95.1124" class="gray" /></g>
<g><line x1="119.222" y1="97.255" x2="122.258" y2="97.6014" class="gray" /></g>
<g><line x1="126.135" y1="98.7152" x2="129.265" y2="100.211" class="gray" /></g>
<g><line x1="132.555" y1="102.541" x2="135.005" y2="104.996" class="gray" /></g>
<g><line x1="137.381" y1="108.264" x2="138.999" y2="111.432" class="gray" /></g>
<g><line x1="140.149" y1="115.287" x2="140.521" y2="118.74" class="gray" /></g>
<g><line x1="140.269" y1="122.764" x2="139.471" y2="126.143" class="gray" /></g>
<g><line x1="140.593" y1="129.415" x2="143.297" y2="131.591" class="gray" /></g>
<g><line x1="146.458" y1="134.187" x2="148.992" y2="136.31" class="gray" /></g>
<g><line x1="152.153" y1="138.905" x2="154.857" y2="141.081" class="gray" /></g>
<g><line x1="158.043" y1="143.645" x2="160.747" y2="145.821" class="gray" /></g>
<g><line x1="164.385" y1="147.053" x2="168.055" y2="146.963" class="gray" /></g>
<g><line x1="171.759" y1="148.11" x2="174.581" y2="150.147" class="gray" /></g>
<g><line x1="176.835" y1="153.3" x2="177.845" y2="156.617" class="gray" /></g>
<g><line x1="177.782" y1="160.51" x2="176.688" y2="163.727" class="gray" /></g>
<g><line x1="174.307" y1="166.764" x2="171.383" y2="168.632" class="gray" /></g>
<g><line x1="167.621" y1="169.57" x2="163.959" y2="169.277" class="gray" /></g>
<g><line x1="160.398" y1="167.748" x2="157.812" y2="165.429" class="gray" /></g>
<g><line x1="155.906" y1="162.054" x2="155.254" y2="158.642" class="gray" /></g>
<g><line x1="153.277" y1="155.351" x2="150.573" y2="153.175" class="gray" /></g>
<g><line x1="147.387" y1="150.611" x2="144.683" y2="148.435" class="gray" /></g>
<g><line x1="141.521" y1="145.841" x2="138.979" y2="143.715" class="gray" /></g>
<g><line x1="135.776" y1="141.174" x2="132.744" y2="138.893" class="gray" /></g>
<g><line x1="129.276" y1="138.568" x2="126.334" y2="140.019" class="gray" /></g>
<g><line x1="124.557" y1="142.968" x2="124.653" y2="146.439" class="gray" /></g>
<g><line x1="124.653" y1="150.528" x2="124.557" y2="153.999" class="gray" /></g>
<g><line x1="124.5" y1="158.088" x2="124.5" y2="161.558" class="gray" /></g>
<g><line x1="124.5" y1="165.648" x2="124.5" y2="169.118" class="gray" /></g>
<g><line x1="124.557" y1="173.208" x2="124.653" y2="176.679" class="gray" /></g>
<g><line x1="124.653" y1="180.768" x2="124.557" y2="184.239" class="gray" /></g>
<g><line x1="125.917" y1="187.758" x2="128.325" y2="190.264" class="gray" /></g>
<g><line x1="128.326" y1="193.215" x2="125.92" y2="195.723" class="gray" /></g>
</svg>
