<svg
	xmlns="http://www.w3.org/2000/svg"
	width="277.015"
	height="239.38">
<g><style type="text/css" >
<!-- create color definitions -->
<![CDATA[
circle.red {stroke: rgb(255, 0, 255); fill: none; }
circle.green {stroke: rgb(0, 255, 0); fill: none; }
circle.blue {stroke: rgb(0, 0, 255); fill: none; }
circle.black {stroke: rgb(0, 0, 0); fill: none; }
circle.gray {stroke: rgb(204, 204, 204); fill: none; }
circle.brown {stroke: rgb(211.65, 104.55, 30.6); fill: none; }
line.red {stroke: rgb(255, 0, 255); stroke-width: 0.383258; }
line.green {stroke: rgb(0, 255, 0); stroke-width: 0.383258; }
line.blue {stroke: rgb(0, 0, 255); stroke-width: 0.383258; }
line.black {stroke: rgb(0, 0, 0); stroke-width: 0.383258; }
line.gray {stroke: rgb(204, 204, 204); stroke-width: 0.383258; }
line.brown {stroke: rgb(211.65, 104.55, 30.6); stroke-width: 0.383258; }
line {stroke: rgb(0, 0, 0); }
text.red {fill: rgb(255, 0, 255); font-size: 3.066064px; font-weight: bold; font-family: Helvetica; }
text.green {fill: rgb(0, 255, 0); font-size: 3.066064px; font-weight: bold; font-family: Helvetica; }
text.blue {fill: rgb(0, 0, 255); font-size: 3.066064px; font-weight: bold; font-family: Helvetica; }
text.black {fill: rgb(0, 0, 0); font-size: 3.066064px; font-weight: bold; font-family: Helvetica; }
text.gray {fill: rgb(204, 204, 204); font-size: 3.066064px; font-weight: bold; font-family: Helvetica; }
text.brown {fill: rgb(211.65, 104.55, 30.6); font-size: 3.066064px; font-weight: bold; font-family: Helvetica; }
text {fill: rgb(0, 0, 0); font-size: 3.066064px; font-weight: bold; font-family: Helvetica; text-anchor: middle; alignment-baseline: middle; }

.pseudoknot_connection{stroke-linecap: round; stroke-opacity: 0.2; stroke-width: 1.5; }
.pseudoknot_segment1{stroke-linecap: round; stroke-opacity: 0.4; stroke-width: 3.06606; }
.pseudoknot_segment2{stroke-linecap: round; stroke-opacity: 0.4; stroke-width: 3.06606; }
line.numbering-line{stroke: rgb(204, 204, 204); stroke-width: 0.191629; }
line.predicted{stroke: rgb(0, 0, 0); stroke-dasharray: 2; }
polyline{fill: none; stroke-linejoin: round; }
template{visibility: hidden; }
text.numbering-label{fill: rgb(204, 204, 204); }
]]>
</style></g>
<g><title>0 (position.label in template: 0.5')</title><text x="82.7676" y="156.767" class="green" >5'</text></g>
<g><title>1 (position.label in template: 1.G)</title><text x="90.3416" y="156.767" class="black" >G</text></g>
<g><title>2 (position.label in template: 2.C)</title><text x="97.9156" y="156.767" class="black" >C</text></g>
<g><title>3 (position.label in template: 3.C)</title><text x="105.49" y="156.767" class="black" >C</text></g>
<g><title>4 (position.label in template: 4.C)</title><text x="113.064" y="156.767" class="black" >C</text></g>
<g><title>5 (position.label in template: 5.A)</title><text x="120.638" y="156.767" class="black" >A</text></g>
<g><title>6 (position.label in template: 6.U)</title><text x="125.89" y="151.31" class="green" >T</text></g>
<g><line x1="127.934" y1="151.003" x2="136.296" y2="151.003" class="black" /></g>
<g><title>7 (position.label in template: 7.U)</title><text x="125.89" y="143.75" class="green" >T</text></g>
<g><line x1="127.934" y1="143.443" x2="136.296" y2="143.443" class="black" /></g>
<g><title>8 (position.label in template: 8.C)</title><text x="125.89" y="136.19" class="black" >C</text></g>
<g><line x1="127.934" y1="135.883" x2="135.876" y2="135.883" class="black" /></g>
<g><title>9 (position.label in template: 9.C)</title><text x="125.89" y="128.63" class="black" >C</text></g>
<g><line x1="127.934" y1="128.323" x2="135.876" y2="128.323" class="black" /></g>
<g><title>10 (position.label in template: 10.G)</title><text x="125.68" y="121.07" class="black" >G</text></g>
<g><line x1="127.724" y1="120.763" x2="136.086" y2="120.763" class="black" /></g>
<g><text x="119.54" y="124.215" class="numbering-label sequential" >10</text></g>
<g><line x1="124.043" y1="121.909" x2="121.38" y2="123.273" class="numbering-line sequential" /></g>
<g><title>11 (position.label in template: 11.A)</title><text x="119.84" y="116.82" class="green" >A</text></g>
<g><line x1="119.055" y1="114.626" x2="115.895" y2="107.031" class="black" /></g>
<g><title>12 (position.label in template: 12.G)</title><text x="112.4" y="119.62" class="black" >G</text></g>
<g><line x1="111.676" y1="117.402" x2="108.814" y2="109.845" class="black" /></g>
<g><title>13 (position.label in template: 13.G)</title><text x="105.38" y="122.41" class="black" >G</text></g>
<g><line x1="104.654" y1="120.193" x2="101.786" y2="112.644" class="black" /></g>
<g><title>14 (position.label in template: 14.G)</title><text x="98.35" y="125.21" class="black" >G</text></g>
<g><line x1="97.626" y1="122.992" x2="94.764" y2="115.435" class="black" /></g>
<g><title>15 (position.label in template: 15.G)</title><text x="97.72" y="132.74" class="black" >G</text></g>
<g><title>16 (position.label in template: 16.A)</title><text x="94.96" y="139.6" class="black" >A</text></g>
<g><title>17 (position.label in template: 17.G)</title><text x="89.19" y="144.94" class="black" >G</text></g>
<g><line x1="87.2557" y1="145.294" x2="79.7343" y2="147.863" class="black" /></g>
<g><title>18 (position.label in template: 18.C)</title><text x="91.8" y="152.11" class="black" >C</text></g>
<g><line x1="89.8586" y1="152.443" x2="81.9314" y2="155.054" class="black" /></g>
<g><title>19 (position.label in template: 19.C)</title><text x="94.2" y="159.28" class="black" >C</text></g>
<g><line x1="92.2586" y1="159.613" x2="84.3314" y2="162.224" class="black" /></g>
<g><title>20 (position.label in template: 20.C)</title><text x="96.6" y="166.45" class="black" >C</text></g>
<g><line x1="94.6581" y1="166.781" x2="86.7319" y2="169.385" class="black" /></g>
<g><text x="103.141" y="164.256" class="numbering-label sequential" >20</text></g>
<g><line x1="98.3441" y1="165.865" x2="101.301" y2="164.873" class="numbering-line sequential" /></g>
<g><title>21 (position.label in template: 21.C)</title><text x="99.01" y="173.62" class="black" >C</text></g>
<g><line x1="97.0679" y1="173.951" x2="89.1321" y2="176.556" class="black" /></g>
<g><title>22 (position.label in template: 22.G)</title><text x="103.15" y="179.8" class="black" >G</text></g>
<g><title>23 (position.label in template: 23.U)</title><text x="101.01" y="186.98" class="green" >T</text></g>
<g><title>24 (position.label in template: 24.A)</title><text x="94.05" y="189.38" class="black" >A</text></g>
<g><title>25 (position.label in template: 25.C)</title><text x="87.64" y="185.06" class="black" >C</text></g>
<g><title>26 (position.label in template: 26.G)</title><text x="87.19" y="177.5" class="black" >G</text></g>
<g><title>27 (position.label in template: 27.G)</title><text x="84.79" y="170.33" class="black" >G</text></g>
<g><title>28 (position.label in template: 28.G)</title><text x="82.39" y="163.17" class="black" >G</text></g>
<g><title>29 (position.label in template: 29.G)</title><text x="79.99" y="156" class="black" >G</text></g>
<g><title>30 (position.label in template: 30.C)</title><text x="77.8" y="148.83" class="black" >C</text></g>
<g><text x="73.3346" y="154.088" class="numbering-label sequential" >30</text></g>
<g><line x1="76.6092" y1="150.232" x2="74.6364" y2="152.555" class="numbering-line sequential" /></g>
<g><title>31 (position.label in template: 31.U)</title><text x="70.31" y="147.78" class="green" >T</text></g>
<g><title>32 (position.label in template: 32.G)</title><text x="63.43" y="144.22" class="black" >G</text></g>
<g><title>33 (position.label in template: 33.A)</title><text x="58.81" y="138.59" class="black" >A</text></g>
<g><title>34 (position.label in template: 34.G)</title><text x="55.6" y="131.56" class="black" >G</text></g>
<g><title>35 (position.label in template: 35.A)</title><text x="55.8" y="124.01" class="black" >A</text></g>
<g><title>36 (position.label in template: 36.A)</title><text x="58.21" y="116.84" class="black" >A</text></g>
<g><title>37 (position.label in template: 37.A)</title><text x="62.93" y="110.93" class="green" >A</text></g>
<g><line x1="64.7781" y1="109.75" x2="71.9819" y2="106.347" class="black" /></g>
<g><title>38 (position.label in template: 38.G)</title><text x="59.33" y="104.07" class="black" >G</text></g>
<g><line x1="61.1912" y1="102.918" x2="68.7888" y2="99.4685" class="black" /></g>
<g><title>39 (position.label in template: 39.C)</title><text x="56.36" y="97.22" class="black" >C</text></g>
<g><line x1="58.2078" y1="96.0395" x2="65.4022" y2="92.6373" class="black" /></g>
<g><title>40 (position.label in template: 40.G)</title><text x="52.97" y="90.36" class="black" >G</text></g>
<g><line x1="54.8361" y1="89.2192" x2="62.6239" y2="85.7376" class="black" /></g>
<g><title>41 (position.label in template: 41.U)</title><text x="50" y="83.5" class="green" >T</text></g>
<g><line x1="51.8478" y1="82.3195" x2="59.0422" y2="78.9173" class="black" /></g>
<g><title>42 (position.label in template: 42.C)</title><text x="51.73" y="76.14" class="black" >C</text></g>
<g><title>43 (position.label in template: 43.G)</title><text x="60.89" y="78.35" class="green" >G</text></g>
<g><title>44 (position.label in template: 44.A)</title><text x="64.49" y="85.21" class="black" >A</text></g>
<g><title>45 (position.label in template: 45.G)</title><text x="67.25" y="92.07" class="black" >G</text></g>
<g><title>46 (position.label in template: 46.C)</title><text x="70.65" y="98.93" class="black" >C</text></g>
<g><title>47 (position.label in template: 47.U)</title><text x="73.83" y="105.78" class="green" >T</text></g>
<g><title>48 (position.label in template: 48.G)</title><text x="81.17" y="106" class="black" >G</text></g>
<g><title>49 (position.label in template: 49.A)</title><text x="88.61" y="108.79" class="black" >A</text></g>
<g><title>50 (position.label in template: 50.C)</title><text x="94.04" y="113.83" class="black" >C</text></g>
<g><text x="95.2669" y="107.041" class="numbering-label sequential" >50</text></g>
<g><line x1="94.3672" y1="112.02" x2="94.9898" y2="108.574" class="numbering-line sequential" /></g>
<g><title>51 (position.label in template: 51.C)</title><text x="101.06" y="111.04" class="black" >C</text></g>
<g><title>52 (position.label in template: 52.C)</title><text x="108.09" y="108.24" class="black" >C</text></g>
<g><title>53 (position.label in template: 53.U)</title><text x="115.11" y="105.45" class="green" >T</text></g>
<g><title>54 (position.label in template: 54.U)</title><text x="116.74" y="98.07" class="green" >T</text></g>
<g><title>55 (position.label in template: 55.G)</title><text x="121.22" y="92.14" class="black" >G</text></g>
<g><title>56 (position.label in template: 56.C)</title><text x="128.23" y="88.84" class="black" >C</text></g>
<g><title>57 (position.label in template: 57.A)</title><text x="136" y="88.84" class="black" >A</text></g>
<g><title>58 (position.label in template: 58.C)</title><text x="142.6" y="92.14" class="black" >C</text></g>
<g><line x1="143.595" y1="93.6187" x2="147.515" y2="100.648" class="black" /></g>
<g><title>59 (position.label in template: 59.C)</title><text x="149.14" y="88.36" class="black" >C</text></g>
<g><line x1="150.137" y1="89.838" x2="154.063" y2="96.8688" class="black" /></g>
<g><title>60 (position.label in template: 60.U)</title><text x="155.69" y="84.58" class="green" >T</text></g>
<g><line x1="156.738" y1="86.0283" x2="160.972" y2="93.1185" class="black" /></g>
<g><title>61 (position.label in template: 61.G)</title><text x="162.03" y="80.8" class="green" >G</text></g>
<g><line x1="163.078" y1="82.2483" x2="167.312" y2="89.3385" class="black" /></g>
<g><title>62 (position.label in template: 62.A)</title><text x="165.22" y="73.76" class="black" >A</text></g>
<g><title>63 (position.label in template: 63.U)</title><text x="171.56" y="69.98" class="green" >T</text></g>
<g><title>64 (position.label in template: 64.C)</title><text x="179.03" y="71.1" class="black" >C</text></g>
<g><line x1="180.025" y1="72.5787" x2="183.945" y2="79.6081" class="black" /></g>
<g><title>65 (position.label in template: 65.C)</title><text x="185.58" y="67.32" class="black" >C</text></g>
<g><line x1="186.575" y1="68.7987" x2="190.495" y2="75.8281" class="black" /></g>
<g><title>66 (position.label in template: 66.G)</title><text x="191.92" y="63.54" class="black" >G</text></g>
<g><line x1="192.968" y1="64.9883" x2="197.202" y2="72.0785" class="black" /></g>
<g><title>67 (position.label in template: 67.G)</title><text x="198.47" y="59.76" class="black" >G</text></g>
<g><line x1="199.518" y1="61.2083" x2="203.752" y2="68.2985" class="black" /></g>
<g><title>68 (position.label in template: 68.G)</title><text x="201.74" y="52.95" class="black" >G</text></g>
<g><title>69 (position.label in template: 69.U)</title><text x="208.92" y="50" class="green" >T</text></g>
<g><title>70 (position.label in template: 70.C)</title><text x="216.08" y="52.41" class="black" >C</text></g>
<g><title>71 (position.label in template: 71.A)</title><text x="220.07" y="58.96" class="black" >A</text></g>
<g><title>72 (position.label in template: 72.U)</title><text x="218.36" y="66.37" class="green" >T</text></g>
<g><title>73 (position.label in template: 73.G)</title><text x="212.12" y="70.93" class="black" >G</text></g>
<g><title>74 (position.label in template: 74.C)</title><text x="204.8" y="70.36" class="black" >C</text></g>
<g><title>75 (position.label in template: 75.C)</title><text x="198.25" y="74.14" class="black" >C</text></g>
<g><title>76 (position.label in template: 76.G)</title><text x="191.49" y="77.92" class="black" >G</text></g>
<g><title>77 (position.label in template: 77.G)</title><text x="184.94" y="81.7" class="black" >G</text></g>
<g><title>78 (position.label in template: 78.C)</title><text x="182.38" y="88.73" class="black" >C</text></g>
<g><title>79 (position.label in template: 79.G)</title><text x="175.63" y="92.51" class="black" >G</text></g>
<g><title>80 (position.label in template: 80.U)</title><text x="168.36" y="91.4" class="green" >T</text></g>
<g><title>81 (position.label in template: 81.A)</title><text x="162.02" y="95.18" class="green" >A</text></g>
<g><title>82 (position.label in template: 82.G)</title><text x="155.06" y="98.96" class="black" >G</text></g>
<g><title>83 (position.label in template: 83.G)</title><text x="148.51" y="102.74" class="black" >G</text></g>
<g><title>84 (position.label in template: 84.A)</title><text x="148.38" y="110.28" class="black" >A</text></g>
<g><title>85 (position.label in template: 85.A)</title><text x="144.6" y="116.82" class="black" >A</text></g>
<g><title>86 (position.label in template: 86.C)</title><text x="138.13" y="121.07" class="black" >C</text></g>
<g><title>87 (position.label in template: 87.G)</title><text x="137.92" y="128.63" class="black" >G</text></g>
<g><title>88 (position.label in template: 88.G)</title><text x="137.92" y="136.19" class="black" >G</text></g>
<g><title>89 (position.label in template: 89.A)</title><text x="138.34" y="143.75" class="green" >A</text></g>
<g><title>90 (position.label in template: 90.A)</title><text x="138.34" y="151.31" class="green" >A</text></g>
<g><title>91 (position.label in template: 91.A)</title><text x="143.701" y="156.661" class="black" >A</text></g>
<g><title>92 (position.label in template: 92.A)</title><text x="151.275" y="156.661" class="black" >A</text></g>
<g><title>93 (position.label in template: 93.C)</title><text x="158.849" y="156.661" class="black" >C</text></g>
<g><title>94 (position.label in template: 94.C)</title><text x="166.423" y="156.661" class="black" >C</text></g>
<g><title>95 (position.label in template: 95.A)</title><text x="173.997" y="156.661" class="black" >A</text></g>
<g><title>96 (position.label in template: 96.C)</title><text x="181.571" y="156.661" class="black" >C</text></g>
<g><title>97 (position.label in template: 97.A)</title><text x="189.145" y="156.661" class="black" >A</text></g>
<g><title>98 (position.label in template: 98.U)</title><text x="196.719" y="156.661" class="green" >T</text></g>
<g><title>99 (position.label in template: 99.G)</title><text x="204.293" y="156.661" class="black" >G</text></g>
<g><title>100 (position.label in template: 100.C)</title><text x="211.867" y="156.661" class="black" >C</text></g>
<g><text x="211.867" y="163.559" class="numbering-label sequential" >100</text></g>
<g><line x1="211.867" y1="158.5" x2="211.867" y2="162.026" class="numbering-line sequential" /></g>
<g><title>101 (position.label in template: 101.A)</title><text x="219.441" y="156.661" class="black" >A</text></g>
<g><title>102 (position.label in template: 102.G)</title><text x="227.015" y="156.661" class="black" >G</text></g>
<g><title>103 (position.label in template: 103.3')</title><text x="234.589" y="156.661" class="green" >3'</text></g>
<g><line x1="84.8116" y1="156.46" x2="88.2975" y2="156.46" class="gray" /></g>
<g><line x1="92.3856" y1="156.46" x2="95.8715" y2="156.46" class="gray" /></g>
<g><line x1="99.9596" y1="156.46" x2="103.446" y2="156.46" class="gray" /></g>
<g><line x1="107.534" y1="156.46" x2="111.02" y2="156.46" class="gray" /></g>
<g><line x1="115.108" y1="156.46" x2="118.593" y2="156.46" class="gray" /></g>
<g><line x1="122.055" y1="154.988" x2="124.472" y2="152.476" class="gray" /></g>
<g><line x1="125.89" y1="148.959" x2="125.89" y2="145.487" class="gray" /></g>
<g><line x1="125.89" y1="141.399" x2="125.89" y2="137.927" class="gray" /></g>
<g><line x1="125.89" y1="133.839" x2="125.89" y2="130.367" class="gray" /></g>
<g><line x1="125.833" y1="126.28" x2="125.737" y2="122.807" class="gray" /></g>
<g><line x1="124.027" y1="119.561" x2="121.493" y2="117.716" class="gray" /></g>
<g><line x1="117.927" y1="117.233" x2="114.313" y2="118.593" class="gray" /></g>
<g><line x1="110.5" y1="120.068" x2="107.28" y2="121.348" class="gray" /></g>
<g><line x1="103.481" y1="122.86" x2="100.249" y2="124.147" class="gray" /></g>
<g><line x1="98.1796" y1="126.94" x2="97.8904" y2="130.396" class="gray" /></g>
<g><line x1="96.9571" y1="134.33" x2="95.7229" y2="137.397" class="gray" /></g>
<g><line x1="93.4598" y1="140.682" x2="90.6902" y2="143.245" class="gray" /></g>
<g><line x1="89.8892" y1="146.554" x2="91.1008" y2="149.883" class="gray" /></g>
<g><line x1="92.4488" y1="153.742" x2="93.5512" y2="157.035" class="gray" /></g>
<g><line x1="94.8488" y1="160.912" x2="95.9512" y2="164.205" class="gray" /></g>
<g><line x1="97.2512" y1="168.081" x2="98.3588" y2="171.376" class="gray" /></g>
<g><line x1="100.148" y1="175.012" x2="102.012" y2="177.795" class="gray" /></g>
<g><line x1="102.566" y1="181.452" x2="101.594" y2="184.715" class="gray" /></g>
<g><line x1="99.0776" y1="187.34" x2="95.9824" y2="188.407" class="gray" /></g>
<g><line x1="92.355" y1="187.931" x2="89.335" y2="185.896" class="gray" /></g>
<g><line x1="87.5185" y1="182.713" x2="87.3115" y2="179.234" class="gray" /></g>
<g><line x1="86.5412" y1="175.255" x2="85.4388" y2="171.962" class="gray" /></g>
<g><line x1="84.1404" y1="168.085" x2="83.0396" y2="164.801" class="gray" /></g>
<g><line x1="81.7412" y1="160.925" x2="80.6388" y2="157.632" class="gray" /></g>
<g><line x1="79.3929" y1="153.739" x2="78.3971" y2="150.478" class="gray" /></g>
<g><line x1="75.7758" y1="148.24" x2="72.3342" y2="147.757" class="gray" /></g>
<g><line x1="68.4946" y1="146.534" x2="65.2454" y2="144.853" class="gray" /></g>
<g><line x1="62.1333" y1="142.333" x2="60.1067" y2="139.864" class="gray" /></g>
<g><line x1="57.961" y1="136.424" x2="56.449" y2="133.113" class="gray" /></g>
<g><line x1="55.6541" y1="129.21" x2="55.7459" y2="125.747" class="gray" /></g>
<g><line x1="56.4512" y1="121.766" x2="57.5588" y2="118.471" class="gray" /></g>
<g><line x1="59.4856" y1="114.936" x2="61.6544" y2="112.221" class="gray" /></g>
<g><line x1="61.9802" y1="108.813" x2="60.2798" y2="105.573" class="gray" /></g>
<g><line x1="58.5169" y1="101.888" x2="57.1731" y2="98.7887" class="gray" /></g>
<g><line x1="55.4544" y1="95.0809" x2="53.8756" y2="91.8859" class="gray" /></g>
<g><line x1="52.1579" y1="88.1776" x2="50.8121" y2="85.0692" class="gray" /></g>
<g><line x1="50.4677" y1="81.2036" x2="51.2623" y2="77.8232" class="gray" /></g>
<g><line x1="53.717" y1="76.3128" x2="58.903" y2="77.564" class="gray" /></g>
<g><line x1="61.8398" y1="79.8533" x2="63.5402" y2="83.0934" class="gray" /></g>
<g><line x1="65.2529" y1="86.7997" x2="66.4871" y2="89.8671" class="gray" /></g>
<g><line x1="68.1577" y1="93.5948" x2="69.7423" y2="96.792" class="gray" /></g>
<g><line x1="71.5107" y1="100.477" x2="72.9693" y2="103.619" class="gray" /></g>
<g><line x1="75.8731" y1="105.535" x2="79.1269" y2="105.632" class="gray" /></g>
<g><line x1="83.0839" y1="106.411" x2="86.6961" y2="107.766" class="gray" /></g>
<g><line x1="90.1082" y1="109.874" x2="92.5418" y2="112.133" class="gray" /></g>
<g><line x1="95.9395" y1="112.768" x2="99.1605" y2="111.488" class="gray" /></g>
<g><line x1="102.959" y1="109.977" x2="106.191" y2="108.69" class="gray" /></g>
<g><line x1="109.99" y1="107.178" x2="113.21" y2="105.898" class="gray" /></g>
<g><line x1="115.551" y1="103.147" x2="116.299" y2="99.7593" class="gray" /></g>
<g><line x1="117.972" y1="96.1325" x2="119.988" y2="93.4643" class="gray" /></g>
<g><line x1="123.069" y1="90.9628" x2="126.381" y2="89.404" class="gray" /></g>
<g><line x1="130.274" y1="88.5334" x2="133.956" y2="88.5334" class="gray" /></g>
<g><line x1="137.828" y1="89.4475" x2="140.772" y2="90.9193" class="gray" /></g>
<g><line x1="144.37" y1="90.8105" x2="147.37" y2="89.0763" class="gray" /></g>
<g><line x1="150.91" y1="87.0317" x2="153.92" y2="85.2951" class="gray" /></g>
<g><line x1="157.446" y1="83.2266" x2="160.274" y2="81.5402" class="gray" /></g>
<g><line x1="162.874" y1="78.6316" x2="164.376" y2="75.3152" class="gray" /></g>
<g><line x1="166.976" y1="72.4066" x2="169.804" y2="70.7202" class="gray" /></g>
<g><line x1="173.581" y1="69.9765" x2="177.009" y2="70.4903" class="gray" /></g>
<g><line x1="180.8" y1="69.7717" x2="183.81" y2="68.0351" class="gray" /></g>
<g><line x1="187.336" y1="65.9666" x2="190.164" y2="64.2802" class="gray" /></g>
<g><line x1="193.69" y1="62.2117" x2="196.7" y2="60.4751" class="gray" /></g>
<g><line x1="199.355" y1="57.6108" x2="200.855" y2="54.486" class="gray" /></g>
<g><line x1="203.631" y1="51.8666" x2="207.029" y2="50.4702" class="gray" /></g>
<g><line x1="210.857" y1="50.3455" x2="214.143" y2="51.4513" class="gray" /></g>
<g><line x1="217.143" y1="53.8491" x2="219.007" y2="56.9077" class="gray" /></g>
<g><line x1="219.61" y1="60.6451" x2="218.82" y2="64.0717" class="gray" /></g>
<g><line x1="216.71" y1="67.2694" x2="213.77" y2="69.4174" class="gray" /></g>
<g><line x1="210.082" y1="70.4647" x2="206.838" y2="70.2121" class="gray" /></g>
<g><line x1="203.03" y1="71.0751" x2="200.02" y2="72.8117" class="gray" /></g>
<g><line x1="196.466" y1="74.831" x2="193.274" y2="76.6158" class="gray" /></g>
<g><line x1="189.72" y1="78.6351" x2="186.71" y2="80.3717" class="gray" /></g>
<g><line x1="184.241" y1="83.3141" x2="183.079" y2="86.5027" class="gray" /></g>
<g><line x1="180.597" y1="89.4221" x2="177.413" y2="91.2047" class="gray" /></g>
<g><line x1="173.609" y1="91.8949" x2="170.381" y2="91.4019" class="gray" /></g>
<g><line x1="166.604" y1="92.1402" x2="163.776" y2="93.8266" class="gray" /></g>
<g><line x1="160.224" y1="95.8489" x2="156.856" y2="97.6779" class="gray" /></g>
<g><line x1="153.29" y1="99.6751" x2="150.28" y2="101.412" class="gray" /></g>
<g><line x1="148.475" y1="104.477" x2="148.415" y2="107.93" class="gray" /></g>
<g><line x1="147.357" y1="111.743" x2="145.623" y2="114.744" class="gray" /></g>
<g><line x1="142.892" y1="117.636" x2="139.838" y2="119.641" class="gray" /></g>
<g><line x1="138.073" y1="122.807" x2="137.977" y2="126.28" class="gray" /></g>
<g><line x1="137.92" y1="130.367" x2="137.92" y2="133.839" class="gray" /></g>
<g><line x1="138.033" y1="137.924" x2="138.227" y2="141.402" class="gray" /></g>
<g><line x1="138.34" y1="145.487" x2="138.34" y2="148.959" class="gray" /></g>
<g><line x1="139.787" y1="152.447" x2="142.254" y2="154.91" class="gray" /></g>
<g><line x1="145.745" y1="156.354" x2="149.231" y2="156.354" class="gray" /></g>
<g><line x1="153.319" y1="156.354" x2="156.805" y2="156.354" class="gray" /></g>
<g><line x1="160.893" y1="156.354" x2="164.379" y2="156.354" class="gray" /></g>
<g><line x1="168.467" y1="156.354" x2="171.953" y2="156.354" class="gray" /></g>
<g><line x1="176.041" y1="156.354" x2="179.527" y2="156.354" class="gray" /></g>
<g><line x1="183.615" y1="156.354" x2="187.101" y2="156.354" class="gray" /></g>
<g><line x1="191.189" y1="156.354" x2="194.675" y2="156.354" class="gray" /></g>
<g><line x1="198.763" y1="156.354" x2="202.249" y2="156.354" class="gray" /></g>
<g><line x1="206.337" y1="156.354" x2="209.823" y2="156.354" class="gray" /></g>
<g><line x1="213.911" y1="156.354" x2="217.397" y2="156.354" class="gray" /></g>
<g><line x1="221.485" y1="156.354" x2="224.971" y2="156.354" class="gray" /></g>
<g><line x1="229.059" y1="156.354" x2="232.545" y2="156.354" class="gray" /></g>
</svg>
