<svg
	xmlns="http://www.w3.org/2000/svg"
	width="233.82"
	height="251.29">
<g><style type="text/css" >
<!-- create color definitions -->
<![CDATA[
circle.red {stroke: rgb(255, 0, 255); fill: none; }
circle.green {stroke: rgb(0, 255, 0); fill: none; }
circle.blue {stroke: rgb(0, 0, 255); fill: none; }
circle.black {stroke: rgb(0, 0, 0); fill: none; }
circle.gray {stroke: rgb(204, 204, 204); fill: none; }
circle.brown {stroke: rgb(211.65, 104.55, 30.6); fill: none; }
line.red {stroke: rgb(255, 0, 255); stroke-width: 0.381016; }
line.green {stroke: rgb(0, 255, 0); stroke-width: 0.381016; }
line.blue {stroke: rgb(0, 0, 255); stroke-width: 0.381016; }
line.black {stroke: rgb(0, 0, 0); stroke-width: 0.381016; }
line.gray {stroke: rgb(204, 204, 204); stroke-width: 0.381016; }
line.brown {stroke: rgb(211.65, 104.55, 30.6); stroke-width: 0.381016; }
line {stroke: rgb(0, 0, 0); }
text.red {fill: rgb(255, 0, 255); font-size: 3.048126px; font-weight: bold; font-family: Helvetica; }
text.green {fill: rgb(0, 255, 0); font-size: 3.048126px; font-weight: bold; font-family: Helvetica; }
text.blue {fill: rgb(0, 0, 255); font-size: 3.048126px; font-weight: bold; font-family: Helvetica; }
text.black {fill: rgb(0, 0, 0); font-size: 3.048126px; font-weight: bold; font-family: Helvetica; }
text.gray {fill: rgb(204, 204, 204); font-size: 3.048126px; font-weight: bold; font-family: Helvetica; }
text.brown {fill: rgb(211.65, 104.55, 30.6); font-size: 3.048126px; font-weight: bold; font-family: Helvetica; }
text {fill: rgb(0, 0, 0); font-size: 3.048126px; font-weight: bold; font-family: Helvetica; text-anchor: middle; alignment-baseline: middle; }

.pseudoknot_connection{stroke-linecap: round; stroke-opacity: 0.2; stroke-width: 1.5; }
.pseudoknot_segment1{stroke-linecap: round; stroke-opacity: 0.4; stroke-width: 3.04813; }
.pseudoknot_segment2{stroke-linecap: round; stroke-opacity: 0.4; stroke-width: 3.04813; }
line.numbering-line{stroke: rgb(204, 204, 204); stroke-width: 0.190508; }
line.predicted{stroke: rgb(0, 0, 0); stroke-dasharray: 2; }
polyline{fill: none; stroke-linejoin: round; }
template{visibility: hidden; }
text.numbering-label{fill: rgb(204, 204, 204); }
]]>
</style></g>
<g><title>0 (position.label in template: 0.5')</title><text x="149.26" y="201.29" class="green" >5'</text></g>
<g><title>1 (position.label in template: 1.A)</title><text x="156.26" y="201.29" class="black" >A</text></g>
<g><line x1="158.292" y1="200.985" x2="166.048" y2="200.985" class="black" /></g>
<g><title>2 (position.label in template: 2.G)</title><text x="155.84" y="193.73" class="green" >G</text></g>
<g><line x1="157.872" y1="193.425" x2="166.258" y2="193.425" class="black" /></g>
<g><title>3 (position.label in template: 3.A)</title><text x="156.26" y="186.17" class="black" >A</text></g>
<g><line x1="158.292" y1="185.865" x2="166.048" y2="185.865" class="black" /></g>
<g><title>4 (position.label in template: 4.G)</title><text x="155.84" y="178.61" class="green" >G</text></g>
<g><line x1="157.872" y1="178.305" x2="166.258" y2="178.305" class="black" /></g>
<g><title>5 (position.label in template: 5.U)</title><text x="150.46" y="173.52" class="green" >T</text></g>
<g><title>6 (position.label in template: 6.A)</title><text x="148.59" y="166.25" class="black" >A</text></g>
<g><title>7 (position.label in template: 7.A)</title><text x="150.66" y="158.98" class="black" >A</text></g>
<g><title>8 (position.label in template: 8.C)</title><text x="156.05" y="153.9" class="black" >C</text></g>
<g><line x1="158.082" y1="153.595" x2="166.048" y2="153.595" class="black" /></g>
<g><title>9 (position.label in template: 9.U)</title><text x="156.05" y="146.34" class="green" >T</text></g>
<g><line x1="158.082" y1="146.035" x2="166.468" y2="146.035" class="black" /></g>
<g><title>10 (position.label in template: 10.C)</title><text x="156.05" y="138.78" class="black" >C</text></g>
<g><line x1="158.082" y1="138.475" x2="166.048" y2="138.475" class="black" /></g>
<g><text x="149.192" y="138.78" class="numbering-label sequential" >10</text></g>
<g><line x1="154.221" y1="138.78" x2="151.021" y2="138.78" class="numbering-line sequential" /></g>
<g><title>11 (position.label in template: 11.C)</title><text x="156.05" y="131.22" class="black" >C</text></g>
<g><line x1="158.082" y1="130.915" x2="166.048" y2="130.915" class="black" /></g>
<g><title>12 (position.label in template: 12.G)</title><text x="149.42" y="127.23" class="black" >G</text></g>
<g><title>13 (position.label in template: 13.C)</title><text x="145.4" y="120.96" class="black" >C</text></g>
<g><title>14 (position.label in template: 14.C)</title><text x="144.1" y="113.52" class="black" >C</text></g>
<g><line x1="144.83" y1="111.319" x2="147.74" y2="103.752" class="black" /></g>
<g><title>15 (position.label in template: 15.U)</title><text x="137.09" y="110.69" class="green" >T</text></g>
<g><line x1="137.879" y1="108.512" x2="141.081" y2="100.908" class="black" /></g>
<g><title>16 (position.label in template: 16.G)</title><text x="129.87" y="107.86" class="black" >G</text></g>
<g><line x1="130.66" y1="105.683" x2="133.87" y2="98.0774" class="black" /></g>
<g><title>17 (position.label in template: 17.U)</title><text x="123.07" y="105.04" class="green" >T</text></g>
<g><line x1="123.858" y1="102.862" x2="127.062" y2="95.2482" class="black" /></g>
<g><title>18 (position.label in template: 18.G)</title><text x="115.85" y="102.21" class="black" >G</text></g>
<g><line x1="116.639" y1="100.032" x2="119.841" y2="92.428" class="black" /></g>
<g><title>19 (position.label in template: 19.U)</title><text x="109.04" y="99.38" class="green" >T</text></g>
<g><line x1="109.8" y1="97.1907" x2="112.86" y2="89.6096" class="black" /></g>
<g><title>20 (position.label in template: 20.U)</title><text x="104.21" y="105.2" class="green" >T</text></g>
<g><text x="108.887" y="110.216" class="numbering-label sequential" >20</text></g>
<g><line x1="105.457" y1="106.538" x2="107.466" y2="108.692" class="numbering-line sequential" /></g>
<g><title>21 (position.label in template: 21.G)</title><text x="97.95" y="109.72" class="black" >G</text></g>
<g><title>22 (position.label in template: 22.U)</title><text x="91.21" y="112.71" class="green" >T</text></g>
<g><title>23 (position.label in template: 23.U)</title><text x="83.76" y="113.99" class="green" >T</text></g>
<g><title>24 (position.label in template: 24.U)</title><text x="76.22" y="113.49" class="green" >T</text></g>
<g><title>25 (position.label in template: 25.C)</title><text x="69" y="111.24" class="black" >C</text></g>
<g><title>26 (position.label in template: 26.A)</title><text x="62.71" y="107.36" class="black" >A</text></g>
<g><title>27 (position.label in template: 27.U)</title><text x="57.1" y="102.08" class="green" >T</text></g>
<g><title>28 (position.label in template: 28.G)</title><text x="52.87" y="95.68" class="black" >G</text></g>
<g><title>29 (position.label in template: 29.G)</title><text x="50.46" y="88.51" class="black" >G</text></g>
<g><title>30 (position.label in template: 30.U)</title><text x="50" y="80.98" class="green" >T</text></g>
<g><text x="43.1481" y="80.6833" class="numbering-label sequential" >30</text></g>
<g><line x1="48.1728" y1="80.9009" x2="44.977" y2="80.7625" class="numbering-line sequential" /></g>
<g><title>31 (position.label in template: 31.U)</title><text x="51.11" y="73.5" class="green" >T</text></g>
<g><title>32 (position.label in template: 32.U)</title><text x="53.94" y="66.49" class="green" >T</text></g>
<g><title>33 (position.label in template: 33.G)</title><text x="58.11" y="60.34" class="black" >G</text></g>
<g><title>34 (position.label in template: 34.U)</title><text x="64.03" y="55.38" class="green" >T</text></g>
<g><title>35 (position.label in template: 35.C)</title><text x="70.74" y="51.89" class="black" >C</text></g>
<g><title>36 (position.label in template: 36.A)</title><text x="78.28" y="50.06" class="black" >A</text></g>
<g><title>37 (position.label in template: 37.U)</title><text x="85.63" y="50" class="green" >T</text></g>
<g><title>38 (position.label in template: 38.U)</title><text x="93" y="51.72" class="green" >T</text></g>
<g><title>39 (position.label in template: 39.G)</title><text x="99.55" y="55.1" class="black" >G</text></g>
<g><title>40 (position.label in template: 40.C)</title><text x="105.54" y="59.97" class="black" >C</text></g>
<g><title>41 (position.label in template: 41.A)</title><text x="110.22" y="66.06" class="black" >A</text></g>
<g><title>42 (position.label in template: 42.C)</title><text x="112.95" y="73.03" class="black" >C</text></g>
<g><title>43 (position.label in template: 43.A)</title><text x="114.38" y="80.49" class="black" >A</text></g>
<g><title>44 (position.label in template: 44.U)</title><text x="113.62" y="88.03" class="green" >T</text></g>
<g><title>45 (position.label in template: 45.C)</title><text x="120.63" y="90.86" class="black" >C</text></g>
<g><title>46 (position.label in template: 46.A)</title><text x="127.85" y="93.68" class="green" >A</text></g>
<g><title>47 (position.label in template: 47.C)</title><text x="134.66" y="96.51" class="black" >C</text></g>
<g><title>48 (position.label in template: 48.A)</title><text x="141.87" y="99.34" class="green" >A</text></g>
<g><title>49 (position.label in template: 49.G)</title><text x="148.47" y="102.16" class="black" >G</text></g>
<g><title>50 (position.label in template: 50.C)</title><text x="154.78" y="97.7" class="black" >C</text></g>
<g><line x1="156.806" y1="97.238" x2="164.744" y2="96.6223" class="black" /></g>
<g><text x="148.593" y="94.7406" class="numbering-label sequential" >50</text></g>
<g><line x1="153.13" y1="96.9108" x2="150.422" y2="95.6154" class="numbering-line sequential" /></g>
<g><title>51 (position.label in template: 51.C)</title><text x="154.21" y="90.16" class="black" >C</text></g>
<g><line x1="156.236" y1="89.698" x2="164.174" y2="89.0823" class="black" /></g>
<g><title>52 (position.label in template: 52.G)</title><text x="153.42" y="82.62" class="black" >G</text></g>
<g><line x1="155.446" y1="82.1635" x2="163.814" y2="81.5369" class="black" /></g>
<g><title>53 (position.label in template: 53.G)</title><text x="147.11" y="78.47" class="black" >G</text></g>
<g><title>54 (position.label in template: 54.U)</title><text x="143.74" y="71.8" class="green" >T</text></g>
<g><title>55 (position.label in template: 55.C)</title><text x="143.78" y="64.25" class="black" >C</text></g>
<g><title>56 (position.label in template: 56.C)</title><text x="147.41" y="57.62" class="black" >C</text></g>
<g><title>57 (position.label in template: 57.C)</title><text x="153.77" y="53.52" class="black" >C</text></g>
<g><title>58 (position.label in template: 58.A)</title><text x="161.51" y="52.95" class="black" >A</text></g>
<g><title>59 (position.label in template: 59.A)</title><text x="168.41" y="56.03" class="black" >A</text></g>
<g><title>60 (position.label in template: 60.G)</title><text x="172.59" y="62.04" class="black" >G</text></g>
<g><title>61 (position.label in template: 61.C)</title><text x="173.98" y="69.51" class="black" >C</text></g>
<g><title>62 (position.label in template: 62.C)</title><text x="171.45" y="76.63" class="black" >C</text></g>
<g><title>63 (position.label in template: 63.C)</title><text x="165.84" y="81.69" class="black" >C</text></g>
<g><title>64 (position.label in template: 64.G)</title><text x="166.2" y="89.23" class="black" >G</text></g>
<g><title>65 (position.label in template: 65.G)</title><text x="166.77" y="96.77" class="black" >G</text></g>
<g><title>66 (position.label in template: 66.A)</title><text x="173.9" y="100.26" class="black" >A</text></g>
<g><title>67 (position.label in template: 67.C)</title><text x="178.38" y="106.19" class="black" >C</text></g>
<g><title>68 (position.label in template: 68.A)</title><text x="180.45" y="113.52" class="black" >A</text></g>
<g><title>69 (position.label in template: 69.A)</title><text x="179.15" y="120.96" class="black" >A</text></g>
<g><title>70 (position.label in template: 70.A)</title><text x="174.92" y="127.23" class="black" >A</text></g>
<g><title>71 (position.label in template: 71.G)</title><text x="168.08" y="131.22" class="black" >G</text></g>
<g><title>72 (position.label in template: 72.G)</title><text x="168.08" y="138.78" class="black" >G</text></g>
<g><title>73 (position.label in template: 73.A)</title><text x="168.5" y="146.34" class="green" >A</text></g>
<g><title>74 (position.label in template: 74.G)</title><text x="168.08" y="153.9" class="black" >G</text></g>
<g><title>75 (position.label in template: 75.G)</title><text x="175.63" y="154.37" class="black" >G</text></g>
<g><title>76 (position.label in template: 76.A)</title><text x="181.99" y="159.03" class="black" >A</text></g>
<g><title>77 (position.label in template: 77.G)</title><text x="183.82" y="166.25" class="black" >G</text></g>
<g><title>78 (position.label in template: 78.G)</title><text x="181.57" y="173.47" class="black" >G</text></g>
<g><title>79 (position.label in template: 79.G)</title><text x="175.63" y="178.14" class="black" >G</text></g>
<g><title>80 (position.label in template: 80.U)</title><text x="168.29" y="178.61" class="green" >T</text></g>
<g><title>81 (position.label in template: 81.G)</title><text x="168.08" y="186.17" class="black" >G</text></g>
<g><title>82 (position.label in template: 82.U)</title><text x="168.29" y="193.73" class="green" >T</text></g>
<g><title>83 (position.label in template: 83.G)</title><text x="168.08" y="201.29" class="black" >G</text></g>
<g><title>84 (position.label in template: 84.3')</title><text x="175.08" y="201.29" class="green" >3'</text></g>
<g><line x1="151.292" y1="200.985" x2="154.228" y2="200.985" class="gray" /></g>
<g><line x1="156.147" y1="198.956" x2="155.953" y2="195.454" class="gray" /></g>
<g><line x1="155.953" y1="191.396" x2="156.147" y2="187.894" class="gray" /></g>
<g><line x1="156.147" y1="183.836" x2="155.953" y2="180.334" class="gray" /></g>
<g><line x1="154.364" y1="176.909" x2="151.936" y2="174.612" class="gray" /></g>
<g><line x1="149.954" y1="171.247" x2="149.096" y2="167.913" class="gray" /></g>
<g><line x1="149.146" y1="163.991" x2="150.104" y2="160.63" class="gray" /></g>
<g><line x1="152.139" y1="157.281" x2="154.571" y2="154.989" class="gray" /></g>
<g><line x1="156.05" y1="151.563" x2="156.05" y2="148.067" class="gray" /></g>
<g><line x1="156.05" y1="144.003" x2="156.05" y2="140.507" class="gray" /></g>
<g><line x1="156.05" y1="136.443" x2="156.05" y2="132.947" class="gray" /></g>
<g><line x1="154.309" y1="129.867" x2="151.161" y2="127.973" class="gray" /></g>
<g><line x1="148.323" y1="125.215" x2="146.497" y2="122.366" class="gray" /></g>
<g><line x1="145.05" y1="118.653" x2="144.45" y2="115.217" class="gray" /></g>
<g><line x1="142.216" y1="112.454" x2="138.974" y2="111.146" class="gray" /></g>
<g><line x1="135.198" y1="109.644" x2="131.762" y2="108.297" class="gray" /></g>
<g><line x1="127.993" y1="106.777" x2="124.947" y2="105.514" class="gray" /></g>
<g><line x1="121.178" y1="103.994" x2="117.742" y2="102.647" class="gray" /></g>
<g><line x1="113.973" y1="101.125" x2="110.917" y2="99.855" class="gray" /></g>
<g><line x1="107.742" y1="100.639" x2="105.508" y2="103.331" class="gray" /></g>
<g><line x1="102.562" y1="106.085" x2="99.5975" y2="108.226" class="gray" /></g>
<g><line x1="96.0925" y1="110.239" x2="93.0675" y2="111.581" class="gray" /></g>
<g><line x1="89.2073" y1="112.749" x2="85.7627" y2="113.341" class="gray" /></g>
<g><line x1="81.7324" y1="113.551" x2="78.2476" y2="113.32" class="gray" /></g>
<g><line x1="74.2799" y1="112.581" x2="70.9401" y2="111.54" class="gray" /></g>
<g><line x1="67.2705" y1="109.868" x2="64.4395" y2="108.122" class="gray" /></g>
<g><line x1="61.2302" y1="105.662" x2="58.5798" y2="103.168" class="gray" /></g>
<g><line x1="55.9795" y1="100.08" x2="53.9905" y2="97.0705" class="gray" /></g>
<g><line x1="52.2226" y1="93.449" x2="51.1074" y2="90.1314" class="gray" /></g>
<g><line x1="50.3361" y1="86.1769" x2="50.1239" y2="82.7035" class="gray" /></g>
<g><line x1="50.2983" y1="78.6651" x2="50.8117" y2="75.2053" class="gray" /></g>
<g><line x1="51.8707" y1="71.3109" x2="53.1793" y2="68.0695" class="gray" /></g>
<g><line x1="55.0804" y1="64.5033" x2="56.9696" y2="61.7171" class="gray" /></g>
<g><line x1="59.6676" y1="58.7301" x2="62.4724" y2="56.3802" class="gray" /></g>
<g><line x1="65.8328" y1="54.1375" x2="68.9372" y2="52.5229" class="gray" /></g>
<g><line x1="72.7148" y1="51.1059" x2="76.3052" y2="50.2345" class="gray" /></g>
<g><line x1="80.312" y1="49.7386" x2="83.598" y2="49.7118" class="gray" /></g>
<g><line x1="87.6089" y1="50.157" x2="91.0211" y2="50.9534" class="gray" /></g>
<g><line x1="94.8058" y1="52.347" x2="97.7442" y2="53.8633" class="gray" /></g>
<g><line x1="101.127" y1="56.0771" x2="103.963" y2="58.3833" class="gray" /></g>
<g><line x1="106.778" y1="61.2765" x2="108.982" y2="64.1439" class="gray" /></g>
<g><line x1="110.961" y1="67.6473" x2="112.209" y2="70.8331" class="gray" /></g>
<g><line x1="113.333" y1="74.7209" x2="113.997" y2="78.1894" class="gray" /></g>
<g><line x1="114.176" y1="82.207" x2="113.824" y2="85.7033" class="gray" /></g>
<g><line x1="115.504" y1="88.4859" x2="118.746" y2="89.7945" class="gray" /></g>
<g><line x1="122.523" y1="91.2945" x2="125.957" y2="92.6359" class="gray" /></g>
<g><line x1="129.727" y1="94.155" x2="132.783" y2="95.4254" class="gray" /></g>
<g><line x1="136.552" y1="96.9477" x2="139.978" y2="98.2927" class="gray" /></g>
<g><line x1="143.739" y1="99.8336" x2="146.601" y2="101.057" class="gray" /></g>
<g><line x1="150.129" y1="100.682" x2="153.121" y2="98.5681" class="gray" /></g>
<g><line x1="154.627" y1="95.3689" x2="154.363" y2="91.8815" class="gray" /></g>
<g><line x1="153.998" y1="87.8342" x2="153.632" y2="84.3362" class="gray" /></g>
<g><line x1="151.722" y1="81.1986" x2="148.808" y2="79.2818" class="gray" /></g>
<g><line x1="146.194" y1="76.3515" x2="144.656" y2="73.3089" class="gray" /></g>
<g><line x1="143.751" y1="69.4631" x2="143.769" y2="65.9772" class="gray" /></g>
<g><line x1="144.756" y1="62.1628" x2="146.434" y2="59.0976" class="gray" /></g>
<g><line x1="149.118" y1="56.2142" x2="152.062" y2="54.3162" class="gray" /></g>
<g><line x1="155.797" y1="53.0659" x2="159.483" y2="52.7944" class="gray" /></g>
<g><line x1="163.366" y1="53.4735" x2="166.554" y2="54.8969" class="gray" /></g>
<g><line x1="169.57" y1="57.3934" x2="171.43" y2="60.0669" class="gray" /></g>
<g><line x1="172.962" y1="63.733" x2="173.608" y2="67.2074" class="gray" /></g>
<g><line x1="173.3" y1="71.12" x2="172.13" y2="74.4104" class="gray" /></g>
<g><line x1="169.941" y1="77.6862" x2="167.349" y2="80.0242" class="gray" /></g>
<g><line x1="165.937" y1="83.415" x2="166.103" y2="86.8954" class="gray" /></g>
<g><line x1="166.353" y1="90.9515" x2="166.617" y2="94.4389" class="gray" /></g>
<g><line x1="168.595" y1="97.3586" x2="172.075" y2="99.0618" class="gray" /></g>
<g><line x1="175.125" y1="101.577" x2="177.155" y2="104.264" class="gray" /></g>
<g><line x1="178.932" y1="107.841" x2="179.898" y2="111.26" class="gray" /></g>
<g><line x1="180.1" y1="115.217" x2="179.5" y2="118.653" class="gray" /></g>
<g><line x1="178.014" y1="122.34" x2="176.056" y2="125.241" class="gray" /></g>
<g><line x1="173.165" y1="127.949" x2="169.835" y2="129.891" class="gray" /></g>
<g><line x1="168.08" y1="132.947" x2="168.08" y2="136.443" class="gray" /></g>
<g><line x1="168.193" y1="140.504" x2="168.387" y2="144.006" class="gray" /></g>
<g><line x1="168.387" y1="148.064" x2="168.193" y2="151.566" class="gray" /></g>
<g><line x1="170.108" y1="153.721" x2="173.602" y2="153.939" class="gray" /></g>
<g><line x1="177.269" y1="155.266" x2="180.351" y2="157.524" class="gray" /></g>
<g><line x1="182.489" y1="160.695" x2="183.321" y2="163.975" class="gray" /></g>
<g><line x1="183.215" y1="167.885" x2="182.175" y2="171.225" class="gray" /></g>
<g><line x1="179.973" y1="174.421" x2="177.227" y2="176.579" class="gray" /></g>
<g><line x1="173.602" y1="177.965" x2="170.318" y2="178.175" class="gray" /></g>
<g><line x1="168.234" y1="180.336" x2="168.136" y2="183.834" class="gray" /></g>
<g><line x1="168.136" y1="187.896" x2="168.234" y2="191.394" class="gray" /></g>
<g><line x1="168.234" y1="195.456" x2="168.136" y2="198.954" class="gray" /></g>
<g><line x1="170.112" y1="200.985" x2="173.048" y2="200.985" class="gray" /></g>
</svg>
