<svg
	xmlns="http://www.w3.org/2000/svg"
	width="251.742"
	height="187.282">
<g><style type="text/css" >
<!-- create color definitions -->
<![CDATA[
circle.red {stroke: rgb(255, 0, 255); fill: none; }
circle.green {stroke: rgb(0, 255, 0); fill: none; }
circle.blue {stroke: rgb(0, 0, 255); fill: none; }
circle.black {stroke: rgb(0, 0, 0); fill: none; }
circle.gray {stroke: rgb(204, 204, 204); fill: none; }
circle.brown {stroke: rgb(211.65, 104.55, 30.6); fill: none; }
line.red {stroke: rgb(255, 0, 255); stroke-width: 0.380449; }
line.green {stroke: rgb(0, 255, 0); stroke-width: 0.380449; }
line.blue {stroke: rgb(0, 0, 255); stroke-width: 0.380449; }
line.black {stroke: rgb(0, 0, 0); stroke-width: 0.380449; }
line.gray {stroke: rgb(204, 204, 204); stroke-width: 0.380449; }
line.brown {stroke: rgb(211.65, 104.55, 30.6); stroke-width: 0.380449; }
line {stroke: rgb(0, 0, 0); }
text.red {fill: rgb(255, 0, 255); font-size: 3.043594px; font-weight: bold; font-family: Helvetica; }
text.green {fill: rgb(0, 255, 0); font-size: 3.043594px; font-weight: bold; font-family: Helvetica; }
text.blue {fill: rgb(0, 0, 255); font-size: 3.043594px; font-weight: bold; font-family: Helvetica; }
text.black {fill: rgb(0, 0, 0); font-size: 3.043594px; font-weight: bold; font-family: Helvetica; }
text.gray {fill: rgb(204, 204, 204); font-size: 3.043594px; font-weight: bold; font-family: Helvetica; }
text.brown {fill: rgb(211.65, 104.55, 30.6); font-size: 3.043594px; font-weight: bold; font-family: Helvetica; }
text {fill: rgb(0, 0, 0); font-size: 3.043594px; font-weight: bold; font-family: Helvetica; text-anchor: middle; alignment-baseline: middle; }

.pseudoknot_connection{stroke-linecap: round; stroke-opacity: 0.2; stroke-width: 1.5; }
.pseudoknot_segment1{stroke-linecap: round; stroke-opacity: 0.4; stroke-width: 3.04359; }
.pseudoknot_segment2{stroke-linecap: round; stroke-opacity: 0.4; stroke-width: 3.04359; }
line.numbering-line{stroke: rgb(204, 204, 204); stroke-width: 0.190225; }
line.predicted{stroke: rgb(0, 0, 0); stroke-dasharray: 2; }
polyline{fill: none; stroke-linejoin: round; }
template{visibility: hidden; }
text.numbering-label{fill: rgb(204, 204, 204); }
]]>
</style></g>
<g><title>0 (position.label in template: 0.5')</title><text x="42.4377" y="137.282" class="green" >5'</text></g>
<g><title>1 (position.label in template: 1.U)</title><text x="50" y="137.282" class="green" >T</text></g>
<g><title>2 (position.label in template: 2.G)</title><text x="57.5623" y="137.282" class="black" >G</text></g>
<g><title>3 (position.label in template: 3.U)</title><text x="65.1246" y="137.282" class="green" >T</text></g>
<g><title>4 (position.label in template: 4.C)</title><text x="72.6869" y="137.282" class="black" >C</text></g>
<g><title>5 (position.label in template: 5.U)</title><text x="80.2493" y="137.282" class="green" >T</text></g>
<g><title>6 (position.label in template: 6.C)</title><text x="87.8116" y="137.282" class="black" >C</text></g>
<g><title>7 (position.label in template: 7.C)</title><text x="95.3739" y="137.282" class="black" >C</text></g>
<g><title>8 (position.label in template: 8.U)</title><text x="100.726" y="131.94" class="green" >T</text></g>
<g><line x1="102.755" y1="131.636" x2="111.147" y2="131.636" class="black" /></g>
<g><title>9 (position.label in template: 9.C)</title><text x="100.726" y="124.37" class="black" >C</text></g>
<g><line x1="102.755" y1="124.066" x2="110.727" y2="124.066" class="black" /></g>
<g><title>10 (position.label in template: 10.C)</title><text x="100.726" y="116.81" class="black" >C</text></g>
<g><line x1="102.755" y1="116.506" x2="110.727" y2="116.506" class="black" /></g>
<g><text x="93.8788" y="116.715" class="numbering-label sequential" >10</text></g>
<g><line x1="98.9003" y1="116.785" x2="95.705" y2="116.74" class="numbering-line sequential" /></g>
<g><title>11 (position.label in template: 11.A)</title><text x="100.936" y="109.25" class="green" >A</text></g>
<g><line x1="102.965" y1="108.946" x2="110.937" y2="108.946" class="black" /></g>
<g><title>12 (position.label in template: 12.A)</title><text x="100.936" y="101.69" class="green" >A</text></g>
<g><line x1="102.965" y1="101.386" x2="110.937" y2="101.386" class="black" /></g>
<g><title>13 (position.label in template: 13.C)</title><text x="100.726" y="94.13" class="black" >C</text></g>
<g><line x1="102.755" y1="93.8256" x2="111.147" y2="93.8256" class="black" /></g>
<g><title>14 (position.label in template: 14.U)</title><text x="100.726" y="86.57" class="green" >T</text></g>
<g><line x1="102.755" y1="86.2656" x2="111.147" y2="86.2656" class="black" /></g>
<g><title>15 (position.label in template: 15.C)</title><text x="100.726" y="79.01" class="black" >C</text></g>
<g><line x1="102.755" y1="78.7056" x2="110.727" y2="78.7056" class="black" /></g>
<g><title>16 (position.label in template: 16.U)</title><text x="97.3262" y="72.26" class="green" >T</text></g>
<g><title>17 (position.label in template: 17.C)</title><text x="99.9062" y="65.16" class="black" >C</text></g>
<g><title>18 (position.label in template: 18.C)</title><text x="106.846" y="62.16" class="black" >C</text></g>
<g><title>19 (position.label in template: 19.U)</title><text x="113.786" y="65.16" class="green" >T</text></g>
<g><title>20 (position.label in template: 20.U)</title><text x="116.366" y="72.26" class="green" >T</text></g>
<g><text x="123.195" y="72.7679" class="numbering-label sequential" >20</text></g>
<g><line x1="118.187" y1="72.3954" x2="121.369" y2="72.6321" class="numbering-line sequential" /></g>
<g><title>21 (position.label in template: 21.G)</title><text x="112.756" y="79.01" class="black" >G</text></g>
<g><title>22 (position.label in template: 22.A)</title><text x="113.176" y="86.57" class="green" >A</text></g>
<g><title>23 (position.label in template: 23.A)</title><text x="113.176" y="94.13" class="black" >A</text></g>
<g><title>24 (position.label in template: 24.U)</title><text x="112.966" y="101.69" class="green" >T</text></g>
<g><title>25 (position.label in template: 25.U)</title><text x="112.966" y="109.25" class="green" >T</text></g>
<g><title>26 (position.label in template: 26.G)</title><text x="112.756" y="116.81" class="black" >G</text></g>
<g><title>27 (position.label in template: 27.G)</title><text x="112.756" y="124.37" class="black" >G</text></g>
<g><title>28 (position.label in template: 28.A)</title><text x="113.176" y="131.94" class="green" >A</text></g>
<g><title>29 (position.label in template: 29.U)</title><text x="118.316" y="137.28" class="green" >T</text></g>
<g><title>30 (position.label in template: 30.U)</title><text x="125.876" y="137.28" class="green" >T</text></g>
<g><text x="125.876" y="144.128" class="numbering-label sequential" >30</text></g>
<g><line x1="125.876" y1="139.106" x2="125.876" y2="142.606" class="numbering-line sequential" /></g>
<g><title>31 (position.label in template: 31.C)</title><text x="133.436" y="137.28" class="black" >C</text></g>
<g><title>32 (position.label in template: 32.G)</title><text x="138.566" y="131.94" class="black" >G</text></g>
<g><line x1="140.595" y1="131.636" x2="148.987" y2="131.636" class="black" /></g>
<g><title>33 (position.label in template: 33.C)</title><text x="138.776" y="124.37" class="black" >C</text></g>
<g><line x1="140.805" y1="124.066" x2="148.777" y2="124.066" class="black" /></g>
<g><title>34 (position.label in template: 34.C)</title><text x="138.776" y="116.81" class="black" >C</text></g>
<g><line x1="140.805" y1="116.506" x2="148.777" y2="116.506" class="black" /></g>
<g><title>35 (position.label in template: 35.C)</title><text x="138.776" y="109.25" class="black" >C</text></g>
<g><line x1="140.805" y1="108.946" x2="148.777" y2="108.946" class="black" /></g>
<g><title>36 (position.label in template: 36.G)</title><text x="138.566" y="101.69" class="black" >G</text></g>
<g><line x1="140.595" y1="101.386" x2="148.987" y2="101.386" class="black" /></g>
<g><title>37 (position.label in template: 37.C)</title><text x="138.776" y="94.13" class="black" >C</text></g>
<g><line x1="140.805" y1="93.8256" x2="148.777" y2="93.8256" class="black" /></g>
<g><title>38 (position.label in template: 38.A)</title><text x="138.986" y="86.57" class="green" >A</text></g>
<g><line x1="141.015" y1="86.2656" x2="148.987" y2="86.2656" class="black" /></g>
<g><title>39 (position.label in template: 39.U)</title><text x="138.776" y="79.01" class="green" >T</text></g>
<g><line x1="140.805" y1="78.7056" x2="148.987" y2="78.7056" class="black" /></g>
<g><title>40 (position.label in template: 40.U)</title><text x="132.796" y="74.39" class="green" >T</text></g>
<g><title>41 (position.label in template: 41.C)</title><text x="129.736" y="67.48" class="black" >C</text></g>
<g><title>42 (position.label in template: 42.U)</title><text x="130.346" y="59.94" class="green" >T</text></g>
<g><title>43 (position.label in template: 43.G)</title><text x="134.266" y="53.61" class="black" >G</text></g>
<g><title>44 (position.label in template: 44.C)</title><text x="141.116" y="50" class="black" >C</text></g>
<g><title>45 (position.label in template: 45.A)</title><text x="148.886" y="50" class="black" >A</text></g>
<g><title>46 (position.label in template: 46.A)</title><text x="155.536" y="53.61" class="black" >A</text></g>
<g><title>47 (position.label in template: 47.G)</title><text x="159.236" y="59.94" class="black" >G</text></g>
<g><title>48 (position.label in template: 48.G)</title><text x="159.846" y="67.48" class="black" >G</text></g>
<g><title>49 (position.label in template: 49.U)</title><text x="157.006" y="74.39" class="green" >T</text></g>
<g><title>50 (position.label in template: 50.C)</title><text x="151.016" y="79.01" class="green" >C</text></g>
<g><text x="157.161" y="82.0321" class="numbering-label sequential" >50</text></g>
<g><line x1="152.655" y1="79.8159" x2="155.335" y2="81.134" class="numbering-line sequential" /></g>
<g><title>51 (position.label in template: 51.U)</title><text x="151.016" y="86.57" class="green" >T</text></g>
<g><title>52 (position.label in template: 52.G)</title><text x="150.806" y="94.13" class="black" >G</text></g>
<g><title>53 (position.label in template: 53.C)</title><text x="151.016" y="101.69" class="black" >C</text></g>
<g><title>54 (position.label in template: 54.G)</title><text x="150.806" y="109.25" class="black" >G</text></g>
<g><title>55 (position.label in template: 55.G)</title><text x="150.806" y="116.81" class="black" >G</text></g>
<g><title>56 (position.label in template: 56.G)</title><text x="150.806" y="124.37" class="black" >G</text></g>
<g><title>57 (position.label in template: 57.C)</title><text x="151.016" y="131.94" class="black" >C</text></g>
<g><title>58 (position.label in template: 58.U)</title><text x="156.369" y="137.282" class="green" >T</text></g>
<g><title>59 (position.label in template: 59.U)</title><text x="163.931" y="137.282" class="green" >T</text></g>
<g><title>60 (position.label in template: 60.U)</title><text x="171.493" y="137.282" class="green" >T</text></g>
<g><title>61 (position.label in template: 61.U)</title><text x="179.056" y="137.282" class="green" >T</text></g>
<g><title>62 (position.label in template: 62.U)</title><text x="186.618" y="137.282" class="green" >T</text></g>
<g><title>63 (position.label in template: 63.U)</title><text x="194.18" y="137.282" class="green" >T</text></g>
<g><title>64 (position.label in template: 64.C)</title><text x="201.742" y="137.282" class="black" >C</text></g>
<g><title>65 (position.label in template: 65.3')</title><text x="209.305" y="137.282" class="green" >3'</text></g>
<g><line x1="44.4667" y1="136.978" x2="47.9709" y2="136.978" class="gray" /></g>
<g><line x1="52.0291" y1="136.978" x2="55.5333" y2="136.978" class="gray" /></g>
<g><line x1="59.5914" y1="136.978" x2="63.0956" y2="136.978" class="gray" /></g>
<g><line x1="67.1537" y1="136.978" x2="70.6579" y2="136.978" class="gray" /></g>
<g><line x1="74.716" y1="136.978" x2="78.2202" y2="136.978" class="gray" /></g>
<g><line x1="82.2783" y1="136.978" x2="85.7825" y2="136.978" class="gray" /></g>
<g><line x1="89.8406" y1="136.978" x2="93.3448" y2="136.978" class="gray" /></g>
<g><line x1="96.81" y1="135.545" x2="99.2901" y2="133.069" class="gray" /></g>
<g><line x1="100.726" y1="129.607" x2="100.726" y2="126.095" class="gray" /></g>
<g><line x1="100.726" y1="122.037" x2="100.726" y2="118.535" class="gray" /></g>
<g><line x1="100.783" y1="114.477" x2="100.88" y2="110.974" class="gray" /></g>
<g><line x1="100.936" y1="106.917" x2="100.936" y2="103.415" class="gray" /></g>
<g><line x1="100.88" y1="99.3574" x2="100.783" y2="95.8539" class="gray" /></g>
<g><line x1="100.726" y1="91.7966" x2="100.726" y2="88.2947" class="gray" /></g>
<g><line x1="100.726" y1="84.2366" x2="100.726" y2="80.7347" class="gray" /></g>
<g><line x1="99.8135" y1="76.8935" x2="98.239" y2="73.7678" class="gray" /></g>
<g><line x1="98.0192" y1="70.0486" x2="99.2133" y2="66.7627" class="gray" /></g>
<g><line x1="101.769" y1="64.0505" x2="104.984" y2="62.6608" class="gray" /></g>
<g><line x1="108.709" y1="62.6608" x2="111.924" y2="64.0505" class="gray" /></g>
<g><line x1="114.479" y1="66.7627" x2="115.673" y2="70.0486" class="gray" /></g>
<g><line x1="115.409" y1="73.7449" x2="113.713" y2="76.9164" class="gray" /></g>
<g><line x1="112.869" y1="80.7316" x2="113.064" y2="84.2397" class="gray" /></g>
<g><line x1="113.176" y1="88.2947" x2="113.176" y2="91.7966" class="gray" /></g>
<g><line x1="113.12" y1="95.8539" x2="113.023" y2="99.3574" class="gray" /></g>
<g><line x1="112.966" y1="103.415" x2="112.966" y2="106.917" class="gray" /></g>
<g><line x1="112.91" y1="110.974" x2="112.813" y2="114.477" class="gray" /></g>
<g><line x1="112.756" y1="118.535" x2="112.756" y2="122.037" class="gray" /></g>
<g><line x1="112.869" y1="126.092" x2="113.064" y2="129.61" class="gray" /></g>
<g><line x1="114.583" y1="133.098" x2="116.909" y2="135.514" class="gray" /></g>
<g><line x1="120.345" y1="136.976" x2="123.847" y2="136.976" class="gray" /></g>
<g><line x1="127.905" y1="136.976" x2="131.407" y2="136.976" class="gray" /></g>
<g><line x1="134.842" y1="135.512" x2="137.161" y2="133.099" class="gray" /></g>
<g><line x1="138.623" y1="129.607" x2="138.72" y2="126.094" class="gray" /></g>
<g><line x1="138.776" y1="122.037" x2="138.776" y2="118.535" class="gray" /></g>
<g><line x1="138.776" y1="114.477" x2="138.776" y2="110.975" class="gray" /></g>
<g><line x1="138.72" y1="106.917" x2="138.623" y2="103.414" class="gray" /></g>
<g><line x1="138.623" y1="99.3574" x2="138.72" y2="95.8539" class="gray" /></g>
<g><line x1="138.833" y1="91.7974" x2="138.93" y2="88.2939" class="gray" /></g>
<g><line x1="138.93" y1="84.2374" x2="138.833" y2="80.7339" class="gray" /></g>
<g><line x1="137.171" y1="77.4651" x2="134.402" y2="75.3262" class="gray" /></g>
<g><line x1="131.975" y1="72.2304" x2="130.558" y2="69.0309" class="gray" /></g>
<g><line x1="129.9" y1="65.1532" x2="130.183" y2="61.6581" class="gray" /></g>
<g><line x1="131.415" y1="57.9106" x2="133.198" y2="55.0307" class="gray" /></g>
<g><line x1="136.061" y1="52.3596" x2="139.321" y2="50.6416" class="gray" /></g>
<g><line x1="143.145" y1="49.6956" x2="146.857" y2="49.6956" class="gray" /></g>
<g><line x1="150.669" y1="50.6637" x2="153.753" y2="52.3376" class="gray" /></g>
<g><line x1="156.56" y1="55.0574" x2="158.212" y2="57.8839" class="gray" /></g>
<g><line x1="159.4" y1="61.6581" x2="159.683" y2="65.1532" class="gray" /></g>
<g><line x1="159.075" y1="69.0524" x2="157.778" y2="72.2089" class="gray" /></g>
<g><line x1="155.4" y1="75.3249" x2="152.623" y2="77.4664" class="gray" /></g>
<g><line x1="151.016" y1="80.7347" x2="151.016" y2="84.2366" class="gray" /></g>
<g><line x1="150.96" y1="88.2939" x2="150.863" y2="91.7974" class="gray" /></g>
<g><line x1="150.863" y1="95.8539" x2="150.96" y2="99.3574" class="gray" /></g>
<g><line x1="150.96" y1="103.414" x2="150.863" y2="106.917" class="gray" /></g>
<g><line x1="150.806" y1="110.975" x2="150.806" y2="114.477" class="gray" /></g>
<g><line x1="150.806" y1="118.535" x2="150.806" y2="122.037" class="gray" /></g>
<g><line x1="150.863" y1="126.094" x2="150.96" y2="129.607" class="gray" /></g>
<g><line x1="152.452" y1="133.069" x2="154.933" y2="135.545" class="gray" /></g>
<g><line x1="158.398" y1="136.978" x2="161.902" y2="136.978" class="gray" /></g>
<g><line x1="165.96" y1="136.978" x2="169.464" y2="136.978" class="gray" /></g>
<g><line x1="173.522" y1="136.978" x2="177.026" y2="136.978" class="gray" /></g>
<g><line x1="181.085" y1="136.978" x2="184.589" y2="136.978" class="gray" /></g>
<g><line x1="188.647" y1="136.978" x2="192.151" y2="136.978" class="gray" /></g>
<g><line x1="196.209" y1="136.978" x2="199.713" y2="136.978" class="gray" /></g>
<g><line x1="203.772" y1="136.978" x2="207.276" y2="136.978" class="gray" /></g>
</svg>
