<svg
	xmlns="http://www.w3.org/2000/svg"
	width="299.27"
	height="233.311">
<g><style type="text/css" >
<!-- create color definitions -->
<![CDATA[
circle.red {stroke: rgb(255, 0, 255); fill: none; }
circle.green {stroke: rgb(0, 255, 0); fill: none; }
circle.blue {stroke: rgb(0, 0, 255); fill: none; }
circle.black {stroke: rgb(0, 0, 0); fill: none; }
circle.gray {stroke: rgb(204, 204, 204); fill: none; }
circle.brown {stroke: rgb(211.65, 104.55, 30.6); fill: none; }
line.red {stroke: rgb(255, 0, 255); stroke-width: 0.382589; }
line.green {stroke: rgb(0, 255, 0); stroke-width: 0.382589; }
line.blue {stroke: rgb(0, 0, 255); stroke-width: 0.382589; }
line.black {stroke: rgb(0, 0, 0); stroke-width: 0.382589; }
line.gray {stroke: rgb(204, 204, 204); stroke-width: 0.382589; }
line.brown {stroke: rgb(211.65, 104.55, 30.6); stroke-width: 0.382589; }
line {stroke: rgb(0, 0, 0); }
text.red {fill: rgb(255, 0, 255); font-size: 3.060714px; font-weight: bold; font-family: Helvetica; }
text.green {fill: rgb(0, 255, 0); font-size: 3.060714px; font-weight: bold; font-family: Helvetica; }
text.blue {fill: rgb(0, 0, 255); font-size: 3.060714px; font-weight: bold; font-family: Helvetica; }
text.black {fill: rgb(0, 0, 0); font-size: 3.060714px; font-weight: bold; font-family: Helvetica; }
text.gray {fill: rgb(204, 204, 204); font-size: 3.060714px; font-weight: bold; font-family: Helvetica; }
text.brown {fill: rgb(211.65, 104.55, 30.6); font-size: 3.060714px; font-weight: bold; font-family: Helvetica; }
text {fill: rgb(0, 0, 0); font-size: 3.060714px; font-weight: bold; font-family: Helvetica; text-anchor: middle; alignment-baseline: middle; }

.pseudoknot_connection{stroke-linecap: round; stroke-opacity: 0.2; stroke-width: 1.5; }
.pseudoknot_segment1{stroke-linecap: round; stroke-opacity: 0.4; stroke-width: 3.06071; }
.pseudoknot_segment2{stroke-linecap: round; stroke-opacity: 0.4; stroke-width: 3.06071; }
line.numbering-line{stroke: rgb(204, 204, 204); stroke-width: 0.191295; }
line.predicted{stroke: rgb(0, 0, 0); stroke-dasharray: 2; }
polyline{fill: none; stroke-linejoin: round; }
template{visibility: hidden; }
text.numbering-label{fill: rgb(204, 204, 204); }
]]>
</style></g>
<g><title>0 (position.label in template: 0.5')</title><text x="42.432" y="183.311" class="green" >5'</text></g>
<g><title>1 (position.label in template: 1.G)</title><text x="50" y="183.311" class="black" >G</text></g>
<g><title>2 (position.label in template: 2.G)</title><text x="57.568" y="183.311" class="black" >G</text></g>
<g><title>3 (position.label in template: 3.C)</title><text x="65.1361" y="183.311" class="black" >C</text></g>
<g><title>4 (position.label in template: 4.C)</title><text x="72.7041" y="183.311" class="black" >C</text></g>
<g><title>5 (position.label in template: 5.G)</title><text x="80.2722" y="183.311" class="black" >G</text></g>
<g><title>6 (position.label in template: 6.G)</title><text x="87.8402" y="183.311" class="black" >G</text></g>
<g><title>7 (position.label in template: 7.C)</title><text x="95.4083" y="183.311" class="black" >C</text></g>
<g><title>8 (position.label in template: 8.A)</title><text x="102.976" y="183.311" class="black" >A</text></g>
<g><title>9 (position.label in template: 9.A)</title><text x="110.544" y="183.311" class="black" >A</text></g>
<g><title>10 (position.label in template: 10.A)</title><text x="118.112" y="183.311" class="black" >A</text></g>
<g><text x="118.112" y="190.198" class="numbering-label sequential" >10</text></g>
<g><line x1="118.112" y1="185.148" x2="118.112" y2="188.668" class="numbering-line sequential" /></g>
<g><title>11 (position.label in template: 11.A)</title><text x="125.68" y="183.311" class="black" >A</text></g>
<g><title>12 (position.label in template: 12.U)</title><text x="133.248" y="183.311" class="green" >T</text></g>
<g><title>13 (position.label in template: 13.C)</title><text x="138.6" y="177.96" class="black" >C</text></g>
<g><line x1="140.64" y1="177.654" x2="148.589" y2="177.654" class="black" /></g>
<g><title>14 (position.label in template: 14.C)</title><text x="138.6" y="170.4" class="black" >C</text></g>
<g><line x1="140.64" y1="170.094" x2="148.589" y2="170.094" class="black" /></g>
<g><title>15 (position.label in template: 15.U)</title><text x="138.6" y="162.84" class="green" >T</text></g>
<g><line x1="140.64" y1="162.534" x2="149.009" y2="162.534" class="black" /></g>
<g><title>16 (position.label in template: 16.A)</title><text x="138.81" y="155.28" class="black" >A</text></g>
<g><line x1="140.85" y1="154.974" x2="149.009" y2="154.974" class="black" /></g>
<g><title>17 (position.label in template: 17.U)</title><text x="138.6" y="147.72" class="green" >T</text></g>
<g><line x1="140.64" y1="147.414" x2="149.009" y2="147.414" class="black" /></g>
<g><title>18 (position.label in template: 18.C)</title><text x="138.6" y="140.16" class="green" >C</text></g>
<g><line x1="140.64" y1="139.854" x2="148.799" y2="139.854" class="black" /></g>
<g><title>19 (position.label in template: 19.A)</title><text x="138.81" y="132.6" class="black" >A</text></g>
<g><line x1="140.85" y1="132.294" x2="148.589" y2="132.294" class="black" /></g>
<g><title>20 (position.label in template: 20.C)</title><text x="138.6" y="125.04" class="black" >C</text></g>
<g><line x1="140.64" y1="124.734" x2="149.009" y2="124.734" class="black" /></g>
<g><text x="131.714" y="125.136" class="numbering-label sequential" >20</text></g>
<g><line x1="136.764" y1="125.066" x2="133.55" y2="125.11" class="numbering-line sequential" /></g>
<g><title>21 (position.label in template: 21.C)</title><text x="138.6" y="117.48" class="black" >C</text></g>
<g><line x1="140.64" y1="117.174" x2="148.799" y2="117.174" class="black" /></g>
<g><title>22 (position.label in template: 22.A)</title><text x="131.78" y="114.7" class="green" >A</text></g>
<g><line x1="130.277" y1="113.013" x2="124.152" y2="107.385" class="black" /></g>
<g><title>23 (position.label in template: 23.C)</title><text x="126.39" y="120.21" class="black" >C</text></g>
<g><line x1="124.888" y1="118.522" x2="118.772" y2="112.895" class="black" /></g>
<g><title>24 (position.label in template: 24.C)</title><text x="121.22" y="125.71" class="black" >C</text></g>
<g><line x1="119.717" y1="124.024" x2="113.593" y2="118.404" class="black" /></g>
<g><title>25 (position.label in template: 25.U)</title><text x="120.83" y="133.26" class="green" >T</text></g>
<g><title>26 (position.label in template: 26.C)</title><text x="115.95" y="139.04" class="black" >C</text></g>
<g><title>27 (position.label in template: 27.C)</title><text x="108.57" y="140.69" class="black" >C</text></g>
<g><title>28 (position.label in template: 28.U)</title><text x="101.7" y="137.54" class="green" >T</text></g>
<g><title>29 (position.label in template: 29.C)</title><text x="98.1299" y="130.87" class="black" >C</text></g>
<g><title>30 (position.label in template: 30.A)</title><text x="99.5299" y="123.41" class="black" >A</text></g>
<g><text x="93.432" y="120.21" class="numbering-label sequential" >30</text></g>
<g><line x1="97.9038" y1="122.557" x2="95.2685" y2="121.174" class="numbering-line sequential" /></g>
<g><title>31 (position.label in template: 31.C)</title><text x="104.79" y="118.18" class="black" >C</text></g>
<g><title>32 (position.label in template: 32.G)</title><text x="112.09" y="117.33" class="black" >G</text></g>
<g><title>33 (position.label in template: 33.G)</title><text x="117.27" y="111.82" class="black" >G</text></g>
<g><title>34 (position.label in template: 34.U)</title><text x="122.65" y="106.31" class="green" >T</text></g>
<g><title>35 (position.label in template: 35.G)</title><text x="119.23" y="99.47" class="black" >G</text></g>
<g><title>36 (position.label in template: 36.C)</title><text x="118.3" y="92" class="black" >C</text></g>
<g><title>37 (position.label in template: 37.C)</title><text x="119.32" y="84.51" class="black" >C</text></g>
<g><title>38 (position.label in template: 38.A)</title><text x="122.62" y="77.61" class="black" >A</text></g>
<g><title>39 (position.label in template: 39.G)</title><text x="127.13" y="71.88" class="black" >G</text></g>
<g><title>40 (position.label in template: 40.C)</title><text x="133.69" y="67.77" class="black" >C</text></g>
<g><title>41 (position.label in template: 41.U)</title><text x="140.94" y="65.63" class="green" >T</text></g>
<g><title>42 (position.label in template: 42.G)</title><text x="148.29" y="65.63" class="black" >G</text></g>
<g><title>43 (position.label in template: 43.G)</title><text x="155.54" y="67.77" class="black" >G</text></g>
<g><title>44 (position.label in template: 44.A)</title><text x="162.3" y="71.88" class="black" >A</text></g>
<g><title>45 (position.label in template: 45.U)</title><text x="167.02" y="77.61" class="green" >T</text></g>
<g><line x1="167.716" y1="79.2219" x2="170.524" y2="86.9559" class="black" /></g>
<g><title>46 (position.label in template: 46.A)</title><text x="174.38" y="75.15" class="black" >A</text></g>
<g><line x1="175.045" y1="76.7729" x2="177.705" y2="84.4849" class="black" /></g>
<g><title>47 (position.label in template: 47.C)</title><text x="181.32" y="72.68" class="black" >C</text></g>
<g><line x1="181.954" y1="74.3135" x2="184.466" y2="82.0043" class="black" /></g>
<g><title>48 (position.label in template: 48.A)</title><text x="188.67" y="70.22" class="black" >A</text></g>
<g><line x1="189.273" y1="71.8632" x2="191.647" y2="79.5346" class="black" /></g>
<g><title>49 (position.label in template: 49.A)</title><text x="195.82" y="67.75" class="green" >A</text></g>
<g><line x1="196.454" y1="69.3835" x2="198.966" y2="77.0743" class="black" /></g>
<g><title>50 (position.label in template: 50.C)</title><text x="202.76" y="65.28" class="green" >C</text></g>
<g><line x1="203.425" y1="66.9029" x2="206.085" y2="74.6149" class="black" /></g>
<g><text x="200.484" y="58.7803" class="numbering-label sequential" >50</text></g>
<g><line x1="202.153" y1="63.5467" x2="201.02" y2="60.3107" class="numbering-line sequential" /></g>
<g><title>51 (position.label in template: 51.U)</title><text x="209.9" y="62.82" class="green" >T</text></g>
<g><line x1="210.535" y1="64.453" x2="213.055" y2="72.1448" class="black" /></g>
<g><title>52 (position.label in template: 52.G)</title><text x="216.84" y="60.35" class="black" >G</text></g>
<g><line x1="217.536" y1="61.9619" x2="220.344" y2="69.6959" class="black" /></g>
<g><title>53 (position.label in template: 53.G)</title><text x="223.99" y="57.89" class="green" >G</text></g>
<g><line x1="224.686" y1="59.5019" x2="227.494" y2="67.2359" class="black" /></g>
<g><title>54 (position.label in template: 54.A)</title><text x="231.55" y="55.42" class="green" >A</text></g>
<g><line x1="232.185" y1="57.053" x2="234.705" y2="64.7448" class="black" /></g>
<g><title>55 (position.label in template: 55.U)</title><text x="236.62" y="50" class="green" >T</text></g>
<g><title>56 (position.label in template: 56.A)</title><text x="244.38" y="50.13" class="black" >A</text></g>
<g><title>57 (position.label in template: 57.C)</title><text x="249.27" y="55.71" class="black" >C</text></g>
<g><title>58 (position.label in template: 58.A)</title><text x="248.91" y="63.25" class="black" >A</text></g>
<g><title>59 (position.label in template: 59.A)</title><text x="243.03" y="68.01" class="black" >A</text></g>
<g><title>60 (position.label in template: 60.U)</title><text x="235.34" y="66.99" class="green" >T</text></g>
<g><title>61 (position.label in template: 61.U)</title><text x="228.19" y="69.46" class="green" >T</text></g>
<g><title>62 (position.label in template: 62.C)</title><text x="221.04" y="71.92" class="black" >C</text></g>
<g><title>63 (position.label in template: 63.G)</title><text x="213.69" y="74.39" class="green" >G</text></g>
<g><title>64 (position.label in template: 64.U)</title><text x="206.75" y="76.85" class="green" >T</text></g>
<g><title>65 (position.label in template: 65.U)</title><text x="199.6" y="79.32" class="green" >T</text></g>
<g><title>66 (position.label in template: 66.G)</title><text x="192.25" y="81.79" class="black" >G</text></g>
<g><title>67 (position.label in template: 67.G)</title><text x="185.1" y="84.25" class="black" >G</text></g>
<g><title>68 (position.label in template: 68.A)</title><text x="178.37" y="86.72" class="black" >A</text></g>
<g><title>69 (position.label in template: 69.A)</title><text x="171.22" y="89.18" class="green" >A</text></g>
<g><title>70 (position.label in template: 70.C)</title><text x="170.67" y="96.73" class="black" >C</text></g>
<g><title>71 (position.label in template: 71.U)</title><text x="168.21" y="103.88" class="green" >T</text></g>
<g><title>72 (position.label in template: 72.A)</title><text x="164.03" y="110.04" class="black" >A</text></g>
<g><title>73 (position.label in template: 73.A)</title><text x="158.08" y="114.7" class="black" >A</text></g>
<g><title>74 (position.label in template: 74.C)</title><text x="150.84" y="117.48" class="black" >C</text></g>
<g><title>75 (position.label in template: 75.A)</title><text x="151.05" y="125.04" class="black" >A</text></g>
<g><title>76 (position.label in template: 76.G)</title><text x="150.63" y="132.6" class="black" >G</text></g>
<g><title>77 (position.label in template: 77.U)</title><text x="150.84" y="140.16" class="green" >T</text></g>
<g><title>78 (position.label in template: 78.A)</title><text x="151.05" y="147.72" class="green" >A</text></g>
<g><title>79 (position.label in template: 79.A)</title><text x="151.05" y="155.28" class="black" >A</text></g>
<g><title>80 (position.label in template: 80.A)</title><text x="151.05" y="162.84" class="green" >A</text></g>
<g><title>81 (position.label in template: 81.G)</title><text x="150.63" y="170.4" class="black" >G</text></g>
<g><title>82 (position.label in template: 82.G)</title><text x="150.63" y="177.96" class="black" >G</text></g>
<g><title>83 (position.label in template: 83.3')</title><text x="157.863" y="175.733" class="green" >3'</text></g>
<g><line x1="44.4724" y1="183.005" x2="47.9595" y2="183.005" class="gray" /></g>
<g><line x1="52.0405" y1="183.005" x2="55.5276" y2="183.005" class="gray" /></g>
<g><line x1="59.6085" y1="183.005" x2="63.0956" y2="183.005" class="gray" /></g>
<g><line x1="67.1766" y1="183.005" x2="70.6637" y2="183.005" class="gray" /></g>
<g><line x1="74.7446" y1="183.005" x2="78.2317" y2="183.005" class="gray" /></g>
<g><line x1="82.3126" y1="183.005" x2="85.7997" y2="183.005" class="gray" /></g>
<g><line x1="89.8807" y1="183.005" x2="93.3678" y2="183.005" class="gray" /></g>
<g><line x1="97.4487" y1="183.005" x2="100.936" y2="183.005" class="gray" /></g>
<g><line x1="105.017" y1="183.005" x2="108.504" y2="183.005" class="gray" /></g>
<g><line x1="112.585" y1="183.005" x2="116.072" y2="183.005" class="gray" /></g>
<g><line x1="120.153" y1="183.005" x2="123.64" y2="183.005" class="gray" /></g>
<g><line x1="127.721" y1="183.005" x2="131.208" y2="183.005" class="gray" /></g>
<g><line x1="134.691" y1="181.563" x2="137.157" y2="179.097" class="gray" /></g>
<g><line x1="138.6" y1="175.613" x2="138.6" y2="172.134" class="gray" /></g>
<g><line x1="138.6" y1="168.053" x2="138.6" y2="164.574" class="gray" /></g>
<g><line x1="138.657" y1="160.494" x2="138.753" y2="157.014" class="gray" /></g>
<g><line x1="138.753" y1="152.934" x2="138.657" y2="149.454" class="gray" /></g>
<g><line x1="138.6" y1="145.373" x2="138.6" y2="141.894" class="gray" /></g>
<g><line x1="138.657" y1="137.814" x2="138.753" y2="134.334" class="gray" /></g>
<g><line x1="138.753" y1="130.254" x2="138.657" y2="126.774" class="gray" /></g>
<g><line x1="138.6" y1="122.693" x2="138.6" y2="119.214" class="gray" /></g>
<g><line x1="136.71" y1="116.404" x2="133.669" y2="115.164" class="gray" /></g>
<g><line x1="130.353" y1="115.853" x2="127.817" y2="118.445" class="gray" /></g>
<g><line x1="124.992" y1="121.391" x2="122.617" y2="123.917" class="gray" /></g>
<g><line x1="121.115" y1="127.442" x2="120.935" y2="130.916" class="gray" /></g>
<g><line x1="119.514" y1="134.513" x2="117.266" y2="137.175" class="gray" /></g>
<g><line x1="113.959" y1="139.179" x2="110.561" y2="139.939" class="gray" /></g>
<g><line x1="106.715" y1="139.533" x2="103.555" y2="138.084" class="gray" /></g>
<g><line x1="100.737" y1="135.435" x2="99.0928" y2="132.363" class="gray" /></g>
<g><line x1="98.5062" y1="128.558" x2="99.1535" y2="125.109" class="gray" /></g>
<g><line x1="100.977" y1="121.665" x2="103.343" y2="119.313" class="gray" /></g>
<g><line x1="106.817" y1="117.638" x2="110.063" y2="117.26" class="gray" /></g>
<g><line x1="113.488" y1="115.537" x2="115.872" y2="113.001" class="gray" /></g>
<g><line x1="118.695" y1="110.054" x2="121.224" y2="107.464" class="gray" /></g>
<g><line x1="121.737" y1="104.179" x2="120.142" y2="100.989" class="gray" /></g>
<g><line x1="118.978" y1="97.1391" x2="118.552" y2="93.7188" class="gray" /></g>
<g><line x1="118.575" y1="89.6721" x2="119.045" y2="86.2257" class="gray" /></g>
<g><line x1="120.2" y1="82.3631" x2="121.74" y2="79.1447" class="gray" /></g>
<g><line x1="123.882" y1="75.7005" x2="125.868" y2="73.1773" class="gray" /></g>
<g><line x1="128.859" y1="70.4906" x2="131.961" y2="68.5473" class="gray" /></g>
<g><line x1="135.647" y1="66.8863" x2="138.983" y2="65.9016" class="gray" /></g>
<g><line x1="142.98" y1="65.3239" x2="146.249" y2="65.3239" class="gray" /></g>
<g><line x1="150.247" y1="65.9016" x2="153.583" y2="66.8863" class="gray" /></g>
<g><line x1="157.283" y1="68.524" x2="160.556" y2="70.5139" class="gray" /></g>
<g><line x1="163.597" y1="73.1489" x2="165.723" y2="75.729" class="gray" /></g>
<g><line x1="168.955" y1="76.6571" x2="172.445" y2="75.4908" class="gray" /></g>
<g><line x1="176.302" y1="74.1597" x2="179.398" y2="73.0581" class="gray" /></g>
<g><line x1="183.255" y1="71.7263" x2="186.735" y2="70.5616" class="gray" /></g>
<g><line x1="190.599" y1="69.2477" x2="193.891" y2="68.1102" class="gray" /></g>
<g><line x1="197.742" y1="66.7597" x2="200.838" y2="65.6581" class="gray" /></g>
<g><line x1="204.689" y1="64.3093" x2="207.971" y2="63.1786" class="gray" /></g>
<g><line x1="211.822" y1="61.8297" x2="214.918" y2="60.7281" class="gray" /></g>
<g><line x1="218.769" y1="59.3801" x2="222.06" y2="58.2478" class="gray" /></g>
<g><line x1="225.929" y1="56.9502" x2="229.61" y2="55.7476" class="gray" /></g>
<g><line x1="232.944" y1="53.6238" x2="235.226" y2="51.1841" class="gray" /></g>
<g><line x1="238.66" y1="49.7281" x2="242.34" y2="49.7898" class="gray" /></g>
<g><line x1="245.725" y1="51.3585" x2="247.925" y2="53.8693" class="gray" /></g>
<g><line x1="249.173" y1="57.4421" x2="249.007" y2="60.9058" class="gray" /></g>
<g><line x1="247.324" y1="64.2278" x2="244.616" y2="66.4201" class="gray" /></g>
<g><line x1="241.007" y1="67.4356" x2="237.363" y2="66.9522" class="gray" /></g>
<g><line x1="233.411" y1="67.3502" x2="230.119" y2="68.4877" class="gray" /></g>
<g><line x1="226.26" y1="69.8178" x2="222.969" y2="70.9501" class="gray" /></g>
<g><line x1="219.106" y1="72.2639" x2="215.624" y2="73.4339" class="gray" /></g>
<g><line x1="211.767" y1="74.7656" x2="208.673" y2="75.8622" class="gray" /></g>
<g><line x1="204.821" y1="77.2102" x2="201.529" y2="78.3477" class="gray" /></g>
<g><line x1="197.666" y1="79.6639" x2="194.184" y2="80.8339" class="gray" /></g>
<g><line x1="190.32" y1="82.1478" x2="187.029" y2="83.2801" class="gray" /></g>
<g><line x1="183.184" y1="84.647" x2="180.285" y2="85.7109" class="gray" /></g>
<g><line x1="176.44" y1="87.0778" x2="173.149" y2="88.2101" class="gray" /></g>
<g><line x1="171.072" y1="90.909" x2="170.818" y2="94.3888" class="gray" /></g>
<g><line x1="170.006" y1="98.3534" x2="168.874" y2="101.644" class="gray" /></g>
<g><line x1="167.064" y1="105.262" x2="165.176" y2="108.045" class="gray" /></g>
<g><line x1="162.423" y1="110.992" x2="159.686" y2="113.136" class="gray" /></g>
<g><line x1="156.175" y1="115.125" x2="152.745" y2="116.442" class="gray" /></g>
<g><line x1="150.897" y1="119.214" x2="150.993" y2="122.694" class="gray" /></g>
<g><line x1="150.937" y1="126.771" x2="150.743" y2="130.257" class="gray" /></g>
<g><line x1="150.687" y1="134.334" x2="150.783" y2="137.814" class="gray" /></g>
<g><line x1="150.897" y1="141.894" x2="150.993" y2="145.374" class="gray" /></g>
<g><line x1="151.05" y1="149.454" x2="151.05" y2="152.933" class="gray" /></g>
<g><line x1="151.05" y1="157.014" x2="151.05" y2="160.493" class="gray" /></g>
<g><line x1="150.937" y1="164.571" x2="150.743" y2="168.057" class="gray" /></g>
<g><line x1="150.63" y1="172.134" x2="150.63" y2="175.613" class="gray" /></g>
<g><line x1="152.58" y1="177.054" x2="155.913" y2="176.027" class="gray" /></g>
</svg>
