<svg
	xmlns="http://www.w3.org/2000/svg"
	width="231.5"
	height="242.05">
<g><style type="text/css" >
<!-- create color definitions -->
<![CDATA[
circle.red {stroke: rgb(255, 0, 255); fill: none; }
circle.green {stroke: rgb(0, 255, 0); fill: none; }
circle.blue {stroke: rgb(0, 0, 255); fill: none; }
circle.black {stroke: rgb(0, 0, 0); fill: none; }
circle.gray {stroke: rgb(204, 204, 204); fill: none; }
circle.brown {stroke: rgb(211.65, 104.55, 30.6); fill: none; }
line.red {stroke: rgb(255, 0, 255); stroke-width: 0.381338; }
line.green {stroke: rgb(0, 255, 0); stroke-width: 0.381338; }
line.blue {stroke: rgb(0, 0, 255); stroke-width: 0.381338; }
line.black {stroke: rgb(0, 0, 0); stroke-width: 0.381338; }
line.gray {stroke: rgb(204, 204, 204); stroke-width: 0.381338; }
line.brown {stroke: rgb(211.65, 104.55, 30.6); stroke-width: 0.381338; }
line {stroke: rgb(0, 0, 0); }
text.red {fill: rgb(255, 0, 255); font-size: 3.050704px; font-weight: bold; font-family: Helvetica; }
text.green {fill: rgb(0, 255, 0); font-size: 3.050704px; font-weight: bold; font-family: Helvetica; }
text.blue {fill: rgb(0, 0, 255); font-size: 3.050704px; font-weight: bold; font-family: Helvetica; }
text.black {fill: rgb(0, 0, 0); font-size: 3.050704px; font-weight: bold; font-family: Helvetica; }
text.gray {fill: rgb(204, 204, 204); font-size: 3.050704px; font-weight: bold; font-family: Helvetica; }
text.brown {fill: rgb(211.65, 104.55, 30.6); font-size: 3.050704px; font-weight: bold; font-family: Helvetica; }
text {fill: rgb(0, 0, 0); font-size: 3.050704px; font-weight: bold; font-family: Helvetica; text-anchor: middle; alignment-baseline: middle; }

.pseudoknot_connection{stroke-linecap: round; stroke-opacity: 0.2; stroke-width: 1.5; }
.pseudoknot_segment1{stroke-linecap: round; stroke-opacity: 0.4; stroke-width: 3.0507; }
.pseudoknot_segment2{stroke-linecap: round; stroke-opacity: 0.4; stroke-width: 3.0507; }
line.numbering-line{stroke: rgb(204, 204, 204); stroke-width: 0.190669; }
line.predicted{stroke: rgb(0, 0, 0); stroke-dasharray: 2; }
polyline{fill: none; stroke-linejoin: round; }
template{visibility: hidden; }
text.numbering-label{fill: rgb(204, 204, 204); }
]]>
</style></g>
<g><title>0 (position.label in template: 0.5')</title><text x="114.9" y="194.152" class="green" >5'</text></g>
<g><title>1 (position.label in template: 1.G)</title><text x="115.11" y="186.59" class="black" >G</text></g>
<g><line x1="117.144" y1="186.285" x2="125.526" y2="186.285" class="black" /></g>
<g><title>2 (position.label in template: 2.U)</title><text x="115.32" y="179.03" class="green" >T</text></g>
<g><line x1="117.354" y1="178.725" x2="125.726" y2="178.725" class="black" /></g>
<g><title>3 (position.label in template: 3.A)</title><text x="115.52" y="171.47" class="green" >A</text></g>
<g><line x1="117.554" y1="171.165" x2="125.526" y2="171.165" class="black" /></g>
<g><title>4 (position.label in template: 4.C)</title><text x="115.32" y="163.91" class="black" >C</text></g>
<g><line x1="117.354" y1="163.605" x2="125.316" y2="163.605" class="black" /></g>
<g><title>5 (position.label in template: 5.C)</title><text x="115.32" y="156.35" class="black" >C</text></g>
<g><line x1="117.354" y1="156.045" x2="125.316" y2="156.045" class="black" /></g>
<g><title>6 (position.label in template: 6.C)</title><text x="115.32" y="148.79" class="black" >C</text></g>
<g><line x1="117.354" y1="148.485" x2="125.316" y2="148.485" class="black" /></g>
<g><title>7 (position.label in template: 7.G)</title><text x="115.11" y="141.23" class="black" >G</text></g>
<g><line x1="117.144" y1="140.925" x2="125.526" y2="140.925" class="black" /></g>
<g><title>8 (position.label in template: 8.U)</title><text x="108.5" y="137.97" class="green" >T</text></g>
<g><title>9 (position.label in template: 9.A)</title><text x="103.36" y="132.62" class="black" >A</text></g>
<g><title>10 (position.label in template: 10.G)</title><text x="99.68" y="125.8" class="green" >G</text></g>
<g><line x1="99.7149" y1="123.461" x2="99.8551" y2="115.288" class="black" /></g>
<g><text x="96.0702" y="131.638" class="numbering-label sequential" >10</text></g>
<g><line x1="98.7174" y1="127.357" x2="97.0133" y2="130.113" class="numbering-line sequential" /></g>
<g><title>11 (position.label in template: 11.C)</title><text x="92.33" y="125.8" class="black" >C</text></g>
<g><line x1="92.2951" y1="123.461" x2="92.1549" y2="115.288" class="black" /></g>
<g><title>12 (position.label in template: 12.U)</title><text x="84.77" y="125.8" class="green" >T</text></g>
<g><line x1="84.8049" y1="123.461" x2="84.9451" y2="115.288" class="black" /></g>
<g><title>13 (position.label in template: 13.C)</title><text x="77.21" y="125.8" class="black" >C</text></g>
<g><line x1="77.1751" y1="123.461" x2="77.0349" y2="115.288" class="black" /></g>
<g><title>14 (position.label in template: 14.A)</title><text x="72.46" y="131.51" class="black" >A</text></g>
<g><title>15 (position.label in template: 15.G)</title><text x="64.86" y="133.86" class="black" >G</text></g>
<g><title>16 (position.label in template: 16.U)</title><text x="57.69" y="132.19" class="green" >T</text></g>
<g><title>17 (position.label in template: 17.U)</title><text x="52.22" y="126.97" class="green" >T</text></g>
<g><title>18 (position.label in template: 18.G)</title><text x="50" y="119.68" class="black" >G</text></g>
<g><title>19 (position.label in template: 19.G)</title><text x="52.01" y="112.4" class="black" >G</text></g>
<g><title>20 (position.label in template: 20.A)</title><text x="57.9" y="107.18" class="black" >A</text></g>
<g><text x="54.6971" y="101.109" class="numbering-label sequential" >20</text></g>
<g><line x1="57.0459" y1="105.561" x2="55.5019" y2="102.634" class="numbering-line sequential" /></g>
<g><title>21 (position.label in template: 21.U)</title><text x="65.07" y="105.51" class="green" >T</text></g>
<g><title>22 (position.label in template: 22.A)</title><text x="72.46" y="107.86" class="black" >A</text></g>
<g><title>23 (position.label in template: 23.G)</title><text x="77" y="113.56" class="black" >G</text></g>
<g><title>24 (position.label in template: 24.A)</title><text x="84.98" y="113.56" class="green" >A</text></g>
<g><title>25 (position.label in template: 25.G)</title><text x="92.12" y="113.56" class="black" >G</text></g>
<g><title>26 (position.label in template: 26.U)</title><text x="99.89" y="113.56" class="green" >T</text></g>
<g><title>27 (position.label in template: 27.G)</title><text x="102.94" y="106.75" class="black" >G</text></g>
<g><title>28 (position.label in template: 28.U)</title><text x="108.5" y="101.4" class="green" >T</text></g>
<g><line x1="110.422" y1="100.429" x2="118.328" y2="97.6906" class="black" /></g>
<g><title>29 (position.label in template: 29.C)</title><text x="105.98" y="94.27" class="black" >C</text></g>
<g><line x1="107.894" y1="93.2779" x2="115.406" y2="90.582" class="black" /></g>
<g><title>30 (position.label in template: 30.A)</title><text x="103.67" y="87.14" class="green" >A</text></g>
<g><line x1="105.584" y1="86.1479" x2="113.096" y2="83.452" class="black" /></g>
<g><text x="97.2271" y="89.5075" class="numbering-label sequential" >30</text></g>
<g><line x1="101.952" y1="87.7713" x2="99.0576" y2="88.8349" class="numbering-line sequential" /></g>
<g><title>31 (position.label in template: 31.G)</title><text x="100.74" y="80.01" class="black" >G</text></g>
<g><line x1="102.662" y1="79.0398" x2="110.578" y2="76.3001" class="black" /></g>
<g><title>32 (position.label in template: 32.C)</title><text x="98.44" y="72.88" class="black" >C</text></g>
<g><line x1="100.354" y1="71.8874" x2="107.856" y2="69.1925" class="black" /></g>
<g><title>33 (position.label in template: 33.C)</title><text x="91.91" y="69.07" class="black" >C</text></g>
<g><title>34 (position.label in template: 34.U)</title><text x="89.02" y="62.08" class="green" >T</text></g>
<g><title>35 (position.label in template: 35.C)</title><text x="90.94" y="54.77" class="black" >C</text></g>
<g><title>36 (position.label in template: 36.C)</title><text x="96.9" y="50.11" class="black" >C</text></g>
<g><title>37 (position.label in template: 37.G)</title><text x="104.25" y="50" class="black" >G</text></g>
<g><title>38 (position.label in template: 38.A)</title><text x="110.75" y="54.49" class="black" >A</text></g>
<g><title>39 (position.label in template: 39.A)</title><text x="112.88" y="61.75" class="black" >A</text></g>
<g><title>40 (position.label in template: 40.G)</title><text x="109.77" y="68.81" class="black" >G</text></g>
<g><title>41 (position.label in template: 41.C)</title><text x="112.5" y="75.94" class="black" >C</text></g>
<g><title>42 (position.label in template: 42.U)</title><text x="115.01" y="83.07" class="green" >T</text></g>
<g><title>43 (position.label in template: 43.G)</title><text x="117.32" y="90.2" class="black" >G</text></g>
<g><title>44 (position.label in template: 44.A)</title><text x="120.25" y="97.33" class="green" >A</text></g>
<g><title>45 (position.label in template: 45.A)</title><text x="127.76" y="98.14" class="black" >A</text></g>
<g><title>46 (position.label in template: 46.G)</title><text x="134.17" y="101.4" class="black" >G</text></g>
<g><title>47 (position.label in template: 47.G)</title><text x="139.51" y="106.75" class="black" >G</text></g>
<g><title>48 (position.label in template: 48.U)</title><text x="142.99" y="113.56" class="green" >T</text></g>
<g><title>49 (position.label in template: 49.C)</title><text x="143.79" y="121.08" class="black" >C</text></g>
<g><title>50 (position.label in template: 50.G)</title><text x="141.85" y="128.44" class="green" >G</text></g>
<g><line x1="140.595" y1="129.736" x2="135.635" y2="136.064" class="black" /></g>
<g><text x="148.343" y="126.213" class="numbering-label sequential" >50</text></g>
<g><line x1="143.581" y1="127.846" x2="146.512" y2="126.841" class="numbering-line sequential" /></g>
<g><title>51 (position.label in template: 51.C)</title><text x="147.94" y="133.18" class="black" >C</text></g>
<g><line x1="146.643" y1="134.442" x2="141.347" y2="140.838" class="black" /></g>
<g><title>52 (position.label in template: 52.U)</title><text x="153.83" y="137.93" class="green" >T</text></g>
<g><line x1="152.575" y1="139.226" x2="147.615" y2="145.554" class="black" /></g>
<g><title>53 (position.label in template: 53.G)</title><text x="159.51" y="142.67" class="black" >G</text></g>
<g><line x1="158.255" y1="143.966" x2="153.295" y2="150.294" class="black" /></g>
<g><title>54 (position.label in template: 54.G)</title><text x="165.39" y="147.41" class="black" >G</text></g>
<g><line x1="164.135" y1="148.706" x2="159.175" y2="155.034" class="black" /></g>
<g><title>55 (position.label in template: 55.U)</title><text x="173.16" y="147.22" class="green" >T</text></g>
<g><title>56 (position.label in template: 56.U)</title><text x="179.29" y="151.65" class="green" >T</text></g>
<g><title>57 (position.label in template: 57.C)</title><text x="181.5" y="158.88" class="black" >C</text></g>
<g><title>58 (position.label in template: 58.G)</title><text x="178.67" y="165.97" class="black" >G</text></g>
<g><title>59 (position.label in template: 59.A)</title><text x="172.72" y="170.04" class="black" >A</text></g>
<g><title>60 (position.label in template: 60.U)</title><text x="164.97" y="169.42" class="green" >T</text></g>
<g><title>61 (position.label in template: 61.U)</title><text x="159.35" y="164.37" class="green" >T</text></g>
<g><title>62 (position.label in template: 62.C)</title><text x="157.92" y="156.94" class="black" >C</text></g>
<g><title>63 (position.label in template: 63.C)</title><text x="152.04" y="152.2" class="black" >C</text></g>
<g><title>64 (position.label in template: 64.A)</title><text x="146.36" y="147.46" class="green" >A</text></g>
<g><title>65 (position.label in template: 65.G)</title><text x="140.05" y="142.71" class="black" >G</text></g>
<g><title>66 (position.label in template: 66.U)</title><text x="134.38" y="137.97" class="green" >T</text></g>
<g><title>67 (position.label in template: 67.C)</title><text x="127.56" y="141.23" class="black" >C</text></g>
<g><title>68 (position.label in template: 68.G)</title><text x="127.35" y="148.79" class="black" >G</text></g>
<g><title>69 (position.label in template: 69.G)</title><text x="127.35" y="156.35" class="black" >G</text></g>
<g><title>70 (position.label in template: 70.G)</title><text x="127.35" y="163.91" class="black" >G</text></g>
<g><title>71 (position.label in template: 71.U)</title><text x="127.56" y="171.47" class="green" >T</text></g>
<g><title>72 (position.label in template: 72.A)</title><text x="127.76" y="179.03" class="green" >A</text></g>
<g><title>73 (position.label in template: 73.C)</title><text x="127.56" y="186.59" class="black" >C</text></g>
<g><title>74 (position.label in template: 74.G)</title><text x="132.796" y="192.05" class="black" >G</text></g>
<g><title>75 (position.label in template: 75.3')</title><text x="127.559" y="197.509" class="green" >3'</text></g>
<g><line x1="114.956" y1="191.814" x2="115.054" y2="188.318" class="gray" /></g>
<g><line x1="115.166" y1="184.252" x2="115.264" y2="180.758" class="gray" /></g>
<g><line x1="115.374" y1="176.692" x2="115.466" y2="173.198" class="gray" /></g>
<g><line x1="115.466" y1="169.132" x2="115.374" y2="165.638" class="gray" /></g>
<g><line x1="115.32" y1="161.571" x2="115.32" y2="158.079" class="gray" /></g>
<g><line x1="115.32" y1="154.011" x2="115.32" y2="150.519" class="gray" /></g>
<g><line x1="115.264" y1="146.452" x2="115.166" y2="142.958" class="gray" /></g>
<g><line x1="113.286" y1="140.025" x2="110.324" y2="138.565" class="gray" /></g>
<g><line x1="107.091" y1="136.198" x2="104.769" y2="133.782" class="gray" /></g>
<g><line x1="102.394" y1="130.525" x2="100.646" y2="127.285" class="gray" /></g>
<g><line x1="97.6462" y1="125.495" x2="94.3638" y2="125.495" class="gray" /></g>
<g><line x1="90.2962" y1="125.495" x2="86.8038" y2="125.495" class="gray" /></g>
<g><line x1="82.7362" y1="125.495" x2="79.2438" y2="125.495" class="gray" /></g>
<g><line x1="75.9093" y1="127.058" x2="73.7607" y2="129.641" class="gray" /></g>
<g><line x1="70.517" y1="131.806" x2="66.803" y2="132.954" class="gray" /></g>
<g><line x1="62.8792" y1="133.094" x2="59.6708" y2="132.346" class="gray" /></g>
<g><line x1="56.2187" y1="130.481" x2="53.6913" y2="128.069" class="gray" /></g>
<g><line x1="51.6275" y1="124.719" x2="50.5925" y2="121.321" class="gray" /></g>
<g><line x1="50.5413" y1="117.414" x2="51.4687" y2="114.055" class="gray" /></g>
<g><line x1="53.5321" y1="110.746" x2="56.3779" y2="108.224" class="gray" /></g>
<g><line x1="59.8808" y1="106.414" x2="63.0892" y2="105.666" class="gray" /></g>
<g><line x1="67.0082" y1="105.821" x2="70.5218" y2="106.939" class="gray" /></g>
<g><line x1="73.7271" y1="109.146" x2="75.7329" y2="111.664" class="gray" /></g>
<g><line x1="79.0338" y1="113.255" x2="82.9462" y2="113.255" class="gray" /></g>
<g><line x1="87.0138" y1="113.255" x2="90.0862" y2="113.255" class="gray" /></g>
<g><line x1="94.1538" y1="113.255" x2="97.8562" y2="113.255" class="gray" /></g>
<g><line x1="100.721" y1="111.399" x2="102.109" y2="108.301" class="gray" /></g>
<g><line x1="104.406" y1="105.035" x2="107.034" y2="102.505" class="gray" /></g>
<g><line x1="107.822" y1="99.1774" x2="106.658" y2="95.8825" class="gray" /></g>
<g><line x1="105.353" y1="92.0301" x2="104.297" y2="88.7697" class="gray" /></g>
<g><line x1="102.897" y1="84.9538" x2="101.513" y2="81.5861" class="gray" /></g>
<g><line x1="100.116" y1="77.7693" x2="99.0644" y2="74.5105" class="gray" /></g>
<g><line x1="96.6833" y1="71.55" x2="93.6667" y2="69.7899" class="gray" /></g>
<g><line x1="91.1329" y1="66.8854" x2="89.7971" y2="63.6544" class="gray" /></g>
<g><line x1="89.5367" y1="59.8078" x2="90.4233" y2="56.432" class="gray" /></g>
<g><line x1="92.5422" y1="53.2122" x2="95.2978" y2="51.0577" class="gray" /></g>
<g><line x1="98.9336" y1="49.7745" x2="102.216" y2="49.7254" class="gray" /></g>
<g><line x1="105.923" y1="50.8508" x2="109.077" y2="53.029" class="gray" /></g>
<g><line x1="111.323" y1="56.1365" x2="112.307" y2="59.4934" class="gray" /></g>
<g><line x1="112.06" y1="63.3061" x2="110.59" y2="66.6437" class="gray" /></g>
<g><line x1="110.497" y1="70.4043" x2="111.773" y2="73.7356" class="gray" /></g>
<g><line x1="113.175" y1="77.5533" x2="114.335" y2="80.8465" class="gray" /></g>
<g><line x1="115.637" y1="84.6997" x2="116.693" y2="87.9601" class="gray" /></g>
<g><line x1="118.093" y1="91.7761" x2="119.477" y2="95.1438" class="gray" /></g>
<g><line x1="122.272" y1="97.243" x2="125.738" y2="97.6168" class="gray" /></g>
<g><line x1="129.573" y1="98.7569" x2="132.357" y2="100.173" class="gray" /></g>
<g><line x1="135.607" y1="102.534" x2="138.073" y2="105.005" class="gray" /></g>
<g><line x1="140.435" y1="108.256" x2="142.065" y2="111.444" class="gray" /></g>
<g><line x1="143.205" y1="115.277" x2="143.575" y2="118.753" class="gray" /></g>
<g><line x1="143.272" y1="122.742" x2="142.368" y2="126.168" class="gray" /></g>
<g><line x1="143.455" y1="129.384" x2="146.335" y2="131.626" class="gray" /></g>
<g><line x1="149.523" y1="134.152" x2="152.247" y2="136.348" class="gray" /></g>
<g><line x1="155.392" y1="138.928" x2="157.948" y2="141.062" class="gray" /></g>
<g><line x1="161.093" y1="143.641" x2="163.807" y2="145.829" class="gray" /></g>
<g><line x1="167.423" y1="147.055" x2="171.127" y2="146.965" class="gray" /></g>
<g><line x1="174.808" y1="148.106" x2="177.642" y2="150.154" class="gray" /></g>
<g><line x1="179.885" y1="153.29" x2="180.905" y2="156.63" class="gray" /></g>
<g><line x1="180.746" y1="160.464" x2="179.424" y2="163.776" class="gray" /></g>
<g><line x1="176.991" y1="166.813" x2="174.399" y2="168.587" class="gray" /></g>
<g><line x1="170.693" y1="169.573" x2="166.997" y2="169.277" class="gray" /></g>
<g><line x1="163.457" y1="167.756" x2="160.863" y2="165.424" class="gray" /></g>
<g><line x1="158.966" y1="162.068" x2="158.304" y2="158.632" class="gray" /></g>
<g><line x1="156.337" y1="155.359" x2="153.623" y2="153.171" class="gray" /></g>
<g><line x1="150.478" y1="150.592" x2="147.922" y2="148.458" class="gray" /></g>
<g><line x1="144.735" y1="145.932" x2="141.675" y2="143.628" class="gray" /></g>
<g><line x1="138.49" y1="141.1" x2="135.94" y2="138.969" class="gray" /></g>
<g><line x1="132.545" y1="138.542" x2="129.395" y2="140.048" class="gray" /></g>
<g><line x1="127.504" y1="142.958" x2="127.406" y2="146.452" class="gray" /></g>
<g><line x1="127.35" y1="150.519" x2="127.35" y2="154.011" class="gray" /></g>
<g><line x1="127.35" y1="158.079" x2="127.35" y2="161.571" class="gray" /></g>
<g><line x1="127.406" y1="165.638" x2="127.504" y2="169.132" class="gray" /></g>
<g><line x1="127.614" y1="173.198" x2="127.706" y2="176.692" class="gray" /></g>
<g><line x1="127.706" y1="180.758" x2="127.614" y2="184.252" class="gray" /></g>
<g><line x1="128.968" y1="187.753" x2="131.388" y2="190.277" class="gray" /></g>
<g><line x1="131.388" y1="193.213" x2="128.967" y2="195.736" class="gray" /></g>
</svg>
