<svg
	xmlns="http://www.w3.org/2000/svg"
	width="228.44"
	height="241.837">
<g><style type="text/css" >
<!-- create color definitions -->
<![CDATA[
circle.red {stroke: rgb(255, 0, 255); fill: none; }
circle.green {stroke: rgb(0, 255, 0); fill: none; }
circle.blue {stroke: rgb(0, 0, 255); fill: none; }
circle.black {stroke: rgb(0, 0, 0); fill: none; }
circle.gray {stroke: rgb(204, 204, 204); fill: none; }
circle.brown {stroke: rgb(211.65, 104.55, 30.6); fill: none; }
line.red {stroke: rgb(255, 0, 255); stroke-width: 0.38266; }
line.green {stroke: rgb(0, 255, 0); stroke-width: 0.38266; }
line.blue {stroke: rgb(0, 0, 255); stroke-width: 0.38266; }
line.black {stroke: rgb(0, 0, 0); stroke-width: 0.38266; }
line.gray {stroke: rgb(204, 204, 204); stroke-width: 0.38266; }
line.brown {stroke: rgb(211.65, 104.55, 30.6); stroke-width: 0.38266; }
line {stroke: rgb(0, 0, 0); }
text.red {fill: rgb(255, 0, 255); font-size: 3.061280px; font-weight: bold; font-family: Helvetica; }
text.green {fill: rgb(0, 255, 0); font-size: 3.061280px; font-weight: bold; font-family: Helvetica; }
text.blue {fill: rgb(0, 0, 255); font-size: 3.061280px; font-weight: bold; font-family: Helvetica; }
text.black {fill: rgb(0, 0, 0); font-size: 3.061280px; font-weight: bold; font-family: Helvetica; }
text.gray {fill: rgb(204, 204, 204); font-size: 3.061280px; font-weight: bold; font-family: Helvetica; }
text.brown {fill: rgb(211.65, 104.55, 30.6); font-size: 3.061280px; font-weight: bold; font-family: Helvetica; }
text {fill: rgb(0, 0, 0); font-size: 3.061280px; font-weight: bold; font-family: Helvetica; text-anchor: middle; alignment-baseline: middle; }

.pseudoknot_connection{stroke-linecap: round; stroke-opacity: 0.2; stroke-width: 1.5; }
.pseudoknot_segment1{stroke-linecap: round; stroke-opacity: 0.4; stroke-width: 3.06128; }
.pseudoknot_segment2{stroke-linecap: round; stroke-opacity: 0.4; stroke-width: 3.06128; }
line.numbering-line{stroke: rgb(204, 204, 204); stroke-width: 0.19133; }
line.predicted{stroke: rgb(0, 0, 0); stroke-dasharray: 2; }
polyline{fill: none; stroke-linejoin: round; }
template{visibility: hidden; }
text.numbering-label{fill: rgb(204, 204, 204); }
]]>
</style></g>
<g><title>0 (position.label in template: 0.5')</title><text x="112.68" y="194.148" class="green" >5'</text></g>
<g><title>1 (position.label in template: 1.A)</title><text x="112.47" y="186.59" class="black" >A</text></g>
<g><line x1="114.511" y1="186.284" x2="122.459" y2="186.284" class="black" /></g>
<g><title>2 (position.label in template: 2.C)</title><text x="112.26" y="179.03" class="black" >C</text></g>
<g><line x1="114.301" y1="178.724" x2="122.249" y2="178.724" class="black" /></g>
<g><title>3 (position.label in template: 3.C)</title><text x="112.26" y="171.47" class="black" >C</text></g>
<g><line x1="114.301" y1="171.164" x2="122.249" y2="171.164" class="black" /></g>
<g><title>4 (position.label in template: 4.U)</title><text x="112.26" y="163.91" class="green" >T</text></g>
<g><line x1="114.301" y1="163.604" x2="122.249" y2="163.604" class="black" /></g>
<g><title>5 (position.label in template: 5.U)</title><text x="112.26" y="156.35" class="green" >T</text></g>
<g><line x1="114.301" y1="156.044" x2="122.669" y2="156.044" class="black" /></g>
<g><title>6 (position.label in template: 6.C)</title><text x="112.26" y="148.79" class="black" >C</text></g>
<g><line x1="114.301" y1="148.484" x2="122.669" y2="148.484" class="black" /></g>
<g><title>7 (position.label in template: 7.G)</title><text x="112.05" y="141.23" class="black" >G</text></g>
<g><line x1="114.091" y1="140.924" x2="122.459" y2="140.924" class="black" /></g>
<g><title>8 (position.label in template: 8.U)</title><text x="105.44" y="137.97" class="green" >T</text></g>
<g><title>9 (position.label in template: 9.G)</title><text x="99.88" y="132.62" class="black" >G</text></g>
<g><title>10 (position.label in template: 10.G)</title><text x="96.62" y="125.8" class="black" >G</text></g>
<g><line x1="96.655" y1="123.453" x2="96.795" y2="115.294" class="black" /></g>
<g><text x="92.8956" y="131.594" class="numbering-label sequential" >10</text></g>
<g><line x1="95.6268" y1="127.345" x2="93.8795" y2="130.063" class="numbering-line sequential" /></g>
<g><title>11 (position.label in template: 11.U)</title><text x="89.27" y="125.8" class="green" >T</text></g>
<g><line x1="89.305" y1="123.453" x2="89.445" y2="115.294" class="black" /></g>
<g><title>12 (position.label in template: 12.G)</title><text x="81.5" y="125.8" class="black" >G</text></g>
<g><line x1="81.535" y1="123.453" x2="81.675" y2="115.294" class="black" /></g>
<g><title>13 (position.label in template: 13.U)</title><text x="74.15" y="125.8" class="green" >T</text></g>
<g><line x1="74.115" y1="123.453" x2="73.975" y2="115.294" class="black" /></g>
<g><title>14 (position.label in template: 14.A)</title><text x="69.02" y="131.16" class="black" >A</text></g>
<g><title>15 (position.label in template: 15.A)</title><text x="61.6" y="132.64" class="black" >A</text></g>
<g><title>16 (position.label in template: 16.C)</title><text x="54.41" y="129.75" class="black" >C</text></g>
<g><title>17 (position.label in template: 17.G)</title><text x="50" y="123.46" class="black" >G</text></g>
<g><title>18 (position.label in template: 18.G)</title><text x="50" y="115.9" class="black" >G</text></g>
<g><title>19 (position.label in template: 19.U)</title><text x="54.41" y="109.62" class="green" >T</text></g>
<g><title>20 (position.label in template: 20.C)</title><text x="61.4" y="106.73" class="black" >C</text></g>
<g><text x="60.7383" y="99.874" class="numbering-label sequential" >20</text></g>
<g><line x1="61.2236" y1="104.902" x2="60.8861" y2="101.405" class="numbering-line sequential" /></g>
<g><title>21 (position.label in template: 21.A)</title><text x="69.02" y="108.21" class="black" >A</text></g>
<g><title>22 (position.label in template: 22.G)</title><text x="73.94" y="113.56" class="green" >G</text></g>
<g><title>23 (position.label in template: 23.C)</title><text x="81.71" y="113.56" class="black" >C</text></g>
<g><title>24 (position.label in template: 24.A)</title><text x="89.48" y="113.56" class="green" >A</text></g>
<g><title>25 (position.label in template: 25.C)</title><text x="96.83" y="113.56" class="black" >C</text></g>
<g><title>26 (position.label in template: 26.G)</title><text x="99.88" y="106.75" class="black" >G</text></g>
<g><title>27 (position.label in template: 27.C)</title><text x="105.44" y="101.4" class="black" >C</text></g>
<g><line x1="107.361" y1="100.404" x2="114.849" y2="97.7138" class="black" /></g>
<g><title>28 (position.label in template: 28.U)</title><text x="102.92" y="94.27" class="green" >T</text></g>
<g><line x1="104.848" y1="93.2959" x2="112.742" y2="90.5619" class="black" /></g>
<g><title>29 (position.label in template: 29.G)</title><text x="100.2" y="87.14" class="black" >G</text></g>
<g><line x1="102.128" y1="86.1659" x2="110.022" y2="83.4319" class="black" /></g>
<g><title>30 (position.label in template: 30.G)</title><text x="97.69" y="80.01" class="black" >G</text></g>
<g><line x1="99.6184" y1="79.0359" x2="107.512" y2="76.3019" class="black" /></g>
<g><text x="91.1944" y="82.3012" class="numbering-label sequential" >30</text></g>
<g><line x1="95.9578" y1="80.621" x2="93.0311" y2="81.6533" class="numbering-line sequential" /></g>
<g><title>31 (position.label in template: 31.G)</title><text x="95.17" y="72.88" class="green" >G</text></g>
<g><line x1="97.0984" y1="71.9059" x2="104.992" y2="69.1719" class="black" /></g>
<g><title>32 (position.label in template: 32.C)</title><text x="88.85" y="69.07" class="black" >C</text></g>
<g><title>33 (position.label in template: 33.G)</title><text x="85.75" y="62.08" class="black" >G</text></g>
<g><title>34 (position.label in template: 34.C)</title><text x="87.88" y="54.77" class="black" >C</text></g>
<g><title>35 (position.label in template: 35.G)</title><text x="93.63" y="50.11" class="black" >G</text></g>
<g><title>36 (position.label in template: 36.U)</title><text x="101.4" y="50" class="green" >T</text></g>
<g><title>37 (position.label in template: 37.A)</title><text x="107.69" y="54.49" class="black" >A</text></g>
<g><title>38 (position.label in template: 38.U)</title><text x="109.61" y="61.75" class="green" >T</text></g>
<g><title>39 (position.label in template: 39.U)</title><text x="106.92" y="68.81" class="green" >T</text></g>
<g><title>40 (position.label in template: 40.C)</title><text x="109.44" y="75.94" class="black" >C</text></g>
<g><title>41 (position.label in template: 41.C)</title><text x="111.95" y="83.07" class="black" >C</text></g>
<g><title>42 (position.label in template: 42.A)</title><text x="114.67" y="90.2" class="green" >A</text></g>
<g><title>43 (position.label in template: 43.G)</title><text x="116.77" y="97.33" class="black" >G</text></g>
<g><title>44 (position.label in template: 44.A)</title><text x="124.71" y="98.14" class="black" >A</text></g>
<g><title>45 (position.label in template: 45.G)</title><text x="131.11" y="101.4" class="black" >G</text></g>
<g><title>46 (position.label in template: 46.G)</title><text x="136.45" y="106.75" class="black" >G</text></g>
<g><title>47 (position.label in template: 47.U)</title><text x="139.93" y="113.56" class="green" >T</text></g>
<g><title>48 (position.label in template: 48.G)</title><text x="140.53" y="121.08" class="black" >G</text></g>
<g><title>49 (position.label in template: 49.C)</title><text x="139" y="128.44" class="black" >C</text></g>
<g><line x1="137.699" y1="129.706" x2="132.411" y2="136.092" class="black" /></g>
<g><title>50 (position.label in template: 50.G)</title><text x="144.67" y="133.18" class="green" >G</text></g>
<g><line x1="143.412" y1="134.481" x2="138.468" y2="140.797" class="black" /></g>
<g><text x="148.993" y="127.818" class="numbering-label sequential" >50</text></g>
<g><line x1="145.823" y1="131.75" x2="147.759" y2="129.349" class="numbering-line sequential" /></g>
<g><title>51 (position.label in template: 51.U)</title><text x="150.77" y="137.93" class="green" >T</text></g>
<g><line x1="149.489" y1="139.213" x2="144.371" y2="145.565" class="black" /></g>
<g><title>52 (position.label in template: 52.G)</title><text x="156.45" y="142.67" class="black" >G</text></g>
<g><line x1="155.191" y1="143.97" x2="150.239" y2="150.288" class="black" /></g>
<g><title>53 (position.label in template: 53.G)</title><text x="162.34" y="147.41" class="black" >G</text></g>
<g><line x1="161.081" y1="148.71" x2="156.129" y2="155.028" class="black" /></g>
<g><title>54 (position.label in template: 54.U)</title><text x="170.1" y="147.22" class="green" >T</text></g>
<g><title>55 (position.label in template: 55.U)</title><text x="176.24" y="151.65" class="green" >T</text></g>
<g><title>56 (position.label in template: 56.C)</title><text x="178.44" y="158.88" class="black" >C</text></g>
<g><title>57 (position.label in template: 57.G)</title><text x="175.62" y="165.97" class="black" >G</text></g>
<g><title>58 (position.label in template: 58.A)</title><text x="169.66" y="170.04" class="black" >A</text></g>
<g><title>59 (position.label in template: 59.G)</title><text x="161.71" y="169.42" class="black" >G</text></g>
<g><title>60 (position.label in template: 60.U)</title><text x="156.29" y="164.37" class="green" >T</text></g>
<g><title>61 (position.label in template: 61.C)</title><text x="154.87" y="156.94" class="black" >C</text></g>
<g><title>62 (position.label in template: 62.C)</title><text x="148.98" y="152.2" class="black" >C</text></g>
<g><title>63 (position.label in template: 63.C)</title><text x="143.09" y="147.46" class="green" >C</text></g>
<g><title>64 (position.label in template: 64.U)</title><text x="137.21" y="142.71" class="green" >T</text></g>
<g><title>65 (position.label in template: 65.G)</title><text x="131.11" y="137.97" class="black" >G</text></g>
<g><title>66 (position.label in template: 66.C)</title><text x="124.5" y="141.23" class="black" >C</text></g>
<g><title>67 (position.label in template: 67.A)</title><text x="124.71" y="148.79" class="black" >A</text></g>
<g><title>68 (position.label in template: 68.A)</title><text x="124.71" y="156.35" class="green" >A</text></g>
<g><title>69 (position.label in template: 69.G)</title><text x="124.29" y="163.91" class="green" >G</text></g>
<g><title>70 (position.label in template: 70.G)</title><text x="124.29" y="171.47" class="black" >G</text></g>
<g><title>71 (position.label in template: 71.G)</title><text x="124.29" y="179.03" class="black" >G</text></g>
<g><title>72 (position.label in template: 72.C)</title><text x="124.5" y="186.59" class="black" >C</text></g>
<g><title>73 (position.label in template: 73.A)</title><text x="129.944" y="191.837" class="black" >A</text></g>
<g><title>74 (position.label in template: 74.3')</title><text x="124.71" y="197.294" class="green" >3'</text></g>
<g><line x1="112.623" y1="191.802" x2="112.527" y2="188.324" class="gray" /></g>
<g><line x1="112.413" y1="184.244" x2="112.317" y2="180.764" class="gray" /></g>
<g><line x1="112.26" y1="176.683" x2="112.26" y2="173.205" class="gray" /></g>
<g><line x1="112.26" y1="169.123" x2="112.26" y2="165.645" class="gray" /></g>
<g><line x1="112.26" y1="161.563" x2="112.26" y2="158.085" class="gray" /></g>
<g><line x1="112.26" y1="154.003" x2="112.26" y2="150.525" class="gray" /></g>
<g><line x1="112.203" y1="146.444" x2="112.107" y2="142.964" class="gray" /></g>
<g><line x1="110.22" y1="140.021" x2="107.27" y2="138.567" class="gray" /></g>
<g><line x1="103.969" y1="136.249" x2="101.351" y2="133.729" class="gray" /></g>
<g><line x1="98.9998" y1="130.473" x2="97.5002" y2="127.335" class="gray" /></g>
<g><line x1="94.5791" y1="125.494" x2="91.3109" y2="125.494" class="gray" /></g>
<g><line x1="87.2291" y1="125.494" x2="83.5409" y2="125.494" class="gray" /></g>
<g><line x1="79.4591" y1="125.494" x2="76.1909" y2="125.494" class="gray" /></g>
<g><line x1="72.7389" y1="126.968" x2="70.4311" y2="129.379" class="gray" /></g>
<g><line x1="67.0186" y1="131.253" x2="63.6014" y2="131.935" class="gray" /></g>
<g><line x1="59.7064" y1="131.573" x2="56.3036" y2="130.205" class="gray" /></g>
<g><line x1="53.2384" y1="127.773" x2="51.1716" y2="124.825" class="gray" /></g>
<g><line x1="50" y1="121.113" x2="50" y2="117.635" class="gray" /></g>
<g><line x1="51.1729" y1="113.924" x2="53.2371" y2="110.984" class="gray" /></g>
<g><line x1="56.296" y1="108.534" x2="59.514" y2="107.204" class="gray" /></g>
<g><line x1="63.4034" y1="106.813" x2="67.0166" y2="107.515" class="gray" /></g>
<g><line x1="70.4015" y1="109.406" x2="72.5585" y2="111.752" class="gray" /></g>
<g><line x1="75.9809" y1="113.254" x2="79.6691" y2="113.254" class="gray" /></g>
<g><line x1="83.7509" y1="113.254" x2="87.4391" y2="113.254" class="gray" /></g>
<g><line x1="91.5209" y1="113.254" x2="94.7891" y2="113.254" class="gray" /></g>
<g><line x1="97.6642" y1="111.391" x2="99.0458" y2="108.306" class="gray" /></g>
<g><line x1="101.351" y1="105.029" x2="103.969" y2="102.509" class="gray" /></g>
<g><line x1="104.76" y1="99.1697" x2="103.6" y2="95.8881" class="gray" /></g>
<g><line x1="102.193" y1="92.0571" x2="100.927" y2="88.7407" class="gray" /></g>
<g><line x1="99.5223" y1="84.9088" x2="98.3677" y2="81.6289" class="gray" /></g>
<g><line x1="97.0099" y1="77.7797" x2="95.8501" y2="74.4981" class="gray" /></g>
<g><line x1="93.4222" y1="71.5202" x2="90.5978" y2="69.8175" class="gray" /></g>
<g><line x1="88.0226" y1="66.8983" x2="86.5774" y2="63.6395" class="gray" /></g>
<g><line x1="86.3209" y1="59.8145" x2="87.3091" y2="56.4232" class="gray" /></g>
<g><line x1="89.4655" y1="53.1789" x2="92.0445" y2="51.0888" class="gray" /></g>
<g><line x1="95.6706" y1="49.775" x2="99.3594" y2="49.7228" class="gray" /></g>
<g><line x1="103.061" y1="50.8796" x2="106.029" y2="52.9981" class="gray" /></g>
<g><line x1="108.212" y1="56.1569" x2="109.088" y2="59.4708" class="gray" /></g>
<g><line x1="108.883" y1="63.351" x2="107.647" y2="66.5968" class="gray" /></g>
<g><line x1="107.6" y1="70.4281" x2="108.76" y2="73.7097" class="gray" /></g>
<g><line x1="110.118" y1="77.5589" x2="111.272" y2="80.8388" class="gray" /></g>
<g><line x1="112.677" y1="84.6707" x2="113.943" y2="87.9871" class="gray" /></g>
<g><line x1="115.247" y1="91.8516" x2="116.193" y2="95.0662" class="gray" /></g>
<g><line x1="118.8" y1="97.231" x2="122.68" y2="97.6267" class="gray" /></g>
<g><line x1="126.529" y1="98.7602" x2="129.291" y2="100.168" class="gray" /></g>
<g><line x1="132.552" y1="102.538" x2="135.008" y2="104.999" class="gray" /></g>
<g><line x1="137.379" y1="108.261" x2="139.001" y2="111.437" class="gray" /></g>
<g><line x1="140.092" y1="115.288" x2="140.368" y2="118.739" class="gray" /></g>
<g><line x1="140.115" y1="122.772" x2="139.415" y2="126.136" class="gray" /></g>
<g><line x1="140.566" y1="129.443" x2="143.104" y2="131.565" class="gray" /></g>
<g><line x1="146.28" y1="134.128" x2="149.16" y2="136.37" class="gray" /></g>
<g><line x1="152.337" y1="138.931" x2="154.883" y2="141.056" class="gray" /></g>
<g><line x1="158.04" y1="143.643" x2="160.75" y2="145.824" class="gray" /></g>
<g><line x1="164.38" y1="147.054" x2="168.06" y2="146.964" class="gray" /></g>
<g><line x1="171.755" y1="148.108" x2="174.585" y2="150.15" class="gray" /></g>
<g><line x1="176.834" y1="153.296" x2="177.846" y2="156.621" class="gray" /></g>
<g><line x1="177.686" y1="160.47" x2="176.374" y2="163.768" class="gray" /></g>
<g><line x1="173.935" y1="166.815" x2="171.345" y2="168.583" class="gray" /></g>
<g><line x1="167.625" y1="169.575" x2="163.745" y2="169.273" class="gray" /></g>
<g><line x1="160.217" y1="167.723" x2="157.783" y2="165.455" class="gray" /></g>
<g><line x1="155.907" y1="162.059" x2="155.253" y2="158.638" class="gray" /></g>
<g><line x1="153.28" y1="155.354" x2="150.57" y2="153.173" class="gray" /></g>
<g><line x1="147.39" y1="150.614" x2="144.68" y2="148.433" class="gray" /></g>
<g><line x1="141.502" y1="145.871" x2="138.798" y2="143.686" class="gray" /></g>
<g><line x1="135.598" y1="141.152" x2="132.722" y2="138.916" class="gray" /></g>
<g><line x1="129.28" y1="138.567" x2="126.33" y2="140.021" class="gray" /></g>
<g><line x1="124.557" y1="142.964" x2="124.653" y2="146.444" class="gray" /></g>
<g><line x1="124.71" y1="150.525" x2="124.71" y2="154.003" class="gray" /></g>
<g><line x1="124.597" y1="158.082" x2="124.403" y2="161.566" class="gray" /></g>
<g><line x1="124.29" y1="165.645" x2="124.29" y2="169.123" class="gray" /></g>
<g><line x1="124.29" y1="173.205" x2="124.29" y2="176.683" class="gray" /></g>
<g><line x1="124.347" y1="180.764" x2="124.443" y2="184.244" class="gray" /></g>
<g><line x1="125.969" y1="187.7" x2="128.474" y2="190.115" class="gray" /></g>
<g><line x1="128.531" y1="193.004" x2="126.122" y2="195.515" class="gray" /></g>
</svg>
