<svg
	xmlns="http://www.w3.org/2000/svg"
	width="265.638"
	height="271.126">
<g><style type="text/css" >
<!-- create color definitions -->
<![CDATA[
circle.red {stroke: rgb(255, 0, 255); fill: none; }
circle.green {stroke: rgb(0, 255, 0); fill: none; }
circle.blue {stroke: rgb(0, 0, 255); fill: none; }
circle.black {stroke: rgb(0, 0, 0); fill: none; }
circle.gray {stroke: rgb(204, 204, 204); fill: none; }
circle.brown {stroke: rgb(211.65, 104.55, 30.6); fill: none; }
line.red {stroke: rgb(255, 0, 255); stroke-width: 0.3825; }
line.green {stroke: rgb(0, 255, 0); stroke-width: 0.3825; }
line.blue {stroke: rgb(0, 0, 255); stroke-width: 0.3825; }
line.black {stroke: rgb(0, 0, 0); stroke-width: 0.3825; }
line.gray {stroke: rgb(204, 204, 204); stroke-width: 0.3825; }
line.brown {stroke: rgb(211.65, 104.55, 30.6); stroke-width: 0.3825; }
line {stroke: rgb(0, 0, 0); }
text.red {fill: rgb(255, 0, 255); font-size: 3.060000px; font-weight: bold; font-family: Helvetica; }
text.green {fill: rgb(0, 255, 0); font-size: 3.060000px; font-weight: bold; font-family: Helvetica; }
text.blue {fill: rgb(0, 0, 255); font-size: 3.060000px; font-weight: bold; font-family: Helvetica; }
text.black {fill: rgb(0, 0, 0); font-size: 3.060000px; font-weight: bold; font-family: Helvetica; }
text.gray {fill: rgb(204, 204, 204); font-size: 3.060000px; font-weight: bold; font-family: Helvetica; }
text.brown {fill: rgb(211.65, 104.55, 30.6); font-size: 3.060000px; font-weight: bold; font-family: Helvetica; }
text {fill: rgb(0, 0, 0); font-size: 3.060000px; font-weight: bold; font-family: Helvetica; text-anchor: middle; alignment-baseline: middle; }

.pseudoknot_connection{stroke-linecap: round; stroke-opacity: 0.2; stroke-width: 1.5; }
.pseudoknot_segment1{stroke-linecap: round; stroke-opacity: 0.4; stroke-width: 3.06; }
.pseudoknot_segment2{stroke-linecap: round; stroke-opacity: 0.4; stroke-width: 3.06; }
line.numbering-line{stroke: rgb(204, 204, 204); stroke-width: 0.19125; }
line.predicted{stroke: rgb(0, 0, 0); stroke-dasharray: 2; }
polyline{fill: none; stroke-linejoin: round; }
template{visibility: hidden; }
text.numbering-label{fill: rgb(204, 204, 204); }
]]>
</style></g>
<g><title>0 (position.label in template: 0.5')</title><text x="48.8087" y="221.126" class="green" >5'</text></g>
<g><title>1 (position.label in template: 1.A)</title><text x="56.3698" y="221.126" class="black" >A</text></g>
<g><title>2 (position.label in template: 2.A)</title><text x="63.931" y="221.126" class="black" >A</text></g>
<g><title>3 (position.label in template: 3.G)</title><text x="69.06" y="215.57" class="black" >G</text></g>
<g><line x1="71.1" y1="215.264" x2="79.68" y2="215.264" class="black" /></g>
<g><title>4 (position.label in template: 4.C)</title><text x="69.27" y="208.01" class="black" >C</text></g>
<g><line x1="71.31" y1="207.704" x2="79.26" y2="207.704" class="black" /></g>
<g><title>5 (position.label in template: 5.C)</title><text x="69.27" y="200.45" class="black" >C</text></g>
<g><line x1="71.31" y1="200.144" x2="79.26" y2="200.144" class="black" /></g>
<g><title>6 (position.label in template: 6.A)</title><text x="69.48" y="192.89" class="green" >A</text></g>
<g><line x1="71.52" y1="192.584" x2="79.47" y2="192.584" class="black" /></g>
<g><title>7 (position.label in template: 7.G)</title><text x="69.06" y="185.33" class="black" >G</text></g>
<g><line x1="71.1" y1="185.024" x2="79.68" y2="185.024" class="black" /></g>
<g><title>8 (position.label in template: 8.C)</title><text x="62.27" y="182.46" class="black" >C</text></g>
<g><title>9 (position.label in template: 9.C)</title><text x="56.42" y="177.68" class="black" >C</text></g>
<g><title>10 (position.label in template: 10.A)</title><text x="52.41" y="171.41" class="black" >A</text></g>
<g><text x="46.155" y="174.287" class="numbering-label sequential" >10</text></g>
<g><line x1="50.742" y1="172.177" x2="47.991" y2="173.443" class="numbering-line sequential" /></g>
<g><title>11 (position.label in template: 11.A)</title><text x="50.21" y="164.18" class="black" >A</text></g>
<g><title>12 (position.label in template: 12.U)</title><text x="50" y="156.61" class="green" >T</text></g>
<g><title>13 (position.label in template: 13.G)</title><text x="51.99" y="149.38" class="black" >G</text></g>
<g><title>14 (position.label in template: 14.A)</title><text x="56.62" y="143.11" class="black" >A</text></g>
<g><title>15 (position.label in template: 15.G)</title><text x="62.06" y="138.33" class="black" >G</text></g>
<g><title>16 (position.label in template: 16.U)</title><text x="69.27" y="135.46" class="green" >T</text></g>
<g><line x1="71.31" y1="135.154" x2="79.68" y2="135.154" class="black" /></g>
<g><title>17 (position.label in template: 17.C)</title><text x="69.27" y="127.9" class="black" >C</text></g>
<g><line x1="71.31" y1="127.594" x2="79.26" y2="127.594" class="black" /></g>
<g><title>18 (position.label in template: 18.U)</title><text x="69.27" y="120.34" class="green" >T</text></g>
<g><line x1="71.31" y1="120.034" x2="79.68" y2="120.034" class="black" /></g>
<g><title>19 (position.label in template: 19.G)</title><text x="69.06" y="112.78" class="black" >G</text></g>
<g><line x1="71.1" y1="112.474" x2="79.47" y2="112.474" class="black" /></g>
<g><title>20 (position.label in template: 20.C)</title><text x="69.27" y="105.22" class="black" >C</text></g>
<g><line x1="71.31" y1="104.914" x2="79.26" y2="104.914" class="black" /></g>
<g><text x="63.4399" y="108.882" class="numbering-label sequential" >20</text></g>
<g><line x1="67.7153" y1="106.197" x2="65.2759" y2="107.729" class="numbering-line sequential" /></g>
<g><title>21 (position.label in template: 21.U)</title><text x="62.37" y="102.13" class="green" >T</text></g>
<g><title>22 (position.label in template: 22.U)</title><text x="56.79" y="97.03" class="green" >T</text></g>
<g><title>23 (position.label in template: 23.A)</title><text x="53.31" y="90.43" class="black" >A</text></g>
<g><title>24 (position.label in template: 24.C)</title><text x="51.68" y="83.01" class="black" >C</text></g>
<g><title>25 (position.label in template: 25.C)</title><text x="52.66" y="75.51" class="black" >C</text></g>
<g><title>26 (position.label in template: 26.U)</title><text x="55.96" y="68.71" class="green" >T</text></g>
<g><title>27 (position.label in template: 27.G)</title><text x="61.01" y="63.28" class="black" >G</text></g>
<g><title>28 (position.label in template: 28.A)</title><text x="68.13" y="59.79" class="black" >A</text></g>
<g><title>29 (position.label in template: 29.A)</title><text x="75.6" y="58.59" class="black" >A</text></g>
<g><title>30 (position.label in template: 30.U)</title><text x="82.85" y="59.79" class="green" >T</text></g>
<g><text x="85.0727" y="53.2736" class="numbering-label sequential" >30</text></g>
<g><line x1="83.4427" y1="58.0523" x2="84.5508" y2="54.8036" class="numbering-line sequential" /></g>
<g><title>31 (position.label in template: 31.G)</title><text x="89.35" y="63.28" class="black" >G</text></g>
<g><title>32 (position.label in template: 32.U)</title><text x="94.83" y="68.71" class="green" >T</text></g>
<g><title>33 (position.label in template: 33.G)</title><text x="97.91" y="75.51" class="black" >G</text></g>
<g><title>34 (position.label in template: 34.U)</title><text x="99.1" y="83.01" class="green" >T</text></g>
<g><title>35 (position.label in template: 35.U)</title><text x="97.68" y="90.43" class="green" >T</text></g>
<g><title>36 (position.label in template: 36.U)</title><text x="93.99" y="97.03" class="green" >T</text></g>
<g><title>37 (position.label in template: 37.U)</title><text x="88.41" y="102.13" class="green" >T</text></g>
<g><title>38 (position.label in template: 38.G)</title><text x="81.3" y="105.22" class="black" >G</text></g>
<g><title>39 (position.label in template: 39.C)</title><text x="81.51" y="112.78" class="black" >C</text></g>
<g><title>40 (position.label in template: 40.A)</title><text x="81.72" y="120.34" class="green" >A</text></g>
<g><title>41 (position.label in template: 41.G)</title><text x="81.3" y="127.9" class="black" >G</text></g>
<g><title>42 (position.label in template: 42.A)</title><text x="81.72" y="135.46" class="green" >A</text></g>
<g><title>43 (position.label in template: 43.A)</title><text x="89.03" y="133.56" class="black" >A</text></g>
<g><title>44 (position.label in template: 44.A)</title><text x="96.59" y="133.76" class="black" >A</text></g>
<g><title>45 (position.label in template: 45.U)</title><text x="103.59" y="136.05" class="green" >T</text></g>
<g><title>46 (position.label in template: 46.U)</title><text x="109.88" y="140.24" class="green" >T</text></g>
<g><title>47 (position.label in template: 47.U)</title><text x="114.76" y="146.01" class="green" >T</text></g>
<g><title>48 (position.label in template: 48.A)</title><text x="118.06" y="152.91" class="black" >A</text></g>
<g><title>49 (position.label in template: 49.G)</title><text x="118.7" y="160.4" class="black" >G</text></g>
<g><title>50 (position.label in template: 50.A)</title><text x="118.06" y="167.88" class="black" >A</text></g>
<g><text x="124.675" y="169.789" class="numbering-label sequential" >50</text></g>
<g><line x1="119.824" y1="168.389" x2="122.839" y2="169.259" class="numbering-line sequential" /></g>
<g><title>51 (position.label in template: 51.G)</title><text x="114.55" y="174.78" class="black" >G</text></g>
<g><title>52 (position.label in template: 52.A)</title><text x="110.09" y="180.55" class="black" >A</text></g>
<g><title>53 (position.label in template: 53.A)</title><text x="103.8" y="184.74" class="black" >A</text></g>
<g><title>54 (position.label in template: 54.A)</title><text x="96.59" y="187.03" class="black" >A</text></g>
<g><title>55 (position.label in template: 55.G)</title><text x="88.62" y="187.23" class="black" >G</text></g>
<g><title>56 (position.label in template: 56.A)</title><text x="81.72" y="185.33" class="black" >A</text></g>
<g><title>57 (position.label in template: 57.U)</title><text x="81.51" y="192.89" class="green" >T</text></g>
<g><title>58 (position.label in template: 58.G)</title><text x="81.3" y="200.45" class="black" >G</text></g>
<g><title>59 (position.label in template: 59.G)</title><text x="81.3" y="208.01" class="black" >G</text></g>
<g><title>60 (position.label in template: 60.A)</title><text x="81.72" y="215.57" class="black" >A</text></g>
<g><title>61 (position.label in template: 61.A)</title><text x="87.06" y="220.91" class="black" >A</text></g>
<g><title>62 (position.label in template: 62.A)</title><text x="94.62" y="220.91" class="black" >A</text></g>
<g><title>63 (position.label in template: 63.U)</title><text x="101.98" y="220.91" class="green" >T</text></g>
<g><title>64 (position.label in template: 64.A)</title><text x="109.74" y="220.91" class="black" >A</text></g>
<g><title>65 (position.label in template: 65.G)</title><text x="116.89" y="220.91" class="black" >G</text></g>
<g><title>66 (position.label in template: 66.U)</title><text x="124.66" y="220.91" class="green" >T</text></g>
<g><title>67 (position.label in template: 67.A)</title><text x="132.42" y="220.91" class="black" >A</text></g>
<g><title>68 (position.label in template: 68.A)</title><text x="139.98" y="220.91" class="black" >A</text></g>
<g><title>69 (position.label in template: 69.U)</title><text x="147.34" y="220.91" class="green" >T</text></g>
<g><title>70 (position.label in template: 70.G)</title><text x="152.47" y="215.57" class="black" >G</text></g>
<g><line x1="154.51" y1="215.264" x2="162.88" y2="215.264" class="black" /></g>
<g><title>71 (position.label in template: 71.C)</title><text x="152.68" y="208.01" class="black" >C</text></g>
<g><line x1="154.72" y1="207.704" x2="162.67" y2="207.704" class="black" /></g>
<g><title>72 (position.label in template: 72.C)</title><text x="152.68" y="200.45" class="black" >C</text></g>
<g><line x1="154.72" y1="200.144" x2="162.67" y2="200.144" class="black" /></g>
<g><title>73 (position.label in template: 73.A)</title><text x="152.89" y="192.89" class="green" >A</text></g>
<g><line x1="154.93" y1="192.584" x2="162.88" y2="192.584" class="black" /></g>
<g><title>74 (position.label in template: 74.U)</title><text x="145.69" y="190.02" class="green" >T</text></g>
<g><title>75 (position.label in template: 75.G)</title><text x="139.62" y="185.24" class="black" >G</text></g>
<g><title>76 (position.label in template: 76.U)</title><text x="135.61" y="178.97" class="green" >T</text></g>
<g><title>77 (position.label in template: 77.A)</title><text x="133.62" y="171.74" class="black" >A</text></g>
<g><title>78 (position.label in template: 78.A)</title><text x="133.62" y="164.18" class="black" >A</text></g>
<g><title>79 (position.label in template: 79.U)</title><text x="135.61" y="156.94" class="green" >T</text></g>
<g><title>80 (position.label in template: 80.G)</title><text x="139.62" y="150.67" class="black" >G</text></g>
<g><title>81 (position.label in template: 81.A)</title><text x="145.89" y="145.89" class="black" >A</text></g>
<g><title>82 (position.label in template: 82.G)</title><text x="152.47" y="143.02" class="green" >G</text></g>
<g><line x1="154.51" y1="142.714" x2="162.88" y2="142.714" class="black" /></g>
<g><title>83 (position.label in template: 83.C)</title><text x="152.68" y="135.46" class="black" >C</text></g>
<g><line x1="154.72" y1="135.154" x2="162.67" y2="135.154" class="black" /></g>
<g><title>84 (position.label in template: 84.C)</title><text x="152.68" y="127.9" class="black" >C</text></g>
<g><line x1="154.72" y1="127.594" x2="162.67" y2="127.594" class="black" /></g>
<g><title>85 (position.label in template: 85.U)</title><text x="152.68" y="120.34" class="green" >T</text></g>
<g><line x1="154.72" y1="120.034" x2="163.09" y2="120.034" class="black" /></g>
<g><title>86 (position.label in template: 86.U)</title><text x="152.68" y="112.78" class="green" >T</text></g>
<g><line x1="154.72" y1="112.474" x2="163.09" y2="112.474" class="black" /></g>
<g><title>87 (position.label in template: 87.A)</title><text x="152.89" y="105.22" class="green" >A</text></g>
<g><line x1="154.93" y1="104.914" x2="162.88" y2="104.914" class="black" /></g>
<g><title>88 (position.label in template: 88.A)</title><text x="152.89" y="97.66" class="green" >A</text></g>
<g><line x1="154.93" y1="97.354" x2="162.88" y2="97.354" class="black" /></g>
<g><title>89 (position.label in template: 89.A)</title><text x="149.79" y="90.77" class="black" >A</text></g>
<g><title>90 (position.label in template: 90.G)</title><text x="152.47" y="83.87" class="black" >G</text></g>
<g><line x1="154.51" y1="83.564" x2="162.88" y2="83.564" class="black" /></g>
<g><title>91 (position.label in template: 91.A)</title><text x="152.89" y="76.31" class="green" >A</text></g>
<g><line x1="154.93" y1="76.004" x2="162.88" y2="76.004" class="black" /></g>
<g><title>92 (position.label in template: 92.C)</title><text x="152.68" y="68.75" class="black" >C</text></g>
<g><line x1="154.72" y1="68.444" x2="163.09" y2="68.444" class="black" /></g>
<g><title>93 (position.label in template: 93.A)</title><text x="148.63" y="62.51" class="black" >A</text></g>
<g><title>94 (position.label in template: 94.U)</title><text x="149.35" y="55.01" class="green" >T</text></g>
<g><title>95 (position.label in template: 95.U)</title><text x="155.02" y="50" class="green" >T</text></g>
<g><title>96 (position.label in template: 96.G)</title><text x="162.37" y="50" class="black" >G</text></g>
<g><title>97 (position.label in template: 97.A)</title><text x="168.46" y="55.01" class="black" >A</text></g>
<g><title>98 (position.label in template: 98.A)</title><text x="169.39" y="62.51" class="black" >A</text></g>
<g><title>99 (position.label in template: 99.A)</title><text x="165.13" y="68.75" class="black" >A</text></g>
<g><title>100 (position.label in template: 100.U)</title><text x="164.92" y="76.31" class="green" >T</text></g>
<g><text x="171.804" y="76.4056" class="numbering-label sequential" >100</text></g>
<g><line x1="166.756" y1="76.3355" x2="169.05" y2="76.3674" class="numbering-line sequential" /></g>
<g><title>101 (position.label in template: 101.C)</title><text x="164.92" y="83.87" class="black" >C</text></g>
<g><title>102 (position.label in template: 102.C)</title><text x="168.02" y="90.77" class="black" >C</text></g>
<g><title>103 (position.label in template: 103.U)</title><text x="164.92" y="97.66" class="green" >T</text></g>
<g><title>104 (position.label in template: 104.U)</title><text x="164.92" y="105.22" class="green" >T</text></g>
<g><title>105 (position.label in template: 105.A)</title><text x="165.13" y="112.78" class="green" >A</text></g>
<g><title>106 (position.label in template: 106.A)</title><text x="165.13" y="120.34" class="green" >A</text></g>
<g><title>107 (position.label in template: 107.G)</title><text x="164.71" y="127.9" class="black" >G</text></g>
<g><title>108 (position.label in template: 108.G)</title><text x="164.71" y="135.46" class="black" >G</text></g>
<g><title>109 (position.label in template: 109.U)</title><text x="164.92" y="143.02" class="green" >T</text></g>
<g><title>110 (position.label in template: 110.C)</title><text x="172.33" y="144.55" class="black" >C</text></g>
<g><title>111 (position.label in template: 111.C)</title><text x="178.94" y="148.21" class="black" >C</text></g>
<g><title>112 (position.label in template: 112.C)</title><text x="184.15" y="153.69" class="black" >C</text></g>
<g><title>113 (position.label in template: 113.U)</title><text x="187.47" y="160.48" class="green" >T</text></g>
<g><title>114 (position.label in template: 114.G)</title><text x="188.41" y="167.96" class="black" >G</text></g>
<g><title>115 (position.label in template: 115.A)</title><text x="187.68" y="175.43" class="black" >A</text></g>
<g><title>116 (position.label in template: 116.A)</title><text x="184.35" y="182.21" class="black" >A</text></g>
<g><title>117 (position.label in template: 117.C)</title><text x="178.94" y="187.7" class="black" >C</text></g>
<g><title>118 (position.label in template: 118.A)</title><text x="172.53" y="191.36" class="black" >A</text></g>
<g><title>119 (position.label in template: 119.U)</title><text x="164.92" y="192.89" class="green" >T</text></g>
<g><title>120 (position.label in template: 120.G)</title><text x="164.71" y="200.45" class="black" >G</text></g>
<g><title>121 (position.label in template: 121.G)</title><text x="164.71" y="208.01" class="black" >G</text></g>
<g><title>122 (position.label in template: 122.C)</title><text x="164.92" y="215.57" class="black" >C</text></g>
<g><title>123 (position.label in template: 123.U)</title><text x="170.272" y="220.912" class="green" >T</text></g>
<g><title>124 (position.label in template: 124.A)</title><text x="177.833" y="220.912" class="black" >A</text></g>
<g><title>125 (position.label in template: 125.U)</title><text x="185.394" y="220.912" class="green" >T</text></g>
<g><title>126 (position.label in template: 126.A)</title><text x="192.955" y="220.912" class="black" >A</text></g>
<g><title>127 (position.label in template: 127.A)</title><text x="200.516" y="220.912" class="black" >A</text></g>
<g><title>128 (position.label in template: 128.G)</title><text x="208.077" y="220.912" class="black" >G</text></g>
<g><title>129 (position.label in template: 129.G)</title><text x="215.638" y="220.912" class="black" >G</text></g>
<g><title>130 (position.label in template: 130.3')</title><text x="223.2" y="220.912" class="green" >3'</text></g>
<g><line x1="50.8487" y1="220.82" x2="54.3298" y2="220.82" class="gray" /></g>
<g><line x1="58.4098" y1="220.82" x2="61.891" y2="220.82" class="gray" /></g>
<g><line x1="65.3148" y1="219.321" x2="67.6762" y2="216.763" class="gray" /></g>
<g><line x1="69.1166" y1="213.225" x2="69.2134" y2="209.743" class="gray" /></g>
<g><line x1="69.27" y1="205.664" x2="69.27" y2="202.184" class="gray" /></g>
<g><line x1="69.3266" y1="198.105" x2="69.4234" y2="194.623" class="gray" /></g>
<g><line x1="69.3668" y1="190.547" x2="69.1732" y2="187.061" class="gray" /></g>
<g><line x1="67.181" y1="184.23" x2="64.149" y2="182.948" class="gray" /></g>
<g><line x1="60.6903" y1="180.863" x2="57.9997" y2="178.665" class="gray" /></g>
<g><line x1="55.3209" y1="175.655" x2="53.5091" y2="172.823" class="gray" /></g>
<g><line x1="51.8161" y1="169.152" x2="50.8039" y2="165.826" class="gray" /></g>
<g><line x1="50.1534" y1="161.835" x2="50.0566" y2="158.343" class="gray" /></g>
<g><line x1="50.5414" y1="154.337" x2="51.4486" y2="151.041" class="gray" /></g>
<g><line x1="53.2018" y1="147.433" x2="55.4082" y2="144.445" class="gray" /></g>
<g><line x1="58.1525" y1="141.457" x2="60.5275" y2="139.371" class="gray" /></g>
<g><line x1="63.9554" y1="137.27" x2="67.3746" y2="135.908" class="gray" /></g>
<g><line x1="69.27" y1="133.114" x2="69.27" y2="129.634" class="gray" /></g>
<g><line x1="69.27" y1="125.554" x2="69.27" y2="122.074" class="gray" /></g>
<g><line x1="69.2134" y1="117.995" x2="69.1166" y2="114.513" class="gray" /></g>
<g><line x1="69.1166" y1="110.435" x2="69.2134" y2="106.953" class="gray" /></g>
<g><line x1="67.4082" y1="104.08" x2="64.2318" y2="102.658" class="gray" /></g>
<g><line x1="60.8642" y1="100.448" x2="58.2958" y2="98.1003" class="gray" /></g>
<g><line x1="55.8385" y1="94.9195" x2="54.2615" y2="91.9285" class="gray" /></g>
<g><line x1="52.8723" y1="88.1315" x2="52.1177" y2="84.6965" class="gray" /></g>
<g><line x1="51.9443" y1="80.6812" x2="52.3957" y2="77.2268" class="gray" /></g>
<g><line x1="53.5507" y1="73.3687" x2="55.0693" y2="70.2393" class="gray" /></g>
<g><line x1="57.3493" y1="66.9102" x2="59.6207" y2="64.4678" class="gray" /></g>
<g><line x1="62.8418" y1="62.0761" x2="66.2982" y2="60.3819" class="gray" /></g>
<g><line x1="70.1442" y1="59.1604" x2="73.5858" y2="58.6076" class="gray" /></g>
<g><line x1="77.6126" y1="58.6171" x2="80.8374" y2="59.1509" class="gray" /></g>
<g><line x1="84.6473" y1="60.449" x2="87.5527" y2="62.009" class="gray" /></g>
<g><line x1="90.7991" y1="64.4099" x2="93.3809" y2="66.9681" class="gray" /></g>
<g><line x1="95.6717" y1="70.2623" x2="97.0683" y2="73.3457" class="gray" /></g>
<g><line x1="98.2297" y1="77.2188" x2="98.7803" y2="80.6892" class="gray" /></g>
<g><line x1="98.7166" y1="84.7076" x2="98.0634" y2="88.1204" class="gray" /></g>
<g><line x1="96.6845" y1="91.9046" x2="94.9855" y2="94.9434" class="gray" /></g>
<g><line x1="92.4842" y1="98.1003" x2="89.9158" y2="100.448" class="gray" /></g>
<g><line x1="86.5391" y1="102.637" x2="83.1709" y2="104.101" class="gray" /></g>
<g><line x1="81.3566" y1="106.953" x2="81.4534" y2="110.435" class="gray" /></g>
<g><line x1="81.5666" y1="114.513" x2="81.6634" y2="117.995" class="gray" /></g>
<g><line x1="81.6068" y1="122.071" x2="81.4132" y2="125.557" class="gray" /></g>
<g><line x1="81.4132" y1="129.631" x2="81.6068" y2="133.117" class="gray" /></g>
<g><line x1="83.6944" y1="134.641" x2="87.0556" y2="133.767" class="gray" /></g>
<g><line x1="91.0693" y1="133.308" x2="94.5507" y2="133.4" class="gray" /></g>
<g><line x1="98.5289" y1="134.088" x2="101.651" y2="135.11" class="gray" /></g>
<g><line x1="105.288" y1="136.875" x2="108.182" y2="138.803" class="gray" /></g>
<g><line x1="111.197" y1="141.492" x2="113.443" y2="144.146" class="gray" /></g>
<g><line x1="115.64" y1="147.544" x2="117.18" y2="150.764" class="gray" /></g>
<g><line x1="118.234" y1="154.637" x2="118.526" y2="158.061" class="gray" /></g>
<g><line x1="118.526" y1="162.127" x2="118.234" y2="165.541" class="gray" /></g>
<g><line x1="117.135" y1="169.392" x2="115.475" y2="172.656" class="gray" /></g>
<g><line x1="113.302" y1="176.088" x2="111.338" y2="178.63" class="gray" /></g>
<g><line x1="108.392" y1="181.375" x2="105.498" y2="183.303" class="gray" /></g>
<g><line x1="101.856" y1="185.052" x2="98.5343" y2="186.106" class="gray" /></g>
<g><line x1="94.5506" y1="186.775" x2="90.6594" y2="186.873" class="gray" /></g>
<g><line x1="86.6532" y1="186.382" x2="83.6868" y2="185.566" class="gray" /></g>
<g><line x1="81.6634" y1="187.063" x2="81.5666" y2="190.545" class="gray" /></g>
<g><line x1="81.4534" y1="194.623" x2="81.3566" y2="198.105" class="gray" /></g>
<g><line x1="81.3" y1="202.184" x2="81.3" y2="205.664" class="gray" /></g>
<g><line x1="81.4132" y1="209.741" x2="81.6068" y2="213.227" class="gray" /></g>
<g><line x1="83.1625" y1="216.706" x2="85.6175" y2="219.162" class="gray" /></g>
<g><line x1="89.1" y1="220.604" x2="92.58" y2="220.604" class="gray" /></g>
<g><line x1="96.66" y1="220.604" x2="99.94" y2="220.604" class="gray" /></g>
<g><line x1="104.02" y1="220.604" x2="107.7" y2="220.604" class="gray" /></g>
<g><line x1="111.78" y1="220.604" x2="114.85" y2="220.604" class="gray" /></g>
<g><line x1="118.93" y1="220.604" x2="122.62" y2="220.604" class="gray" /></g>
<g><line x1="126.7" y1="220.604" x2="130.38" y2="220.604" class="gray" /></g>
<g><line x1="134.46" y1="220.604" x2="137.94" y2="220.604" class="gray" /></g>
<g><line x1="142.02" y1="220.604" x2="145.3" y2="220.604" class="gray" /></g>
<g><line x1="148.753" y1="219.133" x2="151.057" y2="216.735" class="gray" /></g>
<g><line x1="152.527" y1="213.225" x2="152.623" y2="209.743" class="gray" /></g>
<g><line x1="152.68" y1="205.664" x2="152.68" y2="202.184" class="gray" /></g>
<g><line x1="152.737" y1="198.105" x2="152.833" y2="194.623" class="gray" /></g>
<g><line x1="150.995" y1="191.829" x2="147.585" y2="190.469" class="gray" /></g>
<g><line x1="144.087" y1="188.452" x2="141.223" y2="186.196" class="gray" /></g>
<g><line x1="138.521" y1="183.215" x2="136.709" y2="180.383" class="gray" /></g>
<g><line x1="135.069" y1="176.697" x2="134.161" y2="173.401" class="gray" /></g>
<g><line x1="133.62" y1="169.394" x2="133.62" y2="165.914" class="gray" /></g>
<g><line x1="134.161" y1="161.907" x2="135.069" y2="158.601" class="gray" /></g>
<g><line x1="136.709" y1="154.915" x2="138.521" y2="152.083" class="gray" /></g>
<g><line x1="141.242" y1="149.127" x2="144.268" y2="146.821" class="gray" /></g>
<g><line x1="147.76" y1="144.768" x2="150.6" y2="143.53" class="gray" /></g>
<g><line x1="152.527" y1="140.675" x2="152.623" y2="137.193" class="gray" /></g>
<g><line x1="152.68" y1="133.114" x2="152.68" y2="129.634" class="gray" /></g>
<g><line x1="152.68" y1="125.554" x2="152.68" y2="122.074" class="gray" /></g>
<g><line x1="152.68" y1="117.994" x2="152.68" y2="114.514" class="gray" /></g>
<g><line x1="152.737" y1="110.435" x2="152.833" y2="106.953" class="gray" /></g>
<g><line x1="152.89" y1="102.874" x2="152.89" y2="99.394" class="gray" /></g>
<g><line x1="152.053" y1="95.4936" x2="150.627" y2="92.3244" class="gray" /></g>
<g><line x1="150.529" y1="88.5624" x2="151.731" y2="85.4656" class="gray" /></g>
<g><line x1="152.583" y1="81.5271" x2="152.777" y2="78.0409" class="gray" /></g>
<g><line x1="152.833" y1="73.9648" x2="152.737" y2="70.4832" class="gray" /></g>
<g><line x1="151.569" y1="66.7328" x2="149.741" y2="63.9152" class="gray" /></g>
<g><line x1="148.825" y1="60.1733" x2="149.155" y2="56.7347" class="gray" /></g>
<g><line x1="150.879" y1="53.3532" x2="153.491" y2="51.0448" class="gray" /></g>
<g><line x1="157.06" y1="49.694" x2="160.33" y2="49.694" class="gray" /></g>
<g><line x1="163.945" y1="50.99" x2="166.885" y2="53.408" class="gray" /></g>
<g><line x1="168.711" y1="56.7285" x2="169.139" y2="60.1795" class="gray" /></g>
<g><line x1="168.24" y1="63.8888" x2="166.28" y2="66.7592" class="gray" /></g>
<g><line x1="165.073" y1="70.4832" x2="164.977" y2="73.9648" class="gray" /></g>
<g><line x1="164.92" y1="78.044" x2="164.92" y2="81.524" class="gray" /></g>
<g><line x1="165.756" y1="85.4248" x2="167.184" y2="88.6032" class="gray" /></g>
<g><line x1="167.183" y1="92.3244" x2="165.757" y2="95.4936" class="gray" /></g>
<g><line x1="164.92" y1="99.394" x2="164.92" y2="102.874" class="gray" /></g>
<g><line x1="164.977" y1="106.953" x2="165.073" y2="110.435" class="gray" /></g>
<g><line x1="165.13" y1="114.514" x2="165.13" y2="117.994" class="gray" /></g>
<g><line x1="165.017" y1="122.071" x2="164.823" y2="125.557" class="gray" /></g>
<g><line x1="164.71" y1="129.634" x2="164.71" y2="133.114" class="gray" /></g>
<g><line x1="164.767" y1="137.193" x2="164.863" y2="140.675" class="gray" /></g>
<g><line x1="166.918" y1="143.127" x2="170.332" y2="143.831" class="gray" /></g>
<g><line x1="174.115" y1="145.232" x2="177.155" y2="146.916" class="gray" /></g>
<g><line x1="180.346" y1="149.382" x2="182.744" y2="151.906" class="gray" /></g>
<g><line x1="185.046" y1="155.217" x2="186.574" y2="158.341" class="gray" /></g>
<g><line x1="187.724" y1="162.198" x2="188.156" y2="165.63" class="gray" /></g>
<g><line x1="188.212" y1="169.684" x2="187.878" y2="173.094" class="gray" /></g>
<g><line x1="186.781" y1="176.955" x2="185.249" y2="180.073" class="gray" /></g>
<g><line x1="182.918" y1="183.357" x2="180.372" y2="185.941" class="gray" /></g>
<g><line x1="177.168" y1="188.406" x2="174.302" y2="190.042" class="gray" /></g>
<g><line x1="170.53" y1="191.456" x2="166.92" y2="192.182" class="gray" /></g>
<g><line x1="164.863" y1="194.623" x2="164.767" y2="198.105" class="gray" /></g>
<g><line x1="164.71" y1="202.184" x2="164.71" y2="205.664" class="gray" /></g>
<g><line x1="164.767" y1="209.743" x2="164.863" y2="213.225" class="gray" /></g>
<g><line x1="166.364" y1="216.705" x2="168.828" y2="219.164" class="gray" /></g>
<g><line x1="172.312" y1="220.606" x2="175.793" y2="220.606" class="gray" /></g>
<g><line x1="179.873" y1="220.606" x2="183.354" y2="220.606" class="gray" /></g>
<g><line x1="187.434" y1="220.606" x2="190.915" y2="220.606" class="gray" /></g>
<g><line x1="194.995" y1="220.606" x2="198.476" y2="220.606" class="gray" /></g>
<g><line x1="202.556" y1="220.606" x2="206.037" y2="220.606" class="gray" /></g>
<g><line x1="210.117" y1="220.606" x2="213.598" y2="220.606" class="gray" /></g>
<g><line x1="217.678" y1="220.606" x2="221.16" y2="220.606" class="gray" /></g>
</svg>
