<svg
	xmlns="http://www.w3.org/2000/svg"
	width="270.877"
	height="276.628">
<g><style type="text/css" >
<!-- create color definitions -->
<![CDATA[
circle.red {stroke: rgb(255, 0, 255); fill: none; }
circle.green {stroke: rgb(0, 255, 0); fill: none; }
circle.blue {stroke: rgb(0, 0, 255); fill: none; }
circle.black {stroke: rgb(0, 0, 0); fill: none; }
circle.gray {stroke: rgb(204, 204, 204); fill: none; }
circle.brown {stroke: rgb(211.65, 104.55, 30.6); fill: none; }
line.red {stroke: rgb(255, 0, 255); stroke-width: 0.383203; }
line.green {stroke: rgb(0, 255, 0); stroke-width: 0.383203; }
line.blue {stroke: rgb(0, 0, 255); stroke-width: 0.383203; }
line.black {stroke: rgb(0, 0, 0); stroke-width: 0.383203; }
line.gray {stroke: rgb(204, 204, 204); stroke-width: 0.383203; }
line.brown {stroke: rgb(211.65, 104.55, 30.6); stroke-width: 0.383203; }
line {stroke: rgb(0, 0, 0); }
text.red {fill: rgb(255, 0, 255); font-size: 3.065625px; font-weight: bold; font-family: Helvetica; }
text.green {fill: rgb(0, 255, 0); font-size: 3.065625px; font-weight: bold; font-family: Helvetica; }
text.blue {fill: rgb(0, 0, 255); font-size: 3.065625px; font-weight: bold; font-family: Helvetica; }
text.black {fill: rgb(0, 0, 0); font-size: 3.065625px; font-weight: bold; font-family: Helvetica; }
text.gray {fill: rgb(204, 204, 204); font-size: 3.065625px; font-weight: bold; font-family: Helvetica; }
text.brown {fill: rgb(211.65, 104.55, 30.6); font-size: 3.065625px; font-weight: bold; font-family: Helvetica; }
text {fill: rgb(0, 0, 0); font-size: 3.065625px; font-weight: bold; font-family: Helvetica; text-anchor: middle; alignment-baseline: middle; }

.pseudoknot_connection{stroke-linecap: round; stroke-opacity: 0.2; stroke-width: 1.5; }
.pseudoknot_segment1{stroke-linecap: round; stroke-opacity: 0.4; stroke-width: 3.06562; }
.pseudoknot_segment2{stroke-linecap: round; stroke-opacity: 0.4; stroke-width: 3.06562; }
line.numbering-line{stroke: rgb(204, 204, 204); stroke-width: 0.191602; }
line.predicted{stroke: rgb(0, 0, 0); stroke-dasharray: 2; }
polyline{fill: none; stroke-linejoin: round; }
template{visibility: hidden; }
text.numbering-label{fill: rgb(204, 204, 204); }
]]>
</style></g>
<g><title>0 (position.label in template: 0.5')</title><text x="46.3831" y="226.628" class="green" >5'</text></g>
<g><title>1 (position.label in template: 1.C)</title><text x="53.9448" y="226.628" class="black" >C</text></g>
<g><title>2 (position.label in template: 2.U)</title><text x="61.5065" y="226.628" class="green" >T</text></g>
<g><title>3 (position.label in template: 3.G)</title><text x="66.74" y="221.17" class="black" >G</text></g>
<g><line x1="68.7837" y1="220.863" x2="77.1462" y2="220.863" class="black" /></g>
<g><title>4 (position.label in template: 4.C)</title><text x="66.95" y="213.61" class="black" >C</text></g>
<g><line x1="68.9938" y1="213.303" x2="77.3563" y2="213.303" class="black" /></g>
<g><title>5 (position.label in template: 5.U)</title><text x="66.95" y="206.05" class="green" >T</text></g>
<g><line x1="68.9938" y1="205.743" x2="77.1462" y2="205.743" class="black" /></g>
<g><title>6 (position.label in template: 6.U)</title><text x="66.95" y="198.49" class="green" >T</text></g>
<g><line x1="68.9938" y1="198.183" x2="77.3563" y2="198.183" class="black" /></g>
<g><title>7 (position.label in template: 7.G)</title><text x="66.74" y="190.93" class="black" >G</text></g>
<g><line x1="68.7837" y1="190.623" x2="77.1462" y2="190.623" class="black" /></g>
<g><title>8 (position.label in template: 8.U)</title><text x="66.95" y="183.37" class="green" >T</text></g>
<g><line x1="68.9938" y1="183.063" x2="77.3563" y2="183.063" class="black" /></g>
<g><title>9 (position.label in template: 9.A)</title><text x="60.28" y="180.22" class="black" >A</text></g>
<g><title>10 (position.label in template: 10.G)</title><text x="54.36" y="175.04" class="black" >G</text></g>
<g><text x="48.925" y="179.287" class="numbering-label sequential" >10</text></g>
<g><line x1="52.9107" y1="176.173" x2="50.8865" y2="177.754" class="numbering-line sequential" /></g>
<g><title>11 (position.label in template: 11.C)</title><text x="51.02" y="168.37" class="black" >C</text></g>
<g><title>12 (position.label in template: 12.A)</title><text x="50" y="160.91" class="black" >A</text></g>
<g><title>13 (position.label in template: 13.A)</title><text x="51.23" y="153.45" class="black" >A</text></g>
<g><title>14 (position.label in template: 14.U)</title><text x="54.57" y="146.78" class="green" >T</text></g>
<g><title>15 (position.label in template: 15.A)</title><text x="60.28" y="141.59" class="black" >A</text></g>
<g><title>16 (position.label in template: 16.C)</title><text x="66.95" y="138.45" class="black" >C</text></g>
<g><line x1="68.9938" y1="138.143" x2="76.9363" y2="138.143" class="black" /></g>
<g><title>17 (position.label in template: 17.C)</title><text x="66.95" y="130.89" class="black" >C</text></g>
<g><line x1="68.9938" y1="130.583" x2="76.9363" y2="130.583" class="black" /></g>
<g><title>18 (position.label in template: 18.U)</title><text x="66.95" y="123.33" class="green" >T</text></g>
<g><line x1="68.9938" y1="123.023" x2="77.3563" y2="123.023" class="black" /></g>
<g><title>19 (position.label in template: 19.G)</title><text x="66.74" y="115.77" class="black" >G</text></g>
<g><line x1="68.7837" y1="115.463" x2="77.1462" y2="115.463" class="black" /></g>
<g><title>20 (position.label in template: 20.U)</title><text x="66.95" y="108.21" class="green" >T</text></g>
<g><line x1="68.9938" y1="107.903" x2="77.3563" y2="107.903" class="black" /></g>
<g><text x="60.053" y="108.114" class="numbering-label sequential" >20</text></g>
<g><line x1="65.1108" y1="108.184" x2="61.8924" y2="108.14" class="numbering-line sequential" /></g>
<g><title>21 (position.label in template: 21.U)</title><text x="66.95" y="100.65" class="green" >T</text></g>
<g><line x1="68.9938" y1="100.343" x2="76.9363" y2="100.343" class="black" /></g>
<g><title>22 (position.label in template: 22.C)</title><text x="66.95" y="93.09" class="black" >C</text></g>
<g><line x1="68.9938" y1="92.7834" x2="76.9363" y2="92.7834" class="black" /></g>
<g><title>23 (position.label in template: 23.C)</title><text x="66.95" y="85.53" class="black" >C</text></g>
<g><line x1="68.9938" y1="85.2234" x2="77.3563" y2="85.2234" class="black" /></g>
<g><title>24 (position.label in template: 24.U)</title><text x="60.75" y="81.2" class="green" >T</text></g>
<g><title>25 (position.label in template: 25.C)</title><text x="57.11" y="74.58" class="black" >C</text></g>
<g><title>26 (position.label in template: 26.A)</title><text x="57.01" y="67.02" class="black" >A</text></g>
<g><title>27 (position.label in template: 27.U)</title><text x="59.88" y="60.12" class="green" >T</text></g>
<g><title>28 (position.label in template: 28.C)</title><text x="65.71" y="55.3" class="black" >C</text></g>
<g><title>29 (position.label in template: 29.C)</title><text x="73.07" y="53.58" class="black" >C</text></g>
<g><title>30 (position.label in template: 30.A)</title><text x="80.64" y="55.3" class="black" >A</text></g>
<g><text x="83.7041" y="49.1203" class="numbering-label sequential" >30</text></g>
<g><line x1="81.4571" y1="53.6521" x2="82.9441" y2="50.6531" class="numbering-line sequential" /></g>
<g><title>31 (position.label in template: 31.C)</title><text x="86.26" y="60.12" class="black" >C</text></g>
<g><title>32 (position.label in template: 32.U)</title><text x="89.34" y="67.02" class="green" >T</text></g>
<g><title>33 (position.label in template: 33.U)</title><text x="89.03" y="74.58" class="green" >T</text></g>
<g><title>34 (position.label in template: 34.A)</title><text x="85.6" y="81.2" class="black" >A</text></g>
<g><title>35 (position.label in template: 35.A)</title><text x="79.4" y="85.53" class="black" >A</text></g>
<g><title>36 (position.label in template: 36.G)</title><text x="78.98" y="93.09" class="black" >G</text></g>
<g><title>37 (position.label in template: 37.G)</title><text x="78.98" y="100.65" class="green" >G</text></g>
<g><title>38 (position.label in template: 38.A)</title><text x="79.4" y="108.21" class="green" >A</text></g>
<g><title>39 (position.label in template: 39.C)</title><text x="79.19" y="115.77" class="black" >C</text></g>
<g><title>40 (position.label in template: 40.A)</title><text x="79.4" y="123.33" class="green" >A</text></g>
<g><title>41 (position.label in template: 41.G)</title><text x="78.98" y="130.89" class="black" >G</text></g>
<g><title>42 (position.label in template: 42.G)</title><text x="78.98" y="138.45" class="black" >G</text></g>
<g><title>43 (position.label in template: 43.A)</title><text x="86.67" y="136.4" class="black" >A</text></g>
<g><title>44 (position.label in template: 44.U)</title><text x="94.02" y="136.66" class="green" >T</text></g>
<g><title>45 (position.label in template: 45.U)</title><text x="101.15" y="139.18" class="green" >T</text></g>
<g><title>46 (position.label in template: 46.A)</title><text x="107.38" y="143.75" class="black" >A</text></g>
<g><title>47 (position.label in template: 47.C)</title><text x="111.54" y="149.92" class="black" >C</text></g>
<g><title>48 (position.label in template: 48.A)</title><text x="114.03" y="157.13" class="black" >A</text></g>
<g><title>49 (position.label in template: 49.U)</title><text x="113.82" y="164.69" class="green" >T</text></g>
<g><title>50 (position.label in template: 50.C)</title><text x="111.54" y="171.89" class="black" >C</text></g>
<g><text x="117.719" y="174.956" class="numbering-label sequential" >50</text></g>
<g><line x1="113.188" y1="172.708" x2="115.879" y2="174.043" class="numbering-line sequential" /></g>
<g><title>51 (position.label in template: 51.U)</title><text x="107.18" y="178.07" class="green" >T</text></g>
<g><title>52 (position.label in template: 52.G)</title><text x="100.94" y="182.63" class="black" >G</text></g>
<g><title>53 (position.label in template: 53.U)</title><text x="94.02" y="185.16" class="green" >T</text></g>
<g><title>54 (position.label in template: 54.G)</title><text x="86.26" y="185.42" class="black" >G</text></g>
<g><title>55 (position.label in template: 55.A)</title><text x="79.4" y="183.37" class="green" >A</text></g>
<g><title>56 (position.label in template: 56.C)</title><text x="79.19" y="190.93" class="black" >C</text></g>
<g><title>57 (position.label in template: 57.A)</title><text x="79.4" y="198.49" class="green" >A</text></g>
<g><title>58 (position.label in template: 58.U)</title><text x="79.19" y="206.05" class="green" >T</text></g>
<g><title>59 (position.label in template: 59.A)</title><text x="79.4" y="213.61" class="black" >A</text></g>
<g><title>60 (position.label in template: 60.C)</title><text x="79.19" y="221.17" class="black" >C</text></g>
<g><title>61 (position.label in template: 61.U)</title><text x="84.54" y="226.52" class="green" >T</text></g>
<g><title>62 (position.label in template: 62.A)</title><text x="92.3" y="226.52" class="black" >A</text></g>
<g><title>63 (position.label in template: 63.A)</title><text x="99.86" y="226.52" class="black" >A</text></g>
<g><title>64 (position.label in template: 64.A)</title><text x="107.42" y="226.52" class="black" >A</text></g>
<g><title>65 (position.label in template: 65.U)</title><text x="114.78" y="226.52" class="green" >T</text></g>
<g><title>66 (position.label in template: 66.U)</title><text x="122.34" y="226.52" class="green" >T</text></g>
<g><title>67 (position.label in template: 67.U)</title><text x="129.9" y="226.52" class="green" >T</text></g>
<g><title>68 (position.label in template: 68.A)</title><text x="137.66" y="226.52" class="black" >A</text></g>
<g><title>69 (position.label in template: 69.A)</title><text x="145.22" y="226.52" class="black" >A</text></g>
<g><title>70 (position.label in template: 70.A)</title><text x="152.78" y="226.52" class="black" >A</text></g>
<g><title>71 (position.label in template: 71.A)</title><text x="158.13" y="221.17" class="green" >A</text></g>
<g><line x1="160.174" y1="220.863" x2="168.116" y2="220.863" class="black" /></g>
<g><title>72 (position.label in template: 72.G)</title><text x="157.71" y="213.61" class="black" >G</text></g>
<g><line x1="159.754" y1="213.303" x2="168.116" y2="213.303" class="black" /></g>
<g><title>73 (position.label in template: 73.A)</title><text x="158.13" y="206.05" class="green" >A</text></g>
<g><line x1="160.174" y1="205.743" x2="168.116" y2="205.743" class="black" /></g>
<g><title>74 (position.label in template: 74.A)</title><text x="158.13" y="198.49" class="black" >A</text></g>
<g><line x1="160.174" y1="198.183" x2="168.116" y2="198.183" class="black" /></g>
<g><title>75 (position.label in template: 75.A)</title><text x="151.13" y="195.62" class="black" >A</text></g>
<g><title>76 (position.label in template: 76.U)</title><text x="145.07" y="190.85" class="green" >T</text></g>
<g><title>77 (position.label in template: 77.A)</title><text x="141.06" y="184.57" class="black" >A</text></g>
<g><title>78 (position.label in template: 78.U)</title><text x="138.65" y="177.34" class="green" >T</text></g>
<g><title>79 (position.label in template: 79.U)</title><text x="138.65" y="169.78" class="green" >T</text></g>
<g><title>80 (position.label in template: 80.A)</title><text x="141.06" y="162.55" class="black" >A</text></g>
<g><title>81 (position.label in template: 81.G)</title><text x="144.86" y="156.27" class="black" >G</text></g>
<g><title>82 (position.label in template: 82.G)</title><text x="150.72" y="151.49" class="black" >G</text></g>
<g><title>83 (position.label in template: 83.G)</title><text x="157.71" y="148.63" class="black" >G</text></g>
<g><line x1="159.754" y1="148.323" x2="168.326" y2="148.323" class="black" /></g>
<g><title>84 (position.label in template: 84.C)</title><text x="157.92" y="141.07" class="black" >C</text></g>
<g><line x1="159.964" y1="140.763" x2="167.906" y2="140.763" class="black" /></g>
<g><title>85 (position.label in template: 85.U)</title><text x="153.22" y="135.15" class="green" >T</text></g>
<g><title>86 (position.label in template: 86.G)</title><text x="153.01" y="127.59" class="black" >G</text></g>
<g><title>87 (position.label in template: 87.C)</title><text x="157.92" y="121.67" class="black" >C</text></g>
<g><line x1="159.964" y1="121.363" x2="168.116" y2="121.363" class="black" /></g>
<g><title>88 (position.label in template: 88.C)</title><text x="157.92" y="114.11" class="black" >C</text></g>
<g><line x1="159.964" y1="113.803" x2="168.326" y2="113.803" class="black" /></g>
<g><title>89 (position.label in template: 89.A)</title><text x="158.13" y="106.55" class="green" >A</text></g>
<g><line x1="160.174" y1="106.243" x2="168.116" y2="106.243" class="black" /></g>
<g><title>90 (position.label in template: 90.A)</title><text x="158.13" y="98.99" class="green" >A</text></g>
<g><line x1="160.174" y1="98.6834" x2="168.116" y2="98.6834" class="black" /></g>
<g><title>91 (position.label in template: 91.C)</title><text x="157.92" y="91.43" class="black" >C</text></g>
<g><line x1="159.964" y1="91.1234" x2="167.906" y2="91.1234" class="black" /></g>
<g><title>92 (position.label in template: 92.C)</title><text x="157.92" y="83.87" class="black" >C</text></g>
<g><line x1="159.964" y1="83.5634" x2="167.906" y2="83.5634" class="black" /></g>
<g><title>93 (position.label in template: 93.U)</title><text x="157.92" y="76.31" class="green" >T</text></g>
<g><line x1="159.964" y1="76.0034" x2="168.326" y2="76.0034" class="black" /></g>
<g><title>94 (position.label in template: 94.U)</title><text x="157.92" y="68.75" class="green" >T</text></g>
<g><line x1="159.964" y1="68.4434" x2="168.326" y2="68.4434" class="black" /></g>
<g><title>95 (position.label in template: 95.A)</title><text x="153.87" y="62.51" class="black" >A</text></g>
<g><title>96 (position.label in template: 96.G)</title><text x="154.39" y="55.01" class="black" >G</text></g>
<g><title>97 (position.label in template: 97.A)</title><text x="160.47" y="50" class="black" >A</text></g>
<g><title>98 (position.label in template: 98.A)</title><text x="168.03" y="50" class="black" >A</text></g>
<g><title>99 (position.label in template: 99.C)</title><text x="173.49" y="55.01" class="black" >C</text></g>
<g><title>100 (position.label in template: 100.A)</title><text x="174.63" y="62.51" class="black" >A</text></g>
<g><text x="181.356" y="64.0374" class="numbering-label sequential" >100</text></g>
<g><line x1="176.424" y1="62.9173" x2="178.597" y2="63.4109" class="numbering-line sequential" /></g>
<g><title>101 (position.label in template: 101.A)</title><text x="170.37" y="68.75" class="green" >A</text></g>
<g><title>102 (position.label in template: 102.A)</title><text x="170.37" y="76.31" class="green" >A</text></g>
<g><title>103 (position.label in template: 103.G)</title><text x="169.95" y="83.87" class="black" >G</text></g>
<g><title>104 (position.label in template: 104.G)</title><text x="169.95" y="91.43" class="black" >G</text></g>
<g><title>105 (position.label in template: 105.U)</title><text x="170.16" y="98.99" class="green" >T</text></g>
<g><title>106 (position.label in template: 106.U)</title><text x="170.16" y="106.55" class="green" >T</text></g>
<g><title>107 (position.label in template: 107.A)</title><text x="170.37" y="114.11" class="black" >A</text></g>
<g><title>108 (position.label in template: 108.U)</title><text x="176.71" y="117.89" class="green" >T</text></g>
<g><title>109 (position.label in template: 109.C)</title><text x="170.16" y="121.67" class="black" >C</text></g>
<g><title>110 (position.label in template: 110.U)</title><text x="174.87" y="127.59" class="green" >T</text></g>
<g><title>111 (position.label in template: 111.A)</title><text x="175.07" y="135.15" class="black" >A</text></g>
<g><title>112 (position.label in template: 112.G)</title><text x="169.95" y="141.07" class="black" >G</text></g>
<g><title>113 (position.label in template: 113.A)</title><text x="170.37" y="148.63" class="black" >A</text></g>
<g><title>114 (position.label in template: 114.A)</title><text x="177.77" y="150.15" class="black" >A</text></g>
<g><title>115 (position.label in template: 115.G)</title><text x="183.97" y="153.82" class="black" >G</text></g>
<g><title>116 (position.label in template: 116.U)</title><text x="189.39" y="159.3" class="green" >T</text></g>
<g><title>117 (position.label in template: 117.G)</title><text x="192.5" y="166.08" class="black" >G</text></g>
<g><title>118 (position.label in template: 118.U)</title><text x="193.86" y="173.56" class="green" >T</text></g>
<g><title>119 (position.label in template: 119.A)</title><text x="192.92" y="181.03" class="black" >A</text></g>
<g><title>120 (position.label in template: 120.U)</title><text x="189.39" y="187.82" class="green" >T</text></g>
<g><title>121 (position.label in template: 121.G)</title><text x="183.97" y="193.3" class="black" >G</text></g>
<g><title>122 (position.label in template: 122.U)</title><text x="177.57" y="196.97" class="green" >T</text></g>
<g><title>123 (position.label in template: 123.C)</title><text x="170.16" y="198.49" class="black" >C</text></g>
<g><title>124 (position.label in template: 124.U)</title><text x="170.16" y="206.05" class="green" >T</text></g>
<g><title>125 (position.label in template: 125.C)</title><text x="170.16" y="213.61" class="black" >C</text></g>
<g><title>126 (position.label in template: 126.U)</title><text x="170.16" y="221.17" class="green" >T</text></g>
<g><title>127 (position.label in template: 127.U)</title><text x="175.507" y="226.517" class="green" >T</text></g>
<g><title>128 (position.label in template: 128.U)</title><text x="183.069" y="226.517" class="green" >T</text></g>
<g><title>129 (position.label in template: 129.U)</title><text x="190.63" y="226.517" class="green" >T</text></g>
<g><title>130 (position.label in template: 130.A)</title><text x="198.192" y="226.517" class="black" >A</text></g>
<g><title>131 (position.label in template: 131.A)</title><text x="205.754" y="226.517" class="black" >A</text></g>
<g><title>132 (position.label in template: 132.A)</title><text x="213.315" y="226.517" class="black" >A</text></g>
<g><title>133 (position.label in template: 133.A)</title><text x="220.877" y="226.517" class="black" >A</text></g>
<g><title>134 (position.label in template: 134.3')</title><text x="228.439" y="226.517" class="green" >3'</text></g>
<g><line x1="48.4268" y1="226.321" x2="51.901" y2="226.321" class="gray" /></g>
<g><line x1="55.9885" y1="226.321" x2="59.4627" y2="226.321" class="gray" /></g>
<g><line x1="62.921" y1="224.846" x2="65.3255" y2="222.339" class="gray" /></g>
<g><line x1="66.7967" y1="218.82" x2="66.8933" y2="215.346" class="gray" /></g>
<g><line x1="66.95" y1="211.26" x2="66.95" y2="207.787" class="gray" /></g>
<g><line x1="66.95" y1="203.7" x2="66.95" y2="200.227" class="gray" /></g>
<g><line x1="66.8933" y1="196.14" x2="66.7967" y2="192.666" class="gray" /></g>
<g><line x1="66.7967" y1="188.58" x2="66.8933" y2="185.106" class="gray" /></g>
<g><line x1="65.102" y1="182.191" x2="62.128" y2="180.786" class="gray" /></g>
<g><line x1="58.7419" y1="178.568" x2="55.8981" y2="176.079" class="gray" /></g>
<g><line x1="53.4449" y1="172.906" x2="51.9351" y2="169.891" class="gray" /></g>
<g><line x1="50.7431" y1="166.039" x2="50.2769" y2="162.628" class="gray" /></g>
<g><line x1="50.3325" y1="158.587" x2="50.8975" y2="155.16" class="gray" /></g>
<g><line x1="52.1451" y1="151.316" x2="53.6549" y2="148.301" class="gray" /></g>
<g><line x1="56.0824" y1="145.099" x2="58.7676" y2="142.658" class="gray" /></g>
<g><line x1="62.1291" y1="140.413" x2="65.1009" y2="139.014" class="gray" /></g>
<g><line x1="66.95" y1="136.1" x2="66.95" y2="132.627" class="gray" /></g>
<g><line x1="66.95" y1="128.54" x2="66.95" y2="125.067" class="gray" /></g>
<g><line x1="66.8933" y1="120.98" x2="66.7967" y2="117.506" class="gray" /></g>
<g><line x1="66.7967" y1="113.42" x2="66.8933" y2="109.946" class="gray" /></g>
<g><line x1="66.95" y1="105.86" x2="66.95" y2="102.387" class="gray" /></g>
<g><line x1="66.95" y1="98.2997" x2="66.95" y2="94.8272" class="gray" /></g>
<g><line x1="66.95" y1="90.7397" x2="66.95" y2="87.2672" class="gray" /></g>
<g><line x1="65.2744" y1="84.0532" x2="62.4256" y2="82.0636" class="gray" /></g>
<g><line x1="59.7653" y1="79.1026" x2="58.0947" y2="76.0643" class="gray" /></g>
<g><line x1="57.083" y1="72.2299" x2="57.037" y2="68.757" class="gray" /></g>
<g><line x1="57.7949" y1="64.8264" x2="59.0951" y2="61.7005" class="gray" /></g>
<g><line x1="61.4551" y1="58.5112" x2="64.1349" y2="56.2957" class="gray" /></g>
<g><line x1="67.7001" y1="54.5284" x2="71.0799" y2="53.7385" class="gray" /></g>
<g><line x1="75.063" y1="53.7263" x2="78.647" y2="54.5406" class="gray" /></g>
<g><line x1="82.1913" y1="56.3239" x2="84.7087" y2="58.4829" class="gray" /></g>
<g><line x1="87.0931" y1="61.6797" x2="88.5069" y2="64.8472" class="gray" /></g>
<g><line x1="89.2563" y1="68.7555" x2="89.1137" y2="72.2314" class="gray" /></g>
<g><line x1="88.0898" y1="76.0881" x2="86.5402" y2="79.0788" class="gray" /></g>
<g><line x1="83.9244" y1="82.0636" x2="81.0756" y2="84.0532" class="gray" /></g>
<g><line x1="79.2866" y1="87.264" x2="79.0934" y2="90.7428" class="gray" /></g>
<g><line x1="78.98" y1="94.8272" x2="78.98" y2="98.2997" class="gray" /></g>
<g><line x1="79.0934" y1="102.384" x2="79.2866" y2="105.863" class="gray" /></g>
<g><line x1="79.3433" y1="109.946" x2="79.2467" y2="113.42" class="gray" /></g>
<g><line x1="79.2467" y1="117.506" x2="79.3433" y2="120.98" class="gray" /></g>
<g><line x1="79.2866" y1="125.064" x2="79.0934" y2="128.543" class="gray" /></g>
<g><line x1="78.98" y1="132.627" x2="78.98" y2="136.1" class="gray" /></g>
<g><line x1="80.9548" y1="137.617" x2="84.6952" y2="136.62" class="gray" /></g>
<g><line x1="88.7125" y1="136.166" x2="91.9775" y2="136.281" class="gray" /></g>
<g><line x1="95.9469" y1="137.034" x2="99.2231" y2="138.192" class="gray" /></g>
<g><line x1="102.798" y1="140.082" x2="105.732" y2="142.235" class="gray" /></g>
<g><line x1="108.523" y1="145.138" x2="110.397" y2="147.919" class="gray" /></g>
<g><line x1="112.207" y1="151.545" x2="113.363" y2="154.892" class="gray" /></g>
<g><line x1="113.973" y1="158.866" x2="113.877" y2="162.34" class="gray" /></g>
<g><line x1="113.203" y1="166.332" x2="112.157" y2="169.635" class="gray" /></g>
<g><line x1="110.362" y1="173.253" x2="108.358" y2="176.093" class="gray" /></g>
<g><line x1="105.53" y1="178.969" x2="102.59" y2="181.118" class="gray" /></g>
<g><line x1="99.0205" y1="183.025" x2="95.9395" y2="184.152" class="gray" /></g>
<g><line x1="91.9774" y1="184.922" x2="88.3026" y2="185.045" class="gray" /></g>
<g><line x1="84.3018" y1="184.528" x2="81.3582" y2="183.649" class="gray" /></g>
<g><line x1="79.3433" y1="185.106" x2="79.2467" y2="188.58" class="gray" /></g>
<g><line x1="79.2467" y1="192.666" x2="79.3433" y2="196.14" class="gray" /></g>
<g><line x1="79.3433" y1="200.226" x2="79.2467" y2="203.7" class="gray" /></g>
<g><line x1="79.2467" y1="207.786" x2="79.3433" y2="211.26" class="gray" /></g>
<g><line x1="79.3433" y1="215.346" x2="79.2467" y2="218.82" class="gray" /></g>
<g><line x1="80.6351" y1="222.309" x2="83.0949" y2="224.768" class="gray" /></g>
<g><line x1="86.5838" y1="226.213" x2="90.2562" y2="226.213" class="gray" /></g>
<g><line x1="94.3438" y1="226.213" x2="97.8162" y2="226.213" class="gray" /></g>
<g><line x1="101.904" y1="226.213" x2="105.376" y2="226.213" class="gray" /></g>
<g><line x1="109.464" y1="226.213" x2="112.736" y2="226.213" class="gray" /></g>
<g><line x1="116.824" y1="226.213" x2="120.296" y2="226.213" class="gray" /></g>
<g><line x1="124.384" y1="226.213" x2="127.856" y2="226.213" class="gray" /></g>
<g><line x1="131.944" y1="226.213" x2="135.616" y2="226.213" class="gray" /></g>
<g><line x1="139.704" y1="226.213" x2="143.176" y2="226.213" class="gray" /></g>
<g><line x1="147.264" y1="226.213" x2="150.736" y2="226.213" class="gray" /></g>
<g><line x1="154.225" y1="224.768" x2="156.685" y2="222.309" class="gray" /></g>
<g><line x1="158.017" y1="218.823" x2="157.823" y2="215.344" class="gray" /></g>
<g><line x1="157.823" y1="211.263" x2="158.017" y2="207.784" class="gray" /></g>
<g><line x1="158.13" y1="203.7" x2="158.13" y2="200.227" class="gray" /></g>
<g><line x1="156.239" y1="197.408" x2="153.021" y2="196.089" class="gray" /></g>
<g><line x1="149.524" y1="194.049" x2="146.676" y2="191.808" class="gray" /></g>
<g><line x1="143.97" y1="188.821" x2="142.16" y2="185.986" class="gray" /></g>
<g><line x1="140.414" y1="182.325" x2="139.296" y2="178.972" class="gray" /></g>
<g><line x1="138.65" y1="174.99" x2="138.65" y2="171.517" class="gray" /></g>
<g><line x1="139.296" y1="167.535" x2="140.414" y2="164.182" class="gray" /></g>
<g><line x1="142.118" y1="160.495" x2="143.802" y2="157.712" class="gray" /></g>
<g><line x1="146.444" y1="154.672" x2="149.136" y2="152.475" class="gray" /></g>
<g><line x1="152.612" y1="150.41" x2="155.818" y2="149.097" class="gray" /></g>
<g><line x1="157.767" y1="146.28" x2="157.863" y2="142.806" class="gray" /></g>
<g><line x1="156.649" y1="139.163" x2="154.491" y2="136.444" class="gray" /></g>
<g><line x1="153.163" y1="132.8" x2="153.067" y2="129.326" class="gray" /></g>
<g><line x1="154.315" y1="125.71" x2="156.615" y2="122.937" class="gray" /></g>
<g><line x1="157.92" y1="119.32" x2="157.92" y2="115.847" class="gray" /></g>
<g><line x1="157.977" y1="111.76" x2="158.073" y2="108.286" class="gray" /></g>
<g><line x1="158.13" y1="104.2" x2="158.13" y2="100.727" class="gray" /></g>
<g><line x1="158.073" y1="96.6405" x2="157.977" y2="93.1664" class="gray" /></g>
<g><line x1="157.92" y1="89.0797" x2="157.92" y2="85.6072" class="gray" /></g>
<g><line x1="157.92" y1="81.5197" x2="157.92" y2="78.0472" class="gray" /></g>
<g><line x1="157.92" y1="73.9597" x2="157.92" y2="70.4872" class="gray" /></g>
<g><line x1="156.807" y1="66.7291" x2="154.983" y2="63.9178" class="gray" /></g>
<g><line x1="154.011" y1="60.1646" x2="154.249" y2="56.7423" class="gray" /></g>
<g><line x1="155.967" y1="53.4038" x2="158.893" y2="50.9931" class="gray" /></g>
<g><line x1="162.514" y1="49.6934" x2="165.986" y2="49.6934" class="gray" /></g>
<g><line x1="169.536" y1="51.0752" x2="171.984" y2="53.3217" class="gray" /></g>
<g><line x1="173.797" y1="56.724" x2="174.323" y2="60.1829" class="gray" /></g>
<g><line x1="173.478" y1="63.8914" x2="171.522" y2="66.7555" class="gray" /></g>
<g><line x1="170.37" y1="70.4872" x2="170.37" y2="73.9597" class="gray" /></g>
<g><line x1="170.257" y1="78.044" x2="170.063" y2="81.5228" class="gray" /></g>
<g><line x1="169.95" y1="85.6072" x2="169.95" y2="89.0797" class="gray" /></g>
<g><line x1="170.007" y1="93.1664" x2="170.103" y2="96.6405" class="gray" /></g>
<g><line x1="170.16" y1="100.727" x2="170.16" y2="104.2" class="gray" /></g>
<g><line x1="170.217" y1="108.286" x2="170.313" y2="111.76" class="gray" /></g>
<g><line x1="172.125" y1="114.85" x2="174.955" y2="116.537" class="gray" /></g>
<g><line x1="174.94" y1="118.605" x2="171.93" y2="120.342" class="gray" /></g>
<g><line x1="171.432" y1="122.963" x2="173.598" y2="125.684" class="gray" /></g>
<g><line x1="174.924" y1="129.326" x2="175.016" y2="132.8" class="gray" /></g>
<g><line x1="173.733" y1="136.389" x2="171.287" y2="139.218" class="gray" /></g>
<g><line x1="170.063" y1="142.804" x2="170.257" y2="146.283" class="gray" /></g>
<g><line x1="172.372" y1="148.735" x2="175.768" y2="149.432" class="gray" /></g>
<g><line x1="179.529" y1="150.884" x2="182.211" y2="152.472" class="gray" /></g>
<g><line x1="185.407" y1="154.967" x2="187.953" y2="157.54" class="gray" /></g>
<g><line x1="190.242" y1="160.851" x2="191.648" y2="163.916" class="gray" /></g>
<g><line x1="192.866" y1="167.784" x2="193.494" y2="171.243" class="gray" /></g>
<g><line x1="193.605" y1="175.281" x2="193.175" y2="178.696" class="gray" /></g>
<g><line x1="191.977" y1="182.537" x2="190.333" y2="185.7" class="gray" /></g>
<g><line x1="187.953" y1="188.967" x2="185.407" y2="191.54" class="gray" /></g>
<g><line x1="182.197" y1="194.01" x2="179.343" y2="195.647" class="gray" /></g>
<g><line x1="175.568" y1="197.074" x2="172.162" y2="197.773" class="gray" /></g>
<g><line x1="170.16" y1="200.227" x2="170.16" y2="203.7" class="gray" /></g>
<g><line x1="170.16" y1="207.787" x2="170.16" y2="211.26" class="gray" /></g>
<g><line x1="170.16" y1="215.347" x2="170.16" y2="218.82" class="gray" /></g>
<g><line x1="171.605" y1="222.309" x2="174.062" y2="224.765" class="gray" /></g>
<g><line x1="177.551" y1="226.21" x2="181.025" y2="226.21" class="gray" /></g>
<g><line x1="185.112" y1="226.21" x2="188.587" y2="226.21" class="gray" /></g>
<g><line x1="192.674" y1="226.21" x2="196.148" y2="226.21" class="gray" /></g>
<g><line x1="200.236" y1="226.21" x2="203.71" y2="226.21" class="gray" /></g>
<g><line x1="207.797" y1="226.21" x2="211.272" y2="226.21" class="gray" /></g>
<g><line x1="215.359" y1="226.21" x2="218.833" y2="226.21" class="gray" /></g>
<g><line x1="222.921" y1="226.21" x2="226.395" y2="226.21" class="gray" /></g>
</svg>
