<svg
	xmlns="http://www.w3.org/2000/svg"
	width="228.44"
	height="238.031">
<g><style type="text/css" >
<!-- create color definitions -->
<![CDATA[
circle.red {stroke: rgb(255, 0, 255); fill: none; }
circle.green {stroke: rgb(0, 255, 0); fill: none; }
circle.blue {stroke: rgb(0, 0, 255); fill: none; }
circle.black {stroke: rgb(0, 0, 0); fill: none; }
circle.gray {stroke: rgb(204, 204, 204); fill: none; }
circle.brown {stroke: rgb(211.65, 104.55, 30.6); fill: none; }
line.red {stroke: rgb(255, 0, 255); stroke-width: 0.381596; }
line.green {stroke: rgb(0, 255, 0); stroke-width: 0.381596; }
line.blue {stroke: rgb(0, 0, 255); stroke-width: 0.381596; }
line.black {stroke: rgb(0, 0, 0); stroke-width: 0.381596; }
line.gray {stroke: rgb(204, 204, 204); stroke-width: 0.381596; }
line.brown {stroke: rgb(211.65, 104.55, 30.6); stroke-width: 0.381596; }
line {stroke: rgb(0, 0, 0); }
text.red {fill: rgb(255, 0, 255); font-size: 3.052771px; font-weight: bold; font-family: Helvetica; }
text.green {fill: rgb(0, 255, 0); font-size: 3.052771px; font-weight: bold; font-family: Helvetica; }
text.blue {fill: rgb(0, 0, 255); font-size: 3.052771px; font-weight: bold; font-family: Helvetica; }
text.black {fill: rgb(0, 0, 0); font-size: 3.052771px; font-weight: bold; font-family: Helvetica; }
text.gray {fill: rgb(204, 204, 204); font-size: 3.052771px; font-weight: bold; font-family: Helvetica; }
text.brown {fill: rgb(211.65, 104.55, 30.6); font-size: 3.052771px; font-weight: bold; font-family: Helvetica; }
text {fill: rgb(0, 0, 0); font-size: 3.052771px; font-weight: bold; font-family: Helvetica; text-anchor: middle; alignment-baseline: middle; }

.pseudoknot_connection{stroke-linecap: round; stroke-opacity: 0.2; stroke-width: 1.5; }
.pseudoknot_segment1{stroke-linecap: round; stroke-opacity: 0.4; stroke-width: 3.05277; }
.pseudoknot_segment2{stroke-linecap: round; stroke-opacity: 0.4; stroke-width: 3.05277; }
line.numbering-line{stroke: rgb(204, 204, 204); stroke-width: 0.190798; }
line.predicted{stroke: rgb(0, 0, 0); stroke-dasharray: 2; }
polyline{fill: none; stroke-linejoin: round; }
template{visibility: hidden; }
text.numbering-label{fill: rgb(204, 204, 204); }
]]>
</style></g>
<g><title>0 (position.label in template: 0.5')</title><text x="114.791" y="189.726" class="green" >5'</text></g>
<g><title>1 (position.label in template: 1.G)</title><text x="112.05" y="182.68" class="black" >G</text></g>
<g><line x1="114.085" y1="182.375" x2="122.465" y2="182.375" class="black" /></g>
<g><title>2 (position.label in template: 2.A)</title><text x="109.37" y="175.79" class="black" >A</text></g>
<g><title>3 (position.label in template: 3.G)</title><text x="112.05" y="168.89" class="green" >G</text></g>
<g><line x1="114.085" y1="168.585" x2="122.465" y2="168.585" class="black" /></g>
<g><title>4 (position.label in template: 4.G)</title><text x="112.05" y="161.33" class="black" >G</text></g>
<g><line x1="114.085" y1="161.025" x2="122.465" y2="161.025" class="black" /></g>
<g><title>5 (position.label in template: 5.U)</title><text x="109.16" y="154.43" class="green" >T</text></g>
<g><title>6 (position.label in template: 6.U)</title><text x="112.26" y="147.54" class="green" >T</text></g>
<g><line x1="114.295" y1="147.235" x2="122.675" y2="147.235" class="black" /></g>
<g><title>7 (position.label in template: 7.A)</title><text x="112.47" y="139.98" class="green" >A</text></g>
<g><line x1="114.505" y1="139.675" x2="122.465" y2="139.675" class="black" /></g>
<g><title>8 (position.label in template: 8.U)</title><text x="105.44" y="136.72" class="green" >T</text></g>
<g><title>9 (position.label in template: 9.A)</title><text x="100.3" y="131.37" class="black" >A</text></g>
<g><title>10 (position.label in template: 10.G)</title><text x="96.62" y="124.55" class="green" >G</text></g>
<g><line x1="96.6549" y1="122.21" x2="96.7951" y2="114.04" class="black" /></g>
<g><text x="93.0077" y="130.392" class="numbering-label sequential" >10</text></g>
<g><line x1="95.6567" y1="126.108" x2="93.9515" y2="128.866" class="numbering-line sequential" /></g>
<g><title>11 (position.label in template: 11.C)</title><text x="89.27" y="124.55" class="black" >C</text></g>
<g><line x1="89.2351" y1="122.21" x2="89.0949" y2="114.04" class="black" /></g>
<g><title>12 (position.label in template: 12.U)</title><text x="81.71" y="124.55" class="green" >T</text></g>
<g><line x1="81.7449" y1="122.21" x2="81.8851" y2="114.04" class="black" /></g>
<g><title>13 (position.label in template: 13.C)</title><text x="74.15" y="124.55" class="black" >C</text></g>
<g><line x1="74.1151" y1="122.21" x2="73.9749" y2="114.04" class="black" /></g>
<g><title>14 (position.label in template: 14.A)</title><text x="69.02" y="129.9" class="black" >A</text></g>
<g><title>15 (position.label in template: 15.A)</title><text x="61.6" y="131.38" class="black" >A</text></g>
<g><title>16 (position.label in template: 16.A)</title><text x="54.62" y="128.5" class="black" >A</text></g>
<g><title>17 (position.label in template: 17.U)</title><text x="50.21" y="122.21" class="green" >T</text></g>
<g><title>18 (position.label in template: 18.G)</title><text x="50" y="114.65" class="black" >G</text></g>
<g><title>19 (position.label in template: 19.G)</title><text x="54.2" y="108.37" class="black" >G</text></g>
<g><title>20 (position.label in template: 20.U)</title><text x="61.4" y="105.48" class="green" >T</text></g>
<g><text x="60.7494" y="98.6421" class="numbering-label sequential" >20</text></g>
<g><line x1="61.2265" y1="103.657" x2="60.8947" y2="100.169" class="numbering-line sequential" /></g>
<g><title>21 (position.label in template: 21.A)</title><text x="69.02" y="106.96" class="black" >A</text></g>
<g><title>22 (position.label in template: 22.G)</title><text x="73.94" y="112.31" class="black" >G</text></g>
<g><title>23 (position.label in template: 23.A)</title><text x="81.92" y="112.31" class="green" >A</text></g>
<g><title>24 (position.label in template: 24.G)</title><text x="89.06" y="112.31" class="black" >G</text></g>
<g><title>25 (position.label in template: 25.U)</title><text x="96.83" y="112.31" class="green" >T</text></g>
<g><title>26 (position.label in template: 26.G)</title><text x="99.88" y="105.49" class="black" >G</text></g>
<g><title>27 (position.label in template: 27.C)</title><text x="105.44" y="100.15" class="black" >C</text></g>
<g><line x1="107.355" y1="99.1552" x2="114.855" y2="96.4543" class="black" /></g>
<g><title>28 (position.label in template: 28.A)</title><text x="103.13" y="93.02" class="green" >A</text></g>
<g><line x1="105.045" y1="92.0257" x2="112.555" y2="89.3237" class="black" /></g>
<g><title>29 (position.label in template: 29.C)</title><text x="100.41" y="85.89" class="black" >C</text></g>
<g><line x1="102.325" y1="84.8967" x2="109.825" y2="82.2028" class="black" /></g>
<g><title>30 (position.label in template: 30.A)</title><text x="95.4" y="80.42" class="black" >A</text></g>
<g><text x="88.9226" y="82.7053" class="numbering-label sequential" >30</text></g>
<g><line x1="93.6727" y1="81.0294" x2="90.7542" y2="82.0591" class="numbering-line sequential" /></g>
<g><title>31 (position.label in template: 31.C)</title><text x="95.82" y="72.88" class="black" >C</text></g>
<g><line x1="97.7355" y1="71.8872" x2="105.244" y2="69.1922" class="black" /></g>
<g><title>32 (position.label in template: 32.U)</title><text x="89.29" y="69.07" class="green" >T</text></g>
<g><title>33 (position.label in template: 33.U)</title><text x="86.4" y="62.08" class="green" >T</text></g>
<g><title>34 (position.label in template: 34.A)</title><text x="88.53" y="54.77" class="black" >A</text></g>
<g><title>35 (position.label in template: 35.G)</title><text x="94.07" y="50.11" class="black" >G</text></g>
<g><title>36 (position.label in template: 36.C)</title><text x="101.84" y="50" class="black" >C</text></g>
<g><title>37 (position.label in template: 37.A)</title><text x="108.13" y="54.49" class="black" >A</text></g>
<g><title>38 (position.label in template: 38.U)</title><text x="110.06" y="61.75" class="green" >T</text></g>
<g><title>39 (position.label in template: 39.G)</title><text x="107.16" y="68.81" class="black" >G</text></g>
<g><title>40 (position.label in template: 40.C)</title><text x="112.58" y="74.28" class="black" >C</text></g>
<g><title>41 (position.label in template: 41.G)</title><text x="111.74" y="81.82" class="black" >G</text></g>
<g><title>42 (position.label in template: 42.U)</title><text x="114.47" y="88.94" class="green" >T</text></g>
<g><title>43 (position.label in template: 43.G)</title><text x="116.77" y="96.07" class="black" >G</text></g>
<g><title>44 (position.label in template: 44.C)</title><text x="124.5" y="96.88" class="black" >C</text></g>
<g><title>45 (position.label in template: 45.A)</title><text x="131.53" y="100.15" class="black" >A</text></g>
<g><title>46 (position.label in template: 46.G)</title><text x="136.45" y="105.49" class="black" >G</text></g>
<g><title>47 (position.label in template: 47.U)</title><text x="139.93" y="112.31" class="green" >T</text></g>
<g><title>48 (position.label in template: 48.C)</title><text x="140.74" y="119.83" class="black" >C</text></g>
<g><title>49 (position.label in template: 49.C)</title><text x="139" y="127.19" class="black" >C</text></g>
<g><line x1="137.702" y1="128.452" x2="132.408" y2="134.847" class="black" /></g>
<g><title>50 (position.label in template: 50.U)</title><text x="144.89" y="131.93" class="green" >T</text></g>
<g><line x1="143.633" y1="133.226" x2="138.667" y2="139.554" class="black" /></g>
<g><text x="149.246" y="126.619" class="numbering-label sequential" >50</text></g>
<g><line x1="146.051" y1="130.514" x2="147.994" y2="128.145" class="numbering-line sequential" /></g>
<g><title>51 (position.label in template: 51.G)</title><text x="150.56" y="136.67" class="black" >G</text></g>
<g><line x1="149.304" y1="137.966" x2="144.346" y2="144.293" class="black" /></g>
<g><title>52 (position.label in template: 52.G)</title><text x="156.45" y="141.41" class="black" >G</text></g>
<g><line x1="155.195" y1="142.707" x2="150.235" y2="149.042" class="black" /></g>
<g><title>53 (position.label in template: 53.G)</title><text x="162.34" y="146.16" class="black" >G</text></g>
<g><line x1="161.084" y1="147.456" x2="156.126" y2="153.783" class="black" /></g>
<g><title>54 (position.label in template: 54.U)</title><text x="170.1" y="145.97" class="green" >T</text></g>
<g><title>55 (position.label in template: 55.U)</title><text x="176.24" y="150.39" class="green" >T</text></g>
<g><title>56 (position.label in template: 56.C)</title><text x="178.44" y="157.62" class="black" >C</text></g>
<g><title>57 (position.label in template: 57.A)</title><text x="176.03" y="164.72" class="black" >A</text></g>
<g><title>58 (position.label in template: 58.A)</title><text x="169.66" y="168.78" class="black" >A</text></g>
<g><title>59 (position.label in template: 59.U)</title><text x="161.92" y="168.16" class="green" >T</text></g>
<g><title>60 (position.label in template: 60.C)</title><text x="156.29" y="163.11" class="black" >C</text></g>
<g><title>61 (position.label in template: 61.C)</title><text x="154.87" y="155.69" class="black" >C</text></g>
<g><title>62 (position.label in template: 62.C)</title><text x="148.98" y="150.95" class="black" >C</text></g>
<g><title>63 (position.label in template: 63.C)</title><text x="143.09" y="146.2" class="black" >C</text></g>
<g><title>64 (position.label in template: 64.A)</title><text x="137.41" y="141.46" class="green" >A</text></g>
<g><title>65 (position.label in template: 65.G)</title><text x="131.11" y="136.72" class="black" >G</text></g>
<g><title>66 (position.label in template: 66.U)</title><text x="124.5" y="139.98" class="green" >T</text></g>
<g><title>67 (position.label in template: 67.A)</title><text x="124.71" y="147.54" class="green" >A</text></g>
<g><title>68 (position.label in template: 68.C)</title><text x="127.6" y="154.43" class="black" >C</text></g>
<g><title>69 (position.label in template: 69.C)</title><text x="124.5" y="161.33" class="black" >C</text></g>
<g><title>70 (position.label in template: 70.U)</title><text x="124.5" y="168.89" class="green" >T</text></g>
<g><title>71 (position.label in template: 71.C)</title><text x="127.6" y="175.79" class="black" >C</text></g>
<g><title>72 (position.label in template: 72.C)</title><text x="124.5" y="182.68" class="black" >C</text></g>
<g><title>73 (position.label in template: 73.U)</title><text x="129.841" y="188.031" class="green" >T</text></g>
<g><title>74 (position.label in template: 74.3')</title><text x="131.202" y="195.468" class="green" >3'</text></g>
<g><line x1="114.053" y1="187.524" x2="112.788" y2="184.271" class="gray" /></g>
<g><line x1="111.312" y1="180.478" x2="110.108" y2="177.381" class="gray" /></g>
<g><line x1="110.107" y1="173.588" x2="111.313" y2="170.482" class="gray" /></g>
<g><line x1="112.05" y1="166.55" x2="112.05" y2="163.06" class="gray" /></g>
<g><line x1="111.264" y1="159.148" x2="109.946" y2="156.002" class="gray" /></g>
<g><line x1="109.995" y1="152.269" x2="111.425" y2="149.091" class="gray" /></g>
<g><line x1="112.317" y1="145.2" x2="112.413" y2="141.709" class="gray" /></g>
<g><line x1="110.624" y1="138.819" x2="107.286" y2="137.271" class="gray" /></g>
<g><line x1="104.03" y1="134.947" x2="101.71" y2="132.532" class="gray" /></g>
<g><line x1="99.3336" y1="129.274" x2="97.5864" y2="126.036" class="gray" /></g>
<g><line x1="94.5848" y1="124.245" x2="91.3052" y2="124.245" class="gray" /></g>
<g><line x1="87.2348" y1="124.245" x2="83.7452" y2="124.245" class="gray" /></g>
<g><line x1="79.6748" y1="124.245" x2="76.1852" y2="124.245" class="gray" /></g>
<g><line x1="72.7414" y1="125.714" x2="70.4286" y2="128.126" class="gray" /></g>
<g><line x1="67.0241" y1="129.993" x2="63.5959" y2="130.677" class="gray" /></g>
<g><line x1="59.7187" y1="130.298" x2="56.5013" y2="128.971" class="gray" /></g>
<g><line x1="53.4517" y1="126.528" x2="51.3783" y2="123.571" class="gray" /></g>
<g><line x1="50.1535" y1="119.87" x2="50.0565" y2="116.379" class="gray" /></g>
<g><line x1="51.1314" y1="112.653" x2="53.0686" y2="109.756" class="gray" /></g>
<g><line x1="56.0887" y1="107.307" x2="59.5113" y2="105.933" class="gray" /></g>
<g><line x1="63.3978" y1="105.563" x2="67.0222" y2="106.267" class="gray" /></g>
<g><line x1="70.3976" y1="108.153" x2="72.5624" y2="110.507" class="gray" /></g>
<g><line x1="75.9752" y1="112.005" x2="79.8848" y2="112.005" class="gray" /></g>
<g><line x1="83.9552" y1="112.005" x2="87.0248" y2="112.005" class="gray" /></g>
<g><line x1="91.0952" y1="112.005" x2="94.7948" y2="112.005" class="gray" /></g>
<g><line x1="97.6609" y1="110.147" x2="99.0491" y2="107.043" class="gray" /></g>
<g><line x1="101.348" y1="103.775" x2="103.972" y2="101.254" class="gray" /></g>
<g><line x1="104.813" y1="97.9086" x2="103.757" y2="94.6508" class="gray" /></g>
<g><line x1="102.405" y1="90.8132" x2="101.135" y2="87.4862" class="gray" /></g>
<g><line x1="99.0354" y1="84.0839" x2="96.7746" y2="81.6155" class="gray" /></g>
<g><line x1="95.5132" y1="78.0827" x2="95.7068" y2="74.6068" class="gray" /></g>
<g><line x1="94.0622" y1="71.5491" x2="91.0478" y2="69.7904" class="gray" /></g>
<g><line x1="88.5124" y1="66.884" x2="87.1776" y2="63.6555" class="gray" /></g>
<g><line x1="86.9693" y1="59.8208" x2="87.9607" y2="56.4186" class="gray" /></g>
<g><line x1="90.0875" y1="53.1547" x2="92.5125" y2="51.1148" class="gray" /></g>
<g><line x1="96.105" y1="49.7759" x2="99.805" y2="49.7235" class="gray" /></g>
<g><line x1="103.496" y1="50.8771" x2="106.474" y2="53.0023" class="gray" /></g>
<g><line x1="108.653" y1="56.1516" x2="109.537" y2="59.4779" class="gray" /></g>
<g><line x1="109.287" y1="63.3273" x2="107.933" y2="66.6222" class="gray" /></g>
<g><line x1="108.592" y1="69.9504" x2="111.148" y2="72.529" class="gray" /></g>
<g><line x1="112.355" y1="75.9974" x2="111.965" y2="79.4921" class="gray" /></g>
<g><line x1="112.469" y1="83.415" x2="113.741" y2="86.7344" class="gray" /></g>
<g><line x1="115.095" y1="90.5716" x2="116.145" y2="93.8278" class="gray" /></g>
<g><line x1="118.794" y1="95.9768" x2="122.476" y2="96.3626" class="gray" /></g>
<g><line x1="126.345" y1="97.4331" x2="129.685" y2="98.9864" class="gray" /></g>
<g><line x1="132.909" y1="101.341" x2="135.071" y2="103.688" class="gray" /></g>
<g><line x1="137.375" y1="106.998" x2="139.005" y2="110.192" class="gray" /></g>
<g><line x1="140.148" y1="114.028" x2="140.522" y2="117.501" class="gray" /></g>
<g><line x1="140.272" y1="121.505" x2="139.468" y2="124.904" class="gray" /></g>
<g><line x1="140.586" y1="128.161" x2="143.304" y2="130.349" class="gray" /></g>
<g><line x1="146.451" y1="132.93" x2="148.999" y2="135.059" class="gray" /></g>
<g><line x1="152.146" y1="137.641" x2="154.864" y2="139.829" class="gray" /></g>
<g><line x1="158.034" y1="142.382" x2="160.756" y2="144.577" class="gray" /></g>
<g><line x1="164.375" y1="145.805" x2="168.065" y2="145.715" class="gray" /></g>
<g><line x1="171.752" y1="146.854" x2="174.588" y2="148.896" class="gray" /></g>
<g><line x1="176.832" y1="152.032" x2="177.848" y2="155.368" class="gray" /></g>
<g><line x1="177.786" y1="159.242" x2="176.684" y2="162.488" class="gray" /></g>
<g><line x1="174.314" y1="165.509" x2="171.376" y2="167.381" class="gray" /></g>
<g><line x1="167.631" y1="168.312" x2="163.949" y2="168.017" class="gray" /></g>
<g><line x1="160.405" y1="166.496" x2="157.805" y2="164.164" class="gray" /></g>
<g><line x1="155.907" y1="160.806" x2="155.253" y2="157.384" class="gray" /></g>
<g><line x1="153.284" y1="154.109" x2="150.566" y2="151.921" class="gray" /></g>
<g><line x1="147.396" y1="149.367" x2="144.674" y2="147.172" class="gray" /></g>
<g><line x1="141.527" y1="144.591" x2="138.973" y2="142.459" class="gray" /></g>
<g><line x1="135.784" y1="139.931" x2="132.736" y2="137.638" class="gray" /></g>
<g><line x1="129.285" y1="137.315" x2="126.325" y2="138.775" class="gray" /></g>
<g><line x1="124.557" y1="141.709" x2="124.653" y2="145.2" class="gray" /></g>
<g><line x1="125.497" y1="149.111" x2="126.813" y2="152.248" class="gray" /></g>
<g><line x1="126.766" y1="155.981" x2="125.334" y2="159.168" class="gray" /></g>
<g><line x1="124.5" y1="163.06" x2="124.5" y2="166.55" class="gray" /></g>
<g><line x1="125.334" y1="170.441" x2="126.766" y2="173.628" class="gray" /></g>
<g><line x1="126.765" y1="177.341" x2="125.335" y2="180.519" class="gray" /></g>
<g><line x1="125.938" y1="183.815" x2="128.403" y2="186.285" class="gray" /></g>
<g><line x1="130.207" y1="189.728" x2="130.836" y2="193.161" class="gray" /></g>
</svg>
