<svg
	xmlns="http://www.w3.org/2000/svg"
	width="148.9"
	height="265.196">
<g><style type="text/css" >
<!-- create color definitions -->
<![CDATA[
circle.red {stroke: rgb(255, 0, 255); fill: none; }
circle.green {stroke: rgb(0, 255, 0); fill: none; }
circle.blue {stroke: rgb(0, 0, 255); fill: none; }
circle.black {stroke: rgb(0, 0, 0); fill: none; }
circle.gray {stroke: rgb(204, 204, 204); fill: none; }
circle.brown {stroke: rgb(211.65, 104.55, 30.6); fill: none; }
line.red {stroke: rgb(255, 0, 255); stroke-width: 0.38209; }
line.green {stroke: rgb(0, 255, 0); stroke-width: 0.38209; }
line.blue {stroke: rgb(0, 0, 255); stroke-width: 0.38209; }
line.black {stroke: rgb(0, 0, 0); stroke-width: 0.38209; }
line.gray {stroke: rgb(204, 204, 204); stroke-width: 0.38209; }
line.brown {stroke: rgb(211.65, 104.55, 30.6); stroke-width: 0.38209; }
line {stroke: rgb(0, 0, 0); }
text.red {fill: rgb(255, 0, 255); font-size: 3.056719px; font-weight: bold; font-family: Helvetica; }
text.green {fill: rgb(0, 255, 0); font-size: 3.056719px; font-weight: bold; font-family: Helvetica; }
text.blue {fill: rgb(0, 0, 255); font-size: 3.056719px; font-weight: bold; font-family: Helvetica; }
text.black {fill: rgb(0, 0, 0); font-size: 3.056719px; font-weight: bold; font-family: Helvetica; }
text.gray {fill: rgb(204, 204, 204); font-size: 3.056719px; font-weight: bold; font-family: Helvetica; }
text.brown {fill: rgb(211.65, 104.55, 30.6); font-size: 3.056719px; font-weight: bold; font-family: Helvetica; }
text {fill: rgb(0, 0, 0); font-size: 3.056719px; font-weight: bold; font-family: Helvetica; text-anchor: middle; alignment-baseline: middle; }

.pseudoknot_connection{stroke-linecap: round; stroke-opacity: 0.2; stroke-width: 1.5; }
.pseudoknot_segment1{stroke-linecap: round; stroke-opacity: 0.4; stroke-width: 3.05672; }
.pseudoknot_segment2{stroke-linecap: round; stroke-opacity: 0.4; stroke-width: 3.05672; }
line.numbering-line{stroke: rgb(204, 204, 204); stroke-width: 0.191045; }
line.predicted{stroke: rgb(0, 0, 0); stroke-dasharray: 2; }
polyline{fill: none; stroke-linejoin: round; }
template{visibility: hidden; }
text.numbering-label{fill: rgb(204, 204, 204); }
]]>
</style></g>
<g><title>0 (position.label in template: 0.5')</title><text x="68.25" y="217.612" class="green" >5'</text></g>
<g><title>1 (position.label in template: 1.C)</title><text x="68.25" y="210.05" class="black" >C</text></g>
<g><line x1="70.2878" y1="209.744" x2="78.2422" y2="209.744" class="black" /></g>
<g><title>2 (position.label in template: 2.C)</title><text x="68.25" y="202.49" class="black" >C</text></g>
<g><line x1="70.2878" y1="202.184" x2="78.2422" y2="202.184" class="black" /></g>
<g><title>3 (position.label in template: 3.U)</title><text x="68.25" y="194.93" class="green" >T</text></g>
<g><line x1="70.2878" y1="194.624" x2="78.6622" y2="194.624" class="black" /></g>
<g><title>4 (position.label in template: 4.C)</title><text x="68.25" y="187.37" class="black" >C</text></g>
<g><line x1="70.2878" y1="187.064" x2="78.2422" y2="187.064" class="black" /></g>
<g><title>5 (position.label in template: 5.C)</title><text x="68.25" y="179.81" class="black" >C</text></g>
<g><line x1="70.2878" y1="179.504" x2="78.4522" y2="179.504" class="black" /></g>
<g><title>6 (position.label in template: 6.G)</title><text x="62.45" y="174.73" class="black" >G</text></g>
<g><title>7 (position.label in template: 7.G)</title><text x="60.37" y="167.46" class="black" >G</text></g>
<g><title>8 (position.label in template: 8.A)</title><text x="62.86" y="160.19" class="black" >A</text></g>
<g><title>9 (position.label in template: 9.C)</title><text x="68.25" y="155.11" class="black" >C</text></g>
<g><line x1="70.2878" y1="154.804" x2="78.2422" y2="154.804" class="black" /></g>
<g><title>10 (position.label in template: 10.U)</title><text x="68.25" y="147.55" class="green" >T</text></g>
<g><line x1="70.2878" y1="147.244" x2="78.6622" y2="147.244" class="black" /></g>
<g><text x="61.373" y="147.646" class="numbering-label sequential" >10</text></g>
<g><line x1="66.4161" y1="147.575" x2="63.2071" y2="147.62" class="numbering-line sequential" /></g>
<g><title>11 (position.label in template: 11.G)</title><text x="68.04" y="139.99" class="black" >G</text></g>
<g><line x1="70.0778" y1="139.684" x2="78.4522" y2="139.684" class="black" /></g>
<g><title>12 (position.label in template: 12.U)</title><text x="68.25" y="132.43" class="green" >T</text></g>
<g><line x1="70.2878" y1="132.124" x2="78.6622" y2="132.124" class="black" /></g>
<g><title>13 (position.label in template: 13.U)</title><text x="68.25" y="124.87" class="green" >T</text></g>
<g><line x1="70.2878" y1="124.564" x2="78.6622" y2="124.564" class="black" /></g>
<g><title>14 (position.label in template: 14.A)</title><text x="63.11" y="130.21" class="black" >A</text></g>
<g><title>15 (position.label in template: 15.U)</title><text x="55.35" y="130.21" class="green" >T</text></g>
<g><title>16 (position.label in template: 16.A)</title><text x="50.21" y="124.87" class="black" >A</text></g>
<g><title>17 (position.label in template: 17.C)</title><text x="50" y="117.31" class="black" >C</text></g>
<g><title>18 (position.label in template: 18.A)</title><text x="55.55" y="111.96" class="black" >A</text></g>
<g><title>19 (position.label in template: 19.A)</title><text x="63.11" y="111.96" class="black" >A</text></g>
<g><title>20 (position.label in template: 20.C)</title><text x="68.25" y="117.31" class="black" >C</text></g>
<g><line x1="70.2878" y1="117.004" x2="78.2422" y2="117.004" class="black" /></g>
<g><text x="65.5334" y="110.992" class="numbering-label sequential" >20</text></g>
<g><line x1="67.5256" y1="115.625" x2="66.1905" y2="112.52" class="numbering-line sequential" /></g>
<g><title>21 (position.label in template: 21.C)</title><text x="68.25" y="109.75" class="black" >C</text></g>
<g><line x1="70.2878" y1="109.444" x2="78.2422" y2="109.444" class="black" /></g>
<g><title>22 (position.label in template: 22.U)</title><text x="68.25" y="102.19" class="green" >T</text></g>
<g><line x1="70.2878" y1="101.884" x2="78.6622" y2="101.884" class="black" /></g>
<g><title>23 (position.label in template: 23.G)</title><text x="60.8" y="100.01" class="black" >G</text></g>
<g><title>24 (position.label in template: 24.A)</title><text x="55.97" y="94.56" class="black" >A</text></g>
<g><title>25 (position.label in template: 25.G)</title><text x="53.64" y="87.25" class="black" >G</text></g>
<g><title>26 (position.label in template: 26.U)</title><text x="55.77" y="79.94" class="green" >T</text></g>
<g><title>27 (position.label in template: 27.A)</title><text x="61.22" y="74.49" class="black" >A</text></g>
<g><title>28 (position.label in template: 28.G)</title><text x="68.04" y="72.31" class="black" >G</text></g>
<g><line x1="70.0778" y1="72.0043" x2="78.4522" y2="72.0043" class="black" /></g>
<g><title>29 (position.label in template: 29.C)</title><text x="68.25" y="64.75" class="black" >C</text></g>
<g><line x1="70.2878" y1="64.4443" x2="78.2422" y2="64.4443" class="black" /></g>
<g><title>30 (position.label in template: 30.A)</title><text x="68.46" y="57.19" class="green" >A</text></g>
<g><line x1="70.4978" y1="56.8843" x2="78.4522" y2="56.8843" class="black" /></g>
<g><text x="61.6829" y="56.0184" class="numbering-label sequential" >30</text></g>
<g><line x1="66.6528" y1="56.8776" x2="63.5169" y2="56.3354" class="numbering-line sequential" /></g>
<g><title>31 (position.label in template: 31.A)</title><text x="70.8" y="50" class="black" >A</text></g>
<g><title>32 (position.label in template: 32.G)</title><text x="77.94" y="50" class="black" >G</text></g>
<g><title>33 (position.label in template: 33.U)</title><text x="80.49" y="57.19" class="green" >T</text></g>
<g><title>34 (position.label in template: 34.G)</title><text x="80.28" y="64.75" class="black" >G</text></g>
<g><title>35 (position.label in template: 35.C)</title><text x="80.49" y="72.31" class="black" >C</text></g>
<g><title>36 (position.label in template: 36.G)</title><text x="86.41" y="76.74" class="black" >G</text></g>
<g><title>37 (position.label in template: 37.A)</title><text x="90.27" y="83.47" class="black" >A</text></g>
<g><title>38 (position.label in template: 38.A)</title><text x="90.27" y="91.03" class="black" >A</text></g>
<g><title>39 (position.label in template: 39.A)</title><text x="86.83" y="97.76" class="black" >A</text></g>
<g><title>40 (position.label in template: 40.A)</title><text x="80.7" y="102.19" class="green" >A</text></g>
<g><title>41 (position.label in template: 41.G)</title><text x="80.28" y="109.75" class="black" >G</text></g>
<g><title>42 (position.label in template: 42.G)</title><text x="80.28" y="117.31" class="black" >G</text></g>
<g><title>43 (position.label in template: 43.A)</title><text x="80.7" y="124.87" class="green" >A</text></g>
<g><title>44 (position.label in template: 44.A)</title><text x="80.7" y="132.43" class="green" >A</text></g>
<g><title>45 (position.label in template: 45.C)</title><text x="80.49" y="139.99" class="black" >C</text></g>
<g><title>46 (position.label in template: 46.A)</title><text x="80.7" y="147.55" class="green" >A</text></g>
<g><title>47 (position.label in template: 47.G)</title><text x="80.28" y="155.11" class="black" >G</text></g>
<g><title>48 (position.label in template: 48.G)</title><text x="87.78" y="154.11" class="black" >G</text></g>
<g><title>49 (position.label in template: 49.A)</title><text x="95.05" y="157.3" class="black" >A</text></g>
<g><title>50 (position.label in template: 50.U)</title><text x="98.9" y="163.68" class="green" >T</text></g>
<g><text x="105.554" y="161.942" class="numbering-label sequential" >50</text></g>
<g><line x1="100.675" y1="163.217" x2="103.72" y2="162.421" class="numbering-line sequential" /></g>
<g><title>51 (position.label in template: 51.G)</title><text x="98.69" y="171.24" class="black" >G</text></g>
<g><title>52 (position.label in template: 52.A)</title><text x="95.05" y="177.61" class="black" >A</text></g>
<g><title>53 (position.label in template: 53.A)</title><text x="88.19" y="180.81" class="black" >A</text></g>
<g><title>54 (position.label in template: 54.C)</title><text x="80.49" y="179.81" class="black" >C</text></g>
<g><title>55 (position.label in template: 55.G)</title><text x="80.28" y="187.37" class="black" >G</text></g>
<g><title>56 (position.label in template: 56.A)</title><text x="80.7" y="194.93" class="green" >A</text></g>
<g><title>57 (position.label in template: 57.G)</title><text x="80.28" y="202.49" class="black" >G</text></g>
<g><title>58 (position.label in template: 58.G)</title><text x="80.28" y="210.05" class="black" >G</text></g>
<g><title>59 (position.label in template: 59.A)</title><text x="85.8205" y="215.196" class="black" >A</text></g>
<g><title>60 (position.label in template: 60.A)</title><text x="93.3823" y="215.196" class="black" >A</text></g>
<g><title>61 (position.label in template: 61.3')</title><text x="100.944" y="215.196" class="green" >3'</text></g>
<g><line x1="68.25" y1="215.268" x2="68.25" y2="211.782" class="gray" /></g>
<g><line x1="68.25" y1="207.707" x2="68.25" y2="204.222" class="gray" /></g>
<g><line x1="68.25" y1="200.147" x2="68.25" y2="196.662" class="gray" /></g>
<g><line x1="68.25" y1="192.587" x2="68.25" y2="189.102" class="gray" /></g>
<g><line x1="68.25" y1="185.027" x2="68.25" y2="181.542" class="gray" /></g>
<g><line x1="66.717" y1="178.162" x2="63.983" y2="175.767" class="gray" /></g>
<g><line x1="61.8895" y1="172.465" x2="60.9305" y2="169.114" class="gray" /></g>
<g><line x1="61.0303" y1="165.226" x2="62.1997" y2="161.812" class="gray" /></g>
<g><line x1="64.343" y1="158.487" x2="66.767" y2="156.202" class="gray" /></g>
<g><line x1="68.25" y1="152.767" x2="68.25" y2="149.282" class="gray" /></g>
<g><line x1="68.1934" y1="145.207" x2="68.0966" y2="141.721" class="gray" /></g>
<g><line x1="68.0966" y1="137.647" x2="68.1934" y2="134.161" class="gray" /></g>
<g><line x1="68.25" y1="130.087" x2="68.25" y2="126.602" class="gray" /></g>
<g><line x1="66.8368" y1="126.033" x2="64.5232" y2="128.436" class="gray" /></g>
<g><line x1="61.0722" y1="129.904" x2="57.3878" y2="129.904" class="gray" /></g>
<g><line x1="53.9368" y1="128.436" x2="51.6232" y2="126.033" class="gray" /></g>
<g><line x1="50.1534" y1="122.527" x2="50.0566" y2="119.041" class="gray" /></g>
<g><line x1="51.4671" y1="115.59" x2="54.0829" y2="113.069" class="gray" /></g>
<g><line x1="57.5878" y1="111.654" x2="61.0722" y2="111.654" class="gray" /></g>
<g><line x1="64.5218" y1="113.124" x2="66.8382" y2="115.535" class="gray" /></g>
<g><line x1="68.25" y1="114.967" x2="68.25" y2="111.482" class="gray" /></g>
<g><line x1="68.25" y1="107.407" x2="68.25" y2="103.922" class="gray" /></g>
<g><line x1="66.2942" y1="101.312" x2="62.7558" y2="100.277" class="gray" /></g>
<g><line x1="59.4484" y1="98.1792" x2="57.3216" y2="95.7794" class="gray" /></g>
<g><line x1="55.3511" y1="92.3128" x2="54.2589" y2="88.8859" class="gray" /></g>
<g><line x1="54.2101" y1="84.9879" x2="55.1999" y2="81.5908" class="gray" /></g>
<g><line x1="57.211" y1="78.1934" x2="59.779" y2="75.6253" class="gray" /></g>
<g><line x1="63.1611" y1="73.5639" x2="66.0989" y2="72.6248" class="gray" /></g>
<g><line x1="68.0966" y1="69.9673" x2="68.1934" y2="66.4814" class="gray" /></g>
<g><line x1="68.3066" y1="62.4073" x2="68.4034" y2="58.9214" class="gray" /></g>
<g><line x1="69.0907" y1="54.9466" x2="70.1693" y2="51.6321" class="gray" /></g>
<g><line x1="72.8378" y1="49.6943" x2="75.9022" y2="49.6943" class="gray" /></g>
<g><line x1="78.6212" y1="51.6149" x2="79.8088" y2="54.9637" class="gray" /></g>
<g><line x1="80.4334" y1="58.9214" x2="80.3366" y2="62.4073" class="gray" /></g>
<g><line x1="80.3366" y1="66.4814" x2="80.4334" y2="69.9673" class="gray" /></g>
<g><line x1="82.1216" y1="73.2253" x2="84.7784" y2="75.2134" class="gray" /></g>
<g><line x1="87.4239" y1="78.202" x2="89.2561" y2="81.3966" class="gray" /></g>
<g><line x1="90.27" y1="85.2021" x2="90.27" y2="88.6865" class="gray" /></g>
<g><line x1="89.3425" y1="92.5388" x2="87.7575" y2="95.6398" class="gray" /></g>
<g><line x1="85.1783" y1="98.6479" x2="82.3517" y2="100.691" class="gray" /></g>
<g><line x1="80.587" y1="103.919" x2="80.393" y2="107.41" class="gray" /></g>
<g><line x1="80.28" y1="111.482" x2="80.28" y2="114.967" class="gray" /></g>
<g><line x1="80.393" y1="119.039" x2="80.587" y2="122.53" class="gray" /></g>
<g><line x1="80.7" y1="126.602" x2="80.7" y2="130.087" class="gray" /></g>
<g><line x1="80.6434" y1="134.161" x2="80.5466" y2="137.647" class="gray" /></g>
<g><line x1="80.5466" y1="141.721" x2="80.6434" y2="145.207" class="gray" /></g>
<g><line x1="80.587" y1="149.279" x2="80.393" y2="152.77" class="gray" /></g>
<g><line x1="82.2999" y1="154.535" x2="85.7601" y2="154.074" class="gray" /></g>
<g><line x1="89.6461" y1="154.623" x2="93.1839" y2="156.176" class="gray" /></g>
<g><line x1="96.1029" y1="158.739" x2="97.8471" y2="161.63" class="gray" /></g>
<g><line x1="98.8434" y1="165.411" x2="98.7466" y2="168.897" class="gray" /></g>
<g><line x1="97.679" y1="172.704" x2="96.061" y2="175.535" class="gray" /></g>
<g><line x1="93.2032" y1="178.166" x2="90.0368" y2="179.643" class="gray" /></g>
<g><line x1="86.1692" y1="180.242" x2="82.5108" y2="179.767" class="gray" /></g>
<g><line x1="80.4334" y1="181.541" x2="80.3366" y2="185.027" class="gray" /></g>
<g><line x1="80.393" y1="189.099" x2="80.587" y2="192.59" class="gray" /></g>
<g><line x1="80.587" y1="196.659" x2="80.393" y2="200.15" class="gray" /></g>
<g><line x1="80.28" y1="204.222" x2="80.28" y2="207.707" class="gray" /></g>
<g><line x1="81.7731" y1="211.131" x2="84.3274" y2="213.504" class="gray" /></g>
<g><line x1="87.8583" y1="214.89" x2="91.3445" y2="214.89" class="gray" /></g>
<g><line x1="95.4201" y1="214.89" x2="98.9062" y2="214.89" class="gray" /></g>
</svg>
