<svg
	xmlns="http://www.w3.org/2000/svg"
	width="203.28"
	height="248.35">
<g><style type="text/css" >
<!-- create color definitions -->
<![CDATA[
circle.red {stroke: rgb(255, 0, 255); fill: none; }
circle.green {stroke: rgb(0, 255, 0); fill: none; }
circle.blue {stroke: rgb(0, 0, 255); fill: none; }
circle.black {stroke: rgb(0, 0, 0); fill: none; }
circle.gray {stroke: rgb(204, 204, 204); fill: none; }
circle.brown {stroke: rgb(211.65, 104.55, 30.6); fill: none; }
line.red {stroke: rgb(255, 0, 255); stroke-width: 0.380739; }
line.green {stroke: rgb(0, 255, 0); stroke-width: 0.380739; }
line.blue {stroke: rgb(0, 0, 255); stroke-width: 0.380739; }
line.black {stroke: rgb(0, 0, 0); stroke-width: 0.380739; }
line.gray {stroke: rgb(204, 204, 204); stroke-width: 0.380739; }
line.brown {stroke: rgb(211.65, 104.55, 30.6); stroke-width: 0.380739; }
line {stroke: rgb(0, 0, 0); }
text.red {fill: rgb(255, 0, 255); font-size: 3.045911px; font-weight: bold; font-family: Helvetica; }
text.green {fill: rgb(0, 255, 0); font-size: 3.045911px; font-weight: bold; font-family: Helvetica; }
text.blue {fill: rgb(0, 0, 255); font-size: 3.045911px; font-weight: bold; font-family: Helvetica; }
text.black {fill: rgb(0, 0, 0); font-size: 3.045911px; font-weight: bold; font-family: Helvetica; }
text.gray {fill: rgb(204, 204, 204); font-size: 3.045911px; font-weight: bold; font-family: Helvetica; }
text.brown {fill: rgb(211.65, 104.55, 30.6); font-size: 3.045911px; font-weight: bold; font-family: Helvetica; }
text {fill: rgb(0, 0, 0); font-size: 3.045911px; font-weight: bold; font-family: Helvetica; text-anchor: middle; alignment-baseline: middle; }

.pseudoknot_connection{stroke-linecap: round; stroke-opacity: 0.2; stroke-width: 1.5; }
.pseudoknot_segment1{stroke-linecap: round; stroke-opacity: 0.4; stroke-width: 3.04591; }
.pseudoknot_segment2{stroke-linecap: round; stroke-opacity: 0.4; stroke-width: 3.04591; }
line.numbering-line{stroke: rgb(204, 204, 204); stroke-width: 0.190369; }
line.predicted{stroke: rgb(0, 0, 0); stroke-dasharray: 2; }
polyline{fill: none; stroke-linejoin: round; }
template{visibility: hidden; }
text.numbering-label{fill: rgb(204, 204, 204); }
]]>
</style></g>
<g><title>0 (position.label in template: 0.5')</title><text x="118.71" y="198.35" class="green" >5'</text></g>
<g><title>1 (position.label in template: 1.A)</title><text x="125.71" y="198.35" class="black" >A</text></g>
<g><line x1="127.741" y1="198.045" x2="135.509" y2="198.045" class="black" /></g>
<g><title>2 (position.label in template: 2.U)</title><text x="125.51" y="190.79" class="green" >T</text></g>
<g><line x1="127.541" y1="190.485" x2="135.509" y2="190.485" class="black" /></g>
<g><title>3 (position.label in template: 3.U)</title><text x="125.51" y="183.23" class="green" >T</text></g>
<g><line x1="127.541" y1="182.925" x2="135.719" y2="182.925" class="black" /></g>
<g><title>4 (position.label in template: 4.G)</title><text x="125.3" y="175.67" class="green" >G</text></g>
<g><line x1="127.331" y1="175.365" x2="135.719" y2="175.365" class="black" /></g>
<g><title>5 (position.label in template: 5.U)</title><text x="119.91" y="170.58" class="green" >T</text></g>
<g><title>6 (position.label in template: 6.A)</title><text x="118.05" y="163.31" class="black" >A</text></g>
<g><title>7 (position.label in template: 7.A)</title><text x="120.12" y="156.04" class="black" >A</text></g>
<g><title>8 (position.label in template: 8.C)</title><text x="125.51" y="150.96" class="black" >C</text></g>
<g><line x1="127.541" y1="150.655" x2="135.509" y2="150.655" class="black" /></g>
<g><title>9 (position.label in template: 9.U)</title><text x="125.51" y="143.4" class="green" >T</text></g>
<g><line x1="127.541" y1="143.095" x2="135.919" y2="143.095" class="black" /></g>
<g><title>10 (position.label in template: 10.C)</title><text x="125.51" y="135.84" class="black" >C</text></g>
<g><line x1="127.541" y1="135.535" x2="135.509" y2="135.535" class="black" /></g>
<g><text x="118.657" y="135.84" class="numbering-label sequential" >10</text></g>
<g><line x1="123.682" y1="135.84" x2="120.484" y2="135.84" class="numbering-line sequential" /></g>
<g><title>11 (position.label in template: 11.C)</title><text x="125.51" y="128.28" class="black" >C</text></g>
<g><line x1="127.541" y1="127.975" x2="135.509" y2="127.975" class="black" /></g>
<g><title>12 (position.label in template: 12.G)</title><text x="118.88" y="124.29" class="black" >G</text></g>
<g><title>13 (position.label in template: 13.C)</title><text x="114.86" y="118.02" class="black" >C</text></g>
<g><title>14 (position.label in template: 14.C)</title><text x="113.56" y="110.58" class="black" >C</text></g>
<g><line x1="114.288" y1="108.38" x2="117.192" y2="100.811" class="black" /></g>
<g><title>15 (position.label in template: 15.U)</title><text x="106.55" y="107.75" class="green" >T</text></g>
<g><line x1="107.308" y1="105.562" x2="110.362" y2="97.9791" class="black" /></g>
<g><title>16 (position.label in template: 16.G)</title><text x="99.32" y="104.92" class="black" >G</text></g>
<g><line x1="100.11" y1="102.745" x2="103.32" y2="95.1362" class="black" /></g>
<g><title>17 (position.label in template: 17.U)</title><text x="92.52" y="102.1" class="green" >T</text></g>
<g><line x1="93.3075" y1="99.9237" x2="96.5125" y2="92.3071" class="black" /></g>
<g><title>18 (position.label in template: 18.A)</title><text x="85.72" y="99.27" class="green" >A</text></g>
<g><line x1="86.4496" y1="97.0704" x2="89.3604" y2="89.5104" class="black" /></g>
<g><title>19 (position.label in template: 19.G)</title><text x="78.29" y="96.44" class="green" >G</text></g>
<g><line x1="79.0781" y1="94.264" x2="82.2819" y2="86.6568" class="black" /></g>
<g><title>20 (position.label in template: 20.C)</title><text x="72.17" y="100.58" class="black" >C</text></g>
<g><text x="74.5427" y="107.009" class="numbering-label sequential" >20</text></g>
<g><line x1="72.8027" y1="102.295" x2="73.9807" y2="105.487" class="numbering-line sequential" /></g>
<g><title>21 (position.label in template: 21.U)</title><text x="64.66" y="101.47" class="green" >T</text></g>
<g><title>22 (position.label in template: 22.C)</title><text x="57.54" y="98.93" class="black" >C</text></g>
<g><title>23 (position.label in template: 23.U)</title><text x="52.29" y="93.5" class="green" >T</text></g>
<g><title>24 (position.label in template: 24.U)</title><text x="50" y="86.29" class="green" >T</text></g>
<g><title>25 (position.label in template: 25.A)</title><text x="51.36" y="78.82" class="black" >A</text></g>
<g><title>26 (position.label in template: 26.U)</title><text x="55.5" y="72.64" class="green" >T</text></g>
<g><title>27 (position.label in template: 27.A)</title><text x="62.36" y="69.03" class="black" >A</text></g>
<g><title>28 (position.label in template: 28.G)</title><text x="69.5" y="68.76" class="black" >G</text></g>
<g><title>29 (position.label in template: 29.G)</title><text x="76.39" y="71.87" class="black" >G</text></g>
<g><title>30 (position.label in template: 30.G)</title><text x="81.17" y="77.72" class="black" >G</text></g>
<g><text x="87.2868" y="74.6292" class="numbering-label sequential" >30</text></g>
<g><line x1="82.8011" y1="76.8958" x2="85.4592" y2="75.5527" class="numbering-line sequential" /></g>
<g><title>31 (position.label in template: 31.U)</title><text x="83.07" y="85.09" class="green" >T</text></g>
<g><title>32 (position.label in template: 32.U)</title><text x="90.09" y="87.92" class="green" >T</text></g>
<g><title>33 (position.label in template: 33.A)</title><text x="97.3" y="90.74" class="green" >A</text></g>
<g><title>34 (position.label in template: 34.C)</title><text x="104.11" y="93.57" class="black" >C</text></g>
<g><title>35 (position.label in template: 35.U)</title><text x="111.12" y="96.4" class="green" >T</text></g>
<g><title>36 (position.label in template: 36.G)</title><text x="117.92" y="99.22" class="black" >G</text></g>
<g><title>37 (position.label in template: 37.C)</title><text x="124.23" y="94.76" class="black" >C</text></g>
<g><line x1="126.255" y1="94.2985" x2="134.205" y2="93.6823" class="black" /></g>
<g><title>38 (position.label in template: 38.C)</title><text x="123.66" y="87.22" class="black" >C</text></g>
<g><line x1="125.685" y1="86.7585" x2="133.635" y2="86.1423" class="black" /></g>
<g><title>39 (position.label in template: 39.G)</title><text x="122.88" y="79.68" class="black" >G</text></g>
<g><line x1="124.905" y1="79.2237" x2="133.265" y2="78.5972" class="black" /></g>
<g><title>40 (position.label in template: 40.G)</title><text x="116.56" y="75.53" class="black" >G</text></g>
<g><title>41 (position.label in template: 41.U)</title><text x="113.2" y="68.86" class="green" >T</text></g>
<g><title>42 (position.label in template: 42.C)</title><text x="113.23" y="61.3" class="black" >C</text></g>
<g><title>43 (position.label in template: 43.C)</title><text x="116.87" y="54.68" class="black" >C</text></g>
<g><title>44 (position.label in template: 44.C)</title><text x="123.22" y="50.58" class="black" >C</text></g>
<g><title>45 (position.label in template: 45.A)</title><text x="130.96" y="50" class="black" >A</text></g>
<g><title>46 (position.label in template: 46.A)</title><text x="137.87" y="53.09" class="black" >A</text></g>
<g><title>47 (position.label in template: 47.G)</title><text x="142.04" y="59.1" class="black" >G</text></g>
<g><title>48 (position.label in template: 48.C)</title><text x="143.43" y="66.57" class="black" >C</text></g>
<g><title>49 (position.label in template: 49.C)</title><text x="140.91" y="73.69" class="black" >C</text></g>
<g><title>50 (position.label in template: 50.C)</title><text x="135.29" y="78.75" class="black" >C</text></g>
<g><text x="141.616" y="81.3859" class="numbering-label sequential" >50</text></g>
<g><line x1="136.977" y1="79.4529" x2="139.789" y2="80.6244" class="numbering-line sequential" /></g>
<g><title>51 (position.label in template: 51.G)</title><text x="135.66" y="86.29" class="black" >G</text></g>
<g><title>52 (position.label in template: 52.G)</title><text x="136.23" y="93.83" class="black" >G</text></g>
<g><title>53 (position.label in template: 53.G)</title><text x="142.94" y="97.32" class="black" >G</text></g>
<g><title>54 (position.label in template: 54.U)</title><text x="147.84" y="103.25" class="green" >T</text></g>
<g><title>55 (position.label in template: 55.A)</title><text x="149.9" y="110.58" class="black" >A</text></g>
<g><title>56 (position.label in template: 56.A)</title><text x="148.61" y="118.02" class="black" >A</text></g>
<g><title>57 (position.label in template: 57.A)</title><text x="144.38" y="124.29" class="black" >A</text></g>
<g><title>58 (position.label in template: 58.G)</title><text x="137.54" y="128.28" class="black" >G</text></g>
<g><title>59 (position.label in template: 59.G)</title><text x="137.54" y="135.84" class="black" >G</text></g>
<g><title>60 (position.label in template: 60.A)</title><text x="137.95" y="143.4" class="green" >A</text></g>
<g><title>61 (position.label in template: 61.G)</title><text x="137.54" y="150.96" class="black" >G</text></g>
<g><title>62 (position.label in template: 62.G)</title><text x="145.08" y="151.43" class="black" >G</text></g>
<g><title>63 (position.label in template: 63.A)</title><text x="151.45" y="156.09" class="black" >A</text></g>
<g><title>64 (position.label in template: 64.G)</title><text x="153.28" y="163.31" class="black" >G</text></g>
<g><title>65 (position.label in template: 65.G)</title><text x="151.03" y="170.53" class="black" >G</text></g>
<g><title>66 (position.label in template: 66.G)</title><text x="145.08" y="175.2" class="black" >G</text></g>
<g><title>67 (position.label in template: 67.U)</title><text x="137.75" y="175.67" class="green" >T</text></g>
<g><title>68 (position.label in template: 68.U)</title><text x="137.75" y="183.23" class="green" >T</text></g>
<g><title>69 (position.label in template: 69.G)</title><text x="137.54" y="190.79" class="green" >G</text></g>
<g><title>70 (position.label in template: 70.G)</title><text x="137.54" y="198.35" class="black" >G</text></g>
<g><title>71 (position.label in template: 71.3')</title><text x="144.54" y="198.35" class="green" >3'</text></g>
<g><line x1="120.741" y1="198.045" x2="123.679" y2="198.045" class="gray" /></g>
<g><line x1="125.656" y1="196.016" x2="125.564" y2="192.515" class="gray" /></g>
<g><line x1="125.51" y1="188.455" x2="125.51" y2="184.956" class="gray" /></g>
<g><line x1="125.454" y1="180.896" x2="125.356" y2="177.395" class="gray" /></g>
<g><line x1="123.824" y1="173.971" x2="121.386" y2="171.67" class="gray" /></g>
<g><line x1="119.407" y1="168.308" x2="118.553" y2="164.973" class="gray" /></g>
<g><line x1="118.606" y1="161.052" x2="119.564" y2="157.688" class="gray" /></g>
<g><line x1="121.598" y1="154.343" x2="124.032" y2="152.048" class="gray" /></g>
<g><line x1="125.51" y1="148.625" x2="125.51" y2="145.126" class="gray" /></g>
<g><line x1="125.51" y1="141.065" x2="125.51" y2="137.566" class="gray" /></g>
<g><line x1="125.51" y1="133.505" x2="125.51" y2="130.006" class="gray" /></g>
<g><line x1="123.77" y1="126.928" x2="120.62" y2="125.032" class="gray" /></g>
<g><line x1="117.784" y1="122.276" x2="115.956" y2="119.425" class="gray" /></g>
<g><line x1="114.51" y1="115.715" x2="113.91" y2="112.276" class="gray" /></g>
<g><line x1="111.677" y1="109.515" x2="108.433" y2="108.206" class="gray" /></g>
<g><line x1="104.659" y1="106.705" x2="101.211" y2="105.356" class="gray" /></g>
<g><line x1="97.4443" y1="103.838" x2="94.3957" y2="102.573" class="gray" /></g>
<g><line x1="90.6453" y1="101.015" x2="87.5947" y2="99.7456" class="gray" /></g>
<g><line x1="83.8224" y1="98.2426" x2="80.1876" y2="96.8582" class="gray" /></g>
<g><line x1="76.6081" y1="97.2732" x2="73.8519" y2="99.1376" class="gray" /></g>
<g><line x1="70.1535" y1="100.514" x2="66.6765" y2="100.926" class="gray" /></g>
<g><line x1="62.7474" y1="100.483" x2="59.4526" y2="99.3077" class="gray" /></g>
<g><line x1="56.1285" y1="97.1656" x2="53.7015" y2="94.6553" class="gray" /></g>
<g><line x1="51.6753" y1="91.2601" x2="50.6147" y2="87.9207" class="gray" /></g>
<g><line x1="50.3637" y1="83.9876" x2="50.9963" y2="80.5132" class="gray" /></g>
<g><line x1="52.4902" y1="76.8284" x2="54.3698" y2="74.0225" class="gray" /></g>
<g><line x1="57.297" y1="71.3898" x2="60.563" y2="69.671" class="gray" /></g>
<g><line x1="64.3892" y1="68.6487" x2="67.4708" y2="68.5321" class="gray" /></g>
<g><line x1="71.3508" y1="69.2908" x2="74.5392" y2="70.73" class="gray" /></g>
<g><line x1="77.6748" y1="73.1379" x2="79.8852" y2="75.843" class="gray" /></g>
<g><line x1="81.6769" y1="79.3817" x2="82.5631" y2="82.8191" class="gray" /></g>
<g><line x1="84.9533" y1="85.5446" x2="88.2067" y2="86.8562" class="gray" /></g>
<g><line x1="91.9811" y1="88.3551" x2="95.4089" y2="89.6958" class="gray" /></g>
<g><line x1="99.1751" y1="91.2147" x2="102.235" y2="92.4862" class="gray" /></g>
<g><line x1="105.993" y1="94.0256" x2="109.237" y2="95.3352" class="gray" /></g>
<g><line x1="112.996" y1="96.8733" x2="116.044" y2="98.1375" class="gray" /></g>
<g><line x1="119.578" y1="97.7434" x2="122.572" y2="95.6275" class="gray" /></g>
<g><line x1="124.077" y1="92.4306" x2="123.813" y2="88.9402" class="gray" /></g>
<g><line x1="123.451" y1="84.8956" x2="123.089" y2="81.3952" class="gray" /></g>
<g><line x1="121.183" y1="78.2608" x2="118.257" y2="76.34" class="gray" /></g>
<g><line x1="115.646" y1="73.4119" x2="114.114" y2="70.3689" class="gray" /></g>
<g><line x1="113.208" y1="66.5248" x2="113.222" y2="63.026" class="gray" /></g>
<g><line x1="114.208" y1="59.216" x2="115.892" y2="56.1548" class="gray" /></g>
<g><line x1="118.576" y1="53.274" x2="121.514" y2="51.3769" class="gray" /></g>
<g><line x1="125.245" y1="50.1237" x2="128.935" y2="49.8471" class="gray" /></g>
<g><line x1="132.814" y1="50.5243" x2="136.016" y2="51.9565" class="gray" /></g>
<g><line x1="139.028" y1="54.4538" x2="140.882" y2="57.1271" class="gray" /></g>
<g><line x1="142.411" y1="60.7917" x2="143.059" y2="64.2691" class="gray" /></g>
<g><line x1="142.752" y1="68.1797" x2="141.588" y2="71.4712" class="gray" /></g>
<g><line x1="139.401" y1="74.7441" x2="136.799" y2="77.0867" class="gray" /></g>
<g><line x1="135.39" y1="80.4736" x2="135.56" y2="83.9572" class="gray" /></g>
<g><line x1="135.813" y1="88.0102" x2="136.077" y2="91.5006" class="gray" /></g>
<g><line x1="138.032" y1="94.4624" x2="141.138" y2="96.0784" class="gray" /></g>
<g><line x1="144.233" y1="98.5808" x2="146.547" y2="101.38" class="gray" /></g>
<g><line x1="148.389" y1="104.9" x2="149.351" y2="108.321" class="gray" /></g>
<g><line x1="149.553" y1="112.276" x2="148.957" y2="115.715" class="gray" /></g>
<g><line x1="147.474" y1="119.399" x2="145.516" y2="122.302" class="gray" /></g>
<g><line x1="142.626" y1="125.009" x2="139.294" y2="126.952" class="gray" /></g>
<g><line x1="137.54" y1="130.006" x2="137.54" y2="133.505" class="gray" /></g>
<g><line x1="137.65" y1="137.563" x2="137.84" y2="141.068" class="gray" /></g>
<g><line x1="137.84" y1="145.123" x2="137.65" y2="148.628" class="gray" /></g>
<g><line x1="139.567" y1="150.782" x2="143.053" y2="150.999" class="gray" /></g>
<g><line x1="146.719" y1="152.324" x2="149.811" y2="154.586" class="gray" /></g>
<g><line x1="151.949" y1="157.754" x2="152.781" y2="161.037" class="gray" /></g>
<g><line x1="152.676" y1="164.944" x2="151.634" y2="168.287" class="gray" /></g>
<g><line x1="149.433" y1="171.479" x2="146.677" y2="173.642" class="gray" /></g>
<g><line x1="143.054" y1="175.025" x2="139.776" y2="175.235" class="gray" /></g>
<g><line x1="137.75" y1="177.396" x2="137.75" y2="180.895" class="gray" /></g>
<g><line x1="137.694" y1="184.955" x2="137.596" y2="188.456" class="gray" /></g>
<g><line x1="137.54" y1="192.516" x2="137.54" y2="196.015" class="gray" /></g>
<g><line x1="139.571" y1="198.045" x2="142.509" y2="198.045" class="gray" /></g>
</svg>
