<svg
	xmlns="http://www.w3.org/2000/svg"
	width="244.37"
	height="298.817">
<g><style type="text/css" >
<!-- create color definitions -->
<![CDATA[
circle.red {stroke: rgb(255, 0, 255); fill: none; }
circle.green {stroke: rgb(0, 255, 0); fill: none; }
circle.blue {stroke: rgb(0, 0, 255); fill: none; }
circle.black {stroke: rgb(0, 0, 0); fill: none; }
circle.gray {stroke: rgb(204, 204, 204); fill: none; }
circle.brown {stroke: rgb(211.65, 104.55, 30.6); fill: none; }
line.red {stroke: rgb(255, 0, 255); stroke-width: 0.381532; }
line.green {stroke: rgb(0, 255, 0); stroke-width: 0.381532; }
line.blue {stroke: rgb(0, 0, 255); stroke-width: 0.381532; }
line.black {stroke: rgb(0, 0, 0); stroke-width: 0.381532; }
line.gray {stroke: rgb(204, 204, 204); stroke-width: 0.381532; }
line.brown {stroke: rgb(211.65, 104.55, 30.6); stroke-width: 0.381532; }
line {stroke: rgb(0, 0, 0); }
text.red {fill: rgb(255, 0, 255); font-size: 3.052258px; font-weight: bold; font-family: Helvetica; }
text.green {fill: rgb(0, 255, 0); font-size: 3.052258px; font-weight: bold; font-family: Helvetica; }
text.blue {fill: rgb(0, 0, 255); font-size: 3.052258px; font-weight: bold; font-family: Helvetica; }
text.black {fill: rgb(0, 0, 0); font-size: 3.052258px; font-weight: bold; font-family: Helvetica; }
text.gray {fill: rgb(204, 204, 204); font-size: 3.052258px; font-weight: bold; font-family: Helvetica; }
text.brown {fill: rgb(211.65, 104.55, 30.6); font-size: 3.052258px; font-weight: bold; font-family: Helvetica; }
text {fill: rgb(0, 0, 0); font-size: 3.052258px; font-weight: bold; font-family: Helvetica; text-anchor: middle; alignment-baseline: middle; }

.pseudoknot_connection{stroke-linecap: round; stroke-opacity: 0.2; stroke-width: 1.5; }
.pseudoknot_segment1{stroke-linecap: round; stroke-opacity: 0.4; stroke-width: 3.05226; }
.pseudoknot_segment2{stroke-linecap: round; stroke-opacity: 0.4; stroke-width: 3.05226; }
line.numbering-line{stroke: rgb(204, 204, 204); stroke-width: 0.190766; }
line.predicted{stroke: rgb(0, 0, 0); stroke-dasharray: 2; }
polyline{fill: none; stroke-linejoin: round; }
template{visibility: hidden; }
text.numbering-label{fill: rgb(204, 204, 204); }
]]>
</style></g>
<g><title>0 (position.label in template: 0.5')</title><text x="88.2767" y="248.817" class="green" >5'</text></g>
<g><title>1 (position.label in template: 1.A)</title><text x="95.8369" y="248.817" class="black" >A</text></g>
<g><title>2 (position.label in template: 2.A)</title><text x="103.397" y="248.817" class="black" >A</text></g>
<g><title>3 (position.label in template: 3.C)</title><text x="108.64" y="243.37" class="green" >C</text></g>
<g><line x1="110.675" y1="243.065" x2="118.845" y2="243.065" class="black" /></g>
<g><title>4 (position.label in template: 4.A)</title><text x="108.85" y="235.81" class="green" >A</text></g>
<g><line x1="110.885" y1="235.505" x2="118.845" y2="235.505" class="black" /></g>
<g><title>5 (position.label in template: 5.A)</title><text x="108.85" y="228.25" class="green" >A</text></g>
<g><line x1="110.885" y1="227.945" x2="118.845" y2="227.945" class="black" /></g>
<g><title>6 (position.label in template: 6.U)</title><text x="108.64" y="220.69" class="green" >T</text></g>
<g><line x1="110.675" y1="220.385" x2="119.055" y2="220.385" class="black" /></g>
<g><title>7 (position.label in template: 7.C)</title><text x="108.64" y="213.13" class="black" >C</text></g>
<g><line x1="110.675" y1="212.825" x2="118.635" y2="212.825" class="black" /></g>
<g><title>8 (position.label in template: 8.U)</title><text x="108.64" y="205.57" class="green" >T</text></g>
<g><line x1="110.675" y1="205.265" x2="119.055" y2="205.265" class="black" /></g>
<g><title>9 (position.label in template: 9.U)</title><text x="108.64" y="198.01" class="green" >T</text></g>
<g><line x1="110.675" y1="197.705" x2="118.635" y2="197.705" class="black" /></g>
<g><title>10 (position.label in template: 10.C)</title><text x="108.64" y="190.45" class="black" >C</text></g>
<g><line x1="110.675" y1="190.145" x2="118.635" y2="190.145" class="black" /></g>
<g><text x="103.167" y="194.599" class="numbering-label sequential" >10</text></g>
<g><line x1="107.181" y1="191.556" x2="105.18" y2="193.073" class="numbering-line sequential" /></g>
<g><title>11 (position.label in template: 11.G)</title><text x="101.21" y="188.21" class="black" >G</text></g>
<g><title>12 (position.label in template: 12.G)</title><text x="94.68" y="184.4" class="black" >G</text></g>
<g><title>13 (position.label in template: 13.G)</title><text x="89.19" y="179.21" class="black" >G</text></g>
<g><title>14 (position.label in template: 14.G)</title><text x="85.01" y="172.91" class="black" >G</text></g>
<g><title>15 (position.label in template: 15.C)</title><text x="82.58" y="165.83" class="black" >C</text></g>
<g><title>16 (position.label in template: 16.A)</title><text x="81.81" y="158.33" class="black" >A</text></g>
<g><title>17 (position.label in template: 17.G)</title><text x="82.15" y="150.81" class="black" >G</text></g>
<g><line x1="82.9718" y1="148.643" x2="86.3082" y2="141.086" class="black" /></g>
<g><title>18 (position.label in template: 18.G)</title><text x="75.19" y="147.87" class="black" >G</text></g>
<g><line x1="76.0104" y1="145.703" x2="79.3396" y2="138.147" class="black" /></g>
<g><title>19 (position.label in template: 19.G)</title><text x="68.23" y="144.92" class="black" >G</text></g>
<g><line x1="69.0511" y1="142.753" x2="72.3789" y2="135.207" class="black" /></g>
<g><title>20 (position.label in template: 20.U)</title><text x="61.22" y="147.18" class="green" >T</text></g>
<g><text x="61.0715" y="154.046" class="numbering-label sequential" >20</text></g>
<g><line x1="61.1804" y1="149.011" x2="61.1045" y2="152.52" class="numbering-line sequential" /></g>
<g><title>21 (position.label in template: 21.G)</title><text x="53.9" y="144.61" class="black" >G</text></g>
<g><title>22 (position.label in template: 22.U)</title><text x="50" y="138.27" class="green" >T</text></g>
<g><title>23 (position.label in template: 23.A)</title><text x="50.77" y="130.73" class="black" >A</text></g>
<g><title>24 (position.label in template: 24.A)</title><text x="55.78" y="125.07" class="black" >A</text></g>
<g><title>25 (position.label in template: 25.U)</title><text x="62.99" y="123.59" class="green" >T</text></g>
<g><title>26 (position.label in template: 26.U)</title><text x="69.79" y="126.9" class="green" >T</text></g>
<g><title>27 (position.label in template: 27.C)</title><text x="73.2" y="133.65" class="black" >C</text></g>
<g><title>28 (position.label in template: 28.C)</title><text x="80.16" y="136.59" class="black" >C</text></g>
<g><title>29 (position.label in template: 29.C)</title><text x="87.13" y="139.53" class="black" >C</text></g>
<g><title>30 (position.label in template: 30.G)</title><text x="91.79" y="133.75" class="black" >G</text></g>
<g><text x="87.1208" y="128.714" class="numbering-label sequential" >30</text></g>
<g><line x1="90.5449" y1="132.407" x2="88.5357" y2="130.24" class="numbering-line sequential" /></g>
<g><title>31 (position.label in template: 31.A)</title><text x="98.25" y="129.22" class="black" >A</text></g>
<g><title>32 (position.label in template: 32.U)</title><text x="104.97" y="126.18" class="green" >T</text></g>
<g><title>33 (position.label in template: 33.C)</title><text x="112.4" y="124.78" class="black" >C</text></g>
<g><line x1="114.421" y1="124.712" x2="122.329" y2="125.638" class="black" /></g>
<g><title>34 (position.label in template: 34.G)</title><text x="113.05" y="117.27" class="black" >G</text></g>
<g><line x1="115.072" y1="117.194" x2="123.398" y2="118.136" class="black" /></g>
<g><title>35 (position.label in template: 35.G)</title><text x="106.75" y="113.09" class="black" >G</text></g>
<g><line x1="105.779" y1="110.997" x2="101.931" y2="103.913" class="black" /></g>
<g><title>36 (position.label in template: 36.C)</title><text x="100.38" y="116.8" class="black" >C</text></g>
<g><line x1="99.3552" y1="114.737" x2="95.1848" y2="107.583" class="black" /></g>
<g><title>37 (position.label in template: 37.G)</title><text x="93.58" y="120.51" class="black" >G</text></g>
<g><line x1="92.6082" y1="118.417" x2="88.7518" y2="111.323" class="black" /></g>
<g><title>38 (position.label in template: 38.G)</title><text x="86.99" y="124.22" class="black" >G</text></g>
<g><line x1="86.0182" y1="122.127" x2="82.1618" y2="115.033" class="black" /></g>
<g><title>39 (position.label in template: 39.U)</title><text x="83.85" y="131" class="green" >T</text></g>
<g><title>40 (position.label in template: 40.A)</title><text x="77.06" y="133.86" class="black" >A</text></g>
<g><title>41 (position.label in template: 41.U)</title><text x="69.72" y="131.38" class="green" >T</text></g>
<g><title>42 (position.label in template: 42.A)</title><text x="66.21" y="124.79" class="black" >A</text></g>
<g><title>43 (position.label in template: 43.G)</title><text x="67.38" y="117.4" class="black" >G</text></g>
<g><title>44 (position.label in template: 44.U)</title><text x="73.66" y="112.9" class="green" >T</text></g>
<g><title>45 (position.label in template: 45.C)</title><text x="81.19" y="113.55" class="black" >C</text></g>
<g><title>46 (position.label in template: 46.C)</title><text x="87.78" y="109.84" class="black" >C</text></g>
<g><title>47 (position.label in template: 47.G)</title><text x="94.16" y="106.13" class="black" >G</text></g>
<g><title>48 (position.label in template: 48.C)</title><text x="100.96" y="102.43" class="black" >C</text></g>
<g><title>49 (position.label in template: 49.G)</title><text x="100.44" y="94.87" class="black" >G</text></g>
<g><title>50 (position.label in template: 50.A)</title><text x="103.21" y="87.69" class="black" >A</text></g>
<g><text x="97.1704" y="84.4209" class="numbering-label sequential" >50</text></g>
<g><line x1="101.599" y1="86.8182" x2="99.0018" y2="85.4122" class="numbering-line sequential" /></g>
<g><title>51 (position.label in template: 51.G)</title><text x="107.52" y="81.79" class="black" >G</text></g>
<g><line x1="109.381" y1="80.6615" x2="117.029" y2="77.278" class="black" /></g>
<g><title>52 (position.label in template: 52.C)</title><text x="104.63" y="74.9" class="black" >C</text></g>
<g><line x1="106.479" y1="73.7454" x2="113.731" y2="70.4142" class="black" /></g>
<g><title>53 (position.label in template: 53.C)</title><text x="101.52" y="68" class="black" >C</text></g>
<g><line x1="103.37" y1="66.8468" x2="110.62" y2="63.5228" class="black" /></g>
<g><title>54 (position.label in template: 54.G)</title><text x="95.44" y="63.25" class="black" >G</text></g>
<g><title>55 (position.label in template: 55.U)</title><text x="95.08" y="55.71" class="green" >T</text></g>
<g><title>56 (position.label in template: 56.U)</title><text x="100.18" y="50.12" class="green" >T</text></g>
<g><title>57 (position.label in template: 57.A)</title><text x="107.95" y="50" class="black" >A</text></g>
<g><title>58 (position.label in template: 58.U)</title><text x="113.01" y="55.42" class="green" >T</text></g>
<g><title>59 (position.label in template: 59.G)</title><text x="112.47" y="62.98" class="black" >G</text></g>
<g><title>60 (position.label in template: 60.G)</title><text x="115.58" y="69.87" class="black" >G</text></g>
<g><title>61 (position.label in template: 61.C)</title><text x="118.89" y="76.76" class="black" >C</text></g>
<g><title>62 (position.label in template: 62.A)</title><text x="126.65" y="77.13" class="black" >A</text></g>
<g><title>63 (position.label in template: 63.G)</title><text x="133.18" y="80.12" class="black" >G</text></g>
<g><title>64 (position.label in template: 64.A)</title><text x="139.05" y="85.36" class="black" >A</text></g>
<g><title>65 (position.label in template: 65.A)</title><text x="142.32" y="92.18" class="green" >A</text></g>
<g><line x1="142.235" y1="93.9078" x2="141.895" y2="102.072" class="black" /></g>
<g><title>66 (position.label in template: 66.C)</title><text x="149.67" y="92.36" class="black" >C</text></g>
<g><line x1="149.585" y1="94.0878" x2="149.245" y2="102.262" class="black" /></g>
<g><title>67 (position.label in template: 67.C)</title><text x="157.22" y="92.55" class="black" >C</text></g>
<g><line x1="157.135" y1="94.2778" x2="156.795" y2="102.442" class="black" /></g>
<g><title>68 (position.label in template: 68.G)</title><text x="164.57" y="92.74" class="black" >G</text></g>
<g><line x1="164.555" y1="94.4696" x2="164.495" y2="102.63" class="black" /></g>
<g><title>69 (position.label in template: 69.U)</title><text x="172.34" y="92.92" class="green" >T</text></g>
<g><line x1="172.325" y1="94.6496" x2="172.265" y2="102.82" class="black" /></g>
<g><title>70 (position.label in template: 70.U)</title><text x="178.23" y="88.18" class="green" >T</text></g>
<g><title>71 (position.label in template: 71.G)</title><text x="185.57" y="87.96" class="black" >G</text></g>
<g><title>72 (position.label in template: 72.U)</title><text x="191.93" y="92.36" class="green" >T</text></g>
<g><title>73 (position.label in template: 73.A)</title><text x="194.37" y="99.58" class="black" >A</text></g>
<g><title>74 (position.label in template: 74.A)</title><text x="191.78" y="106.68" class="black" >A</text></g>
<g><title>75 (position.label in template: 75.C)</title><text x="185.22" y="110.77" class="black" >C</text></g>
<g><title>76 (position.label in template: 76.U)</title><text x="177.68" y="110.19" class="green" >T</text></g>
<g><title>77 (position.label in template: 77.A)</title><text x="172.25" y="105.16" class="green" >A</text></g>
<g><title>78 (position.label in template: 78.C)</title><text x="164.48" y="104.97" class="black" >C</text></g>
<g><title>79 (position.label in template: 79.G)</title><text x="156.71" y="104.78" class="black" >G</text></g>
<g><title>80 (position.label in template: 80.G)</title><text x="149.16" y="104.6" class="black" >G</text></g>
<g><title>81 (position.label in template: 81.U)</title><text x="141.81" y="104.41" class="green" >T</text></g>
<g><title>82 (position.label in template: 82.A)</title><text x="138.41" y="111.06" class="black" >A</text></g>
<g><title>83 (position.label in template: 83.C)</title><text x="132.5" y="116.02" class="black" >C</text></g>
<g><title>84 (position.label in template: 84.C)</title><text x="125.42" y="118.67" class="black" >C</text></g>
<g><title>85 (position.label in template: 85.G)</title><text x="124.35" y="126.18" class="black" >G</text></g>
<g><title>86 (position.label in template: 86.A)</title><text x="131.69" y="129.22" class="black" >A</text></g>
<g><title>87 (position.label in template: 87.C)</title><text x="137.53" y="133.75" class="black" >C</text></g>
<g><line x1="138.704" y1="135.107" x2="143.346" y2="141.683" class="black" /></g>
<g><title>88 (position.label in template: 88.A)</title><text x="143.86" y="129.31" class="green" >A</text></g>
<g><line x1="145.033" y1="130.668" x2="149.667" y2="137.242" class="black" /></g>
<g><title>89 (position.label in template: 89.G)</title><text x="149.55" y="124.86" class="black" >G</text></g>
<g><line x1="150.769" y1="126.184" x2="155.741" y2="132.835" class="black" /></g>
<g><title>90 (position.label in template: 90.U)</title><text x="151.56" y="117.52" class="green" >T</text></g>
<g><title>91 (position.label in template: 91.U)</title><text x="157.43" y="112.76" class="green" >T</text></g>
<g><title>92 (position.label in template: 92.A)</title><text x="165.19" y="112.51" class="black" >A</text></g>
<g><title>93 (position.label in template: 93.G)</title><text x="170.94" y="116.89" class="black" >G</text></g>
<g><title>94 (position.label in template: 94.A)</title><text x="173.61" y="124.11" class="black" >A</text></g>
<g><title>95 (position.label in template: 95.G)</title><text x="170.63" y="131.22" class="black" >G</text></g>
<g><title>96 (position.label in template: 96.U)</title><text x="164.5" y="135.33" class="green" >T</text></g>
<g><title>97 (position.label in template: 97.C)</title><text x="156.96" y="134.77" class="black" >C</text></g>
<g><title>98 (position.label in template: 98.U)</title><text x="150.84" y="139.21" class="green" >T</text></g>
<g><title>99 (position.label in template: 99.G)</title><text x="144.52" y="143.65" class="black" >G</text></g>
<g><title>100 (position.label in template: 100.G)</title><text x="146.96" y="150.81" class="black" >G</text></g>
<g><text x="153.629" y="149.17" class="numbering-label sequential" >100</text></g>
<g><line x1="148.738" y1="150.373" x2="150.882" y2="149.846" class="numbering-line sequential" /></g>
<g><title>101 (position.label in template: 101.A)</title><text x="148.13" y="158.33" class="black" >A</text></g>
<g><title>102 (position.label in template: 102.A)</title><text x="147.16" y="165.83" class="black" >A</text></g>
<g><title>103 (position.label in template: 103.G)</title><text x="144.1" y="172.91" class="black" >G</text></g>
<g><title>104 (position.label in template: 104.G)</title><text x="139.92" y="179.21" class="black" >G</text></g>
<g><title>105 (position.label in template: 105.A)</title><text x="134.84" y="184.4" class="black" >A</text></g>
<g><title>106 (position.label in template: 106.A)</title><text x="128.31" y="188.21" class="black" >A</text></g>
<g><title>107 (position.label in template: 107.G)</title><text x="120.67" y="190.45" class="black" >G</text></g>
<g><title>108 (position.label in template: 108.G)</title><text x="120.67" y="198.01" class="green" >G</text></g>
<g><title>109 (position.label in template: 109.A)</title><text x="121.09" y="205.57" class="green" >A</text></g>
<g><title>110 (position.label in template: 110.G)</title><text x="120.67" y="213.13" class="black" >G</text></g>
<g><title>111 (position.label in template: 111.A)</title><text x="121.09" y="220.69" class="green" >A</text></g>
<g><title>112 (position.label in template: 112.U)</title><text x="120.88" y="228.25" class="green" >T</text></g>
<g><title>113 (position.label in template: 113.U)</title><text x="120.88" y="235.81" class="green" >T</text></g>
<g><title>114 (position.label in template: 114.U)</title><text x="120.88" y="243.37" class="green" >T</text></g>
<g><title>115 (position.label in template: 115.U)</title><text x="126.231" y="248.711" class="green" >T</text></g>
<g><title>116 (position.label in template: 116.U)</title><text x="133.791" y="248.711" class="green" >T</text></g>
<g><title>117 (position.label in template: 117.3')</title><text x="141.351" y="248.711" class="green" >3'</text></g>
<g><line x1="90.3116" y1="248.512" x2="93.8021" y2="248.512" class="gray" /></g>
<g><line x1="97.8718" y1="248.512" x2="101.362" y2="248.512" class="gray" /></g>
<g><line x1="104.808" y1="247.046" x2="107.229" y2="244.531" class="gray" /></g>
<g><line x1="108.697" y1="241.031" x2="108.793" y2="237.539" class="gray" /></g>
<g><line x1="108.85" y1="233.47" x2="108.85" y2="229.98" class="gray" /></g>
<g><line x1="108.793" y1="225.911" x2="108.697" y2="222.419" class="gray" /></g>
<g><line x1="108.64" y1="218.35" x2="108.64" y2="214.86" class="gray" /></g>
<g><line x1="108.64" y1="210.79" x2="108.64" y2="207.3" class="gray" /></g>
<g><line x1="108.64" y1="203.23" x2="108.64" y2="199.74" class="gray" /></g>
<g><line x1="108.64" y1="195.67" x2="108.64" y2="192.18" class="gray" /></g>
<g><line x1="106.692" y1="189.557" x2="103.158" y2="188.492" class="gray" /></g>
<g><line x1="99.4524" y1="186.879" x2="96.4376" y2="185.12" class="gray" /></g>
<g><line x1="93.2013" y1="182.697" x2="90.6687" y2="180.303" class="gray" /></g>
<g><line x1="88.065" y1="177.209" x2="86.135" y2="174.3" class="gray" /></g>
<g><line x1="84.3494" y1="170.68" x2="83.2406" y2="167.449" class="gray" /></g>
<g><line x1="82.3722" y1="163.501" x2="82.0178" y2="160.049" class="gray" /></g>
<g><line x1="81.9019" y1="155.992" x2="82.0581" y2="152.538" class="gray" /></g>
<g><line x1="80.2755" y1="149.713" x2="77.0645" y2="148.357" class="gray" /></g>
<g><line x1="73.3165" y1="146.771" x2="70.1035" y2="145.409" class="gray" /></g>
<g><line x1="66.2933" y1="145.239" x2="63.1567" y2="146.25" class="gray" /></g>
<g><line x1="59.3001" y1="146.201" x2="55.8199" y2="144.979" class="gray" /></g>
<g><line x1="52.8339" y1="142.572" x2="51.0661" y2="139.698" class="gray" /></g>
<g><line x1="50.2067" y1="135.94" x2="50.5633" y2="132.449" class="gray" /></g>
<g><line x1="52.1187" y1="128.901" x2="54.4313" y2="126.288" class="gray" /></g>
<g><line x1="57.7733" y1="124.356" x2="60.9967" y2="123.694" class="gray" /></g>
<g><line x1="64.8196" y1="124.175" x2="67.9604" y2="125.704" class="gray" /></g>
<g><line x1="70.7075" y1="128.411" x2="72.2825" y2="131.529" class="gray" /></g>
<g><line x1="75.0745" y1="134.137" x2="78.2855" y2="135.493" class="gray" /></g>
<g><line x1="82.0349" y1="137.076" x2="85.2551" y2="138.434" class="gray" /></g>
<g><line x1="88.4072" y1="137.641" x2="90.5128" y2="135.029" class="gray" /></g>
<g><line x1="93.456" y1="132.276" x2="96.584" y2="130.083" class="gray" /></g>
<g><line x1="100.104" y1="128.076" x2="103.116" y2="126.713" class="gray" /></g>
<g><line x1="106.97" y1="125.498" x2="110.4" y2="124.852" class="gray" /></g>
<g><line x1="112.575" y1="122.448" x2="112.875" y2="118.992" class="gray" /></g>
<g><line x1="111.354" y1="115.84" x2="108.446" y2="113.91" class="gray" /></g>
<g><line x1="104.992" y1="113.809" x2="102.138" y2="115.471" class="gray" /></g>
<g><line x1="98.5937" y1="117.469" x2="95.3663" y2="119.23" class="gray" /></g>
<g><line x1="91.8068" y1="121.203" x2="88.7632" y2="122.917" class="gray" /></g>
<g><line x1="86.1349" y1="125.761" x2="84.7051" y2="128.848" class="gray" /></g>
<g><line x1="81.9747" y1="131.485" x2="78.9353" y2="132.765" class="gray" /></g>
<g><line x1="75.1322" y1="132.903" x2="71.6478" y2="131.726" class="gray" /></g>
<g><line x1="68.7634" y1="129.279" x2="67.1666" y2="126.281" class="gray" /></g>
<g><line x1="66.5282" y1="122.475" x2="67.0618" y2="119.105" class="gray" /></g>
<g><line x1="69.034" y1="115.91" x2="72.006" y2="113.78" class="gray" /></g>
<g><line x1="75.6873" y1="112.77" x2="79.1627" y2="113.07" class="gray" /></g>
<g><line x1="82.9632" y1="112.247" x2="86.0068" y2="110.533" class="gray" /></g>
<g><line x1="89.539" y1="108.512" x2="92.401" y2="106.848" class="gray" /></g>
<g><line x1="95.9474" y1="104.852" x2="99.1726" y2="103.097" class="gray" /></g>
<g><line x1="100.82" y1="100.095" x2="100.58" y2="96.5948" class="gray" /></g>
<g><line x1="101.172" y1="92.6663" x2="102.478" y2="89.2832" class="gray" /></g>
<g><line x1="104.41" y1="85.7417" x2="106.32" y2="83.1279" class="gray" /></g>
<g><line x1="106.733" y1="79.6083" x2="105.417" y2="76.4712" class="gray" /></g>
<g><line x1="103.794" y1="72.7397" x2="102.356" y2="69.5499" class="gray" /></g>
<g><line x1="99.9165" y1="66.442" x2="97.0435" y2="64.1975" class="gray" /></g>
<g><line x1="95.343" y1="60.9123" x2="95.177" y2="57.4373" class="gray" /></g>
<g><line x1="96.4515" y1="53.9016" x2="98.8085" y2="51.318" class="gray" /></g>
<g><line x1="102.215" y1="49.7834" x2="105.915" y2="49.7262" class="gray" /></g>
<g><line x1="109.339" y1="51.1822" x2="111.621" y2="53.6274" class="gray" /></g>
<g><line x1="112.865" y1="57.1444" x2="112.615" y2="60.6451" class="gray" /></g>
<g><line x1="113.307" y1="64.5294" x2="114.743" y2="67.7101" class="gray" /></g>
<g><line x1="116.461" y1="71.3989" x2="118.009" y2="74.6206" class="gray" /></g>
<g><line x1="120.923" y1="76.5517" x2="124.617" y2="76.7279" class="gray" /></g>
<g><line x1="128.5" y1="77.6719" x2="131.33" y2="78.9676" class="gray" /></g>
<g><line x1="134.698" y1="81.1699" x2="137.532" y2="83.6997" class="gray" /></g>
<g><line x1="139.93" y1="86.8896" x2="141.44" y2="90.0399" class="gray" /></g>
<g><line x1="144.354" y1="91.9246" x2="147.636" y2="92.005" class="gray" /></g>
<g><line x1="151.704" y1="92.106" x2="155.186" y2="92.1936" class="gray" /></g>
<g><line x1="159.254" y1="92.2974" x2="162.536" y2="92.3822" class="gray" /></g>
<g><line x1="166.604" y1="92.4819" x2="170.306" y2="92.5676" class="gray" /></g>
<g><line x1="173.925" y1="91.339" x2="176.645" y2="89.1505" class="gray" /></g>
<g><line x1="180.264" y1="87.8138" x2="183.536" y2="87.7157" class="gray" /></g>
<g><line x1="187.243" y1="88.8125" x2="190.257" y2="90.8971" class="gray" /></g>
<g><line x1="192.581" y1="93.9825" x2="193.719" y2="97.347" class="gray" /></g>
<g><line x1="193.673" y1="101.186" x2="192.477" y2="104.463" class="gray" /></g>
<g><line x1="190.053" y1="107.451" x2="186.947" y2="109.388" class="gray" /></g>
<g><line x1="183.191" y1="110.309" x2="179.709" y2="110.041" class="gray" /></g>
<g><line x1="176.187" y1="108.502" x2="173.743" y2="106.238" class="gray" /></g>
<g><line x1="170.216" y1="104.805" x2="166.514" y2="104.715" class="gray" /></g>
<g><line x1="162.446" y1="104.615" x2="158.744" y2="104.525" class="gray" /></g>
<g><line x1="154.676" y1="104.426" x2="151.194" y2="104.343" class="gray" /></g>
<g><line x1="147.126" y1="104.242" x2="143.844" y2="104.157" class="gray" /></g>
<g><line x1="140.884" y1="105.917" x2="139.336" y2="108.943" class="gray" /></g>
<g><line x1="136.851" y1="112.063" x2="134.059" y2="114.407" class="gray" /></g>
<g><line x1="130.594" y1="116.428" x2="127.326" y2="117.651" class="gray" /></g>
<g><line x1="125.133" y1="120.379" x2="124.637" y2="123.86" class="gray" /></g>
<g><line x1="126.23" y1="126.653" x2="129.81" y2="128.136" class="gray" /></g>
<g><line x1="133.298" y1="130.162" x2="135.922" y2="132.198" class="gray" /></g>
<g><line x1="139.196" y1="132.276" x2="142.194" y2="130.173" class="gray" /></g>
<g><line x1="145.463" y1="127.751" x2="147.947" y2="125.808" class="gray" /></g>
<g><line x1="150.087" y1="122.592" x2="151.023" y2="119.177" class="gray" /></g>
<g><line x1="153.141" y1="115.933" x2="155.849" y2="113.736" class="gray" /></g>
<g><line x1="159.464" y1="112.389" x2="163.156" y2="112.27" class="gray" /></g>
<g><line x1="166.809" y1="113.438" x2="169.321" y2="115.352" class="gray" /></g>
<g><line x1="171.646" y1="118.493" x2="172.904" y2="121.896" class="gray" /></g>
<g><line x1="172.823" y1="125.681" x2="171.417" y2="129.038" class="gray" /></g>
<g><line x1="168.94" y1="132.048" x2="166.19" y2="133.892" class="gray" /></g>
<g><line x1="162.471" y1="134.874" x2="158.989" y2="134.615" class="gray" /></g>
<g><line x1="155.313" y1="135.66" x2="152.487" y2="137.71" class="gray" /></g>
<g><line x1="149.175" y1="140.075" x2="146.185" y2="142.175" class="gray" /></g>
<g><line x1="145.176" y1="145.271" x2="146.304" y2="148.579" class="gray" /></g>
<g><line x1="147.273" y1="152.515" x2="147.817" y2="156.014" class="gray" /></g>
<g><line x1="147.869" y1="160.043" x2="147.421" y2="163.507" class="gray" /></g>
<g><line x1="146.353" y1="167.393" x2="144.907" y2="170.737" class="gray" /></g>
<g><line x1="142.975" y1="174.3" x2="141.045" y2="177.209" class="gray" /></g>
<g><line x1="138.497" y1="180.359" x2="136.263" y2="182.641" class="gray" /></g>
<g><line x1="133.082" y1="185.12" x2="130.068" y2="186.879" class="gray" /></g>
<g><line x1="126.357" y1="188.477" x2="122.623" y2="189.572" class="gray" /></g>
<g><line x1="120.67" y1="192.18" x2="120.67" y2="195.67" class="gray" /></g>
<g><line x1="120.783" y1="199.736" x2="120.977" y2="203.233" class="gray" /></g>
<g><line x1="120.977" y1="207.296" x2="120.783" y2="210.793" class="gray" /></g>
<g><line x1="120.783" y1="214.856" x2="120.977" y2="218.353" class="gray" /></g>
<g><line x1="121.033" y1="222.419" x2="120.937" y2="225.911" class="gray" /></g>
<g><line x1="120.88" y1="229.98" x2="120.88" y2="233.47" class="gray" /></g>
<g><line x1="120.88" y1="237.54" x2="120.88" y2="241.03" class="gray" /></g>
<g><line x1="122.32" y1="244.502" x2="124.791" y2="246.968" class="gray" /></g>
<g><line x1="128.266" y1="248.406" x2="131.756" y2="248.406" class="gray" /></g>
<g><line x1="135.826" y1="248.406" x2="139.316" y2="248.406" class="gray" /></g>
</svg>
