<svg
	xmlns="http://www.w3.org/2000/svg"
	width="226.49"
	height="241.833">
<g><style type="text/css" >
<!-- create color definitions -->
<![CDATA[
circle.red {stroke: rgb(255, 0, 255); fill: none; }
circle.green {stroke: rgb(0, 255, 0); fill: none; }
circle.blue {stroke: rgb(0, 0, 255); fill: none; }
circle.black {stroke: rgb(0, 0, 0); fill: none; }
circle.gray {stroke: rgb(204, 204, 204); fill: none; }
circle.brown {stroke: rgb(211.65, 104.55, 30.6); fill: none; }
line.red {stroke: rgb(255, 0, 255); stroke-width: 0.382296; }
line.green {stroke: rgb(0, 255, 0); stroke-width: 0.382296; }
line.blue {stroke: rgb(0, 0, 255); stroke-width: 0.382296; }
line.black {stroke: rgb(0, 0, 0); stroke-width: 0.382296; }
line.gray {stroke: rgb(204, 204, 204); stroke-width: 0.382296; }
line.brown {stroke: rgb(211.65, 104.55, 30.6); stroke-width: 0.382296; }
line {stroke: rgb(0, 0, 0); }
text.red {fill: rgb(255, 0, 255); font-size: 3.058370px; font-weight: bold; font-family: Helvetica; }
text.green {fill: rgb(0, 255, 0); font-size: 3.058370px; font-weight: bold; font-family: Helvetica; }
text.blue {fill: rgb(0, 0, 255); font-size: 3.058370px; font-weight: bold; font-family: Helvetica; }
text.black {fill: rgb(0, 0, 0); font-size: 3.058370px; font-weight: bold; font-family: Helvetica; }
text.gray {fill: rgb(204, 204, 204); font-size: 3.058370px; font-weight: bold; font-family: Helvetica; }
text.brown {fill: rgb(211.65, 104.55, 30.6); font-size: 3.058370px; font-weight: bold; font-family: Helvetica; }
text {fill: rgb(0, 0, 0); font-size: 3.058370px; font-weight: bold; font-family: Helvetica; text-anchor: middle; alignment-baseline: middle; }

.pseudoknot_connection{stroke-linecap: round; stroke-opacity: 0.2; stroke-width: 1.5; }
.pseudoknot_segment1{stroke-linecap: round; stroke-opacity: 0.4; stroke-width: 3.05837; }
.pseudoknot_segment2{stroke-linecap: round; stroke-opacity: 0.4; stroke-width: 3.05837; }
line.numbering-line{stroke: rgb(204, 204, 204); stroke-width: 0.191148; }
line.predicted{stroke: rgb(0, 0, 0); stroke-dasharray: 2; }
polyline{fill: none; stroke-linejoin: round; }
template{visibility: hidden; }
text.numbering-label{fill: rgb(204, 204, 204); }
]]>
</style></g>
<g><title>0 (position.label in template: 0.5')</title><text x="109.671" y="194.14" class="green" >5'</text></g>
<g><title>1 (position.label in template: 1.G)</title><text x="110.09" y="186.59" class="black" >G</text></g>
<g><line x1="112.129" y1="186.284" x2="120.501" y2="186.284" class="black" /></g>
<g><title>2 (position.label in template: 2.A)</title><text x="110.51" y="179.03" class="black" >A</text></g>
<g><line x1="112.549" y1="178.724" x2="120.501" y2="178.724" class="black" /></g>
<g><title>3 (position.label in template: 3.G)</title><text x="110.09" y="171.47" class="green" >G</text></g>
<g><line x1="112.129" y1="171.164" x2="120.501" y2="171.164" class="black" /></g>
<g><title>4 (position.label in template: 4.G)</title><text x="110.09" y="163.91" class="black" >G</text></g>
<g><line x1="112.129" y1="163.604" x2="120.501" y2="163.604" class="black" /></g>
<g><title>5 (position.label in template: 5.G)</title><text x="110.09" y="156.35" class="black" >G</text></g>
<g><line x1="112.129" y1="156.044" x2="120.501" y2="156.044" class="black" /></g>
<g><title>6 (position.label in template: 6.U)</title><text x="110.3" y="148.79" class="green" >T</text></g>
<g><line x1="112.339" y1="148.484" x2="120.711" y2="148.484" class="black" /></g>
<g><title>7 (position.label in template: 7.A)</title><text x="110.51" y="141.23" class="green" >A</text></g>
<g><line x1="112.549" y1="140.924" x2="120.501" y2="140.924" class="black" /></g>
<g><title>8 (position.label in template: 8.U)</title><text x="103.48" y="137.97" class="green" >T</text></g>
<g><title>9 (position.label in template: 9.G)</title><text x="97.93" y="132.62" class="black" >G</text></g>
<g><title>10 (position.label in template: 10.G)</title><text x="94.66" y="125.8" class="black" >G</text></g>
<g><line x1="94.695" y1="123.456" x2="94.835" y2="115.293" class="black" /></g>
<g><text x="90.9416" y="131.59" class="numbering-label sequential" >10</text></g>
<g><line x1="93.6684" y1="127.344" x2="91.9236" y2="130.061" class="numbering-line sequential" /></g>
<g><title>11 (position.label in template: 11.C)</title><text x="87.31" y="125.8" class="black" >C</text></g>
<g><line x1="87.275" y1="123.456" x2="87.135" y2="115.293" class="black" /></g>
<g><title>12 (position.label in template: 12.U)</title><text x="79.75" y="125.8" class="green" >T</text></g>
<g><line x1="79.785" y1="123.456" x2="79.925" y2="115.293" class="black" /></g>
<g><title>13 (position.label in template: 13.C)</title><text x="72.19" y="125.8" class="black" >C</text></g>
<g><line x1="72.155" y1="123.456" x2="72.015" y2="115.293" class="black" /></g>
<g><title>14 (position.label in template: 14.A)</title><text x="66.63" y="130.69" class="black" >A</text></g>
<g><title>15 (position.label in template: 15.G)</title><text x="58.67" y="131.1" class="black" >G</text></g>
<g><title>16 (position.label in template: 16.U)</title><text x="52.62" y="126.85" class="green" >T</text></g>
<g><title>17 (position.label in template: 17.G)</title><text x="50" y="119.68" class="black" >G</text></g>
<g><title>18 (position.label in template: 18.G)</title><text x="52.41" y="112.52" class="black" >G</text></g>
<g><title>19 (position.label in template: 19.U)</title><text x="58.88" y="108.27" class="green" >T</text></g>
<g><title>20 (position.label in template: 20.A)</title><text x="66.63" y="108.68" class="black" >A</text></g>
<g><text x="69.2066" y="102.299" class="numbering-label sequential" >20</text></g>
<g><line x1="67.3171" y1="106.978" x2="68.5891" y2="103.828" class="numbering-line sequential" /></g>
<g><title>21 (position.label in template: 21.G)</title><text x="71.98" y="113.56" class="black" >G</text></g>
<g><title>22 (position.label in template: 22.A)</title><text x="79.96" y="113.56" class="green" >A</text></g>
<g><title>23 (position.label in template: 23.G)</title><text x="87.1" y="113.56" class="black" >G</text></g>
<g><title>24 (position.label in template: 24.C)</title><text x="94.87" y="113.56" class="black" >C</text></g>
<g><title>25 (position.label in template: 25.A)</title><text x="98.34" y="106.75" class="black" >A</text></g>
<g><title>26 (position.label in template: 26.C)</title><text x="103.48" y="101.4" class="black" >C</text></g>
<g><line x1="105.399" y1="100.405" x2="112.901" y2="97.7129" class="black" /></g>
<g><title>27 (position.label in template: 27.A)</title><text x="101.17" y="94.27" class="green" >A</text></g>
<g><line x1="103.089" y1="93.2754" x2="110.591" y2="90.5829" class="black" /></g>
<g><title>28 (position.label in template: 28.U)</title><text x="98.45" y="87.14" class="green" >T</text></g>
<g><line x1="100.377" y1="86.1668" x2="108.273" y2="83.4315" class="black" /></g>
<g><title>29 (position.label in template: 29.U)</title><text x="95.94" y="80.01" class="green" >T</text></g>
<g><line x1="97.8628" y1="79.026" x2="105.557" y2="76.3123" class="black" /></g>
<g><title>30 (position.label in template: 30.C)</title><text x="93.42" y="72.88" class="black" >C</text></g>
<g><line x1="95.3391" y1="71.8854" x2="102.841" y2="69.1929" class="black" /></g>
<g><text x="88.1154" y="77.2633" class="numbering-label sequential" >30</text></g>
<g><line x1="92.0054" y1="74.0489" x2="89.966" y2="75.7342" class="numbering-line sequential" /></g>
<g><title>31 (position.label in template: 31.U)</title><text x="86.9" y="69.07" class="green" >T</text></g>
<g><title>32 (position.label in template: 32.U)</title><text x="84.01" y="62.08" class="green" >T</text></g>
<g><title>33 (position.label in template: 33.A)</title><text x="86.13" y="54.77" class="black" >A</text></g>
<g><title>34 (position.label in template: 34.G)</title><text x="91.67" y="50.11" class="black" >G</text></g>
<g><title>35 (position.label in template: 35.C)</title><text x="99.44" y="50" class="black" >C</text></g>
<g><title>36 (position.label in template: 36.A)</title><text x="105.73" y="54.49" class="black" >A</text></g>
<g><title>37 (position.label in template: 37.U)</title><text x="107.66" y="61.75" class="green" >T</text></g>
<g><title>38 (position.label in template: 38.G)</title><text x="104.76" y="68.81" class="black" >G</text></g>
<g><title>39 (position.label in template: 39.C)</title><text x="107.48" y="75.94" class="green" >C</text></g>
<g><title>40 (position.label in template: 40.A)</title><text x="110.2" y="83.07" class="green" >A</text></g>
<g><title>41 (position.label in template: 41.U)</title><text x="112.51" y="90.2" class="green" >T</text></g>
<g><title>42 (position.label in template: 42.G)</title><text x="114.82" y="97.33" class="black" >G</text></g>
<g><title>43 (position.label in template: 43.A)</title><text x="122.75" y="98.14" class="black" >A</text></g>
<g><title>44 (position.label in template: 44.G)</title><text x="129.15" y="101.4" class="black" >G</text></g>
<g><title>45 (position.label in template: 45.G)</title><text x="134.5" y="106.75" class="black" >G</text></g>
<g><title>46 (position.label in template: 46.U)</title><text x="137.97" y="113.56" class="green" >T</text></g>
<g><title>47 (position.label in template: 47.C)</title><text x="138.78" y="121.08" class="black" >C</text></g>
<g><title>48 (position.label in template: 48.C)</title><text x="137.04" y="128.44" class="black" >C</text></g>
<g><line x1="135.74" y1="129.705" x2="130.45" y2="136.094" class="black" /></g>
<g><title>49 (position.label in template: 49.A)</title><text x="143.14" y="133.18" class="black" >A</text></g>
<g><line x1="141.861" y1="134.462" x2="136.739" y2="140.817" class="black" /></g>
<g><title>50 (position.label in template: 50.G)</title><text x="148.61" y="137.93" class="black" >G</text></g>
<g><line x1="147.352" y1="139.229" x2="142.398" y2="145.549" class="black" /></g>
<g><text x="153.024" y="132.651" class="numbering-label sequential" >50</text></g>
<g><line x1="149.787" y1="136.522" x2="151.745" y2="134.18" class="numbering-line sequential" /></g>
<g><title>51 (position.label in template: 51.G)</title><text x="154.49" y="142.67" class="black" >G</text></g>
<g><line x1="153.254" y1="143.986" x2="148.466" y2="150.272" class="black" /></g>
<g><title>52 (position.label in template: 52.G)</title><text x="160.38" y="147.41" class="green" >G</text></g>
<g><line x1="159.122" y1="148.709" x2="154.168" y2="155.029" class="black" /></g>
<g><title>53 (position.label in template: 53.U)</title><text x="168.15" y="147.22" class="green" >T</text></g>
<g><title>54 (position.label in template: 54.U)</title><text x="174.28" y="151.65" class="green" >T</text></g>
<g><title>55 (position.label in template: 55.C)</title><text x="176.49" y="158.88" class="black" >C</text></g>
<g><title>56 (position.label in template: 56.A)</title><text x="174.07" y="165.97" class="black" >A</text></g>
<g><title>57 (position.label in template: 57.A)</title><text x="167.7" y="170.04" class="black" >A</text></g>
<g><title>58 (position.label in template: 58.U)</title><text x="159.96" y="169.42" class="green" >T</text></g>
<g><title>59 (position.label in template: 59.A)</title><text x="154.54" y="164.37" class="black" >A</text></g>
<g><title>60 (position.label in template: 60.U)</title><text x="152.91" y="156.94" class="green" >T</text></g>
<g><title>61 (position.label in template: 61.A)</title><text x="147.23" y="152.2" class="black" >A</text></g>
<g><title>62 (position.label in template: 62.C)</title><text x="141.14" y="147.46" class="black" >C</text></g>
<g><title>63 (position.label in template: 63.A)</title><text x="135.46" y="142.71" class="black" >A</text></g>
<g><title>64 (position.label in template: 64.G)</title><text x="129.15" y="137.97" class="black" >G</text></g>
<g><title>65 (position.label in template: 65.U)</title><text x="122.54" y="141.23" class="green" >T</text></g>
<g><title>66 (position.label in template: 66.A)</title><text x="122.75" y="148.79" class="green" >A</text></g>
<g><title>67 (position.label in template: 67.C)</title><text x="122.54" y="156.35" class="black" >C</text></g>
<g><title>68 (position.label in template: 68.C)</title><text x="122.54" y="163.91" class="black" >C</text></g>
<g><title>69 (position.label in template: 69.U)</title><text x="122.54" y="171.47" class="green" >T</text></g>
<g><title>70 (position.label in template: 70.C)</title><text x="122.54" y="179.03" class="black" >C</text></g>
<g><title>71 (position.label in template: 71.C)</title><text x="122.54" y="186.59" class="black" >C</text></g>
<g><title>72 (position.label in template: 72.A)</title><text x="127.988" y="191.833" class="black" >A</text></g>
<g><title>73 (position.label in template: 73.3')</title><text x="122.733" y="197.269" class="green" >3'</text></g>
<g><line x1="109.784" y1="191.798" x2="109.977" y2="188.32" class="gray" /></g>
<g><line x1="110.203" y1="184.248" x2="110.397" y2="180.76" class="gray" /></g>
<g><line x1="110.397" y1="176.688" x2="110.203" y2="173.2" class="gray" /></g>
<g><line x1="110.09" y1="169.125" x2="110.09" y2="165.643" class="gray" /></g>
<g><line x1="110.09" y1="161.565" x2="110.09" y2="158.083" class="gray" /></g>
<g><line x1="110.147" y1="154.006" x2="110.243" y2="150.522" class="gray" /></g>
<g><line x1="110.357" y1="146.446" x2="110.453" y2="142.962" class="gray" /></g>
<g><line x1="108.66" y1="140.066" x2="105.33" y2="138.522" class="gray" /></g>
<g><line x1="102.012" y1="136.249" x2="99.3979" y2="133.729" class="gray" /></g>
<g><line x1="97.0485" y1="130.476" x2="95.5415" y2="127.333" class="gray" /></g>
<g><line x1="92.6211" y1="125.494" x2="89.3489" y2="125.494" class="gray" /></g>
<g><line x1="85.2711" y1="125.494" x2="81.7889" y2="125.494" class="gray" /></g>
<g><line x1="77.7111" y1="125.494" x2="74.2289" y2="125.494" class="gray" /></g>
<g><line x1="70.659" y1="126.841" x2="68.161" y2="129.038" class="gray" /></g>
<g><line x1="64.5938" y1="130.489" x2="60.7062" y2="130.689" class="gray" /></g>
<g><line x1="57.0016" y1="129.622" x2="54.2884" y2="127.716" class="gray" /></g>
<g><line x1="51.9202" y1="124.629" x2="50.6998" y2="121.289" class="gray" /></g>
<g><line x1="50.6504" y1="117.442" x2="51.7596" y2="114.147" class="gray" /></g>
<g><line x1="54.1141" y1="111.095" x2="57.1759" y2="109.084" class="gray" /></g>
<g><line x1="60.9161" y1="108.072" x2="64.5939" y2="108.266" class="gray" /></g>
<g><line x1="68.1364" y1="109.748" x2="70.4736" y2="111.88" class="gray" /></g>
<g><line x1="74.0189" y1="113.254" x2="77.9211" y2="113.254" class="gray" /></g>
<g><line x1="81.9989" y1="113.254" x2="85.0611" y2="113.254" class="gray" /></g>
<g><line x1="89.1389" y1="113.254" x2="92.8311" y2="113.254" class="gray" /></g>
<g><line x1="95.7957" y1="111.437" x2="97.4143" y2="108.261" class="gray" /></g>
<g><line x1="99.7526" y1="104.974" x2="102.067" y2="102.564" class="gray" /></g>
<g><line x1="102.852" y1="99.1545" x2="101.798" y2="95.9038" class="gray" /></g>
<g><line x1="100.443" y1="92.0592" x2="99.1767" y2="88.7392" class="gray" /></g>
<g><line x1="97.773" y1="84.9109" x2="96.617" y2="81.6274" class="gray" /></g>
<g><line x1="95.2606" y1="77.7818" x2="94.0994" y2="74.4965" class="gray" /></g>
<g><line x1="91.6596" y1="71.5455" x2="88.6604" y2="69.7929" class="gray" /></g>
<g><line x1="86.121" y1="66.8799" x2="84.789" y2="63.6584" class="gray" /></g>
<g><line x1="84.5779" y1="59.8159" x2="85.5621" y2="56.4224" class="gray" /></g>
<g><line x1="87.6903" y1="53.1517" x2="90.1097" y2="51.1166" class="gray" /></g>
<g><line x1="93.7087" y1="49.7753" x2="97.4013" y2="49.723" class="gray" /></g>
<g><line x1="101.099" y1="50.8788" x2="104.071" y2="52.9996" class="gray" /></g>
<g><line x1="106.254" y1="56.1546" x2="107.136" y2="59.4737" class="gray" /></g>
<g><line x1="106.885" y1="63.3302" x2="105.535" y2="66.6182" class="gray" /></g>
<g><line x1="105.487" y1="70.4092" x2="106.753" y2="73.7292" class="gray" /></g>
<g><line x1="108.207" y1="77.5392" x2="109.473" y2="80.8592" class="gray" /></g>
<g><line x1="110.828" y1="84.7038" x2="111.882" y2="87.9545" class="gray" /></g>
<g><line x1="113.138" y1="91.8338" x2="114.192" y2="95.0845" class="gray" /></g>
<g><line x1="116.848" y1="97.2313" x2="120.722" y2="97.627" class="gray" /></g>
<g><line x1="124.567" y1="98.7596" x2="127.333" y2="100.169" class="gray" /></g>
<g><line x1="130.592" y1="102.536" x2="133.058" y2="105.002" class="gray" /></g>
<g><line x1="135.426" y1="108.261" x2="137.044" y2="111.437" class="gray" /></g>
<g><line x1="138.188" y1="115.281" x2="138.562" y2="118.747" class="gray" /></g>
<g><line x1="138.311" y1="122.758" x2="137.509" y2="126.15" class="gray" /></g>
<g><line x1="138.65" y1="129.385" x2="141.53" y2="131.623" class="gray" /></g>
<g><line x1="144.679" y1="134.211" x2="147.071" y2="136.287" class="gray" /></g>
<g><line x1="150.197" y1="138.904" x2="152.903" y2="141.085" class="gray" /></g>
<g><line x1="156.078" y1="143.642" x2="158.792" y2="145.826" class="gray" /></g>
<g><line x1="162.418" y1="147.054" x2="166.112" y2="146.964" class="gray" /></g>
<g><line x1="169.803" y1="148.108" x2="172.627" y2="150.15" class="gray" /></g>
<g><line x1="174.876" y1="153.294" x2="175.894" y2="156.624" class="gray" /></g>
<g><line x1="175.831" y1="160.504" x2="174.729" y2="163.735" class="gray" /></g>
<g><line x1="172.352" y1="166.762" x2="169.418" y2="168.636" class="gray" /></g>
<g><line x1="165.668" y1="169.571" x2="161.992" y2="169.277" class="gray" /></g>
<g><line x1="158.468" y1="167.724" x2="156.032" y2="165.454" class="gray" /></g>
<g><line x1="154.103" y1="162.073" x2="153.347" y2="158.626" class="gray" /></g>
<g><line x1="151.345" y1="155.328" x2="148.795" y2="153.201" class="gray" /></g>
<g><line x1="145.621" y1="150.642" x2="142.749" y2="148.406" class="gray" /></g>
<g><line x1="139.576" y1="145.846" x2="137.024" y2="143.712" class="gray" /></g>
<g><line x1="133.83" y1="141.18" x2="130.78" y2="138.889" class="gray" /></g>
<g><line x1="127.321" y1="138.566" x2="124.369" y2="140.022" class="gray" /></g>
<g><line x1="122.597" y1="142.962" x2="122.693" y2="146.446" class="gray" /></g>
<g><line x1="122.693" y1="150.522" x2="122.597" y2="154.006" class="gray" /></g>
<g><line x1="122.54" y1="158.083" x2="122.54" y2="161.565" class="gray" /></g>
<g><line x1="122.54" y1="165.643" x2="122.54" y2="169.125" class="gray" /></g>
<g><line x1="122.54" y1="173.203" x2="122.54" y2="176.685" class="gray" /></g>
<g><line x1="122.54" y1="180.763" x2="122.54" y2="184.245" class="gray" /></g>
<g><line x1="124.009" y1="187.698" x2="126.519" y2="190.113" class="gray" /></g>
<g><line x1="126.571" y1="192.993" x2="124.15" y2="195.497" class="gray" /></g>
</svg>
