<svg
	xmlns="http://www.w3.org/2000/svg"
	width="292.25"
	height="214.081">
<g><style type="text/css" >
<!-- create color definitions -->
<![CDATA[
circle.red {stroke: rgb(255, 0, 255); fill: none; }
circle.green {stroke: rgb(0, 255, 0); fill: none; }
circle.blue {stroke: rgb(0, 0, 255); fill: none; }
circle.black {stroke: rgb(0, 0, 0); fill: none; }
circle.gray {stroke: rgb(204, 204, 204); fill: none; }
circle.brown {stroke: rgb(211.65, 104.55, 30.6); fill: none; }
line.red {stroke: rgb(255, 0, 255); stroke-width: 0.381797; }
line.green {stroke: rgb(0, 255, 0); stroke-width: 0.381797; }
line.blue {stroke: rgb(0, 0, 255); stroke-width: 0.381797; }
line.black {stroke: rgb(0, 0, 0); stroke-width: 0.381797; }
line.gray {stroke: rgb(204, 204, 204); stroke-width: 0.381797; }
line.brown {stroke: rgb(211.65, 104.55, 30.6); stroke-width: 0.381797; }
line {stroke: rgb(0, 0, 0); }
text.red {fill: rgb(255, 0, 255); font-size: 3.054377px; font-weight: bold; font-family: Helvetica; }
text.green {fill: rgb(0, 255, 0); font-size: 3.054377px; font-weight: bold; font-family: Helvetica; }
text.blue {fill: rgb(0, 0, 255); font-size: 3.054377px; font-weight: bold; font-family: Helvetica; }
text.black {fill: rgb(0, 0, 0); font-size: 3.054377px; font-weight: bold; font-family: Helvetica; }
text.gray {fill: rgb(204, 204, 204); font-size: 3.054377px; font-weight: bold; font-family: Helvetica; }
text.brown {fill: rgb(211.65, 104.55, 30.6); font-size: 3.054377px; font-weight: bold; font-family: Helvetica; }
text {fill: rgb(0, 0, 0); font-size: 3.054377px; font-weight: bold; font-family: Helvetica; text-anchor: middle; alignment-baseline: middle; }

.pseudoknot_connection{stroke-linecap: round; stroke-opacity: 0.2; stroke-width: 1.5; }
.pseudoknot_segment1{stroke-linecap: round; stroke-opacity: 0.4; stroke-width: 3.05438; }
.pseudoknot_segment2{stroke-linecap: round; stroke-opacity: 0.4; stroke-width: 3.05438; }
line.numbering-line{stroke: rgb(204, 204, 204); stroke-width: 0.190899; }
line.predicted{stroke: rgb(0, 0, 0); stroke-dasharray: 2; }
polyline{fill: none; stroke-linejoin: round; }
template{visibility: hidden; }
text.numbering-label{fill: rgb(204, 204, 204); }
]]>
</style></g>
<g><title>0 (position.label in template: 0.5')</title><text x="72.5847" y="164.081" class="green" >5'</text></g>
<g><title>1 (position.label in template: 1.A)</title><text x="80.1663" y="164.081" class="black" >A</text></g>
<g><title>2 (position.label in template: 2.C)</title><text x="87.7479" y="164.081" class="black" >C</text></g>
<g><title>3 (position.label in template: 3.A)</title><text x="95.3295" y="164.081" class="black" >A</text></g>
<g><title>4 (position.label in template: 4.G)</title><text x="102.911" y="164.081" class="black" >G</text></g>
<g><title>5 (position.label in template: 5.U)</title><text x="110.493" y="164.081" class="green" >T</text></g>
<g><title>6 (position.label in template: 6.A)</title><text x="118.074" y="164.081" class="black" >A</text></g>
<g><title>7 (position.label in template: 7.C)</title><text x="125.656" y="164.081" class="black" >C</text></g>
<g><title>8 (position.label in template: 8.A)</title><text x="133.237" y="164.081" class="black" >A</text></g>
<g><title>9 (position.label in template: 9.A)</title><text x="140.819" y="164.081" class="black" >A</text></g>
<g><title>10 (position.label in template: 10.A)</title><text x="146.18" y="158.72" class="green" >A</text></g>
<g><line x1="148.216" y1="158.415" x2="156.174" y2="158.415" class="black" /></g>
<g><text x="139.796" y="156.175" class="numbering-label sequential" >10</text></g>
<g><line x1="144.478" y1="158.041" x2="141.629" y2="156.906" class="numbering-line sequential" /></g>
<g><title>11 (position.label in template: 11.C)</title><text x="145.97" y="151.16" class="black" >C</text></g>
<g><line x1="148.006" y1="150.855" x2="155.964" y2="150.855" class="black" /></g>
<g><title>12 (position.label in template: 12.U)</title><text x="145.97" y="143.6" class="green" >T</text></g>
<g><line x1="148.006" y1="143.295" x2="156.384" y2="143.295" class="black" /></g>
<g><title>13 (position.label in template: 13.G)</title><text x="145.76" y="136.04" class="black" >G</text></g>
<g><line x1="147.796" y1="135.735" x2="156.174" y2="135.735" class="black" /></g>
<g><title>14 (position.label in template: 14.A)</title><text x="139.29" y="132.93" class="black" >A</text></g>
<g><title>15 (position.label in template: 15.A)</title><text x="139.29" y="125.37" class="black" >A</text></g>
<g><title>16 (position.label in template: 16.C)</title><text x="145.97" y="122.25" class="black" >C</text></g>
<g><line x1="148.006" y1="121.945" x2="155.964" y2="121.945" class="black" /></g>
<g><title>17 (position.label in template: 17.A)</title><text x="139.54" y="118.62" class="black" >A</text></g>
<g><title>18 (position.label in template: 18.G)</title><text x="134.31" y="112.8" class="black" >G</text></g>
<g><line x1="133.96" y1="110.489" x2="132.56" y2="102.48" class="black" /></g>
<g><title>19 (position.label in template: 19.G)</title><text x="126.89" y="114.22" class="black" >G</text></g>
<g><line x1="126.54" y1="111.909" x2="125.14" y2="103.9" class="black" /></g>
<g><title>20 (position.label in template: 20.C)</title><text x="119.67" y="115.65" class="black" >C</text></g>
<g><line x1="119.252" y1="113.352" x2="117.568" y2="105.317" class="black" /></g>
<g><text x="120.97" y="122.398" class="numbering-label sequential" >20</text></g>
<g><line x1="120.017" y1="117.45" x2="120.676" y2="120.871" class="numbering-line sequential" /></g>
<g><title>21 (position.label in template: 21.G)</title><text x="112.04" y="117.08" class="black" >G</text></g>
<g><line x1="111.656" y1="114.775" x2="110.114" y2="106.754" class="black" /></g>
<g><title>22 (position.label in template: 22.G)</title><text x="104.62" y="118.5" class="black" >G</text></g>
<g><line x1="104.302" y1="116.183" x2="103.038" y2="108.186" class="black" /></g>
<g><title>23 (position.label in template: 23.U)</title><text x="97.4" y="119.93" class="green" >T</text></g>
<g><line x1="97.0157" y1="117.625" x2="95.4743" y2="109.604" class="black" /></g>
<g><title>24 (position.label in template: 24.A)</title><text x="90.18" y="121.36" class="green" >A</text></g>
<g><line x1="89.7638" y1="119.061" x2="88.0862" y2="111.028" class="black" /></g>
<g><title>25 (position.label in template: 25.A)</title><text x="82.76" y="122.79" class="green" >A</text></g>
<g><line x1="82.3422" y1="120.492" x2="80.6578" y2="112.457" class="black" /></g>
<g><title>26 (position.label in template: 26.A)</title><text x="75.34" y="124.21" class="green" >A</text></g>
<g><line x1="74.9222" y1="121.912" x2="73.2378" y2="113.877" class="black" /></g>
<g><title>27 (position.label in template: 27.C)</title><text x="67.71" y="125.64" class="black" >C</text></g>
<g><line x1="67.2922" y1="123.342" x2="65.6078" y2="115.307" class="black" /></g>
<g><title>28 (position.label in template: 28.C)</title><text x="61.72" y="130.25" class="black" >C</text></g>
<g><title>29 (position.label in template: 29.U)</title><text x="54.25" y="129.06" class="green" >T</text></g>
<g><title>30 (position.label in template: 30.U)</title><text x="50" y="122.81" class="green" >T</text></g>
<g><text x="43.2512" y="124.107" class="numbering-label sequential" >30</text></g>
<g><line x1="48.2003" y1="123.156" x2="45.0838" y2="123.755" class="numbering-line sequential" /></g>
<g><title>31 (position.label in template: 31.U)</title><text x="51.63" y="115.43" class="green" >T</text></g>
<g><title>32 (position.label in template: 32.G)</title><text x="57.91" y="111.55" class="black" >G</text></g>
<g><title>33 (position.label in template: 33.G)</title><text x="65.19" y="113.62" class="black" >G</text></g>
<g><title>34 (position.label in template: 34.U)</title><text x="72.82" y="112.19" class="green" >T</text></g>
<g><title>35 (position.label in template: 35.U)</title><text x="80.24" y="110.77" class="green" >T</text></g>
<g><title>36 (position.label in template: 36.U)</title><text x="87.67" y="109.34" class="green" >T</text></g>
<g><title>37 (position.label in template: 37.U)</title><text x="95.09" y="107.91" class="green" >T</text></g>
<g><title>38 (position.label in template: 38.A)</title><text x="102.72" y="106.48" class="black" >A</text></g>
<g><title>39 (position.label in template: 39.G)</title><text x="100.88" y="99.06" class="black" >G</text></g>
<g><title>40 (position.label in template: 40.C)</title><text x="108.51" y="97.63" class="black" >C</text></g>
<g><title>41 (position.label in template: 41.G)</title><text x="109.73" y="105.06" class="black" >G</text></g>
<g><title>42 (position.label in template: 42.G)</title><text x="117.15" y="103.63" class="black" >G</text></g>
<g><title>43 (position.label in template: 43.C)</title><text x="124.79" y="102.2" class="black" >C</text></g>
<g><title>44 (position.label in template: 44.C)</title><text x="132.21" y="100.78" class="black" >C</text></g>
<g><title>45 (position.label in template: 45.G)</title><text x="134.31" y="93.58" class="black" >G</text></g>
<g><title>46 (position.label in template: 46.G)</title><text x="139.13" y="87.75" class="black" >G</text></g>
<g><title>47 (position.label in template: 47.G)</title><text x="145.76" y="84.12" class="black" >G</text></g>
<g><line x1="147.796" y1="83.8146" x2="156.174" y2="83.8146" class="black" /></g>
<g><title>48 (position.label in template: 48.C)</title><text x="145.97" y="76.56" class="black" >C</text></g>
<g><line x1="148.006" y1="76.2546" x2="155.964" y2="76.2546" class="black" /></g>
<g><title>49 (position.label in template: 49.C)</title><text x="145.97" y="69" class="black" >C</text></g>
<g><line x1="148.006" y1="68.6946" x2="155.964" y2="68.6946" class="black" /></g>
<g><title>50 (position.label in template: 50.C)</title><text x="145.97" y="61.44" class="black" >C</text></g>
<g><line x1="148.006" y1="61.1346" x2="155.964" y2="61.1346" class="black" /></g>
<g><text x="139.098" y="61.5128" class="numbering-label sequential" >50</text></g>
<g><line x1="144.137" y1="61.4594" x2="140.931" y2="61.4934" class="numbering-line sequential" /></g>
<g><title>51 (position.label in template: 51.A)</title><text x="145.81" y="53.89" class="black" >A</text></g>
<g><title>52 (position.label in template: 52.U)</title><text x="152.09" y="50" class="green" >T</text></g>
<g><title>53 (position.label in template: 53.C)</title><text x="158.58" y="53.89" class="black" >C</text></g>
<g><title>54 (position.label in template: 54.G)</title><text x="158" y="61.44" class="black" >G</text></g>
<g><title>55 (position.label in template: 55.G)</title><text x="158" y="69" class="black" >G</text></g>
<g><title>56 (position.label in template: 56.G)</title><text x="158" y="76.56" class="black" >G</text></g>
<g><title>57 (position.label in template: 57.C)</title><text x="158.21" y="84.12" class="black" >C</text></g>
<g><title>58 (position.label in template: 58.A)</title><text x="165.05" y="87.75" class="black" >A</text></g>
<g><title>59 (position.label in template: 59.G)</title><text x="169.45" y="93.58" class="black" >G</text></g>
<g><line x1="169.868" y1="95.2675" x2="171.552" y2="103.302" class="black" /></g>
<g><title>60 (position.label in template: 60.C)</title><text x="177.08" y="92.15" class="black" >C</text></g>
<g><line x1="177.43" y1="93.8504" x2="178.83" y2="101.859" class="black" /></g>
<g><title>61 (position.label in template: 61.A)</title><text x="184.71" y="90.72" class="green" >A</text></g>
<g><line x1="185.062" y1="92.4201" x2="186.468" y2="100.429" class="black" /></g>
<g><title>62 (position.label in template: 62.G)</title><text x="191.72" y="89.3" class="black" >G</text></g>
<g><line x1="192.138" y1="90.9875" x2="193.822" y2="99.0216" class="black" /></g>
<g><title>63 (position.label in template: 63.A)</title><text x="199.56" y="87.87" class="green" >A</text></g>
<g><line x1="199.91" y1="89.5704" x2="201.31" y2="97.5787" class="black" /></g>
<g><title>64 (position.label in template: 64.U)</title><text x="206.78" y="86.44" class="green" >T</text></g>
<g><line x1="207.196" y1="88.1278" x2="208.874" y2="96.1613" class="black" /></g>
<g><title>65 (position.label in template: 65.U)</title><text x="209.56" y="79.41" class="green" >T</text></g>
<g><title>66 (position.label in template: 66.C)</title><text x="215.01" y="74.18" class="black" >C</text></g>
<g><title>67 (position.label in template: 67.G)</title><text x="221.94" y="71.69" class="black" >G</text></g>
<g><title>68 (position.label in template: 68.U)</title><text x="229.68" y="72.39" class="green" >T</text></g>
<g><title>69 (position.label in template: 69.A)</title><text x="236.44" y="76.16" class="black" >A</text></g>
<g><title>70 (position.label in template: 70.A)</title><text x="240.82" y="82.32" class="black" >A</text></g>
<g><title>71 (position.label in template: 71.A)</title><text x="242.25" y="89.74" class="black" >A</text></g>
<g><title>72 (position.label in template: 72.C)</title><text x="240.25" y="97.09" class="black" >C</text></g>
<g><title>73 (position.label in template: 73.A)</title><text x="235.77" y="103.02" class="black" >A</text></g>
<g><title>74 (position.label in template: 74.A)</title><text x="229.04" y="106.47" class="black" >A</text></g>
<g><title>75 (position.label in template: 75.A)</title><text x="221.49" y="106.8" class="black" >A</text></g>
<g><title>76 (position.label in template: 76.C)</title><text x="214.28" y="103.96" class="black" >C</text></g>
<g><title>77 (position.label in template: 77.A)</title><text x="209.29" y="98.46" class="green" >A</text></g>
<g><title>78 (position.label in template: 78.U)</title><text x="201.66" y="99.89" class="green" >T</text></g>
<g><title>79 (position.label in template: 79.C)</title><text x="194.24" y="101.32" class="black" >C</text></g>
<g><title>80 (position.label in template: 80.U)</title><text x="186.82" y="102.74" class="green" >T</text></g>
<g><title>81 (position.label in template: 81.G)</title><text x="179.18" y="104.17" class="black" >G</text></g>
<g><title>82 (position.label in template: 82.C)</title><text x="171.97" y="105.6" class="black" >C</text></g>
<g><title>83 (position.label in template: 83.A)</title><text x="169.86" y="112.8" class="black" >A</text></g>
<g><title>84 (position.label in template: 84.G)</title><text x="164.63" y="118.62" class="black" >G</text></g>
<g><title>85 (position.label in template: 85.G)</title><text x="158" y="122.25" class="black" >G</text></g>
<g><title>86 (position.label in template: 86.A)</title><text x="161.52" y="129.15" class="black" >A</text></g>
<g><title>87 (position.label in template: 87.C)</title><text x="158.21" y="136.04" class="black" >C</text></g>
<g><title>88 (position.label in template: 88.A)</title><text x="158.42" y="143.6" class="green" >A</text></g>
<g><title>89 (position.label in template: 89.G)</title><text x="158" y="151.16" class="black" >G</text></g>
<g><title>90 (position.label in template: 90.U)</title><text x="158.21" y="158.72" class="green" >T</text></g>
<g><title>91 (position.label in template: 91.A)</title><text x="163.668" y="163.982" class="black" >A</text></g>
<g><title>92 (position.label in template: 92.3')</title><text x="164.135" y="171.549" class="green" >3'</text></g>
<g><line x1="74.6209" y1="163.776" x2="78.13" y2="163.776" class="gray" /></g>
<g><line x1="82.2025" y1="163.776" x2="85.7116" y2="163.776" class="gray" /></g>
<g><line x1="89.7841" y1="163.776" x2="93.2932" y2="163.776" class="gray" /></g>
<g><line x1="97.3657" y1="163.776" x2="100.875" y2="163.776" class="gray" /></g>
<g><line x1="104.947" y1="163.776" x2="108.456" y2="163.776" class="gray" /></g>
<g><line x1="112.529" y1="163.776" x2="116.038" y2="163.776" class="gray" /></g>
<g><line x1="120.11" y1="163.776" x2="123.62" y2="163.776" class="gray" /></g>
<g><line x1="127.692" y1="163.776" x2="131.201" y2="163.776" class="gray" /></g>
<g><line x1="135.274" y1="163.776" x2="138.783" y2="163.776" class="gray" /></g>
<g><line x1="142.259" y1="162.336" x2="144.74" y2="159.854" class="gray" /></g>
<g><line x1="146.123" y1="156.379" x2="146.027" y2="152.89" class="gray" /></g>
<g><line x1="145.97" y1="148.818" x2="145.97" y2="145.331" class="gray" /></g>
<g><line x1="145.913" y1="141.259" x2="145.817" y2="137.77" class="gray" /></g>
<g><line x1="143.925" y1="134.852" x2="141.125" y2="133.507" class="gray" /></g>
<g><line x1="139.29" y1="130.588" x2="139.29" y2="127.101" class="gray" /></g>
<g><line x1="141.135" y1="124.203" x2="144.125" y2="122.806" class="gray" /></g>
<g><line x1="144.197" y1="120.944" x2="141.313" y2="119.316" class="gray" /></g>
<g><line x1="138.179" y1="116.8" x2="135.671" y2="114.009" class="gray" /></g>
<g><line x1="132.31" y1="112.877" x2="128.89" y2="113.532" class="gray" /></g>
<g><line x1="124.893" y1="114.31" x2="121.667" y2="114.949" class="gray" /></g>
<g><line x1="117.669" y1="115.72" x2="114.041" y2="116.399" class="gray" /></g>
<g><line x1="110.04" y1="117.157" x2="106.62" y2="117.812" class="gray" /></g>
<g><line x1="102.623" y1="118.59" x2="99.3974" y2="119.229" class="gray" /></g>
<g><line x1="95.4026" y1="120.02" x2="92.1774" y2="120.659" class="gray" /></g>
<g><line x1="88.1805" y1="121.44" x2="84.7595" y2="122.099" class="gray" /></g>
<g><line x1="80.76" y1="122.867" x2="77.34" y2="123.522" class="gray" /></g>
<g><line x1="73.3386" y1="124.28" x2="69.7114" y2="124.959" class="gray" /></g>
<g><line x1="66.0963" y1="126.576" x2="63.3337" y2="128.703" class="gray" /></g>
<g><line x1="59.7091" y1="129.624" x2="56.2609" y2="129.075" class="gray" /></g>
<g><line x1="53.105" y1="127.071" x2="51.145" y2="124.188" class="gray" /></g>
<g><line x1="50.4392" y1="120.516" x2="51.1908" y2="117.113" class="gray" /></g>
<g><line x1="53.3623" y1="114.054" x2="56.1777" y2="112.315" class="gray" /></g>
<g><line x1="59.8686" y1="111.801" x2="63.2314" y2="112.758" class="gray" /></g>
<g><line x1="67.1914" y1="112.939" x2="70.8186" y2="112.26" class="gray" /></g>
<g><line x1="74.82" y1="111.502" x2="78.24" y2="110.847" class="gray" /></g>
<g><line x1="82.2396" y1="110.08" x2="85.6704" y2="109.419" class="gray" /></g>
<g><line x1="89.6695" y1="108.649" x2="93.0905" y2="107.99" class="gray" /></g>
<g><line x1="97.0914" y1="107.229" x2="100.719" y2="106.55" class="gray" /></g>
<g><line x1="102.23" y1="104.198" x2="101.37" y2="100.731" class="gray" /></g>
<g><line x1="102.881" y1="98.3795" x2="106.509" y2="97.6997" class="gray" /></g>
<g><line x1="108.84" y1="99.3339" x2="109.4" y2="102.745" class="gray" /></g>
<g><line x1="111.729" y1="104.369" x2="115.151" y2="103.71" class="gray" /></g>
<g><line x1="119.151" y1="102.95" x2="122.789" y2="102.269" class="gray" /></g>
<g><line x1="126.79" y1="101.512" x2="130.21" y2="100.857" class="gray" /></g>
<g><line x1="132.78" y1="98.5198" x2="133.74" y2="95.2294" class="gray" /></g>
<g><line x1="135.607" y1="91.7052" x2="137.833" y2="89.0139" class="gray" /></g>
<g><line x1="140.916" y1="86.4667" x2="143.974" y2="84.7925" class="gray" /></g>
<g><line x1="145.817" y1="81.7791" x2="145.913" y2="78.29" class="gray" /></g>
<g><line x1="145.97" y1="74.2183" x2="145.97" y2="70.7308" class="gray" /></g>
<g><line x1="145.97" y1="66.6583" x2="145.97" y2="63.1708" class="gray" /></g>
<g><line x1="145.927" y1="59.0988" x2="145.853" y2="55.6204" class="gray" /></g>
<g><line x1="147.541" y1="52.5123" x2="150.359" y2="50.7668" class="gray" /></g>
<g><line x1="153.837" y1="50.7414" x2="156.833" y2="52.5377" class="gray" /></g>
<g><line x1="158.424" y1="55.6148" x2="158.156" y2="59.1043" class="gray" /></g>
<g><line x1="158" y1="63.1708" x2="158" y2="66.6583" class="gray" /></g>
<g><line x1="158" y1="70.7308" x2="158" y2="74.2183" class="gray" /></g>
<g><line x1="158.057" y1="78.29" x2="158.153" y2="81.7791" class="gray" /></g>
<g><line x1="160.009" y1="84.7691" x2="163.251" y2="86.49" class="gray" /></g>
<g><line x1="166.277" y1="89.0699" x2="168.223" y2="91.6492" class="gray" /></g>
<g><line x1="171.451" y1="92.8995" x2="175.079" y2="92.2197" class="gray" /></g>
<g><line x1="179.081" y1="91.4695" x2="182.709" y2="90.7897" class="gray" /></g>
<g><line x1="186.706" y1="90.0103" x2="189.724" y2="89.3988" class="gray" /></g>
<g><line x1="193.723" y1="88.6292" x2="197.557" y2="87.9299" class="gray" /></g>
<g><line x1="201.557" y1="87.1689" x2="204.783" y2="86.5302" class="gray" /></g>
<g><line x1="207.529" y1="84.241" x2="208.811" y2="80.9981" class="gray" /></g>
<g><line x1="211.029" y1="77.6947" x2="213.541" y2="75.2845" class="gray" /></g>
<g><line x1="216.926" y1="73.186" x2="220.024" y2="72.0731" class="gray" /></g>
<g><line x1="223.968" y1="71.568" x2="227.652" y2="71.9012" class="gray" /></g>
<g><line x1="231.458" y1="73.0764" x2="234.662" y2="74.8628" class="gray" /></g>
<g><line x1="237.62" y1="77.5141" x2="239.64" y2="80.3551" class="gray" /></g>
<g><line x1="241.205" y1="84.014" x2="241.865" y2="87.4351" class="gray" /></g>
<g><line x1="241.715" y1="91.3994" x2="240.785" y2="94.8198" class="gray" /></g>
<g><line x1="239.023" y1="98.4093" x2="236.997" y2="101.09" class="gray" /></g>
<g><line x1="233.958" y1="103.643" x2="230.852" y2="105.236" class="gray" /></g>
<g><line x1="227.006" y1="106.253" x2="223.524" y2="106.406" class="gray" /></g>
<g><line x1="219.595" y1="105.748" x2="216.175" y2="104.401" class="gray" /></g>
<g><line x1="212.912" y1="102.146" x2="210.658" y2="99.6626" class="gray" /></g>
<g><line x1="207.289" y1="98.5297" x2="203.661" y2="99.2095" class="gray" /></g>
<g><line x1="199.661" y1="99.9699" x2="196.239" y2="100.629" class="gray" /></g>
<g><line x1="192.24" y1="101.397" x2="188.82" y2="102.052" class="gray" /></g>
<g><line x1="184.819" y1="102.809" x2="181.181" y2="103.49" class="gray" /></g>
<g><line x1="177.183" y1="104.261" x2="173.967" y2="104.898" class="gray" /></g>
<g><line x1="171.397" y1="107.249" x2="170.433" y2="110.54" class="gray" /></g>
<g><line x1="168.499" y1="114.009" x2="165.991" y2="116.8" class="gray" /></g>
<g><line x1="162.844" y1="119.292" x2="159.786" y2="120.967" class="gray" /></g>
<g><line x1="158.925" y1="123.758" x2="160.595" y2="127.031" class="gray" /></g>
<g><line x1="160.638" y1="130.68" x2="159.092" y2="133.899" class="gray" /></g>
<g><line x1="158.267" y1="137.77" x2="158.363" y2="141.259" class="gray" /></g>
<g><line x1="158.307" y1="145.328" x2="158.113" y2="148.821" class="gray" /></g>
<g><line x1="158.057" y1="152.89" x2="158.153" y2="156.379" class="gray" /></g>
<g><line x1="159.676" y1="159.828" x2="162.202" y2="162.263" class="gray" /></g>
<g><line x1="163.794" y1="165.709" x2="164.01" y2="169.211" class="gray" /></g>
</svg>
