<svg
	xmlns="http://www.w3.org/2000/svg"
	width="256.79"
	height="230.68">
<g><style type="text/css" >
<!-- create color definitions -->
<![CDATA[
circle.red {stroke: rgb(255, 0, 255); fill: none; }
circle.green {stroke: rgb(0, 255, 0); fill: none; }
circle.blue {stroke: rgb(0, 0, 255); fill: none; }
circle.black {stroke: rgb(0, 0, 0); fill: none; }
circle.gray {stroke: rgb(204, 204, 204); fill: none; }
circle.brown {stroke: rgb(211.65, 104.55, 30.6); fill: none; }
line.red {stroke: rgb(255, 0, 255); stroke-width: 0.383281; }
line.green {stroke: rgb(0, 255, 0); stroke-width: 0.383281; }
line.blue {stroke: rgb(0, 0, 255); stroke-width: 0.383281; }
line.black {stroke: rgb(0, 0, 0); stroke-width: 0.383281; }
line.gray {stroke: rgb(204, 204, 204); stroke-width: 0.383281; }
line.brown {stroke: rgb(211.65, 104.55, 30.6); stroke-width: 0.383281; }
line {stroke: rgb(0, 0, 0); }
text.red {fill: rgb(255, 0, 255); font-size: 3.066251px; font-weight: bold; font-family: Helvetica; }
text.green {fill: rgb(0, 255, 0); font-size: 3.066251px; font-weight: bold; font-family: Helvetica; }
text.blue {fill: rgb(0, 0, 255); font-size: 3.066251px; font-weight: bold; font-family: Helvetica; }
text.black {fill: rgb(0, 0, 0); font-size: 3.066251px; font-weight: bold; font-family: Helvetica; }
text.gray {fill: rgb(204, 204, 204); font-size: 3.066251px; font-weight: bold; font-family: Helvetica; }
text.brown {fill: rgb(211.65, 104.55, 30.6); font-size: 3.066251px; font-weight: bold; font-family: Helvetica; }
text {fill: rgb(0, 0, 0); font-size: 3.066251px; font-weight: bold; font-family: Helvetica; text-anchor: middle; alignment-baseline: middle; }

.pseudoknot_connection{stroke-linecap: round; stroke-opacity: 0.2; stroke-width: 1.5; }
.pseudoknot_segment1{stroke-linecap: round; stroke-opacity: 0.4; stroke-width: 3.06625; }
.pseudoknot_segment2{stroke-linecap: round; stroke-opacity: 0.4; stroke-width: 3.06625; }
line.numbering-line{stroke: rgb(204, 204, 204); stroke-width: 0.191641; }
line.predicted{stroke: rgb(0, 0, 0); stroke-dasharray: 2; }
polyline{fill: none; stroke-linejoin: round; }
template{visibility: hidden; }
text.numbering-label{fill: rgb(204, 204, 204); }
]]>
</style></g>
<g><title>0 (position.label in template: 0.5')</title><text x="124.15" y="180.68" class="green" >5'</text></g>
<g><title>1 (position.label in template: 1.A)</title><text x="131.15" y="180.68" class="green" >A</text></g>
<g><line x1="133.194" y1="180.373" x2="141.146" y2="180.373" class="black" /></g>
<g><title>2 (position.label in template: 2.U)</title><text x="130.95" y="173.12" class="green" >T</text></g>
<g><line x1="132.994" y1="172.813" x2="141.346" y2="172.813" class="black" /></g>
<g><title>3 (position.label in template: 3.U)</title><text x="130.95" y="165.56" class="green" >T</text></g>
<g><line x1="132.994" y1="165.253" x2="141.346" y2="165.253" class="black" /></g>
<g><title>4 (position.label in template: 4.A)</title><text x="131.15" y="158" class="green" >A</text></g>
<g><line x1="133.194" y1="157.693" x2="141.146" y2="157.693" class="black" /></g>
<g><title>5 (position.label in template: 5.U)</title><text x="130.95" y="150.44" class="green" >T</text></g>
<g><line x1="132.994" y1="150.133" x2="141.346" y2="150.133" class="black" /></g>
<g><title>6 (position.label in template: 6.U)</title><text x="130.95" y="142.88" class="green" >T</text></g>
<g><line x1="132.994" y1="142.573" x2="141.346" y2="142.573" class="black" /></g>
<g><title>7 (position.label in template: 7.U)</title><text x="130.95" y="135.32" class="green" >T</text></g>
<g><line x1="132.994" y1="135.013" x2="141.346" y2="135.013" class="black" /></g>
<g><title>8 (position.label in template: 8.G)</title><text x="130.74" y="127.76" class="black" >G</text></g>
<g><line x1="132.784" y1="127.453" x2="141.146" y2="127.453" class="black" /></g>
<g><title>9 (position.label in template: 9.A)</title><text x="124.42" y="124.32" class="black" >A</text></g>
<g><title>10 (position.label in template: 10.G)</title><text x="118.9" y="118.74" class="black" >G</text></g>
<g><text x="113.148" y="122.55" class="numbering-label sequential" >10</text></g>
<g><line x1="117.366" y1="119.756" x2="114.988" y2="121.331" class="numbering-line sequential" /></g>
<g><title>11 (position.label in template: 11.G)</title><text x="116.08" y="111.73" class="black" >G</text></g>
<g><line x1="116.298" y1="109.391" x2="117.172" y2="101.266" class="black" /></g>
<g><title>12 (position.label in template: 12.U)</title><text x="108.76" y="111.05" class="green" >T</text></g>
<g><line x1="108.977" y1="108.711" x2="109.843" y2="100.586" class="black" /></g>
<g><title>13 (position.label in template: 13.G)</title><text x="101.02" y="110.38" class="black" >G</text></g>
<g><line x1="101.238" y1="108.041" x2="102.112" y2="99.9158" class="black" /></g>
<g><title>14 (position.label in template: 14.G)</title><text x="93.49" y="109.7" class="black" >G</text></g>
<g><line x1="93.7084" y1="107.361" x2="94.5816" y2="99.2358" class="black" /></g>
<g><title>15 (position.label in template: 15.U)</title><text x="86.17" y="109.02" class="green" >T</text></g>
<g><line x1="86.3884" y1="106.681" x2="87.2616" y2="98.5558" class="black" /></g>
<g><title>16 (position.label in template: 16.A)</title><text x="81.99" y="115.18" class="black" >A</text></g>
<g><title>17 (position.label in template: 17.A)</title><text x="75.54" y="119.13" class="black" >A</text></g>
<g><title>18 (position.label in template: 18.A)</title><text x="68.07" y="120.24" class="black" >A</text></g>
<g><title>19 (position.label in template: 19.U)</title><text x="60.54" y="118.34" class="green" >T</text></g>
<g><title>20 (position.label in template: 20.U)</title><text x="54.55" y="113.73" class="green" >T</text></g>
<g><text x="49.3349" y="118.247" class="numbering-label sequential" >20</text></g>
<g><line x1="53.1593" y1="114.934" x2="51.1051" y2="116.714" class="numbering-line sequential" /></g>
<g><title>21 (position.label in template: 21.U)</title><text x="50.84" y="107.14" class="green" >T</text></g>
<g><title>22 (position.label in template: 22.C)</title><text x="50" y="99.63" class="black" >C</text></g>
<g><title>23 (position.label in template: 23.G)</title><text x="51.96" y="92.39" class="black" >G</text></g>
<g><title>24 (position.label in template: 24.U)</title><text x="56.99" y="86.57" class="green" >T</text></g>
<g><title>25 (position.label in template: 25.A)</title><text x="63.91" y="83.1" class="black" >A</text></g>
<g><title>26 (position.label in template: 26.G)</title><text x="71.04" y="82.53" class="black" >G</text></g>
<g><title>27 (position.label in template: 27.C)</title><text x="78.41" y="84.96" class="black" >C</text></g>
<g><title>28 (position.label in template: 28.G)</title><text x="83.84" y="89.99" class="black" >G</text></g>
<g><title>29 (position.label in template: 29.A)</title><text x="87.48" y="96.83" class="green" >A</text></g>
<g><title>30 (position.label in template: 30.C)</title><text x="94.8" y="97.51" class="black" >C</text></g>
<g><text x="95.4292" y="90.6397" class="numbering-label sequential" >30</text></g>
<g><line x1="94.9678" y1="95.6779" x2="95.2888" y2="92.1728" class="numbering-line sequential" /></g>
<g><title>31 (position.label in template: 31.C)</title><text x="102.33" y="98.19" class="black" >C</text></g>
<g><title>32 (position.label in template: 32.A)</title><text x="110.06" y="98.86" class="green" >A</text></g>
<g><title>33 (position.label in template: 33.C)</title><text x="117.39" y="99.54" class="black" >C</text></g>
<g><title>34 (position.label in template: 34.A)</title><text x="121.62" y="93.14" class="black" >A</text></g>
<g><title>35 (position.label in template: 35.C)</title><text x="127.43" y="88.56" class="black" >C</text></g>
<g><line x1="129.44" y1="87.8829" x2="137.25" y2="86.4438" class="black" /></g>
<g><title>36 (position.label in template: 36.G)</title><text x="125.87" y="81.12" class="green" >G</text></g>
<g><line x1="127.883" y1="80.4552" x2="136.107" y2="78.9915" class="black" /></g>
<g><title>37 (position.label in template: 37.C)</title><text x="124.73" y="73.68" class="black" >C</text></g>
<g><line x1="126.74" y1="73.0032" x2="134.56" y2="71.5635" class="black" /></g>
<g><title>38 (position.label in template: 38.C)</title><text x="123.38" y="66.24" class="black" >C</text></g>
<g><line x1="125.39" y1="65.5632" x2="133.21" y2="64.1235" class="black" /></g>
<g><title>39 (position.label in template: 39.G)</title><text x="121.83" y="58.8" class="black" >G</text></g>
<g><line x1="123.843" y1="58.1352" x2="132.067" y2="56.6715" class="black" /></g>
<g><title>40 (position.label in template: 40.A)</title><text x="125.78" y="52.12" class="black" >A</text></g>
<g><title>41 (position.label in template: 41.C)</title><text x="134.08" y="56.62" class="black" >C</text></g>
<g><title>42 (position.label in template: 42.G)</title><text x="135.22" y="64.06" class="black" >G</text></g>
<g><title>43 (position.label in template: 43.G)</title><text x="136.57" y="71.5" class="black" >G</text></g>
<g><title>44 (position.label in template: 44.U)</title><text x="138.12" y="78.94" class="green" >T</text></g>
<g><title>45 (position.label in template: 45.A)</title><text x="139.04" y="71.41" class="black" >A</text></g>
<g><title>46 (position.label in template: 46.U)</title><text x="141.55" y="64.35" class="green" >T</text></g>
<g><title>47 (position.label in template: 47.U)</title><text x="146.06" y="58.29" class="green" >T</text></g>
<g><title>48 (position.label in template: 48.G)</title><text x="151.84" y="53.67" class="black" >G</text></g>
<g><title>49 (position.label in template: 49.A)</title><text x="159.26" y="50.84" class="black" >A</text></g>
<g><title>50 (position.label in template: 50.C)</title><text x="166.57" y="50" class="black" >C</text></g>
<g><text x="166.75" y="43.1033" class="numbering-label sequential" >50</text></g>
<g><line x1="166.618" y1="48.1609" x2="166.71" y2="44.6364" class="numbering-line sequential" /></g>
<g><title>51 (position.label in template: 51.A)</title><text x="174.24" y="51.23" class="black" >A</text></g>
<g><title>52 (position.label in template: 52.A)</title><text x="181.09" y="54.42" class="black" >A</text></g>
<g><title>53 (position.label in template: 53.G)</title><text x="186.42" y="59.34" class="black" >G</text></g>
<g><title>54 (position.label in template: 54.G)</title><text x="190.62" y="65.62" class="black" >G</text></g>
<g><title>55 (position.label in template: 55.G)</title><text x="192.96" y="72.81" class="black" >G</text></g>
<g><title>56 (position.label in template: 56.G)</title><text x="193.28" y="80.36" class="black" >G</text></g>
<g><title>57 (position.label in template: 57.A)</title><text x="191.97" y="87.72" class="black" >A</text></g>
<g><title>58 (position.label in template: 58.A)</title><text x="188.32" y="94.34" class="black" >A</text></g>
<g><title>59 (position.label in template: 59.A)</title><text x="183.02" y="99.73" class="black" >A</text></g>
<g><title>60 (position.label in template: 60.C)</title><text x="176.26" y="103.49" class="black" >C</text></g>
<g><title>61 (position.label in template: 61.U)</title><text x="168.93" y="105.35" class="green" >T</text></g>
<g><title>62 (position.label in template: 62.C)</title><text x="161.37" y="105.15" class="black" >C</text></g>
<g><title>63 (position.label in template: 63.U)</title><text x="154.15" y="102.93" class="green" >T</text></g>
<g><title>64 (position.label in template: 64.G)</title><text x="147.58" y="98.83" class="black" >G</text></g>
<g><title>65 (position.label in template: 65.A)</title><text x="142.98" y="93.18" class="black" >A</text></g>
<g><title>66 (position.label in template: 66.G)</title><text x="139.26" y="86.38" class="black" >G</text></g>
<g><title>67 (position.label in template: 67.A)</title><text x="146.92" y="88.56" class="black" >A</text></g>
<g><title>68 (position.label in template: 68.G)</title><text x="152.51" y="93.14" class="black" >G</text></g>
<g><title>69 (position.label in template: 69.A)</title><text x="156.95" y="99.54" class="black" >A</text></g>
<g><title>70 (position.label in template: 70.U)</title><text x="158.27" y="106.94" class="green" >T</text></g>
<g><title>71 (position.label in template: 71.G)</title><text x="156.89" y="114.41" class="black" >G</text></g>
<g><line x1="155.714" y1="115.775" x2="151.096" y2="122.341" class="black" /></g>
<g><title>72 (position.label in template: 72.C)</title><text x="163.22" y="118.85" class="black" >C</text></g>
<g><line x1="161.998" y1="120.182" x2="157.052" y2="126.815" class="black" /></g>
<g><title>73 (position.label in template: 73.A)</title><text x="169.55" y="123.28" class="green" >A</text></g>
<g><line x1="168.33" y1="124.613" x2="163.39" y2="131.253" class="black" /></g>
<g><title>74 (position.label in template: 74.G)</title><text x="175.26" y="127.72" class="black" >G</text></g>
<g><line x1="174.084" y1="129.085" x2="169.466" y2="135.651" class="black" /></g>
<g><title>75 (position.label in template: 75.G)</title><text x="181.38" y="132.16" class="black" >G</text></g>
<g><line x1="180.204" y1="133.525" x2="175.586" y2="140.091" class="black" /></g>
<g><title>76 (position.label in template: 76.A)</title><text x="188.94" y="129.67" class="black" >A</text></g>
<g><title>77 (position.label in template: 77.G)</title><text x="196.02" y="130.62" class="black" >G</text></g>
<g><title>78 (position.label in template: 78.A)</title><text x="202.74" y="134.8" class="black" >A</text></g>
<g><title>79 (position.label in template: 79.A)</title><text x="206.52" y="141.34" class="black" >A</text></g>
<g><title>80 (position.label in template: 80.U)</title><text x="206.79" y="148.89" class="green" >T</text></g>
<g><title>81 (position.label in template: 81.G)</title><text x="203.66" y="155.86" class="black" >G</text></g>
<g><title>82 (position.label in template: 82.C)</title><text x="198.16" y="160.81" class="black" >C</text></g>
<g><title>83 (position.label in template: 83.U)</title><text x="190.84" y="162.7" class="green" >T</text></g>
<g><title>84 (position.label in template: 84.A)</title><text x="183.65" y="161.14" class="black" >A</text></g>
<g><title>85 (position.label in template: 85.C)</title><text x="177.5" y="156.46" class="black" >C</text></g>
<g><title>86 (position.label in template: 86.G)</title><text x="174.06" y="149.63" class="black" >G</text></g>
<g><title>87 (position.label in template: 87.C)</title><text x="174.41" y="142.07" class="black" >C</text></g>
<g><title>88 (position.label in template: 88.C)</title><text x="168.29" y="137.63" class="black" >C</text></g>
<g><title>89 (position.label in template: 89.U)</title><text x="162.17" y="133.2" class="green" >T</text></g>
<g><title>90 (position.label in template: 90.G)</title><text x="155.83" y="128.76" class="black" >G</text></g>
<g><title>91 (position.label in template: 91.C)</title><text x="149.92" y="124.32" class="black" >C</text></g>
<g><title>92 (position.label in template: 92.C)</title><text x="143.19" y="127.76" class="black" >C</text></g>
<g><title>93 (position.label in template: 93.A)</title><text x="143.39" y="135.32" class="green" >A</text></g>
<g><title>94 (position.label in template: 94.A)</title><text x="143.39" y="142.88" class="green" >A</text></g>
<g><title>95 (position.label in template: 95.A)</title><text x="143.39" y="150.44" class="green" >A</text></g>
<g><title>96 (position.label in template: 96.U)</title><text x="143.19" y="158" class="green" >T</text></g>
<g><title>97 (position.label in template: 97.A)</title><text x="143.39" y="165.56" class="green" >A</text></g>
<g><title>98 (position.label in template: 98.A)</title><text x="143.39" y="173.12" class="green" >A</text></g>
<g><title>99 (position.label in template: 99.U)</title><text x="143.19" y="180.68" class="green" >T</text></g>
<g><title>100 (position.label in template: 100.3')</title><text x="150.19" y="180.68" class="green" >3'</text></g>
<g><line x1="126.194" y1="180.373" x2="129.106" y2="180.373" class="gray" /></g>
<g><line x1="131.096" y1="178.33" x2="131.004" y2="174.857" class="gray" /></g>
<g><line x1="130.95" y1="170.769" x2="130.95" y2="167.298" class="gray" /></g>
<g><line x1="131.004" y1="163.21" x2="131.096" y2="159.737" class="gray" /></g>
<g><line x1="131.096" y1="155.65" x2="131.004" y2="152.177" class="gray" /></g>
<g><line x1="130.95" y1="148.089" x2="130.95" y2="144.618" class="gray" /></g>
<g><line x1="130.95" y1="140.529" x2="130.95" y2="137.058" class="gray" /></g>
<g><line x1="130.893" y1="132.97" x2="130.797" y2="129.497" class="gray" /></g>
<g><line x1="128.945" y1="126.476" x2="126.215" y2="124.991" class="gray" /></g>
<g><line x1="122.982" y1="122.56" x2="120.338" y2="119.887" class="gray" /></g>
<g><line x1="118.137" y1="116.537" x2="116.843" y2="113.32" class="gray" /></g>
<g><line x1="114.045" y1="111.234" x2="110.795" y2="110.932" class="gray" /></g>
<g><line x1="106.723" y1="110.567" x2="103.057" y2="110.25" class="gray" /></g>
<g><line x1="98.9841" y1="109.89" x2="95.5259" y2="109.577" class="gray" /></g>
<g><line x1="91.4546" y1="109.204" x2="88.2054" y2="108.902" class="gray" /></g>
<g><line x1="85.0222" y1="110.405" x2="83.1378" y2="113.182" class="gray" /></g>
<g><line x1="80.2468" y1="115.941" x2="77.2832" y2="117.756" class="gray" /></g>
<g><line x1="73.518" y1="119.124" x2="70.092" y2="119.633" class="gray" /></g>
<g><line x1="66.088" y1="119.433" x2="62.522" y2="118.533" class="gray" /></g>
<g><line x1="58.92" y1="116.787" x2="56.17" y2="114.67" class="gray" /></g>
<g><line x1="53.5472" y1="111.642" x2="51.8428" y2="108.615" class="gray" /></g>
<g><line x1="50.6128" y1="104.802" x2="50.2272" y2="101.355" class="gray" /></g>
<g><line x1="50.5342" y1="97.3502" x2="51.4258" y2="94.0565" class="gray" /></g>
<g><line x1="53.2967" y1="90.5368" x2="55.6533" y2="87.81" class="gray" /></g>
<g><line x1="58.8173" y1="85.3471" x2="62.0827" y2="83.7097" class="gray" /></g>
<g><line x1="65.9477" y1="82.6305" x2="69.0023" y2="82.3863" class="gray" /></g>
<g><line x1="72.9814" y1="82.8635" x2="76.4686" y2="84.0133" class="gray" /></g>
<g><line x1="79.9096" y1="86.0425" x2="82.3404" y2="88.2942" class="gray" /></g>
<g><line x1="84.8003" y1="91.4879" x2="86.5197" y2="94.7188" class="gray" /></g>
<g><line x1="89.5154" y1="96.7125" x2="92.7646" y2="97.0143" class="gray" /></g>
<g><line x1="96.8359" y1="97.3872" x2="100.294" y2="97.6995" class="gray" /></g>
<g><line x1="104.367" y1="98.0599" x2="108.023" y2="98.3769" class="gray" /></g>
<g><line x1="112.095" y1="98.7422" x2="115.355" y2="99.0445" class="gray" /></g>
<g><line x1="118.517" y1="97.528" x2="120.493" y2="94.5387" class="gray" /></g>
<g><line x1="123.225" y1="91.5679" x2="125.825" y2="89.5189" class="gray" /></g>
<g><line x1="127.011" y1="86.2527" x2="126.289" y2="82.814" class="gray" /></g>
<g><line x1="125.56" y1="78.7928" x2="125.04" y2="75.394" class="gray" /></g>
<g><line x1="124.365" y1="71.3621" x2="123.745" y2="67.9447" class="gray" /></g>
<g><line x1="122.963" y1="63.9322" x2="122.247" y2="60.4946" class="gray" /></g>
<g><line x1="122.87" y1="56.7338" x2="124.74" y2="53.5729" class="gray" /></g>
<g><line x1="127.577" y1="52.7877" x2="132.283" y2="55.3391" class="gray" /></g>
<g><line x1="134.39" y1="58.334" x2="134.91" y2="61.7328" class="gray" /></g>
<g><line x1="135.585" y1="65.7647" x2="136.205" y2="69.1821" class="gray" /></g>
<g><line x1="136.987" y1="73.1946" x2="137.703" y2="76.6322" class="gray" /></g>
<g><line x1="138.368" y1="76.6043" x2="138.792" y2="73.1325" class="gray" /></g>
<g><line x1="139.725" y1="69.1773" x2="140.865" y2="65.9694" class="gray" /></g>
<g><line x1="142.77" y1="62.4035" x2="144.84" y2="59.6232" class="gray" /></g>
<g><line x1="147.657" y1="56.7071" x2="150.243" y2="54.6397" class="gray" /></g>
<g><line x1="153.75" y1="52.6349" x2="157.35" y2="51.2618" class="gray" /></g>
<g><line x1="161.291" y1="50.3" x2="164.539" y2="49.9267" class="gray" /></g>
<g><line x1="168.588" y1="50.0171" x2="172.222" y2="50.5997" class="gray" /></g>
<g><line x1="176.093" y1="51.7863" x2="179.237" y2="53.2504" class="gray" /></g>
<g><line x1="182.592" y1="55.4999" x2="184.918" y2="57.6469" class="gray" /></g>
<g><line x1="187.556" y1="60.7326" x2="189.484" y2="63.6142" class="gray" /></g>
<g><line x1="191.253" y1="67.2572" x2="192.327" y2="70.5596" class="gray" /></g>
<g><line x1="193.047" y1="74.5457" x2="193.193" y2="78.011" class="gray" /></g>
<g><line x1="192.922" y1="82.0659" x2="192.328" y2="85.4008" class="gray" /></g>
<g><line x1="190.983" y1="89.2035" x2="189.307" y2="92.2433" class="gray" /></g>
<g><line x1="186.887" y1="95.4909" x2="184.453" y2="97.9658" class="gray" /></g>
<g><line x1="181.234" y1="100.417" x2="178.046" y2="102.19" class="gray" /></g>
<g><line x1="174.279" y1="103.686" x2="170.911" y2="104.541" class="gray" /></g>
<g><line x1="166.887" y1="104.989" x2="163.413" y2="104.897" class="gray" /></g>
<g><line x1="159.416" y1="104.243" x2="156.104" y2="103.224" class="gray" /></g>
<g><line x1="152.416" y1="101.541" x2="149.314" y2="99.6056" class="gray" /></g>
<g><line x1="146.289" y1="96.9382" x2="144.271" y2="94.4586" class="gray" /></g>
<g><line x1="141.999" y1="91.08" x2="140.241" y2="87.8667" class="gray" /></g>
<g><line x1="141.226" y1="86.6329" x2="144.954" y2="87.6938" class="gray" /></g>
<g><line x1="148.501" y1="89.5489" x2="150.929" y2="91.5379" class="gray" /></g>
<g><line x1="153.675" y1="94.5129" x2="155.785" y2="97.5538" class="gray" /></g>
<g><line x1="157.309" y1="101.246" x2="157.911" y2="104.621" class="gray" /></g>
<g><line x1="157.899" y1="108.644" x2="157.261" y2="112.093" class="gray" /></g>
<g><line x1="158.564" y1="115.277" x2="161.546" y2="117.37" class="gray" /></g>
<g><line x1="164.895" y1="119.715" x2="167.875" y2="121.801" class="gray" /></g>
<g><line x1="171.164" y1="124.228" x2="173.646" y2="126.159" class="gray" /></g>
<g><line x1="176.915" y1="128.614" x2="179.725" y2="130.653" class="gray" /></g>
<g><line x1="183.322" y1="131.214" x2="186.998" y2="130.003" class="gray" /></g>
<g><line x1="190.966" y1="129.635" x2="193.994" y2="130.042" class="gray" /></g>
<g><line x1="197.756" y1="131.393" x2="201.004" y2="133.414" class="gray" /></g>
<g><line x1="203.763" y1="136.263" x2="205.497" y2="139.264" class="gray" /></g>
<g><line x1="206.593" y1="143.076" x2="206.717" y2="146.541" class="gray" /></g>
<g><line x1="205.953" y1="150.448" x2="204.497" y2="153.689" class="gray" /></g>
<g><line x1="202.141" y1="156.921" x2="199.679" y2="159.136" class="gray" /></g>
<g><line x1="196.181" y1="161.014" x2="192.819" y2="161.882" class="gray" /></g>
<g><line x1="188.842" y1="161.96" x2="185.648" y2="161.267" class="gray" /></g>
<g><line x1="182.023" y1="159.595" x2="179.127" y2="157.391" class="gray" /></g>
<g><line x1="176.58" y1="154.328" x2="174.98" y2="151.149" class="gray" /></g>
<g><line x1="174.155" y1="147.281" x2="174.315" y2="143.805" class="gray" /></g>
<g><line x1="172.755" y1="140.563" x2="169.945" y2="138.524" class="gray" /></g>
<g><line x1="166.634" y1="136.125" x2="163.826" y2="134.092" class="gray" /></g>
<g><line x1="160.496" y1="131.721" x2="157.504" y2="129.626" class="gray" /></g>
<g><line x1="154.196" y1="127.226" x2="151.554" y2="125.241" class="gray" /></g>
<g><line x1="148.1" y1="124.944" x2="145.01" y2="126.523" class="gray" /></g>
<g><line x1="143.244" y1="129.497" x2="143.336" y2="132.97" class="gray" /></g>
<g><line x1="143.39" y1="137.058" x2="143.39" y2="140.529" class="gray" /></g>
<g><line x1="143.39" y1="144.618" x2="143.39" y2="148.089" class="gray" /></g>
<g><line x1="143.336" y1="152.177" x2="143.244" y2="155.65" class="gray" /></g>
<g><line x1="143.244" y1="159.737" x2="143.336" y2="163.21" class="gray" /></g>
<g><line x1="143.39" y1="167.298" x2="143.39" y2="170.769" class="gray" /></g>
<g><line x1="143.336" y1="174.857" x2="143.244" y2="178.33" class="gray" /></g>
<g><line x1="145.234" y1="180.373" x2="148.146" y2="180.373" class="gray" /></g>
</svg>
