<svg
	xmlns="http://www.w3.org/2000/svg"
	width="276.87"
	height="222.16">
<g><style type="text/css" >
<!-- create color definitions -->
<![CDATA[
circle.red {stroke: rgb(255, 0, 255); fill: none; }
circle.green {stroke: rgb(0, 255, 0); fill: none; }
circle.blue {stroke: rgb(0, 0, 255); fill: none; }
circle.black {stroke: rgb(0, 0, 0); fill: none; }
circle.gray {stroke: rgb(204, 204, 204); fill: none; }
circle.brown {stroke: rgb(211.65, 104.55, 30.6); fill: none; }
line.red {stroke: rgb(255, 0, 255); stroke-width: 0.38262; }
line.green {stroke: rgb(0, 255, 0); stroke-width: 0.38262; }
line.blue {stroke: rgb(0, 0, 255); stroke-width: 0.38262; }
line.black {stroke: rgb(0, 0, 0); stroke-width: 0.38262; }
line.gray {stroke: rgb(204, 204, 204); stroke-width: 0.38262; }
line.brown {stroke: rgb(211.65, 104.55, 30.6); stroke-width: 0.38262; }
line {stroke: rgb(0, 0, 0); }
text.red {fill: rgb(255, 0, 255); font-size: 3.060956px; font-weight: bold; font-family: Helvetica; }
text.green {fill: rgb(0, 255, 0); font-size: 3.060956px; font-weight: bold; font-family: Helvetica; }
text.blue {fill: rgb(0, 0, 255); font-size: 3.060956px; font-weight: bold; font-family: Helvetica; }
text.black {fill: rgb(0, 0, 0); font-size: 3.060956px; font-weight: bold; font-family: Helvetica; }
text.gray {fill: rgb(204, 204, 204); font-size: 3.060956px; font-weight: bold; font-family: Helvetica; }
text.brown {fill: rgb(211.65, 104.55, 30.6); font-size: 3.060956px; font-weight: bold; font-family: Helvetica; }
text {fill: rgb(0, 0, 0); font-size: 3.060956px; font-weight: bold; font-family: Helvetica; text-anchor: middle; alignment-baseline: middle; }

.pseudoknot_connection{stroke-linecap: round; stroke-opacity: 0.2; stroke-width: 1.5; }
.pseudoknot_segment1{stroke-linecap: round; stroke-opacity: 0.4; stroke-width: 3.06096; }
.pseudoknot_segment2{stroke-linecap: round; stroke-opacity: 0.4; stroke-width: 3.06096; }
line.numbering-line{stroke: rgb(204, 204, 204); stroke-width: 0.19131; }
line.predicted{stroke: rgb(0, 0, 0); stroke-dasharray: 2; }
polyline{fill: none; stroke-linejoin: round; }
template{visibility: hidden; }
text.numbering-label{fill: rgb(204, 204, 204); }
]]>
</style></g>
<g><title>0 (position.label in template: 0.5')</title><text x="82.7648" y="147.198" class="green" >5'</text></g>
<g><title>1 (position.label in template: 1.A)</title><text x="90.341" y="147.198" class="black" >A</text></g>
<g><title>2 (position.label in template: 2.G)</title><text x="97.9173" y="147.198" class="black" >G</text></g>
<g><title>3 (position.label in template: 3.U)</title><text x="105.493" y="147.198" class="green" >T</text></g>
<g><title>4 (position.label in template: 4.C)</title><text x="113.07" y="147.198" class="black" >C</text></g>
<g><title>5 (position.label in template: 5.A)</title><text x="120.646" y="147.198" class="black" >A</text></g>
<g><title>6 (position.label in template: 6.U)</title><text x="125.9" y="141.74" class="green" >T</text></g>
<g><line x1="127.941" y1="141.434" x2="136.299" y2="141.434" class="black" /></g>
<g><title>7 (position.label in template: 7.A)</title><text x="126.1" y="134.18" class="green" >A</text></g>
<g><line x1="128.141" y1="133.874" x2="136.099" y2="133.874" class="black" /></g>
<g><title>8 (position.label in template: 8.A)</title><text x="126.1" y="126.62" class="green" >A</text></g>
<g><line x1="128.141" y1="126.314" x2="136.099" y2="126.314" class="black" /></g>
<g><title>9 (position.label in template: 9.C)</title><text x="125.9" y="119.06" class="black" >C</text></g>
<g><line x1="127.941" y1="118.754" x2="135.889" y2="118.754" class="black" /></g>
<g><title>10 (position.label in template: 10.U)</title><text x="125.9" y="111.5" class="green" >T</text></g>
<g><line x1="127.941" y1="111.194" x2="136.299" y2="111.194" class="black" /></g>
<g><text x="119.836" y="114.766" class="numbering-label sequential" >10</text></g>
<g><line x1="124.283" y1="112.371" x2="121.673" y2="113.776" class="numbering-line sequential" /></g>
<g><title>11 (position.label in template: 11.A)</title><text x="119.68" y="107.51" class="green" >A</text></g>
<g><line x1="118.749" y1="105.388" x2="114.981" y2="98.0398" class="black" /></g>
<g><title>12 (position.label in template: 12.G)</title><text x="112.49" y="110.86" class="black" >G</text></g>
<g><line x1="111.614" y1="108.711" x2="108.146" y2="101.417" class="black" /></g>
<g><title>13 (position.label in template: 13.G)</title><text x="105.71" y="114.21" class="green" >G</text></g>
<g><line x1="104.835" y1="112.061" x2="101.375" y2="104.777" class="black" /></g>
<g><title>14 (position.label in template: 14.G)</title><text x="98.93" y="117.56" class="black" >G</text></g>
<g><line x1="98.0546" y1="115.411" x2="94.5954" y2="108.127" class="black" /></g>
<g><title>15 (position.label in template: 15.G)</title><text x="94.13" y="123.39" class="black" >G</text></g>
<g><title>16 (position.label in template: 16.A)</title><text x="86.99" y="123.67" class="green" >A</text></g>
<g><line x1="86.0583" y1="121.548" x2="82.2917" y2="114.209" class="black" /></g>
<g><title>17 (position.label in template: 17.G)</title><text x="85.54" y="131.16" class="black" >G</text></g>
<g><line x1="84.1937" y1="132.387" x2="78.9063" y2="138.41" class="black" /></g>
<g><title>18 (position.label in template: 18.C)</title><text x="91.37" y="136.22" class="black" >C</text></g>
<g><line x1="89.9851" y1="137.413" x2="84.3549" y2="143.505" class="black" /></g>
<g><title>19 (position.label in template: 19.C)</title><text x="96.99" y="141.28" class="black" >C</text></g>
<g><line x1="95.6051" y1="142.473" x2="89.9749" y2="148.565" class="black" /></g>
<g><title>20 (position.label in template: 20.C)</title><text x="102.6" y="146.33" class="black" >C</text></g>
<g><line x1="101.216" y1="147.523" x2="95.5841" y2="153.624" class="black" /></g>
<g><text x="107.161" y="141.169" class="numbering-label sequential" >20</text></g>
<g><line x1="103.816" y1="144.954" x2="105.808" y2="142.7" class="numbering-line sequential" /></g>
<g><title>21 (position.label in template: 21.A)</title><text x="108.43" y="151.39" class="green" >A</text></g>
<g><line x1="107.046" y1="152.583" x2="101.414" y2="158.684" class="black" /></g>
<g><title>22 (position.label in template: 22.A)</title><text x="115.92" y="152.4" class="black" >A</text></g>
<g><title>23 (position.label in template: 23.U)</title><text x="120.66" y="158.12" class="green" >T</text></g>
<g><title>24 (position.label in template: 24.G)</title><text x="120.38" y="165.68" class="black" >G</text></g>
<g><title>25 (position.label in template: 25.A)</title><text x="115.74" y="171.3" class="black" >A</text></g>
<g><title>26 (position.label in template: 26.G)</title><text x="107.81" y="172.16" class="black" >G</text></g>
<g><title>27 (position.label in template: 27.C)</title><text x="101.82" y="167.83" class="black" >C</text></g>
<g><title>28 (position.label in template: 28.U)</title><text x="100.03" y="160.49" class="green" >T</text></g>
<g><title>29 (position.label in template: 29.G)</title><text x="94.2" y="155.43" class="black" >G</text></g>
<g><title>30 (position.label in template: 30.G)</title><text x="88.59" y="150.37" class="black" >G</text></g>
<g><text x="83.9795" y="155.486" class="numbering-label sequential" >30</text></g>
<g><line x1="87.3605" y1="151.734" x2="85.3587" y2="153.956" class="numbering-line sequential" /></g>
<g><title>31 (position.label in template: 31.G)</title><text x="82.97" y="145.31" class="black" >G</text></g>
<g><title>32 (position.label in template: 32.C)</title><text x="77.56" y="140.25" class="black" >C</text></g>
<g><title>33 (position.label in template: 33.U)</title><text x="70.22" y="142.06" class="green" >T</text></g>
<g><title>34 (position.label in template: 34.G)</title><text x="62.61" y="140.49" class="black" >G</text></g>
<g><title>35 (position.label in template: 35.A)</title><text x="57.06" y="135.85" class="black" >A</text></g>
<g><title>36 (position.label in template: 36.G)</title><text x="53.29" y="129.08" class="black" >G</text></g>
<g><title>37 (position.label in template: 37.A)</title><text x="53.65" y="121.52" class="black" >A</text></g>
<g><title>38 (position.label in template: 38.A)</title><text x="56.89" y="114.69" class="black" >A</text></g>
<g><title>39 (position.label in template: 39.G)</title><text x="62.37" y="109.95" class="black" >G</text></g>
<g><line x1="64.4043" y1="109.483" x2="72.7457" y2="108.825" class="black" /></g>
<g><title>40 (position.label in template: 40.G)</title><text x="61.76" y="102.42" class="black" >G</text></g>
<g><line x1="63.7942" y1="101.952" x2="72.1358" y2="101.286" class="black" /></g>
<g><title>41 (position.label in template: 41.A)</title><text x="61.57" y="94.88" class="green" >A</text></g>
<g><line x1="63.6039" y1="94.4077" x2="71.5261" y2="93.7601" class="black" /></g>
<g><title>42 (position.label in template: 42.A)</title><text x="60.96" y="87.35" class="green" >A</text></g>
<g><line x1="62.9937" y1="86.8761" x2="70.9263" y2="86.2217" class="black" /></g>
<g><title>43 (position.label in template: 43.A)</title><text x="60.35" y="79.81" class="green" >A</text></g>
<g><line x1="62.3839" y1="79.3378" x2="70.3161" y2="78.69" class="black" /></g>
<g><title>44 (position.label in template: 44.C)</title><text x="53.81" y="75.69" class="black" >C</text></g>
<g><title>45 (position.label in template: 45.G)</title><text x="50" y="69.04" class="black" >G</text></g>
<g><title>46 (position.label in template: 46.C)</title><text x="50.21" y="61.48" class="black" >C</text></g>
<g><title>47 (position.label in template: 47.U)</title><text x="53.81" y="54.83" class="green" >T</text></g>
<g><title>48 (position.label in template: 48.U)</title><text x="60.15" y="50.71" class="green" >T</text></g>
<g><title>49 (position.label in template: 49.U)</title><text x="67.68" y="50.1" class="green" >T</text></g>
<g><title>50 (position.label in template: 50.G)</title><text x="74.39" y="53.16" class="black" >G</text></g>
<g><text x="78.5896" y="47.7014" class="numbering-label sequential" >50</text></g>
<g><line x1="75.5099" y1="51.7044" x2="77.4121" y2="49.2319" class="numbering-line sequential" /></g>
<g><title>51 (position.label in template: 51.A)</title><text x="79.43" y="59.14" class="black" >A</text></g>
<g><title>52 (position.label in template: 52.A)</title><text x="80.64" y="66.6" class="black" >A</text></g>
<g><title>53 (position.label in template: 53.G)</title><text x="77.73" y="73.74" class="black" >G</text></g>
<g><title>54 (position.label in template: 54.U)</title><text x="72.35" y="78.83" class="green" >T</text></g>
<g><title>55 (position.label in template: 55.U)</title><text x="72.96" y="86.36" class="green" >T</text></g>
<g><title>56 (position.label in template: 56.U)</title><text x="73.56" y="93.9" class="green" >T</text></g>
<g><title>57 (position.label in template: 57.C)</title><text x="74.17" y="101.43" class="black" >C</text></g>
<g><title>58 (position.label in template: 58.C)</title><text x="74.78" y="108.97" class="black" >C</text></g>
<g><title>59 (position.label in template: 59.U)</title><text x="81.36" y="112.7" class="green" >T</text></g>
<g><title>60 (position.label in template: 60.G)</title><text x="80.89" y="105.14" class="black" >G</text></g>
<g><title>61 (position.label in template: 61.A)</title><text x="88.08" y="101.79" class="black" >A</text></g>
<g><title>62 (position.label in template: 62.C)</title><text x="93.72" y="106.59" class="black" >C</text></g>
<g><title>63 (position.label in template: 63.U)</title><text x="100.5" y="103.24" class="green" >T</text></g>
<g><title>64 (position.label in template: 64.C)</title><text x="107.27" y="99.88" class="black" >C</text></g>
<g><title>65 (position.label in template: 65.U)</title><text x="114.05" y="96.53" class="green" >T</text></g>
<g><title>66 (position.label in template: 66.U)</title><text x="114.78" y="89.01" class="green" >T</text></g>
<g><title>67 (position.label in template: 67.C)</title><text x="118.52" y="82.44" class="black" >C</text></g>
<g><title>68 (position.label in template: 68.G)</title><text x="124.41" y="77.98" class="black" >G</text></g>
<g><title>69 (position.label in template: 69.G)</title><text x="131.81" y="76.4" class="black" >G</text></g>
<g><title>70 (position.label in template: 70.A)</title><text x="139.62" y="77.98" class="black" >A</text></g>
<g><title>71 (position.label in template: 71.C)</title><text x="145.51" y="82.44" class="black" >C</text></g>
<g><line x1="146.243" y1="84.0383" x2="149.147" y2="91.5795" class="black" /></g>
<g><title>72 (position.label in template: 72.C)</title><text x="152.52" y="79.61" class="black" >C</text></g>
<g><line x1="153.253" y1="81.2085" x2="156.157" y2="88.7593" class="black" /></g>
<g><title>73 (position.label in template: 73.U)</title><text x="159.53" y="76.79" class="green" >T</text></g>
<g><line x1="160.323" y1="78.364" x2="163.527" y2="85.9538" class="black" /></g>
<g><title>74 (position.label in template: 74.G)</title><text x="166.34" y="73.96" class="green" >G</text></g>
<g><line x1="167.132" y1="75.5346" x2="170.328" y2="83.1232" class="black" /></g>
<g><title>75 (position.label in template: 75.A)</title><text x="170.48" y="67.38" class="black" >A</text></g>
<g><title>76 (position.label in template: 76.U)</title><text x="177.29" y="64.56" class="green" >T</text></g>
<g><title>77 (position.label in template: 77.C)</title><text x="184.53" y="66.71" class="black" >C</text></g>
<g><line x1="185.263" y1="68.3083" x2="188.167" y2="75.8495" class="black" /></g>
<g><title>78 (position.label in template: 78.U)</title><text x="191.54" y="63.88" class="green" >T</text></g>
<g><line x1="192.333" y1="65.4542" x2="195.537" y2="73.0536" class="black" /></g>
<g><title>79 (position.label in template: 79.G)</title><text x="198.35" y="61.06" class="black" >G</text></g>
<g><line x1="199.142" y1="62.6346" x2="202.338" y2="70.2232" class="black" /></g>
<g><title>80 (position.label in template: 80.G)</title><text x="205.36" y="58.23" class="black" >G</text></g>
<g><line x1="206.153" y1="59.804" x2="209.357" y2="67.3938" class="black" /></g>
<g><title>81 (position.label in template: 81.A)</title><text x="209.97" y="51.94" class="black" >A</text></g>
<g><title>82 (position.label in template: 82.U)</title><text x="217.07" y="50" class="green" >T</text></g>
<g><title>83 (position.label in template: 83.C)</title><text x="223.83" y="53.39" class="black" >C</text></g>
<g><title>84 (position.label in template: 84.A)</title><text x="226.87" y="60.4" class="black" >A</text></g>
<g><title>85 (position.label in template: 85.U)</title><text x="224.14" y="67.53" class="green" >T</text></g>
<g><title>86 (position.label in template: 86.G)</title><text x="217.32" y="71.2" class="black" >G</text></g>
<g><title>87 (position.label in template: 87.C)</title><text x="210.15" y="69.58" class="black" >C</text></g>
<g><title>88 (position.label in template: 88.C)</title><text x="203.13" y="72.41" class="black" >C</text></g>
<g><title>89 (position.label in template: 89.A)</title><text x="196.33" y="75.24" class="green" >A</text></g>
<g><title>90 (position.label in template: 90.G)</title><text x="188.9" y="78.06" class="black" >G</text></g>
<g><title>91 (position.label in template: 91.C)</title><text x="185.38" y="84.64" class="black" >C</text></g>
<g><title>92 (position.label in template: 92.G)</title><text x="178.16" y="87.47" class="black" >G</text></g>
<g><title>93 (position.label in template: 93.U)</title><text x="171.12" y="85.31" class="green" >T</text></g>
<g><title>94 (position.label in template: 94.A)</title><text x="164.32" y="88.14" class="green" >A</text></g>
<g><title>95 (position.label in template: 95.G)</title><text x="156.89" y="90.97" class="black" >G</text></g>
<g><title>96 (position.label in template: 96.G)</title><text x="149.88" y="93.79" class="black" >G</text></g>
<g><title>97 (position.label in template: 97.G)</title><text x="148.58" y="101.24" class="black" >G</text></g>
<g><title>98 (position.label in template: 98.A)</title><text x="144.77" y="107.51" class="black" >A</text></g>
<g><title>99 (position.label in template: 99.A)</title><text x="138.34" y="111.5" class="green" >A</text></g>
<g><title>100 (position.label in template: 100.G)</title><text x="137.93" y="119.06" class="black" >G</text></g>
<g><text x="144.817" y="119.151" class="numbering-label sequential" >100</text></g>
<g><line x1="139.766" y1="119.084" x2="142.062" y2="119.115" class="numbering-line sequential" /></g>
<g><title>101 (position.label in template: 101.U)</title><text x="138.14" y="126.62" class="green" >T</text></g>
<g><title>102 (position.label in template: 102.U)</title><text x="138.14" y="134.18" class="green" >T</text></g>
<g><title>103 (position.label in template: 103.A)</title><text x="138.34" y="141.74" class="green" >A</text></g>
<g><title>104 (position.label in template: 104.G)</title><text x="143.479" y="147.307" class="black" >G</text></g>
<g><title>105 (position.label in template: 105.A)</title><text x="151.055" y="147.307" class="black" >A</text></g>
<g><title>106 (position.label in template: 106.A)</title><text x="158.632" y="147.307" class="black" >A</text></g>
<g><title>107 (position.label in template: 107.U)</title><text x="166.208" y="147.307" class="green" >T</text></g>
<g><title>108 (position.label in template: 108.A)</title><text x="173.784" y="147.307" class="black" >A</text></g>
<g><title>109 (position.label in template: 109.A)</title><text x="181.36" y="147.307" class="black" >A</text></g>
<g><title>110 (position.label in template: 110.U)</title><text x="188.937" y="147.307" class="green" >T</text></g>
<g><title>111 (position.label in template: 111.C)</title><text x="196.513" y="147.307" class="black" >C</text></g>
<g><title>112 (position.label in template: 112.A)</title><text x="204.089" y="147.307" class="black" >A</text></g>
<g><title>113 (position.label in template: 113.C)</title><text x="211.665" y="147.307" class="black" >C</text></g>
<g><title>114 (position.label in template: 114.C)</title><text x="219.242" y="147.307" class="black" >C</text></g>
<g><title>115 (position.label in template: 115.A)</title><text x="226.818" y="147.307" class="black" >A</text></g>
<g><title>116 (position.label in template: 116.3')</title><text x="234.394" y="147.307" class="green" >3'</text></g>
<g><line x1="84.8054" y1="146.892" x2="88.3004" y2="146.892" class="gray" /></g>
<g><line x1="92.3817" y1="146.892" x2="95.8766" y2="146.892" class="gray" /></g>
<g><line x1="99.9579" y1="146.892" x2="103.453" y2="146.892" class="gray" /></g>
<g><line x1="107.534" y1="146.892" x2="111.029" y2="146.892" class="gray" /></g>
<g><line x1="115.11" y1="146.892" x2="118.605" y2="146.892" class="gray" /></g>
<g><line x1="122.061" y1="145.422" x2="124.485" y2="142.904" class="gray" /></g>
<g><line x1="125.954" y1="139.394" x2="126.046" y2="135.914" class="gray" /></g>
<g><line x1="126.1" y1="131.833" x2="126.1" y2="128.355" class="gray" /></g>
<g><line x1="126.046" y1="124.274" x2="125.954" y2="120.794" class="gray" /></g>
<g><line x1="125.9" y1="116.713" x2="125.9" y2="113.235" class="gray" /></g>
<g><line x1="124.182" y1="110.092" x2="121.398" y2="108.306" class="gray" /></g>
<g><line x1="117.83" y1="108.066" x2="114.34" y2="109.692" class="gray" /></g>
<g><line x1="110.661" y1="111.458" x2="107.539" y2="113" class="gray" /></g>
<g><line x1="103.881" y1="114.808" x2="100.759" y2="116.35" class="gray" /></g>
<g><line x1="97.6329" y1="118.829" x2="95.4271" y2="121.509" class="gray" /></g>
<g><line x1="92.0909" y1="123.164" x2="89.0291" y2="123.284" class="gray" /></g>
<g><line x1="86.6022" y1="125.367" x2="85.9278" y2="128.85" class="gray" /></g>
<g><line x1="87.0811" y1="132.191" x2="89.8289" y2="134.576" class="gray" /></g>
<g><line x1="92.8865" y1="137.279" x2="95.4735" y2="139.608" class="gray" /></g>
<g><line x1="98.5067" y1="142.339" x2="101.083" y2="144.659" class="gray" /></g>
<g><line x1="104.141" y1="147.361" x2="106.889" y2="149.746" class="gray" /></g>
<g><line x1="110.452" y1="151.357" x2="113.898" y2="151.821" class="gray" /></g>
<g><line x1="117.222" y1="153.665" x2="119.358" y2="156.243" class="gray" /></g>
<g><line x1="120.584" y1="159.853" x2="120.456" y2="163.335" class="gray" /></g>
<g><line x1="119.081" y1="166.948" x2="117.039" y2="169.42" class="gray" /></g>
<g><line x1="113.711" y1="171.214" x2="109.839" y2="171.634" class="gray" /></g>
<g><line x1="106.156" y1="170.658" x2="103.474" y2="168.719" class="gray" /></g>
<g><line x1="101.337" y1="165.541" x2="100.513" y2="162.166" class="gray" /></g>
<g><line x1="98.4889" y1="158.846" x2="95.7411" y2="156.461" class="gray" /></g>
<g><line x1="92.6847" y1="153.757" x2="90.1053" y2="151.431" class="gray" /></g>
<g><line x1="87.0735" y1="148.698" x2="84.4865" y2="146.369" class="gray" /></g>
<g><line x1="81.4796" y1="143.61" x2="79.0504" y2="141.338" class="gray" /></g>
<g><line x1="75.5787" y1="140.432" x2="72.2013" y2="141.265" class="gray" /></g>
<g><line x1="68.2215" y1="141.342" x2="64.6085" y2="140.596" class="gray" /></g>
<g><line x1="61.0444" y1="138.875" x2="58.6256" y2="136.853" class="gray" /></g>
<g><line x1="56.0672" y1="133.761" x2="54.2828" y2="130.557" class="gray" /></g>
<g><line x1="53.3871" y1="126.736" x2="53.5529" y2="123.252" class="gray" /></g>
<g><line x1="54.5246" y1="119.37" x2="56.0154" y2="116.228" class="gray" /></g>
<g><line x1="58.4334" y1="113.049" x2="60.8266" y2="110.979" class="gray" /></g>
<g><line x1="62.2052" y1="107.61" x2="61.9248" y2="104.148" class="gray" /></g>
<g><line x1="61.7086" y1="100.074" x2="61.6214" y2="96.6139" class="gray" /></g>
<g><line x1="61.4052" y1="92.5399" x2="61.1248" y2="89.0779" class="gray" /></g>
<g><line x1="60.7954" y1="85.0099" x2="60.5146" y2="81.5379" class="gray" /></g>
<g><line x1="58.6234" y1="78.4162" x2="55.5366" y2="76.4716" class="gray" /></g>
<g><line x1="52.7956" y1="73.6133" x2="51.0144" y2="70.5045" class="gray" /></g>
<g><line x1="50.0567" y1="66.6941" x2="50.1533" y2="63.2138" class="gray" /></g>
<g><line x1="51.1815" y1="59.3794" x2="52.8385" y2="56.3185" class="gray" /></g>
<g><line x1="55.5211" y1="53.412" x2="58.4389" y2="51.5158" class="gray" /></g>
<g><line x1="62.184" y1="50.2391" x2="65.646" y2="49.9587" class="gray" /></g>
<g><line x1="69.5367" y1="50.6406" x2="72.5333" y2="52.0072" class="gray" /></g>
<g><line x1="75.7051" y1="54.4143" x2="78.1149" y2="57.2735" class="gray" /></g>
<g><line x1="79.7567" y1="60.8482" x2="80.3133" y2="64.2796" class="gray" /></g>
<g><line x1="79.8698" y1="68.1836" x2="78.5002" y2="71.5442" class="gray" /></g>
<g><line x1="76.2477" y1="74.8363" x2="73.8323" y2="77.1215" class="gray" /></g>
<g><line x1="72.5148" y1="80.5579" x2="72.7952" y2="84.0199" class="gray" /></g>
<g><line x1="73.1219" y1="88.0881" x2="73.3981" y2="91.5597" class="gray" /></g>
<g><line x1="73.7248" y1="95.6279" x2="74.0052" y2="99.0899" class="gray" /></g>
<g><line x1="74.3346" y1="103.158" x2="74.6154" y2="106.63" class="gray" /></g>
<g><line x1="76.5552" y1="109.67" x2="79.5848" y2="111.388" class="gray" /></g>
<g><line x1="81.2334" y1="110.357" x2="81.0166" y2="106.871" class="gray" /></g>
<g><line x1="82.7397" y1="103.972" x2="86.2303" y2="102.346" class="gray" /></g>
<g><line x1="89.634" y1="102.806" x2="92.166" y2="104.961" class="gray" /></g>
<g><line x1="95.5495" y1="105.38" x2="98.6705" y2="103.838" class="gray" /></g>
<g><line x1="102.328" y1="102.027" x2="105.442" y2="100.481" class="gray" /></g>
<g><line x1="109.099" y1="98.6699" x2="112.221" y2="97.1279" class="gray" /></g>
<g><line x1="114.247" y1="94.1928" x2="114.583" y2="90.735" class="gray" /></g>
<g><line x1="115.79" y1="86.9305" x2="117.51" y2="83.9073" class="gray" /></g>
<g><line x1="120.147" y1="80.902" x2="122.783" y2="78.9058" class="gray" /></g>
<g><line x1="126.406" y1="77.2478" x2="129.814" y2="76.52" class="gray" /></g>
<g><line x1="133.81" y1="76.4985" x2="137.62" y2="77.2693" class="gray" /></g>
<g><line x1="141.247" y1="78.9058" x2="143.883" y2="80.902" class="gray" /></g>
<g><line x1="147.402" y1="81.37" x2="150.628" y2="80.0678" class="gray" /></g>
<g><line x1="154.413" y1="78.5423" x2="157.637" y2="77.2455" class="gray" /></g>
<g><line x1="161.414" y1="75.7008" x2="164.456" y2="74.437" class="gray" /></g>
<g><line x1="167.427" y1="71.9267" x2="169.393" y2="68.8011" class="gray" /></g>
<g><line x1="172.365" y1="66.2932" x2="175.405" y2="65.0346" class="gray" /></g>
<g><line x1="179.246" y1="64.8348" x2="182.574" y2="65.823" class="gray" /></g>
<g><line x1="186.422" y1="65.64" x2="189.648" y2="64.3378" class="gray" /></g>
<g><line x1="193.425" y1="62.7932" x2="196.465" y2="61.5346" class="gray" /></g>
<g><line x1="200.242" y1="59.99" x2="203.468" y2="58.6878" class="gray" /></g>
<g><line x1="206.566" y1="56.278" x2="208.764" y2="53.2798" class="gray" /></g>
<g><line x1="211.938" y1="51.096" x2="215.102" y2="50.2318" class="gray" /></g>
<g><line x1="218.894" y1="50.6087" x2="222.006" y2="52.1691" class="gray" /></g>
<g><line x1="224.642" y1="54.9561" x2="226.058" y2="58.2217" class="gray" /></g>
<g><line x1="226.14" y1="61.9996" x2="224.87" y2="65.3182" class="gray" /></g>
<g><line x1="222.343" y1="68.1909" x2="219.117" y2="69.9269" class="gray" /></g>
<g><line x1="215.33" y1="70.4442" x2="212.14" y2="69.7236" class="gray" /></g>
<g><line x1="208.257" y1="70.0369" x2="205.023" y2="71.3409" class="gray" /></g>
<g><line x1="201.246" y1="72.888" x2="198.214" y2="74.1498" class="gray" /></g>
<g><line x1="194.422" y1="75.658" x2="190.808" y2="77.0298" class="gray" /></g>
<g><line x1="187.937" y1="79.5533" x2="186.343" y2="82.5346" class="gray" /></g>
<g><line x1="183.48" y1="85.0786" x2="180.06" y2="86.4192" class="gray" /></g>
<g><line x1="176.209" y1="86.5653" x2="173.071" y2="85.6025" class="gray" /></g>
<g><line x1="169.236" y1="85.788" x2="166.204" y2="87.0498" class="gray" /></g>
<g><line x1="162.413" y1="88.5603" x2="158.797" y2="89.9376" class="gray" /></g>
<g><line x1="154.997" y1="91.4255" x2="151.773" y2="92.7223" class="gray" /></g>
<g><line x1="149.529" y1="95.4942" x2="148.931" y2="98.9236" class="gray" /></g>
<g><line x1="147.52" y1="102.678" x2="145.83" y2="105.46" class="gray" /></g>
<g><line x1="143.036" y1="108.28" x2="140.074" y2="110.118" class="gray" /></g>
<g><line x1="138.229" y1="113.232" x2="138.041" y2="116.716" class="gray" /></g>
<g><line x1="137.987" y1="120.794" x2="138.083" y2="124.274" class="gray" /></g>
<g><line x1="138.14" y1="128.355" x2="138.14" y2="131.833" class="gray" /></g>
<g><line x1="138.194" y1="135.914" x2="138.286" y2="139.394" class="gray" /></g>
<g><line x1="139.724" y1="142.933" x2="142.095" y2="145.501" class="gray" /></g>
<g><line x1="145.52" y1="147.001" x2="149.015" y2="147.001" class="gray" /></g>
<g><line x1="153.096" y1="147.001" x2="156.591" y2="147.001" class="gray" /></g>
<g><line x1="160.672" y1="147.001" x2="164.167" y2="147.001" class="gray" /></g>
<g><line x1="168.249" y1="147.001" x2="171.744" y2="147.001" class="gray" /></g>
<g><line x1="175.825" y1="147.001" x2="179.32" y2="147.001" class="gray" /></g>
<g><line x1="183.401" y1="147.001" x2="186.896" y2="147.001" class="gray" /></g>
<g><line x1="190.977" y1="147.001" x2="194.472" y2="147.001" class="gray" /></g>
<g><line x1="198.554" y1="147.001" x2="202.049" y2="147.001" class="gray" /></g>
<g><line x1="206.13" y1="147.001" x2="209.625" y2="147.001" class="gray" /></g>
<g><line x1="213.706" y1="147.001" x2="217.201" y2="147.001" class="gray" /></g>
<g><line x1="221.282" y1="147.001" x2="224.777" y2="147.001" class="gray" /></g>
<g><line x1="228.859" y1="147.001" x2="232.354" y2="147.001" class="gray" /></g>
</svg>
