<svg
	xmlns="http://www.w3.org/2000/svg"
	width="228.44"
	height="241.95">
<g><style type="text/css" >
<!-- create color definitions -->
<![CDATA[
circle.red {stroke: rgb(255, 0, 255); fill: none; }
circle.green {stroke: rgb(0, 255, 0); fill: none; }
circle.blue {stroke: rgb(0, 0, 255); fill: none; }
circle.black {stroke: rgb(0, 0, 0); fill: none; }
circle.gray {stroke: rgb(204, 204, 204); fill: none; }
circle.brown {stroke: rgb(211.65, 104.55, 30.6); fill: none; }
line.red {stroke: rgb(255, 0, 255); stroke-width: 0.383123; }
line.green {stroke: rgb(0, 255, 0); stroke-width: 0.383123; }
line.blue {stroke: rgb(0, 0, 255); stroke-width: 0.383123; }
line.black {stroke: rgb(0, 0, 0); stroke-width: 0.383123; }
line.gray {stroke: rgb(204, 204, 204); stroke-width: 0.383123; }
line.brown {stroke: rgb(211.65, 104.55, 30.6); stroke-width: 0.383123; }
line {stroke: rgb(0, 0, 0); }
text.red {fill: rgb(255, 0, 255); font-size: 3.064983px; font-weight: bold; font-family: Helvetica; }
text.green {fill: rgb(0, 255, 0); font-size: 3.064983px; font-weight: bold; font-family: Helvetica; }
text.blue {fill: rgb(0, 0, 255); font-size: 3.064983px; font-weight: bold; font-family: Helvetica; }
text.black {fill: rgb(0, 0, 0); font-size: 3.064983px; font-weight: bold; font-family: Helvetica; }
text.gray {fill: rgb(204, 204, 204); font-size: 3.064983px; font-weight: bold; font-family: Helvetica; }
text.brown {fill: rgb(211.65, 104.55, 30.6); font-size: 3.064983px; font-weight: bold; font-family: Helvetica; }
text {fill: rgb(0, 0, 0); font-size: 3.064983px; font-weight: bold; font-family: Helvetica; text-anchor: middle; alignment-baseline: middle; }

.pseudoknot_connection{stroke-linecap: round; stroke-opacity: 0.2; stroke-width: 1.5; }
.pseudoknot_segment1{stroke-linecap: round; stroke-opacity: 0.4; stroke-width: 3.06498; }
.pseudoknot_segment2{stroke-linecap: round; stroke-opacity: 0.4; stroke-width: 3.06498; }
line.numbering-line{stroke: rgb(204, 204, 204); stroke-width: 0.191561; }
line.predicted{stroke: rgb(0, 0, 0); stroke-dasharray: 2; }
polyline{fill: none; stroke-linejoin: round; }
template{visibility: hidden; }
text.numbering-label{fill: rgb(204, 204, 204); }
]]>
</style></g>
<g><title>0 (position.label in template: 0.5')</title><text x="112.05" y="194.163" class="green" >5'</text></g>
<g><title>1 (position.label in template: 1.G)</title><text x="112.05" y="186.59" class="black" >G</text></g>
<g><line x1="114.093" y1="186.284" x2="122.457" y2="186.284" class="black" /></g>
<g><title>2 (position.label in template: 2.G)</title><text x="112.05" y="179.03" class="black" >G</text></g>
<g><line x1="114.093" y1="178.724" x2="122.457" y2="178.724" class="black" /></g>
<g><title>3 (position.label in template: 3.A)</title><text x="112.47" y="171.47" class="green" >A</text></g>
<g><line x1="114.513" y1="171.164" x2="122.457" y2="171.164" class="black" /></g>
<g><title>4 (position.label in template: 4.A)</title><text x="112.47" y="163.91" class="black" >A</text></g>
<g><line x1="114.513" y1="163.604" x2="122.457" y2="163.604" class="black" /></g>
<g><title>5 (position.label in template: 5.G)</title><text x="112.05" y="156.35" class="black" >G</text></g>
<g><line x1="114.093" y1="156.044" x2="122.457" y2="156.044" class="black" /></g>
<g><title>6 (position.label in template: 6.U)</title><text x="112.26" y="148.79" class="green" >T</text></g>
<g><line x1="114.303" y1="148.484" x2="122.667" y2="148.484" class="black" /></g>
<g><title>7 (position.label in template: 7.A)</title><text x="112.47" y="141.23" class="green" >A</text></g>
<g><line x1="114.513" y1="140.924" x2="122.457" y2="140.924" class="black" /></g>
<g><title>8 (position.label in template: 8.U)</title><text x="105.44" y="137.97" class="green" >T</text></g>
<g><title>9 (position.label in template: 9.A)</title><text x="100.3" y="132.62" class="black" >A</text></g>
<g><title>10 (position.label in template: 10.A)</title><text x="97.04" y="125.8" class="black" >A</text></g>
<g><line x1="97.0049" y1="123.45" x2="96.8651" y2="115.297" class="black" /></g>
<g><text x="93.4133" y="131.666" class="numbering-label sequential" >10</text></g>
<g><line x1="96.0729" y1="127.364" x2="94.3608" y2="130.133" class="numbering-line sequential" /></g>
<g><title>11 (position.label in template: 11.C)</title><text x="89.27" y="125.8" class="black" >C</text></g>
<g><line x1="89.2349" y1="123.45" x2="89.0951" y2="115.297" class="black" /></g>
<g><title>12 (position.label in template: 12.U)</title><text x="81.71" y="125.8" class="green" >T</text></g>
<g><line x1="81.7451" y1="123.45" x2="81.8849" y2="115.297" class="black" /></g>
<g><title>13 (position.label in template: 13.C)</title><text x="74.15" y="125.8" class="black" >C</text></g>
<g><line x1="74.1149" y1="123.45" x2="73.9751" y2="115.297" class="black" /></g>
<g><title>14 (position.label in template: 14.A)</title><text x="69.02" y="131.16" class="black" >A</text></g>
<g><title>15 (position.label in template: 15.A)</title><text x="61.6" y="132.64" class="black" >A</text></g>
<g><title>16 (position.label in template: 16.G)</title><text x="54.2" y="129.75" class="black" >G</text></g>
<g><title>17 (position.label in template: 17.U)</title><text x="50.21" y="123.46" class="green" >T</text></g>
<g><title>18 (position.label in template: 18.G)</title><text x="50" y="115.9" class="black" >G</text></g>
<g><title>19 (position.label in template: 19.G)</title><text x="54.2" y="109.62" class="black" >G</text></g>
<g><title>20 (position.label in template: 20.U)</title><text x="61.4" y="106.73" class="green" >T</text></g>
<g><text x="60.7468" y="99.8648" class="numbering-label sequential" >20</text></g>
<g><line x1="61.2258" y1="104.899" x2="60.8926" y2="101.397" class="numbering-line sequential" /></g>
<g><title>21 (position.label in template: 21.A)</title><text x="69.02" y="108.21" class="black" >A</text></g>
<g><title>22 (position.label in template: 22.G)</title><text x="73.94" y="113.56" class="black" >G</text></g>
<g><title>23 (position.label in template: 23.A)</title><text x="81.92" y="113.56" class="green" >A</text></g>
<g><title>24 (position.label in template: 24.G)</title><text x="89.06" y="113.56" class="black" >G</text></g>
<g><title>25 (position.label in template: 25.C)</title><text x="96.83" y="113.56" class="black" >C</text></g>
<g><title>26 (position.label in template: 26.G)</title><text x="99.88" y="106.75" class="black" >G</text></g>
<g><title>27 (position.label in template: 27.C)</title><text x="105.44" y="101.4" class="black" >C</text></g>
<g><line x1="107.371" y1="100.425" x2="115.259" y2="97.6923" class="black" /></g>
<g><title>28 (position.label in template: 28.A)</title><text x="103.13" y="94.27" class="green" >A</text></g>
<g><line x1="105.053" y1="93.2733" x2="112.547" y2="90.5838" class="black" /></g>
<g><title>29 (position.label in template: 29.U)</title><text x="100.41" y="87.14" class="green" >T</text></g>
<g><line x1="102.341" y1="86.1647" x2="110.229" y2="83.4323" class="black" /></g>
<g><title>30 (position.label in template: 30.G)</title><text x="97.69" y="80.01" class="black" >G</text></g>
<g><line x1="99.6208" y1="79.0347" x2="107.509" y2="76.3023" class="black" /></g>
<g><text x="91.1865" y="82.304" class="numbering-label sequential" >30</text></g>
<g><line x1="95.9557" y1="80.6217" x2="93.0255" y2="81.6553" class="numbering-line sequential" /></g>
<g><title>31 (position.label in template: 31.C)</title><text x="95.38" y="72.88" class="black" >C</text></g>
<g><line x1="97.3108" y1="71.9047" x2="105.199" y2="69.1723" class="black" /></g>
<g><title>32 (position.label in template: 32.U)</title><text x="88.85" y="69.07" class="green" >T</text></g>
<g><title>33 (position.label in template: 33.U)</title><text x="85.96" y="62.08" class="green" >T</text></g>
<g><title>34 (position.label in template: 34.A)</title><text x="88.09" y="54.77" class="black" >A</text></g>
<g><title>35 (position.label in template: 35.G)</title><text x="93.63" y="50.11" class="black" >G</text></g>
<g><title>36 (position.label in template: 36.C)</title><text x="101.4" y="50" class="black" >C</text></g>
<g><title>37 (position.label in template: 37.A)</title><text x="107.69" y="54.49" class="black" >A</text></g>
<g><title>38 (position.label in template: 38.U)</title><text x="109.61" y="61.75" class="green" >T</text></g>
<g><title>39 (position.label in template: 39.A)</title><text x="107.13" y="68.81" class="black" >A</text></g>
<g><title>40 (position.label in template: 40.C)</title><text x="109.44" y="75.94" class="black" >C</text></g>
<g><title>41 (position.label in template: 41.A)</title><text x="112.16" y="83.07" class="green" >A</text></g>
<g><title>42 (position.label in template: 42.U)</title><text x="114.47" y="90.2" class="green" >T</text></g>
<g><title>43 (position.label in template: 43.A)</title><text x="117.19" y="97.33" class="black" >A</text></g>
<g><title>44 (position.label in template: 44.A)</title><text x="124.71" y="98.14" class="black" >A</text></g>
<g><title>45 (position.label in template: 45.A)</title><text x="131.53" y="101.4" class="black" >A</text></g>
<g><title>46 (position.label in template: 46.G)</title><text x="136.45" y="106.75" class="black" >G</text></g>
<g><title>47 (position.label in template: 47.U)</title><text x="139.93" y="113.56" class="green" >T</text></g>
<g><title>48 (position.label in template: 48.U)</title><text x="140.74" y="121.08" class="green" >T</text></g>
<g><title>49 (position.label in template: 49.C)</title><text x="139" y="128.44" class="black" >C</text></g>
<g><line x1="137.697" y1="129.707" x2="132.413" y2="136.09" class="black" /></g>
<g><title>50 (position.label in template: 50.C)</title><text x="144.89" y="133.18" class="black" >C</text></g>
<g><line x1="143.628" y1="134.481" x2="138.672" y2="140.796" class="black" /></g>
<g><text x="149.266" y="127.85" class="numbering-label sequential" >50</text></g>
<g><line x1="146.057" y1="131.759" x2="148.008" y2="129.382" class="numbering-line sequential" /></g>
<g><title>51 (position.label in template: 51.G)</title><text x="150.56" y="137.93" class="black" >G</text></g>
<g><line x1="149.299" y1="139.232" x2="144.351" y2="145.545" class="black" /></g>
<g><title>52 (position.label in template: 52.G)</title><text x="156.45" y="142.67" class="black" >G</text></g>
<g><line x1="155.189" y1="143.972" x2="150.241" y2="150.285" class="black" /></g>
<g><title>53 (position.label in template: 53.G)</title><text x="162.34" y="147.41" class="black" >G</text></g>
<g><line x1="161.079" y1="148.712" x2="156.131" y2="155.025" class="black" /></g>
<g><title>54 (position.label in template: 54.U)</title><text x="170.1" y="147.22" class="green" >T</text></g>
<g><title>55 (position.label in template: 55.U)</title><text x="176.24" y="151.65" class="green" >T</text></g>
<g><title>56 (position.label in template: 56.C)</title><text x="178.44" y="158.88" class="black" >C</text></g>
<g><title>57 (position.label in template: 57.A)</title><text x="176.03" y="165.97" class="black" >A</text></g>
<g><title>58 (position.label in template: 58.A)</title><text x="169.66" y="170.04" class="black" >A</text></g>
<g><title>59 (position.label in template: 59.U)</title><text x="161.92" y="169.42" class="green" >T</text></g>
<g><title>60 (position.label in template: 60.C)</title><text x="156.29" y="164.37" class="black" >C</text></g>
<g><title>61 (position.label in template: 61.C)</title><text x="154.87" y="156.94" class="black" >C</text></g>
<g><title>62 (position.label in template: 62.C)</title><text x="148.98" y="152.2" class="black" >C</text></g>
<g><title>63 (position.label in template: 63.C)</title><text x="143.09" y="147.46" class="black" >C</text></g>
<g><title>64 (position.label in template: 64.A)</title><text x="137.41" y="142.71" class="black" >A</text></g>
<g><title>65 (position.label in template: 65.G)</title><text x="131.11" y="137.97" class="black" >G</text></g>
<g><title>66 (position.label in template: 66.U)</title><text x="124.5" y="141.23" class="green" >T</text></g>
<g><title>67 (position.label in template: 67.A)</title><text x="124.71" y="148.79" class="green" >A</text></g>
<g><title>68 (position.label in template: 68.C)</title><text x="124.5" y="156.35" class="black" >C</text></g>
<g><title>69 (position.label in template: 69.C)</title><text x="124.5" y="163.91" class="black" >C</text></g>
<g><title>70 (position.label in template: 70.U)</title><text x="124.5" y="171.47" class="green" >T</text></g>
<g><title>71 (position.label in template: 71.C)</title><text x="124.5" y="179.03" class="black" >C</text></g>
<g><title>72 (position.label in template: 72.C)</title><text x="124.5" y="186.59" class="black" >C</text></g>
<g><title>73 (position.label in template: 73.U)</title><text x="129.85" y="191.95" class="green" >T</text></g>
<g><title>74 (position.label in template: 74.3')</title><text x="124.609" y="197.417" class="green" >3'</text></g>
<g><line x1="112.05" y1="191.814" x2="112.05" y2="188.327" class="gray" /></g>
<g><line x1="112.05" y1="184.24" x2="112.05" y2="180.767" class="gray" /></g>
<g><line x1="112.163" y1="176.683" x2="112.357" y2="173.204" class="gray" /></g>
<g><line x1="112.47" y1="169.12" x2="112.47" y2="165.647" class="gray" /></g>
<g><line x1="112.357" y1="161.563" x2="112.163" y2="158.084" class="gray" /></g>
<g><line x1="112.107" y1="154.001" x2="112.203" y2="150.526" class="gray" /></g>
<g><line x1="112.317" y1="146.441" x2="112.413" y2="142.966" class="gray" /></g>
<g><line x1="110.616" y1="140.064" x2="107.294" y2="138.523" class="gray" /></g>
<g><line x1="104.024" y1="136.19" x2="101.716" y2="133.787" class="gray" /></g>
<g><line x1="99.4188" y1="130.47" x2="97.9212" y2="127.337" class="gray" /></g>
<g><line x1="94.9967" y1="125.494" x2="91.3133" y2="125.494" class="gray" /></g>
<g><line x1="87.2267" y1="125.494" x2="83.7533" y2="125.494" class="gray" /></g>
<g><line x1="79.6667" y1="125.494" x2="76.1933" y2="125.494" class="gray" /></g>
<g><line x1="72.7372" y1="126.97" x2="70.4328" y2="129.377" class="gray" /></g>
<g><line x1="67.0162" y1="131.253" x2="63.6038" y2="131.934" class="gray" /></g>
<g><line x1="59.6967" y1="131.59" x2="56.1033" y2="130.187" class="gray" /></g>
<g><line x1="53.1055" y1="127.718" x2="51.3045" y2="124.879" class="gray" /></g>
<g><line x1="50.1533" y1="121.111" x2="50.0567" y2="117.636" class="gray" /></g>
<g><line x1="51.1359" y1="113.895" x2="53.0641" y2="111.012" class="gray" /></g>
<g><line x1="56.0963" y1="108.552" x2="59.5037" y2="107.185" class="gray" /></g>
<g><line x1="63.4058" y1="106.813" x2="67.0142" y2="107.514" class="gray" /></g>
<g><line x1="70.4031" y1="109.408" x2="72.5569" y2="111.749" class="gray" /></g>
<g><line x1="75.9833" y1="113.254" x2="79.8767" y2="113.254" class="gray" /></g>
<g><line x1="83.9633" y1="113.254" x2="87.0167" y2="113.254" class="gray" /></g>
<g><line x1="91.1033" y1="113.254" x2="94.7867" y2="113.254" class="gray" /></g>
<g><line x1="97.6652" y1="111.389" x2="99.0448" y2="108.308" class="gray" /></g>
<g><line x1="101.352" y1="105.027" x2="103.968" y2="102.51" class="gray" /></g>
<g><line x1="104.81" y1="99.1497" x2="103.76" y2="95.9074" class="gray" /></g>
<g><line x1="102.402" y1="92.0544" x2="101.138" y2="88.7426" class="gray" /></g>
<g><line x1="99.6817" y1="84.9244" x2="98.4183" y2="81.6126" class="gray" /></g>
<g><line x1="97.0602" y1="77.7597" x2="96.0098" y2="74.5174" class="gray" /></g>
<g><line x1="93.6151" y1="71.5438" x2="90.6149" y2="69.7932" class="gray" /></g>
<g><line x1="88.0693" y1="66.8752" x2="86.7407" y2="63.6618" class="gray" /></g>
<g><line x1="86.5316" y1="59.8118" x2="87.5184" y2="56.4252" class="gray" /></g>
<g><line x1="89.6537" y1="53.1482" x2="92.0663" y2="51.1188" class="gray" /></g>
<g><line x1="95.6731" y1="49.7746" x2="99.3569" y2="49.7224" class="gray" /></g>
<g><line x1="103.063" y1="50.8807" x2="106.027" y2="52.9963" class="gray" /></g>
<g><line x1="108.212" y1="56.1589" x2="109.088" y2="59.4681" class="gray" /></g>
<g><line x1="108.933" y1="63.3713" x2="107.807" y2="66.5757" class="gray" /></g>
<g><line x1="107.76" y1="70.4474" x2="108.81" y2="73.6897" class="gray" /></g>
<g><line x1="110.168" y1="77.5426" x2="111.432" y2="80.8544" class="gray" /></g>
<g><line x1="112.79" y1="84.7074" x2="113.84" y2="87.9497" class="gray" /></g>
<g><line x1="115.198" y1="91.8026" x2="116.462" y2="95.1144" class="gray" /></g>
<g><line x1="119.222" y1="97.2423" x2="122.678" y2="97.6147" class="gray" /></g>
<g><line x1="126.554" y1="98.7147" x2="129.686" y2="100.212" class="gray" /></g>
<g><line x1="132.913" y1="102.598" x2="135.067" y2="104.939" class="gray" /></g>
<g><line x1="137.38" y1="108.263" x2="139" y2="111.434" class="gray" /></g>
<g><line x1="140.149" y1="115.285" x2="140.521" y2="118.742" class="gray" /></g>
<g><line x1="140.27" y1="122.762" x2="139.47" y2="126.145" class="gray" /></g>
<g><line x1="140.592" y1="129.415" x2="143.298" y2="131.592" class="gray" /></g>
<g><line x1="146.456" y1="134.186" x2="148.994" y2="136.311" class="gray" /></g>
<g><line x1="152.152" y1="138.905" x2="154.858" y2="141.082" class="gray" /></g>
<g><line x1="158.042" y1="143.645" x2="160.748" y2="145.822" class="gray" /></g>
<g><line x1="164.383" y1="147.053" x2="168.057" y2="146.964" class="gray" /></g>
<g><line x1="171.757" y1="148.109" x2="174.583" y2="150.148" class="gray" /></g>
<g><line x1="176.835" y1="153.298" x2="177.845" y2="156.619" class="gray" /></g>
<g><line x1="177.782" y1="160.508" x2="176.688" y2="163.729" class="gray" /></g>
<g><line x1="174.308" y1="166.764" x2="171.382" y2="168.633" class="gray" /></g>
<g><line x1="167.623" y1="169.57" x2="163.957" y2="169.277" class="gray" /></g>
<g><line x1="160.399" y1="167.749" x2="157.811" y2="165.428" class="gray" /></g>
<g><line x1="155.906" y1="162.057" x2="155.254" y2="158.64" class="gray" /></g>
<g><line x1="153.278" y1="155.352" x2="150.572" y2="153.175" class="gray" /></g>
<g><line x1="147.388" y1="150.612" x2="144.682" y2="148.435" class="gray" /></g>
<g><line x1="141.523" y1="145.843" x2="138.977" y2="143.714" class="gray" /></g>
<g><line x1="135.777" y1="141.175" x2="132.743" y2="138.892" class="gray" /></g>
<g><line x1="129.277" y1="138.567" x2="126.333" y2="140.02" class="gray" /></g>
<g><line x1="124.557" y1="142.966" x2="124.653" y2="146.441" class="gray" /></g>
<g><line x1="124.653" y1="150.526" x2="124.557" y2="154.001" class="gray" /></g>
<g><line x1="124.5" y1="158.087" x2="124.5" y2="161.56" class="gray" /></g>
<g><line x1="124.5" y1="165.647" x2="124.5" y2="169.12" class="gray" /></g>
<g><line x1="124.5" y1="173.207" x2="124.5" y2="176.68" class="gray" /></g>
<g><line x1="124.5" y1="180.767" x2="124.5" y2="184.24" class="gray" /></g>
<g><line x1="125.943" y1="187.73" x2="128.407" y2="190.198" class="gray" /></g>
<g><line x1="128.436" y1="193.119" x2="126.023" y2="195.636" class="gray" /></g>
</svg>
