<svg
	xmlns="http://www.w3.org/2000/svg"
	width="168.336"
	height="259.95">
<g><style type="text/css" >
<!-- create color definitions -->
<![CDATA[
circle.red {stroke: rgb(255, 0, 255); fill: none; }
circle.green {stroke: rgb(0, 255, 0); fill: none; }
circle.blue {stroke: rgb(0, 0, 255); fill: none; }
circle.black {stroke: rgb(0, 0, 0); fill: none; }
circle.gray {stroke: rgb(204, 204, 204); fill: none; }
circle.brown {stroke: rgb(211.65, 104.55, 30.6); fill: none; }
line.red {stroke: rgb(255, 0, 255); stroke-width: 0.380481; }
line.green {stroke: rgb(0, 255, 0); stroke-width: 0.380481; }
line.blue {stroke: rgb(0, 0, 255); stroke-width: 0.380481; }
line.black {stroke: rgb(0, 0, 0); stroke-width: 0.380481; }
line.gray {stroke: rgb(204, 204, 204); stroke-width: 0.380481; }
line.brown {stroke: rgb(211.65, 104.55, 30.6); stroke-width: 0.380481; }
line {stroke: rgb(0, 0, 0); }
text.red {fill: rgb(255, 0, 255); font-size: 3.043846px; font-weight: bold; font-family: Helvetica; }
text.green {fill: rgb(0, 255, 0); font-size: 3.043846px; font-weight: bold; font-family: Helvetica; }
text.blue {fill: rgb(0, 0, 255); font-size: 3.043846px; font-weight: bold; font-family: Helvetica; }
text.black {fill: rgb(0, 0, 0); font-size: 3.043846px; font-weight: bold; font-family: Helvetica; }
text.gray {fill: rgb(204, 204, 204); font-size: 3.043846px; font-weight: bold; font-family: Helvetica; }
text.brown {fill: rgb(211.65, 104.55, 30.6); font-size: 3.043846px; font-weight: bold; font-family: Helvetica; }
text {fill: rgb(0, 0, 0); font-size: 3.043846px; font-weight: bold; font-family: Helvetica; text-anchor: middle; alignment-baseline: middle; }

.pseudoknot_connection{stroke-linecap: round; stroke-opacity: 0.2; stroke-width: 1.5; }
.pseudoknot_segment1{stroke-linecap: round; stroke-opacity: 0.4; stroke-width: 3.04385; }
.pseudoknot_segment2{stroke-linecap: round; stroke-opacity: 0.4; stroke-width: 3.04385; }
line.numbering-line{stroke: rgb(204, 204, 204); stroke-width: 0.19024; }
line.predicted{stroke: rgb(0, 0, 0); stroke-dasharray: 2; }
polyline{fill: none; stroke-linejoin: round; }
template{visibility: hidden; }
text.numbering-label{fill: rgb(204, 204, 204); }
]]>
</style></g>
<g><title>0 (position.label in template: 0.5')</title><text x="42.4389" y="209.848" class="green" >5'</text></g>
<g><title>1 (position.label in template: 1.A)</title><text x="50" y="209.848" class="black" >A</text></g>
<g><title>2 (position.label in template: 2.U)</title><text x="57.5611" y="209.848" class="green" >T</text></g>
<g><title>3 (position.label in template: 3.G)</title><text x="65.1223" y="209.848" class="black" >G</text></g>
<g><title>4 (position.label in template: 4.C)</title><text x="70.566" y="204.6" class="black" >C</text></g>
<g><line x1="72.5952" y1="204.296" x2="80.5668" y2="204.296" class="black" /></g>
<g><title>5 (position.label in template: 5.C)</title><text x="70.566" y="197.04" class="black" >C</text></g>
<g><line x1="72.5952" y1="196.736" x2="80.9868" y2="196.736" class="black" /></g>
<g><title>6 (position.label in template: 6.A)</title><text x="70.776" y="189.48" class="green" >A</text></g>
<g><line x1="72.8052" y1="189.176" x2="80.7768" y2="189.176" class="black" /></g>
<g><title>7 (position.label in template: 7.C)</title><text x="70.566" y="181.92" class="black" >C</text></g>
<g><line x1="72.5952" y1="181.616" x2="80.5668" y2="181.616" class="black" /></g>
<g><title>8 (position.label in template: 8.C)</title><text x="70.566" y="174.36" class="black" >C</text></g>
<g><line x1="72.5952" y1="174.056" x2="80.5668" y2="174.056" class="black" /></g>
<g><title>9 (position.label in template: 9.C)</title><text x="70.566" y="166.8" class="black" >C</text></g>
<g><line x1="72.5952" y1="166.496" x2="80.5668" y2="166.496" class="black" /></g>
<g><title>10 (position.label in template: 10.U)</title><text x="70.566" y="159.24" class="green" >T</text></g>
<g><line x1="72.5952" y1="158.936" x2="80.9868" y2="158.936" class="black" /></g>
<g><text x="63.718" y="159.335" class="numbering-label sequential" >10</text></g>
<g><line x1="68.7399" y1="159.265" x2="65.5443" y2="159.31" class="numbering-line sequential" /></g>
<g><title>11 (position.label in template: 11.G)</title><text x="70.356" y="151.68" class="black" >G</text></g>
<g><line x1="72.3852" y1="151.376" x2="80.7768" y2="151.376" class="black" /></g>
<g><title>12 (position.label in template: 12.A)</title><text x="63.536" y="149.5" class="black" >A</text></g>
<g><title>13 (position.label in template: 13.C)</title><text x="58.076" y="144.06" class="black" >C</text></g>
<g><title>14 (position.label in template: 14.A)</title><text x="56.376" y="136.75" class="black" >A</text></g>
<g><title>15 (position.label in template: 15.A)</title><text x="58.286" y="129.43" class="black" >A</text></g>
<g><title>16 (position.label in template: 16.U)</title><text x="63.326" y="123.99" class="green" >T</text></g>
<g><title>17 (position.label in template: 17.G)</title><text x="70.356" y="121.81" class="black" >G</text></g>
<g><line x1="72.3852" y1="121.506" x2="80.7768" y2="121.506" class="black" /></g>
<g><title>18 (position.label in template: 18.C)</title><text x="70.566" y="114.25" class="black" >C</text></g>
<g><line x1="72.5952" y1="113.946" x2="80.5668" y2="113.946" class="black" /></g>
<g><title>19 (position.label in template: 19.C)</title><text x="70.566" y="106.69" class="black" >C</text></g>
<g><line x1="72.5952" y1="106.386" x2="80.5668" y2="106.386" class="black" /></g>
<g><title>20 (position.label in template: 20.C)</title><text x="70.566" y="99.13" class="black" >C</text></g>
<g><line x1="72.5952" y1="98.8256" x2="80.5668" y2="98.8256" class="black" /></g>
<g><text x="63.718" y="99.0349" class="numbering-label sequential" >20</text></g>
<g><line x1="68.7399" y1="99.1046" x2="65.5443" y2="99.0603" class="numbering-line sequential" /></g>
<g><title>21 (position.label in template: 21.A)</title><text x="70.776" y="91.57" class="black" >A</text></g>
<g><line x1="72.8052" y1="91.2656" x2="80.7768" y2="91.2656" class="black" /></g>
<g><title>22 (position.label in template: 22.A)</title><text x="70.776" y="84.01" class="green" >A</text></g>
<g><line x1="72.8052" y1="83.7056" x2="80.7768" y2="83.7056" class="black" /></g>
<g><title>23 (position.label in template: 23.U)</title><text x="64.186" y="79.95" class="green" >T</text></g>
<g><title>24 (position.label in template: 24.C)</title><text x="60.076" y="73.61" class="black" >C</text></g>
<g><title>25 (position.label in template: 25.U)</title><text x="58.976" y="66.13" class="green" >T</text></g>
<g><title>26 (position.label in template: 26.C)</title><text x="61.086" y="58.87" class="black" >C</text></g>
<g><title>27 (position.label in template: 27.A)</title><text x="66.236" y="53.15" class="black" >A</text></g>
<g><title>28 (position.label in template: 28.U)</title><text x="72.906" y="50" class="green" >T</text></g>
<g><title>29 (position.label in template: 29.C)</title><text x="80.466" y="50" class="black" >C</text></g>
<g><title>30 (position.label in template: 30.U)</title><text x="87.346" y="53.15" class="green" >T</text></g>
<g><text x="91.5038" y="47.7079" class="numbering-label sequential" >30</text></g>
<g><line x1="88.4547" y1="51.6988" x2="90.341" y2="49.2298" class="numbering-line sequential" /></g>
<g><title>31 (position.label in template: 31.G)</title><text x="92.076" y="58.87" class="black" >G</text></g>
<g><title>32 (position.label in template: 32.A)</title><text x="94.606" y="66.13" class="black" >A</text></g>
<g><title>33 (position.label in template: 33.U)</title><text x="93.296" y="73.61" class="green" >T</text></g>
<g><title>34 (position.label in template: 34.C)</title><text x="89.186" y="79.95" class="black" >C</text></g>
<g><title>35 (position.label in template: 35.U)</title><text x="82.806" y="84.01" class="green" >T</text></g>
<g><title>36 (position.label in template: 36.C)</title><text x="82.806" y="91.57" class="black" >C</text></g>
<g><title>37 (position.label in template: 37.G)</title><text x="82.596" y="99.13" class="black" >G</text></g>
<g><title>38 (position.label in template: 38.G)</title><text x="82.596" y="106.69" class="black" >G</text></g>
<g><title>39 (position.label in template: 39.A)</title><text x="90.576" y="106.69" class="black" >A</text></g>
<g><title>40 (position.label in template: 40.A)</title><text x="90.576" y="114.25" class="black" >A</text></g>
<g><title>41 (position.label in template: 41.G)</title><text x="82.596" y="114.25" class="black" >G</text></g>
<g><title>42 (position.label in template: 42.C)</title><text x="82.806" y="121.81" class="black" >C</text></g>
<g><title>43 (position.label in template: 43.U)</title><text x="88.936" y="126.24" class="green" >T</text></g>
<g><title>44 (position.label in template: 44.A)</title><text x="92.586" y="132.97" class="black" >A</text></g>
<g><title>45 (position.label in template: 45.A)</title><text x="92.586" y="140.53" class="black" >A</text></g>
<g><title>46 (position.label in template: 46.G)</title><text x="88.726" y="147.26" class="black" >G</text></g>
<g><title>47 (position.label in template: 47.C)</title><text x="82.806" y="151.68" class="black" >C</text></g>
<g><title>48 (position.label in template: 48.A)</title><text x="83.016" y="159.24" class="green" >A</text></g>
<g><title>49 (position.label in template: 49.G)</title><text x="82.596" y="166.8" class="black" >G</text></g>
<g><title>50 (position.label in template: 50.G)</title><text x="82.596" y="174.36" class="black" >G</text></g>
<g><text x="89.4446" y="174.36" class="numbering-label sequential" >50</text></g>
<g><line x1="84.4223" y1="174.36" x2="87.6183" y2="174.36" class="numbering-line sequential" /></g>
<g><title>51 (position.label in template: 51.G)</title><text x="82.596" y="181.92" class="black" >G</text></g>
<g><title>52 (position.label in template: 52.U)</title><text x="82.806" y="189.48" class="green" >T</text></g>
<g><title>53 (position.label in template: 53.C)</title><text x="89.356" y="193.26" class="black" >C</text></g>
<g><title>54 (position.label in template: 54.A)</title><text x="83.016" y="197.04" class="black" >A</text></g>
<g><title>55 (position.label in template: 55.G)</title><text x="82.596" y="204.6" class="black" >G</text></g>
<g><title>56 (position.label in template: 56.G)</title><text x="87.946" y="209.95" class="black" >G</text></g>
<g><title>57 (position.label in template: 57.C)</title><text x="93.496" y="204.6" class="black" >C</text></g>
<g><line x1="95.5252" y1="204.296" x2="103.497" y2="204.296" class="black" /></g>
<g><title>58 (position.label in template: 58.C)</title><text x="93.496" y="197.04" class="black" >C</text></g>
<g><line x1="95.5252" y1="196.736" x2="103.497" y2="196.736" class="black" /></g>
<g><title>59 (position.label in template: 59.C)</title><text x="93.496" y="189.48" class="black" >C</text></g>
<g><line x1="95.5252" y1="189.176" x2="103.497" y2="189.176" class="black" /></g>
<g><title>60 (position.label in template: 60.A)</title><text x="93.706" y="181.92" class="green" >A</text></g>
<g><line x1="95.7352" y1="181.616" x2="103.707" y2="181.616" class="black" /></g>
<g><title>61 (position.label in template: 61.G)</title><text x="93.286" y="174.36" class="black" >G</text></g>
<g><line x1="95.3152" y1="174.056" x2="103.707" y2="174.056" class="black" /></g>
<g><title>62 (position.label in template: 62.U)</title><text x="86.196" y="172.39" class="green" >T</text></g>
<g><title>63 (position.label in template: 63.U)</title><text x="80.416" y="167.53" class="green" >T</text></g>
<g><title>64 (position.label in template: 64.A)</title><text x="77.426" y="160.67" class="black" >A</text></g>
<g><title>65 (position.label in template: 65.G)</title><text x="77.016" y="153.11" class="black" >G</text></g>
<g><title>66 (position.label in template: 66.U)</title><text x="80.416" y="146.26" class="green" >T</text></g>
<g><title>67 (position.label in template: 67.A)</title><text x="86.406" y="141.39" class="black" >A</text></g>
<g><title>68 (position.label in template: 68.C)</title><text x="93.496" y="139.42" class="black" >C</text></g>
<g><line x1="95.5252" y1="139.116" x2="103.497" y2="139.116" class="black" /></g>
<g><title>69 (position.label in template: 69.C)</title><text x="93.496" y="131.86" class="black" >C</text></g>
<g><line x1="95.5252" y1="131.556" x2="103.497" y2="131.556" class="black" /></g>
<g><title>70 (position.label in template: 70.U)</title><text x="90.396" y="124.97" class="green" >T</text></g>
<g><title>71 (position.label in template: 71.G)</title><text x="93.286" y="118.07" class="black" >G</text></g>
<g><line x1="95.3152" y1="117.766" x2="103.707" y2="117.766" class="black" /></g>
<g><title>72 (position.label in template: 72.G)</title><text x="93.286" y="110.51" class="black" >G</text></g>
<g><line x1="95.3152" y1="110.206" x2="103.707" y2="110.206" class="black" /></g>
<g><title>73 (position.label in template: 73.A)</title><text x="87.156" y="106.73" class="black" >A</text></g>
<g><title>74 (position.label in template: 74.U)</title><text x="93.496" y="102.95" class="green" >T</text></g>
<g><line x1="95.5252" y1="102.646" x2="103.497" y2="102.646" class="black" /></g>
<g><title>75 (position.label in template: 75.G)</title><text x="93.286" y="95.39" class="black" >G</text></g>
<g><line x1="95.3152" y1="95.0856" x2="103.707" y2="95.0856" class="black" /></g>
<g><title>76 (position.label in template: 76.G)</title><text x="93.286" y="87.83" class="black" >G</text></g>
<g><line x1="95.3152" y1="87.5256" x2="103.707" y2="87.5256" class="black" /></g>
<g><title>77 (position.label in template: 77.G)</title><text x="91.116" y="80.59" class="black" >G</text></g>
<g><title>78 (position.label in template: 78.A)</title><text x="96.046" y="74.53" class="black" >A</text></g>
<g><title>79 (position.label in template: 79.G)</title><text x="103.186" y="74.53" class="black" >G</text></g>
<g><title>80 (position.label in template: 80.A)</title><text x="108.116" y="80.59" class="black" >A</text></g>
<g><title>81 (position.label in template: 81.C)</title><text x="105.736" y="87.83" class="black" >C</text></g>
<g><title>82 (position.label in template: 82.C)</title><text x="105.736" y="95.39" class="black" >C</text></g>
<g><title>83 (position.label in template: 83.G)</title><text x="105.526" y="102.95" class="green" >G</text></g>
<g><title>84 (position.label in template: 84.C)</title><text x="105.736" y="110.51" class="black" >C</text></g>
<g><title>85 (position.label in template: 85.C)</title><text x="105.736" y="118.07" class="black" >C</text></g>
<g><title>86 (position.label in template: 86.U)</title><text x="108.836" y="124.97" class="green" >T</text></g>
<g><title>87 (position.label in template: 87.G)</title><text x="105.526" y="131.86" class="black" >G</text></g>
<g><title>88 (position.label in template: 88.G)</title><text x="105.526" y="139.42" class="black" >G</text></g>
<g><title>89 (position.label in template: 89.G)</title><text x="112.006" y="143.33" class="black" >G</text></g>
<g><title>90 (position.label in template: 90.A)</title><text x="116.796" y="149.49" class="black" >A</text></g>
<g><title>91 (position.label in template: 91.A)</title><text x="118.336" y="156.89" class="black" >A</text></g>
<g><title>92 (position.label in template: 92.U)</title><text x="116.586" y="164.29" class="green" >T</text></g>
<g><title>93 (position.label in template: 93.A)</title><text x="112.416" y="170.46" class="black" >A</text></g>
<g><title>94 (position.label in template: 94.C)</title><text x="105.736" y="174.36" class="black" >C</text></g>
<g><title>95 (position.label in template: 95.U)</title><text x="105.736" y="181.92" class="green" >T</text></g>
<g><title>96 (position.label in template: 96.G)</title><text x="105.526" y="189.48" class="black" >G</text></g>
<g><title>97 (position.label in template: 97.G)</title><text x="105.526" y="197.04" class="black" >G</text></g>
<g><title>98 (position.label in template: 98.G)</title><text x="105.526" y="204.6" class="black" >G</text></g>
<g><title>99 (position.label in template: 99.U)</title><text x="110.974" y="209.843" class="green" >T</text></g>
<g><title>100 (position.label in template: 100.3')</title><text x="110.698" y="217.399" class="green" >3'</text></g>
<g><line x1="44.4681" y1="209.543" x2="47.9708" y2="209.543" class="gray" /></g>
<g><line x1="52.0292" y1="209.543" x2="55.5319" y2="209.543" class="gray" /></g>
<g><line x1="59.5904" y1="209.543" x2="63.093" y2="209.543" class="gray" /></g>
<g><line x1="66.5832" y1="208.135" x2="69.105" y2="205.704" class="gray" /></g>
<g><line x1="70.566" y1="202.266" x2="70.566" y2="198.765" class="gray" /></g>
<g><line x1="70.6223" y1="194.707" x2="70.7196" y2="191.204" class="gray" /></g>
<g><line x1="70.7196" y1="187.147" x2="70.6223" y2="183.644" class="gray" /></g>
<g><line x1="70.566" y1="179.586" x2="70.566" y2="176.085" class="gray" /></g>
<g><line x1="70.566" y1="172.026" x2="70.566" y2="168.525" class="gray" /></g>
<g><line x1="70.566" y1="164.466" x2="70.566" y2="160.965" class="gray" /></g>
<g><line x1="70.5096" y1="156.907" x2="70.4123" y2="153.404" class="gray" /></g>
<g><line x1="68.4231" y1="150.758" x2="65.4689" y2="149.813" class="gray" /></g>
<g><line x1="62.0985" y1="147.763" x2="59.5135" y2="145.188" class="gray" /></g>
<g><line x1="57.6163" y1="141.779" x2="56.8356" y2="138.422" class="gray" /></g>
<g><line x1="56.8883" y1="134.482" x2="57.7737" y2="131.089" class="gray" /></g>
<g><line x1="59.6651" y1="127.637" x2="61.9469" y2="125.174" class="gray" /></g>
<g><line x1="65.2642" y1="123.085" x2="68.4178" y2="122.107" class="gray" /></g>
<g><line x1="70.4123" y1="119.477" x2="70.5096" y2="115.974" class="gray" /></g>
<g><line x1="70.566" y1="111.916" x2="70.566" y2="108.415" class="gray" /></g>
<g><line x1="70.566" y1="104.356" x2="70.566" y2="100.855" class="gray" /></g>
<g><line x1="70.6223" y1="96.7972" x2="70.7196" y2="93.2941" class="gray" /></g>
<g><line x1="70.776" y1="89.2364" x2="70.776" y2="85.7348" class="gray" /></g>
<g><line x1="69.0483" y1="82.6412" x2="65.9137" y2="80.71" class="gray" /></g>
<g><line x1="63.0822" y1="77.9429" x2="61.1798" y2="75.0084" class="gray" /></g>
<g><line x1="59.7807" y1="71.298" x2="59.2712" y2="67.8333" class="gray" /></g>
<g><line x1="59.5423" y1="63.877" x2="60.5197" y2="60.5142" class="gray" /></g>
<g><line x1="62.4438" y1="57.0576" x2="64.8782" y2="54.3537" class="gray" /></g>
<g><line x1="68.0709" y1="51.9791" x2="71.0711" y2="50.5622" class="gray" /></g>
<g><line x1="74.9352" y1="49.6956" x2="78.4368" y2="49.6956" class="gray" /></g>
<g><line x1="82.311" y1="50.5404" x2="85.5009" y2="52.0009" class="gray" /></g>
<g><line x1="88.6391" y1="54.4094" x2="90.7828" y2="57.0018" class="gray" /></g>
<g><line x1="92.7438" y1="60.4818" x2="93.9382" y2="63.9094" class="gray" /></g>
<g><line x1="94.2559" y1="67.8244" x2="93.646" y2="71.3068" class="gray" /></g>
<g><line x1="92.1922" y1="75.0084" x2="90.2898" y2="77.9429" class="gray" /></g>
<g><line x1="87.474" y1="80.7351" x2="84.518" y2="82.6162" class="gray" /></g>
<g><line x1="82.806" y1="85.7348" x2="82.806" y2="89.2364" class="gray" /></g>
<g><line x1="82.7496" y1="93.2941" x2="82.6523" y2="96.7972" class="gray" /></g>
<g><line x1="82.596" y1="100.855" x2="82.596" y2="104.356" class="gray" /></g>
<g><line x1="84.6252" y1="106.386" x2="88.5468" y2="106.386" class="gray" /></g>
<g><line x1="90.576" y1="108.415" x2="90.576" y2="111.916" class="gray" /></g>
<g><line x1="88.5468" y1="113.946" x2="84.6252" y2="113.946" class="gray" /></g>
<g><line x1="82.6523" y1="115.974" x2="82.7496" y2="119.477" class="gray" /></g>
<g><line x1="84.4507" y1="122.694" x2="87.2913" y2="124.747" class="gray" /></g>
<g><line x1="89.9034" y1="127.719" x2="91.6186" y2="130.882" class="gray" /></g>
<g><line x1="92.586" y1="134.695" x2="92.586" y2="138.196" class="gray" /></g>
<g><line x1="91.5764" y1="141.986" x2="89.7356" y2="145.195" class="gray" /></g>
<g><line x1="87.1" y1="148.17" x2="84.432" y2="150.162" class="gray" /></g>
<g><line x1="82.8623" y1="153.404" x2="82.9596" y2="156.907" class="gray" /></g>
<g><line x1="82.9034" y1="160.962" x2="82.7085" y2="164.47" class="gray" /></g>
<g><line x1="82.596" y1="168.525" x2="82.596" y2="172.026" class="gray" /></g>
<g><line x1="82.596" y1="176.085" x2="82.596" y2="179.586" class="gray" /></g>
<g><line x1="82.6523" y1="183.644" x2="82.7496" y2="187.147" class="gray" /></g>
<g><line x1="84.5635" y1="190.19" x2="87.5984" y2="191.941" class="gray" /></g>
<g><line x1="87.613" y1="193.995" x2="84.7589" y2="195.696" class="gray" /></g>
<g><line x1="82.9034" y1="198.762" x2="82.7085" y2="202.27" class="gray" /></g>
<g><line x1="84.0309" y1="205.73" x2="86.5111" y2="208.211" class="gray" /></g>
<g><line x1="89.4069" y1="208.237" x2="92.035" y2="205.704" class="gray" /></g>
<g><line x1="93.496" y1="202.266" x2="93.496" y2="198.765" class="gray" /></g>
<g><line x1="93.496" y1="194.706" x2="93.496" y2="191.205" class="gray" /></g>
<g><line x1="93.5523" y1="187.147" x2="93.6496" y2="183.644" class="gray" /></g>
<g><line x1="93.5934" y1="179.59" x2="93.3985" y2="176.082" class="gray" /></g>
<g><line x1="91.3308" y1="173.512" x2="88.1511" y2="172.629" class="gray" /></g>
<g><line x1="84.6428" y1="170.78" x2="81.9691" y2="168.532" class="gray" /></g>
<g><line x1="79.6052" y1="165.365" x2="78.2368" y2="162.226" class="gray" /></g>
<g><line x1="77.3161" y1="158.339" x2="77.1259" y2="154.832" class="gray" /></g>
<g><line x1="77.9182" y1="150.988" x2="79.5138" y2="147.773" class="gray" /></g>
<g><line x1="81.9905" y1="144.676" x2="84.8315" y2="142.366" class="gray" /></g>
<g><line x1="88.3611" y1="140.542" x2="91.5408" y2="139.659" class="gray" /></g>
<g><line x1="93.496" y1="137.086" x2="93.496" y2="133.585" class="gray" /></g>
<g><line x1="92.6634" y1="129.705" x2="91.2286" y2="126.516" class="gray" /></g>
<g><line x1="91.1799" y1="122.794" x2="92.502" y2="119.637" class="gray" /></g>
<g><line x1="93.286" y1="115.736" x2="93.286" y2="112.235" class="gray" /></g>
<g><line x1="91.5587" y1="109.141" x2="88.8832" y2="107.491" class="gray" /></g>
<g><line x1="88.8989" y1="105.386" x2="91.753" y2="103.685" class="gray" /></g>
<g><line x1="93.4396" y1="100.617" x2="93.3423" y2="97.1141" class="gray" /></g>
<g><line x1="93.286" y1="93.0564" x2="93.286" y2="89.5548" class="gray" /></g>
<g><line x1="92.7034" y1="85.5818" x2="91.6986" y2="82.2294" class="gray" /></g>
<g><line x1="92.3966" y1="78.7115" x2="94.7654" y2="75.7997" class="gray" /></g>
<g><line x1="98.0752" y1="74.2256" x2="101.157" y2="74.2256" class="gray" /></g>
<g><line x1="104.467" y1="75.7997" x2="106.835" y2="78.7115" class="gray" /></g>
<g><line x1="107.482" y1="82.2134" x2="106.37" y2="85.5979" class="gray" /></g>
<g><line x1="105.736" y1="89.5548" x2="105.736" y2="93.0564" class="gray" /></g>
<g><line x1="105.68" y1="97.1141" x2="105.582" y2="100.617" class="gray" /></g>
<g><line x1="105.582" y1="104.674" x2="105.68" y2="108.177" class="gray" /></g>
<g><line x1="105.736" y1="112.235" x2="105.736" y2="115.736" class="gray" /></g>
<g><line x1="106.568" y1="119.617" x2="108.004" y2="122.815" class="gray" /></g>
<g><line x1="107.957" y1="126.495" x2="106.405" y2="129.727" class="gray" /></g>
<g><line x1="105.526" y1="133.585" x2="105.526" y2="137.086" class="gray" /></g>
<g><line x1="107.263" y1="140.164" x2="110.269" y2="141.977" class="gray" /></g>
<g><line x1="113.252" y1="144.628" x2="115.55" y2="147.584" class="gray" /></g>
<g><line x1="117.209" y1="151.172" x2="117.923" y2="154.599" class="gray" /></g>
<g><line x1="117.869" y1="158.56" x2="117.053" y2="162.011" class="gray" /></g>
<g><line x1="115.45" y1="165.667" x2="113.552" y2="168.474" class="gray" /></g>
<g><line x1="110.664" y1="171.179" x2="107.488" y2="173.032" class="gray" /></g>
<g><line x1="105.736" y1="176.085" x2="105.736" y2="179.586" class="gray" /></g>
<g><line x1="105.68" y1="183.644" x2="105.582" y2="187.147" class="gray" /></g>
<g><line x1="105.526" y1="191.205" x2="105.526" y2="194.706" class="gray" /></g>
<g><line x1="105.526" y1="198.765" x2="105.526" y2="202.266" class="gray" /></g>
<g><line x1="106.988" y1="205.703" x2="109.512" y2="208.131" class="gray" /></g>
<g><line x1="110.9" y1="211.566" x2="110.772" y2="215.066" class="gray" /></g>
</svg>
