<svg
	xmlns="http://www.w3.org/2000/svg"
	width="266.729"
	height="286.92">
<g><style type="text/css" >
<!-- create color definitions -->
<![CDATA[
circle.red {stroke: rgb(255, 0, 255); fill: none; }
circle.green {stroke: rgb(0, 255, 0); fill: none; }
circle.blue {stroke: rgb(0, 0, 255); fill: none; }
circle.black {stroke: rgb(0, 0, 0); fill: none; }
circle.gray {stroke: rgb(204, 204, 204); fill: none; }
circle.brown {stroke: rgb(211.65, 104.55, 30.6); fill: none; }
line.red {stroke: rgb(255, 0, 255); stroke-width: 0.38001; }
line.green {stroke: rgb(0, 255, 0); stroke-width: 0.38001; }
line.blue {stroke: rgb(0, 0, 255); stroke-width: 0.38001; }
line.black {stroke: rgb(0, 0, 0); stroke-width: 0.38001; }
line.gray {stroke: rgb(204, 204, 204); stroke-width: 0.38001; }
line.brown {stroke: rgb(211.65, 104.55, 30.6); stroke-width: 0.38001; }
line {stroke: rgb(0, 0, 0); }
text.red {fill: rgb(255, 0, 255); font-size: 3.040081px; font-weight: bold; font-family: Helvetica; }
text.green {fill: rgb(0, 255, 0); font-size: 3.040081px; font-weight: bold; font-family: Helvetica; }
text.blue {fill: rgb(0, 0, 255); font-size: 3.040081px; font-weight: bold; font-family: Helvetica; }
text.black {fill: rgb(0, 0, 0); font-size: 3.040081px; font-weight: bold; font-family: Helvetica; }
text.gray {fill: rgb(204, 204, 204); font-size: 3.040081px; font-weight: bold; font-family: Helvetica; }
text.brown {fill: rgb(211.65, 104.55, 30.6); font-size: 3.040081px; font-weight: bold; font-family: Helvetica; }
text {fill: rgb(0, 0, 0); font-size: 3.040081px; font-weight: bold; font-family: Helvetica; text-anchor: middle; alignment-baseline: middle; }

.pseudoknot_connection{stroke-linecap: round; stroke-opacity: 0.2; stroke-width: 1.5; }
.pseudoknot_segment1{stroke-linecap: round; stroke-opacity: 0.4; stroke-width: 3.04008; }
.pseudoknot_segment2{stroke-linecap: round; stroke-opacity: 0.4; stroke-width: 3.04008; }
line.numbering-line{stroke: rgb(204, 204, 204); stroke-width: 0.190005; }
line.predicted{stroke: rgb(0, 0, 0); stroke-dasharray: 2; }
polyline{fill: none; stroke-linejoin: round; }
template{visibility: hidden; }
text.numbering-label{fill: rgb(204, 204, 204); }
]]>
</style></g>
<g><title>0 (position.label in template: 0.5')</title><text x="69.95" y="239.129" class="green" >5'</text></g>
<g><title>1 (position.label in template: 1.G)</title><text x="70.16" y="231.57" class="black" >G</text></g>
<g><line x1="72.1867" y1="231.266" x2="80.5833" y2="231.266" class="black" /></g>
<g><title>2 (position.label in template: 2.C)</title><text x="70.37" y="224.01" class="black" >C</text></g>
<g><line x1="72.3967" y1="223.706" x2="80.3733" y2="223.706" class="black" /></g>
<g><title>3 (position.label in template: 3.A)</title><text x="70.58" y="216.45" class="green" >A</text></g>
<g><line x1="72.6067" y1="216.146" x2="80.5833" y2="216.146" class="black" /></g>
<g><title>4 (position.label in template: 4.C)</title><text x="70.37" y="208.89" class="black" >C</text></g>
<g><line x1="72.3967" y1="208.586" x2="80.3733" y2="208.586" class="black" /></g>
<g><title>5 (position.label in template: 5.C)</title><text x="70.37" y="201.33" class="black" >C</text></g>
<g><line x1="72.3967" y1="201.026" x2="80.3733" y2="201.026" class="black" /></g>
<g><title>6 (position.label in template: 6.U)</title><text x="62.83" y="200.86" class="green" >T</text></g>
<g><title>7 (position.label in template: 7.C)</title><text x="56.17" y="197.28" class="black" >C</text></g>
<g><title>8 (position.label in template: 8.U)</title><text x="51.62" y="191.25" class="green" >T</text></g>
<g><title>9 (position.label in template: 9.C)</title><text x="50" y="183.86" class="black" >C</text></g>
<g><title>10 (position.label in template: 10.A)</title><text x="51.82" y="176.48" class="black" >A</text></g>
<g><text x="45.5686" y="173.704" class="numbering-label sequential" >10</text></g>
<g><line x1="50.153" y1="175.74" x2="47.3926" y2="174.514" class="numbering-line sequential" /></g>
<g><title>11 (position.label in template: 11.G)</title><text x="55.96" y="170.44" class="black" >G</text></g>
<g><title>12 (position.label in template: 12.C)</title><text x="62.83" y="166.86" class="black" >C</text></g>
<g><title>13 (position.label in template: 13.A)</title><text x="70.58" y="166.39" class="black" >A</text></g>
<g><line x1="72.6067" y1="166.086" x2="80.3733" y2="166.086" class="black" /></g>
<g><title>14 (position.label in template: 14.A)</title><text x="70.58" y="158.83" class="black" >A</text></g>
<g><line x1="72.6067" y1="158.526" x2="80.7933" y2="158.526" class="black" /></g>
<g><title>15 (position.label in template: 15.C)</title><text x="70.37" y="151.27" class="black" >C</text></g>
<g><line x1="72.3967" y1="150.966" x2="80.5833" y2="150.966" class="black" /></g>
<g><title>16 (position.label in template: 16.C)</title><text x="70.37" y="143.71" class="black" >C</text></g>
<g><line x1="72.3967" y1="143.406" x2="80.3733" y2="143.406" class="black" /></g>
<g><title>17 (position.label in template: 17.C)</title><text x="70.37" y="136.15" class="black" >C</text></g>
<g><line x1="72.3967" y1="135.846" x2="80.3733" y2="135.846" class="black" /></g>
<g><title>18 (position.label in template: 18.U)</title><text x="70.37" y="128.59" class="green" >T</text></g>
<g><line x1="72.3967" y1="128.286" x2="80.7933" y2="128.286" class="black" /></g>
<g><title>19 (position.label in template: 19.G)</title><text x="70.16" y="121.03" class="green" >G</text></g>
<g><line x1="72.1867" y1="120.726" x2="80.5833" y2="120.726" class="black" /></g>
<g><title>20 (position.label in template: 20.U)</title><text x="67.27" y="114.14" class="green" >T</text></g>
<g><text x="60.4306" y="114.036" class="numbering-label sequential" >20</text></g>
<g><line x1="65.4462" y1="114.112" x2="62.2547" y2="114.064" class="numbering-line sequential" /></g>
<g><title>21 (position.label in template: 21.C)</title><text x="70.37" y="107.24" class="black" >C</text></g>
<g><line x1="72.3967" y1="106.936" x2="80.3733" y2="106.936" class="black" /></g>
<g><title>22 (position.label in template: 22.G)</title><text x="70.16" y="99.68" class="black" >G</text></g>
<g><line x1="72.1867" y1="99.376" x2="80.5833" y2="99.376" class="black" /></g>
<g><title>23 (position.label in template: 23.A)</title><text x="63.84" y="96.26" class="black" >A</text></g>
<g><title>24 (position.label in template: 24.U)</title><text x="58.5" y="90.71" class="green" >T</text></g>
<g><title>25 (position.label in template: 25.U)</title><text x="55.64" y="83.71" class="green" >T</text></g>
<g><title>26 (position.label in template: 26.C)</title><text x="55.39" y="76.15" class="black" >C</text></g>
<g><title>27 (position.label in template: 27.U)</title><text x="57.79" y="68.99" class="green" >T</text></g>
<g><title>28 (position.label in template: 28.G)</title><text x="62.34" y="63.11" class="black" >G</text></g>
<g><title>29 (position.label in template: 29.U)</title><text x="69.05" y="59.26" class="green" >T</text></g>
<g><title>30 (position.label in template: 30.U)</title><text x="76.49" y="57.92" class="green" >T</text></g>
<g><text x="76.49" y="51.0798" class="numbering-label sequential" >30</text></g>
<g><line x1="76.49" y1="56.096" x2="76.49" y2="52.5999" class="numbering-line sequential" /></g>
<g><title>31 (position.label in template: 31.A)</title><text x="84.14" y="59.26" class="black" >A</text></g>
<g><title>32 (position.label in template: 32.A)</title><text x="90.65" y="63.11" class="black" >A</text></g>
<g><title>33 (position.label in template: 33.G)</title><text x="94.98" y="68.99" class="black" >G</text></g>
<g><title>34 (position.label in template: 34.U)</title><text x="97.6" y="76.15" class="green" >T</text></g>
<g><title>35 (position.label in template: 35.G)</title><text x="97.14" y="83.71" class="black" >G</text></g>
<g><title>36 (position.label in template: 36.A)</title><text x="94.69" y="90.71" class="black" >A</text></g>
<g><title>37 (position.label in template: 37.U)</title><text x="89.36" y="96.26" class="green" >T</text></g>
<g><title>38 (position.label in template: 38.C)</title><text x="82.61" y="99.68" class="black" >C</text></g>
<g><title>39 (position.label in template: 39.G)</title><text x="82.4" y="107.24" class="black" >G</text></g>
<g><title>40 (position.label in template: 40.A)</title><text x="85.92" y="114.14" class="black" >A</text></g>
<g><title>41 (position.label in template: 41.U)</title><text x="82.61" y="121.03" class="green" >T</text></g>
<g><title>42 (position.label in template: 42.A)</title><text x="82.82" y="128.59" class="green" >A</text></g>
<g><title>43 (position.label in template: 43.C)</title><text x="90.17" y="128.59" class="black" >C</text></g>
<g><title>44 (position.label in template: 44.G)</title><text x="89.96" y="136.15" class="black" >G</text></g>
<g><title>45 (position.label in template: 45.G)</title><text x="82.4" y="136.15" class="black" >G</text></g>
<g><title>46 (position.label in template: 46.G)</title><text x="82.4" y="143.71" class="black" >G</text></g>
<g><title>47 (position.label in template: 47.C)</title><text x="82.61" y="151.27" class="black" >C</text></g>
<g><title>48 (position.label in template: 48.A)</title><text x="82.82" y="158.83" class="black" >A</text></g>
<g><title>49 (position.label in template: 49.G)</title><text x="82.4" y="166.39" class="black" >G</text></g>
<g><title>50 (position.label in template: 50.U)</title><text x="89.09" y="170.3" class="green" >T</text></g>
<g><text x="93.6476" y="165.199" class="numbering-label sequential" >50</text></g>
<g><line x1="90.3053" y1="168.94" x2="92.2894" y2="166.719" class="numbering-line sequential" /></g>
<g><title>51 (position.label in template: 51.A)</title><text x="93.67" y="176.46" class="black" >A</text></g>
<g><title>52 (position.label in template: 52.G)</title><text x="94.8" y="183.86" class="black" >G</text></g>
<g><title>53 (position.label in template: 53.C)</title><text x="93.46" y="191.26" class="black" >C</text></g>
<g><title>54 (position.label in template: 54.U)</title><text x="89.09" y="197.43" class="green" >T</text></g>
<g><title>55 (position.label in template: 55.G)</title><text x="82.4" y="201.33" class="black" >G</text></g>
<g><title>56 (position.label in template: 56.G)</title><text x="82.4" y="208.89" class="black" >G</text></g>
<g><title>57 (position.label in template: 57.U)</title><text x="82.61" y="216.45" class="green" >T</text></g>
<g><title>58 (position.label in template: 58.G)</title><text x="82.4" y="224.01" class="black" >G</text></g>
<g><title>59 (position.label in template: 59.C)</title><text x="82.61" y="231.57" class="black" >C</text></g>
<g><title>60 (position.label in template: 60.U)</title><text x="87.96" y="236.92" class="green" >T</text></g>
<g><title>61 (position.label in template: 61.A)</title><text x="95.73" y="236.92" class="black" >A</text></g>
<g><title>62 (position.label in template: 62.A)</title><text x="103.29" y="236.92" class="black" >A</text></g>
<g><title>63 (position.label in template: 63.A)</title><text x="110.85" y="236.92" class="black" >A</text></g>
<g><title>64 (position.label in template: 64.G)</title><text x="117.99" y="236.92" class="black" >G</text></g>
<g><title>65 (position.label in template: 65.A)</title><text x="125.97" y="236.92" class="black" >A</text></g>
<g><title>66 (position.label in template: 66.G)</title><text x="133.11" y="236.92" class="black" >G</text></g>
<g><title>67 (position.label in template: 67.A)</title><text x="141.09" y="236.92" class="black" >A</text></g>
<g><title>68 (position.label in template: 68.C)</title><text x="148.44" y="236.92" class="black" >C</text></g>
<g><title>69 (position.label in template: 69.U)</title><text x="153.79" y="231.57" class="green" >T</text></g>
<g><line x1="155.817" y1="231.266" x2="163.793" y2="231.266" class="black" /></g>
<g><title>70 (position.label in template: 70.C)</title><text x="153.79" y="224.01" class="black" >C</text></g>
<g><line x1="155.817" y1="223.706" x2="163.793" y2="223.706" class="black" /></g>
<g><title>71 (position.label in template: 71.A)</title><text x="153.99" y="216.45" class="green" >A</text></g>
<g><line x1="156.017" y1="216.146" x2="164.003" y2="216.146" class="black" /></g>
<g><title>72 (position.label in template: 72.A)</title><text x="153.99" y="208.89" class="green" >A</text></g>
<g><line x1="156.017" y1="208.586" x2="164.003" y2="208.586" class="black" /></g>
<g><title>73 (position.label in template: 73.U)</title><text x="153.79" y="201.33" class="green" >T</text></g>
<g><line x1="155.817" y1="201.026" x2="164.003" y2="201.026" class="black" /></g>
<g><title>74 (position.label in template: 74.G)</title><text x="153.58" y="193.77" class="black" >G</text></g>
<g><line x1="155.607" y1="193.466" x2="164.003" y2="193.466" class="black" /></g>
<g><title>75 (position.label in template: 75.U)</title><text x="146.44" y="191.98" class="green" >T</text></g>
<g><title>76 (position.label in template: 76.A)</title><text x="140.5" y="187.58" class="black" >A</text></g>
<g><title>77 (position.label in template: 77.A)</title><text x="136.41" y="181.22" class="black" >A</text></g>
<g><title>78 (position.label in template: 78.A)</title><text x="134.98" y="173.8" class="black" >A</text></g>
<g><title>79 (position.label in template: 79.U)</title><text x="136.21" y="166.37" class="green" >T</text></g>
<g><title>80 (position.label in template: 80.C)</title><text x="140.29" y="160.01" class="black" >C</text></g>
<g><title>81 (position.label in template: 81.C)</title><text x="146.44" y="155.62" class="black" >C</text></g>
<g><title>82 (position.label in template: 82.A)</title><text x="153.99" y="153.82" class="green" >A</text></g>
<g><line x1="156.017" y1="153.516" x2="164.003" y2="153.516" class="black" /></g>
<g><title>83 (position.label in template: 83.G)</title><text x="153.58" y="146.26" class="black" >G</text></g>
<g><line x1="155.607" y1="145.956" x2="164.003" y2="145.956" class="black" /></g>
<g><title>84 (position.label in template: 84.A)</title><text x="153.99" y="138.7" class="green" >A</text></g>
<g><line x1="156.017" y1="138.396" x2="164.003" y2="138.396" class="black" /></g>
<g><title>85 (position.label in template: 85.U)</title><text x="153.79" y="131.14" class="green" >T</text></g>
<g><line x1="155.817" y1="130.836" x2="163.793" y2="130.836" class="black" /></g>
<g><title>86 (position.label in template: 86.G)</title><text x="153.58" y="123.58" class="green" >G</text></g>
<g><line x1="155.607" y1="123.276" x2="164.003" y2="123.276" class="black" /></g>
<g><title>87 (position.label in template: 87.G)</title><text x="153.58" y="116.02" class="black" >G</text></g>
<g><line x1="155.607" y1="115.716" x2="164.003" y2="115.716" class="black" /></g>
<g><title>88 (position.label in template: 88.A)</title><text x="153.99" y="108.46" class="black" >A</text></g>
<g><line x1="156.017" y1="108.156" x2="164.003" y2="108.156" class="black" /></g>
<g><title>89 (position.label in template: 89.C)</title><text x="153.79" y="100.9" class="black" >C</text></g>
<g><line x1="155.817" y1="100.596" x2="163.793" y2="100.596" class="black" /></g>
<g><title>90 (position.label in template: 90.C)</title><text x="146.9" y="97.79" class="black" >C</text></g>
<g><title>91 (position.label in template: 91.U)</title><text x="146.9" y="90.23" class="green" >T</text></g>
<g><title>92 (position.label in template: 92.C)</title><text x="153.79" y="87.11" class="black" >C</text></g>
<g><line x1="155.817" y1="86.806" x2="163.793" y2="86.806" class="black" /></g>
<g><title>93 (position.label in template: 93.C)</title><text x="153.79" y="79.55" class="black" >C</text></g>
<g><line x1="155.817" y1="79.246" x2="163.793" y2="79.246" class="black" /></g>
<g><title>94 (position.label in template: 94.U)</title><text x="153.79" y="71.99" class="green" >T</text></g>
<g><line x1="155.817" y1="71.686" x2="164.003" y2="71.686" class="black" /></g>
<g><title>95 (position.label in template: 95.C)</title><text x="148.9" y="66.22" class="black" >C</text></g>
<g><title>96 (position.label in template: 96.U)</title><text x="148.5" y="58.67" class="green" >T</text></g>
<g><title>97 (position.label in template: 97.C)</title><text x="152.74" y="52.42" class="black" >C</text></g>
<g><title>98 (position.label in template: 98.C)</title><text x="159.91" y="50" class="black" >C</text></g>
<g><title>99 (position.label in template: 99.C)</title><text x="167.07" y="52.42" class="black" >C</text></g>
<g><title>100 (position.label in template: 100.C)</title><text x="171.32" y="58.67" class="black" >C</text></g>
<g><text x="177.935" y="56.9299" class="numbering-label sequential" >100</text></g>
<g><line x1="173.084" y1="58.206" x2="175.199" y2="57.6496" class="numbering-line sequential" /></g>
<g><title>101 (position.label in template: 101.G)</title><text x="170.7" y="66.22" class="black" >G</text></g>
<g><title>102 (position.label in template: 102.U)</title><text x="166.03" y="71.99" class="green" >T</text></g>
<g><title>103 (position.label in template: 103.G)</title><text x="165.82" y="79.55" class="black" >G</text></g>
<g><title>104 (position.label in template: 104.G)</title><text x="165.82" y="87.11" class="black" >G</text></g>
<g><title>105 (position.label in template: 105.A)</title><text x="169.33" y="94.01" class="black" >A</text></g>
<g><title>106 (position.label in template: 106.G)</title><text x="165.82" y="100.9" class="black" >G</text></g>
<g><title>107 (position.label in template: 107.C)</title><text x="166.03" y="108.46" class="black" >C</text></g>
<g><title>108 (position.label in template: 108.C)</title><text x="166.03" y="116.02" class="black" >C</text></g>
<g><title>109 (position.label in template: 109.U)</title><text x="166.03" y="123.58" class="green" >T</text></g>
<g><title>110 (position.label in template: 110.G)</title><text x="165.82" y="131.14" class="green" >G</text></g>
<g><title>111 (position.label in template: 111.U)</title><text x="166.03" y="138.7" class="green" >T</text></g>
<g><title>112 (position.label in template: 112.C)</title><text x="166.03" y="146.26" class="black" >C</text></g>
<g><title>113 (position.label in template: 113.U)</title><text x="166.03" y="153.82" class="green" >T</text></g>
<g><title>114 (position.label in template: 114.C)</title><text x="172.73" y="157.31" class="black" >C</text></g>
<g><title>115 (position.label in template: 115.U)</title><text x="177.76" y="162.95" class="green" >T</text></g>
<g><title>116 (position.label in template: 116.A)</title><text x="180.66" y="170.02" class="black" >A</text></g>
<g><title>117 (position.label in template: 117.C)</title><text x="180.45" y="177.58" class="black" >C</text></g>
<g><title>118 (position.label in template: 118.A)</title><text x="177.97" y="184.64" class="black" >A</text></g>
<g><title>119 (position.label in template: 119.A)</title><text x="172.94" y="190.29" class="black" >A</text></g>
<g><title>120 (position.label in template: 120.C)</title><text x="166.03" y="193.77" class="black" >C</text></g>
<g><title>121 (position.label in template: 121.U)</title><text x="166.03" y="201.33" class="green" >T</text></g>
<g><title>122 (position.label in template: 122.U)</title><text x="166.03" y="208.89" class="green" >T</text></g>
<g><title>123 (position.label in template: 123.U)</title><text x="166.03" y="216.45" class="green" >T</text></g>
<g><title>124 (position.label in template: 124.G)</title><text x="165.82" y="224.01" class="black" >G</text></g>
<g><title>125 (position.label in template: 125.G)</title><text x="165.82" y="231.57" class="green" >G</text></g>
<g><title>126 (position.label in template: 126.A)</title><text x="171.36" y="236.716" class="black" >A</text></g>
<g><title>127 (position.label in template: 127.A)</title><text x="178.922" y="236.716" class="black" >A</text></g>
<g><title>128 (position.label in template: 128.C)</title><text x="186.483" y="236.716" class="black" >C</text></g>
<g><title>129 (position.label in template: 129.A)</title><text x="194.045" y="236.716" class="black" >A</text></g>
<g><title>130 (position.label in template: 130.C)</title><text x="201.606" y="236.716" class="black" >C</text></g>
<g><title>131 (position.label in template: 131.A)</title><text x="209.167" y="236.716" class="black" >A</text></g>
<g><title>132 (position.label in template: 132.A)</title><text x="216.729" y="236.716" class="black" >A</text></g>
<g><title>133 (position.label in template: 133.3')</title><text x="224.29" y="236.716" class="green" >3'</text></g>
<g><line x1="70.0063" y1="236.799" x2="70.1037" y2="233.292" class="gray" /></g>
<g><line x1="70.2163" y1="229.24" x2="70.3137" y2="225.732" class="gray" /></g>
<g><line x1="70.4263" y1="221.68" x2="70.5237" y2="218.172" class="gray" /></g>
<g><line x1="70.5237" y1="214.12" x2="70.4263" y2="210.612" class="gray" /></g>
<g><line x1="70.37" y1="206.559" x2="70.37" y2="203.053" class="gray" /></g>
<g><line x1="68.3472" y1="200.9" x2="64.8528" y2="200.682" class="gray" /></g>
<g><line x1="61.0448" y1="199.596" x2="57.9552" y2="197.936" class="gray" /></g>
<g><line x1="54.9493" y1="195.358" x2="52.8407" y2="192.564" class="gray" /></g>
<g><line x1="51.186" y1="188.966" x2="50.434" y2="185.536" class="gray" /></g>
<g><line x1="50.4853" y1="181.588" x2="51.3347" y2="178.144" class="gray" /></g>
<g><line x1="52.9658" y1="174.504" x2="54.8142" y2="171.808" class="gray" /></g>
<g><line x1="57.7573" y1="169.199" x2="61.0327" y2="167.493" class="gray" /></g>
<g><line x1="64.853" y1="166.433" x2="68.557" y2="166.209" class="gray" /></g>
<g><line x1="70.58" y1="164.059" x2="70.58" y2="160.553" class="gray" /></g>
<g><line x1="70.5237" y1="156.5" x2="70.4263" y2="152.992" class="gray" /></g>
<g><line x1="70.37" y1="148.939" x2="70.37" y2="145.433" class="gray" /></g>
<g><line x1="70.37" y1="141.379" x2="70.37" y2="137.873" class="gray" /></g>
<g><line x1="70.37" y1="133.819" x2="70.37" y2="130.313" class="gray" /></g>
<g><line x1="70.3137" y1="126.26" x2="70.2163" y2="122.752" class="gray" /></g>
<g><line x1="69.3761" y1="118.857" x2="68.0539" y2="115.705" class="gray" /></g>
<g><line x1="68.1006" y1="111.987" x2="69.5394" y2="108.785" class="gray" /></g>
<g><line x1="70.3137" y1="104.91" x2="70.2163" y2="101.402" class="gray" /></g>
<g><line x1="68.3775" y1="98.4114" x2="65.6225" y2="96.9206" class="gray" /></g>
<g><line x1="62.4348" y1="94.4955" x2="59.9052" y2="91.8665" class="gray" /></g>
<g><line x1="57.7335" y1="88.5298" x2="56.4065" y2="85.2822" class="gray" /></g>
<g><line x1="55.573" y1="81.3804" x2="55.457" y2="77.8716" class="gray" /></g>
<g><line x1="56.0341" y1="73.9244" x2="57.1459" y2="70.6076" class="gray" /></g>
<g><line x1="59.0303" y1="67.0831" x2="61.0997" y2="64.4089" class="gray" /></g>
<g><line x1="64.0979" y1="61.7974" x2="67.2921" y2="59.9646" class="gray" /></g>
<g><line x1="71.0446" y1="58.5967" x2="74.4954" y2="57.9752" class="gray" /></g>
<g><line x1="78.4863" y1="57.9657" x2="82.1437" y2="58.6063" class="gray" /></g>
<g><line x1="85.8845" y1="59.9877" x2="88.9055" y2="61.7743" class="gray" /></g>
<g><line x1="91.8518" y1="64.438" x2="93.7782" y2="67.054" class="gray" /></g>
<g><line x1="95.6765" y1="70.5893" x2="96.9035" y2="73.9427" class="gray" /></g>
<g><line x1="97.4769" y1="77.869" x2="97.2631" y2="81.383" class="gray" /></g>
<g><line x1="96.4705" y1="85.3189" x2="95.3595" y2="88.4931" class="gray" /></g>
<g><line x1="93.2862" y1="91.8678" x2="90.7638" y2="94.4942" class="gray" /></g>
<g><line x1="87.5521" y1="96.872" x2="84.4179" y2="98.46" class="gray" /></g>
<g><line x1="82.5537" y1="101.402" x2="82.4563" y2="104.91" class="gray" /></g>
<g><line x1="83.321" y1="108.741" x2="84.999" y2="112.031" class="gray" /></g>
<g><line x1="85.0424" y1="115.663" x2="83.4876" y2="118.899" class="gray" /></g>
<g><line x1="82.6663" y1="122.752" x2="82.7637" y2="126.26" class="gray" /></g>
<g><line x1="84.8467" y1="128.286" x2="88.1433" y2="128.286" class="gray" /></g>
<g><line x1="90.1137" y1="130.312" x2="90.0163" y2="133.82" class="gray" /></g>
<g><line x1="87.9333" y1="135.846" x2="84.4267" y2="135.846" class="gray" /></g>
<g><line x1="82.4" y1="137.873" x2="82.4" y2="141.379" class="gray" /></g>
<g><line x1="82.4563" y1="145.432" x2="82.5537" y2="148.94" class="gray" /></g>
<g><line x1="82.6663" y1="152.992" x2="82.7637" y2="156.5" class="gray" /></g>
<g><line x1="82.7076" y1="160.55" x2="82.5124" y2="164.062" class="gray" /></g>
<g><line x1="84.1498" y1="167.109" x2="87.3402" y2="168.973" class="gray" /></g>
<g><line x1="90.2993" y1="171.622" x2="92.4607" y2="174.53" class="gray" /></g>
<g><line x1="93.9759" y1="178.159" x2="94.4941" y2="181.552" class="gray" /></g>
<g><line x1="94.4389" y1="185.55" x2="93.8211" y2="188.962" class="gray" /></g>
<g><line x1="92.2886" y1="192.61" x2="90.2614" y2="195.472" class="gray" /></g>
<g><line x1="87.3391" y1="198.147" x2="84.1509" y2="200.005" class="gray" /></g>
<g><line x1="82.4" y1="203.053" x2="82.4" y2="206.559" class="gray" /></g>
<g><line x1="82.4563" y1="210.612" x2="82.5537" y2="214.12" class="gray" /></g>
<g><line x1="82.5537" y1="218.172" x2="82.4563" y2="221.68" class="gray" /></g>
<g><line x1="82.4563" y1="225.732" x2="82.5537" y2="229.24" class="gray" /></g>
<g><line x1="84.0431" y1="232.699" x2="86.5269" y2="235.183" class="gray" /></g>
<g><line x1="89.9867" y1="236.616" x2="93.7033" y2="236.616" class="gray" /></g>
<g><line x1="97.7567" y1="236.616" x2="101.263" y2="236.616" class="gray" /></g>
<g><line x1="105.317" y1="236.616" x2="108.823" y2="236.616" class="gray" /></g>
<g><line x1="112.877" y1="236.616" x2="115.963" y2="236.616" class="gray" /></g>
<g><line x1="120.017" y1="236.616" x2="123.943" y2="236.616" class="gray" /></g>
<g><line x1="127.997" y1="236.616" x2="131.083" y2="236.616" class="gray" /></g>
<g><line x1="135.137" y1="236.616" x2="139.063" y2="236.616" class="gray" /></g>
<g><line x1="143.117" y1="236.616" x2="146.413" y2="236.616" class="gray" /></g>
<g><line x1="149.873" y1="235.183" x2="152.357" y2="232.699" class="gray" /></g>
<g><line x1="153.79" y1="229.239" x2="153.79" y2="225.733" class="gray" /></g>
<g><line x1="153.844" y1="221.68" x2="153.936" y2="218.172" class="gray" /></g>
<g><line x1="153.99" y1="214.119" x2="153.99" y2="210.613" class="gray" /></g>
<g><line x1="153.936" y1="206.56" x2="153.844" y2="203.052" class="gray" /></g>
<g><line x1="153.734" y1="199" x2="153.636" y2="195.492" class="gray" /></g>
<g><line x1="151.614" y1="192.973" x2="148.406" y2="192.169" class="gray" /></g>
<g><line x1="144.811" y1="190.47" x2="142.129" y2="188.482" class="gray" /></g>
<g><line x1="139.404" y1="185.571" x2="137.506" y2="182.621" class="gray" /></g>
<g><line x1="136.026" y1="178.926" x2="135.364" y2="175.486" class="gray" /></g>
<g><line x1="135.311" y1="171.496" x2="135.879" y2="168.065" class="gray" /></g>
<g><line x1="137.304" y1="164.36" x2="139.196" y2="161.412" class="gray" /></g>
<g><line x1="141.94" y1="158.528" x2="144.79" y2="156.493" class="gray" /></g>
<g><line x1="148.411" y1="154.846" x2="152.019" y2="153.986" class="gray" /></g>
<g><line x1="153.88" y1="151.492" x2="153.69" y2="147.98" class="gray" /></g>
<g><line x1="153.69" y1="143.932" x2="153.88" y2="140.42" class="gray" /></g>
<g><line x1="153.936" y1="136.37" x2="153.844" y2="132.862" class="gray" /></g>
<g><line x1="153.734" y1="128.81" x2="153.636" y2="125.302" class="gray" /></g>
<g><line x1="153.58" y1="121.249" x2="153.58" y2="117.743" class="gray" /></g>
<g><line x1="153.69" y1="113.692" x2="153.88" y2="110.18" class="gray" /></g>
<g><line x1="153.936" y1="106.13" x2="153.844" y2="102.622" class="gray" /></g>
<g><line x1="151.943" y1="99.7622" x2="148.747" y2="98.3198" class="gray" /></g>
<g><line x1="146.9" y1="95.4593" x2="146.9" y2="91.9527" class="gray" /></g>
<g><line x1="148.746" y1="89.09" x2="151.944" y2="87.642" class="gray" /></g>
<g><line x1="153.79" y1="84.7793" x2="153.79" y2="81.2727" class="gray" /></g>
<g><line x1="153.79" y1="77.2193" x2="153.79" y2="73.7127" class="gray" /></g>
<g><line x1="152.48" y1="70.1398" x2="150.21" y2="67.4621" class="gray" /></g>
<g><line x1="148.793" y1="63.8921" x2="148.607" y2="60.3899" class="gray" /></g>
<g><line x1="149.638" y1="56.6888" x2="151.602" y2="53.7932" class="gray" /></g>
<g><line x1="154.66" y1="51.4679" x2="157.99" y2="50.3441" class="gray" /></g>
<g><line x1="161.83" y1="50.3449" x2="165.15" y2="51.467" class="gray" /></g>
<g><line x1="168.21" y1="53.7919" x2="170.18" y2="56.69" class="gray" /></g>
<g><line x1="171.154" y1="60.3859" x2="170.866" y2="63.8961" class="gray" /></g>
<g><line x1="169.425" y1="67.4914" x2="167.305" y2="70.1106" class="gray" /></g>
<g><line x1="165.974" y1="73.7119" x2="165.876" y2="77.2201" class="gray" /></g>
<g><line x1="165.82" y1="81.2727" x2="165.82" y2="84.7793" class="gray" /></g>
<g><line x1="166.739" y1="88.6124" x2="168.411" y2="91.8996" class="gray" /></g>
<g><line x1="168.41" y1="95.5119" x2="166.74" y2="98.7901" class="gray" /></g>
<g><line x1="165.876" y1="102.622" x2="165.974" y2="106.13" class="gray" /></g>
<g><line x1="166.03" y1="110.183" x2="166.03" y2="113.689" class="gray" /></g>
<g><line x1="166.03" y1="117.743" x2="166.03" y2="121.249" class="gray" /></g>
<g><line x1="165.974" y1="125.302" x2="165.876" y2="128.81" class="gray" /></g>
<g><line x1="165.876" y1="132.862" x2="165.974" y2="136.37" class="gray" /></g>
<g><line x1="166.03" y1="140.423" x2="166.03" y2="143.929" class="gray" /></g>
<g><line x1="166.03" y1="147.983" x2="166.03" y2="151.489" class="gray" /></g>
<g><line x1="167.827" y1="154.452" x2="170.933" y2="156.07" class="gray" /></g>
<g><line x1="174.079" y1="158.519" x2="176.411" y2="161.133" class="gray" /></g>
<g><line x1="178.529" y1="164.521" x2="179.891" y2="167.841" class="gray" /></g>
<g><line x1="180.604" y1="171.742" x2="180.506" y2="175.25" class="gray" /></g>
<g><line x1="179.778" y1="179.188" x2="178.642" y2="182.424" class="gray" /></g>
<g><line x1="176.622" y1="185.85" x2="174.288" y2="188.472" class="gray" /></g>
<g><line x1="171.13" y1="190.898" x2="167.84" y2="192.554" class="gray" /></g>
<g><line x1="166.03" y1="195.493" x2="166.03" y2="198.999" class="gray" /></g>
<g><line x1="166.03" y1="203.053" x2="166.03" y2="206.559" class="gray" /></g>
<g><line x1="166.03" y1="210.613" x2="166.03" y2="214.119" class="gray" /></g>
<g><line x1="165.974" y1="218.172" x2="165.876" y2="221.68" class="gray" /></g>
<g><line x1="165.82" y1="225.733" x2="165.82" y2="229.239" class="gray" /></g>
<g><line x1="167.305" y1="232.645" x2="169.875" y2="235.033" class="gray" /></g>
<g><line x1="173.387" y1="236.412" x2="176.895" y2="236.412" class="gray" /></g>
<g><line x1="180.948" y1="236.412" x2="184.456" y2="236.412" class="gray" /></g>
<g><line x1="188.51" y1="236.412" x2="192.018" y2="236.412" class="gray" /></g>
<g><line x1="196.071" y1="236.412" x2="199.579" y2="236.412" class="gray" /></g>
<g><line x1="203.633" y1="236.412" x2="207.141" y2="236.412" class="gray" /></g>
<g><line x1="211.194" y1="236.412" x2="214.702" y2="236.412" class="gray" /></g>
<g><line x1="218.756" y1="236.412" x2="222.264" y2="236.412" class="gray" /></g>
</svg>
