<svg
	xmlns="http://www.w3.org/2000/svg"
	width="265.49"
	height="276.262">
<g><style type="text/css" >
<!-- create color definitions -->
<![CDATA[
circle.red {stroke: rgb(255, 0, 255); fill: none; }
circle.green {stroke: rgb(0, 255, 0); fill: none; }
circle.blue {stroke: rgb(0, 0, 255); fill: none; }
circle.black {stroke: rgb(0, 0, 0); fill: none; }
circle.gray {stroke: rgb(204, 204, 204); fill: none; }
circle.brown {stroke: rgb(211.65, 104.55, 30.6); fill: none; }
line.red {stroke: rgb(255, 0, 255); stroke-width: 0.382065; }
line.green {stroke: rgb(0, 255, 0); stroke-width: 0.382065; }
line.blue {stroke: rgb(0, 0, 255); stroke-width: 0.382065; }
line.black {stroke: rgb(0, 0, 0); stroke-width: 0.382065; }
line.gray {stroke: rgb(204, 204, 204); stroke-width: 0.382065; }
line.brown {stroke: rgb(211.65, 104.55, 30.6); stroke-width: 0.382065; }
line {stroke: rgb(0, 0, 0); }
text.red {fill: rgb(255, 0, 255); font-size: 3.056518px; font-weight: bold; font-family: Helvetica; }
text.green {fill: rgb(0, 255, 0); font-size: 3.056518px; font-weight: bold; font-family: Helvetica; }
text.blue {fill: rgb(0, 0, 255); font-size: 3.056518px; font-weight: bold; font-family: Helvetica; }
text.black {fill: rgb(0, 0, 0); font-size: 3.056518px; font-weight: bold; font-family: Helvetica; }
text.gray {fill: rgb(204, 204, 204); font-size: 3.056518px; font-weight: bold; font-family: Helvetica; }
text.brown {fill: rgb(211.65, 104.55, 30.6); font-size: 3.056518px; font-weight: bold; font-family: Helvetica; }
text {fill: rgb(0, 0, 0); font-size: 3.056518px; font-weight: bold; font-family: Helvetica; text-anchor: middle; alignment-baseline: middle; }

.pseudoknot_connection{stroke-linecap: round; stroke-opacity: 0.2; stroke-width: 1.5; }
.pseudoknot_segment1{stroke-linecap: round; stroke-opacity: 0.4; stroke-width: 3.05652; }
.pseudoknot_segment2{stroke-linecap: round; stroke-opacity: 0.4; stroke-width: 3.05652; }
line.numbering-line{stroke: rgb(204, 204, 204); stroke-width: 0.191032; }
line.predicted{stroke: rgb(0, 0, 0); stroke-dasharray: 2; }
polyline{fill: none; stroke-linejoin: round; }
template{visibility: hidden; }
text.numbering-label{fill: rgb(204, 204, 204); }
]]>
</style></g>
<g><title>0 (position.label in template: 0.5')</title><text x="72.4" y="228.471" class="green" >5'</text></g>
<g><title>1 (position.label in template: 1.G)</title><text x="72.4" y="220.91" class="black" >G</text></g>
<g><line x1="74.4377" y1="220.604" x2="82.8123" y2="220.604" class="black" /></g>
<g><title>2 (position.label in template: 2.G)</title><text x="72.4" y="213.35" class="black" >G</text></g>
<g><line x1="74.4377" y1="213.044" x2="82.8123" y2="213.044" class="black" /></g>
<g><title>3 (position.label in template: 3.A)</title><text x="72.82" y="205.79" class="green" >A</text></g>
<g><line x1="74.8577" y1="205.484" x2="82.8123" y2="205.484" class="black" /></g>
<g><title>4 (position.label in template: 4.U)</title><text x="72.61" y="198.23" class="green" >T</text></g>
<g><line x1="74.6477" y1="197.924" x2="83.0223" y2="197.924" class="black" /></g>
<g><title>5 (position.label in template: 5.G)</title><text x="72.4" y="190.67" class="black" >G</text></g>
<g><line x1="74.4377" y1="190.364" x2="82.8123" y2="190.364" class="black" /></g>
<g><title>6 (position.label in template: 6.C)</title><text x="72.61" y="183.11" class="black" >C</text></g>
<g><line x1="74.6477" y1="182.804" x2="82.6023" y2="182.804" class="black" /></g>
<g><title>7 (position.label in template: 7.G)</title><text x="72.4" y="175.55" class="green" >G</text></g>
<g><line x1="74.4377" y1="175.244" x2="82.8123" y2="175.244" class="black" /></g>
<g><title>8 (position.label in template: 8.A)</title><text x="72.82" y="167.99" class="green" >A</text></g>
<g><line x1="74.8577" y1="167.684" x2="82.8123" y2="167.684" class="black" /></g>
<g><title>9 (position.label in template: 9.U)</title><text x="72.61" y="160.43" class="green" >T</text></g>
<g><line x1="74.6477" y1="160.124" x2="82.6023" y2="160.124" class="black" /></g>
<g><title>10 (position.label in template: 10.C)</title><text x="66.35" y="156.18" class="black" >C</text></g>
<g><text x="61.2662" y="160.811" class="numbering-label sequential" >10</text></g>
<g><line x1="64.9943" y1="157.415" x2="62.9437" y2="159.283" class="numbering-line sequential" /></g>
<g><title>11 (position.label in template: 11.A)</title><text x="62.78" y="149.64" class="black" >A</text></g>
<g><title>12 (position.label in template: 12.U)</title><text x="62.03" y="142.1" class="green" >T</text></g>
<g><title>13 (position.label in template: 13.A)</title><text x="65.03" y="135.07" class="black" >A</text></g>
<g><title>14 (position.label in template: 14.C)</title><text x="70.4" y="129.97" class="black" >C</text></g>
<g><line x1="72.4155" y1="129.365" x2="80.2845" y2="128.194" class="black" /></g>
<g><title>15 (position.label in template: 15.C)</title><text x="69.31" y="122.49" class="black" >C</text></g>
<g><line x1="71.3255" y1="121.885" x2="79.1945" y2="120.714" class="black" /></g>
<g><title>16 (position.label in template: 16.A)</title><text x="68.42" y="115.01" class="green" >A</text></g>
<g><line x1="70.4355" y1="114.405" x2="78.3045" y2="113.234" class="black" /></g>
<g><title>17 (position.label in template: 17.G)</title><text x="66.91" y="107.53" class="black" >G</text></g>
<g><line x1="68.927" y1="106.935" x2="77.213" y2="105.744" class="black" /></g>
<g><title>18 (position.label in template: 18.C)</title><text x="66.03" y="100.05" class="black" >C</text></g>
<g><line x1="68.0463" y1="99.4497" x2="76.1237" y2="98.269" class="black" /></g>
<g><title>19 (position.label in template: 19.A)</title><text x="65.14" y="92.57" class="black" >A</text></g>
<g><line x1="67.1555" y1="91.9648" x2="75.0345" y2="90.7939" class="black" /></g>
<g><title>20 (position.label in template: 20.C)</title><text x="63.84" y="85.09" class="green" >C</text></g>
<g><line x1="65.8563" y1="84.4899" x2="73.9437" y2="83.3088" class="black" /></g>
<g><text x="58.4018" y="89.2997" class="numbering-label sequential" >20</text></g>
<g><line x1="62.3898" y1="86.2126" x2="60.3761" y2="87.7714" class="numbering-line sequential" /></g>
<g><title>21 (position.label in template: 21.U)</title><text x="56.95" y="81.99" class="green" >T</text></g>
<g><title>22 (position.label in template: 22.A)</title><text x="52.17" y="76.31" class="black" >A</text></g>
<g><title>23 (position.label in template: 23.A)</title><text x="50" y="69.07" class="black" >A</text></g>
<g><title>24 (position.label in template: 24.U)</title><text x="50.84" y="61.58" class="green" >T</text></g>
<g><title>25 (position.label in template: 25.G)</title><text x="54.69" y="55.2" class="black" >G</text></g>
<g><title>26 (position.label in template: 26.C)</title><text x="61.25" y="51.1" class="black" >C</text></g>
<g><title>27 (position.label in template: 27.A)</title><text x="68.93" y="50" class="black" >A</text></g>
<g><title>28 (position.label in template: 28.C)</title><text x="75.99" y="52.12" class="black" >C</text></g>
<g><title>29 (position.label in template: 29.C)</title><text x="81.7" y="57.07" class="black" >C</text></g>
<g><title>30 (position.label in template: 30.G)</title><text x="84.63" y="63.95" class="black" >G</text></g>
<g><text x="91.3707" y="62.5869" class="numbering-label sequential" >30</text></g>
<g><line x1="86.4275" y1="63.5865" x2="89.5368" y2="62.9578" class="numbering-line sequential" /></g>
<g><title>31 (position.label in template: 31.G)</title><text x="84.62" y="71.51" class="black" >G</text></g>
<g><title>32 (position.label in template: 32.A)</title><text x="81.89" y="78.38" class="black" >A</text></g>
<g><title>33 (position.label in template: 33.U)</title><text x="75.96" y="83.32" class="green" >T</text></g>
<g><title>34 (position.label in template: 34.C)</title><text x="77.05" y="90.8" class="black" >C</text></g>
<g><title>35 (position.label in template: 35.C)</title><text x="78.14" y="98.28" class="black" >C</text></g>
<g><title>36 (position.label in template: 36.C)</title><text x="79.23" y="105.76" class="black" >C</text></g>
<g><title>37 (position.label in template: 37.U)</title><text x="80.32" y="113.24" class="green" >T</text></g>
<g><title>38 (position.label in template: 38.U)</title><text x="87.35" y="116.03" class="green" >T</text></g>
<g><title>39 (position.label in template: 39.G)</title><text x="81.21" y="120.72" class="black" >G</text></g>
<g><title>40 (position.label in template: 40.G)</title><text x="82.3" y="128.2" class="black" >G</text></g>
<g><title>41 (position.label in template: 41.G)</title><text x="89.1" y="131.5" class="black" >G</text></g>
<g><title>42 (position.label in template: 42.C)</title><text x="94" y="137.43" class="black" >C</text></g>
<g><line x1="94.1133" y1="139.159" x2="94.5667" y2="147.3" class="black" /></g>
<g><title>43 (position.label in template: 43.G)</title><text x="101.33" y="136.88" class="black" >G</text></g>
<g><line x1="101.513" y1="138.604" x2="102.247" y2="146.755" class="black" /></g>
<g><title>44 (position.label in template: 44.A)</title><text x="109.29" y="136.33" class="green" >A</text></g>
<g><line x1="109.403" y1="138.059" x2="109.857" y2="146.2" class="black" /></g>
<g><title>45 (position.label in template: 45.G)</title><text x="116.41" y="135.79" class="black" >G</text></g>
<g><line x1="116.593" y1="137.514" x2="117.327" y2="145.655" class="black" /></g>
<g><title>46 (position.label in template: 46.A)</title><text x="118.08" y="128.33" class="black" >A</text></g>
<g><title>47 (position.label in template: 47.G)</title><text x="121.6" y="121.88" class="black" >G</text></g>
<g><title>48 (position.label in template: 48.U)</title><text x="127.87" y="117.35" class="green" >T</text></g>
<g><title>49 (position.label in template: 49.A)</title><text x="135.37" y="115.38" class="black" >A</text></g>
<g><title>50 (position.label in template: 50.G)</title><text x="142.46" y="116.27" class="black" >G</text></g>
<g><text x="144.571" y="109.725" class="numbering-label sequential" >50</text></g>
<g><line x1="143.023" y1="114.525" x2="144.078" y2="111.253" class="numbering-line sequential" /></g>
<g><title>51 (position.label in template: 51.U)</title><text x="149.32" y="119.88" class="green" >T</text></g>
<g><title>52 (position.label in template: 52.A)</title><text x="154.35" y="125.7" class="black" >A</text></g>
<g><title>53 (position.label in template: 53.C)</title><text x="156.47" y="132.89" class="black" >C</text></g>
<g><line x1="156.582" y1="134.619" x2="157.028" y2="142.76" class="black" /></g>
<g><title>54 (position.label in template: 54.U)</title><text x="164.01" y="132.35" class="green" >T</text></g>
<g><line x1="164.122" y1="134.079" x2="164.568" y2="142.21" class="black" /></g>
<g><title>55 (position.label in template: 55.A)</title><text x="171.75" y="131.8" class="green" >A</text></g>
<g><line x1="171.863" y1="133.529" x2="172.317" y2="141.67" class="black" /></g>
<g><title>56 (position.label in template: 56.G)</title><text x="178.88" y="131.25" class="black" >G</text></g>
<g><line x1="179.061" y1="132.974" x2="179.789" y2="141.125" class="black" /></g>
<g><title>57 (position.label in template: 57.G)</title><text x="186.42" y="130.7" class="black" >G</text></g>
<g><line x1="186.601" y1="132.424" x2="187.329" y2="140.575" class="black" /></g>
<g><title>58 (position.label in template: 58.A)</title><text x="186.28" y="123.16" class="black" >A</text></g>
<g><title>59 (position.label in template: 59.U)</title><text x="193.62" y="122.62" class="green" >T</text></g>
<g><title>60 (position.label in template: 60.G)</title><text x="193.96" y="130.16" class="black" >G</text></g>
<g><line x1="194.141" y1="131.884" x2="194.869" y2="140.025" class="black" /></g>
<g><title>61 (position.label in template: 61.G)</title><text x="201.5" y="129.61" class="black" >G</text></g>
<g><line x1="201.681" y1="131.334" x2="202.409" y2="139.485" class="black" /></g>
<g><title>62 (position.label in template: 62.G)</title><text x="208.56" y="126.92" class="black" >G</text></g>
<g><title>63 (position.label in template: 63.U)</title><text x="215.15" y="130.98" class="green" >T</text></g>
<g><title>64 (position.label in template: 64.G)</title><text x="215.49" y="138.52" class="black" >G</text></g>
<g><title>65 (position.label in template: 65.A)</title><text x="210.18" y="143.46" class="black" >A</text></g>
<g><title>66 (position.label in template: 66.C)</title><text x="202.59" y="141.82" class="black" >C</text></g>
<g><title>67 (position.label in template: 67.C)</title><text x="195.05" y="142.36" class="black" >C</text></g>
<g><title>68 (position.label in template: 68.C)</title><text x="187.51" y="142.91" class="black" >C</text></g>
<g><title>69 (position.label in template: 69.C)</title><text x="179.97" y="143.46" class="black" >C</text></g>
<g><title>70 (position.label in template: 70.U)</title><text x="172.43" y="144.01" class="green" >T</text></g>
<g><title>71 (position.label in template: 71.G)</title><text x="164.68" y="144.55" class="green" >G</text></g>
<g><title>72 (position.label in template: 72.G)</title><text x="157.14" y="145.1" class="black" >G</text></g>
<g><title>73 (position.label in template: 73.G)</title><text x="154.15" y="152.05" class="black" >G</text></g>
<g><title>74 (position.label in template: 74.A)</title><text x="149.3" y="157.47" class="black" >A</text></g>
<g><title>75 (position.label in template: 75.A)</title><text x="142.45" y="160.67" class="black" >A</text></g>
<g><title>76 (position.label in template: 76.G)</title><text x="134.49" y="161.21" class="black" >G</text></g>
<g><title>77 (position.label in template: 77.U)</title><text x="127.46" y="159.04" class="green" >T</text></g>
<g><title>78 (position.label in template: 78.C)</title><text x="121.47" y="154.43" class="black" >C</text></g>
<g><title>79 (position.label in template: 79.C)</title><text x="117.51" y="147.99" class="black" >C</text></g>
<g><title>80 (position.label in template: 80.U)</title><text x="109.97" y="148.54" class="green" >T</text></g>
<g><title>81 (position.label in template: 81.C)</title><text x="102.43" y="149.09" class="black" >C</text></g>
<g><title>82 (position.label in template: 82.G)</title><text x="94.68" y="149.64" class="black" >G</text></g>
<g><title>83 (position.label in template: 83.U)</title><text x="91.11" y="156.18" class="green" >T</text></g>
<g><title>84 (position.label in template: 84.G)</title><text x="84.64" y="160.43" class="green" >G</text></g>
<g><title>85 (position.label in template: 85.U)</title><text x="84.85" y="167.99" class="green" >T</text></g>
<g><title>86 (position.label in template: 86.U)</title><text x="84.85" y="175.55" class="green" >T</text></g>
<g><title>87 (position.label in template: 87.G)</title><text x="84.64" y="183.11" class="black" >G</text></g>
<g><title>88 (position.label in template: 88.C)</title><text x="84.85" y="190.67" class="black" >C</text></g>
<g><title>89 (position.label in template: 89.A)</title><text x="85.06" y="198.23" class="green" >A</text></g>
<g><title>90 (position.label in template: 90.U)</title><text x="84.85" y="205.79" class="green" >T</text></g>
<g><title>91 (position.label in template: 91.C)</title><text x="84.85" y="213.35" class="black" >C</text></g>
<g><title>92 (position.label in template: 92.C)</title><text x="84.85" y="220.91" class="black" >C</text></g>
<g><title>93 (position.label in template: 93.C)</title><text x="90.1916" y="226.262" class="black" >C</text></g>
<g><title>94 (position.label in template: 94.3')</title><text x="90.0925" y="233.822" class="green" >3'</text></g>
<g><line x1="72.4" y1="226.128" x2="72.4" y2="222.642" class="gray" /></g>
<g><line x1="72.4" y1="218.567" x2="72.4" y2="215.082" class="gray" /></g>
<g><line x1="72.513" y1="211.01" x2="72.707" y2="207.519" class="gray" /></g>
<g><line x1="72.7634" y1="203.447" x2="72.6666" y2="199.961" class="gray" /></g>
<g><line x1="72.5534" y1="195.887" x2="72.4566" y2="192.401" class="gray" /></g>
<g><line x1="72.4566" y1="188.327" x2="72.5534" y2="184.841" class="gray" /></g>
<g><line x1="72.5534" y1="180.767" x2="72.4566" y2="177.281" class="gray" /></g>
<g><line x1="72.513" y1="173.21" x2="72.707" y2="169.719" class="gray" /></g>
<g><line x1="72.7634" y1="165.647" x2="72.6666" y2="162.161" class="gray" /></g>
<g><line x1="70.9241" y1="158.98" x2="68.0359" y2="157.019" class="gray" /></g>
<g><line x1="65.3737" y1="154.086" x2="63.7563" y2="151.123" class="gray" /></g>
<g><line x1="62.5783" y1="147.307" x2="62.2317" y2="143.822" class="gray" /></g>
<g><line x1="62.8298" y1="139.92" x2="64.2302" y2="136.639" class="gray" /></g>
<g><line x1="66.5075" y1="133.361" x2="68.9225" y2="131.068" class="gray" /></g>
<g><line x1="70.1062" y1="127.648" x2="69.6038" y2="124.201" class="gray" /></g>
<g><line x1="69.0692" y1="120.161" x2="68.6608" y2="116.728" class="gray" /></g>
<g><line x1="68.0168" y1="112.707" x2="67.3132" y2="109.222" class="gray" /></g>
<g><line x1="66.6719" y1="105.201" x2="66.2681" y2="101.768" class="gray" /></g>
<g><line x1="65.7892" y1="97.7209" x2="65.3808" y2="94.2878" class="gray" /></g>
<g><line x1="64.7911" y1="90.2568" x2="64.1889" y2="86.7919" class="gray" /></g>
<g><line x1="61.9817" y1="83.9483" x2="58.8083" y2="82.5204" class="gray" /></g>
<g><line x1="55.638" y1="80.1253" x2="53.482" y2="77.5634" class="gray" /></g>
<g><line x1="51.585" y1="74.0525" x2="50.585" y2="70.7162" class="gray" /></g>
<g><line x1="50.2271" y1="66.7394" x2="50.6129" y2="63.2993" class="gray" /></g>
<g><line x1="51.8928" y1="59.5297" x2="53.6372" y2="56.639" class="gray" /></g>
<g><line x1="56.4179" y1="53.8144" x2="59.5221" y2="51.8743" class="gray" /></g>
<g><line x1="63.2671" y1="50.5054" x2="66.9129" y2="49.9833" class="gray" /></g>
<g><line x1="70.8816" y1="50.2804" x2="74.0384" y2="51.2283" class="gray" /></g>
<g><line x1="77.5297" y1="53.1491" x2="80.1603" y2="55.4296" class="gray" /></g>
<g><line x1="82.4984" y1="58.6391" x2="83.8316" y2="61.7696" class="gray" /></g>
<g><line x1="84.6273" y1="65.682" x2="84.6227" y2="69.1667" class="gray" /></g>
<g><line x1="83.8675" y1="73.098" x2="82.6425" y2="76.1807" class="gray" /></g>
<g><line x1="80.3244" y1="79.3786" x2="77.5256" y2="81.7101" class="gray" /></g>
<g><line x1="76.2538" y1="85.0307" x2="76.7562" y2="88.478" class="gray" /></g>
<g><line x1="77.3438" y1="92.5107" x2="77.8462" y2="95.958" class="gray" /></g>
<g><line x1="78.4338" y1="99.9907" x2="78.9362" y2="103.438" class="gray" /></g>
<g><line x1="79.5238" y1="107.471" x2="80.0262" y2="110.918" class="gray" /></g>
<g><line x1="82.214" y1="113.686" x2="85.456" y2="114.973" class="gray" /></g>
<g><line x1="85.7307" y1="116.961" x2="82.8293" y2="119.177" class="gray" /></g>
<g><line x1="81.5038" y1="122.431" x2="82.0062" y2="125.878" class="gray" /></g>
<g><line x1="84.1332" y1="128.784" x2="87.2668" y2="130.305" class="gray" /></g>
<g><line x1="90.398" y1="132.765" x2="92.702" y2="135.554" class="gray" /></g>
<g><line x1="96.032" y1="136.972" x2="99.298" y2="136.727" class="gray" /></g>
<g><line x1="103.363" y1="136.434" x2="107.257" y2="136.165" class="gray" /></g>
<g><line x1="111.322" y1="135.87" x2="114.378" y2="135.638" class="gray" /></g>
<g><line x1="116.855" y1="133.496" x2="117.635" y2="130.013" class="gray" /></g>
<g><line x1="119.056" y1="126.236" x2="120.624" y2="123.363" class="gray" /></g>
<g><line x1="123.252" y1="120.381" x2="126.218" y2="118.238" class="gray" /></g>
<g><line x1="129.841" y1="116.527" x2="133.399" y2="115.592" class="gray" /></g>
<g><line x1="137.392" y1="115.328" x2="140.438" y2="115.711" class="gray" /></g>
<g><line x1="144.263" y1="116.913" x2="147.517" y2="118.625" class="gray" /></g>
<g><line x1="150.652" y1="121.116" x2="153.018" y2="123.853" class="gray" /></g>
<g><line x1="154.926" y1="127.349" x2="155.894" y2="130.63" class="gray" /></g>
<g><line x1="158.502" y1="132.439" x2="161.978" y2="132.19" class="gray" /></g>
<g><line x1="166.043" y1="131.9" x2="169.717" y2="131.639" class="gray" /></g>
<g><line x1="173.782" y1="131.338" x2="176.848" y2="131.101" class="gray" /></g>
<g><line x1="180.912" y1="130.796" x2="184.388" y2="130.543" class="gray" /></g>
<g><line x1="186.382" y1="128.357" x2="186.318" y2="124.892" class="gray" /></g>
<g><line x1="188.312" y1="122.705" x2="191.588" y2="122.464" class="gray" /></g>
<g><line x1="193.712" y1="124.35" x2="193.868" y2="127.819" class="gray" /></g>
<g><line x1="195.992" y1="129.706" x2="199.468" y2="129.453" class="gray" /></g>
<g><line x1="203.404" y1="128.579" x2="206.656" y2="127.34" class="gray" /></g>
<g><line x1="210.295" y1="127.683" x2="213.415" y2="129.606" class="gray" /></g>
<g><line x1="215.242" y1="132.71" x2="215.398" y2="136.179" class="gray" /></g>
<g><line x1="213.998" y1="139.602" x2="211.672" y2="141.766" class="gray" /></g>
<g><line x1="208.188" y1="142.724" x2="204.582" y2="141.945" class="gray" /></g>
<g><line x1="200.558" y1="141.66" x2="197.082" y2="141.909" class="gray" /></g>
<g><line x1="193.018" y1="142.203" x2="189.542" y2="142.456" class="gray" /></g>
<g><line x1="185.478" y1="142.753" x2="182.002" y2="143.006" class="gray" /></g>
<g><line x1="177.938" y1="143.303" x2="174.462" y2="143.556" class="gray" /></g>
<g><line x1="170.397" y1="143.846" x2="166.713" y2="144.103" class="gray" /></g>
<g><line x1="162.648" y1="144.393" x2="159.172" y2="144.646" class="gray" /></g>
<g><line x1="156.335" y1="146.666" x2="154.955" y2="149.873" class="gray" /></g>
<g><line x1="152.791" y1="153.263" x2="150.659" y2="155.646" class="gray" /></g>
<g><line x1="147.454" y1="158.027" x2="144.296" y2="159.502" class="gray" /></g>
<g><line x1="140.417" y1="160.502" x2="136.523" y2="160.766" class="gray" /></g>
<g><line x1="132.543" y1="160.303" x2="129.407" y2="159.335" class="gray" /></g>
<g><line x1="125.845" y1="157.492" x2="123.085" y2="155.367" class="gray" /></g>
<g><line x1="120.403" y1="152.389" x2="118.577" y2="149.42" class="gray" /></g>
<g><line x1="115.478" y1="147.833" x2="112.002" y2="148.086" class="gray" /></g>
<g><line x1="107.938" y1="148.383" x2="104.462" y2="148.636" class="gray" /></g>
<g><line x1="100.397" y1="148.929" x2="96.7126" y2="149.19" class="gray" /></g>
<g><line x1="93.7037" y1="151.123" x2="92.0863" y2="154.086" class="gray" /></g>
<g><line x1="89.4069" y1="156.993" x2="86.3431" y2="159.006" class="gray" /></g>
<g><line x1="84.6966" y1="162.161" x2="84.7934" y2="165.647" class="gray" /></g>
<g><line x1="84.85" y1="169.722" x2="84.85" y2="173.207" class="gray" /></g>
<g><line x1="84.7934" y1="177.281" x2="84.6966" y2="180.767" class="gray" /></g>
<g><line x1="84.6966" y1="184.841" x2="84.7934" y2="188.327" class="gray" /></g>
<g><line x1="84.9066" y1="192.401" x2="85.0034" y2="195.887" class="gray" /></g>
<g><line x1="85.0034" y1="199.961" x2="84.9066" y2="203.447" class="gray" /></g>
<g><line x1="84.85" y1="207.522" x2="84.85" y2="211.007" class="gray" /></g>
<g><line x1="84.85" y1="215.082" x2="84.85" y2="218.567" class="gray" /></g>
<g><line x1="86.2895" y1="222.047" x2="88.7521" y2="224.514" class="gray" /></g>
<g><line x1="90.1649" y1="227.993" x2="90.1192" y2="231.479" class="gray" /></g>
</svg>
