<svg
	xmlns="http://www.w3.org/2000/svg"
	width="241.74"
	height="234.23">
<g><style type="text/css" >
<!-- create color definitions -->
<![CDATA[
circle.red {stroke: rgb(255, 0, 255); fill: none; }
circle.green {stroke: rgb(0, 255, 0); fill: none; }
circle.blue {stroke: rgb(0, 0, 255); fill: none; }
circle.black {stroke: rgb(0, 0, 0); fill: none; }
circle.gray {stroke: rgb(204, 204, 204); fill: none; }
circle.brown {stroke: rgb(211.65, 104.55, 30.6); fill: none; }
line.red {stroke: rgb(255, 0, 255); stroke-width: 0.381718; }
line.green {stroke: rgb(0, 255, 0); stroke-width: 0.381718; }
line.blue {stroke: rgb(0, 0, 255); stroke-width: 0.381718; }
line.black {stroke: rgb(0, 0, 0); stroke-width: 0.381718; }
line.gray {stroke: rgb(204, 204, 204); stroke-width: 0.381718; }
line.brown {stroke: rgb(211.65, 104.55, 30.6); stroke-width: 0.381718; }
line {stroke: rgb(0, 0, 0); }
text.red {fill: rgb(255, 0, 255); font-size: 3.053745px; font-weight: bold; font-family: Helvetica; }
text.green {fill: rgb(0, 255, 0); font-size: 3.053745px; font-weight: bold; font-family: Helvetica; }
text.blue {fill: rgb(0, 0, 255); font-size: 3.053745px; font-weight: bold; font-family: Helvetica; }
text.black {fill: rgb(0, 0, 0); font-size: 3.053745px; font-weight: bold; font-family: Helvetica; }
text.gray {fill: rgb(204, 204, 204); font-size: 3.053745px; font-weight: bold; font-family: Helvetica; }
text.brown {fill: rgb(211.65, 104.55, 30.6); font-size: 3.053745px; font-weight: bold; font-family: Helvetica; }
text {fill: rgb(0, 0, 0); font-size: 3.053745px; font-weight: bold; font-family: Helvetica; text-anchor: middle; alignment-baseline: middle; }

.pseudoknot_connection{stroke-linecap: round; stroke-opacity: 0.2; stroke-width: 1.5; }
.pseudoknot_segment1{stroke-linecap: round; stroke-opacity: 0.4; stroke-width: 3.05374; }
.pseudoknot_segment2{stroke-linecap: round; stroke-opacity: 0.4; stroke-width: 3.05374; }
line.numbering-line{stroke: rgb(204, 204, 204); stroke-width: 0.190859; }
line.predicted{stroke: rgb(0, 0, 0); stroke-dasharray: 2; }
polyline{fill: none; stroke-linejoin: round; }
template{visibility: hidden; }
text.numbering-label{fill: rgb(204, 204, 204); }
]]>
</style></g>
<g><title>0 (position.label in template: 0.5')</title><text x="110.99" y="184.23" class="green" >5'</text></g>
<g><title>1 (position.label in template: 1.G)</title><text x="117.99" y="184.23" class="black" >G</text></g>
<g><line x1="120.026" y1="183.925" x2="128.404" y2="183.925" class="black" /></g>
<g><title>2 (position.label in template: 2.U)</title><text x="118.2" y="176.67" class="green" >T</text></g>
<g><line x1="120.236" y1="176.365" x2="128.614" y2="176.365" class="black" /></g>
<g><title>3 (position.label in template: 3.A)</title><text x="118.41" y="169.11" class="green" >A</text></g>
<g><line x1="120.446" y1="168.805" x2="128.404" y2="168.805" class="black" /></g>
<g><title>4 (position.label in template: 4.U)</title><text x="118.2" y="161.55" class="green" >T</text></g>
<g><line x1="120.236" y1="161.245" x2="128.614" y2="161.245" class="black" /></g>
<g><title>5 (position.label in template: 5.U)</title><text x="118.2" y="153.99" class="green" >T</text></g>
<g><line x1="120.236" y1="153.685" x2="128.614" y2="153.685" class="black" /></g>
<g><title>6 (position.label in template: 6.U)</title><text x="118.2" y="146.43" class="green" >T</text></g>
<g><line x1="120.236" y1="146.125" x2="128.614" y2="146.125" class="black" /></g>
<g><title>7 (position.label in template: 7.U)</title><text x="118.2" y="138.87" class="green" >T</text></g>
<g><line x1="120.236" y1="138.565" x2="128.614" y2="138.565" class="black" /></g>
<g><title>8 (position.label in template: 8.C)</title><text x="118.2" y="131.31" class="black" >C</text></g>
<g><line x1="120.236" y1="131.005" x2="128.404" y2="131.005" class="black" /></g>
<g><title>9 (position.label in template: 9.A)</title><text x="111.68" y="127.87" class="black" >A</text></g>
<g><title>10 (position.label in template: 10.A)</title><text x="106.57" y="122.29" class="black" >A</text></g>
<g><text x="100.842" y="126.084" class="numbering-label sequential" >10</text></g>
<g><line x1="105.042" y1="123.302" x2="102.674" y2="124.871" class="numbering-line sequential" /></g>
<g><title>11 (position.label in template: 11.G)</title><text x="103.34" y="115.28" class="black" >G</text></g>
<g><line x1="103.556" y1="112.95" x2="104.424" y2="104.809" class="black" /></g>
<g><title>12 (position.label in template: 12.U)</title><text x="96.02" y="114.6" class="green" >T</text></g>
<g><line x1="96.2359" y1="112.27" x2="97.1041" y2="104.129" class="black" /></g>
<g><title>13 (position.label in template: 13.A)</title><text x="88.7" y="113.92" class="green" >A</text></g>
<g><line x1="88.8466" y1="111.584" x2="89.4334" y2="103.455" class="black" /></g>
<g><title>14 (position.label in template: 14.G)</title><text x="80.75" y="113.25" class="black" >G</text></g>
<g><line x1="80.9659" y1="110.92" x2="81.8341" y2="102.779" class="black" /></g>
<g><title>15 (position.label in template: 15.A)</title><text x="73.64" y="112.57" class="black" >A</text></g>
<g><line x1="73.7517" y1="110.232" x2="74.1983" y2="102.107" class="black" /></g>
<g><title>16 (position.label in template: 16.G)</title><text x="67.42" y="117.42" class="black" >G</text></g>
<g><title>17 (position.label in template: 17.A)</title><text x="60.32" y="118.24" class="black" >A</text></g>
<g><title>18 (position.label in template: 18.U)</title><text x="53.42" y="114.73" class="green" >T</text></g>
<g><title>19 (position.label in template: 19.A)</title><text x="50" y="108.1" class="black" >A</text></g>
<g><title>20 (position.label in template: 20.A)</title><text x="50.68" y="100.57" class="black" >A</text></g>
<g><text x="44.2436" y="98.1653" class="numbering-label sequential" >20</text></g>
<g><line x1="48.9636" y1="99.9288" x2="46.0758" y2="98.8499" class="numbering-line sequential" /></g>
<g><title>21 (position.label in template: 21.G)</title><text x="55.01" y="94.69" class="black" >G</text></g>
<g><title>22 (position.label in template: 22.C)</title><text x="62.43" y="92.43" class="black" >C</text></g>
<g><title>23 (position.label in template: 23.U)</title><text x="69.69" y="94.57" class="green" >T</text></g>
<g><title>24 (position.label in template: 24.G)</title><text x="74.31" y="100.38" class="black" >G</text></g>
<g><title>25 (position.label in template: 25.C)</title><text x="82.05" y="101.06" class="black" >C</text></g>
<g><title>26 (position.label in template: 26.U)</title><text x="89.58" y="101.73" class="green" >T</text></g>
<g><title>27 (position.label in template: 27.A)</title><text x="97.32" y="102.41" class="green" >A</text></g>
<g><title>28 (position.label in template: 28.C)</title><text x="104.64" y="103.09" class="black" >C</text></g>
<g><title>29 (position.label in template: 29.G)</title><text x="108.46" y="96.69" class="black" >G</text></g>
<g><title>30 (position.label in template: 30.C)</title><text x="114.68" y="92.1" class="black" >C</text></g>
<g><line x1="116.682" y1="91.426" x2="124.518" y2="89.9833" class="black" /></g>
<g><text x="108.351" y="89.4252" class="numbering-label sequential" >30</text></g>
<g><line x1="112.992" y1="91.3867" x2="110.183" y2="90.1996" class="numbering-line sequential" /></g>
<g><title>31 (position.label in template: 31.A)</title><text x="113.54" y="84.67" class="green" >A</text></g>
<g><line x1="115.542" y1="83.9943" x2="123.378" y2="82.5449" class="black" /></g>
<g><title>32 (position.label in template: 32.C)</title><text x="111.99" y="77.23" class="black" >C</text></g>
<g><line x1="113.992" y1="76.5557" x2="121.818" y2="75.1136" class="black" /></g>
<g><title>33 (position.label in template: 33.C)</title><text x="110.64" y="69.79" class="black" >C</text></g>
<g><line x1="112.642" y1="69.1157" x2="120.468" y2="67.6736" class="black" /></g>
<g><title>34 (position.label in template: 34.C)</title><text x="109.29" y="62.35" class="black" >C</text></g>
<g><line x1="111.292" y1="61.676" x2="119.128" y2="60.2333" class="black" /></g>
<g><title>35 (position.label in template: 35.U)</title><text x="107.59" y="54.98" class="green" >T</text></g>
<g><title>36 (position.label in template: 36.C)</title><text x="113.28" y="50" class="black" >C</text></g>
<g><title>37 (position.label in template: 37.U)</title><text x="120.35" y="52.67" class="green" >T</text></g>
<g><title>38 (position.label in template: 38.G)</title><text x="121.13" y="60.17" class="black" >G</text></g>
<g><title>39 (position.label in template: 39.G)</title><text x="122.47" y="67.61" class="black" >G</text></g>
<g><title>40 (position.label in template: 40.G)</title><text x="123.82" y="75.05" class="black" >G</text></g>
<g><title>41 (position.label in template: 41.U)</title><text x="125.38" y="82.48" class="green" >T</text></g>
<g><title>42 (position.label in template: 42.C)</title><text x="130.35" y="76.79" class="black" >C</text></g>
<g><title>43 (position.label in template: 43.A)</title><text x="138.11" y="77.13" class="black" >A</text></g>
<g><title>44 (position.label in template: 44.A)</title><text x="142.56" y="83.25" class="black" >A</text></g>
<g><title>45 (position.label in template: 45.A)</title><text x="140.54" y="90.54" class="black" >A</text></g>
<g><title>46 (position.label in template: 46.A)</title><text x="133.59" y="93.51" class="black" >A</text></g>
<g><title>47 (position.label in template: 47.G)</title><text x="126.52" y="89.92" class="black" >G</text></g>
<g><title>48 (position.label in template: 48.A)</title><text x="134.17" y="92.1" class="black" >A</text></g>
<g><title>49 (position.label in template: 49.A)</title><text x="140.18" y="96.69" class="black" >A</text></g>
<g><title>50 (position.label in template: 50.A)</title><text x="144.21" y="103.09" class="black" >A</text></g>
<g><text x="150.616" y="100.606" class="numbering-label sequential" >50</text></g>
<g><line x1="145.918" y1="102.428" x2="148.784" y2="101.317" class="numbering-line sequential" /></g>
<g><title>51 (position.label in template: 51.U)</title><text x="145.53" y="110.49" class="green" >T</text></g>
<g><title>52 (position.label in template: 52.G)</title><text x="144.15" y="117.96" class="black" >G</text></g>
<g><line x1="142.979" y1="119.32" x2="138.351" y2="125.899" class="black" /></g>
<g><title>53 (position.label in template: 53.U)</title><text x="150.48" y="122.4" class="green" >T</text></g>
<g><line x1="149.308" y1="123.759" x2="144.672" y2="130.34" class="black" /></g>
<g><title>54 (position.label in template: 54.G)</title><text x="156.39" y="126.83" class="black" >G</text></g>
<g><line x1="155.219" y1="128.19" x2="150.591" y2="134.769" class="black" /></g>
<g><title>55 (position.label in template: 55.G)</title><text x="162.51" y="131.27" class="black" >G</text></g>
<g><line x1="161.339" y1="132.63" x2="156.711" y2="139.209" class="black" /></g>
<g><title>56 (position.label in template: 56.G)</title><text x="168.64" y="135.7" class="black" >G</text></g>
<g><line x1="167.468" y1="137.059" x2="162.832" y2="143.64" class="black" /></g>
<g><title>57 (position.label in template: 57.A)</title><text x="176.31" y="133.57" class="black" >A</text></g>
<g><title>58 (position.label in template: 58.A)</title><text x="183.7" y="135.15" class="black" >A</text></g>
<g><title>59 (position.label in template: 59.A)</title><text x="189.44" y="140.07" class="black" >A</text></g>
<g><title>60 (position.label in template: 60.G)</title><text x="191.74" y="147.13" class="black" >G</text></g>
<g><title>61 (position.label in template: 61.G)</title><text x="190.75" y="154.62" class="black" >G</text></g>
<g><title>62 (position.label in template: 62.G)</title><text x="186.32" y="160.74" class="black" >G</text></g>
<g><title>63 (position.label in template: 63.C)</title><text x="179.71" y="164.01" class="black" >C</text></g>
<g><title>64 (position.label in template: 64.A)</title><text x="172.37" y="163.63" class="black" >A</text></g>
<g><title>65 (position.label in template: 65.C)</title><text x="165.7" y="159.7" class="black" >C</text></g>
<g><title>66 (position.label in template: 66.A)</title><text x="162.1" y="153.17" class="black" >A</text></g>
<g><title>67 (position.label in template: 67.C)</title><text x="161.66" y="145.61" class="black" >C</text></g>
<g><title>68 (position.label in template: 68.C)</title><text x="155.54" y="141.18" class="black" >C</text></g>
<g><title>69 (position.label in template: 69.C)</title><text x="149.42" y="136.74" class="black" >C</text></g>
<g><title>70 (position.label in template: 70.A)</title><text x="143.5" y="132.31" class="green" >A</text></g>
<g><title>71 (position.label in template: 71.C)</title><text x="137.18" y="127.87" class="black" >C</text></g>
<g><title>72 (position.label in template: 72.C)</title><text x="130.44" y="131.31" class="black" >C</text></g>
<g><title>73 (position.label in template: 73.A)</title><text x="130.65" y="138.87" class="green" >A</text></g>
<g><title>74 (position.label in template: 74.A)</title><text x="130.65" y="146.43" class="green" >A</text></g>
<g><title>75 (position.label in template: 75.A)</title><text x="130.65" y="153.99" class="green" >A</text></g>
<g><title>76 (position.label in template: 76.A)</title><text x="130.65" y="161.55" class="green" >A</text></g>
<g><title>77 (position.label in template: 77.U)</title><text x="130.44" y="169.11" class="green" >T</text></g>
<g><title>78 (position.label in template: 78.A)</title><text x="130.65" y="176.67" class="green" >A</text></g>
<g><title>79 (position.label in template: 79.C)</title><text x="130.44" y="184.23" class="black" >C</text></g>
<g><title>80 (position.label in template: 80.3')</title><text x="137.44" y="184.23" class="green" >3'</text></g>
<g><line x1="113.026" y1="183.925" x2="115.954" y2="183.925" class="gray" /></g>
<g><line x1="118.047" y1="181.89" x2="118.143" y2="178.4" class="gray" /></g>
<g><line x1="118.257" y1="174.33" x2="118.353" y2="170.84" class="gray" /></g>
<g><line x1="118.353" y1="166.77" x2="118.257" y2="163.28" class="gray" /></g>
<g><line x1="118.2" y1="159.209" x2="118.2" y2="155.72" class="gray" /></g>
<g><line x1="118.2" y1="151.649" x2="118.2" y2="148.16" class="gray" /></g>
<g><line x1="118.2" y1="144.089" x2="118.2" y2="140.6" class="gray" /></g>
<g><line x1="118.2" y1="136.529" x2="118.2" y2="133.04" class="gray" /></g>
<g><line x1="116.399" y1="130.055" x2="113.481" y2="128.515" class="gray" /></g>
<g><line x1="110.305" y1="126.063" x2="107.945" y2="123.486" class="gray" /></g>
<g><line x1="105.718" y1="120.136" x2="104.192" y2="116.824" class="gray" /></g>
<g><line x1="101.313" y1="114.786" x2="98.0471" y2="114.483" class="gray" /></g>
<g><line x1="93.9929" y1="114.106" x2="90.7271" y2="113.803" class="gray" /></g>
<g><line x1="86.6714" y1="113.444" x2="82.7786" y2="113.116" class="gray" /></g>
<g><line x1="78.7234" y1="112.751" x2="75.6666" y2="112.458" class="gray" /></g>
<g><line x1="72.0345" y1="113.516" x2="69.0255" y2="115.863" class="gray" /></g>
<g><line x1="65.3976" y1="117.348" x2="62.3424" y2="117.701" class="gray" /></g>
<g><line x1="58.5055" y1="117.012" x2="55.2345" y2="115.348" class="gray" /></g>
<g><line x1="52.4867" y1="112.615" x2="50.9333" y2="109.604" class="gray" /></g>
<g><line x1="50.1831" y1="105.767" x2="50.4969" y2="102.292" class="gray" /></g>
<g><line x1="51.8872" y1="98.6253" x2="53.8028" y2="96.0239" class="gray" /></g>
<g><line x1="56.9575" y1="93.7915" x2="60.4825" y2="92.7178" class="gray" /></g>
<g><line x1="64.3828" y1="92.7002" x2="67.7372" y2="93.689" class="gray" /></g>
<g><line x1="70.9571" y1="95.8581" x2="73.0429" y2="98.4812" class="gray" /></g>
<g><line x1="76.338" y1="100.253" x2="80.022" y2="100.576" class="gray" /></g>
<g><line x1="84.0778" y1="100.935" x2="87.5522" y2="101.244" class="gray" /></g>
<g><line x1="91.608" y1="101.603" x2="95.292" y2="101.926" class="gray" /></g>
<g><line x1="99.3471" y1="102.293" x2="102.613" y2="102.596" class="gray" /></g>
<g><line x1="105.683" y1="101.037" x2="107.417" y2="98.1327" class="gray" /></g>
<g><line x1="110.098" y1="95.1758" x2="113.042" y2="93.0034" class="gray" /></g>
<g><line x1="114.371" y1="89.7823" x2="113.849" y2="86.3769" class="gray" /></g>
<g><line x1="113.125" y1="82.3716" x2="112.405" y2="78.9177" class="gray" /></g>
<g><line x1="111.627" y1="74.9215" x2="111.003" y2="71.4877" class="gray" /></g>
<g><line x1="110.277" y1="67.4815" x2="109.653" y2="64.0477" class="gray" /></g>
<g><line x1="108.832" y1="60.0609" x2="108.048" y2="56.6584" class="gray" /></g>
<g><line x1="109.122" y1="53.3338" x2="111.748" y2="51.0354" class="gray" /></g>
<g><line x1="115.185" y1="50.4139" x2="118.445" y2="51.6454" class="gray" /></g>
<g><line x1="120.561" y1="54.3895" x2="120.919" y2="57.8397" class="gray" /></g>
<g><line x1="121.491" y1="61.8682" x2="122.109" y2="65.301" class="gray" /></g>
<g><line x1="122.833" y1="69.3077" x2="123.457" y2="72.7415" class="gray" /></g>
<g><line x1="124.238" y1="76.737" x2="124.962" y2="80.1822" class="gray" /></g>
<g><line x1="126.719" y1="80.6413" x2="129.011" y2="78.0179" class="gray" /></g>
<g><line x1="132.384" y1="76.5737" x2="136.076" y2="76.7355" class="gray" /></g>
<g><line x1="139.307" y1="78.4712" x2="141.363" y2="81.2981" class="gray" /></g>
<g><line x1="142.016" y1="84.9065" x2="141.084" y2="88.2727" class="gray" /></g>
<g><line x1="138.668" y1="91.0346" x2="135.462" y2="92.4046" class="gray" /></g>
<g><line x1="131.775" y1="92.2829" x2="128.335" y2="90.5364" class="gray" /></g>
<g><line x1="128.478" y1="90.1726" x2="132.212" y2="91.2367" class="gray" /></g>
<g><line x1="135.788" y1="93.0303" x2="138.562" y2="95.149" class="gray" /></g>
<g><line x1="141.265" y1="98.1074" x2="143.125" y2="101.062" class="gray" /></g>
<g><line x1="144.568" y1="104.789" x2="145.172" y2="108.18" class="gray" /></g>
<g><line x1="145.16" y1="112.187" x2="144.52" y2="115.653" class="gray" /></g>
<g><line x1="145.817" y1="118.824" x2="148.813" y2="120.926" class="gray" /></g>
<g><line x1="152.109" y1="123.316" x2="154.761" y2="125.304" class="gray" /></g>
<g><line x1="158.038" y1="127.72" x2="160.862" y2="129.769" class="gray" /></g>
<g><line x1="164.16" y1="132.157" x2="166.99" y2="134.202" class="gray" /></g>
<g><line x1="170.602" y1="134.85" x2="174.348" y2="133.809" class="gray" /></g>
<g><line x1="178.301" y1="133.69" x2="181.709" y2="134.419" class="gray" /></g>
<g><line x1="185.246" y1="136.17" x2="187.894" y2="138.44" class="gray" /></g>
<g><line x1="190.071" y1="141.7" x2="191.109" y2="144.889" class="gray" /></g>
<g><line x1="191.473" y1="148.843" x2="191.017" y2="152.296" class="gray" /></g>
<g><line x1="189.556" y1="155.964" x2="187.514" y2="158.786" class="gray" /></g>
<g><line x1="184.495" y1="161.337" x2="181.535" y2="162.802" class="gray" /></g>
<g><line x1="177.677" y1="163.599" x2="174.403" y2="163.43" class="gray" /></g>
<g><line x1="170.616" y1="162.291" x2="167.454" y2="160.428" class="gray" /></g>
<g><line x1="164.717" y1="157.612" x2="163.083" y2="154.647" class="gray" /></g>
<g><line x1="161.982" y1="150.832" x2="161.778" y2="147.337" class="gray" /></g>
<g><line x1="160.011" y1="144.111" x2="157.189" y2="142.068" class="gray" /></g>
<g><line x1="153.892" y1="139.679" x2="151.068" y2="137.63" class="gray" /></g>
<g><line x1="147.79" y1="135.215" x2="145.13" y2="133.224" class="gray" /></g>
<g><line x1="141.834" y1="130.834" x2="138.846" y2="128.735" class="gray" /></g>
<g><line x1="135.367" y1="128.49" x2="132.253" y2="130.079" class="gray" /></g>
<g><line x1="130.497" y1="133.04" x2="130.593" y2="136.53" class="gray" /></g>
<g><line x1="130.65" y1="140.6" x2="130.65" y2="144.089" class="gray" /></g>
<g><line x1="130.65" y1="148.16" x2="130.65" y2="151.649" class="gray" /></g>
<g><line x1="130.65" y1="155.72" x2="130.65" y2="159.209" class="gray" /></g>
<g><line x1="130.593" y1="163.28" x2="130.497" y2="166.77" class="gray" /></g>
<g><line x1="130.497" y1="170.84" x2="130.593" y2="174.33" class="gray" /></g>
<g><line x1="130.593" y1="178.4" x2="130.497" y2="181.89" class="gray" /></g>
<g><line x1="132.476" y1="183.925" x2="135.404" y2="183.925" class="gray" /></g>
</svg>
