<svg
	xmlns="http://www.w3.org/2000/svg"
	width="227.98"
	height="242.495">
<g><style type="text/css" >
<!-- create color definitions -->
<![CDATA[
circle.red {stroke: rgb(255, 0, 255); fill: none; }
circle.green {stroke: rgb(0, 255, 0); fill: none; }
circle.blue {stroke: rgb(0, 0, 255); fill: none; }
circle.black {stroke: rgb(0, 0, 0); fill: none; }
circle.gray {stroke: rgb(204, 204, 204); fill: none; }
circle.brown {stroke: rgb(211.65, 104.55, 30.6); fill: none; }
line.red {stroke: rgb(255, 0, 255); stroke-width: 0.382821; }
line.green {stroke: rgb(0, 255, 0); stroke-width: 0.382821; }
line.blue {stroke: rgb(0, 0, 255); stroke-width: 0.382821; }
line.black {stroke: rgb(0, 0, 0); stroke-width: 0.382821; }
line.gray {stroke: rgb(204, 204, 204); stroke-width: 0.382821; }
line.brown {stroke: rgb(211.65, 104.55, 30.6); stroke-width: 0.382821; }
line {stroke: rgb(0, 0, 0); }
text.red {fill: rgb(255, 0, 255); font-size: 3.062567px; font-weight: bold; font-family: Helvetica; }
text.green {fill: rgb(0, 255, 0); font-size: 3.062567px; font-weight: bold; font-family: Helvetica; }
text.blue {fill: rgb(0, 0, 255); font-size: 3.062567px; font-weight: bold; font-family: Helvetica; }
text.black {fill: rgb(0, 0, 0); font-size: 3.062567px; font-weight: bold; font-family: Helvetica; }
text.gray {fill: rgb(204, 204, 204); font-size: 3.062567px; font-weight: bold; font-family: Helvetica; }
text.brown {fill: rgb(211.65, 104.55, 30.6); font-size: 3.062567px; font-weight: bold; font-family: Helvetica; }
text {fill: rgb(0, 0, 0); font-size: 3.062567px; font-weight: bold; font-family: Helvetica; text-anchor: middle; alignment-baseline: middle; }

.pseudoknot_connection{stroke-linecap: round; stroke-opacity: 0.2; stroke-width: 1.5; }
.pseudoknot_segment1{stroke-linecap: round; stroke-opacity: 0.4; stroke-width: 3.06257; }
.pseudoknot_segment2{stroke-linecap: round; stroke-opacity: 0.4; stroke-width: 3.06257; }
line.numbering-line{stroke: rgb(204, 204, 204); stroke-width: 0.19141; }
line.predicted{stroke: rgb(0, 0, 0); stroke-dasharray: 2; }
polyline{fill: none; stroke-linejoin: round; }
template{visibility: hidden; }
text.numbering-label{fill: rgb(204, 204, 204); }
]]>
</style></g>
<g><title>0 (position.label in template: 0.5')</title><text x="111.509" y="194.596" class="green" >5'</text></g>
<g><title>1 (position.label in template: 1.A)</title><text x="111.09" y="187.05" class="green" >A</text></g>
<g><line x1="113.132" y1="186.744" x2="121.078" y2="186.744" class="black" /></g>
<g><title>2 (position.label in template: 2.G)</title><text x="110.67" y="179.49" class="black" >G</text></g>
<g><line x1="112.712" y1="179.184" x2="121.078" y2="179.184" class="black" /></g>
<g><title>3 (position.label in template: 3.G)</title><text x="110.67" y="171.93" class="black" >G</text></g>
<g><line x1="112.712" y1="171.624" x2="121.078" y2="171.624" class="black" /></g>
<g><title>4 (position.label in template: 4.G)</title><text x="110.67" y="164.37" class="black" >G</text></g>
<g><line x1="112.712" y1="164.064" x2="121.078" y2="164.064" class="black" /></g>
<g><title>5 (position.label in template: 5.U)</title><text x="110.88" y="156.81" class="green" >T</text></g>
<g><line x1="112.922" y1="156.504" x2="120.868" y2="156.504" class="black" /></g>
<g><title>6 (position.label in template: 6.C)</title><text x="110.88" y="149.25" class="black" >C</text></g>
<g><line x1="112.922" y1="148.944" x2="120.868" y2="148.944" class="black" /></g>
<g><title>7 (position.label in template: 7.G)</title><text x="110.67" y="141.69" class="black" >G</text></g>
<g><line x1="112.712" y1="141.384" x2="121.078" y2="141.384" class="black" /></g>
<g><title>8 (position.label in template: 8.U)</title><text x="104.15" y="138.25" class="green" >T</text></g>
<g><title>9 (position.label in template: 9.A)</title><text x="99.25" y="132.67" class="black" >A</text></g>
<g><title>10 (position.label in template: 10.G)</title><text x="96.01" y="125.66" class="black" >G</text></g>
<g><line x1="96.2282" y1="123.324" x2="97.1018" y2="115.194" class="black" /></g>
<g><text x="91.9511" y="131.228" class="numbering-label sequential" >10</text></g>
<g><line x1="94.9276" y1="127.145" x2="93.0672" y2="129.697" class="numbering-line sequential" /></g>
<g><title>11 (position.label in template: 11.C)</title><text x="88.7" y="124.98" class="black" >C</text></g>
<g><line x1="88.847" y1="122.637" x2="89.433" y2="114.52" class="black" /></g>
<g><title>12 (position.label in template: 12.U)</title><text x="81.17" y="124.3" class="green" >T</text></g>
<g><line x1="81.3865" y1="121.964" x2="82.2535" y2="113.834" class="black" /></g>
<g><title>13 (position.label in template: 13.C)</title><text x="73.64" y="123.63" class="black" >C</text></g>
<g><line x1="73.787" y1="121.287" x2="74.373" y2="113.17" class="black" /></g>
<g><title>14 (position.label in template: 14.A)</title><text x="68.05" y="128.48" class="black" >A</text></g>
<g><title>15 (position.label in template: 15.A)</title><text x="60.53" y="129.29" class="black" >A</text></g>
<g><title>16 (position.label in template: 16.U)</title><text x="53.62" y="125.79" class="green" >T</text></g>
<g><title>17 (position.label in template: 17.U)</title><text x="50" y="119.15" class="green" >T</text></g>
<g><title>18 (position.label in template: 18.G)</title><text x="50.47" y="111.63" class="black" >G</text></g>
<g><title>19 (position.label in template: 19.G)</title><text x="55.21" y="105.74" class="black" >G</text></g>
<g><title>20 (position.label in template: 20.U)</title><text x="62.64" y="103.49" class="green" >T</text></g>
<g><text x="62.5891" y="96.5994" class="numbering-label sequential" >20</text></g>
<g><line x1="62.6264" y1="101.653" x2="62.6004" y2="98.1307" class="numbering-line sequential" /></g>
<g><title>21 (position.label in template: 21.A)</title><text x="70.1" y="105.63" class="black" >A</text></g>
<g><title>22 (position.label in template: 22.G)</title><text x="74.52" y="111.44" class="black" >G</text></g>
<g><title>23 (position.label in template: 23.A)</title><text x="82.47" y="112.11" class="green" >A</text></g>
<g><title>24 (position.label in template: 24.G)</title><text x="89.58" y="112.79" class="black" >G</text></g>
<g><title>25 (position.label in template: 25.C)</title><text x="97.32" y="113.47" class="black" >C</text></g>
<g><title>26 (position.label in template: 26.A)</title><text x="101.55" y="107.07" class="black" >A</text></g>
<g><title>27 (position.label in template: 27.C)</title><text x="107.36" y="102.48" class="black" >C</text></g>
<g><line x1="109.368" y1="101.804" x2="117.182" y2="100.364" class="black" /></g>
<g><title>28 (position.label in template: 28.U)</title><text x="106.01" y="95.05" class="green" >T</text></g>
<g><line x1="108.02" y1="94.3844" x2="116.25" y2="92.9131" class="black" /></g>
<g><title>29 (position.label in template: 29.G)</title><text x="104.45" y="87.61" class="black" >G</text></g>
<g><line x1="106.46" y1="86.9463" x2="114.7" y2="85.4812" class="black" /></g>
<g><title>30 (position.label in template: 30.G)</title><text x="103.11" y="80.17" class="black" >G</text></g>
<g><line x1="105.12" y1="79.506" x2="113.35" y2="78.0415" class="black" /></g>
<g><text x="96.313" y="81.3028" class="numbering-label sequential" >30</text></g>
<g><line x1="101.297" y1="80.4721" x2="98.1505" y2="80.9966" class="numbering-line sequential" /></g>
<g><title>31 (position.label in template: 31.U)</title><text x="101.97" y="72.73" class="green" >T</text></g>
<g><line x1="103.98" y1="72.066" x2="112.21" y2="70.6015" class="black" /></g>
<g><title>32 (position.label in template: 32.C)</title><text x="96.13" y="67.92" class="black" >C</text></g>
<g><title>33 (position.label in template: 33.U)</title><text x="94.39" y="60.57" class="green" >T</text></g>
<g><title>34 (position.label in template: 34.C)</title><text x="97.45" y="53.66" class="black" >C</text></g>
<g><title>35 (position.label in template: 35.C)</title><text x="104.07" y="50" class="black" >C</text></g>
<g><title>36 (position.label in template: 36.A)</title><text x="111.76" y="51.1" class="black" >A</text></g>
<g><title>37 (position.label in template: 37.A)</title><text x="117.05" y="56.5" class="black" >A</text></g>
<g><title>38 (position.label in template: 38.A)</title><text x="118" y="64" class="black" >A</text></g>
<g><title>39 (position.label in template: 39.A)</title><text x="114.22" y="70.55" class="green" >A</text></g>
<g><title>40 (position.label in template: 40.C)</title><text x="115.36" y="77.99" class="black" >C</text></g>
<g><title>41 (position.label in template: 41.C)</title><text x="116.71" y="85.43" class="black" >C</text></g>
<g><title>42 (position.label in template: 42.A)</title><text x="118.26" y="92.86" class="green" >A</text></g>
<g><title>43 (position.label in template: 43.G)</title><text x="119.19" y="100.3" class="black" >G</text></g>
<g><title>44 (position.label in template: 44.C)</title><text x="126.64" y="102.48" class="black" >C</text></g>
<g><title>45 (position.label in template: 45.G)</title><text x="132.44" y="107.07" class="black" >G</text></g>
<g><title>46 (position.label in template: 46.G)</title><text x="136.47" y="113.47" class="black" >G</text></g>
<g><title>47 (position.label in template: 47.U)</title><text x="138.2" y="120.87" class="green" >T</text></g>
<g><title>48 (position.label in template: 48.G)</title><text x="136.83" y="128.34" class="black" >G</text></g>
<g><line x1="135.654" y1="129.703" x2="131.026" y2="136.275" class="black" /></g>
<g><title>49 (position.label in template: 49.G)</title><text x="142.95" y="132.77" class="green" >G</text></g>
<g><line x1="141.776" y1="134.134" x2="137.154" y2="140.713" class="black" /></g>
<g><title>50 (position.label in template: 50.G)</title><text x="149.07" y="137.21" class="black" >G</text></g>
<g><line x1="147.895" y1="138.574" x2="143.275" y2="145.144" class="black" /></g>
<g><text x="153.116" y="131.632" class="numbering-label sequential" >50</text></g>
<g><line x1="150.149" y1="135.723" x2="152.006" y2="133.164" class="numbering-line sequential" /></g>
<g><title>51 (position.label in template: 51.G)</title><text x="155.19" y="141.65" class="black" >G</text></g>
<g><line x1="154.015" y1="143.014" x2="149.395" y2="149.584" class="black" /></g>
<g><title>52 (position.label in template: 52.G)</title><text x="161.31" y="146.08" class="black" >G</text></g>
<g><line x1="160.135" y1="147.444" x2="155.515" y2="154.014" class="black" /></g>
<g><title>53 (position.label in template: 53.U)</title><text x="169.06" y="145.51" class="green" >T</text></g>
<g><title>54 (position.label in template: 54.U)</title><text x="175.41" y="149.61" class="green" >T</text></g>
<g><title>55 (position.label in template: 55.C)</title><text x="177.98" y="156.72" class="black" >C</text></g>
<g><title>56 (position.label in template: 56.A)</title><text x="175.94" y="163.94" class="black" >A</text></g>
<g><title>57 (position.label in template: 57.A)</title><text x="169.78" y="168.33" class="black" >A</text></g>
<g><title>58 (position.label in template: 58.G)</title><text x="161.81" y="168.09" class="black" >G</text></g>
<g><title>59 (position.label in template: 59.U)</title><text x="156.14" y="163.34" class="green" >T</text></g>
<g><title>60 (position.label in template: 60.C)</title><text x="154.34" y="155.99" class="black" >C</text></g>
<g><title>61 (position.label in template: 61.C)</title><text x="148.22" y="151.56" class="black" >C</text></g>
<g><title>62 (position.label in template: 62.C)</title><text x="142.1" y="147.12" class="black" >C</text></g>
<g><title>63 (position.label in template: 63.U)</title><text x="135.98" y="142.69" class="green" >T</text></g>
<g><title>64 (position.label in template: 64.C)</title><text x="129.85" y="138.25" class="black" >C</text></g>
<g><title>65 (position.label in template: 65.C)</title><text x="123.12" y="141.69" class="black" >C</text></g>
<g><title>66 (position.label in template: 66.G)</title><text x="122.91" y="149.25" class="black" >G</text></g>
<g><title>67 (position.label in template: 67.G)</title><text x="122.91" y="156.81" class="green" >G</text></g>
<g><title>68 (position.label in template: 68.C)</title><text x="123.12" y="164.37" class="black" >C</text></g>
<g><title>69 (position.label in template: 69.C)</title><text x="123.12" y="171.93" class="black" >C</text></g>
<g><title>70 (position.label in template: 70.C)</title><text x="123.12" y="179.49" class="black" >C</text></g>
<g><title>71 (position.label in template: 71.U)</title><text x="123.12" y="187.05" class="green" >T</text></g>
<g><title>72 (position.label in template: 72.G)</title><text x="128.361" y="192.495" class="black" >G</text></g>
<g><title>73 (position.label in template: 73.3')</title><text x="123.148" y="197.967" class="green" >3'</text></g>
<g><line x1="111.396" y1="192.251" x2="111.203" y2="188.782" class="gray" /></g>
<g><line x1="110.977" y1="184.705" x2="110.783" y2="181.222" class="gray" /></g>
<g><line x1="110.67" y1="177.142" x2="110.67" y2="173.665" class="gray" /></g>
<g><line x1="110.67" y1="169.582" x2="110.67" y2="166.105" class="gray" /></g>
<g><line x1="110.727" y1="162.023" x2="110.823" y2="158.545" class="gray" /></g>
<g><line x1="110.88" y1="154.462" x2="110.88" y2="150.985" class="gray" /></g>
<g><line x1="110.823" y1="146.903" x2="110.727" y2="143.425" class="gray" /></g>
<g><line x1="108.864" y1="140.431" x2="105.956" y2="138.896" class="gray" /></g>
<g><line x1="102.803" y1="136.41" x2="100.597" y2="133.898" class="gray" /></g>
<g><line x1="98.3934" y1="130.51" x2="96.8666" y2="127.207" class="gray" /></g>
<g><line x1="93.9771" y1="125.165" x2="90.7329" y2="124.863" class="gray" /></g>
<g><line x1="86.6666" y1="124.49" x2="83.2034" y2="124.177" class="gray" /></g>
<g><line x1="79.1363" y1="123.813" x2="75.6737" y2="123.505" class="gray" /></g>
<g><line x1="72.0978" y1="124.662" x2="69.5922" y2="126.836" class="gray" /></g>
<g><line x1="66.02" y1="128.392" x2="62.56" y2="128.765" class="gray" /></g>
<g><line x1="58.7086" y1="128.061" x2="55.4414" y2="126.406" class="gray" /></g>
<g><line x1="52.6427" y1="123.691" x2="50.9773" y2="120.636" class="gray" /></g>
<g><line x1="50.1274" y1="116.806" x2="50.3426" y2="113.361" class="gray" /></g>
<g><line x1="51.7501" y1="109.733" x2="53.9299" y2="107.024" class="gray" /></g>
<g><line x1="57.1641" y1="104.842" x2="60.6859" y2="103.775" class="gray" /></g>
<g><line x1="64.6026" y1="103.747" x2="68.1374" y2="104.761" class="gray" /></g>
<g><line x1="71.3362" y1="106.949" x2="73.2838" y2="109.509" class="gray" /></g>
<g><line x1="76.5545" y1="111.305" x2="80.4355" y2="111.632" class="gray" /></g>
<g><line x1="84.5024" y1="111.998" x2="87.5476" y2="112.289" class="gray" /></g>
<g><line x1="91.6139" y1="112.662" x2="95.2861" y2="112.985" class="gray" /></g>
<g><line x1="98.4458" y1="111.46" x2="100.424" y2="108.467" class="gray" /></g>
<g><line x1="103.152" y1="105.498" x2="105.758" y2="103.439" class="gray" /></g>
<g><line x1="106.995" y1="100.165" x2="106.375" y2="96.7526" class="gray" /></g>
<g><line x1="105.591" y1="92.7455" x2="104.869" y2="89.302" class="gray" /></g>
<g><line x1="104.088" y1="85.2944" x2="103.472" y2="81.8731" class="gray" /></g>
<g><line x1="102.801" y1="77.8456" x2="102.279" y2="74.4419" class="gray" /></g>
<g><line x1="100.394" y1="71.1257" x2="97.706" y2="68.9118" class="gray" /></g>
<g><line x1="95.6597" y1="65.6269" x2="94.8603" y2="62.2505" class="gray" /></g>
<g><line x1="95.2167" y1="58.3969" x2="96.6233" y2="55.2206" class="gray" /></g>
<g><line x1="99.2368" y1="52.3659" x2="102.283" y2="50.6816" class="gray" /></g>
<g><line x1="106.091" y1="49.9829" x2="109.739" y2="50.5046" class="gray" /></g>
<g><line x1="113.189" y1="52.2522" x2="115.621" y2="54.7353" class="gray" /></g>
<g><line x1="117.307" y1="58.2193" x2="117.743" y2="61.6682" class="gray" /></g>
<g><line x1="116.979" y1="65.4621" x2="115.241" y2="68.4754" class="gray" /></g>
<g><line x1="114.529" y1="72.2619" x2="115.051" y2="75.6656" class="gray" /></g>
<g><line x1="115.725" y1="79.6927" x2="116.345" y2="83.1148" class="gray" /></g>
<g><line x1="117.127" y1="87.1224" x2="117.843" y2="90.5551" class="gray" /></g>
<g><line x1="118.513" y1="94.5797" x2="118.937" y2="97.9678" class="gray" /></g>
<g><line x1="121.15" y1="100.567" x2="124.68" y2="101.6" class="gray" /></g>
<g><line x1="128.241" y1="103.441" x2="130.839" y2="105.497" class="gray" /></g>
<g><line x1="133.528" y1="108.491" x2="135.382" y2="111.436" class="gray" /></g>
<g><line x1="136.935" y1="115.152" x2="137.735" y2="118.576" class="gray" /></g>
<g><line x1="137.832" y1="122.572" x2="137.198" y2="126.026" class="gray" /></g>
<g><line x1="138.484" y1="129.231" x2="141.296" y2="131.267" class="gray" /></g>
<g><line x1="144.603" y1="133.663" x2="147.417" y2="135.705" class="gray" /></g>
<g><line x1="150.723" y1="138.103" x2="153.537" y2="140.145" class="gray" /></g>
<g><line x1="156.844" y1="142.541" x2="159.656" y2="144.577" class="gray" /></g>
<g><line x1="163.346" y1="145.624" x2="167.024" y2="145.354" class="gray" /></g>
<g><line x1="170.775" y1="146.311" x2="173.695" y2="148.196" class="gray" /></g>
<g><line x1="176.104" y1="151.224" x2="177.286" y2="154.494" class="gray" /></g>
<g><line x1="177.425" y1="158.379" x2="176.495" y2="161.669" class="gray" /></g>
<g><line x1="174.277" y1="164.819" x2="171.443" y2="166.839" class="gray" /></g>
<g><line x1="167.739" y1="167.962" x2="163.851" y2="167.845" class="gray" /></g>
<g><line x1="160.245" y1="166.473" x2="157.705" y2="164.345" class="gray" /></g>
<g><line x1="155.654" y1="161.051" x2="154.826" y2="157.667" class="gray" /></g>
<g><line x1="152.686" y1="154.487" x2="149.874" y2="152.451" class="gray" /></g>
<g><line x1="146.567" y1="150.055" x2="143.753" y2="148.013" class="gray" /></g>
<g><line x1="140.446" y1="145.617" x2="137.634" y2="143.581" class="gray" /></g>
<g><line x1="134.326" y1="141.186" x2="131.504" y2="139.141" class="gray" /></g>
<g><line x1="128.032" y1="138.873" x2="124.938" y2="140.454" class="gray" /></g>
<g><line x1="123.063" y1="143.425" x2="122.967" y2="146.903" class="gray" /></g>
<g><line x1="122.91" y1="150.985" x2="122.91" y2="154.462" class="gray" /></g>
<g><line x1="122.967" y1="158.545" x2="123.063" y2="162.023" class="gray" /></g>
<g><line x1="123.12" y1="166.105" x2="123.12" y2="169.582" class="gray" /></g>
<g><line x1="123.12" y1="173.665" x2="123.12" y2="177.142" class="gray" /></g>
<g><line x1="123.12" y1="181.225" x2="123.12" y2="184.702" class="gray" /></g>
<g><line x1="124.536" y1="188.215" x2="126.945" y2="190.718" class="gray" /></g>
<g><line x1="126.953" y1="193.667" x2="124.556" y2="196.182" class="gray" /></g>
</svg>
