<svg
	xmlns="http://www.w3.org/2000/svg"
	width="226.49"
	height="241.832">
<g><style type="text/css" >
<!-- create color definitions -->
<![CDATA[
circle.red {stroke: rgb(255, 0, 255); fill: none; }
circle.green {stroke: rgb(0, 255, 0); fill: none; }
circle.blue {stroke: rgb(0, 0, 255); fill: none; }
circle.black {stroke: rgb(0, 0, 0); fill: none; }
circle.gray {stroke: rgb(204, 204, 204); fill: none; }
circle.brown {stroke: rgb(211.65, 104.55, 30.6); fill: none; }
line.red {stroke: rgb(255, 0, 255); stroke-width: 0.383476; }
line.green {stroke: rgb(0, 255, 0); stroke-width: 0.383476; }
line.blue {stroke: rgb(0, 0, 255); stroke-width: 0.383476; }
line.black {stroke: rgb(0, 0, 0); stroke-width: 0.383476; }
line.gray {stroke: rgb(204, 204, 204); stroke-width: 0.383476; }
line.brown {stroke: rgb(211.65, 104.55, 30.6); stroke-width: 0.383476; }
line {stroke: rgb(0, 0, 0); }
text.red {fill: rgb(255, 0, 255); font-size: 3.067807px; font-weight: bold; font-family: Helvetica; }
text.green {fill: rgb(0, 255, 0); font-size: 3.067807px; font-weight: bold; font-family: Helvetica; }
text.blue {fill: rgb(0, 0, 255); font-size: 3.067807px; font-weight: bold; font-family: Helvetica; }
text.black {fill: rgb(0, 0, 0); font-size: 3.067807px; font-weight: bold; font-family: Helvetica; }
text.gray {fill: rgb(204, 204, 204); font-size: 3.067807px; font-weight: bold; font-family: Helvetica; }
text.brown {fill: rgb(211.65, 104.55, 30.6); font-size: 3.067807px; font-weight: bold; font-family: Helvetica; }
text {fill: rgb(0, 0, 0); font-size: 3.067807px; font-weight: bold; font-family: Helvetica; text-anchor: middle; alignment-baseline: middle; }

.pseudoknot_connection{stroke-linecap: round; stroke-opacity: 0.2; stroke-width: 1.5; }
.pseudoknot_segment1{stroke-linecap: round; stroke-opacity: 0.4; stroke-width: 3.06781; }
.pseudoknot_segment2{stroke-linecap: round; stroke-opacity: 0.4; stroke-width: 3.06781; }
line.numbering-line{stroke: rgb(204, 204, 204); stroke-width: 0.191738; }
line.predicted{stroke: rgb(0, 0, 0); stroke-dasharray: 2; }
polyline{fill: none; stroke-linejoin: round; }
template{visibility: hidden; }
text.numbering-label{fill: rgb(204, 204, 204); }
]]>
</style></g>
<g><title>0 (position.label in template: 0.5')</title><text x="109.88" y="194.148" class="green" >5'</text></g>
<g><title>1 (position.label in template: 1.G)</title><text x="110.09" y="186.59" class="black" >G</text></g>
<g><line x1="112.135" y1="186.283" x2="120.495" y2="186.283" class="black" /></g>
<g><title>2 (position.label in template: 2.U)</title><text x="110.3" y="179.03" class="green" >T</text></g>
<g><line x1="112.345" y1="178.723" x2="120.495" y2="178.723" class="black" /></g>
<g><title>3 (position.label in template: 3.G)</title><text x="110.09" y="171.47" class="green" >G</text></g>
<g><line x1="112.135" y1="171.163" x2="120.495" y2="171.163" class="black" /></g>
<g><title>4 (position.label in template: 4.G)</title><text x="110.09" y="163.91" class="black" >G</text></g>
<g><line x1="112.135" y1="163.603" x2="120.495" y2="163.603" class="black" /></g>
<g><title>5 (position.label in template: 5.G)</title><text x="110.09" y="156.35" class="black" >G</text></g>
<g><line x1="112.135" y1="156.043" x2="120.495" y2="156.043" class="black" /></g>
<g><title>6 (position.label in template: 6.U)</title><text x="110.3" y="148.79" class="green" >T</text></g>
<g><line x1="112.345" y1="148.483" x2="120.705" y2="148.483" class="black" /></g>
<g><title>7 (position.label in template: 7.A)</title><text x="110.51" y="141.23" class="green" >A</text></g>
<g><line x1="112.555" y1="140.923" x2="120.495" y2="140.923" class="black" /></g>
<g><title>8 (position.label in template: 8.G)</title><text x="103.27" y="137.97" class="black" >G</text></g>
<g><title>9 (position.label in template: 9.U)</title><text x="98.14" y="132.62" class="green" >T</text></g>
<g><title>10 (position.label in template: 10.G)</title><text x="94.66" y="125.8" class="black" >G</text></g>
<g><line x1="94.6951" y1="123.448" x2="94.8349" y2="115.298" class="black" /></g>
<g><text x="90.9818" y="131.641" class="numbering-label sequential" >10</text></g>
<g><line x1="93.6791" y1="127.358" x2="91.9477" y2="130.107" class="numbering-line sequential" /></g>
<g><title>11 (position.label in template: 11.C)</title><text x="87.31" y="125.8" class="black" >C</text></g>
<g><line x1="87.2749" y1="123.448" x2="87.1351" y2="115.298" class="black" /></g>
<g><title>12 (position.label in template: 12.U)</title><text x="79.75" y="125.8" class="green" >T</text></g>
<g><line x1="79.7851" y1="123.448" x2="79.9249" y2="115.298" class="black" /></g>
<g><title>13 (position.label in template: 13.C)</title><text x="72.19" y="125.8" class="black" >C</text></g>
<g><line x1="72.1549" y1="123.448" x2="72.0151" y2="115.298" class="black" /></g>
<g><title>14 (position.label in template: 14.A)</title><text x="66.63" y="130.69" class="black" >A</text></g>
<g><title>15 (position.label in template: 15.G)</title><text x="58.67" y="131.1" class="black" >G</text></g>
<g><title>16 (position.label in template: 16.U)</title><text x="52.62" y="126.85" class="green" >T</text></g>
<g><title>17 (position.label in template: 17.G)</title><text x="50" y="119.68" class="black" >G</text></g>
<g><title>18 (position.label in template: 18.G)</title><text x="52.41" y="112.52" class="black" >G</text></g>
<g><title>19 (position.label in template: 19.U)</title><text x="58.88" y="108.27" class="green" >T</text></g>
<g><title>20 (position.label in template: 20.A)</title><text x="66.63" y="108.68" class="black" >A</text></g>
<g><text x="69.2146" y="102.28" class="numbering-label sequential" >20</text></g>
<g><line x1="67.3192" y1="106.973" x2="68.5952" y2="103.813" class="numbering-line sequential" /></g>
<g><title>21 (position.label in template: 21.G)</title><text x="71.98" y="113.56" class="black" >G</text></g>
<g><title>22 (position.label in template: 22.A)</title><text x="79.96" y="113.56" class="green" >A</text></g>
<g><title>23 (position.label in template: 23.G)</title><text x="87.1" y="113.56" class="black" >G</text></g>
<g><title>24 (position.label in template: 24.C)</title><text x="94.87" y="113.56" class="black" >C</text></g>
<g><title>25 (position.label in template: 25.G)</title><text x="97.93" y="106.75" class="black" >G</text></g>
<g><title>26 (position.label in template: 26.U)</title><text x="103.48" y="101.4" class="green" >T</text></g>
<g><line x1="105.405" y1="100.402" x2="112.895" y2="97.7141" class="black" /></g>
<g><title>27 (position.label in template: 27.G)</title><text x="100.76" y="94.27" class="green" >G</text></g>
<g><line x1="102.693" y1="93.2938" x2="110.577" y2="90.5626" class="black" /></g>
<g><title>28 (position.label in template: 28.U)</title><text x="98.45" y="87.14" class="green" >T</text></g>
<g><line x1="100.383" y1="86.1638" x2="108.267" y2="83.4326" class="black" /></g>
<g><title>29 (position.label in template: 29.G)</title><text x="95.73" y="80.01" class="black" >G</text></g>
<g><line x1="97.6626" y1="79.0338" x2="105.547" y2="76.3026" class="black" /></g>
<g><title>30 (position.label in template: 30.U)</title><text x="93.42" y="72.88" class="green" >T</text></g>
<g><line x1="95.345" y1="71.8823" x2="102.835" y2="69.1941" class="black" /></g>
<g><text x="88.0487" y="77.2153" class="numbering-label sequential" >30</text></g>
<g><line x1="91.9877" y1="74.0361" x2="89.9492" y2="75.6814" class="numbering-line sequential" /></g>
<g><title>31 (position.label in template: 31.U)</title><text x="86.9" y="69.07" class="green" >T</text></g>
<g><title>32 (position.label in template: 32.U)</title><text x="84.01" y="62.08" class="green" >T</text></g>
<g><title>33 (position.label in template: 33.A)</title><text x="86.13" y="54.77" class="black" >A</text></g>
<g><title>34 (position.label in template: 34.G)</title><text x="91.67" y="50.11" class="black" >G</text></g>
<g><title>35 (position.label in template: 35.U)</title><text x="99.44" y="50" class="green" >T</text></g>
<g><title>36 (position.label in template: 36.A)</title><text x="105.73" y="54.49" class="black" >A</text></g>
<g><title>37 (position.label in template: 37.U)</title><text x="107.66" y="61.75" class="green" >T</text></g>
<g><title>38 (position.label in template: 38.G)</title><text x="104.76" y="68.81" class="green" >G</text></g>
<g><title>39 (position.label in template: 39.C)</title><text x="107.48" y="75.94" class="black" >C</text></g>
<g><title>40 (position.label in template: 40.A)</title><text x="110.2" y="83.07" class="green" >A</text></g>
<g><title>41 (position.label in template: 41.U)</title><text x="112.51" y="90.2" class="green" >T</text></g>
<g><title>42 (position.label in template: 42.G)</title><text x="114.82" y="97.33" class="green" >G</text></g>
<g><title>43 (position.label in template: 43.A)</title><text x="122.75" y="98.14" class="black" >A</text></g>
<g><title>44 (position.label in template: 44.G)</title><text x="129.15" y="101.4" class="black" >G</text></g>
<g><title>45 (position.label in template: 45.G)</title><text x="134.5" y="106.75" class="black" >G</text></g>
<g><title>46 (position.label in template: 46.U)</title><text x="137.97" y="113.56" class="green" >T</text></g>
<g><title>47 (position.label in template: 47.C)</title><text x="138.78" y="121.08" class="black" >C</text></g>
<g><title>48 (position.label in template: 48.C)</title><text x="137.04" y="128.44" class="black" >C</text></g>
<g><line x1="135.736" y1="129.709" x2="130.454" y2="136.088" class="black" /></g>
<g><title>49 (position.label in template: 49.U)</title><text x="142.93" y="133.18" class="green" >T</text></g>
<g><line x1="141.668" y1="134.483" x2="136.722" y2="140.794" class="black" /></g>
<g><title>50 (position.label in template: 50.G)</title><text x="148.61" y="137.93" class="black" >G</text></g>
<g><line x1="147.348" y1="139.233" x2="142.402" y2="145.544" class="black" /></g>
<g><text x="152.99" y="132.595" class="numbering-label sequential" >50</text></g>
<g><line x1="149.778" y1="136.507" x2="151.731" y2="134.129" class="numbering-line sequential" /></g>
<g><title>51 (position.label in template: 51.G)</title><text x="154.49" y="142.67" class="black" >G</text></g>
<g><line x1="153.228" y1="143.973" x2="148.282" y2="150.284" class="black" /></g>
<g><title>52 (position.label in template: 52.G)</title><text x="160.38" y="147.41" class="black" >G</text></g>
<g><line x1="159.118" y1="148.713" x2="154.172" y2="155.024" class="black" /></g>
<g><title>53 (position.label in template: 53.U)</title><text x="168.15" y="147.22" class="green" >T</text></g>
<g><title>54 (position.label in template: 54.U)</title><text x="174.28" y="151.65" class="green" >T</text></g>
<g><title>55 (position.label in template: 55.C)</title><text x="176.49" y="158.88" class="black" >C</text></g>
<g><title>56 (position.label in template: 56.A)</title><text x="174.07" y="165.97" class="black" >A</text></g>
<g><title>57 (position.label in template: 57.A)</title><text x="167.7" y="170.04" class="black" >A</text></g>
<g><title>58 (position.label in template: 58.U)</title><text x="159.96" y="169.42" class="green" >T</text></g>
<g><title>59 (position.label in template: 59.C)</title><text x="154.33" y="164.37" class="black" >C</text></g>
<g><title>60 (position.label in template: 60.C)</title><text x="152.91" y="156.94" class="black" >C</text></g>
<g><title>61 (position.label in template: 61.C)</title><text x="147.02" y="152.2" class="black" >C</text></g>
<g><title>62 (position.label in template: 62.C)</title><text x="141.14" y="147.46" class="black" >C</text></g>
<g><title>63 (position.label in template: 63.A)</title><text x="135.46" y="142.71" class="green" >A</text></g>
<g><title>64 (position.label in template: 64.G)</title><text x="129.15" y="137.97" class="black" >G</text></g>
<g><title>65 (position.label in template: 65.U)</title><text x="122.54" y="141.23" class="green" >T</text></g>
<g><title>66 (position.label in template: 66.A)</title><text x="122.75" y="148.79" class="green" >A</text></g>
<g><title>67 (position.label in template: 67.C)</title><text x="122.54" y="156.35" class="black" >C</text></g>
<g><title>68 (position.label in template: 68.C)</title><text x="122.54" y="163.91" class="black" >C</text></g>
<g><title>69 (position.label in template: 69.U)</title><text x="122.54" y="171.47" class="green" >T</text></g>
<g><title>70 (position.label in template: 70.C)</title><text x="122.54" y="179.03" class="green" >C</text></g>
<g><title>71 (position.label in template: 71.C)</title><text x="122.54" y="186.59" class="black" >C</text></g>
<g><title>72 (position.label in template: 72.A)</title><text x="127.988" y="191.832" class="black" >A</text></g>
<g><title>73 (position.label in template: 73.3')</title><text x="122.754" y="197.289" class="green" >3'</text></g>
<g><line x1="109.937" y1="191.797" x2="110.033" y2="188.328" class="gray" /></g>
<g><line x1="110.147" y1="184.239" x2="110.243" y2="180.768" class="gray" /></g>
<g><line x1="110.243" y1="176.679" x2="110.147" y2="173.208" class="gray" /></g>
<g><line x1="110.09" y1="169.118" x2="110.09" y2="165.648" class="gray" /></g>
<g><line x1="110.09" y1="161.558" x2="110.09" y2="158.088" class="gray" /></g>
<g><line x1="110.147" y1="153.999" x2="110.243" y2="150.528" class="gray" /></g>
<g><line x1="110.357" y1="146.439" x2="110.453" y2="142.968" class="gray" /></g>
<g><line x1="108.645" y1="140.084" x2="105.135" y2="138.503" class="gray" /></g>
<g><line x1="101.854" y1="136.187" x2="99.5555" y2="133.789" class="gray" /></g>
<g><line x1="97.2104" y1="130.491" x2="95.5896" y2="127.315" class="gray" /></g>
<g><line x1="92.6148" y1="125.493" x2="89.3552" y2="125.493" class="gray" /></g>
<g><line x1="85.2648" y1="125.493" x2="81.7952" y2="125.493" class="gray" /></g>
<g><line x1="77.7048" y1="125.493" x2="74.2352" y2="125.493" class="gray" /></g>
<g><line x1="70.6543" y1="126.844" x2="68.1657" y2="129.033" class="gray" /></g>
<g><line x1="64.5875" y1="130.488" x2="60.7125" y2="130.688" class="gray" /></g>
<g><line x1="56.9965" y1="129.618" x2="54.2935" y2="127.719" class="gray" /></g>
<g><line x1="51.9181" y1="124.622" x2="50.7019" y2="121.294" class="gray" /></g>
<g><line x1="50.6524" y1="117.435" x2="51.7576" y2="114.152" class="gray" /></g>
<g><line x1="54.1194" y1="111.09" x2="57.1706" y2="109.086" class="gray" /></g>
<g><line x1="60.9223" y1="108.071" x2="64.5877" y2="108.265" class="gray" /></g>
<g><line x1="68.141" y1="109.752" x2="70.469" y2="111.875" class="gray" /></g>
<g><line x1="74.0252" y1="113.253" x2="77.9148" y2="113.253" class="gray" /></g>
<g><line x1="82.0052" y1="113.253" x2="85.0548" y2="113.253" class="gray" /></g>
<g><line x1="89.1452" y1="113.253" x2="92.8248" y2="113.253" class="gray" /></g>
<g><line x1="95.7083" y1="111.388" x2="97.0917" y2="108.309" class="gray" /></g>
<g><line x1="99.4025" y1="105.024" x2="102.008" y2="102.513" class="gray" /></g>
<g><line x1="102.751" y1="99.1823" x2="101.489" y2="95.8741" class="gray" /></g>
<g><line x1="100.13" y1="92.0176" x2="99.0804" y2="88.7789" class="gray" /></g>
<g><line x1="97.721" y1="84.9223" x2="96.459" y2="81.6141" class="gray" /></g>
<g><line x1="95.0996" y1="77.7576" x2="94.0504" y2="74.5189" class="gray" /></g>
<g><line x1="91.6542" y1="71.5414" x2="88.6658" y2="69.7951" class="gray" /></g>
<g><line x1="86.1186" y1="66.8732" x2="84.7914" y2="63.6633" class="gray" /></g>
<g><line x1="84.5797" y1="59.809" x2="85.5603" y2="56.4275" class="gray" /></g>
<g><line x1="87.6951" y1="53.1467" x2="90.1049" y2="51.1197" class="gray" /></g>
<g><line x1="93.715" y1="49.7743" x2="97.395" y2="49.7222" class="gray" /></g>
<g><line x1="101.105" y1="50.8815" x2="104.065" y2="52.995" class="gray" /></g>
<g><line x1="106.255" y1="56.1598" x2="107.135" y2="59.4667" class="gray" /></g>
<g><line x1="106.883" y1="63.335" x2="105.537" y2="66.6114" class="gray" /></g>
<g><line x1="105.489" y1="70.4141" x2="106.751" y2="73.7223" class="gray" /></g>
<g><line x1="108.209" y1="77.5441" x2="109.471" y2="80.8523" class="gray" /></g>
<g><line x1="110.83" y1="84.7089" x2="111.88" y2="87.9476" class="gray" /></g>
<g><line x1="113.14" y1="91.8389" x2="114.19" y2="95.0776" class="gray" /></g>
<g><line x1="116.855" y1="97.231" x2="120.715" y2="97.6254" class="gray" /></g>
<g><line x1="124.572" y1="98.7615" x2="127.328" y2="100.165" class="gray" /></g>
<g><line x1="130.596" y1="102.539" x2="133.054" y2="104.997" class="gray" /></g>
<g><line x1="135.429" y1="108.265" x2="137.041" y2="111.431" class="gray" /></g>
<g><line x1="138.189" y1="115.287" x2="138.561" y2="118.74" class="gray" /></g>
<g><line x1="138.309" y1="122.764" x2="137.511" y2="126.143" class="gray" /></g>
<g><line x1="138.633" y1="129.415" x2="141.337" y2="131.591" class="gray" /></g>
<g><line x1="144.499" y1="134.185" x2="147.041" y2="136.311" class="gray" /></g>
<g><line x1="150.202" y1="138.907" x2="152.898" y2="141.08" class="gray" /></g>
<g><line x1="156.083" y1="143.645" x2="158.787" y2="145.821" class="gray" /></g>
<g><line x1="162.425" y1="147.053" x2="166.105" y2="146.963" class="gray" /></g>
<g><line x1="169.808" y1="148.111" x2="172.622" y2="150.145" class="gray" /></g>
<g><line x1="174.878" y1="153.299" x2="175.892" y2="156.617" class="gray" /></g>
<g><line x1="175.829" y1="160.509" x2="174.731" y2="163.728" class="gray" /></g>
<g><line x1="172.347" y1="166.764" x2="169.423" y2="168.632" class="gray" /></g>
<g><line x1="165.661" y1="169.57" x2="161.999" y2="169.277" class="gray" /></g>
<g><line x1="158.438" y1="167.748" x2="155.852" y2="165.429" class="gray" /></g>
<g><line x1="153.946" y1="162.054" x2="153.294" y2="158.642" class="gray" /></g>
<g><line x1="151.317" y1="155.351" x2="148.613" y2="153.175" class="gray" /></g>
<g><line x1="145.428" y1="150.61" x2="142.732" y2="148.437" class="gray" /></g>
<g><line x1="139.571" y1="145.841" x2="137.029" y2="143.715" class="gray" /></g>
<g><line x1="133.825" y1="141.175" x2="130.785" y2="138.892" class="gray" /></g>
<g><line x1="127.316" y1="138.568" x2="124.374" y2="140.019" class="gray" /></g>
<g><line x1="122.597" y1="142.968" x2="122.693" y2="146.439" class="gray" /></g>
<g><line x1="122.693" y1="150.528" x2="122.597" y2="153.999" class="gray" /></g>
<g><line x1="122.54" y1="158.088" x2="122.54" y2="161.558" class="gray" /></g>
<g><line x1="122.54" y1="165.648" x2="122.54" y2="169.118" class="gray" /></g>
<g><line x1="122.54" y1="173.208" x2="122.54" y2="176.678" class="gray" /></g>
<g><line x1="122.54" y1="180.768" x2="122.54" y2="184.238" class="gray" /></g>
<g><line x1="124.014" y1="187.701" x2="126.514" y2="190.108" class="gray" /></g>
<g><line x1="126.572" y1="193.002" x2="124.17" y2="195.506" class="gray" /></g>
</svg>
