<svg
	xmlns="http://www.w3.org/2000/svg"
	width="256.123"
	height="255.73">
<g><style type="text/css" >
<!-- create color definitions -->
<![CDATA[
circle.red {stroke: rgb(255, 0, 255); fill: none; }
circle.green {stroke: rgb(0, 255, 0); fill: none; }
circle.blue {stroke: rgb(0, 0, 255); fill: none; }
circle.black {stroke: rgb(0, 0, 0); fill: none; }
circle.gray {stroke: rgb(204, 204, 204); fill: none; }
circle.brown {stroke: rgb(211.65, 104.55, 30.6); fill: none; }
line.red {stroke: rgb(255, 0, 255); stroke-width: 0.380312; }
line.green {stroke: rgb(0, 255, 0); stroke-width: 0.380312; }
line.blue {stroke: rgb(0, 0, 255); stroke-width: 0.380312; }
line.black {stroke: rgb(0, 0, 0); stroke-width: 0.380312; }
line.gray {stroke: rgb(204, 204, 204); stroke-width: 0.380312; }
line.brown {stroke: rgb(211.65, 104.55, 30.6); stroke-width: 0.380312; }
line {stroke: rgb(0, 0, 0); }
text.red {fill: rgb(255, 0, 255); font-size: 3.042500px; font-weight: bold; font-family: Helvetica; }
text.green {fill: rgb(0, 255, 0); font-size: 3.042500px; font-weight: bold; font-family: Helvetica; }
text.blue {fill: rgb(0, 0, 255); font-size: 3.042500px; font-weight: bold; font-family: Helvetica; }
text.black {fill: rgb(0, 0, 0); font-size: 3.042500px; font-weight: bold; font-family: Helvetica; }
text.gray {fill: rgb(204, 204, 204); font-size: 3.042500px; font-weight: bold; font-family: Helvetica; }
text.brown {fill: rgb(211.65, 104.55, 30.6); font-size: 3.042500px; font-weight: bold; font-family: Helvetica; }
text {fill: rgb(0, 0, 0); font-size: 3.042500px; font-weight: bold; font-family: Helvetica; text-anchor: middle; alignment-baseline: middle; }

.pseudoknot_connection{stroke-linecap: round; stroke-opacity: 0.2; stroke-width: 1.5; }
.pseudoknot_segment1{stroke-linecap: round; stroke-opacity: 0.4; stroke-width: 3.0425; }
.pseudoknot_segment2{stroke-linecap: round; stroke-opacity: 0.4; stroke-width: 3.0425; }
line.numbering-line{stroke: rgb(204, 204, 204); stroke-width: 0.190156; }
line.predicted{stroke: rgb(0, 0, 0); stroke-dasharray: 2; }
polyline{fill: none; stroke-linejoin: round; }
template{visibility: hidden; }
text.numbering-label{fill: rgb(204, 204, 204); }
]]>
</style></g>
<g><title>0 (position.label in template: 0.5')</title><text x="62.0934" y="205.521" class="green" >5'</text></g>
<g><title>1 (position.label in template: 1.A)</title><text x="69.6545" y="205.521" class="black" >A</text></g>
<g><title>2 (position.label in template: 2.G)</title><text x="77.2155" y="205.521" class="black" >G</text></g>
<g><title>3 (position.label in template: 3.A)</title><text x="82.76" y="200.38" class="black" >A</text></g>
<g><line x1="84.7883" y1="200.076" x2="92.5517" y2="200.076" class="black" /></g>
<g><title>4 (position.label in template: 4.C)</title><text x="82.55" y="192.82" class="black" >C</text></g>
<g><line x1="84.5783" y1="192.516" x2="92.5517" y2="192.516" class="black" /></g>
<g><title>5 (position.label in template: 5.C)</title><text x="82.55" y="185.26" class="green" >C</text></g>
<g><line x1="84.5783" y1="184.956" x2="92.7617" y2="184.956" class="black" /></g>
<g><title>6 (position.label in template: 6.G)</title><text x="82.34" y="177.7" class="black" >G</text></g>
<g><line x1="84.3683" y1="177.396" x2="92.7617" y2="177.396" class="black" /></g>
<g><title>7 (position.label in template: 7.C)</title><text x="82.55" y="170.14" class="black" >C</text></g>
<g><line x1="84.5783" y1="169.836" x2="92.5517" y2="169.836" class="black" /></g>
<g><title>8 (position.label in template: 8.A)</title><text x="82.76" y="162.58" class="green" >A</text></g>
<g><line x1="84.7883" y1="162.276" x2="92.7617" y2="162.276" class="black" /></g>
<g><title>9 (position.label in template: 9.U)</title><text x="82.55" y="155.02" class="green" >T</text></g>
<g><line x1="84.5783" y1="154.716" x2="92.5517" y2="154.716" class="black" /></g>
<g><title>10 (position.label in template: 10.C)</title><text x="82.55" y="147.46" class="black" >C</text></g>
<g><line x1="84.5783" y1="147.156" x2="92.5517" y2="147.156" class="black" /></g>
<g><text x="75.7044" y="147.46" class="numbering-label sequential" >10</text></g>
<g><line x1="80.7245" y1="147.46" x2="77.5299" y2="147.46" class="numbering-line sequential" /></g>
<g><title>11 (position.label in template: 11.C)</title><text x="82.55" y="139.9" class="black" >C</text></g>
<g><line x1="84.5783" y1="139.596" x2="92.5517" y2="139.596" class="black" /></g>
<g><title>12 (position.label in template: 12.C)</title><text x="82.55" y="132.34" class="black" >C</text></g>
<g><line x1="84.5783" y1="132.036" x2="92.5517" y2="132.036" class="black" /></g>
<g><title>13 (position.label in template: 13.U)</title><text x="77.84" y="126.42" class="green" >T</text></g>
<g><title>14 (position.label in template: 14.G)</title><text x="77.63" y="118.86" class="black" >G</text></g>
<g><title>15 (position.label in template: 15.C)</title><text x="82.55" y="112.95" class="black" >C</text></g>
<g><line x1="84.5783" y1="112.646" x2="92.5517" y2="112.646" class="black" /></g>
<g><title>16 (position.label in template: 16.U)</title><text x="82.55" y="105.39" class="green" >T</text></g>
<g><line x1="84.5783" y1="105.086" x2="92.7617" y2="105.086" class="black" /></g>
<g><title>17 (position.label in template: 17.G)</title><text x="76.97" y="110.71" class="black" >G</text></g>
<g><title>18 (position.label in template: 18.A)</title><text x="70.3" y="113.33" class="black" >A</text></g>
<g><title>19 (position.label in template: 19.C)</title><text x="62.55" y="112.77" class="black" >C</text></g>
<g><title>20 (position.label in template: 20.G)</title><text x="55.71" y="109.13" class="black" >G</text></g>
<g><text x="51.2674" y="114.338" class="numbering-label sequential" >20</text></g>
<g><line x1="54.5253" y1="110.519" x2="52.565" y2="112.817" class="numbering-line sequential" /></g>
<g><title>21 (position.label in template: 21.G)</title><text x="51.19" y="103.08" class="black" >G</text></g>
<g><title>22 (position.label in template: 22.A)</title><text x="50" y="95.69" class="black" >A</text></g>
<g><title>23 (position.label in template: 23.A)</title><text x="51.6" y="88.3" class="black" >A</text></g>
<g><title>24 (position.label in template: 24.C)</title><text x="55.92" y="82.24" class="black" >C</text></g>
<g><title>25 (position.label in template: 25.C)</title><text x="62.55" y="78.61" class="black" >C</text></g>
<g><title>26 (position.label in template: 26.U)</title><text x="70.09" y="78.05" class="green" >T</text></g>
<g><title>27 (position.label in template: 27.U)</title><text x="77.18" y="80.67" class="green" >T</text></g>
<g><title>28 (position.label in template: 28.G)</title><text x="82.34" y="85.99" class="black" >G</text></g>
<g><line x1="84.3683" y1="85.6858" x2="92.7617" y2="85.6858" class="black" /></g>
<g><title>29 (position.label in template: 29.U)</title><text x="82.55" y="78.43" class="green" >T</text></g>
<g><line x1="84.5783" y1="78.1258" x2="92.9717" y2="78.1258" class="black" /></g>
<g><title>30 (position.label in template: 30.G)</title><text x="82.34" y="70.87" class="black" >G</text></g>
<g><line x1="84.3683" y1="70.5658" x2="92.7617" y2="70.5658" class="black" /></g>
<g><text x="75.495" y="70.9651" class="numbering-label sequential" >30</text></g>
<g><line x1="80.5147" y1="70.8954" x2="77.3205" y2="70.9397" class="numbering-line sequential" /></g>
<g><title>31 (position.label in template: 31.G)</title><text x="82.34" y="63.31" class="black" >G</text></g>
<g><line x1="84.3683" y1="63.0058" x2="92.7617" y2="63.0058" class="black" /></g>
<g><title>32 (position.label in template: 32.A)</title><text x="80.58" y="56.07" class="black" >A</text></g>
<g><title>33 (position.label in template: 33.G)</title><text x="84.68" y="50" class="black" >G</text></g>
<g><title>34 (position.label in template: 34.C)</title><text x="92.45" y="50" class="black" >C</text></g>
<g><title>35 (position.label in template: 35.A)</title><text x="97.17" y="56.07" class="black" >A</text></g>
<g><title>36 (position.label in template: 36.C)</title><text x="94.79" y="63.31" class="black" >C</text></g>
<g><title>37 (position.label in template: 37.C)</title><text x="94.79" y="70.87" class="black" >C</text></g>
<g><title>38 (position.label in template: 38.A)</title><text x="95" y="78.43" class="green" >A</text></g>
<g><title>39 (position.label in template: 39.C)</title><text x="94.79" y="85.99" class="black" >C</text></g>
<g><title>40 (position.label in template: 40.A)</title><text x="99.7" y="91.91" class="black" >A</text></g>
<g><title>41 (position.label in template: 41.G)</title><text x="99.28" y="99.47" class="black" >G</text></g>
<g><title>42 (position.label in template: 42.U)</title><text x="94.79" y="105.39" class="green" >T</text></g>
<g><title>43 (position.label in template: 43.G)</title><text x="94.58" y="112.95" class="black" >G</text></g>
<g><title>44 (position.label in template: 44.C)</title><text x="99.49" y="118.86" class="black" >C</text></g>
<g><title>45 (position.label in template: 45.A)</title><text x="99.7" y="126.42" class="black" >A</text></g>
<g><title>46 (position.label in template: 46.G)</title><text x="94.58" y="132.34" class="black" >G</text></g>
<g><title>47 (position.label in template: 47.G)</title><text x="94.58" y="139.9" class="black" >G</text></g>
<g><title>48 (position.label in template: 48.G)</title><text x="94.58" y="147.46" class="black" >G</text></g>
<g><title>49 (position.label in template: 49.G)</title><text x="94.58" y="155.02" class="green" >G</text></g>
<g><title>50 (position.label in template: 50.U)</title><text x="94.79" y="162.58" class="green" >T</text></g>
<g><text x="101.636" y="162.58" class="numbering-label sequential" >50</text></g>
<g><line x1="96.6155" y1="162.58" x2="99.8101" y2="162.58" class="numbering-line sequential" /></g>
<g><title>51 (position.label in template: 51.G)</title><text x="94.58" y="170.14" class="black" >G</text></g>
<g><title>52 (position.label in template: 52.C)</title><text x="94.79" y="177.7" class="black" >C</text></g>
<g><title>53 (position.label in template: 53.U)</title><text x="94.79" y="185.26" class="green" >T</text></g>
<g><title>54 (position.label in template: 54.G)</title><text x="94.58" y="192.82" class="black" >G</text></g>
<g><title>55 (position.label in template: 55.G)</title><text x="94.58" y="200.38" class="black" >G</text></g>
<g><title>56 (position.label in template: 56.G)</title><text x="99.92" y="205.73" class="black" >G</text></g>
<g><title>57 (position.label in template: 57.G)</title><text x="107.48" y="205.73" class="black" >G</text></g>
<g><title>58 (position.label in template: 58.A)</title><text x="115.46" y="205.73" class="black" >A</text></g>
<g><title>59 (position.label in template: 59.U)</title><text x="122.81" y="205.73" class="green" >T</text></g>
<g><title>60 (position.label in template: 60.G)</title><text x="130.16" y="205.73" class="black" >G</text></g>
<g><title>61 (position.label in template: 61.U)</title><text x="137.93" y="205.73" class="green" >T</text></g>
<g><title>62 (position.label in template: 62.C)</title><text x="145.5" y="205.73" class="black" >C</text></g>
<g><title>63 (position.label in template: 63.A)</title><text x="153.26" y="205.73" class="black" >A</text></g>
<g><title>64 (position.label in template: 64.A)</title><text x="158.61" y="200.38" class="black" >A</text></g>
<g><line x1="160.638" y1="200.076" x2="168.402" y2="200.076" class="black" /></g>
<g><title>65 (position.label in template: 65.U)</title><text x="158.4" y="192.82" class="green" >T</text></g>
<g><line x1="160.428" y1="192.516" x2="168.822" y2="192.516" class="black" /></g>
<g><title>66 (position.label in template: 66.G)</title><text x="158.19" y="185.26" class="black" >G</text></g>
<g><line x1="160.218" y1="184.956" x2="168.612" y2="184.956" class="black" /></g>
<g><title>67 (position.label in template: 67.C)</title><text x="158.4" y="177.7" class="black" >C</text></g>
<g><line x1="160.428" y1="177.396" x2="168.402" y2="177.396" class="black" /></g>
<g><title>68 (position.label in template: 68.C)</title><text x="158.4" y="170.14" class="black" >C</text></g>
<g><line x1="160.428" y1="169.836" x2="168.402" y2="169.836" class="black" /></g>
<g><title>69 (position.label in template: 69.G)</title><text x="152.48" y="165.18" class="black" >G</text></g>
<g><title>70 (position.label in template: 70.A)</title><text x="150.55" y="157.99" class="black" >A</text></g>
<g><title>71 (position.label in template: 71.C)</title><text x="152.01" y="150.62" class="black" >C</text></g>
<g><title>72 (position.label in template: 72.C)</title><text x="157.23" y="145.15" class="black" >C</text></g>
<g><title>73 (position.label in template: 73.G)</title><text x="164.31" y="143.14" class="black" >G</text></g>
<g><title>74 (position.label in template: 74.U)</title><text x="171.81" y="145.15" class="green" >T</text></g>
<g><title>75 (position.label in template: 75.C)</title><text x="177.03" y="150.62" class="black" >C</text></g>
<g><title>76 (position.label in template: 76.U)</title><text x="178.7" y="157.99" class="green" >T</text></g>
<g><title>77 (position.label in template: 77.G)</title><text x="176.14" y="165.18" class="black" >G</text></g>
<g><title>78 (position.label in template: 78.G)</title><text x="170.43" y="170.14" class="black" >G</text></g>
<g><title>79 (position.label in template: 79.G)</title><text x="170.43" y="177.7" class="black" >G</text></g>
<g><title>80 (position.label in template: 80.C)</title><text x="170.64" y="185.26" class="black" >C</text></g>
<g><title>81 (position.label in template: 81.A)</title><text x="170.85" y="192.82" class="green" >A</text></g>
<g><title>82 (position.label in template: 82.G)</title><text x="170.43" y="200.38" class="black" >G</text></g>
<g><title>83 (position.label in template: 83.C)</title><text x="175.878" y="205.623" class="black" >C</text></g>
<g><title>84 (position.label in template: 84.C)</title><text x="183.439" y="205.623" class="black" >C</text></g>
<g><title>85 (position.label in template: 85.U)</title><text x="191.001" y="205.623" class="green" >T</text></g>
<g><title>86 (position.label in template: 86.U)</title><text x="198.562" y="205.623" class="green" >T</text></g>
<g><title>87 (position.label in template: 87.G)</title><text x="206.123" y="205.623" class="black" >G</text></g>
<g><title>88 (position.label in template: 88.3')</title><text x="213.684" y="205.623" class="green" >3'</text></g>
<g><line x1="64.1217" y1="205.217" x2="67.6261" y2="205.217" class="gray" /></g>
<g><line x1="71.6828" y1="205.217" x2="75.1872" y2="205.217" class="gray" /></g>
<g><line x1="78.7029" y1="203.838" x2="81.2726" y2="201.455" class="gray" /></g>
<g><line x1="82.7037" y1="198.048" x2="82.6063" y2="194.543" class="gray" /></g>
<g><line x1="82.55" y1="190.487" x2="82.55" y2="186.984" class="gray" /></g>
<g><line x1="82.4937" y1="182.928" x2="82.3963" y2="179.423" class="gray" /></g>
<g><line x1="82.3963" y1="175.368" x2="82.4937" y2="171.863" class="gray" /></g>
<g><line x1="82.6063" y1="167.808" x2="82.7037" y2="164.303" class="gray" /></g>
<g><line x1="82.7037" y1="160.248" x2="82.6063" y2="156.743" class="gray" /></g>
<g><line x1="82.55" y1="152.687" x2="82.55" y2="149.184" class="gray" /></g>
<g><line x1="82.55" y1="145.127" x2="82.55" y2="141.624" class="gray" /></g>
<g><line x1="82.55" y1="137.567" x2="82.55" y2="134.064" class="gray" /></g>
<g><line x1="81.2872" y1="130.448" x2="79.1028" y2="127.703" class="gray" /></g>
<g><line x1="77.7837" y1="124.088" x2="77.6863" y2="120.583" class="gray" /></g>
<g><line x1="78.9277" y1="116.997" x2="81.2523" y2="114.205" class="gray" /></g>
<g><line x1="82.55" y1="110.617" x2="82.55" y2="107.114" class="gray" /></g>
<g><line x1="81.082" y1="106.485" x2="78.438" y2="109.006" class="gray" /></g>
<g><line x1="75.0821" y1="111.147" x2="72.1879" y2="112.284" class="gray" /></g>
<g><line x1="68.2769" y1="112.88" x2="64.5731" y2="112.612" class="gray" /></g>
<g><line x1="60.7594" y1="111.513" x2="57.5006" y2="109.779" class="gray" /></g>
<g><line x1="54.496" y1="107.201" x2="52.404" y2="104.401" class="gray" /></g>
<g><line x1="50.8675" y1="100.773" x2="50.3225" y2="97.3883" class="gray" /></g>
<g><line x1="50.4292" y1="93.4033" x2="51.1708" y2="89.9782" class="gray" /></g>
<g><line x1="52.7774" y1="86.3441" x2="54.7426" y2="83.5874" class="gray" /></g>
<g><line x1="57.6991" y1="80.9617" x2="60.7709" y2="79.2798" class="gray" /></g>
<g><line x1="64.5728" y1="78.1555" x2="68.0672" y2="77.896" class="gray" /></g>
<g><line x1="71.9926" y1="78.4488" x2="75.2774" y2="79.6627" class="gray" /></g>
<g><line x1="78.5922" y1="81.8217" x2="80.9278" y2="84.2298" class="gray" /></g>
<g><line x1="82.3963" y1="83.6582" x2="82.4937" y2="80.1533" class="gray" /></g>
<g><line x1="82.4937" y1="76.0982" x2="82.3963" y2="72.5933" class="gray" /></g>
<g><line x1="82.34" y1="68.5374" x2="82.34" y2="65.0341" class="gray" /></g>
<g><line x1="81.8609" y1="61.0348" x2="81.0591" y2="57.7367" class="gray" /></g>
<g><line x1="81.7153" y1="54.0849" x2="83.5447" y2="51.3766" class="gray" /></g>
<g><line x1="86.7083" y1="49.6958" x2="90.4217" y2="49.6958" class="gray" /></g>
<g><line x1="93.6951" y1="51.297" x2="95.9249" y2="54.1645" class="gray" /></g>
<g><line x1="96.5366" y1="57.6926" x2="95.4234" y2="61.0789" class="gray" /></g>
<g><line x1="94.79" y1="65.0341" x2="94.79" y2="68.5374" class="gray" /></g>
<g><line x1="94.8463" y1="72.5933" x2="94.9437" y2="76.0982" class="gray" /></g>
<g><line x1="94.9437" y1="80.1533" x2="94.8463" y2="83.6582" class="gray" /></g>
<g><line x1="96.0849" y1="87.247" x2="98.4051" y2="90.0445" class="gray" /></g>
<g><line x1="99.5875" y1="93.631" x2="99.3925" y2="97.1405" class="gray" /></g>
<g><line x1="98.0543" y1="100.782" x2="96.0157" y2="103.47" class="gray" /></g>
<g><line x1="94.7337" y1="107.113" x2="94.6363" y2="110.618" class="gray" /></g>
<g><line x1="95.8762" y1="114.206" x2="98.1938" y2="116.996" class="gray" /></g>
<g><line x1="99.5463" y1="120.583" x2="99.6437" y2="124.088" class="gray" /></g>
<g><line x1="98.3732" y1="127.65" x2="95.9068" y2="130.502" class="gray" /></g>
<g><line x1="94.58" y1="134.064" x2="94.58" y2="137.567" class="gray" /></g>
<g><line x1="94.58" y1="141.624" x2="94.58" y2="145.127" class="gray" /></g>
<g><line x1="94.58" y1="149.184" x2="94.58" y2="152.687" class="gray" /></g>
<g><line x1="94.6363" y1="156.743" x2="94.7337" y2="160.248" class="gray" /></g>
<g><line x1="94.7337" y1="164.303" x2="94.6363" y2="167.808" class="gray" /></g>
<g><line x1="94.6363" y1="171.863" x2="94.7337" y2="175.368" class="gray" /></g>
<g><line x1="94.79" y1="179.424" x2="94.79" y2="182.927" class="gray" /></g>
<g><line x1="94.7337" y1="186.983" x2="94.6363" y2="190.488" class="gray" /></g>
<g><line x1="94.58" y1="194.544" x2="94.58" y2="198.047" class="gray" /></g>
<g><line x1="96.0129" y1="201.511" x2="98.4871" y2="203.99" class="gray" /></g>
<g><line x1="101.948" y1="205.426" x2="105.452" y2="205.426" class="gray" /></g>
<g><line x1="109.508" y1="205.426" x2="113.432" y2="205.426" class="gray" /></g>
<g><line x1="117.488" y1="205.426" x2="120.782" y2="205.426" class="gray" /></g>
<g><line x1="124.838" y1="205.426" x2="128.132" y2="205.426" class="gray" /></g>
<g><line x1="132.188" y1="205.426" x2="135.902" y2="205.426" class="gray" /></g>
<g><line x1="139.958" y1="205.426" x2="143.472" y2="205.426" class="gray" /></g>
<g><line x1="147.528" y1="205.426" x2="151.232" y2="205.426" class="gray" /></g>
<g><line x1="154.694" y1="203.992" x2="157.176" y2="201.51" class="gray" /></g>
<g><line x1="158.554" y1="198.048" x2="158.456" y2="194.543" class="gray" /></g>
<g><line x1="158.344" y1="190.488" x2="158.246" y2="186.983" class="gray" /></g>
<g><line x1="158.246" y1="182.928" x2="158.344" y2="179.423" class="gray" /></g>
<g><line x1="158.4" y1="175.367" x2="158.4" y2="171.864" class="gray" /></g>
<g><line x1="156.845" y1="168.533" x2="154.035" y2="166.178" class="gray" /></g>
<g><line x1="151.954" y1="162.917" x2="151.076" y2="159.645" class="gray" /></g>
<g><line x1="150.944" y1="155.696" x2="151.616" y2="152.305" class="gray" /></g>
<g><line x1="153.41" y1="148.848" x2="155.83" y2="146.313" class="gray" /></g>
<g><line x1="159.181" y1="144.292" x2="162.359" y2="143.39" class="gray" /></g>
<g><line x1="166.269" y1="143.361" x2="169.851" y2="144.321" class="gray" /></g>
<g><line x1="173.21" y1="146.313" x2="175.63" y2="148.848" class="gray" /></g>
<g><line x1="177.478" y1="152.294" x2="178.252" y2="155.708" class="gray" /></g>
<g><line x1="178.02" y1="159.597" x2="176.82" y2="162.965" class="gray" /></g>
<g><line x1="174.609" y1="166.206" x2="171.961" y2="168.506" class="gray" /></g>
<g><line x1="170.43" y1="171.864" x2="170.43" y2="175.367" class="gray" /></g>
<g><line x1="170.486" y1="179.423" x2="170.584" y2="182.928" class="gray" /></g>
<g><line x1="170.696" y1="186.983" x2="170.794" y2="190.488" class="gray" /></g>
<g><line x1="170.737" y1="194.541" x2="170.543" y2="198.051" class="gray" /></g>
<g><line x1="171.892" y1="201.482" x2="174.417" y2="203.912" class="gray" /></g>
<g><line x1="177.907" y1="205.318" x2="181.411" y2="205.318" class="gray" /></g>
<g><line x1="185.468" y1="205.318" x2="188.972" y2="205.318" class="gray" /></g>
<g><line x1="193.029" y1="205.318" x2="196.533" y2="205.318" class="gray" /></g>
<g><line x1="200.59" y1="205.318" x2="204.094" y2="205.318" class="gray" /></g>
<g><line x1="208.151" y1="205.318" x2="211.655" y2="205.318" class="gray" /></g>
</svg>
