<svg
	xmlns="http://www.w3.org/2000/svg"
	width="269.78"
	height="297.722">
<g><style type="text/css" >
<!-- create color definitions -->
<![CDATA[
circle.red {stroke: rgb(255, 0, 255); fill: none; }
circle.green {stroke: rgb(0, 255, 0); fill: none; }
circle.blue {stroke: rgb(0, 0, 255); fill: none; }
circle.black {stroke: rgb(0, 0, 0); fill: none; }
circle.gray {stroke: rgb(204, 204, 204); fill: none; }
circle.brown {stroke: rgb(211.65, 104.55, 30.6); fill: none; }
line.red {stroke: rgb(255, 0, 255); stroke-width: 0.385781; }
line.green {stroke: rgb(0, 255, 0); stroke-width: 0.385781; }
line.blue {stroke: rgb(0, 0, 255); stroke-width: 0.385781; }
line.black {stroke: rgb(0, 0, 0); stroke-width: 0.385781; }
line.gray {stroke: rgb(204, 204, 204); stroke-width: 0.385781; }
line.brown {stroke: rgb(211.65, 104.55, 30.6); stroke-width: 0.385781; }
line {stroke: rgb(0, 0, 0); }
text.red {fill: rgb(255, 0, 255); font-size: 3.086250px; font-weight: bold; font-family: Helvetica; }
text.green {fill: rgb(0, 255, 0); font-size: 3.086250px; font-weight: bold; font-family: Helvetica; }
text.blue {fill: rgb(0, 0, 255); font-size: 3.086250px; font-weight: bold; font-family: Helvetica; }
text.black {fill: rgb(0, 0, 0); font-size: 3.086250px; font-weight: bold; font-family: Helvetica; }
text.gray {fill: rgb(204, 204, 204); font-size: 3.086250px; font-weight: bold; font-family: Helvetica; }
text.brown {fill: rgb(211.65, 104.55, 30.6); font-size: 3.086250px; font-weight: bold; font-family: Helvetica; }
text {fill: rgb(0, 0, 0); font-size: 3.086250px; font-weight: bold; font-family: Helvetica; text-anchor: middle; alignment-baseline: middle; }

.pseudoknot_connection{stroke-linecap: round; stroke-opacity: 0.2; stroke-width: 1.5; }
.pseudoknot_segment1{stroke-linecap: round; stroke-opacity: 0.4; stroke-width: 3.08625; }
.pseudoknot_segment2{stroke-linecap: round; stroke-opacity: 0.4; stroke-width: 3.08625; }
line.numbering-line{stroke: rgb(204, 204, 204); stroke-width: 0.192891; }
line.predicted{stroke: rgb(0, 0, 0); stroke-dasharray: 2; }
polyline{fill: none; stroke-linejoin: round; }
template{visibility: hidden; }
text.numbering-label{fill: rgb(204, 204, 204); }
]]>
</style></g>
<g><title>0 (position.label in template: 0.5')</title><text x="128.45" y="249.942" class="green" >5'</text></g>
<g><title>1 (position.label in template: 1.G)</title><text x="128.45" y="242.38" class="black" >G</text></g>
<g><line x1="130.507" y1="242.071" x2="138.843" y2="242.071" class="black" /></g>
<g><title>2 (position.label in template: 2.G)</title><text x="128.45" y="234.82" class="black" >G</text></g>
<g><line x1="130.507" y1="234.511" x2="138.843" y2="234.511" class="black" /></g>
<g><title>3 (position.label in template: 3.U)</title><text x="128.66" y="227.26" class="green" >T</text></g>
<g><line x1="130.718" y1="226.951" x2="139.053" y2="226.951" class="black" /></g>
<g><title>4 (position.label in template: 4.C)</title><text x="128.66" y="219.7" class="black" >C</text></g>
<g><line x1="130.718" y1="219.391" x2="138.632" y2="219.391" class="black" /></g>
<g><title>5 (position.label in template: 5.A)</title><text x="121.36" y="218.82" class="black" >A</text></g>
<g><title>6 (position.label in template: 6.G)</title><text x="113.54" y="217.28" class="black" >G</text></g>
<g><title>7 (position.label in template: 7.U)</title><text x="106.52" y="215.08" class="green" >T</text></g>
<g><title>8 (position.label in template: 8.G)</title><text x="99.3" y="212.25" class="black" >G</text></g>
<g><title>9 (position.label in template: 9.A)</title><text x="92.98" y="208.81" class="black" >A</text></g>
<g><title>10 (position.label in template: 10.U)</title><text x="86.38" y="204.79" class="green" >T</text></g>
<g><text x="82.5136" y="210.558" class="numbering-label sequential" >10</text></g>
<g><line x1="85.349" y1="206.328" x2="83.548" y2="209.015" class="numbering-line sequential" /></g>
<g><title>11 (position.label in template: 11.G)</title><text x="80.15" y="200.21" class="black" >G</text></g>
<g><title>12 (position.label in template: 12.G)</title><text x="74.56" y="195.12" class="black" >G</text></g>
<g><title>13 (position.label in template: 13.C)</title><text x="69.66" y="189.55" class="black" >C</text></g>
<g><title>14 (position.label in template: 14.A)</title><text x="65.27" y="183.54" class="black" >A</text></g>
<g><title>15 (position.label in template: 15.U)</title><text x="61.02" y="177.16" class="green" >T</text></g>
<g><title>16 (position.label in template: 16.G)</title><text x="57.35" y="170.44" class="black" >G</text></g>
<g><title>17 (position.label in template: 17.U)</title><text x="54.71" y="163.43" class="green" >T</text></g>
<g><title>18 (position.label in template: 18.G)</title><text x="52.28" y="156.21" class="black" >G</text></g>
<g><title>19 (position.label in template: 19.U)</title><text x="50.93" y="148.81" class="green" >T</text></g>
<g><title>20 (position.label in template: 20.U)</title><text x="50.03" y="141.3" class="green" >T</text></g>
<g><text x="43.0991" y="141.728" class="numbering-label sequential" >20</text></g>
<g><line x1="48.1818" y1="141.414" x2="44.9509" y2="141.614" class="numbering-line sequential" /></g>
<g><title>21 (position.label in template: 21.A)</title><text x="50" y="133.75" class="black" >A</text></g>
<g><title>22 (position.label in template: 22.U)</title><text x="50.23" y="126.2" class="green" >T</text></g>
<g><title>23 (position.label in template: 23.C)</title><text x="51.34" y="118.72" class="black" >C</text></g>
<g><title>24 (position.label in template: 24.U)</title><text x="53.11" y="111.37" class="green" >T</text></g>
<g><title>25 (position.label in template: 25.G)</title><text x="55.32" y="104.21" class="black" >G</text></g>
<g><title>26 (position.label in template: 26.A)</title><text x="58.78" y="97.29" class="black" >A</text></g>
<g><title>27 (position.label in template: 27.C)</title><text x="62.22" y="90.66" class="black" >C</text></g>
<g><title>28 (position.label in template: 28.C)</title><text x="66.43" y="84.39" class="black" >C</text></g>
<g><title>29 (position.label in template: 29.U)</title><text x="71.19" y="78.52" class="green" >T</text></g>
<g><title>30 (position.label in template: 30.A)</title><text x="76.66" y="73.09" class="black" >A</text></g>
<g><text x="71.8459" y="68.0856" class="numbering-label sequential" >30</text></g>
<g><line x1="75.3762" y1="71.7555" x2="73.3303" y2="69.6287" class="numbering-line sequential" /></g>
<g><title>31 (position.label in template: 31.G)</title><text x="81.97" y="68.15" class="black" >G</text></g>
<g><title>32 (position.label in template: 32.A)</title><text x="88.53" y="63.74" class="black" >A</text></g>
<g><title>33 (position.label in template: 33.G)</title><text x="94.62" y="59.9" class="black" >G</text></g>
<g><title>34 (position.label in template: 34.U)</title><text x="101.66" y="56.64" class="green" >T</text></g>
<g><title>35 (position.label in template: 35.U)</title><text x="108.74" y="54.01" class="green" >T</text></g>
<g><title>36 (position.label in template: 36.G)</title><text x="115.82" y="52.01" class="black" >G</text></g>
<g><title>37 (position.label in template: 37.A)</title><text x="123.68" y="50.68" class="black" >A</text></g>
<g><title>38 (position.label in template: 38.U)</title><text x="131" y="50" class="green" >T</text></g>
<g><title>39 (position.label in template: 39.G)</title><text x="138.35" y="50" class="black" >G</text></g>
<g><title>40 (position.label in template: 40.U)</title><text x="146.09" y="50.68" class="green" >T</text></g>
<g><title>41 (position.label in template: 41.C)</title><text x="153.53" y="52.01" class="black" >C</text></g>
<g><title>42 (position.label in template: 42.U)</title><text x="160.83" y="54.01" class="green" >T</text></g>
<g><title>43 (position.label in template: 43.G)</title><text x="167.7" y="56.64" class="black" >G</text></g>
<g><title>44 (position.label in template: 44.U)</title><text x="174.74" y="59.9" class="green" >T</text></g>
<g><title>45 (position.label in template: 45.C)</title><text x="181.25" y="63.74" class="black" >C</text></g>
<g><title>46 (position.label in template: 46.A)</title><text x="187.59" y="68.15" class="black" >A</text></g>
<g><title>47 (position.label in template: 47.C)</title><text x="193.11" y="73.09" class="black" >C</text></g>
<g><title>48 (position.label in template: 48.C)</title><text x="198.37" y="78.52" class="black" >C</text></g>
<g><title>49 (position.label in template: 49.A)</title><text x="203.34" y="84.39" class="black" >A</text></g>
<g><title>50 (position.label in template: 50.C)</title><text x="207.35" y="90.66" class="black" >C</text></g>
<g><text x="213.321" y="87.1146" class="numbering-label sequential" >50</text></g>
<g><line x1="208.942" y1="89.7146" x2="211.469" y2="88.2141" class="numbering-line sequential" /></g>
<g><title>51 (position.label in template: 51.U)</title><text x="211" y="97.29" class="green" >T</text></g>
<g><title>52 (position.label in template: 52.U)</title><text x="214.04" y="104.21" class="green" >T</text></g>
<g><title>53 (position.label in template: 53.U)</title><text x="216.46" y="111.37" class="green" >T</text></g>
<g><title>54 (position.label in template: 54.A)</title><text x="218.43" y="118.72" class="black" >A</text></g>
<g><title>55 (position.label in template: 55.G)</title><text x="219.12" y="126.2" class="black" >G</text></g>
<g><title>56 (position.label in template: 56.C)</title><text x="219.78" y="133.75" class="black" >C</text></g>
<g><title>57 (position.label in template: 57.U)</title><text x="219.54" y="141.3" class="green" >T</text></g>
<g><title>58 (position.label in template: 58.C)</title><text x="218.64" y="148.81" class="black" >C</text></g>
<g><title>59 (position.label in template: 59.U)</title><text x="217.07" y="156.21" class="green" >T</text></g>
<g><title>60 (position.label in template: 60.A)</title><text x="215.06" y="163.43" class="black" >A</text></g>
<g><title>61 (position.label in template: 61.G)</title><text x="211.8" y="170.44" class="black" >G</text></g>
<g><title>62 (position.label in template: 62.A)</title><text x="208.75" y="177.16" class="black" >A</text></g>
<g><title>63 (position.label in template: 63.A)</title><text x="204.71" y="183.54" class="black" >A</text></g>
<g><title>64 (position.label in template: 64.U)</title><text x="199.91" y="189.55" class="green" >T</text></g>
<g><title>65 (position.label in template: 65.U)</title><text x="194.79" y="195.12" class="green" >T</text></g>
<g><title>66 (position.label in template: 66.A)</title><text x="189.41" y="200.21" class="black" >A</text></g>
<g><title>67 (position.label in template: 67.C)</title><text x="183.19" y="204.79" class="black" >C</text></g>
<g><title>68 (position.label in template: 68.U)</title><text x="176.79" y="208.81" class="green" >T</text></g>
<g><title>69 (position.label in template: 69.C)</title><text x="170.06" y="212.25" class="black" >C</text></g>
<g><title>70 (position.label in template: 70.U)</title><text x="163.05" y="215.08" class="green" >T</text></g>
<g><title>71 (position.label in template: 71.G)</title><text x="155.6" y="217.28" class="black" >G</text></g>
<g><title>72 (position.label in template: 72.A)</title><text x="148.62" y="218.82" class="black" >A</text></g>
<g><title>73 (position.label in template: 73.G)</title><text x="140.69" y="219.7" class="black" >G</text></g>
<g><title>74 (position.label in template: 74.A)</title><text x="141.11" y="227.26" class="green" >A</text></g>
<g><title>75 (position.label in template: 75.C)</title><text x="140.9" y="234.82" class="black" >C</text></g>
<g><title>76 (position.label in template: 76.C)</title><text x="140.9" y="242.38" class="black" >C</text></g>
<g><title>77 (position.label in template: 77.C)</title><text x="146.252" y="247.722" class="black" >C</text></g>
<g><title>78 (position.label in template: 78.A)</title><text x="153.814" y="247.722" class="black" >A</text></g>
<g><title>79 (position.label in template: 79.3')</title><text x="161.376" y="247.722" class="green" >3'</text></g>
<g><line x1="128.45" y1="247.576" x2="128.45" y2="244.129" class="gray" /></g>
<g><line x1="128.45" y1="240.014" x2="128.45" y2="236.569" class="gray" /></g>
<g><line x1="128.507" y1="232.455" x2="128.603" y2="229.008" class="gray" /></g>
<g><line x1="128.66" y1="224.894" x2="128.66" y2="221.449" class="gray" /></g>
<g><line x1="126.617" y1="219.145" x2="123.403" y2="218.758" class="gray" /></g>
<g><line x1="119.341" y1="218.114" x2="115.559" y2="217.369" class="gray" /></g>
<g><line x1="111.577" y1="216.356" x2="108.483" y2="215.387" class="gray" /></g>
<g><line x1="104.604" y1="214.021" x2="101.216" y2="212.692" class="gray" /></g>
<g><line x1="97.4929" y1="210.958" x2="94.7871" y2="209.485" class="gray" /></g>
<g><line x1="91.2228" y1="207.431" x2="88.1372" y2="205.552" class="gray" /></g>
<g><line x1="84.7223" y1="203.263" x2="81.8077" y2="201.12" class="gray" /></g>
<g><line x1="78.6287" y1="198.516" x2="76.0813" y2="196.197" class="gray" /></g>
<g><line x1="73.201" y1="193.267" x2="71.019" y2="190.786" class="gray" /></g>
<g><line x1="68.4464" y1="187.58" x2="66.4836" y2="184.893" class="gray" /></g>
<g><line x1="64.1293" y1="181.519" x2="62.1607" y2="178.564" class="gray" /></g>
<g><line x1="60.0338" y1="175.046" x2="58.3362" y2="171.937" class="gray" /></g>
<g><line x1="56.6249" y1="168.206" x2="55.4351" y2="165.047" class="gray" /></g>
<g><line x1="54.0537" y1="161.171" x2="52.9363" y2="157.851" class="gray" /></g>
<g><line x1="51.9107" y1="153.877" x2="51.2993" y2="150.525" class="gray" /></g>
<g><line x1="50.6852" y1="146.458" x2="50.2748" y2="143.034" class="gray" /></g>
<g><line x1="50.0218" y1="138.934" x2="50.0082" y2="135.499" class="gray" /></g>
<g><line x1="50.0626" y1="131.385" x2="50.1674" y2="127.948" class="gray" /></g>
<g><line x1="50.532" y1="123.856" x2="51.038" y2="120.447" class="gray" /></g>
<g><line x1="51.8217" y1="116.411" x2="52.6283" y2="113.062" class="gray" /></g>
<g><line x1="53.7168" y1="109.095" x2="54.7132" y2="105.867" class="gray" /></g>
<g><line x1="56.2401" y1="102.061" x2="57.8599" y2="98.8217" class="gray" /></g>
<g><line x1="59.7276" y1="95.1551" x2="61.2724" y2="92.1777" class="gray" /></g>
<g><line x1="63.3669" y1="88.6432" x2="65.2831" y2="85.7895" class="gray" /></g>
<g><line x1="67.7259" y1="82.4833" x2="69.8941" y2="79.8095" class="gray" /></g>
<g><line x1="72.6502" y1="76.7619" x2="75.1998" y2="74.2309" class="gray" /></g>
<g><line x1="78.1664" y1="71.3799" x2="80.4636" y2="69.2428" class="gray" /></g>
<g><line x1="83.6775" y1="66.6935" x2="86.8225" y2="64.5793" class="gray" /></g>
<g><line x1="90.2704" y1="62.334" x2="92.8796" y2="60.6888" class="gray" /></g>
<g><line x1="96.487" y1="58.7268" x2="99.793" y2="57.1959" class="gray" /></g>
<g><line x1="103.589" y1="55.6149" x2="106.811" y2="54.4178" class="gray" /></g>
<g><line x1="110.72" y1="53.142" x2="113.84" y2="52.2607" class="gray" /></g>
<g><line x1="117.849" y1="51.3581" x2="121.651" y2="50.7146" class="gray" /></g>
<g><line x1="125.729" y1="50.1811" x2="128.951" y2="49.8817" class="gray" /></g>
<g><line x1="133.058" y1="49.6914" x2="136.292" y2="49.6914" class="gray" /></g>
<g><line x1="140.4" y1="49.8714" x2="144.04" y2="50.1913" class="gray" /></g>
<g><line x1="148.115" y1="50.7334" x2="151.505" y2="51.3393" class="gray" /></g>
<g><line x1="155.514" y1="52.245" x2="158.846" y2="53.1577" class="gray" /></g>
<g><line x1="162.752" y1="54.437" x2="165.778" y2="55.5958" class="gray" /></g>
<g><line x1="169.567" y1="57.1959" x2="172.873" y2="58.7268" class="gray" /></g>
<g><line x1="176.512" y1="60.6367" x2="179.478" y2="62.386" class="gray" /></g>
<g><line x1="182.939" y1="64.6063" x2="185.901" y2="66.6665" class="gray" /></g>
<g><line x1="189.123" y1="69.2135" x2="191.577" y2="71.4093" class="gray" /></g>
<g><line x1="194.542" y1="74.2592" x2="196.938" y2="76.7336" class="gray" /></g>
<g><line x1="199.7" y1="79.7816" x2="202.01" y2="82.5111" class="gray" /></g>
<g><line x1="204.449" y1="85.8147" x2="206.241" y2="88.6181" class="gray" /></g>
<g><line x1="208.342" y1="92.1538" x2="210.008" y2="95.179" class="gray" /></g>
<g><line x1="211.828" y1="98.8651" x2="213.212" y2="102.018" class="gray" /></g>
<g><line x1="214.699" y1="105.851" x2="215.801" y2="109.112" class="gray" /></g>
<g><line x1="216.993" y1="113.049" x2="217.897" y2="116.424" class="gray" /></g>
<g><line x1="218.619" y1="120.46" x2="218.931" y2="123.843" class="gray" /></g>
<g><line x1="219.299" y1="127.941" x2="219.601" y2="131.392" class="gray" /></g>
<g><line x1="219.715" y1="135.498" x2="219.605" y2="138.935" class="gray" /></g>
<g><line x1="219.295" y1="143.034" x2="218.885" y2="146.458" class="gray" /></g>
<g><line x1="218.213" y1="150.514" x2="217.497" y2="153.889" class="gray" /></g>
<g><line x1="216.518" y1="157.883" x2="215.612" y2="161.139" class="gray" /></g>
<g><line x1="214.192" y1="164.987" x2="212.668" y2="168.266" class="gray" /></g>
<g><line x1="210.95" y1="172.005" x2="209.6" y2="174.978" class="gray" /></g>
<g><line x1="207.649" y1="178.59" x2="205.811" y2="181.493" class="gray" /></g>
<g><line x1="203.426" y1="184.839" x2="201.194" y2="187.634" class="gray" /></g>
<g><line x1="198.518" y1="190.756" x2="196.182" y2="193.297" class="gray" /></g>
<g><line x1="193.295" y1="196.225" x2="190.905" y2="198.487" class="gray" /></g>
<g><line x1="187.753" y1="201.121" x2="184.847" y2="203.261" class="gray" /></g>
<g><line x1="181.448" y1="205.576" x2="178.532" y2="207.407" class="gray" /></g>
<g><line x1="174.958" y1="209.438" x2="171.892" y2="211.005" class="gray" /></g>
<g><line x1="168.152" y1="212.712" x2="164.958" y2="214.001" class="gray" /></g>
<g><line x1="161.077" y1="215.354" x2="157.573" y2="216.389" class="gray" /></g>
<g><line x1="153.591" y1="217.415" x2="150.629" y2="218.068" class="gray" /></g>
<g><line x1="146.575" y1="218.738" x2="142.735" y2="219.164" class="gray" /></g>
<g><line x1="140.804" y1="221.446" x2="140.996" y2="224.897" class="gray" /></g>
<g><line x1="141.053" y1="229.008" x2="140.957" y2="232.455" class="gray" /></g>
<g><line x1="140.9" y1="236.569" x2="140.9" y2="240.014" class="gray" /></g>
<g><line x1="142.356" y1="243.525" x2="144.796" y2="245.96" class="gray" /></g>
<g><line x1="148.31" y1="247.413" x2="151.757" y2="247.413" class="gray" /></g>
<g><line x1="155.872" y1="247.413" x2="159.318" y2="247.413" class="gray" /></g>
</svg>
