<svg
	xmlns="http://www.w3.org/2000/svg"
	width="279.6"
	height="197.078">
<g><style type="text/css" >
<!-- create color definitions -->
<![CDATA[
circle.red {stroke: rgb(255, 0, 255); fill: none; }
circle.green {stroke: rgb(0, 255, 0); fill: none; }
circle.blue {stroke: rgb(0, 0, 255); fill: none; }
circle.black {stroke: rgb(0, 0, 0); fill: none; }
circle.gray {stroke: rgb(204, 204, 204); fill: none; }
circle.brown {stroke: rgb(211.65, 104.55, 30.6); fill: none; }
line.red {stroke: rgb(255, 0, 255); stroke-width: 0.382623; }
line.green {stroke: rgb(0, 255, 0); stroke-width: 0.382623; }
line.blue {stroke: rgb(0, 0, 255); stroke-width: 0.382623; }
line.black {stroke: rgb(0, 0, 0); stroke-width: 0.382623; }
line.gray {stroke: rgb(204, 204, 204); stroke-width: 0.382623; }
line.brown {stroke: rgb(211.65, 104.55, 30.6); stroke-width: 0.382623; }
line {stroke: rgb(0, 0, 0); }
text.red {fill: rgb(255, 0, 255); font-size: 3.060981px; font-weight: bold; font-family: Helvetica; }
text.green {fill: rgb(0, 255, 0); font-size: 3.060981px; font-weight: bold; font-family: Helvetica; }
text.blue {fill: rgb(0, 0, 255); font-size: 3.060981px; font-weight: bold; font-family: Helvetica; }
text.black {fill: rgb(0, 0, 0); font-size: 3.060981px; font-weight: bold; font-family: Helvetica; }
text.gray {fill: rgb(204, 204, 204); font-size: 3.060981px; font-weight: bold; font-family: Helvetica; }
text.brown {fill: rgb(211.65, 104.55, 30.6); font-size: 3.060981px; font-weight: bold; font-family: Helvetica; }
text {fill: rgb(0, 0, 0); font-size: 3.060981px; font-weight: bold; font-family: Helvetica; text-anchor: middle; alignment-baseline: middle; }

.pseudoknot_connection{stroke-linecap: round; stroke-opacity: 0.2; stroke-width: 1.5; }
.pseudoknot_segment1{stroke-linecap: round; stroke-opacity: 0.4; stroke-width: 3.06098; }
.pseudoknot_segment2{stroke-linecap: round; stroke-opacity: 0.4; stroke-width: 3.06098; }
line.numbering-line{stroke: rgb(204, 204, 204); stroke-width: 0.191311; }
line.predicted{stroke: rgb(0, 0, 0); stroke-dasharray: 2; }
polyline{fill: none; stroke-linejoin: round; }
template{visibility: hidden; }
text.numbering-label{fill: rgb(204, 204, 204); }
]]>
</style></g>
<g><title>0 (position.label in template: 0.5')</title><text x="85.7583" y="147.078" class="green" >5'</text></g>
<g><title>1 (position.label in template: 1.A)</title><text x="93.3071" y="147.078" class="black" >A</text></g>
<g><title>2 (position.label in template: 2.A)</title><text x="100.856" y="147.078" class="black" >A</text></g>
<g><title>3 (position.label in template: 3.A)</title><text x="108.405" y="147.078" class="black" >A</text></g>
<g><title>4 (position.label in template: 4.A)</title><text x="115.953" y="147.078" class="black" >A</text></g>
<g><title>5 (position.label in template: 5.A)</title><text x="123.502" y="147.078" class="black" >A</text></g>
<g><title>6 (position.label in template: 6.A)</title><text x="128.84" y="141.74" class="green" >A</text></g>
<g><line x1="130.881" y1="141.434" x2="138.839" y2="141.434" class="black" /></g>
<g><title>7 (position.label in template: 7.C)</title><text x="128.64" y="134.18" class="black" >C</text></g>
<g><line x1="130.681" y1="133.874" x2="138.629" y2="133.874" class="black" /></g>
<g><title>8 (position.label in template: 8.U)</title><text x="128.64" y="126.62" class="green" >T</text></g>
<g><line x1="130.681" y1="126.314" x2="139.039" y2="126.314" class="black" /></g>
<g><title>9 (position.label in template: 9.U)</title><text x="128.64" y="119.06" class="green" >T</text></g>
<g><line x1="130.681" y1="118.754" x2="139.039" y2="118.754" class="black" /></g>
<g><title>10 (position.label in template: 10.U)</title><text x="128.64" y="111.5" class="green" >T</text></g>
<g><line x1="130.681" y1="111.194" x2="139.039" y2="111.194" class="black" /></g>
<g><text x="122.622" y="114.85" class="numbering-label sequential" >10</text></g>
<g><line x1="127.035" y1="112.393" x2="124.459" y2="113.828" class="numbering-line sequential" /></g>
<g><title>11 (position.label in template: 11.U)</title><text x="122.21" y="107.51" class="green" >T</text></g>
<g><line x1="121.335" y1="105.36" x2="117.875" y2="98.0675" class="black" /></g>
<g><title>12 (position.label in template: 12.G)</title><text x="115.23" y="110.86" class="black" >G</text></g>
<g><line x1="114.354" y1="108.711" x2="110.886" y2="101.417" class="black" /></g>
<g><title>13 (position.label in template: 13.G)</title><text x="108.45" y="114.21" class="black" >G</text></g>
<g><line x1="107.575" y1="112.061" x2="104.115" y2="104.777" class="black" /></g>
<g><title>14 (position.label in template: 14.G)</title><text x="101.67" y="117.56" class="black" >G</text></g>
<g><line x1="100.795" y1="115.411" x2="97.3355" y2="108.127" class="black" /></g>
<g><title>15 (position.label in template: 15.G)</title><text x="96.86" y="123.39" class="black" >G</text></g>
<g><title>16 (position.label in template: 16.U)</title><text x="89.52" y="123.67" class="green" >T</text></g>
<g><line x1="88.6432" y1="121.521" x2="85.1768" y2="114.237" class="black" /></g>
<g><title>17 (position.label in template: 17.G)</title><text x="82.53" y="127.02" class="black" >G</text></g>
<g><line x1="81.6545" y1="124.871" x2="78.1955" y2="117.587" class="black" /></g>
<g><title>18 (position.label in template: 18.C)</title><text x="75.97" y="130.37" class="black" >C</text></g>
<g><line x1="75.0369" y1="128.249" x2="71.2631" y2="120.909" class="black" /></g>
<g><title>19 (position.label in template: 19.C)</title><text x="69.19" y="133.72" class="black" >C</text></g>
<g><line x1="68.2569" y1="131.599" x2="64.4831" y2="124.259" class="black" /></g>
<g><title>20 (position.label in template: 20.A)</title><text x="62.62" y="137.07" class="black" >A</text></g>
<g><line x1="61.7147" y1="134.935" x2="58.0953" y2="127.623" class="black" /></g>
<g><text x="65.6333" y="143.263" class="numbering-label sequential" >20</text></g>
<g><line x1="63.4235" y1="138.721" x2="64.8886" y2="141.733" class="numbering-line sequential" /></g>
<g><title>21 (position.label in template: 21.G)</title><text x="55.42" y="140.42" class="black" >G</text></g>
<g><line x1="54.5161" y1="138.284" x2="50.9039" y2="130.973" class="black" /></g>
<g><title>22 (position.label in template: 22.G)</title><text x="50" y="129.45" class="black" >G</text></g>
<g><title>23 (position.label in template: 23.A)</title><text x="57.19" y="126.1" class="black" >A</text></g>
<g><title>24 (position.label in template: 24.G)</title><text x="63.55" y="122.75" class="black" >G</text></g>
<g><title>25 (position.label in template: 25.G)</title><text x="70.33" y="119.4" class="black" >G</text></g>
<g><title>26 (position.label in template: 26.C)</title><text x="77.32" y="116.05" class="black" >C</text></g>
<g><title>27 (position.label in template: 27.U)</title><text x="69.97" y="114.26" class="green" >T</text></g>
<g><title>28 (position.label in template: 28.G)</title><text x="65.29" y="108.17" class="black" >G</text></g>
<g><title>29 (position.label in template: 29.A)</title><text x="66.19" y="100.62" class="black" >A</text></g>
<g><title>30 (position.label in template: 30.G)</title><text x="71" y="95.16" class="black" >G</text></g>
<g><text x="67.9471" y="88.9864" class="numbering-label sequential" >30</text></g>
<g><line x1="70.1859" y1="93.5137" x2="68.7039" y2="90.5169" class="numbering-line sequential" /></g>
<g><title>31 (position.label in template: 31.A)</title><text x="78.93" y="94.32" class="black" >A</text></g>
<g><title>32 (position.label in template: 32.U)</title><text x="85.01" y="98.52" class="green" >T</text></g>
<g><title>33 (position.label in template: 33.U)</title><text x="87.13" y="105.77" class="green" >T</text></g>
<g><title>34 (position.label in template: 34.A)</title><text x="84.3" y="112.7" class="green" >A</text></g>
<g><title>35 (position.label in template: 35.C)</title><text x="83.84" y="105.14" class="black" >C</text></g>
<g><title>36 (position.label in template: 36.A)</title><text x="90.82" y="101.79" class="black" >A</text></g>
<g><title>37 (position.label in template: 37.C)</title><text x="96.46" y="106.59" class="black" >C</text></g>
<g><title>38 (position.label in template: 38.C)</title><text x="103.24" y="103.24" class="black" >C</text></g>
<g><title>39 (position.label in template: 39.C)</title><text x="110.01" y="99.88" class="black" >C</text></g>
<g><title>40 (position.label in template: 40.A)</title><text x="117" y="96.53" class="green" >A</text></g>
<g><title>41 (position.label in template: 41.U)</title><text x="117.52" y="89.01" class="green" >T</text></g>
<g><title>42 (position.label in template: 42.U)</title><text x="121.26" y="82.44" class="green" >T</text></g>
<g><title>43 (position.label in template: 43.G)</title><text x="127.15" y="77.98" class="black" >G</text></g>
<g><title>44 (position.label in template: 44.A)</title><text x="134.96" y="76.4" class="black" >A</text></g>
<g><title>45 (position.label in template: 45.A)</title><text x="142.35" y="77.98" class="black" >A</text></g>
<g><title>46 (position.label in template: 46.C)</title><text x="148.25" y="82.44" class="black" >C</text></g>
<g><line x1="148.983" y1="84.0383" x2="151.887" y2="91.5795" class="black" /></g>
<g><title>47 (position.label in template: 47.C)</title><text x="155.26" y="79.61" class="black" >C</text></g>
<g><line x1="155.993" y1="81.2085" x2="158.897" y2="88.7593" class="black" /></g>
<g><title>48 (position.label in template: 48.U)</title><text x="162.27" y="76.79" class="green" >T</text></g>
<g><line x1="163.063" y1="78.364" x2="166.267" y2="85.9538" class="black" /></g>
<g><title>49 (position.label in template: 49.G)</title><text x="169.07" y="73.96" class="black" >G</text></g>
<g><line x1="169.863" y1="75.534" x2="173.067" y2="83.1238" class="black" /></g>
<g><title>50 (position.label in template: 50.A)</title><text x="173.22" y="67.38" class="black" >A</text></g>
<g><text x="168.734" y="62.1542" class="numbering-label sequential" >50</text></g>
<g><line x1="172.024" y1="65.9865" x2="170.048" y2="63.6847" class="numbering-line sequential" /></g>
<g><title>51 (position.label in template: 51.U)</title><text x="180.02" y="64.56" class="green" >T</text></g>
<g><title>52 (position.label in template: 52.G)</title><text x="187.06" y="66.71" class="black" >G</text></g>
<g><line x1="187.881" y1="68.272" x2="191.229" y2="75.8858" class="black" /></g>
<g><title>53 (position.label in template: 53.C)</title><text x="194.28" y="63.88" class="black" >C</text></g>
<g><line x1="195.013" y1="65.4785" x2="197.917" y2="73.0293" class="black" /></g>
<g><title>54 (position.label in template: 54.G)</title><text x="201.09" y="61.06" class="black" >G</text></g>
<g><line x1="201.882" y1="62.6346" x2="205.078" y2="70.2232" class="black" /></g>
<g><title>55 (position.label in template: 55.G)</title><text x="208.1" y="58.23" class="black" >G</text></g>
<g><line x1="208.892" y1="59.8046" x2="212.088" y2="67.3932" class="black" /></g>
<g><title>56 (position.label in template: 56.A)</title><text x="212.71" y="51.94" class="black" >A</text></g>
<g><title>57 (position.label in template: 57.U)</title><text x="219.81" y="50" class="green" >T</text></g>
<g><title>58 (position.label in template: 58.A)</title><text x="226.78" y="53.39" class="black" >A</text></g>
<g><title>59 (position.label in template: 59.A)</title><text x="229.6" y="60.4" class="black" >A</text></g>
<g><title>60 (position.label in template: 60.U)</title><text x="226.88" y="67.53" class="green" >T</text></g>
<g><title>61 (position.label in template: 61.A)</title><text x="220.47" y="71.2" class="black" >A</text></g>
<g><title>62 (position.label in template: 62.C)</title><text x="212.88" y="69.58" class="black" >C</text></g>
<g><title>63 (position.label in template: 63.C)</title><text x="205.87" y="72.41" class="black" >C</text></g>
<g><title>64 (position.label in template: 64.G)</title><text x="198.65" y="75.24" class="black" >G</text></g>
<g><title>65 (position.label in template: 65.A)</title><text x="192.05" y="78.06" class="black" >A</text></g>
<g><title>66 (position.label in template: 66.C)</title><text x="188.12" y="84.64" class="black" >C</text></g>
<g><title>67 (position.label in template: 67.G)</title><text x="180.9" y="87.47" class="black" >G</text></g>
<g><title>68 (position.label in template: 68.C)</title><text x="173.86" y="85.31" class="black" >C</text></g>
<g><title>69 (position.label in template: 69.A)</title><text x="167.06" y="88.14" class="green" >A</text></g>
<g><title>70 (position.label in template: 70.G)</title><text x="159.63" y="90.97" class="black" >G</text></g>
<g><title>71 (position.label in template: 71.G)</title><text x="152.62" y="93.79" class="black" >G</text></g>
<g><title>72 (position.label in template: 72.A)</title><text x="151.73" y="101.24" class="black" >A</text></g>
<g><title>73 (position.label in template: 73.A)</title><text x="147.5" y="107.51" class="black" >A</text></g>
<g><title>74 (position.label in template: 74.A)</title><text x="141.08" y="111.5" class="green" >A</text></g>
<g><title>75 (position.label in template: 75.A)</title><text x="141.08" y="119.06" class="green" >A</text></g>
<g><title>76 (position.label in template: 76.A)</title><text x="141.08" y="126.62" class="green" >A</text></g>
<g><title>77 (position.label in template: 77.G)</title><text x="140.67" y="134.18" class="black" >G</text></g>
<g><title>78 (position.label in template: 78.U)</title><text x="140.88" y="141.74" class="green" >T</text></g>
<g><title>79 (position.label in template: 79.U)</title><text x="146.218" y="147.078" class="green" >T</text></g>
<g><title>80 (position.label in template: 80.U)</title><text x="153.767" y="147.078" class="green" >T</text></g>
<g><title>81 (position.label in template: 81.C)</title><text x="161.315" y="147.078" class="black" >C</text></g>
<g><title>82 (position.label in template: 82.U)</title><text x="168.864" y="147.078" class="green" >T</text></g>
<g><title>83 (position.label in template: 83.U)</title><text x="176.413" y="147.078" class="green" >T</text></g>
<g><title>84 (position.label in template: 84.A)</title><text x="183.962" y="147.078" class="black" >A</text></g>
<g><title>85 (position.label in template: 85.A)</title><text x="191.51" y="147.078" class="black" >A</text></g>
<g><title>86 (position.label in template: 86.A)</title><text x="199.059" y="147.078" class="black" >A</text></g>
<g><title>87 (position.label in template: 87.G)</title><text x="206.608" y="147.078" class="black" >G</text></g>
<g><title>88 (position.label in template: 88.C)</title><text x="214.157" y="147.078" class="black" >C</text></g>
<g><title>89 (position.label in template: 89.C)</title><text x="221.706" y="147.078" class="black" >C</text></g>
<g><title>90 (position.label in template: 90.U)</title><text x="229.254" y="147.078" class="green" >T</text></g>
<g><title>91 (position.label in template: 91.3')</title><text x="236.803" y="147.078" class="green" >3'</text></g>
<g><line x1="87.799" y1="146.772" x2="91.2665" y2="146.772" class="gray" /></g>
<g><line x1="95.3478" y1="146.772" x2="98.8152" y2="146.772" class="gray" /></g>
<g><line x1="102.897" y1="146.772" x2="106.364" y2="146.772" class="gray" /></g>
<g><line x1="110.445" y1="146.772" x2="113.913" y2="146.772" class="gray" /></g>
<g><line x1="117.994" y1="146.772" x2="121.462" y2="146.772" class="gray" /></g>
<g><line x1="124.945" y1="145.329" x2="127.397" y2="142.877" class="gray" /></g>
<g><line x1="128.786" y1="139.394" x2="128.694" y2="135.914" class="gray" /></g>
<g><line x1="128.64" y1="131.833" x2="128.64" y2="128.355" class="gray" /></g>
<g><line x1="128.64" y1="124.273" x2="128.64" y2="120.795" class="gray" /></g>
<g><line x1="128.64" y1="116.713" x2="128.64" y2="113.235" class="gray" /></g>
<g><line x1="126.906" y1="110.118" x2="123.944" y2="108.28" class="gray" /></g>
<g><line x1="120.37" y1="108.087" x2="117.07" y2="109.671" class="gray" /></g>
<g><line x1="113.4" y1="111.458" x2="110.28" y2="113" class="gray" /></g>
<g><line x1="106.62" y1="114.808" x2="103.5" y2="116.35" class="gray" /></g>
<g><line x1="100.371" y1="118.828" x2="98.1587" y2="121.51" class="gray" /></g>
<g><line x1="94.8208" y1="123.162" x2="91.5592" y2="123.286" class="gray" /></g>
<g><line x1="87.6798" y1="124.246" x2="84.3702" y2="125.832" class="gray" /></g>
<g><line x1="80.7126" y1="127.642" x2="77.7874" y2="129.136" class="gray" /></g>
<g><line x1="74.1405" y1="130.968" x2="71.0195" y2="132.51" class="gray" /></g>
<g><line x1="67.372" y1="134.341" x2="64.438" y2="135.837" class="gray" /></g>
<g><line x1="60.7698" y1="137.625" x2="57.2702" y2="139.253" class="gray" /></g>
<g><line x1="54.5161" y1="138.284" x2="50.9039" y2="130.973" class="gray" /></g>
<g><line x1="51.8497" y1="128.282" x2="55.3403" y2="126.656" class="gray" /></g>
<g><line x1="58.9955" y1="124.843" x2="61.7445" y2="123.395" class="gray" /></g>
<g><line x1="65.3795" y1="121.54" x2="68.5005" y2="119.998" class="gray" /></g>
<g><line x1="72.1702" y1="118.212" x2="75.4798" y2="116.626" class="gray" /></g>
<g><line x1="75.3373" y1="115.261" x2="71.9527" y2="114.437" class="gray" /></g>
<g><line x1="68.7266" y1="112.336" x2="66.5334" y2="109.482" class="gray" /></g>
<g><line x1="65.5315" y1="105.838" x2="65.9485" y2="102.34" class="gray" /></g>
<g><line x1="67.5389" y1="98.7827" x2="69.6511" y2="96.3851" class="gray" /></g>
<g><line x1="73.0293" y1="94.6389" x2="76.9007" y2="94.2289" class="gray" /></g>
<g><line x1="80.609" y1="95.1737" x2="83.331" y2="97.0541" class="gray" /></g>
<g><line x1="85.5827" y1="100.173" x2="86.5573" y2="103.505" class="gray" /></g>
<g><line x1="86.3585" y1="107.353" x2="85.0715" y2="110.505" class="gray" /></g>
<g><line x1="84.1761" y1="110.357" x2="83.9639" y2="106.871" class="gray" /></g>
<g><line x1="85.6797" y1="103.951" x2="88.9803" y2="102.367" class="gray" /></g>
<g><line x1="92.374" y1="102.806" x2="94.906" y2="104.961" class="gray" /></g>
<g><line x1="98.2895" y1="105.38" x2="101.41" y2="103.838" class="gray" /></g>
<g><line x1="105.068" y1="102.027" x2="108.182" y2="100.481" class="gray" /></g>
<g><line x1="111.85" y1="98.692" x2="115.16" y2="97.1058" class="gray" /></g>
<g><line x1="117.141" y1="94.1881" x2="117.379" y2="90.7397" class="gray" /></g>
<g><line x1="118.53" y1="86.9305" x2="120.25" y2="83.9073" class="gray" /></g>
<g><line x1="122.887" y1="80.902" x2="125.523" y2="78.9058" class="gray" /></g>
<g><line x1="129.15" y1="77.2693" x2="132.96" y2="76.4985" class="gray" /></g>
<g><line x1="136.956" y1="76.5206" x2="140.354" y2="77.2472" class="gray" /></g>
<g><line x1="143.978" y1="78.9045" x2="146.622" y2="80.9033" class="gray" /></g>
<g><line x1="150.142" y1="81.37" x2="153.368" y2="80.0678" class="gray" /></g>
<g><line x1="157.153" y1="78.5423" x2="160.377" y2="77.2455" class="gray" /></g>
<g><line x1="164.154" y1="75.6998" x2="167.186" y2="74.438" class="gray" /></g>
<g><line x1="170.159" y1="71.9279" x2="172.131" y2="68.7999" class="gray" /></g>
<g><line x1="175.105" y1="66.2922" x2="178.135" y2="65.0356" class="gray" /></g>
<g><line x1="181.972" y1="64.8499" x2="185.108" y2="65.8079" class="gray" /></g>
<g><line x1="188.96" y1="65.6592" x2="192.38" y2="64.3186" class="gray" /></g>
<g><line x1="196.165" y1="62.7932" x2="199.205" y2="61.5346" class="gray" /></g>
<g><line x1="202.982" y1="59.99" x2="206.208" y2="58.6878" class="gray" /></g>
<g><line x1="209.306" y1="56.278" x2="211.504" y2="53.2798" class="gray" /></g>
<g><line x1="214.678" y1="51.096" x2="217.842" y2="50.2318" class="gray" /></g>
<g><line x1="221.645" y1="50.5864" x2="224.945" y2="52.1914" class="gray" /></g>
<g><line x1="227.542" y1="54.9771" x2="228.838" y2="58.2007" class="gray" /></g>
<g><line x1="228.873" y1="62.0005" x2="227.607" y2="65.3173" class="gray" /></g>
<g><line x1="225.109" y1="68.2378" x2="222.241" y2="69.88" class="gray" /></g>
<g><line x1="218.474" y1="70.4679" x2="214.876" y2="69.6999" class="gray" /></g>
<g><line x1="210.988" y1="70.0378" x2="207.762" y2="71.34" class="gray" /></g>
<g><line x1="203.97" y1="72.8486" x2="200.55" y2="74.1892" class="gray" /></g>
<g><line x1="196.773" y1="75.7357" x2="193.927" y2="76.9521" class="gray" /></g>
<g><line x1="191.004" y1="79.5059" x2="189.166" y2="82.5819" class="gray" /></g>
<g><line x1="186.22" y1="85.0786" x2="182.8" y2="86.4192" class="gray" /></g>
<g><line x1="178.949" y1="86.5653" x2="175.811" y2="85.6025" class="gray" /></g>
<g><line x1="171.976" y1="85.788" x2="168.944" y2="87.0498" class="gray" /></g>
<g><line x1="165.153" y1="88.5603" x2="161.537" y2="89.9375" class="gray" /></g>
<g><line x1="157.737" y1="91.4255" x2="154.513" y2="92.7223" class="gray" /></g>
<g><line x1="152.378" y1="95.5101" x2="151.972" y2="98.9077" class="gray" /></g>
<g><line x1="150.589" y1="102.626" x2="148.641" y2="105.512" class="gray" /></g>
<g><line x1="145.767" y1="108.281" x2="142.813" y2="110.117" class="gray" /></g>
<g><line x1="141.08" y1="113.235" x2="141.08" y2="116.713" class="gray" /></g>
<g><line x1="141.08" y1="120.795" x2="141.08" y2="124.273" class="gray" /></g>
<g><line x1="140.969" y1="128.352" x2="140.781" y2="131.836" class="gray" /></g>
<g><line x1="140.727" y1="135.914" x2="140.823" y2="139.394" class="gray" /></g>
<g><line x1="142.323" y1="142.877" x2="144.775" y2="145.329" class="gray" /></g>
<g><line x1="148.258" y1="146.772" x2="151.726" y2="146.772" class="gray" /></g>
<g><line x1="155.807" y1="146.772" x2="159.275" y2="146.772" class="gray" /></g>
<g><line x1="163.356" y1="146.772" x2="166.823" y2="146.772" class="gray" /></g>
<g><line x1="170.905" y1="146.772" x2="174.372" y2="146.772" class="gray" /></g>
<g><line x1="178.454" y1="146.772" x2="181.921" y2="146.772" class="gray" /></g>
<g><line x1="186.002" y1="146.772" x2="189.47" y2="146.772" class="gray" /></g>
<g><line x1="193.551" y1="146.772" x2="197.019" y2="146.772" class="gray" /></g>
<g><line x1="201.1" y1="146.772" x2="204.567" y2="146.772" class="gray" /></g>
<g><line x1="208.649" y1="146.772" x2="212.116" y2="146.772" class="gray" /></g>
<g><line x1="216.197" y1="146.772" x2="219.665" y2="146.772" class="gray" /></g>
<g><line x1="223.746" y1="146.772" x2="227.214" y2="146.772" class="gray" /></g>
<g><line x1="231.295" y1="146.772" x2="234.762" y2="146.772" class="gray" /></g>
</svg>
